<?xml version="1.0" encoding="UTF-8" standalone="no"?>
<!DOCTYPE svg PUBLIC "-//W3C//DTD SVG 1.1//EN"
 "http://www.w3.org/Graphics/SVG/1.1/DTD/svg11.dtd">
<!-- Generated by graphviz version 2.43.0 (0)
 -->
<!-- Title: src/Geometry/AABB/AABB.hpp Pages: 1 -->
<svg width="2160pt" height="467pt"
 viewBox="0.00 0.00 2160.16 467.00" xmlns="http://www.w3.org/2000/svg" xmlns:xlink="http://www.w3.org/1999/xlink">
<g id="graph0" class="graph" transform="scale(1 1) rotate(0) translate(4 463)">
<title>src/Geometry/AABB/AABB.hpp</title>
<!-- Node1 -->
<g id="Node000001" class="node">
<title>Node1</title>
<g id="a_Node000001"><a xlink:title=" ">
<polygon fill="#999999" stroke="#666666" points="1152.92,-459 988.92,-459 988.92,-440 1152.92,-440 1152.92,-459"/>
<text text-anchor="middle" x="1070.92" y="-447" font-family="Helvetica,sans-Serif" font-size="10.00">src/Geometry/AABB/AABB.hpp</text>
</a>
</g>
</g>
<!-- Node2 -->
<g id="Node000002" class="node">
<title>Node2</title>
<g id="a_Node000002"><a xlink:href="APrimitive_8hpp.html" target="_top" xlink:title=" ">
<polygon fill="white" stroke="#666666" points="1587.92,-404 1441.92,-404 1441.92,-374 1587.92,-374 1587.92,-404"/>
<text text-anchor="start" x="1449.92" y="-392" font-family="Helvetica,sans-Serif" font-size="10.00">src/Objects/Abstracts</text>
<text text-anchor="middle" x="1514.92" y="-381" font-family="Helvetica,sans-Serif" font-size="10.00">/APrimitive/APrimitive.hpp</text>
</a>
</g>
</g>
<!-- Node1&#45;&gt;Node2 -->
<g id="edge1_Node000001_Node000002" class="edge">
<title>Node1&#45;&gt;Node2</title>
<g id="a_edge1_Node000001_Node000002"><a xlink:title=" ">
<path fill="none" stroke="#63b8ff" d="M1145.54,-438.67C1227.99,-427.81 1359.93,-410.42 1441.79,-399.64"/>
<polygon fill="#63b8ff" stroke="#63b8ff" points="1144.94,-435.22 1135.49,-439.99 1145.86,-442.16 1144.94,-435.22"/>
</a>
</g>
</g>
<!-- Node32 -->
<g id="Node000032" class="node">
<title>Node32</title>
<g id="a_Node000032"><a xlink:href="BVH_8hpp.html" target="_top" xlink:title=" ">
<polygon fill="white" stroke="#666666" points="637.92,-332.5 513.92,-332.5 513.92,-302.5 637.92,-302.5 637.92,-332.5"/>
<text text-anchor="start" x="521.92" y="-320.5" font-family="Helvetica,sans-Serif" font-size="10.00">src/SceneSystem/BVH</text>
<text text-anchor="middle" x="575.92" y="-309.5" font-family="Helvetica,sans-Serif" font-size="10.00">/BVH.hpp</text>
</a>
</g>
</g>
<!-- Node1&#45;&gt;Node32 -->
<g id="edge49_Node000001_Node000032" class="edge">
<title>Node1&#45;&gt;Node32</title>
<g id="a_edge49_Node000001_Node000032"><a xlink:title=" ">
<path fill="none" stroke="#63b8ff" d="M1027.85,-437.47C951.17,-417.8 785.99,-375.22 646.92,-338 640.38,-336.25 633.5,-334.39 626.71,-332.53"/>
<polygon fill="#63b8ff" stroke="#63b8ff" points="1027.07,-440.89 1037.63,-439.98 1028.81,-434.11 1027.07,-440.89"/>
</a>
</g>
</g>
<!-- Node3 -->
<g id="Node000003" class="node">
<title>Node3</title>
<g id="a_Node000003"><a xlink:href="APrimitive_8cpp.html" target="_top" xlink:title=" ">
<polygon fill="white" stroke="#666666" points="1587.42,-332.5 1442.42,-332.5 1442.42,-302.5 1587.42,-302.5 1587.42,-332.5"/>
<text text-anchor="start" x="1450.42" y="-320.5" font-family="Helvetica,sans-Serif" font-size="10.00">src/Objects/Abstracts</text>
<text text-anchor="middle" x="1514.92" y="-309.5" font-family="Helvetica,sans-Serif" font-size="10.00">/APrimitive/APrimitive.cpp</text>
</a>
</g>
</g>
<!-- Node2&#45;&gt;Node3 -->
<g id="edge2_Node000002_Node000003" class="edge">
<title>Node2&#45;&gt;Node3</title>
<g id="a_edge2_Node000002_Node000003"><a xlink:title=" ">
<path fill="none" stroke="#63b8ff" d="M1514.92,-363.75C1514.92,-353.31 1514.92,-341.49 1514.92,-332.54"/>
<polygon fill="#63b8ff" stroke="#63b8ff" points="1511.42,-363.94 1514.92,-373.94 1518.42,-363.94 1511.42,-363.94"/>
</a>
</g>
</g>
<!-- Node4 -->
<g id="Node000004" class="node">
<title>Node4</title>
<g id="a_Node000004"><a xlink:href="Plugin_8hpp.html" target="_top" xlink:title=" ">
<polygon fill="white" stroke="#666666" points="781.42,-327 656.42,-327 656.42,-308 781.42,-308 781.42,-327"/>
<text text-anchor="middle" x="718.92" y="-315" font-family="Helvetica,sans-Serif" font-size="10.00">src/Objects/Plugin.hpp</text>
</a>
</g>
</g>
<!-- Node2&#45;&gt;Node4 -->
<g id="edge3_Node000002_Node000004" class="edge">
<title>Node2&#45;&gt;Node4</title>
<g id="a_edge3_Node000002_Node000004"><a xlink:title=" ">
<path fill="none" stroke="#63b8ff" d="M1431.55,-380.72C1271.39,-366.74 923.99,-336.4 781.66,-323.98"/>
<polygon fill="#63b8ff" stroke="#63b8ff" points="1431.55,-384.23 1441.82,-381.62 1432.16,-377.26 1431.55,-384.23"/>
</a>
</g>
</g>
<!-- Node20 -->
<g id="Node000020" class="node">
<title>Node20</title>
<g id="a_Node000020"><a xlink:href="BVHCam_8cpp.html" target="_top" xlink:title=" ">
<polygon fill="white" stroke="#666666" points="1532.92,-107 1386.92,-107 1386.92,-66 1532.92,-66 1532.92,-107"/>
<text text-anchor="start" x="1394.92" y="-95" font-family="Helvetica,sans-Serif" font-size="10.00">src/Objects/Plugins</text>
<text text-anchor="start" x="1394.92" y="-84" font-family="Helvetica,sans-Serif" font-size="10.00">/BVHCamPlugin/Renderers</text>
<text text-anchor="middle" x="1459.92" y="-73" font-family="Helvetica,sans-Serif" font-size="10.00">/BVHCam.cpp</text>
</a>
</g>
</g>
<!-- Node2&#45;&gt;Node20 -->
<g id="edge34_Node000002_Node000020" class="edge">
<title>Node2&#45;&gt;Node20</title>
<g id="a_edge34_Node000002_Node000020"><a xlink:title=" ">
<path fill="none" stroke="#63b8ff" d="M1598.21,-380.3C1654.66,-373.16 1722.12,-360.19 1739.92,-338 1751.33,-323.79 1742.23,-315.08 1739.92,-297 1735.44,-261.93 1742.07,-247.56 1719.92,-220 1672.57,-161.05 1592.06,-125.8 1533.14,-106.65"/>
<polygon fill="#63b8ff" stroke="#63b8ff" points="1597.68,-376.84 1588.18,-381.53 1598.53,-383.79 1597.68,-376.84"/>
</a>
</g>
</g>
<!-- Node21 -->
<g id="Node000021" class="node">
<title>Node21</title>
<g id="a_Node000021"><a xlink:href="Camera_8cpp.html" target="_top" xlink:title="Implementation of the RayTracer::BVHCam renderer.">
<polygon fill="white" stroke="#666666" points="1940.42,-107 1815.42,-107 1815.42,-66 1940.42,-66 1940.42,-107"/>
<text text-anchor="start" x="1823.42" y="-95" font-family="Helvetica,sans-Serif" font-size="10.00">src/Objects/Plugins</text>
<text text-anchor="start" x="1823.42" y="-84" font-family="Helvetica,sans-Serif" font-size="10.00">/CorePlugin/Renderers</text>
<text text-anchor="middle" x="1877.92" y="-73" font-family="Helvetica,sans-Serif" font-size="10.00">/Camera/Camera.cpp</text>
</a>
</g>
</g>
<!-- Node2&#45;&gt;Node21 -->
<g id="edge46_Node000002_Node000021" class="edge">
<title>Node2&#45;&gt;Node21</title>
<g id="a_edge46_Node000002_Node000021"><a xlink:title=" ">
<path fill="none" stroke="#63b8ff" d="M1598.25,-387.38C1758.39,-385.33 2096.48,-376.43 2131.92,-338 2214.54,-248.42 2020.13,-148.57 1925.72,-107.15"/>
<polygon fill="#63b8ff" stroke="#63b8ff" points="1597.93,-383.89 1587.97,-387.51 1598.01,-390.89 1597.93,-383.89"/>
</a>
</g>
</g>
<!-- Node24 -->
<g id="Node000024" class="node">
<title>Node24</title>
<g id="a_Node000024"><a xlink:href="DirectionalLight_8cpp.html" target="_top" xlink:title=" ">
<polygon fill="white" stroke="#666666" points="1948.42,-338 1787.42,-338 1787.42,-297 1948.42,-297 1948.42,-338"/>
<text text-anchor="start" x="1795.42" y="-326" font-family="Helvetica,sans-Serif" font-size="10.00">src/Objects/Plugins</text>
<text text-anchor="start" x="1795.42" y="-315" font-family="Helvetica,sans-Serif" font-size="10.00">/CorePlugin/Lights/Directional</text>
<text text-anchor="middle" x="1867.92" y="-304" font-family="Helvetica,sans-Serif" font-size="10.00">Light/DirectionalLight.cpp</text>
</a>
</g>
</g>
<!-- Node2&#45;&gt;Node24 -->
<g id="edge35_Node000002_Node000024" class="edge">
<title>Node2&#45;&gt;Node24</title>
<g id="a_edge35_Node000002_Node000024"><a xlink:title=" ">
<path fill="none" stroke="#63b8ff" d="M1597.99,-372.14C1648.58,-362.42 1714.51,-349.65 1772.92,-338 1777.63,-337.06 1782.47,-336.09 1787.34,-335.1"/>
<polygon fill="#63b8ff" stroke="#63b8ff" points="1597.25,-368.72 1588.09,-374.04 1598.57,-375.6 1597.25,-368.72"/>
</a>
</g>
</g>
<!-- Node25 -->
<g id="Node000025" class="node">
<title>Node25</title>
<g id="a_Node000025"><a xlink:href="PointLight_8cpp.html" target="_top" xlink:title=" ">
<polygon fill="white" stroke="#666666" points="2122.92,-338 1966.92,-338 1966.92,-297 2122.92,-297 2122.92,-338"/>
<text text-anchor="start" x="1974.92" y="-326" font-family="Helvetica,sans-Serif" font-size="10.00">src/Objects/Plugins</text>
<text text-anchor="start" x="1974.92" y="-315" font-family="Helvetica,sans-Serif" font-size="10.00">/CorePlugin/Lights/PointLight</text>
<text text-anchor="middle" x="2044.92" y="-304" font-family="Helvetica,sans-Serif" font-size="10.00">/PointLight.cpp</text>
</a>
</g>
</g>
<!-- Node2&#45;&gt;Node25 -->
<g id="edge36_Node000002_Node000025" class="edge">
<title>Node2&#45;&gt;Node25</title>
<g id="a_edge36_Node000002_Node000025"><a xlink:title=" ">
<path fill="none" stroke="#63b8ff" d="M1598.23,-381.3C1687.56,-373.49 1833.35,-358.93 1957.92,-338 1960.82,-337.51 1963.77,-336.99 1966.75,-336.44"/>
<polygon fill="#63b8ff" stroke="#63b8ff" points="1597.82,-377.83 1588.16,-382.18 1598.43,-384.8 1597.82,-377.83"/>
</a>
</g>
</g>
<!-- Node26 -->
<g id="Node000026" class="node">
<title>Node26</title>
<g id="a_Node000026"><a xlink:href="Cylinder_8hpp.html" target="_top" xlink:title=" ">
<polygon fill="white" stroke="#666666" points="1424.42,-338 1299.42,-338 1299.42,-297 1424.42,-297 1424.42,-338"/>
<text text-anchor="start" x="1307.42" y="-326" font-family="Helvetica,sans-Serif" font-size="10.00">src/Objects/Plugins</text>
<text text-anchor="start" x="1307.42" y="-315" font-family="Helvetica,sans-Serif" font-size="10.00">/CorePlugin/Primitives</text>
<text text-anchor="middle" x="1361.92" y="-304" font-family="Helvetica,sans-Serif" font-size="10.00">/Cylinder/Cylinder.hpp</text>
</a>
</g>
</g>
<!-- Node2&#45;&gt;Node26 -->
<g id="edge37_Node000002_Node000026" class="edge">
<title>Node2&#45;&gt;Node26</title>
<g id="a_edge37_Node000002_Node000026"><a xlink:title=" ">
<path fill="none" stroke="#63b8ff" d="M1474.79,-369.77C1453.34,-360.02 1426.9,-348.02 1405.01,-338.07"/>
<polygon fill="#63b8ff" stroke="#63b8ff" points="1473.41,-372.99 1483.96,-373.94 1476.3,-366.61 1473.41,-372.99"/>
</a>
</g>
</g>
<!-- Node28 -->
<g id="Node000028" class="node">
<title>Node28</title>
<g id="a_Node000028"><a xlink:href="Plane_8hpp.html" target="_top" xlink:title=" ">
<polygon fill="white" stroke="#666666" points="1730.42,-338 1605.42,-338 1605.42,-297 1730.42,-297 1730.42,-338"/>
<text text-anchor="start" x="1613.42" y="-326" font-family="Helvetica,sans-Serif" font-size="10.00">src/Objects/Plugins</text>
<text text-anchor="start" x="1613.42" y="-315" font-family="Helvetica,sans-Serif" font-size="10.00">/CorePlugin/Primitives</text>
<text text-anchor="middle" x="1667.92" y="-304" font-family="Helvetica,sans-Serif" font-size="10.00">/Plane/Plane.hpp</text>
</a>
</g>
</g>
<!-- Node2&#45;&gt;Node28 -->
<g id="edge40_Node000002_Node000028" class="edge">
<title>Node2&#45;&gt;Node28</title>
<g id="a_edge40_Node000002_Node000028"><a xlink:title=" ">
<path fill="none" stroke="#63b8ff" d="M1555.05,-369.77C1576.51,-360.02 1602.94,-348.02 1624.83,-338.07"/>
<polygon fill="#63b8ff" stroke="#63b8ff" points="1553.54,-366.61 1545.89,-373.94 1556.44,-372.99 1553.54,-366.61"/>
</a>
</g>
</g>
<!-- Node30 -->
<g id="Node000030" class="node">
<title>Node30</title>
<g id="a_Node000030"><a xlink:href="Sphere_8hpp.html" target="_top" xlink:title=" ">
<polygon fill="white" stroke="#666666" points="1281.42,-338 1156.42,-338 1156.42,-297 1281.42,-297 1281.42,-338"/>
<text text-anchor="start" x="1164.42" y="-326" font-family="Helvetica,sans-Serif" font-size="10.00">src/Objects/Plugins</text>
<text text-anchor="start" x="1164.42" y="-315" font-family="Helvetica,sans-Serif" font-size="10.00">/CorePlugin/Primitives</text>
<text text-anchor="middle" x="1218.92" y="-304" font-family="Helvetica,sans-Serif" font-size="10.00">/Sphere/Sphere.hpp</text>
</a>
</g>
</g>
<!-- Node2&#45;&gt;Node30 -->
<g id="edge43_Node000002_Node000030" class="edge">
<title>Node2&#45;&gt;Node30</title>
<g id="a_edge43_Node000002_Node000030"><a xlink:title=" ">
<path fill="none" stroke="#63b8ff" d="M1438.18,-371.76C1394.84,-362.37 1339.73,-350.05 1290.92,-338 1287.91,-337.26 1284.82,-336.48 1281.71,-335.68"/>
<polygon fill="#63b8ff" stroke="#63b8ff" points="1437.58,-375.21 1448.09,-373.9 1439.06,-368.37 1437.58,-375.21"/>
</a>
</g>
</g>
<!-- Node2&#45;&gt;Node32 -->
<g id="edge47_Node000002_Node000032" class="edge">
<title>Node2&#45;&gt;Node32</title>
<g id="a_edge47_Node000002_Node000032"><a xlink:title=" ">
<path fill="none" stroke="#63b8ff" d="M1431.79,-385.44C1244.92,-379.33 796.38,-362.55 646.92,-338 638.6,-336.63 629.85,-334.67 621.44,-332.52"/>
<polygon fill="#63b8ff" stroke="#63b8ff" points="1431.73,-388.94 1441.83,-385.77 1431.95,-381.95 1431.73,-388.94"/>
</a>
</g>
</g>
<!-- Node5 -->
<g id="Node000005" class="node">
<title>Node5</title>
<g id="a_Node000005"><a xlink:href="BVHCamPlugin_8cpp.html" target="_top" xlink:title=" ">
<polygon fill="white" stroke="#666666" points="1014.92,-178.5 824.92,-178.5 824.92,-148.5 1014.92,-148.5 1014.92,-178.5"/>
<text text-anchor="start" x="832.92" y="-166.5" font-family="Helvetica,sans-Serif" font-size="10.00">src/Objects/Plugins</text>
<text text-anchor="middle" x="919.92" y="-155.5" font-family="Helvetica,sans-Serif" font-size="10.00">/BVHCamPlugin/BVHCamPlugin.cpp</text>
</a>
</g>
</g>
<!-- Node4&#45;&gt;Node5 -->
<g id="edge4_Node000004_Node000005" class="edge">
<title>Node4&#45;&gt;Node5</title>
<g id="a_edge4_Node000004_Node000005"><a xlink:title=" ">
<path fill="none" stroke="#63b8ff" d="M727.8,-298.91C739.32,-277.66 761.24,-242.02 788.92,-220 812.7,-201.09 843.87,-187.54 869.84,-178.56"/>
<polygon fill="#63b8ff" stroke="#63b8ff" points="724.68,-297.33 723.14,-307.81 730.88,-300.58 724.68,-297.33"/>
</a>
</g>
</g>
<!-- Node6 -->
<g id="Node000006" class="node">
<title>Node6</title>
<g id="a_Node000006"><a xlink:href="CorePlugin_8cpp.html" target="_top" xlink:title="Core plugin implementation that provides primitives, materials and the camera.">
<polygon fill="white" stroke="#666666" points="1268.92,-178.5 1120.92,-178.5 1120.92,-148.5 1268.92,-148.5 1268.92,-178.5"/>
<text text-anchor="start" x="1128.92" y="-166.5" font-family="Helvetica,sans-Serif" font-size="10.00">src/Objects/Plugins</text>
<text text-anchor="middle" x="1194.92" y="-155.5" font-family="Helvetica,sans-Serif" font-size="10.00">/CorePlugin/CorePlugin.cpp</text>
</a>
</g>
</g>
<!-- Node4&#45;&gt;Node6 -->
<g id="edge5_Node000004_Node000006" class="edge">
<title>Node4&#45;&gt;Node6</title>
<g id="a_edge5_Node000004_Node000006"><a xlink:title=" ">
<path fill="none" stroke="#63b8ff" d="M792.01,-315.95C901.33,-313.7 1100.54,-303.68 1155.92,-261 1182.12,-240.82 1190.79,-200.18 1193.61,-178.64"/>
<polygon fill="#63b8ff" stroke="#63b8ff" points="791.65,-312.45 781.71,-316.14 791.78,-319.45 791.65,-312.45"/>
</a>
</g>
</g>
<!-- Node7 -->
<g id="Node000007" class="node">
<title>Node7</title>
<g id="a_Node000007"><a xlink:href="SceneWriter_8hpp.html" target="_top" xlink:title=" ">
<polygon fill="white" stroke="#666666" points="1147.42,-261 986.42,-261 986.42,-220 1147.42,-220 1147.42,-261"/>
<text text-anchor="start" x="994.42" y="-249" font-family="Helvetica,sans-Serif" font-size="10.00">src/Objects/Plugins</text>
<text text-anchor="start" x="994.42" y="-238" font-family="Helvetica,sans-Serif" font-size="10.00">/CorePlugin/Interfaces</text>
<text text-anchor="middle" x="1066.92" y="-227" font-family="Helvetica,sans-Serif" font-size="10.00">/SceneWriter/SceneWriter.hpp</text>
</a>
</g>
</g>
<!-- Node4&#45;&gt;Node7 -->
<g id="edge6_Node000004_Node000007" class="edge">
<title>Node4&#45;&gt;Node7</title>
<g id="a_edge6_Node000004_Node000007"><a xlink:title=" ">
<path fill="none" stroke="#63b8ff" d="M768.66,-305.82C820.62,-294.66 904.5,-276.64 976.92,-261 979.89,-260.36 982.92,-259.71 985.97,-259.05"/>
<polygon fill="#63b8ff" stroke="#63b8ff" points="767.75,-302.44 758.71,-307.96 769.22,-309.28 767.75,-302.44"/>
</a>
</g>
</g>
<!-- Node9 -->
<g id="Node000009" class="node">
<title>Node9</title>
<g id="a_Node000009"><a xlink:href="Livescene_8hpp.html" target="_top" xlink:title=" ">
<polygon fill="white" stroke="#666666" points="741.92,-261 591.92,-261 591.92,-220 741.92,-220 741.92,-261"/>
<text text-anchor="start" x="599.92" y="-249" font-family="Helvetica,sans-Serif" font-size="10.00">src/Objects/Plugins</text>
<text text-anchor="start" x="599.92" y="-238" font-family="Helvetica,sans-Serif" font-size="10.00">/LivescenePlugin/Interfaces</text>
<text text-anchor="middle" x="666.92" y="-227" font-family="Helvetica,sans-Serif" font-size="10.00">/Livescene/Livescene.hpp</text>
</a>
</g>
</g>
<!-- Node4&#45;&gt;Node9 -->
<g id="edge9_Node000004_Node000009" class="edge">
<title>Node4&#45;&gt;Node9</title>
<g id="a_edge9_Node000004_Node000009"><a xlink:title=" ">
<path fill="none" stroke="#63b8ff" d="M707.03,-299.34C699.15,-287.98 688.8,-273.05 680.59,-261.21"/>
<polygon fill="#63b8ff" stroke="#63b8ff" points="704.38,-301.67 712.96,-307.9 710.14,-297.68 704.38,-301.67"/>
</a>
</g>
</g>
<!-- Node11 -->
<g id="Node000011" class="node">
<title>Node11</title>
<g id="a_Node000011"><a xlink:href="LivescenePlugin_8cpp.html" target="_top" xlink:title=" ">
<polygon fill="white" stroke="#666666" points="768.92,-184 618.92,-184 618.92,-143 768.92,-143 768.92,-184"/>
<text text-anchor="start" x="626.92" y="-172" font-family="Helvetica,sans-Serif" font-size="10.00">src/Objects/Plugins</text>
<text text-anchor="start" x="626.92" y="-161" font-family="Helvetica,sans-Serif" font-size="10.00">/LivescenePlugin/Livescene</text>
<text text-anchor="middle" x="693.92" y="-150" font-family="Helvetica,sans-Serif" font-size="10.00">Plugin.cpp</text>
</a>
</g>
</g>
<!-- Node4&#45;&gt;Node11 -->
<g id="edge12_Node000004_Node000011" class="edge">
<title>Node4&#45;&gt;Node11</title>
<g id="a_edge12_Node000004_Node000011"><a xlink:title=" ">
<path fill="none" stroke="#63b8ff" d="M677.22,-305.05C641.44,-294.28 593.94,-277.4 582.92,-261 572.76,-245.88 573.34,-235.5 582.92,-220 592.84,-203.96 608.94,-192.41 625.84,-184.14"/>
<polygon fill="#63b8ff" stroke="#63b8ff" points="676.38,-308.45 686.96,-307.92 678.36,-301.73 676.38,-308.45"/>
</a>
</g>
</g>
<!-- Node12 -->
<g id="Node000012" class="node">
<title>Node12</title>
<g id="a_Node000012"><a xlink:href="Parser_8hpp.html" target="_top" xlink:title=" ">
<polygon fill="white" stroke="#666666" points="180.92,-255.5 16.92,-255.5 16.92,-225.5 180.92,-225.5 180.92,-255.5"/>
<text text-anchor="start" x="24.92" y="-243.5" font-family="Helvetica,sans-Serif" font-size="10.00">src/SceneSystem/ConfigParser</text>
<text text-anchor="middle" x="98.92" y="-232.5" font-family="Helvetica,sans-Serif" font-size="10.00">/Parser.hpp</text>
</a>
</g>
</g>
<!-- Node4&#45;&gt;Node12 -->
<g id="edge13_Node000004_Node000012" class="edge">
<title>Node4&#45;&gt;Node12</title>
<g id="a_edge13_Node000004_Node000012"><a xlink:title=" ">
<path fill="none" stroke="#63b8ff" d="M681.97,-305.15C670.8,-302.08 658.44,-299.05 646.92,-297 466.83,-264.97 418.66,-281.8 236.92,-261 218.77,-258.92 199.33,-256.37 180.93,-253.81"/>
<polygon fill="#63b8ff" stroke="#63b8ff" points="681.25,-308.58 691.83,-307.94 683.16,-301.85 681.25,-308.58"/>
</a>
</g>
</g>
<!-- Node16 -->
<g id="Node000016" class="node">
<title>Node16</title>
<g id="a_Node000016"><a xlink:href="main_8cpp.html" target="_top" xlink:title="Entry point and CLI for the raytracer application.">
<polygon fill="white" stroke="#666666" points="495.42,-24.5 416.42,-24.5 416.42,-5.5 495.42,-5.5 495.42,-24.5"/>
<text text-anchor="middle" x="455.92" y="-12.5" font-family="Helvetica,sans-Serif" font-size="10.00">src/main.cpp</text>
</a>
</g>
</g>
<!-- Node4&#45;&gt;Node16 -->
<g id="edge33_Node000004_Node000016" class="edge">
<title>Node4&#45;&gt;Node16</title>
<g id="a_edge33_Node000004_Node000016"><a xlink:title=" ">
<path fill="none" stroke="#63b8ff" d="M679.97,-305.12C632.15,-290.99 555.9,-267.93 543.92,-261 500.09,-235.64 480.87,-230.11 459.92,-184 434.47,-127.95 448.26,-50.17 453.89,-24.55"/>
<polygon fill="#63b8ff" stroke="#63b8ff" points="679.12,-308.52 689.7,-307.99 681.1,-301.8 679.12,-308.52"/>
</a>
</g>
</g>
<!-- Node17 -->
<g id="Node000017" class="node">
<title>Node17</title>
<g id="a_Node000017"><a xlink:href="PluginManager_8hpp.html" target="_top" xlink:title="Plugin loader interface for dynamic plugins.">
<polygon fill="white" stroke="#666666" points="421.92,-255.5 245.92,-255.5 245.92,-225.5 421.92,-225.5 421.92,-255.5"/>
<text text-anchor="start" x="253.92" y="-243.5" font-family="Helvetica,sans-Serif" font-size="10.00">src/SceneSystem/PluginManager</text>
<text text-anchor="middle" x="333.92" y="-232.5" font-family="Helvetica,sans-Serif" font-size="10.00">/PluginManager.hpp</text>
</a>
</g>
</g>
<!-- Node4&#45;&gt;Node17 -->
<g id="edge18_Node000004_Node000017" class="edge">
<title>Node4&#45;&gt;Node17</title>
<g id="a_edge18_Node000004_Node000017"><a xlink:title=" ">
<path fill="none" stroke="#63b8ff" d="M679.8,-305.22C669.18,-302.35 657.65,-299.4 646.92,-297 571.52,-280.14 484.98,-265.12 422.04,-254.97"/>
<polygon fill="#63b8ff" stroke="#63b8ff" points="679.07,-308.66 689.65,-307.94 680.93,-301.91 679.07,-308.66"/>
</a>
</g>
</g>
<!-- Node19 -->
<g id="Node000019" class="node">
<title>Node19</title>
<g id="a_Node000019"><a xlink:href="Scene_8hpp.html" target="_top" xlink:title="Scene container and ray query interface used by renderers.">
<polygon fill="white" stroke="#666666" points="600.92,-178.5 468.92,-178.5 468.92,-148.5 600.92,-148.5 600.92,-178.5"/>
<text text-anchor="start" x="476.92" y="-166.5" font-family="Helvetica,sans-Serif" font-size="10.00">src/SceneSystem/Scene</text>
<text text-anchor="middle" x="534.92" y="-155.5" font-family="Helvetica,sans-Serif" font-size="10.00">/Scene.hpp</text>
</a>
</g>
</g>
<!-- Node4&#45;&gt;Node19 -->
<g id="edge29_Node000004_Node000019" class="edge">
<title>Node4&#45;&gt;Node19</title>
<g id="a_edge29_Node000004_Node000019"><a xlink:title=" ">
<path fill="none" stroke="#63b8ff" d="M677.76,-305.08C639.85,-293.86 587.24,-276.23 571.92,-261 548.9,-238.09 539.94,-199.34 536.66,-178.6"/>
<polygon fill="#63b8ff" stroke="#63b8ff" points="676.95,-308.49 687.53,-307.93 678.91,-301.77 676.95,-308.49"/>
</a>
</g>
</g>
<!-- Node23 -->
<g id="Node000023" class="node">
<title>Node23</title>
<g id="a_Node000023"><a xlink:href="SceneNodeHelpers_8hpp.html" target="_top" xlink:title=" ">
<polygon fill="white" stroke="#666666" points="967.92,-255.5 797.92,-255.5 797.92,-225.5 967.92,-225.5 967.92,-255.5"/>
<text text-anchor="start" x="805.92" y="-243.5" font-family="Helvetica,sans-Serif" font-size="10.00">src/SceneSystem/SceneNode</text>
<text text-anchor="middle" x="882.92" y="-232.5" font-family="Helvetica,sans-Serif" font-size="10.00">Helpers/SceneNodeHelpers.hpp</text>
</a>
</g>
</g>
<!-- Node4&#45;&gt;Node23 -->
<g id="edge30_Node000004_Node000023" class="edge">
<title>Node4&#45;&gt;Node23</title>
<g id="a_edge30_Node000004_Node000023"><a xlink:title=" ">
<path fill="none" stroke="#63b8ff" d="M746.97,-303.67C776.19,-290.31 821.84,-269.43 852.06,-255.61"/>
<polygon fill="#63b8ff" stroke="#63b8ff" points="745.38,-300.55 737.74,-307.9 748.29,-306.92 745.38,-300.55"/>
</a>
</g>
</g>
<!-- Node7&#45;&gt;Node6 -->
<g id="edge7_Node000007_Node000006" class="edge">
<title>Node7&#45;&gt;Node6</title>
<g id="a_edge7_Node000007_Node000006"><a xlink:title=" ">
<path fill="none" stroke="#63b8ff" d="M1109.04,-214.82C1129.49,-202.84 1153.32,-188.87 1170.69,-178.7"/>
<polygon fill="#63b8ff" stroke="#63b8ff" points="1107.08,-211.92 1100.22,-219.99 1110.62,-217.95 1107.08,-211.92"/>
</a>
</g>
</g>
<!-- Node8 -->
<g id="Node000008" class="node">
<title>Node8</title>
<g id="a_Node000008"><a xlink:href="SceneWriter_8cpp.html" target="_top" xlink:title=" ">
<polygon fill="white" stroke="#666666" points="1078.42,-107 917.42,-107 917.42,-66 1078.42,-66 1078.42,-107"/>
<text text-anchor="start" x="925.42" y="-95" font-family="Helvetica,sans-Serif" font-size="10.00">src/Objects/Plugins</text>
<text text-anchor="start" x="925.42" y="-84" font-family="Helvetica,sans-Serif" font-size="10.00">/CorePlugin/Interfaces</text>
<text text-anchor="middle" x="997.92" y="-73" font-family="Helvetica,sans-Serif" font-size="10.00">/SceneWriter/SceneWriter.cpp</text>
</a>
</g>
</g>
<!-- Node7&#45;&gt;Node8 -->
<g id="edge8_Node000007_Node000008" class="edge">
<title>Node7&#45;&gt;Node8</title>
<g id="a_edge8_Node000007_Node000008"><a xlink:title=" ">
<path fill="none" stroke="#63b8ff" d="M1054.16,-210.47C1045.68,-191.28 1034.25,-165.59 1023.92,-143 1018.48,-131.1 1012.27,-117.82 1007.28,-107.24"/>
<polygon fill="#63b8ff" stroke="#63b8ff" points="1051.06,-212.12 1058.3,-219.86 1057.47,-209.3 1051.06,-212.12"/>
</a>
</g>
</g>
<!-- Node10 -->
<g id="Node000010" class="node">
<title>Node10</title>
<g id="a_Node000010"><a xlink:href="Livescene_8cpp.html" target="_top" xlink:title=" ">
<polygon fill="white" stroke="#666666" points="838.92,-107 688.92,-107 688.92,-66 838.92,-66 838.92,-107"/>
<text text-anchor="start" x="696.92" y="-95" font-family="Helvetica,sans-Serif" font-size="10.00">src/Objects/Plugins</text>
<text text-anchor="start" x="696.92" y="-84" font-family="Helvetica,sans-Serif" font-size="10.00">/LivescenePlugin/Interfaces</text>
<text text-anchor="middle" x="763.92" y="-73" font-family="Helvetica,sans-Serif" font-size="10.00">/Livescene/Livescene.cpp</text>
</a>
</g>
</g>
<!-- Node9&#45;&gt;Node10 -->
<g id="edge10_Node000009_Node000010" class="edge">
<title>Node9&#45;&gt;Node10</title>
<g id="a_edge10_Node000009_Node000010"><a xlink:title=" ">
<path fill="none" stroke="#63b8ff" d="M744.01,-215.08C757.5,-207.3 769.79,-197.16 777.92,-184 792.43,-160.53 782.79,-127.82 773.87,-107.16"/>
<polygon fill="#63b8ff" stroke="#63b8ff" points="742.19,-212.08 735,-219.86 745.48,-218.26 742.19,-212.08"/>
</a>
</g>
</g>
<!-- Node9&#45;&gt;Node11 -->
<g id="edge11_Node000009_Node000011" class="edge">
<title>Node9&#45;&gt;Node11</title>
<g id="a_edge11_Node000009_Node000011"><a xlink:title=" ">
<path fill="none" stroke="#63b8ff" d="M677.45,-210.26C680.61,-201.48 684,-192.07 686.88,-184.07"/>
<polygon fill="#63b8ff" stroke="#63b8ff" points="674.11,-209.2 674.02,-219.79 680.7,-211.57 674.11,-209.2"/>
</a>
</g>
</g>
<!-- Node13 -->
<g id="Node000013" class="node">
<title>Node13</title>
<g id="a_Node000013"><a xlink:href="Parser_8cpp.html" target="_top" xlink:title=" ">
<polygon fill="white" stroke="#666666" points="180.92,-178.5 16.92,-178.5 16.92,-148.5 180.92,-148.5 180.92,-178.5"/>
<text text-anchor="start" x="24.92" y="-166.5" font-family="Helvetica,sans-Serif" font-size="10.00">src/SceneSystem/ConfigParser</text>
<text text-anchor="middle" x="98.92" y="-155.5" font-family="Helvetica,sans-Serif" font-size="10.00">/Parser.cpp</text>
</a>
</g>
</g>
<!-- Node12&#45;&gt;Node13 -->
<g id="edge14_Node000012_Node000013" class="edge">
<title>Node12&#45;&gt;Node13</title>
<g id="a_edge14_Node000012_Node000013"><a xlink:title=" ">
<path fill="none" stroke="#63b8ff" d="M98.92,-215.04C98.92,-202.95 98.92,-188.79 98.92,-178.54"/>
<polygon fill="#63b8ff" stroke="#63b8ff" points="95.42,-215.39 98.92,-225.39 102.42,-215.39 95.42,-215.39"/>
</a>
</g>
</g>
<!-- Node14 -->
<g id="Node000014" class="node">
<title>Node14</title>
<g id="a_Node000014"><a xlink:href="SceneLoader_8hpp.html" target="_top" xlink:title="Loads scene graphs from parsed configuration nodes.">
<polygon fill="white" stroke="#666666" points="412.42,-101.5 247.42,-101.5 247.42,-71.5 412.42,-71.5 412.42,-101.5"/>
<text text-anchor="start" x="255.42" y="-89.5" font-family="Helvetica,sans-Serif" font-size="10.00">src/SceneSystem/SceneLoader</text>
<text text-anchor="middle" x="329.92" y="-78.5" font-family="Helvetica,sans-Serif" font-size="10.00">/SceneLoader.hpp</text>
</a>
</g>
</g>
<!-- Node12&#45;&gt;Node14 -->
<g id="edge15_Node000012_Node000014" class="edge">
<title>Node12&#45;&gt;Node14</title>
<g id="a_edge15_Node000012_Node000014"><a xlink:title=" ">
<path fill="none" stroke="#63b8ff" d="M48.57,-220.63C32.68,-212.01 16.94,-200.05 7.92,-184 -1,-168.11 -3.82,-156.94 7.92,-143 37.94,-107.37 161.99,-94.61 247.05,-90.05"/>
<polygon fill="#63b8ff" stroke="#63b8ff" points="47.39,-223.95 57.9,-225.33 50.54,-217.7 47.39,-223.95"/>
</a>
</g>
</g>
<!-- Node15 -->
<g id="Node000015" class="node">
<title>Node15</title>
<g id="a_Node000015"><a xlink:href="SceneLoader_8cpp.html" target="_top" xlink:title="Scene parsing and construction from configuration nodes.">
<polygon fill="white" stroke="#666666" points="398.42,-30 233.42,-30 233.42,0 398.42,0 398.42,-30"/>
<text text-anchor="start" x="241.42" y="-18" font-family="Helvetica,sans-Serif" font-size="10.00">src/SceneSystem/SceneLoader</text>
<text text-anchor="middle" x="315.92" y="-7" font-family="Helvetica,sans-Serif" font-size="10.00">/SceneLoader.cpp</text>
</a>
</g>
</g>
<!-- Node14&#45;&gt;Node15 -->
<g id="edge16_Node000014_Node000015" class="edge">
<title>Node14&#45;&gt;Node15</title>
<g id="a_edge16_Node000014_Node000015"><a xlink:title=" ">
<path fill="none" stroke="#63b8ff" d="M325.1,-61.58C322.99,-51.06 320.57,-39.08 318.75,-30.04"/>
<polygon fill="#63b8ff" stroke="#63b8ff" points="321.68,-62.32 327.09,-71.44 328.55,-60.94 321.68,-62.32"/>
</a>
</g>
</g>
<!-- Node14&#45;&gt;Node16 -->
<g id="edge17_Node000014_Node000016" class="edge">
<title>Node14&#45;&gt;Node16</title>
<g id="a_edge17_Node000014_Node000016"><a xlink:title=" ">
<path fill="none" stroke="#63b8ff" d="M364.2,-66.6C389.05,-52.89 421.5,-34.99 440.39,-24.57"/>
<polygon fill="#63b8ff" stroke="#63b8ff" points="362.49,-63.54 355.42,-71.44 365.87,-69.67 362.49,-63.54"/>
</a>
</g>
</g>
<!-- Node17&#45;&gt;Node14 -->
<g id="edge28_Node000017_Node000014" class="edge">
<title>Node17&#45;&gt;Node14</title>
<g id="a_edge28_Node000017_Node000014"><a xlink:title=" ">
<path fill="none" stroke="#63b8ff" d="M359.67,-218.44C369.2,-209.02 378.9,-197.09 383.92,-184 390.46,-166.99 390.78,-159.88 383.92,-143 377.09,-126.19 362.45,-111.67 350.13,-101.71"/>
<polygon fill="#63b8ff" stroke="#63b8ff" points="357.1,-216.05 352.16,-225.42 361.87,-221.18 357.1,-216.05"/>
</a>
</g>
</g>
<!-- Node18 -->
<g id="Node000018" class="node">
<title>Node18</title>
<g id="a_Node000018"><a xlink:href="PluginManager_8cpp.html" target="_top" xlink:title="Runtime plugin loader and initializer registry implementation.">
<polygon fill="white" stroke="#666666" points="374.92,-178.5 198.92,-178.5 198.92,-148.5 374.92,-148.5 374.92,-178.5"/>
<text text-anchor="start" x="206.92" y="-166.5" font-family="Helvetica,sans-Serif" font-size="10.00">src/SceneSystem/PluginManager</text>
<text text-anchor="middle" x="286.92" y="-155.5" font-family="Helvetica,sans-Serif" font-size="10.00">/PluginManager.cpp</text>
</a>
</g>
</g>
<!-- Node17&#45;&gt;Node18 -->
<g id="edge19_Node000017_Node000018" class="edge">
<title>Node17&#45;&gt;Node18</title>
<g id="a_edge19_Node000017_Node000018"><a xlink:title=" ">
<path fill="none" stroke="#63b8ff" d="M319.75,-216.88C311.93,-204.41 302.48,-189.32 295.72,-178.54"/>
<polygon fill="#63b8ff" stroke="#63b8ff" points="316.81,-218.78 325.08,-225.39 322.74,-215.06 316.81,-218.78"/>
</a>
</g>
</g>
<!-- Node17&#45;&gt;Node19 -->
<g id="edge20_Node000017_Node000019" class="edge">
<title>Node17&#45;&gt;Node19</title>
<g id="a_edge20_Node000017_Node000019"><a xlink:title=" ">
<path fill="none" stroke="#63b8ff" d="M381.37,-221.8C416.77,-208.59 464.49,-190.78 497.29,-178.54"/>
<polygon fill="#63b8ff" stroke="#63b8ff" points="379.88,-218.62 371.73,-225.39 382.32,-225.18 379.88,-218.62"/>
</a>
</g>
</g>
<!-- Node19&#45;&gt;Node8 -->
<g id="edge22_Node000019_Node000008" class="edge">
<title>Node19&#45;&gt;Node8</title>
<g id="a_edge22_Node000019_Node000008"><a xlink:title=" ">
<path fill="none" stroke="#63b8ff" d="M595.77,-146.07C600.54,-144.97 605.3,-143.93 609.92,-143 667.05,-131.53 821.37,-110.57 917.29,-97.95"/>
<polygon fill="#63b8ff" stroke="#63b8ff" points="594.9,-142.68 585.98,-148.41 596.52,-149.49 594.9,-142.68"/>
</a>
</g>
</g>
<!-- Node19&#45;&gt;Node10 -->
<g id="edge24_Node000019_Node000010" class="edge">
<title>Node19&#45;&gt;Node10</title>
<g id="a_edge24_Node000019_Node000010"><a xlink:title=" ">
<path fill="none" stroke="#63b8ff" d="M587.23,-145.37C622.02,-133.97 667.81,-118.98 704.06,-107.11"/>
<polygon fill="#63b8ff" stroke="#63b8ff" points="586.14,-142.04 577.73,-148.48 588.32,-148.69 586.14,-142.04"/>
</a>
</g>
</g>
<!-- Node19&#45;&gt;Node14 -->
<g id="edge26_Node000019_Node000014" class="edge">
<title>Node19&#45;&gt;Node14</title>
<g id="a_edge26_Node000019_Node000014"><a xlink:title=" ">
<path fill="none" stroke="#63b8ff" d="M486.54,-144.8C450.43,-131.59 401.76,-113.78 368.31,-101.54"/>
<polygon fill="#63b8ff" stroke="#63b8ff" points="485.77,-148.24 496.36,-148.39 488.18,-141.67 485.77,-148.24"/>
</a>
</g>
</g>
<!-- Node19&#45;&gt;Node16 -->
<g id="edge27_Node000019_Node000016" class="edge">
<title>Node19&#45;&gt;Node16</title>
<g id="a_edge27_Node000019_Node000016"><a xlink:title=" ">
<path fill="none" stroke="#63b8ff" d="M574.76,-142.99C588.49,-134.07 602.33,-122.07 609.92,-107 618.13,-90.73 620.64,-80.74 609.92,-66 583.98,-30.3 531.94,-19.58 495.56,-16.63"/>
<polygon fill="#63b8ff" stroke="#63b8ff" points="572.55,-140.24 565.81,-148.42 576.18,-146.23 572.55,-140.24"/>
</a>
</g>
</g>
<!-- Node19&#45;&gt;Node20 -->
<g id="edge21_Node000019_Node000020" class="edge">
<title>Node19&#45;&gt;Node20</title>
<g id="a_edge21_Node000019_Node000020"><a xlink:title=" ">
<path fill="none" stroke="#63b8ff" d="M593.4,-146.16C598.96,-144.95 604.53,-143.87 609.92,-143 685.48,-130.82 1194.6,-102.05 1386.73,-91.48"/>
<polygon fill="#63b8ff" stroke="#63b8ff" points="592.41,-142.8 583.46,-148.46 593.99,-149.62 592.41,-142.8"/>
</a>
</g>
</g>
<!-- Node19&#45;&gt;Node21 -->
<g id="edge23_Node000019_Node000021" class="edge">
<title>Node19&#45;&gt;Node21</title>
<g id="a_edge23_Node000019_Node000021"><a xlink:title=" ">
<path fill="none" stroke="#63b8ff" d="M592.43,-146.21C598.31,-144.95 604.21,-143.84 609.92,-143 1020.02,-82.49 1127.88,-127.01 1541.92,-107 1637.35,-102.39 1747.94,-95.71 1815.4,-91.49"/>
<polygon fill="#63b8ff" stroke="#63b8ff" points="591.59,-142.82 582.62,-148.46 593.15,-149.64 591.59,-142.82"/>
</a>
</g>
</g>
<!-- Node22 -->
<g id="Node000022" class="node">
<title>Node22</title>
<g id="a_Node000022"><a xlink:href="Scene_8cpp.html" target="_top" xlink:title="Implementation of the RayTracer::Scene container and utilities.">
<polygon fill="white" stroke="#666666" points="600.92,-101.5 468.92,-101.5 468.92,-71.5 600.92,-71.5 600.92,-101.5"/>
<text text-anchor="start" x="476.92" y="-89.5" font-family="Helvetica,sans-Serif" font-size="10.00">src/SceneSystem/Scene</text>
<text text-anchor="middle" x="534.92" y="-78.5" font-family="Helvetica,sans-Serif" font-size="10.00">/Scene.cpp</text>
</a>
</g>
</g>
<!-- Node19&#45;&gt;Node22 -->
<g id="edge25_Node000019_Node000022" class="edge">
<title>Node19&#45;&gt;Node22</title>
<g id="a_edge25_Node000019_Node000022"><a xlink:title=" ">
<path fill="none" stroke="#63b8ff" d="M534.92,-138.04C534.92,-125.95 534.92,-111.79 534.92,-101.54"/>
<polygon fill="#63b8ff" stroke="#63b8ff" points="531.42,-138.39 534.92,-148.39 538.42,-138.39 531.42,-138.39"/>
</a>
</g>
</g>
<!-- Node23&#45;&gt;Node5 -->
<g id="edge31_Node000023_Node000005" class="edge">
<title>Node23&#45;&gt;Node5</title>
<g id="a_edge31_Node000023_Node000005"><a xlink:title=" ">
<path fill="none" stroke="#63b8ff" d="M894.45,-216.15C900.53,-203.82 907.78,-189.11 913,-178.54"/>
<polygon fill="#63b8ff" stroke="#63b8ff" points="891.17,-214.88 889.88,-225.39 897.45,-217.97 891.17,-214.88"/>
</a>
</g>
</g>
<!-- Node23&#45;&gt;Node6 -->
<g id="edge32_Node000023_Node000006" class="edge">
<title>Node23&#45;&gt;Node6</title>
<g id="a_edge32_Node000023_Node000006"><a xlink:title=" ">
<path fill="none" stroke="#63b8ff" d="M950.99,-223.14C1006.46,-209.8 1083.97,-191.17 1136.63,-178.51"/>
<polygon fill="#63b8ff" stroke="#63b8ff" points="950.15,-219.74 941.24,-225.48 951.78,-226.55 950.15,-219.74"/>
</a>
</g>
</g>
<!-- Node26&#45;&gt;Node6 -->
<g id="edge38_Node000026_Node000006" class="edge">
<title>Node26&#45;&gt;Node6</title>
<g id="a_edge38_Node000026_Node000006"><a xlink:title=" ">
<path fill="none" stroke="#63b8ff" d="M1434.29,-295.26C1473.23,-283.1 1514.42,-268.76 1519.92,-261 1530.46,-246.13 1531.67,-233.93 1519.92,-220 1488.46,-182.7 1354.74,-170.47 1268.94,-166.46"/>
<polygon fill="#63b8ff" stroke="#63b8ff" points="1432.98,-292 1424.46,-298.29 1435.05,-298.68 1432.98,-292"/>
</a>
</g>
</g>
<!-- Node27 -->
<g id="Node000027" class="node">
<title>Node27</title>
<g id="a_Node000027"><a xlink:href="Cylinder_8cpp.html" target="_top" xlink:title=" ">
<polygon fill="white" stroke="#666666" points="1510.42,-261 1385.42,-261 1385.42,-220 1510.42,-220 1510.42,-261"/>
<text text-anchor="start" x="1393.42" y="-249" font-family="Helvetica,sans-Serif" font-size="10.00">src/Objects/Plugins</text>
<text text-anchor="start" x="1393.42" y="-238" font-family="Helvetica,sans-Serif" font-size="10.00">/CorePlugin/Primitives</text>
<text text-anchor="middle" x="1447.92" y="-227" font-family="Helvetica,sans-Serif" font-size="10.00">/Cylinder/Cylinder.cpp</text>
</a>
</g>
</g>
<!-- Node26&#45;&gt;Node27 -->
<g id="edge39_Node000026_Node000027" class="edge">
<title>Node26&#45;&gt;Node27</title>
<g id="a_edge39_Node000026_Node000027"><a xlink:title=" ">
<path fill="none" stroke="#63b8ff" d="M1392.23,-290.07C1403.18,-280.52 1415.33,-269.93 1425.48,-261.07"/>
<polygon fill="#63b8ff" stroke="#63b8ff" points="1389.76,-287.58 1384.52,-296.79 1394.36,-292.86 1389.76,-287.58"/>
</a>
</g>
</g>
<!-- Node28&#45;&gt;Node6 -->
<g id="edge41_Node000028_Node000006" class="edge">
<title>Node28&#45;&gt;Node6</title>
<g id="a_edge41_Node000028_Node000006"><a xlink:title=" ">
<path fill="none" stroke="#63b8ff" d="M1691.25,-288.63C1705.92,-267.6 1719.12,-239.18 1701.92,-220 1673.57,-188.37 1402.9,-172.98 1269.08,-167.25"/>
<polygon fill="#63b8ff" stroke="#63b8ff" points="1688.3,-286.74 1685.17,-296.86 1693.93,-290.89 1688.3,-286.74"/>
</a>
</g>
</g>
<!-- Node29 -->
<g id="Node000029" class="node">
<title>Node29</title>
<g id="a_Node000029"><a xlink:href="Plane_8cpp.html" target="_top" xlink:title=" ">
<polygon fill="white" stroke="#666666" points="1692.42,-261 1567.42,-261 1567.42,-220 1692.42,-220 1692.42,-261"/>
<text text-anchor="start" x="1575.42" y="-249" font-family="Helvetica,sans-Serif" font-size="10.00">src/Objects/Plugins</text>
<text text-anchor="start" x="1575.42" y="-238" font-family="Helvetica,sans-Serif" font-size="10.00">/CorePlugin/Primitives</text>
<text text-anchor="middle" x="1629.92" y="-227" font-family="Helvetica,sans-Serif" font-size="10.00">/Plane/Plane.cpp</text>
</a>
</g>
</g>
<!-- Node28&#45;&gt;Node29 -->
<g id="edge42_Node000028_Node000029" class="edge">
<title>Node28&#45;&gt;Node29</title>
<g id="a_edge42_Node000028_Node000029"><a xlink:title=" ">
<path fill="none" stroke="#63b8ff" d="M1653.4,-287.83C1648.87,-278.89 1643.98,-269.24 1639.84,-261.07"/>
<polygon fill="#63b8ff" stroke="#63b8ff" points="1650.3,-289.46 1657.94,-296.79 1656.54,-286.29 1650.3,-289.46"/>
</a>
</g>
</g>
<!-- Node30&#45;&gt;Node6 -->
<g id="edge44_Node000030_Node000006" class="edge">
<title>Node30&#45;&gt;Node6</title>
<g id="a_edge44_Node000030_Node000006"><a xlink:title=" ">
<path fill="none" stroke="#63b8ff" d="M1214.27,-287.06C1209.12,-254.42 1201.03,-203.15 1197.15,-178.57"/>
<polygon fill="#63b8ff" stroke="#63b8ff" points="1210.82,-287.61 1215.84,-296.94 1217.73,-286.52 1210.82,-287.61"/>
</a>
</g>
</g>
<!-- Node31 -->
<g id="Node000031" class="node">
<title>Node31</title>
<g id="a_Node000031"><a xlink:href="Sphere_8cpp.html" target="_top" xlink:title=" ">
<polygon fill="white" stroke="#666666" points="1367.42,-261 1242.42,-261 1242.42,-220 1367.42,-220 1367.42,-261"/>
<text text-anchor="start" x="1250.42" y="-249" font-family="Helvetica,sans-Serif" font-size="10.00">src/Objects/Plugins</text>
<text text-anchor="start" x="1250.42" y="-238" font-family="Helvetica,sans-Serif" font-size="10.00">/CorePlugin/Primitives</text>
<text text-anchor="middle" x="1304.92" y="-227" font-family="Helvetica,sans-Serif" font-size="10.00">/Sphere/Sphere.cpp</text>
</a>
</g>
</g>
<!-- Node30&#45;&gt;Node31 -->
<g id="edge45_Node000030_Node000031" class="edge">
<title>Node30&#45;&gt;Node31</title>
<g id="a_edge45_Node000030_Node000031"><a xlink:title=" ">
<path fill="none" stroke="#63b8ff" d="M1249.23,-290.07C1260.18,-280.52 1272.33,-269.93 1282.48,-261.07"/>
<polygon fill="#63b8ff" stroke="#63b8ff" points="1246.76,-287.58 1241.52,-296.79 1251.36,-292.86 1246.76,-287.58"/>
</a>
</g>
</g>
<!-- Node32&#45;&gt;Node19 -->
<g id="edge48_Node000032_Node000019" class="edge">
<title>Node32&#45;&gt;Node19</title>
<g id="a_edge48_Node000032_Node000019"><a xlink:title=" ">
<path fill="none" stroke="#63b8ff" d="M542.84,-296.6C530.77,-287.42 518.47,-275.35 511.92,-261 499.34,-233.42 514.93,-198.15 525.9,-178.8"/>
<polygon fill="#63b8ff" stroke="#63b8ff" points="540.92,-299.52 551.1,-302.48 544.99,-293.82 540.92,-299.52"/>
</a>
</g>
</g>
</g>
</svg>
