<?xml version="1.0" encoding="UTF-8" standalone="no"?>
<!DOCTYPE svg PUBLIC "-//W3C//DTD SVG 1.1//EN"
 "http://www.w3.org/Graphics/SVG/1.1/DTD/svg11.dtd">
<!-- Generated by graphviz version 2.43.0 (0)
 -->
<!-- Title: src/Geometry/AABB/AABB.hpp Pages: 1 -->
<!--zoomable 467 -->

<svg id="main" version="1.1" xmlns="http://www.w3.org/2000/svg" xmlns:xlink="http://www.w3.org/1999/xlink" xml:space="preserve" onload="init(evt)">
<style type="text/css"><![CDATA[
.node, .edge {opacity: 0.7;}
.node.selected, .edge.selected {opacity: 1;}
.edge:hover path { stroke: red; }
.edge:hover polygon { stroke: red; fill: red; }
]]></style>

<defs>
  <circle id="rim" cx="0" cy="0" r="7"/>
  <circle id="rim2" cx="0" cy="0" r="3.5"/>
  <g id="zoomPlus">
    <use xlink:href="#rim" fill="#404040"><set attributeName="fill" to="#808080" begin="zoomplus.mouseover" end="zoomplus.mouseout"/></use>
    <path d="M-4,0h8M0,-4v8" fill="none" stroke="white" stroke-width="1.5" pointer-events="none"/>
  </g>
  <g id="zoomMin">
    <use xlink:href="#rim" fill="#404040"><set attributeName="fill" to="#808080" begin="zoomminus.mouseover" end="zoomminus.mouseout"/></use>
    <path d="M-4,0h8" fill="none" stroke="white" stroke-width="1.5" pointer-events="none"/>
  </g>
  <g id="arrowUp" transform="translate(30 24)">
    <use xlink:href="#rim"/>
    <path pointer-events="none" fill="none" stroke="white" stroke-width="1.5" d="M0,-3.0v7 M-2.5,-0.5L0,-3.0L2.5,-0.5"/>
  </g>
  <g id="arrowRight" transform="rotate(90) translate(36 -43)">
    <use xlink:href="#rim"/>
    <path pointer-events="none" fill="none" stroke="white" stroke-width="1.5" d="M0,-3.0v7 M-2.5,-0.5L0,-3.0L2.5,-0.5"/>
  </g>
  <g id="arrowDown" transform="rotate(180) translate(-30 -48)">
    <use xlink:href="#rim"/>
    <path pointer-events="none" fill="none" stroke="white" stroke-width="1.5" d="M0,-3.0v7 M-2.5,-0.5L0,-3.0L2.5,-0.5"/>
  </g>
  <g id="arrowLeft" transform="rotate(270) translate(-36 17)">
    <use xlink:href="#rim"/>
    <path pointer-events="none" fill="none" stroke="white" stroke-width="1.5" d="M0,-3.0v7 M-2.5,-0.5L0,-3.0L2.5,-0.5"/>
  </g>
  <g id="resetDef">
    <use xlink:href="#rim2" fill="#404040"><set attributeName="fill" to="#808080" begin="reset.mouseover" end="reset.mouseout"/></use>
  </g>
</defs>
<script type="application/ecmascript">
var viewWidth = 2343;
var viewHeight = 467;
var sectionId = 'dynsection-1';
</script>
<script type="application/ecmascript" xlink:href="svg.min.js"/>
<svg id="graph" class="graph">
<g id="viewport">
<title>src/Geometry/AABB/AABB.hpp</title>
<!-- Node1 -->
<g id="Node000001" class="node">
<title>Node1</title>
<g id="a_Node000001"><a xlink:title=" ">
<polygon fill="#999999" stroke="#666666" points="1242.92,-459 1078.92,-459 1078.92,-440 1242.92,-440 1242.92,-459"/>
<text text-anchor="middle" x="1160.92" y="-447" font-family="Helvetica,sans-Serif" font-size="10.00">src/Geometry/AABB/AABB.hpp</text>
</a>
</g>
</g>
<!-- Node2 -->
<g id="Node000002" class="node">
<title>Node2</title>
<g id="a_Node000002"><a xlink:href="APrimitive_8hpp.html" target="_top" xlink:title=" ">
<polygon fill="white" stroke="#666666" points="1692.92,-404 1546.92,-404 1546.92,-374 1692.92,-374 1692.92,-404"/>
<text text-anchor="start" x="1554.92" y="-392" font-family="Helvetica,sans-Serif" font-size="10.00">src/Objects/Abstracts</text>
<text text-anchor="middle" x="1619.92" y="-381" font-family="Helvetica,sans-Serif" font-size="10.00">/APrimitive/APrimitive.hpp</text>
</a>
</g>
</g>
<!-- Node1&#45;&gt;Node2 -->
<g id="edge1_Node000001_Node000002" class="edge">
<title>Node1&#45;&gt;Node2</title>
<g id="a_edge1_Node000001_Node000002"><a xlink:title=" ">
<path fill="none" stroke="#63b8ff" d="M1237.63,-438.72C1323.62,-427.76 1462.07,-410.12 1546.65,-399.34"/>
<polygon fill="#63b8ff" stroke="#63b8ff" points="1237.14,-435.26 1227.67,-439.99 1238.03,-442.2 1237.14,-435.26"/>
</a>
</g>
</g>
<!-- Node34 -->
<g id="Node000034" class="node">
<title>Node34</title>
<g id="a_Node000034"><a xlink:href="BVH_8hpp.html" target="_top" xlink:title=" ">
<polygon fill="white" stroke="#666666" points="637.92,-332.5 513.92,-332.5 513.92,-302.5 637.92,-302.5 637.92,-332.5"/>
<text text-anchor="start" x="521.92" y="-320.5" font-family="Helvetica,sans-Serif" font-size="10.00">src/SceneSystem/BVH</text>
<text text-anchor="middle" x="575.92" y="-309.5" font-family="Helvetica,sans-Serif" font-size="10.00">/BVH.hpp</text>
</a>
</g>
</g>
<!-- Node1&#45;&gt;Node34 -->
<g id="edge52_Node000001_Node000034" class="edge">
<title>Node1&#45;&gt;Node34</title>
<g id="a_edge52_Node000001_Node000034"><a xlink:title=" ">
<path fill="none" stroke="#63b8ff" d="M1107.25,-438C1013.49,-419.42 813.95,-378.86 646.92,-338 640.09,-336.33 632.92,-334.48 625.87,-332.6"/>
<polygon fill="#63b8ff" stroke="#63b8ff" points="1106.58,-441.43 1117.07,-439.94 1107.94,-434.57 1106.58,-441.43"/>
</a>
</g>
</g>
<!-- Node3 -->
<g id="Node000003" class="node">
<title>Node3</title>
<g id="a_Node000003"><a xlink:href="APrimitive_8cpp.html" target="_top" xlink:title=" ">
<polygon fill="white" stroke="#666666" points="1769.42,-332.5 1624.42,-332.5 1624.42,-302.5 1769.42,-302.5 1769.42,-332.5"/>
<text text-anchor="start" x="1632.42" y="-320.5" font-family="Helvetica,sans-Serif" font-size="10.00">src/Objects/Abstracts</text>
<text text-anchor="middle" x="1696.92" y="-309.5" font-family="Helvetica,sans-Serif" font-size="10.00">/APrimitive/APrimitive.cpp</text>
</a>
</g>
</g>
<!-- Node2&#45;&gt;Node3 -->
<g id="edge2_Node000002_Node000003" class="edge">
<title>Node2&#45;&gt;Node3</title>
<g id="a_edge2_Node000002_Node000003"><a xlink:title=" ">
<path fill="none" stroke="#63b8ff" d="M1643.2,-366.99C1655.56,-355.84 1670.41,-342.43 1681.36,-332.54"/>
<polygon fill="#63b8ff" stroke="#63b8ff" points="1640.58,-364.64 1635.51,-373.94 1645.27,-369.83 1640.58,-364.64"/>
</a>
</g>
</g>
<!-- Node4 -->
<g id="Node000004" class="node">
<title>Node4</title>
<g id="a_Node000004"><a xlink:href="Plugin_8hpp.html" target="_top" xlink:title=" ">
<polygon fill="white" stroke="#666666" points="781.42,-327 656.42,-327 656.42,-308 781.42,-308 781.42,-327"/>
<text text-anchor="middle" x="718.92" y="-315" font-family="Helvetica,sans-Serif" font-size="10.00">src/Objects/Plugin.hpp</text>
</a>
</g>
</g>
<!-- Node2&#45;&gt;Node4 -->
<g id="edge3_Node000002_Node000004" class="edge">
<title>Node2&#45;&gt;Node4</title>
<g id="a_edge3_Node000002_Node000004"><a xlink:title=" ">
<path fill="none" stroke="#63b8ff" d="M1536.42,-381.56C1357.39,-367.75 940.04,-335.56 781.52,-323.33"/>
<polygon fill="#63b8ff" stroke="#63b8ff" points="1536.33,-385.06 1546.57,-382.34 1536.87,-378.08 1536.33,-385.06"/>
</a>
</g>
</g>
<!-- Node20 -->
<g id="Node000020" class="node">
<title>Node20</title>
<g id="a_Node000020"><a xlink:href="BVHCam_8cpp.html" target="_top" xlink:title=" ">
<polygon fill="white" stroke="#666666" points="1623.92,-107 1477.92,-107 1477.92,-66 1623.92,-66 1623.92,-107"/>
<text text-anchor="start" x="1485.92" y="-95" font-family="Helvetica,sans-Serif" font-size="10.00">src/Objects/Plugins</text>
<text text-anchor="start" x="1485.92" y="-84" font-family="Helvetica,sans-Serif" font-size="10.00">/BVHCamPlugin/Renderers</text>
<text text-anchor="middle" x="1550.92" y="-73" font-family="Helvetica,sans-Serif" font-size="10.00">/BVHCam.cpp</text>
</a>
</g>
</g>
<!-- Node2&#45;&gt;Node20 -->
<g id="edge34_Node000002_Node000020" class="edge">
<title>Node2&#45;&gt;Node20</title>
<g id="a_edge34_Node000002_Node000020"><a xlink:title=" ">
<path fill="none" stroke="#63b8ff" d="M1702.94,-385.91C1782.46,-381.94 1894.32,-370.55 1921.92,-338 1955.84,-298 1952.13,-262.87 1921.92,-220 1854.55,-124.4 1711.65,-97.4 1624.18,-90"/>
<polygon fill="#63b8ff" stroke="#63b8ff" points="1702.75,-382.41 1692.92,-386.38 1703.08,-389.4 1702.75,-382.41"/>
</a>
</g>
</g>
<!-- Node21 -->
<g id="Node000021" class="node">
<title>Node21</title>
<g id="a_Node000021"><a xlink:href="Camera_8cpp.html" target="_top" xlink:title="Implementation of the RayTracer::BVHCam renderer.">
<polygon fill="white" stroke="#666666" points="2077.42,-107 1952.42,-107 1952.42,-66 2077.42,-66 2077.42,-107"/>
<text text-anchor="start" x="1960.42" y="-95" font-family="Helvetica,sans-Serif" font-size="10.00">src/Objects/Plugins</text>
<text text-anchor="start" x="1960.42" y="-84" font-family="Helvetica,sans-Serif" font-size="10.00">/CorePlugin/Renderers</text>
<text text-anchor="middle" x="2014.92" y="-73" font-family="Helvetica,sans-Serif" font-size="10.00">/Camera/Camera.cpp</text>
</a>
</g>
</g>
<!-- Node2&#45;&gt;Node21 -->
<g id="edge49_Node000002_Node000021" class="edge">
<title>Node2&#45;&gt;Node21</title>
<g id="a_edge49_Node000002_Node000021"><a xlink:title=" ">
<path fill="none" stroke="#63b8ff" d="M1703.26,-388.21C1878.63,-387.77 2273.1,-381.87 2313.92,-338 2403.77,-241.45 2183.88,-146.83 2073.51,-107.08"/>
<polygon fill="#63b8ff" stroke="#63b8ff" points="1703.03,-384.71 1693.04,-388.23 1703.05,-391.71 1703.03,-384.71"/>
</a>
</g>
</g>
<!-- Node24 -->
<g id="Node000024" class="node">
<title>Node24</title>
<g id="a_Node000024"><a xlink:href="DirectionalLight_8cpp.html" target="_top" xlink:title=" ">
<polygon fill="white" stroke="#666666" points="2130.42,-338 1969.42,-338 1969.42,-297 2130.42,-297 2130.42,-338"/>
<text text-anchor="start" x="1977.42" y="-326" font-family="Helvetica,sans-Serif" font-size="10.00">src/Objects/Plugins</text>
<text text-anchor="start" x="1977.42" y="-315" font-family="Helvetica,sans-Serif" font-size="10.00">/CorePlugin/Lights/Directional</text>
<text text-anchor="middle" x="2049.92" y="-304" font-family="Helvetica,sans-Serif" font-size="10.00">Light/DirectionalLight.cpp</text>
</a>
</g>
</g>
<!-- Node2&#45;&gt;Node24 -->
<g id="edge35_Node000002_Node000024" class="edge">
<title>Node2&#45;&gt;Node24</title>
<g id="a_edge35_Node000002_Node000024"><a xlink:title=" ">
<path fill="none" stroke="#63b8ff" d="M1703.19,-376.85C1771.09,-367.45 1869.42,-353.14 1954.92,-338 1959.65,-337.16 1964.5,-336.27 1969.39,-335.35"/>
<polygon fill="#63b8ff" stroke="#63b8ff" points="1702.4,-373.43 1692.97,-378.26 1703.36,-380.36 1702.4,-373.43"/>
</a>
</g>
</g>
<!-- Node25 -->
<g id="Node000025" class="node">
<title>Node25</title>
<g id="a_Node000025"><a xlink:href="PointLight_8cpp.html" target="_top" xlink:title=" ">
<polygon fill="white" stroke="#666666" points="2304.92,-338 2148.92,-338 2148.92,-297 2304.92,-297 2304.92,-338"/>
<text text-anchor="start" x="2156.92" y="-326" font-family="Helvetica,sans-Serif" font-size="10.00">src/Objects/Plugins</text>
<text text-anchor="start" x="2156.92" y="-315" font-family="Helvetica,sans-Serif" font-size="10.00">/CorePlugin/Lights/PointLight</text>
<text text-anchor="middle" x="2226.92" y="-304" font-family="Helvetica,sans-Serif" font-size="10.00">/PointLight.cpp</text>
</a>
</g>
</g>
<!-- Node2&#45;&gt;Node25 -->
<g id="edge36_Node000002_Node000025" class="edge">
<title>Node2&#45;&gt;Node25</title>
<g id="a_edge36_Node000002_Node000025"><a xlink:title=" ">
<path fill="none" stroke="#63b8ff" d="M1703.09,-383.21C1806.09,-376.54 1986.72,-362.44 2139.92,-338 2142.83,-337.54 2145.78,-337.03 2148.76,-336.5"/>
<polygon fill="#63b8ff" stroke="#63b8ff" points="1702.81,-379.72 1693.06,-383.85 1703.26,-386.71 1702.81,-379.72"/>
</a>
</g>
</g>
<!-- Node26 -->
<g id="Node000026" class="node">
<title>Node26</title>
<g id="a_Node000026"><a xlink:href="Cone_8hpp.html" target="_top" xlink:title=" ">
<polygon fill="white" stroke="#666666" points="1320.42,-338 1195.42,-338 1195.42,-297 1320.42,-297 1320.42,-338"/>
<text text-anchor="start" x="1203.42" y="-326" font-family="Helvetica,sans-Serif" font-size="10.00">src/Objects/Plugins</text>
<text text-anchor="start" x="1203.42" y="-315" font-family="Helvetica,sans-Serif" font-size="10.00">/CorePlugin/Primitives</text>
<text text-anchor="middle" x="1257.92" y="-304" font-family="Helvetica,sans-Serif" font-size="10.00">/Cone/Cone.hpp</text>
</a>
</g>
</g>
<!-- Node2&#45;&gt;Node26 -->
<g id="edge37_Node000002_Node000026" class="edge">
<title>Node2&#45;&gt;Node26</title>
<g id="a_edge37_Node000002_Node000026"><a xlink:title=" ">
<path fill="none" stroke="#63b8ff" d="M1536.96,-375.96C1478.51,-366.93 1398.57,-353.51 1328.92,-338 1326.18,-337.39 1323.38,-336.74 1320.56,-336.06"/>
<polygon fill="#63b8ff" stroke="#63b8ff" points="1536.47,-379.42 1546.89,-377.48 1537.53,-372.5 1536.47,-379.42"/>
</a>
</g>
</g>
<!-- Node28 -->
<g id="Node000028" class="node">
<title>Node28</title>
<g id="a_Node000028"><a xlink:href="Cylinder_8hpp.html" target="_top" xlink:title=" ">
<polygon fill="white" stroke="#666666" points="1463.42,-338 1338.42,-338 1338.42,-297 1463.42,-297 1463.42,-338"/>
<text text-anchor="start" x="1346.42" y="-326" font-family="Helvetica,sans-Serif" font-size="10.00">src/Objects/Plugins</text>
<text text-anchor="start" x="1346.42" y="-315" font-family="Helvetica,sans-Serif" font-size="10.00">/CorePlugin/Primitives</text>
<text text-anchor="middle" x="1400.92" y="-304" font-family="Helvetica,sans-Serif" font-size="10.00">/Cylinder/Cylinder.hpp</text>
</a>
</g>
</g>
<!-- Node2&#45;&gt;Node28 -->
<g id="edge40_Node000002_Node000028" class="edge">
<title>Node2&#45;&gt;Node28</title>
<g id="a_edge40_Node000002_Node000028"><a xlink:title=" ">
<path fill="none" stroke="#63b8ff" d="M1565.76,-370.81C1534.49,-360.89 1495.06,-348.37 1462.6,-338.07"/>
<polygon fill="#63b8ff" stroke="#63b8ff" points="1565.02,-374.25 1575.61,-373.94 1567.13,-367.57 1565.02,-374.25"/>
</a>
</g>
</g>
<!-- Node30 -->
<g id="Node000030" class="node">
<title>Node30</title>
<g id="a_Node000030"><a xlink:href="Plane_8hpp.html" target="_top" xlink:title=" ">
<polygon fill="white" stroke="#666666" points="1606.42,-338 1481.42,-338 1481.42,-297 1606.42,-297 1606.42,-338"/>
<text text-anchor="start" x="1489.42" y="-326" font-family="Helvetica,sans-Serif" font-size="10.00">src/Objects/Plugins</text>
<text text-anchor="start" x="1489.42" y="-315" font-family="Helvetica,sans-Serif" font-size="10.00">/CorePlugin/Primitives</text>
<text text-anchor="middle" x="1543.92" y="-304" font-family="Helvetica,sans-Serif" font-size="10.00">/Plane/Plane.hpp</text>
</a>
</g>
</g>
<!-- Node2&#45;&gt;Node30 -->
<g id="edge43_Node000002_Node000030" class="edge">
<title>Node2&#45;&gt;Node30</title>
<g id="a_edge43_Node000002_Node000030"><a xlink:title=" ">
<path fill="none" stroke="#63b8ff" d="M1596.92,-366.96C1586.88,-357.78 1575.18,-347.08 1565.33,-338.07"/>
<polygon fill="#63b8ff" stroke="#63b8ff" points="1594.8,-369.77 1604.54,-373.94 1599.53,-364.6 1594.8,-369.77"/>
</a>
</g>
</g>
<!-- Node32 -->
<g id="Node000032" class="node">
<title>Node32</title>
<g id="a_Node000032"><a xlink:href="Sphere_8hpp.html" target="_top" xlink:title=" ">
<polygon fill="white" stroke="#666666" points="1912.42,-338 1787.42,-338 1787.42,-297 1912.42,-297 1912.42,-338"/>
<text text-anchor="start" x="1795.42" y="-326" font-family="Helvetica,sans-Serif" font-size="10.00">src/Objects/Plugins</text>
<text text-anchor="start" x="1795.42" y="-315" font-family="Helvetica,sans-Serif" font-size="10.00">/CorePlugin/Primitives</text>
<text text-anchor="middle" x="1849.92" y="-304" font-family="Helvetica,sans-Serif" font-size="10.00">/Sphere/Sphere.hpp</text>
</a>
</g>
</g>
<!-- Node2&#45;&gt;Node32 -->
<g id="edge46_Node000002_Node000032" class="edge">
<title>Node2&#45;&gt;Node32</title>
<g id="a_edge46_Node000002_Node000032"><a xlink:title=" ">
<path fill="none" stroke="#63b8ff" d="M1676.14,-371.01C1709.78,-360.85 1752.6,-347.91 1787.32,-337.42"/>
<polygon fill="#63b8ff" stroke="#63b8ff" points="1675.03,-367.69 1666.47,-373.94 1677.05,-374.39 1675.03,-367.69"/>
</a>
</g>
</g>
<!-- Node2&#45;&gt;Node34 -->
<g id="edge50_Node000002_Node000034" class="edge">
<title>Node2&#45;&gt;Node34</title>
<g id="a_edge50_Node000002_Node000034"><a xlink:title=" ">
<path fill="none" stroke="#63b8ff" d="M1536.68,-386.04C1333.64,-380.89 817.2,-365.43 646.92,-338 638.59,-336.66 629.84,-334.71 621.44,-332.56"/>
<polygon fill="#63b8ff" stroke="#63b8ff" points="1536.6,-389.54 1546.69,-386.29 1536.78,-382.54 1536.6,-389.54"/>
</a>
</g>
</g>
<!-- Node5 -->
<g id="Node000005" class="node">
<title>Node5</title>
<g id="a_Node000005"><a xlink:href="BVHCamPlugin_8cpp.html" target="_top" xlink:title=" ">
<polygon fill="white" stroke="#666666" points="1014.92,-178.5 824.92,-178.5 824.92,-148.5 1014.92,-148.5 1014.92,-178.5"/>
<text text-anchor="start" x="832.92" y="-166.5" font-family="Helvetica,sans-Serif" font-size="10.00">src/Objects/Plugins</text>
<text text-anchor="middle" x="919.92" y="-155.5" font-family="Helvetica,sans-Serif" font-size="10.00">/BVHCamPlugin/BVHCamPlugin.cpp</text>
</a>
</g>
</g>
<!-- Node4&#45;&gt;Node5 -->
<g id="edge4_Node000004_Node000005" class="edge">
<title>Node4&#45;&gt;Node5</title>
<g id="a_edge4_Node000004_Node000005"><a xlink:title=" ">
<path fill="none" stroke="#63b8ff" d="M727.8,-298.91C739.32,-277.66 761.24,-242.02 788.92,-220 812.7,-201.09 843.87,-187.54 869.84,-178.56"/>
<polygon fill="#63b8ff" stroke="#63b8ff" points="724.68,-297.33 723.14,-307.81 730.88,-300.58 724.68,-297.33"/>
</a>
</g>
</g>
<!-- Node6 -->
<g id="Node000006" class="node">
<title>Node6</title>
<g id="a_Node000006"><a xlink:href="CorePlugin_8cpp.html" target="_top" xlink:title="Core plugin implementation that provides primitives, materials and the camera.">
<polygon fill="white" stroke="#666666" points="1431.92,-178.5 1283.92,-178.5 1283.92,-148.5 1431.92,-148.5 1431.92,-178.5"/>
<text text-anchor="start" x="1291.92" y="-166.5" font-family="Helvetica,sans-Serif" font-size="10.00">src/Objects/Plugins</text>
<text text-anchor="middle" x="1357.92" y="-155.5" font-family="Helvetica,sans-Serif" font-size="10.00">/CorePlugin/CorePlugin.cpp</text>
</a>
</g>
</g>
<!-- Node4&#45;&gt;Node6 -->
<g id="edge5_Node000004_Node000006" class="edge">
<title>Node4&#45;&gt;Node6</title>
<g id="a_edge5_Node000004_Node000006"><a xlink:title=" ">
<path fill="none" stroke="#63b8ff" d="M791.57,-313.16C898.88,-307.23 1093.78,-292.44 1155.92,-261 1178.36,-249.65 1173.74,-233.56 1194.92,-220 1225.01,-200.74 1262.53,-187.37 1293.98,-178.59"/>
<polygon fill="#63b8ff" stroke="#63b8ff" points="791.26,-309.67 781.47,-313.7 791.64,-316.66 791.26,-309.67"/>
</a>
</g>
</g>
<!-- Node7 -->
<g id="Node000007" class="node">
<title>Node7</title>
<g id="a_Node000007"><a xlink:href="SceneWriter_8hpp.html" target="_top" xlink:title=" ">
<polygon fill="white" stroke="#666666" points="1147.42,-261 986.42,-261 986.42,-220 1147.42,-220 1147.42,-261"/>
<text text-anchor="start" x="994.42" y="-249" font-family="Helvetica,sans-Serif" font-size="10.00">src/Objects/Plugins</text>
<text text-anchor="start" x="994.42" y="-238" font-family="Helvetica,sans-Serif" font-size="10.00">/CorePlugin/Interfaces</text>
<text text-anchor="middle" x="1066.92" y="-227" font-family="Helvetica,sans-Serif" font-size="10.00">/SceneWriter/SceneWriter.hpp</text>
</a>
</g>
</g>
<!-- Node4&#45;&gt;Node7 -->
<g id="edge6_Node000004_Node000007" class="edge">
<title>Node4&#45;&gt;Node7</title>
<g id="a_edge6_Node000004_Node000007"><a xlink:title=" ">
<path fill="none" stroke="#63b8ff" d="M768.66,-305.82C820.62,-294.66 904.5,-276.64 976.92,-261 979.89,-260.36 982.92,-259.71 985.97,-259.05"/>
<polygon fill="#63b8ff" stroke="#63b8ff" points="767.75,-302.44 758.71,-307.96 769.22,-309.28 767.75,-302.44"/>
</a>
</g>
</g>
<!-- Node9 -->
<g id="Node000009" class="node">
<title>Node9</title>
<g id="a_Node000009"><a xlink:href="Livescene_8hpp.html" target="_top" xlink:title=" ">
<polygon fill="white" stroke="#666666" points="741.92,-261 591.92,-261 591.92,-220 741.92,-220 741.92,-261"/>
<text text-anchor="start" x="599.92" y="-249" font-family="Helvetica,sans-Serif" font-size="10.00">src/Objects/Plugins</text>
<text text-anchor="start" x="599.92" y="-238" font-family="Helvetica,sans-Serif" font-size="10.00">/LivescenePlugin/Interfaces</text>
<text text-anchor="middle" x="666.92" y="-227" font-family="Helvetica,sans-Serif" font-size="10.00">/Livescene/Livescene.hpp</text>
</a>
</g>
</g>
<!-- Node4&#45;&gt;Node9 -->
<g id="edge9_Node000004_Node000009" class="edge">
<title>Node4&#45;&gt;Node9</title>
<g id="a_edge9_Node000004_Node000009"><a xlink:title=" ">
<path fill="none" stroke="#63b8ff" d="M707.03,-299.34C699.15,-287.98 688.8,-273.05 680.59,-261.21"/>
<polygon fill="#63b8ff" stroke="#63b8ff" points="704.38,-301.67 712.96,-307.9 710.14,-297.68 704.38,-301.67"/>
</a>
</g>
</g>
<!-- Node11 -->
<g id="Node000011" class="node">
<title>Node11</title>
<g id="a_Node000011"><a xlink:href="LivescenePlugin_8cpp.html" target="_top" xlink:title=" ">
<polygon fill="white" stroke="#666666" points="768.92,-184 618.92,-184 618.92,-143 768.92,-143 768.92,-184"/>
<text text-anchor="start" x="626.92" y="-172" font-family="Helvetica,sans-Serif" font-size="10.00">src/Objects/Plugins</text>
<text text-anchor="start" x="626.92" y="-161" font-family="Helvetica,sans-Serif" font-size="10.00">/LivescenePlugin/Livescene</text>
<text text-anchor="middle" x="693.92" y="-150" font-family="Helvetica,sans-Serif" font-size="10.00">Plugin.cpp</text>
</a>
</g>
</g>
<!-- Node4&#45;&gt;Node11 -->
<g id="edge12_Node000004_Node000011" class="edge">
<title>Node4&#45;&gt;Node11</title>
<g id="a_edge12_Node000004_Node000011"><a xlink:title=" ">
<path fill="none" stroke="#63b8ff" d="M677.22,-305.05C641.44,-294.28 593.94,-277.4 582.92,-261 572.76,-245.88 573.34,-235.5 582.92,-220 592.84,-203.96 608.94,-192.41 625.84,-184.14"/>
<polygon fill="#63b8ff" stroke="#63b8ff" points="676.38,-308.45 686.96,-307.92 678.36,-301.73 676.38,-308.45"/>
</a>
</g>
</g>
<!-- Node12 -->
<g id="Node000012" class="node">
<title>Node12</title>
<g id="a_Node000012"><a xlink:href="Parser_8hpp.html" target="_top" xlink:title=" ">
<polygon fill="white" stroke="#666666" points="180.92,-255.5 16.92,-255.5 16.92,-225.5 180.92,-225.5 180.92,-255.5"/>
<text text-anchor="start" x="24.92" y="-243.5" font-family="Helvetica,sans-Serif" font-size="10.00">src/SceneSystem/ConfigParser</text>
<text text-anchor="middle" x="98.92" y="-232.5" font-family="Helvetica,sans-Serif" font-size="10.00">/Parser.hpp</text>
</a>
</g>
</g>
<!-- Node4&#45;&gt;Node12 -->
<g id="edge13_Node000004_Node000012" class="edge">
<title>Node4&#45;&gt;Node12</title>
<g id="a_edge13_Node000004_Node000012"><a xlink:title=" ">
<path fill="none" stroke="#63b8ff" d="M681.97,-305.15C670.8,-302.08 658.44,-299.05 646.92,-297 466.83,-264.97 418.66,-281.8 236.92,-261 218.77,-258.92 199.33,-256.37 180.93,-253.81"/>
<polygon fill="#63b8ff" stroke="#63b8ff" points="681.25,-308.58 691.83,-307.94 683.16,-301.85 681.25,-308.58"/>
</a>
</g>
</g>
<!-- Node16 -->
<g id="Node000016" class="node">
<title>Node16</title>
<g id="a_Node000016"><a xlink:href="main_8cpp.html" target="_top" xlink:title="Entry point and CLI for the raytracer application.">
<polygon fill="white" stroke="#666666" points="495.42,-24.5 416.42,-24.5 416.42,-5.5 495.42,-5.5 495.42,-24.5"/>
<text text-anchor="middle" x="455.92" y="-12.5" font-family="Helvetica,sans-Serif" font-size="10.00">src/main.cpp</text>
</a>
</g>
</g>
<!-- Node4&#45;&gt;Node16 -->
<g id="edge33_Node000004_Node000016" class="edge">
<title>Node4&#45;&gt;Node16</title>
<g id="a_edge33_Node000004_Node000016"><a xlink:title=" ">
<path fill="none" stroke="#63b8ff" d="M679.97,-305.12C632.15,-290.99 555.9,-267.93 543.92,-261 500.09,-235.64 480.87,-230.11 459.92,-184 434.47,-127.95 448.26,-50.17 453.89,-24.55"/>
<polygon fill="#63b8ff" stroke="#63b8ff" points="679.12,-308.52 689.7,-307.99 681.1,-301.8 679.12,-308.52"/>
</a>
</g>
</g>
<!-- Node17 -->
<g id="Node000017" class="node">
<title>Node17</title>
<g id="a_Node000017"><a xlink:href="PluginManager_8hpp.html" target="_top" xlink:title="Plugin loader interface for dynamic plugins.">
<polygon fill="white" stroke="#666666" points="421.92,-255.5 245.92,-255.5 245.92,-225.5 421.92,-225.5 421.92,-255.5"/>
<text text-anchor="start" x="253.92" y="-243.5" font-family="Helvetica,sans-Serif" font-size="10.00">src/SceneSystem/PluginManager</text>
<text text-anchor="middle" x="333.92" y="-232.5" font-family="Helvetica,sans-Serif" font-size="10.00">/PluginManager.hpp</text>
</a>
</g>
</g>
<!-- Node4&#45;&gt;Node17 -->
<g id="edge18_Node000004_Node000017" class="edge">
<title>Node4&#45;&gt;Node17</title>
<g id="a_edge18_Node000004_Node000017"><a xlink:title=" ">
<path fill="none" stroke="#63b8ff" d="M679.8,-305.22C669.18,-302.35 657.65,-299.4 646.92,-297 571.52,-280.14 484.98,-265.12 422.04,-254.97"/>
<polygon fill="#63b8ff" stroke="#63b8ff" points="679.07,-308.66 689.65,-307.94 680.93,-301.91 679.07,-308.66"/>
</a>
</g>
</g>
<!-- Node19 -->
<g id="Node000019" class="node">
<title>Node19</title>
<g id="a_Node000019"><a xlink:href="Scene_8hpp.html" target="_top" xlink:title="Scene container and ray query interface used by renderers.">
<polygon fill="white" stroke="#666666" points="600.92,-178.5 468.92,-178.5 468.92,-148.5 600.92,-148.5 600.92,-178.5"/>
<text text-anchor="start" x="476.92" y="-166.5" font-family="Helvetica,sans-Serif" font-size="10.00">src/SceneSystem/Scene</text>
<text text-anchor="middle" x="534.92" y="-155.5" font-family="Helvetica,sans-Serif" font-size="10.00">/Scene.hpp</text>
</a>
</g>
</g>
<!-- Node4&#45;&gt;Node19 -->
<g id="edge29_Node000004_Node000019" class="edge">
<title>Node4&#45;&gt;Node19</title>
<g id="a_edge29_Node000004_Node000019"><a xlink:title=" ">
<path fill="none" stroke="#63b8ff" d="M677.76,-305.08C639.85,-293.86 587.24,-276.23 571.92,-261 548.9,-238.09 539.94,-199.34 536.66,-178.6"/>
<polygon fill="#63b8ff" stroke="#63b8ff" points="676.95,-308.49 687.53,-307.93 678.91,-301.77 676.95,-308.49"/>
</a>
</g>
</g>
<!-- Node23 -->
<g id="Node000023" class="node">
<title>Node23</title>
<g id="a_Node000023"><a xlink:href="SceneNodeHelpers_8hpp.html" target="_top" xlink:title=" ">
<polygon fill="white" stroke="#666666" points="967.92,-255.5 797.92,-255.5 797.92,-225.5 967.92,-225.5 967.92,-255.5"/>
<text text-anchor="start" x="805.92" y="-243.5" font-family="Helvetica,sans-Serif" font-size="10.00">src/SceneSystem/SceneNode</text>
<text text-anchor="middle" x="882.92" y="-232.5" font-family="Helvetica,sans-Serif" font-size="10.00">Helpers/SceneNodeHelpers.hpp</text>
</a>
</g>
</g>
<!-- Node4&#45;&gt;Node23 -->
<g id="edge30_Node000004_Node000023" class="edge">
<title>Node4&#45;&gt;Node23</title>
<g id="a_edge30_Node000004_Node000023"><a xlink:title=" ">
<path fill="none" stroke="#63b8ff" d="M746.97,-303.67C776.19,-290.31 821.84,-269.43 852.06,-255.61"/>
<polygon fill="#63b8ff" stroke="#63b8ff" points="745.38,-300.55 737.74,-307.9 748.29,-306.92 745.38,-300.55"/>
</a>
</g>
</g>
<!-- Node7&#45;&gt;Node6 -->
<g id="edge7_Node000007_Node000006" class="edge">
<title>Node7&#45;&gt;Node6</title>
<g id="a_edge7_Node000007_Node000006"><a xlink:title=" ">
<path fill="none" stroke="#63b8ff" d="M1152.53,-217.44C1201.27,-204.88 1260.86,-189.52 1303.28,-178.58"/>
<polygon fill="#63b8ff" stroke="#63b8ff" points="1151.43,-214.11 1142.62,-219.99 1153.18,-220.88 1151.43,-214.11"/>
</a>
</g>
</g>
<!-- Node8 -->
<g id="Node000008" class="node">
<title>Node8</title>
<g id="a_Node000008"><a xlink:href="SceneWriter_8cpp.html" target="_top" xlink:title=" ">
<polygon fill="white" stroke="#666666" points="1078.42,-107 917.42,-107 917.42,-66 1078.42,-66 1078.42,-107"/>
<text text-anchor="start" x="925.42" y="-95" font-family="Helvetica,sans-Serif" font-size="10.00">src/Objects/Plugins</text>
<text text-anchor="start" x="925.42" y="-84" font-family="Helvetica,sans-Serif" font-size="10.00">/CorePlugin/Interfaces</text>
<text text-anchor="middle" x="997.92" y="-73" font-family="Helvetica,sans-Serif" font-size="10.00">/SceneWriter/SceneWriter.cpp</text>
</a>
</g>
</g>
<!-- Node7&#45;&gt;Node8 -->
<g id="edge8_Node000007_Node000008" class="edge">
<title>Node7&#45;&gt;Node8</title>
<g id="a_edge8_Node000007_Node000008"><a xlink:title=" ">
<path fill="none" stroke="#63b8ff" d="M1054.16,-210.47C1045.68,-191.28 1034.25,-165.59 1023.92,-143 1018.48,-131.1 1012.27,-117.82 1007.28,-107.24"/>
<polygon fill="#63b8ff" stroke="#63b8ff" points="1051.06,-212.12 1058.3,-219.86 1057.47,-209.3 1051.06,-212.12"/>
</a>
</g>
</g>
<!-- Node10 -->
<g id="Node000010" class="node">
<title>Node10</title>
<g id="a_Node000010"><a xlink:href="Livescene_8cpp.html" target="_top" xlink:title=" ">
<polygon fill="white" stroke="#666666" points="838.92,-107 688.92,-107 688.92,-66 838.92,-66 838.92,-107"/>
<text text-anchor="start" x="696.92" y="-95" font-family="Helvetica,sans-Serif" font-size="10.00">src/Objects/Plugins</text>
<text text-anchor="start" x="696.92" y="-84" font-family="Helvetica,sans-Serif" font-size="10.00">/LivescenePlugin/Interfaces</text>
<text text-anchor="middle" x="763.92" y="-73" font-family="Helvetica,sans-Serif" font-size="10.00">/Livescene/Livescene.cpp</text>
</a>
</g>
</g>
<!-- Node9&#45;&gt;Node10 -->
<g id="edge10_Node000009_Node000010" class="edge">
<title>Node9&#45;&gt;Node10</title>
<g id="a_edge10_Node000009_Node000010"><a xlink:title=" ">
<path fill="none" stroke="#63b8ff" d="M744.01,-215.08C757.5,-207.3 769.79,-197.16 777.92,-184 792.43,-160.53 782.79,-127.82 773.87,-107.16"/>
<polygon fill="#63b8ff" stroke="#63b8ff" points="742.19,-212.08 735,-219.86 745.48,-218.26 742.19,-212.08"/>
</a>
</g>
</g>
<!-- Node9&#45;&gt;Node11 -->
<g id="edge11_Node000009_Node000011" class="edge">
<title>Node9&#45;&gt;Node11</title>
<g id="a_edge11_Node000009_Node000011"><a xlink:title=" ">
<path fill="none" stroke="#63b8ff" d="M677.45,-210.26C680.61,-201.48 684,-192.07 686.88,-184.07"/>
<polygon fill="#63b8ff" stroke="#63b8ff" points="674.11,-209.2 674.02,-219.79 680.7,-211.57 674.11,-209.2"/>
</a>
</g>
</g>
<!-- Node13 -->
<g id="Node000013" class="node">
<title>Node13</title>
<g id="a_Node000013"><a xlink:href="Parser_8cpp.html" target="_top" xlink:title=" ">
<polygon fill="white" stroke="#666666" points="180.92,-178.5 16.92,-178.5 16.92,-148.5 180.92,-148.5 180.92,-178.5"/>
<text text-anchor="start" x="24.92" y="-166.5" font-family="Helvetica,sans-Serif" font-size="10.00">src/SceneSystem/ConfigParser</text>
<text text-anchor="middle" x="98.92" y="-155.5" font-family="Helvetica,sans-Serif" font-size="10.00">/Parser.cpp</text>
</a>
</g>
</g>
<!-- Node12&#45;&gt;Node13 -->
<g id="edge14_Node000012_Node000013" class="edge">
<title>Node12&#45;&gt;Node13</title>
<g id="a_edge14_Node000012_Node000013"><a xlink:title=" ">
<path fill="none" stroke="#63b8ff" d="M98.92,-215.04C98.92,-202.95 98.92,-188.79 98.92,-178.54"/>
<polygon fill="#63b8ff" stroke="#63b8ff" points="95.42,-215.39 98.92,-225.39 102.42,-215.39 95.42,-215.39"/>
</a>
</g>
</g>
<!-- Node14 -->
<g id="Node000014" class="node">
<title>Node14</title>
<g id="a_Node000014"><a xlink:href="SceneLoader_8hpp.html" target="_top" xlink:title="Loads scene graphs from parsed configuration nodes.">
<polygon fill="white" stroke="#666666" points="412.42,-101.5 247.42,-101.5 247.42,-71.5 412.42,-71.5 412.42,-101.5"/>
<text text-anchor="start" x="255.42" y="-89.5" font-family="Helvetica,sans-Serif" font-size="10.00">src/SceneSystem/SceneLoader</text>
<text text-anchor="middle" x="329.92" y="-78.5" font-family="Helvetica,sans-Serif" font-size="10.00">/SceneLoader.hpp</text>
</a>
</g>
</g>
<!-- Node12&#45;&gt;Node14 -->
<g id="edge15_Node000012_Node000014" class="edge">
<title>Node12&#45;&gt;Node14</title>
<g id="a_edge15_Node000012_Node000014"><a xlink:title=" ">
<path fill="none" stroke="#63b8ff" d="M48.57,-220.63C32.68,-212.01 16.94,-200.05 7.92,-184 -1,-168.11 -3.82,-156.94 7.92,-143 37.94,-107.37 161.99,-94.61 247.05,-90.05"/>
<polygon fill="#63b8ff" stroke="#63b8ff" points="47.39,-223.95 57.9,-225.33 50.54,-217.7 47.39,-223.95"/>
</a>
</g>
</g>
<!-- Node15 -->
<g id="Node000015" class="node">
<title>Node15</title>
<g id="a_Node000015"><a xlink:href="SceneLoader_8cpp.html" target="_top" xlink:title="Scene parsing and construction from configuration nodes.">
<polygon fill="white" stroke="#666666" points="398.42,-30 233.42,-30 233.42,0 398.42,0 398.42,-30"/>
<text text-anchor="start" x="241.42" y="-18" font-family="Helvetica,sans-Serif" font-size="10.00">src/SceneSystem/SceneLoader</text>
<text text-anchor="middle" x="315.92" y="-7" font-family="Helvetica,sans-Serif" font-size="10.00">/SceneLoader.cpp</text>
</a>
</g>
</g>
<!-- Node14&#45;&gt;Node15 -->
<g id="edge16_Node000014_Node000015" class="edge">
<title>Node14&#45;&gt;Node15</title>
<g id="a_edge16_Node000014_Node000015"><a xlink:title=" ">
<path fill="none" stroke="#63b8ff" d="M325.1,-61.58C322.99,-51.06 320.57,-39.08 318.75,-30.04"/>
<polygon fill="#63b8ff" stroke="#63b8ff" points="321.68,-62.32 327.09,-71.44 328.55,-60.94 321.68,-62.32"/>
</a>
</g>
</g>
<!-- Node14&#45;&gt;Node16 -->
<g id="edge17_Node000014_Node000016" class="edge">
<title>Node14&#45;&gt;Node16</title>
<g id="a_edge17_Node000014_Node000016"><a xlink:title=" ">
<path fill="none" stroke="#63b8ff" d="M364.2,-66.6C389.05,-52.89 421.5,-34.99 440.39,-24.57"/>
<polygon fill="#63b8ff" stroke="#63b8ff" points="362.49,-63.54 355.42,-71.44 365.87,-69.67 362.49,-63.54"/>
</a>
</g>
</g>
<!-- Node17&#45;&gt;Node14 -->
<g id="edge28_Node000017_Node000014" class="edge">
<title>Node17&#45;&gt;Node14</title>
<g id="a_edge28_Node000017_Node000014"><a xlink:title=" ">
<path fill="none" stroke="#63b8ff" d="M359.67,-218.44C369.2,-209.02 378.9,-197.09 383.92,-184 390.46,-166.99 390.78,-159.88 383.92,-143 377.09,-126.19 362.45,-111.67 350.13,-101.71"/>
<polygon fill="#63b8ff" stroke="#63b8ff" points="357.1,-216.05 352.16,-225.42 361.87,-221.18 357.1,-216.05"/>
</a>
</g>
</g>
<!-- Node18 -->
<g id="Node000018" class="node">
<title>Node18</title>
<g id="a_Node000018"><a xlink:href="PluginManager_8cpp.html" target="_top" xlink:title="Runtime plugin loader and initializer registry implementation.">
<polygon fill="white" stroke="#666666" points="374.92,-178.5 198.92,-178.5 198.92,-148.5 374.92,-148.5 374.92,-178.5"/>
<text text-anchor="start" x="206.92" y="-166.5" font-family="Helvetica,sans-Serif" font-size="10.00">src/SceneSystem/PluginManager</text>
<text text-anchor="middle" x="286.92" y="-155.5" font-family="Helvetica,sans-Serif" font-size="10.00">/PluginManager.cpp</text>
</a>
</g>
</g>
<!-- Node17&#45;&gt;Node18 -->
<g id="edge19_Node000017_Node000018" class="edge">
<title>Node17&#45;&gt;Node18</title>
<g id="a_edge19_Node000017_Node000018"><a xlink:title=" ">
<path fill="none" stroke="#63b8ff" d="M319.75,-216.88C311.93,-204.41 302.48,-189.32 295.72,-178.54"/>
<polygon fill="#63b8ff" stroke="#63b8ff" points="316.81,-218.78 325.08,-225.39 322.74,-215.06 316.81,-218.78"/>
</a>
</g>
</g>
<!-- Node17&#45;&gt;Node19 -->
<g id="edge20_Node000017_Node000019" class="edge">
<title>Node17&#45;&gt;Node19</title>
<g id="a_edge20_Node000017_Node000019"><a xlink:title=" ">
<path fill="none" stroke="#63b8ff" d="M381.37,-221.8C416.77,-208.59 464.49,-190.78 497.29,-178.54"/>
<polygon fill="#63b8ff" stroke="#63b8ff" points="379.88,-218.62 371.73,-225.39 382.32,-225.18 379.88,-218.62"/>
</a>
</g>
</g>
<!-- Node19&#45;&gt;Node8 -->
<g id="edge22_Node000019_Node000008" class="edge">
<title>Node19&#45;&gt;Node8</title>
<g id="a_edge22_Node000019_Node000008"><a xlink:title=" ">
<path fill="none" stroke="#63b8ff" d="M595.77,-146.07C600.54,-144.97 605.3,-143.93 609.92,-143 667.05,-131.53 821.37,-110.57 917.29,-97.95"/>
<polygon fill="#63b8ff" stroke="#63b8ff" points="594.9,-142.68 585.98,-148.41 596.52,-149.49 594.9,-142.68"/>
</a>
</g>
</g>
<!-- Node19&#45;&gt;Node10 -->
<g id="edge24_Node000019_Node000010" class="edge">
<title>Node19&#45;&gt;Node10</title>
<g id="a_edge24_Node000019_Node000010"><a xlink:title=" ">
<path fill="none" stroke="#63b8ff" d="M587.23,-145.37C622.02,-133.97 667.81,-118.98 704.06,-107.11"/>
<polygon fill="#63b8ff" stroke="#63b8ff" points="586.14,-142.04 577.73,-148.48 588.32,-148.69 586.14,-142.04"/>
</a>
</g>
</g>
<!-- Node19&#45;&gt;Node14 -->
<g id="edge26_Node000019_Node000014" class="edge">
<title>Node19&#45;&gt;Node14</title>
<g id="a_edge26_Node000019_Node000014"><a xlink:title=" ">
<path fill="none" stroke="#63b8ff" d="M486.54,-144.8C450.43,-131.59 401.76,-113.78 368.31,-101.54"/>
<polygon fill="#63b8ff" stroke="#63b8ff" points="485.77,-148.24 496.36,-148.39 488.18,-141.67 485.77,-148.24"/>
</a>
</g>
</g>
<!-- Node19&#45;&gt;Node16 -->
<g id="edge27_Node000019_Node000016" class="edge">
<title>Node19&#45;&gt;Node16</title>
<g id="a_edge27_Node000019_Node000016"><a xlink:title=" ">
<path fill="none" stroke="#63b8ff" d="M574.76,-142.99C588.49,-134.07 602.33,-122.07 609.92,-107 618.13,-90.73 620.64,-80.74 609.92,-66 583.98,-30.3 531.94,-19.58 495.56,-16.63"/>
<polygon fill="#63b8ff" stroke="#63b8ff" points="572.55,-140.24 565.81,-148.42 576.18,-146.23 572.55,-140.24"/>
</a>
</g>
</g>
<!-- Node19&#45;&gt;Node20 -->
<g id="edge21_Node000019_Node000020" class="edge">
<title>Node19&#45;&gt;Node20</title>
<g id="a_edge21_Node000019_Node000020"><a xlink:title=" ">
<path fill="none" stroke="#63b8ff" d="M593.39,-146.13C598.95,-144.93 604.53,-143.85 609.92,-143 694.64,-129.62 1271.57,-100.94 1477.81,-90.99"/>
<polygon fill="#63b8ff" stroke="#63b8ff" points="592.41,-142.76 583.45,-148.41 593.98,-149.58 592.41,-142.76"/>
</a>
</g>
</g>
<!-- Node19&#45;&gt;Node21 -->
<g id="edge23_Node000019_Node000021" class="edge">
<title>Node19&#45;&gt;Node21</title>
<g id="a_edge23_Node000019_Node000021"><a xlink:title=" ">
<path fill="none" stroke="#63b8ff" d="M592.43,-146.19C598.3,-144.93 604.21,-143.83 609.92,-143 1060.11,-77.37 1178.4,-126.6 1632.92,-107 1745.54,-102.14 1876.77,-95.15 1952.41,-91"/>
<polygon fill="#63b8ff" stroke="#63b8ff" points="591.59,-142.79 582.62,-148.43 593.14,-149.62 591.59,-142.79"/>
</a>
</g>
</g>
<!-- Node22 -->
<g id="Node000022" class="node">
<title>Node22</title>
<g id="a_Node000022"><a xlink:href="Scene_8cpp.html" target="_top" xlink:title="Implementation of the RayTracer::Scene container and utilities.">
<polygon fill="white" stroke="#666666" points="600.92,-101.5 468.92,-101.5 468.92,-71.5 600.92,-71.5 600.92,-101.5"/>
<text text-anchor="start" x="476.92" y="-89.5" font-family="Helvetica,sans-Serif" font-size="10.00">src/SceneSystem/Scene</text>
<text text-anchor="middle" x="534.92" y="-78.5" font-family="Helvetica,sans-Serif" font-size="10.00">/Scene.cpp</text>
</a>
</g>
</g>
<!-- Node19&#45;&gt;Node22 -->
<g id="edge25_Node000019_Node000022" class="edge">
<title>Node19&#45;&gt;Node22</title>
<g id="a_edge25_Node000019_Node000022"><a xlink:title=" ">
<path fill="none" stroke="#63b8ff" d="M534.92,-138.04C534.92,-125.95 534.92,-111.79 534.92,-101.54"/>
<polygon fill="#63b8ff" stroke="#63b8ff" points="531.42,-138.39 534.92,-148.39 538.42,-138.39 531.42,-138.39"/>
</a>
</g>
</g>
<!-- Node23&#45;&gt;Node5 -->
<g id="edge31_Node000023_Node000005" class="edge">
<title>Node23&#45;&gt;Node5</title>
<g id="a_edge31_Node000023_Node000005"><a xlink:title=" ">
<path fill="none" stroke="#63b8ff" d="M894.45,-216.15C900.53,-203.82 907.78,-189.11 913,-178.54"/>
<polygon fill="#63b8ff" stroke="#63b8ff" points="891.17,-214.88 889.88,-225.39 897.45,-217.97 891.17,-214.88"/>
</a>
</g>
</g>
<!-- Node23&#45;&gt;Node6 -->
<g id="edge32_Node000023_Node000006" class="edge">
<title>Node23&#45;&gt;Node6</title>
<g id="a_edge32_Node000023_Node000006"><a xlink:title=" ">
<path fill="none" stroke="#63b8ff" d="M958.06,-223.5C964.43,-222.27 970.78,-221.08 976.92,-220 1083.07,-201.28 1206.66,-184.12 1283.6,-173.99"/>
<polygon fill="#63b8ff" stroke="#63b8ff" points="957.2,-220.1 948.06,-225.46 958.55,-226.97 957.2,-220.1"/>
</a>
</g>
</g>
<!-- Node26&#45;&gt;Node6 -->
<g id="edge38_Node000026_Node000006" class="edge">
<title>Node26&#45;&gt;Node6</title>
<g id="a_edge38_Node000026_Node000006"><a xlink:title=" ">
<path fill="none" stroke="#63b8ff" d="M1306.92,-291.19C1318.65,-283.01 1330.05,-272.91 1337.92,-261 1354.82,-235.46 1357.86,-198.45 1358.17,-178.51"/>
<polygon fill="#63b8ff" stroke="#63b8ff" points="1304.81,-288.39 1298.37,-296.8 1308.65,-294.24 1304.81,-288.39"/>
</a>
</g>
</g>
<!-- Node27 -->
<g id="Node000027" class="node">
<title>Node27</title>
<g id="a_Node000027"><a xlink:href="Cone_8cpp.html" target="_top" xlink:title=" ">
<polygon fill="white" stroke="#666666" points="1329.42,-261 1204.42,-261 1204.42,-220 1329.42,-220 1329.42,-261"/>
<text text-anchor="start" x="1212.42" y="-249" font-family="Helvetica,sans-Serif" font-size="10.00">src/Objects/Plugins</text>
<text text-anchor="start" x="1212.42" y="-238" font-family="Helvetica,sans-Serif" font-size="10.00">/CorePlugin/Primitives</text>
<text text-anchor="middle" x="1266.92" y="-227" font-family="Helvetica,sans-Serif" font-size="10.00">/Cone/Cone.cpp</text>
</a>
</g>
</g>
<!-- Node26&#45;&gt;Node27 -->
<g id="edge39_Node000026_Node000027" class="edge">
<title>Node26&#45;&gt;Node27</title>
<g id="a_edge39_Node000026_Node000027"><a xlink:title=" ">
<path fill="none" stroke="#63b8ff" d="M1261.5,-286.69C1262.53,-278.08 1263.64,-268.9 1264.58,-261.07"/>
<polygon fill="#63b8ff" stroke="#63b8ff" points="1258,-286.45 1260.29,-296.79 1264.96,-287.28 1258,-286.45"/>
</a>
</g>
</g>
<!-- Node28&#45;&gt;Node6 -->
<g id="edge41_Node000028_Node000006" class="edge">
<title>Node28&#45;&gt;Node6</title>
<g id="a_edge41_Node000028_Node000006"><a xlink:title=" ">
<path fill="none" stroke="#63b8ff" d="M1392.59,-287.06C1383.36,-254.42 1368.86,-203.15 1361.9,-178.57"/>
<polygon fill="#63b8ff" stroke="#63b8ff" points="1389.3,-288.27 1395.39,-296.94 1396.04,-286.36 1389.3,-288.27"/>
</a>
</g>
</g>
<!-- Node29 -->
<g id="Node000029" class="node">
<title>Node29</title>
<g id="a_Node000029"><a xlink:href="Cylinder_8cpp.html" target="_top" xlink:title=" ">
<polygon fill="white" stroke="#666666" points="1549.42,-261 1424.42,-261 1424.42,-220 1549.42,-220 1549.42,-261"/>
<text text-anchor="start" x="1432.42" y="-249" font-family="Helvetica,sans-Serif" font-size="10.00">src/Objects/Plugins</text>
<text text-anchor="start" x="1432.42" y="-238" font-family="Helvetica,sans-Serif" font-size="10.00">/CorePlugin/Primitives</text>
<text text-anchor="middle" x="1486.92" y="-227" font-family="Helvetica,sans-Serif" font-size="10.00">/Cylinder/Cylinder.cpp</text>
</a>
</g>
</g>
<!-- Node28&#45;&gt;Node29 -->
<g id="edge42_Node000028_Node000029" class="edge">
<title>Node28&#45;&gt;Node29</title>
<g id="a_edge42_Node000028_Node000029"><a xlink:title=" ">
<path fill="none" stroke="#63b8ff" d="M1431.23,-290.07C1442.18,-280.52 1454.33,-269.93 1464.48,-261.07"/>
<polygon fill="#63b8ff" stroke="#63b8ff" points="1428.76,-287.58 1423.52,-296.79 1433.36,-292.86 1428.76,-287.58"/>
</a>
</g>
</g>
<!-- Node30&#45;&gt;Node6 -->
<g id="edge44_Node000030_Node000006" class="edge">
<title>Node30&#45;&gt;Node6</title>
<g id="a_edge44_Node000030_Node000006"><a xlink:title=" ">
<path fill="none" stroke="#63b8ff" d="M1616.25,-295.1C1654.82,-282.96 1695.48,-268.7 1700.92,-261 1711.44,-246.12 1712.74,-233.88 1700.92,-220 1667.1,-180.27 1522.35,-168.89 1432.04,-165.69"/>
<polygon fill="#63b8ff" stroke="#63b8ff" points="1615.01,-291.82 1606.51,-298.14 1617.1,-298.5 1615.01,-291.82"/>
</a>
</g>
</g>
<!-- Node31 -->
<g id="Node000031" class="node">
<title>Node31</title>
<g id="a_Node000031"><a xlink:href="Plane_8cpp.html" target="_top" xlink:title=" ">
<polygon fill="white" stroke="#666666" points="1692.42,-261 1567.42,-261 1567.42,-220 1692.42,-220 1692.42,-261"/>
<text text-anchor="start" x="1575.42" y="-249" font-family="Helvetica,sans-Serif" font-size="10.00">src/Objects/Plugins</text>
<text text-anchor="start" x="1575.42" y="-238" font-family="Helvetica,sans-Serif" font-size="10.00">/CorePlugin/Primitives</text>
<text text-anchor="middle" x="1629.92" y="-227" font-family="Helvetica,sans-Serif" font-size="10.00">/Plane/Plane.cpp</text>
</a>
</g>
</g>
<!-- Node30&#45;&gt;Node31 -->
<g id="edge45_Node000030_Node000031" class="edge">
<title>Node30&#45;&gt;Node31</title>
<g id="a_edge45_Node000030_Node000031"><a xlink:title=" ">
<path fill="none" stroke="#63b8ff" d="M1574.23,-290.07C1585.18,-280.52 1597.33,-269.93 1607.48,-261.07"/>
<polygon fill="#63b8ff" stroke="#63b8ff" points="1571.76,-287.58 1566.52,-296.79 1576.36,-292.86 1571.76,-287.58"/>
</a>
</g>
</g>
<!-- Node32&#45;&gt;Node6 -->
<g id="edge47_Node000032_Node000006" class="edge">
<title>Node32&#45;&gt;Node6</title>
<g id="a_edge47_Node000032_Node000006"><a xlink:title=" ">
<path fill="none" stroke="#63b8ff" d="M1816.21,-290.84C1779.53,-263.03 1725.37,-222.27 1719.92,-220 1625.75,-180.7 1507.37,-168.86 1432.15,-165.5"/>
<polygon fill="#63b8ff" stroke="#63b8ff" points="1814.12,-293.65 1824.2,-296.91 1818.35,-288.07 1814.12,-293.65"/>
</a>
</g>
</g>
<!-- Node33 -->
<g id="Node000033" class="node">
<title>Node33</title>
<g id="a_Node000033"><a xlink:href="Sphere_8cpp.html" target="_top" xlink:title=" ">
<polygon fill="white" stroke="#666666" points="1912.42,-261 1787.42,-261 1787.42,-220 1912.42,-220 1912.42,-261"/>
<text text-anchor="start" x="1795.42" y="-249" font-family="Helvetica,sans-Serif" font-size="10.00">src/Objects/Plugins</text>
<text text-anchor="start" x="1795.42" y="-238" font-family="Helvetica,sans-Serif" font-size="10.00">/CorePlugin/Primitives</text>
<text text-anchor="middle" x="1849.92" y="-227" font-family="Helvetica,sans-Serif" font-size="10.00">/Sphere/Sphere.cpp</text>
</a>
</g>
</g>
<!-- Node32&#45;&gt;Node33 -->
<g id="edge48_Node000032_Node000033" class="edge">
<title>Node32&#45;&gt;Node33</title>
<g id="a_edge48_Node000032_Node000033"><a xlink:title=" ">
<path fill="none" stroke="#63b8ff" d="M1849.92,-286.69C1849.92,-278.08 1849.92,-268.9 1849.92,-261.07"/>
<polygon fill="#63b8ff" stroke="#63b8ff" points="1846.42,-286.79 1849.92,-296.79 1853.42,-286.79 1846.42,-286.79"/>
</a>
</g>
</g>
<!-- Node34&#45;&gt;Node19 -->
<g id="edge51_Node000034_Node000019" class="edge">
<title>Node34&#45;&gt;Node19</title>
<g id="a_edge51_Node000034_Node000019"><a xlink:title=" ">
<path fill="none" stroke="#63b8ff" d="M542.84,-296.6C530.77,-287.42 518.47,-275.35 511.92,-261 499.34,-233.42 514.93,-198.15 525.9,-178.8"/>
<polygon fill="#63b8ff" stroke="#63b8ff" points="540.92,-299.52 551.1,-302.48 544.99,-293.82 540.92,-299.52"/>
</a>
</g>
</g>
</g>
</svg>

<g id="navigator" transform="translate(0 0)" fill="#404254">
  <rect fill="#f2f5e9" fill-opacity="0.5" stroke="#606060" stroke-width=".5" x="0" y="0" width="60" height="60"/>
  <use id="zoomplus" xlink:href="#zoomPlus" x="17" y="9" onmousedown="handleZoom(evt,'in')"/>
  <use id="zoomminus" xlink:href="#zoomMin" x="42" y="9" onmousedown="handleZoom(evt,'out')"/>
  <use id="reset" xlink:href="#resetDef" x="30" y="36" onmousedown="handleReset()"/>
   <use id="arrowup" xlink:href="#arrowUp" x="0" y="0" onmousedown="handlePan(0,-1)"/>
  <use id="arrowright" xlink:href="#arrowRight" x="0" y="0" onmousedown="handlePan(1,0)"/>
  <use id="arrowdown" xlink:href="#arrowDown" x="0" y="0" onmousedown="handlePan(0,1)"/>
  <use id="arrowleft" xlink:href="#arrowLeft" x="0" y="0" onmousedown="handlePan(-1,0)"/>
</g>
<svg viewBox="0 0 15 15" width="100%" height="30px" preserveAspectRatio="xMaxYMin meet">
 <g id="arrow_out" transform="scale(0.3 0.3)">
  <a xlink:href="AABB_8hpp__dep__incl_org.svg" target="_base">
   <rect id="button" ry="5" rx="5" y="6" x="6" height="38" width="38"
        fill="#f2f5e9" fill-opacity="0.5" stroke="#606060" stroke-width="1.0"/>
   <path id="arrow"
     d="M 11.500037,31.436501 C 11.940474,20.09759 22.043105,11.32322 32.158766,21.979434 L 37.068811,17.246167 C 37.068811,17.246167 37.088388,32 37.088388,32 L 22.160133,31.978069 C 22.160133,31.978069 26.997745,27.140456 26.997745,27.140456 C 18.528582,18.264221 13.291696,25.230495 11.500037,31.436501 z"
     style="fill:#404040;"/>
  </a>
 </g>
</svg>

<style type='text/css'>
<![CDATA[
[data-mouse-over-selected='false'] { opacity: 0.7; }
[data-mouse-over-selected='true']  { opacity: 1.0; }
]]>
</style>
<script type="application/ecmascript"><![CDATA[
document.addEventListener('DOMContentLoaded', (event) => {
  highlightEdges();
  highlightAdjacentNodes();
});
]]></script>
</svg>
