<?xml version="1.0" encoding="UTF-8" standalone="no"?>
<!DOCTYPE svg PUBLIC "-//W3C//DTD SVG 1.1//EN"
 "http://www.w3.org/Graphics/SVG/1.1/DTD/svg11.dtd">
<!-- Generated by graphviz version 2.43.0 (0)
 -->
<!-- Title: src/Geometry/AABB/AABB.hpp Pages: 1 -->
<!--zoomable 456 -->

<svg id="main" version="1.1" xmlns="http://www.w3.org/2000/svg" xmlns:xlink="http://www.w3.org/1999/xlink" xml:space="preserve" onload="init(evt)">
<style type="text/css"><![CDATA[
.node, .edge {opacity: 0.7;}
.node.selected, .edge.selected {opacity: 1;}
.edge:hover path { stroke: red; }
.edge:hover polygon { stroke: red; fill: red; }
]]></style>

<defs>
  <circle id="rim" cx="0" cy="0" r="7"/>
  <circle id="rim2" cx="0" cy="0" r="3.5"/>
  <g id="zoomPlus">
    <use xlink:href="#rim" fill="#404040"><set attributeName="fill" to="#808080" begin="zoomplus.mouseover" end="zoomplus.mouseout"/></use>
    <path d="M-4,0h8M0,-4v8" fill="none" stroke="white" stroke-width="1.5" pointer-events="none"/>
  </g>
  <g id="zoomMin">
    <use xlink:href="#rim" fill="#404040"><set attributeName="fill" to="#808080" begin="zoomminus.mouseover" end="zoomminus.mouseout"/></use>
    <path d="M-4,0h8" fill="none" stroke="white" stroke-width="1.5" pointer-events="none"/>
  </g>
  <g id="arrowUp" transform="translate(30 24)">
    <use xlink:href="#rim"/>
    <path pointer-events="none" fill="none" stroke="white" stroke-width="1.5" d="M0,-3.0v7 M-2.5,-0.5L0,-3.0L2.5,-0.5"/>
  </g>
  <g id="arrowRight" transform="rotate(90) translate(36 -43)">
    <use xlink:href="#rim"/>
    <path pointer-events="none" fill="none" stroke="white" stroke-width="1.5" d="M0,-3.0v7 M-2.5,-0.5L0,-3.0L2.5,-0.5"/>
  </g>
  <g id="arrowDown" transform="rotate(180) translate(-30 -48)">
    <use xlink:href="#rim"/>
    <path pointer-events="none" fill="none" stroke="white" stroke-width="1.5" d="M0,-3.0v7 M-2.5,-0.5L0,-3.0L2.5,-0.5"/>
  </g>
  <g id="arrowLeft" transform="rotate(270) translate(-36 17)">
    <use xlink:href="#rim"/>
    <path pointer-events="none" fill="none" stroke="white" stroke-width="1.5" d="M0,-3.0v7 M-2.5,-0.5L0,-3.0L2.5,-0.5"/>
  </g>
  <g id="resetDef">
    <use xlink:href="#rim2" fill="#404040"><set attributeName="fill" to="#808080" begin="reset.mouseover" end="reset.mouseout"/></use>
  </g>
</defs>
<script type="application/ecmascript">
var viewWidth = 1570;
var viewHeight = 456;
var sectionId = 'dynsection-1';
</script>
<script type="application/ecmascript" xlink:href="svg.min.js"/>
<svg id="graph" class="graph">
<g id="viewport">
<title>src/Geometry/AABB/AABB.hpp</title>
<!-- Node1 -->
<g id="Node000001" class="node">
<title>Node1</title>
<g id="a_Node000001"><a xlink:title=" ">
<polygon fill="#999999" stroke="#666666" points="957.5,-448 793.5,-448 793.5,-429 957.5,-429 957.5,-448"/>
<text text-anchor="middle" x="875.5" y="-436" font-family="Helvetica,sans-Serif" font-size="10.00">src/Geometry/AABB/AABB.hpp</text>
</a>
</g>
</g>
<!-- Node2 -->
<g id="Node000002" class="node">
<title>Node2</title>
<g id="a_Node000002"><a xlink:href="APrimitive_8hpp.html" target="_top" xlink:title=" ">
<polygon fill="white" stroke="#666666" points="898.5,-393 752.5,-393 752.5,-363 898.5,-363 898.5,-393"/>
<text text-anchor="start" x="760.5" y="-381" font-family="Helvetica,sans-Serif" font-size="10.00">src/Objects/Abstracts</text>
<text text-anchor="middle" x="825.5" y="-370" font-family="Helvetica,sans-Serif" font-size="10.00">/APrimitive/APrimitive.hpp</text>
</a>
</g>
</g>
<!-- Node1&#45;&gt;Node2 -->
<g id="edge1_Node000001_Node000002" class="edge">
<title>Node1&#45;&gt;Node2</title>
<g id="a_edge1_Node000001_Node000002"><a xlink:title=" ">
<path fill="none" stroke="#63b8ff" d="M861.53,-421.15C853.99,-412.34 844.78,-401.56 837.56,-393.11"/>
<polygon fill="#63b8ff" stroke="#63b8ff" points="858.96,-423.54 868.12,-428.87 864.29,-418.99 858.96,-423.54"/>
</a>
</g>
</g>
<!-- Node27 -->
<g id="Node000027" class="node">
<title>Node27</title>
<g id="a_Node000027"><a xlink:href="BVH_8hpp.html" target="_top" xlink:title=" ">
<polygon fill="white" stroke="#666666" points="1561.5,-321.5 1437.5,-321.5 1437.5,-291.5 1561.5,-291.5 1561.5,-321.5"/>
<text text-anchor="start" x="1445.5" y="-309.5" font-family="Helvetica,sans-Serif" font-size="10.00">src/SceneSystem/BVH</text>
<text text-anchor="middle" x="1499.5" y="-298.5" font-family="Helvetica,sans-Serif" font-size="10.00">/BVH.hpp</text>
</a>
</g>
</g>
<!-- Node1&#45;&gt;Node27 -->
<g id="edge40_Node000001_Node000027" class="edge">
<title>Node1&#45;&gt;Node27</title>
<g id="a_edge40_Node000001_Node000027"><a xlink:title=" ">
<path fill="none" stroke="#63b8ff" d="M931.7,-427.17C1031.19,-408.66 1244.69,-367.94 1423.5,-327 1430.8,-325.33 1438.48,-323.47 1446.02,-321.59"/>
<polygon fill="#63b8ff" stroke="#63b8ff" points="931.06,-423.73 921.86,-429 932.33,-430.61 931.06,-423.73"/>
</a>
</g>
</g>
<!-- Node3 -->
<g id="Node000003" class="node">
<title>Node3</title>
<g id="a_Node000003"><a xlink:href="APrimitive_8cpp.html" target="_top" xlink:title=" ">
<polygon fill="white" stroke="#666666" points="496,-321.5 351,-321.5 351,-291.5 496,-291.5 496,-321.5"/>
<text text-anchor="start" x="359" y="-309.5" font-family="Helvetica,sans-Serif" font-size="10.00">src/Objects/Abstracts</text>
<text text-anchor="middle" x="423.5" y="-298.5" font-family="Helvetica,sans-Serif" font-size="10.00">/APrimitive/APrimitive.cpp</text>
</a>
</g>
</g>
<!-- Node2&#45;&gt;Node3 -->
<g id="edge2_Node000002_Node000003" class="edge">
<title>Node2&#45;&gt;Node3</title>
<g id="a_edge2_Node000002_Node000003"><a xlink:title=" ">
<path fill="none" stroke="#63b8ff" d="M742.3,-365.83C677.53,-356.69 585.5,-342.74 505.5,-327 497.17,-325.36 488.41,-323.47 479.84,-321.51"/>
<polygon fill="#63b8ff" stroke="#63b8ff" points="742.07,-369.33 752.45,-367.25 743.04,-362.4 742.07,-369.33"/>
</a>
</g>
</g>
<!-- Node4 -->
<g id="Node000004" class="node">
<title>Node4</title>
<g id="a_Node000004"><a xlink:href="Plugin_8hpp.html" target="_top" xlink:title=" ">
<polygon fill="white" stroke="#666666" points="1136,-316 1011,-316 1011,-297 1136,-297 1136,-316"/>
<text text-anchor="middle" x="1073.5" y="-304" font-family="Helvetica,sans-Serif" font-size="10.00">src/Objects/Plugin.hpp</text>
</a>
</g>
</g>
<!-- Node2&#45;&gt;Node4 -->
<g id="edge3_Node000002_Node000004" class="edge">
<title>Node2&#45;&gt;Node4</title>
<g id="a_edge3_Node000002_Node000004"><a xlink:title=" ">
<path fill="none" stroke="#63b8ff" d="M885.36,-360.22C935.08,-346.29 1003.78,-327.04 1042.93,-316.07"/>
<polygon fill="#63b8ff" stroke="#63b8ff" points="884.37,-356.87 875.69,-362.94 886.26,-363.61 884.37,-356.87"/>
</a>
</g>
</g>
<!-- Node16 -->
<g id="Node000016" class="node">
<title>Node16</title>
<g id="a_Node000016"><a xlink:href="Camera_8cpp.html" target="_top" xlink:title=" ">
<polygon fill="white" stroke="#666666" points="1452,-107 1327,-107 1327,-66 1452,-66 1452,-107"/>
<text text-anchor="start" x="1335" y="-95" font-family="Helvetica,sans-Serif" font-size="10.00">src/Objects/Plugins</text>
<text text-anchor="start" x="1335" y="-84" font-family="Helvetica,sans-Serif" font-size="10.00">/CorePlugin/Renderers</text>
<text text-anchor="middle" x="1389.5" y="-73" font-family="Helvetica,sans-Serif" font-size="10.00">/Camera/Camera.cpp</text>
</a>
</g>
</g>
<!-- Node2&#45;&gt;Node16 -->
<g id="edge37_Node000002_Node000016" class="edge">
<title>Node2&#45;&gt;Node16</title>
<g id="a_edge37_Node000002_Node000016"><a xlink:title=" ">
<path fill="none" stroke="#63b8ff" d="M908.73,-376.99C1018.43,-372.77 1212.15,-350.27 1337.5,-250 1369.94,-224.05 1378.17,-212.67 1390.5,-173 1397.29,-151.17 1395.55,-124.66 1393.08,-107.01"/>
<polygon fill="#63b8ff" stroke="#63b8ff" points="908.58,-373.49 898.7,-377.33 908.82,-380.49 908.58,-373.49"/>
</a>
</g>
</g>
<!-- Node19 -->
<g id="Node000019" class="node">
<title>Node19</title>
<g id="a_Node000019"><a xlink:href="DirectionalLight_8cpp.html" target="_top" xlink:title=" ">
<polygon fill="white" stroke="#666666" points="818,-327 657,-327 657,-286 818,-286 818,-327"/>
<text text-anchor="start" x="665" y="-315" font-family="Helvetica,sans-Serif" font-size="10.00">src/Objects/Plugins</text>
<text text-anchor="start" x="665" y="-304" font-family="Helvetica,sans-Serif" font-size="10.00">/CorePlugin/Lights/Directional</text>
<text text-anchor="middle" x="737.5" y="-293" font-family="Helvetica,sans-Serif" font-size="10.00">Light/DirectionalLight.cpp</text>
</a>
</g>
</g>
<!-- Node2&#45;&gt;Node19 -->
<g id="edge26_Node000002_Node000019" class="edge">
<title>Node2&#45;&gt;Node19</title>
<g id="a_edge26_Node000002_Node000019"><a xlink:title=" ">
<path fill="none" stroke="#63b8ff" d="M799.55,-356.5C787.77,-347.21 773.91,-336.26 762.28,-327.07"/>
<polygon fill="#63b8ff" stroke="#63b8ff" points="797.67,-359.48 807.69,-362.94 802.01,-353.99 797.67,-359.48"/>
</a>
</g>
</g>
<!-- Node20 -->
<g id="Node000020" class="node">
<title>Node20</title>
<g id="a_Node000020"><a xlink:href="PointLight_8cpp.html" target="_top" xlink:title=" ">
<polygon fill="white" stroke="#666666" points="992.5,-327 836.5,-327 836.5,-286 992.5,-286 992.5,-327"/>
<text text-anchor="start" x="844.5" y="-315" font-family="Helvetica,sans-Serif" font-size="10.00">src/Objects/Plugins</text>
<text text-anchor="start" x="844.5" y="-304" font-family="Helvetica,sans-Serif" font-size="10.00">/CorePlugin/Lights/PointLight</text>
<text text-anchor="middle" x="914.5" y="-293" font-family="Helvetica,sans-Serif" font-size="10.00">/PointLight.cpp</text>
</a>
</g>
</g>
<!-- Node2&#45;&gt;Node20 -->
<g id="edge27_Node000002_Node000020" class="edge">
<title>Node2&#45;&gt;Node20</title>
<g id="a_edge27_Node000002_Node000020"><a xlink:title=" ">
<path fill="none" stroke="#63b8ff" d="M851.4,-356.77C863.38,-347.42 877.56,-336.35 889.43,-327.07"/>
<polygon fill="#63b8ff" stroke="#63b8ff" points="849.24,-354.02 843.51,-362.94 853.55,-359.54 849.24,-354.02"/>
</a>
</g>
</g>
<!-- Node21 -->
<g id="Node000021" class="node">
<title>Node21</title>
<g id="a_Node000021"><a xlink:href="Cylinder_8hpp.html" target="_top" xlink:title=" ">
<polygon fill="white" stroke="#666666" points="190,-327 65,-327 65,-286 190,-286 190,-327"/>
<text text-anchor="start" x="73" y="-315" font-family="Helvetica,sans-Serif" font-size="10.00">src/Objects/Plugins</text>
<text text-anchor="start" x="73" y="-304" font-family="Helvetica,sans-Serif" font-size="10.00">/CorePlugin/Primitives</text>
<text text-anchor="middle" x="127.5" y="-293" font-family="Helvetica,sans-Serif" font-size="10.00">/Cylinder/Cylinder.hpp</text>
</a>
</g>
</g>
<!-- Node2&#45;&gt;Node21 -->
<g id="edge28_Node000002_Node000021" class="edge">
<title>Node2&#45;&gt;Node21</title>
<g id="a_edge28_Node000002_Node000021"><a xlink:title=" ">
<path fill="none" stroke="#63b8ff" d="M741.77,-375.33C620.94,-371.78 391.06,-360.81 198.5,-327 195.73,-326.51 192.91,-325.97 190.07,-325.37"/>
<polygon fill="#63b8ff" stroke="#63b8ff" points="741.96,-378.83 752.05,-375.62 742.15,-371.84 741.96,-378.83"/>
</a>
</g>
</g>
<!-- Node23 -->
<g id="Node000023" class="node">
<title>Node23</title>
<g id="a_Node000023"><a xlink:href="Plane_8hpp.html" target="_top" xlink:title=" ">
<polygon fill="white" stroke="#666666" points="333,-327 208,-327 208,-286 333,-286 333,-327"/>
<text text-anchor="start" x="216" y="-315" font-family="Helvetica,sans-Serif" font-size="10.00">src/Objects/Plugins</text>
<text text-anchor="start" x="216" y="-304" font-family="Helvetica,sans-Serif" font-size="10.00">/CorePlugin/Primitives</text>
<text text-anchor="middle" x="270.5" y="-293" font-family="Helvetica,sans-Serif" font-size="10.00">/Plane/Plane.hpp</text>
</a>
</g>
</g>
<!-- Node2&#45;&gt;Node23 -->
<g id="edge31_Node000002_Node000023" class="edge">
<title>Node2&#45;&gt;Node23</title>
<g id="a_edge31_Node000002_Node000023"><a xlink:title=" ">
<path fill="none" stroke="#63b8ff" d="M742.36,-372.6C645.47,-366.5 480.83,-353.14 341.5,-327 338.74,-326.48 335.92,-325.91 333.09,-325.29"/>
<polygon fill="#63b8ff" stroke="#63b8ff" points="742.2,-376.09 752.39,-373.22 742.63,-369.1 742.2,-376.09"/>
</a>
</g>
</g>
<!-- Node25 -->
<g id="Node000025" class="node">
<title>Node25</title>
<g id="a_Node000025"><a xlink:href="Sphere_8hpp.html" target="_top" xlink:title=" ">
<polygon fill="white" stroke="#666666" points="639,-327 514,-327 514,-286 639,-286 639,-327"/>
<text text-anchor="start" x="522" y="-315" font-family="Helvetica,sans-Serif" font-size="10.00">src/Objects/Plugins</text>
<text text-anchor="start" x="522" y="-304" font-family="Helvetica,sans-Serif" font-size="10.00">/CorePlugin/Primitives</text>
<text text-anchor="middle" x="576.5" y="-293" font-family="Helvetica,sans-Serif" font-size="10.00">/Sphere/Sphere.hpp</text>
</a>
</g>
</g>
<!-- Node2&#45;&gt;Node25 -->
<g id="edge34_Node000002_Node000025" class="edge">
<title>Node2&#45;&gt;Node25</title>
<g id="a_edge34_Node000002_Node000025"><a xlink:title=" ">
<path fill="none" stroke="#63b8ff" d="M765.16,-360.16C727.01,-349.51 677.79,-335.77 639.19,-325"/>
<polygon fill="#63b8ff" stroke="#63b8ff" points="764.54,-363.62 775.11,-362.94 766.42,-356.88 764.54,-363.62"/>
</a>
</g>
</g>
<!-- Node2&#45;&gt;Node27 -->
<g id="edge38_Node000002_Node000027" class="edge">
<title>Node2&#45;&gt;Node27</title>
<g id="a_edge38_Node000002_Node000027"><a xlink:title=" ">
<path fill="none" stroke="#63b8ff" d="M908.95,-374.44C1025.03,-369.87 1241.52,-357.73 1423.5,-327 1432.1,-325.55 1441.14,-323.6 1449.88,-321.5"/>
<polygon fill="#63b8ff" stroke="#63b8ff" points="908.57,-370.95 898.71,-374.83 908.84,-377.94 908.57,-370.95"/>
</a>
</g>
</g>
<!-- Node5 -->
<g id="Node000005" class="node">
<title>Node5</title>
<g id="a_Node000005"><a xlink:href="CorePlugin_8cpp.html" target="_top" xlink:title=" ">
<polygon fill="white" stroke="#666666" points="610.5,-173 462.5,-173 462.5,-143 610.5,-143 610.5,-173"/>
<text text-anchor="start" x="470.5" y="-161" font-family="Helvetica,sans-Serif" font-size="10.00">src/Objects/Plugins</text>
<text text-anchor="middle" x="536.5" y="-150" font-family="Helvetica,sans-Serif" font-size="10.00">/CorePlugin/CorePlugin.cpp</text>
</a>
</g>
</g>
<!-- Node4&#45;&gt;Node5 -->
<g id="edge4_Node000004_Node000005" class="edge">
<title>Node4&#45;&gt;Node5</title>
<g id="a_edge4_Node000004_Node000005"><a xlink:title=" ">
<path fill="none" stroke="#63b8ff" d="M1036.55,-294.12C1025.38,-291.05 1013.02,-288.03 1001.5,-286 907.72,-269.49 651.46,-306.08 574.5,-250 549.45,-231.75 540.83,-193.82 537.92,-173.16"/>
<polygon fill="#63b8ff" stroke="#63b8ff" points="1035.83,-297.56 1046.41,-296.92 1037.75,-290.82 1035.83,-297.56"/>
</a>
</g>
</g>
<!-- Node6 -->
<g id="Node000006" class="node">
<title>Node6</title>
<g id="a_Node000006"><a xlink:href="SceneWriter_8hpp.html" target="_top" xlink:title=" ">
<polygon fill="white" stroke="#666666" points="933,-250 772,-250 772,-209 933,-209 933,-250"/>
<text text-anchor="start" x="780" y="-238" font-family="Helvetica,sans-Serif" font-size="10.00">src/Objects/Plugins</text>
<text text-anchor="start" x="780" y="-227" font-family="Helvetica,sans-Serif" font-size="10.00">/CorePlugin/Interfaces</text>
<text text-anchor="middle" x="852.5" y="-216" font-family="Helvetica,sans-Serif" font-size="10.00">/SceneWriter/SceneWriter.hpp</text>
</a>
</g>
</g>
<!-- Node4&#45;&gt;Node6 -->
<g id="edge5_Node000004_Node000006" class="edge">
<title>Node4&#45;&gt;Node6</title>
<g id="a_edge5_Node000004_Node000006"><a xlink:title=" ">
<path fill="none" stroke="#63b8ff" d="M1038.52,-293.63C1004.07,-281.94 950.83,-263.87 910.12,-250.05"/>
<polygon fill="#63b8ff" stroke="#63b8ff" points="1037.55,-297 1048.15,-296.9 1039.8,-290.37 1037.55,-297"/>
</a>
</g>
</g>
<!-- Node8 -->
<g id="Node000008" class="node">
<title>Node8</title>
<g id="a_Node000008"><a xlink:href="Parser_8hpp.html" target="_top" xlink:title=" ">
<polygon fill="white" stroke="#666666" points="1115.5,-244.5 951.5,-244.5 951.5,-214.5 1115.5,-214.5 1115.5,-244.5"/>
<text text-anchor="start" x="959.5" y="-232.5" font-family="Helvetica,sans-Serif" font-size="10.00">src/SceneSystem/ConfigParser</text>
<text text-anchor="middle" x="1033.5" y="-221.5" font-family="Helvetica,sans-Serif" font-size="10.00">/Parser.hpp</text>
</a>
</g>
</g>
<!-- Node4&#45;&gt;Node8 -->
<g id="edge8_Node000004_Node000008" class="edge">
<title>Node4&#45;&gt;Node8</title>
<g id="a_edge8_Node000004_Node000008"><a xlink:title=" ">
<path fill="none" stroke="#63b8ff" d="M1064.1,-287.88C1057.06,-274.68 1047.56,-256.87 1041.03,-244.61"/>
<polygon fill="#63b8ff" stroke="#63b8ff" points="1061.12,-289.72 1068.91,-296.9 1067.29,-286.43 1061.12,-289.72"/>
</a>
</g>
</g>
<!-- Node12 -->
<g id="Node000012" class="node">
<title>Node12</title>
<g id="a_Node000012"><a xlink:href="main_8cpp.html" target="_top" xlink:title=" ">
<polygon fill="white" stroke="#666666" points="1202,-24.5 1123,-24.5 1123,-5.5 1202,-5.5 1202,-24.5"/>
<text text-anchor="middle" x="1162.5" y="-12.5" font-family="Helvetica,sans-Serif" font-size="10.00">src/main.cpp</text>
</a>
</g>
</g>
<!-- Node4&#45;&gt;Node12 -->
<g id="edge25_Node000004_Node000012" class="edge">
<title>Node4&#45;&gt;Node12</title>
<g id="a_edge25_Node000004_Node000012"><a xlink:title=" ">
<path fill="none" stroke="#63b8ff" d="M1146.37,-302.67C1202.07,-297.67 1278.98,-284.43 1337.5,-250 1410,-207.34 1432.09,-185.81 1461.5,-107 1467.87,-89.93 1473.27,-79.91 1461.5,-66 1428.72,-27.29 1275.8,-18.53 1202.23,-16.56"/>
<polygon fill="#63b8ff" stroke="#63b8ff" points="1145.9,-299.19 1136.23,-303.51 1146.48,-306.17 1145.9,-299.19"/>
</a>
</g>
</g>
<!-- Node13 -->
<g id="Node000013" class="node">
<title>Node13</title>
<g id="a_Node000013"><a xlink:href="PluginManager_8hpp.html" target="_top" xlink:title="Plugin manager for loading and managing plugins.">
<polygon fill="white" stroke="#666666" points="1309.5,-244.5 1133.5,-244.5 1133.5,-214.5 1309.5,-214.5 1309.5,-244.5"/>
<text text-anchor="start" x="1141.5" y="-232.5" font-family="Helvetica,sans-Serif" font-size="10.00">src/SceneSystem/PluginManager</text>
<text text-anchor="middle" x="1221.5" y="-221.5" font-family="Helvetica,sans-Serif" font-size="10.00">/PluginManager.hpp</text>
</a>
</g>
</g>
<!-- Node4&#45;&gt;Node13 -->
<g id="edge13_Node000004_Node000013" class="edge">
<title>Node4&#45;&gt;Node13</title>
<g id="a_edge13_Node000004_Node000013"><a xlink:title=" ">
<path fill="none" stroke="#63b8ff" d="M1099.5,-292.32C1125.89,-278.95 1166.61,-258.31 1193.65,-244.61"/>
<polygon fill="#63b8ff" stroke="#63b8ff" points="1097.82,-289.25 1090.48,-296.9 1100.98,-295.5 1097.82,-289.25"/>
</a>
</g>
</g>
<!-- Node15 -->
<g id="Node000015" class="node">
<title>Node15</title>
<g id="a_Node000015"><a xlink:href="Scene_8hpp.html" target="_top" xlink:title=" ">
<polygon fill="white" stroke="#666666" points="1381.5,-173 1249.5,-173 1249.5,-143 1381.5,-143 1381.5,-173"/>
<text text-anchor="start" x="1257.5" y="-161" font-family="Helvetica,sans-Serif" font-size="10.00">src/SceneSystem/Scene</text>
<text text-anchor="middle" x="1315.5" y="-150" font-family="Helvetica,sans-Serif" font-size="10.00">/Scene.hpp</text>
</a>
</g>
</g>
<!-- Node4&#45;&gt;Node15 -->
<g id="edge22_Node000004_Node000015" class="edge">
<title>Node4&#45;&gt;Node15</title>
<g id="a_edge22_Node000004_Node000015"><a xlink:title=" ">
<path fill="none" stroke="#63b8ff" d="M1146.25,-298.93C1210.51,-291.45 1297.22,-276.64 1318.5,-250 1336.06,-228.02 1327.75,-192.61 1321.06,-173.07"/>
<polygon fill="#63b8ff" stroke="#63b8ff" points="1145.69,-295.47 1136.15,-300.07 1146.48,-302.43 1145.69,-295.47"/>
</a>
</g>
</g>
<!-- Node18 -->
<g id="Node000018" class="node">
<title>Node18</title>
<g id="a_Node000018"><a xlink:href="SceneNodeHelpers_8hpp.html" target="_top" xlink:title=" ">
<polygon fill="white" stroke="#666666" points="753.5,-244.5 583.5,-244.5 583.5,-214.5 753.5,-214.5 753.5,-244.5"/>
<text text-anchor="start" x="591.5" y="-232.5" font-family="Helvetica,sans-Serif" font-size="10.00">src/SceneSystem/SceneNode</text>
<text text-anchor="middle" x="668.5" y="-221.5" font-family="Helvetica,sans-Serif" font-size="10.00">Helpers/SceneNodeHelpers.hpp</text>
</a>
</g>
</g>
<!-- Node4&#45;&gt;Node18 -->
<g id="edge23_Node000004_Node000018" class="edge">
<title>Node4&#45;&gt;Node18</title>
<g id="a_edge23_Node000004_Node000018"><a xlink:title=" ">
<path fill="none" stroke="#63b8ff" d="M1035.31,-294.29C1024.45,-291.33 1012.56,-288.33 1001.5,-286 896.81,-263.98 868.82,-268.76 763.5,-250 754.13,-248.33 744.28,-246.45 734.6,-244.53"/>
<polygon fill="#63b8ff" stroke="#63b8ff" points="1034.38,-297.66 1044.95,-296.96 1036.25,-290.91 1034.38,-297.66"/>
</a>
</g>
</g>
<!-- Node6&#45;&gt;Node5 -->
<g id="edge6_Node000006_Node000005" class="edge">
<title>Node6&#45;&gt;Node5</title>
<g id="a_edge6_Node000006_Node000005"><a xlink:title=" ">
<path fill="none" stroke="#63b8ff" d="M762.1,-208.62C710.36,-197.24 646.72,-183.24 600.23,-173.02"/>
<polygon fill="#63b8ff" stroke="#63b8ff" points="761.42,-212.05 771.94,-210.78 762.93,-205.22 761.42,-212.05"/>
</a>
</g>
</g>
<!-- Node7 -->
<g id="Node000007" class="node">
<title>Node7</title>
<g id="a_Node000007"><a xlink:href="SceneWriter_8cpp.html" target="_top" xlink:title=" ">
<polygon fill="white" stroke="#666666" points="894,-107 733,-107 733,-66 894,-66 894,-107"/>
<text text-anchor="start" x="741" y="-95" font-family="Helvetica,sans-Serif" font-size="10.00">src/Objects/Plugins</text>
<text text-anchor="start" x="741" y="-84" font-family="Helvetica,sans-Serif" font-size="10.00">/CorePlugin/Interfaces</text>
<text text-anchor="middle" x="813.5" y="-73" font-family="Helvetica,sans-Serif" font-size="10.00">/SceneWriter/SceneWriter.cpp</text>
</a>
</g>
</g>
<!-- Node6&#45;&gt;Node7 -->
<g id="edge7_Node000006_Node000007" class="edge">
<title>Node6&#45;&gt;Node7</title>
<g id="a_edge7_Node000006_Node000007"><a xlink:title=" ">
<path fill="none" stroke="#63b8ff" d="M829.49,-200.6C823.85,-192.22 818.55,-182.67 815.5,-173 808.62,-151.19 809.29,-124.68 810.92,-107.02"/>
<polygon fill="#63b8ff" stroke="#63b8ff" points="826.75,-202.78 835.42,-208.86 832.44,-198.7 826.75,-202.78"/>
</a>
</g>
</g>
<!-- Node9 -->
<g id="Node000009" class="node">
<title>Node9</title>
<g id="a_Node000009"><a xlink:href="Parser_8cpp.html" target="_top" xlink:title=" ">
<polygon fill="white" stroke="#666666" points="999.5,-173 835.5,-173 835.5,-143 999.5,-143 999.5,-173"/>
<text text-anchor="start" x="843.5" y="-161" font-family="Helvetica,sans-Serif" font-size="10.00">src/SceneSystem/ConfigParser</text>
<text text-anchor="middle" x="917.5" y="-150" font-family="Helvetica,sans-Serif" font-size="10.00">/Parser.cpp</text>
</a>
</g>
</g>
<!-- Node8&#45;&gt;Node9 -->
<g id="edge9_Node000008_Node000009" class="edge">
<title>Node8&#45;&gt;Node9</title>
<g id="a_edge9_Node000008_Node000009"><a xlink:title=" ">
<path fill="none" stroke="#63b8ff" d="M1001.33,-209.22C982.18,-197.75 958.3,-183.45 940.94,-173.04"/>
<polygon fill="#63b8ff" stroke="#63b8ff" points="999.65,-212.3 1010.03,-214.44 1003.25,-206.29 999.65,-212.3"/>
</a>
</g>
</g>
<!-- Node10 -->
<g id="Node000010" class="node">
<title>Node10</title>
<g id="a_Node000010"><a xlink:href="SceneLoader_8hpp.html" target="_top" xlink:title=" ">
<polygon fill="white" stroke="#666666" points="1120,-101.5 955,-101.5 955,-71.5 1120,-71.5 1120,-101.5"/>
<text text-anchor="start" x="963" y="-89.5" font-family="Helvetica,sans-Serif" font-size="10.00">src/SceneSystem/SceneLoader</text>
<text text-anchor="middle" x="1037.5" y="-78.5" font-family="Helvetica,sans-Serif" font-size="10.00">/SceneLoader.hpp</text>
</a>
</g>
</g>
<!-- Node8&#45;&gt;Node10 -->
<g id="edge10_Node000008_Node000010" class="edge">
<title>Node8&#45;&gt;Node10</title>
<g id="a_edge10_Node000008_Node000010"><a xlink:title=" ">
<path fill="none" stroke="#63b8ff" d="M964.35,-212.08C905.88,-197.87 830.89,-178.72 826.5,-173 818.38,-162.42 818.36,-153.56 826.5,-143 842.49,-122.26 902.74,-107.74 954.79,-98.76"/>
<polygon fill="#63b8ff" stroke="#63b8ff" points="963.77,-215.54 974.31,-214.49 965.42,-208.74 963.77,-215.54"/>
</a>
</g>
</g>
<!-- Node11 -->
<g id="Node000011" class="node">
<title>Node11</title>
<g id="a_Node000011"><a xlink:href="SceneLoader_8cpp.html" target="_top" xlink:title=" ">
<polygon fill="white" stroke="#666666" points="1105,-30 940,-30 940,0 1105,0 1105,-30"/>
<text text-anchor="start" x="948" y="-18" font-family="Helvetica,sans-Serif" font-size="10.00">src/SceneSystem/SceneLoader</text>
<text text-anchor="middle" x="1022.5" y="-7" font-family="Helvetica,sans-Serif" font-size="10.00">/SceneLoader.cpp</text>
</a>
</g>
</g>
<!-- Node10&#45;&gt;Node11 -->
<g id="edge11_Node000010_Node000011" class="edge">
<title>Node10&#45;&gt;Node11</title>
<g id="a_edge11_Node000010_Node000011"><a xlink:title=" ">
<path fill="none" stroke="#63b8ff" d="M1032.34,-61.58C1030.07,-51.06 1027.48,-39.08 1025.53,-30.04"/>
<polygon fill="#63b8ff" stroke="#63b8ff" points="1028.93,-62.4 1034.46,-71.44 1035.78,-60.92 1028.93,-62.4"/>
</a>
</g>
</g>
<!-- Node10&#45;&gt;Node12 -->
<g id="edge12_Node000010_Node000012" class="edge">
<title>Node10&#45;&gt;Node12</title>
<g id="a_edge12_Node000010_Node000012"><a xlink:title=" ">
<path fill="none" stroke="#63b8ff" d="M1071.83,-66.42C1096.44,-52.73 1128.43,-34.94 1147.09,-24.57"/>
<polygon fill="#63b8ff" stroke="#63b8ff" points="1069.83,-63.52 1062.8,-71.44 1073.24,-69.64 1069.83,-63.52"/>
</a>
</g>
</g>
<!-- Node13&#45;&gt;Node10 -->
<g id="edge21_Node000013_Node000010" class="edge">
<title>Node13&#45;&gt;Node10</title>
<g id="a_edge21_Node000013_Node000010"><a xlink:title=" ">
<path fill="none" stroke="#63b8ff" d="M1222.23,-204.29C1221.5,-185.39 1217.46,-159.63 1202.5,-143 1181.38,-119.52 1150.01,-105.96 1120.27,-98.13"/>
<polygon fill="#63b8ff" stroke="#63b8ff" points="1218.73,-204.54 1222.34,-214.5 1225.73,-204.46 1218.73,-204.54"/>
</a>
</g>
</g>
<!-- Node14 -->
<g id="Node000014" class="node">
<title>Node14</title>
<g id="a_Node000014"><a xlink:href="PluginManager_8cpp.html" target="_top" xlink:title=" ">
<polygon fill="white" stroke="#666666" points="1193.5,-173 1017.5,-173 1017.5,-143 1193.5,-143 1193.5,-173"/>
<text text-anchor="start" x="1025.5" y="-161" font-family="Helvetica,sans-Serif" font-size="10.00">src/SceneSystem/PluginManager</text>
<text text-anchor="middle" x="1105.5" y="-150" font-family="Helvetica,sans-Serif" font-size="10.00">/PluginManager.cpp</text>
</a>
</g>
</g>
<!-- Node13&#45;&gt;Node14 -->
<g id="edge14_Node000013_Node000014" class="edge">
<title>Node13&#45;&gt;Node14</title>
<g id="a_edge14_Node000013_Node000014"><a xlink:title=" ">
<path fill="none" stroke="#63b8ff" d="M1189.33,-209.22C1170.18,-197.75 1146.3,-183.45 1128.94,-173.04"/>
<polygon fill="#63b8ff" stroke="#63b8ff" points="1187.65,-212.3 1198.03,-214.44 1191.25,-206.29 1187.65,-212.3"/>
</a>
</g>
</g>
<!-- Node13&#45;&gt;Node15 -->
<g id="edge15_Node000013_Node000015" class="edge">
<title>Node13&#45;&gt;Node15</title>
<g id="a_edge15_Node000013_Node000015"><a xlink:title=" ">
<path fill="none" stroke="#63b8ff" d="M1248.63,-208.44C1263.96,-197.1 1282.75,-183.21 1296.51,-173.04"/>
<polygon fill="#63b8ff" stroke="#63b8ff" points="1246.48,-205.68 1240.52,-214.44 1250.64,-211.3 1246.48,-205.68"/>
</a>
</g>
</g>
<!-- Node15&#45;&gt;Node7 -->
<g id="edge16_Node000015_Node000007" class="edge">
<title>Node15&#45;&gt;Node7</title>
<g id="a_edge16_Node000015_Node000007"><a xlink:title=" ">
<path fill="none" stroke="#63b8ff" d="M1239.23,-146.91C1164.59,-136.98 1047.68,-121.27 946.5,-107 929.52,-104.6 911.32,-101.98 894.01,-99.45"/>
<polygon fill="#63b8ff" stroke="#63b8ff" points="1239.11,-150.43 1249.48,-148.27 1240.03,-143.49 1239.11,-150.43"/>
</a>
</g>
</g>
<!-- Node15&#45;&gt;Node10 -->
<g id="edge19_Node000015_Node000010" class="edge">
<title>Node15&#45;&gt;Node10</title>
<g id="a_edge19_Node000015_Node000010"><a xlink:title=" ">
<path fill="none" stroke="#63b8ff" d="M1249.37,-140.47C1201.92,-128.61 1138.68,-112.8 1093.67,-101.54"/>
<polygon fill="#63b8ff" stroke="#63b8ff" points="1248.69,-143.91 1259.24,-142.94 1250.39,-137.11 1248.69,-143.91"/>
</a>
</g>
</g>
<!-- Node15&#45;&gt;Node12 -->
<g id="edge20_Node000015_Node000012" class="edge">
<title>Node15&#45;&gt;Node12</title>
<g id="a_edge20_Node000015_Node000012"><a xlink:title=" ">
<path fill="none" stroke="#63b8ff" d="M1241.87,-140.34C1209.78,-131.5 1177.24,-119.82 1167.5,-107 1148.73,-82.31 1155.77,-42.08 1160.1,-24.58"/>
<polygon fill="#63b8ff" stroke="#63b8ff" points="1241.23,-143.79 1251.79,-142.99 1243.03,-137.03 1241.23,-143.79"/>
</a>
</g>
</g>
<!-- Node15&#45;&gt;Node16 -->
<g id="edge17_Node000015_Node000016" class="edge">
<title>Node15&#45;&gt;Node16</title>
<g id="a_edge17_Node000015_Node000016"><a xlink:title=" ">
<path fill="none" stroke="#63b8ff" d="M1337.9,-135.96C1347.68,-126.78 1359.07,-116.08 1368.66,-107.07"/>
<polygon fill="#63b8ff" stroke="#63b8ff" points="1335.37,-133.54 1330.48,-142.94 1340.16,-138.64 1335.37,-133.54"/>
</a>
</g>
</g>
<!-- Node17 -->
<g id="Node000017" class="node">
<title>Node17</title>
<g id="a_Node000017"><a xlink:href="Scene_8cpp.html" target="_top" xlink:title=" ">
<polygon fill="white" stroke="#666666" points="1308.5,-101.5 1176.5,-101.5 1176.5,-71.5 1308.5,-71.5 1308.5,-101.5"/>
<text text-anchor="start" x="1184.5" y="-89.5" font-family="Helvetica,sans-Serif" font-size="10.00">src/SceneSystem/Scene</text>
<text text-anchor="middle" x="1242.5" y="-78.5" font-family="Helvetica,sans-Serif" font-size="10.00">/Scene.cpp</text>
</a>
</g>
</g>
<!-- Node15&#45;&gt;Node17 -->
<g id="edge18_Node000015_Node000017" class="edge">
<title>Node15&#45;&gt;Node17</title>
<g id="a_edge18_Node000015_Node000017"><a xlink:title=" ">
<path fill="none" stroke="#63b8ff" d="M1293.43,-135.99C1281.72,-124.84 1267.63,-111.43 1257.25,-101.54"/>
<polygon fill="#63b8ff" stroke="#63b8ff" points="1291.07,-138.58 1300.73,-142.94 1295.9,-133.51 1291.07,-138.58"/>
</a>
</g>
</g>
<!-- Node18&#45;&gt;Node5 -->
<g id="edge24_Node000018_Node000005" class="edge">
<title>Node18&#45;&gt;Node5</title>
<g id="a_edge24_Node000018_Node000005"><a xlink:title=" ">
<path fill="none" stroke="#63b8ff" d="M632.77,-209.69C610.84,-198.14 583.2,-183.59 563.17,-173.04"/>
<polygon fill="#63b8ff" stroke="#63b8ff" points="631.31,-212.87 641.79,-214.44 634.57,-206.68 631.31,-212.87"/>
</a>
</g>
</g>
<!-- Node21&#45;&gt;Node5 -->
<g id="edge29_Node000021_Node000005" class="edge">
<title>Node21&#45;&gt;Node5</title>
<g id="a_edge29_Node000021_Node000005"><a xlink:title=" ">
<path fill="none" stroke="#63b8ff" d="M133.37,-275.79C139.35,-253.77 150.92,-224.91 172.5,-209 217.16,-176.06 369.27,-164.8 462.13,-160.96"/>
<polygon fill="#63b8ff" stroke="#63b8ff" points="129.94,-275.12 130.94,-285.67 136.73,-276.8 129.94,-275.12"/>
</a>
</g>
</g>
<!-- Node22 -->
<g id="Node000022" class="node">
<title>Node22</title>
<g id="a_Node000022"><a xlink:href="Cylinder_8cpp.html" target="_top" xlink:title=" ">
<polygon fill="white" stroke="#666666" points="125,-250 0,-250 0,-209 125,-209 125,-250"/>
<text text-anchor="start" x="8" y="-238" font-family="Helvetica,sans-Serif" font-size="10.00">src/Objects/Plugins</text>
<text text-anchor="start" x="8" y="-227" font-family="Helvetica,sans-Serif" font-size="10.00">/CorePlugin/Primitives</text>
<text text-anchor="middle" x="62.5" y="-216" font-family="Helvetica,sans-Serif" font-size="10.00">/Cylinder/Cylinder.cpp</text>
</a>
</g>
</g>
<!-- Node21&#45;&gt;Node22 -->
<g id="edge30_Node000021_Node000022" class="edge">
<title>Node21&#45;&gt;Node22</title>
<g id="a_edge30_Node000021_Node000022"><a xlink:title=" ">
<path fill="none" stroke="#63b8ff" d="M103.87,-278.23C95.79,-268.91 86.91,-258.67 79.46,-250.07"/>
<polygon fill="#63b8ff" stroke="#63b8ff" points="101.23,-280.53 110.42,-285.79 106.52,-275.95 101.23,-280.53"/>
</a>
</g>
</g>
<!-- Node23&#45;&gt;Node5 -->
<g id="edge32_Node000023_Node000005" class="edge">
<title>Node23&#45;&gt;Node5</title>
<g id="a_edge32_Node000023_Node000005"><a xlink:title=" ">
<path fill="none" stroke="#63b8ff" d="M292.99,-278.07C315.18,-251.26 346.87,-213.79 354.5,-209 386.82,-188.68 427.41,-176.5 462.06,-169.26"/>
<polygon fill="#63b8ff" stroke="#63b8ff" points="290.11,-276.06 286.44,-286 295.51,-280.51 290.11,-276.06"/>
</a>
</g>
</g>
<!-- Node24 -->
<g id="Node000024" class="node">
<title>Node24</title>
<g id="a_Node000024"><a xlink:href="Plane_8cpp.html" target="_top" xlink:title=" ">
<polygon fill="white" stroke="#666666" points="307,-250 182,-250 182,-209 307,-209 307,-250"/>
<text text-anchor="start" x="190" y="-238" font-family="Helvetica,sans-Serif" font-size="10.00">src/Objects/Plugins</text>
<text text-anchor="start" x="190" y="-227" font-family="Helvetica,sans-Serif" font-size="10.00">/CorePlugin/Primitives</text>
<text text-anchor="middle" x="244.5" y="-216" font-family="Helvetica,sans-Serif" font-size="10.00">/Plane/Plane.cpp</text>
</a>
</g>
</g>
<!-- Node23&#45;&gt;Node24 -->
<g id="edge33_Node000023_Node000024" class="edge">
<title>Node23&#45;&gt;Node24</title>
<g id="a_edge33_Node000023_Node000024"><a xlink:title=" ">
<path fill="none" stroke="#63b8ff" d="M260.36,-276.26C257.32,-267.48 254.06,-258.07 251.29,-250.07"/>
<polygon fill="#63b8ff" stroke="#63b8ff" points="257.09,-277.49 263.67,-285.79 263.7,-275.2 257.09,-277.49"/>
</a>
</g>
</g>
<!-- Node25&#45;&gt;Node5 -->
<g id="edge35_Node000025_Node000005" class="edge">
<title>Node25&#45;&gt;Node5</title>
<g id="a_edge35_Node000025_Node000005"><a xlink:title=" ">
<path fill="none" stroke="#63b8ff" d="M555.06,-277.6C549.67,-269.16 544.56,-259.59 541.5,-250 533.18,-223.92 533.82,-191.53 535.11,-173.27"/>
<polygon fill="#63b8ff" stroke="#63b8ff" points="552.19,-279.61 560.7,-285.92 557.99,-275.68 552.19,-279.61"/>
</a>
</g>
</g>
<!-- Node26 -->
<g id="Node000026" class="node">
<title>Node26</title>
<g id="a_Node000026"><a xlink:href="Sphere_8cpp.html" target="_top" xlink:title=" ">
<polygon fill="white" stroke="#666666" points="489,-250 364,-250 364,-209 489,-209 489,-250"/>
<text text-anchor="start" x="372" y="-238" font-family="Helvetica,sans-Serif" font-size="10.00">src/Objects/Plugins</text>
<text text-anchor="start" x="372" y="-227" font-family="Helvetica,sans-Serif" font-size="10.00">/CorePlugin/Primitives</text>
<text text-anchor="middle" x="426.5" y="-216" font-family="Helvetica,sans-Serif" font-size="10.00">/Sphere/Sphere.cpp</text>
</a>
</g>
</g>
<!-- Node25&#45;&gt;Node26 -->
<g id="edge36_Node000025_Node000026" class="edge">
<title>Node25&#45;&gt;Node26</title>
<g id="a_edge36_Node000025_Node000026"><a xlink:title=" ">
<path fill="none" stroke="#63b8ff" d="M528.4,-281.45C508.11,-271.3 484.79,-259.64 465.58,-250.04"/>
<polygon fill="#63b8ff" stroke="#63b8ff" points="526.97,-284.65 537.48,-285.99 530.1,-278.39 526.97,-284.65"/>
</a>
</g>
</g>
<!-- Node27&#45;&gt;Node15 -->
<g id="edge39_Node000027_Node000015" class="edge">
<title>Node27&#45;&gt;Node15</title>
<g id="a_edge39_Node000027_Node000015"><a xlink:title=" ">
<path fill="none" stroke="#63b8ff" d="M1473.83,-285.06C1435.87,-254.84 1365.75,-199.01 1333.09,-173"/>
<polygon fill="#63b8ff" stroke="#63b8ff" points="1471.85,-287.96 1481.86,-291.45 1476.21,-282.49 1471.85,-287.96"/>
</a>
</g>
</g>
</g>
</svg>

<g id="navigator" transform="translate(0 0)" fill="#404254">
  <rect fill="#f2f5e9" fill-opacity="0.5" stroke="#606060" stroke-width=".5" x="0" y="0" width="60" height="60"/>
  <use id="zoomplus" xlink:href="#zoomPlus" x="17" y="9" onmousedown="handleZoom(evt,'in')"/>
  <use id="zoomminus" xlink:href="#zoomMin" x="42" y="9" onmousedown="handleZoom(evt,'out')"/>
  <use id="reset" xlink:href="#resetDef" x="30" y="36" onmousedown="handleReset()"/>
   <use id="arrowup" xlink:href="#arrowUp" x="0" y="0" onmousedown="handlePan(0,-1)"/>
  <use id="arrowright" xlink:href="#arrowRight" x="0" y="0" onmousedown="handlePan(1,0)"/>
  <use id="arrowdown" xlink:href="#arrowDown" x="0" y="0" onmousedown="handlePan(0,1)"/>
  <use id="arrowleft" xlink:href="#arrowLeft" x="0" y="0" onmousedown="handlePan(-1,0)"/>
</g>
<svg viewBox="0 0 15 15" width="100%" height="30px" preserveAspectRatio="xMaxYMin meet">
 <g id="arrow_out" transform="scale(0.3 0.3)">
  <a xlink:href="AABB_8hpp__dep__incl_org.svg" target="_base">
   <rect id="button" ry="5" rx="5" y="6" x="6" height="38" width="38"
        fill="#f2f5e9" fill-opacity="0.5" stroke="#606060" stroke-width="1.0"/>
   <path id="arrow"
     d="M 11.500037,31.436501 C 11.940474,20.09759 22.043105,11.32322 32.158766,21.979434 L 37.068811,17.246167 C 37.068811,17.246167 37.088388,32 37.088388,32 L 22.160133,31.978069 C 22.160133,31.978069 26.997745,27.140456 26.997745,27.140456 C 18.528582,18.264221 13.291696,25.230495 11.500037,31.436501 z"
     style="fill:#404040;"/>
  </a>
 </g>
</svg>

<style type='text/css'>
<![CDATA[
[data-mouse-over-selected='false'] { opacity: 0.7; }
[data-mouse-over-selected='true']  { opacity: 1.0; }
]]>
</style>
<script type="application/ecmascript"><![CDATA[
document.addEventListener('DOMContentLoaded', (event) => {
  highlightEdges();
  highlightAdjacentNodes();
});
]]></script>
</svg>
