<?xml version="1.0" encoding="UTF-8" standalone="no"?>
<!DOCTYPE svg PUBLIC "-//W3C//DTD SVG 1.1//EN"
 "http://www.w3.org/Graphics/SVG/1.1/DTD/svg11.dtd">
<!-- Generated by graphviz version 2.43.0 (0)
 -->
<!-- Title: src/Objects/Abstracts/AInterface/AInterface.hpp Pages: 1 -->
<svg width="1211pt" height="390pt"
 viewBox="0.00 0.00 1210.50 390.00" xmlns="http://www.w3.org/2000/svg" xmlns:xlink="http://www.w3.org/1999/xlink">
<g id="graph0" class="graph" transform="scale(1 1) rotate(0) translate(4 386)">
<title>src/Objects/Abstracts/AInterface/AInterface.hpp</title>
<!-- Node1 -->
<g id="Node000001" class="node">
<title>Node1</title>
<g id="a_Node000001"><a xlink:title=" ">
<polygon fill="#999999" stroke="#666666" points="526,-382 382,-382 382,-352 526,-352 526,-382"/>
<text text-anchor="start" x="390" y="-370" font-family="Helvetica,sans-Serif" font-size="10.00">src/Objects/Abstracts</text>
<text text-anchor="middle" x="454" y="-359" font-family="Helvetica,sans-Serif" font-size="10.00">/AInterface/AInterface.hpp</text>
</a>
</g>
</g>
<!-- Node2 -->
<g id="Node000002" class="node">
<title>Node2</title>
<g id="a_Node000002"><a xlink:href="Plugin_8hpp.html" target="_top" xlink:title=" ">
<polygon fill="white" stroke="#666666" points="516.5,-316 391.5,-316 391.5,-297 516.5,-297 516.5,-316"/>
<text text-anchor="middle" x="454" y="-304" font-family="Helvetica,sans-Serif" font-size="10.00">src/Objects/Plugin.hpp</text>
</a>
</g>
</g>
<!-- Node1&#45;&gt;Node2 -->
<g id="edge1_Node000001_Node000002" class="edge">
<title>Node1&#45;&gt;Node2</title>
<g id="a_edge1_Node000001_Node000002"><a xlink:title=" ">
<path fill="none" stroke="#63b8ff" d="M454,-341.75C454,-332.72 454,-323.03 454,-316.27"/>
<polygon fill="#63b8ff" stroke="#63b8ff" points="450.5,-341.84 454,-351.84 457.5,-341.84 450.5,-341.84"/>
</a>
</g>
</g>
<!-- Node3 -->
<g id="Node000003" class="node">
<title>Node3</title>
<g id="a_Node000003"><a xlink:href="CorePlugin_8cpp.html" target="_top" xlink:title=" ">
<polygon fill="white" stroke="#666666" points="272,-178.5 124,-178.5 124,-148.5 272,-148.5 272,-178.5"/>
<text text-anchor="start" x="132" y="-166.5" font-family="Helvetica,sans-Serif" font-size="10.00">src/Objects/Plugins</text>
<text text-anchor="middle" x="198" y="-155.5" font-family="Helvetica,sans-Serif" font-size="10.00">/CorePlugin/CorePlugin.cpp</text>
</a>
</g>
</g>
<!-- Node2&#45;&gt;Node3 -->
<g id="edge2_Node000002_Node000003" class="edge">
<title>Node2&#45;&gt;Node3</title>
<g id="a_edge2_Node000002_Node000003"><a xlink:title=" ">
<path fill="none" stroke="#63b8ff" d="M381.37,-300.69C320.44,-295.11 239.81,-283.61 217,-261 194.93,-239.12 194.64,-199.58 196.31,-178.54"/>
<polygon fill="#63b8ff" stroke="#63b8ff" points="381.08,-304.17 391.35,-301.56 381.69,-297.2 381.08,-304.17"/>
</a>
</g>
</g>
<!-- Node4 -->
<g id="Node000004" class="node">
<title>Node4</title>
<g id="a_Node000004"><a xlink:href="SceneWriter_8hpp.html" target="_top" xlink:title=" ">
<polygon fill="white" stroke="#666666" points="387.5,-261 226.5,-261 226.5,-220 387.5,-220 387.5,-261"/>
<text text-anchor="start" x="234.5" y="-249" font-family="Helvetica,sans-Serif" font-size="10.00">src/Objects/Plugins</text>
<text text-anchor="start" x="234.5" y="-238" font-family="Helvetica,sans-Serif" font-size="10.00">/CorePlugin/Interfaces</text>
<text text-anchor="middle" x="307" y="-227" font-family="Helvetica,sans-Serif" font-size="10.00">/SceneWriter/SceneWriter.hpp</text>
</a>
</g>
</g>
<!-- Node2&#45;&gt;Node4 -->
<g id="edge3_Node000002_Node000004" class="edge">
<title>Node2&#45;&gt;Node4</title>
<g id="a_edge3_Node000002_Node000004"><a xlink:title=" ">
<path fill="none" stroke="#63b8ff" d="M424.89,-292.83C404.03,-283.75 375.55,-271.35 351.81,-261.01"/>
<polygon fill="#63b8ff" stroke="#63b8ff" points="423.61,-296.09 434.17,-296.87 426.4,-289.67 423.61,-296.09"/>
</a>
</g>
</g>
<!-- Node6 -->
<g id="Node000006" class="node">
<title>Node6</title>
<g id="a_Node000006"><a xlink:href="Livescene_8hpp.html" target="_top" xlink:title=" ">
<polygon fill="white" stroke="#666666" points="632,-261 482,-261 482,-220 632,-220 632,-261"/>
<text text-anchor="start" x="490" y="-249" font-family="Helvetica,sans-Serif" font-size="10.00">src/Objects/Plugins</text>
<text text-anchor="start" x="490" y="-238" font-family="Helvetica,sans-Serif" font-size="10.00">/LivescenePlugin/Interfaces</text>
<text text-anchor="middle" x="557" y="-227" font-family="Helvetica,sans-Serif" font-size="10.00">/Livescene/Livescene.hpp</text>
</a>
</g>
</g>
<!-- Node2&#45;&gt;Node6 -->
<g id="edge6_Node000002_Node000006" class="edge">
<title>Node2&#45;&gt;Node6</title>
<g id="a_edge6_Node000002_Node000006"><a xlink:title=" ">
<path fill="none" stroke="#63b8ff" d="M476.62,-291.45C490.99,-282.52 509.79,-270.83 525.6,-261.01"/>
<polygon fill="#63b8ff" stroke="#63b8ff" points="474.54,-288.62 467.89,-296.87 478.23,-294.56 474.54,-288.62"/>
</a>
</g>
</g>
<!-- Node8 -->
<g id="Node000008" class="node">
<title>Node8</title>
<g id="a_Node000008"><a xlink:href="LivescenePlugin_8cpp.html" target="_top" xlink:title=" ">
<polygon fill="white" stroke="#666666" points="531,-184 381,-184 381,-143 531,-143 531,-184"/>
<text text-anchor="start" x="389" y="-172" font-family="Helvetica,sans-Serif" font-size="10.00">src/Objects/Plugins</text>
<text text-anchor="start" x="389" y="-161" font-family="Helvetica,sans-Serif" font-size="10.00">/LivescenePlugin/Livescene</text>
<text text-anchor="middle" x="456" y="-150" font-family="Helvetica,sans-Serif" font-size="10.00">Plugin.cpp</text>
</a>
</g>
</g>
<!-- Node2&#45;&gt;Node8 -->
<g id="edge9_Node000002_Node000008" class="edge">
<title>Node2&#45;&gt;Node8</title>
<g id="a_edge9_Node000002_Node000008"><a xlink:title=" ">
<path fill="none" stroke="#63b8ff" d="M454.27,-286.36C454.65,-259.6 455.34,-211.27 455.72,-184.21"/>
<polygon fill="#63b8ff" stroke="#63b8ff" points="450.77,-286.63 454.13,-296.68 457.77,-286.73 450.77,-286.63"/>
</a>
</g>
</g>
<!-- Node9 -->
<g id="Node000009" class="node">
<title>Node9</title>
<g id="a_Node000009"><a xlink:href="Parser_8hpp.html" target="_top" xlink:title=" ">
<polygon fill="white" stroke="#666666" points="1140,-255.5 976,-255.5 976,-225.5 1140,-225.5 1140,-255.5"/>
<text text-anchor="start" x="984" y="-243.5" font-family="Helvetica,sans-Serif" font-size="10.00">src/SceneSystem/ConfigParser</text>
<text text-anchor="middle" x="1058" y="-232.5" font-family="Helvetica,sans-Serif" font-size="10.00">/Parser.hpp</text>
</a>
</g>
</g>
<!-- Node2&#45;&gt;Node9 -->
<g id="edge10_Node000002_Node000009" class="edge">
<title>Node2&#45;&gt;Node9</title>
<g id="a_edge10_Node000002_Node000009"><a xlink:title=" ">
<path fill="none" stroke="#63b8ff" d="M526.81,-298.8C615.32,-290.53 769.23,-275.74 901,-261 925.29,-258.28 951.67,-255.1 975.75,-252.1"/>
<polygon fill="#63b8ff" stroke="#63b8ff" points="526.24,-295.34 516.61,-299.75 526.89,-302.31 526.24,-295.34"/>
</a>
</g>
</g>
<!-- Node13 -->
<g id="Node000013" class="node">
<title>Node13</title>
<g id="a_Node000013"><a xlink:href="main_8cpp.html" target="_top" xlink:title=" ">
<polygon fill="white" stroke="#666666" points="1019.5,-24.5 940.5,-24.5 940.5,-5.5 1019.5,-5.5 1019.5,-24.5"/>
<text text-anchor="middle" x="980" y="-12.5" font-family="Helvetica,sans-Serif" font-size="10.00">src/main.cpp</text>
</a>
</g>
</g>
<!-- Node2&#45;&gt;Node13 -->
<g id="edge28_Node000002_Node000013" class="edge">
<title>Node2&#45;&gt;Node13</title>
<g id="a_edge28_Node000002_Node000013"><a xlink:title=" ">
<path fill="none" stroke="#63b8ff" d="M442.12,-287.97C419.77,-254.98 373.53,-186.67 372,-184 353.11,-151.07 343.43,-144.02 335,-107 330.95,-89.23 322.62,-79.37 335,-66 376.15,-21.54 806.06,-16.51 940.23,-16.02"/>
<polygon fill="#63b8ff" stroke="#63b8ff" points="439.47,-290.3 447.98,-296.62 445.27,-286.37 439.47,-290.3"/>
</a>
</g>
</g>
<!-- Node14 -->
<g id="Node000014" class="node">
<title>Node14</title>
<g id="a_Node000014"><a xlink:href="PluginManager_8hpp.html" target="_top" xlink:title="Plugin manager for loading and managing plugins.">
<polygon fill="white" stroke="#666666" points="892,-255.5 716,-255.5 716,-225.5 892,-225.5 892,-255.5"/>
<text text-anchor="start" x="724" y="-243.5" font-family="Helvetica,sans-Serif" font-size="10.00">src/SceneSystem/PluginManager</text>
<text text-anchor="middle" x="804" y="-232.5" font-family="Helvetica,sans-Serif" font-size="10.00">/PluginManager.hpp</text>
</a>
</g>
</g>
<!-- Node2&#45;&gt;Node14 -->
<g id="edge15_Node000002_Node000014" class="edge">
<title>Node2&#45;&gt;Node14</title>
<g id="a_edge15_Node000002_Node000014"><a xlink:title=" ">
<path fill="none" stroke="#63b8ff" d="M510.7,-295.13C569.55,-284.37 661.96,-267.47 727.3,-255.52"/>
<polygon fill="#63b8ff" stroke="#63b8ff" points="510.05,-291.69 500.84,-296.94 511.31,-298.58 510.05,-291.69"/>
</a>
</g>
</g>
<!-- Node16 -->
<g id="Node000016" class="node">
<title>Node16</title>
<g id="a_Node000016"><a xlink:href="Scene_8hpp.html" target="_top" xlink:title=" ">
<polygon fill="white" stroke="#666666" points="726,-178.5 594,-178.5 594,-148.5 726,-148.5 726,-178.5"/>
<text text-anchor="start" x="602" y="-166.5" font-family="Helvetica,sans-Serif" font-size="10.00">src/SceneSystem/Scene</text>
<text text-anchor="middle" x="660" y="-155.5" font-family="Helvetica,sans-Serif" font-size="10.00">/Scene.hpp</text>
</a>
</g>
</g>
<!-- Node2&#45;&gt;Node16 -->
<g id="edge25_Node000002_Node000016" class="edge">
<title>Node2&#45;&gt;Node16</title>
<g id="a_edge25_Node000002_Node000016"><a xlink:title=" ">
<path fill="none" stroke="#63b8ff" d="M526.8,-296.37C572.26,-289.16 625.09,-277.55 641,-261 662.42,-238.72 663.05,-199.71 661.58,-178.76"/>
<polygon fill="#63b8ff" stroke="#63b8ff" points="525.98,-292.95 516.63,-297.93 527.04,-299.87 525.98,-292.95"/>
</a>
</g>
</g>
<!-- Node19 -->
<g id="Node000019" class="node">
<title>Node19</title>
<g id="a_Node000019"><a xlink:href="SceneNodeHelpers_8hpp.html" target="_top" xlink:title=" ">
<polygon fill="white" stroke="#666666" points="170,-255.5 0,-255.5 0,-225.5 170,-225.5 170,-255.5"/>
<text text-anchor="start" x="8" y="-243.5" font-family="Helvetica,sans-Serif" font-size="10.00">src/SceneSystem/SceneNode</text>
<text text-anchor="middle" x="85" y="-232.5" font-family="Helvetica,sans-Serif" font-size="10.00">Helpers/SceneNodeHelpers.hpp</text>
</a>
</g>
</g>
<!-- Node2&#45;&gt;Node19 -->
<g id="edge26_Node000002_Node000019" class="edge">
<title>Node2&#45;&gt;Node19</title>
<g id="a_edge26_Node000002_Node000019"><a xlink:title=" ">
<path fill="none" stroke="#63b8ff" d="M389.18,-295.4C334.43,-286.72 253.98,-273.65 184,-261 174.52,-259.29 164.54,-257.41 154.72,-255.52"/>
<polygon fill="#63b8ff" stroke="#63b8ff" points="388.68,-298.86 399.1,-296.96 389.77,-291.95 388.68,-298.86"/>
</a>
</g>
</g>
<!-- Node4&#45;&gt;Node3 -->
<g id="edge4_Node000004_Node000003" class="edge">
<title>Node4&#45;&gt;Node3</title>
<g id="a_edge4_Node000004_Node000003"><a xlink:title=" ">
<path fill="none" stroke="#63b8ff" d="M269.96,-214.01C252.81,-202.22 233.09,-188.65 218.64,-178.7"/>
<polygon fill="#63b8ff" stroke="#63b8ff" points="268.42,-217.21 278.65,-219.99 272.39,-211.44 268.42,-217.21"/>
</a>
</g>
</g>
<!-- Node5 -->
<g id="Node000005" class="node">
<title>Node5</title>
<g id="a_Node000005"><a xlink:href="SceneWriter_8cpp.html" target="_top" xlink:title=" ">
<polygon fill="white" stroke="#666666" points="505.5,-107 344.5,-107 344.5,-66 505.5,-66 505.5,-107"/>
<text text-anchor="start" x="352.5" y="-95" font-family="Helvetica,sans-Serif" font-size="10.00">src/Objects/Plugins</text>
<text text-anchor="start" x="352.5" y="-84" font-family="Helvetica,sans-Serif" font-size="10.00">/CorePlugin/Interfaces</text>
<text text-anchor="middle" x="425" y="-73" font-family="Helvetica,sans-Serif" font-size="10.00">/SceneWriter/SceneWriter.cpp</text>
</a>
</g>
</g>
<!-- Node4&#45;&gt;Node5 -->
<g id="edge5_Node000004_Node000005" class="edge">
<title>Node4&#45;&gt;Node5</title>
<g id="a_edge5_Node000004_Node000005"><a xlink:title=" ">
<path fill="none" stroke="#63b8ff" d="M324.13,-211.42C336.59,-191.68 354.32,-164.97 372,-143 382.11,-130.44 394.5,-117.35 404.76,-107.05"/>
<polygon fill="#63b8ff" stroke="#63b8ff" points="321.12,-209.63 318.79,-219.96 327.06,-213.34 321.12,-209.63"/>
</a>
</g>
</g>
<!-- Node7 -->
<g id="Node000007" class="node">
<title>Node7</title>
<g id="a_Node000007"><a xlink:href="Livescene_8cpp.html" target="_top" xlink:title=" ">
<polygon fill="white" stroke="#666666" points="674,-107 524,-107 524,-66 674,-66 674,-107"/>
<text text-anchor="start" x="532" y="-95" font-family="Helvetica,sans-Serif" font-size="10.00">src/Objects/Plugins</text>
<text text-anchor="start" x="532" y="-84" font-family="Helvetica,sans-Serif" font-size="10.00">/LivescenePlugin/Interfaces</text>
<text text-anchor="middle" x="599" y="-73" font-family="Helvetica,sans-Serif" font-size="10.00">/Livescene/Livescene.cpp</text>
</a>
</g>
</g>
<!-- Node6&#45;&gt;Node7 -->
<g id="edge7_Node000006_Node000007" class="edge">
<title>Node6&#45;&gt;Node7</title>
<g id="a_edge7_Node000006_Node000007"><a xlink:title=" ">
<path fill="none" stroke="#63b8ff" d="M565.16,-209.98C573.51,-179.76 586.25,-133.64 593.48,-107.47"/>
<polygon fill="#63b8ff" stroke="#63b8ff" points="561.69,-209.37 562.4,-219.94 568.44,-211.23 561.69,-209.37"/>
</a>
</g>
</g>
<!-- Node6&#45;&gt;Node8 -->
<g id="edge8_Node000006_Node000008" class="edge">
<title>Node6&#45;&gt;Node8</title>
<g id="a_edge8_Node000006_Node000008"><a xlink:title=" ">
<path fill="none" stroke="#63b8ff" d="M522.41,-213.82C509.35,-204.11 494.7,-193.24 482.49,-184.17"/>
<polygon fill="#63b8ff" stroke="#63b8ff" points="520.61,-216.84 530.73,-219.99 524.79,-211.22 520.61,-216.84"/>
</a>
</g>
</g>
<!-- Node10 -->
<g id="Node000010" class="node">
<title>Node10</title>
<g id="a_Node000010"><a xlink:href="Parser_8cpp.html" target="_top" xlink:title=" ">
<polygon fill="white" stroke="#666666" points="1140,-178.5 976,-178.5 976,-148.5 1140,-148.5 1140,-178.5"/>
<text text-anchor="start" x="984" y="-166.5" font-family="Helvetica,sans-Serif" font-size="10.00">src/SceneSystem/ConfigParser</text>
<text text-anchor="middle" x="1058" y="-155.5" font-family="Helvetica,sans-Serif" font-size="10.00">/Parser.cpp</text>
</a>
</g>
</g>
<!-- Node9&#45;&gt;Node10 -->
<g id="edge11_Node000009_Node000010" class="edge">
<title>Node9&#45;&gt;Node10</title>
<g id="a_edge11_Node000009_Node000010"><a xlink:title=" ">
<path fill="none" stroke="#63b8ff" d="M1058,-215.04C1058,-202.95 1058,-188.79 1058,-178.54"/>
<polygon fill="#63b8ff" stroke="#63b8ff" points="1054.5,-215.39 1058,-225.39 1061.5,-215.39 1054.5,-215.39"/>
</a>
</g>
</g>
<!-- Node11 -->
<g id="Node000011" class="node">
<title>Node11</title>
<g id="a_Node000011"><a xlink:href="SceneLoader_8hpp.html" target="_top" xlink:title=" ">
<polygon fill="white" stroke="#666666" points="1188.5,-101.5 1023.5,-101.5 1023.5,-71.5 1188.5,-71.5 1188.5,-101.5"/>
<text text-anchor="start" x="1031.5" y="-89.5" font-family="Helvetica,sans-Serif" font-size="10.00">src/SceneSystem/SceneLoader</text>
<text text-anchor="middle" x="1106" y="-78.5" font-family="Helvetica,sans-Serif" font-size="10.00">/SceneLoader.hpp</text>
</a>
</g>
</g>
<!-- Node9&#45;&gt;Node11 -->
<g id="edge12_Node000009_Node000011" class="edge">
<title>Node9&#45;&gt;Node11</title>
<g id="a_edge12_Node000009_Node000011"><a xlink:title=" ">
<path fill="none" stroke="#63b8ff" d="M1108.35,-220.63C1124.24,-212.01 1139.99,-200.05 1149,-184 1164.8,-155.85 1138.55,-120.8 1120.6,-101.64"/>
<polygon fill="#63b8ff" stroke="#63b8ff" points="1106.38,-217.7 1099.03,-225.33 1109.53,-223.95 1106.38,-217.7"/>
</a>
</g>
</g>
<!-- Node12 -->
<g id="Node000012" class="node">
<title>Node12</title>
<g id="a_Node000012"><a xlink:href="SceneLoader_8cpp.html" target="_top" xlink:title=" ">
<polygon fill="white" stroke="#666666" points="1202.5,-30 1037.5,-30 1037.5,0 1202.5,0 1202.5,-30"/>
<text text-anchor="start" x="1045.5" y="-18" font-family="Helvetica,sans-Serif" font-size="10.00">src/SceneSystem/SceneLoader</text>
<text text-anchor="middle" x="1120" y="-7" font-family="Helvetica,sans-Serif" font-size="10.00">/SceneLoader.cpp</text>
</a>
</g>
</g>
<!-- Node11&#45;&gt;Node12 -->
<g id="edge13_Node000011_Node000012" class="edge">
<title>Node11&#45;&gt;Node12</title>
<g id="a_edge13_Node000011_Node000012"><a xlink:title=" ">
<path fill="none" stroke="#63b8ff" d="M1110.82,-61.58C1112.94,-51.06 1115.35,-39.08 1117.17,-30.04"/>
<polygon fill="#63b8ff" stroke="#63b8ff" points="1107.38,-60.94 1108.83,-71.44 1114.24,-62.32 1107.38,-60.94"/>
</a>
</g>
</g>
<!-- Node11&#45;&gt;Node13 -->
<g id="edge14_Node000011_Node000013" class="edge">
<title>Node11&#45;&gt;Node13</title>
<g id="a_edge14_Node000011_Node000013"><a xlink:title=" ">
<path fill="none" stroke="#63b8ff" d="M1071.73,-66.6C1046.87,-52.89 1014.43,-34.99 995.53,-24.57"/>
<polygon fill="#63b8ff" stroke="#63b8ff" points="1070.06,-69.67 1080.5,-71.44 1073.44,-63.54 1070.06,-69.67"/>
</a>
</g>
</g>
<!-- Node14&#45;&gt;Node11 -->
<g id="edge24_Node000014_Node000011" class="edge">
<title>Node14&#45;&gt;Node11</title>
<g id="a_edge24_Node000014_Node000011"><a xlink:title=" ">
<path fill="none" stroke="#63b8ff" d="M856.23,-221.81C879.66,-212.53 906.93,-199.78 929,-184 949.21,-169.55 946.52,-157.06 967,-143 993.99,-124.47 1028.09,-110.74 1055.75,-101.56"/>
<polygon fill="#63b8ff" stroke="#63b8ff" points="854.86,-218.58 846.79,-225.45 857.38,-225.12 854.86,-218.58"/>
</a>
</g>
</g>
<!-- Node15 -->
<g id="Node000015" class="node">
<title>Node15</title>
<g id="a_Node000015"><a xlink:href="PluginManager_8cpp.html" target="_top" xlink:title=" ">
<polygon fill="white" stroke="#666666" points="920,-178.5 744,-178.5 744,-148.5 920,-148.5 920,-178.5"/>
<text text-anchor="start" x="752" y="-166.5" font-family="Helvetica,sans-Serif" font-size="10.00">src/SceneSystem/PluginManager</text>
<text text-anchor="middle" x="832" y="-155.5" font-family="Helvetica,sans-Serif" font-size="10.00">/PluginManager.cpp</text>
</a>
</g>
</g>
<!-- Node14&#45;&gt;Node15 -->
<g id="edge16_Node000014_Node000015" class="edge">
<title>Node14&#45;&gt;Node15</title>
<g id="a_edge16_Node000014_Node000015"><a xlink:title=" ">
<path fill="none" stroke="#63b8ff" d="M812.86,-215.78C817.43,-203.53 822.85,-189 826.76,-178.54"/>
<polygon fill="#63b8ff" stroke="#63b8ff" points="809.49,-214.8 809.27,-225.39 816.04,-217.25 809.49,-214.8"/>
</a>
</g>
</g>
<!-- Node14&#45;&gt;Node16 -->
<g id="edge17_Node000014_Node000016" class="edge">
<title>Node14&#45;&gt;Node16</title>
<g id="a_edge17_Node000014_Node000016"><a xlink:title=" ">
<path fill="none" stroke="#63b8ff" d="M768.04,-220.77C742.9,-207.68 709.86,-190.47 686.96,-178.54"/>
<polygon fill="#63b8ff" stroke="#63b8ff" points="766.43,-223.88 776.91,-225.39 769.66,-217.67 766.43,-223.88"/>
</a>
</g>
</g>
<!-- Node16&#45;&gt;Node5 -->
<g id="edge18_Node000016_Node000005" class="edge">
<title>Node16&#45;&gt;Node5</title>
<g id="a_edge18_Node000016_Node000005"><a xlink:title=" ">
<path fill="none" stroke="#63b8ff" d="M606.32,-145.37C570.62,-133.97 523.63,-118.98 486.44,-107.11"/>
<polygon fill="#63b8ff" stroke="#63b8ff" points="605.48,-148.77 616.07,-148.48 607.61,-142.11 605.48,-148.77"/>
</a>
</g>
</g>
<!-- Node16&#45;&gt;Node7 -->
<g id="edge20_Node000016_Node000007" class="edge">
<title>Node16&#45;&gt;Node7</title>
<g id="a_edge20_Node000016_Node000007"><a xlink:title=" ">
<path fill="none" stroke="#63b8ff" d="M642.07,-140.45C633.5,-129.92 623.33,-117.41 615.03,-107.2"/>
<polygon fill="#63b8ff" stroke="#63b8ff" points="639.5,-142.84 648.53,-148.39 644.93,-138.43 639.5,-142.84"/>
</a>
</g>
</g>
<!-- Node16&#45;&gt;Node11 -->
<g id="edge22_Node000016_Node000011" class="edge">
<title>Node16&#45;&gt;Node11</title>
<g id="a_edge22_Node000016_Node000011"><a xlink:title=" ">
<path fill="none" stroke="#63b8ff" d="M720.59,-146.07C725.45,-144.96 730.3,-143.92 735,-143 855.56,-119.5 887.83,-127.12 1009,-107 1018.83,-105.37 1029.18,-103.48 1039.32,-101.52"/>
<polygon fill="#63b8ff" stroke="#63b8ff" points="719.56,-142.71 710.64,-148.43 721.18,-149.52 719.56,-142.71"/>
</a>
</g>
</g>
<!-- Node16&#45;&gt;Node13 -->
<g id="edge23_Node000016_Node000013" class="edge">
<title>Node16&#45;&gt;Node13</title>
<g id="a_edge23_Node000016_Node000013"><a xlink:title=" ">
<path fill="none" stroke="#63b8ff" d="M720.85,-146.1C725.62,-144.99 730.38,-143.94 735,-143 788.06,-132.17 939.76,-147.23 976,-107 996.85,-83.85 987.98,-42.44 982.78,-24.58"/>
<polygon fill="#63b8ff" stroke="#63b8ff" points="719.98,-142.71 711.07,-148.45 721.61,-149.52 719.98,-142.71"/>
</a>
</g>
</g>
<!-- Node17 -->
<g id="Node000017" class="node">
<title>Node17</title>
<g id="a_Node000017"><a xlink:href="Camera_8cpp.html" target="_top" xlink:title=" ">
<polygon fill="white" stroke="#666666" points="816.5,-107 691.5,-107 691.5,-66 816.5,-66 816.5,-107"/>
<text text-anchor="start" x="699.5" y="-95" font-family="Helvetica,sans-Serif" font-size="10.00">src/Objects/Plugins</text>
<text text-anchor="start" x="699.5" y="-84" font-family="Helvetica,sans-Serif" font-size="10.00">/CorePlugin/Renderers</text>
<text text-anchor="middle" x="754" y="-73" font-family="Helvetica,sans-Serif" font-size="10.00">/Camera/Camera.cpp</text>
</a>
</g>
</g>
<!-- Node16&#45;&gt;Node17 -->
<g id="edge19_Node000016_Node000017" class="edge">
<title>Node16&#45;&gt;Node17</title>
<g id="a_edge19_Node000016_Node000017"><a xlink:title=" ">
<path fill="none" stroke="#63b8ff" d="M685.69,-142C699.28,-131.16 715.87,-117.92 729.3,-107.2"/>
<polygon fill="#63b8ff" stroke="#63b8ff" points="683.31,-139.42 677.68,-148.39 687.68,-144.89 683.31,-139.42"/>
</a>
</g>
</g>
<!-- Node18 -->
<g id="Node000018" class="node">
<title>Node18</title>
<g id="a_Node000018"><a xlink:href="Scene_8cpp.html" target="_top" xlink:title=" ">
<polygon fill="white" stroke="#666666" points="967,-101.5 835,-101.5 835,-71.5 967,-71.5 967,-101.5"/>
<text text-anchor="start" x="843" y="-89.5" font-family="Helvetica,sans-Serif" font-size="10.00">src/SceneSystem/Scene</text>
<text text-anchor="middle" x="901" y="-78.5" font-family="Helvetica,sans-Serif" font-size="10.00">/Scene.cpp</text>
</a>
</g>
</g>
<!-- Node16&#45;&gt;Node18 -->
<g id="edge21_Node000016_Node000018" class="edge">
<title>Node16&#45;&gt;Node18</title>
<g id="a_edge21_Node000016_Node000018"><a xlink:title=" ">
<path fill="none" stroke="#63b8ff" d="M714.7,-145.48C757.32,-132.21 815.77,-114.02 855.76,-101.58"/>
<polygon fill="#63b8ff" stroke="#63b8ff" points="713.56,-142.17 705.05,-148.48 715.64,-148.85 713.56,-142.17"/>
</a>
</g>
</g>
<!-- Node19&#45;&gt;Node3 -->
<g id="edge27_Node000019_Node000003" class="edge">
<title>Node19&#45;&gt;Node3</title>
<g id="a_edge27_Node000019_Node000003"><a xlink:title=" ">
<path fill="none" stroke="#63b8ff" d="M114.79,-219.73C134.31,-206.78 159.35,-190.15 176.84,-178.54"/>
<polygon fill="#63b8ff" stroke="#63b8ff" points="112.65,-216.95 106.25,-225.39 116.52,-222.78 112.65,-216.95"/>
</a>
</g>
</g>
</g>
</svg>
