<?xml version="1.0" encoding="UTF-8" standalone="no"?>
<!DOCTYPE svg PUBLIC "-//W3C//DTD SVG 1.1//EN"
 "http://www.w3.org/Graphics/SVG/1.1/DTD/svg11.dtd">
<!-- Generated by graphviz version 2.43.0 (0)
 -->
<!-- Title: src/Objects/Abstracts/APrimitive/APrimitive.hpp Pages: 1 -->
<!--zoomable 412 -->

<svg id="main" version="1.1" xmlns="http://www.w3.org/2000/svg" xmlns:xlink="http://www.w3.org/1999/xlink" xml:space="preserve" onload="init(evt)">
<style type="text/css"><![CDATA[
.node, .edge {opacity: 0.7;}
.node.selected, .edge.selected {opacity: 1;}
.edge:hover path { stroke: red; }
.edge:hover polygon { stroke: red; fill: red; }
]]></style>

<defs>
  <circle id="rim" cx="0" cy="0" r="7"/>
  <circle id="rim2" cx="0" cy="0" r="3.5"/>
  <g id="zoomPlus">
    <use xlink:href="#rim" fill="#404040"><set attributeName="fill" to="#808080" begin="zoomplus.mouseover" end="zoomplus.mouseout"/></use>
    <path d="M-4,0h8M0,-4v8" fill="none" stroke="white" stroke-width="1.5" pointer-events="none"/>
  </g>
  <g id="zoomMin">
    <use xlink:href="#rim" fill="#404040"><set attributeName="fill" to="#808080" begin="zoomminus.mouseover" end="zoomminus.mouseout"/></use>
    <path d="M-4,0h8" fill="none" stroke="white" stroke-width="1.5" pointer-events="none"/>
  </g>
  <g id="arrowUp" transform="translate(30 24)">
    <use xlink:href="#rim"/>
    <path pointer-events="none" fill="none" stroke="white" stroke-width="1.5" d="M0,-3.0v7 M-2.5,-0.5L0,-3.0L2.5,-0.5"/>
  </g>
  <g id="arrowRight" transform="rotate(90) translate(36 -43)">
    <use xlink:href="#rim"/>
    <path pointer-events="none" fill="none" stroke="white" stroke-width="1.5" d="M0,-3.0v7 M-2.5,-0.5L0,-3.0L2.5,-0.5"/>
  </g>
  <g id="arrowDown" transform="rotate(180) translate(-30 -48)">
    <use xlink:href="#rim"/>
    <path pointer-events="none" fill="none" stroke="white" stroke-width="1.5" d="M0,-3.0v7 M-2.5,-0.5L0,-3.0L2.5,-0.5"/>
  </g>
  <g id="arrowLeft" transform="rotate(270) translate(-36 17)">
    <use xlink:href="#rim"/>
    <path pointer-events="none" fill="none" stroke="white" stroke-width="1.5" d="M0,-3.0v7 M-2.5,-0.5L0,-3.0L2.5,-0.5"/>
  </g>
  <g id="resetDef">
    <use xlink:href="#rim2" fill="#404040"><set attributeName="fill" to="#808080" begin="reset.mouseover" end="reset.mouseout"/></use>
  </g>
</defs>
<script type="application/ecmascript">
var viewWidth = 2343;
var viewHeight = 412;
var sectionId = 'dynsection-1';
</script>
<script type="application/ecmascript" xlink:href="svg.min.js"/>
<svg id="graph" class="graph">
<g id="viewport">
<title>src/Objects/Abstracts/APrimitive/APrimitive.hpp</title>
<!-- Node1 -->
<g id="Node000001" class="node">
<title>Node1</title>
<g id="a_Node000001"><a xlink:title=" ">
<polygon fill="#999999" stroke="#666666" points="1686.98,-404 1540.98,-404 1540.98,-374 1686.98,-374 1686.98,-404"/>
<text text-anchor="start" x="1548.98" y="-392" font-family="Helvetica,sans-Serif" font-size="10.00">src/Objects/Abstracts</text>
<text text-anchor="middle" x="1613.98" y="-381" font-family="Helvetica,sans-Serif" font-size="10.00">/APrimitive/APrimitive.hpp</text>
</a>
</g>
</g>
<!-- Node2 -->
<g id="Node000002" class="node">
<title>Node2</title>
<g id="a_Node000002"><a xlink:href="APrimitive_8cpp.html" target="_top" xlink:title=" ">
<polygon fill="white" stroke="#666666" points="642.48,-332.5 497.48,-332.5 497.48,-302.5 642.48,-302.5 642.48,-332.5"/>
<text text-anchor="start" x="505.48" y="-320.5" font-family="Helvetica,sans-Serif" font-size="10.00">src/Objects/Abstracts</text>
<text text-anchor="middle" x="569.98" y="-309.5" font-family="Helvetica,sans-Serif" font-size="10.00">/APrimitive/APrimitive.cpp</text>
</a>
</g>
</g>
<!-- Node1&#45;&gt;Node2 -->
<g id="edge1_Node000001_Node000002" class="edge">
<title>Node1&#45;&gt;Node2</title>
<g id="a_edge1_Node000001_Node000002"><a xlink:title=" ">
<path fill="none" stroke="#63b8ff" d="M1530.51,-388.82C1362.88,-389.34 973.71,-384.82 650.98,-338 641.53,-336.63 631.57,-334.67 621.99,-332.52"/>
<polygon fill="#63b8ff" stroke="#63b8ff" points="1530.76,-392.32 1540.74,-388.78 1530.73,-385.32 1530.76,-392.32"/>
</a>
</g>
</g>
<!-- Node3 -->
<g id="Node000003" class="node">
<title>Node3</title>
<g id="a_Node000003"><a xlink:href="Plugin_8hpp.html" target="_top" xlink:title=" ">
<polygon fill="white" stroke="#666666" points="785.48,-327 660.48,-327 660.48,-308 785.48,-308 785.48,-327"/>
<text text-anchor="middle" x="722.98" y="-315" font-family="Helvetica,sans-Serif" font-size="10.00">src/Objects/Plugin.hpp</text>
</a>
</g>
</g>
<!-- Node1&#45;&gt;Node3 -->
<g id="edge2_Node000001_Node000003" class="edge">
<title>Node1&#45;&gt;Node3</title>
<g id="a_edge2_Node000001_Node000003"><a xlink:title=" ">
<path fill="none" stroke="#63b8ff" d="M1530.44,-381.81C1405.78,-372.54 1163.69,-354.37 957.98,-338 899.62,-333.35 833.13,-327.81 785.81,-323.83"/>
<polygon fill="#63b8ff" stroke="#63b8ff" points="1530.44,-385.32 1540.67,-382.57 1530.96,-378.34 1530.44,-385.32"/>
</a>
</g>
</g>
<!-- Node19 -->
<g id="Node000019" class="node">
<title>Node19</title>
<g id="a_Node000019"><a xlink:href="BVHCam_8cpp.html" target="_top" xlink:title=" ">
<polygon fill="white" stroke="#666666" points="1567.98,-107 1421.98,-107 1421.98,-66 1567.98,-66 1567.98,-107"/>
<text text-anchor="start" x="1429.98" y="-95" font-family="Helvetica,sans-Serif" font-size="10.00">src/Objects/Plugins</text>
<text text-anchor="start" x="1429.98" y="-84" font-family="Helvetica,sans-Serif" font-size="10.00">/BVHCamPlugin/Renderers</text>
<text text-anchor="middle" x="1494.98" y="-73" font-family="Helvetica,sans-Serif" font-size="10.00">/BVHCam.cpp</text>
</a>
</g>
</g>
<!-- Node1&#45;&gt;Node19 -->
<g id="edge33_Node000001_Node000019" class="edge">
<title>Node1&#45;&gt;Node19</title>
<g id="a_edge33_Node000001_Node000019"><a xlink:title=" ">
<path fill="none" stroke="#63b8ff" d="M1697.26,-374.74C1806.38,-353.68 1976.92,-305.92 1913.98,-220 1872.78,-163.76 1676.88,-120.29 1568.14,-100.02"/>
<polygon fill="#63b8ff" stroke="#63b8ff" points="1696.4,-371.34 1687.22,-376.63 1697.7,-378.22 1696.4,-371.34"/>
</a>
</g>
</g>
<!-- Node20 -->
<g id="Node000020" class="node">
<title>Node20</title>
<g id="a_Node000020"><a xlink:href="Camera_8cpp.html" target="_top" xlink:title="Implementation of the RayTracer::BVHCam renderer.">
<polygon fill="white" stroke="#666666" points="1872.48,-107 1747.48,-107 1747.48,-66 1872.48,-66 1872.48,-107"/>
<text text-anchor="start" x="1755.48" y="-95" font-family="Helvetica,sans-Serif" font-size="10.00">src/Objects/Plugins</text>
<text text-anchor="start" x="1755.48" y="-84" font-family="Helvetica,sans-Serif" font-size="10.00">/CorePlugin/Renderers</text>
<text text-anchor="middle" x="1809.98" y="-73" font-family="Helvetica,sans-Serif" font-size="10.00">/Camera/Camera.cpp</text>
</a>
</g>
</g>
<!-- Node1&#45;&gt;Node20 -->
<g id="edge48_Node000001_Node000020" class="edge">
<title>Node1&#45;&gt;Node20</title>
<g id="a_edge48_Node000001_Node000020"><a xlink:title=" ">
<path fill="none" stroke="#63b8ff" d="M1697.24,-379.83C1764.93,-371.88 1853.96,-358.06 1883.98,-338 1917.91,-315.33 1922.39,-300.12 1933.98,-261 1952.96,-196.92 1883.53,-136.95 1840.92,-107.15"/>
<polygon fill="#63b8ff" stroke="#63b8ff" points="1696.53,-376.39 1687,-381.01 1697.33,-383.34 1696.53,-376.39"/>
</a>
</g>
</g>
<!-- Node23 -->
<g id="Node000023" class="node">
<title>Node23</title>
<g id="a_Node000023"><a xlink:href="DirectionalLight_8cpp.html" target="_top" xlink:title=" ">
<polygon fill="white" stroke="#666666" points="2160.48,-338 1999.48,-338 1999.48,-297 2160.48,-297 2160.48,-338"/>
<text text-anchor="start" x="2007.48" y="-326" font-family="Helvetica,sans-Serif" font-size="10.00">src/Objects/Plugins</text>
<text text-anchor="start" x="2007.48" y="-315" font-family="Helvetica,sans-Serif" font-size="10.00">/CorePlugin/Lights/Directional</text>
<text text-anchor="middle" x="2079.98" y="-304" font-family="Helvetica,sans-Serif" font-size="10.00">Light/DirectionalLight.cpp</text>
</a>
</g>
</g>
<!-- Node1&#45;&gt;Node23 -->
<g id="edge34_Node000001_Node000023" class="edge">
<title>Node1&#45;&gt;Node23</title>
<g id="a_edge34_Node000001_Node000023"><a xlink:title=" ">
<path fill="none" stroke="#63b8ff" d="M1697.43,-378.41C1772.79,-369.36 1886.6,-354.7 1984.98,-338 1989.71,-337.2 1994.56,-336.33 1999.46,-335.43"/>
<polygon fill="#63b8ff" stroke="#63b8ff" points="1696.58,-374.99 1687.06,-379.65 1697.41,-381.94 1696.58,-374.99"/>
</a>
</g>
</g>
<!-- Node24 -->
<g id="Node000024" class="node">
<title>Node24</title>
<g id="a_Node000024"><a xlink:href="PointLight_8cpp.html" target="_top" xlink:title=" ">
<polygon fill="white" stroke="#666666" points="2334.98,-338 2178.98,-338 2178.98,-297 2334.98,-297 2334.98,-338"/>
<text text-anchor="start" x="2186.98" y="-326" font-family="Helvetica,sans-Serif" font-size="10.00">src/Objects/Plugins</text>
<text text-anchor="start" x="2186.98" y="-315" font-family="Helvetica,sans-Serif" font-size="10.00">/CorePlugin/Lights/PointLight</text>
<text text-anchor="middle" x="2256.98" y="-304" font-family="Helvetica,sans-Serif" font-size="10.00">/PointLight.cpp</text>
</a>
</g>
</g>
<!-- Node1&#45;&gt;Node24 -->
<g id="edge35_Node000001_Node000024" class="edge">
<title>Node1&#45;&gt;Node24</title>
<g id="a_edge35_Node000001_Node000024"><a xlink:title=" ">
<path fill="none" stroke="#63b8ff" d="M1697.49,-383.9C1806.63,-377.77 2003.47,-364.03 2169.98,-338 2172.88,-337.55 2175.84,-337.05 2178.82,-336.53"/>
<polygon fill="#63b8ff" stroke="#63b8ff" points="1697,-380.42 1687.21,-384.47 1697.39,-387.41 1697,-380.42"/>
</a>
</g>
</g>
<!-- Node25 -->
<g id="Node000025" class="node">
<title>Node25</title>
<g id="a_Node000025"><a xlink:href="Cone_8hpp.html" target="_top" xlink:title=" ">
<polygon fill="white" stroke="#666666" points="1358.48,-338 1233.48,-338 1233.48,-297 1358.48,-297 1358.48,-338"/>
<text text-anchor="start" x="1241.48" y="-326" font-family="Helvetica,sans-Serif" font-size="10.00">src/Objects/Plugins</text>
<text text-anchor="start" x="1241.48" y="-315" font-family="Helvetica,sans-Serif" font-size="10.00">/CorePlugin/Primitives</text>
<text text-anchor="middle" x="1295.98" y="-304" font-family="Helvetica,sans-Serif" font-size="10.00">/Cone/Cone.hpp</text>
</a>
</g>
</g>
<!-- Node1&#45;&gt;Node25 -->
<g id="edge36_Node000001_Node000025" class="edge">
<title>Node1&#45;&gt;Node25</title>
<g id="a_edge36_Node000001_Node000025"><a xlink:title=" ">
<path fill="none" stroke="#63b8ff" d="M1539.59,-371.74C1484.61,-359.73 1410.58,-343.55 1358.61,-332.19"/>
<polygon fill="#63b8ff" stroke="#63b8ff" points="1539.11,-375.22 1549.63,-373.94 1540.6,-368.38 1539.11,-375.22"/>
</a>
</g>
</g>
<!-- Node27 -->
<g id="Node000027" class="node">
<title>Node27</title>
<g id="a_Node000027"><a xlink:href="Cylinder_8hpp.html" target="_top" xlink:title=" ">
<polygon fill="white" stroke="#666666" points="1533.48,-338 1408.48,-338 1408.48,-297 1533.48,-297 1533.48,-338"/>
<text text-anchor="start" x="1416.48" y="-326" font-family="Helvetica,sans-Serif" font-size="10.00">src/Objects/Plugins</text>
<text text-anchor="start" x="1416.48" y="-315" font-family="Helvetica,sans-Serif" font-size="10.00">/CorePlugin/Primitives</text>
<text text-anchor="middle" x="1470.98" y="-304" font-family="Helvetica,sans-Serif" font-size="10.00">/Cylinder/Cylinder.hpp</text>
</a>
</g>
</g>
<!-- Node1&#45;&gt;Node27 -->
<g id="edge39_Node000001_Node000027" class="edge">
<title>Node1&#45;&gt;Node27</title>
<g id="a_edge39_Node000001_Node000027"><a xlink:title=" ">
<path fill="none" stroke="#63b8ff" d="M1575.93,-369.51C1555.97,-359.81 1531.53,-347.93 1511.25,-338.07"/>
<polygon fill="#63b8ff" stroke="#63b8ff" points="1574.52,-372.71 1585.04,-373.94 1577.58,-366.42 1574.52,-372.71"/>
</a>
</g>
</g>
<!-- Node29 -->
<g id="Node000029" class="node">
<title>Node29</title>
<g id="a_Node000029"><a xlink:href="Plane_8hpp.html" target="_top" xlink:title=" ">
<polygon fill="white" stroke="#666666" points="1676.48,-338 1551.48,-338 1551.48,-297 1676.48,-297 1676.48,-338"/>
<text text-anchor="start" x="1559.48" y="-326" font-family="Helvetica,sans-Serif" font-size="10.00">src/Objects/Plugins</text>
<text text-anchor="start" x="1559.48" y="-315" font-family="Helvetica,sans-Serif" font-size="10.00">/CorePlugin/Primitives</text>
<text text-anchor="middle" x="1613.98" y="-304" font-family="Helvetica,sans-Serif" font-size="10.00">/Plane/Plane.hpp</text>
</a>
</g>
</g>
<!-- Node1&#45;&gt;Node29 -->
<g id="edge42_Node000001_Node000029" class="edge">
<title>Node1&#45;&gt;Node29</title>
<g id="a_edge42_Node000001_Node000029"><a xlink:title=" ">
<path fill="none" stroke="#63b8ff" d="M1613.98,-363.91C1613.98,-355.47 1613.98,-346.1 1613.98,-338.07"/>
<polygon fill="#63b8ff" stroke="#63b8ff" points="1610.48,-363.94 1613.98,-373.94 1617.48,-363.94 1610.48,-363.94"/>
</a>
</g>
</g>
<!-- Node31 -->
<g id="Node000031" class="node">
<title>Node31</title>
<g id="a_Node000031"><a xlink:href="Sphere_8hpp.html" target="_top" xlink:title=" ">
<polygon fill="white" stroke="#666666" points="1819.48,-338 1694.48,-338 1694.48,-297 1819.48,-297 1819.48,-338"/>
<text text-anchor="start" x="1702.48" y="-326" font-family="Helvetica,sans-Serif" font-size="10.00">src/Objects/Plugins</text>
<text text-anchor="start" x="1702.48" y="-315" font-family="Helvetica,sans-Serif" font-size="10.00">/CorePlugin/Primitives</text>
<text text-anchor="middle" x="1756.98" y="-304" font-family="Helvetica,sans-Serif" font-size="10.00">/Sphere/Sphere.hpp</text>
</a>
</g>
</g>
<!-- Node1&#45;&gt;Node31 -->
<g id="edge45_Node000001_Node000031" class="edge">
<title>Node1&#45;&gt;Node31</title>
<g id="a_edge45_Node000001_Node000031"><a xlink:title=" ">
<path fill="none" stroke="#63b8ff" d="M1652.03,-369.51C1671.98,-359.81 1696.43,-347.93 1716.7,-338.07"/>
<polygon fill="#63b8ff" stroke="#63b8ff" points="1650.38,-366.42 1642.92,-373.94 1653.44,-372.71 1650.38,-366.42"/>
</a>
</g>
</g>
<!-- Node33 -->
<g id="Node000033" class="node">
<title>Node33</title>
<g id="a_Node000033"><a xlink:href="BVH_8hpp.html" target="_top" xlink:title=" ">
<polygon fill="white" stroke="#666666" points="1090.98,-332.5 966.98,-332.5 966.98,-302.5 1090.98,-302.5 1090.98,-332.5"/>
<text text-anchor="start" x="974.98" y="-320.5" font-family="Helvetica,sans-Serif" font-size="10.00">src/SceneSystem/BVH</text>
<text text-anchor="middle" x="1028.98" y="-309.5" font-family="Helvetica,sans-Serif" font-size="10.00">/BVH.hpp</text>
</a>
</g>
</g>
<!-- Node1&#45;&gt;Node33 -->
<g id="edge49_Node000001_Node000033" class="edge">
<title>Node1&#45;&gt;Node33</title>
<g id="a_edge49_Node000001_Node000033"><a xlink:title=" ">
<path fill="none" stroke="#63b8ff" d="M1530.65,-378.1C1411.95,-364 1196.89,-338.45 1091.12,-325.88"/>
<polygon fill="#63b8ff" stroke="#63b8ff" points="1530.43,-381.6 1540.77,-379.3 1531.26,-374.65 1530.43,-381.6"/>
</a>
</g>
</g>
<!-- Node4 -->
<g id="Node000004" class="node">
<title>Node4</title>
<g id="a_Node000004"><a xlink:href="BVHCamPlugin_8cpp.html" target="_top" xlink:title=" ">
<polygon fill="white" stroke="#666666" points="1014.98,-178.5 824.98,-178.5 824.98,-148.5 1014.98,-148.5 1014.98,-178.5"/>
<text text-anchor="start" x="832.98" y="-166.5" font-family="Helvetica,sans-Serif" font-size="10.00">src/Objects/Plugins</text>
<text text-anchor="middle" x="919.98" y="-155.5" font-family="Helvetica,sans-Serif" font-size="10.00">/BVHCamPlugin/BVHCamPlugin.cpp</text>
</a>
</g>
</g>
<!-- Node3&#45;&gt;Node4 -->
<g id="edge3_Node000003_Node000004" class="edge">
<title>Node3&#45;&gt;Node4</title>
<g id="a_edge3_Node000003_Node000004"><a xlink:title=" ">
<path fill="none" stroke="#63b8ff" d="M729.53,-298.19C738.07,-276.74 754.93,-241.42 779.98,-220 802.93,-200.38 833.67,-187.16 860.5,-178.57"/>
<polygon fill="#63b8ff" stroke="#63b8ff" points="726.19,-297.15 725.92,-307.74 732.73,-299.63 726.19,-297.15"/>
</a>
</g>
</g>
<!-- Node5 -->
<g id="Node000005" class="node">
<title>Node5</title>
<g id="a_Node000005"><a xlink:href="CorePlugin_8cpp.html" target="_top" xlink:title="Core plugin implementation that provides primitives, materials and the camera.">
<polygon fill="white" stroke="#666666" points="1278.98,-178.5 1130.98,-178.5 1130.98,-148.5 1278.98,-148.5 1278.98,-178.5"/>
<text text-anchor="start" x="1138.98" y="-166.5" font-family="Helvetica,sans-Serif" font-size="10.00">src/Objects/Plugins</text>
<text text-anchor="middle" x="1204.98" y="-155.5" font-family="Helvetica,sans-Serif" font-size="10.00">/CorePlugin/CorePlugin.cpp</text>
</a>
</g>
</g>
<!-- Node3&#45;&gt;Node5 -->
<g id="edge4_Node000003_Node000005" class="edge">
<title>Node3&#45;&gt;Node5</title>
<g id="a_edge4_Node000003_Node000005"><a xlink:title=" ">
<path fill="none" stroke="#63b8ff" d="M795.8,-310.43C909.25,-300.46 1118.23,-279.83 1146.98,-261 1176.9,-241.4 1193.68,-200.51 1200.82,-178.78"/>
<polygon fill="#63b8ff" stroke="#63b8ff" points="795.46,-306.95 785.8,-311.3 796.07,-313.92 795.46,-306.95"/>
</a>
</g>
</g>
<!-- Node6 -->
<g id="Node000006" class="node">
<title>Node6</title>
<g id="a_Node000006"><a xlink:href="SceneWriter_8hpp.html" target="_top" xlink:title=" ">
<polygon fill="white" stroke="#666666" points="1138.48,-261 977.48,-261 977.48,-220 1138.48,-220 1138.48,-261"/>
<text text-anchor="start" x="985.48" y="-249" font-family="Helvetica,sans-Serif" font-size="10.00">src/Objects/Plugins</text>
<text text-anchor="start" x="985.48" y="-238" font-family="Helvetica,sans-Serif" font-size="10.00">/CorePlugin/Interfaces</text>
<text text-anchor="middle" x="1057.98" y="-227" font-family="Helvetica,sans-Serif" font-size="10.00">/SceneWriter/SceneWriter.hpp</text>
</a>
</g>
</g>
<!-- Node3&#45;&gt;Node6 -->
<g id="edge5_Node000003_Node000006" class="edge">
<title>Node3&#45;&gt;Node6</title>
<g id="a_edge5_Node000003_Node000006"><a xlink:title=" ">
<path fill="none" stroke="#63b8ff" d="M771.04,-305.74C824.83,-293.7 912.88,-273.98 977.28,-259.57"/>
<polygon fill="#63b8ff" stroke="#63b8ff" points="770.07,-302.37 761.08,-307.97 771.6,-309.2 770.07,-302.37"/>
</a>
</g>
</g>
<!-- Node8 -->
<g id="Node000008" class="node">
<title>Node8</title>
<g id="a_Node000008"><a xlink:href="Livescene_8hpp.html" target="_top" xlink:title=" ">
<polygon fill="white" stroke="#666666" points="386.98,-261 236.98,-261 236.98,-220 386.98,-220 386.98,-261"/>
<text text-anchor="start" x="244.98" y="-249" font-family="Helvetica,sans-Serif" font-size="10.00">src/Objects/Plugins</text>
<text text-anchor="start" x="244.98" y="-238" font-family="Helvetica,sans-Serif" font-size="10.00">/LivescenePlugin/Interfaces</text>
<text text-anchor="middle" x="311.98" y="-227" font-family="Helvetica,sans-Serif" font-size="10.00">/Livescene/Livescene.hpp</text>
</a>
</g>
</g>
<!-- Node3&#45;&gt;Node8 -->
<g id="edge8_Node000003_Node000008" class="edge">
<title>Node3&#45;&gt;Node8</title>
<g id="a_edge8_Node000003_Node000008"><a xlink:title=" ">
<path fill="none" stroke="#63b8ff" d="M684.8,-305.23C673.94,-302.28 662.05,-299.29 650.98,-297 541.04,-274.29 511.43,-281.03 400.98,-261 396.46,-260.18 391.83,-259.3 387.16,-258.38"/>
<polygon fill="#63b8ff" stroke="#63b8ff" points="683.87,-308.61 694.44,-307.91 685.74,-301.86 683.87,-308.61"/>
</a>
</g>
</g>
<!-- Node10 -->
<g id="Node000010" class="node">
<title>Node10</title>
<g id="a_Node000010"><a xlink:href="LivescenePlugin_8cpp.html" target="_top" xlink:title=" ">
<polygon fill="white" stroke="#666666" points="386.98,-184 236.98,-184 236.98,-143 386.98,-143 386.98,-184"/>
<text text-anchor="start" x="244.98" y="-172" font-family="Helvetica,sans-Serif" font-size="10.00">src/Objects/Plugins</text>
<text text-anchor="start" x="244.98" y="-161" font-family="Helvetica,sans-Serif" font-size="10.00">/LivescenePlugin/Livescene</text>
<text text-anchor="middle" x="311.98" y="-150" font-family="Helvetica,sans-Serif" font-size="10.00">Plugin.cpp</text>
</a>
</g>
</g>
<!-- Node3&#45;&gt;Node10 -->
<g id="edge11_Node000003_Node000010" class="edge">
<title>Node3&#45;&gt;Node10</title>
<g id="a_edge11_Node000003_Node000010"><a xlink:title=" ">
<path fill="none" stroke="#63b8ff" d="M684.15,-305.22C673.46,-302.32 661.81,-299.36 650.98,-297 555.45,-276.2 520.06,-307.34 433.98,-261 412.1,-249.22 414.92,-236.07 395.98,-220 380.38,-206.77 361.5,-194.04 345.59,-184.12"/>
<polygon fill="#63b8ff" stroke="#63b8ff" points="683.49,-308.67 694.06,-307.96 685.36,-301.92 683.49,-308.67"/>
</a>
</g>
</g>
<!-- Node11 -->
<g id="Node000011" class="node">
<title>Node11</title>
<g id="a_Node000011"><a xlink:href="Parser_8hpp.html" target="_top" xlink:title=" ">
<polygon fill="white" stroke="#666666" points="180.98,-255.5 16.98,-255.5 16.98,-225.5 180.98,-225.5 180.98,-255.5"/>
<text text-anchor="start" x="24.98" y="-243.5" font-family="Helvetica,sans-Serif" font-size="10.00">src/SceneSystem/ConfigParser</text>
<text text-anchor="middle" x="98.98" y="-232.5" font-family="Helvetica,sans-Serif" font-size="10.00">/Parser.hpp</text>
</a>
</g>
</g>
<!-- Node3&#45;&gt;Node11 -->
<g id="edge12_Node000003_Node000011" class="edge">
<title>Node3&#45;&gt;Node11</title>
<g id="a_edge12_Node000003_Node000011"><a xlink:title=" ">
<path fill="none" stroke="#63b8ff" d="M686.02,-305.13C674.86,-302.06 662.5,-299.03 650.98,-297 465.17,-264.21 415.36,-283.11 227.98,-261 212.79,-259.21 196.65,-257.01 181.11,-254.73"/>
<polygon fill="#63b8ff" stroke="#63b8ff" points="685.31,-308.56 695.89,-307.93 687.22,-301.83 685.31,-308.56"/>
</a>
</g>
</g>
<!-- Node15 -->
<g id="Node000015" class="node">
<title>Node15</title>
<g id="a_Node000015"><a xlink:href="main_8cpp.html" target="_top" xlink:title="Entry point and CLI for the raytracer application.">
<polygon fill="white" stroke="#666666" points="686.48,-24.5 607.48,-24.5 607.48,-5.5 686.48,-5.5 686.48,-24.5"/>
<text text-anchor="middle" x="646.98" y="-12.5" font-family="Helvetica,sans-Serif" font-size="10.00">src/main.cpp</text>
</a>
</g>
</g>
<!-- Node3&#45;&gt;Node15 -->
<g id="edge32_Node000003_Node000015" class="edge">
<title>Node3&#45;&gt;Node15</title>
<g id="a_edge32_Node000003_Node000015"><a xlink:title=" ">
<path fill="none" stroke="#63b8ff" d="M713.41,-298.9C700.38,-274.07 677.38,-226.97 665.98,-184 650.16,-124.42 647.51,-49.54 647.07,-24.55"/>
<polygon fill="#63b8ff" stroke="#63b8ff" points="710.38,-300.65 718.17,-307.83 716.55,-297.36 710.38,-300.65"/>
</a>
</g>
</g>
<!-- Node16 -->
<g id="Node000016" class="node">
<title>Node16</title>
<g id="a_Node000016"><a xlink:href="PluginManager_8hpp.html" target="_top" xlink:title="Plugin loader interface for dynamic plugins.">
<polygon fill="white" stroke="#666666" points="618.98,-255.5 442.98,-255.5 442.98,-225.5 618.98,-225.5 618.98,-255.5"/>
<text text-anchor="start" x="450.98" y="-243.5" font-family="Helvetica,sans-Serif" font-size="10.00">src/SceneSystem/PluginManager</text>
<text text-anchor="middle" x="530.98" y="-232.5" font-family="Helvetica,sans-Serif" font-size="10.00">/PluginManager.hpp</text>
</a>
</g>
</g>
<!-- Node3&#45;&gt;Node16 -->
<g id="edge17_Node000003_Node000016" class="edge">
<title>Node3&#45;&gt;Node16</title>
<g id="a_edge17_Node000003_Node000016"><a xlink:title=" ">
<path fill="none" stroke="#63b8ff" d="M691.47,-304.19C657.33,-290.86 602.95,-269.61 567.11,-255.61"/>
<polygon fill="#63b8ff" stroke="#63b8ff" points="690.36,-307.52 700.95,-307.9 692.91,-301 690.36,-307.52"/>
</a>
</g>
</g>
<!-- Node18 -->
<g id="Node000018" class="node">
<title>Node18</title>
<g id="a_Node000018"><a xlink:href="Scene_8hpp.html" target="_top" xlink:title="Scene container and ray query interface used by renderers.">
<polygon fill="white" stroke="#666666" points="806.98,-178.5 674.98,-178.5 674.98,-148.5 806.98,-148.5 806.98,-178.5"/>
<text text-anchor="start" x="682.98" y="-166.5" font-family="Helvetica,sans-Serif" font-size="10.00">src/SceneSystem/Scene</text>
<text text-anchor="middle" x="740.98" y="-155.5" font-family="Helvetica,sans-Serif" font-size="10.00">/Scene.hpp</text>
</a>
</g>
</g>
<!-- Node3&#45;&gt;Node18 -->
<g id="edge28_Node000003_Node000018" class="edge">
<title>Node3&#45;&gt;Node18</title>
<g id="a_edge28_Node000003_Node000018"><a xlink:title=" ">
<path fill="none" stroke="#63b8ff" d="M716.03,-298.35C709.53,-278.76 701.81,-246.77 708.98,-220 713.06,-204.74 722.46,-189.34 730.02,-178.64"/>
<polygon fill="#63b8ff" stroke="#63b8ff" points="712.76,-299.6 719.42,-307.84 719.36,-297.25 712.76,-299.6"/>
</a>
</g>
</g>
<!-- Node22 -->
<g id="Node000022" class="node">
<title>Node22</title>
<g id="a_Node000022"><a xlink:href="SceneNodeHelpers_8hpp.html" target="_top" xlink:title=" ">
<polygon fill="white" stroke="#666666" points="958.98,-255.5 788.98,-255.5 788.98,-225.5 958.98,-225.5 958.98,-255.5"/>
<text text-anchor="start" x="796.98" y="-243.5" font-family="Helvetica,sans-Serif" font-size="10.00">src/SceneSystem/SceneNode</text>
<text text-anchor="middle" x="873.98" y="-232.5" font-family="Helvetica,sans-Serif" font-size="10.00">Helpers/SceneNodeHelpers.hpp</text>
</a>
</g>
</g>
<!-- Node3&#45;&gt;Node22 -->
<g id="edge29_Node000003_Node000022" class="edge">
<title>Node3&#45;&gt;Node22</title>
<g id="a_edge29_Node000003_Node000022"><a xlink:title=" ">
<path fill="none" stroke="#63b8ff" d="M749.51,-303.32C776.43,-289.95 817.98,-269.31 845.56,-255.61"/>
<polygon fill="#63b8ff" stroke="#63b8ff" points="747.7,-300.31 740.3,-307.9 750.81,-306.58 747.7,-300.31"/>
</a>
</g>
</g>
<!-- Node6&#45;&gt;Node5 -->
<g id="edge6_Node000006_Node000005" class="edge">
<title>Node6&#45;&gt;Node5</title>
<g id="a_edge6_Node000006_Node000005"><a xlink:title=" ">
<path fill="none" stroke="#63b8ff" d="M1105.4,-215.3C1129.09,-203.22 1156.93,-189.01 1177.15,-178.7"/>
<polygon fill="#63b8ff" stroke="#63b8ff" points="1103.53,-212.33 1096.22,-219.99 1106.71,-218.56 1103.53,-212.33"/>
</a>
</g>
</g>
<!-- Node7 -->
<g id="Node000007" class="node">
<title>Node7</title>
<g id="a_Node000007"><a xlink:href="SceneWriter_8cpp.html" target="_top" xlink:title=" ">
<polygon fill="white" stroke="#666666" points="1081.48,-107 920.48,-107 920.48,-66 1081.48,-66 1081.48,-107"/>
<text text-anchor="start" x="928.48" y="-95" font-family="Helvetica,sans-Serif" font-size="10.00">src/Objects/Plugins</text>
<text text-anchor="start" x="928.48" y="-84" font-family="Helvetica,sans-Serif" font-size="10.00">/CorePlugin/Interfaces</text>
<text text-anchor="middle" x="1000.98" y="-73" font-family="Helvetica,sans-Serif" font-size="10.00">/SceneWriter/SceneWriter.cpp</text>
</a>
</g>
</g>
<!-- Node6&#45;&gt;Node7 -->
<g id="edge7_Node000006_Node000007" class="edge">
<title>Node6&#45;&gt;Node7</title>
<g id="a_edge7_Node000006_Node000007"><a xlink:title=" ">
<path fill="none" stroke="#63b8ff" d="M1048.09,-210.12C1041.51,-190.92 1032.54,-165.36 1023.98,-143 1019.39,-131.02 1013.9,-117.74 1009.44,-107.17"/>
<polygon fill="#63b8ff" stroke="#63b8ff" points="1044.85,-211.46 1051.38,-219.8 1051.47,-209.2 1044.85,-211.46"/>
</a>
</g>
</g>
<!-- Node9 -->
<g id="Node000009" class="node">
<title>Node9</title>
<g id="a_Node000009"><a xlink:href="Livescene_8cpp.html" target="_top" xlink:title=" ">
<polygon fill="white" stroke="#666666" points="618.98,-107 468.98,-107 468.98,-66 618.98,-66 618.98,-107"/>
<text text-anchor="start" x="476.98" y="-95" font-family="Helvetica,sans-Serif" font-size="10.00">src/Objects/Plugins</text>
<text text-anchor="start" x="476.98" y="-84" font-family="Helvetica,sans-Serif" font-size="10.00">/LivescenePlugin/Interfaces</text>
<text text-anchor="middle" x="543.98" y="-73" font-family="Helvetica,sans-Serif" font-size="10.00">/Livescene/Livescene.cpp</text>
</a>
</g>
</g>
<!-- Node8&#45;&gt;Node9 -->
<g id="edge9_Node000008_Node000009" class="edge">
<title>Node8&#45;&gt;Node9</title>
<g id="a_edge9_Node000008_Node000009"><a xlink:title=" ">
<path fill="none" stroke="#63b8ff" d="M257.06,-214.47C245.41,-206.47 234.64,-196.39 227.98,-184 219.35,-167.95 216.13,-156.84 227.98,-143 261.77,-103.54 407.96,-116.81 458.98,-107 462.25,-106.37 465.59,-105.71 468.95,-105.02"/>
<polygon fill="#63b8ff" stroke="#63b8ff" points="255.32,-217.52 265.64,-219.94 259.08,-211.62 255.32,-217.52"/>
</a>
</g>
</g>
<!-- Node8&#45;&gt;Node10 -->
<g id="edge10_Node000008_Node000010" class="edge">
<title>Node8&#45;&gt;Node10</title>
<g id="a_edge10_Node000008_Node000010"><a xlink:title=" ">
<path fill="none" stroke="#63b8ff" d="M311.98,-209.69C311.98,-201.08 311.98,-191.9 311.98,-184.07"/>
<polygon fill="#63b8ff" stroke="#63b8ff" points="308.48,-209.79 311.98,-219.79 315.48,-209.79 308.48,-209.79"/>
</a>
</g>
</g>
<!-- Node12 -->
<g id="Node000012" class="node">
<title>Node12</title>
<g id="a_Node000012"><a xlink:href="Parser_8cpp.html" target="_top" xlink:title=" ">
<polygon fill="white" stroke="#666666" points="180.98,-178.5 16.98,-178.5 16.98,-148.5 180.98,-148.5 180.98,-178.5"/>
<text text-anchor="start" x="24.98" y="-166.5" font-family="Helvetica,sans-Serif" font-size="10.00">src/SceneSystem/ConfigParser</text>
<text text-anchor="middle" x="98.98" y="-155.5" font-family="Helvetica,sans-Serif" font-size="10.00">/Parser.cpp</text>
</a>
</g>
</g>
<!-- Node11&#45;&gt;Node12 -->
<g id="edge13_Node000011_Node000012" class="edge">
<title>Node11&#45;&gt;Node12</title>
<g id="a_edge13_Node000011_Node000012"><a xlink:title=" ">
<path fill="none" stroke="#63b8ff" d="M98.98,-215.04C98.98,-202.95 98.98,-188.79 98.98,-178.54"/>
<polygon fill="#63b8ff" stroke="#63b8ff" points="95.48,-215.39 98.98,-225.39 102.48,-215.39 95.48,-215.39"/>
</a>
</g>
</g>
<!-- Node13 -->
<g id="Node000013" class="node">
<title>Node13</title>
<g id="a_Node000013"><a xlink:href="SceneLoader_8hpp.html" target="_top" xlink:title="Loads scene graphs from parsed configuration nodes.">
<polygon fill="white" stroke="#666666" points="450.48,-101.5 285.48,-101.5 285.48,-71.5 450.48,-71.5 450.48,-101.5"/>
<text text-anchor="start" x="293.48" y="-89.5" font-family="Helvetica,sans-Serif" font-size="10.00">src/SceneSystem/SceneLoader</text>
<text text-anchor="middle" x="367.98" y="-78.5" font-family="Helvetica,sans-Serif" font-size="10.00">/SceneLoader.hpp</text>
</a>
</g>
</g>
<!-- Node11&#45;&gt;Node13 -->
<g id="edge14_Node000011_Node000013" class="edge">
<title>Node11&#45;&gt;Node13</title>
<g id="a_edge14_Node000011_Node000013"><a xlink:title=" ">
<path fill="none" stroke="#63b8ff" d="M48.63,-220.63C32.74,-212.01 16.99,-200.05 7.98,-184 -0.94,-168.11 -3.89,-156.83 7.98,-143 42.97,-102.2 190.24,-91.11 285.24,-88.27"/>
<polygon fill="#63b8ff" stroke="#63b8ff" points="47.44,-223.95 57.95,-225.33 50.59,-217.7 47.44,-223.95"/>
</a>
</g>
</g>
<!-- Node14 -->
<g id="Node000014" class="node">
<title>Node14</title>
<g id="a_Node000014"><a xlink:href="SceneLoader_8cpp.html" target="_top" xlink:title="Scene parsing and construction from configuration nodes.">
<polygon fill="white" stroke="#666666" points="450.48,-30 285.48,-30 285.48,0 450.48,0 450.48,-30"/>
<text text-anchor="start" x="293.48" y="-18" font-family="Helvetica,sans-Serif" font-size="10.00">src/SceneSystem/SceneLoader</text>
<text text-anchor="middle" x="367.98" y="-7" font-family="Helvetica,sans-Serif" font-size="10.00">/SceneLoader.cpp</text>
</a>
</g>
</g>
<!-- Node13&#45;&gt;Node14 -->
<g id="edge15_Node000013_Node000014" class="edge">
<title>Node13&#45;&gt;Node14</title>
<g id="a_edge15_Node000013_Node000014"><a xlink:title=" ">
<path fill="none" stroke="#63b8ff" d="M367.98,-61.25C367.98,-50.81 367.98,-38.99 367.98,-30.04"/>
<polygon fill="#63b8ff" stroke="#63b8ff" points="364.48,-61.44 367.98,-71.44 371.48,-61.44 364.48,-61.44"/>
</a>
</g>
</g>
<!-- Node13&#45;&gt;Node15 -->
<g id="edge16_Node000013_Node000015" class="edge">
<title>Node13&#45;&gt;Node15</title>
<g id="a_edge16_Node000013_Node000015"><a xlink:title=" ">
<path fill="none" stroke="#63b8ff" d="M434.28,-68.98C490.29,-55.03 568.27,-35.61 612.58,-24.57"/>
<polygon fill="#63b8ff" stroke="#63b8ff" points="433.29,-65.62 424.44,-71.44 434.99,-72.41 433.29,-65.62"/>
</a>
</g>
</g>
<!-- Node16&#45;&gt;Node13 -->
<g id="edge27_Node000016_Node000013" class="edge">
<title>Node16&#45;&gt;Node13</title>
<g id="a_edge27_Node000016_Node000013"><a xlink:title=" ">
<path fill="none" stroke="#63b8ff" d="M561.35,-219.23C572.55,-209.96 583.96,-197.92 589.98,-184 597.21,-167.27 601.19,-157.36 589.98,-143 584.99,-136.61 496.09,-115.8 432.32,-101.56"/>
<polygon fill="#63b8ff" stroke="#63b8ff" points="559.05,-216.58 553.31,-225.49 563.35,-222.11 559.05,-216.58"/>
</a>
</g>
</g>
<!-- Node17 -->
<g id="Node000017" class="node">
<title>Node17</title>
<g id="a_Node000017"><a xlink:href="PluginManager_8cpp.html" target="_top" xlink:title="Runtime plugin loader and initializer registry implementation.">
<polygon fill="white" stroke="#666666" points="580.98,-178.5 404.98,-178.5 404.98,-148.5 580.98,-148.5 580.98,-178.5"/>
<text text-anchor="start" x="412.98" y="-166.5" font-family="Helvetica,sans-Serif" font-size="10.00">src/SceneSystem/PluginManager</text>
<text text-anchor="middle" x="492.98" y="-155.5" font-family="Helvetica,sans-Serif" font-size="10.00">/PluginManager.cpp</text>
</a>
</g>
</g>
<!-- Node16&#45;&gt;Node17 -->
<g id="edge18_Node000016_Node000017" class="edge">
<title>Node16&#45;&gt;Node17</title>
<g id="a_edge18_Node000016_Node000017"><a xlink:title=" ">
<path fill="none" stroke="#63b8ff" d="M519.14,-216.15C512.9,-203.82 505.45,-189.11 500.09,-178.54"/>
<polygon fill="#63b8ff" stroke="#63b8ff" points="516.19,-218.05 523.83,-225.39 522.43,-214.89 516.19,-218.05"/>
</a>
</g>
</g>
<!-- Node16&#45;&gt;Node18 -->
<g id="edge19_Node000016_Node000018" class="edge">
<title>Node16&#45;&gt;Node18</title>
<g id="a_edge19_Node000016_Node000018"><a xlink:title=" ">
<path fill="none" stroke="#63b8ff" d="M580.07,-221.97C617.11,-208.74 667.24,-190.83 701.66,-178.54"/>
<polygon fill="#63b8ff" stroke="#63b8ff" points="578.72,-218.73 570.48,-225.39 581.07,-225.33 578.72,-218.73"/>
</a>
</g>
</g>
<!-- Node18&#45;&gt;Node7 -->
<g id="edge21_Node000018_Node000007" class="edge">
<title>Node18&#45;&gt;Node7</title>
<g id="a_edge21_Node000018_Node000007"><a xlink:title=" ">
<path fill="none" stroke="#63b8ff" d="M799.36,-145.66C838.98,-134.23 891.5,-119.08 933,-107.11"/>
<polygon fill="#63b8ff" stroke="#63b8ff" points="798.21,-142.35 789.58,-148.48 800.16,-149.07 798.21,-142.35"/>
</a>
</g>
</g>
<!-- Node18&#45;&gt;Node9 -->
<g id="edge23_Node000018_Node000009" class="edge">
<title>Node18&#45;&gt;Node9</title>
<g id="a_edge23_Node000018_Node000009"><a xlink:title=" ">
<path fill="none" stroke="#63b8ff" d="M694.2,-144.69C664.46,-133.37 625.95,-118.71 595.36,-107.06"/>
<polygon fill="#63b8ff" stroke="#63b8ff" points="693.33,-148.11 703.92,-148.39 695.82,-141.56 693.33,-148.11"/>
</a>
</g>
</g>
<!-- Node18&#45;&gt;Node13 -->
<g id="edge25_Node000018_Node000013" class="edge">
<title>Node18&#45;&gt;Node13</title>
<g id="a_edge25_Node000018_Node000013"><a xlink:title=" ">
<path fill="none" stroke="#63b8ff" d="M664.84,-147.76C608.28,-136.74 529.26,-121.18 459.98,-107 451.5,-105.26 442.59,-103.41 433.79,-101.56"/>
<polygon fill="#63b8ff" stroke="#63b8ff" points="664.3,-151.22 674.78,-149.69 665.64,-144.35 664.3,-151.22"/>
</a>
</g>
</g>
<!-- Node18&#45;&gt;Node15 -->
<g id="edge26_Node000018_Node000015" class="edge">
<title>Node18&#45;&gt;Node15</title>
<g id="a_edge26_Node000018_Node000015"><a xlink:title=" ">
<path fill="none" stroke="#63b8ff" d="M725.67,-139.85C718.95,-129.83 711,-117.87 703.98,-107 684.55,-76.94 662.2,-40.78 652.24,-24.58"/>
<polygon fill="#63b8ff" stroke="#63b8ff" points="722.95,-142.09 731.44,-148.43 728.76,-138.18 722.95,-142.09"/>
</a>
</g>
</g>
<!-- Node18&#45;&gt;Node19 -->
<g id="edge20_Node000018_Node000019" class="edge">
<title>Node18&#45;&gt;Node19</title>
<g id="a_edge20_Node000018_Node000019"><a xlink:title=" ">
<path fill="none" stroke="#63b8ff" d="M799.72,-146.2C805.19,-144.99 810.67,-143.9 815.98,-143 1034.48,-105.95 1296.88,-93.4 1421.86,-89.34"/>
<polygon fill="#63b8ff" stroke="#63b8ff" points="798.88,-142.8 789.93,-148.48 800.47,-149.62 798.88,-142.8"/>
</a>
</g>
</g>
<!-- Node18&#45;&gt;Node20 -->
<g id="edge22_Node000018_Node000020" class="edge">
<title>Node18&#45;&gt;Node20</title>
<g id="a_edge22_Node000018_Node000020"><a xlink:title=" ">
<path fill="none" stroke="#63b8ff" d="M799.18,-146.12C804.83,-144.91 810.49,-143.83 815.98,-143 1150.73,-92.13 1239.1,-129.12 1576.98,-107 1634.7,-103.22 1700.35,-97.61 1747.23,-93.37"/>
<polygon fill="#63b8ff" stroke="#63b8ff" points="798.05,-142.78 789.09,-148.42 799.61,-149.61 798.05,-142.78"/>
</a>
</g>
</g>
<!-- Node21 -->
<g id="Node000021" class="node">
<title>Node21</title>
<g id="a_Node000021"><a xlink:href="Scene_8cpp.html" target="_top" xlink:title="Implementation of the RayTracer::Scene container and utilities.">
<polygon fill="white" stroke="#666666" points="844.98,-101.5 712.98,-101.5 712.98,-71.5 844.98,-71.5 844.98,-101.5"/>
<text text-anchor="start" x="720.98" y="-89.5" font-family="Helvetica,sans-Serif" font-size="10.00">src/SceneSystem/Scene</text>
<text text-anchor="middle" x="778.98" y="-78.5" font-family="Helvetica,sans-Serif" font-size="10.00">/Scene.cpp</text>
</a>
</g>
</g>
<!-- Node18&#45;&gt;Node21 -->
<g id="edge24_Node000018_Node000021" class="edge">
<title>Node18&#45;&gt;Node21</title>
<g id="a_edge24_Node000018_Node000021"><a xlink:title=" ">
<path fill="none" stroke="#63b8ff" d="M752.81,-139.15C759.06,-126.82 766.51,-112.11 771.86,-101.54"/>
<polygon fill="#63b8ff" stroke="#63b8ff" points="749.52,-137.89 748.13,-148.39 755.77,-141.05 749.52,-137.89"/>
</a>
</g>
</g>
<!-- Node22&#45;&gt;Node4 -->
<g id="edge30_Node000022_Node000004" class="edge">
<title>Node22&#45;&gt;Node4</title>
<g id="a_edge30_Node000022_Node000004"><a xlink:title=" ">
<path fill="none" stroke="#63b8ff" d="M888.08,-216.51C895.68,-204.11 904.82,-189.21 911.36,-178.54"/>
<polygon fill="#63b8ff" stroke="#63b8ff" points="884.87,-215.04 882.63,-225.39 890.84,-218.7 884.87,-215.04"/>
</a>
</g>
</g>
<!-- Node22&#45;&gt;Node5 -->
<g id="edge31_Node000022_Node000005" class="edge">
<title>Node22&#45;&gt;Node5</title>
<g id="a_edge31_Node000022_Node000005"><a xlink:title=" ">
<path fill="none" stroke="#63b8ff" d="M945.82,-223.22C1004.7,-209.88 1087.15,-191.2 1143.13,-178.51"/>
<polygon fill="#63b8ff" stroke="#63b8ff" points="944.83,-219.86 935.85,-225.48 946.37,-226.68 944.83,-219.86"/>
</a>
</g>
</g>
<!-- Node25&#45;&gt;Node5 -->
<g id="edge37_Node000025_Node000005" class="edge">
<title>Node25&#45;&gt;Node5</title>
<g id="a_edge37_Node000025_Node000005"><a xlink:title=" ">
<path fill="none" stroke="#63b8ff" d="M1252.37,-290.87C1241.61,-282.61 1231.13,-272.55 1223.98,-261 1207.98,-235.16 1205.04,-198.6 1204.74,-178.72"/>
<polygon fill="#63b8ff" stroke="#63b8ff" points="1250.45,-293.8 1260.6,-296.83 1254.56,-288.13 1250.45,-293.8"/>
</a>
</g>
</g>
<!-- Node26 -->
<g id="Node000026" class="node">
<title>Node26</title>
<g id="a_Node000026"><a xlink:href="Cone_8cpp.html" target="_top" xlink:title=" ">
<polygon fill="white" stroke="#666666" points="1358.48,-261 1233.48,-261 1233.48,-220 1358.48,-220 1358.48,-261"/>
<text text-anchor="start" x="1241.48" y="-249" font-family="Helvetica,sans-Serif" font-size="10.00">src/Objects/Plugins</text>
<text text-anchor="start" x="1241.48" y="-238" font-family="Helvetica,sans-Serif" font-size="10.00">/CorePlugin/Primitives</text>
<text text-anchor="middle" x="1295.98" y="-227" font-family="Helvetica,sans-Serif" font-size="10.00">/Cone/Cone.cpp</text>
</a>
</g>
</g>
<!-- Node25&#45;&gt;Node26 -->
<g id="edge38_Node000025_Node000026" class="edge">
<title>Node25&#45;&gt;Node26</title>
<g id="a_edge38_Node000025_Node000026"><a xlink:title=" ">
<path fill="none" stroke="#63b8ff" d="M1295.98,-286.69C1295.98,-278.08 1295.98,-268.9 1295.98,-261.07"/>
<polygon fill="#63b8ff" stroke="#63b8ff" points="1292.48,-286.79 1295.98,-296.79 1299.48,-286.79 1292.48,-286.79"/>
</a>
</g>
</g>
<!-- Node27&#45;&gt;Node5 -->
<g id="edge40_Node000027_Node000005" class="edge">
<title>Node27&#45;&gt;Node5</title>
<g id="a_edge40_Node000027_Node000005"><a xlink:title=" ">
<path fill="none" stroke="#63b8ff" d="M1438.8,-290.16C1428.15,-281.14 1416.36,-270.84 1405.98,-261 1387.72,-243.7 1388.15,-233.58 1366.98,-220 1336.95,-200.74 1299.47,-187.34 1268.13,-178.54"/>
<polygon fill="#63b8ff" stroke="#63b8ff" points="1436.78,-293.03 1446.69,-296.78 1441.28,-287.67 1436.78,-293.03"/>
</a>
</g>
</g>
<!-- Node28 -->
<g id="Node000028" class="node">
<title>Node28</title>
<g id="a_Node000028"><a xlink:href="Cylinder_8cpp.html" target="_top" xlink:title=" ">
<polygon fill="white" stroke="#666666" points="1540.48,-261 1415.48,-261 1415.48,-220 1540.48,-220 1540.48,-261"/>
<text text-anchor="start" x="1423.48" y="-249" font-family="Helvetica,sans-Serif" font-size="10.00">src/Objects/Plugins</text>
<text text-anchor="start" x="1423.48" y="-238" font-family="Helvetica,sans-Serif" font-size="10.00">/CorePlugin/Primitives</text>
<text text-anchor="middle" x="1477.98" y="-227" font-family="Helvetica,sans-Serif" font-size="10.00">/Cylinder/Cylinder.cpp</text>
</a>
</g>
</g>
<!-- Node27&#45;&gt;Node28 -->
<g id="edge41_Node000027_Node000028" class="edge">
<title>Node27&#45;&gt;Node28</title>
<g id="a_edge41_Node000027_Node000028"><a xlink:title=" ">
<path fill="none" stroke="#63b8ff" d="M1473.76,-286.69C1474.56,-278.08 1475.42,-268.9 1476.15,-261.07"/>
<polygon fill="#63b8ff" stroke="#63b8ff" points="1470.26,-286.51 1472.82,-296.79 1477.23,-287.16 1470.26,-286.51"/>
</a>
</g>
</g>
<!-- Node29&#45;&gt;Node5 -->
<g id="edge43_Node000029_Node000005" class="edge">
<title>Node29&#45;&gt;Node5</title>
<g id="a_edge43_Node000029_Node000005"><a xlink:title=" ">
<path fill="none" stroke="#63b8ff" d="M1602.12,-287.32C1591.55,-265.18 1573.88,-235.93 1548.98,-220 1505.4,-192.13 1366.56,-176.73 1279.15,-169.58"/>
<polygon fill="#63b8ff" stroke="#63b8ff" points="1599.03,-288.96 1606.35,-296.61 1605.4,-286.06 1599.03,-288.96"/>
</a>
</g>
</g>
<!-- Node30 -->
<g id="Node000030" class="node">
<title>Node30</title>
<g id="a_Node000030"><a xlink:href="Plane_8cpp.html" target="_top" xlink:title=" ">
<polygon fill="white" stroke="#666666" points="1722.48,-261 1597.48,-261 1597.48,-220 1722.48,-220 1722.48,-261"/>
<text text-anchor="start" x="1605.48" y="-249" font-family="Helvetica,sans-Serif" font-size="10.00">src/Objects/Plugins</text>
<text text-anchor="start" x="1605.48" y="-238" font-family="Helvetica,sans-Serif" font-size="10.00">/CorePlugin/Primitives</text>
<text text-anchor="middle" x="1659.98" y="-227" font-family="Helvetica,sans-Serif" font-size="10.00">/Plane/Plane.cpp</text>
</a>
</g>
</g>
<!-- Node29&#45;&gt;Node30 -->
<g id="edge44_Node000029_Node000030" class="edge">
<title>Node29&#45;&gt;Node30</title>
<g id="a_edge44_Node000029_Node000030"><a xlink:title=" ">
<path fill="none" stroke="#63b8ff" d="M1631.39,-288.11C1636.92,-279.09 1642.91,-269.33 1647.97,-261.07"/>
<polygon fill="#63b8ff" stroke="#63b8ff" points="1628.31,-286.44 1626.06,-296.79 1634.28,-290.1 1628.31,-286.44"/>
</a>
</g>
</g>
<!-- Node31&#45;&gt;Node5 -->
<g id="edge46_Node000031_Node000005" class="edge">
<title>Node31&#45;&gt;Node5</title>
<g id="a_edge46_Node000031_Node000005"><a xlink:title=" ">
<path fill="none" stroke="#63b8ff" d="M1757.33,-286.73C1755.87,-264.87 1750.03,-236.26 1730.98,-220 1697.29,-191.26 1415.79,-174.32 1279.01,-167.72"/>
<polygon fill="#63b8ff" stroke="#63b8ff" points="1753.84,-286.99 1757.73,-296.84 1760.83,-286.71 1753.84,-286.99"/>
</a>
</g>
</g>
<!-- Node32 -->
<g id="Node000032" class="node">
<title>Node32</title>
<g id="a_Node000032"><a xlink:href="Sphere_8cpp.html" target="_top" xlink:title=" ">
<polygon fill="white" stroke="#666666" points="1904.48,-261 1779.48,-261 1779.48,-220 1904.48,-220 1904.48,-261"/>
<text text-anchor="start" x="1787.48" y="-249" font-family="Helvetica,sans-Serif" font-size="10.00">src/Objects/Plugins</text>
<text text-anchor="start" x="1787.48" y="-238" font-family="Helvetica,sans-Serif" font-size="10.00">/CorePlugin/Primitives</text>
<text text-anchor="middle" x="1841.98" y="-227" font-family="Helvetica,sans-Serif" font-size="10.00">/Sphere/Sphere.cpp</text>
</a>
</g>
</g>
<!-- Node31&#45;&gt;Node32 -->
<g id="edge47_Node000031_Node000032" class="edge">
<title>Node31&#45;&gt;Node32</title>
<g id="a_edge47_Node000031_Node000032"><a xlink:title=" ">
<path fill="none" stroke="#63b8ff" d="M1786.93,-290.07C1797.75,-280.52 1809.76,-269.93 1819.79,-261.07"/>
<polygon fill="#63b8ff" stroke="#63b8ff" points="1784.49,-287.55 1779.31,-296.79 1789.12,-292.8 1784.49,-287.55"/>
</a>
</g>
</g>
<!-- Node33&#45;&gt;Node18 -->
<g id="edge50_Node000033_Node000018" class="edge">
<title>Node33&#45;&gt;Node18</title>
<g id="a_edge50_Node000033_Node000018"><a xlink:title=" ">
<path fill="none" stroke="#63b8ff" d="M956.92,-307.96C893.19,-299.09 806.36,-283.36 779.98,-261 754.89,-239.74 745.76,-199.93 742.58,-178.7"/>
<polygon fill="#63b8ff" stroke="#63b8ff" points="956.56,-311.44 966.94,-309.32 957.5,-304.51 956.56,-311.44"/>
</a>
</g>
</g>
</g>
</svg>

<g id="navigator" transform="translate(0 0)" fill="#404254">
  <rect fill="#f2f5e9" fill-opacity="0.5" stroke="#606060" stroke-width=".5" x="0" y="0" width="60" height="60"/>
  <use id="zoomplus" xlink:href="#zoomPlus" x="17" y="9" onmousedown="handleZoom(evt,'in')"/>
  <use id="zoomminus" xlink:href="#zoomMin" x="42" y="9" onmousedown="handleZoom(evt,'out')"/>
  <use id="reset" xlink:href="#resetDef" x="30" y="36" onmousedown="handleReset()"/>
   <use id="arrowup" xlink:href="#arrowUp" x="0" y="0" onmousedown="handlePan(0,-1)"/>
  <use id="arrowright" xlink:href="#arrowRight" x="0" y="0" onmousedown="handlePan(1,0)"/>
  <use id="arrowdown" xlink:href="#arrowDown" x="0" y="0" onmousedown="handlePan(0,1)"/>
  <use id="arrowleft" xlink:href="#arrowLeft" x="0" y="0" onmousedown="handlePan(-1,0)"/>
</g>
<svg viewBox="0 0 15 15" width="100%" height="30px" preserveAspectRatio="xMaxYMin meet">
 <g id="arrow_out" transform="scale(0.3 0.3)">
  <a xlink:href="APrimitive_8hpp__dep__incl_org.svg" target="_base">
   <rect id="button" ry="5" rx="5" y="6" x="6" height="38" width="38"
        fill="#f2f5e9" fill-opacity="0.5" stroke="#606060" stroke-width="1.0"/>
   <path id="arrow"
     d="M 11.500037,31.436501 C 11.940474,20.09759 22.043105,11.32322 32.158766,21.979434 L 37.068811,17.246167 C 37.068811,17.246167 37.088388,32 37.088388,32 L 22.160133,31.978069 C 22.160133,31.978069 26.997745,27.140456 26.997745,27.140456 C 18.528582,18.264221 13.291696,25.230495 11.500037,31.436501 z"
     style="fill:#404040;"/>
  </a>
 </g>
</svg>

<style type='text/css'>
<![CDATA[
[data-mouse-over-selected='false'] { opacity: 0.7; }
[data-mouse-over-selected='true']  { opacity: 1.0; }
]]>
</style>
<script type="application/ecmascript"><![CDATA[
document.addEventListener('DOMContentLoaded', (event) => {
  highlightEdges();
  highlightAdjacentNodes();
});
]]></script>
</svg>
