<?xml version="1.0" encoding="UTF-8" standalone="no"?>
<!DOCTYPE svg PUBLIC "-//W3C//DTD SVG 1.1//EN"
 "http://www.w3.org/Graphics/SVG/1.1/DTD/svg11.dtd">
<!-- Generated by graphviz version 2.43.0 (0)
 -->
<!-- Title: src/Objects/Abstracts/APrimitive/APrimitive.hpp Pages: 1 -->
<!--zoomable 412 -->

<svg id="main" version="1.1" xmlns="http://www.w3.org/2000/svg" xmlns:xlink="http://www.w3.org/1999/xlink" xml:space="preserve" onload="init(evt)">
<style type="text/css"><![CDATA[
.node, .edge {opacity: 0.7;}
.node.selected, .edge.selected {opacity: 1;}
.edge:hover path { stroke: red; }
.edge:hover polygon { stroke: red; fill: red; }
]]></style>

<defs>
  <circle id="rim" cx="0" cy="0" r="7"/>
  <circle id="rim2" cx="0" cy="0" r="3.5"/>
  <g id="zoomPlus">
    <use xlink:href="#rim" fill="#404040"><set attributeName="fill" to="#808080" begin="zoomplus.mouseover" end="zoomplus.mouseout"/></use>
    <path d="M-4,0h8M0,-4v8" fill="none" stroke="white" stroke-width="1.5" pointer-events="none"/>
  </g>
  <g id="zoomMin">
    <use xlink:href="#rim" fill="#404040"><set attributeName="fill" to="#808080" begin="zoomminus.mouseover" end="zoomminus.mouseout"/></use>
    <path d="M-4,0h8" fill="none" stroke="white" stroke-width="1.5" pointer-events="none"/>
  </g>
  <g id="arrowUp" transform="translate(30 24)">
    <use xlink:href="#rim"/>
    <path pointer-events="none" fill="none" stroke="white" stroke-width="1.5" d="M0,-3.0v7 M-2.5,-0.5L0,-3.0L2.5,-0.5"/>
  </g>
  <g id="arrowRight" transform="rotate(90) translate(36 -43)">
    <use xlink:href="#rim"/>
    <path pointer-events="none" fill="none" stroke="white" stroke-width="1.5" d="M0,-3.0v7 M-2.5,-0.5L0,-3.0L2.5,-0.5"/>
  </g>
  <g id="arrowDown" transform="rotate(180) translate(-30 -48)">
    <use xlink:href="#rim"/>
    <path pointer-events="none" fill="none" stroke="white" stroke-width="1.5" d="M0,-3.0v7 M-2.5,-0.5L0,-3.0L2.5,-0.5"/>
  </g>
  <g id="arrowLeft" transform="rotate(270) translate(-36 17)">
    <use xlink:href="#rim"/>
    <path pointer-events="none" fill="none" stroke="white" stroke-width="1.5" d="M0,-3.0v7 M-2.5,-0.5L0,-3.0L2.5,-0.5"/>
  </g>
  <g id="resetDef">
    <use xlink:href="#rim2" fill="#404040"><set attributeName="fill" to="#808080" begin="reset.mouseover" end="reset.mouseout"/></use>
  </g>
</defs>
<script type="application/ecmascript">
var viewWidth = 2151;
var viewHeight = 412;
var sectionId = 'dynsection-1';
</script>
<script type="application/ecmascript" xlink:href="svg.min.js"/>
<svg id="graph" class="graph">
<g id="viewport">
<title>src/Objects/Abstracts/APrimitive/APrimitive.hpp</title>
<!-- Node1 -->
<g id="Node000001" class="node">
<title>Node1</title>
<g id="a_Node000001"><a xlink:title=" ">
<polygon fill="#999999" stroke="#666666" points="1533.48,-404 1387.48,-404 1387.48,-374 1533.48,-374 1533.48,-404"/>
<text text-anchor="start" x="1395.48" y="-392" font-family="Helvetica,sans-Serif" font-size="10.00">src/Objects/Abstracts</text>
<text text-anchor="middle" x="1460.48" y="-381" font-family="Helvetica,sans-Serif" font-size="10.00">/APrimitive/APrimitive.hpp</text>
</a>
</g>
</g>
<!-- Node2 -->
<g id="Node000002" class="node">
<title>Node2</title>
<g id="a_Node000002"><a xlink:href="APrimitive_8cpp.html" target="_top" xlink:title=" ">
<polygon fill="white" stroke="#666666" points="636.98,-332.5 491.98,-332.5 491.98,-302.5 636.98,-302.5 636.98,-332.5"/>
<text text-anchor="start" x="499.98" y="-320.5" font-family="Helvetica,sans-Serif" font-size="10.00">src/Objects/Abstracts</text>
<text text-anchor="middle" x="564.48" y="-309.5" font-family="Helvetica,sans-Serif" font-size="10.00">/APrimitive/APrimitive.cpp</text>
</a>
</g>
</g>
<!-- Node1&#45;&gt;Node2 -->
<g id="edge1_Node000001_Node000002" class="edge">
<title>Node1&#45;&gt;Node2</title>
<g id="a_edge1_Node000001_Node000002"><a xlink:title=" ">
<path fill="none" stroke="#63b8ff" d="M1376.99,-387.6C1229,-385.83 911.3,-377.32 646.48,-338 637.07,-336.6 627.15,-334.66 617.59,-332.53"/>
<polygon fill="#63b8ff" stroke="#63b8ff" points="1377.31,-391.1 1387.35,-387.71 1377.39,-384.1 1377.31,-391.1"/>
</a>
</g>
</g>
<!-- Node3 -->
<g id="Node000003" class="node">
<title>Node3</title>
<g id="a_Node000003"><a xlink:href="Plugin_8hpp.html" target="_top" xlink:title=" ">
<polygon fill="white" stroke="#666666" points="922.98,-327 797.98,-327 797.98,-308 922.98,-308 922.98,-327"/>
<text text-anchor="middle" x="860.48" y="-315" font-family="Helvetica,sans-Serif" font-size="10.00">src/Objects/Plugin.hpp</text>
</a>
</g>
</g>
<!-- Node1&#45;&gt;Node3 -->
<g id="edge2_Node000001_Node000003" class="edge">
<title>Node1&#45;&gt;Node3</title>
<g id="a_edge2_Node000001_Node000003"><a xlink:title=" ">
<path fill="none" stroke="#63b8ff" d="M1377.2,-378.35C1255.6,-364.27 1032.14,-338.38 923.33,-325.78"/>
<polygon fill="#63b8ff" stroke="#63b8ff" points="1376.87,-381.84 1387.21,-379.51 1377.68,-374.89 1376.87,-381.84"/>
</a>
</g>
</g>
<!-- Node18 -->
<g id="Node000018" class="node">
<title>Node18</title>
<g id="a_Node000018"><a xlink:href="Camera_8cpp.html" target="_top" xlink:title=" ">
<polygon fill="white" stroke="#666666" points="940.98,-107 815.98,-107 815.98,-66 940.98,-66 940.98,-107"/>
<text text-anchor="start" x="823.98" y="-95" font-family="Helvetica,sans-Serif" font-size="10.00">src/Objects/Plugins</text>
<text text-anchor="start" x="823.98" y="-84" font-family="Helvetica,sans-Serif" font-size="10.00">/CorePlugin/Renderers</text>
<text text-anchor="middle" x="878.48" y="-73" font-family="Helvetica,sans-Serif" font-size="10.00">/Camera/Camera.cpp</text>
</a>
</g>
</g>
<!-- Node1&#45;&gt;Node18 -->
<g id="edge41_Node000001_Node000018" class="edge">
<title>Node1&#45;&gt;Node18</title>
<g id="a_edge41_Node000001_Node000018"><a xlink:title=" ">
<path fill="none" stroke="#63b8ff" d="M1543.38,-373.78C1654.53,-351.25 1830.27,-301.37 1760.48,-220 1654.18,-96.08 1124.54,-86.41 941.12,-86.85"/>
<polygon fill="#63b8ff" stroke="#63b8ff" points="1542.62,-370.36 1533.5,-375.74 1543.99,-377.22 1542.62,-370.36"/>
</a>
</g>
</g>
<!-- Node21 -->
<g id="Node000021" class="node">
<title>Node21</title>
<g id="a_Node000021"><a xlink:href="DirectionalLight_8cpp.html" target="_top" xlink:title=" ">
<polygon fill="white" stroke="#666666" points="1968.98,-338 1807.98,-338 1807.98,-297 1968.98,-297 1968.98,-338"/>
<text text-anchor="start" x="1815.98" y="-326" font-family="Helvetica,sans-Serif" font-size="10.00">src/Objects/Plugins</text>
<text text-anchor="start" x="1815.98" y="-315" font-family="Helvetica,sans-Serif" font-size="10.00">/CorePlugin/Lights/Directional</text>
<text text-anchor="middle" x="1888.48" y="-304" font-family="Helvetica,sans-Serif" font-size="10.00">Light/DirectionalLight.cpp</text>
</a>
</g>
</g>
<!-- Node1&#45;&gt;Node21 -->
<g id="edge30_Node000001_Node000021" class="edge">
<title>Node1&#45;&gt;Node21</title>
<g id="a_edge30_Node000001_Node000021"><a xlink:title=" ">
<path fill="none" stroke="#63b8ff" d="M1543.89,-376.73C1611.37,-367.32 1708.76,-353.05 1793.48,-338 1798.2,-337.16 1803.05,-336.27 1807.94,-335.34"/>
<polygon fill="#63b8ff" stroke="#63b8ff" points="1543.17,-373.3 1533.75,-378.15 1544.13,-380.24 1543.17,-373.3"/>
</a>
</g>
</g>
<!-- Node22 -->
<g id="Node000022" class="node">
<title>Node22</title>
<g id="a_Node000022"><a xlink:href="PointLight_8cpp.html" target="_top" xlink:title=" ">
<polygon fill="white" stroke="#666666" points="2143.48,-338 1987.48,-338 1987.48,-297 2143.48,-297 2143.48,-338"/>
<text text-anchor="start" x="1995.48" y="-326" font-family="Helvetica,sans-Serif" font-size="10.00">src/Objects/Plugins</text>
<text text-anchor="start" x="1995.48" y="-315" font-family="Helvetica,sans-Serif" font-size="10.00">/CorePlugin/Lights/PointLight</text>
<text text-anchor="middle" x="2065.48" y="-304" font-family="Helvetica,sans-Serif" font-size="10.00">/PointLight.cpp</text>
</a>
</g>
</g>
<!-- Node1&#45;&gt;Node22 -->
<g id="edge31_Node000001_Node000022" class="edge">
<title>Node1&#45;&gt;Node22</title>
<g id="a_edge31_Node000001_Node000022"><a xlink:title=" ">
<path fill="none" stroke="#63b8ff" d="M1543.76,-383.16C1646.44,-376.46 1826.09,-362.34 1978.48,-338 1981.38,-337.54 1984.34,-337.03 1987.31,-336.5"/>
<polygon fill="#63b8ff" stroke="#63b8ff" points="1543.51,-379.67 1533.76,-383.8 1543.97,-386.65 1543.51,-379.67"/>
</a>
</g>
</g>
<!-- Node23 -->
<g id="Node000023" class="node">
<title>Node23</title>
<g id="a_Node000023"><a xlink:href="Cylinder_8hpp.html" target="_top" xlink:title=" ">
<polygon fill="white" stroke="#666666" points="1379.98,-338 1254.98,-338 1254.98,-297 1379.98,-297 1379.98,-338"/>
<text text-anchor="start" x="1262.98" y="-326" font-family="Helvetica,sans-Serif" font-size="10.00">src/Objects/Plugins</text>
<text text-anchor="start" x="1262.98" y="-315" font-family="Helvetica,sans-Serif" font-size="10.00">/CorePlugin/Primitives</text>
<text text-anchor="middle" x="1317.48" y="-304" font-family="Helvetica,sans-Serif" font-size="10.00">/Cylinder/Cylinder.hpp</text>
</a>
</g>
</g>
<!-- Node1&#45;&gt;Node23 -->
<g id="edge32_Node000001_Node000023" class="edge">
<title>Node1&#45;&gt;Node23</title>
<g id="a_edge32_Node000001_Node000023"><a xlink:title=" ">
<path fill="none" stroke="#63b8ff" d="M1422.43,-369.51C1402.48,-359.81 1378.03,-347.93 1357.75,-338.07"/>
<polygon fill="#63b8ff" stroke="#63b8ff" points="1421.02,-372.71 1431.54,-373.94 1424.08,-366.42 1421.02,-372.71"/>
</a>
</g>
</g>
<!-- Node25 -->
<g id="Node000025" class="node">
<title>Node25</title>
<g id="a_Node000025"><a xlink:href="Plane_8hpp.html" target="_top" xlink:title=" ">
<polygon fill="white" stroke="#666666" points="1522.98,-338 1397.98,-338 1397.98,-297 1522.98,-297 1522.98,-338"/>
<text text-anchor="start" x="1405.98" y="-326" font-family="Helvetica,sans-Serif" font-size="10.00">src/Objects/Plugins</text>
<text text-anchor="start" x="1405.98" y="-315" font-family="Helvetica,sans-Serif" font-size="10.00">/CorePlugin/Primitives</text>
<text text-anchor="middle" x="1460.48" y="-304" font-family="Helvetica,sans-Serif" font-size="10.00">/Plane/Plane.hpp</text>
</a>
</g>
</g>
<!-- Node1&#45;&gt;Node25 -->
<g id="edge35_Node000001_Node000025" class="edge">
<title>Node1&#45;&gt;Node25</title>
<g id="a_edge35_Node000001_Node000025"><a xlink:title=" ">
<path fill="none" stroke="#63b8ff" d="M1460.48,-363.91C1460.48,-355.47 1460.48,-346.1 1460.48,-338.07"/>
<polygon fill="#63b8ff" stroke="#63b8ff" points="1456.98,-363.94 1460.48,-373.94 1463.98,-363.94 1456.98,-363.94"/>
</a>
</g>
</g>
<!-- Node27 -->
<g id="Node000027" class="node">
<title>Node27</title>
<g id="a_Node000027"><a xlink:href="Sphere_8hpp.html" target="_top" xlink:title=" ">
<polygon fill="white" stroke="#666666" points="1665.98,-338 1540.98,-338 1540.98,-297 1665.98,-297 1665.98,-338"/>
<text text-anchor="start" x="1548.98" y="-326" font-family="Helvetica,sans-Serif" font-size="10.00">src/Objects/Plugins</text>
<text text-anchor="start" x="1548.98" y="-315" font-family="Helvetica,sans-Serif" font-size="10.00">/CorePlugin/Primitives</text>
<text text-anchor="middle" x="1603.48" y="-304" font-family="Helvetica,sans-Serif" font-size="10.00">/Sphere/Sphere.hpp</text>
</a>
</g>
</g>
<!-- Node1&#45;&gt;Node27 -->
<g id="edge38_Node000001_Node000027" class="edge">
<title>Node1&#45;&gt;Node27</title>
<g id="a_edge38_Node000001_Node000027"><a xlink:title=" ">
<path fill="none" stroke="#63b8ff" d="M1498.53,-369.51C1518.48,-359.81 1542.93,-347.93 1563.21,-338.07"/>
<polygon fill="#63b8ff" stroke="#63b8ff" points="1496.88,-366.42 1489.42,-373.94 1499.94,-372.71 1496.88,-366.42"/>
</a>
</g>
</g>
<!-- Node29 -->
<g id="Node000029" class="node">
<title>Node29</title>
<g id="a_Node000029"><a xlink:href="BVH_8hpp.html" target="_top" xlink:title=" ">
<polygon fill="white" stroke="#666666" points="779.48,-332.5 655.48,-332.5 655.48,-302.5 779.48,-302.5 779.48,-332.5"/>
<text text-anchor="start" x="663.48" y="-320.5" font-family="Helvetica,sans-Serif" font-size="10.00">src/SceneSystem/BVH</text>
<text text-anchor="middle" x="717.48" y="-309.5" font-family="Helvetica,sans-Serif" font-size="10.00">/BVH.hpp</text>
</a>
</g>
</g>
<!-- Node1&#45;&gt;Node29 -->
<g id="edge42_Node000001_Node000029" class="edge">
<title>Node1&#45;&gt;Node29</title>
<g id="a_edge42_Node000001_Node000029"><a xlink:title=" ">
<path fill="none" stroke="#63b8ff" d="M1377.23,-386.98C1249.62,-384.24 998.37,-374.28 788.48,-338 780.29,-336.58 771.69,-334.63 763.4,-332.5"/>
<polygon fill="#63b8ff" stroke="#63b8ff" points="1377.25,-390.48 1387.32,-387.18 1377.4,-383.48 1377.25,-390.48"/>
</a>
</g>
</g>
<!-- Node4 -->
<g id="Node000004" class="node">
<title>Node4</title>
<g id="a_Node000004"><a xlink:href="CorePlugin_8cpp.html" target="_top" xlink:title=" ">
<polygon fill="white" stroke="#666666" points="1251.48,-178.5 1103.48,-178.5 1103.48,-148.5 1251.48,-148.5 1251.48,-178.5"/>
<text text-anchor="start" x="1111.48" y="-166.5" font-family="Helvetica,sans-Serif" font-size="10.00">src/Objects/Plugins</text>
<text text-anchor="middle" x="1177.48" y="-155.5" font-family="Helvetica,sans-Serif" font-size="10.00">/CorePlugin/CorePlugin.cpp</text>
</a>
</g>
</g>
<!-- Node3&#45;&gt;Node4 -->
<g id="edge3_Node000003_Node000004" class="edge">
<title>Node3&#45;&gt;Node4</title>
<g id="a_edge3_Node000003_Node000004"><a xlink:title=" ">
<path fill="none" stroke="#63b8ff" d="M895.44,-304.37C921,-294.66 955.86,-279.6 983.48,-261 1005.38,-246.25 1004.06,-233.96 1026.48,-220 1056.35,-201.4 1093.4,-187.66 1123.32,-178.51"/>
<polygon fill="#63b8ff" stroke="#63b8ff" points="893.96,-301.19 885.8,-307.95 896.39,-307.75 893.96,-301.19"/>
</a>
</g>
</g>
<!-- Node5 -->
<g id="Node000005" class="node">
<title>Node5</title>
<g id="a_Node000005"><a xlink:href="SceneWriter_8hpp.html" target="_top" xlink:title=" ">
<polygon fill="white" stroke="#666666" points="940.98,-261 779.98,-261 779.98,-220 940.98,-220 940.98,-261"/>
<text text-anchor="start" x="787.98" y="-249" font-family="Helvetica,sans-Serif" font-size="10.00">src/Objects/Plugins</text>
<text text-anchor="start" x="787.98" y="-238" font-family="Helvetica,sans-Serif" font-size="10.00">/CorePlugin/Interfaces</text>
<text text-anchor="middle" x="860.48" y="-227" font-family="Helvetica,sans-Serif" font-size="10.00">/SceneWriter/SceneWriter.hpp</text>
</a>
</g>
</g>
<!-- Node3&#45;&gt;Node5 -->
<g id="edge4_Node000003_Node000005" class="edge">
<title>Node3&#45;&gt;Node5</title>
<g id="a_edge4_Node000003_Node000005"><a xlink:title=" ">
<path fill="none" stroke="#63b8ff" d="M860.48,-297.61C860.48,-286.5 860.48,-272.46 860.48,-261.21"/>
<polygon fill="#63b8ff" stroke="#63b8ff" points="856.98,-297.9 860.48,-307.9 863.98,-297.9 856.98,-297.9"/>
</a>
</g>
</g>
<!-- Node7 -->
<g id="Node000007" class="node">
<title>Node7</title>
<g id="a_Node000007"><a xlink:href="Livescene_8hpp.html" target="_top" xlink:title=" ">
<polygon fill="white" stroke="#666666" points="761.48,-261 611.48,-261 611.48,-220 761.48,-220 761.48,-261"/>
<text text-anchor="start" x="619.48" y="-249" font-family="Helvetica,sans-Serif" font-size="10.00">src/Objects/Plugins</text>
<text text-anchor="start" x="619.48" y="-238" font-family="Helvetica,sans-Serif" font-size="10.00">/LivescenePlugin/Interfaces</text>
<text text-anchor="middle" x="686.48" y="-227" font-family="Helvetica,sans-Serif" font-size="10.00">/Livescene/Livescene.hpp</text>
</a>
</g>
</g>
<!-- Node3&#45;&gt;Node7 -->
<g id="edge7_Node000003_Node000007" class="edge">
<title>Node3&#45;&gt;Node7</title>
<g id="a_edge7_Node000003_Node000007"><a xlink:title=" ">
<path fill="none" stroke="#63b8ff" d="M831.18,-303.87C804.02,-292.16 763.21,-274.57 731.85,-261.05"/>
<polygon fill="#63b8ff" stroke="#63b8ff" points="829.95,-307.15 840.52,-307.9 832.72,-300.72 829.95,-307.15"/>
</a>
</g>
</g>
<!-- Node9 -->
<g id="Node000009" class="node">
<title>Node9</title>
<g id="a_Node000009"><a xlink:href="LivescenePlugin_8cpp.html" target="_top" xlink:title=" ">
<polygon fill="white" stroke="#666666" points="730.48,-184 580.48,-184 580.48,-143 730.48,-143 730.48,-184"/>
<text text-anchor="start" x="588.48" y="-172" font-family="Helvetica,sans-Serif" font-size="10.00">src/Objects/Plugins</text>
<text text-anchor="start" x="588.48" y="-161" font-family="Helvetica,sans-Serif" font-size="10.00">/LivescenePlugin/Livescene</text>
<text text-anchor="middle" x="655.48" y="-150" font-family="Helvetica,sans-Serif" font-size="10.00">Plugin.cpp</text>
</a>
</g>
</g>
<!-- Node3&#45;&gt;Node9 -->
<g id="edge10_Node000003_Node000009" class="edge">
<title>Node3&#45;&gt;Node9</title>
<g id="a_edge10_Node000003_Node000009"><a xlink:title=" ">
<path fill="none" stroke="#63b8ff" d="M821.04,-305.26C810.5,-302.41 799.09,-299.46 788.48,-297 706.46,-277.98 656.06,-325.95 602.48,-261 582.77,-237.11 609.23,-204.82 631.32,-184.32"/>
<polygon fill="#63b8ff" stroke="#63b8ff" points="820.26,-308.67 830.83,-307.94 822.11,-301.92 820.26,-308.67"/>
</a>
</g>
</g>
<!-- Node10 -->
<g id="Node000010" class="node">
<title>Node10</title>
<g id="a_Node000010"><a xlink:href="Parser_8hpp.html" target="_top" xlink:title=" ">
<polygon fill="white" stroke="#666666" points="180.48,-255.5 16.48,-255.5 16.48,-225.5 180.48,-225.5 180.48,-255.5"/>
<text text-anchor="start" x="24.48" y="-243.5" font-family="Helvetica,sans-Serif" font-size="10.00">src/SceneSystem/ConfigParser</text>
<text text-anchor="middle" x="98.48" y="-232.5" font-family="Helvetica,sans-Serif" font-size="10.00">/Parser.hpp</text>
</a>
</g>
</g>
<!-- Node3&#45;&gt;Node10 -->
<g id="edge11_Node000003_Node000010" class="edge">
<title>Node3&#45;&gt;Node10</title>
<g id="a_edge11_Node000003_Node000010"><a xlink:title=" ">
<path fill="none" stroke="#63b8ff" d="M823.82,-305.12C812.58,-302.02 800.11,-298.98 788.48,-297 571.46,-260.06 513.81,-279.9 294.48,-261 257.17,-257.79 215.92,-253.75 180.93,-250.19"/>
<polygon fill="#63b8ff" stroke="#63b8ff" points="823.17,-308.57 833.74,-307.95 825.09,-301.84 823.17,-308.57"/>
</a>
</g>
</g>
<!-- Node14 -->
<g id="Node000014" class="node">
<title>Node14</title>
<g id="a_Node000014"><a xlink:href="main_8cpp.html" target="_top" xlink:title=" ">
<polygon fill="white" stroke="#666666" points="344.98,-24.5 265.98,-24.5 265.98,-5.5 344.98,-5.5 344.98,-24.5"/>
<text text-anchor="middle" x="305.48" y="-12.5" font-family="Helvetica,sans-Serif" font-size="10.00">src/main.cpp</text>
</a>
</g>
</g>
<!-- Node3&#45;&gt;Node14 -->
<g id="edge29_Node000003_Node000014" class="edge">
<title>Node3&#45;&gt;Node14</title>
<g id="a_edge29_Node000003_Node000014"><a xlink:title=" ">
<path fill="none" stroke="#63b8ff" d="M896.48,-304.05C915.9,-295.27 938.17,-281.39 949.48,-261 991.53,-185.22 1008.34,-129.61 949.48,-66 908.4,-21.6 479.15,-16.53 345.19,-16.03"/>
<polygon fill="#63b8ff" stroke="#63b8ff" points="895.08,-300.84 887.23,-307.95 897.8,-307.28 895.08,-300.84"/>
</a>
</g>
</g>
<!-- Node15 -->
<g id="Node000015" class="node">
<title>Node15</title>
<g id="a_Node000015"><a xlink:href="PluginManager_8hpp.html" target="_top" xlink:title="Plugin manager for loading and managing plugins.">
<polygon fill="white" stroke="#666666" points="479.48,-255.5 303.48,-255.5 303.48,-225.5 479.48,-225.5 479.48,-255.5"/>
<text text-anchor="start" x="311.48" y="-243.5" font-family="Helvetica,sans-Serif" font-size="10.00">src/SceneSystem/PluginManager</text>
<text text-anchor="middle" x="391.48" y="-232.5" font-family="Helvetica,sans-Serif" font-size="10.00">/PluginManager.hpp</text>
</a>
</g>
</g>
<!-- Node3&#45;&gt;Node15 -->
<g id="edge16_Node000003_Node000015" class="edge">
<title>Node3&#45;&gt;Node15</title>
<g id="a_edge16_Node000003_Node000015"><a xlink:title=" ">
<path fill="none" stroke="#63b8ff" d="M822.6,-305.28C811.66,-302.3 799.65,-299.28 788.48,-297 786.59,-296.61 595.93,-270.01 479.55,-253.78"/>
<polygon fill="#63b8ff" stroke="#63b8ff" points="821.72,-308.67 832.29,-307.98 823.6,-301.93 821.72,-308.67"/>
</a>
</g>
</g>
<!-- Node17 -->
<g id="Node000017" class="node">
<title>Node17</title>
<g id="a_Node000017"><a xlink:href="Scene_8hpp.html" target="_top" xlink:title=" ">
<polygon fill="white" stroke="#666666" points="562.48,-178.5 430.48,-178.5 430.48,-148.5 562.48,-148.5 562.48,-178.5"/>
<text text-anchor="start" x="438.48" y="-166.5" font-family="Helvetica,sans-Serif" font-size="10.00">src/SceneSystem/Scene</text>
<text text-anchor="middle" x="496.48" y="-155.5" font-family="Helvetica,sans-Serif" font-size="10.00">/Scene.hpp</text>
</a>
</g>
</g>
<!-- Node3&#45;&gt;Node17 -->
<g id="edge26_Node000003_Node000017" class="edge">
<title>Node3&#45;&gt;Node17</title>
<g id="a_edge26_Node000003_Node000017"><a xlink:title=" ">
<path fill="none" stroke="#63b8ff" d="M821.34,-305.27C810.73,-302.39 799.2,-299.43 788.48,-297 702.11,-277.41 670.84,-302.28 592.48,-261 554.22,-240.85 521.6,-200.19 506.11,-178.65"/>
<polygon fill="#63b8ff" stroke="#63b8ff" points="820.62,-308.7 831.19,-307.98 822.48,-301.95 820.62,-308.7"/>
</a>
</g>
</g>
<!-- Node20 -->
<g id="Node000020" class="node">
<title>Node20</title>
<g id="a_Node000020"><a xlink:href="SceneNodeHelpers_8hpp.html" target="_top" xlink:title=" ">
<polygon fill="white" stroke="#666666" points="1205.48,-255.5 1035.48,-255.5 1035.48,-225.5 1205.48,-225.5 1205.48,-255.5"/>
<text text-anchor="start" x="1043.48" y="-243.5" font-family="Helvetica,sans-Serif" font-size="10.00">src/SceneSystem/SceneNode</text>
<text text-anchor="middle" x="1120.48" y="-232.5" font-family="Helvetica,sans-Serif" font-size="10.00">Helpers/SceneNodeHelpers.hpp</text>
</a>
</g>
</g>
<!-- Node3&#45;&gt;Node20 -->
<g id="edge27_Node000003_Node000020" class="edge">
<title>Node3&#45;&gt;Node20</title>
<g id="a_edge27_Node000003_Node000020"><a xlink:title=" ">
<path fill="none" stroke="#63b8ff" d="M899.68,-305.19C945.73,-291.91 1022.17,-269.86 1071.93,-255.5"/>
<polygon fill="#63b8ff" stroke="#63b8ff" points="898.69,-301.84 890.05,-307.97 900.63,-308.56 898.69,-301.84"/>
</a>
</g>
</g>
<!-- Node5&#45;&gt;Node4 -->
<g id="edge5_Node000005_Node000004" class="edge">
<title>Node5&#45;&gt;Node4</title>
<g id="a_edge5_Node000005_Node000004"><a xlink:title=" ">
<path fill="none" stroke="#63b8ff" d="M951.13,-218.05C1004.64,-205.39 1070.88,-189.72 1117.84,-178.61"/>
<polygon fill="#63b8ff" stroke="#63b8ff" points="950.22,-214.67 941.29,-220.38 951.83,-221.48 950.22,-214.67"/>
</a>
</g>
</g>
<!-- Node6 -->
<g id="Node000006" class="node">
<title>Node6</title>
<g id="a_Node000006"><a xlink:href="SceneWriter_8cpp.html" target="_top" xlink:title=" ">
<polygon fill="white" stroke="#666666" points="797.98,-107 636.98,-107 636.98,-66 797.98,-66 797.98,-107"/>
<text text-anchor="start" x="644.98" y="-95" font-family="Helvetica,sans-Serif" font-size="10.00">src/Objects/Plugins</text>
<text text-anchor="start" x="644.98" y="-84" font-family="Helvetica,sans-Serif" font-size="10.00">/CorePlugin/Interfaces</text>
<text text-anchor="middle" x="717.48" y="-73" font-family="Helvetica,sans-Serif" font-size="10.00">/SceneWriter/SceneWriter.cpp</text>
</a>
</g>
</g>
<!-- Node5&#45;&gt;Node6 -->
<g id="edge6_Node000005_Node000006" class="edge">
<title>Node5&#45;&gt;Node6</title>
<g id="a_edge6_Node000005_Node000006"><a xlink:title=" ">
<path fill="none" stroke="#63b8ff" d="M836.03,-212.08C818.53,-192.61 794.31,-165.96 772.48,-143 760.98,-130.91 747.84,-117.62 737.28,-107.08"/>
<polygon fill="#63b8ff" stroke="#63b8ff" points="833.57,-214.58 842.85,-219.69 838.78,-209.91 833.57,-214.58"/>
</a>
</g>
</g>
<!-- Node8 -->
<g id="Node000008" class="node">
<title>Node8</title>
<g id="a_Node000008"><a xlink:href="Livescene_8cpp.html" target="_top" xlink:title=" ">
<polygon fill="white" stroke="#666666" points="618.48,-107 468.48,-107 468.48,-66 618.48,-66 618.48,-107"/>
<text text-anchor="start" x="476.48" y="-95" font-family="Helvetica,sans-Serif" font-size="10.00">src/Objects/Plugins</text>
<text text-anchor="start" x="476.48" y="-84" font-family="Helvetica,sans-Serif" font-size="10.00">/LivescenePlugin/Interfaces</text>
<text text-anchor="middle" x="543.48" y="-73" font-family="Helvetica,sans-Serif" font-size="10.00">/Livescene/Livescene.cpp</text>
</a>
</g>
</g>
<!-- Node7&#45;&gt;Node8 -->
<g id="edge8_Node000007_Node000008" class="edge">
<title>Node7&#45;&gt;Node8</title>
<g id="a_edge8_Node000007_Node000008"><a xlink:title=" ">
<path fill="none" stroke="#63b8ff" d="M717.82,-212.6C737.4,-192.51 756.01,-164.86 739.48,-143 735.58,-137.84 672.17,-120.46 618.51,-106.51"/>
<polygon fill="#63b8ff" stroke="#63b8ff" points="715.33,-210.14 710.63,-219.64 720.22,-215.15 715.33,-210.14"/>
</a>
</g>
</g>
<!-- Node7&#45;&gt;Node9 -->
<g id="edge9_Node000007_Node000009" class="edge">
<title>Node7&#45;&gt;Node9</title>
<g id="a_edge9_Node000007_Node000009"><a xlink:title=" ">
<path fill="none" stroke="#63b8ff" d="M674.51,-210.55C670.85,-201.69 666.91,-192.15 663.57,-184.07"/>
<polygon fill="#63b8ff" stroke="#63b8ff" points="671.28,-211.89 678.34,-219.79 677.75,-209.22 671.28,-211.89"/>
</a>
</g>
</g>
<!-- Node11 -->
<g id="Node000011" class="node">
<title>Node11</title>
<g id="a_Node000011"><a xlink:href="Parser_8cpp.html" target="_top" xlink:title=" ">
<polygon fill="white" stroke="#666666" points="180.48,-178.5 16.48,-178.5 16.48,-148.5 180.48,-148.5 180.48,-178.5"/>
<text text-anchor="start" x="24.48" y="-166.5" font-family="Helvetica,sans-Serif" font-size="10.00">src/SceneSystem/ConfigParser</text>
<text text-anchor="middle" x="98.48" y="-155.5" font-family="Helvetica,sans-Serif" font-size="10.00">/Parser.cpp</text>
</a>
</g>
</g>
<!-- Node10&#45;&gt;Node11 -->
<g id="edge12_Node000010_Node000011" class="edge">
<title>Node10&#45;&gt;Node11</title>
<g id="a_edge12_Node000010_Node000011"><a xlink:title=" ">
<path fill="none" stroke="#63b8ff" d="M98.48,-215.04C98.48,-202.95 98.48,-188.79 98.48,-178.54"/>
<polygon fill="#63b8ff" stroke="#63b8ff" points="94.98,-215.39 98.48,-225.39 101.98,-215.39 94.98,-215.39"/>
</a>
</g>
</g>
<!-- Node12 -->
<g id="Node000012" class="node">
<title>Node12</title>
<g id="a_Node000012"><a xlink:href="SceneLoader_8hpp.html" target="_top" xlink:title=" ">
<polygon fill="white" stroke="#666666" points="261.98,-101.5 96.98,-101.5 96.98,-71.5 261.98,-71.5 261.98,-101.5"/>
<text text-anchor="start" x="104.98" y="-89.5" font-family="Helvetica,sans-Serif" font-size="10.00">src/SceneSystem/SceneLoader</text>
<text text-anchor="middle" x="179.48" y="-78.5" font-family="Helvetica,sans-Serif" font-size="10.00">/SceneLoader.hpp</text>
</a>
</g>
</g>
<!-- Node10&#45;&gt;Node12 -->
<g id="edge13_Node000010_Node000012" class="edge">
<title>Node10&#45;&gt;Node12</title>
<g id="a_edge13_Node000010_Node000012"><a xlink:title=" ">
<path fill="none" stroke="#63b8ff" d="M48.13,-220.63C32.24,-212.01 16.49,-200.05 7.48,-184 -1.44,-168.11 -3.25,-157.73 7.48,-143 28.07,-114.72 63.36,-100.54 96.63,-93.55"/>
<polygon fill="#63b8ff" stroke="#63b8ff" points="46.95,-223.95 57.45,-225.33 50.1,-217.7 46.95,-223.95"/>
</a>
</g>
</g>
<!-- Node13 -->
<g id="Node000013" class="node">
<title>Node13</title>
<g id="a_Node000013"><a xlink:href="SceneLoader_8cpp.html" target="_top" xlink:title=" ">
<polygon fill="white" stroke="#666666" points="247.98,-30 82.98,-30 82.98,0 247.98,0 247.98,-30"/>
<text text-anchor="start" x="90.98" y="-18" font-family="Helvetica,sans-Serif" font-size="10.00">src/SceneSystem/SceneLoader</text>
<text text-anchor="middle" x="165.48" y="-7" font-family="Helvetica,sans-Serif" font-size="10.00">/SceneLoader.cpp</text>
</a>
</g>
</g>
<!-- Node12&#45;&gt;Node13 -->
<g id="edge14_Node000012_Node000013" class="edge">
<title>Node12&#45;&gt;Node13</title>
<g id="a_edge14_Node000012_Node000013"><a xlink:title=" ">
<path fill="none" stroke="#63b8ff" d="M174.66,-61.58C172.54,-51.06 170.13,-39.08 168.31,-30.04"/>
<polygon fill="#63b8ff" stroke="#63b8ff" points="171.24,-62.32 176.65,-71.44 178.1,-60.94 171.24,-62.32"/>
</a>
</g>
</g>
<!-- Node12&#45;&gt;Node14 -->
<g id="edge15_Node000012_Node000014" class="edge">
<title>Node12&#45;&gt;Node14</title>
<g id="a_edge15_Node000012_Node000014"><a xlink:title=" ">
<path fill="none" stroke="#63b8ff" d="M213.75,-66.6C238.61,-52.89 271.05,-34.99 289.95,-24.57"/>
<polygon fill="#63b8ff" stroke="#63b8ff" points="212.04,-63.54 204.98,-71.44 215.42,-69.67 212.04,-63.54"/>
</a>
</g>
</g>
<!-- Node15&#45;&gt;Node12 -->
<g id="edge25_Node000015_Node000012" class="edge">
<title>Node15&#45;&gt;Node12</title>
<g id="a_edge25_Node000015_Node000012"><a xlink:title=" ">
<path fill="none" stroke="#63b8ff" d="M396.57,-215.22C399.57,-193.77 400.04,-162.9 383.48,-143 374.4,-132.08 301.75,-114.09 245.71,-101.56"/>
<polygon fill="#63b8ff" stroke="#63b8ff" points="393.1,-214.74 394.9,-225.19 400,-215.9 393.1,-214.74"/>
</a>
</g>
</g>
<!-- Node16 -->
<g id="Node000016" class="node">
<title>Node16</title>
<g id="a_Node000016"><a xlink:href="PluginManager_8cpp.html" target="_top" xlink:title=" ">
<polygon fill="white" stroke="#666666" points="374.48,-178.5 198.48,-178.5 198.48,-148.5 374.48,-148.5 374.48,-178.5"/>
<text text-anchor="start" x="206.48" y="-166.5" font-family="Helvetica,sans-Serif" font-size="10.00">src/SceneSystem/PluginManager</text>
<text text-anchor="middle" x="286.48" y="-155.5" font-family="Helvetica,sans-Serif" font-size="10.00">/PluginManager.cpp</text>
</a>
</g>
</g>
<!-- Node15&#45;&gt;Node16 -->
<g id="edge17_Node000015_Node000016" class="edge">
<title>Node15&#45;&gt;Node16</title>
<g id="a_edge17_Node000015_Node000016"><a xlink:title=" ">
<path fill="none" stroke="#63b8ff" d="M363.31,-219.38C345.25,-206.48 322.25,-190.05 306.14,-178.54"/>
<polygon fill="#63b8ff" stroke="#63b8ff" points="361.56,-222.43 371.73,-225.39 365.63,-216.73 361.56,-222.43"/>
</a>
</g>
</g>
<!-- Node15&#45;&gt;Node17 -->
<g id="edge18_Node000015_Node000017" class="edge">
<title>Node15&#45;&gt;Node17</title>
<g id="a_edge18_Node000015_Node000017"><a xlink:title=" ">
<path fill="none" stroke="#63b8ff" d="M419.65,-219.38C437.71,-206.48 460.71,-190.05 476.82,-178.54"/>
<polygon fill="#63b8ff" stroke="#63b8ff" points="417.33,-216.73 411.23,-225.39 421.4,-222.43 417.33,-216.73"/>
</a>
</g>
</g>
<!-- Node17&#45;&gt;Node6 -->
<g id="edge19_Node000017_Node000006" class="edge">
<title>Node17&#45;&gt;Node6</title>
<g id="a_edge19_Node000017_Node000006"><a xlink:title=" ">
<path fill="none" stroke="#63b8ff" d="M547.39,-145.22C580.91,-133.85 624.87,-118.93 659.7,-107.11"/>
<polygon fill="#63b8ff" stroke="#63b8ff" points="546.13,-141.95 537.79,-148.48 548.38,-148.58 546.13,-141.95"/>
</a>
</g>
</g>
<!-- Node17&#45;&gt;Node8 -->
<g id="edge21_Node000017_Node000008" class="edge">
<title>Node17&#45;&gt;Node8</title>
<g id="a_edge21_Node000017_Node000008"><a xlink:title=" ">
<path fill="none" stroke="#63b8ff" d="M510.69,-139.82C517.21,-129.42 524.86,-117.21 531.13,-107.2"/>
<polygon fill="#63b8ff" stroke="#63b8ff" points="507.66,-138.06 505.32,-148.39 513.6,-141.78 507.66,-138.06"/>
</a>
</g>
</g>
<!-- Node17&#45;&gt;Node12 -->
<g id="edge23_Node000017_Node000012" class="edge">
<title>Node17&#45;&gt;Node12</title>
<g id="a_edge23_Node000017_Node000012"><a xlink:title=" ">
<path fill="none" stroke="#63b8ff" d="M429.19,-146.05C424.89,-145.01 420.63,-143.99 416.48,-143 356.68,-128.71 288.29,-112.74 240.4,-101.61"/>
<polygon fill="#63b8ff" stroke="#63b8ff" points="428.71,-149.54 439.25,-148.48 430.35,-142.73 428.71,-149.54"/>
</a>
</g>
</g>
<!-- Node17&#45;&gt;Node14 -->
<g id="edge24_Node000017_Node000014" class="edge">
<title>Node17&#45;&gt;Node14</title>
<g id="a_edge24_Node000017_Node000014"><a xlink:title=" ">
<path fill="none" stroke="#63b8ff" d="M433.87,-145.78C381.1,-131.39 313.52,-112.17 309.48,-107 290.4,-82.57 298.19,-42.21 302.89,-24.63"/>
<polygon fill="#63b8ff" stroke="#63b8ff" points="432.96,-149.16 443.53,-148.4 434.8,-142.4 432.96,-149.16"/>
</a>
</g>
</g>
<!-- Node17&#45;&gt;Node18 -->
<g id="edge20_Node000017_Node000018" class="edge">
<title>Node17&#45;&gt;Node18</title>
<g id="a_edge20_Node000017_Node000018"><a xlink:title=" ">
<path fill="none" stroke="#63b8ff" d="M557.33,-146.12C562.11,-145.01 566.86,-143.95 571.48,-143 674.97,-121.68 703.1,-128.85 806.48,-107 809.52,-106.36 812.62,-105.66 815.75,-104.93"/>
<polygon fill="#63b8ff" stroke="#63b8ff" points="556.46,-142.73 547.55,-148.48 558.1,-149.54 556.46,-142.73"/>
</a>
</g>
</g>
<!-- Node19 -->
<g id="Node000019" class="node">
<title>Node19</title>
<g id="a_Node000019"><a xlink:href="Scene_8cpp.html" target="_top" xlink:title=" ">
<polygon fill="white" stroke="#666666" points="450.48,-101.5 318.48,-101.5 318.48,-71.5 450.48,-71.5 450.48,-101.5"/>
<text text-anchor="start" x="326.48" y="-89.5" font-family="Helvetica,sans-Serif" font-size="10.00">src/SceneSystem/Scene</text>
<text text-anchor="middle" x="384.48" y="-78.5" font-family="Helvetica,sans-Serif" font-size="10.00">/Scene.cpp</text>
</a>
</g>
</g>
<!-- Node17&#45;&gt;Node19 -->
<g id="edge22_Node000017_Node000019" class="edge">
<title>Node17&#45;&gt;Node19</title>
<g id="a_edge22_Node000017_Node000019"><a xlink:title=" ">
<path fill="none" stroke="#63b8ff" d="M466.96,-142.73C447.61,-129.78 422.79,-113.15 405.45,-101.54"/>
<polygon fill="#63b8ff" stroke="#63b8ff" points="465.16,-145.74 475.41,-148.39 469.05,-139.92 465.16,-145.74"/>
</a>
</g>
</g>
<!-- Node20&#45;&gt;Node4 -->
<g id="edge28_Node000020_Node000004" class="edge">
<title>Node20&#45;&gt;Node4</title>
<g id="a_edge28_Node000020_Node000004"><a xlink:title=" ">
<path fill="none" stroke="#63b8ff" d="M1137.4,-217.24C1146.93,-204.7 1158.54,-189.42 1166.81,-178.54"/>
<polygon fill="#63b8ff" stroke="#63b8ff" points="1134.47,-215.31 1131.2,-225.39 1140.04,-219.55 1134.47,-215.31"/>
</a>
</g>
</g>
<!-- Node23&#45;&gt;Node4 -->
<g id="edge33_Node000023_Node000004" class="edge">
<title>Node23&#45;&gt;Node4</title>
<g id="a_edge33_Node000023_Node000004"><a xlink:title=" ">
<path fill="none" stroke="#63b8ff" d="M1284.19,-290.3C1273.64,-281.43 1262.2,-271.18 1252.48,-261 1226.54,-233.84 1200.62,-198.11 1187.09,-178.64"/>
<polygon fill="#63b8ff" stroke="#63b8ff" points="1282.1,-293.12 1292.04,-296.8 1286.56,-287.73 1282.1,-293.12"/>
</a>
</g>
</g>
<!-- Node24 -->
<g id="Node000024" class="node">
<title>Node24</title>
<g id="a_Node000024"><a xlink:href="Cylinder_8cpp.html" target="_top" xlink:title=" ">
<polygon fill="white" stroke="#666666" points="1386.98,-261 1261.98,-261 1261.98,-220 1386.98,-220 1386.98,-261"/>
<text text-anchor="start" x="1269.98" y="-249" font-family="Helvetica,sans-Serif" font-size="10.00">src/Objects/Plugins</text>
<text text-anchor="start" x="1269.98" y="-238" font-family="Helvetica,sans-Serif" font-size="10.00">/CorePlugin/Primitives</text>
<text text-anchor="middle" x="1324.48" y="-227" font-family="Helvetica,sans-Serif" font-size="10.00">/Cylinder/Cylinder.cpp</text>
</a>
</g>
</g>
<!-- Node23&#45;&gt;Node24 -->
<g id="edge34_Node000023_Node000024" class="edge">
<title>Node23&#45;&gt;Node24</title>
<g id="a_edge34_Node000023_Node000024"><a xlink:title=" ">
<path fill="none" stroke="#63b8ff" d="M1320.26,-286.69C1321.07,-278.08 1321.92,-268.9 1322.65,-261.07"/>
<polygon fill="#63b8ff" stroke="#63b8ff" points="1316.76,-286.51 1319.32,-296.79 1323.73,-287.16 1316.76,-286.51"/>
</a>
</g>
</g>
<!-- Node25&#45;&gt;Node4 -->
<g id="edge36_Node000025_Node000004" class="edge">
<title>Node25&#45;&gt;Node4</title>
<g id="a_edge36_Node000025_Node000004"><a xlink:title=" ">
<path fill="none" stroke="#63b8ff" d="M1448.03,-287.53C1437.21,-265.77 1419.5,-236.92 1395.48,-220 1353.33,-190.31 1296.69,-176.49 1251.71,-170.05"/>
<polygon fill="#63b8ff" stroke="#63b8ff" points="1444.92,-289.14 1452.37,-296.66 1451.24,-286.13 1444.92,-289.14"/>
</a>
</g>
</g>
<!-- Node26 -->
<g id="Node000026" class="node">
<title>Node26</title>
<g id="a_Node000026"><a xlink:href="Plane_8cpp.html" target="_top" xlink:title=" ">
<polygon fill="white" stroke="#666666" points="1568.98,-261 1443.98,-261 1443.98,-220 1568.98,-220 1568.98,-261"/>
<text text-anchor="start" x="1451.98" y="-249" font-family="Helvetica,sans-Serif" font-size="10.00">src/Objects/Plugins</text>
<text text-anchor="start" x="1451.98" y="-238" font-family="Helvetica,sans-Serif" font-size="10.00">/CorePlugin/Primitives</text>
<text text-anchor="middle" x="1506.48" y="-227" font-family="Helvetica,sans-Serif" font-size="10.00">/Plane/Plane.cpp</text>
</a>
</g>
</g>
<!-- Node25&#45;&gt;Node26 -->
<g id="edge37_Node000025_Node000026" class="edge">
<title>Node25&#45;&gt;Node26</title>
<g id="a_edge37_Node000025_Node000026"><a xlink:title=" ">
<path fill="none" stroke="#63b8ff" d="M1477.89,-288.11C1483.42,-279.09 1489.41,-269.33 1494.47,-261.07"/>
<polygon fill="#63b8ff" stroke="#63b8ff" points="1474.81,-286.44 1472.57,-296.79 1480.78,-290.1 1474.81,-286.44"/>
</a>
</g>
</g>
<!-- Node27&#45;&gt;Node4 -->
<g id="edge39_Node000027_Node000004" class="edge">
<title>Node27&#45;&gt;Node4</title>
<g id="a_edge39_Node000027_Node000004"><a xlink:title=" ">
<path fill="none" stroke="#63b8ff" d="M1603.68,-286.91C1602.13,-265.14 1596.27,-236.57 1577.48,-220 1530.42,-178.5 1353.61,-167.9 1251.5,-165.28"/>
<polygon fill="#63b8ff" stroke="#63b8ff" points="1600.18,-287.13 1604.13,-296.97 1607.18,-286.82 1600.18,-287.13"/>
</a>
</g>
</g>
<!-- Node28 -->
<g id="Node000028" class="node">
<title>Node28</title>
<g id="a_Node000028"><a xlink:href="Sphere_8cpp.html" target="_top" xlink:title=" ">
<polygon fill="white" stroke="#666666" points="1750.98,-261 1625.98,-261 1625.98,-220 1750.98,-220 1750.98,-261"/>
<text text-anchor="start" x="1633.98" y="-249" font-family="Helvetica,sans-Serif" font-size="10.00">src/Objects/Plugins</text>
<text text-anchor="start" x="1633.98" y="-238" font-family="Helvetica,sans-Serif" font-size="10.00">/CorePlugin/Primitives</text>
<text text-anchor="middle" x="1688.48" y="-227" font-family="Helvetica,sans-Serif" font-size="10.00">/Sphere/Sphere.cpp</text>
</a>
</g>
</g>
<!-- Node27&#45;&gt;Node28 -->
<g id="edge40_Node000027_Node000028" class="edge">
<title>Node27&#45;&gt;Node28</title>
<g id="a_edge40_Node000027_Node000028"><a xlink:title=" ">
<path fill="none" stroke="#63b8ff" d="M1633.43,-290.07C1644.25,-280.52 1656.26,-269.93 1666.3,-261.07"/>
<polygon fill="#63b8ff" stroke="#63b8ff" points="1631,-287.55 1625.81,-296.79 1635.63,-292.8 1631,-287.55"/>
</a>
</g>
</g>
<!-- Node29&#45;&gt;Node17 -->
<g id="edge43_Node000029_Node000017" class="edge">
<title>Node29&#45;&gt;Node17</title>
<g id="a_edge43_Node000029_Node000017"><a xlink:title=" ">
<path fill="none" stroke="#63b8ff" d="M656.17,-299.63C603.83,-285 536.24,-265.49 531.48,-261 508.02,-238.86 500.24,-199.79 497.69,-178.79"/>
<polygon fill="#63b8ff" stroke="#63b8ff" points="655.51,-303.08 666.08,-302.39 657.39,-296.33 655.51,-303.08"/>
</a>
</g>
</g>
</g>
</svg>

<g id="navigator" transform="translate(0 0)" fill="#404254">
  <rect fill="#f2f5e9" fill-opacity="0.5" stroke="#606060" stroke-width=".5" x="0" y="0" width="60" height="60"/>
  <use id="zoomplus" xlink:href="#zoomPlus" x="17" y="9" onmousedown="handleZoom(evt,'in')"/>
  <use id="zoomminus" xlink:href="#zoomMin" x="42" y="9" onmousedown="handleZoom(evt,'out')"/>
  <use id="reset" xlink:href="#resetDef" x="30" y="36" onmousedown="handleReset()"/>
   <use id="arrowup" xlink:href="#arrowUp" x="0" y="0" onmousedown="handlePan(0,-1)"/>
  <use id="arrowright" xlink:href="#arrowRight" x="0" y="0" onmousedown="handlePan(1,0)"/>
  <use id="arrowdown" xlink:href="#arrowDown" x="0" y="0" onmousedown="handlePan(0,1)"/>
  <use id="arrowleft" xlink:href="#arrowLeft" x="0" y="0" onmousedown="handlePan(-1,0)"/>
</g>
<svg viewBox="0 0 15 15" width="100%" height="30px" preserveAspectRatio="xMaxYMin meet">
 <g id="arrow_out" transform="scale(0.3 0.3)">
  <a xlink:href="APrimitive_8hpp__dep__incl_org.svg" target="_base">
   <rect id="button" ry="5" rx="5" y="6" x="6" height="38" width="38"
        fill="#f2f5e9" fill-opacity="0.5" stroke="#606060" stroke-width="1.0"/>
   <path id="arrow"
     d="M 11.500037,31.436501 C 11.940474,20.09759 22.043105,11.32322 32.158766,21.979434 L 37.068811,17.246167 C 37.068811,17.246167 37.088388,32 37.088388,32 L 22.160133,31.978069 C 22.160133,31.978069 26.997745,27.140456 26.997745,27.140456 C 18.528582,18.264221 13.291696,25.230495 11.500037,31.436501 z"
     style="fill:#404040;"/>
  </a>
 </g>
</svg>

<style type='text/css'>
<![CDATA[
[data-mouse-over-selected='false'] { opacity: 0.7; }
[data-mouse-over-selected='true']  { opacity: 1.0; }
]]>
</style>
<script type="application/ecmascript"><![CDATA[
document.addEventListener('DOMContentLoaded', (event) => {
  highlightEdges();
  highlightAdjacentNodes();
});
]]></script>
</svg>
