<?xml version="1.0" encoding="UTF-8" standalone="no"?>
<!DOCTYPE svg PUBLIC "-//W3C//DTD SVG 1.1//EN"
 "http://www.w3.org/Graphics/SVG/1.1/DTD/svg11.dtd">
<!-- Generated by graphviz version 2.43.0 (0)
 -->
<!-- Title: src/Objects/Abstracts/APrimitive/APrimitive.hpp Pages: 1 -->
<!--zoomable 401 -->

<svg id="main" version="1.1" xmlns="http://www.w3.org/2000/svg" xmlns:xlink="http://www.w3.org/1999/xlink" xml:space="preserve" onload="init(evt)">
<style type="text/css"><![CDATA[
.node, .edge {opacity: 0.7;}
.node.selected, .edge.selected {opacity: 1;}
.edge:hover path { stroke: red; }
.edge:hover polygon { stroke: red; fill: red; }
]]></style>

<defs>
  <circle id="rim" cx="0" cy="0" r="7"/>
  <circle id="rim2" cx="0" cy="0" r="3.5"/>
  <g id="zoomPlus">
    <use xlink:href="#rim" fill="#404040"><set attributeName="fill" to="#808080" begin="zoomplus.mouseover" end="zoomplus.mouseout"/></use>
    <path d="M-4,0h8M0,-4v8" fill="none" stroke="white" stroke-width="1.5" pointer-events="none"/>
  </g>
  <g id="zoomMin">
    <use xlink:href="#rim" fill="#404040"><set attributeName="fill" to="#808080" begin="zoomminus.mouseover" end="zoomminus.mouseout"/></use>
    <path d="M-4,0h8" fill="none" stroke="white" stroke-width="1.5" pointer-events="none"/>
  </g>
  <g id="arrowUp" transform="translate(30 24)">
    <use xlink:href="#rim"/>
    <path pointer-events="none" fill="none" stroke="white" stroke-width="1.5" d="M0,-3.0v7 M-2.5,-0.5L0,-3.0L2.5,-0.5"/>
  </g>
  <g id="arrowRight" transform="rotate(90) translate(36 -43)">
    <use xlink:href="#rim"/>
    <path pointer-events="none" fill="none" stroke="white" stroke-width="1.5" d="M0,-3.0v7 M-2.5,-0.5L0,-3.0L2.5,-0.5"/>
  </g>
  <g id="arrowDown" transform="rotate(180) translate(-30 -48)">
    <use xlink:href="#rim"/>
    <path pointer-events="none" fill="none" stroke="white" stroke-width="1.5" d="M0,-3.0v7 M-2.5,-0.5L0,-3.0L2.5,-0.5"/>
  </g>
  <g id="arrowLeft" transform="rotate(270) translate(-36 17)">
    <use xlink:href="#rim"/>
    <path pointer-events="none" fill="none" stroke="white" stroke-width="1.5" d="M0,-3.0v7 M-2.5,-0.5L0,-3.0L2.5,-0.5"/>
  </g>
  <g id="resetDef">
    <use xlink:href="#rim2" fill="#404040"><set attributeName="fill" to="#808080" begin="reset.mouseover" end="reset.mouseout"/></use>
  </g>
</defs>
<script type="application/ecmascript">
var viewWidth = 1422;
var viewHeight = 401;
var sectionId = 'dynsection-1';
</script>
<script type="application/ecmascript" xlink:href="svg.min.js"/>
<svg id="graph" class="graph">
<g id="viewport">
<title>src/Objects/Abstracts/APrimitive/APrimitive.hpp</title>
<!-- Node1 -->
<g id="Node000001" class="node">
<title>Node1</title>
<g id="a_Node000001"><a xlink:title=" ">
<polygon fill="#999999" stroke="#666666" points="960,-393 814,-393 814,-363 960,-363 960,-393"/>
<text text-anchor="start" x="822" y="-381" font-family="Helvetica,sans-Serif" font-size="10.00">src/Objects/Abstracts</text>
<text text-anchor="middle" x="887" y="-370" font-family="Helvetica,sans-Serif" font-size="10.00">/APrimitive/APrimitive.hpp</text>
</a>
</g>
</g>
<!-- Node2 -->
<g id="Node000002" class="node">
<title>Node2</title>
<g id="a_Node000002"><a xlink:href="APrimitive_8cpp.html" target="_top" xlink:title=" ">
<polygon fill="white" stroke="#666666" points="562.5,-321.5 417.5,-321.5 417.5,-291.5 562.5,-291.5 562.5,-321.5"/>
<text text-anchor="start" x="425.5" y="-309.5" font-family="Helvetica,sans-Serif" font-size="10.00">src/Objects/Abstracts</text>
<text text-anchor="middle" x="490" y="-298.5" font-family="Helvetica,sans-Serif" font-size="10.00">/APrimitive/APrimitive.cpp</text>
</a>
</g>
</g>
<!-- Node1&#45;&gt;Node2 -->
<g id="edge1_Node000001_Node000002" class="edge">
<title>Node1&#45;&gt;Node2</title>
<g id="a_edge1_Node000001_Node000002"><a xlink:title=" ">
<path fill="none" stroke="#63b8ff" d="M803.89,-365.69C739.97,-356.54 649.6,-342.65 571,-327 562.77,-325.36 554.12,-323.46 545.65,-321.51"/>
<polygon fill="#63b8ff" stroke="#63b8ff" points="803.52,-369.17 813.91,-367.11 804.51,-362.24 803.52,-369.17"/>
</a>
</g>
</g>
<!-- Node3 -->
<g id="Node000003" class="node">
<title>Node3</title>
<g id="a_Node000003"><a xlink:href="Plugin_8hpp.html" target="_top" xlink:title=" ">
<polygon fill="white" stroke="#666666" points="705.5,-316 580.5,-316 580.5,-297 705.5,-297 705.5,-316"/>
<text text-anchor="middle" x="643" y="-304" font-family="Helvetica,sans-Serif" font-size="10.00">src/Objects/Plugin.hpp</text>
</a>
</g>
</g>
<!-- Node1&#45;&gt;Node3 -->
<g id="edge2_Node000001_Node000003" class="edge">
<title>Node1&#45;&gt;Node3</title>
<g id="a_edge2_Node000001_Node000003"><a xlink:title=" ">
<path fill="none" stroke="#63b8ff" d="M827.8,-360.14C778.9,-346.21 711.51,-327.01 673.08,-316.07"/>
<polygon fill="#63b8ff" stroke="#63b8ff" points="827.05,-363.56 837.62,-362.94 828.96,-356.83 827.05,-363.56"/>
</a>
</g>
</g>
<!-- Node15 -->
<g id="Node000015" class="node">
<title>Node15</title>
<g id="a_Node000015"><a xlink:href="Camera_8cpp.html" target="_top" xlink:title=" ">
<polygon fill="white" stroke="#666666" points="870.5,-107 745.5,-107 745.5,-66 870.5,-66 870.5,-107"/>
<text text-anchor="start" x="753.5" y="-95" font-family="Helvetica,sans-Serif" font-size="10.00">src/Objects/Plugins</text>
<text text-anchor="start" x="753.5" y="-84" font-family="Helvetica,sans-Serif" font-size="10.00">/CorePlugin/Renderers</text>
<text text-anchor="middle" x="808" y="-73" font-family="Helvetica,sans-Serif" font-size="10.00">/Camera/Camera.cpp</text>
</a>
</g>
</g>
<!-- Node1&#45;&gt;Node15 -->
<g id="edge32_Node000001_Node000015" class="edge">
<title>Node1&#45;&gt;Node15</title>
<g id="a_edge32_Node000001_Node000015"><a xlink:title=" ">
<path fill="none" stroke="#63b8ff" d="M832.18,-358.33C818.28,-350.84 805.03,-340.65 797,-327 775.42,-290.32 828.71,-211.42 835,-173 837.15,-159.84 837.99,-155.99 835,-143 832.11,-130.47 826,-117.49 820.32,-107.24"/>
<polygon fill="#63b8ff" stroke="#63b8ff" points="830.84,-361.57 841.35,-362.87 833.95,-355.3 830.84,-361.57"/>
</a>
</g>
</g>
<!-- Node17 -->
<g id="Node000017" class="node">
<title>Node17</title>
<g id="a_Node000017"><a xlink:href="DirectionalLight_8cpp.html" target="_top" xlink:title=" ">
<polygon fill="white" stroke="#666666" points="967.5,-327 806.5,-327 806.5,-286 967.5,-286 967.5,-327"/>
<text text-anchor="start" x="814.5" y="-315" font-family="Helvetica,sans-Serif" font-size="10.00">src/Objects/Plugins</text>
<text text-anchor="start" x="814.5" y="-304" font-family="Helvetica,sans-Serif" font-size="10.00">/CorePlugin/Lights/Directional</text>
<text text-anchor="middle" x="887" y="-293" font-family="Helvetica,sans-Serif" font-size="10.00">Light/DirectionalLight.cpp</text>
</a>
</g>
</g>
<!-- Node1&#45;&gt;Node17 -->
<g id="edge23_Node000001_Node000017" class="edge">
<title>Node1&#45;&gt;Node17</title>
<g id="a_edge23_Node000001_Node000017"><a xlink:title=" ">
<path fill="none" stroke="#63b8ff" d="M887,-352.91C887,-344.47 887,-335.1 887,-327.07"/>
<polygon fill="#63b8ff" stroke="#63b8ff" points="883.5,-352.94 887,-362.94 890.5,-352.94 883.5,-352.94"/>
</a>
</g>
</g>
<!-- Node18 -->
<g id="Node000018" class="node">
<title>Node18</title>
<g id="a_Node000018"><a xlink:href="Cylinder_8hpp.html" target="_top" xlink:title=" ">
<polygon fill="white" stroke="#666666" points="1110.5,-327 985.5,-327 985.5,-286 1110.5,-286 1110.5,-327"/>
<text text-anchor="start" x="993.5" y="-315" font-family="Helvetica,sans-Serif" font-size="10.00">src/Objects/Plugins</text>
<text text-anchor="start" x="993.5" y="-304" font-family="Helvetica,sans-Serif" font-size="10.00">/CorePlugin/Primitives</text>
<text text-anchor="middle" x="1048" y="-293" font-family="Helvetica,sans-Serif" font-size="10.00">/Cylinder/Cylinder.hpp</text>
</a>
</g>
</g>
<!-- Node1&#45;&gt;Node18 -->
<g id="edge24_Node000001_Node000018" class="edge">
<title>Node1&#45;&gt;Node18</title>
<g id="a_edge24_Node000001_Node000018"><a xlink:title=" ">
<path fill="none" stroke="#63b8ff" d="M928.92,-358.9C951.56,-349.13 979.52,-337.06 1002.66,-327.07"/>
<polygon fill="#63b8ff" stroke="#63b8ff" points="927.37,-355.76 919.58,-362.94 930.15,-362.19 927.37,-355.76"/>
</a>
</g>
</g>
<!-- Node20 -->
<g id="Node000020" class="node">
<title>Node20</title>
<g id="a_Node000020"><a xlink:href="Plane_8hpp.html" target="_top" xlink:title=" ">
<polygon fill="white" stroke="#666666" points="1396.5,-327 1271.5,-327 1271.5,-286 1396.5,-286 1396.5,-327"/>
<text text-anchor="start" x="1279.5" y="-315" font-family="Helvetica,sans-Serif" font-size="10.00">src/Objects/Plugins</text>
<text text-anchor="start" x="1279.5" y="-304" font-family="Helvetica,sans-Serif" font-size="10.00">/CorePlugin/Primitives</text>
<text text-anchor="middle" x="1334" y="-293" font-family="Helvetica,sans-Serif" font-size="10.00">/Plane/Plane.hpp</text>
</a>
</g>
</g>
<!-- Node1&#45;&gt;Node20 -->
<g id="edge26_Node000001_Node000020" class="edge">
<title>Node1&#45;&gt;Node20</title>
<g id="a_edge26_Node000001_Node000020"><a xlink:title=" ">
<path fill="none" stroke="#63b8ff" d="M970.34,-369.2C1046.89,-361.26 1163.25,-347.23 1263,-327 1265.76,-326.44 1268.56,-325.83 1271.39,-325.19"/>
<polygon fill="#63b8ff" stroke="#63b8ff" points="969.86,-365.73 960.27,-370.23 970.58,-372.69 969.86,-365.73"/>
</a>
</g>
</g>
<!-- Node22 -->
<g id="Node000022" class="node">
<title>Node22</title>
<g id="a_Node000022"><a xlink:href="Sphere_8hpp.html" target="_top" xlink:title=" ">
<polygon fill="white" stroke="#666666" points="1253.5,-327 1128.5,-327 1128.5,-286 1253.5,-286 1253.5,-327"/>
<text text-anchor="start" x="1136.5" y="-315" font-family="Helvetica,sans-Serif" font-size="10.00">src/Objects/Plugins</text>
<text text-anchor="start" x="1136.5" y="-304" font-family="Helvetica,sans-Serif" font-size="10.00">/CorePlugin/Primitives</text>
<text text-anchor="middle" x="1191" y="-293" font-family="Helvetica,sans-Serif" font-size="10.00">/Sphere/Sphere.hpp</text>
</a>
</g>
</g>
<!-- Node1&#45;&gt;Node22 -->
<g id="edge29_Node000001_Node000022" class="edge">
<title>Node1&#45;&gt;Node22</title>
<g id="a_edge29_Node000001_Node000022"><a xlink:title=" ">
<path fill="none" stroke="#63b8ff" d="M966.72,-360.89C1011.59,-351.56 1068.56,-339.26 1119,-327 1122.02,-326.27 1125.11,-325.5 1128.22,-324.71"/>
<polygon fill="#63b8ff" stroke="#63b8ff" points="965.84,-357.5 956.76,-362.96 967.26,-364.35 965.84,-357.5"/>
</a>
</g>
</g>
<!-- Node4 -->
<g id="Node000004" class="node">
<title>Node4</title>
<g id="a_Node000004"><a xlink:href="CorePlugin_8cpp.html" target="_top" xlink:title=" ">
<polygon fill="white" stroke="#666666" points="826,-173 678,-173 678,-143 826,-143 826,-173"/>
<text text-anchor="start" x="686" y="-161" font-family="Helvetica,sans-Serif" font-size="10.00">src/Objects/Plugins</text>
<text text-anchor="middle" x="752" y="-150" font-family="Helvetica,sans-Serif" font-size="10.00">/CorePlugin/CorePlugin.cpp</text>
</a>
</g>
</g>
<!-- Node3&#45;&gt;Node4 -->
<g id="edge3_Node000003_Node000004" class="edge">
<title>Node3&#45;&gt;Node4</title>
<g id="a_edge3_Node000003_Node000004"><a xlink:title=" ">
<path fill="none" stroke="#63b8ff" d="M675.77,-292.82C695,-283.72 718.16,-269.6 732,-250 748.42,-226.74 751.72,-192.45 752.17,-173.29"/>
<polygon fill="#63b8ff" stroke="#63b8ff" points="674.12,-289.72 666.42,-297 676.98,-296.11 674.12,-289.72"/>
</a>
</g>
</g>
<!-- Node5 -->
<g id="Node000005" class="node">
<title>Node5</title>
<g id="a_Node000005"><a xlink:href="SceneWriter_8hpp.html" target="_top" xlink:title=" ">
<polygon fill="white" stroke="#666666" points="723.5,-250 562.5,-250 562.5,-209 723.5,-209 723.5,-250"/>
<text text-anchor="start" x="570.5" y="-238" font-family="Helvetica,sans-Serif" font-size="10.00">src/Objects/Plugins</text>
<text text-anchor="start" x="570.5" y="-227" font-family="Helvetica,sans-Serif" font-size="10.00">/CorePlugin/Interfaces</text>
<text text-anchor="middle" x="643" y="-216" font-family="Helvetica,sans-Serif" font-size="10.00">/SceneWriter/SceneWriter.hpp</text>
</a>
</g>
</g>
<!-- Node3&#45;&gt;Node5 -->
<g id="edge4_Node000003_Node000005" class="edge">
<title>Node3&#45;&gt;Node5</title>
<g id="a_edge4_Node000003_Node000005"><a xlink:title=" ">
<path fill="none" stroke="#63b8ff" d="M643,-286.61C643,-275.5 643,-261.46 643,-250.21"/>
<polygon fill="#63b8ff" stroke="#63b8ff" points="639.5,-286.9 643,-296.9 646.5,-286.9 639.5,-286.9"/>
</a>
</g>
</g>
<!-- Node8 -->
<g id="Node000008" class="node">
<title>Node8</title>
<g id="a_Node000008"><a xlink:href="Parser_8hpp.html" target="_top" xlink:title=" ">
<polygon fill="white" stroke="#666666" points="274,-244.5 110,-244.5 110,-214.5 274,-214.5 274,-244.5"/>
<text text-anchor="start" x="118" y="-232.5" font-family="Helvetica,sans-Serif" font-size="10.00">src/SceneSystem/ConfigParser</text>
<text text-anchor="middle" x="192" y="-221.5" font-family="Helvetica,sans-Serif" font-size="10.00">/Parser.hpp</text>
</a>
</g>
</g>
<!-- Node3&#45;&gt;Node8 -->
<g id="edge8_Node000003_Node000008" class="edge">
<title>Node3&#45;&gt;Node8</title>
<g id="a_edge8_Node000003_Node000008"><a xlink:title=" ">
<path fill="none" stroke="#63b8ff" d="M605.13,-294.24C594.18,-291.26 582.18,-288.25 571,-286 452.75,-262.18 421.19,-268.53 302,-250 291.17,-248.32 279.77,-246.43 268.56,-244.5"/>
<polygon fill="#63b8ff" stroke="#63b8ff" points="604.25,-297.63 614.82,-296.95 606.13,-290.89 604.25,-297.63"/>
</a>
</g>
</g>
<!-- Node12 -->
<g id="Node000012" class="node">
<title>Node12</title>
<g id="a_Node000012"><a xlink:href="PluginManager_8hpp.html" target="_top" xlink:title="Plugin manager for loading and managing plugins.">
<polygon fill="white" stroke="#666666" points="487,-244.5 311,-244.5 311,-214.5 487,-214.5 487,-244.5"/>
<text text-anchor="start" x="319" y="-232.5" font-family="Helvetica,sans-Serif" font-size="10.00">src/SceneSystem/PluginManager</text>
<text text-anchor="middle" x="399" y="-221.5" font-family="Helvetica,sans-Serif" font-size="10.00">/PluginManager.hpp</text>
</a>
</g>
</g>
<!-- Node3&#45;&gt;Node12 -->
<g id="edge13_Node000003_Node000012" class="edge">
<title>Node3&#45;&gt;Node12</title>
<g id="a_edge13_Node000003_Node000012"><a xlink:title=" ">
<path fill="none" stroke="#63b8ff" d="M605.45,-293.96C562.26,-280.68 491.35,-258.89 444.91,-244.61"/>
<polygon fill="#63b8ff" stroke="#63b8ff" points="604.42,-297.3 615.01,-296.9 606.48,-290.61 604.42,-297.3"/>
</a>
</g>
</g>
<!-- Node14 -->
<g id="Node000014" class="node">
<title>Node14</title>
<g id="a_Node000014"><a xlink:href="Scene_8hpp.html" target="_top" xlink:title=" ">
<polygon fill="white" stroke="#666666" points="584,-173 452,-173 452,-143 584,-143 584,-173"/>
<text text-anchor="start" x="460" y="-161" font-family="Helvetica,sans-Serif" font-size="10.00">src/SceneSystem/Scene</text>
<text text-anchor="middle" x="518" y="-150" font-family="Helvetica,sans-Serif" font-size="10.00">/Scene.hpp</text>
</a>
</g>
</g>
<!-- Node3&#45;&gt;Node14 -->
<g id="edge22_Node000003_Node000014" class="edge">
<title>Node3&#45;&gt;Node14</title>
<g id="a_edge22_Node000003_Node000014"><a xlink:title=" ">
<path fill="none" stroke="#63b8ff" d="M612,-292.66C592.74,-283.31 568.75,-268.97 553,-250 533.87,-226.94 524.46,-192.27 520.48,-173.06"/>
<polygon fill="#63b8ff" stroke="#63b8ff" points="610.74,-295.94 621.29,-296.97 613.69,-289.59 610.74,-295.94"/>
</a>
</g>
</g>
<!-- Node5&#45;&gt;Node4 -->
<g id="edge5_Node000005_Node000004" class="edge">
<title>Node5&#45;&gt;Node4</title>
<g id="a_edge5_Node000005_Node000004"><a xlink:title=" ">
<path fill="none" stroke="#63b8ff" d="M682.31,-203.44C698.31,-193.23 716.21,-181.82 729.87,-173.11"/>
<polygon fill="#63b8ff" stroke="#63b8ff" points="680.2,-200.63 673.65,-208.96 683.97,-206.53 680.2,-200.63"/>
</a>
</g>
</g>
<!-- Node6 -->
<g id="Node000006" class="node">
<title>Node6</title>
<g id="a_Node000006"><a xlink:href="SceneWriter_8cpp.html" target="_top" xlink:title=" ">
<polygon fill="white" stroke="#666666" points="642.5,-107 481.5,-107 481.5,-66 642.5,-66 642.5,-107"/>
<text text-anchor="start" x="489.5" y="-95" font-family="Helvetica,sans-Serif" font-size="10.00">src/Objects/Plugins</text>
<text text-anchor="start" x="489.5" y="-84" font-family="Helvetica,sans-Serif" font-size="10.00">/CorePlugin/Interfaces</text>
<text text-anchor="middle" x="562" y="-73" font-family="Helvetica,sans-Serif" font-size="10.00">/SceneWriter/SceneWriter.cpp</text>
</a>
</g>
</g>
<!-- Node5&#45;&gt;Node6 -->
<g id="edge6_Node000005_Node000006" class="edge">
<title>Node5&#45;&gt;Node6</title>
<g id="a_edge6_Node000005_Node000006"><a xlink:title=" ">
<path fill="none" stroke="#63b8ff" d="M626.7,-200.13C610.9,-172.62 587.33,-131.59 573.43,-107.39"/>
<polygon fill="#63b8ff" stroke="#63b8ff" points="623.72,-201.97 631.74,-208.89 629.79,-198.48 623.72,-201.97"/>
</a>
</g>
</g>
<!-- Node7 -->
<g id="Node000007" class="node">
<title>Node7</title>
<g id="a_Node000007"><a xlink:href="main_8cpp.html" target="_top" xlink:title=" ">
<polygon fill="white" stroke="#666666" points="357.5,-24.5 278.5,-24.5 278.5,-5.5 357.5,-5.5 357.5,-24.5"/>
<text text-anchor="middle" x="318" y="-12.5" font-family="Helvetica,sans-Serif" font-size="10.00">src/main.cpp</text>
</a>
</g>
</g>
<!-- Node5&#45;&gt;Node7 -->
<g id="edge7_Node000005_Node000007" class="edge">
<title>Node5&#45;&gt;Node7</title>
<g id="a_edge7_Node000005_Node000007"><a xlink:title=" ">
<path fill="none" stroke="#63b8ff" d="M649.16,-198.71C656.97,-157.28 667.53,-85.2 651,-66 613.52,-22.47 437.38,-16.31 357.53,-15.79"/>
<polygon fill="#63b8ff" stroke="#63b8ff" points="645.68,-198.29 647.21,-208.77 652.55,-199.62 645.68,-198.29"/>
</a>
</g>
</g>
<!-- Node9 -->
<g id="Node000009" class="node">
<title>Node9</title>
<g id="a_Node000009"><a xlink:href="Parser_8cpp.html" target="_top" xlink:title=" ">
<polygon fill="white" stroke="#666666" points="164,-173 0,-173 0,-143 164,-143 164,-173"/>
<text text-anchor="start" x="8" y="-161" font-family="Helvetica,sans-Serif" font-size="10.00">src/SceneSystem/ConfigParser</text>
<text text-anchor="middle" x="82" y="-150" font-family="Helvetica,sans-Serif" font-size="10.00">/Parser.cpp</text>
</a>
</g>
</g>
<!-- Node8&#45;&gt;Node9 -->
<g id="edge9_Node000008_Node000009" class="edge">
<title>Node8&#45;&gt;Node9</title>
<g id="a_edge9_Node000008_Node000009"><a xlink:title=" ">
<path fill="none" stroke="#63b8ff" d="M161.24,-209.07C143.13,-197.62 120.62,-183.4 104.23,-173.04"/>
<polygon fill="#63b8ff" stroke="#63b8ff" points="159.42,-212.05 169.74,-214.44 163.16,-206.14 159.42,-212.05"/>
</a>
</g>
</g>
<!-- Node10 -->
<g id="Node000010" class="node">
<title>Node10</title>
<g id="a_Node000010"><a xlink:href="SceneLoader_8hpp.html" target="_top" xlink:title=" ">
<polygon fill="white" stroke="#666666" points="274.5,-101.5 109.5,-101.5 109.5,-71.5 274.5,-71.5 274.5,-101.5"/>
<text text-anchor="start" x="117.5" y="-89.5" font-family="Helvetica,sans-Serif" font-size="10.00">src/SceneSystem/SceneLoader</text>
<text text-anchor="middle" x="192" y="-78.5" font-family="Helvetica,sans-Serif" font-size="10.00">/SceneLoader.hpp</text>
</a>
</g>
</g>
<!-- Node8&#45;&gt;Node10 -->
<g id="edge10_Node000008_Node000010" class="edge">
<title>Node8&#45;&gt;Node10</title>
<g id="a_edge10_Node000008_Node000010"><a xlink:title=" ">
<path fill="none" stroke="#63b8ff" d="M192,-204.2C192,-174.72 192,-125.99 192,-101.9"/>
<polygon fill="#63b8ff" stroke="#63b8ff" points="188.5,-204.46 192,-214.46 195.5,-204.46 188.5,-204.46"/>
</a>
</g>
</g>
<!-- Node10&#45;&gt;Node7 -->
<g id="edge12_Node000010_Node000007" class="edge">
<title>Node10&#45;&gt;Node7</title>
<g id="a_edge12_Node000010_Node000007"><a xlink:title=" ">
<path fill="none" stroke="#63b8ff" d="M226.27,-66.6C251.13,-52.89 283.57,-34.99 302.47,-24.57"/>
<polygon fill="#63b8ff" stroke="#63b8ff" points="224.56,-63.54 217.5,-71.44 227.94,-69.67 224.56,-63.54"/>
</a>
</g>
</g>
<!-- Node11 -->
<g id="Node000011" class="node">
<title>Node11</title>
<g id="a_Node000011"><a xlink:href="SceneLoader_8cpp.html" target="_top" xlink:title=" ">
<polygon fill="white" stroke="#666666" points="260.5,-30 95.5,-30 95.5,0 260.5,0 260.5,-30"/>
<text text-anchor="start" x="103.5" y="-18" font-family="Helvetica,sans-Serif" font-size="10.00">src/SceneSystem/SceneLoader</text>
<text text-anchor="middle" x="178" y="-7" font-family="Helvetica,sans-Serif" font-size="10.00">/SceneLoader.cpp</text>
</a>
</g>
</g>
<!-- Node10&#45;&gt;Node11 -->
<g id="edge11_Node000010_Node000011" class="edge">
<title>Node10&#45;&gt;Node11</title>
<g id="a_edge11_Node000010_Node000011"><a xlink:title=" ">
<path fill="none" stroke="#63b8ff" d="M187.18,-61.58C185.06,-51.06 182.65,-39.08 180.83,-30.04"/>
<polygon fill="#63b8ff" stroke="#63b8ff" points="183.76,-62.32 189.17,-71.44 190.62,-60.94 183.76,-62.32"/>
</a>
</g>
</g>
<!-- Node12&#45;&gt;Node10 -->
<g id="edge21_Node000012_Node000010" class="edge">
<title>Node12&#45;&gt;Node10</title>
<g id="a_edge21_Node000012_Node000010"><a xlink:title=" ">
<path fill="none" stroke="#63b8ff" d="M325.23,-211.35C299.29,-202.82 271.12,-190.48 249,-173 224.36,-153.54 206.66,-120.42 198,-101.63"/>
<polygon fill="#63b8ff" stroke="#63b8ff" points="324.46,-214.78 335.04,-214.44 326.56,-208.1 324.46,-214.78"/>
</a>
</g>
</g>
<!-- Node13 -->
<g id="Node000013" class="node">
<title>Node13</title>
<g id="a_Node000013"><a xlink:href="PluginManager_8cpp.html" target="_top" xlink:title=" ">
<polygon fill="white" stroke="#666666" points="434,-173 258,-173 258,-143 434,-143 434,-173"/>
<text text-anchor="start" x="266" y="-161" font-family="Helvetica,sans-Serif" font-size="10.00">src/SceneSystem/PluginManager</text>
<text text-anchor="middle" x="346" y="-150" font-family="Helvetica,sans-Serif" font-size="10.00">/PluginManager.cpp</text>
</a>
</g>
</g>
<!-- Node12&#45;&gt;Node13 -->
<g id="edge14_Node000012_Node000013" class="edge">
<title>Node12&#45;&gt;Node13</title>
<g id="a_edge14_Node000012_Node000013"><a xlink:title=" ">
<path fill="none" stroke="#63b8ff" d="M382,-206.21C373.7,-195.32 363.96,-182.55 356.71,-173.04"/>
<polygon fill="#63b8ff" stroke="#63b8ff" points="379.43,-208.61 388.27,-214.44 384.99,-204.36 379.43,-208.61"/>
</a>
</g>
</g>
<!-- Node12&#45;&gt;Node14 -->
<g id="edge15_Node000012_Node000014" class="edge">
<title>Node12&#45;&gt;Node14</title>
<g id="a_edge15_Node000012_Node000014"><a xlink:title=" ">
<path fill="none" stroke="#63b8ff" d="M431.74,-209.38C451.43,-197.88 476.06,-183.49 493.95,-173.04"/>
<polygon fill="#63b8ff" stroke="#63b8ff" points="429.95,-206.37 423.08,-214.44 433.48,-212.41 429.95,-206.37"/>
</a>
</g>
</g>
<!-- Node14&#45;&gt;Node6 -->
<g id="edge16_Node000014_Node000006" class="edge">
<title>Node14&#45;&gt;Node6</title>
<g id="a_edge16_Node000014_Node000006"><a xlink:title=" ">
<path fill="none" stroke="#63b8ff" d="M532.37,-134.31C537.93,-125.52 544.24,-115.55 549.61,-107.07"/>
<polygon fill="#63b8ff" stroke="#63b8ff" points="529.3,-132.61 526.9,-142.94 535.21,-136.36 529.3,-132.61"/>
</a>
</g>
</g>
<!-- Node14&#45;&gt;Node7 -->
<g id="edge20_Node000014_Node000007" class="edge">
<title>Node14&#45;&gt;Node7</title>
<g id="a_edge20_Node000014_Node000007"><a xlink:title=" ">
<path fill="none" stroke="#63b8ff" d="M442.06,-142.13C390.37,-131.26 329.93,-116.76 322,-107 302.45,-82.95 310.49,-42.38 315.33,-24.69"/>
<polygon fill="#63b8ff" stroke="#63b8ff" points="441.43,-145.57 451.93,-144.18 442.86,-138.72 441.43,-145.57"/>
</a>
</g>
</g>
<!-- Node14&#45;&gt;Node10 -->
<g id="edge19_Node000014_Node000010" class="edge">
<title>Node14&#45;&gt;Node10</title>
<g id="a_edge19_Node000014_Node000010"><a xlink:title=" ">
<path fill="none" stroke="#63b8ff" d="M442.19,-140.84C386.37,-128.94 311.2,-112.91 257.87,-101.54"/>
<polygon fill="#63b8ff" stroke="#63b8ff" points="441.52,-144.27 452.03,-142.94 442.98,-137.43 441.52,-144.27"/>
</a>
</g>
</g>
<!-- Node14&#45;&gt;Node15 -->
<g id="edge17_Node000014_Node000015" class="edge">
<title>Node14&#45;&gt;Node15</title>
<g id="a_edge17_Node000014_Node000015"><a xlink:title=" ">
<path fill="none" stroke="#63b8ff" d="M586.71,-140.53C634.84,-129 698.66,-113.7 745.39,-102.51"/>
<polygon fill="#63b8ff" stroke="#63b8ff" points="585.59,-137.2 576.69,-142.94 587.23,-144.01 585.59,-137.2"/>
</a>
</g>
</g>
<!-- Node16 -->
<g id="Node000016" class="node">
<title>Node16</title>
<g id="a_Node000016"><a xlink:href="Scene_8cpp.html" target="_top" xlink:title=" ">
<polygon fill="white" stroke="#666666" points="463,-101.5 331,-101.5 331,-71.5 463,-71.5 463,-101.5"/>
<text text-anchor="start" x="339" y="-89.5" font-family="Helvetica,sans-Serif" font-size="10.00">src/SceneSystem/Scene</text>
<text text-anchor="middle" x="397" y="-78.5" font-family="Helvetica,sans-Serif" font-size="10.00">/Scene.cpp</text>
</a>
</g>
</g>
<!-- Node14&#45;&gt;Node16 -->
<g id="edge18_Node000014_Node000016" class="edge">
<title>Node14&#45;&gt;Node16</title>
<g id="a_edge18_Node000014_Node000016"><a xlink:title=" ">
<path fill="none" stroke="#63b8ff" d="M484.71,-137.88C464.69,-126.38 439.65,-111.99 421.45,-101.54"/>
<polygon fill="#63b8ff" stroke="#63b8ff" points="483.1,-140.99 493.51,-142.94 486.59,-134.92 483.1,-140.99"/>
</a>
</g>
</g>
<!-- Node19 -->
<g id="Node000019" class="node">
<title>Node19</title>
<g id="a_Node000019"><a xlink:href="Cylinder_8cpp.html" target="_top" xlink:title=" ">
<polygon fill="white" stroke="#666666" points="1071.5,-250 946.5,-250 946.5,-209 1071.5,-209 1071.5,-250"/>
<text text-anchor="start" x="954.5" y="-238" font-family="Helvetica,sans-Serif" font-size="10.00">src/Objects/Plugins</text>
<text text-anchor="start" x="954.5" y="-227" font-family="Helvetica,sans-Serif" font-size="10.00">/CorePlugin/Primitives</text>
<text text-anchor="middle" x="1009" y="-216" font-family="Helvetica,sans-Serif" font-size="10.00">/Cylinder/Cylinder.cpp</text>
</a>
</g>
</g>
<!-- Node18&#45;&gt;Node19 -->
<g id="edge25_Node000018_Node000019" class="edge">
<title>Node18&#45;&gt;Node19</title>
<g id="a_edge25_Node000018_Node000019"><a xlink:title=" ">
<path fill="none" stroke="#63b8ff" d="M1033.09,-276.83C1028.44,-267.89 1023.42,-258.24 1019.18,-250.07"/>
<polygon fill="#63b8ff" stroke="#63b8ff" points="1030.03,-278.54 1037.75,-285.79 1036.24,-275.31 1030.03,-278.54"/>
</a>
</g>
</g>
<!-- Node20&#45;&gt;Node4 -->
<g id="edge27_Node000020_Node000004" class="edge">
<title>Node20&#45;&gt;Node4</title>
<g id="a_edge27_Node000020_Node000004"><a xlink:title=" ">
<path fill="none" stroke="#63b8ff" d="M1380.34,-279.78C1390.65,-271.69 1400.23,-261.73 1406,-250 1414.04,-233.65 1418.38,-222.37 1406,-209 1367.26,-167.18 988.96,-160.19 826.03,-159.13"/>
<polygon fill="#63b8ff" stroke="#63b8ff" points="1377.99,-277.16 1371.97,-285.87 1382.11,-282.82 1377.99,-277.16"/>
</a>
</g>
</g>
<!-- Node21 -->
<g id="Node000021" class="node">
<title>Node21</title>
<g id="a_Node000021"><a xlink:href="Plane_8cpp.html" target="_top" xlink:title=" ">
<polygon fill="white" stroke="#666666" points="1396.5,-250 1271.5,-250 1271.5,-209 1396.5,-209 1396.5,-250"/>
<text text-anchor="start" x="1279.5" y="-238" font-family="Helvetica,sans-Serif" font-size="10.00">src/Objects/Plugins</text>
<text text-anchor="start" x="1279.5" y="-227" font-family="Helvetica,sans-Serif" font-size="10.00">/CorePlugin/Primitives</text>
<text text-anchor="middle" x="1334" y="-216" font-family="Helvetica,sans-Serif" font-size="10.00">/Plane/Plane.cpp</text>
</a>
</g>
</g>
<!-- Node20&#45;&gt;Node21 -->
<g id="edge28_Node000020_Node000021" class="edge">
<title>Node20&#45;&gt;Node21</title>
<g id="a_edge28_Node000020_Node000021"><a xlink:title=" ">
<path fill="none" stroke="#63b8ff" d="M1334,-275.69C1334,-267.08 1334,-257.9 1334,-250.07"/>
<polygon fill="#63b8ff" stroke="#63b8ff" points="1330.5,-275.79 1334,-285.79 1337.5,-275.79 1330.5,-275.79"/>
</a>
</g>
</g>
<!-- Node22&#45;&gt;Node4 -->
<g id="edge30_Node000022_Node000004" class="edge">
<title>Node22&#45;&gt;Node4</title>
<g id="a_edge30_Node000022_Node000004"><a xlink:title=" ">
<path fill="none" stroke="#63b8ff" d="M1155.78,-279.46C1144.12,-270.45 1131.25,-260.08 1120,-250 1101.04,-233.01 1102.65,-220.63 1080,-209 1036.9,-186.86 908.77,-172.22 826,-164.79"/>
<polygon fill="#63b8ff" stroke="#63b8ff" points="1153.94,-282.47 1164.02,-285.76 1158.2,-276.91 1153.94,-282.47"/>
</a>
</g>
</g>
<!-- Node23 -->
<g id="Node000023" class="node">
<title>Node23</title>
<g id="a_Node000023"><a xlink:href="Sphere_8cpp.html" target="_top" xlink:title=" ">
<polygon fill="white" stroke="#666666" points="1253.5,-250 1128.5,-250 1128.5,-209 1253.5,-209 1253.5,-250"/>
<text text-anchor="start" x="1136.5" y="-238" font-family="Helvetica,sans-Serif" font-size="10.00">src/Objects/Plugins</text>
<text text-anchor="start" x="1136.5" y="-227" font-family="Helvetica,sans-Serif" font-size="10.00">/CorePlugin/Primitives</text>
<text text-anchor="middle" x="1191" y="-216" font-family="Helvetica,sans-Serif" font-size="10.00">/Sphere/Sphere.cpp</text>
</a>
</g>
</g>
<!-- Node22&#45;&gt;Node23 -->
<g id="edge31_Node000022_Node000023" class="edge">
<title>Node22&#45;&gt;Node23</title>
<g id="a_edge31_Node000022_Node000023"><a xlink:title=" ">
<path fill="none" stroke="#63b8ff" d="M1191,-275.69C1191,-267.08 1191,-257.9 1191,-250.07"/>
<polygon fill="#63b8ff" stroke="#63b8ff" points="1187.5,-275.79 1191,-285.79 1194.5,-275.79 1187.5,-275.79"/>
</a>
</g>
</g>
</g>
</svg>

<g id="navigator" transform="translate(0 0)" fill="#404254">
  <rect fill="#f2f5e9" fill-opacity="0.5" stroke="#606060" stroke-width=".5" x="0" y="0" width="60" height="60"/>
  <use id="zoomplus" xlink:href="#zoomPlus" x="17" y="9" onmousedown="handleZoom(evt,'in')"/>
  <use id="zoomminus" xlink:href="#zoomMin" x="42" y="9" onmousedown="handleZoom(evt,'out')"/>
  <use id="reset" xlink:href="#resetDef" x="30" y="36" onmousedown="handleReset()"/>
   <use id="arrowup" xlink:href="#arrowUp" x="0" y="0" onmousedown="handlePan(0,-1)"/>
  <use id="arrowright" xlink:href="#arrowRight" x="0" y="0" onmousedown="handlePan(1,0)"/>
  <use id="arrowdown" xlink:href="#arrowDown" x="0" y="0" onmousedown="handlePan(0,1)"/>
  <use id="arrowleft" xlink:href="#arrowLeft" x="0" y="0" onmousedown="handlePan(-1,0)"/>
</g>
<svg viewBox="0 0 15 15" width="100%" height="30px" preserveAspectRatio="xMaxYMin meet">
 <g id="arrow_out" transform="scale(0.3 0.3)">
  <a xlink:href="APrimitive_8hpp__dep__incl_org.svg" target="_base">
   <rect id="button" ry="5" rx="5" y="6" x="6" height="38" width="38"
        fill="#f2f5e9" fill-opacity="0.5" stroke="#606060" stroke-width="1.0"/>
   <path id="arrow"
     d="M 11.500037,31.436501 C 11.940474,20.09759 22.043105,11.32322 32.158766,21.979434 L 37.068811,17.246167 C 37.068811,17.246167 37.088388,32 37.088388,32 L 22.160133,31.978069 C 22.160133,31.978069 26.997745,27.140456 26.997745,27.140456 C 18.528582,18.264221 13.291696,25.230495 11.500037,31.436501 z"
     style="fill:#404040;"/>
  </a>
 </g>
</svg>

<style type='text/css'>
<![CDATA[
[data-mouse-over-selected='false'] { opacity: 0.7; }
[data-mouse-over-selected='true']  { opacity: 1.0; }
]]>
</style>
<script type="application/ecmascript"><![CDATA[
document.addEventListener('DOMContentLoaded', (event) => {
  highlightEdges();
  highlightAdjacentNodes();
});
]]></script>
</svg>
