<?xml version="1.0" encoding="UTF-8" standalone="no"?>
<!DOCTYPE svg PUBLIC "-//W3C//DTD SVG 1.1//EN"
 "http://www.w3.org/Graphics/SVG/1.1/DTD/svg11.dtd">
<!-- Generated by graphviz version 2.43.0 (0)
 -->
<!-- Title: src/Objects/Abstracts/APrimitive/APrimitive.hpp Pages: 1 -->
<!--zoomable 412 -->

<svg id="main" version="1.1" xmlns="http://www.w3.org/2000/svg" xmlns:xlink="http://www.w3.org/1999/xlink" xml:space="preserve" onload="init(evt)">
<style type="text/css"><![CDATA[
.node, .edge {opacity: 0.7;}
.node.selected, .edge.selected {opacity: 1;}
.edge:hover path { stroke: red; }
.edge:hover polygon { stroke: red; fill: red; }
]]></style>

<defs>
  <circle id="rim" cx="0" cy="0" r="7"/>
  <circle id="rim2" cx="0" cy="0" r="3.5"/>
  <g id="zoomPlus">
    <use xlink:href="#rim" fill="#404040"><set attributeName="fill" to="#808080" begin="zoomplus.mouseover" end="zoomplus.mouseout"/></use>
    <path d="M-4,0h8M0,-4v8" fill="none" stroke="white" stroke-width="1.5" pointer-events="none"/>
  </g>
  <g id="zoomMin">
    <use xlink:href="#rim" fill="#404040"><set attributeName="fill" to="#808080" begin="zoomminus.mouseover" end="zoomminus.mouseout"/></use>
    <path d="M-4,0h8" fill="none" stroke="white" stroke-width="1.5" pointer-events="none"/>
  </g>
  <g id="arrowUp" transform="translate(30 24)">
    <use xlink:href="#rim"/>
    <path pointer-events="none" fill="none" stroke="white" stroke-width="1.5" d="M0,-3.0v7 M-2.5,-0.5L0,-3.0L2.5,-0.5"/>
  </g>
  <g id="arrowRight" transform="rotate(90) translate(36 -43)">
    <use xlink:href="#rim"/>
    <path pointer-events="none" fill="none" stroke="white" stroke-width="1.5" d="M0,-3.0v7 M-2.5,-0.5L0,-3.0L2.5,-0.5"/>
  </g>
  <g id="arrowDown" transform="rotate(180) translate(-30 -48)">
    <use xlink:href="#rim"/>
    <path pointer-events="none" fill="none" stroke="white" stroke-width="1.5" d="M0,-3.0v7 M-2.5,-0.5L0,-3.0L2.5,-0.5"/>
  </g>
  <g id="arrowLeft" transform="rotate(270) translate(-36 17)">
    <use xlink:href="#rim"/>
    <path pointer-events="none" fill="none" stroke="white" stroke-width="1.5" d="M0,-3.0v7 M-2.5,-0.5L0,-3.0L2.5,-0.5"/>
  </g>
  <g id="resetDef">
    <use xlink:href="#rim2" fill="#404040"><set attributeName="fill" to="#808080" begin="reset.mouseover" end="reset.mouseout"/></use>
  </g>
</defs>
<script type="application/ecmascript">
var viewWidth = 2181;
var viewHeight = 412;
var sectionId = 'dynsection-1';
</script>
<script type="application/ecmascript" xlink:href="svg.min.js"/>
<svg id="graph" class="graph">
<g id="viewport">
<title>src/Objects/Abstracts/APrimitive/APrimitive.hpp</title>
<!-- Node1 -->
<g id="Node000001" class="node">
<title>Node1</title>
<g id="a_Node000001"><a xlink:title=" ">
<polygon fill="#999999" stroke="#666666" points="1643,-404 1497,-404 1497,-374 1643,-374 1643,-404"/>
<text text-anchor="start" x="1505" y="-392" font-family="Helvetica,sans-Serif" font-size="10.00">src/Objects/Abstracts</text>
<text text-anchor="middle" x="1570" y="-381" font-family="Helvetica,sans-Serif" font-size="10.00">/APrimitive/APrimitive.hpp</text>
</a>
</g>
</g>
<!-- Node2 -->
<g id="Node000002" class="node">
<title>Node2</title>
<g id="a_Node000002"><a xlink:href="APrimitive_8cpp.html" target="_top" xlink:title=" ">
<polygon fill="white" stroke="#666666" points="663.5,-332.5 518.5,-332.5 518.5,-302.5 663.5,-302.5 663.5,-332.5"/>
<text text-anchor="start" x="526.5" y="-320.5" font-family="Helvetica,sans-Serif" font-size="10.00">src/Objects/Abstracts</text>
<text text-anchor="middle" x="591" y="-309.5" font-family="Helvetica,sans-Serif" font-size="10.00">/APrimitive/APrimitive.cpp</text>
</a>
</g>
</g>
<!-- Node1&#45;&gt;Node2 -->
<g id="edge1_Node000001_Node000002" class="edge">
<title>Node1&#45;&gt;Node2</title>
<g id="a_edge1_Node000001_Node000002"><a xlink:title=" ">
<path fill="none" stroke="#63b8ff" d="M1486.6,-388.37C1327.37,-387.96 969.42,-381.71 672,-338 662.7,-336.63 652.9,-334.7 643.45,-332.58"/>
<polygon fill="#63b8ff" stroke="#63b8ff" points="1486.8,-391.87 1496.8,-388.38 1486.81,-384.87 1486.8,-391.87"/>
</a>
</g>
</g>
<!-- Node3 -->
<g id="Node000003" class="node">
<title>Node3</title>
<g id="a_Node000003"><a xlink:href="Plugin_8hpp.html" target="_top" xlink:title=" ">
<polygon fill="white" stroke="#666666" points="806.5,-327 681.5,-327 681.5,-308 806.5,-308 806.5,-327"/>
<text text-anchor="middle" x="744" y="-315" font-family="Helvetica,sans-Serif" font-size="10.00">src/Objects/Plugin.hpp</text>
</a>
</g>
</g>
<!-- Node1&#45;&gt;Node3 -->
<g id="edge2_Node000001_Node000003" class="edge">
<title>Node1&#45;&gt;Node3</title>
<g id="a_edge2_Node000001_Node000003"><a xlink:title=" ">
<path fill="none" stroke="#63b8ff" d="M1486.74,-381.39C1369.29,-372.03 1148.25,-354.21 960,-338 908.42,-333.56 849.93,-328.26 806.84,-324.31"/>
<polygon fill="#63b8ff" stroke="#63b8ff" points="1486.5,-384.89 1496.74,-382.19 1487.05,-377.91 1486.5,-384.89"/>
</a>
</g>
</g>
<!-- Node19 -->
<g id="Node000019" class="node">
<title>Node19</title>
<g id="a_Node000019"><a xlink:href="BVHCam_8cpp.html" target="_top" xlink:title=" ">
<polygon fill="white" stroke="#666666" points="1511,-107 1365,-107 1365,-66 1511,-66 1511,-107"/>
<text text-anchor="start" x="1373" y="-95" font-family="Helvetica,sans-Serif" font-size="10.00">src/Objects/Plugins</text>
<text text-anchor="start" x="1373" y="-84" font-family="Helvetica,sans-Serif" font-size="10.00">/BVHCamPlugin/Renderers</text>
<text text-anchor="middle" x="1438" y="-73" font-family="Helvetica,sans-Serif" font-size="10.00">/BVHCam.cpp</text>
</a>
</g>
</g>
<!-- Node1&#45;&gt;Node19 -->
<g id="edge33_Node000001_Node000019" class="edge">
<title>Node1&#45;&gt;Node19</title>
<g id="a_edge33_Node000001_Node000019"><a xlink:title=" ">
<path fill="none" stroke="#63b8ff" d="M1652.73,-374.78C1675.39,-367.4 1698.07,-355.91 1714,-338 1749.21,-298.41 1759.73,-264.52 1731,-220 1682.8,-145.3 1581.18,-112.26 1511.26,-97.96"/>
<polygon fill="#63b8ff" stroke="#63b8ff" points="1651.61,-371.46 1643.04,-377.7 1653.62,-378.17 1651.61,-371.46"/>
</a>
</g>
</g>
<!-- Node20 -->
<g id="Node000020" class="node">
<title>Node20</title>
<g id="a_Node000020"><a xlink:href="Camera_8cpp.html" target="_top" xlink:title="Implementation of the RayTracer::BVHCam renderer.">
<polygon fill="white" stroke="#666666" points="1762.5,-107 1637.5,-107 1637.5,-66 1762.5,-66 1762.5,-107"/>
<text text-anchor="start" x="1645.5" y="-95" font-family="Helvetica,sans-Serif" font-size="10.00">src/Objects/Plugins</text>
<text text-anchor="start" x="1645.5" y="-84" font-family="Helvetica,sans-Serif" font-size="10.00">/CorePlugin/Renderers</text>
<text text-anchor="middle" x="1700" y="-73" font-family="Helvetica,sans-Serif" font-size="10.00">/Camera/Camera.cpp</text>
</a>
</g>
</g>
<!-- Node1&#45;&gt;Node20 -->
<g id="edge45_Node000001_Node000020" class="edge">
<title>Node1&#45;&gt;Node20</title>
<g id="a_edge45_Node000001_Node000020"><a xlink:title=" ">
<path fill="none" stroke="#63b8ff" d="M1653.25,-379.29C1706.44,-371.81 1768.43,-358.86 1785,-338 1838.9,-270.13 1826.26,-219.22 1785,-143 1776.69,-127.66 1762.1,-115.88 1747.32,-107.21"/>
<polygon fill="#63b8ff" stroke="#63b8ff" points="1652.53,-375.86 1643.09,-380.67 1653.47,-382.79 1652.53,-375.86"/>
</a>
</g>
</g>
<!-- Node23 -->
<g id="Node000023" class="node">
<title>Node23</title>
<g id="a_Node000023"><a xlink:href="DirectionalLight_8cpp.html" target="_top" xlink:title=" ">
<polygon fill="white" stroke="#666666" points="1998.5,-338 1837.5,-338 1837.5,-297 1998.5,-297 1998.5,-338"/>
<text text-anchor="start" x="1845.5" y="-326" font-family="Helvetica,sans-Serif" font-size="10.00">src/Objects/Plugins</text>
<text text-anchor="start" x="1845.5" y="-315" font-family="Helvetica,sans-Serif" font-size="10.00">/CorePlugin/Lights/Directional</text>
<text text-anchor="middle" x="1918" y="-304" font-family="Helvetica,sans-Serif" font-size="10.00">Light/DirectionalLight.cpp</text>
</a>
</g>
</g>
<!-- Node1&#45;&gt;Node23 -->
<g id="edge34_Node000001_Node000023" class="edge">
<title>Node1&#45;&gt;Node23</title>
<g id="a_edge34_Node000001_Node000023"><a xlink:title=" ">
<path fill="none" stroke="#63b8ff" d="M1651.75,-372C1701.32,-362.26 1765.82,-349.52 1823,-338 1827.7,-337.05 1832.54,-336.07 1837.41,-335.08"/>
<polygon fill="#63b8ff" stroke="#63b8ff" points="1650.87,-368.61 1641.73,-373.97 1652.22,-375.48 1650.87,-368.61"/>
</a>
</g>
</g>
<!-- Node24 -->
<g id="Node000024" class="node">
<title>Node24</title>
<g id="a_Node000024"><a xlink:href="PointLight_8cpp.html" target="_top" xlink:title=" ">
<polygon fill="white" stroke="#666666" points="2173,-338 2017,-338 2017,-297 2173,-297 2173,-338"/>
<text text-anchor="start" x="2025" y="-326" font-family="Helvetica,sans-Serif" font-size="10.00">src/Objects/Plugins</text>
<text text-anchor="start" x="2025" y="-315" font-family="Helvetica,sans-Serif" font-size="10.00">/CorePlugin/Lights/PointLight</text>
<text text-anchor="middle" x="2095" y="-304" font-family="Helvetica,sans-Serif" font-size="10.00">/PointLight.cpp</text>
</a>
</g>
</g>
<!-- Node1&#45;&gt;Node24 -->
<g id="edge35_Node000001_Node000024" class="edge">
<title>Node1&#45;&gt;Node24</title>
<g id="a_edge35_Node000001_Node000024"><a xlink:title=" ">
<path fill="none" stroke="#63b8ff" d="M1653.15,-381.17C1741.53,-373.3 1885.19,-358.71 2008,-338 2010.9,-337.51 2013.85,-336.99 2016.82,-336.44"/>
<polygon fill="#63b8ff" stroke="#63b8ff" points="1652.84,-377.69 1643.18,-382.05 1653.45,-384.66 1652.84,-377.69"/>
</a>
</g>
</g>
<!-- Node25 -->
<g id="Node000025" class="node">
<title>Node25</title>
<g id="a_Node000025"><a xlink:href="Cylinder_8hpp.html" target="_top" xlink:title=" ">
<polygon fill="white" stroke="#666666" points="1704.5,-338 1579.5,-338 1579.5,-297 1704.5,-297 1704.5,-338"/>
<text text-anchor="start" x="1587.5" y="-326" font-family="Helvetica,sans-Serif" font-size="10.00">src/Objects/Plugins</text>
<text text-anchor="start" x="1587.5" y="-315" font-family="Helvetica,sans-Serif" font-size="10.00">/CorePlugin/Primitives</text>
<text text-anchor="middle" x="1642" y="-304" font-family="Helvetica,sans-Serif" font-size="10.00">/Cylinder/Cylinder.hpp</text>
</a>
</g>
</g>
<!-- Node1&#45;&gt;Node25 -->
<g id="edge36_Node000001_Node000025" class="edge">
<title>Node1&#45;&gt;Node25</title>
<g id="a_edge36_Node000001_Node000025"><a xlink:title=" ">
<path fill="none" stroke="#63b8ff" d="M1591.8,-366.96C1601.31,-357.78 1612.39,-347.08 1621.72,-338.07"/>
<polygon fill="#63b8ff" stroke="#63b8ff" points="1589.33,-364.47 1584.57,-373.94 1594.2,-369.51 1589.33,-364.47"/>
</a>
</g>
</g>
<!-- Node27 -->
<g id="Node000027" class="node">
<title>Node27</title>
<g id="a_Node000027"><a xlink:href="Plane_8hpp.html" target="_top" xlink:title=" ">
<polygon fill="white" stroke="#666666" points="1561.5,-338 1436.5,-338 1436.5,-297 1561.5,-297 1561.5,-338"/>
<text text-anchor="start" x="1444.5" y="-326" font-family="Helvetica,sans-Serif" font-size="10.00">src/Objects/Plugins</text>
<text text-anchor="start" x="1444.5" y="-315" font-family="Helvetica,sans-Serif" font-size="10.00">/CorePlugin/Primitives</text>
<text text-anchor="middle" x="1499" y="-304" font-family="Helvetica,sans-Serif" font-size="10.00">/Plane/Plane.hpp</text>
</a>
</g>
</g>
<!-- Node1&#45;&gt;Node27 -->
<g id="edge39_Node000001_Node000027" class="edge">
<title>Node1&#45;&gt;Node27</title>
<g id="a_edge39_Node000001_Node000027"><a xlink:title=" ">
<path fill="none" stroke="#63b8ff" d="M1548.23,-366.69C1538.91,-357.57 1528.11,-346.99 1519,-338.07"/>
<polygon fill="#63b8ff" stroke="#63b8ff" points="1546.04,-369.44 1555.63,-373.94 1550.93,-364.44 1546.04,-369.44"/>
</a>
</g>
</g>
<!-- Node29 -->
<g id="Node000029" class="node">
<title>Node29</title>
<g id="a_Node000029"><a xlink:href="Sphere_8hpp.html" target="_top" xlink:title=" ">
<polygon fill="white" stroke="#666666" points="1418.5,-338 1293.5,-338 1293.5,-297 1418.5,-297 1418.5,-338"/>
<text text-anchor="start" x="1301.5" y="-326" font-family="Helvetica,sans-Serif" font-size="10.00">src/Objects/Plugins</text>
<text text-anchor="start" x="1301.5" y="-315" font-family="Helvetica,sans-Serif" font-size="10.00">/CorePlugin/Primitives</text>
<text text-anchor="middle" x="1356" y="-304" font-family="Helvetica,sans-Serif" font-size="10.00">/Sphere/Sphere.hpp</text>
</a>
</g>
</g>
<!-- Node1&#45;&gt;Node29 -->
<g id="edge42_Node000001_Node000029" class="edge">
<title>Node1&#45;&gt;Node29</title>
<g id="a_edge42_Node000001_Node000029"><a xlink:title=" ">
<path fill="none" stroke="#63b8ff" d="M1517.07,-370.81C1486.52,-360.89 1447.99,-348.37 1416.27,-338.07"/>
<polygon fill="#63b8ff" stroke="#63b8ff" points="1516.1,-374.18 1526.69,-373.94 1518.26,-367.52 1516.1,-374.18"/>
</a>
</g>
</g>
<!-- Node31 -->
<g id="Node000031" class="node">
<title>Node31</title>
<g id="a_Node000031"><a xlink:href="BVH_8hpp.html" target="_top" xlink:title=" ">
<polygon fill="white" stroke="#666666" points="1093,-332.5 969,-332.5 969,-302.5 1093,-302.5 1093,-332.5"/>
<text text-anchor="start" x="977" y="-320.5" font-family="Helvetica,sans-Serif" font-size="10.00">src/SceneSystem/BVH</text>
<text text-anchor="middle" x="1031" y="-309.5" font-family="Helvetica,sans-Serif" font-size="10.00">/BVH.hpp</text>
</a>
</g>
</g>
<!-- Node1&#45;&gt;Node31 -->
<g id="edge46_Node000001_Node000031" class="edge">
<title>Node1&#45;&gt;Node31</title>
<g id="a_edge46_Node000001_Node000031"><a xlink:title=" ">
<path fill="none" stroke="#63b8ff" d="M1486.81,-377.27C1378.15,-363.26 1190.35,-339.05 1093.22,-326.52"/>
<polygon fill="#63b8ff" stroke="#63b8ff" points="1486.38,-380.75 1496.75,-378.55 1487.28,-373.8 1486.38,-380.75"/>
</a>
</g>
</g>
<!-- Node4 -->
<g id="Node000004" class="node">
<title>Node4</title>
<g id="a_Node000004"><a xlink:href="BVHCamPlugin_8cpp.html" target="_top" xlink:title=" ">
<polygon fill="white" stroke="#666666" points="1036,-178.5 846,-178.5 846,-148.5 1036,-148.5 1036,-178.5"/>
<text text-anchor="start" x="854" y="-166.5" font-family="Helvetica,sans-Serif" font-size="10.00">src/Objects/Plugins</text>
<text text-anchor="middle" x="941" y="-155.5" font-family="Helvetica,sans-Serif" font-size="10.00">/BVHCamPlugin/BVHCamPlugin.cpp</text>
</a>
</g>
</g>
<!-- Node3&#45;&gt;Node4 -->
<g id="edge3_Node000003_Node000004" class="edge">
<title>Node3&#45;&gt;Node4</title>
<g id="a_edge3_Node000003_Node000004"><a xlink:title=" ">
<path fill="none" stroke="#63b8ff" d="M750.56,-298.19C759.09,-276.74 775.95,-241.42 801,-220 823.95,-200.38 854.69,-187.16 881.52,-178.57"/>
<polygon fill="#63b8ff" stroke="#63b8ff" points="747.21,-297.15 746.94,-307.74 753.76,-299.63 747.21,-297.15"/>
</a>
</g>
</g>
<!-- Node5 -->
<g id="Node000005" class="node">
<title>Node5</title>
<g id="a_Node000005"><a xlink:href="CorePlugin_8cpp.html" target="_top" xlink:title="Core plugin implementation that provides primitives, materials and the camera.">
<polygon fill="white" stroke="#666666" points="1353,-178.5 1205,-178.5 1205,-148.5 1353,-148.5 1353,-178.5"/>
<text text-anchor="start" x="1213" y="-166.5" font-family="Helvetica,sans-Serif" font-size="10.00">src/Objects/Plugins</text>
<text text-anchor="middle" x="1279" y="-155.5" font-family="Helvetica,sans-Serif" font-size="10.00">/CorePlugin/CorePlugin.cpp</text>
</a>
</g>
</g>
<!-- Node3&#45;&gt;Node5 -->
<g id="edge4_Node000003_Node000005" class="edge">
<title>Node3&#45;&gt;Node5</title>
<g id="a_edge4_Node000003_Node000005"><a xlink:title=" ">
<path fill="none" stroke="#63b8ff" d="M816.84,-309.64C929.78,-298.59 1137.41,-276.55 1168,-261 1190.42,-249.6 1188.32,-236.84 1207,-220 1223.76,-204.89 1244.27,-189.34 1259.1,-178.56"/>
<polygon fill="#63b8ff" stroke="#63b8ff" points="816.49,-306.15 806.88,-310.61 817.17,-313.12 816.49,-306.15"/>
</a>
</g>
</g>
<!-- Node6 -->
<g id="Node000006" class="node">
<title>Node6</title>
<g id="a_Node000006"><a xlink:href="SceneWriter_8hpp.html" target="_top" xlink:title=" ">
<polygon fill="white" stroke="#666666" points="1159.5,-261 998.5,-261 998.5,-220 1159.5,-220 1159.5,-261"/>
<text text-anchor="start" x="1006.5" y="-249" font-family="Helvetica,sans-Serif" font-size="10.00">src/Objects/Plugins</text>
<text text-anchor="start" x="1006.5" y="-238" font-family="Helvetica,sans-Serif" font-size="10.00">/CorePlugin/Interfaces</text>
<text text-anchor="middle" x="1079" y="-227" font-family="Helvetica,sans-Serif" font-size="10.00">/SceneWriter/SceneWriter.hpp</text>
</a>
</g>
</g>
<!-- Node3&#45;&gt;Node6 -->
<g id="edge5_Node000003_Node000006" class="edge">
<title>Node3&#45;&gt;Node6</title>
<g id="a_edge5_Node000003_Node000006"><a xlink:title=" ">
<path fill="none" stroke="#63b8ff" d="M792.06,-305.74C845.85,-293.7 933.9,-273.98 998.3,-259.57"/>
<polygon fill="#63b8ff" stroke="#63b8ff" points="791.1,-302.37 782.1,-307.97 792.63,-309.2 791.1,-302.37"/>
</a>
</g>
</g>
<!-- Node8 -->
<g id="Node000008" class="node">
<title>Node8</title>
<g id="a_Node000008"><a xlink:href="Livescene_8hpp.html" target="_top" xlink:title=" ">
<polygon fill="white" stroke="#666666" points="678,-261 528,-261 528,-220 678,-220 678,-261"/>
<text text-anchor="start" x="536" y="-249" font-family="Helvetica,sans-Serif" font-size="10.00">src/Objects/Plugins</text>
<text text-anchor="start" x="536" y="-238" font-family="Helvetica,sans-Serif" font-size="10.00">/LivescenePlugin/Interfaces</text>
<text text-anchor="middle" x="603" y="-227" font-family="Helvetica,sans-Serif" font-size="10.00">/Livescene/Livescene.hpp</text>
</a>
</g>
</g>
<!-- Node3&#45;&gt;Node8 -->
<g id="edge8_Node000003_Node000008" class="edge">
<title>Node3&#45;&gt;Node8</title>
<g id="a_edge8_Node000003_Node000008"><a xlink:title=" ">
<path fill="none" stroke="#63b8ff" d="M718.79,-303.09C696.8,-291.39 664.62,-274.28 639.76,-261.05"/>
<polygon fill="#63b8ff" stroke="#63b8ff" points="717.35,-306.29 727.83,-307.9 720.64,-300.11 717.35,-306.29"/>
</a>
</g>
</g>
<!-- Node10 -->
<g id="Node000010" class="node">
<title>Node10</title>
<g id="a_Node000010"><a xlink:href="LivescenePlugin_8cpp.html" target="_top" xlink:title=" ">
<polygon fill="white" stroke="#666666" points="640,-184 490,-184 490,-143 640,-143 640,-184"/>
<text text-anchor="start" x="498" y="-172" font-family="Helvetica,sans-Serif" font-size="10.00">src/Objects/Plugins</text>
<text text-anchor="start" x="498" y="-161" font-family="Helvetica,sans-Serif" font-size="10.00">/LivescenePlugin/Livescene</text>
<text text-anchor="middle" x="565" y="-150" font-family="Helvetica,sans-Serif" font-size="10.00">Plugin.cpp</text>
</a>
</g>
</g>
<!-- Node3&#45;&gt;Node10 -->
<g id="edge11_Node000003_Node000010" class="edge">
<title>Node3&#45;&gt;Node10</title>
<g id="a_edge11_Node000003_Node000010"><a xlink:title=" ">
<path fill="none" stroke="#63b8ff" d="M703.32,-305.23C693.11,-302.47 682.17,-299.57 672,-297 604.28,-279.87 562.37,-315.76 519,-261 500.22,-237.29 524,-204.65 543.76,-184.06"/>
<polygon fill="#63b8ff" stroke="#63b8ff" points="702.66,-308.68 713.23,-307.92 704.5,-301.92 702.66,-308.68"/>
</a>
</g>
</g>
<!-- Node11 -->
<g id="Node000011" class="node">
<title>Node11</title>
<g id="a_Node000011"><a xlink:href="Parser_8hpp.html" target="_top" xlink:title=" ">
<polygon fill="white" stroke="#666666" points="240,-255.5 76,-255.5 76,-225.5 240,-225.5 240,-255.5"/>
<text text-anchor="start" x="84" y="-243.5" font-family="Helvetica,sans-Serif" font-size="10.00">src/SceneSystem/ConfigParser</text>
<text text-anchor="middle" x="158" y="-232.5" font-family="Helvetica,sans-Serif" font-size="10.00">/Parser.hpp</text>
</a>
</g>
</g>
<!-- Node3&#45;&gt;Node11 -->
<g id="edge12_Node000003_Node000011" class="edge">
<title>Node3&#45;&gt;Node11</title>
<g id="a_edge12_Node000003_Node000011"><a xlink:title=" ">
<path fill="none" stroke="#63b8ff" d="M707.05,-305.13C695.88,-302.06 683.52,-299.03 672,-297 486.19,-264.21 435.62,-288.82 249,-261 239.09,-259.52 228.65,-257.62 218.5,-255.58"/>
<polygon fill="#63b8ff" stroke="#63b8ff" points="706.33,-308.56 716.91,-307.93 708.24,-301.83 706.33,-308.56"/>
</a>
</g>
</g>
<!-- Node15 -->
<g id="Node000015" class="node">
<title>Node15</title>
<g id="a_Node000015"><a xlink:href="main_8cpp.html" target="_top" xlink:title="Entry point and CLI for the raytracer application.">
<polygon fill="white" stroke="#666666" points="501.5,-24.5 422.5,-24.5 422.5,-5.5 501.5,-5.5 501.5,-24.5"/>
<text text-anchor="middle" x="462" y="-12.5" font-family="Helvetica,sans-Serif" font-size="10.00">src/main.cpp</text>
</a>
</g>
</g>
<!-- Node3&#45;&gt;Node15 -->
<g id="edge32_Node000003_Node000015" class="edge">
<title>Node3&#45;&gt;Node15</title>
<g id="a_edge32_Node000003_Node000015"><a xlink:title=" ">
<path fill="none" stroke="#63b8ff" d="M703.95,-305.29C693.57,-302.49 682.39,-299.55 672,-297 599.95,-279.3 564.79,-309.9 509,-261 437.02,-197.91 454.29,-61.16 460.36,-24.95"/>
<polygon fill="#63b8ff" stroke="#63b8ff" points="703.03,-308.67 713.6,-307.93 704.88,-301.92 703.03,-308.67"/>
</a>
</g>
</g>
<!-- Node16 -->
<g id="Node000016" class="node">
<title>Node16</title>
<g id="a_Node000016"><a xlink:href="PluginManager_8hpp.html" target="_top" xlink:title="Plugin loader interface for dynamic plugins.">
<polygon fill="white" stroke="#666666" points="434,-255.5 258,-255.5 258,-225.5 434,-225.5 434,-255.5"/>
<text text-anchor="start" x="266" y="-243.5" font-family="Helvetica,sans-Serif" font-size="10.00">src/SceneSystem/PluginManager</text>
<text text-anchor="middle" x="346" y="-232.5" font-family="Helvetica,sans-Serif" font-size="10.00">/PluginManager.hpp</text>
</a>
</g>
</g>
<!-- Node3&#45;&gt;Node16 -->
<g id="edge17_Node000003_Node000016" class="edge">
<title>Node3&#45;&gt;Node16</title>
<g id="a_edge17_Node000003_Node000016"><a xlink:title=" ">
<path fill="none" stroke="#63b8ff" d="M705.18,-305.19C694.49,-302.29 682.84,-299.33 672,-297 573.42,-275.79 547.31,-278.47 448,-261 438.23,-259.28 427.96,-257.4 417.84,-255.51"/>
<polygon fill="#63b8ff" stroke="#63b8ff" points="704.52,-308.63 715.09,-307.93 706.39,-301.89 704.52,-308.63"/>
</a>
</g>
</g>
<!-- Node18 -->
<g id="Node000018" class="node">
<title>Node18</title>
<g id="a_Node000018"><a xlink:href="Scene_8hpp.html" target="_top" xlink:title="Scene container and ray query interface used by renderers.">
<polygon fill="white" stroke="#666666" points="828,-178.5 696,-178.5 696,-148.5 828,-148.5 828,-178.5"/>
<text text-anchor="start" x="704" y="-166.5" font-family="Helvetica,sans-Serif" font-size="10.00">src/SceneSystem/Scene</text>
<text text-anchor="middle" x="762" y="-155.5" font-family="Helvetica,sans-Serif" font-size="10.00">/Scene.hpp</text>
</a>
</g>
</g>
<!-- Node3&#45;&gt;Node18 -->
<g id="edge28_Node000003_Node000018" class="edge">
<title>Node3&#45;&gt;Node18</title>
<g id="a_edge28_Node000003_Node000018"><a xlink:title=" ">
<path fill="none" stroke="#63b8ff" d="M737.06,-298.35C730.56,-278.76 722.84,-246.77 730,-220 734.08,-204.74 743.48,-189.34 751.04,-178.64"/>
<polygon fill="#63b8ff" stroke="#63b8ff" points="733.79,-299.6 740.44,-307.84 740.38,-297.25 733.79,-299.6"/>
</a>
</g>
</g>
<!-- Node22 -->
<g id="Node000022" class="node">
<title>Node22</title>
<g id="a_Node000022"><a xlink:href="SceneNodeHelpers_8hpp.html" target="_top" xlink:title=" ">
<polygon fill="white" stroke="#666666" points="980,-255.5 810,-255.5 810,-225.5 980,-225.5 980,-255.5"/>
<text text-anchor="start" x="818" y="-243.5" font-family="Helvetica,sans-Serif" font-size="10.00">src/SceneSystem/SceneNode</text>
<text text-anchor="middle" x="895" y="-232.5" font-family="Helvetica,sans-Serif" font-size="10.00">Helpers/SceneNodeHelpers.hpp</text>
</a>
</g>
</g>
<!-- Node3&#45;&gt;Node22 -->
<g id="edge29_Node000003_Node000022" class="edge">
<title>Node3&#45;&gt;Node22</title>
<g id="a_edge29_Node000003_Node000022"><a xlink:title=" ">
<path fill="none" stroke="#63b8ff" d="M770.53,-303.32C797.46,-289.95 839,-269.31 866.59,-255.61"/>
<polygon fill="#63b8ff" stroke="#63b8ff" points="768.72,-300.31 761.32,-307.9 771.83,-306.58 768.72,-300.31"/>
</a>
</g>
</g>
<!-- Node6&#45;&gt;Node5 -->
<g id="edge6_Node000006_Node000005" class="edge">
<title>Node6&#45;&gt;Node5</title>
<g id="a_edge6_Node000006_Node000005"><a xlink:title=" ">
<path fill="none" stroke="#63b8ff" d="M1140.58,-216.41C1173.55,-204.05 1213.08,-189.22 1241.45,-178.58"/>
<polygon fill="#63b8ff" stroke="#63b8ff" points="1139.16,-213.2 1131.03,-219.99 1141.62,-219.76 1139.16,-213.2"/>
</a>
</g>
</g>
<!-- Node7 -->
<g id="Node000007" class="node">
<title>Node7</title>
<g id="a_Node000007"><a xlink:href="SceneWriter_8cpp.html" target="_top" xlink:title=" ">
<polygon fill="white" stroke="#666666" points="1130.5,-107 969.5,-107 969.5,-66 1130.5,-66 1130.5,-107"/>
<text text-anchor="start" x="977.5" y="-95" font-family="Helvetica,sans-Serif" font-size="10.00">src/Objects/Plugins</text>
<text text-anchor="start" x="977.5" y="-84" font-family="Helvetica,sans-Serif" font-size="10.00">/CorePlugin/Interfaces</text>
<text text-anchor="middle" x="1050" y="-73" font-family="Helvetica,sans-Serif" font-size="10.00">/SceneWriter/SceneWriter.cpp</text>
</a>
</g>
</g>
<!-- Node6&#45;&gt;Node7 -->
<g id="edge7_Node000006_Node000007" class="edge">
<title>Node6&#45;&gt;Node7</title>
<g id="a_edge7_Node000006_Node000007"><a xlink:title=" ">
<path fill="none" stroke="#63b8ff" d="M1073.37,-209.98C1067.6,-179.76 1058.8,-133.64 1053.81,-107.47"/>
<polygon fill="#63b8ff" stroke="#63b8ff" points="1069.96,-210.77 1075.27,-219.94 1076.83,-209.46 1069.96,-210.77"/>
</a>
</g>
</g>
<!-- Node9 -->
<g id="Node000009" class="node">
<title>Node9</title>
<g id="a_Node000009"><a xlink:href="Livescene_8cpp.html" target="_top" xlink:title=" ">
<polygon fill="white" stroke="#666666" points="734,-107 584,-107 584,-66 734,-66 734,-107"/>
<text text-anchor="start" x="592" y="-95" font-family="Helvetica,sans-Serif" font-size="10.00">src/Objects/Plugins</text>
<text text-anchor="start" x="592" y="-84" font-family="Helvetica,sans-Serif" font-size="10.00">/LivescenePlugin/Interfaces</text>
<text text-anchor="middle" x="659" y="-73" font-family="Helvetica,sans-Serif" font-size="10.00">/Livescene/Livescene.cpp</text>
</a>
</g>
</g>
<!-- Node8&#45;&gt;Node9 -->
<g id="edge9_Node000008_Node000009" class="edge">
<title>Node8&#45;&gt;Node9</title>
<g id="a_edge9_Node000008_Node000009"><a xlink:title=" ">
<path fill="none" stroke="#63b8ff" d="M630.94,-212.26C637.98,-203.86 644.74,-194.14 649,-184 659.5,-159 660.75,-127.28 660.23,-107.18"/>
<polygon fill="#63b8ff" stroke="#63b8ff" points="628.21,-210.07 624.18,-219.87 633.44,-214.72 628.21,-210.07"/>
</a>
</g>
</g>
<!-- Node8&#45;&gt;Node10 -->
<g id="edge10_Node000008_Node000010" class="edge">
<title>Node8&#45;&gt;Node10</title>
<g id="a_edge10_Node000008_Node000010"><a xlink:title=" ">
<path fill="none" stroke="#63b8ff" d="M588.47,-210.83C583.94,-201.89 579.05,-192.24 574.92,-184.07"/>
<polygon fill="#63b8ff" stroke="#63b8ff" points="585.37,-212.46 593.02,-219.79 591.62,-209.29 585.37,-212.46"/>
</a>
</g>
</g>
<!-- Node12 -->
<g id="Node000012" class="node">
<title>Node12</title>
<g id="a_Node000012"><a xlink:href="Parser_8cpp.html" target="_top" xlink:title=" ">
<polygon fill="white" stroke="#666666" points="164,-178.5 0,-178.5 0,-148.5 164,-148.5 164,-178.5"/>
<text text-anchor="start" x="8" y="-166.5" font-family="Helvetica,sans-Serif" font-size="10.00">src/SceneSystem/ConfigParser</text>
<text text-anchor="middle" x="82" y="-155.5" font-family="Helvetica,sans-Serif" font-size="10.00">/Parser.cpp</text>
</a>
</g>
</g>
<!-- Node11&#45;&gt;Node12 -->
<g id="edge13_Node000011_Node000012" class="edge">
<title>Node11&#45;&gt;Node12</title>
<g id="a_edge13_Node000011_Node000012"><a xlink:title=" ">
<path fill="none" stroke="#63b8ff" d="M136.53,-218.32C123.63,-205.58 107.57,-189.74 96.23,-178.54"/>
<polygon fill="#63b8ff" stroke="#63b8ff" points="134.13,-220.86 143.7,-225.39 139.05,-215.88 134.13,-220.86"/>
</a>
</g>
</g>
<!-- Node13 -->
<g id="Node000013" class="node">
<title>Node13</title>
<g id="a_Node000013"><a xlink:href="SceneLoader_8hpp.html" target="_top" xlink:title="Loads scene graphs from parsed configuration nodes.">
<polygon fill="white" stroke="#666666" points="358.5,-101.5 193.5,-101.5 193.5,-71.5 358.5,-71.5 358.5,-101.5"/>
<text text-anchor="start" x="201.5" y="-89.5" font-family="Helvetica,sans-Serif" font-size="10.00">src/SceneSystem/SceneLoader</text>
<text text-anchor="middle" x="276" y="-78.5" font-family="Helvetica,sans-Serif" font-size="10.00">/SceneLoader.hpp</text>
</a>
</g>
</g>
<!-- Node11&#45;&gt;Node13 -->
<g id="edge14_Node000011_Node000013" class="edge">
<title>Node11&#45;&gt;Node13</title>
<g id="a_edge14_Node000011_Node000013"><a xlink:title=" ">
<path fill="none" stroke="#63b8ff" d="M175.25,-217.28C199.8,-185.66 244.1,-128.59 264.79,-101.94"/>
<polygon fill="#63b8ff" stroke="#63b8ff" points="172.26,-215.43 168.89,-225.47 177.79,-219.72 172.26,-215.43"/>
</a>
</g>
</g>
<!-- Node14 -->
<g id="Node000014" class="node">
<title>Node14</title>
<g id="a_Node000014"><a xlink:href="SceneLoader_8cpp.html" target="_top" xlink:title="Scene parsing and construction from configuration nodes.">
<polygon fill="white" stroke="#666666" points="358.5,-30 193.5,-30 193.5,0 358.5,0 358.5,-30"/>
<text text-anchor="start" x="201.5" y="-18" font-family="Helvetica,sans-Serif" font-size="10.00">src/SceneSystem/SceneLoader</text>
<text text-anchor="middle" x="276" y="-7" font-family="Helvetica,sans-Serif" font-size="10.00">/SceneLoader.cpp</text>
</a>
</g>
</g>
<!-- Node13&#45;&gt;Node14 -->
<g id="edge15_Node000013_Node000014" class="edge">
<title>Node13&#45;&gt;Node14</title>
<g id="a_edge15_Node000013_Node000014"><a xlink:title=" ">
<path fill="none" stroke="#63b8ff" d="M276,-61.25C276,-50.81 276,-38.99 276,-30.04"/>
<polygon fill="#63b8ff" stroke="#63b8ff" points="272.5,-61.44 276,-71.44 279.5,-61.44 272.5,-61.44"/>
</a>
</g>
</g>
<!-- Node13&#45;&gt;Node15 -->
<g id="edge16_Node000013_Node000015" class="edge">
<title>Node13&#45;&gt;Node15</title>
<g id="a_edge16_Node000013_Node000015"><a xlink:title=" ">
<path fill="none" stroke="#63b8ff" d="M323.25,-67.85C360.32,-53.99 410.32,-35.31 439.07,-24.57"/>
<polygon fill="#63b8ff" stroke="#63b8ff" points="321.78,-64.66 313.64,-71.44 324.23,-71.21 321.78,-64.66"/>
</a>
</g>
</g>
<!-- Node16&#45;&gt;Node13 -->
<g id="edge27_Node000016_Node000013" class="edge">
<title>Node16&#45;&gt;Node13</title>
<g id="a_edge27_Node000016_Node000013"><a xlink:title=" ">
<path fill="none" stroke="#63b8ff" d="M291.81,-221.05C275.09,-212.51 258.57,-200.5 249,-184 233.55,-157.36 252.37,-121.43 265.46,-101.79"/>
<polygon fill="#63b8ff" stroke="#63b8ff" points="290.55,-224.32 301.08,-225.44 293.54,-217.99 290.55,-224.32"/>
</a>
</g>
</g>
<!-- Node17 -->
<g id="Node000017" class="node">
<title>Node17</title>
<g id="a_Node000017"><a xlink:href="PluginManager_8cpp.html" target="_top" xlink:title="Runtime plugin loader and initializer registry implementation.">
<polygon fill="white" stroke="#666666" points="434,-178.5 258,-178.5 258,-148.5 434,-148.5 434,-178.5"/>
<text text-anchor="start" x="266" y="-166.5" font-family="Helvetica,sans-Serif" font-size="10.00">src/SceneSystem/PluginManager</text>
<text text-anchor="middle" x="346" y="-155.5" font-family="Helvetica,sans-Serif" font-size="10.00">/PluginManager.cpp</text>
</a>
</g>
</g>
<!-- Node16&#45;&gt;Node17 -->
<g id="edge18_Node000016_Node000017" class="edge">
<title>Node16&#45;&gt;Node17</title>
<g id="a_edge18_Node000016_Node000017"><a xlink:title=" ">
<path fill="none" stroke="#63b8ff" d="M346,-215.04C346,-202.95 346,-188.79 346,-178.54"/>
<polygon fill="#63b8ff" stroke="#63b8ff" points="342.5,-215.39 346,-225.39 349.5,-215.39 342.5,-215.39"/>
</a>
</g>
</g>
<!-- Node16&#45;&gt;Node18 -->
<g id="edge19_Node000016_Node000018" class="edge">
<title>Node16&#45;&gt;Node18</title>
<g id="a_edge19_Node000016_Node000018"><a xlink:title=" ">
<path fill="none" stroke="#63b8ff" d="M433.61,-223.7C511.93,-209.58 624.99,-189.2 695.93,-176.41"/>
<polygon fill="#63b8ff" stroke="#63b8ff" points="432.98,-220.26 423.76,-225.48 434.22,-227.15 432.98,-220.26"/>
</a>
</g>
</g>
<!-- Node18&#45;&gt;Node7 -->
<g id="edge21_Node000018_Node000007" class="edge">
<title>Node18&#45;&gt;Node7</title>
<g id="a_edge21_Node000018_Node000007"><a xlink:title=" ">
<path fill="none" stroke="#63b8ff" d="M825.57,-145.94C869.67,-134.46 928.58,-119.12 974.98,-107.04"/>
<polygon fill="#63b8ff" stroke="#63b8ff" points="824.63,-142.57 815.83,-148.48 826.39,-149.35 824.63,-142.57"/>
</a>
</g>
</g>
<!-- Node18&#45;&gt;Node9 -->
<g id="edge23_Node000018_Node000009" class="edge">
<title>Node18&#45;&gt;Node9</title>
<g id="a_edge23_Node000018_Node000009"><a xlink:title=" ">
<path fill="none" stroke="#63b8ff" d="M734.27,-142.31C719.31,-131.41 700.92,-118.02 686.06,-107.2"/>
<polygon fill="#63b8ff" stroke="#63b8ff" points="732.48,-145.34 742.63,-148.39 736.6,-139.68 732.48,-145.34"/>
</a>
</g>
</g>
<!-- Node18&#45;&gt;Node13 -->
<g id="edge25_Node000018_Node000013" class="edge">
<title>Node18&#45;&gt;Node13</title>
<g id="a_edge25_Node000018_Node000013"><a xlink:title=" ">
<path fill="none" stroke="#63b8ff" d="M685.55,-149.06C673.33,-146.98 660.82,-144.9 649,-143 549.29,-126.98 434.32,-110.12 358.68,-99.24"/>
<polygon fill="#63b8ff" stroke="#63b8ff" points="685.27,-152.56 695.72,-150.8 686.45,-145.66 685.27,-152.56"/>
</a>
</g>
</g>
<!-- Node18&#45;&gt;Node15 -->
<g id="edge26_Node000018_Node000015" class="edge">
<title>Node18&#45;&gt;Node15</title>
<g id="a_edge26_Node000018_Node000015"><a xlink:title=" ">
<path fill="none" stroke="#63b8ff" d="M764.27,-138.24C764.89,-116.29 761.97,-84.63 743,-66 709.41,-33.02 570.89,-21.45 501.7,-17.68"/>
<polygon fill="#63b8ff" stroke="#63b8ff" points="760.77,-138.25 763.71,-148.43 767.76,-138.64 760.77,-138.25"/>
</a>
</g>
</g>
<!-- Node18&#45;&gt;Node19 -->
<g id="edge20_Node000018_Node000019" class="edge">
<title>Node18&#45;&gt;Node19</title>
<g id="a_edge20_Node000018_Node000019"><a xlink:title=" ">
<path fill="none" stroke="#63b8ff" d="M821.42,-146.11C826.66,-144.95 831.91,-143.89 837,-143 936.6,-125.57 1227.62,-102.88 1364.82,-92.76"/>
<polygon fill="#63b8ff" stroke="#63b8ff" points="820.32,-142.78 811.37,-148.45 821.91,-149.59 820.32,-142.78"/>
</a>
</g>
</g>
<!-- Node18&#45;&gt;Node20 -->
<g id="edge22_Node000018_Node000020" class="edge">
<title>Node18&#45;&gt;Node20</title>
<g id="a_edge22_Node000018_Node000020"><a xlink:title=" ">
<path fill="none" stroke="#63b8ff" d="M820.21,-146.15C825.85,-144.93 831.52,-143.85 837,-143 1137.4,-96.52 1217,-131.38 1520,-107 1559.01,-103.86 1602.65,-99.16 1637.19,-95.17"/>
<polygon fill="#63b8ff" stroke="#63b8ff" points="819.08,-142.82 810.11,-148.46 820.64,-149.64 819.08,-142.82"/>
</a>
</g>
</g>
<!-- Node21 -->
<g id="Node000021" class="node">
<title>Node21</title>
<g id="a_Node000021"><a xlink:href="Scene_8cpp.html" target="_top" xlink:title="Implementation of the RayTracer::Scene container and utilities.">
<polygon fill="white" stroke="#666666" points="922,-101.5 790,-101.5 790,-71.5 922,-71.5 922,-101.5"/>
<text text-anchor="start" x="798" y="-89.5" font-family="Helvetica,sans-Serif" font-size="10.00">src/SceneSystem/Scene</text>
<text text-anchor="middle" x="856" y="-78.5" font-family="Helvetica,sans-Serif" font-size="10.00">/Scene.cpp</text>
</a>
</g>
</g>
<!-- Node18&#45;&gt;Node21 -->
<g id="edge24_Node000018_Node000021" class="edge">
<title>Node18&#45;&gt;Node21</title>
<g id="a_edge24_Node000018_Node000021"><a xlink:title=" ">
<path fill="none" stroke="#63b8ff" d="M787.66,-142.03C803.76,-129.18 824.11,-112.94 838.4,-101.54"/>
<polygon fill="#63b8ff" stroke="#63b8ff" points="785.31,-139.42 779.68,-148.39 789.68,-144.89 785.31,-139.42"/>
</a>
</g>
</g>
<!-- Node22&#45;&gt;Node4 -->
<g id="edge30_Node000022_Node000004" class="edge">
<title>Node22&#45;&gt;Node4</title>
<g id="a_edge30_Node000022_Node000004"><a xlink:title=" ">
<path fill="none" stroke="#63b8ff" d="M909.1,-216.51C916.7,-204.11 925.84,-189.21 932.39,-178.54"/>
<polygon fill="#63b8ff" stroke="#63b8ff" points="905.9,-215.04 903.65,-225.39 911.86,-218.7 905.9,-215.04"/>
</a>
</g>
</g>
<!-- Node22&#45;&gt;Node5 -->
<g id="edge31_Node000022_Node000005" class="edge">
<title>Node22&#45;&gt;Node5</title>
<g id="a_edge31_Node000022_Node000005"><a xlink:title=" ">
<path fill="none" stroke="#63b8ff" d="M971.79,-223.47C977.61,-222.28 983.4,-221.12 989,-220 1062.27,-205.39 1146.11,-189.43 1204.74,-178.39"/>
<polygon fill="#63b8ff" stroke="#63b8ff" points="971.08,-220.04 961.99,-225.47 972.48,-226.9 971.08,-220.04"/>
</a>
</g>
</g>
<!-- Node25&#45;&gt;Node5 -->
<g id="edge37_Node000025_Node000005" class="edge">
<title>Node25&#45;&gt;Node5</title>
<g id="a_edge37_Node000025_Node000005"><a xlink:title=" ">
<path fill="none" stroke="#63b8ff" d="M1688.34,-290.78C1698.65,-282.69 1708.23,-272.73 1714,-261 1722.04,-244.65 1726.04,-233.68 1714,-220 1690.57,-193.39 1470.98,-176.13 1353.06,-168.69"/>
<polygon fill="#63b8ff" stroke="#63b8ff" points="1685.99,-288.16 1679.97,-296.87 1690.11,-293.82 1685.99,-288.16"/>
</a>
</g>
</g>
<!-- Node26 -->
<g id="Node000026" class="node">
<title>Node26</title>
<g id="a_Node000026"><a xlink:href="Cylinder_8cpp.html" target="_top" xlink:title=" ">
<polygon fill="white" stroke="#666666" points="1704.5,-261 1579.5,-261 1579.5,-220 1704.5,-220 1704.5,-261"/>
<text text-anchor="start" x="1587.5" y="-249" font-family="Helvetica,sans-Serif" font-size="10.00">src/Objects/Plugins</text>
<text text-anchor="start" x="1587.5" y="-238" font-family="Helvetica,sans-Serif" font-size="10.00">/CorePlugin/Primitives</text>
<text text-anchor="middle" x="1642" y="-227" font-family="Helvetica,sans-Serif" font-size="10.00">/Cylinder/Cylinder.cpp</text>
</a>
</g>
</g>
<!-- Node25&#45;&gt;Node26 -->
<g id="edge38_Node000025_Node000026" class="edge">
<title>Node25&#45;&gt;Node26</title>
<g id="a_edge38_Node000025_Node000026"><a xlink:title=" ">
<path fill="none" stroke="#63b8ff" d="M1642,-286.69C1642,-278.08 1642,-268.9 1642,-261.07"/>
<polygon fill="#63b8ff" stroke="#63b8ff" points="1638.5,-286.79 1642,-296.79 1645.5,-286.79 1638.5,-286.79"/>
</a>
</g>
</g>
<!-- Node27&#45;&gt;Node5 -->
<g id="edge40_Node000027_Node000005" class="edge">
<title>Node27&#45;&gt;Node5</title>
<g id="a_edge40_Node000027_Node000005"><a xlink:title=" ">
<path fill="none" stroke="#63b8ff" d="M1466.36,-290.74C1440.65,-270.78 1403.65,-242.77 1370,-220 1348.08,-205.17 1322.26,-189.59 1303.73,-178.73"/>
<polygon fill="#63b8ff" stroke="#63b8ff" points="1464.26,-293.54 1474.3,-296.92 1468.56,-288.01 1464.26,-293.54"/>
</a>
</g>
</g>
<!-- Node28 -->
<g id="Node000028" class="node">
<title>Node28</title>
<g id="a_Node000028"><a xlink:href="Plane_8cpp.html" target="_top" xlink:title=" ">
<polygon fill="white" stroke="#666666" points="1561.5,-261 1436.5,-261 1436.5,-220 1561.5,-220 1561.5,-261"/>
<text text-anchor="start" x="1444.5" y="-249" font-family="Helvetica,sans-Serif" font-size="10.00">src/Objects/Plugins</text>
<text text-anchor="start" x="1444.5" y="-238" font-family="Helvetica,sans-Serif" font-size="10.00">/CorePlugin/Primitives</text>
<text text-anchor="middle" x="1499" y="-227" font-family="Helvetica,sans-Serif" font-size="10.00">/Plane/Plane.cpp</text>
</a>
</g>
</g>
<!-- Node27&#45;&gt;Node28 -->
<g id="edge41_Node000027_Node000028" class="edge">
<title>Node27&#45;&gt;Node28</title>
<g id="a_edge41_Node000027_Node000028"><a xlink:title=" ">
<path fill="none" stroke="#63b8ff" d="M1499,-286.69C1499,-278.08 1499,-268.9 1499,-261.07"/>
<polygon fill="#63b8ff" stroke="#63b8ff" points="1495.5,-286.79 1499,-296.79 1502.5,-286.79 1495.5,-286.79"/>
</a>
</g>
</g>
<!-- Node29&#45;&gt;Node5 -->
<g id="edge43_Node000029_Node000005" class="edge">
<title>Node29&#45;&gt;Node5</title>
<g id="a_edge43_Node000029_Node000005"><a xlink:title=" ">
<path fill="none" stroke="#63b8ff" d="M1360.67,-286.67C1362.36,-266.68 1361.7,-240.4 1351,-220 1341.55,-201.97 1323.34,-188.02 1307.6,-178.61"/>
<polygon fill="#63b8ff" stroke="#63b8ff" points="1357.17,-286.44 1359.58,-296.76 1364.13,-287.19 1357.17,-286.44"/>
</a>
</g>
</g>
<!-- Node30 -->
<g id="Node000030" class="node">
<title>Node30</title>
<g id="a_Node000030"><a xlink:href="Sphere_8cpp.html" target="_top" xlink:title=" ">
<polygon fill="white" stroke="#666666" points="1341.5,-261 1216.5,-261 1216.5,-220 1341.5,-220 1341.5,-261"/>
<text text-anchor="start" x="1224.5" y="-249" font-family="Helvetica,sans-Serif" font-size="10.00">src/Objects/Plugins</text>
<text text-anchor="start" x="1224.5" y="-238" font-family="Helvetica,sans-Serif" font-size="10.00">/CorePlugin/Primitives</text>
<text text-anchor="middle" x="1279" y="-227" font-family="Helvetica,sans-Serif" font-size="10.00">/Sphere/Sphere.cpp</text>
</a>
</g>
</g>
<!-- Node29&#45;&gt;Node30 -->
<g id="edge44_Node000029_Node000030" class="edge">
<title>Node29&#45;&gt;Node30</title>
<g id="a_edge44_Node000029_Node000030"><a xlink:title=" ">
<path fill="none" stroke="#63b8ff" d="M1328.58,-289.79C1318.85,-280.32 1308.1,-269.84 1299.1,-261.07"/>
<polygon fill="#63b8ff" stroke="#63b8ff" points="1326.16,-292.32 1335.77,-296.79 1331.05,-287.31 1326.16,-292.32"/>
</a>
</g>
</g>
<!-- Node31&#45;&gt;Node18 -->
<g id="edge47_Node000031_Node000018" class="edge">
<title>Node31&#45;&gt;Node18</title>
<g id="a_edge47_Node000031_Node000018"><a xlink:title=" ">
<path fill="none" stroke="#63b8ff" d="M958.8,-306.42C900.54,-296.98 824.52,-281.29 801,-261 776.1,-239.52 766.89,-199.81 763.65,-178.64"/>
<polygon fill="#63b8ff" stroke="#63b8ff" points="958.3,-309.88 968.72,-307.99 959.4,-302.97 958.3,-309.88"/>
</a>
</g>
</g>
</g>
</svg>

<g id="navigator" transform="translate(0 0)" fill="#404254">
  <rect fill="#f2f5e9" fill-opacity="0.5" stroke="#606060" stroke-width=".5" x="0" y="0" width="60" height="60"/>
  <use id="zoomplus" xlink:href="#zoomPlus" x="17" y="9" onmousedown="handleZoom(evt,'in')"/>
  <use id="zoomminus" xlink:href="#zoomMin" x="42" y="9" onmousedown="handleZoom(evt,'out')"/>
  <use id="reset" xlink:href="#resetDef" x="30" y="36" onmousedown="handleReset()"/>
   <use id="arrowup" xlink:href="#arrowUp" x="0" y="0" onmousedown="handlePan(0,-1)"/>
  <use id="arrowright" xlink:href="#arrowRight" x="0" y="0" onmousedown="handlePan(1,0)"/>
  <use id="arrowdown" xlink:href="#arrowDown" x="0" y="0" onmousedown="handlePan(0,1)"/>
  <use id="arrowleft" xlink:href="#arrowLeft" x="0" y="0" onmousedown="handlePan(-1,0)"/>
</g>
<svg viewBox="0 0 15 15" width="100%" height="30px" preserveAspectRatio="xMaxYMin meet">
 <g id="arrow_out" transform="scale(0.3 0.3)">
  <a xlink:href="APrimitive_8hpp__dep__incl_org.svg" target="_base">
   <rect id="button" ry="5" rx="5" y="6" x="6" height="38" width="38"
        fill="#f2f5e9" fill-opacity="0.5" stroke="#606060" stroke-width="1.0"/>
   <path id="arrow"
     d="M 11.500037,31.436501 C 11.940474,20.09759 22.043105,11.32322 32.158766,21.979434 L 37.068811,17.246167 C 37.068811,17.246167 37.088388,32 37.088388,32 L 22.160133,31.978069 C 22.160133,31.978069 26.997745,27.140456 26.997745,27.140456 C 18.528582,18.264221 13.291696,25.230495 11.500037,31.436501 z"
     style="fill:#404040;"/>
  </a>
 </g>
</svg>

<style type='text/css'>
<![CDATA[
[data-mouse-over-selected='false'] { opacity: 0.7; }
[data-mouse-over-selected='true']  { opacity: 1.0; }
]]>
</style>
<script type="application/ecmascript"><![CDATA[
document.addEventListener('DOMContentLoaded', (event) => {
  highlightEdges();
  highlightAdjacentNodes();
});
]]></script>
</svg>
