<?xml version="1.0" encoding="UTF-8" standalone="no"?>
<!DOCTYPE svg PUBLIC "-//W3C//DTD SVG 1.1//EN"
 "http://www.w3.org/Graphics/SVG/1.1/DTD/svg11.dtd">
<!-- Generated by graphviz version 2.43.0 (0)
 -->
<!-- Title: src/Objects/Abstracts/APrimitive/APrimitive.hpp Pages: 1 -->
<svg width="716pt" height="390pt"
 viewBox="0.00 0.00 716.00 390.00" xmlns="http://www.w3.org/2000/svg" xmlns:xlink="http://www.w3.org/1999/xlink">
<g id="graph0" class="graph" transform="scale(1 1) rotate(0) translate(4 386)">
<title>src/Objects/Abstracts/APrimitive/APrimitive.hpp</title>
<!-- Node1 -->
<g id="Node000001" class="node">
<title>Node1</title>
<g id="a_Node000001"><a xlink:title=" ">
<polygon fill="#999999" stroke="#666666" points="511,-382 365,-382 365,-352 511,-352 511,-382"/>
<text text-anchor="start" x="373" y="-370" font-family="Helvetica,sans-Serif" font-size="10.00">src/Objects/Abstracts</text>
<text text-anchor="middle" x="438" y="-359" font-family="Helvetica,sans-Serif" font-size="10.00">/APrimitive/APrimitive.hpp</text>
</a>
</g>
</g>
<!-- Node2 -->
<g id="Node000002" class="node">
<title>Node2</title>
<g id="a_Node000002"><a xlink:href="IMaterial_8hpp.html" target="_top" xlink:title=" ">
<polygon fill="white" stroke="#666666" points="316,-316 226,-316 226,-297 316,-297 316,-316"/>
<text text-anchor="middle" x="271" y="-304" font-family="Helvetica,sans-Serif" font-size="10.00">../IMaterial.hpp</text>
</a>
</g>
</g>
<!-- Node1&#45;&gt;Node2 -->
<g id="edge1_Node000001_Node000002" class="edge">
<title>Node1&#45;&gt;Node2</title>
<g id="a_edge1_Node000001_Node000002"><a xlink:title=" ">
<path fill="none" stroke="#63b8ff" d="M398,-351.99C369.76,-342.1 332.32,-328.98 305.42,-319.56"/>
<polygon fill="#63b8ff" stroke="#63b8ff" points="306.26,-316.14 295.66,-316.14 303.94,-322.75 306.26,-316.14"/>
</a>
</g>
</g>
<!-- Node11 -->
<g id="Node000011" class="node">
<title>Node11</title>
<g id="a_Node000011"><a xlink:title=" ">
<polygon fill="#e0e0e0" stroke="#999999" points="400,-189.5 342,-189.5 342,-170.5 400,-170.5 400,-189.5"/>
<text text-anchor="middle" x="371" y="-177.5" font-family="Helvetica,sans-Serif" font-size="10.00">memory</text>
</a>
</g>
</g>
<!-- Node1&#45;&gt;Node11 -->
<g id="edge14_Node000001_Node000011" class="edge">
<title>Node1&#45;&gt;Node11</title>
<g id="a_edge14_Node000001_Node000011"><a xlink:title=" ">
<path fill="none" stroke="#63b8ff" d="M424.89,-351.73C416.86,-342.25 407,-329.17 401,-316 383.21,-276.99 375.64,-226.71 372.69,-199.87"/>
<polygon fill="#63b8ff" stroke="#63b8ff" points="376.14,-199.21 371.67,-189.61 369.18,-199.91 376.14,-199.21"/>
</a>
</g>
</g>
<!-- Node12 -->
<g id="Node000012" class="node">
<title>Node12</title>
<g id="a_Node000012"><a xlink:title=" ">
<polygon fill="#e0e0e0" stroke="#999999" points="466,-316 410,-316 410,-297 466,-297 466,-316"/>
<text text-anchor="middle" x="438" y="-304" font-family="Helvetica,sans-Serif" font-size="10.00">optional</text>
</a>
</g>
</g>
<!-- Node1&#45;&gt;Node12 -->
<g id="edge15_Node000001_Node000012" class="edge">
<title>Node1&#45;&gt;Node12</title>
<g id="a_edge15_Node000001_Node000012"><a xlink:title=" ">
<path fill="none" stroke="#63b8ff" d="M438,-351.84C438,-344.21 438,-334.7 438,-326.45"/>
<polygon fill="#63b8ff" stroke="#63b8ff" points="441.5,-326.27 438,-316.27 434.5,-326.27 441.5,-326.27"/>
</a>
</g>
</g>
<!-- Node13 -->
<g id="Node000013" class="node">
<title>Node13</title>
<g id="a_Node000013"><a xlink:href="AABB_8hpp.html" target="_top" xlink:title=" ">
<polygon fill="white" stroke="#666666" points="576,-261 454,-261 454,-231 576,-231 576,-261"/>
<text text-anchor="start" x="462" y="-249" font-family="Helvetica,sans-Serif" font-size="10.00">../../../Geometry/AABB</text>
<text text-anchor="middle" x="515" y="-238" font-family="Helvetica,sans-Serif" font-size="10.00">/AABB.hpp</text>
</a>
</g>
</g>
<!-- Node1&#45;&gt;Node13 -->
<g id="edge16_Node000001_Node000013" class="edge">
<title>Node1&#45;&gt;Node13</title>
<g id="a_edge16_Node000001_Node000013"><a xlink:title=" ">
<path fill="none" stroke="#63b8ff" d="M449.12,-351.86C456.71,-342.01 466.82,-328.46 475,-316 484.79,-301.1 494.85,-283.73 502.43,-270.15"/>
<polygon fill="#63b8ff" stroke="#63b8ff" points="505.7,-271.47 507.48,-261.02 499.58,-268.08 505.7,-271.47"/>
</a>
</g>
</g>
<!-- Node16 -->
<g id="Node000016" class="node">
<title>Node16</title>
<g id="a_Node000016"><a xlink:href="Ray_8hpp.html" target="_top" xlink:title="Ray primitive used to represent a parametric line (origin + direction).">
<polygon fill="white" stroke="#666666" points="708,-189.5 622,-189.5 622,-170.5 708,-170.5 708,-189.5"/>
<text text-anchor="middle" x="665" y="-177.5" font-family="Helvetica,sans-Serif" font-size="10.00">../Ray/Ray.hpp</text>
</a>
</g>
</g>
<!-- Node1&#45;&gt;Node16 -->
<g id="edge24_Node000001_Node000016" class="edge">
<title>Node1&#45;&gt;Node16</title>
<g id="a_edge24_Node000001_Node000016"><a xlink:title=" ">
<path fill="none" stroke="#63b8ff" d="M460.01,-351.94C489.5,-332.72 543,-296.58 585,-261 609.21,-240.49 634.73,-214 650.26,-197.25"/>
<polygon fill="#63b8ff" stroke="#63b8ff" points="652.84,-199.61 657.03,-189.88 647.69,-194.88 652.84,-199.61"/>
</a>
</g>
</g>
<!-- Node3 -->
<g id="Node000003" class="node">
<title>Node3</title>
<g id="a_Node000003"><a xlink:href="Color_8hpp.html" target="_top" xlink:title=" ">
<polygon fill="white" stroke="#666666" points="106,-189.5 0,-189.5 0,-170.5 106,-170.5 106,-189.5"/>
<text text-anchor="middle" x="53" y="-177.5" font-family="Helvetica,sans-Serif" font-size="10.00">../../Utils/Color.hpp</text>
</a>
</g>
</g>
<!-- Node2&#45;&gt;Node3 -->
<g id="edge2_Node000002_Node000003" class="edge">
<title>Node2&#45;&gt;Node3</title>
<g id="a_edge2_Node000002_Node000003"><a xlink:title=" ">
<path fill="none" stroke="#63b8ff" d="M256.02,-296.94C218.84,-275.71 122.1,-220.46 76.91,-194.65"/>
<polygon fill="#63b8ff" stroke="#63b8ff" points="78.51,-191.54 68.09,-189.62 75.04,-197.62 78.51,-191.54"/>
</a>
</g>
</g>
<!-- Node5 -->
<g id="Node000005" class="node">
<title>Node5</title>
<g id="a_Node000005"><a xlink:href="ILight_8hpp.html" target="_top" xlink:title=" ">
<polygon fill="white" stroke="#666666" points="271.5,-255.5 206.5,-255.5 206.5,-236.5 271.5,-236.5 271.5,-255.5"/>
<text text-anchor="middle" x="239" y="-243.5" font-family="Helvetica,sans-Serif" font-size="10.00">ILight.hpp</text>
</a>
</g>
</g>
<!-- Node2&#45;&gt;Node5 -->
<g id="edge4_Node000002_Node000005" class="edge">
<title>Node2&#45;&gt;Node5</title>
<g id="a_edge4_Node000002_Node000005"><a xlink:title=" ">
<path fill="none" stroke="#63b8ff" d="M266.28,-296.87C261.65,-288.4 254.45,-275.24 248.61,-264.57"/>
<polygon fill="#63b8ff" stroke="#63b8ff" points="251.61,-262.76 243.74,-255.67 245.47,-266.12 251.61,-262.76"/>
</a>
</g>
</g>
<!-- Node10 -->
<g id="Node000010" class="node">
<title>Node10</title>
<g id="a_Node000010"><a xlink:title=" ">
<polygon fill="#e0e0e0" stroke="#999999" points="323.5,-189.5 276.5,-189.5 276.5,-170.5 323.5,-170.5 323.5,-189.5"/>
<text text-anchor="middle" x="300" y="-177.5" font-family="Helvetica,sans-Serif" font-size="10.00">vector</text>
</a>
</g>
</g>
<!-- Node2&#45;&gt;Node10 -->
<g id="edge13_Node000002_Node000010" class="edge">
<title>Node2&#45;&gt;Node10</title>
<g id="a_edge13_Node000002_Node000010"><a xlink:title=" ">
<path fill="none" stroke="#63b8ff" d="M272.99,-296.94C277.65,-276.95 289.33,-226.82 295.7,-199.48"/>
<polygon fill="#63b8ff" stroke="#63b8ff" points="299.13,-200.15 297.99,-189.62 292.32,-198.56 299.13,-200.15"/>
</a>
</g>
</g>
<!-- Node4 -->
<g id="Node000004" class="node">
<title>Node4</title>
<g id="a_Node000004"><a xlink:title=" ">
<polygon fill="#e0e0e0" stroke="#999999" points="216,-129 152,-129 152,-110 216,-110 216,-129"/>
<text text-anchor="middle" x="184" y="-117" font-family="Helvetica,sans-Serif" font-size="10.00">algorithm</text>
</a>
</g>
</g>
<!-- Node3&#45;&gt;Node4 -->
<g id="edge3_Node000003_Node000004" class="edge">
<title>Node3&#45;&gt;Node4</title>
<g id="a_edge3_Node000003_Node000004"><a xlink:title=" ">
<path fill="none" stroke="#63b8ff" d="M72.05,-170.49C93.97,-160.7 130.21,-144.52 155.5,-133.23"/>
<polygon fill="#63b8ff" stroke="#63b8ff" points="157.22,-136.29 164.93,-129.02 154.37,-129.9 157.22,-136.29"/>
</a>
</g>
</g>
<!-- Node5&#45;&gt;Node3 -->
<g id="edge10_Node000005_Node000003" class="edge">
<title>Node5&#45;&gt;Node3</title>
<g id="a_edge10_Node000005_Node000003"><a xlink:title=" ">
<path fill="none" stroke="#63b8ff" d="M213.92,-236.37C181.38,-225.17 124.45,-205.58 87.76,-192.96"/>
<polygon fill="#63b8ff" stroke="#63b8ff" points="88.58,-189.54 77.98,-189.6 86.3,-196.16 88.58,-189.54"/>
</a>
</g>
</g>
<!-- Node6 -->
<g id="Node000006" class="node">
<title>Node6</title>
<g id="a_Node000006"><a xlink:href="HitRecord_8hpp.html" target="_top" xlink:title=" ">
<polygon fill="white" stroke="#666666" points="258,-195 124,-195 124,-165 258,-165 258,-195"/>
<text text-anchor="start" x="132" y="-183" font-family="Helvetica,sans-Serif" font-size="10.00">../../Geometry/HitRecord</text>
<text text-anchor="middle" x="191" y="-172" font-family="Helvetica,sans-Serif" font-size="10.00">/HitRecord.hpp</text>
</a>
</g>
</g>
<!-- Node5&#45;&gt;Node6 -->
<g id="edge5_Node000005_Node000006" class="edge">
<title>Node5&#45;&gt;Node6</title>
<g id="a_edge5_Node000005_Node000006"><a xlink:title=" ">
<path fill="none" stroke="#63b8ff" d="M232.53,-236.37C226.25,-227.99 216.44,-214.93 207.94,-203.59"/>
<polygon fill="#63b8ff" stroke="#63b8ff" points="210.57,-201.26 201.77,-195.36 204.97,-205.46 210.57,-201.26"/>
</a>
</g>
</g>
<!-- Node5&#45;&gt;Node10 -->
<g id="edge11_Node000005_Node000010" class="edge">
<title>Node5&#45;&gt;Node10</title>
<g id="a_edge11_Node000005_Node000010"><a xlink:title=" ">
<path fill="none" stroke="#63b8ff" d="M247.23,-236.37C256.72,-226.4 272.56,-209.79 284.41,-197.36"/>
<polygon fill="#63b8ff" stroke="#63b8ff" points="287.15,-199.56 291.51,-189.91 282.08,-194.73 287.15,-199.56"/>
</a>
</g>
</g>
<!-- Node5&#45;&gt;Node11 -->
<g id="edge12_Node000005_Node000011" class="edge">
<title>Node5&#45;&gt;Node11</title>
<g id="a_edge12_Node000005_Node000011"><a xlink:title=" ">
<path fill="none" stroke="#63b8ff" d="M256.8,-236.37C279.14,-225.54 317.68,-206.85 343.74,-194.22"/>
<polygon fill="#63b8ff" stroke="#63b8ff" points="345.59,-197.21 353.06,-189.7 342.53,-190.91 345.59,-197.21"/>
</a>
</g>
</g>
<!-- Node7 -->
<g id="Node000007" class="node">
<title>Node7</title>
<g id="a_Node000007"><a xlink:href="Point3D_8hpp.html" target="_top" xlink:title=" ">
<polygon fill="white" stroke="#666666" points="529,-129 403,-129 403,-110 529,-110 529,-129"/>
<text text-anchor="middle" x="466" y="-117" font-family="Helvetica,sans-Serif" font-size="10.00">../Point3D/Point3D.hpp</text>
</a>
</g>
</g>
<!-- Node6&#45;&gt;Node7 -->
<g id="edge6_Node000006_Node000007" class="edge">
<title>Node6&#45;&gt;Node7</title>
<g id="a_edge6_Node000006_Node000007"><a xlink:title=" ">
<path fill="none" stroke="#63b8ff" d="M256.87,-164.99C305.66,-154.61 371.16,-140.68 415.76,-131.19"/>
<polygon fill="#63b8ff" stroke="#63b8ff" points="416.74,-134.56 425.79,-129.05 415.28,-127.71 416.74,-134.56"/>
</a>
</g>
</g>
<!-- Node8 -->
<g id="Node000008" class="node">
<title>Node8</title>
<g id="a_Node000008"><a xlink:href="Vector3D_8hpp.html" target="_top" xlink:title=" ">
<polygon fill="white" stroke="#666666" points="535,-74 397,-74 397,-55 535,-55 535,-74"/>
<text text-anchor="middle" x="466" y="-62" font-family="Helvetica,sans-Serif" font-size="10.00">../Vector3D/Vector3D.hpp</text>
</a>
</g>
</g>
<!-- Node6&#45;&gt;Node8 -->
<g id="edge9_Node000006_Node000008" class="edge">
<title>Node6&#45;&gt;Node8</title>
<g id="a_edge9_Node000006_Node000008"><a xlink:title=" ">
<path fill="none" stroke="#63b8ff" d="M225,-164.97C279.13,-142.63 384.08,-99.31 435.75,-77.98"/>
<polygon fill="#63b8ff" stroke="#63b8ff" points="437.15,-81.2 445.05,-74.14 434.48,-74.72 437.15,-81.2"/>
</a>
</g>
</g>
<!-- Node7&#45;&gt;Node8 -->
<g id="edge7_Node000007_Node000008" class="edge">
<title>Node7&#45;&gt;Node8</title>
<g id="a_edge7_Node000007_Node000008"><a xlink:title=" ">
<path fill="none" stroke="#63b8ff" d="M466,-109.75C466,-102.8 466,-92.85 466,-84.13"/>
<polygon fill="#63b8ff" stroke="#63b8ff" points="469.5,-84.09 466,-74.09 462.5,-84.09 469.5,-84.09"/>
</a>
</g>
</g>
<!-- Node9 -->
<g id="Node000009" class="node">
<title>Node9</title>
<g id="a_Node000009"><a xlink:title=" ">
<polygon fill="#e0e0e0" stroke="#999999" points="491.5,-19 440.5,-19 440.5,0 491.5,0 491.5,-19"/>
<text text-anchor="middle" x="466" y="-7" font-family="Helvetica,sans-Serif" font-size="10.00">math.h</text>
</a>
</g>
</g>
<!-- Node8&#45;&gt;Node9 -->
<g id="edge8_Node000008_Node000009" class="edge">
<title>Node8&#45;&gt;Node9</title>
<g id="a_edge8_Node000008_Node000009"><a xlink:title=" ">
<path fill="none" stroke="#63b8ff" d="M466,-54.75C466,-47.8 466,-37.85 466,-29.13"/>
<polygon fill="#63b8ff" stroke="#63b8ff" points="469.5,-29.09 466,-19.09 462.5,-29.09 469.5,-29.09"/>
</a>
</g>
</g>
<!-- Node13&#45;&gt;Node4 -->
<g id="edge17_Node000013_Node000004" class="edge">
<title>Node13&#45;&gt;Node4</title>
<g id="a_edge17_Node000013_Node000004"><a xlink:title=" ">
<path fill="none" stroke="#63b8ff" d="M500.94,-230.99C481.84,-212.82 445.83,-181.48 409,-165 349.03,-138.15 272.88,-127.43 226.33,-123.19"/>
<polygon fill="#63b8ff" stroke="#63b8ff" points="226.56,-119.7 216.3,-122.34 225.96,-126.68 226.56,-119.7"/>
</a>
</g>
</g>
<!-- Node13&#45;&gt;Node7 -->
<g id="edge20_Node000013_Node000007" class="edge">
<title>Node13&#45;&gt;Node7</title>
<g id="a_edge20_Node000013_Node000007"><a xlink:title=" ">
<path fill="none" stroke="#63b8ff" d="M504.9,-230.72C498.43,-221.02 490.3,-207.71 485,-195 477.39,-176.74 472.22,-154.65 469.22,-139.29"/>
<polygon fill="#63b8ff" stroke="#63b8ff" points="472.58,-138.23 467.34,-129.02 465.7,-139.49 472.58,-138.23"/>
</a>
</g>
</g>
<!-- Node14 -->
<g id="Node000014" class="node">
<title>Node14</title>
<g id="a_Node000014"><a xlink:title=" ">
<polygon fill="#e0e0e0" stroke="#999999" points="541.5,-189.5 494.5,-189.5 494.5,-170.5 541.5,-170.5 541.5,-189.5"/>
<text text-anchor="middle" x="518" y="-177.5" font-family="Helvetica,sans-Serif" font-size="10.00">cmath</text>
</a>
</g>
</g>
<!-- Node13&#45;&gt;Node14 -->
<g id="edge18_Node000013_Node000014" class="edge">
<title>Node13&#45;&gt;Node14</title>
<g id="a_edge18_Node000013_Node000014"><a xlink:title=" ">
<path fill="none" stroke="#63b8ff" d="M515.67,-230.8C516.09,-221.7 516.65,-209.79 517.11,-199.9"/>
<polygon fill="#63b8ff" stroke="#63b8ff" points="520.61,-200 517.59,-189.84 513.62,-199.67 520.61,-200"/>
</a>
</g>
</g>
<!-- Node15 -->
<g id="Node000015" class="node">
<title>Node15</title>
<g id="a_Node000015"><a xlink:title=" ">
<polygon fill="#e0e0e0" stroke="#999999" points="604,-189.5 560,-189.5 560,-170.5 604,-170.5 604,-189.5"/>
<text text-anchor="middle" x="582" y="-177.5" font-family="Helvetica,sans-Serif" font-size="10.00">limits</text>
</a>
</g>
</g>
<!-- Node13&#45;&gt;Node15 -->
<g id="edge19_Node000013_Node000015" class="edge">
<title>Node13&#45;&gt;Node15</title>
<g id="a_edge19_Node000013_Node000015"><a xlink:title=" ">
<path fill="none" stroke="#63b8ff" d="M529.87,-230.8C540.42,-220.72 554.58,-207.19 565.48,-196.78"/>
<polygon fill="#63b8ff" stroke="#63b8ff" points="567.93,-199.28 572.74,-189.84 563.09,-194.22 567.93,-199.28"/>
</a>
</g>
</g>
<!-- Node13&#45;&gt;Node16 -->
<g id="edge21_Node000013_Node000016" class="edge">
<title>Node13&#45;&gt;Node16</title>
<g id="a_edge21_Node000013_Node000016"><a xlink:title=" ">
<path fill="none" stroke="#63b8ff" d="M547.92,-230.95C574.11,-219.78 610.42,-204.29 635.63,-193.53"/>
<polygon fill="#63b8ff" stroke="#63b8ff" points="637.21,-196.66 645.04,-189.52 634.47,-190.22 637.21,-196.66"/>
</a>
</g>
</g>
<!-- Node16&#45;&gt;Node7 -->
<g id="edge22_Node000016_Node000007" class="edge">
<title>Node16&#45;&gt;Node7</title>
<g id="a_edge22_Node000016_Node000007"><a xlink:title=" ">
<path fill="none" stroke="#63b8ff" d="M636.06,-170.49C601.43,-160.31 543.3,-143.22 504.79,-131.9"/>
<polygon fill="#63b8ff" stroke="#63b8ff" points="505.55,-128.48 494.97,-129.02 503.58,-135.2 505.55,-128.48"/>
</a>
</g>
</g>
<!-- Node16&#45;&gt;Node8 -->
<g id="edge23_Node000016_Node000008" class="edge">
<title>Node16&#45;&gt;Node8</title>
<g id="a_edge23_Node000016_Node000008"><a xlink:title=" ">
<path fill="none" stroke="#63b8ff" d="M650.04,-170.47C615.83,-150.96 531.61,-102.92 490.03,-79.21"/>
<polygon fill="#63b8ff" stroke="#63b8ff" points="491.55,-76.04 481.13,-74.13 488.08,-82.12 491.55,-76.04"/>
</a>
</g>
</g>
</g>
</svg>
