<?xml version="1.0" encoding="UTF-8" standalone="no"?>
<!DOCTYPE svg PUBLIC "-//W3C//DTD SVG 1.1//EN"
 "http://www.w3.org/Graphics/SVG/1.1/DTD/svg11.dtd">
<!-- Generated by graphviz version 2.43.0 (0)
 -->
<!-- Title: src/Objects/Abstracts/APrimitive/APrimitive.hpp Pages: 1 -->
<!--zoomable 379 -->

<svg id="main" version="1.1" xmlns="http://www.w3.org/2000/svg" xmlns:xlink="http://www.w3.org/1999/xlink" xml:space="preserve" onload="init(evt)">
<style type="text/css"><![CDATA[
.node, .edge {opacity: 0.7;}
.node.selected, .edge.selected {opacity: 1;}
.edge:hover path { stroke: red; }
.edge:hover polygon { stroke: red; fill: red; }
]]></style>

<defs>
  <circle id="rim" cx="0" cy="0" r="7"/>
  <circle id="rim2" cx="0" cy="0" r="3.5"/>
  <g id="zoomPlus">
    <use xlink:href="#rim" fill="#404040"><set attributeName="fill" to="#808080" begin="zoomplus.mouseover" end="zoomplus.mouseout"/></use>
    <path d="M-4,0h8M0,-4v8" fill="none" stroke="white" stroke-width="1.5" pointer-events="none"/>
  </g>
  <g id="zoomMin">
    <use xlink:href="#rim" fill="#404040"><set attributeName="fill" to="#808080" begin="zoomminus.mouseover" end="zoomminus.mouseout"/></use>
    <path d="M-4,0h8" fill="none" stroke="white" stroke-width="1.5" pointer-events="none"/>
  </g>
  <g id="arrowUp" transform="translate(30 24)">
    <use xlink:href="#rim"/>
    <path pointer-events="none" fill="none" stroke="white" stroke-width="1.5" d="M0,-3.0v7 M-2.5,-0.5L0,-3.0L2.5,-0.5"/>
  </g>
  <g id="arrowRight" transform="rotate(90) translate(36 -43)">
    <use xlink:href="#rim"/>
    <path pointer-events="none" fill="none" stroke="white" stroke-width="1.5" d="M0,-3.0v7 M-2.5,-0.5L0,-3.0L2.5,-0.5"/>
  </g>
  <g id="arrowDown" transform="rotate(180) translate(-30 -48)">
    <use xlink:href="#rim"/>
    <path pointer-events="none" fill="none" stroke="white" stroke-width="1.5" d="M0,-3.0v7 M-2.5,-0.5L0,-3.0L2.5,-0.5"/>
  </g>
  <g id="arrowLeft" transform="rotate(270) translate(-36 17)">
    <use xlink:href="#rim"/>
    <path pointer-events="none" fill="none" stroke="white" stroke-width="1.5" d="M0,-3.0v7 M-2.5,-0.5L0,-3.0L2.5,-0.5"/>
  </g>
  <g id="resetDef">
    <use xlink:href="#rim2" fill="#404040"><set attributeName="fill" to="#808080" begin="reset.mouseover" end="reset.mouseout"/></use>
  </g>
</defs>
<script type="application/ecmascript">
var viewWidth = 540;
var viewHeight = 379;
var sectionId = 'dynsection-0';
</script>
<script type="application/ecmascript" xlink:href="svg.min.js"/>
<svg id="graph" class="graph">
<g id="viewport">
<title>src/Objects/Abstracts/APrimitive/APrimitive.hpp</title>
<!-- Node1 -->
<g id="Node000001" class="node">
<title>Node1</title>
<g id="a_Node000001"><a xlink:title=" ">
<polygon fill="#999999" stroke="#666666" points="463,-371 317,-371 317,-341 463,-341 463,-371"/>
<text text-anchor="start" x="325" y="-359" font-family="Helvetica,sans-Serif" font-size="10.00">src/Objects/Abstracts</text>
<text text-anchor="middle" x="390" y="-348" font-family="Helvetica,sans-Serif" font-size="10.00">/APrimitive/APrimitive.hpp</text>
</a>
</g>
</g>
<!-- Node2 -->
<g id="Node000002" class="node">
<title>Node2</title>
<g id="a_Node000002"><a xlink:href="IMaterial_8hpp.html" target="_top" xlink:title=" ">
<polygon fill="white" stroke="#666666" points="314,-305 224,-305 224,-286 314,-286 314,-305"/>
<text text-anchor="middle" x="269" y="-293" font-family="Helvetica,sans-Serif" font-size="10.00">../IMaterial.hpp</text>
</a>
</g>
</g>
<!-- Node1&#45;&gt;Node2 -->
<g id="edge1_Node000001_Node000002" class="edge">
<title>Node1&#45;&gt;Node2</title>
<g id="a_edge1_Node000001_Node000002"><a xlink:title=" ">
<path fill="none" stroke="#63b8ff" d="M361.02,-340.99C341.28,-331.45 315.33,-318.9 296.03,-309.57"/>
<polygon fill="#63b8ff" stroke="#63b8ff" points="297.4,-306.34 286.87,-305.14 294.35,-312.64 297.4,-306.34"/>
</a>
</g>
</g>
<!-- Node11 -->
<g id="Node000011" class="node">
<title>Node11</title>
<g id="a_Node000011"><a xlink:title=" ">
<polygon fill="#e0e0e0" stroke="#999999" points="400,-189.5 342,-189.5 342,-170.5 400,-170.5 400,-189.5"/>
<text text-anchor="middle" x="371" y="-177.5" font-family="Helvetica,sans-Serif" font-size="10.00">memory</text>
</a>
</g>
</g>
<!-- Node1&#45;&gt;Node11 -->
<g id="edge14_Node000001_Node000011" class="edge">
<title>Node1&#45;&gt;Node11</title>
<g id="a_edge14_Node000001_Node000011"><a xlink:title=" ">
<path fill="none" stroke="#63b8ff" d="M388.45,-340.76C385.04,-309.55 376.91,-235.11 373.07,-199.97"/>
<polygon fill="#63b8ff" stroke="#63b8ff" points="376.51,-199.25 371.95,-189.68 369.55,-200.01 376.51,-199.25"/>
</a>
</g>
</g>
<!-- Node12 -->
<g id="Node000012" class="node">
<title>Node12</title>
<g id="a_Node000012"><a xlink:title=" ">
<polygon fill="#e0e0e0" stroke="#999999" points="493,-305 437,-305 437,-286 493,-286 493,-305"/>
<text text-anchor="middle" x="465" y="-293" font-family="Helvetica,sans-Serif" font-size="10.00">optional</text>
</a>
</g>
</g>
<!-- Node1&#45;&gt;Node12 -->
<g id="edge15_Node000001_Node000012" class="edge">
<title>Node1&#45;&gt;Node12</title>
<g id="a_edge15_Node000001_Node000012"><a xlink:title=" ">
<path fill="none" stroke="#63b8ff" d="M408.16,-340.84C419.49,-332 434.06,-320.63 445.62,-311.62"/>
<polygon fill="#63b8ff" stroke="#63b8ff" points="448.03,-314.18 453.76,-305.27 443.72,-308.66 448.03,-314.18"/>
</a>
</g>
</g>
<!-- Node13 -->
<g id="Node000013" class="node">
<title>Node13</title>
<g id="a_Node000013"><a xlink:href="Ray_8hpp.html" target="_top" xlink:title=" ">
<polygon fill="white" stroke="#666666" points="532,-195 418,-195 418,-165 532,-165 532,-195"/>
<text text-anchor="start" x="426" y="-183" font-family="Helvetica,sans-Serif" font-size="10.00">../../../Geometry/Ray</text>
<text text-anchor="middle" x="475" y="-172" font-family="Helvetica,sans-Serif" font-size="10.00">/Ray.hpp</text>
</a>
</g>
</g>
<!-- Node1&#45;&gt;Node13 -->
<g id="edge16_Node000001_Node000013" class="edge">
<title>Node1&#45;&gt;Node13</title>
<g id="a_edge16_Node000001_Node000013"><a xlink:title=" ">
<path fill="none" stroke="#63b8ff" d="M396.96,-340.76C411.53,-310.94 445.38,-241.63 463.33,-204.88"/>
<polygon fill="#63b8ff" stroke="#63b8ff" points="466.7,-205.96 467.95,-195.44 460.41,-202.88 466.7,-205.96"/>
</a>
</g>
</g>
<!-- Node3 -->
<g id="Node000003" class="node">
<title>Node3</title>
<g id="a_Node000003"><a xlink:href="Color_8hpp.html" target="_top" xlink:title=" ">
<polygon fill="white" stroke="#666666" points="106,-189.5 0,-189.5 0,-170.5 106,-170.5 106,-189.5"/>
<text text-anchor="middle" x="53" y="-177.5" font-family="Helvetica,sans-Serif" font-size="10.00">../../Utils/Color.hpp</text>
</a>
</g>
</g>
<!-- Node2&#45;&gt;Node3 -->
<g id="edge2_Node000002_Node000003" class="edge">
<title>Node2&#45;&gt;Node3</title>
<g id="a_edge2_Node000002_Node000003"><a xlink:title=" ">
<path fill="none" stroke="#63b8ff" d="M252.76,-285.97C215.47,-266.37 123.45,-218.02 78.51,-194.41"/>
<polygon fill="#63b8ff" stroke="#63b8ff" points="79.9,-191.18 69.42,-189.63 76.65,-197.38 79.9,-191.18"/>
</a>
</g>
</g>
<!-- Node5 -->
<g id="Node000005" class="node">
<title>Node5</title>
<g id="a_Node000005"><a xlink:href="ILight_8hpp.html" target="_top" xlink:title=" ">
<polygon fill="white" stroke="#666666" points="271.5,-250 206.5,-250 206.5,-231 271.5,-231 271.5,-250"/>
<text text-anchor="middle" x="239" y="-238" font-family="Helvetica,sans-Serif" font-size="10.00">ILight.hpp</text>
</a>
</g>
</g>
<!-- Node2&#45;&gt;Node5 -->
<g id="edge4_Node000002_Node000005" class="edge">
<title>Node2&#45;&gt;Node5</title>
<g id="a_edge4_Node000002_Node000005"><a xlink:title=" ">
<path fill="none" stroke="#63b8ff" d="M264.05,-285.75C259.94,-278.49 253.97,-267.95 248.9,-258.98"/>
<polygon fill="#63b8ff" stroke="#63b8ff" points="251.83,-257.07 243.86,-250.09 245.74,-260.52 251.83,-257.07"/>
</a>
</g>
</g>
<!-- Node10 -->
<g id="Node000010" class="node">
<title>Node10</title>
<g id="a_Node000010"><a xlink:title=" ">
<polygon fill="#e0e0e0" stroke="#999999" points="323.5,-189.5 276.5,-189.5 276.5,-170.5 323.5,-170.5 323.5,-189.5"/>
<text text-anchor="middle" x="300" y="-177.5" font-family="Helvetica,sans-Serif" font-size="10.00">vector</text>
</a>
</g>
</g>
<!-- Node2&#45;&gt;Node10 -->
<g id="edge13_Node000002_Node000010" class="edge">
<title>Node2&#45;&gt;Node10</title>
<g id="a_edge13_Node000002_Node000010"><a xlink:title=" ">
<path fill="none" stroke="#63b8ff" d="M271.33,-285.97C276.33,-267.65 288.21,-224.18 295,-199.31"/>
<polygon fill="#63b8ff" stroke="#63b8ff" points="298.38,-200.2 297.64,-189.63 291.63,-198.35 298.38,-200.2"/>
</a>
</g>
</g>
<!-- Node4 -->
<g id="Node000004" class="node">
<title>Node4</title>
<g id="a_Node000004"><a xlink:title=" ">
<polygon fill="#e0e0e0" stroke="#999999" points="85,-129 21,-129 21,-110 85,-110 85,-129"/>
<text text-anchor="middle" x="53" y="-117" font-family="Helvetica,sans-Serif" font-size="10.00">algorithm</text>
</a>
</g>
</g>
<!-- Node3&#45;&gt;Node4 -->
<g id="edge3_Node000003_Node000004" class="edge">
<title>Node3&#45;&gt;Node4</title>
<g id="a_edge3_Node000003_Node000004"><a xlink:title=" ">
<path fill="none" stroke="#63b8ff" d="M53,-170.37C53,-162.25 53,-149.81 53,-139.39"/>
<polygon fill="#63b8ff" stroke="#63b8ff" points="56.5,-139.17 53,-129.17 49.5,-139.17 56.5,-139.17"/>
</a>
</g>
</g>
<!-- Node5&#45;&gt;Node3 -->
<g id="edge10_Node000005_Node000003" class="edge">
<title>Node5&#45;&gt;Node3</title>
<g id="a_edge10_Node000005_Node000003"><a xlink:title=" ">
<path fill="none" stroke="#63b8ff" d="M211.95,-230.99C179.72,-220.86 125.71,-203.87 89.72,-192.55"/>
<polygon fill="#63b8ff" stroke="#63b8ff" points="90.67,-189.18 80.08,-189.52 88.57,-195.86 90.67,-189.18"/>
</a>
</g>
</g>
<!-- Node6 -->
<g id="Node000006" class="node">
<title>Node6</title>
<g id="a_Node000006"><a xlink:href="HitRecord_8hpp.html" target="_top" xlink:title=" ">
<polygon fill="white" stroke="#666666" points="258,-195 124,-195 124,-165 258,-165 258,-195"/>
<text text-anchor="start" x="132" y="-183" font-family="Helvetica,sans-Serif" font-size="10.00">../../Geometry/HitRecord</text>
<text text-anchor="middle" x="191" y="-172" font-family="Helvetica,sans-Serif" font-size="10.00">/HitRecord.hpp</text>
</a>
</g>
</g>
<!-- Node5&#45;&gt;Node6 -->
<g id="edge5_Node000005_Node000006" class="edge">
<title>Node5&#45;&gt;Node6</title>
<g id="a_edge5_Node000005_Node000006"><a xlink:title=" ">
<path fill="none" stroke="#63b8ff" d="M231.92,-230.87C225.89,-223.52 216.96,-212.63 208.98,-202.91"/>
<polygon fill="#63b8ff" stroke="#63b8ff" points="211.63,-200.63 202.58,-195.11 206.22,-205.07 211.63,-200.63"/>
</a>
</g>
</g>
<!-- Node5&#45;&gt;Node10 -->
<g id="edge11_Node000005_Node000010" class="edge">
<title>Node5&#45;&gt;Node10</title>
<g id="a_edge11_Node000005_Node000010"><a xlink:title=" ">
<path fill="none" stroke="#63b8ff" d="M248,-230.87C257.37,-221.88 272.25,-207.61 283.7,-196.64"/>
<polygon fill="#63b8ff" stroke="#63b8ff" points="286.17,-199.12 290.96,-189.67 281.32,-194.06 286.17,-199.12"/>
</a>
</g>
</g>
<!-- Node5&#45;&gt;Node11 -->
<g id="edge12_Node000005_Node000011" class="edge">
<title>Node5&#45;&gt;Node11</title>
<g id="a_edge12_Node000005_Node000011"><a xlink:title=" ">
<path fill="none" stroke="#63b8ff" d="M258.19,-230.99C280.39,-221.16 317.12,-204.88 342.62,-193.58"/>
<polygon fill="#63b8ff" stroke="#63b8ff" points="344.06,-196.77 351.78,-189.52 341.22,-190.37 344.06,-196.77"/>
</a>
</g>
</g>
<!-- Node7 -->
<g id="Node000007" class="node">
<title>Node7</title>
<g id="a_Node000007"><a xlink:href="Point3D_8hpp.html" target="_top" xlink:title=" ">
<polygon fill="white" stroke="#666666" points="409,-129 283,-129 283,-110 409,-110 409,-129"/>
<text text-anchor="middle" x="346" y="-117" font-family="Helvetica,sans-Serif" font-size="10.00">../Point3D/Point3D.hpp</text>
</a>
</g>
</g>
<!-- Node6&#45;&gt;Node7 -->
<g id="edge6_Node000006_Node000007" class="edge">
<title>Node6&#45;&gt;Node7</title>
<g id="a_edge6_Node000006_Node000007"><a xlink:title=" ">
<path fill="none" stroke="#63b8ff" d="M228.13,-164.99C254.22,-155.14 288.78,-142.1 313.73,-132.68"/>
<polygon fill="#63b8ff" stroke="#63b8ff" points="314.99,-135.94 323.11,-129.14 312.52,-129.4 314.99,-135.94"/>
</a>
</g>
</g>
<!-- Node8 -->
<g id="Node000008" class="node">
<title>Node8</title>
<g id="a_Node000008"><a xlink:href="Vector3D_8hpp.html" target="_top" xlink:title=" ">
<polygon fill="white" stroke="#666666" points="415,-74 277,-74 277,-55 415,-55 415,-74"/>
<text text-anchor="middle" x="346" y="-62" font-family="Helvetica,sans-Serif" font-size="10.00">../Vector3D/Vector3D.hpp</text>
</a>
</g>
</g>
<!-- Node6&#45;&gt;Node8 -->
<g id="edge9_Node000006_Node000008" class="edge">
<title>Node6&#45;&gt;Node8</title>
<g id="a_edge9_Node000006_Node000008"><a xlink:title=" ">
<path fill="none" stroke="#63b8ff" d="M206.69,-164.82C222.99,-150.37 249.51,-127.62 274,-110 289.46,-98.88 307.72,-87.61 321.99,-79.2"/>
<polygon fill="#63b8ff" stroke="#63b8ff" points="323.83,-82.17 330.71,-74.11 320.31,-76.12 323.83,-82.17"/>
</a>
</g>
</g>
<!-- Node7&#45;&gt;Node8 -->
<g id="edge7_Node000007_Node000008" class="edge">
<title>Node7&#45;&gt;Node8</title>
<g id="a_edge7_Node000007_Node000008"><a xlink:title=" ">
<path fill="none" stroke="#63b8ff" d="M346,-109.75C346,-102.8 346,-92.85 346,-84.13"/>
<polygon fill="#63b8ff" stroke="#63b8ff" points="349.5,-84.09 346,-74.09 342.5,-84.09 349.5,-84.09"/>
</a>
</g>
</g>
<!-- Node9 -->
<g id="Node000009" class="node">
<title>Node9</title>
<g id="a_Node000009"><a xlink:title=" ">
<polygon fill="#e0e0e0" stroke="#999999" points="371.5,-19 320.5,-19 320.5,0 371.5,0 371.5,-19"/>
<text text-anchor="middle" x="346" y="-7" font-family="Helvetica,sans-Serif" font-size="10.00">math.h</text>
</a>
</g>
</g>
<!-- Node8&#45;&gt;Node9 -->
<g id="edge8_Node000008_Node000009" class="edge">
<title>Node8&#45;&gt;Node9</title>
<g id="a_edge8_Node000008_Node000009"><a xlink:title=" ">
<path fill="none" stroke="#63b8ff" d="M346,-54.75C346,-47.8 346,-37.85 346,-29.13"/>
<polygon fill="#63b8ff" stroke="#63b8ff" points="349.5,-29.09 346,-19.09 342.5,-29.09 349.5,-29.09"/>
</a>
</g>
</g>
<!-- Node13&#45;&gt;Node7 -->
<g id="edge17_Node000013_Node000007" class="edge">
<title>Node13&#45;&gt;Node7</title>
<g id="a_edge17_Node000013_Node000007"><a xlink:title=" ">
<path fill="none" stroke="#63b8ff" d="M444.1,-164.99C422.87,-155.36 394.89,-142.67 374.25,-133.31"/>
<polygon fill="#63b8ff" stroke="#63b8ff" points="375.6,-130.08 365.05,-129.14 372.71,-136.46 375.6,-130.08"/>
</a>
</g>
</g>
<!-- Node13&#45;&gt;Node8 -->
<g id="edge18_Node000013_Node000008" class="edge">
<title>Node13&#45;&gt;Node8</title>
<g id="a_edge18_Node000013_Node000008"><a xlink:title=" ">
<path fill="none" stroke="#63b8ff" d="M465.46,-164.89C454.98,-150.07 437.09,-126.64 418,-110 404.1,-97.88 386.52,-86.95 372.21,-78.95"/>
<polygon fill="#63b8ff" stroke="#63b8ff" points="373.81,-75.84 363.36,-74.14 370.47,-81.99 373.81,-75.84"/>
</a>
</g>
</g>
</g>
</svg>

<g id="navigator" transform="translate(0 0)" fill="#404254">
  <rect fill="#f2f5e9" fill-opacity="0.5" stroke="#606060" stroke-width=".5" x="0" y="0" width="60" height="60"/>
  <use id="zoomplus" xlink:href="#zoomPlus" x="17" y="9" onmousedown="handleZoom(evt,'in')"/>
  <use id="zoomminus" xlink:href="#zoomMin" x="42" y="9" onmousedown="handleZoom(evt,'out')"/>
  <use id="reset" xlink:href="#resetDef" x="30" y="36" onmousedown="handleReset()"/>
   <use id="arrowup" xlink:href="#arrowUp" x="0" y="0" onmousedown="handlePan(0,-1)"/>
  <use id="arrowright" xlink:href="#arrowRight" x="0" y="0" onmousedown="handlePan(1,0)"/>
  <use id="arrowdown" xlink:href="#arrowDown" x="0" y="0" onmousedown="handlePan(0,1)"/>
  <use id="arrowleft" xlink:href="#arrowLeft" x="0" y="0" onmousedown="handlePan(-1,0)"/>
</g>
<svg viewBox="0 0 15 15" width="100%" height="30px" preserveAspectRatio="xMaxYMin meet">
 <g id="arrow_out" transform="scale(0.3 0.3)">
  <a xlink:href="APrimitive_8hpp__incl_org.svg" target="_base">
   <rect id="button" ry="5" rx="5" y="6" x="6" height="38" width="38"
        fill="#f2f5e9" fill-opacity="0.5" stroke="#606060" stroke-width="1.0"/>
   <path id="arrow"
     d="M 11.500037,31.436501 C 11.940474,20.09759 22.043105,11.32322 32.158766,21.979434 L 37.068811,17.246167 C 37.068811,17.246167 37.088388,32 37.088388,32 L 22.160133,31.978069 C 22.160133,31.978069 26.997745,27.140456 26.997745,27.140456 C 18.528582,18.264221 13.291696,25.230495 11.500037,31.436501 z"
     style="fill:#404040;"/>
  </a>
 </g>
</svg>

<style type='text/css'>
<![CDATA[
[data-mouse-over-selected='false'] { opacity: 0.7; }
[data-mouse-over-selected='true']  { opacity: 1.0; }
]]>
</style>
<script type="application/ecmascript"><![CDATA[
document.addEventListener('DOMContentLoaded', (event) => {
  highlightEdges();
  highlightAdjacentNodes();
});
]]></script>
</svg>
