<?xml version="1.0" encoding="UTF-8" standalone="no"?>
<!DOCTYPE svg PUBLIC "-//W3C//DTD SVG 1.1//EN"
 "http://www.w3.org/Graphics/SVG/1.1/DTD/svg11.dtd">
<!-- Generated by graphviz version 2.43.0 (0)
 -->
<!-- Title: src/Objects/Abstracts/APrimitive/APrimitive.hpp Pages: 1 -->
<!--zoomable 401 -->

<svg id="main" version="1.1" xmlns="http://www.w3.org/2000/svg" xmlns:xlink="http://www.w3.org/1999/xlink" xml:space="preserve" onload="init(evt)">
<style type="text/css"><![CDATA[
.node, .edge {opacity: 0.7;}
.node.selected, .edge.selected {opacity: 1;}
.edge:hover path { stroke: red; }
.edge:hover polygon { stroke: red; fill: red; }
]]></style>

<defs>
  <circle id="rim" cx="0" cy="0" r="7"/>
  <circle id="rim2" cx="0" cy="0" r="3.5"/>
  <g id="zoomPlus">
    <use xlink:href="#rim" fill="#404040"><set attributeName="fill" to="#808080" begin="zoomplus.mouseover" end="zoomplus.mouseout"/></use>
    <path d="M-4,0h8M0,-4v8" fill="none" stroke="white" stroke-width="1.5" pointer-events="none"/>
  </g>
  <g id="zoomMin">
    <use xlink:href="#rim" fill="#404040"><set attributeName="fill" to="#808080" begin="zoomminus.mouseover" end="zoomminus.mouseout"/></use>
    <path d="M-4,0h8" fill="none" stroke="white" stroke-width="1.5" pointer-events="none"/>
  </g>
  <g id="arrowUp" transform="translate(30 24)">
    <use xlink:href="#rim"/>
    <path pointer-events="none" fill="none" stroke="white" stroke-width="1.5" d="M0,-3.0v7 M-2.5,-0.5L0,-3.0L2.5,-0.5"/>
  </g>
  <g id="arrowRight" transform="rotate(90) translate(36 -43)">
    <use xlink:href="#rim"/>
    <path pointer-events="none" fill="none" stroke="white" stroke-width="1.5" d="M0,-3.0v7 M-2.5,-0.5L0,-3.0L2.5,-0.5"/>
  </g>
  <g id="arrowDown" transform="rotate(180) translate(-30 -48)">
    <use xlink:href="#rim"/>
    <path pointer-events="none" fill="none" stroke="white" stroke-width="1.5" d="M0,-3.0v7 M-2.5,-0.5L0,-3.0L2.5,-0.5"/>
  </g>
  <g id="arrowLeft" transform="rotate(270) translate(-36 17)">
    <use xlink:href="#rim"/>
    <path pointer-events="none" fill="none" stroke="white" stroke-width="1.5" d="M0,-3.0v7 M-2.5,-0.5L0,-3.0L2.5,-0.5"/>
  </g>
  <g id="resetDef">
    <use xlink:href="#rim2" fill="#404040"><set attributeName="fill" to="#808080" begin="reset.mouseover" end="reset.mouseout"/></use>
  </g>
</defs>
<script type="application/ecmascript">
var viewWidth = 1985;
var viewHeight = 401;
var sectionId = 'dynsection-1';
</script>
<script type="application/ecmascript" xlink:href="svg.min.js"/>
<svg id="graph" class="graph">
<g id="viewport">
<title>src/Objects/Abstracts/APrimitive/APrimitive.hpp</title>
<!-- Node1 -->
<g id="Node000001" class="node">
<title>Node1</title>
<g id="a_Node000001"><a xlink:title=" ">
<polygon fill="#999999" stroke="#666666" points="1419.73,-393 1273.73,-393 1273.73,-363 1419.73,-363 1419.73,-393"/>
<text text-anchor="start" x="1281.73" y="-381" font-family="Helvetica,sans-Serif" font-size="10.00">src/Objects/Abstracts</text>
<text text-anchor="middle" x="1346.73" y="-370" font-family="Helvetica,sans-Serif" font-size="10.00">/APrimitive/APrimitive.hpp</text>
</a>
</g>
</g>
<!-- Node2 -->
<g id="Node000002" class="node">
<title>Node2</title>
<g id="a_Node000002"><a xlink:href="APrimitive_8cpp.html" target="_top" xlink:title=" ">
<polygon fill="white" stroke="#666666" points="683.23,-321.5 538.23,-321.5 538.23,-291.5 683.23,-291.5 683.23,-321.5"/>
<text text-anchor="start" x="546.23" y="-309.5" font-family="Helvetica,sans-Serif" font-size="10.00">src/Objects/Abstracts</text>
<text text-anchor="middle" x="610.73" y="-298.5" font-family="Helvetica,sans-Serif" font-size="10.00">/APrimitive/APrimitive.cpp</text>
</a>
</g>
</g>
<!-- Node1&#45;&gt;Node2 -->
<g id="edge1_Node000001_Node000002" class="edge">
<title>Node1&#45;&gt;Node2</title>
<g id="a_edge1_Node000001_Node000002"><a xlink:title=" ">
<path fill="none" stroke="#63b8ff" d="M1263.16,-374.4C1139.16,-369.67 899.37,-357.21 697.73,-327 688.08,-325.56 677.92,-323.64 668.07,-321.58"/>
<polygon fill="#63b8ff" stroke="#63b8ff" points="1263.22,-377.9 1273.34,-374.78 1263.48,-370.91 1263.22,-377.9"/>
</a>
</g>
</g>
<!-- Node3 -->
<g id="Node000003" class="node">
<title>Node3</title>
<g id="a_Node000003"><a xlink:href="Plugin_8hpp.html" target="_top" xlink:title=" ">
<polygon fill="white" stroke="#666666" points="865.23,-316 740.23,-316 740.23,-297 865.23,-297 865.23,-316"/>
<text text-anchor="middle" x="802.73" y="-304" font-family="Helvetica,sans-Serif" font-size="10.00">src/Objects/Plugin.hpp</text>
</a>
</g>
</g>
<!-- Node1&#45;&gt;Node3 -->
<g id="edge2_Node000001_Node000003" class="edge">
<title>Node1&#45;&gt;Node3</title>
<g id="a_edge2_Node000001_Node000003"><a xlink:title=" ">
<path fill="none" stroke="#63b8ff" d="M1263.62,-366.38C1154.01,-352.38 963.57,-328.05 865.33,-315.5"/>
<polygon fill="#63b8ff" stroke="#63b8ff" points="1263.28,-369.87 1273.64,-367.66 1264.17,-362.92 1263.28,-369.87"/>
</a>
</g>
</g>
<!-- Node15 -->
<g id="Node000015" class="node">
<title>Node15</title>
<g id="a_Node000015"><a xlink:href="Camera_8cpp.html" target="_top" xlink:title=" ">
<polygon fill="white" stroke="#666666" points="774.23,-107 649.23,-107 649.23,-66 774.23,-66 774.23,-107"/>
<text text-anchor="start" x="657.23" y="-95" font-family="Helvetica,sans-Serif" font-size="10.00">src/Objects/Plugins</text>
<text text-anchor="start" x="657.23" y="-84" font-family="Helvetica,sans-Serif" font-size="10.00">/CorePlugin/Renderers</text>
<text text-anchor="middle" x="711.73" y="-73" font-family="Helvetica,sans-Serif" font-size="10.00">/Camera/Camera.cpp</text>
</a>
</g>
</g>
<!-- Node1&#45;&gt;Node15 -->
<g id="edge36_Node000001_Node000015" class="edge">
<title>Node1&#45;&gt;Node15</title>
<g id="a_edge36_Node000001_Node000015"><a xlink:title=" ">
<path fill="none" stroke="#63b8ff" d="M1429.88,-367.4C1482.48,-359.56 1543.81,-346.54 1561.73,-327 1597.32,-288.18 1606.87,-249.11 1572.73,-209 1520.83,-148.04 963.78,-104.68 774.36,-91.61"/>
<polygon fill="#63b8ff" stroke="#63b8ff" points="1429.23,-363.96 1419.83,-368.86 1430.23,-370.89 1429.23,-363.96"/>
</a>
</g>
</g>
<!-- Node18 -->
<g id="Node000018" class="node">
<title>Node18</title>
<g id="a_Node000018"><a xlink:href="DirectionalLight_8cpp.html" target="_top" xlink:title=" ">
<polygon fill="white" stroke="#666666" points="1802.23,-327 1641.23,-327 1641.23,-286 1802.23,-286 1802.23,-327"/>
<text text-anchor="start" x="1649.23" y="-315" font-family="Helvetica,sans-Serif" font-size="10.00">src/Objects/Plugins</text>
<text text-anchor="start" x="1649.23" y="-304" font-family="Helvetica,sans-Serif" font-size="10.00">/CorePlugin/Lights/Directional</text>
<text text-anchor="middle" x="1721.73" y="-293" font-family="Helvetica,sans-Serif" font-size="10.00">Light/DirectionalLight.cpp</text>
</a>
</g>
</g>
<!-- Node1&#45;&gt;Node18 -->
<g id="edge25_Node000001_Node000018" class="edge">
<title>Node1&#45;&gt;Node18</title>
<g id="a_edge25_Node000001_Node000018"><a xlink:title=" ">
<path fill="none" stroke="#63b8ff" d="M1430.1,-362.69C1485.83,-352.98 1560.76,-339.66 1626.73,-327 1631.44,-326.1 1636.28,-325.15 1641.16,-324.19"/>
<polygon fill="#63b8ff" stroke="#63b8ff" points="1429.18,-359.3 1419.93,-364.46 1430.38,-366.19 1429.18,-359.3"/>
</a>
</g>
</g>
<!-- Node19 -->
<g id="Node000019" class="node">
<title>Node19</title>
<g id="a_Node000019"><a xlink:href="PointLight_8cpp.html" target="_top" xlink:title=" ">
<polygon fill="white" stroke="#666666" points="1976.73,-327 1820.73,-327 1820.73,-286 1976.73,-286 1976.73,-327"/>
<text text-anchor="start" x="1828.73" y="-315" font-family="Helvetica,sans-Serif" font-size="10.00">src/Objects/Plugins</text>
<text text-anchor="start" x="1828.73" y="-304" font-family="Helvetica,sans-Serif" font-size="10.00">/CorePlugin/Lights/PointLight</text>
<text text-anchor="middle" x="1898.73" y="-293" font-family="Helvetica,sans-Serif" font-size="10.00">/PointLight.cpp</text>
</a>
</g>
</g>
<!-- Node1&#45;&gt;Node19 -->
<g id="edge26_Node000001_Node000019" class="edge">
<title>Node1&#45;&gt;Node19</title>
<g id="a_edge26_Node000001_Node000019"><a xlink:title=" ">
<path fill="none" stroke="#63b8ff" d="M1430.2,-370.89C1523.56,-363.4 1679.11,-348.92 1811.73,-327 1814.63,-326.52 1817.58,-326 1820.55,-325.46"/>
<polygon fill="#63b8ff" stroke="#63b8ff" points="1429.65,-367.43 1419.96,-371.71 1430.21,-374.4 1429.65,-367.43"/>
</a>
</g>
</g>
<!-- Node20 -->
<g id="Node000020" class="node">
<title>Node20</title>
<g id="a_Node000020"><a xlink:href="Cylinder_8hpp.html" target="_top" xlink:title=" ">
<polygon fill="white" stroke="#666666" points="1266.23,-327 1141.23,-327 1141.23,-286 1266.23,-286 1266.23,-327"/>
<text text-anchor="start" x="1149.23" y="-315" font-family="Helvetica,sans-Serif" font-size="10.00">src/Objects/Plugins</text>
<text text-anchor="start" x="1149.23" y="-304" font-family="Helvetica,sans-Serif" font-size="10.00">/CorePlugin/Primitives</text>
<text text-anchor="middle" x="1203.73" y="-293" font-family="Helvetica,sans-Serif" font-size="10.00">/Cylinder/Cylinder.hpp</text>
</a>
</g>
</g>
<!-- Node1&#45;&gt;Node20 -->
<g id="edge27_Node000001_Node000020" class="edge">
<title>Node1&#45;&gt;Node20</title>
<g id="a_edge27_Node000001_Node000020"><a xlink:title=" ">
<path fill="none" stroke="#63b8ff" d="M1308.68,-358.51C1288.72,-348.81 1264.28,-336.93 1244,-327.07"/>
<polygon fill="#63b8ff" stroke="#63b8ff" points="1307.26,-361.71 1317.79,-362.94 1310.32,-355.42 1307.26,-361.71"/>
</a>
</g>
</g>
<!-- Node22 -->
<g id="Node000022" class="node">
<title>Node22</title>
<g id="a_Node000022"><a xlink:href="Plane_8hpp.html" target="_top" xlink:title=" ">
<polygon fill="white" stroke="#666666" points="1409.23,-327 1284.23,-327 1284.23,-286 1409.23,-286 1409.23,-327"/>
<text text-anchor="start" x="1292.23" y="-315" font-family="Helvetica,sans-Serif" font-size="10.00">src/Objects/Plugins</text>
<text text-anchor="start" x="1292.23" y="-304" font-family="Helvetica,sans-Serif" font-size="10.00">/CorePlugin/Primitives</text>
<text text-anchor="middle" x="1346.73" y="-293" font-family="Helvetica,sans-Serif" font-size="10.00">/Plane/Plane.hpp</text>
</a>
</g>
</g>
<!-- Node1&#45;&gt;Node22 -->
<g id="edge30_Node000001_Node000022" class="edge">
<title>Node1&#45;&gt;Node22</title>
<g id="a_edge30_Node000001_Node000022"><a xlink:title=" ">
<path fill="none" stroke="#63b8ff" d="M1346.73,-352.91C1346.73,-344.47 1346.73,-335.1 1346.73,-327.07"/>
<polygon fill="#63b8ff" stroke="#63b8ff" points="1343.23,-352.94 1346.73,-362.94 1350.23,-352.94 1343.23,-352.94"/>
</a>
</g>
</g>
<!-- Node24 -->
<g id="Node000024" class="node">
<title>Node24</title>
<g id="a_Node000024"><a xlink:href="Sphere_8hpp.html" target="_top" xlink:title=" ">
<polygon fill="white" stroke="#666666" points="1552.23,-327 1427.23,-327 1427.23,-286 1552.23,-286 1552.23,-327"/>
<text text-anchor="start" x="1435.23" y="-315" font-family="Helvetica,sans-Serif" font-size="10.00">src/Objects/Plugins</text>
<text text-anchor="start" x="1435.23" y="-304" font-family="Helvetica,sans-Serif" font-size="10.00">/CorePlugin/Primitives</text>
<text text-anchor="middle" x="1489.73" y="-293" font-family="Helvetica,sans-Serif" font-size="10.00">/Sphere/Sphere.hpp</text>
</a>
</g>
</g>
<!-- Node1&#45;&gt;Node24 -->
<g id="edge33_Node000001_Node000024" class="edge">
<title>Node1&#45;&gt;Node24</title>
<g id="a_edge33_Node000001_Node000024"><a xlink:title=" ">
<path fill="none" stroke="#63b8ff" d="M1384.77,-358.51C1404.73,-348.81 1429.18,-336.93 1449.45,-327.07"/>
<polygon fill="#63b8ff" stroke="#63b8ff" points="1383.13,-355.42 1375.66,-362.94 1386.19,-361.71 1383.13,-355.42"/>
</a>
</g>
</g>
<!-- Node26 -->
<g id="Node000026" class="node">
<title>Node26</title>
<g id="a_Node000026"><a xlink:href="BVH_8hpp.html" target="_top" xlink:title=" ">
<polygon fill="white" stroke="#666666" points="556.73,-244.5 432.73,-244.5 432.73,-214.5 556.73,-214.5 556.73,-244.5"/>
<text text-anchor="start" x="440.73" y="-232.5" font-family="Helvetica,sans-Serif" font-size="10.00">src/SceneSystem/BVH</text>
<text text-anchor="middle" x="494.73" y="-221.5" font-family="Helvetica,sans-Serif" font-size="10.00">/BVH.hpp</text>
</a>
</g>
</g>
<!-- Node1&#45;&gt;Node26 -->
<g id="edge37_Node000001_Node000026" class="edge">
<title>Node1&#45;&gt;Node26</title>
<g id="a_edge37_Node000001_Node000026"><a xlink:title=" ">
<path fill="none" stroke="#63b8ff" d="M1263.21,-377.51C1117.29,-377.2 822.67,-370.93 730.73,-327 708.03,-316.16 713.29,-298.94 691.73,-286 640.31,-255.16 619.4,-266.38 561.73,-250 555.55,-248.25 549.06,-246.38 542.65,-244.53"/>
<polygon fill="#63b8ff" stroke="#63b8ff" points="1263.45,-381.01 1273.46,-377.52 1263.46,-374.01 1263.45,-381.01"/>
</a>
</g>
</g>
<!-- Node4 -->
<g id="Node000004" class="node">
<title>Node4</title>
<g id="a_Node000004"><a xlink:href="CorePlugin_8cpp.html" target="_top" xlink:title=" ">
<polygon fill="white" stroke="#666666" points="1155.73,-173 1007.73,-173 1007.73,-143 1155.73,-143 1155.73,-173"/>
<text text-anchor="start" x="1015.73" y="-161" font-family="Helvetica,sans-Serif" font-size="10.00">src/Objects/Plugins</text>
<text text-anchor="middle" x="1081.73" y="-150" font-family="Helvetica,sans-Serif" font-size="10.00">/CorePlugin/CorePlugin.cpp</text>
</a>
</g>
</g>
<!-- Node3&#45;&gt;Node4 -->
<g id="edge3_Node000003_Node000004" class="edge">
<title>Node3&#45;&gt;Node4</title>
<g id="a_edge3_Node000003_Node000004"><a xlink:title=" ">
<path fill="none" stroke="#63b8ff" d="M808.39,-287.46C816.26,-265.44 832.69,-228.69 859.73,-209 902.52,-177.84 961.34,-165.6 1007.68,-161.01"/>
<polygon fill="#63b8ff" stroke="#63b8ff" points="805.07,-286.36 805.2,-296.96 811.7,-288.59 805.07,-286.36"/>
</a>
</g>
</g>
<!-- Node5 -->
<g id="Node000005" class="node">
<title>Node5</title>
<g id="a_Node000005"><a xlink:href="SceneWriter_8hpp.html" target="_top" xlink:title=" ">
<polygon fill="white" stroke="#666666" points="774.23,-250 613.23,-250 613.23,-209 774.23,-209 774.23,-250"/>
<text text-anchor="start" x="621.23" y="-238" font-family="Helvetica,sans-Serif" font-size="10.00">src/Objects/Plugins</text>
<text text-anchor="start" x="621.23" y="-227" font-family="Helvetica,sans-Serif" font-size="10.00">/CorePlugin/Interfaces</text>
<text text-anchor="middle" x="693.73" y="-216" font-family="Helvetica,sans-Serif" font-size="10.00">/SceneWriter/SceneWriter.hpp</text>
</a>
</g>
</g>
<!-- Node3&#45;&gt;Node5 -->
<g id="edge4_Node000003_Node000005" class="edge">
<title>Node3&#45;&gt;Node5</title>
<g id="a_edge4_Node000003_Node000005"><a xlink:title=" ">
<path fill="none" stroke="#63b8ff" d="M781.65,-291C764.78,-279.39 740.96,-263 722.37,-250.21"/>
<polygon fill="#63b8ff" stroke="#63b8ff" points="780,-294.11 790.22,-296.9 783.97,-288.34 780,-294.11"/>
</a>
</g>
</g>
<!-- Node7 -->
<g id="Node000007" class="node">
<title>Node7</title>
<g id="a_Node000007"><a xlink:href="Parser_8hpp.html" target="_top" xlink:title=" ">
<polygon fill="white" stroke="#666666" points="178.73,-244.5 14.73,-244.5 14.73,-214.5 178.73,-214.5 178.73,-244.5"/>
<text text-anchor="start" x="22.73" y="-232.5" font-family="Helvetica,sans-Serif" font-size="10.00">src/SceneSystem/ConfigParser</text>
<text text-anchor="middle" x="96.73" y="-221.5" font-family="Helvetica,sans-Serif" font-size="10.00">/Parser.hpp</text>
</a>
</g>
</g>
<!-- Node3&#45;&gt;Node7 -->
<g id="edge7_Node000003_Node000007" class="edge">
<title>Node3&#45;&gt;Node7</title>
<g id="a_edge7_Node000003_Node000007"><a xlink:title=" ">
<path fill="none" stroke="#63b8ff" d="M749.98,-295.17C731.6,-291.85 710.81,-288.41 691.73,-286 487.4,-260.15 434.4,-272.95 229.73,-250 213.26,-248.15 195.7,-245.83 178.91,-243.44"/>
<polygon fill="#63b8ff" stroke="#63b8ff" points="749.44,-298.63 759.91,-296.99 750.71,-291.74 749.44,-298.63"/>
</a>
</g>
</g>
<!-- Node11 -->
<g id="Node000011" class="node">
<title>Node11</title>
<g id="a_Node000011"><a xlink:href="main_8cpp.html" target="_top" xlink:title=" ">
<polygon fill="white" stroke="#666666" points="481.23,-24.5 402.23,-24.5 402.23,-5.5 481.23,-5.5 481.23,-24.5"/>
<text text-anchor="middle" x="441.73" y="-12.5" font-family="Helvetica,sans-Serif" font-size="10.00">src/main.cpp</text>
</a>
</g>
</g>
<!-- Node3&#45;&gt;Node11 -->
<g id="edge24_Node000003_Node000011" class="edge">
<title>Node3&#45;&gt;Node11</title>
<g id="a_edge24_Node000003_Node000011"><a xlink:title=" ">
<path fill="none" stroke="#63b8ff" d="M808,-286.77C819.36,-241.95 840.67,-127.67 782.73,-66 742.37,-23.05 562.19,-16.59 481.28,-15.9"/>
<polygon fill="#63b8ff" stroke="#63b8ff" points="804.57,-286.03 805.38,-296.59 811.34,-287.83 804.57,-286.03"/>
</a>
</g>
</g>
<!-- Node12 -->
<g id="Node000012" class="node">
<title>Node12</title>
<g id="a_Node000012"><a xlink:href="PluginManager_8hpp.html" target="_top" xlink:title="Plugin manager for loading and managing plugins.">
<polygon fill="white" stroke="#666666" points="414.73,-244.5 238.73,-244.5 238.73,-214.5 414.73,-214.5 414.73,-244.5"/>
<text text-anchor="start" x="246.73" y="-232.5" font-family="Helvetica,sans-Serif" font-size="10.00">src/SceneSystem/PluginManager</text>
<text text-anchor="middle" x="326.73" y="-221.5" font-family="Helvetica,sans-Serif" font-size="10.00">/PluginManager.hpp</text>
</a>
</g>
</g>
<!-- Node3&#45;&gt;Node12 -->
<g id="edge12_Node000003_Node000012" class="edge">
<title>Node3&#45;&gt;Node12</title>
<g id="a_edge12_Node000003_Node000012"><a xlink:title=" ">
<path fill="none" stroke="#63b8ff" d="M746.54,-295.18C729.01,-292.08 709.59,-288.77 691.73,-286 572.96,-267.6 542.26,-269.85 423.73,-250 413.98,-248.37 403.73,-246.49 393.67,-244.55"/>
<polygon fill="#63b8ff" stroke="#63b8ff" points="746.16,-298.66 756.62,-296.97 747.39,-291.77 746.16,-298.66"/>
</a>
</g>
</g>
<!-- Node14 -->
<g id="Node000014" class="node">
<title>Node14</title>
<g id="a_Node000014"><a xlink:href="Scene_8hpp.html" target="_top" xlink:title=" ">
<polygon fill="white" stroke="#666666" points="560.73,-173 428.73,-173 428.73,-143 560.73,-143 560.73,-173"/>
<text text-anchor="start" x="436.73" y="-161" font-family="Helvetica,sans-Serif" font-size="10.00">src/SceneSystem/Scene</text>
<text text-anchor="middle" x="494.73" y="-150" font-family="Helvetica,sans-Serif" font-size="10.00">/Scene.hpp</text>
</a>
</g>
</g>
<!-- Node3&#45;&gt;Node14 -->
<g id="edge21_Node000003_Node000014" class="edge">
<title>Node3&#45;&gt;Node14</title>
<g id="a_edge21_Node000003_Node000014"><a xlink:title=" ">
<path fill="none" stroke="#63b8ff" d="M760.74,-294.41C704.4,-279.45 610.55,-254.16 603.73,-250 582.51,-237.06 584.43,-225.35 565.73,-209 550.52,-195.7 531.78,-182.63 517.37,-173.18"/>
<polygon fill="#63b8ff" stroke="#63b8ff" points="759.89,-297.81 770.45,-296.99 761.69,-291.04 759.89,-297.81"/>
</a>
</g>
</g>
<!-- Node17 -->
<g id="Node000017" class="node">
<title>Node17</title>
<g id="a_Node000017"><a xlink:href="SceneNodeHelpers_8hpp.html" target="_top" xlink:title=" ">
<polygon fill="white" stroke="#666666" points="1038.73,-244.5 868.73,-244.5 868.73,-214.5 1038.73,-214.5 1038.73,-244.5"/>
<text text-anchor="start" x="876.73" y="-232.5" font-family="Helvetica,sans-Serif" font-size="10.00">src/SceneSystem/SceneNode</text>
<text text-anchor="middle" x="953.73" y="-221.5" font-family="Helvetica,sans-Serif" font-size="10.00">Helpers/SceneNodeHelpers.hpp</text>
</a>
</g>
</g>
<!-- Node3&#45;&gt;Node17 -->
<g id="edge22_Node000003_Node000017" class="edge">
<title>Node3&#45;&gt;Node17</title>
<g id="a_edge22_Node000003_Node000017"><a xlink:title=" ">
<path fill="none" stroke="#63b8ff" d="M829.25,-292.32C856.18,-278.95 897.73,-258.31 925.31,-244.61"/>
<polygon fill="#63b8ff" stroke="#63b8ff" points="827.45,-289.31 820.05,-296.9 830.56,-295.58 827.45,-289.31"/>
</a>
</g>
</g>
<!-- Node5&#45;&gt;Node4 -->
<g id="edge5_Node000005_Node000004" class="edge">
<title>Node5&#45;&gt;Node4</title>
<g id="a_edge5_Node000005_Node000004"><a xlink:title=" ">
<path fill="none" stroke="#63b8ff" d="M784.84,-212.18C852.68,-200.03 944.13,-183.65 1007.53,-172.29"/>
<polygon fill="#63b8ff" stroke="#63b8ff" points="783.82,-208.81 774.59,-214.02 785.05,-215.7 783.82,-208.81"/>
</a>
</g>
</g>
<!-- Node6 -->
<g id="Node000006" class="node">
<title>Node6</title>
<g id="a_Node000006"><a xlink:href="SceneWriter_8cpp.html" target="_top" xlink:title=" ">
<polygon fill="white" stroke="#666666" points="631.23,-107 470.23,-107 470.23,-66 631.23,-66 631.23,-107"/>
<text text-anchor="start" x="478.23" y="-95" font-family="Helvetica,sans-Serif" font-size="10.00">src/Objects/Plugins</text>
<text text-anchor="start" x="478.23" y="-84" font-family="Helvetica,sans-Serif" font-size="10.00">/CorePlugin/Interfaces</text>
<text text-anchor="middle" x="550.73" y="-73" font-family="Helvetica,sans-Serif" font-size="10.00">/SceneWriter/SceneWriter.cpp</text>
</a>
</g>
</g>
<!-- Node5&#45;&gt;Node6 -->
<g id="edge6_Node000005_Node000006" class="edge">
<title>Node5&#45;&gt;Node6</title>
<g id="a_edge6_Node000005_Node000006"><a xlink:title=" ">
<path fill="none" stroke="#63b8ff" d="M666.39,-201.55C638.5,-174.05 595.87,-132.02 570.9,-107.39"/>
<polygon fill="#63b8ff" stroke="#63b8ff" points="664.26,-204.37 673.84,-208.89 669.18,-199.38 664.26,-204.37"/>
</a>
</g>
</g>
<!-- Node8 -->
<g id="Node000008" class="node">
<title>Node8</title>
<g id="a_Node000008"><a xlink:href="Parser_8cpp.html" target="_top" xlink:title=" ">
<polygon fill="white" stroke="#666666" points="178.73,-173 14.73,-173 14.73,-143 178.73,-143 178.73,-173"/>
<text text-anchor="start" x="22.73" y="-161" font-family="Helvetica,sans-Serif" font-size="10.00">src/SceneSystem/ConfigParser</text>
<text text-anchor="middle" x="96.73" y="-150" font-family="Helvetica,sans-Serif" font-size="10.00">/Parser.cpp</text>
</a>
</g>
</g>
<!-- Node7&#45;&gt;Node8 -->
<g id="edge8_Node000007_Node000008" class="edge">
<title>Node7&#45;&gt;Node8</title>
<g id="a_edge8_Node000007_Node000008"><a xlink:title=" ">
<path fill="none" stroke="#63b8ff" d="M96.73,-204.25C96.73,-193.81 96.73,-181.99 96.73,-173.04"/>
<polygon fill="#63b8ff" stroke="#63b8ff" points="93.23,-204.44 96.73,-214.44 100.23,-204.44 93.23,-204.44"/>
</a>
</g>
</g>
<!-- Node9 -->
<g id="Node000009" class="node">
<title>Node9</title>
<g id="a_Node000009"><a xlink:href="SceneLoader_8hpp.html" target="_top" xlink:title=" ">
<polygon fill="white" stroke="#666666" points="263.23,-101.5 98.23,-101.5 98.23,-71.5 263.23,-71.5 263.23,-101.5"/>
<text text-anchor="start" x="106.23" y="-89.5" font-family="Helvetica,sans-Serif" font-size="10.00">src/SceneSystem/SceneLoader</text>
<text text-anchor="middle" x="180.73" y="-78.5" font-family="Helvetica,sans-Serif" font-size="10.00">/SceneLoader.hpp</text>
</a>
</g>
</g>
<!-- Node7&#45;&gt;Node9 -->
<g id="edge9_Node000007_Node000009" class="edge">
<title>Node7&#45;&gt;Node9</title>
<g id="a_edge9_Node000007_Node000009"><a xlink:title=" ">
<path fill="none" stroke="#63b8ff" d="M52.49,-209.92C20.73,-193.84 -13.39,-169.11 5.73,-143 27,-113.94 63.59,-99.72 97.83,-92.9"/>
<polygon fill="#63b8ff" stroke="#63b8ff" points="51.25,-213.21 61.78,-214.42 54.31,-206.91 51.25,-213.21"/>
</a>
</g>
</g>
<!-- Node10 -->
<g id="Node000010" class="node">
<title>Node10</title>
<g id="a_Node000010"><a xlink:href="SceneLoader_8cpp.html" target="_top" xlink:title=" ">
<polygon fill="white" stroke="#666666" points="263.23,-30 98.23,-30 98.23,0 263.23,0 263.23,-30"/>
<text text-anchor="start" x="106.23" y="-18" font-family="Helvetica,sans-Serif" font-size="10.00">src/SceneSystem/SceneLoader</text>
<text text-anchor="middle" x="180.73" y="-7" font-family="Helvetica,sans-Serif" font-size="10.00">/SceneLoader.cpp</text>
</a>
</g>
</g>
<!-- Node9&#45;&gt;Node10 -->
<g id="edge10_Node000009_Node000010" class="edge">
<title>Node9&#45;&gt;Node10</title>
<g id="a_edge10_Node000009_Node000010"><a xlink:title=" ">
<path fill="none" stroke="#63b8ff" d="M180.73,-61.25C180.73,-50.81 180.73,-38.99 180.73,-30.04"/>
<polygon fill="#63b8ff" stroke="#63b8ff" points="177.23,-61.44 180.73,-71.44 184.23,-61.44 177.23,-61.44"/>
</a>
</g>
</g>
<!-- Node9&#45;&gt;Node11 -->
<g id="edge11_Node000009_Node000011" class="edge">
<title>Node9&#45;&gt;Node11</title>
<g id="a_edge11_Node000009_Node000011"><a xlink:title=" ">
<path fill="none" stroke="#63b8ff" d="M243.4,-68.81C295.75,-54.87 368.27,-35.56 409.55,-24.57"/>
<polygon fill="#63b8ff" stroke="#63b8ff" points="242.31,-65.48 233.54,-71.44 244.11,-72.24 242.31,-65.48"/>
</a>
</g>
</g>
<!-- Node12&#45;&gt;Node9 -->
<g id="edge20_Node000012_Node000009" class="edge">
<title>Node12&#45;&gt;Node9</title>
<g id="a_edge20_Node000012_Node000009"><a xlink:title=" ">
<path fill="none" stroke="#63b8ff" d="M354.78,-208.07C375.65,-190.36 397.94,-164.29 381.73,-143 373.26,-131.87 301.8,-113.96 246.47,-101.51"/>
<polygon fill="#63b8ff" stroke="#63b8ff" points="352.51,-205.41 346.94,-214.42 356.91,-210.85 352.51,-205.41"/>
</a>
</g>
</g>
<!-- Node13 -->
<g id="Node000013" class="node">
<title>Node13</title>
<g id="a_Node000013"><a xlink:href="PluginManager_8cpp.html" target="_top" xlink:title=" ">
<polygon fill="white" stroke="#666666" points="372.73,-173 196.73,-173 196.73,-143 372.73,-143 372.73,-173"/>
<text text-anchor="start" x="204.73" y="-161" font-family="Helvetica,sans-Serif" font-size="10.00">src/SceneSystem/PluginManager</text>
<text text-anchor="middle" x="284.73" y="-150" font-family="Helvetica,sans-Serif" font-size="10.00">/PluginManager.cpp</text>
</a>
</g>
</g>
<!-- Node12&#45;&gt;Node13 -->
<g id="edge13_Node000012_Node000013" class="edge">
<title>Node12&#45;&gt;Node13</title>
<g id="a_edge13_Node000012_Node000013"><a xlink:title=" ">
<path fill="none" stroke="#63b8ff" d="M312.86,-205.56C306.37,-194.82 298.85,-182.36 293.21,-173.04"/>
<polygon fill="#63b8ff" stroke="#63b8ff" points="310.06,-207.69 318.23,-214.44 316.05,-204.07 310.06,-207.69"/>
</a>
</g>
</g>
<!-- Node12&#45;&gt;Node14 -->
<g id="edge14_Node000012_Node000014" class="edge">
<title>Node12&#45;&gt;Node14</title>
<g id="a_edge14_Node000012_Node000014"><a xlink:title=" ">
<path fill="none" stroke="#63b8ff" d="M369.97,-210.61C398.23,-198.92 434.61,-183.87 460.78,-173.04"/>
<polygon fill="#63b8ff" stroke="#63b8ff" points="368.63,-207.38 360.72,-214.44 371.3,-213.85 368.63,-207.38"/>
</a>
</g>
</g>
<!-- Node14&#45;&gt;Node6 -->
<g id="edge15_Node000014_Node000006" class="edge">
<title>Node14&#45;&gt;Node6</title>
<g id="a_edge15_Node000014_Node000006"><a xlink:title=" ">
<path fill="none" stroke="#63b8ff" d="M512.34,-135.14C519.59,-126.15 527.91,-115.81 534.95,-107.07"/>
<polygon fill="#63b8ff" stroke="#63b8ff" points="509.61,-132.95 506.06,-142.94 515.06,-137.34 509.61,-132.95"/>
</a>
</g>
</g>
<!-- Node14&#45;&gt;Node9 -->
<g id="edge18_Node000014_Node000009" class="edge">
<title>Node14&#45;&gt;Node9</title>
<g id="a_edge18_Node000014_Node000009"><a xlink:title=" ">
<path fill="none" stroke="#63b8ff" d="M421.37,-140.76C367.64,-128.87 295.43,-112.89 244.17,-101.54"/>
<polygon fill="#63b8ff" stroke="#63b8ff" points="420.66,-144.19 431.18,-142.94 422.18,-137.36 420.66,-144.19"/>
</a>
</g>
</g>
<!-- Node14&#45;&gt;Node11 -->
<g id="edge19_Node000014_Node000011" class="edge">
<title>Node14&#45;&gt;Node11</title>
<g id="a_edge19_Node000014_Node000011"><a xlink:title=" ">
<path fill="none" stroke="#63b8ff" d="M476.52,-134.29C470.72,-126.1 464.76,-116.51 460.73,-107 448.55,-78.33 443.94,-41.17 442.4,-24.61"/>
<polygon fill="#63b8ff" stroke="#63b8ff" points="473.9,-136.63 482.67,-142.58 479.52,-132.46 473.9,-136.63"/>
</a>
</g>
</g>
<!-- Node14&#45;&gt;Node15 -->
<g id="edge16_Node000014_Node000015" class="edge">
<title>Node14&#45;&gt;Node15</title>
<g id="a_edge16_Node000014_Node000015"><a xlink:title=" ">
<path fill="none" stroke="#63b8ff" d="M548.39,-139.81C579.38,-129.89 618.45,-117.37 650.61,-107.07"/>
<polygon fill="#63b8ff" stroke="#63b8ff" points="547.09,-136.55 538.64,-142.94 549.23,-143.22 547.09,-136.55"/>
</a>
</g>
</g>
<!-- Node16 -->
<g id="Node000016" class="node">
<title>Node16</title>
<g id="a_Node000016"><a xlink:href="Scene_8cpp.html" target="_top" xlink:title=" ">
<polygon fill="white" stroke="#666666" points="413.73,-101.5 281.73,-101.5 281.73,-71.5 413.73,-71.5 413.73,-101.5"/>
<text text-anchor="start" x="289.73" y="-89.5" font-family="Helvetica,sans-Serif" font-size="10.00">src/SceneSystem/Scene</text>
<text text-anchor="middle" x="347.73" y="-78.5" font-family="Helvetica,sans-Serif" font-size="10.00">/Scene.cpp</text>
</a>
</g>
</g>
<!-- Node14&#45;&gt;Node16 -->
<g id="edge17_Node000014_Node000016" class="edge">
<title>Node14&#45;&gt;Node16</title>
<g id="a_edge17_Node000014_Node000016"><a xlink:title=" ">
<path fill="none" stroke="#63b8ff" d="M455.92,-138.65C431.33,-127.03 400.03,-112.23 377.43,-101.54"/>
<polygon fill="#63b8ff" stroke="#63b8ff" points="454.44,-141.83 464.98,-142.94 457.43,-135.5 454.44,-141.83"/>
</a>
</g>
</g>
<!-- Node17&#45;&gt;Node4 -->
<g id="edge23_Node000017_Node000004" class="edge">
<title>Node17&#45;&gt;Node4</title>
<g id="a_edge23_Node000017_Node000004"><a xlink:title=" ">
<path fill="none" stroke="#63b8ff" d="M988.66,-209.53C1009.88,-198.01 1036.53,-183.54 1055.86,-173.04"/>
<polygon fill="#63b8ff" stroke="#63b8ff" points="986.75,-206.59 979.63,-214.44 990.09,-212.74 986.75,-206.59"/>
</a>
</g>
</g>
<!-- Node20&#45;&gt;Node4 -->
<g id="edge28_Node000020_Node000004" class="edge">
<title>Node20&#45;&gt;Node4</title>
<g id="a_edge28_Node000020_Node000004"><a xlink:title=" ">
<path fill="none" stroke="#63b8ff" d="M1206.82,-275.58C1207.36,-254.97 1204.77,-227.97 1190.73,-209 1178.15,-192.02 1158.41,-180.64 1139.17,-173.09"/>
<polygon fill="#63b8ff" stroke="#63b8ff" points="1203.31,-275.53 1206.29,-285.7 1210.3,-275.9 1203.31,-275.53"/>
</a>
</g>
</g>
<!-- Node21 -->
<g id="Node000021" class="node">
<title>Node21</title>
<g id="a_Node000021"><a xlink:href="Cylinder_8cpp.html" target="_top" xlink:title=" ">
<polygon fill="white" stroke="#666666" points="1182.23,-250 1057.23,-250 1057.23,-209 1182.23,-209 1182.23,-250"/>
<text text-anchor="start" x="1065.23" y="-238" font-family="Helvetica,sans-Serif" font-size="10.00">src/Objects/Plugins</text>
<text text-anchor="start" x="1065.23" y="-227" font-family="Helvetica,sans-Serif" font-size="10.00">/CorePlugin/Primitives</text>
<text text-anchor="middle" x="1119.73" y="-216" font-family="Helvetica,sans-Serif" font-size="10.00">/Cylinder/Cylinder.cpp</text>
</a>
</g>
</g>
<!-- Node20&#45;&gt;Node21 -->
<g id="edge29_Node000020_Node000021" class="edge">
<title>Node20&#45;&gt;Node21</title>
<g id="a_edge29_Node000020_Node000021"><a xlink:title=" ">
<path fill="none" stroke="#63b8ff" d="M1174.12,-279.07C1163.43,-269.52 1151.56,-258.93 1141.65,-250.07"/>
<polygon fill="#63b8ff" stroke="#63b8ff" points="1171.87,-281.75 1181.66,-285.79 1176.53,-276.52 1171.87,-281.75"/>
</a>
</g>
</g>
<!-- Node22&#45;&gt;Node4 -->
<g id="edge31_Node000022_Node000004" class="edge">
<title>Node22&#45;&gt;Node4</title>
<g id="a_edge31_Node000022_Node000004"><a xlink:title=" ">
<path fill="none" stroke="#63b8ff" d="M1366.61,-277.1C1378.63,-256.14 1388.8,-228.07 1372.73,-209 1345.51,-176.71 1232.8,-165.27 1155.91,-161.22"/>
<polygon fill="#63b8ff" stroke="#63b8ff" points="1363.47,-275.53 1361.24,-285.89 1369.44,-279.18 1363.47,-275.53"/>
</a>
</g>
</g>
<!-- Node23 -->
<g id="Node000023" class="node">
<title>Node23</title>
<g id="a_Node000023"><a xlink:href="Plane_8cpp.html" target="_top" xlink:title=" ">
<polygon fill="white" stroke="#666666" points="1364.23,-250 1239.23,-250 1239.23,-209 1364.23,-209 1364.23,-250"/>
<text text-anchor="start" x="1247.23" y="-238" font-family="Helvetica,sans-Serif" font-size="10.00">src/Objects/Plugins</text>
<text text-anchor="start" x="1247.23" y="-227" font-family="Helvetica,sans-Serif" font-size="10.00">/CorePlugin/Primitives</text>
<text text-anchor="middle" x="1301.73" y="-216" font-family="Helvetica,sans-Serif" font-size="10.00">/Plane/Plane.cpp</text>
</a>
</g>
</g>
<!-- Node22&#45;&gt;Node23 -->
<g id="edge32_Node000022_Node000023" class="edge">
<title>Node22&#45;&gt;Node23</title>
<g id="a_edge32_Node000022_Node000023"><a xlink:title=" ">
<path fill="none" stroke="#63b8ff" d="M1329.69,-277.11C1324.28,-268.09 1318.42,-258.33 1313.47,-250.07"/>
<polygon fill="#63b8ff" stroke="#63b8ff" points="1326.76,-279.02 1334.9,-285.79 1332.76,-275.42 1326.76,-279.02"/>
</a>
</g>
</g>
<!-- Node24&#45;&gt;Node4 -->
<g id="edge34_Node000024_Node000004" class="edge">
<title>Node24&#45;&gt;Node4</title>
<g id="a_edge34_Node000024_Node000004"><a xlink:title=" ">
<path fill="none" stroke="#63b8ff" d="M1531.46,-279.8C1541.23,-271.58 1550.34,-261.57 1555.73,-250 1563.42,-233.48 1567.92,-222.54 1555.73,-209 1529.5,-179.86 1282.37,-166.46 1155.75,-161.47"/>
<polygon fill="#63b8ff" stroke="#63b8ff" points="1529.27,-277.07 1523.55,-286 1533.58,-282.58 1529.27,-277.07"/>
</a>
</g>
</g>
<!-- Node25 -->
<g id="Node000025" class="node">
<title>Node25</title>
<g id="a_Node000025"><a xlink:href="Sphere_8cpp.html" target="_top" xlink:title=" ">
<polygon fill="white" stroke="#666666" points="1546.23,-250 1421.23,-250 1421.23,-209 1546.23,-209 1546.23,-250"/>
<text text-anchor="start" x="1429.23" y="-238" font-family="Helvetica,sans-Serif" font-size="10.00">src/Objects/Plugins</text>
<text text-anchor="start" x="1429.23" y="-227" font-family="Helvetica,sans-Serif" font-size="10.00">/CorePlugin/Primitives</text>
<text text-anchor="middle" x="1483.73" y="-216" font-family="Helvetica,sans-Serif" font-size="10.00">/Sphere/Sphere.cpp</text>
</a>
</g>
</g>
<!-- Node24&#45;&gt;Node25 -->
<g id="edge35_Node000024_Node000025" class="edge">
<title>Node24&#45;&gt;Node25</title>
<g id="a_edge35_Node000024_Node000025"><a xlink:title=" ">
<path fill="none" stroke="#63b8ff" d="M1487.34,-275.69C1486.65,-267.08 1485.92,-257.9 1485.29,-250.07"/>
<polygon fill="#63b8ff" stroke="#63b8ff" points="1483.86,-276.11 1488.15,-285.79 1490.84,-275.55 1483.86,-276.11"/>
</a>
</g>
</g>
<!-- Node26&#45;&gt;Node14 -->
<g id="edge38_Node000026_Node000014" class="edge">
<title>Node26&#45;&gt;Node14</title>
<g id="a_edge38_Node000026_Node000014"><a xlink:title=" ">
<path fill="none" stroke="#63b8ff" d="M494.73,-204.25C494.73,-193.81 494.73,-181.99 494.73,-173.04"/>
<polygon fill="#63b8ff" stroke="#63b8ff" points="491.23,-204.44 494.73,-214.44 498.23,-204.44 491.23,-204.44"/>
</a>
</g>
</g>
</g>
</svg>

<g id="navigator" transform="translate(0 0)" fill="#404254">
  <rect fill="#f2f5e9" fill-opacity="0.5" stroke="#606060" stroke-width=".5" x="0" y="0" width="60" height="60"/>
  <use id="zoomplus" xlink:href="#zoomPlus" x="17" y="9" onmousedown="handleZoom(evt,'in')"/>
  <use id="zoomminus" xlink:href="#zoomMin" x="42" y="9" onmousedown="handleZoom(evt,'out')"/>
  <use id="reset" xlink:href="#resetDef" x="30" y="36" onmousedown="handleReset()"/>
   <use id="arrowup" xlink:href="#arrowUp" x="0" y="0" onmousedown="handlePan(0,-1)"/>
  <use id="arrowright" xlink:href="#arrowRight" x="0" y="0" onmousedown="handlePan(1,0)"/>
  <use id="arrowdown" xlink:href="#arrowDown" x="0" y="0" onmousedown="handlePan(0,1)"/>
  <use id="arrowleft" xlink:href="#arrowLeft" x="0" y="0" onmousedown="handlePan(-1,0)"/>
</g>
<svg viewBox="0 0 15 15" width="100%" height="30px" preserveAspectRatio="xMaxYMin meet">
 <g id="arrow_out" transform="scale(0.3 0.3)">
  <a xlink:href="APrimitive_8hpp__dep__incl_org.svg" target="_base">
   <rect id="button" ry="5" rx="5" y="6" x="6" height="38" width="38"
        fill="#f2f5e9" fill-opacity="0.5" stroke="#606060" stroke-width="1.0"/>
   <path id="arrow"
     d="M 11.500037,31.436501 C 11.940474,20.09759 22.043105,11.32322 32.158766,21.979434 L 37.068811,17.246167 C 37.068811,17.246167 37.088388,32 37.088388,32 L 22.160133,31.978069 C 22.160133,31.978069 26.997745,27.140456 26.997745,27.140456 C 18.528582,18.264221 13.291696,25.230495 11.500037,31.436501 z"
     style="fill:#404040;"/>
  </a>
 </g>
</svg>

<style type='text/css'>
<![CDATA[
[data-mouse-over-selected='false'] { opacity: 0.7; }
[data-mouse-over-selected='true']  { opacity: 1.0; }
]]>
</style>
<script type="application/ecmascript"><![CDATA[
document.addEventListener('DOMContentLoaded', (event) => {
  highlightEdges();
  highlightAdjacentNodes();
});
]]></script>
</svg>
