<?xml version="1.0" encoding="UTF-8" standalone="no"?>
<!DOCTYPE svg PUBLIC "-//W3C//DTD SVG 1.1//EN"
 "http://www.w3.org/Graphics/SVG/1.1/DTD/svg11.dtd">
<!-- Generated by graphviz version 2.43.0 (0)
 -->
<!-- Title: src/Objects/Abstracts/ARenderer/ARenderer.hpp Pages: 1 -->
<svg width="1024pt" height="445pt"
 viewBox="0.00 0.00 1023.50 445.00" xmlns="http://www.w3.org/2000/svg" xmlns:xlink="http://www.w3.org/1999/xlink">
<g id="graph0" class="graph" transform="scale(1 1) rotate(0) translate(4 441)">
<title>src/Objects/Abstracts/ARenderer/ARenderer.hpp</title>
<!-- Node1 -->
<g id="Node000001" class="node">
<title>Node1</title>
<g id="a_Node000001"><a xlink:title=" ">
<polygon fill="#999999" stroke="#666666" points="742.5,-437 597.5,-437 597.5,-407 742.5,-407 742.5,-437"/>
<text text-anchor="start" x="605.5" y="-425" font-family="Helvetica,sans-Serif" font-size="10.00">src/Objects/Abstracts</text>
<text text-anchor="middle" x="670" y="-414" font-family="Helvetica,sans-Serif" font-size="10.00">/ARenderer/ARenderer.hpp</text>
</a>
</g>
</g>
<!-- Node2 -->
<g id="Node000002" class="node">
<title>Node2</title>
<g id="a_Node000002"><a xlink:href="AInterface_8hpp.html" target="_top" xlink:title=" ">
<polygon fill="white" stroke="#666666" points="742,-371 598,-371 598,-341 742,-341 742,-371"/>
<text text-anchor="start" x="606" y="-359" font-family="Helvetica,sans-Serif" font-size="10.00">src/Objects/Abstracts</text>
<text text-anchor="middle" x="670" y="-348" font-family="Helvetica,sans-Serif" font-size="10.00">/AInterface/AInterface.hpp</text>
</a>
</g>
</g>
<!-- Node1&#45;&gt;Node2 -->
<g id="edge1_Node000001_Node000002" class="edge">
<title>Node1&#45;&gt;Node2</title>
<g id="a_edge1_Node000001_Node000002"><a xlink:title=" ">
<path fill="none" stroke="#63b8ff" d="M670,-396.54C670,-387.96 670,-378.61 670,-371.16"/>
<polygon fill="#63b8ff" stroke="#63b8ff" points="666.5,-396.8 670,-406.8 673.5,-396.8 666.5,-396.8"/>
</a>
</g>
</g>
<!-- Node3 -->
<g id="Node000003" class="node">
<title>Node3</title>
<g id="a_Node000003"><a xlink:href="Plugin_8hpp.html" target="_top" xlink:title=" ">
<polygon fill="white" stroke="#666666" points="632.5,-305 507.5,-305 507.5,-286 632.5,-286 632.5,-305"/>
<text text-anchor="middle" x="570" y="-293" font-family="Helvetica,sans-Serif" font-size="10.00">src/Objects/Plugin.hpp</text>
</a>
</g>
</g>
<!-- Node1&#45;&gt;Node3 -->
<g id="edge25_Node000001_Node000003" class="edge">
<title>Node1&#45;&gt;Node3</title>
<g id="a_edge25_Node000001_Node000003"><a xlink:title=" ">
<path fill="none" stroke="#63b8ff" d="M626.32,-402.19C612.6,-394.36 598.55,-384 589,-371 574.14,-350.78 570.86,-320.08 570.16,-305.2"/>
<polygon fill="#63b8ff" stroke="#63b8ff" points="624.77,-405.34 635.24,-406.98 628.09,-399.17 624.77,-405.34"/>
</a>
</g>
</g>
<!-- Node18 -->
<g id="Node000018" class="node">
<title>Node18</title>
<g id="a_Node000018"><a xlink:href="Camera_8hpp.html" target="_top" xlink:title=" ">
<polygon fill="white" stroke="#666666" points="836.5,-250 711.5,-250 711.5,-209 836.5,-209 836.5,-250"/>
<text text-anchor="start" x="719.5" y="-238" font-family="Helvetica,sans-Serif" font-size="10.00">src/Objects/Plugins</text>
<text text-anchor="start" x="719.5" y="-227" font-family="Helvetica,sans-Serif" font-size="10.00">/CorePlugin/Renderers</text>
<text text-anchor="middle" x="774" y="-216" font-family="Helvetica,sans-Serif" font-size="10.00">/Camera/Camera.hpp</text>
</a>
</g>
</g>
<!-- Node1&#45;&gt;Node18 -->
<g id="edge26_Node000001_Node000018" class="edge">
<title>Node1&#45;&gt;Node18</title>
<g id="a_edge26_Node000001_Node000018"><a xlink:title=" ">
<path fill="none" stroke="#63b8ff" d="M715.04,-402.26C728.58,-394.5 742.18,-384.18 751,-371 775.89,-333.83 777.08,-278.98 775.64,-250.04"/>
<polygon fill="#63b8ff" stroke="#63b8ff" points="713.36,-399.19 706.19,-407 716.66,-405.36 713.36,-399.19"/>
</a>
</g>
</g>
<!-- Node2&#45;&gt;Node3 -->
<g id="edge2_Node000002_Node000003" class="edge">
<title>Node2&#45;&gt;Node3</title>
<g id="a_edge2_Node000002_Node000003"><a xlink:title=" ">
<path fill="none" stroke="#63b8ff" d="M637.15,-335.78C619.46,-325.43 598.51,-313.18 584.77,-305.14"/>
<polygon fill="#63b8ff" stroke="#63b8ff" points="635.65,-338.96 646.05,-340.99 639.18,-332.92 635.65,-338.96"/>
</a>
</g>
</g>
<!-- Node4 -->
<g id="Node000004" class="node">
<title>Node4</title>
<g id="a_Node000004"><a xlink:href="CorePlugin_8cpp.html" target="_top" xlink:title=" ">
<polygon fill="white" stroke="#666666" points="754,-173 606,-173 606,-143 754,-143 754,-173"/>
<text text-anchor="start" x="614" y="-161" font-family="Helvetica,sans-Serif" font-size="10.00">src/Objects/Plugins</text>
<text text-anchor="middle" x="680" y="-150" font-family="Helvetica,sans-Serif" font-size="10.00">/CorePlugin/CorePlugin.cpp</text>
</a>
</g>
</g>
<!-- Node3&#45;&gt;Node4 -->
<g id="edge3_Node000003_Node000004" class="edge">
<title>Node3&#45;&gt;Node4</title>
<g id="a_edge3_Node000003_Node000004"><a xlink:title=" ">
<path fill="none" stroke="#63b8ff" d="M616.48,-282.47C633.89,-275.69 652.27,-265.39 664,-250 681.21,-227.42 682.27,-192.56 681.29,-173.2"/>
<polygon fill="#63b8ff" stroke="#63b8ff" points="615.19,-279.21 606.96,-285.88 617.56,-285.8 615.19,-279.21"/>
</a>
</g>
</g>
<!-- Node5 -->
<g id="Node000005" class="node">
<title>Node5</title>
<g id="a_Node000005"><a xlink:href="SceneWriter_8hpp.html" target="_top" xlink:title=" ">
<polygon fill="white" stroke="#666666" points="1015.5,-250 854.5,-250 854.5,-209 1015.5,-209 1015.5,-250"/>
<text text-anchor="start" x="862.5" y="-238" font-family="Helvetica,sans-Serif" font-size="10.00">src/Objects/Plugins</text>
<text text-anchor="start" x="862.5" y="-227" font-family="Helvetica,sans-Serif" font-size="10.00">/CorePlugin/Interfaces</text>
<text text-anchor="middle" x="935" y="-216" font-family="Helvetica,sans-Serif" font-size="10.00">/SceneWriter/SceneWriter.hpp</text>
</a>
</g>
</g>
<!-- Node3&#45;&gt;Node5 -->
<g id="edge4_Node000003_Node000005" class="edge">
<title>Node3&#45;&gt;Node5</title>
<g id="a_edge4_Node000003_Node000005"><a xlink:title=" ">
<path fill="none" stroke="#63b8ff" d="M638.47,-284.45C694.22,-276.02 774.87,-263.26 845,-250 847.98,-249.44 851.02,-248.85 854.09,-248.24"/>
<polygon fill="#63b8ff" stroke="#63b8ff" points="637.73,-281.02 628.36,-285.97 638.77,-287.94 637.73,-281.02"/>
</a>
</g>
</g>
<!-- Node8 -->
<g id="Node000008" class="node">
<title>Node8</title>
<g id="a_Node000008"><a xlink:href="Parser_8hpp.html" target="_top" xlink:title=" ">
<polygon fill="white" stroke="#666666" points="235,-244.5 71,-244.5 71,-214.5 235,-214.5 235,-244.5"/>
<text text-anchor="start" x="79" y="-232.5" font-family="Helvetica,sans-Serif" font-size="10.00">src/SceneSystem/ConfigParser</text>
<text text-anchor="middle" x="153" y="-221.5" font-family="Helvetica,sans-Serif" font-size="10.00">/Parser.hpp</text>
</a>
</g>
</g>
<!-- Node3&#45;&gt;Node8 -->
<g id="edge8_Node000003_Node000008" class="edge">
<title>Node3&#45;&gt;Node8</title>
<g id="a_edge8_Node000003_Node000008"><a xlink:title=" ">
<path fill="none" stroke="#63b8ff" d="M496.96,-286.13C430.73,-278.16 330.52,-265.15 244,-250 234.77,-248.38 225.05,-246.5 215.54,-244.55"/>
<polygon fill="#63b8ff" stroke="#63b8ff" points="496.94,-289.65 507.29,-287.36 497.77,-282.7 496.94,-289.65"/>
</a>
</g>
</g>
<!-- Node12 -->
<g id="Node000012" class="node">
<title>Node12</title>
<g id="a_Node000012"><a xlink:href="PluginManager_8hpp.html" target="_top" xlink:title="Plugin manager for loading and managing plugins.">
<polygon fill="white" stroke="#666666" points="429,-244.5 253,-244.5 253,-214.5 429,-214.5 429,-244.5"/>
<text text-anchor="start" x="261" y="-232.5" font-family="Helvetica,sans-Serif" font-size="10.00">src/SceneSystem/PluginManager</text>
<text text-anchor="middle" x="341" y="-221.5" font-family="Helvetica,sans-Serif" font-size="10.00">/PluginManager.hpp</text>
</a>
</g>
</g>
<!-- Node3&#45;&gt;Node12 -->
<g id="edge13_Node000003_Node000012" class="edge">
<title>Node3&#45;&gt;Node12</title>
<g id="a_edge13_Node000003_Node000012"><a xlink:title=" ">
<path fill="none" stroke="#63b8ff" d="M529.29,-283.12C490.8,-272.36 432.92,-256.19 391.51,-244.62"/>
<polygon fill="#63b8ff" stroke="#63b8ff" points="528.54,-286.55 539.12,-285.87 530.43,-279.81 528.54,-286.55"/>
</a>
</g>
</g>
<!-- Node14 -->
<g id="Node000014" class="node">
<title>Node14</title>
<g id="a_Node000014"><a xlink:href="Scene_8hpp.html" target="_top" xlink:title=" ">
<polygon fill="white" stroke="#666666" points="584,-173 452,-173 452,-143 584,-143 584,-173"/>
<text text-anchor="start" x="460" y="-161" font-family="Helvetica,sans-Serif" font-size="10.00">src/SceneSystem/Scene</text>
<text text-anchor="middle" x="518" y="-150" font-family="Helvetica,sans-Serif" font-size="10.00">/Scene.hpp</text>
</a>
</g>
</g>
<!-- Node3&#45;&gt;Node14 -->
<g id="edge22_Node000003_Node000014" class="edge">
<title>Node3&#45;&gt;Node14</title>
<g id="a_edge22_Node000003_Node000014"><a xlink:title=" ">
<path fill="none" stroke="#63b8ff" d="M519.56,-282.45C502.77,-275.78 485.85,-265.56 476,-250 466.25,-234.6 469.76,-226.12 476,-209 481.04,-195.15 491.8,-182.48 501.16,-173.35"/>
<polygon fill="#63b8ff" stroke="#63b8ff" points="518.79,-285.9 529.38,-285.99 521.16,-279.31 518.79,-285.9"/>
</a>
</g>
</g>
<!-- Node17 -->
<g id="Node000017" class="node">
<title>Node17</title>
<g id="a_Node000017"><a xlink:href="SceneNodeHelpers_8hpp.html" target="_top" xlink:title=" ">
<polygon fill="white" stroke="#666666" points="655,-244.5 485,-244.5 485,-214.5 655,-214.5 655,-244.5"/>
<text text-anchor="start" x="493" y="-232.5" font-family="Helvetica,sans-Serif" font-size="10.00">src/SceneSystem/SceneNode</text>
<text text-anchor="middle" x="570" y="-221.5" font-family="Helvetica,sans-Serif" font-size="10.00">Helpers/SceneNodeHelpers.hpp</text>
</a>
</g>
</g>
<!-- Node3&#45;&gt;Node17 -->
<g id="edge23_Node000003_Node000017" class="edge">
<title>Node3&#45;&gt;Node17</title>
<g id="a_edge23_Node000003_Node000017"><a xlink:title=" ">
<path fill="none" stroke="#63b8ff" d="M570,-275.85C570,-265.97 570,-254.01 570,-244.86"/>
<polygon fill="#63b8ff" stroke="#63b8ff" points="566.5,-275.87 570,-285.87 573.5,-275.87 566.5,-275.87"/>
</a>
</g>
</g>
<!-- Node5&#45;&gt;Node4 -->
<g id="edge5_Node000005_Node000004" class="edge">
<title>Node5&#45;&gt;Node4</title>
<g id="a_edge5_Node000005_Node000004"><a xlink:title=" ">
<path fill="none" stroke="#63b8ff" d="M853.53,-206.3C813.46,-195.37 766.38,-182.54 731.38,-173"/>
<polygon fill="#63b8ff" stroke="#63b8ff" points="852.72,-209.7 863.29,-208.96 854.56,-202.95 852.72,-209.7"/>
</a>
</g>
</g>
<!-- Node6 -->
<g id="Node000006" class="node">
<title>Node6</title>
<g id="a_Node000006"><a xlink:href="SceneWriter_8cpp.html" target="_top" xlink:title=" ">
<polygon fill="white" stroke="#666666" points="906.5,-107 745.5,-107 745.5,-66 906.5,-66 906.5,-107"/>
<text text-anchor="start" x="753.5" y="-95" font-family="Helvetica,sans-Serif" font-size="10.00">src/Objects/Plugins</text>
<text text-anchor="start" x="753.5" y="-84" font-family="Helvetica,sans-Serif" font-size="10.00">/CorePlugin/Interfaces</text>
<text text-anchor="middle" x="826" y="-73" font-family="Helvetica,sans-Serif" font-size="10.00">/SceneWriter/SceneWriter.cpp</text>
</a>
</g>
</g>
<!-- Node5&#45;&gt;Node6 -->
<g id="edge6_Node000005_Node000006" class="edge">
<title>Node5&#45;&gt;Node6</title>
<g id="a_edge6_Node000005_Node000006"><a xlink:title=" ">
<path fill="none" stroke="#63b8ff" d="M913.62,-200.84C892.35,-173.33 860.25,-131.8 841.38,-107.39"/>
<polygon fill="#63b8ff" stroke="#63b8ff" points="910.96,-203.12 919.84,-208.89 916.5,-198.84 910.96,-203.12"/>
</a>
</g>
</g>
<!-- Node7 -->
<g id="Node000007" class="node">
<title>Node7</title>
<g id="a_Node000007"><a xlink:href="main_8cpp.html" target="_top" xlink:title=" ">
<polygon fill="white" stroke="#666666" points="463.5,-24.5 384.5,-24.5 384.5,-5.5 463.5,-5.5 463.5,-24.5"/>
<text text-anchor="middle" x="424" y="-12.5" font-family="Helvetica,sans-Serif" font-size="10.00">src/main.cpp</text>
</a>
</g>
</g>
<!-- Node5&#45;&gt;Node7 -->
<g id="edge7_Node000005_Node000007" class="edge">
<title>Node5&#45;&gt;Node7</title>
<g id="a_edge7_Node000005_Node000007"><a xlink:title=" ">
<path fill="none" stroke="#63b8ff" d="M941.19,-198.85C946.94,-162.14 950.03,-100.3 915,-66 882.94,-34.6 574.52,-21.11 463.54,-17.24"/>
<polygon fill="#63b8ff" stroke="#63b8ff" points="937.7,-198.48 939.44,-208.93 944.6,-199.67 937.7,-198.48"/>
</a>
</g>
</g>
<!-- Node9 -->
<g id="Node000009" class="node">
<title>Node9</title>
<g id="a_Node000009"><a xlink:href="Parser_8cpp.html" target="_top" xlink:title=" ">
<polygon fill="white" stroke="#666666" points="164,-173 0,-173 0,-143 164,-143 164,-173"/>
<text text-anchor="start" x="8" y="-161" font-family="Helvetica,sans-Serif" font-size="10.00">src/SceneSystem/ConfigParser</text>
<text text-anchor="middle" x="82" y="-150" font-family="Helvetica,sans-Serif" font-size="10.00">/Parser.cpp</text>
</a>
</g>
</g>
<!-- Node8&#45;&gt;Node9 -->
<g id="edge9_Node000008_Node000009" class="edge">
<title>Node8&#45;&gt;Node9</title>
<g id="a_edge9_Node000008_Node000009"><a xlink:title=" ">
<path fill="none" stroke="#63b8ff" d="M131.21,-207.17C119.88,-196.08 106.35,-182.84 96.35,-173.04"/>
<polygon fill="#63b8ff" stroke="#63b8ff" points="129.04,-209.94 138.63,-214.44 133.93,-204.94 129.04,-209.94"/>
</a>
</g>
</g>
<!-- Node10 -->
<g id="Node000010" class="node">
<title>Node10</title>
<g id="a_Node000010"><a xlink:href="SceneLoader_8hpp.html" target="_top" xlink:title=" ">
<polygon fill="white" stroke="#666666" points="339.5,-101.5 174.5,-101.5 174.5,-71.5 339.5,-71.5 339.5,-101.5"/>
<text text-anchor="start" x="182.5" y="-89.5" font-family="Helvetica,sans-Serif" font-size="10.00">src/SceneSystem/SceneLoader</text>
<text text-anchor="middle" x="257" y="-78.5" font-family="Helvetica,sans-Serif" font-size="10.00">/SceneLoader.hpp</text>
</a>
</g>
</g>
<!-- Node8&#45;&gt;Node10 -->
<g id="edge10_Node000008_Node000010" class="edge">
<title>Node8&#45;&gt;Node10</title>
<g id="a_edge10_Node000008_Node000010"><a xlink:title=" ">
<path fill="none" stroke="#63b8ff" d="M169.51,-206.12C191.07,-176.88 228.22,-126.52 246.38,-101.9"/>
<polygon fill="#63b8ff" stroke="#63b8ff" points="166.47,-204.34 163.35,-214.46 172.1,-208.49 166.47,-204.34"/>
</a>
</g>
</g>
<!-- Node10&#45;&gt;Node7 -->
<g id="edge12_Node000010_Node000007" class="edge">
<title>Node10&#45;&gt;Node7</title>
<g id="a_edge12_Node000010_Node000007"><a xlink:title=" ">
<path fill="none" stroke="#63b8ff" d="M300.27,-67.49C333.47,-53.67 377.82,-35.22 403.41,-24.57"/>
<polygon fill="#63b8ff" stroke="#63b8ff" points="298.68,-64.36 290.79,-71.44 301.37,-70.82 298.68,-64.36"/>
</a>
</g>
</g>
<!-- Node11 -->
<g id="Node000011" class="node">
<title>Node11</title>
<g id="a_Node000011"><a xlink:href="SceneLoader_8cpp.html" target="_top" xlink:title=" ">
<polygon fill="white" stroke="#666666" points="339.5,-30 174.5,-30 174.5,0 339.5,0 339.5,-30"/>
<text text-anchor="start" x="182.5" y="-18" font-family="Helvetica,sans-Serif" font-size="10.00">src/SceneSystem/SceneLoader</text>
<text text-anchor="middle" x="257" y="-7" font-family="Helvetica,sans-Serif" font-size="10.00">/SceneLoader.cpp</text>
</a>
</g>
</g>
<!-- Node10&#45;&gt;Node11 -->
<g id="edge11_Node000010_Node000011" class="edge">
<title>Node10&#45;&gt;Node11</title>
<g id="a_edge11_Node000010_Node000011"><a xlink:title=" ">
<path fill="none" stroke="#63b8ff" d="M257,-61.25C257,-50.81 257,-38.99 257,-30.04"/>
<polygon fill="#63b8ff" stroke="#63b8ff" points="253.5,-61.44 257,-71.44 260.5,-61.44 253.5,-61.44"/>
</a>
</g>
</g>
<!-- Node12&#45;&gt;Node10 -->
<g id="edge21_Node000012_Node000010" class="edge">
<title>Node12&#45;&gt;Node10</title>
<g id="a_edge21_Node000012_Node000010"><a xlink:title=" ">
<path fill="none" stroke="#63b8ff" d="M290.56,-209.99C274.35,-201.36 258.21,-189.31 249,-173 236.32,-150.54 244.43,-119.39 251.02,-101.55"/>
<polygon fill="#63b8ff" stroke="#63b8ff" points="289.02,-213.13 299.53,-214.44 292.13,-206.86 289.02,-213.13"/>
</a>
</g>
</g>
<!-- Node13 -->
<g id="Node000013" class="node">
<title>Node13</title>
<g id="a_Node000013"><a xlink:href="PluginManager_8cpp.html" target="_top" xlink:title=" ">
<polygon fill="white" stroke="#666666" points="434,-173 258,-173 258,-143 434,-143 434,-173"/>
<text text-anchor="start" x="266" y="-161" font-family="Helvetica,sans-Serif" font-size="10.00">src/SceneSystem/PluginManager</text>
<text text-anchor="middle" x="346" y="-150" font-family="Helvetica,sans-Serif" font-size="10.00">/PluginManager.cpp</text>
</a>
</g>
</g>
<!-- Node12&#45;&gt;Node13 -->
<g id="edge14_Node000012_Node000013" class="edge">
<title>Node12&#45;&gt;Node13</title>
<g id="a_edge14_Node000012_Node000013"><a xlink:title=" ">
<path fill="none" stroke="#63b8ff" d="M342.74,-204.25C343.5,-193.81 344.35,-181.99 344.99,-173.04"/>
<polygon fill="#63b8ff" stroke="#63b8ff" points="339.24,-204.21 342.01,-214.44 346.22,-204.71 339.24,-204.21"/>
</a>
</g>
</g>
<!-- Node12&#45;&gt;Node14 -->
<g id="edge15_Node000012_Node000014" class="edge">
<title>Node12&#45;&gt;Node14</title>
<g id="a_edge15_Node000012_Node000014"><a xlink:title=" ">
<path fill="none" stroke="#63b8ff" d="M386.17,-210.76C416,-199.05 454.54,-183.92 482.23,-173.04"/>
<polygon fill="#63b8ff" stroke="#63b8ff" points="384.85,-207.52 376.82,-214.44 387.41,-214.04 384.85,-207.52"/>
</a>
</g>
</g>
<!-- Node14&#45;&gt;Node6 -->
<g id="edge16_Node000014_Node000006" class="edge">
<title>Node14&#45;&gt;Node6</title>
<g id="a_edge16_Node000014_Node000006"><a xlink:title=" ">
<path fill="none" stroke="#63b8ff" d="M590.33,-140.68C636.82,-130.19 697.28,-116.55 745.32,-105.7"/>
<polygon fill="#63b8ff" stroke="#63b8ff" points="589.31,-137.32 580.33,-142.94 590.85,-144.15 589.31,-137.32"/>
</a>
</g>
</g>
<!-- Node14&#45;&gt;Node7 -->
<g id="edge20_Node000014_Node000007" class="edge">
<title>Node14&#45;&gt;Node7</title>
<g id="a_edge20_Node000014_Node000007"><a xlink:title=" ">
<path fill="none" stroke="#63b8ff" d="M477.18,-137.77C464.46,-129.91 451.54,-119.64 443,-107 425.38,-80.92 423.58,-41.77 423.72,-24.6"/>
<polygon fill="#63b8ff" stroke="#63b8ff" points="475.49,-140.84 485.89,-142.83 479,-134.78 475.49,-140.84"/>
</a>
</g>
</g>
<!-- Node14&#45;&gt;Node10 -->
<g id="edge19_Node000014_Node000010" class="edge">
<title>Node14&#45;&gt;Node10</title>
<g id="a_edge19_Node000014_Node000010"><a xlink:title=" ">
<path fill="none" stroke="#63b8ff" d="M455.35,-140.32C410.87,-128.47 351.82,-112.75 309.74,-101.54"/>
<polygon fill="#63b8ff" stroke="#63b8ff" points="454.62,-143.74 465.18,-142.94 456.42,-136.98 454.62,-143.74"/>
</a>
</g>
</g>
<!-- Node15 -->
<g id="Node000015" class="node">
<title>Node15</title>
<g id="a_Node000015"><a xlink:href="Camera_8cpp.html" target="_top" xlink:title=" ">
<polygon fill="white" stroke="#666666" points="727.5,-107 602.5,-107 602.5,-66 727.5,-66 727.5,-107"/>
<text text-anchor="start" x="610.5" y="-95" font-family="Helvetica,sans-Serif" font-size="10.00">src/Objects/Plugins</text>
<text text-anchor="start" x="610.5" y="-84" font-family="Helvetica,sans-Serif" font-size="10.00">/CorePlugin/Renderers</text>
<text text-anchor="middle" x="665" y="-73" font-family="Helvetica,sans-Serif" font-size="10.00">/Camera/Camera.cpp</text>
</a>
</g>
</g>
<!-- Node14&#45;&gt;Node15 -->
<g id="edge17_Node000014_Node000015" class="edge">
<title>Node14&#45;&gt;Node15</title>
<g id="a_edge17_Node000014_Node000015"><a xlink:title=" ">
<path fill="none" stroke="#63b8ff" d="M556.83,-138.64C577.4,-128.92 602.66,-116.97 623.6,-107.07"/>
<polygon fill="#63b8ff" stroke="#63b8ff" points="555.29,-135.5 547.75,-142.94 558.28,-141.83 555.29,-135.5"/>
</a>
</g>
</g>
<!-- Node16 -->
<g id="Node000016" class="node">
<title>Node16</title>
<g id="a_Node000016"><a xlink:href="Scene_8cpp.html" target="_top" xlink:title=" ">
<polygon fill="white" stroke="#666666" points="584,-101.5 452,-101.5 452,-71.5 584,-71.5 584,-101.5"/>
<text text-anchor="start" x="460" y="-89.5" font-family="Helvetica,sans-Serif" font-size="10.00">src/SceneSystem/Scene</text>
<text text-anchor="middle" x="518" y="-78.5" font-family="Helvetica,sans-Serif" font-size="10.00">/Scene.cpp</text>
</a>
</g>
</g>
<!-- Node14&#45;&gt;Node16 -->
<g id="edge18_Node000014_Node000016" class="edge">
<title>Node14&#45;&gt;Node16</title>
<g id="a_edge18_Node000014_Node000016"><a xlink:title=" ">
<path fill="none" stroke="#63b8ff" d="M518,-132.75C518,-122.31 518,-110.49 518,-101.54"/>
<polygon fill="#63b8ff" stroke="#63b8ff" points="514.5,-132.94 518,-142.94 521.5,-132.94 514.5,-132.94"/>
</a>
</g>
</g>
<!-- Node17&#45;&gt;Node4 -->
<g id="edge24_Node000017_Node000004" class="edge">
<title>Node17&#45;&gt;Node4</title>
<g id="a_edge24_Node000017_Node000004"><a xlink:title=" ">
<path fill="none" stroke="#63b8ff" d="M600.76,-209.07C618.87,-197.62 641.38,-183.4 657.77,-173.04"/>
<polygon fill="#63b8ff" stroke="#63b8ff" points="598.84,-206.14 592.26,-214.44 602.58,-212.05 598.84,-206.14"/>
</a>
</g>
</g>
<!-- Node18&#45;&gt;Node4 -->
<g id="edge27_Node000018_Node000004" class="edge">
<title>Node18&#45;&gt;Node4</title>
<g id="a_edge27_Node000018_Node000004"><a xlink:title=" ">
<path fill="none" stroke="#63b8ff" d="M739.33,-202.87C725.73,-192.81 710.64,-181.66 699.09,-173.11"/>
<polygon fill="#63b8ff" stroke="#63b8ff" points="737.44,-205.82 747.57,-208.96 741.61,-200.2 737.44,-205.82"/>
</a>
</g>
</g>
<!-- Node18&#45;&gt;Node15 -->
<g id="edge28_Node000018_Node000015" class="edge">
<title>Node18&#45;&gt;Node15</title>
<g id="a_edge28_Node000018_Node000015"><a xlink:title=" ">
<path fill="none" stroke="#63b8ff" d="M776.52,-198.49C776.52,-180.95 773.85,-159.15 763,-143 752.48,-127.34 735.96,-115.6 719.47,-107.05"/>
<polygon fill="#63b8ff" stroke="#63b8ff" points="773.01,-198.68 776.22,-208.78 780.01,-198.89 773.01,-198.68"/>
</a>
</g>
</g>
</g>
</svg>
