<?xml version="1.0" encoding="UTF-8" standalone="no"?>
<!DOCTYPE svg PUBLIC "-//W3C//DTD SVG 1.1//EN"
 "http://www.w3.org/Graphics/SVG/1.1/DTD/svg11.dtd">
<!-- Generated by graphviz version 2.43.0 (0)
 -->
<!-- Title: src/Objects/Abstracts/ARenderer/ARenderer.hpp Pages: 1 -->
<svg width="1298pt" height="456pt"
 viewBox="0.00 0.00 1297.69 456.00" xmlns="http://www.w3.org/2000/svg" xmlns:xlink="http://www.w3.org/1999/xlink">
<g id="graph0" class="graph" transform="scale(1 1) rotate(0) translate(4 452)">
<title>src/Objects/Abstracts/ARenderer/ARenderer.hpp</title>
<!-- Node1 -->
<g id="Node000001" class="node">
<title>Node1</title>
<g id="a_Node000001"><a xlink:title=" ">
<polygon fill="#999999" stroke="#666666" points="648,-448 503,-448 503,-418 648,-418 648,-448"/>
<text text-anchor="start" x="511" y="-436" font-family="Helvetica,sans-Serif" font-size="10.00">src/Objects/Abstracts</text>
<text text-anchor="middle" x="575.5" y="-425" font-family="Helvetica,sans-Serif" font-size="10.00">/ARenderer/ARenderer.hpp</text>
</a>
</g>
</g>
<!-- Node2 -->
<g id="Node000002" class="node">
<title>Node2</title>
<g id="a_Node000002"><a xlink:href="AInterface_8hpp.html" target="_top" xlink:title=" ">
<polygon fill="white" stroke="#666666" points="647.5,-382 503.5,-382 503.5,-352 647.5,-352 647.5,-382"/>
<text text-anchor="start" x="511.5" y="-370" font-family="Helvetica,sans-Serif" font-size="10.00">src/Objects/Abstracts</text>
<text text-anchor="middle" x="575.5" y="-359" font-family="Helvetica,sans-Serif" font-size="10.00">/AInterface/AInterface.hpp</text>
</a>
</g>
</g>
<!-- Node1&#45;&gt;Node2 -->
<g id="edge1_Node000001_Node000002" class="edge">
<title>Node1&#45;&gt;Node2</title>
<g id="a_edge1_Node000001_Node000002"><a xlink:title=" ">
<path fill="none" stroke="#63b8ff" d="M575.5,-407.54C575.5,-398.96 575.5,-389.61 575.5,-382.16"/>
<polygon fill="#63b8ff" stroke="#63b8ff" points="572,-407.8 575.5,-417.8 579,-407.8 572,-407.8"/>
</a>
</g>
</g>
<!-- Node3 -->
<g id="Node000003" class="node">
<title>Node3</title>
<g id="a_Node000003"><a xlink:href="Plugin_8hpp.html" target="_top" xlink:title=" ">
<polygon fill="white" stroke="#666666" points="738,-316 613,-316 613,-297 738,-297 738,-316"/>
<text text-anchor="middle" x="675.5" y="-304" font-family="Helvetica,sans-Serif" font-size="10.00">src/Objects/Plugin.hpp</text>
</a>
</g>
</g>
<!-- Node1&#45;&gt;Node3 -->
<g id="edge30_Node000001_Node000003" class="edge">
<title>Node1&#45;&gt;Node3</title>
<g id="a_edge30_Node000001_Node000003"><a xlink:title=" ">
<path fill="none" stroke="#63b8ff" d="M619.18,-413.19C632.9,-405.36 646.95,-395 656.5,-382 671.36,-361.78 674.64,-331.08 675.34,-316.2"/>
<polygon fill="#63b8ff" stroke="#63b8ff" points="617.41,-410.17 610.26,-417.98 620.73,-416.34 617.41,-410.17"/>
</a>
</g>
</g>
<!-- Node21 -->
<g id="Node000021" class="node">
<title>Node21</title>
<g id="a_Node000021"><a xlink:href="Camera_8hpp.html" target="_top" xlink:title="Declaration for the camera&#45;based renderer used by the raytracer.">
<polygon fill="white" stroke="#666666" points="125,-261 0,-261 0,-220 125,-220 125,-261"/>
<text text-anchor="start" x="8" y="-249" font-family="Helvetica,sans-Serif" font-size="10.00">src/Objects/Plugins</text>
<text text-anchor="start" x="8" y="-238" font-family="Helvetica,sans-Serif" font-size="10.00">/CorePlugin/Renderers</text>
<text text-anchor="middle" x="62.5" y="-227" font-family="Helvetica,sans-Serif" font-size="10.00">/Camera/Camera.hpp</text>
</a>
</g>
</g>
<!-- Node1&#45;&gt;Node21 -->
<g id="edge31_Node000001_Node000021" class="edge">
<title>Node1&#45;&gt;Node21</title>
<g id="a_edge31_Node000001_Node000021"><a xlink:title=" ">
<path fill="none" stroke="#63b8ff" d="M528.34,-414.49C432.5,-378.9 215.56,-298.34 115.22,-261.08"/>
<polygon fill="#63b8ff" stroke="#63b8ff" points="527.18,-417.79 537.78,-417.99 529.62,-411.23 527.18,-417.79"/>
</a>
</g>
</g>
<!-- Node2&#45;&gt;Node3 -->
<g id="edge2_Node000002_Node000003" class="edge">
<title>Node2&#45;&gt;Node3</title>
<g id="a_edge2_Node000002_Node000003"><a xlink:title=" ">
<path fill="none" stroke="#63b8ff" d="M608.35,-346.78C626.04,-336.43 646.99,-324.18 660.73,-316.14"/>
<polygon fill="#63b8ff" stroke="#63b8ff" points="606.32,-343.92 599.45,-351.99 609.85,-349.96 606.32,-343.92"/>
</a>
</g>
</g>
<!-- Node4 -->
<g id="Node000004" class="node">
<title>Node4</title>
<g id="a_Node000004"><a xlink:href="CorePlugin_8cpp.html" target="_top" xlink:title="Core plugin implementation that provides primitives, materials and the camera.">
<polygon fill="white" stroke="#666666" points="315.5,-178.5 167.5,-178.5 167.5,-148.5 315.5,-148.5 315.5,-178.5"/>
<text text-anchor="start" x="175.5" y="-166.5" font-family="Helvetica,sans-Serif" font-size="10.00">src/Objects/Plugins</text>
<text text-anchor="middle" x="241.5" y="-155.5" font-family="Helvetica,sans-Serif" font-size="10.00">/CorePlugin/CorePlugin.cpp</text>
</a>
</g>
</g>
<!-- Node3&#45;&gt;Node4 -->
<g id="edge3_Node000003_Node000004" class="edge">
<title>Node3&#45;&gt;Node4</title>
<g id="a_edge3_Node000003_Node000004"><a xlink:title=" ">
<path fill="none" stroke="#63b8ff" d="M602.73,-304.38C470.32,-301.57 200.95,-292.08 172.5,-261 160.2,-247.56 164.63,-236.43 172.5,-220 181.13,-201.98 198.79,-187.95 214.08,-178.5"/>
<polygon fill="#63b8ff" stroke="#63b8ff" points="602.73,-307.88 612.8,-304.58 602.87,-300.88 602.73,-307.88"/>
</a>
</g>
</g>
<!-- Node5 -->
<g id="Node000005" class="node">
<title>Node5</title>
<g id="a_Node000005"><a xlink:href="SceneWriter_8hpp.html" target="_top" xlink:title=" ">
<polygon fill="white" stroke="#666666" points="531,-261 370,-261 370,-220 531,-220 531,-261"/>
<text text-anchor="start" x="378" y="-249" font-family="Helvetica,sans-Serif" font-size="10.00">src/Objects/Plugins</text>
<text text-anchor="start" x="378" y="-238" font-family="Helvetica,sans-Serif" font-size="10.00">/CorePlugin/Interfaces</text>
<text text-anchor="middle" x="450.5" y="-227" font-family="Helvetica,sans-Serif" font-size="10.00">/SceneWriter/SceneWriter.hpp</text>
</a>
</g>
</g>
<!-- Node3&#45;&gt;Node5 -->
<g id="edge4_Node000003_Node000005" class="edge">
<title>Node3&#45;&gt;Node5</title>
<g id="a_edge4_Node000003_Node000005"><a xlink:title=" ">
<path fill="none" stroke="#63b8ff" d="M635.2,-294.04C602.98,-284.87 557.07,-271.81 519.09,-261.01"/>
<polygon fill="#63b8ff" stroke="#63b8ff" points="634.58,-297.5 645.16,-296.87 636.49,-290.77 634.58,-297.5"/>
</a>
</g>
</g>
<!-- Node7 -->
<g id="Node000007" class="node">
<title>Node7</title>
<g id="a_Node000007"><a xlink:href="Livescene_8hpp.html" target="_top" xlink:title=" ">
<polygon fill="white" stroke="#666666" points="699.5,-261 549.5,-261 549.5,-220 699.5,-220 699.5,-261"/>
<text text-anchor="start" x="557.5" y="-249" font-family="Helvetica,sans-Serif" font-size="10.00">src/Objects/Plugins</text>
<text text-anchor="start" x="557.5" y="-238" font-family="Helvetica,sans-Serif" font-size="10.00">/LivescenePlugin/Interfaces</text>
<text text-anchor="middle" x="624.5" y="-227" font-family="Helvetica,sans-Serif" font-size="10.00">/Livescene/Livescene.hpp</text>
</a>
</g>
</g>
<!-- Node3&#45;&gt;Node7 -->
<g id="edge7_Node000003_Node000007" class="edge">
<title>Node3&#45;&gt;Node7</title>
<g id="a_edge7_Node000003_Node000007"><a xlink:title=" ">
<path fill="none" stroke="#63b8ff" d="M662.21,-288.82C655.42,-280.31 647.13,-269.9 640.05,-261.01"/>
<polygon fill="#63b8ff" stroke="#63b8ff" points="659.65,-291.23 668.62,-296.87 665.13,-286.87 659.65,-291.23"/>
</a>
</g>
</g>
<!-- Node9 -->
<g id="Node000009" class="node">
<title>Node9</title>
<g id="a_Node000009"><a xlink:href="LivescenePlugin_8cpp.html" target="_top" xlink:title=" ">
<polygon fill="white" stroke="#666666" points="681.5,-184 531.5,-184 531.5,-143 681.5,-143 681.5,-184"/>
<text text-anchor="start" x="539.5" y="-172" font-family="Helvetica,sans-Serif" font-size="10.00">src/Objects/Plugins</text>
<text text-anchor="start" x="539.5" y="-161" font-family="Helvetica,sans-Serif" font-size="10.00">/LivescenePlugin/Livescene</text>
<text text-anchor="middle" x="606.5" y="-150" font-family="Helvetica,sans-Serif" font-size="10.00">Plugin.cpp</text>
</a>
</g>
</g>
<!-- Node3&#45;&gt;Node9 -->
<g id="edge10_Node000003_Node000009" class="edge">
<title>Node3&#45;&gt;Node9</title>
<g id="a_edge10_Node000003_Node000009"><a xlink:title=" ">
<path fill="none" stroke="#63b8ff" d="M691.42,-289.34C698.07,-281.47 705.04,-271.46 708.5,-261 714.22,-243.7 717.81,-235.66 708.5,-220 699.02,-204.06 683.19,-192.4 666.78,-184.02"/>
<polygon fill="#63b8ff" stroke="#63b8ff" points="688.64,-287.2 684.52,-296.96 693.83,-291.9 688.64,-287.2"/>
</a>
</g>
</g>
<!-- Node10 -->
<g id="Node000010" class="node">
<title>Node10</title>
<g id="a_Node000010"><a xlink:href="Parser_8hpp.html" target="_top" xlink:title=" ">
<polygon fill="white" stroke="#666666" points="1245.5,-255.5 1081.5,-255.5 1081.5,-225.5 1245.5,-225.5 1245.5,-255.5"/>
<text text-anchor="start" x="1089.5" y="-243.5" font-family="Helvetica,sans-Serif" font-size="10.00">src/SceneSystem/ConfigParser</text>
<text text-anchor="middle" x="1163.5" y="-232.5" font-family="Helvetica,sans-Serif" font-size="10.00">/Parser.hpp</text>
</a>
</g>
</g>
<!-- Node3&#45;&gt;Node10 -->
<g id="edge11_Node000003_Node000010" class="edge">
<title>Node3&#45;&gt;Node10</title>
<g id="a_edge11_Node000003_Node000010"><a xlink:title=" ">
<path fill="none" stroke="#63b8ff" d="M748.33,-295.95C837.52,-284.25 988.2,-264.49 1081.42,-252.27"/>
<polygon fill="#63b8ff" stroke="#63b8ff" points="747.76,-292.49 738.3,-297.26 748.67,-299.43 747.76,-292.49"/>
</a>
</g>
</g>
<!-- Node14 -->
<g id="Node000014" class="node">
<title>Node14</title>
<g id="a_Node000014"><a xlink:href="main_8cpp.html" target="_top" xlink:title="Entry point and CLI for the raytracer application.">
<polygon fill="white" stroke="#666666" points="977,-24.5 898,-24.5 898,-5.5 977,-5.5 977,-24.5"/>
<text text-anchor="middle" x="937.5" y="-12.5" font-family="Helvetica,sans-Serif" font-size="10.00">src/main.cpp</text>
</a>
</g>
</g>
<!-- Node3&#45;&gt;Node14 -->
<g id="edge29_Node000003_Node000014" class="edge">
<title>Node3&#45;&gt;Node14</title>
<g id="a_edge29_Node000003_Node000014"><a xlink:title=" ">
<path fill="none" stroke="#63b8ff" d="M748.38,-304.67C895.48,-302.33 1217.08,-293.5 1254.5,-261 1294.51,-226.26 1300.31,-187.47 1271.5,-143 1225.96,-72.71 1177.88,-95.52 1099.5,-66 1074.98,-56.77 1006.24,-36.2 966.63,-24.53"/>
<polygon fill="#63b8ff" stroke="#63b8ff" points="748.05,-301.18 738.1,-304.83 748.15,-308.18 748.05,-301.18"/>
</a>
</g>
</g>
<!-- Node15 -->
<g id="Node000015" class="node">
<title>Node15</title>
<g id="a_Node000015"><a xlink:href="PluginManager_8hpp.html" target="_top" xlink:title="Plugin loader interface for dynamic plugins.">
<polygon fill="white" stroke="#666666" points="969.5,-255.5 793.5,-255.5 793.5,-225.5 969.5,-225.5 969.5,-255.5"/>
<text text-anchor="start" x="801.5" y="-243.5" font-family="Helvetica,sans-Serif" font-size="10.00">src/SceneSystem/PluginManager</text>
<text text-anchor="middle" x="881.5" y="-232.5" font-family="Helvetica,sans-Serif" font-size="10.00">/PluginManager.hpp</text>
</a>
</g>
</g>
<!-- Node3&#45;&gt;Node15 -->
<g id="edge16_Node000003_Node000015" class="edge">
<title>Node3&#45;&gt;Node15</title>
<g id="a_edge16_Node000003_Node000015"><a xlink:title=" ">
<path fill="none" stroke="#63b8ff" d="M713.01,-293.85C747.63,-283.09 799.13,-267.09 836.07,-255.62"/>
<polygon fill="#63b8ff" stroke="#63b8ff" points="711.79,-290.56 703.28,-296.87 713.87,-297.24 711.79,-290.56"/>
</a>
</g>
</g>
<!-- Node17 -->
<g id="Node000017" class="node">
<title>Node17</title>
<g id="a_Node000017"><a xlink:href="Scene_8hpp.html" target="_top" xlink:title="Scene container and ray query interface used by renderers.">
<polygon fill="white" stroke="#666666" points="831.5,-178.5 699.5,-178.5 699.5,-148.5 831.5,-148.5 831.5,-178.5"/>
<text text-anchor="start" x="707.5" y="-166.5" font-family="Helvetica,sans-Serif" font-size="10.00">src/SceneSystem/Scene</text>
<text text-anchor="middle" x="765.5" y="-155.5" font-family="Helvetica,sans-Serif" font-size="10.00">/Scene.hpp</text>
</a>
</g>
</g>
<!-- Node3&#45;&gt;Node17 -->
<g id="edge26_Node000003_Node000017" class="edge">
<title>Node3&#45;&gt;Node17</title>
<g id="a_edge26_Node000003_Node000017"><a xlink:title=" ">
<path fill="none" stroke="#63b8ff" d="M695.75,-290.51C705.42,-282.57 716.57,-272.16 724.5,-261 743.26,-234.58 755.76,-198.25 761.63,-178.56"/>
<polygon fill="#63b8ff" stroke="#63b8ff" points="693.44,-287.87 687.76,-296.81 697.78,-293.37 693.44,-287.87"/>
</a>
</g>
</g>
<!-- Node20 -->
<g id="Node000020" class="node">
<title>Node20</title>
<g id="a_Node000020"><a xlink:href="SceneNodeHelpers_8hpp.html" target="_top" xlink:title=" ">
<polygon fill="white" stroke="#666666" points="351.5,-255.5 181.5,-255.5 181.5,-225.5 351.5,-225.5 351.5,-255.5"/>
<text text-anchor="start" x="189.5" y="-243.5" font-family="Helvetica,sans-Serif" font-size="10.00">src/SceneSystem/SceneNode</text>
<text text-anchor="middle" x="266.5" y="-232.5" font-family="Helvetica,sans-Serif" font-size="10.00">Helpers/SceneNodeHelpers.hpp</text>
</a>
</g>
</g>
<!-- Node3&#45;&gt;Node20 -->
<g id="edge27_Node000003_Node000020" class="edge">
<title>Node3&#45;&gt;Node20</title>
<g id="a_edge27_Node000003_Node000020"><a xlink:title=" ">
<path fill="none" stroke="#63b8ff" d="M602.87,-296.58C538.89,-288.41 443.27,-275.42 360.5,-261 351.06,-259.36 341.12,-257.47 331.37,-255.52"/>
<polygon fill="#63b8ff" stroke="#63b8ff" points="602.5,-300.07 612.86,-297.85 603.38,-293.12 602.5,-300.07"/>
</a>
</g>
</g>
<!-- Node5&#45;&gt;Node4 -->
<g id="edge5_Node000005_Node000004" class="edge">
<title>Node5&#45;&gt;Node4</title>
<g id="a_edge5_Node000005_Node000004"><a xlink:title=" ">
<path fill="none" stroke="#63b8ff" d="M386.59,-216.57C352.05,-204.17 310.51,-189.26 280.74,-178.58"/>
<polygon fill="#63b8ff" stroke="#63b8ff" points="385.54,-219.91 396.13,-219.99 387.9,-213.32 385.54,-219.91"/>
</a>
</g>
</g>
<!-- Node6 -->
<g id="Node000006" class="node">
<title>Node6</title>
<g id="a_Node000006"><a xlink:href="SceneWriter_8cpp.html" target="_top" xlink:title=" ">
<polygon fill="white" stroke="#666666" points="538,-107 377,-107 377,-66 538,-66 538,-107"/>
<text text-anchor="start" x="385" y="-95" font-family="Helvetica,sans-Serif" font-size="10.00">src/Objects/Plugins</text>
<text text-anchor="start" x="385" y="-84" font-family="Helvetica,sans-Serif" font-size="10.00">/CorePlugin/Interfaces</text>
<text text-anchor="middle" x="457.5" y="-73" font-family="Helvetica,sans-Serif" font-size="10.00">/SceneWriter/SceneWriter.cpp</text>
</a>
</g>
</g>
<!-- Node5&#45;&gt;Node6 -->
<g id="edge6_Node000005_Node000006" class="edge">
<title>Node5&#45;&gt;Node6</title>
<g id="a_edge6_Node000005_Node000006"><a xlink:title=" ">
<path fill="none" stroke="#63b8ff" d="M451.88,-209.58C453.27,-179.36 455.38,-133.53 456.58,-107.47"/>
<polygon fill="#63b8ff" stroke="#63b8ff" points="448.36,-209.79 451.4,-219.94 455.36,-210.11 448.36,-209.79"/>
</a>
</g>
</g>
<!-- Node8 -->
<g id="Node000008" class="node">
<title>Node8</title>
<g id="a_Node000008"><a xlink:href="Livescene_8cpp.html" target="_top" xlink:title=" ">
<polygon fill="white" stroke="#666666" points="709.5,-107 559.5,-107 559.5,-66 709.5,-66 709.5,-107"/>
<text text-anchor="start" x="567.5" y="-95" font-family="Helvetica,sans-Serif" font-size="10.00">src/Objects/Plugins</text>
<text text-anchor="start" x="567.5" y="-84" font-family="Helvetica,sans-Serif" font-size="10.00">/LivescenePlugin/Interfaces</text>
<text text-anchor="middle" x="634.5" y="-73" font-family="Helvetica,sans-Serif" font-size="10.00">/Livescene/Livescene.cpp</text>
</a>
</g>
</g>
<!-- Node7&#45;&gt;Node8 -->
<g id="edge8_Node000007_Node000008" class="edge">
<title>Node7&#45;&gt;Node8</title>
<g id="a_edge8_Node000007_Node000008"><a xlink:title=" ">
<path fill="none" stroke="#63b8ff" d="M555.46,-215.14C542.33,-207.27 530.27,-197.08 522.5,-184 513.19,-168.34 512.89,-158.48 522.5,-143 532.51,-126.87 548.76,-115.28 565.82,-107.01"/>
<polygon fill="#63b8ff" stroke="#63b8ff" points="553.77,-218.2 564.22,-219.98 557.16,-212.08 553.77,-218.2"/>
</a>
</g>
</g>
<!-- Node7&#45;&gt;Node9 -->
<g id="edge9_Node000007_Node000009" class="edge">
<title>Node7&#45;&gt;Node9</title>
<g id="a_edge9_Node000007_Node000009"><a xlink:title=" ">
<path fill="none" stroke="#63b8ff" d="M617.41,-209.98C615.33,-201.28 613.1,-191.98 611.2,-184.07"/>
<polygon fill="#63b8ff" stroke="#63b8ff" points="614.03,-210.89 619.77,-219.79 620.84,-209.25 614.03,-210.89"/>
</a>
</g>
</g>
<!-- Node11 -->
<g id="Node000011" class="node">
<title>Node11</title>
<g id="a_Node000011"><a xlink:href="Parser_8cpp.html" target="_top" xlink:title=" ">
<polygon fill="white" stroke="#666666" points="1245.5,-178.5 1081.5,-178.5 1081.5,-148.5 1245.5,-148.5 1245.5,-178.5"/>
<text text-anchor="start" x="1089.5" y="-166.5" font-family="Helvetica,sans-Serif" font-size="10.00">src/SceneSystem/ConfigParser</text>
<text text-anchor="middle" x="1163.5" y="-155.5" font-family="Helvetica,sans-Serif" font-size="10.00">/Parser.cpp</text>
</a>
</g>
</g>
<!-- Node10&#45;&gt;Node11 -->
<g id="edge12_Node000010_Node000011" class="edge">
<title>Node10&#45;&gt;Node11</title>
<g id="a_edge12_Node000010_Node000011"><a xlink:title=" ">
<path fill="none" stroke="#63b8ff" d="M1163.5,-215.04C1163.5,-202.95 1163.5,-188.79 1163.5,-178.54"/>
<polygon fill="#63b8ff" stroke="#63b8ff" points="1160,-215.39 1163.5,-225.39 1167,-215.39 1160,-215.39"/>
</a>
</g>
</g>
<!-- Node12 -->
<g id="Node000012" class="node">
<title>Node12</title>
<g id="a_Node000012"><a xlink:href="SceneLoader_8hpp.html" target="_top" xlink:title="Loads scene graphs from parsed configuration nodes.">
<polygon fill="white" stroke="#666666" points="1090,-101.5 925,-101.5 925,-71.5 1090,-71.5 1090,-101.5"/>
<text text-anchor="start" x="933" y="-89.5" font-family="Helvetica,sans-Serif" font-size="10.00">src/SceneSystem/SceneLoader</text>
<text text-anchor="middle" x="1007.5" y="-78.5" font-family="Helvetica,sans-Serif" font-size="10.00">/SceneLoader.hpp</text>
</a>
</g>
</g>
<!-- Node10&#45;&gt;Node12 -->
<g id="edge13_Node000010_Node000012" class="edge">
<title>Node10&#45;&gt;Node12</title>
<g id="a_edge13_Node000010_Node000012"><a xlink:title=" ">
<path fill="none" stroke="#63b8ff" d="M1213.85,-220.63C1229.74,-212.01 1245.49,-200.05 1254.5,-184 1263.42,-168.11 1265.89,-157.23 1254.5,-143 1234.04,-117.43 1153.72,-102.83 1090.16,-95.08"/>
<polygon fill="#63b8ff" stroke="#63b8ff" points="1211.88,-217.7 1204.53,-225.33 1215.03,-223.95 1211.88,-217.7"/>
</a>
</g>
</g>
<!-- Node13 -->
<g id="Node000013" class="node">
<title>Node13</title>
<g id="a_Node000013"><a xlink:href="SceneLoader_8cpp.html" target="_top" xlink:title="Scene parsing and construction from configuration nodes.">
<polygon fill="white" stroke="#666666" points="1160,-30 995,-30 995,0 1160,0 1160,-30"/>
<text text-anchor="start" x="1003" y="-18" font-family="Helvetica,sans-Serif" font-size="10.00">src/SceneSystem/SceneLoader</text>
<text text-anchor="middle" x="1077.5" y="-7" font-family="Helvetica,sans-Serif" font-size="10.00">/SceneLoader.cpp</text>
</a>
</g>
</g>
<!-- Node12&#45;&gt;Node13 -->
<g id="edge14_Node000012_Node000013" class="edge">
<title>Node12&#45;&gt;Node13</title>
<g id="a_edge14_Node000012_Node000013"><a xlink:title=" ">
<path fill="none" stroke="#63b8ff" d="M1028.98,-64.17C1040.15,-53.08 1053.49,-39.84 1063.36,-30.04"/>
<polygon fill="#63b8ff" stroke="#63b8ff" points="1026.3,-61.91 1021.67,-71.44 1031.23,-66.87 1026.3,-61.91"/>
</a>
</g>
</g>
<!-- Node12&#45;&gt;Node14 -->
<g id="edge15_Node000012_Node000014" class="edge">
<title>Node12&#45;&gt;Node14</title>
<g id="a_edge15_Node000012_Node000014"><a xlink:title=" ">
<path fill="none" stroke="#63b8ff" d="M985.92,-64.07C972.59,-50.84 956.22,-34.58 946.33,-24.77"/>
<polygon fill="#63b8ff" stroke="#63b8ff" points="983.77,-66.87 993.33,-71.44 988.7,-61.91 983.77,-66.87"/>
</a>
</g>
</g>
<!-- Node15&#45;&gt;Node12 -->
<g id="edge25_Node000015_Node000012" class="edge">
<title>Node15&#45;&gt;Node12</title>
<g id="a_edge25_Node000015_Node000012"><a xlink:title=" ">
<path fill="none" stroke="#63b8ff" d="M873.6,-215.66C868.23,-194.76 864.39,-164.44 878.5,-143 891.91,-122.64 914.52,-109.71 937.11,-101.53"/>
<polygon fill="#63b8ff" stroke="#63b8ff" points="870.26,-216.71 876.37,-225.36 876.99,-214.79 870.26,-216.71"/>
</a>
</g>
</g>
<!-- Node16 -->
<g id="Node000016" class="node">
<title>Node16</title>
<g id="a_Node000016"><a xlink:href="PluginManager_8cpp.html" target="_top" xlink:title="Runtime plugin loader and initializer registry implementation.">
<polygon fill="white" stroke="#666666" points="1063.5,-178.5 887.5,-178.5 887.5,-148.5 1063.5,-148.5 1063.5,-178.5"/>
<text text-anchor="start" x="895.5" y="-166.5" font-family="Helvetica,sans-Serif" font-size="10.00">src/SceneSystem/PluginManager</text>
<text text-anchor="middle" x="975.5" y="-155.5" font-family="Helvetica,sans-Serif" font-size="10.00">/PluginManager.cpp</text>
</a>
</g>
</g>
<!-- Node15&#45;&gt;Node16 -->
<g id="edge17_Node000015_Node000016" class="edge">
<title>Node15&#45;&gt;Node16</title>
<g id="a_edge17_Node000015_Node000016"><a xlink:title=" ">
<path fill="none" stroke="#63b8ff" d="M907.16,-219.03C923.26,-206.18 943.61,-189.94 957.9,-178.54"/>
<polygon fill="#63b8ff" stroke="#63b8ff" points="904.81,-216.42 899.18,-225.39 909.18,-221.89 904.81,-216.42"/>
</a>
</g>
</g>
<!-- Node15&#45;&gt;Node17 -->
<g id="edge18_Node000015_Node000017" class="edge">
<title>Node15&#45;&gt;Node17</title>
<g id="a_edge18_Node000015_Node000017"><a xlink:title=" ">
<path fill="none" stroke="#63b8ff" d="M851.19,-219.9C831.12,-206.93 805.26,-190.21 787.22,-178.54"/>
<polygon fill="#63b8ff" stroke="#63b8ff" points="849.38,-222.9 859.68,-225.39 853.18,-217.02 849.38,-222.9"/>
</a>
</g>
</g>
<!-- Node17&#45;&gt;Node6 -->
<g id="edge19_Node000017_Node000006" class="edge">
<title>Node17&#45;&gt;Node6</title>
<g id="a_edge19_Node000017_Node000006"><a xlink:title=" ">
<path fill="none" stroke="#63b8ff" d="M702.09,-145.92C698.17,-144.92 694.28,-143.94 690.5,-143 639.96,-130.41 583.1,-116.86 538.2,-106.29"/>
<polygon fill="#63b8ff" stroke="#63b8ff" points="701.31,-149.33 711.87,-148.41 703.04,-142.55 701.31,-149.33"/>
</a>
</g>
</g>
<!-- Node17&#45;&gt;Node8 -->
<g id="edge21_Node000017_Node000008" class="edge">
<title>Node17&#45;&gt;Node8</title>
<g id="a_edge21_Node000017_Node000008"><a xlink:title=" ">
<path fill="none" stroke="#63b8ff" d="M732.08,-143.37C712.73,-132.29 688.43,-118.38 668.92,-107.2"/>
<polygon fill="#63b8ff" stroke="#63b8ff" points="730.44,-146.46 740.86,-148.39 733.92,-140.39 730.44,-146.46"/>
</a>
</g>
</g>
<!-- Node17&#45;&gt;Node12 -->
<g id="edge23_Node000017_Node000012" class="edge">
<title>Node17&#45;&gt;Node12</title>
<g id="a_edge23_Node000017_Node000012"><a xlink:title=" ">
<path fill="none" stroke="#63b8ff" d="M820.43,-145.48C863.22,-132.21 921.91,-114.02 962.08,-101.58"/>
<polygon fill="#63b8ff" stroke="#63b8ff" points="819.25,-142.18 810.73,-148.48 821.32,-148.86 819.25,-142.18"/>
</a>
</g>
</g>
<!-- Node17&#45;&gt;Node14 -->
<g id="edge24_Node000017_Node000014" class="edge">
<title>Node17&#45;&gt;Node14</title>
<g id="a_edge24_Node000017_Node000014"><a xlink:title=" ">
<path fill="none" stroke="#63b8ff" d="M758.12,-138.57C753.16,-117.36 750.01,-86.63 765.5,-66 781.37,-44.86 852.01,-29.75 897.68,-21.98"/>
<polygon fill="#63b8ff" stroke="#63b8ff" points="754.78,-139.63 760.71,-148.41 761.55,-137.85 754.78,-139.63"/>
</a>
</g>
</g>
<!-- Node18 -->
<g id="Node000018" class="node">
<title>Node18</title>
<g id="a_Node000018"><a xlink:href="Camera_8cpp.html" target="_top" xlink:title="Implementation of the RayTracer::Camera renderer.">
<polygon fill="white" stroke="#666666" points="297,-107 172,-107 172,-66 297,-66 297,-107"/>
<text text-anchor="start" x="180" y="-95" font-family="Helvetica,sans-Serif" font-size="10.00">src/Objects/Plugins</text>
<text text-anchor="start" x="180" y="-84" font-family="Helvetica,sans-Serif" font-size="10.00">/CorePlugin/Renderers</text>
<text text-anchor="middle" x="234.5" y="-73" font-family="Helvetica,sans-Serif" font-size="10.00">/Camera/Camera.cpp</text>
</a>
</g>
</g>
<!-- Node17&#45;&gt;Node18 -->
<g id="edge20_Node000017_Node000018" class="edge">
<title>Node17&#45;&gt;Node18</title>
<g id="a_edge20_Node000017_Node000018"><a xlink:title=" ">
<path fill="none" stroke="#63b8ff" d="M705.81,-146.16C700.66,-145 695.5,-143.92 690.5,-143 548.46,-116.76 510.76,-125.48 367.5,-107 344.47,-104.03 319.25,-100.42 297.02,-97.12"/>
<polygon fill="#63b8ff" stroke="#63b8ff" points="705.16,-149.6 715.7,-148.49 706.77,-142.79 705.16,-149.6"/>
</a>
</g>
</g>
<!-- Node19 -->
<g id="Node000019" class="node">
<title>Node19</title>
<g id="a_Node000019"><a xlink:href="Scene_8cpp.html" target="_top" xlink:title="Implementation of the RayTracer::Scene container and utilities.">
<polygon fill="white" stroke="#666666" points="906.5,-101.5 774.5,-101.5 774.5,-71.5 906.5,-71.5 906.5,-101.5"/>
<text text-anchor="start" x="782.5" y="-89.5" font-family="Helvetica,sans-Serif" font-size="10.00">src/SceneSystem/Scene</text>
<text text-anchor="middle" x="840.5" y="-78.5" font-family="Helvetica,sans-Serif" font-size="10.00">/Scene.cpp</text>
</a>
</g>
</g>
<!-- Node17&#45;&gt;Node19 -->
<g id="edge22_Node000017_Node000019" class="edge">
<title>Node17&#45;&gt;Node19</title>
<g id="a_edge22_Node000017_Node000019"><a xlink:title=" ">
<path fill="none" stroke="#63b8ff" d="M786.68,-141.32C799.42,-128.58 815.26,-112.74 826.46,-101.54"/>
<polygon fill="#63b8ff" stroke="#63b8ff" points="784.2,-138.85 779.61,-148.39 789.15,-143.8 784.2,-138.85"/>
</a>
</g>
</g>
<!-- Node20&#45;&gt;Node4 -->
<g id="edge28_Node000020_Node000004" class="edge">
<title>Node20&#45;&gt;Node4</title>
<g id="a_edge28_Node000020_Node000004"><a xlink:title=" ">
<path fill="none" stroke="#63b8ff" d="M258.59,-215.78C254.51,-203.53 249.67,-189 246.18,-178.54"/>
<polygon fill="#63b8ff" stroke="#63b8ff" points="255.31,-217.01 261.8,-225.39 261.96,-214.8 255.31,-217.01"/>
</a>
</g>
</g>
<!-- Node21&#45;&gt;Node4 -->
<g id="edge32_Node000021_Node000004" class="edge">
<title>Node21&#45;&gt;Node4</title>
<g id="a_edge32_Node000021_Node000004"><a xlink:title=" ">
<path fill="none" stroke="#63b8ff" d="M118.37,-216.09C147.73,-203.79 182.72,-189.13 207.89,-178.58"/>
<polygon fill="#63b8ff" stroke="#63b8ff" points="116.93,-212.9 109.06,-219.99 119.64,-219.35 116.93,-212.9"/>
</a>
</g>
</g>
<!-- Node21&#45;&gt;Node18 -->
<g id="edge33_Node000021_Node000018" class="edge">
<title>Node21&#45;&gt;Node18</title>
<g id="a_edge33_Node000021_Node000018"><a xlink:title=" ">
<path fill="none" stroke="#63b8ff" d="M87.46,-212.19C106.24,-192.21 133.01,-164.88 158.5,-143 173.38,-130.23 191.01,-117.24 205.54,-107.04"/>
<polygon fill="#63b8ff" stroke="#63b8ff" points="84.68,-210.03 80.42,-219.73 89.8,-214.81 84.68,-210.03"/>
</a>
</g>
</g>
</g>
</svg>
