<?xml version="1.0" encoding="UTF-8" standalone="no"?>
<!DOCTYPE svg PUBLIC "-//W3C//DTD SVG 1.1//EN"
 "http://www.w3.org/Graphics/SVG/1.1/DTD/svg11.dtd">
<!-- Generated by graphviz version 2.43.0 (0)
 -->
<!-- Title: src/Objects/Abstracts/ARenderer/ARenderer.hpp Pages: 1 -->
<svg width="735pt" height="555pt"
 viewBox="0.00 0.00 734.50 555.00" xmlns="http://www.w3.org/2000/svg" xmlns:xlink="http://www.w3.org/1999/xlink">
<g id="graph0" class="graph" transform="scale(1 1) rotate(0) translate(4 551)">
<title>src/Objects/Abstracts/ARenderer/ARenderer.hpp</title>
<!-- Node1 -->
<g id="Node000001" class="node">
<title>Node1</title>
<g id="a_Node000001"><a xlink:title=" ">
<polygon fill="#999999" stroke="#666666" points="627,-547 482,-547 482,-517 627,-517 627,-547"/>
<text text-anchor="start" x="490" y="-535" font-family="Helvetica,sans-Serif" font-size="10.00">src/Objects/Abstracts</text>
<text text-anchor="middle" x="554.5" y="-524" font-family="Helvetica,sans-Serif" font-size="10.00">/ARenderer/ARenderer.hpp</text>
</a>
</g>
</g>
<!-- Node2 -->
<g id="Node000002" class="node">
<title>Node2</title>
<g id="a_Node000002"><a xlink:href="Camera_8hpp.html" target="_top" xlink:title=" ">
<polygon fill="white" stroke="#666666" points="293,-481 154,-481 154,-451 293,-451 293,-481"/>
<text text-anchor="start" x="162" y="-469" font-family="Helvetica,sans-Serif" font-size="10.00">src/CorePlugin/Renderers</text>
<text text-anchor="middle" x="223.5" y="-458" font-family="Helvetica,sans-Serif" font-size="10.00">/Camera/Camera.hpp</text>
</a>
</g>
</g>
<!-- Node1&#45;&gt;Node2 -->
<g id="edge1_Node000001_Node000002" class="edge">
<title>Node1&#45;&gt;Node2</title>
<g id="a_edge1_Node000001_Node000002"><a xlink:title=" ">
<path fill="none" stroke="#63b8ff" d="M471.78,-515.01C416.75,-504.37 345.26,-490.54 293.14,-480.46"/>
<polygon fill="#63b8ff" stroke="#63b8ff" points="471.38,-518.49 481.86,-516.95 472.71,-511.62 471.38,-518.49"/>
</a>
</g>
</g>
<!-- Node12 -->
<g id="Node000012" class="node">
<title>Node12</title>
<g id="a_Node000012"><a xlink:href="IPlugin_8hpp.html" target="_top" xlink:title=" ">
<polygon fill="white" stroke="#666666" points="582.5,-145.5 454.5,-145.5 454.5,-126.5 582.5,-126.5 582.5,-145.5"/>
<text text-anchor="middle" x="518.5" y="-133.5" font-family="Helvetica,sans-Serif" font-size="10.00">src/Objects/IPlugin.hpp</text>
</a>
</g>
</g>
<!-- Node1&#45;&gt;Node12 -->
<g id="edge24_Node000001_Node000012" class="edge">
<title>Node1&#45;&gt;Node12</title>
<g id="a_edge24_Node000001_Node000012"><a xlink:title=" ">
<path fill="none" stroke="#63b8ff" d="M554.5,-506.86C554.5,-480.76 554.5,-437.93 554.5,-401 554.5,-401 554.5,-401 554.5,-267 554.5,-219.69 532.09,-166.1 522.63,-145.6"/>
<polygon fill="#63b8ff" stroke="#63b8ff" points="551,-506.96 554.5,-516.96 558,-506.96 551,-506.96"/>
</a>
</g>
</g>
<!-- Node16 -->
<g id="Node000016" class="node">
<title>Node16</title>
<g id="a_Node000016"><a xlink:href="AInterface_8hpp.html" target="_top" xlink:title=" ">
<polygon fill="white" stroke="#666666" points="726.5,-481 582.5,-481 582.5,-451 726.5,-451 726.5,-481"/>
<text text-anchor="start" x="590.5" y="-469" font-family="Helvetica,sans-Serif" font-size="10.00">src/Objects/Abstracts</text>
<text text-anchor="middle" x="654.5" y="-458" font-family="Helvetica,sans-Serif" font-size="10.00">/AInterface/AInterface.hpp</text>
</a>
</g>
</g>
<!-- Node1&#45;&gt;Node16 -->
<g id="edge23_Node000001_Node000016" class="edge">
<title>Node1&#45;&gt;Node16</title>
<g id="a_edge23_Node000001_Node000016"><a xlink:title=" ">
<path fill="none" stroke="#63b8ff" d="M585.28,-511.3C600.5,-501.56 618.53,-490.02 632.37,-481.16"/>
<polygon fill="#63b8ff" stroke="#63b8ff" points="583.23,-508.46 576.69,-516.8 587,-514.35 583.23,-508.46"/>
</a>
</g>
</g>
<!-- Node3 -->
<g id="Node000003" class="node">
<title>Node3</title>
<g id="a_Node000003"><a xlink:href="Camera_8cpp.html" target="_top" xlink:title=" ">
<polygon fill="white" stroke="#666666" points="139,-415 0,-415 0,-385 139,-385 139,-415"/>
<text text-anchor="start" x="8" y="-403" font-family="Helvetica,sans-Serif" font-size="10.00">src/CorePlugin/Renderers</text>
<text text-anchor="middle" x="69.5" y="-392" font-family="Helvetica,sans-Serif" font-size="10.00">/Camera/Camera.cpp</text>
</a>
</g>
</g>
<!-- Node2&#45;&gt;Node3 -->
<g id="edge2_Node000002_Node000003" class="edge">
<title>Node2&#45;&gt;Node3</title>
<g id="a_edge2_Node000002_Node000003"><a xlink:title=" ">
<path fill="none" stroke="#63b8ff" d="M180.32,-447.05C155.92,-436.91 125.87,-424.43 103.22,-415.01"/>
<polygon fill="#63b8ff" stroke="#63b8ff" points="179.13,-450.35 189.7,-450.95 181.81,-443.89 179.13,-450.35"/>
</a>
</g>
</g>
<!-- Node4 -->
<g id="Node000004" class="node">
<title>Node4</title>
<g id="a_Node000004"><a xlink:href="Scene_8hpp.html" target="_top" xlink:title=" ">
<polygon fill="white" stroke="#666666" points="344.5,-415 212.5,-415 212.5,-385 344.5,-385 344.5,-415"/>
<text text-anchor="start" x="220.5" y="-403" font-family="Helvetica,sans-Serif" font-size="10.00">src/SceneSystem/Scene</text>
<text text-anchor="middle" x="278.5" y="-392" font-family="Helvetica,sans-Serif" font-size="10.00">/Scene.hpp</text>
</a>
</g>
</g>
<!-- Node2&#45;&gt;Node4 -->
<g id="edge3_Node000002_Node000004" class="edge">
<title>Node2&#45;&gt;Node4</title>
<g id="a_edge3_Node000002_Node000004"><a xlink:title=" ">
<path fill="none" stroke="#63b8ff" d="M242.33,-443.09C250.27,-433.85 259.28,-423.36 266.33,-415.16"/>
<polygon fill="#63b8ff" stroke="#63b8ff" points="239.57,-440.93 235.71,-450.8 244.88,-445.49 239.57,-440.93"/>
</a>
</g>
</g>
<!-- Node5 -->
<g id="Node000005" class="node">
<title>Node5</title>
<g id="a_Node000005"><a xlink:href="ILight_8hpp.html" target="_top" xlink:title=" ">
<polygon fill="white" stroke="#666666" points="338,-349 219,-349 219,-319 338,-319 338,-349"/>
<text text-anchor="start" x="227" y="-337" font-family="Helvetica,sans-Serif" font-size="10.00">src/Objects/Abstracts</text>
<text text-anchor="middle" x="278.5" y="-326" font-family="Helvetica,sans-Serif" font-size="10.00">/ILight.hpp</text>
</a>
</g>
</g>
<!-- Node4&#45;&gt;Node5 -->
<g id="edge4_Node000004_Node000005" class="edge">
<title>Node4&#45;&gt;Node5</title>
<g id="a_edge4_Node000004_Node000005"><a xlink:title=" ">
<path fill="none" stroke="#63b8ff" d="M271.93,-374.83C271.52,-366.17 271.81,-356.7 272.79,-349.16"/>
<polygon fill="#63b8ff" stroke="#63b8ff" points="268.45,-375.13 272.78,-384.8 275.42,-374.54 268.45,-375.13"/>
</a>
</g>
</g>
<!-- Node15 -->
<g id="Node000015" class="node">
<title>Node15</title>
<g id="a_Node000015"><a xlink:href="Scene_8cpp.html" target="_top" xlink:title=" ">
<polygon fill="white" stroke="#666666" points="488.5,-349 356.5,-349 356.5,-319 488.5,-319 488.5,-349"/>
<text text-anchor="start" x="364.5" y="-337" font-family="Helvetica,sans-Serif" font-size="10.00">src/SceneSystem/Scene</text>
<text text-anchor="middle" x="422.5" y="-326" font-family="Helvetica,sans-Serif" font-size="10.00">/Scene.cpp</text>
</a>
</g>
</g>
<!-- Node4&#45;&gt;Node15 -->
<g id="edge22_Node000004_Node000015" class="edge">
<title>Node4&#45;&gt;Node15</title>
<g id="a_edge22_Node000004_Node000015"><a xlink:title=" ">
<path fill="none" stroke="#63b8ff" d="M319.49,-380.78C342.19,-370.69 369.98,-358.34 390.97,-349.01"/>
<polygon fill="#63b8ff" stroke="#63b8ff" points="317.82,-377.7 310.1,-384.95 320.66,-384.09 317.82,-377.7"/>
</a>
</g>
</g>
<!-- Node5&#45;&gt;Node4 -->
<g id="edge21_Node000005_Node000004" class="edge">
<title>Node5&#45;&gt;Node4</title>
<g id="a_edge21_Node000005_Node000004"><a xlink:title=" ">
<path fill="none" stroke="#63b8ff" d="M285.07,-359.13C285.48,-367.78 285.2,-377.26 284.22,-384.8"/>
<polygon fill="#63b8ff" stroke="#63b8ff" points="288.55,-358.83 284.21,-349.16 281.58,-359.43 288.55,-358.83"/>
</a>
</g>
</g>
<!-- Node6 -->
<g id="Node000006" class="node">
<title>Node6</title>
<g id="a_Node000006"><a xlink:href="IMaterial_8hpp.html" target="_top" xlink:title=" ">
<polygon fill="white" stroke="#666666" points="353,-283 234,-283 234,-253 353,-253 353,-283"/>
<text text-anchor="start" x="242" y="-271" font-family="Helvetica,sans-Serif" font-size="10.00">src/Objects/Abstracts</text>
<text text-anchor="middle" x="293.5" y="-260" font-family="Helvetica,sans-Serif" font-size="10.00">/IMaterial.hpp</text>
</a>
</g>
</g>
<!-- Node5&#45;&gt;Node6 -->
<g id="edge5_Node000005_Node000006" class="edge">
<title>Node5&#45;&gt;Node6</title>
<g id="a_edge5_Node000005_Node000006"><a xlink:title=" ">
<path fill="none" stroke="#63b8ff" d="M284.17,-308.83C286.19,-300.17 288.41,-290.7 290.18,-283.16"/>
<polygon fill="#63b8ff" stroke="#63b8ff" points="280.7,-308.26 281.83,-318.8 287.52,-309.86 280.7,-308.26"/>
</a>
</g>
</g>
<!-- Node5&#45;&gt;Node12 -->
<g id="edge20_Node000005_Node000012" class="edge">
<title>Node5&#45;&gt;Node12</title>
<g id="a_edge20_Node000005_Node000012"><a xlink:title=" ">
<path fill="none" stroke="#63b8ff" d="M323.86,-314.91C367.14,-295.81 432.02,-262.21 475.5,-217 496.38,-195.29 510.04,-161.44 515.63,-145.66"/>
<polygon fill="#63b8ff" stroke="#63b8ff" points="322.21,-311.8 314.42,-318.99 324.99,-318.23 322.21,-311.8"/>
</a>
</g>
</g>
<!-- Node7 -->
<g id="Node000007" class="node">
<title>Node7</title>
<g id="a_Node000007"><a xlink:href="Plane_8hpp.html" target="_top" xlink:title=" ">
<polygon fill="white" stroke="#666666" points="273,-151 134,-151 134,-121 273,-121 273,-151"/>
<text text-anchor="start" x="142" y="-139" font-family="Helvetica,sans-Serif" font-size="10.00">src/CorePlugin/Primitives</text>
<text text-anchor="middle" x="203.5" y="-128" font-family="Helvetica,sans-Serif" font-size="10.00">/Plane/Plane.hpp</text>
</a>
</g>
</g>
<!-- Node6&#45;&gt;Node7 -->
<g id="edge6_Node000006_Node000007" class="edge">
<title>Node6&#45;&gt;Node7</title>
<g id="a_edge6_Node000006_Node000007"><a xlink:title=" ">
<path fill="none" stroke="#63b8ff" d="M280.09,-243.99C270.39,-227.75 256.72,-205.65 243.5,-187 234.63,-174.48 223.7,-160.93 215.51,-151.1"/>
<polygon fill="#63b8ff" stroke="#63b8ff" points="277.2,-245.98 285.31,-252.81 283.23,-242.42 277.2,-245.98"/>
</a>
</g>
</g>
<!-- Node9 -->
<g id="Node000009" class="node">
<title>Node9</title>
<g id="a_Node000009"><a xlink:href="HitRecord_8hpp.html" target="_top" xlink:title=" ">
<polygon fill="white" stroke="#666666" points="234.5,-217 100.5,-217 100.5,-187 234.5,-187 234.5,-217"/>
<text text-anchor="start" x="108.5" y="-205" font-family="Helvetica,sans-Serif" font-size="10.00">src/Geometry/HitRecord</text>
<text text-anchor="middle" x="167.5" y="-194" font-family="Helvetica,sans-Serif" font-size="10.00">/HitRecord.hpp</text>
</a>
</g>
</g>
<!-- Node6&#45;&gt;Node9 -->
<g id="edge8_Node000006_Node000009" class="edge">
<title>Node6&#45;&gt;Node9</title>
<g id="a_edge8_Node000006_Node000009"><a xlink:title=" ">
<path fill="none" stroke="#63b8ff" d="M250.92,-248.51C230.26,-238.47 206.38,-226.26 189.39,-217.01"/>
<polygon fill="#63b8ff" stroke="#63b8ff" points="249.62,-251.77 260.15,-252.95 252.66,-245.46 249.62,-251.77"/>
</a>
</g>
</g>
<!-- Node10 -->
<g id="Node000010" class="node">
<title>Node10</title>
<g id="a_Node000010"><a xlink:href="APrimitive_8hpp.html" target="_top" xlink:title=" ">
<polygon fill="white" stroke="#666666" points="436.5,-217 290.5,-217 290.5,-187 436.5,-187 436.5,-217"/>
<text text-anchor="start" x="298.5" y="-205" font-family="Helvetica,sans-Serif" font-size="10.00">src/Objects/Abstracts</text>
<text text-anchor="middle" x="363.5" y="-194" font-family="Helvetica,sans-Serif" font-size="10.00">/APrimitive/APrimitive.hpp</text>
</a>
</g>
</g>
<!-- Node6&#45;&gt;Node10 -->
<g id="edge12_Node000006_Node000010" class="edge">
<title>Node6&#45;&gt;Node10</title>
<g id="a_edge12_Node000006_Node000010"><a xlink:title=" ">
<path fill="none" stroke="#63b8ff" d="M316.55,-245.92C326.87,-236.49 338.77,-225.61 348.01,-217.16"/>
<polygon fill="#63b8ff" stroke="#63b8ff" points="314.05,-243.47 309.04,-252.8 318.78,-248.63 314.05,-243.47"/>
</a>
</g>
</g>
<!-- Node6&#45;&gt;Node12 -->
<g id="edge19_Node000006_Node000012" class="edge">
<title>Node6&#45;&gt;Node12</title>
<g id="a_edge19_Node000006_Node000012"><a xlink:title=" ">
<path fill="none" stroke="#63b8ff" d="M363.11,-252.19C390.23,-244.42 420.68,-233.07 445.5,-217 475.81,-197.38 501.72,-162.19 512.78,-145.82"/>
<polygon fill="#63b8ff" stroke="#63b8ff" points="362,-248.87 353.29,-254.9 363.86,-255.62 362,-248.87"/>
</a>
</g>
</g>
<!-- Node8 -->
<g id="Node000008" class="node">
<title>Node8</title>
<g id="a_Node000008"><a xlink:href="Plane_8cpp.html" target="_top" xlink:title=" ">
<polygon fill="white" stroke="#666666" points="273,-85 134,-85 134,-55 273,-55 273,-85"/>
<text text-anchor="start" x="142" y="-73" font-family="Helvetica,sans-Serif" font-size="10.00">src/CorePlugin/Primitives</text>
<text text-anchor="middle" x="203.5" y="-62" font-family="Helvetica,sans-Serif" font-size="10.00">/Plane/Plane.cpp</text>
</a>
</g>
</g>
<!-- Node7&#45;&gt;Node8 -->
<g id="edge7_Node000007_Node000008" class="edge">
<title>Node7&#45;&gt;Node8</title>
<g id="a_edge7_Node000007_Node000008"><a xlink:title=" ">
<path fill="none" stroke="#63b8ff" d="M203.5,-110.54C203.5,-101.96 203.5,-92.61 203.5,-85.16"/>
<polygon fill="#63b8ff" stroke="#63b8ff" points="200,-110.8 203.5,-120.8 207,-110.8 200,-110.8"/>
</a>
</g>
</g>
<!-- Node9&#45;&gt;Node2 -->
<g id="edge9_Node000009_Node000002" class="edge">
<title>Node9&#45;&gt;Node2</title>
<g id="a_edge9_Node000009_Node000002"><a xlink:title=" ">
<path fill="none" stroke="#63b8ff" d="M169.91,-227.18C174.26,-266.92 184.73,-348.32 203.5,-415 207,-427.42 212.53,-440.98 216.9,-450.84"/>
<polygon fill="#63b8ff" stroke="#63b8ff" points="173.38,-226.69 168.85,-217.12 166.42,-227.43 173.38,-226.69"/>
</a>
</g>
</g>
<!-- Node9&#45;&gt;Node5 -->
<g id="edge10_Node000009_Node000005" class="edge">
<title>Node9&#45;&gt;Node5</title>
<g id="a_edge10_Node000009_Node000005"><a xlink:title=" ">
<path fill="none" stroke="#63b8ff" d="M181.89,-225.73C192.77,-242.27 208.53,-264.85 224.5,-283 235.98,-296.05 250.5,-309.34 261.59,-318.94"/>
<polygon fill="#63b8ff" stroke="#63b8ff" points="184.75,-223.72 176.37,-217.23 178.88,-227.53 184.75,-223.72"/>
</a>
</g>
</g>
<!-- Node9&#45;&gt;Node6 -->
<g id="edge11_Node000009_Node000006" class="edge">
<title>Node9&#45;&gt;Node6</title>
<g id="a_edge11_Node000009_Node000006"><a xlink:title=" ">
<path fill="none" stroke="#63b8ff" d="M210.01,-221.45C230.66,-231.49 254.55,-243.7 271.55,-252.95"/>
<polygon fill="#63b8ff" stroke="#63b8ff" points="211.31,-218.19 200.78,-217.01 208.28,-224.5 211.31,-218.19"/>
</a>
</g>
</g>
<!-- Node10&#45;&gt;Node4 -->
<g id="edge18_Node000010_Node000004" class="edge">
<title>Node10&#45;&gt;Node4</title>
<g id="a_edge18_Node000010_Node000004"><a xlink:title=" ">
<path fill="none" stroke="#63b8ff" d="M403.2,-221.72C455.29,-248.79 535.85,-300.91 497.5,-349 478.6,-372.71 401.85,-386.06 344.51,-392.89"/>
<polygon fill="#63b8ff" stroke="#63b8ff" points="404.66,-218.53 394.16,-217.12 401.48,-224.77 404.66,-218.53"/>
</a>
</g>
</g>
<!-- Node10&#45;&gt;Node7 -->
<g id="edge13_Node000010_Node000007" class="edge">
<title>Node10&#45;&gt;Node7</title>
<g id="a_edge13_Node000010_Node000007"><a xlink:title=" ">
<path fill="none" stroke="#63b8ff" d="M318.97,-183.19C293.56,-173.02 262.17,-160.47 238.53,-151.01"/>
<polygon fill="#63b8ff" stroke="#63b8ff" points="317.8,-186.49 328.39,-186.95 320.4,-179.99 317.8,-186.49"/>
</a>
</g>
</g>
<!-- Node11 -->
<g id="Node000011" class="node">
<title>Node11</title>
<g id="a_Node000011"><a xlink:href="APrimitive_8cpp.html" target="_top" xlink:title=" ">
<polygon fill="white" stroke="#666666" points="436,-151 291,-151 291,-121 436,-121 436,-151"/>
<text text-anchor="start" x="299" y="-139" font-family="Helvetica,sans-Serif" font-size="10.00">src/Objects/Abstracts</text>
<text text-anchor="middle" x="363.5" y="-128" font-family="Helvetica,sans-Serif" font-size="10.00">/APrimitive/APrimitive.cpp</text>
</a>
</g>
</g>
<!-- Node10&#45;&gt;Node11 -->
<g id="edge14_Node000010_Node000011" class="edge">
<title>Node10&#45;&gt;Node11</title>
<g id="a_edge14_Node000010_Node000011"><a xlink:title=" ">
<path fill="none" stroke="#63b8ff" d="M363.5,-176.54C363.5,-167.96 363.5,-158.61 363.5,-151.16"/>
<polygon fill="#63b8ff" stroke="#63b8ff" points="360,-176.8 363.5,-186.8 367,-176.8 360,-176.8"/>
</a>
</g>
</g>
<!-- Node10&#45;&gt;Node12 -->
<g id="edge15_Node000010_Node000012" class="edge">
<title>Node10&#45;&gt;Node12</title>
<g id="a_edge15_Node000010_Node000012"><a xlink:title=" ">
<path fill="none" stroke="#63b8ff" d="M406.85,-183.1C436.6,-170.82 474.75,-155.06 497.87,-145.52"/>
<polygon fill="#63b8ff" stroke="#63b8ff" points="405.42,-179.9 397.52,-186.95 408.09,-186.37 405.42,-179.9"/>
</a>
</g>
</g>
<!-- Node13 -->
<g id="Node000013" class="node">
<title>Node13</title>
<g id="a_Node000013"><a xlink:href="CorePlugin_8hpp.html" target="_top" xlink:title=" ">
<polygon fill="white" stroke="#666666" points="600,-79.5 437,-79.5 437,-60.5 600,-60.5 600,-79.5"/>
<text text-anchor="middle" x="518.5" y="-67.5" font-family="Helvetica,sans-Serif" font-size="10.00">src/CorePlugin/CorePlugin.hpp</text>
</a>
</g>
</g>
<!-- Node12&#45;&gt;Node13 -->
<g id="edge16_Node000012_Node000013" class="edge">
<title>Node12&#45;&gt;Node13</title>
<g id="a_edge16_Node000012_Node000013"><a xlink:title=" ">
<path fill="none" stroke="#63b8ff" d="M518.5,-116.08C518.5,-104.13 518.5,-89.22 518.5,-79.91"/>
<polygon fill="#63b8ff" stroke="#63b8ff" points="515,-116.37 518.5,-126.37 522,-116.37 515,-116.37"/>
</a>
</g>
</g>
<!-- Node14 -->
<g id="Node000014" class="node">
<title>Node14</title>
<g id="a_Node000014"><a xlink:href="CorePlugin_8cpp.html" target="_top" xlink:title=" ">
<polygon fill="white" stroke="#666666" points="599.5,-19 437.5,-19 437.5,0 599.5,0 599.5,-19"/>
<text text-anchor="middle" x="518.5" y="-7" font-family="Helvetica,sans-Serif" font-size="10.00">src/CorePlugin/CorePlugin.cpp</text>
</a>
</g>
</g>
<!-- Node13&#45;&gt;Node14 -->
<g id="edge17_Node000013_Node000014" class="edge">
<title>Node13&#45;&gt;Node14</title>
<g id="a_edge17_Node000013_Node000014"><a xlink:title=" ">
<path fill="none" stroke="#63b8ff" d="M518.5,-50.16C518.5,-39.74 518.5,-27.3 518.5,-19.17"/>
<polygon fill="#63b8ff" stroke="#63b8ff" points="515,-50.37 518.5,-60.37 522,-50.37 515,-50.37"/>
</a>
</g>
</g>
</g>
</svg>
