<?xml version="1.0" encoding="UTF-8" standalone="no"?>
<!DOCTYPE svg PUBLIC "-//W3C//DTD SVG 1.1//EN"
 "http://www.w3.org/Graphics/SVG/1.1/DTD/svg11.dtd">
<!-- Generated by graphviz version 2.43.0 (0)
 -->
<!-- Title: src/SceneSystem/BVH/BVH.hpp Pages: 1 -->
<svg width="716pt" height="456pt"
 viewBox="0.00 0.00 716.00 456.00" xmlns="http://www.w3.org/2000/svg" xmlns:xlink="http://www.w3.org/1999/xlink">
<g id="graph0" class="graph" transform="scale(1 1) rotate(0) translate(4 452)">
<title>src/SceneSystem/BVH/BVH.hpp</title>
<!-- Node1 -->
<g id="Node000001" class="node">
<title>Node1</title>
<g id="a_Node000001"><a xlink:title=" ">
<polygon fill="#999999" stroke="#666666" points="408,-448 284,-448 284,-418 408,-418 408,-448"/>
<text text-anchor="start" x="292" y="-436" font-family="Helvetica,sans-Serif" font-size="10.00">src/SceneSystem/BVH</text>
<text text-anchor="middle" x="346" y="-425" font-family="Helvetica,sans-Serif" font-size="10.00">/BVH.hpp</text>
</a>
</g>
</g>
<!-- Node2 -->
<g id="Node000002" class="node">
<title>Node2</title>
<g id="a_Node000002"><a xlink:title=" ">
<polygon fill="#e0e0e0" stroke="#999999" points="123,-129 59,-129 59,-110 123,-110 123,-129"/>
<text text-anchor="middle" x="91" y="-117" font-family="Helvetica,sans-Serif" font-size="10.00">algorithm</text>
</a>
</g>
</g>
<!-- Node1&#45;&gt;Node2 -->
<g id="edge1_Node000001_Node000002" class="edge">
<title>Node1&#45;&gt;Node2</title>
<g id="a_edge1_Node000001_Node000002"><a xlink:title=" ">
<path fill="none" stroke="#63b8ff" d="M283.74,-421.76C184.13,-403.6 0,-361.92 0,-302 0,-302 0,-302 0,-239.5 0,-194.17 42.18,-155.4 69.11,-135.27"/>
<polygon fill="#63b8ff" stroke="#63b8ff" points="71.5,-137.86 77.57,-129.18 67.41,-132.18 71.5,-137.86"/>
</a>
</g>
</g>
<!-- Node3 -->
<g id="Node000003" class="node">
<title>Node3</title>
<g id="a_Node000003"><a xlink:title=" ">
<polygon fill="#e0e0e0" stroke="#999999" points="72,-250 28,-250 28,-231 72,-231 72,-250"/>
<text text-anchor="middle" x="50" y="-238" font-family="Helvetica,sans-Serif" font-size="10.00">limits</text>
</a>
</g>
</g>
<!-- Node1&#45;&gt;Node3 -->
<g id="edge2_Node000001_Node000003" class="edge">
<title>Node1&#45;&gt;Node3</title>
<g id="a_edge2_Node000001_Node000003"><a xlink:title=" ">
<path fill="none" stroke="#63b8ff" d="M316.69,-417.92C275.43,-397.61 198.51,-357.9 138,-316 111.69,-297.79 83.93,-273.27 66.79,-257.43"/>
<polygon fill="#63b8ff" stroke="#63b8ff" points="68.97,-254.68 59.27,-250.41 64.19,-259.79 68.97,-254.68"/>
</a>
</g>
</g>
<!-- Node4 -->
<g id="Node000004" class="node">
<title>Node4</title>
<g id="a_Node000004"><a xlink:title=" ">
<polygon fill="#e0e0e0" stroke="#999999" points="708,-189.5 650,-189.5 650,-170.5 708,-170.5 708,-189.5"/>
<text text-anchor="middle" x="679" y="-177.5" font-family="Helvetica,sans-Serif" font-size="10.00">memory</text>
</a>
</g>
</g>
<!-- Node1&#45;&gt;Node4 -->
<g id="edge3_Node000001_Node000004" class="edge">
<title>Node1&#45;&gt;Node4</title>
<g id="a_edge3_Node000001_Node000004"><a xlink:title=" ">
<path fill="none" stroke="#63b8ff" d="M408.24,-426.02C453.24,-419.76 514.41,-407.13 563,-382 602.14,-361.75 613.14,-353.05 637,-316 660.95,-278.8 672,-227.06 676.44,-199.69"/>
<polygon fill="#63b8ff" stroke="#63b8ff" points="679.93,-199.98 677.95,-189.57 673.01,-198.94 679.93,-199.98"/>
</a>
</g>
</g>
<!-- Node5 -->
<g id="Node000005" class="node">
<title>Node5</title>
<g id="a_Node000005"><a xlink:title=" ">
<polygon fill="#e0e0e0" stroke="#999999" points="628,-310.5 572,-310.5 572,-291.5 628,-291.5 628,-310.5"/>
<text text-anchor="middle" x="600" y="-298.5" font-family="Helvetica,sans-Serif" font-size="10.00">optional</text>
</a>
</g>
</g>
<!-- Node1&#45;&gt;Node5 -->
<g id="edge4_Node000001_Node000005" class="edge">
<title>Node1&#45;&gt;Node5</title>
<g id="a_edge4_Node000001_Node000005"><a xlink:title=" ">
<path fill="none" stroke="#63b8ff" d="M408.31,-425.26C446.93,-418.81 496.19,-406.26 534,-382 558.79,-366.09 578.85,-337.85 590.1,-319.53"/>
<polygon fill="#63b8ff" stroke="#63b8ff" points="593.22,-321.13 595.29,-310.74 587.19,-317.57 593.22,-321.13"/>
</a>
</g>
</g>
<!-- Node6 -->
<g id="Node000006" class="node">
<title>Node6</title>
<g id="a_Node000006"><a xlink:title=" ">
<polygon fill="#e0e0e0" stroke="#999999" points="355.5,-189.5 308.5,-189.5 308.5,-170.5 355.5,-170.5 355.5,-189.5"/>
<text text-anchor="middle" x="332" y="-177.5" font-family="Helvetica,sans-Serif" font-size="10.00">vector</text>
</a>
</g>
</g>
<!-- Node1&#45;&gt;Node6 -->
<g id="edge5_Node000001_Node000006" class="edge">
<title>Node1&#45;&gt;Node6</title>
<g id="a_edge5_Node000001_Node000006"><a xlink:title=" ">
<path fill="none" stroke="#63b8ff" d="M345.21,-417.79C342.83,-375.15 335.76,-248.33 333.06,-199.99"/>
<polygon fill="#63b8ff" stroke="#63b8ff" points="336.54,-199.52 332.49,-189.73 329.55,-199.91 336.54,-199.52"/>
</a>
</g>
</g>
<!-- Node7 -->
<g id="Node000007" class="node">
<title>Node7</title>
<g id="a_Node000007"><a xlink:href="AABB_8hpp.html" target="_top" xlink:title=" ">
<polygon fill="white" stroke="#666666" points="260.5,-316 147.5,-316 147.5,-286 260.5,-286 260.5,-316"/>
<text text-anchor="start" x="155.5" y="-304" font-family="Helvetica,sans-Serif" font-size="10.00">../../Geometry/AABB</text>
<text text-anchor="middle" x="204" y="-293" font-family="Helvetica,sans-Serif" font-size="10.00">/AABB.hpp</text>
</a>
</g>
</g>
<!-- Node1&#45;&gt;Node7 -->
<g id="edge6_Node000001_Node000007" class="edge">
<title>Node1&#45;&gt;Node7</title>
<g id="a_edge6_Node000001_Node000007"><a xlink:title=" ">
<path fill="none" stroke="#63b8ff" d="M330.53,-417.84C305.57,-394.98 256.24,-349.82 227.1,-323.14"/>
<polygon fill="#63b8ff" stroke="#63b8ff" points="229.19,-320.31 219.45,-316.14 224.46,-325.48 229.19,-320.31"/>
</a>
</g>
</g>
<!-- Node13 -->
<g id="Node000013" class="node">
<title>Node13</title>
<g id="a_Node000013"><a xlink:href="APrimitive_8hpp.html" target="_top" xlink:title=" ">
<polygon fill="white" stroke="#666666" points="525,-382 379,-382 379,-352 525,-352 525,-382"/>
<text text-anchor="start" x="387" y="-370" font-family="Helvetica,sans-Serif" font-size="10.00">../../Objects/Abstracts</text>
<text text-anchor="middle" x="452" y="-359" font-family="Helvetica,sans-Serif" font-size="10.00">/APrimitive/APrimitive.hpp</text>
</a>
</g>
</g>
<!-- Node1&#45;&gt;Node13 -->
<g id="edge16_Node000001_Node000013" class="edge">
<title>Node1&#45;&gt;Node13</title>
<g id="a_edge16_Node000001_Node000013"><a xlink:title=" ">
<path fill="none" stroke="#63b8ff" d="M369.26,-417.95C384.17,-408.95 403.73,-397.14 420.09,-387.27"/>
<polygon fill="#63b8ff" stroke="#63b8ff" points="422.04,-390.18 428.79,-382.01 418.42,-384.18 422.04,-390.18"/>
</a>
</g>
</g>
<!-- Node7&#45;&gt;Node2 -->
<g id="edge7_Node000007_Node000002" class="edge">
<title>Node7&#45;&gt;Node2</title>
<g id="a_edge7_Node000007_Node000002"><a xlink:title=" ">
<path fill="none" stroke="#63b8ff" d="M165.98,-285.93C149.18,-277.87 130.64,-266.09 119,-250 94.83,-216.56 90.78,-166.41 90.53,-139.37"/>
<polygon fill="#63b8ff" stroke="#63b8ff" points="94.03,-139.35 90.6,-129.32 87.03,-139.29 94.03,-139.35"/>
</a>
</g>
</g>
<!-- Node7&#45;&gt;Node3 -->
<g id="edge9_Node000007_Node000003" class="edge">
<title>Node7&#45;&gt;Node3</title>
<g id="a_edge9_Node000007_Node000003"><a xlink:title=" ">
<path fill="none" stroke="#63b8ff" d="M167.11,-285.99C141.15,-276.12 106.74,-263.05 81.95,-253.64"/>
<polygon fill="#63b8ff" stroke="#63b8ff" points="82.88,-250.25 72.29,-249.97 80.4,-256.79 82.88,-250.25"/>
</a>
</g>
</g>
<!-- Node8 -->
<g id="Node000008" class="node">
<title>Node8</title>
<g id="a_Node000008"><a xlink:title=" ">
<polygon fill="#e0e0e0" stroke="#999999" points="175.5,-250 128.5,-250 128.5,-231 175.5,-231 175.5,-250"/>
<text text-anchor="middle" x="152" y="-238" font-family="Helvetica,sans-Serif" font-size="10.00">cmath</text>
</a>
</g>
</g>
<!-- Node7&#45;&gt;Node8 -->
<g id="edge8_Node000007_Node000008" class="edge">
<title>Node7&#45;&gt;Node8</title>
<g id="a_edge8_Node000007_Node000008"><a xlink:title=" ">
<path fill="none" stroke="#63b8ff" d="M191.41,-285.84C183.94,-277.43 174.44,-266.74 166.63,-257.96"/>
<polygon fill="#63b8ff" stroke="#63b8ff" points="169.05,-255.41 159.79,-250.27 163.82,-260.07 169.05,-255.41"/>
</a>
</g>
</g>
<!-- Node9 -->
<g id="Node000009" class="node">
<title>Node9</title>
<g id="a_Node000009"><a xlink:href="Point3D_8hpp.html" target="_top" xlink:title=" ">
<polygon fill="white" stroke="#666666" points="267,-129 141,-129 141,-110 267,-110 267,-129"/>
<text text-anchor="middle" x="204" y="-117" font-family="Helvetica,sans-Serif" font-size="10.00">../Point3D/Point3D.hpp</text>
</a>
</g>
</g>
<!-- Node7&#45;&gt;Node9 -->
<g id="edge10_Node000007_Node000009" class="edge">
<title>Node7&#45;&gt;Node9</title>
<g id="a_edge10_Node000007_Node000009"><a xlink:title=" ">
<path fill="none" stroke="#63b8ff" d="M204,-285.91C204,-253.85 204,-175.38 204,-139.26"/>
<polygon fill="#63b8ff" stroke="#63b8ff" points="207.5,-139.13 204,-129.13 200.5,-139.13 207.5,-139.13"/>
</a>
</g>
</g>
<!-- Node12 -->
<g id="Node000012" class="node">
<title>Node12</title>
<g id="a_Node000012"><a xlink:href="Ray_8hpp.html" target="_top" xlink:title=" ">
<polygon fill="white" stroke="#666666" points="318,-250 232,-250 232,-231 318,-231 318,-250"/>
<text text-anchor="middle" x="275" y="-238" font-family="Helvetica,sans-Serif" font-size="10.00">../Ray/Ray.hpp</text>
</a>
</g>
</g>
<!-- Node7&#45;&gt;Node12 -->
<g id="edge13_Node000007_Node000012" class="edge">
<title>Node7&#45;&gt;Node12</title>
<g id="a_edge13_Node000007_Node000012"><a xlink:title=" ">
<path fill="none" stroke="#63b8ff" d="M221.19,-285.84C231.81,-277.09 245.44,-265.85 256.33,-256.88"/>
<polygon fill="#63b8ff" stroke="#63b8ff" points="258.87,-259.33 264.36,-250.27 254.42,-253.92 258.87,-259.33"/>
</a>
</g>
</g>
<!-- Node10 -->
<g id="Node000010" class="node">
<title>Node10</title>
<g id="a_Node000010"><a xlink:href="Vector3D_8hpp.html" target="_top" xlink:title=" ">
<polygon fill="white" stroke="#666666" points="364,-74 226,-74 226,-55 364,-55 364,-74"/>
<text text-anchor="middle" x="295" y="-62" font-family="Helvetica,sans-Serif" font-size="10.00">../Vector3D/Vector3D.hpp</text>
</a>
</g>
</g>
<!-- Node9&#45;&gt;Node10 -->
<g id="edge11_Node000009_Node000010" class="edge">
<title>Node9&#45;&gt;Node10</title>
<g id="a_edge11_Node000009_Node000010"><a xlink:title=" ">
<path fill="none" stroke="#63b8ff" d="M218.62,-109.98C232.86,-101.69 254.75,-88.94 271.45,-79.22"/>
<polygon fill="#63b8ff" stroke="#63b8ff" points="273.23,-82.23 280.11,-74.17 269.71,-76.18 273.23,-82.23"/>
</a>
</g>
</g>
<!-- Node11 -->
<g id="Node000011" class="node">
<title>Node11</title>
<g id="a_Node000011"><a xlink:title=" ">
<polygon fill="#e0e0e0" stroke="#999999" points="320.5,-19 269.5,-19 269.5,0 320.5,0 320.5,-19"/>
<text text-anchor="middle" x="295" y="-7" font-family="Helvetica,sans-Serif" font-size="10.00">math.h</text>
</a>
</g>
</g>
<!-- Node10&#45;&gt;Node11 -->
<g id="edge12_Node000010_Node000011" class="edge">
<title>Node10&#45;&gt;Node11</title>
<g id="a_edge12_Node000010_Node000011"><a xlink:title=" ">
<path fill="none" stroke="#63b8ff" d="M295,-54.75C295,-47.8 295,-37.85 295,-29.13"/>
<polygon fill="#63b8ff" stroke="#63b8ff" points="298.5,-29.09 295,-19.09 291.5,-29.09 298.5,-29.09"/>
</a>
</g>
</g>
<!-- Node12&#45;&gt;Node9 -->
<g id="edge14_Node000012_Node000009" class="edge">
<title>Node12&#45;&gt;Node9</title>
<g id="a_edge14_Node000012_Node000009"><a xlink:title=" ">
<path fill="none" stroke="#63b8ff" d="M269.89,-230.94C258.33,-211.57 229.97,-164.02 214.49,-138.08"/>
<polygon fill="#63b8ff" stroke="#63b8ff" points="217.38,-136.1 209.25,-129.3 211.37,-139.68 217.38,-136.1"/>
</a>
</g>
</g>
<!-- Node12&#45;&gt;Node10 -->
<g id="edge15_Node000012_Node000010" class="edge">
<title>Node12&#45;&gt;Node10</title>
<g id="a_edge15_Node000012_Node000010"><a xlink:title=" ">
<path fill="none" stroke="#63b8ff" d="M276.02,-230.63C279.14,-203.52 288.58,-121.32 292.86,-84.13"/>
<polygon fill="#63b8ff" stroke="#63b8ff" points="296.34,-84.48 294.01,-74.14 289.39,-83.68 296.34,-84.48"/>
</a>
</g>
</g>
<!-- Node13&#45;&gt;Node4 -->
<g id="edge28_Node000013_Node000004" class="edge">
<title>Node13&#45;&gt;Node4</title>
<g id="a_edge28_Node000013_Node000004"><a xlink:title=" ">
<path fill="none" stroke="#63b8ff" d="M469.44,-351.79C511.39,-317.6 617.69,-230.97 660.61,-195.99"/>
<polygon fill="#63b8ff" stroke="#63b8ff" points="662.99,-198.56 668.53,-189.53 658.57,-193.13 662.99,-198.56"/>
</a>
</g>
</g>
<!-- Node13&#45;&gt;Node5 -->
<g id="edge29_Node000013_Node000005" class="edge">
<title>Node13&#45;&gt;Node5</title>
<g id="a_edge29_Node000013_Node000005"><a xlink:title=" ">
<path fill="none" stroke="#63b8ff" d="M484.48,-351.95C510.32,-340.78 546.15,-325.29 571.03,-314.53"/>
<polygon fill="#63b8ff" stroke="#63b8ff" points="572.51,-317.7 580.3,-310.52 569.74,-311.27 572.51,-317.7"/>
</a>
</g>
</g>
<!-- Node13&#45;&gt;Node7 -->
<g id="edge30_Node000013_Node000007" class="edge">
<title>Node13&#45;&gt;Node7</title>
<g id="a_edge30_Node000013_Node000007"><a xlink:title=" ">
<path fill="none" stroke="#63b8ff" d="M397.58,-351.95C359.38,-342.1 308.15,-328.88 267.99,-318.51"/>
<polygon fill="#63b8ff" stroke="#63b8ff" points="268.86,-315.12 258.3,-316.01 267.11,-321.9 268.86,-315.12"/>
</a>
</g>
</g>
<!-- Node13&#45;&gt;Node12 -->
<g id="edge31_Node000013_Node000012" class="edge">
<title>Node13&#45;&gt;Node12</title>
<g id="a_edge31_Node000013_Node000012"><a xlink:title=" ">
<path fill="none" stroke="#63b8ff" d="M432.04,-351.96C398.18,-328.14 329.82,-280.06 295.56,-255.96"/>
<polygon fill="#63b8ff" stroke="#63b8ff" points="297.43,-253 287.24,-250.11 293.41,-258.73 297.43,-253"/>
</a>
</g>
</g>
<!-- Node14 -->
<g id="Node000014" class="node">
<title>Node14</title>
<g id="a_Node000014"><a xlink:href="IMaterial_8hpp.html" target="_top" xlink:title=" ">
<polygon fill="white" stroke="#666666" points="502,-310.5 412,-310.5 412,-291.5 502,-291.5 502,-310.5"/>
<text text-anchor="middle" x="457" y="-298.5" font-family="Helvetica,sans-Serif" font-size="10.00">../IMaterial.hpp</text>
</a>
</g>
</g>
<!-- Node13&#45;&gt;Node14 -->
<g id="edge17_Node000013_Node000014" class="edge">
<title>Node13&#45;&gt;Node14</title>
<g id="a_edge17_Node000013_Node000014"><a xlink:title=" ">
<path fill="none" stroke="#63b8ff" d="M453.11,-351.8C453.82,-342.7 454.75,-330.79 455.52,-320.9"/>
<polygon fill="#63b8ff" stroke="#63b8ff" points="459.02,-321.09 456.31,-310.84 452.04,-320.54 459.02,-321.09"/>
</a>
</g>
</g>
<!-- Node14&#45;&gt;Node6 -->
<g id="edge27_Node000014_Node000006" class="edge">
<title>Node14&#45;&gt;Node6</title>
<g id="a_edge27_Node000014_Node000006"><a xlink:title=" ">
<path fill="none" stroke="#63b8ff" d="M448.01,-291.44C427.21,-271.64 375.5,-222.41 348.7,-196.9"/>
<polygon fill="#63b8ff" stroke="#63b8ff" points="350.9,-194.16 341.25,-189.8 346.07,-199.23 350.9,-194.16"/>
</a>
</g>
</g>
<!-- Node15 -->
<g id="Node000015" class="node">
<title>Node15</title>
<g id="a_Node000015"><a xlink:href="Color_8hpp.html" target="_top" xlink:title=" ">
<polygon fill="white" stroke="#666666" points="480,-189.5 374,-189.5 374,-170.5 480,-170.5 480,-189.5"/>
<text text-anchor="middle" x="427" y="-177.5" font-family="Helvetica,sans-Serif" font-size="10.00">../../Utils/Color.hpp</text>
</a>
</g>
</g>
<!-- Node14&#45;&gt;Node15 -->
<g id="edge18_Node000014_Node000015" class="edge">
<title>Node14&#45;&gt;Node15</title>
<g id="a_edge18_Node000014_Node000015"><a xlink:title=" ">
<path fill="none" stroke="#63b8ff" d="M453.87,-291.23C450.41,-281.32 444.82,-264.64 441,-250 436.62,-233.18 432.78,-213.76 430.24,-199.82"/>
<polygon fill="#63b8ff" stroke="#63b8ff" points="433.62,-198.8 428.43,-189.57 426.72,-200.02 433.62,-198.8"/>
</a>
</g>
</g>
<!-- Node16 -->
<g id="Node000016" class="node">
<title>Node16</title>
<g id="a_Node000016"><a xlink:href="ILight_8hpp.html" target="_top" xlink:title=" ">
<polygon fill="white" stroke="#666666" points="515.5,-250 450.5,-250 450.5,-231 515.5,-231 515.5,-250"/>
<text text-anchor="middle" x="483" y="-238" font-family="Helvetica,sans-Serif" font-size="10.00">ILight.hpp</text>
</a>
</g>
</g>
<!-- Node14&#45;&gt;Node16 -->
<g id="edge20_Node000014_Node000016" class="edge">
<title>Node14&#45;&gt;Node16</title>
<g id="a_edge20_Node000014_Node000016"><a xlink:title=" ">
<path fill="none" stroke="#63b8ff" d="M460.84,-291.37C464.56,-282.99 470.33,-270.01 475.05,-259.39"/>
<polygon fill="#63b8ff" stroke="#63b8ff" points="478.28,-260.73 479.15,-250.17 471.89,-257.88 478.28,-260.73"/>
</a>
</g>
</g>
<!-- Node15&#45;&gt;Node2 -->
<g id="edge19_Node000015_Node000002" class="edge">
<title>Node15&#45;&gt;Node2</title>
<g id="a_edge19_Node000015_Node000002"><a xlink:title=" ">
<path fill="none" stroke="#63b8ff" d="M390.44,-170.45C381.79,-168.55 372.59,-166.62 364,-165 264.56,-146.26 236.37,-147.5 133.09,-129.12"/>
<polygon fill="#63b8ff" stroke="#63b8ff" points="133.66,-125.66 123.2,-127.34 132.42,-132.55 133.66,-125.66"/>
</a>
</g>
</g>
<!-- Node16&#45;&gt;Node4 -->
<g id="edge26_Node000016_Node000004" class="edge">
<title>Node16&#45;&gt;Node4</title>
<g id="a_edge26_Node000016_Node000004"><a xlink:title=" ">
<path fill="none" stroke="#63b8ff" d="M515.6,-231.12C547.71,-222.68 598.04,-208.94 641,-195 642.91,-194.38 644.86,-193.73 646.82,-193.05"/>
<polygon fill="#63b8ff" stroke="#63b8ff" points="648.34,-196.23 656.6,-189.58 646,-189.63 648.34,-196.23"/>
</a>
</g>
</g>
<!-- Node16&#45;&gt;Node6 -->
<g id="edge25_Node000016_Node000006" class="edge">
<title>Node16&#45;&gt;Node6</title>
<g id="a_edge25_Node000016_Node000006"><a xlink:title=" ">
<path fill="none" stroke="#63b8ff" d="M459.38,-230.91C435.48,-222.15 397.52,-208.02 365,-195 363.8,-194.52 362.57,-194.02 361.34,-193.52"/>
<polygon fill="#63b8ff" stroke="#63b8ff" points="362.42,-190.18 351.84,-189.57 359.73,-196.64 362.42,-190.18"/>
</a>
</g>
</g>
<!-- Node16&#45;&gt;Node15 -->
<g id="edge24_Node000016_Node000015" class="edge">
<title>Node16&#45;&gt;Node15</title>
<g id="a_edge24_Node000016_Node000015"><a xlink:title=" ">
<path fill="none" stroke="#63b8ff" d="M474.74,-230.87C466.22,-221.97 452.74,-207.89 442.27,-196.95"/>
<polygon fill="#63b8ff" stroke="#63b8ff" points="444.74,-194.47 435.3,-189.67 439.68,-199.31 444.74,-194.47"/>
</a>
</g>
</g>
<!-- Node17 -->
<g id="Node000017" class="node">
<title>Node17</title>
<g id="a_Node000017"><a xlink:href="HitRecord_8hpp.html" target="_top" xlink:title=" ">
<polygon fill="white" stroke="#666666" points="632,-195 498,-195 498,-165 632,-165 632,-195"/>
<text text-anchor="start" x="506" y="-183" font-family="Helvetica,sans-Serif" font-size="10.00">../../Geometry/HitRecord</text>
<text text-anchor="middle" x="565" y="-172" font-family="Helvetica,sans-Serif" font-size="10.00">/HitRecord.hpp</text>
</a>
</g>
</g>
<!-- Node16&#45;&gt;Node17 -->
<g id="edge21_Node000016_Node000017" class="edge">
<title>Node16&#45;&gt;Node17</title>
<g id="a_edge21_Node000016_Node000017"><a xlink:title=" ">
<path fill="none" stroke="#63b8ff" d="M495.1,-230.87C506.02,-223.08 522.51,-211.32 536.72,-201.17"/>
<polygon fill="#63b8ff" stroke="#63b8ff" points="539.11,-203.77 545.22,-195.11 535.04,-198.07 539.11,-203.77"/>
</a>
</g>
</g>
<!-- Node17&#45;&gt;Node9 -->
<g id="edge22_Node000017_Node000009" class="edge">
<title>Node17&#45;&gt;Node9</title>
<g id="a_edge22_Node000017_Node000009"><a xlink:title=" ">
<path fill="none" stroke="#63b8ff" d="M497.88,-166.53C494.88,-166.01 491.91,-165.5 489,-165 414.83,-152.38 329.57,-139.25 271.77,-130.55"/>
<polygon fill="#63b8ff" stroke="#63b8ff" points="272.07,-127.06 261.66,-129.03 271.03,-133.98 272.07,-127.06"/>
</a>
</g>
</g>
<!-- Node17&#45;&gt;Node10 -->
<g id="edge23_Node000017_Node000010" class="edge">
<title>Node17&#45;&gt;Node10</title>
<g id="a_edge23_Node000017_Node000010"><a xlink:title=" ">
<path fill="none" stroke="#63b8ff" d="M531.62,-164.97C478.58,-142.67 375.86,-99.49 325.01,-78.12"/>
<polygon fill="#63b8ff" stroke="#63b8ff" points="326.14,-74.79 315.56,-74.14 323.43,-81.25 326.14,-74.79"/>
</a>
</g>
</g>
</g>
</svg>
