<?xml version="1.0" encoding="UTF-8" standalone="no"?>
<!DOCTYPE svg PUBLIC "-//W3C//DTD SVG 1.1//EN"
 "http://www.w3.org/Graphics/SVG/1.1/DTD/svg11.dtd">
<!-- Generated by graphviz version 2.43.0 (0)
 -->
<!-- Title: src/SceneSystem/BVH/BVH.hpp Pages: 1 -->
<svg width="714pt" height="247pt"
 viewBox="0.00 0.00 714.00 247.00" xmlns="http://www.w3.org/2000/svg" xmlns:xlink="http://www.w3.org/1999/xlink">
<g id="graph0" class="graph" transform="scale(1 1) rotate(0) translate(4 243)">
<title>src/SceneSystem/BVH/BVH.hpp</title>
<!-- Node1 -->
<g id="Node000001" class="node">
<title>Node1</title>
<g id="a_Node000001"><a xlink:title=" ">
<polygon fill="#999999" stroke="#666666" points="450.5,-239 326.5,-239 326.5,-209 450.5,-209 450.5,-239"/>
<text text-anchor="start" x="334.5" y="-227" font-family="Helvetica,sans-Serif" font-size="10.00">src/SceneSystem/BVH</text>
<text text-anchor="middle" x="388.5" y="-216" font-family="Helvetica,sans-Serif" font-size="10.00">/BVH.hpp</text>
</a>
</g>
</g>
<!-- Node2 -->
<g id="Node000002" class="node">
<title>Node2</title>
<g id="a_Node000002"><a xlink:href="Scene_8hpp.html" target="_top" xlink:title=" ">
<polygon fill="white" stroke="#666666" points="454.5,-173 322.5,-173 322.5,-143 454.5,-143 454.5,-173"/>
<text text-anchor="start" x="330.5" y="-161" font-family="Helvetica,sans-Serif" font-size="10.00">src/SceneSystem/Scene</text>
<text text-anchor="middle" x="388.5" y="-150" font-family="Helvetica,sans-Serif" font-size="10.00">/Scene.hpp</text>
</a>
</g>
</g>
<!-- Node1&#45;&gt;Node2 -->
<g id="edge1_Node000001_Node000002" class="edge">
<title>Node1&#45;&gt;Node2</title>
<g id="a_edge1_Node000001_Node000002"><a xlink:title=" ">
<path fill="none" stroke="#63b8ff" d="M388.5,-198.54C388.5,-189.96 388.5,-180.61 388.5,-173.16"/>
<polygon fill="#63b8ff" stroke="#63b8ff" points="385,-198.8 388.5,-208.8 392,-198.8 385,-198.8"/>
</a>
</g>
</g>
<!-- Node3 -->
<g id="Node000003" class="node">
<title>Node3</title>
<g id="a_Node000003"><a xlink:href="SceneWriter_8cpp.html" target="_top" xlink:title=" ">
<polygon fill="white" stroke="#666666" points="161,-107 0,-107 0,-66 161,-66 161,-107"/>
<text text-anchor="start" x="8" y="-95" font-family="Helvetica,sans-Serif" font-size="10.00">src/Objects/Plugins</text>
<text text-anchor="start" x="8" y="-84" font-family="Helvetica,sans-Serif" font-size="10.00">/CorePlugin/Interfaces</text>
<text text-anchor="middle" x="80.5" y="-73" font-family="Helvetica,sans-Serif" font-size="10.00">/SceneWriter/SceneWriter.cpp</text>
</a>
</g>
</g>
<!-- Node2&#45;&gt;Node3 -->
<g id="edge2_Node000002_Node000003" class="edge">
<title>Node2&#45;&gt;Node3</title>
<g id="a_edge2_Node000002_Node000003"><a xlink:title=" ">
<path fill="none" stroke="#63b8ff" d="M316.17,-140.68C269.68,-130.19 209.22,-116.55 161.18,-105.7"/>
<polygon fill="#63b8ff" stroke="#63b8ff" points="315.65,-144.15 326.17,-142.94 317.19,-137.32 315.65,-144.15"/>
</a>
</g>
</g>
<!-- Node4 -->
<g id="Node000004" class="node">
<title>Node4</title>
<g id="a_Node000004"><a xlink:href="Camera_8cpp.html" target="_top" xlink:title=" ">
<polygon fill="white" stroke="#666666" points="304,-107 179,-107 179,-66 304,-66 304,-107"/>
<text text-anchor="start" x="187" y="-95" font-family="Helvetica,sans-Serif" font-size="10.00">src/Objects/Plugins</text>
<text text-anchor="start" x="187" y="-84" font-family="Helvetica,sans-Serif" font-size="10.00">/CorePlugin/Renderers</text>
<text text-anchor="middle" x="241.5" y="-73" font-family="Helvetica,sans-Serif" font-size="10.00">/Camera/Camera.cpp</text>
</a>
</g>
</g>
<!-- Node2&#45;&gt;Node4 -->
<g id="edge3_Node000002_Node000004" class="edge">
<title>Node2&#45;&gt;Node4</title>
<g id="a_edge3_Node000002_Node000004"><a xlink:title=" ">
<path fill="none" stroke="#63b8ff" d="M349.67,-138.64C329.1,-128.92 303.84,-116.97 282.9,-107.07"/>
<polygon fill="#63b8ff" stroke="#63b8ff" points="348.22,-141.83 358.75,-142.94 351.21,-135.5 348.22,-141.83"/>
</a>
</g>
</g>
<!-- Node5 -->
<g id="Node000005" class="node">
<title>Node5</title>
<g id="a_Node000005"><a xlink:href="Scene_8cpp.html" target="_top" xlink:title=" ">
<polygon fill="white" stroke="#666666" points="454.5,-101.5 322.5,-101.5 322.5,-71.5 454.5,-71.5 454.5,-101.5"/>
<text text-anchor="start" x="330.5" y="-89.5" font-family="Helvetica,sans-Serif" font-size="10.00">src/SceneSystem/Scene</text>
<text text-anchor="middle" x="388.5" y="-78.5" font-family="Helvetica,sans-Serif" font-size="10.00">/Scene.cpp</text>
</a>
</g>
</g>
<!-- Node2&#45;&gt;Node5 -->
<g id="edge4_Node000002_Node000005" class="edge">
<title>Node2&#45;&gt;Node5</title>
<g id="a_edge4_Node000002_Node000005"><a xlink:title=" ">
<path fill="none" stroke="#63b8ff" d="M388.5,-132.75C388.5,-122.31 388.5,-110.49 388.5,-101.54"/>
<polygon fill="#63b8ff" stroke="#63b8ff" points="385,-132.94 388.5,-142.94 392,-132.94 385,-132.94"/>
</a>
</g>
</g>
<!-- Node6 -->
<g id="Node000006" class="node">
<title>Node6</title>
<g id="a_Node000006"><a xlink:href="SceneLoader_8hpp.html" target="_top" xlink:title=" ">
<polygon fill="white" stroke="#666666" points="638,-101.5 473,-101.5 473,-71.5 638,-71.5 638,-101.5"/>
<text text-anchor="start" x="481" y="-89.5" font-family="Helvetica,sans-Serif" font-size="10.00">src/SceneSystem/SceneLoader</text>
<text text-anchor="middle" x="555.5" y="-78.5" font-family="Helvetica,sans-Serif" font-size="10.00">/SceneLoader.hpp</text>
</a>
</g>
</g>
<!-- Node2&#45;&gt;Node6 -->
<g id="edge5_Node000002_Node000006" class="edge">
<title>Node2&#45;&gt;Node6</title>
<g id="a_edge5_Node000002_Node000006"><a xlink:title=" ">
<path fill="none" stroke="#63b8ff" d="M431.85,-138.96C459.89,-127.29 495.85,-112.32 521.76,-101.54"/>
<polygon fill="#63b8ff" stroke="#63b8ff" points="430.18,-135.86 422.29,-142.94 432.87,-142.32 430.18,-135.86"/>
</a>
</g>
</g>
<!-- Node8 -->
<g id="Node000008" class="node">
<title>Node8</title>
<g id="a_Node000008"><a xlink:href="main_8cpp.html" target="_top" xlink:title=" ">
<polygon fill="white" stroke="#666666" points="706,-24.5 627,-24.5 627,-5.5 706,-5.5 706,-24.5"/>
<text text-anchor="middle" x="666.5" y="-12.5" font-family="Helvetica,sans-Serif" font-size="10.00">src/main.cpp</text>
</a>
</g>
</g>
<!-- Node2&#45;&gt;Node8 -->
<g id="edge8_Node000002_Node000008" class="edge">
<title>Node2&#45;&gt;Node8</title>
<g id="a_edge8_Node000002_Node000008"><a xlink:title=" ">
<path fill="none" stroke="#63b8ff" d="M464.85,-151.52C531.73,-145.11 622.09,-132.03 647.5,-107 670.15,-84.69 669.19,-42.83 667.55,-24.72"/>
<polygon fill="#63b8ff" stroke="#63b8ff" points="464.39,-148.04 454.75,-152.45 465.03,-155.01 464.39,-148.04"/>
</a>
</g>
</g>
<!-- Node7 -->
<g id="Node000007" class="node">
<title>Node7</title>
<g id="a_Node000007"><a xlink:href="SceneLoader_8cpp.html" target="_top" xlink:title=" ">
<polygon fill="white" stroke="#666666" points="609,-30 444,-30 444,0 609,0 609,-30"/>
<text text-anchor="start" x="452" y="-18" font-family="Helvetica,sans-Serif" font-size="10.00">src/SceneSystem/SceneLoader</text>
<text text-anchor="middle" x="526.5" y="-7" font-family="Helvetica,sans-Serif" font-size="10.00">/SceneLoader.cpp</text>
</a>
</g>
</g>
<!-- Node6&#45;&gt;Node7 -->
<g id="edge6_Node000006_Node000007" class="edge">
<title>Node6&#45;&gt;Node7</title>
<g id="a_edge6_Node000006_Node000007"><a xlink:title=" ">
<path fill="none" stroke="#63b8ff" d="M545.65,-61.9C541.24,-51.31 536.17,-39.18 532.36,-30.04"/>
<polygon fill="#63b8ff" stroke="#63b8ff" points="542.55,-63.55 549.63,-71.44 549.01,-60.86 542.55,-63.55"/>
</a>
</g>
</g>
<!-- Node6&#45;&gt;Node8 -->
<g id="edge7_Node000006_Node000008" class="edge">
<title>Node6&#45;&gt;Node8</title>
<g id="a_edge7_Node000006_Node000008"><a xlink:title=" ">
<path fill="none" stroke="#63b8ff" d="M586.56,-66.05C608.34,-52.42 636.39,-34.85 652.82,-24.57"/>
<polygon fill="#63b8ff" stroke="#63b8ff" points="584.58,-63.16 577.96,-71.44 588.3,-69.1 584.58,-63.16"/>
</a>
</g>
</g>
</g>
</svg>
