<?xml version="1.0" encoding="UTF-8" standalone="no"?>
<!DOCTYPE svg PUBLIC "-//W3C//DTD SVG 1.1//EN"
 "http://www.w3.org/Graphics/SVG/1.1/DTD/svg11.dtd">
<!-- Generated by graphviz version 2.43.0 (0)
 -->
<!-- Title: src/Objects/Plugins/BVHCamPlugin/Renderers/BVHCam.hpp Pages: 1 -->
<svg width="1011pt" height="302pt"
 viewBox="0.00 0.00 1010.50 302.00" xmlns="http://www.w3.org/2000/svg" xmlns:xlink="http://www.w3.org/1999/xlink">
<g id="graph0" class="graph" transform="scale(1 1) rotate(0) translate(4 298)">
<title>src/Objects/Plugins/BVHCamPlugin/Renderers/BVHCam.hpp</title>
<!-- Node1 -->
<g id="Node000001" class="node">
<title>Node1</title>
<g id="a_Node000001"><a xlink:title=" ">
<polygon fill="#999999" stroke="#666666" points="611.5,-294 465.5,-294 465.5,-253 611.5,-253 611.5,-294"/>
<text text-anchor="start" x="473.5" y="-282" font-family="Helvetica,sans-Serif" font-size="10.00">src/Objects/Plugins</text>
<text text-anchor="start" x="473.5" y="-271" font-family="Helvetica,sans-Serif" font-size="10.00">/BVHCamPlugin/Renderers</text>
<text text-anchor="middle" x="538.5" y="-260" font-family="Helvetica,sans-Serif" font-size="10.00">/BVHCam.hpp</text>
</a>
</g>
</g>
<!-- Node2 -->
<g id="Node000002" class="node">
<title>Node2</title>
<g id="a_Node000002"><a xlink:href="ARenderer_8hpp.html" target="_top" xlink:title=" ">
<polygon fill="white" stroke="#666666" points="128,-217 9,-217 9,-176 128,-176 128,-217"/>
<text text-anchor="start" x="17" y="-205" font-family="Helvetica,sans-Serif" font-size="10.00">../../../../Objects</text>
<text text-anchor="start" x="17" y="-194" font-family="Helvetica,sans-Serif" font-size="10.00">/Abstracts/ARenderer</text>
<text text-anchor="middle" x="68.5" y="-183" font-family="Helvetica,sans-Serif" font-size="10.00">/ARenderer.hpp</text>
</a>
</g>
</g>
<!-- Node1&#45;&gt;Node2 -->
<g id="edge1_Node000001_Node000002" class="edge">
<title>Node1&#45;&gt;Node2</title>
<g id="a_edge1_Node000001_Node000002"><a xlink:title=" ">
<path fill="none" stroke="#63b8ff" d="M465.44,-264.89C385.64,-255.96 254.29,-239.48 142.5,-217 141.03,-216.71 139.56,-216.4 138.07,-216.08"/>
<polygon fill="#63b8ff" stroke="#63b8ff" points="138.66,-212.63 128.13,-213.86 137.13,-219.46 138.66,-212.63"/>
</a>
</g>
</g>
<!-- Node5 -->
<g id="Node000005" class="node">
<title>Node5</title>
<g id="a_Node000005"><a xlink:title=" ">
<polygon fill="#e0e0e0" stroke="#999999" points="180,-134.5 133,-134.5 133,-115.5 180,-115.5 180,-134.5"/>
<text text-anchor="middle" x="156.5" y="-122.5" font-family="Helvetica,sans-Serif" font-size="10.00">vector</text>
</a>
</g>
</g>
<!-- Node1&#45;&gt;Node5 -->
<g id="edge23_Node000001_Node000005" class="edge">
<title>Node1&#45;&gt;Node5</title>
<g id="a_edge23_Node000001_Node000005"><a xlink:title=" ">
<path fill="none" stroke="#63b8ff" d="M465.44,-270.9C371.64,-267.28 216.11,-255.47 175.5,-217 155.93,-198.46 153.81,-165.36 154.7,-144.6"/>
<polygon fill="#63b8ff" stroke="#63b8ff" points="158.2,-144.73 155.41,-134.51 151.22,-144.24 158.2,-144.73"/>
</a>
</g>
</g>
<!-- Node6 -->
<g id="Node000006" class="node">
<title>Node6</title>
<g id="a_Node000006"><a xlink:href="Point3D_8hpp.html" target="_top" xlink:title=" ">
<polygon fill="white" stroke="#666666" points="589.5,-140 469.5,-140 469.5,-110 589.5,-110 589.5,-140"/>
<text text-anchor="start" x="477.5" y="-128" font-family="Helvetica,sans-Serif" font-size="10.00">../../../../Geometry</text>
<text text-anchor="middle" x="529.5" y="-117" font-family="Helvetica,sans-Serif" font-size="10.00">/Point3D/Point3D.hpp</text>
</a>
</g>
</g>
<!-- Node1&#45;&gt;Node6 -->
<g id="edge5_Node000001_Node000006" class="edge">
<title>Node1&#45;&gt;Node6</title>
<g id="a_edge5_Node000001_Node000006"><a xlink:title=" ">
<path fill="none" stroke="#63b8ff" d="M537.29,-252.74C535.65,-226.15 532.75,-178.87 530.99,-150.18"/>
<polygon fill="#63b8ff" stroke="#63b8ff" points="534.48,-149.95 530.37,-140.18 527.49,-150.38 534.48,-149.95"/>
</a>
</g>
</g>
<!-- Node7 -->
<g id="Node000007" class="node">
<title>Node7</title>
<g id="a_Node000007"><a xlink:href="Vector3D_8hpp.html" target="_top" xlink:title=" ">
<polygon fill="white" stroke="#666666" points="642.5,-74 504.5,-74 504.5,-55 642.5,-55 642.5,-74"/>
<text text-anchor="middle" x="573.5" y="-62" font-family="Helvetica,sans-Serif" font-size="10.00">../Vector3D/Vector3D.hpp</text>
</a>
</g>
</g>
<!-- Node1&#45;&gt;Node7 -->
<g id="edge8_Node000001_Node000007" class="edge">
<title>Node1&#45;&gt;Node7</title>
<g id="a_edge8_Node000001_Node000007"><a xlink:title=" ">
<path fill="none" stroke="#63b8ff" d="M611.58,-272.03C706.16,-269.7 863.16,-259.35 899.5,-217 974.53,-129.55 771.79,-89.44 652.9,-73.87"/>
<polygon fill="#63b8ff" stroke="#63b8ff" points="653.09,-70.37 642.73,-72.57 652.21,-77.31 653.09,-70.37"/>
</a>
</g>
</g>
<!-- Node9 -->
<g id="Node000009" class="node">
<title>Node9</title>
<g id="a_Node000009"><a xlink:href="Rectangle3D_8hpp.html" target="_top" xlink:title=" ">
<polygon fill="white" stroke="#666666" points="510.5,-211.5 342.5,-211.5 342.5,-181.5 510.5,-181.5 510.5,-211.5"/>
<text text-anchor="start" x="350.5" y="-199.5" font-family="Helvetica,sans-Serif" font-size="10.00">../../../../Geometry</text>
<text text-anchor="middle" x="426.5" y="-188.5" font-family="Helvetica,sans-Serif" font-size="10.00">/Rectangle3D/Rectangle3D.hpp</text>
</a>
</g>
</g>
<!-- Node1&#45;&gt;Node9 -->
<g id="edge9_Node000001_Node000009" class="edge">
<title>Node1&#45;&gt;Node9</title>
<g id="a_edge9_Node000001_Node000009"><a xlink:title=" ">
<path fill="none" stroke="#63b8ff" d="M509.37,-252.99C493.07,-242.08 472.79,-228.5 456.38,-217.51"/>
<polygon fill="#63b8ff" stroke="#63b8ff" points="457.96,-214.36 447.71,-211.7 454.07,-220.17 457.96,-214.36"/>
</a>
</g>
</g>
<!-- Node10 -->
<g id="Node000010" class="node">
<title>Node10</title>
<g id="a_Node000010"><a xlink:href="Ray_8hpp.html" target="_top" xlink:title="Ray primitive used to represent a parametric line (origin + direction).">
<polygon fill="white" stroke="#666666" points="668,-211.5 567,-211.5 567,-181.5 668,-181.5 668,-211.5"/>
<text text-anchor="start" x="575" y="-199.5" font-family="Helvetica,sans-Serif" font-size="10.00">../../../../Geometry</text>
<text text-anchor="middle" x="617.5" y="-188.5" font-family="Helvetica,sans-Serif" font-size="10.00">/Ray/Ray.hpp</text>
</a>
</g>
</g>
<!-- Node1&#45;&gt;Node10 -->
<g id="edge12_Node000001_Node000010" class="edge">
<title>Node1&#45;&gt;Node10</title>
<g id="a_edge12_Node000001_Node000010"><a xlink:title=" ">
<path fill="none" stroke="#63b8ff" d="M559.26,-252.79C570.25,-242.36 583.77,-229.52 595.01,-218.85"/>
<polygon fill="#63b8ff" stroke="#63b8ff" points="597.53,-221.28 602.37,-211.86 592.71,-216.21 597.53,-221.28"/>
</a>
</g>
</g>
<!-- Node11 -->
<g id="Node000011" class="node">
<title>Node11</title>
<g id="a_Node000011"><a xlink:href="HitRecord_8hpp.html" target="_top" xlink:title=" ">
<polygon fill="white" stroke="#666666" points="324.5,-211.5 184.5,-211.5 184.5,-181.5 324.5,-181.5 324.5,-211.5"/>
<text text-anchor="start" x="192.5" y="-199.5" font-family="Helvetica,sans-Serif" font-size="10.00">../../../../Geometry</text>
<text text-anchor="middle" x="254.5" y="-188.5" font-family="Helvetica,sans-Serif" font-size="10.00">/HitRecord/HitRecord.hpp</text>
</a>
</g>
</g>
<!-- Node1&#45;&gt;Node11 -->
<g id="edge15_Node000001_Node000011" class="edge">
<title>Node1&#45;&gt;Node11</title>
<g id="a_edge15_Node000001_Node000011"><a xlink:title=" ">
<path fill="none" stroke="#63b8ff" d="M465.36,-253.19C419.62,-241.11 361.3,-225.7 317.59,-214.16"/>
<polygon fill="#63b8ff" stroke="#63b8ff" points="318.22,-210.71 307.66,-211.54 316.43,-217.48 318.22,-210.71"/>
</a>
</g>
</g>
<!-- Node12 -->
<g id="Node000012" class="node">
<title>Node12</title>
<g id="a_Node000012"><a xlink:href="TransformMatrix_8hpp.html" target="_top" xlink:title="Affine transform matrix utilities used for camera and object transforms.">
<polygon fill="white" stroke="#666666" points="890.5,-211.5 686.5,-211.5 686.5,-181.5 890.5,-181.5 890.5,-211.5"/>
<text text-anchor="start" x="694.5" y="-199.5" font-family="Helvetica,sans-Serif" font-size="10.00">../../../../Geometry</text>
<text text-anchor="middle" x="788.5" y="-188.5" font-family="Helvetica,sans-Serif" font-size="10.00">/TransformMatrix/TransformMatrix.hpp</text>
</a>
</g>
</g>
<!-- Node1&#45;&gt;Node12 -->
<g id="edge18_Node000001_Node000012" class="edge">
<title>Node1&#45;&gt;Node12</title>
<g id="a_edge18_Node000001_Node000012"><a xlink:title=" ">
<path fill="none" stroke="#63b8ff" d="M603.53,-252.99C643.24,-241.08 693.53,-225.99 731.65,-214.56"/>
<polygon fill="#63b8ff" stroke="#63b8ff" points="732.99,-217.81 741.56,-211.58 730.97,-211.1 732.99,-217.81"/>
</a>
</g>
</g>
<!-- Node14 -->
<g id="Node000014" class="node">
<title>Node14</title>
<g id="a_Node000014"><a xlink:title=" ">
<polygon fill="#e0e0e0" stroke="#999999" points="1002.5,-206 946.5,-206 946.5,-187 1002.5,-187 1002.5,-206"/>
<text text-anchor="middle" x="974.5" y="-194" font-family="Helvetica,sans-Serif" font-size="10.00">optional</text>
</a>
</g>
</g>
<!-- Node1&#45;&gt;Node14 -->
<g id="edge22_Node000001_Node000014" class="edge">
<title>Node1&#45;&gt;Node14</title>
<g id="a_edge22_Node000001_Node000014"><a xlink:title=" ">
<path fill="none" stroke="#63b8ff" d="M611.76,-268.64C691.91,-262.93 823.52,-249.2 932.5,-217 938.19,-215.32 944.08,-212.99 949.59,-210.52"/>
<polygon fill="#63b8ff" stroke="#63b8ff" points="951.46,-213.51 958.97,-206.05 948.44,-207.19 951.46,-213.51"/>
</a>
</g>
</g>
<!-- Node3 -->
<g id="Node000003" class="node">
<title>Node3</title>
<g id="a_Node000003"><a xlink:href="Color_8hpp.html" target="_top" xlink:title=" ">
<polygon fill="white" stroke="#666666" points="115,-134.5 0,-134.5 0,-115.5 115,-115.5 115,-134.5"/>
<text text-anchor="middle" x="57.5" y="-122.5" font-family="Helvetica,sans-Serif" font-size="10.00">../../../Utils/Color.hpp</text>
</a>
</g>
</g>
<!-- Node2&#45;&gt;Node3 -->
<g id="edge2_Node000002_Node000003" class="edge">
<title>Node2&#45;&gt;Node3</title>
<g id="a_edge2_Node000002_Node000003"><a xlink:title=" ">
<path fill="none" stroke="#63b8ff" d="M65.38,-175.77C63.84,-166.08 62,-154.46 60.49,-144.88"/>
<polygon fill="#63b8ff" stroke="#63b8ff" points="63.92,-144.15 58.9,-134.82 57,-145.24 63.92,-144.15"/>
</a>
</g>
</g>
<!-- Node2&#45;&gt;Node5 -->
<g id="edge4_Node000002_Node000005" class="edge">
<title>Node2&#45;&gt;Node5</title>
<g id="a_edge4_Node000002_Node000005"><a xlink:title=" ">
<path fill="none" stroke="#63b8ff" d="M93.48,-175.77C107.35,-164.81 124.35,-151.39 137.19,-141.25"/>
<polygon fill="#63b8ff" stroke="#63b8ff" points="139.65,-143.76 145.33,-134.82 135.32,-138.27 139.65,-143.76"/>
</a>
</g>
</g>
<!-- Node4 -->
<g id="Node000004" class="node">
<title>Node4</title>
<g id="a_Node000004"><a xlink:title=" ">
<polygon fill="#e0e0e0" stroke="#999999" points="89.5,-74 25.5,-74 25.5,-55 89.5,-55 89.5,-74"/>
<text text-anchor="middle" x="57.5" y="-62" font-family="Helvetica,sans-Serif" font-size="10.00">algorithm</text>
</a>
</g>
</g>
<!-- Node3&#45;&gt;Node4 -->
<g id="edge3_Node000003_Node000004" class="edge">
<title>Node3&#45;&gt;Node4</title>
<g id="a_edge3_Node000003_Node000004"><a xlink:title=" ">
<path fill="none" stroke="#63b8ff" d="M57.5,-115.37C57.5,-107.25 57.5,-94.81 57.5,-84.39"/>
<polygon fill="#63b8ff" stroke="#63b8ff" points="61,-84.17 57.5,-74.17 54,-84.17 61,-84.17"/>
</a>
</g>
</g>
<!-- Node6&#45;&gt;Node7 -->
<g id="edge6_Node000006_Node000007" class="edge">
<title>Node6&#45;&gt;Node7</title>
<g id="a_edge6_Node000006_Node000007"><a xlink:title=" ">
<path fill="none" stroke="#63b8ff" d="M540.15,-109.84C546.34,-101.61 554.19,-91.18 560.71,-82.51"/>
<polygon fill="#63b8ff" stroke="#63b8ff" points="563.69,-84.36 566.91,-74.27 558.1,-80.15 563.69,-84.36"/>
</a>
</g>
</g>
<!-- Node8 -->
<g id="Node000008" class="node">
<title>Node8</title>
<g id="a_Node000008"><a xlink:title=" ">
<polygon fill="#e0e0e0" stroke="#999999" points="599,-19 548,-19 548,0 599,0 599,-19"/>
<text text-anchor="middle" x="573.5" y="-7" font-family="Helvetica,sans-Serif" font-size="10.00">math.h</text>
</a>
</g>
</g>
<!-- Node7&#45;&gt;Node8 -->
<g id="edge7_Node000007_Node000008" class="edge">
<title>Node7&#45;&gt;Node8</title>
<g id="a_edge7_Node000007_Node000008"><a xlink:title=" ">
<path fill="none" stroke="#63b8ff" d="M573.5,-54.75C573.5,-47.8 573.5,-37.85 573.5,-29.13"/>
<polygon fill="#63b8ff" stroke="#63b8ff" points="577,-29.09 573.5,-19.09 570,-29.09 577,-29.09"/>
</a>
</g>
</g>
<!-- Node9&#45;&gt;Node6 -->
<g id="edge10_Node000009_Node000006" class="edge">
<title>Node9&#45;&gt;Node6</title>
<g id="a_edge10_Node000009_Node000006"><a xlink:title=" ">
<path fill="none" stroke="#63b8ff" d="M447.34,-181.44C462.56,-171.17 483.39,-157.11 500.27,-145.72"/>
<polygon fill="#63b8ff" stroke="#63b8ff" points="502.36,-148.54 508.69,-140.04 498.44,-142.74 502.36,-148.54"/>
</a>
</g>
</g>
<!-- Node9&#45;&gt;Node7 -->
<g id="edge11_Node000009_Node000007" class="edge">
<title>Node9&#45;&gt;Node7</title>
<g id="a_edge11_Node000009_Node000007"><a xlink:title=" ">
<path fill="none" stroke="#63b8ff" d="M428.55,-181.48C431.98,-162.82 440.59,-129.85 460.5,-110 476.49,-94.07 498.86,-83.68 519.49,-76.98"/>
<polygon fill="#63b8ff" stroke="#63b8ff" points="520.56,-80.31 529.12,-74.07 518.54,-73.61 520.56,-80.31"/>
</a>
</g>
</g>
<!-- Node10&#45;&gt;Node6 -->
<g id="edge13_Node000010_Node000006" class="edge">
<title>Node10&#45;&gt;Node6</title>
<g id="a_edge13_Node000010_Node000006"><a xlink:title=" ">
<path fill="none" stroke="#63b8ff" d="M599.69,-181.44C586.93,-171.36 569.54,-157.63 555.27,-146.35"/>
<polygon fill="#63b8ff" stroke="#63b8ff" points="557.3,-143.49 547.28,-140.04 552.96,-148.99 557.3,-143.49"/>
</a>
</g>
</g>
<!-- Node10&#45;&gt;Node7 -->
<g id="edge14_Node000010_Node000007" class="edge">
<title>Node10&#45;&gt;Node7</title>
<g id="a_edge14_Node000010_Node000007"><a xlink:title=" ">
<path fill="none" stroke="#63b8ff" d="M615.63,-181.21C613.08,-163.93 607.73,-134.14 598.5,-110 594.94,-100.7 589.7,-91 584.92,-83.03"/>
<polygon fill="#63b8ff" stroke="#63b8ff" points="587.75,-80.95 579.49,-74.32 581.81,-84.66 587.75,-80.95"/>
</a>
</g>
</g>
<!-- Node11&#45;&gt;Node6 -->
<g id="edge16_Node000011_Node000006" class="edge">
<title>Node11&#45;&gt;Node6</title>
<g id="a_edge16_Node000011_Node000006"><a xlink:title=" ">
<path fill="none" stroke="#63b8ff" d="M310.15,-181.44C354.69,-170.18 417.25,-154.37 464.17,-142.51"/>
<polygon fill="#63b8ff" stroke="#63b8ff" points="465.09,-145.89 473.93,-140.04 463.38,-139.1 465.09,-145.89"/>
</a>
</g>
</g>
<!-- Node11&#45;&gt;Node7 -->
<g id="edge17_Node000011_Node000007" class="edge">
<title>Node11&#45;&gt;Node7</title>
<g id="a_edge17_Node000011_Node000007"><a xlink:title=" ">
<path fill="none" stroke="#63b8ff" d="M281.95,-181.4C317.35,-163.52 381.09,-132.31 437.5,-110 469.6,-97.3 506.91,-85.28 534.33,-76.94"/>
<polygon fill="#63b8ff" stroke="#63b8ff" points="535.39,-80.28 543.95,-74.04 533.37,-73.58 535.39,-80.28"/>
</a>
</g>
</g>
<!-- Node12&#45;&gt;Node6 -->
<g id="edge20_Node000012_Node000006" class="edge">
<title>Node12&#45;&gt;Node6</title>
<g id="a_edge20_Node000012_Node000006"><a xlink:title=" ">
<path fill="none" stroke="#63b8ff" d="M736.09,-181.44C694.31,-170.23 635.71,-154.5 591.58,-142.66"/>
<polygon fill="#63b8ff" stroke="#63b8ff" points="592.4,-139.25 581.83,-140.04 590.59,-146.02 592.4,-139.25"/>
</a>
</g>
</g>
<!-- Node12&#45;&gt;Node7 -->
<g id="edge21_Node000012_Node000007" class="edge">
<title>Node12&#45;&gt;Node7</title>
<g id="a_edge21_Node000012_Node000007"><a xlink:title=" ">
<path fill="none" stroke="#63b8ff" d="M789.43,-181.21C789.84,-162.24 787.52,-128.92 768.5,-110 751.99,-93.57 699.23,-82.14 652.75,-74.98"/>
<polygon fill="#63b8ff" stroke="#63b8ff" points="653.04,-71.49 642.63,-73.48 652.01,-78.41 653.04,-71.49"/>
</a>
</g>
</g>
<!-- Node13 -->
<g id="Node000013" class="node">
<title>Node13</title>
<g id="a_Node000013"><a xlink:href="Matrix_8hpp.html" target="_top" xlink:title="Fixed&#45;size generic matrix template used across geometry types.">
<polygon fill="white" stroke="#666666" points="760,-134.5 647,-134.5 647,-115.5 760,-115.5 760,-134.5"/>
<text text-anchor="middle" x="703.5" y="-122.5" font-family="Helvetica,sans-Serif" font-size="10.00">../Matrix/Matrix.hpp</text>
</a>
</g>
</g>
<!-- Node12&#45;&gt;Node13 -->
<g id="edge19_Node000012_Node000013" class="edge">
<title>Node12&#45;&gt;Node13</title>
<g id="a_edge19_Node000012_Node000013"><a xlink:title=" ">
<path fill="none" stroke="#63b8ff" d="M771.3,-181.44C757.02,-169.76 736.76,-153.2 722.11,-141.22"/>
<polygon fill="#63b8ff" stroke="#63b8ff" points="724.18,-138.39 714.22,-134.77 719.75,-143.81 724.18,-138.39"/>
</a>
</g>
</g>
</g>
</svg>
