<?xml version="1.0" encoding="UTF-8" standalone="no"?>
<!DOCTYPE svg PUBLIC "-//W3C//DTD SVG 1.1//EN"
 "http://www.w3.org/Graphics/SVG/1.1/DTD/svg11.dtd">
<!-- Generated by graphviz version 2.43.0 (0)
 -->
<!-- Title: src/Objects/Plugins/CorePlugin/Renderers/Camera/Camera.cpp Pages: 1 -->
<svg width="1676pt" height="654pt"
 viewBox="0.00 0.00 1676.00 654.00" xmlns="http://www.w3.org/2000/svg" xmlns:xlink="http://www.w3.org/1999/xlink">
<g id="graph0" class="graph" transform="scale(1 1) rotate(0) translate(4 650)">
<title>src/Objects/Plugins/CorePlugin/Renderers/Camera/Camera.cpp</title>
<!-- Node1 -->
<g id="Node000001" class="node">
<title>Node1</title>
<g id="a_Node000001"><a xlink:title=" ">
<polygon fill="#999999" stroke="#666666" points="811.5,-646 686.5,-646 686.5,-605 811.5,-605 811.5,-646"/>
<text text-anchor="start" x="694.5" y="-634" font-family="Helvetica,sans-Serif" font-size="10.00">src/Objects/Plugins</text>
<text text-anchor="start" x="694.5" y="-623" font-family="Helvetica,sans-Serif" font-size="10.00">/CorePlugin/Renderers</text>
<text text-anchor="middle" x="749" y="-612" font-family="Helvetica,sans-Serif" font-size="10.00">/Camera/Camera.cpp</text>
</a>
</g>
</g>
<!-- Node2 -->
<g id="Node000002" class="node">
<title>Node2</title>
<g id="a_Node000002"><a xlink:href="Camera_8hpp.html" target="_top" xlink:title=" ">
<polygon fill="white" stroke="#666666" points="570,-327 494,-327 494,-308 570,-308 570,-327"/>
<text text-anchor="middle" x="532" y="-315" font-family="Helvetica,sans-Serif" font-size="10.00">Camera.hpp</text>
</a>
</g>
</g>
<!-- Node1&#45;&gt;Node2 -->
<g id="edge1_Node000001_Node000002" class="edge">
<title>Node1&#45;&gt;Node2</title>
<g id="a_edge1_Node000001_Node000002"><a xlink:title=" ">
<path fill="none" stroke="#63b8ff" d="M686.34,-616.48C651.28,-609.19 608.78,-595.31 579,-569 551.58,-544.78 544,-531.08 544,-494.5 544,-494.5 544,-494.5 544,-437.5 544,-401.81 538.59,-360.4 535.04,-337.04"/>
<polygon fill="#63b8ff" stroke="#63b8ff" points="538.49,-336.46 533.47,-327.13 531.57,-337.55 538.49,-336.46"/>
</a>
</g>
</g>
<!-- Node6 -->
<g id="Node000006" class="node">
<title>Node6</title>
<g id="a_Node000006"><a xlink:title=" ">
<polygon fill="#e0e0e0" stroke="#999999" points="913.5,-200.5 866.5,-200.5 866.5,-181.5 913.5,-181.5 913.5,-200.5"/>
<text text-anchor="middle" x="890" y="-188.5" font-family="Helvetica,sans-Serif" font-size="10.00">vector</text>
</a>
</g>
</g>
<!-- Node1&#45;&gt;Node6 -->
<g id="edge60_Node000001_Node000006" class="edge">
<title>Node1&#45;&gt;Node6</title>
<g id="a_edge60_Node000001_Node000006"><a xlink:title=" ">
<path fill="none" stroke="#63b8ff" d="M694.44,-604.89C649.45,-584.81 593,-548.79 593,-494.5 593,-494.5 593,-494.5 593,-437.5 593,-322.06 664.11,-299.86 764,-242 793.66,-224.82 830.36,-211 856.49,-202.28"/>
<polygon fill="#63b8ff" stroke="#63b8ff" points="857.87,-205.51 866.29,-199.08 855.7,-198.86 857.87,-205.51"/>
</a>
</g>
</g>
<!-- Node16 -->
<g id="Node000016" class="node">
<title>Node16</title>
<g id="a_Node000016"><a xlink:href="Scene_8hpp.html" target="_top" xlink:title=" ">
<polygon fill="white" stroke="#666666" points="875,-569 747,-569 747,-539 875,-539 875,-569"/>
<text text-anchor="start" x="755" y="-557" font-family="Helvetica,sans-Serif" font-size="10.00">../../../../../SceneSystem</text>
<text text-anchor="middle" x="811" y="-546" font-family="Helvetica,sans-Serif" font-size="10.00">/Scene/Scene.hpp</text>
</a>
</g>
</g>
<!-- Node1&#45;&gt;Node16 -->
<g id="edge24_Node000001_Node000016" class="edge">
<title>Node1&#45;&gt;Node16</title>
<g id="a_edge24_Node000001_Node000016"><a xlink:title=" ">
<path fill="none" stroke="#63b8ff" d="M766.6,-604.77C774.46,-595.95 783.75,-585.54 791.8,-576.53"/>
<polygon fill="#63b8ff" stroke="#63b8ff" points="794.43,-578.83 798.48,-569.04 789.21,-574.17 794.43,-578.83"/>
</a>
</g>
</g>
<!-- Node28 -->
<g id="Node000028" class="node">
<title>Node28</title>
<g id="a_Node000028"><a xlink:href="APrimitive_8hpp.html" target="_top" xlink:title=" ">
<polygon fill="white" stroke="#666666" points="737,-393 621,-393 621,-363 737,-363 737,-393"/>
<text text-anchor="start" x="629" y="-381" font-family="Helvetica,sans-Serif" font-size="10.00">Abstracts/APrimitive</text>
<text text-anchor="middle" x="679" y="-370" font-family="Helvetica,sans-Serif" font-size="10.00">/APrimitive.hpp</text>
</a>
</g>
</g>
<!-- Node1&#45;&gt;Node28 -->
<g id="edge59_Node000001_Node000028" class="edge">
<title>Node1&#45;&gt;Node28</title>
<g id="a_edge59_Node000001_Node000028"><a xlink:title=" ">
<path fill="none" stroke="#63b8ff" d="M743.39,-604.82C730.66,-560.18 699.63,-451.36 685.82,-402.93"/>
<polygon fill="#63b8ff" stroke="#63b8ff" points="689.11,-401.69 683,-393.03 682.38,-403.61 689.11,-401.69"/>
</a>
</g>
</g>
<!-- Node34 -->
<g id="Node000034" class="node">
<title>Node34</title>
<g id="a_Node000034"><a xlink:title=" ">
<polygon fill="#e0e0e0" stroke="#999999" points="940.5,-563.5 893.5,-563.5 893.5,-544.5 940.5,-544.5 940.5,-563.5"/>
<text text-anchor="middle" x="917" y="-551.5" font-family="Helvetica,sans-Serif" font-size="10.00">cmath</text>
</a>
</g>
</g>
<!-- Node1&#45;&gt;Node34 -->
<g id="edge61_Node000001_Node000034" class="edge">
<title>Node1&#45;&gt;Node34</title>
<g id="a_edge61_Node000001_Node000034"><a xlink:title=" ">
<path fill="none" stroke="#63b8ff" d="M796.85,-604.98C822.69,-594.4 855.12,-581.06 884,-569 885.16,-568.51 886.35,-568.02 887.55,-567.52"/>
<polygon fill="#63b8ff" stroke="#63b8ff" points="888.92,-570.74 896.77,-563.62 886.2,-564.29 888.92,-570.74"/>
</a>
</g>
</g>
<!-- Node35 -->
<g id="Node000035" class="node">
<title>Node35</title>
<g id="a_Node000035"><a xlink:href="Utils_8hpp.html" target="_top" xlink:title=" ">
<polygon fill="white" stroke="#666666" points="1375,-569 1291,-569 1291,-539 1375,-539 1375,-569"/>
<text text-anchor="start" x="1299" y="-557" font-family="Helvetica,sans-Serif" font-size="10.00">../../../../../Utils</text>
<text text-anchor="middle" x="1333" y="-546" font-family="Helvetica,sans-Serif" font-size="10.00">/Utils.hpp</text>
</a>
</g>
</g>
<!-- Node1&#45;&gt;Node35 -->
<g id="edge62_Node000001_Node000035" class="edge">
<title>Node1&#45;&gt;Node35</title>
<g id="a_edge62_Node000001_Node000035"><a xlink:title=" ">
<path fill="none" stroke="#63b8ff" d="M811.78,-617.03C927.79,-603.22 1173.68,-573.96 1281.03,-561.18"/>
<polygon fill="#63b8ff" stroke="#63b8ff" points="1281.47,-564.66 1290.98,-560 1280.64,-557.71 1281.47,-564.66"/>
</a>
</g>
</g>
<!-- Node3 -->
<g id="Node000003" class="node">
<title>Node3</title>
<g id="a_Node000003"><a xlink:href="ARenderer_8hpp.html" target="_top" xlink:title=" ">
<polygon fill="white" stroke="#666666" points="987,-272 793,-272 793,-242 987,-242 987,-272"/>
<text text-anchor="start" x="801" y="-260" font-family="Helvetica,sans-Serif" font-size="10.00">../../../../../Objects</text>
<text text-anchor="middle" x="890" y="-249" font-family="Helvetica,sans-Serif" font-size="10.00">/Abstracts/ARenderer/ARenderer.hpp</text>
</a>
</g>
</g>
<!-- Node2&#45;&gt;Node3 -->
<g id="edge2_Node000002_Node000003" class="edge">
<title>Node2&#45;&gt;Node3</title>
<g id="a_edge2_Node000002_Node000003"><a xlink:title=" ">
<path fill="none" stroke="#63b8ff" d="M570.31,-310.24C623.29,-301.58 720.67,-285.67 794.09,-273.67"/>
<polygon fill="#63b8ff" stroke="#63b8ff" points="794.98,-277.07 804.29,-272.01 793.85,-270.16 794.98,-277.07"/>
</a>
</g>
</g>
<!-- Node7 -->
<g id="Node000007" class="node">
<title>Node7</title>
<g id="a_Node000007"><a xlink:href="Point3D_8hpp.html" target="_top" xlink:title=" ">
<polygon fill="white" stroke="#666666" points="294,-140 174,-140 174,-110 294,-110 294,-140"/>
<text text-anchor="start" x="182" y="-128" font-family="Helvetica,sans-Serif" font-size="10.00">../../../../../Geometry</text>
<text text-anchor="middle" x="234" y="-117" font-family="Helvetica,sans-Serif" font-size="10.00">/Point3D/Point3D.hpp</text>
</a>
</g>
</g>
<!-- Node2&#45;&gt;Node7 -->
<g id="edge6_Node000002_Node000007" class="edge">
<title>Node2&#45;&gt;Node7</title>
<g id="a_edge6_Node000002_Node000007"><a xlink:title=" ">
<path fill="none" stroke="#63b8ff" d="M493.99,-315.53C427.74,-311.53 292.62,-292.59 234,-206 222.97,-189.71 224.15,-166.97 227.4,-149.89"/>
<polygon fill="#63b8ff" stroke="#63b8ff" points="230.82,-150.62 229.6,-140.1 223.99,-149.09 230.82,-150.62"/>
</a>
</g>
</g>
<!-- Node8 -->
<g id="Node000008" class="node">
<title>Node8</title>
<g id="a_Node000008"><a xlink:href="Vector3D_8hpp.html" target="_top" xlink:title=" ">
<polygon fill="white" stroke="#666666" points="544,-74 406,-74 406,-55 544,-55 544,-74"/>
<text text-anchor="middle" x="475" y="-62" font-family="Helvetica,sans-Serif" font-size="10.00">../Vector3D/Vector3D.hpp</text>
</a>
</g>
</g>
<!-- Node2&#45;&gt;Node8 -->
<g id="edge9_Node000002_Node000008" class="edge">
<title>Node2&#45;&gt;Node8</title>
<g id="a_edge9_Node000002_Node000008"><a xlink:title=" ">
<path fill="none" stroke="#63b8ff" d="M510.21,-307.87C495.36,-300.69 476.84,-288.91 468,-272 461.82,-260.18 466.72,-255.27 468,-242 469.56,-225.78 473.44,-222.22 475,-206 479.18,-162.64 477.53,-111.41 476.15,-84.38"/>
<polygon fill="#63b8ff" stroke="#63b8ff" points="479.62,-83.87 475.57,-74.08 472.63,-84.26 479.62,-83.87"/>
</a>
</g>
</g>
<!-- Node10 -->
<g id="Node000010" class="node">
<title>Node10</title>
<g id="a_Node000010"><a xlink:href="Rectangle3D_8hpp.html" target="_top" xlink:title=" ">
<polygon fill="white" stroke="#666666" points="168,-206 0,-206 0,-176 168,-176 168,-206"/>
<text text-anchor="start" x="8" y="-194" font-family="Helvetica,sans-Serif" font-size="10.00">../../../../../Geometry</text>
<text text-anchor="middle" x="84" y="-183" font-family="Helvetica,sans-Serif" font-size="10.00">/Rectangle3D/Rectangle3D.hpp</text>
</a>
</g>
</g>
<!-- Node2&#45;&gt;Node10 -->
<g id="edge10_Node000002_Node000010" class="edge">
<title>Node2&#45;&gt;Node10</title>
<g id="a_edge10_Node000002_Node000010"><a xlink:title=" ">
<path fill="none" stroke="#63b8ff" d="M493.93,-314.31C415.27,-309.36 237.51,-295.83 182,-272 150.92,-258.66 121.77,-232.42 103.47,-213.63"/>
<polygon fill="#63b8ff" stroke="#63b8ff" points="105.74,-210.93 96.32,-206.09 100.67,-215.75 105.74,-210.93"/>
</a>
</g>
</g>
<!-- Node11 -->
<g id="Node000011" class="node">
<title>Node11</title>
<g id="a_Node000011"><a xlink:href="Ray_8hpp.html" target="_top" xlink:title=" ">
<polygon fill="white" stroke="#666666" points="587,-272 477,-272 477,-242 587,-242 587,-272"/>
<text text-anchor="start" x="485" y="-260" font-family="Helvetica,sans-Serif" font-size="10.00">../../../../../Geometry</text>
<text text-anchor="middle" x="532" y="-249" font-family="Helvetica,sans-Serif" font-size="10.00">/Ray/Ray.hpp</text>
</a>
</g>
</g>
<!-- Node2&#45;&gt;Node11 -->
<g id="edge13_Node000002_Node000011" class="edge">
<title>Node2&#45;&gt;Node11</title>
<g id="a_edge13_Node000002_Node000011"><a xlink:title=" ">
<path fill="none" stroke="#63b8ff" d="M532,-307.87C532,-301.11 532,-291.35 532,-282.26"/>
<polygon fill="#63b8ff" stroke="#63b8ff" points="535.5,-282.11 532,-272.11 528.5,-282.11 535.5,-282.11"/>
</a>
</g>
</g>
<!-- Node12 -->
<g id="Node000012" class="node">
<title>Node12</title>
<g id="a_Node000012"><a xlink:href="HitRecord_8hpp.html" target="_top" xlink:title=" ">
<polygon fill="white" stroke="#666666" points="700,-206 560,-206 560,-176 700,-176 700,-206"/>
<text text-anchor="start" x="568" y="-194" font-family="Helvetica,sans-Serif" font-size="10.00">../../../../../Geometry</text>
<text text-anchor="middle" x="630" y="-183" font-family="Helvetica,sans-Serif" font-size="10.00">/HitRecord/HitRecord.hpp</text>
</a>
</g>
</g>
<!-- Node2&#45;&gt;Node12 -->
<g id="edge16_Node000002_Node000012" class="edge">
<title>Node2&#45;&gt;Node12</title>
<g id="a_edge16_Node000002_Node000012"><a xlink:title=" ">
<path fill="none" stroke="#63b8ff" d="M549.53,-307.88C563.69,-300.15 583.28,-287.65 596,-272 609.4,-255.51 618.35,-232.97 623.68,-216.01"/>
<polygon fill="#63b8ff" stroke="#63b8ff" points="627.08,-216.86 626.55,-206.28 620.36,-214.88 627.08,-216.86"/>
</a>
</g>
</g>
<!-- Node13 -->
<g id="Node000013" class="node">
<title>Node13</title>
<g id="a_Node000013"><a xlink:href="TransformMatrix_8hpp.html" target="_top" xlink:title=" ">
<polygon fill="white" stroke="#666666" points="466,-206 262,-206 262,-176 466,-176 466,-206"/>
<text text-anchor="start" x="270" y="-194" font-family="Helvetica,sans-Serif" font-size="10.00">../../../../../Geometry</text>
<text text-anchor="middle" x="364" y="-183" font-family="Helvetica,sans-Serif" font-size="10.00">/TransformMatrix/TransformMatrix.hpp</text>
</a>
</g>
</g>
<!-- Node2&#45;&gt;Node13 -->
<g id="edge19_Node000002_Node000013" class="edge">
<title>Node2&#45;&gt;Node13</title>
<g id="a_edge19_Node000002_Node000013"><a xlink:title=" ">
<path fill="none" stroke="#63b8ff" d="M506.12,-307.98C485.62,-300.48 456.89,-288.21 435,-272 413.14,-255.81 393.06,-231.96 379.87,-214.51"/>
<polygon fill="#63b8ff" stroke="#63b8ff" points="382.38,-212.02 373.63,-206.05 376.74,-216.17 382.38,-212.02"/>
</a>
</g>
</g>
<!-- Node15 -->
<g id="Node000015" class="node">
<title>Node15</title>
<g id="a_Node000015"><a xlink:title=" ">
<polygon fill="#e0e0e0" stroke="#999999" points="699,-266.5 643,-266.5 643,-247.5 699,-247.5 699,-266.5"/>
<text text-anchor="middle" x="671" y="-254.5" font-family="Helvetica,sans-Serif" font-size="10.00">optional</text>
</a>
</g>
</g>
<!-- Node2&#45;&gt;Node15 -->
<g id="edge23_Node000002_Node000015" class="edge">
<title>Node2&#45;&gt;Node15</title>
<g id="a_edge23_Node000002_Node000015"><a xlink:title=" ">
<path fill="none" stroke="#63b8ff" d="M552.21,-307.99C575.68,-298.12 614.61,-281.73 641.46,-270.43"/>
<polygon fill="#63b8ff" stroke="#63b8ff" points="642.9,-273.62 650.76,-266.52 640.19,-267.17 642.9,-273.62"/>
</a>
</g>
</g>
<!-- Node4 -->
<g id="Node000004" class="node">
<title>Node4</title>
<g id="a_Node000004"><a xlink:href="Color_8hpp.html" target="_top" xlink:title=" ">
<polygon fill="white" stroke="#666666" points="1133.5,-200.5 1018.5,-200.5 1018.5,-181.5 1133.5,-181.5 1133.5,-200.5"/>
<text text-anchor="middle" x="1076" y="-188.5" font-family="Helvetica,sans-Serif" font-size="10.00">../../../Utils/Color.hpp</text>
</a>
</g>
</g>
<!-- Node3&#45;&gt;Node4 -->
<g id="edge3_Node000003_Node000004" class="edge">
<title>Node3&#45;&gt;Node4</title>
<g id="a_edge3_Node000003_Node000004"><a xlink:title=" ">
<path fill="none" stroke="#63b8ff" d="M930.82,-241.95C964.01,-230.53 1010.32,-214.6 1041.64,-203.82"/>
<polygon fill="#63b8ff" stroke="#63b8ff" points="1042.93,-207.08 1051.25,-200.52 1040.65,-200.46 1042.93,-207.08"/>
</a>
</g>
</g>
<!-- Node3&#45;&gt;Node6 -->
<g id="edge5_Node000003_Node000006" class="edge">
<title>Node3&#45;&gt;Node6</title>
<g id="a_edge5_Node000003_Node000006"><a xlink:title=" ">
<path fill="none" stroke="#63b8ff" d="M890,-241.8C890,-232.7 890,-220.79 890,-210.9"/>
<polygon fill="#63b8ff" stroke="#63b8ff" points="893.5,-210.84 890,-200.84 886.5,-210.84 893.5,-210.84"/>
</a>
</g>
</g>
<!-- Node5 -->
<g id="Node000005" class="node">
<title>Node5</title>
<g id="a_Node000005"><a xlink:title=" ">
<polygon fill="#e0e0e0" stroke="#999999" points="1108,-134.5 1044,-134.5 1044,-115.5 1108,-115.5 1108,-134.5"/>
<text text-anchor="middle" x="1076" y="-122.5" font-family="Helvetica,sans-Serif" font-size="10.00">algorithm</text>
</a>
</g>
</g>
<!-- Node4&#45;&gt;Node5 -->
<g id="edge4_Node000004_Node000005" class="edge">
<title>Node4&#45;&gt;Node5</title>
<g id="a_edge4_Node000004_Node000005"><a xlink:title=" ">
<path fill="none" stroke="#63b8ff" d="M1076,-181.37C1076,-172.16 1076,-157.29 1076,-145.27"/>
<polygon fill="#63b8ff" stroke="#63b8ff" points="1079.5,-144.91 1076,-134.91 1072.5,-144.91 1079.5,-144.91"/>
</a>
</g>
</g>
<!-- Node7&#45;&gt;Node8 -->
<g id="edge7_Node000007_Node000008" class="edge">
<title>Node7&#45;&gt;Node8</title>
<g id="a_edge7_Node000007_Node000008"><a xlink:title=" ">
<path fill="none" stroke="#63b8ff" d="M291.73,-109.99C334.04,-99.72 390.68,-85.97 429.73,-76.49"/>
<polygon fill="#63b8ff" stroke="#63b8ff" points="430.87,-79.81 439.76,-74.05 429.22,-73.01 430.87,-79.81"/>
</a>
</g>
</g>
<!-- Node9 -->
<g id="Node000009" class="node">
<title>Node9</title>
<g id="a_Node000009"><a xlink:title=" ">
<polygon fill="#e0e0e0" stroke="#999999" points="500.5,-19 449.5,-19 449.5,0 500.5,0 500.5,-19"/>
<text text-anchor="middle" x="475" y="-7" font-family="Helvetica,sans-Serif" font-size="10.00">math.h</text>
</a>
</g>
</g>
<!-- Node8&#45;&gt;Node9 -->
<g id="edge8_Node000008_Node000009" class="edge">
<title>Node8&#45;&gt;Node9</title>
<g id="a_edge8_Node000008_Node000009"><a xlink:title=" ">
<path fill="none" stroke="#63b8ff" d="M475,-54.75C475,-47.8 475,-37.85 475,-29.13"/>
<polygon fill="#63b8ff" stroke="#63b8ff" points="478.5,-29.09 475,-19.09 471.5,-29.09 478.5,-29.09"/>
</a>
</g>
</g>
<!-- Node10&#45;&gt;Node7 -->
<g id="edge11_Node000010_Node000007" class="edge">
<title>Node10&#45;&gt;Node7</title>
<g id="a_edge11_Node000010_Node000007"><a xlink:title=" ">
<path fill="none" stroke="#63b8ff" d="M116.92,-175.95C138.9,-166.58 168.01,-154.16 191.71,-144.05"/>
<polygon fill="#63b8ff" stroke="#63b8ff" points="193.33,-147.16 201.16,-140.01 190.59,-140.72 193.33,-147.16"/>
</a>
</g>
</g>
<!-- Node10&#45;&gt;Node8 -->
<g id="edge12_Node000010_Node000008" class="edge">
<title>Node10&#45;&gt;Node8</title>
<g id="a_edge12_Node000010_Node000008"><a xlink:title=" ">
<path fill="none" stroke="#63b8ff" d="M93.66,-175.98C107.24,-157.48 133.84,-125.47 165,-110 204.32,-90.47 317.41,-77.87 395.53,-71.23"/>
<polygon fill="#63b8ff" stroke="#63b8ff" points="396.16,-74.69 405.84,-70.37 395.58,-67.72 396.16,-74.69"/>
</a>
</g>
</g>
<!-- Node11&#45;&gt;Node7 -->
<g id="edge14_Node000011_Node000007" class="edge">
<title>Node11&#45;&gt;Node7</title>
<g id="a_edge14_Node000011_Node000007"><a xlink:title=" ">
<path fill="none" stroke="#63b8ff" d="M476.81,-253.14C404.88,-248.26 284.51,-235.8 253,-206 237.98,-191.8 233.88,-168.08 233.14,-150.14"/>
<polygon fill="#63b8ff" stroke="#63b8ff" points="236.64,-150.08 233.04,-140.11 229.64,-150.15 236.64,-150.08"/>
</a>
</g>
</g>
<!-- Node11&#45;&gt;Node8 -->
<g id="edge15_Node000011_Node000008" class="edge">
<title>Node11&#45;&gt;Node8</title>
<g id="a_edge15_Node000011_Node000008"><a xlink:title=" ">
<path fill="none" stroke="#63b8ff" d="M531.86,-241.7C531.11,-214.83 527.23,-155.42 508,-110 503.7,-99.85 496.64,-89.88 490.15,-81.95"/>
<polygon fill="#63b8ff" stroke="#63b8ff" points="492.68,-79.52 483.49,-74.24 487.38,-84.1 492.68,-79.52"/>
</a>
</g>
</g>
<!-- Node12&#45;&gt;Node7 -->
<g id="edge17_Node000012_Node000007" class="edge">
<title>Node12&#45;&gt;Node7</title>
<g id="a_edge17_Node000012_Node000007"><a xlink:title=" ">
<path fill="none" stroke="#63b8ff" d="M559.99,-180.3C495.93,-171.19 398.3,-156.74 304.16,-140.16"/>
<polygon fill="#63b8ff" stroke="#63b8ff" points="304.64,-136.69 294.18,-138.39 303.41,-143.58 304.64,-136.69"/>
</a>
</g>
</g>
<!-- Node12&#45;&gt;Node8 -->
<g id="edge18_Node000012_Node000008" class="edge">
<title>Node12&#45;&gt;Node8</title>
<g id="a_edge18_Node000012_Node000008"><a xlink:title=" ">
<path fill="none" stroke="#63b8ff" d="M616.8,-175.8C600.88,-159.06 572.88,-130.88 546,-110 531.2,-98.51 513.33,-87.31 499.21,-79.03"/>
<polygon fill="#63b8ff" stroke="#63b8ff" points="500.96,-76 490.55,-74.03 497.46,-82.06 500.96,-76"/>
</a>
</g>
</g>
<!-- Node13&#45;&gt;Node7 -->
<g id="edge21_Node000013_Node000007" class="edge">
<title>Node13&#45;&gt;Node7</title>
<g id="a_edge21_Node000013_Node000007"><a xlink:title=" ">
<path fill="none" stroke="#63b8ff" d="M335.47,-175.95C316.67,-166.7 291.86,-154.49 271.48,-144.45"/>
<polygon fill="#63b8ff" stroke="#63b8ff" points="272.98,-141.29 262.46,-140.01 269.89,-147.57 272.98,-141.29"/>
</a>
</g>
</g>
<!-- Node13&#45;&gt;Node8 -->
<g id="edge22_Node000013_Node000008" class="edge">
<title>Node13&#45;&gt;Node8</title>
<g id="a_edge22_Node000013_Node000008"><a xlink:title=" ">
<path fill="none" stroke="#63b8ff" d="M389.14,-175.92C403.52,-166.98 421.2,-154.4 434,-140 449.13,-122.99 460.91,-99.43 467.89,-83.4"/>
<polygon fill="#63b8ff" stroke="#63b8ff" points="471.15,-84.66 471.76,-74.09 464.69,-81.97 471.15,-84.66"/>
</a>
</g>
</g>
<!-- Node14 -->
<g id="Node000014" class="node">
<title>Node14</title>
<g id="a_Node000014"><a xlink:href="Matrix_8hpp.html" target="_top" xlink:title="Fixed&#45;size generic matrix template used across geometry types.">
<polygon fill="white" stroke="#666666" points="425.5,-134.5 312.5,-134.5 312.5,-115.5 425.5,-115.5 425.5,-134.5"/>
<text text-anchor="middle" x="369" y="-122.5" font-family="Helvetica,sans-Serif" font-size="10.00">../Matrix/Matrix.hpp</text>
</a>
</g>
</g>
<!-- Node13&#45;&gt;Node14 -->
<g id="edge20_Node000013_Node000014" class="edge">
<title>Node13&#45;&gt;Node14</title>
<g id="a_edge20_Node000013_Node000014"><a xlink:title=" ">
<path fill="none" stroke="#63b8ff" d="M365.11,-175.8C365.82,-166.7 366.75,-154.79 367.52,-144.9"/>
<polygon fill="#63b8ff" stroke="#63b8ff" points="371.02,-145.09 368.31,-134.84 364.04,-144.54 371.02,-145.09"/>
</a>
</g>
</g>
<!-- Node16&#45;&gt;Node6 -->
<g id="edge57_Node000016_Node000006" class="edge">
<title>Node16&#45;&gt;Node6</title>
<g id="a_edge57_Node000016_Node000006"><a xlink:title=" ">
<path fill="none" stroke="#63b8ff" d="M801.02,-538.7C787.49,-517.89 765,-477.56 765,-439.5 765,-439.5 765,-439.5 765,-316.5 765,-282.33 762.25,-268.36 784,-242 802.36,-219.75 832.88,-206.81 856.48,-199.69"/>
<polygon fill="#63b8ff" stroke="#63b8ff" points="857.42,-203.06 866.11,-196.99 855.53,-196.32 857.42,-203.06"/>
</a>
</g>
</g>
<!-- Node17 -->
<g id="Node000017" class="node">
<title>Node17</title>
<g id="a_Node000017"><a xlink:href="Plugin_8hpp.html" target="_top" xlink:title=" ">
<polygon fill="white" stroke="#666666" points="1144.5,-448 1019.5,-448 1019.5,-429 1144.5,-429 1144.5,-448"/>
<text text-anchor="middle" x="1082" y="-436" font-family="Helvetica,sans-Serif" font-size="10.00">../../Objects/Plugin.hpp</text>
</a>
</g>
</g>
<!-- Node16&#45;&gt;Node17 -->
<g id="edge25_Node000016_Node000017" class="edge">
<title>Node16&#45;&gt;Node17</title>
<g id="a_edge25_Node000016_Node000017"><a xlink:title=" ">
<path fill="none" stroke="#63b8ff" d="M844.5,-538.97C897.74,-516.67 1000.84,-473.49 1051.88,-452.12"/>
<polygon fill="#63b8ff" stroke="#63b8ff" points="1053.49,-455.24 1061.36,-448.14 1050.78,-448.78 1053.49,-455.24"/>
</a>
</g>
</g>
<!-- Node19 -->
<g id="Node000019" class="node">
<title>Node19</title>
<g id="a_Node000019"><a xlink:title=" ">
<polygon fill="#e0e0e0" stroke="#999999" points="1226,-200.5 1168,-200.5 1168,-181.5 1226,-181.5 1226,-200.5"/>
<text text-anchor="middle" x="1197" y="-188.5" font-family="Helvetica,sans-Serif" font-size="10.00">memory</text>
</a>
</g>
</g>
<!-- Node16&#45;&gt;Node19 -->
<g id="edge58_Node000016_Node000019" class="edge">
<title>Node16&#45;&gt;Node19</title>
<g id="a_edge58_Node000016_Node000019"><a xlink:title=" ">
<path fill="none" stroke="#63b8ff" d="M875.02,-540.23C878.05,-539.78 881.05,-539.36 884,-539 1023.16,-521.76 1384.3,-556.3 1514,-503 1553.46,-486.78 1586,-482.17 1586,-439.5 1586,-439.5 1586,-439.5 1586,-316.5 1586,-243.64 1335.31,-207.52 1236.42,-196.12"/>
<polygon fill="#63b8ff" stroke="#63b8ff" points="1236.57,-192.61 1226.24,-194.97 1235.78,-199.57 1236.57,-192.61"/>
</a>
</g>
</g>
<!-- Node31 -->
<g id="Node000031" class="node">
<title>Node31</title>
<g id="a_Node000031"><a xlink:href="PluginManager_8hpp.html" target="_top" xlink:title="Plugin manager for loading and managing plugins.">
<polygon fill="white" stroke="#666666" points="1505,-503 1311,-503 1311,-484 1505,-484 1505,-503"/>
<text text-anchor="middle" x="1408" y="-491" font-family="Helvetica,sans-Serif" font-size="10.00">../PluginManager/PluginManager.hpp</text>
</a>
</g>
</g>
<!-- Node16&#45;&gt;Node31 -->
<g id="edge52_Node000016_Node000031" class="edge">
<title>Node16&#45;&gt;Node31</title>
<g id="a_edge52_Node000016_Node000031"><a xlink:title=" ">
<path fill="none" stroke="#63b8ff" d="M875.03,-540.33C878.06,-539.85 881.06,-539.41 884,-539 1027.47,-519.21 1194.34,-506.86 1300.52,-500.32"/>
<polygon fill="#63b8ff" stroke="#63b8ff" points="1300.83,-503.81 1310.6,-499.71 1300.41,-496.83 1300.83,-503.81"/>
</a>
</g>
</g>
<!-- Node17&#45;&gt;Node3 -->
<g id="edge49_Node000017_Node000003" class="edge">
<title>Node17&#45;&gt;Node3</title>
<g id="a_edge49_Node000017_Node000003"><a xlink:title=" ">
<path fill="none" stroke="#63b8ff" d="M1079.2,-428.86C1074.08,-414.06 1062.04,-383.49 1044,-363 1011.06,-325.6 962.01,-295.19 928.16,-276.91"/>
<polygon fill="#63b8ff" stroke="#63b8ff" points="929.52,-273.66 919.04,-272.07 926.24,-279.85 929.52,-273.66"/>
</a>
</g>
</g>
<!-- Node18 -->
<g id="Node000018" class="node">
<title>Node18</title>
<g id="a_Node000018"><a xlink:title=" ">
<polygon fill="#e0e0e0" stroke="#999999" points="1274.5,-387.5 1209.5,-387.5 1209.5,-368.5 1274.5,-368.5 1274.5,-387.5"/>
<text text-anchor="middle" x="1242" y="-375.5" font-family="Helvetica,sans-Serif" font-size="10.00">functional</text>
</a>
</g>
</g>
<!-- Node17&#45;&gt;Node18 -->
<g id="edge26_Node000017_Node000018" class="edge">
<title>Node17&#45;&gt;Node18</title>
<g id="a_edge26_Node000017_Node000018"><a xlink:title=" ">
<path fill="none" stroke="#63b8ff" d="M1105.27,-428.99C1132.64,-418.99 1178.27,-402.3 1209.22,-390.99"/>
<polygon fill="#63b8ff" stroke="#63b8ff" points="1210.52,-394.24 1218.71,-387.52 1208.11,-387.66 1210.52,-394.24"/>
</a>
</g>
</g>
<!-- Node17&#45;&gt;Node19 -->
<g id="edge27_Node000017_Node000019" class="edge">
<title>Node17&#45;&gt;Node19</title>
<g id="a_edge27_Node000017_Node000019"><a xlink:title=" ">
<path fill="none" stroke="#63b8ff" d="M1092.89,-428.84C1102.93,-420.46 1117.77,-406.99 1128,-393 1163.42,-344.54 1171.06,-329.58 1188,-272 1193.97,-251.72 1196.03,-227.47 1196.71,-211.03"/>
<polygon fill="#63b8ff" stroke="#63b8ff" points="1200.22,-210.69 1197,-200.6 1193.22,-210.5 1200.22,-210.69"/>
</a>
</g>
</g>
<!-- Node20 -->
<g id="Node000020" class="node">
<title>Node20</title>
<g id="a_Node000020"><a xlink:title=" ">
<polygon fill="#e0e0e0" stroke="#999999" points="978.5,-387.5 927.5,-387.5 927.5,-368.5 978.5,-368.5 978.5,-387.5"/>
<text text-anchor="middle" x="953" y="-375.5" font-family="Helvetica,sans-Serif" font-size="10.00">variant</text>
</a>
</g>
</g>
<!-- Node17&#45;&gt;Node20 -->
<g id="edge28_Node000017_Node000020" class="edge">
<title>Node17&#45;&gt;Node20</title>
<g id="a_edge28_Node000017_Node000020"><a xlink:title=" ">
<path fill="none" stroke="#63b8ff" d="M1063.24,-428.99C1041.65,-419.2 1005.97,-403.02 981.07,-391.73"/>
<polygon fill="#63b8ff" stroke="#63b8ff" points="982.33,-388.46 971.78,-387.52 979.44,-394.83 982.33,-388.46"/>
</a>
</g>
</g>
<!-- Node21 -->
<g id="Node000021" class="node">
<title>Node21</title>
<g id="a_Node000021"><a xlink:title=" ">
<polygon fill="#e0e0e0" stroke="#999999" points="1035,-387.5 997,-387.5 997,-368.5 1035,-368.5 1035,-387.5"/>
<text text-anchor="middle" x="1016" y="-375.5" font-family="Helvetica,sans-Serif" font-size="10.00">map</text>
</a>
</g>
</g>
<!-- Node17&#45;&gt;Node21 -->
<g id="edge29_Node000017_Node000021" class="edge">
<title>Node17&#45;&gt;Node21</title>
<g id="a_edge29_Node000017_Node000021"><a xlink:title=" ">
<path fill="none" stroke="#63b8ff" d="M1072.26,-428.87C1062.03,-419.8 1045.71,-405.34 1033.28,-394.32"/>
<polygon fill="#63b8ff" stroke="#63b8ff" points="1035.58,-391.68 1025.78,-387.67 1030.94,-396.92 1035.58,-391.68"/>
</a>
</g>
</g>
<!-- Node22 -->
<g id="Node000022" class="node">
<title>Node22</title>
<g id="a_Node000022"><a xlink:href="RaytracerException_8hpp.html" target="_top" xlink:title=" ">
<polygon fill="white" stroke="#666666" points="1469.5,-393 1292.5,-393 1292.5,-363 1469.5,-363 1469.5,-393"/>
<text text-anchor="start" x="1300.5" y="-381" font-family="Helvetica,sans-Serif" font-size="10.00">../Exceptions/RaytracerException</text>
<text text-anchor="middle" x="1381" y="-370" font-family="Helvetica,sans-Serif" font-size="10.00">/RaytracerException.hpp</text>
</a>
</g>
</g>
<!-- Node17&#45;&gt;Node22 -->
<g id="edge30_Node000017_Node000022" class="edge">
<title>Node17&#45;&gt;Node22</title>
<g id="a_edge30_Node000017_Node000022"><a xlink:title=" ">
<path fill="none" stroke="#63b8ff" d="M1125.48,-428.99C1170.93,-420.1 1243.33,-405.94 1299.48,-394.95"/>
<polygon fill="#63b8ff" stroke="#63b8ff" points="1300.26,-398.36 1309.41,-393.01 1298.92,-391.49 1300.26,-398.36"/>
</a>
</g>
</g>
<!-- Node27 -->
<g id="Node000027" class="node">
<title>Node27</title>
<g id="a_Node000027"><a xlink:href="AInterface_8hpp.html" target="_top" xlink:title=" ">
<polygon fill="white" stroke="#666666" points="909,-393 793,-393 793,-363 909,-363 909,-393"/>
<text text-anchor="start" x="801" y="-381" font-family="Helvetica,sans-Serif" font-size="10.00">Abstracts/AInterface</text>
<text text-anchor="middle" x="851" y="-370" font-family="Helvetica,sans-Serif" font-size="10.00">/AInterface.hpp</text>
</a>
</g>
</g>
<!-- Node17&#45;&gt;Node27 -->
<g id="edge35_Node000017_Node000027" class="edge">
<title>Node17&#45;&gt;Node27</title>
<g id="a_edge35_Node000017_Node000027"><a xlink:title=" ">
<path fill="none" stroke="#63b8ff" d="M1048.41,-428.99C1013.93,-420.26 959.39,-406.45 916.37,-395.55"/>
<polygon fill="#63b8ff" stroke="#63b8ff" points="917.09,-392.13 906.54,-393.06 915.37,-398.91 917.09,-392.13"/>
</a>
</g>
</g>
<!-- Node17&#45;&gt;Node28 -->
<g id="edge37_Node000017_Node000028" class="edge">
<title>Node17&#45;&gt;Node28</title>
<g id="a_edge37_Node000017_Node000028"><a xlink:title=" ">
<path fill="none" stroke="#63b8ff" d="M1023.4,-428.99C950.07,-418.35 824.71,-400.15 747.16,-388.89"/>
<polygon fill="#63b8ff" stroke="#63b8ff" points="747.42,-385.39 737.02,-387.42 746.41,-392.32 747.42,-385.39"/>
</a>
</g>
</g>
<!-- Node29 -->
<g id="Node000029" class="node">
<title>Node29</title>
<g id="a_Node000029"><a xlink:href="IMaterial_8hpp.html" target="_top" xlink:title=" ">
<polygon fill="white" stroke="#666666" points="1109,-327 1019,-327 1019,-308 1109,-308 1109,-327"/>
<text text-anchor="middle" x="1064" y="-315" font-family="Helvetica,sans-Serif" font-size="10.00">../IMaterial.hpp</text>
</a>
</g>
</g>
<!-- Node17&#45;&gt;Node29 -->
<g id="edge51_Node000017_Node000029" class="edge">
<title>Node17&#45;&gt;Node29</title>
<g id="a_edge51_Node000017_Node000029"><a xlink:title=" ">
<path fill="none" stroke="#63b8ff" d="M1082.02,-428.71C1081.93,-414.7 1081.17,-386.49 1077,-363 1075.45,-354.28 1072.84,-344.84 1070.35,-336.91"/>
<polygon fill="#63b8ff" stroke="#63b8ff" points="1073.62,-335.63 1067.16,-327.23 1066.97,-337.82 1073.62,-335.63"/>
</a>
</g>
</g>
<!-- Node30 -->
<g id="Node000030" class="node">
<title>Node30</title>
<g id="a_Node000030"><a xlink:href="ILight_8hpp.html" target="_top" xlink:title=" ">
<polygon fill="white" stroke="#666666" points="1108.5,-266.5 1043.5,-266.5 1043.5,-247.5 1108.5,-247.5 1108.5,-266.5"/>
<text text-anchor="middle" x="1076" y="-254.5" font-family="Helvetica,sans-Serif" font-size="10.00">ILight.hpp</text>
</a>
</g>
</g>
<!-- Node17&#45;&gt;Node30 -->
<g id="edge50_Node000017_Node000030" class="edge">
<title>Node17&#45;&gt;Node30</title>
<g id="a_edge50_Node000017_Node000030"><a xlink:title=" ">
<path fill="none" stroke="#63b8ff" d="M1088.07,-428.87C1102.08,-407.86 1134.21,-352.51 1118,-308 1113.2,-294.82 1103.22,-282.7 1094.2,-273.69"/>
<polygon fill="#63b8ff" stroke="#63b8ff" points="1096.36,-270.92 1086.67,-266.63 1091.57,-276.02 1096.36,-270.92"/>
</a>
</g>
</g>
<!-- Node23 -->
<g id="Node000023" class="node">
<title>Node23</title>
<g id="a_Node000023"><a xlink:title=" ">
<polygon fill="#e0e0e0" stroke="#999999" points="1417.5,-327 1352.5,-327 1352.5,-308 1417.5,-308 1417.5,-327"/>
<text text-anchor="middle" x="1385" y="-315" font-family="Helvetica,sans-Serif" font-size="10.00">exception</text>
</a>
</g>
</g>
<!-- Node22&#45;&gt;Node23 -->
<g id="edge31_Node000022_Node000023" class="edge">
<title>Node22&#45;&gt;Node23</title>
<g id="a_edge31_Node000022_Node000023"><a xlink:title=" ">
<path fill="none" stroke="#63b8ff" d="M1381.97,-362.84C1382.49,-355.21 1383.14,-345.7 1383.7,-337.45"/>
<polygon fill="#63b8ff" stroke="#63b8ff" points="1387.21,-337.48 1384.4,-327.27 1380.23,-337 1387.21,-337.48"/>
</a>
</g>
</g>
<!-- Node24 -->
<g id="Node000024" class="node">
<title>Node24</title>
<g id="a_Node000024"><a xlink:title=" ">
<polygon fill="#e0e0e0" stroke="#999999" points="1558,-327 1498,-327 1498,-308 1558,-308 1558,-327"/>
<text text-anchor="middle" x="1528" y="-315" font-family="Helvetica,sans-Serif" font-size="10.00">iostream</text>
</a>
</g>
</g>
<!-- Node22&#45;&gt;Node24 -->
<g id="edge32_Node000022_Node000024" class="edge">
<title>Node22&#45;&gt;Node24</title>
<g id="a_edge32_Node000022_Node000024"><a xlink:title=" ">
<path fill="none" stroke="#63b8ff" d="M1416.21,-362.99C1440.74,-353.23 1473.15,-340.33 1496.76,-330.93"/>
<polygon fill="#63b8ff" stroke="#63b8ff" points="1498.29,-334.09 1506.29,-327.14 1495.71,-327.58 1498.29,-334.09"/>
</a>
</g>
</g>
<!-- Node25 -->
<g id="Node000025" class="node">
<title>Node25</title>
<g id="a_Node000025"><a xlink:title=" ">
<polygon fill="#e0e0e0" stroke="#999999" points="1480,-327 1436,-327 1436,-308 1480,-308 1480,-327"/>
<text text-anchor="middle" x="1458" y="-315" font-family="Helvetica,sans-Serif" font-size="10.00">string</text>
</a>
</g>
</g>
<!-- Node22&#45;&gt;Node25 -->
<g id="edge33_Node000022_Node000025" class="edge">
<title>Node22&#45;&gt;Node25</title>
<g id="a_edge33_Node000022_Node000025"><a xlink:title=" ">
<path fill="none" stroke="#63b8ff" d="M1399.64,-362.84C1411.39,-353.91 1426.53,-342.41 1438.45,-333.35"/>
<polygon fill="#63b8ff" stroke="#63b8ff" points="1440.62,-336.1 1446.46,-327.27 1436.38,-330.53 1440.62,-336.1"/>
</a>
</g>
</g>
<!-- Node26 -->
<g id="Node000026" class="node">
<title>Node26</title>
<g id="a_Node000026"><a xlink:title=" ">
<polygon fill="#e0e0e0" stroke="#999999" points="1334.5,-327 1241.5,-327 1241.5,-308 1334.5,-308 1334.5,-327"/>
<text text-anchor="middle" x="1288" y="-315" font-family="Helvetica,sans-Serif" font-size="10.00">source_location</text>
</a>
</g>
</g>
<!-- Node22&#45;&gt;Node26 -->
<g id="edge34_Node000022_Node000026" class="edge">
<title>Node22&#45;&gt;Node26</title>
<g id="a_edge34_Node000022_Node000026"><a xlink:title=" ">
<path fill="none" stroke="#63b8ff" d="M1358.49,-362.84C1343.94,-353.68 1325.07,-341.82 1310.51,-332.66"/>
<polygon fill="#63b8ff" stroke="#63b8ff" points="1311.99,-329.46 1301.66,-327.09 1308.26,-335.38 1311.99,-329.46"/>
</a>
</g>
</g>
<!-- Node27&#45;&gt;Node3 -->
<g id="edge36_Node000027_Node000003" class="edge">
<title>Node27&#45;&gt;Node3</title>
<g id="a_edge36_Node000027_Node000003"><a xlink:title=" ">
<path fill="none" stroke="#63b8ff" d="M855.63,-362.88C862.19,-342.84 874.3,-305.89 882.25,-281.63"/>
<polygon fill="#63b8ff" stroke="#63b8ff" points="885.59,-282.69 885.38,-272.1 878.94,-280.51 885.59,-282.69"/>
</a>
</g>
</g>
<!-- Node28&#45;&gt;Node11 -->
<g id="edge48_Node000028_Node000011" class="edge">
<title>Node28&#45;&gt;Node11</title>
<g id="a_edge48_Node000028_Node000011"><a xlink:title=" ">
<path fill="none" stroke="#63b8ff" d="M661.56,-362.88C635.7,-341.95 587.04,-302.56 557.28,-278.46"/>
<polygon fill="#63b8ff" stroke="#63b8ff" points="559.39,-275.67 549.42,-272.1 554.99,-281.11 559.39,-275.67"/>
</a>
</g>
</g>
<!-- Node28&#45;&gt;Node15 -->
<g id="edge47_Node000028_Node000015" class="edge">
<title>Node28&#45;&gt;Node15</title>
<g id="a_edge47_Node000028_Node000015"><a xlink:title=" ">
<path fill="none" stroke="#63b8ff" d="M678.05,-362.88C676.61,-341.51 673.88,-300.89 672.27,-276.96"/>
<polygon fill="#63b8ff" stroke="#63b8ff" points="675.75,-276.45 671.59,-266.71 668.76,-276.92 675.75,-276.45"/>
</a>
</g>
</g>
<!-- Node28&#45;&gt;Node19 -->
<g id="edge46_Node000028_Node000019" class="edge">
<title>Node28&#45;&gt;Node19</title>
<g id="a_edge46_Node000028_Node000019"><a xlink:title=" ">
<path fill="none" stroke="#63b8ff" d="M737.01,-369C752.28,-366.97 768.75,-364.84 784,-363 858.12,-354.07 1055.33,-367.56 1118,-327 1160.45,-299.53 1182.94,-240.59 1192.05,-210.5"/>
<polygon fill="#63b8ff" stroke="#63b8ff" points="1195.53,-211.09 1194.9,-200.51 1188.79,-209.17 1195.53,-211.09"/>
</a>
</g>
</g>
<!-- Node28&#45;&gt;Node29 -->
<g id="edge38_Node000028_Node000029" class="edge">
<title>Node28&#45;&gt;Node29</title>
<g id="a_edge38_Node000028_Node000029"><a xlink:title=" ">
<path fill="none" stroke="#63b8ff" d="M737.06,-368.18C810.54,-357.01 936.22,-337.92 1008.47,-326.94"/>
<polygon fill="#63b8ff" stroke="#63b8ff" points="1009.37,-330.34 1018.74,-325.38 1008.32,-323.42 1009.37,-330.34"/>
</a>
</g>
</g>
<!-- Node29&#45;&gt;Node4 -->
<g id="edge39_Node000029_Node000004" class="edge">
<title>Node29&#45;&gt;Node4</title>
<g id="a_edge39_Node000029_Node000004"><a xlink:title=" ">
<path fill="none" stroke="#63b8ff" d="M1080.58,-307.87C1093.17,-300.3 1109.54,-288.01 1117,-272 1122.63,-259.92 1121.49,-254.55 1117,-242 1112.32,-228.92 1102.59,-216.8 1093.78,-207.77"/>
<polygon fill="#63b8ff" stroke="#63b8ff" points="1096.05,-205.1 1086.42,-200.69 1091.19,-210.14 1096.05,-205.1"/>
</a>
</g>
</g>
<!-- Node29&#45;&gt;Node6 -->
<g id="edge45_Node000029_Node000006" class="edge">
<title>Node29&#45;&gt;Node6</title>
<g id="a_edge45_Node000029_Node000006"><a xlink:title=" ">
<path fill="none" stroke="#63b8ff" d="M1057.76,-307.66C1046.74,-292.57 1022.49,-261.55 996,-242 973.71,-225.55 945.15,-212.45 923.29,-203.8"/>
<polygon fill="#63b8ff" stroke="#63b8ff" points="924.36,-200.46 913.77,-200.14 921.84,-206.99 924.36,-200.46"/>
</a>
</g>
</g>
<!-- Node29&#45;&gt;Node30 -->
<g id="edge40_Node000029_Node000030" class="edge">
<title>Node29&#45;&gt;Node30</title>
<g id="a_edge40_Node000029_Node000030"><a xlink:title=" ">
<path fill="none" stroke="#63b8ff" d="M1065.77,-307.87C1067.45,-299.66 1070.04,-287.04 1072.19,-276.55"/>
<polygon fill="#63b8ff" stroke="#63b8ff" points="1075.64,-277.17 1074.22,-266.67 1068.78,-275.76 1075.64,-277.17"/>
</a>
</g>
</g>
<!-- Node30&#45;&gt;Node4 -->
<g id="edge42_Node000030_Node000004" class="edge">
<title>Node30&#45;&gt;Node4</title>
<g id="a_edge42_Node000030_Node000004"><a xlink:title=" ">
<path fill="none" stroke="#63b8ff" d="M1076,-247.37C1076,-238.16 1076,-223.29 1076,-211.27"/>
<polygon fill="#63b8ff" stroke="#63b8ff" points="1079.5,-210.91 1076,-200.91 1072.5,-210.91 1079.5,-210.91"/>
</a>
</g>
</g>
<!-- Node30&#45;&gt;Node6 -->
<g id="edge43_Node000030_Node000006" class="edge">
<title>Node30&#45;&gt;Node6</title>
<g id="a_edge43_Node000030_Node000006"><a xlink:title=" ">
<path fill="none" stroke="#63b8ff" d="M1050.92,-247.37C1017.92,-236.02 959.86,-216.04 923.24,-203.44"/>
<polygon fill="#63b8ff" stroke="#63b8ff" points="924.11,-200.04 913.52,-200.09 921.83,-206.65 924.11,-200.04"/>
</a>
</g>
</g>
<!-- Node30&#45;&gt;Node12 -->
<g id="edge41_Node000030_Node000012" class="edge">
<title>Node30&#45;&gt;Node12</title>
<g id="a_edge41_Node000030_Node000012"><a xlink:title=" ">
<path fill="none" stroke="#63b8ff" d="M1043.35,-250C1028.87,-247.41 1011.6,-244.43 996,-242 897.96,-226.73 784.73,-211.65 710.49,-202.11"/>
<polygon fill="#63b8ff" stroke="#63b8ff" points="710.64,-198.61 700.28,-200.81 709.75,-205.55 710.64,-198.61"/>
</a>
</g>
</g>
<!-- Node30&#45;&gt;Node19 -->
<g id="edge44_Node000030_Node000019" class="edge">
<title>Node30&#45;&gt;Node19</title>
<g id="a_edge44_Node000030_Node000019"><a xlink:title=" ">
<path fill="none" stroke="#63b8ff" d="M1092.32,-247.37C1112.71,-236.59 1147.81,-218.02 1171.7,-205.38"/>
<polygon fill="#63b8ff" stroke="#63b8ff" points="1173.35,-208.47 1180.55,-200.7 1170.08,-202.28 1173.35,-208.47"/>
</a>
</g>
</g>
<!-- Node31&#45;&gt;Node17 -->
<g id="edge56_Node000031_Node000017" class="edge">
<title>Node31&#45;&gt;Node17</title>
<g id="a_edge56_Node000031_Node000017"><a xlink:title=" ">
<path fill="none" stroke="#63b8ff" d="M1355.62,-483.98C1298.08,-474.63 1205.71,-459.61 1144.45,-449.65"/>
<polygon fill="#63b8ff" stroke="#63b8ff" points="1144.95,-446.19 1134.52,-448.04 1143.83,-453.1 1144.95,-446.19"/>
</a>
</g>
</g>
<!-- Node31&#45;&gt;Node24 -->
<g id="edge55_Node000031_Node000024" class="edge">
<title>Node31&#45;&gt;Node24</title>
<g id="a_edge55_Node000031_Node000024"><a xlink:title=" ">
<path fill="none" stroke="#63b8ff" d="M1408.76,-483.9C1410.28,-470.89 1414.7,-445.95 1427,-429 1443.51,-406.25 1459.36,-413.11 1479,-393 1495.84,-375.76 1510.32,-351.93 1519.08,-335.91"/>
<polygon fill="#63b8ff" stroke="#63b8ff" points="1522.18,-337.54 1523.77,-327.07 1515.99,-334.26 1522.18,-337.54"/>
</a>
</g>
</g>
<!-- Node32 -->
<g id="Node000032" class="node">
<title>Node32</title>
<g id="a_Node000032"><a xlink:title=" ">
<polygon fill="#e0e0e0" stroke="#999999" points="1486,-448 1436,-448 1436,-429 1486,-429 1486,-448"/>
<text text-anchor="middle" x="1461" y="-436" font-family="Helvetica,sans-Serif" font-size="10.00">dlfcn.h</text>
</a>
</g>
</g>
<!-- Node31&#45;&gt;Node32 -->
<g id="edge53_Node000031_Node000032" class="edge">
<title>Node31&#45;&gt;Node32</title>
<g id="a_edge53_Node000031_Node000032"><a xlink:title=" ">
<path fill="none" stroke="#63b8ff" d="M1416.75,-483.75C1424.47,-476.03 1435.9,-464.6 1445.22,-455.28"/>
<polygon fill="#63b8ff" stroke="#63b8ff" points="1447.81,-457.64 1452.41,-448.09 1442.86,-452.69 1447.81,-457.64"/>
</a>
</g>
</g>
<!-- Node33 -->
<g id="Node000033" class="node">
<title>Node33</title>
<g id="a_Node000033"><a xlink:title=" ">
<polygon fill="#e0e0e0" stroke="#999999" points="1558,-448 1504,-448 1504,-429 1558,-429 1558,-448"/>
<text text-anchor="middle" x="1531" y="-436" font-family="Helvetica,sans-Serif" font-size="10.00">dirent.h</text>
</a>
</g>
</g>
<!-- Node31&#45;&gt;Node33 -->
<g id="edge54_Node000031_Node000033" class="edge">
<title>Node31&#45;&gt;Node33</title>
<g id="a_edge54_Node000031_Node000033"><a xlink:title=" ">
<path fill="none" stroke="#63b8ff" d="M1427.76,-483.98C1447.73,-475.38 1478.8,-461.99 1501.65,-452.15"/>
<polygon fill="#63b8ff" stroke="#63b8ff" points="1503.08,-455.34 1510.88,-448.17 1500.31,-448.91 1503.08,-455.34"/>
</a>
</g>
</g>
<!-- Node36 -->
<g id="Node000036" class="node">
<title>Node36</title>
<g id="a_Node000036"><a xlink:title=" ">
<polygon fill="#e0e0e0" stroke="#999999" points="1668,-503 1614,-503 1614,-484 1668,-484 1668,-503"/>
<text text-anchor="middle" x="1641" y="-491" font-family="Helvetica,sans-Serif" font-size="10.00">random</text>
</a>
</g>
</g>
<!-- Node35&#45;&gt;Node36 -->
<g id="edge63_Node000035_Node000036" class="edge">
<title>Node35&#45;&gt;Node36</title>
<g id="a_edge63_Node000035_Node000036"><a xlink:title=" ">
<path fill="none" stroke="#63b8ff" d="M1375.13,-545.37C1427.79,-535.77 1520.65,-518.65 1600,-503 1601.24,-502.75 1602.51,-502.5 1603.78,-502.25"/>
<polygon fill="#63b8ff" stroke="#63b8ff" points="1604.56,-505.66 1613.67,-500.24 1603.17,-498.8 1604.56,-505.66"/>
</a>
</g>
</g>
</g>
</svg>
