<?xml version="1.0" encoding="UTF-8" standalone="no"?>
<!DOCTYPE svg PUBLIC "-//W3C//DTD SVG 1.1//EN"
 "http://www.w3.org/Graphics/SVG/1.1/DTD/svg11.dtd">
<!-- Generated by graphviz version 2.43.0 (0)
 -->
<!-- Title: src/Objects/Plugins/CorePlugin/Renderers/Camera/Camera.hpp Pages: 1 -->
<!--zoomable 291 -->

<svg id="main" version="1.1" xmlns="http://www.w3.org/2000/svg" xmlns:xlink="http://www.w3.org/1999/xlink" xml:space="preserve" onload="init(evt)">
<style type="text/css"><![CDATA[
.node, .edge {opacity: 0.7;}
.node.selected, .edge.selected {opacity: 1;}
.edge:hover path { stroke: red; }
.edge:hover polygon { stroke: red; fill: red; }
]]></style>

<defs>
  <circle id="rim" cx="0" cy="0" r="7"/>
  <circle id="rim2" cx="0" cy="0" r="3.5"/>
  <g id="zoomPlus">
    <use xlink:href="#rim" fill="#404040"><set attributeName="fill" to="#808080" begin="zoomplus.mouseover" end="zoomplus.mouseout"/></use>
    <path d="M-4,0h8M0,-4v8" fill="none" stroke="white" stroke-width="1.5" pointer-events="none"/>
  </g>
  <g id="zoomMin">
    <use xlink:href="#rim" fill="#404040"><set attributeName="fill" to="#808080" begin="zoomminus.mouseover" end="zoomminus.mouseout"/></use>
    <path d="M-4,0h8" fill="none" stroke="white" stroke-width="1.5" pointer-events="none"/>
  </g>
  <g id="arrowUp" transform="translate(30 24)">
    <use xlink:href="#rim"/>
    <path pointer-events="none" fill="none" stroke="white" stroke-width="1.5" d="M0,-3.0v7 M-2.5,-0.5L0,-3.0L2.5,-0.5"/>
  </g>
  <g id="arrowRight" transform="rotate(90) translate(36 -43)">
    <use xlink:href="#rim"/>
    <path pointer-events="none" fill="none" stroke="white" stroke-width="1.5" d="M0,-3.0v7 M-2.5,-0.5L0,-3.0L2.5,-0.5"/>
  </g>
  <g id="arrowDown" transform="rotate(180) translate(-30 -48)">
    <use xlink:href="#rim"/>
    <path pointer-events="none" fill="none" stroke="white" stroke-width="1.5" d="M0,-3.0v7 M-2.5,-0.5L0,-3.0L2.5,-0.5"/>
  </g>
  <g id="arrowLeft" transform="rotate(270) translate(-36 17)">
    <use xlink:href="#rim"/>
    <path pointer-events="none" fill="none" stroke="white" stroke-width="1.5" d="M0,-3.0v7 M-2.5,-0.5L0,-3.0L2.5,-0.5"/>
  </g>
  <g id="resetDef">
    <use xlink:href="#rim2" fill="#404040"><set attributeName="fill" to="#808080" begin="reset.mouseover" end="reset.mouseout"/></use>
  </g>
</defs>
<script type="application/ecmascript">
var viewWidth = 1084;
var viewHeight = 291;
var sectionId = 'dynsection-0';
</script>
<script type="application/ecmascript" xlink:href="svg.min.js"/>
<svg id="graph" class="graph">
<g id="viewport">
<title>src/Objects/Plugins/CorePlugin/Renderers/Camera/Camera.hpp</title>
<!-- Node1 -->
<g id="Node000001" class="node">
<title>Node1</title>
<g id="a_Node000001"><a xlink:title="Declaration for the camera&#45;based renderer used by the raytracer.">
<polygon fill="#999999" stroke="#666666" points="666.5,-283 541.5,-283 541.5,-242 666.5,-242 666.5,-283"/>
<text text-anchor="start" x="549.5" y="-271" font-family="Helvetica,sans-Serif" font-size="10.00">src/Objects/Plugins</text>
<text text-anchor="start" x="549.5" y="-260" font-family="Helvetica,sans-Serif" font-size="10.00">/CorePlugin/Renderers</text>
<text text-anchor="middle" x="604" y="-249" font-family="Helvetica,sans-Serif" font-size="10.00">/Camera/Camera.hpp</text>
</a>
</g>
</g>
<!-- Node2 -->
<g id="Node000002" class="node">
<title>Node2</title>
<g id="a_Node000002"><a xlink:href="ARenderer_8hpp.html" target="_top" xlink:title=" ">
<polygon fill="white" stroke="#666666" points="194,-206 0,-206 0,-176 194,-176 194,-206"/>
<text text-anchor="start" x="8" y="-194" font-family="Helvetica,sans-Serif" font-size="10.00">../../../../../Objects</text>
<text text-anchor="middle" x="97" y="-183" font-family="Helvetica,sans-Serif" font-size="10.00">/Abstracts/ARenderer/ARenderer.hpp</text>
</a>
</g>
</g>
<!-- Node1&#45;&gt;Node2 -->
<g id="edge1_Node000001_Node000002" class="edge">
<title>Node1&#45;&gt;Node2</title>
<g id="a_edge1_Node000001_Node000002"><a xlink:title=" ">
<path fill="none" stroke="#63b8ff" d="M541.32,-252.91C457.22,-241.38 306.62,-220.73 204.3,-206.71"/>
<polygon fill="#63b8ff" stroke="#63b8ff" points="204.62,-203.22 194.24,-205.33 203.67,-210.16 204.62,-203.22"/>
</a>
</g>
</g>
<!-- Node5 -->
<g id="Node000005" class="node">
<title>Node5</title>
<g id="a_Node000005"><a xlink:title=" ">
<polygon fill="#e0e0e0" stroke="#999999" points="232.5,-134.5 185.5,-134.5 185.5,-115.5 232.5,-115.5 232.5,-134.5"/>
<text text-anchor="middle" x="209" y="-122.5" font-family="Helvetica,sans-Serif" font-size="10.00">vector</text>
</a>
</g>
</g>
<!-- Node1&#45;&gt;Node5 -->
<g id="edge23_Node000001_Node000005" class="edge">
<title>Node1&#45;&gt;Node5</title>
<g id="a_edge23_Node000001_Node000005"><a xlink:title=" ">
<path fill="none" stroke="#63b8ff" d="M541.18,-259.27C449.84,-254.84 286.31,-241.97 241,-206 222.09,-190.99 214.3,-163.1 211.13,-144.54"/>
<polygon fill="#63b8ff" stroke="#63b8ff" points="214.6,-144.04 209.72,-134.63 207.67,-145.02 214.6,-144.04"/>
</a>
</g>
</g>
<!-- Node6 -->
<g id="Node000006" class="node">
<title>Node6</title>
<g id="a_Node000006"><a xlink:href="Point3D_8hpp.html" target="_top" xlink:title=" ">
<polygon fill="white" stroke="#666666" points="661,-140 541,-140 541,-110 661,-110 661,-140"/>
<text text-anchor="start" x="549" y="-128" font-family="Helvetica,sans-Serif" font-size="10.00">../../../../../Geometry</text>
<text text-anchor="middle" x="601" y="-117" font-family="Helvetica,sans-Serif" font-size="10.00">/Point3D/Point3D.hpp</text>
</a>
</g>
</g>
<!-- Node1&#45;&gt;Node6 -->
<g id="edge5_Node000001_Node000006" class="edge">
<title>Node1&#45;&gt;Node6</title>
<g id="a_edge5_Node000001_Node000006"><a xlink:title=" ">
<path fill="none" stroke="#63b8ff" d="M603.56,-241.8C603.03,-217.65 602.12,-176.72 601.54,-150.55"/>
<polygon fill="#63b8ff" stroke="#63b8ff" points="605.04,-150.25 601.32,-140.33 598.04,-150.4 605.04,-150.25"/>
</a>
</g>
</g>
<!-- Node7 -->
<g id="Node000007" class="node">
<title>Node7</title>
<g id="a_Node000007"><a xlink:href="Vector3D_8hpp.html" target="_top" xlink:title=" ">
<polygon fill="white" stroke="#666666" points="714,-74 576,-74 576,-55 714,-55 714,-74"/>
<text text-anchor="middle" x="645" y="-62" font-family="Helvetica,sans-Serif" font-size="10.00">../Vector3D/Vector3D.hpp</text>
</a>
</g>
</g>
<!-- Node1&#45;&gt;Node7 -->
<g id="edge8_Node000001_Node000007" class="edge">
<title>Node1&#45;&gt;Node7</title>
<g id="a_edge8_Node000001_Node000007"><a xlink:title=" ">
<path fill="none" stroke="#63b8ff" d="M666.69,-261.51C761.44,-260.03 934.22,-251.05 973,-206 1047.71,-119.21 843.49,-84.5 724.21,-71.91"/>
<polygon fill="#63b8ff" stroke="#63b8ff" points="724.32,-68.4 714.01,-70.87 723.6,-75.37 724.32,-68.4"/>
</a>
</g>
</g>
<!-- Node9 -->
<g id="Node000009" class="node">
<title>Node9</title>
<g id="a_Node000009"><a xlink:href="Rectangle3D_8hpp.html" target="_top" xlink:title=" ">
<polygon fill="white" stroke="#666666" points="576,-206 408,-206 408,-176 576,-176 576,-206"/>
<text text-anchor="start" x="416" y="-194" font-family="Helvetica,sans-Serif" font-size="10.00">../../../../../Geometry</text>
<text text-anchor="middle" x="492" y="-183" font-family="Helvetica,sans-Serif" font-size="10.00">/Rectangle3D/Rectangle3D.hpp</text>
</a>
</g>
</g>
<!-- Node1&#45;&gt;Node9 -->
<g id="edge9_Node000001_Node000009" class="edge">
<title>Node1&#45;&gt;Node9</title>
<g id="a_edge9_Node000001_Node000009"><a xlink:title=" ">
<path fill="none" stroke="#63b8ff" d="M572.5,-241.96C557.14,-232.42 538.72,-220.99 523.37,-211.47"/>
<polygon fill="#63b8ff" stroke="#63b8ff" points="525.09,-208.41 514.74,-206.11 521.39,-214.36 525.09,-208.41"/>
</a>
</g>
</g>
<!-- Node10 -->
<g id="Node000010" class="node">
<title>Node10</title>
<g id="a_Node000010"><a xlink:href="Ray_8hpp.html" target="_top" xlink:title="Ray primitive used to represent a parametric line (origin + direction).">
<polygon fill="white" stroke="#666666" points="742,-206 632,-206 632,-176 742,-176 742,-206"/>
<text text-anchor="start" x="640" y="-194" font-family="Helvetica,sans-Serif" font-size="10.00">../../../../../Geometry</text>
<text text-anchor="middle" x="687" y="-183" font-family="Helvetica,sans-Serif" font-size="10.00">/Ray/Ray.hpp</text>
</a>
</g>
</g>
<!-- Node1&#45;&gt;Node10 -->
<g id="edge12_Node000001_Node000010" class="edge">
<title>Node1&#45;&gt;Node10</title>
<g id="a_edge12_Node000001_Node000010"><a xlink:title=" ">
<path fill="none" stroke="#63b8ff" d="M627.56,-241.77C638.41,-232.69 651.28,-221.91 662.27,-212.71"/>
<polygon fill="#63b8ff" stroke="#63b8ff" points="664.81,-215.14 670.23,-206.04 660.32,-209.77 664.81,-215.14"/>
</a>
</g>
</g>
<!-- Node11 -->
<g id="Node000011" class="node">
<title>Node11</title>
<g id="a_Node000011"><a xlink:href="HitRecord_8hpp.html" target="_top" xlink:title=" ">
<polygon fill="white" stroke="#666666" points="390,-206 250,-206 250,-176 390,-176 390,-206"/>
<text text-anchor="start" x="258" y="-194" font-family="Helvetica,sans-Serif" font-size="10.00">../../../../../Geometry</text>
<text text-anchor="middle" x="320" y="-183" font-family="Helvetica,sans-Serif" font-size="10.00">/HitRecord/HitRecord.hpp</text>
</a>
</g>
</g>
<!-- Node1&#45;&gt;Node11 -->
<g id="edge15_Node000001_Node000011" class="edge">
<title>Node1&#45;&gt;Node11</title>
<g id="a_edge15_Node000001_Node000011"><a xlink:title=" ">
<path fill="none" stroke="#63b8ff" d="M541.32,-246.16C495.73,-235 434.06,-219.91 387.4,-208.49"/>
<polygon fill="#63b8ff" stroke="#63b8ff" points="388.23,-205.09 377.68,-206.12 386.56,-211.89 388.23,-205.09"/>
</a>
</g>
</g>
<!-- Node12 -->
<g id="Node000012" class="node">
<title>Node12</title>
<g id="a_Node000012"><a xlink:href="TransformMatrix_8hpp.html" target="_top" xlink:title="Affine transform matrix utilities used for camera and object transforms.">
<polygon fill="white" stroke="#666666" points="964,-206 760,-206 760,-176 964,-176 964,-206"/>
<text text-anchor="start" x="768" y="-194" font-family="Helvetica,sans-Serif" font-size="10.00">../../../../../Geometry</text>
<text text-anchor="middle" x="862" y="-183" font-family="Helvetica,sans-Serif" font-size="10.00">/TransformMatrix/TransformMatrix.hpp</text>
</a>
</g>
</g>
<!-- Node1&#45;&gt;Node12 -->
<g id="edge18_Node000001_Node000012" class="edge">
<title>Node1&#45;&gt;Node12</title>
<g id="a_edge18_Node000001_Node000012"><a xlink:title=" ">
<path fill="none" stroke="#63b8ff" d="M666.78,-244.59C707.3,-233.67 759.76,-219.54 800.1,-208.67"/>
<polygon fill="#63b8ff" stroke="#63b8ff" points="801.07,-212.04 809.82,-206.06 799.25,-205.28 801.07,-212.04"/>
</a>
</g>
</g>
<!-- Node14 -->
<g id="Node000014" class="node">
<title>Node14</title>
<g id="a_Node000014"><a xlink:title=" ">
<polygon fill="#e0e0e0" stroke="#999999" points="1076,-200.5 1020,-200.5 1020,-181.5 1076,-181.5 1076,-200.5"/>
<text text-anchor="middle" x="1048" y="-188.5" font-family="Helvetica,sans-Serif" font-size="10.00">optional</text>
</a>
</g>
</g>
<!-- Node1&#45;&gt;Node14 -->
<g id="edge22_Node000001_Node000014" class="edge">
<title>Node1&#45;&gt;Node14</title>
<g id="a_edge22_Node000001_Node000014"><a xlink:title=" ">
<path fill="none" stroke="#63b8ff" d="M666.63,-256.46C746.27,-249.23 887.65,-233.64 1006,-206 1008.97,-205.31 1012.03,-204.49 1015.09,-203.61"/>
<polygon fill="#63b8ff" stroke="#63b8ff" points="1016.16,-206.94 1024.67,-200.62 1014.08,-200.25 1016.16,-206.94"/>
</a>
</g>
</g>
<!-- Node3 -->
<g id="Node000003" class="node">
<title>Node3</title>
<g id="a_Node000003"><a xlink:href="Color_8hpp.html" target="_top" xlink:title=" ">
<polygon fill="white" stroke="#666666" points="154.5,-134.5 39.5,-134.5 39.5,-115.5 154.5,-115.5 154.5,-134.5"/>
<text text-anchor="middle" x="97" y="-122.5" font-family="Helvetica,sans-Serif" font-size="10.00">../../../Utils/Color.hpp</text>
</a>
</g>
</g>
<!-- Node2&#45;&gt;Node3 -->
<g id="edge2_Node000002_Node000003" class="edge">
<title>Node2&#45;&gt;Node3</title>
<g id="a_edge2_Node000002_Node000003"><a xlink:title=" ">
<path fill="none" stroke="#63b8ff" d="M97,-175.8C97,-166.7 97,-154.79 97,-144.9"/>
<polygon fill="#63b8ff" stroke="#63b8ff" points="100.5,-144.84 97,-134.84 93.5,-144.84 100.5,-144.84"/>
</a>
</g>
</g>
<!-- Node2&#45;&gt;Node5 -->
<g id="edge4_Node000002_Node000005" class="edge">
<title>Node2&#45;&gt;Node5</title>
<g id="a_edge4_Node000002_Node000005"><a xlink:title=" ">
<path fill="none" stroke="#63b8ff" d="M121.58,-175.95C140.53,-165.13 166.58,-150.24 185.3,-139.54"/>
<polygon fill="#63b8ff" stroke="#63b8ff" points="187.15,-142.52 194.09,-134.52 183.68,-136.44 187.15,-142.52"/>
</a>
</g>
</g>
<!-- Node4 -->
<g id="Node000004" class="node">
<title>Node4</title>
<g id="a_Node000004"><a xlink:title=" ">
<polygon fill="#e0e0e0" stroke="#999999" points="129,-74 65,-74 65,-55 129,-55 129,-74"/>
<text text-anchor="middle" x="97" y="-62" font-family="Helvetica,sans-Serif" font-size="10.00">algorithm</text>
</a>
</g>
</g>
<!-- Node3&#45;&gt;Node4 -->
<g id="edge3_Node000003_Node000004" class="edge">
<title>Node3&#45;&gt;Node4</title>
<g id="a_edge3_Node000003_Node000004"><a xlink:title=" ">
<path fill="none" stroke="#63b8ff" d="M97,-115.37C97,-107.25 97,-94.81 97,-84.39"/>
<polygon fill="#63b8ff" stroke="#63b8ff" points="100.5,-84.17 97,-74.17 93.5,-84.17 100.5,-84.17"/>
</a>
</g>
</g>
<!-- Node6&#45;&gt;Node7 -->
<g id="edge6_Node000006_Node000007" class="edge">
<title>Node6&#45;&gt;Node7</title>
<g id="a_edge6_Node000006_Node000007"><a xlink:title=" ">
<path fill="none" stroke="#63b8ff" d="M611.65,-109.84C617.84,-101.61 625.69,-91.18 632.21,-82.51"/>
<polygon fill="#63b8ff" stroke="#63b8ff" points="635.19,-84.36 638.41,-74.27 629.6,-80.15 635.19,-84.36"/>
</a>
</g>
</g>
<!-- Node8 -->
<g id="Node000008" class="node">
<title>Node8</title>
<g id="a_Node000008"><a xlink:title=" ">
<polygon fill="#e0e0e0" stroke="#999999" points="670.5,-19 619.5,-19 619.5,0 670.5,0 670.5,-19"/>
<text text-anchor="middle" x="645" y="-7" font-family="Helvetica,sans-Serif" font-size="10.00">math.h</text>
</a>
</g>
</g>
<!-- Node7&#45;&gt;Node8 -->
<g id="edge7_Node000007_Node000008" class="edge">
<title>Node7&#45;&gt;Node8</title>
<g id="a_edge7_Node000007_Node000008"><a xlink:title=" ">
<path fill="none" stroke="#63b8ff" d="M645,-54.75C645,-47.8 645,-37.85 645,-29.13"/>
<polygon fill="#63b8ff" stroke="#63b8ff" points="648.5,-29.09 645,-19.09 641.5,-29.09 648.5,-29.09"/>
</a>
</g>
</g>
<!-- Node9&#45;&gt;Node6 -->
<g id="edge10_Node000009_Node000006" class="edge">
<title>Node9&#45;&gt;Node6</title>
<g id="a_edge10_Node000009_Node000006"><a xlink:title=" ">
<path fill="none" stroke="#63b8ff" d="M515.92,-175.95C531.25,-166.95 551.36,-155.14 568.18,-145.27"/>
<polygon fill="#63b8ff" stroke="#63b8ff" points="570.28,-148.09 577.14,-140.01 566.74,-142.06 570.28,-148.09"/>
</a>
</g>
</g>
<!-- Node9&#45;&gt;Node7 -->
<g id="edge11_Node000009_Node000007" class="edge">
<title>Node9&#45;&gt;Node7</title>
<g id="a_edge11_Node000009_Node000007"><a xlink:title=" ">
<path fill="none" stroke="#63b8ff" d="M495.64,-175.94C500.88,-158.3 512.18,-128.14 532,-110 549.25,-94.21 572.77,-83.75 593.89,-76.96"/>
<polygon fill="#63b8ff" stroke="#63b8ff" points="595.14,-80.24 603.7,-74.01 593.12,-73.54 595.14,-80.24"/>
</a>
</g>
</g>
<!-- Node10&#45;&gt;Node6 -->
<g id="edge13_Node000010_Node000006" class="edge">
<title>Node10&#45;&gt;Node6</title>
<g id="a_edge13_Node000010_Node000006"><a xlink:title=" ">
<path fill="none" stroke="#63b8ff" d="M667.91,-175.8C656.22,-167.1 641.07,-155.82 628.15,-146.2"/>
<polygon fill="#63b8ff" stroke="#63b8ff" points="630.14,-143.33 620.03,-140.16 625.97,-148.94 630.14,-143.33"/>
</a>
</g>
</g>
<!-- Node10&#45;&gt;Node7 -->
<g id="edge14_Node000010_Node000007" class="edge">
<title>Node10&#45;&gt;Node7</title>
<g id="a_edge14_Node000010_Node000007"><a xlink:title=" ">
<path fill="none" stroke="#63b8ff" d="M685.3,-175.76C683.05,-159.47 678.37,-132.19 670,-110 666.49,-100.69 661.24,-90.98 656.47,-83.02"/>
<polygon fill="#63b8ff" stroke="#63b8ff" points="659.29,-80.93 651.01,-74.31 653.36,-84.64 659.29,-80.93"/>
</a>
</g>
</g>
<!-- Node11&#45;&gt;Node6 -->
<g id="edge16_Node000011_Node000006" class="edge">
<title>Node11&#45;&gt;Node6</title>
<g id="a_edge16_Node000011_Node000006"><a xlink:title=" ">
<path fill="none" stroke="#63b8ff" d="M381.67,-175.95C425.77,-165.91 485.19,-152.38 531.06,-141.93"/>
<polygon fill="#63b8ff" stroke="#63b8ff" points="531.95,-145.32 540.92,-139.68 530.4,-138.49 531.95,-145.32"/>
</a>
</g>
</g>
<!-- Node11&#45;&gt;Node7 -->
<g id="edge17_Node000011_Node000007" class="edge">
<title>Node11&#45;&gt;Node7</title>
<g id="a_edge17_Node000011_Node000007"><a xlink:title=" ">
<path fill="none" stroke="#63b8ff" d="M350.42,-175.96C387.14,-159.25 450.94,-130.98 507,-110 540.07,-97.62 578.33,-85.45 606.17,-76.97"/>
<polygon fill="#63b8ff" stroke="#63b8ff" points="607.36,-80.27 615.92,-74.02 605.34,-73.57 607.36,-80.27"/>
</a>
</g>
</g>
<!-- Node12&#45;&gt;Node6 -->
<g id="edge20_Node000012_Node000006" class="edge">
<title>Node12&#45;&gt;Node6</title>
<g id="a_edge20_Node000012_Node000006"><a xlink:title=" ">
<path fill="none" stroke="#63b8ff" d="M804.72,-175.95C764.44,-166.08 710.38,-152.82 668.08,-142.45"/>
<polygon fill="#63b8ff" stroke="#63b8ff" points="668.69,-138.99 658.14,-140.01 667.02,-145.79 668.69,-138.99"/>
</a>
</g>
</g>
<!-- Node12&#45;&gt;Node7 -->
<g id="edge21_Node000012_Node000007" class="edge">
<title>Node12&#45;&gt;Node7</title>
<g id="a_edge21_Node000012_Node000007"><a xlink:title=" ">
<path fill="none" stroke="#63b8ff" d="M862.64,-175.99C862.65,-158.11 859.81,-127.41 842,-110 825.09,-93.47 771.29,-82 724.18,-74.85"/>
<polygon fill="#63b8ff" stroke="#63b8ff" points="724.65,-71.39 714.25,-73.39 723.63,-78.31 724.65,-71.39"/>
</a>
</g>
</g>
<!-- Node13 -->
<g id="Node000013" class="node">
<title>Node13</title>
<g id="a_Node000013"><a xlink:href="Matrix_8hpp.html" target="_top" xlink:title="Fixed&#45;size generic matrix template used across geometry types.">
<polygon fill="white" stroke="#666666" points="833.5,-134.5 720.5,-134.5 720.5,-115.5 833.5,-115.5 833.5,-134.5"/>
<text text-anchor="middle" x="777" y="-122.5" font-family="Helvetica,sans-Serif" font-size="10.00">../Matrix/Matrix.hpp</text>
</a>
</g>
</g>
<!-- Node12&#45;&gt;Node13 -->
<g id="edge19_Node000012_Node000013" class="edge">
<title>Node12&#45;&gt;Node13</title>
<g id="a_edge19_Node000012_Node000013"><a xlink:title=" ">
<path fill="none" stroke="#63b8ff" d="M843.14,-175.8C829.36,-165.43 810.74,-151.4 796.76,-140.88"/>
<polygon fill="#63b8ff" stroke="#63b8ff" points="798.84,-138.06 788.75,-134.84 794.63,-143.66 798.84,-138.06"/>
</a>
</g>
</g>
</g>
</svg>

<g id="navigator" transform="translate(0 0)" fill="#404254">
  <rect fill="#f2f5e9" fill-opacity="0.5" stroke="#606060" stroke-width=".5" x="0" y="0" width="60" height="60"/>
  <use id="zoomplus" xlink:href="#zoomPlus" x="17" y="9" onmousedown="handleZoom(evt,'in')"/>
  <use id="zoomminus" xlink:href="#zoomMin" x="42" y="9" onmousedown="handleZoom(evt,'out')"/>
  <use id="reset" xlink:href="#resetDef" x="30" y="36" onmousedown="handleReset()"/>
   <use id="arrowup" xlink:href="#arrowUp" x="0" y="0" onmousedown="handlePan(0,-1)"/>
  <use id="arrowright" xlink:href="#arrowRight" x="0" y="0" onmousedown="handlePan(1,0)"/>
  <use id="arrowdown" xlink:href="#arrowDown" x="0" y="0" onmousedown="handlePan(0,1)"/>
  <use id="arrowleft" xlink:href="#arrowLeft" x="0" y="0" onmousedown="handlePan(-1,0)"/>
</g>
<svg viewBox="0 0 15 15" width="100%" height="30px" preserveAspectRatio="xMaxYMin meet">
 <g id="arrow_out" transform="scale(0.3 0.3)">
  <a xlink:href="Camera_8hpp__incl_org.svg" target="_base">
   <rect id="button" ry="5" rx="5" y="6" x="6" height="38" width="38"
        fill="#f2f5e9" fill-opacity="0.5" stroke="#606060" stroke-width="1.0"/>
   <path id="arrow"
     d="M 11.500037,31.436501 C 11.940474,20.09759 22.043105,11.32322 32.158766,21.979434 L 37.068811,17.246167 C 37.068811,17.246167 37.088388,32 37.088388,32 L 22.160133,31.978069 C 22.160133,31.978069 26.997745,27.140456 26.997745,27.140456 C 18.528582,18.264221 13.291696,25.230495 11.500037,31.436501 z"
     style="fill:#404040;"/>
  </a>
 </g>
</svg>

<style type='text/css'>
<![CDATA[
[data-mouse-over-selected='false'] { opacity: 0.7; }
[data-mouse-over-selected='true']  { opacity: 1.0; }
]]>
</style>
<script type="application/ecmascript"><![CDATA[
document.addEventListener('DOMContentLoaded', (event) => {
  highlightEdges();
  highlightAdjacentNodes();
});
]]></script>
</svg>
