<?xml version="1.0" encoding="UTF-8" standalone="no"?>
<!DOCTYPE svg PUBLIC "-//W3C//DTD SVG 1.1//EN"
 "http://www.w3.org/Graphics/SVG/1.1/DTD/svg11.dtd">
<!-- Generated by graphviz version 2.43.0 (0)
 -->
<!-- Title: src/Objects/Plugins/CorePlugin/Renderers/Camera/Camera.hpp Pages: 1 -->
<svg width="824pt" height="291pt"
 viewBox="0.00 0.00 824.00 291.00" xmlns="http://www.w3.org/2000/svg" xmlns:xlink="http://www.w3.org/1999/xlink">
<g id="graph0" class="graph" transform="scale(1 1) rotate(0) translate(4 287)">
<title>src/Objects/Plugins/CorePlugin/Renderers/Camera/Camera.hpp</title>
<!-- Node1 -->
<g id="Node000001" class="node">
<title>Node1</title>
<g id="a_Node000001"><a xlink:title=" ">
<polygon fill="#999999" stroke="#666666" points="553.5,-283 428.5,-283 428.5,-242 553.5,-242 553.5,-283"/>
<text text-anchor="start" x="436.5" y="-271" font-family="Helvetica,sans-Serif" font-size="10.00">src/Objects/Plugins</text>
<text text-anchor="start" x="436.5" y="-260" font-family="Helvetica,sans-Serif" font-size="10.00">/CorePlugin/Renderers</text>
<text text-anchor="middle" x="491" y="-249" font-family="Helvetica,sans-Serif" font-size="10.00">/Camera/Camera.hpp</text>
</a>
</g>
</g>
<!-- Node2 -->
<g id="Node000002" class="node">
<title>Node2</title>
<g id="a_Node000002"><a xlink:href="ARenderer_8hpp.html" target="_top" xlink:title=" ">
<polygon fill="white" stroke="#666666" points="194,-206 0,-206 0,-176 194,-176 194,-206"/>
<text text-anchor="start" x="8" y="-194" font-family="Helvetica,sans-Serif" font-size="10.00">../../../../../Objects</text>
<text text-anchor="middle" x="97" y="-183" font-family="Helvetica,sans-Serif" font-size="10.00">/Abstracts/ARenderer/ARenderer.hpp</text>
</a>
</g>
</g>
<!-- Node1&#45;&gt;Node2 -->
<g id="edge1_Node000001_Node000002" class="edge">
<title>Node1&#45;&gt;Node2</title>
<g id="a_edge1_Node000001_Node000002"><a xlink:title=" ">
<path fill="none" stroke="#63b8ff" d="M428.13,-250.41C362.98,-238.92 260.54,-220.85 186.86,-207.85"/>
<polygon fill="#63b8ff" stroke="#63b8ff" points="187.11,-204.34 176.66,-206.05 185.9,-211.23 187.11,-204.34"/>
</a>
</g>
</g>
<!-- Node6 -->
<g id="Node000006" class="node">
<title>Node6</title>
<g id="a_Node000006"><a xlink:href="Point3D_8hpp.html" target="_top" xlink:title=" ">
<polygon fill="white" stroke="#666666" points="493,-140 373,-140 373,-110 493,-110 493,-140"/>
<text text-anchor="start" x="381" y="-128" font-family="Helvetica,sans-Serif" font-size="10.00">../../../../../Geometry</text>
<text text-anchor="middle" x="433" y="-117" font-family="Helvetica,sans-Serif" font-size="10.00">/Point3D/Point3D.hpp</text>
</a>
</g>
</g>
<!-- Node1&#45;&gt;Node6 -->
<g id="edge5_Node000001_Node000006" class="edge">
<title>Node1&#45;&gt;Node6</title>
<g id="a_edge5_Node000001_Node000006"><a xlink:title=" ">
<path fill="none" stroke="#63b8ff" d="M458.17,-241.79C446.02,-232.59 433.6,-220.45 427,-206 418.98,-188.43 421.41,-166.43 425.32,-149.95"/>
<polygon fill="#63b8ff" stroke="#63b8ff" points="428.77,-150.59 428.01,-140.02 422.01,-148.76 428.77,-150.59"/>
</a>
</g>
</g>
<!-- Node7 -->
<g id="Node000007" class="node">
<title>Node7</title>
<g id="a_Node000007"><a xlink:href="Vector3D_8hpp.html" target="_top" xlink:title=" ">
<polygon fill="white" stroke="#666666" points="590,-74 452,-74 452,-55 590,-55 590,-74"/>
<text text-anchor="middle" x="521" y="-62" font-family="Helvetica,sans-Serif" font-size="10.00">../Vector3D/Vector3D.hpp</text>
</a>
</g>
</g>
<!-- Node1&#45;&gt;Node7 -->
<g id="edge8_Node000001_Node000007" class="edge">
<title>Node1&#45;&gt;Node7</title>
<g id="a_edge8_Node000001_Node000007"><a xlink:title=" ">
<path fill="none" stroke="#63b8ff" d="M553.54,-254.43C612.12,-246.37 693.5,-230.97 713,-206 760.91,-144.64 634.2,-97.47 564.02,-76.86"/>
<polygon fill="#63b8ff" stroke="#63b8ff" points="564.68,-73.41 554.11,-74.01 562.75,-80.14 564.68,-73.41"/>
</a>
</g>
</g>
<!-- Node9 -->
<g id="Node000009" class="node">
<title>Node9</title>
<g id="a_Node000009"><a xlink:href="Rectangle3D_8hpp.html" target="_top" xlink:title=" ">
<polygon fill="white" stroke="#666666" points="380,-206 212,-206 212,-176 380,-176 380,-206"/>
<text text-anchor="start" x="220" y="-194" font-family="Helvetica,sans-Serif" font-size="10.00">../../../../../Geometry</text>
<text text-anchor="middle" x="296" y="-183" font-family="Helvetica,sans-Serif" font-size="10.00">/Rectangle3D/Rectangle3D.hpp</text>
</a>
</g>
</g>
<!-- Node1&#45;&gt;Node9 -->
<g id="edge9_Node000001_Node000009" class="edge">
<title>Node1&#45;&gt;Node9</title>
<g id="a_edge9_Node000001_Node000009"><a xlink:title=" ">
<path fill="none" stroke="#63b8ff" d="M436.16,-241.96C407.44,-231.72 372.57,-219.29 344.8,-209.39"/>
<polygon fill="#63b8ff" stroke="#63b8ff" points="345.89,-206.06 335.29,-206 343.54,-212.66 345.89,-206.06"/>
</a>
</g>
</g>
<!-- Node10 -->
<g id="Node000010" class="node">
<title>Node10</title>
<g id="a_Node000010"><a xlink:href="Ray_8hpp.html" target="_top" xlink:title=" ">
<polygon fill="white" stroke="#666666" points="546,-206 436,-206 436,-176 546,-176 546,-206"/>
<text text-anchor="start" x="444" y="-194" font-family="Helvetica,sans-Serif" font-size="10.00">../../../../../Geometry</text>
<text text-anchor="middle" x="491" y="-183" font-family="Helvetica,sans-Serif" font-size="10.00">/Ray/Ray.hpp</text>
</a>
</g>
</g>
<!-- Node1&#45;&gt;Node10 -->
<g id="edge12_Node000001_Node000010" class="edge">
<title>Node1&#45;&gt;Node10</title>
<g id="a_edge12_Node000001_Node000010"><a xlink:title=" ">
<path fill="none" stroke="#63b8ff" d="M491,-241.77C491,-233.85 491,-224.63 491,-216.3"/>
<polygon fill="#63b8ff" stroke="#63b8ff" points="494.5,-216.04 491,-206.04 487.5,-216.04 494.5,-216.04"/>
</a>
</g>
</g>
<!-- Node11 -->
<g id="Node000011" class="node">
<title>Node11</title>
<g id="a_Node000011"><a xlink:href="HitRecord_8hpp.html" target="_top" xlink:title=" ">
<polygon fill="white" stroke="#666666" points="704,-206 564,-206 564,-176 704,-176 704,-206"/>
<text text-anchor="start" x="572" y="-194" font-family="Helvetica,sans-Serif" font-size="10.00">../../../../../Geometry</text>
<text text-anchor="middle" x="634" y="-183" font-family="Helvetica,sans-Serif" font-size="10.00">/HitRecord/HitRecord.hpp</text>
</a>
</g>
</g>
<!-- Node1&#45;&gt;Node11 -->
<g id="edge15_Node000001_Node000011" class="edge">
<title>Node1&#45;&gt;Node11</title>
<g id="a_edge15_Node000001_Node000011"><a xlink:title=" ">
<path fill="none" stroke="#63b8ff" d="M531.21,-241.96C551.47,-232.11 575.89,-220.24 595.85,-210.54"/>
<polygon fill="#63b8ff" stroke="#63b8ff" points="597.5,-213.63 604.96,-206.11 594.44,-207.34 597.5,-213.63"/>
</a>
</g>
</g>
<!-- Node12 -->
<g id="Node000012" class="node">
<title>Node12</title>
<g id="a_Node000012"><a xlink:title=" ">
<polygon fill="#e0e0e0" stroke="#999999" points="816,-200.5 760,-200.5 760,-181.5 816,-181.5 816,-200.5"/>
<text text-anchor="middle" x="788" y="-188.5" font-family="Helvetica,sans-Serif" font-size="10.00">optional</text>
</a>
</g>
</g>
<!-- Node1&#45;&gt;Node12 -->
<g id="edge18_Node000001_Node000012" class="edge">
<title>Node1&#45;&gt;Node12</title>
<g id="a_edge18_Node000001_Node000012"><a xlink:title=" ">
<path fill="none" stroke="#63b8ff" d="M553.55,-249.84C605.45,-239.69 681.01,-223.85 746,-206 748.62,-205.28 751.32,-204.49 754.02,-203.67"/>
<polygon fill="#63b8ff" stroke="#63b8ff" points="755.24,-206.96 763.71,-200.59 753.12,-200.28 755.24,-206.96"/>
</a>
</g>
</g>
<!-- Node3 -->
<g id="Node000003" class="node">
<title>Node3</title>
<g id="a_Node000003"><a xlink:href="Color_8hpp.html" target="_top" xlink:title=" ">
<polygon fill="white" stroke="#666666" points="204.5,-134.5 89.5,-134.5 89.5,-115.5 204.5,-115.5 204.5,-134.5"/>
<text text-anchor="middle" x="147" y="-122.5" font-family="Helvetica,sans-Serif" font-size="10.00">../../../Utils/Color.hpp</text>
</a>
</g>
</g>
<!-- Node2&#45;&gt;Node3 -->
<g id="edge2_Node000002_Node000003" class="edge">
<title>Node2&#45;&gt;Node3</title>
<g id="a_edge2_Node000002_Node000003"><a xlink:title=" ">
<path fill="none" stroke="#63b8ff" d="M108.1,-175.8C115.66,-166.11 125.72,-153.24 133.71,-143.01"/>
<polygon fill="#63b8ff" stroke="#63b8ff" points="136.69,-144.88 140.09,-134.84 131.18,-140.57 136.69,-144.88"/>
</a>
</g>
</g>
<!-- Node5 -->
<g id="Node000005" class="node">
<title>Node5</title>
<g id="a_Node000005"><a xlink:title=" ">
<polygon fill="#e0e0e0" stroke="#999999" points="71.5,-134.5 24.5,-134.5 24.5,-115.5 71.5,-115.5 71.5,-134.5"/>
<text text-anchor="middle" x="48" y="-122.5" font-family="Helvetica,sans-Serif" font-size="10.00">vector</text>
</a>
</g>
</g>
<!-- Node2&#45;&gt;Node5 -->
<g id="edge4_Node000002_Node000005" class="edge">
<title>Node2&#45;&gt;Node5</title>
<g id="a_edge4_Node000002_Node000005"><a xlink:title=" ">
<path fill="none" stroke="#63b8ff" d="M86.13,-175.8C78.71,-166.11 68.86,-153.24 61.02,-143.01"/>
<polygon fill="#63b8ff" stroke="#63b8ff" points="63.63,-140.66 54.77,-134.84 58.07,-144.91 63.63,-140.66"/>
</a>
</g>
</g>
<!-- Node4 -->
<g id="Node000004" class="node">
<title>Node4</title>
<g id="a_Node000004"><a xlink:title=" ">
<polygon fill="#e0e0e0" stroke="#999999" points="179,-74 115,-74 115,-55 179,-55 179,-74"/>
<text text-anchor="middle" x="147" y="-62" font-family="Helvetica,sans-Serif" font-size="10.00">algorithm</text>
</a>
</g>
</g>
<!-- Node3&#45;&gt;Node4 -->
<g id="edge3_Node000003_Node000004" class="edge">
<title>Node3&#45;&gt;Node4</title>
<g id="a_edge3_Node000003_Node000004"><a xlink:title=" ">
<path fill="none" stroke="#63b8ff" d="M147,-115.37C147,-107.25 147,-94.81 147,-84.39"/>
<polygon fill="#63b8ff" stroke="#63b8ff" points="150.5,-84.17 147,-74.17 143.5,-84.17 150.5,-84.17"/>
</a>
</g>
</g>
<!-- Node6&#45;&gt;Node7 -->
<g id="edge6_Node000006_Node000007" class="edge">
<title>Node6&#45;&gt;Node7</title>
<g id="a_edge6_Node000006_Node000007"><a xlink:title=" ">
<path fill="none" stroke="#63b8ff" d="M454.3,-109.84C468.07,-100.68 485.93,-88.82 499.7,-79.66"/>
<polygon fill="#63b8ff" stroke="#63b8ff" points="501.68,-82.55 508.07,-74.09 497.81,-76.72 501.68,-82.55"/>
</a>
</g>
</g>
<!-- Node8 -->
<g id="Node000008" class="node">
<title>Node8</title>
<g id="a_Node000008"><a xlink:title=" ">
<polygon fill="#e0e0e0" stroke="#999999" points="546.5,-19 495.5,-19 495.5,0 546.5,0 546.5,-19"/>
<text text-anchor="middle" x="521" y="-7" font-family="Helvetica,sans-Serif" font-size="10.00">math.h</text>
</a>
</g>
</g>
<!-- Node7&#45;&gt;Node8 -->
<g id="edge7_Node000007_Node000008" class="edge">
<title>Node7&#45;&gt;Node8</title>
<g id="a_edge7_Node000007_Node000008"><a xlink:title=" ">
<path fill="none" stroke="#63b8ff" d="M521,-54.75C521,-47.8 521,-37.85 521,-29.13"/>
<polygon fill="#63b8ff" stroke="#63b8ff" points="524.5,-29.09 521,-19.09 517.5,-29.09 524.5,-29.09"/>
</a>
</g>
</g>
<!-- Node9&#45;&gt;Node6 -->
<g id="edge10_Node000009_Node000006" class="edge">
<title>Node9&#45;&gt;Node6</title>
<g id="a_edge10_Node000009_Node000006"><a xlink:title=" ">
<path fill="none" stroke="#63b8ff" d="M326.07,-175.95C345.96,-166.66 372.26,-154.38 393.79,-144.32"/>
<polygon fill="#63b8ff" stroke="#63b8ff" points="395.43,-147.42 403,-140.01 392.46,-141.07 395.43,-147.42"/>
</a>
</g>
</g>
<!-- Node9&#45;&gt;Node7 -->
<g id="edge11_Node000009_Node000007" class="edge">
<title>Node9&#45;&gt;Node7</title>
<g id="a_edge11_Node000009_Node000007"><a xlink:title=" ">
<path fill="none" stroke="#63b8ff" d="M304.25,-175.91C315.49,-157.94 337.32,-127.15 364,-110 389.9,-93.35 422.11,-82.82 450.6,-76.21"/>
<polygon fill="#63b8ff" stroke="#63b8ff" points="451.49,-79.6 460.5,-74.03 449.99,-72.76 451.49,-79.6"/>
</a>
</g>
</g>
<!-- Node10&#45;&gt;Node6 -->
<g id="edge13_Node000010_Node000006" class="edge">
<title>Node10&#45;&gt;Node6</title>
<g id="a_edge13_Node000010_Node000006"><a xlink:title=" ">
<path fill="none" stroke="#63b8ff" d="M478.13,-175.8C470.62,-167.51 460.99,-156.89 452.56,-147.59"/>
<polygon fill="#63b8ff" stroke="#63b8ff" points="455.14,-145.22 445.84,-140.16 449.96,-149.92 455.14,-145.22"/>
</a>
</g>
</g>
<!-- Node10&#45;&gt;Node7 -->
<g id="edge14_Node000010_Node000007" class="edge">
<title>Node10&#45;&gt;Node7</title>
<g id="a_edge14_Node000010_Node000007"><a xlink:title=" ">
<path fill="none" stroke="#63b8ff" d="M494.44,-175.72C499.89,-153.12 510.49,-109.12 516.52,-84.09"/>
<polygon fill="#63b8ff" stroke="#63b8ff" points="519.99,-84.61 518.94,-74.07 513.19,-82.97 519.99,-84.61"/>
</a>
</g>
</g>
<!-- Node11&#45;&gt;Node6 -->
<g id="edge16_Node000011_Node000006" class="edge">
<title>Node11&#45;&gt;Node6</title>
<g id="a_edge16_Node000011_Node000006"><a xlink:title=" ">
<path fill="none" stroke="#63b8ff" d="M589.89,-175.95C559.52,-166.28 518.99,-153.38 486.73,-143.11"/>
<polygon fill="#63b8ff" stroke="#63b8ff" points="487.6,-139.71 477.01,-140.01 485.47,-146.38 487.6,-139.71"/>
</a>
</g>
</g>
<!-- Node11&#45;&gt;Node7 -->
<g id="edge17_Node000011_Node000007" class="edge">
<title>Node11&#45;&gt;Node7</title>
<g id="a_edge17_Node000011_Node000007"><a xlink:title=" ">
<path fill="none" stroke="#63b8ff" d="M621.04,-175.72C599.88,-152.41 558.05,-106.33 535.78,-81.78"/>
<polygon fill="#63b8ff" stroke="#63b8ff" points="538.09,-79.12 528.78,-74.07 532.91,-83.83 538.09,-79.12"/>
</a>
</g>
</g>
</g>
</svg>
