<?xml version="1.0" encoding="UTF-8" standalone="no"?>
<!DOCTYPE svg PUBLIC "-//W3C//DTD SVG 1.1//EN"
 "http://www.w3.org/Graphics/SVG/1.1/DTD/svg11.dtd">
<!-- Generated by graphviz version 2.43.0 (0)
 -->
<!-- Title: src/Objects/Plugins/CorePlugin/Renderers/Camera/Camera.hpp Pages: 1 -->
<svg width="1046pt" height="291pt"
 viewBox="0.00 0.00 1046.00 291.00" xmlns="http://www.w3.org/2000/svg" xmlns:xlink="http://www.w3.org/1999/xlink">
<g id="graph0" class="graph" transform="scale(1 1) rotate(0) translate(4 287)">
<title>src/Objects/Plugins/CorePlugin/Renderers/Camera/Camera.hpp</title>
<!-- Node1 -->
<g id="Node000001" class="node">
<title>Node1</title>
<g id="a_Node000001"><a xlink:title=" ">
<polygon fill="#999999" stroke="#666666" points="669.5,-283 544.5,-283 544.5,-242 669.5,-242 669.5,-283"/>
<text text-anchor="start" x="552.5" y="-271" font-family="Helvetica,sans-Serif" font-size="10.00">src/Objects/Plugins</text>
<text text-anchor="start" x="552.5" y="-260" font-family="Helvetica,sans-Serif" font-size="10.00">/CorePlugin/Renderers</text>
<text text-anchor="middle" x="607" y="-249" font-family="Helvetica,sans-Serif" font-size="10.00">/Camera/Camera.hpp</text>
</a>
</g>
</g>
<!-- Node2 -->
<g id="Node000002" class="node">
<title>Node2</title>
<g id="a_Node000002"><a xlink:href="ARenderer_8hpp.html" target="_top" xlink:title=" ">
<polygon fill="white" stroke="#666666" points="194,-206 0,-206 0,-176 194,-176 194,-206"/>
<text text-anchor="start" x="8" y="-194" font-family="Helvetica,sans-Serif" font-size="10.00">../../../../../Objects</text>
<text text-anchor="middle" x="97" y="-183" font-family="Helvetica,sans-Serif" font-size="10.00">/Abstracts/ARenderer/ARenderer.hpp</text>
</a>
</g>
</g>
<!-- Node1&#45;&gt;Node2 -->
<g id="edge1_Node000001_Node000002" class="edge">
<title>Node1&#45;&gt;Node2</title>
<g id="a_edge1_Node000001_Node000002"><a xlink:title=" ">
<path fill="none" stroke="#63b8ff" d="M544.46,-252.98C459.77,-241.44 307.37,-220.67 204.23,-206.61"/>
<polygon fill="#63b8ff" stroke="#63b8ff" points="204.47,-203.11 194.09,-205.23 203.53,-210.05 204.47,-203.11"/>
</a>
</g>
</g>
<!-- Node6 -->
<g id="Node000006" class="node">
<title>Node6</title>
<g id="a_Node000006"><a xlink:href="Point3D_8hpp.html" target="_top" xlink:title=" ">
<polygon fill="white" stroke="#666666" points="623,-140 503,-140 503,-110 623,-110 623,-140"/>
<text text-anchor="start" x="511" y="-128" font-family="Helvetica,sans-Serif" font-size="10.00">../../../../../Geometry</text>
<text text-anchor="middle" x="563" y="-117" font-family="Helvetica,sans-Serif" font-size="10.00">/Point3D/Point3D.hpp</text>
</a>
</g>
</g>
<!-- Node1&#45;&gt;Node6 -->
<g id="edge5_Node000001_Node000006" class="edge">
<title>Node1&#45;&gt;Node6</title>
<g id="a_edge5_Node000001_Node000006"><a xlink:title=" ">
<path fill="none" stroke="#63b8ff" d="M598.63,-241.91C594.28,-231.37 589.05,-218.09 585,-206 578.8,-187.46 572.99,-166.1 568.9,-150.12"/>
<polygon fill="#63b8ff" stroke="#63b8ff" points="572.19,-148.86 566.36,-140.01 565.4,-150.56 572.19,-148.86"/>
</a>
</g>
</g>
<!-- Node7 -->
<g id="Node000007" class="node">
<title>Node7</title>
<g id="a_Node000007"><a xlink:href="Vector3D_8hpp.html" target="_top" xlink:title=" ">
<polygon fill="white" stroke="#666666" points="676,-74 538,-74 538,-55 676,-55 676,-74"/>
<text text-anchor="middle" x="607" y="-62" font-family="Helvetica,sans-Serif" font-size="10.00">../Vector3D/Vector3D.hpp</text>
</a>
</g>
</g>
<!-- Node1&#45;&gt;Node7 -->
<g id="edge8_Node000001_Node000007" class="edge">
<title>Node1&#45;&gt;Node7</title>
<g id="a_edge8_Node000001_Node000007"><a xlink:title=" ">
<path fill="none" stroke="#63b8ff" d="M669.83,-260.15C755.39,-256.82 901.73,-245.37 935,-206 1008.82,-118.64 805.58,-84.21 686.5,-71.8"/>
<polygon fill="#63b8ff" stroke="#63b8ff" points="686.61,-68.3 676.31,-70.77 685.91,-75.26 686.61,-68.3"/>
</a>
</g>
</g>
<!-- Node9 -->
<g id="Node000009" class="node">
<title>Node9</title>
<g id="a_Node000009"><a xlink:href="Rectangle3D_8hpp.html" target="_top" xlink:title=" ">
<polygon fill="white" stroke="#666666" points="538,-206 370,-206 370,-176 538,-176 538,-206"/>
<text text-anchor="start" x="378" y="-194" font-family="Helvetica,sans-Serif" font-size="10.00">../../../../../Geometry</text>
<text text-anchor="middle" x="454" y="-183" font-family="Helvetica,sans-Serif" font-size="10.00">/Rectangle3D/Rectangle3D.hpp</text>
</a>
</g>
</g>
<!-- Node1&#45;&gt;Node9 -->
<g id="edge9_Node000001_Node000009" class="edge">
<title>Node1&#45;&gt;Node9</title>
<g id="a_edge9_Node000001_Node000009"><a xlink:title=" ">
<path fill="none" stroke="#63b8ff" d="M563.97,-241.96C542.11,-232.02 515.7,-220.03 494.24,-210.28"/>
<polygon fill="#63b8ff" stroke="#63b8ff" points="495.62,-207.06 485.07,-206.11 492.73,-213.44 495.62,-207.06"/>
</a>
</g>
</g>
<!-- Node10 -->
<g id="Node000010" class="node">
<title>Node10</title>
<g id="a_Node000010"><a xlink:href="Ray_8hpp.html" target="_top" xlink:title=" ">
<polygon fill="white" stroke="#666666" points="704,-206 594,-206 594,-176 704,-176 704,-206"/>
<text text-anchor="start" x="602" y="-194" font-family="Helvetica,sans-Serif" font-size="10.00">../../../../../Geometry</text>
<text text-anchor="middle" x="649" y="-183" font-family="Helvetica,sans-Serif" font-size="10.00">/Ray/Ray.hpp</text>
</a>
</g>
</g>
<!-- Node1&#45;&gt;Node10 -->
<g id="edge12_Node000001_Node000010" class="edge">
<title>Node1&#45;&gt;Node10</title>
<g id="a_edge12_Node000001_Node000010"><a xlink:title=" ">
<path fill="none" stroke="#63b8ff" d="M618.92,-241.77C624.04,-233.31 630.04,-223.38 635.33,-214.63"/>
<polygon fill="#63b8ff" stroke="#63b8ff" points="638.34,-216.41 640.52,-206.04 632.35,-212.79 638.34,-216.41"/>
</a>
</g>
</g>
<!-- Node11 -->
<g id="Node000011" class="node">
<title>Node11</title>
<g id="a_Node000011"><a xlink:href="HitRecord_8hpp.html" target="_top" xlink:title=" ">
<polygon fill="white" stroke="#666666" points="352,-206 212,-206 212,-176 352,-176 352,-206"/>
<text text-anchor="start" x="220" y="-194" font-family="Helvetica,sans-Serif" font-size="10.00">../../../../../Geometry</text>
<text text-anchor="middle" x="282" y="-183" font-family="Helvetica,sans-Serif" font-size="10.00">/HitRecord/HitRecord.hpp</text>
</a>
</g>
</g>
<!-- Node1&#45;&gt;Node11 -->
<g id="edge15_Node000001_Node000011" class="edge">
<title>Node1&#45;&gt;Node11</title>
<g id="a_edge15_Node000001_Node000011"><a xlink:title=" ">
<path fill="none" stroke="#63b8ff" d="M544.34,-248.1C491,-236.69 414.24,-220.28 357.53,-208.15"/>
<polygon fill="#63b8ff" stroke="#63b8ff" points="358.05,-204.68 347.54,-206.01 356.58,-211.53 358.05,-204.68"/>
</a>
</g>
</g>
<!-- Node12 -->
<g id="Node000012" class="node">
<title>Node12</title>
<g id="a_Node000012"><a xlink:href="TransformMatrix_8hpp.html" target="_top" xlink:title=" ">
<polygon fill="white" stroke="#666666" points="926,-206 722,-206 722,-176 926,-176 926,-206"/>
<text text-anchor="start" x="730" y="-194" font-family="Helvetica,sans-Serif" font-size="10.00">../../../../../Geometry</text>
<text text-anchor="middle" x="824" y="-183" font-family="Helvetica,sans-Serif" font-size="10.00">/TransformMatrix/TransformMatrix.hpp</text>
</a>
</g>
</g>
<!-- Node1&#45;&gt;Node12 -->
<g id="edge18_Node000001_Node000012" class="edge">
<title>Node1&#45;&gt;Node12</title>
<g id="a_edge18_Node000001_Node000012"><a xlink:title=" ">
<path fill="none" stroke="#63b8ff" d="M668.02,-241.96C700.26,-231.63 739.47,-219.07 770.5,-209.13"/>
<polygon fill="#63b8ff" stroke="#63b8ff" points="771.82,-212.39 780.28,-206 769.68,-205.72 771.82,-212.39"/>
</a>
</g>
</g>
<!-- Node14 -->
<g id="Node000014" class="node">
<title>Node14</title>
<g id="a_Node000014"><a xlink:title=" ">
<polygon fill="#e0e0e0" stroke="#999999" points="1038,-200.5 982,-200.5 982,-181.5 1038,-181.5 1038,-200.5"/>
<text text-anchor="middle" x="1010" y="-188.5" font-family="Helvetica,sans-Serif" font-size="10.00">optional</text>
</a>
</g>
</g>
<!-- Node1&#45;&gt;Node14 -->
<g id="edge22_Node000001_Node000014" class="edge">
<title>Node1&#45;&gt;Node14</title>
<g id="a_edge22_Node000001_Node000014"><a xlink:title=" ">
<path fill="none" stroke="#63b8ff" d="M669.59,-255.13C742.07,-247.01 864.76,-230.95 968,-206 970.97,-205.28 974.02,-204.45 977.07,-203.56"/>
<polygon fill="#63b8ff" stroke="#63b8ff" points="978.16,-206.89 986.66,-200.56 976.07,-200.2 978.16,-206.89"/>
</a>
</g>
</g>
<!-- Node3 -->
<g id="Node000003" class="node">
<title>Node3</title>
<g id="a_Node000003"><a xlink:href="Color_8hpp.html" target="_top" xlink:title=" ">
<polygon fill="white" stroke="#666666" points="204.5,-134.5 89.5,-134.5 89.5,-115.5 204.5,-115.5 204.5,-134.5"/>
<text text-anchor="middle" x="147" y="-122.5" font-family="Helvetica,sans-Serif" font-size="10.00">../../../Utils/Color.hpp</text>
</a>
</g>
</g>
<!-- Node2&#45;&gt;Node3 -->
<g id="edge2_Node000002_Node000003" class="edge">
<title>Node2&#45;&gt;Node3</title>
<g id="a_edge2_Node000002_Node000003"><a xlink:title=" ">
<path fill="none" stroke="#63b8ff" d="M108.1,-175.8C115.66,-166.11 125.72,-153.24 133.71,-143.01"/>
<polygon fill="#63b8ff" stroke="#63b8ff" points="136.69,-144.88 140.09,-134.84 131.18,-140.57 136.69,-144.88"/>
</a>
</g>
</g>
<!-- Node5 -->
<g id="Node000005" class="node">
<title>Node5</title>
<g id="a_Node000005"><a xlink:title=" ">
<polygon fill="#e0e0e0" stroke="#999999" points="71.5,-134.5 24.5,-134.5 24.5,-115.5 71.5,-115.5 71.5,-134.5"/>
<text text-anchor="middle" x="48" y="-122.5" font-family="Helvetica,sans-Serif" font-size="10.00">vector</text>
</a>
</g>
</g>
<!-- Node2&#45;&gt;Node5 -->
<g id="edge4_Node000002_Node000005" class="edge">
<title>Node2&#45;&gt;Node5</title>
<g id="a_edge4_Node000002_Node000005"><a xlink:title=" ">
<path fill="none" stroke="#63b8ff" d="M86.13,-175.8C78.71,-166.11 68.86,-153.24 61.02,-143.01"/>
<polygon fill="#63b8ff" stroke="#63b8ff" points="63.63,-140.66 54.77,-134.84 58.07,-144.91 63.63,-140.66"/>
</a>
</g>
</g>
<!-- Node4 -->
<g id="Node000004" class="node">
<title>Node4</title>
<g id="a_Node000004"><a xlink:title=" ">
<polygon fill="#e0e0e0" stroke="#999999" points="179,-74 115,-74 115,-55 179,-55 179,-74"/>
<text text-anchor="middle" x="147" y="-62" font-family="Helvetica,sans-Serif" font-size="10.00">algorithm</text>
</a>
</g>
</g>
<!-- Node3&#45;&gt;Node4 -->
<g id="edge3_Node000003_Node000004" class="edge">
<title>Node3&#45;&gt;Node4</title>
<g id="a_edge3_Node000003_Node000004"><a xlink:title=" ">
<path fill="none" stroke="#63b8ff" d="M147,-115.37C147,-107.25 147,-94.81 147,-84.39"/>
<polygon fill="#63b8ff" stroke="#63b8ff" points="150.5,-84.17 147,-74.17 143.5,-84.17 150.5,-84.17"/>
</a>
</g>
</g>
<!-- Node6&#45;&gt;Node7 -->
<g id="edge6_Node000006_Node000007" class="edge">
<title>Node6&#45;&gt;Node7</title>
<g id="a_edge6_Node000006_Node000007"><a xlink:title=" ">
<path fill="none" stroke="#63b8ff" d="M573.65,-109.84C579.84,-101.61 587.69,-91.18 594.21,-82.51"/>
<polygon fill="#63b8ff" stroke="#63b8ff" points="597.19,-84.36 600.41,-74.27 591.6,-80.15 597.19,-84.36"/>
</a>
</g>
</g>
<!-- Node8 -->
<g id="Node000008" class="node">
<title>Node8</title>
<g id="a_Node000008"><a xlink:title=" ">
<polygon fill="#e0e0e0" stroke="#999999" points="632.5,-19 581.5,-19 581.5,0 632.5,0 632.5,-19"/>
<text text-anchor="middle" x="607" y="-7" font-family="Helvetica,sans-Serif" font-size="10.00">math.h</text>
</a>
</g>
</g>
<!-- Node7&#45;&gt;Node8 -->
<g id="edge7_Node000007_Node000008" class="edge">
<title>Node7&#45;&gt;Node8</title>
<g id="a_edge7_Node000007_Node000008"><a xlink:title=" ">
<path fill="none" stroke="#63b8ff" d="M607,-54.75C607,-47.8 607,-37.85 607,-29.13"/>
<polygon fill="#63b8ff" stroke="#63b8ff" points="610.5,-29.09 607,-19.09 603.5,-29.09 610.5,-29.09"/>
</a>
</g>
</g>
<!-- Node9&#45;&gt;Node6 -->
<g id="edge10_Node000009_Node000006" class="edge">
<title>Node9&#45;&gt;Node6</title>
<g id="a_edge10_Node000009_Node000006"><a xlink:title=" ">
<path fill="none" stroke="#63b8ff" d="M477.92,-175.95C493.25,-166.95 513.36,-155.14 530.18,-145.27"/>
<polygon fill="#63b8ff" stroke="#63b8ff" points="532.28,-148.09 539.14,-140.01 528.74,-142.06 532.28,-148.09"/>
</a>
</g>
</g>
<!-- Node9&#45;&gt;Node7 -->
<g id="edge11_Node000009_Node000007" class="edge">
<title>Node9&#45;&gt;Node7</title>
<g id="a_edge11_Node000009_Node000007"><a xlink:title=" ">
<path fill="none" stroke="#63b8ff" d="M457.64,-175.94C462.88,-158.3 474.18,-128.14 494,-110 511.25,-94.21 534.77,-83.75 555.89,-76.96"/>
<polygon fill="#63b8ff" stroke="#63b8ff" points="557.14,-80.24 565.7,-74.01 555.12,-73.54 557.14,-80.24"/>
</a>
</g>
</g>
<!-- Node10&#45;&gt;Node6 -->
<g id="edge13_Node000010_Node000006" class="edge">
<title>Node10&#45;&gt;Node6</title>
<g id="a_edge13_Node000010_Node000006"><a xlink:title=" ">
<path fill="none" stroke="#63b8ff" d="M629.91,-175.8C618.22,-167.1 603.07,-155.82 590.15,-146.2"/>
<polygon fill="#63b8ff" stroke="#63b8ff" points="592.14,-143.33 582.03,-140.16 587.97,-148.94 592.14,-143.33"/>
</a>
</g>
</g>
<!-- Node10&#45;&gt;Node7 -->
<g id="edge14_Node000010_Node000007" class="edge">
<title>Node10&#45;&gt;Node7</title>
<g id="a_edge14_Node000010_Node000007"><a xlink:title=" ">
<path fill="none" stroke="#63b8ff" d="M647.3,-175.76C645.05,-159.47 640.37,-132.19 632,-110 628.49,-100.69 623.24,-90.98 618.47,-83.02"/>
<polygon fill="#63b8ff" stroke="#63b8ff" points="621.29,-80.93 613.01,-74.31 615.36,-84.64 621.29,-80.93"/>
</a>
</g>
</g>
<!-- Node11&#45;&gt;Node6 -->
<g id="edge16_Node000011_Node000006" class="edge">
<title>Node11&#45;&gt;Node6</title>
<g id="a_edge16_Node000011_Node000006"><a xlink:title=" ">
<path fill="none" stroke="#63b8ff" d="M343.67,-175.95C387.77,-165.91 447.19,-152.38 493.06,-141.93"/>
<polygon fill="#63b8ff" stroke="#63b8ff" points="493.95,-145.32 502.92,-139.68 492.4,-138.49 493.95,-145.32"/>
</a>
</g>
</g>
<!-- Node11&#45;&gt;Node7 -->
<g id="edge17_Node000011_Node000007" class="edge">
<title>Node11&#45;&gt;Node7</title>
<g id="a_edge17_Node000011_Node000007"><a xlink:title=" ">
<path fill="none" stroke="#63b8ff" d="M312.42,-175.96C349.14,-159.25 412.94,-130.98 469,-110 502.07,-97.62 540.33,-85.45 568.17,-76.97"/>
<polygon fill="#63b8ff" stroke="#63b8ff" points="569.36,-80.27 577.92,-74.02 567.34,-73.57 569.36,-80.27"/>
</a>
</g>
</g>
<!-- Node12&#45;&gt;Node6 -->
<g id="edge20_Node000012_Node000006" class="edge">
<title>Node12&#45;&gt;Node6</title>
<g id="a_edge20_Node000012_Node000006"><a xlink:title=" ">
<path fill="none" stroke="#63b8ff" d="M766.72,-175.95C726.44,-166.08 672.38,-152.82 630.08,-142.45"/>
<polygon fill="#63b8ff" stroke="#63b8ff" points="630.69,-138.99 620.14,-140.01 629.02,-145.79 630.69,-138.99"/>
</a>
</g>
</g>
<!-- Node12&#45;&gt;Node7 -->
<g id="edge21_Node000012_Node000007" class="edge">
<title>Node12&#45;&gt;Node7</title>
<g id="a_edge21_Node000012_Node000007"><a xlink:title=" ">
<path fill="none" stroke="#63b8ff" d="M824.64,-175.99C824.65,-158.11 821.81,-127.41 804,-110 787.09,-93.47 733.29,-82 686.18,-74.85"/>
<polygon fill="#63b8ff" stroke="#63b8ff" points="686.65,-71.39 676.25,-73.39 685.63,-78.31 686.65,-71.39"/>
</a>
</g>
</g>
<!-- Node13 -->
<g id="Node000013" class="node">
<title>Node13</title>
<g id="a_Node000013"><a xlink:href="Matrix_8hpp.html" target="_top" xlink:title="Fixed&#45;size generic matrix template used across geometry types.">
<polygon fill="white" stroke="#666666" points="795.5,-134.5 682.5,-134.5 682.5,-115.5 795.5,-115.5 795.5,-134.5"/>
<text text-anchor="middle" x="739" y="-122.5" font-family="Helvetica,sans-Serif" font-size="10.00">../Matrix/Matrix.hpp</text>
</a>
</g>
</g>
<!-- Node12&#45;&gt;Node13 -->
<g id="edge19_Node000012_Node000013" class="edge">
<title>Node12&#45;&gt;Node13</title>
<g id="a_edge19_Node000012_Node000013"><a xlink:title=" ">
<path fill="none" stroke="#63b8ff" d="M805.14,-175.8C791.36,-165.43 772.74,-151.4 758.76,-140.88"/>
<polygon fill="#63b8ff" stroke="#63b8ff" points="760.84,-138.06 750.75,-134.84 756.63,-143.66 760.84,-138.06"/>
</a>
</g>
</g>
</g>
</svg>
