<?xml version="1.0" encoding="UTF-8" standalone="no"?>
<!DOCTYPE svg PUBLIC "-//W3C//DTD SVG 1.1//EN"
 "http://www.w3.org/Graphics/SVG/1.1/DTD/svg11.dtd">
<!-- Generated by graphviz version 2.43.0 (0)
 -->
<!-- Title: src/SceneSystem/Camera/Camera.hpp Pages: 1 -->
<svg width="535pt" height="500pt"
 viewBox="0.00 0.00 535.00 500.00" xmlns="http://www.w3.org/2000/svg" xmlns:xlink="http://www.w3.org/1999/xlink">
<g id="graph0" class="graph" transform="scale(1 1) rotate(0) translate(4 496)">
<title>src/SceneSystem/Camera/Camera.hpp</title>
<!-- Node1 -->
<g id="Node000001" class="node">
<title>Node1</title>
<g id="a_Node000001"><a xlink:title=" ">
<polygon fill="#999999" stroke="#666666" points="218,-492 77,-492 77,-462 218,-462 218,-492"/>
<text text-anchor="start" x="85" y="-480" font-family="Helvetica,sans-Serif" font-size="10.00">src/SceneSystem/Camera</text>
<text text-anchor="middle" x="147.5" y="-469" font-family="Helvetica,sans-Serif" font-size="10.00">/Camera.hpp</text>
</a>
</g>
</g>
<!-- Node2 -->
<g id="Node000002" class="node">
<title>Node2</title>
<g id="a_Node000002"><a xlink:href="Camera_8cpp.html" target="_top" xlink:title=" ">
<polygon fill="white" stroke="#666666" points="141,-426 0,-426 0,-396 141,-396 141,-426"/>
<text text-anchor="start" x="8" y="-414" font-family="Helvetica,sans-Serif" font-size="10.00">src/SceneSystem/Camera</text>
<text text-anchor="middle" x="70.5" y="-403" font-family="Helvetica,sans-Serif" font-size="10.00">/Camera.cpp</text>
</a>
</g>
</g>
<!-- Node1&#45;&gt;Node2 -->
<g id="edge1_Node000001_Node000002" class="edge">
<title>Node1&#45;&gt;Node2</title>
<g id="a_edge1_Node000001_Node000002"><a xlink:title=" ">
<path fill="none" stroke="#63b8ff" d="M122.48,-455.2C111.05,-445.7 97.8,-434.69 87.54,-426.16"/>
<polygon fill="#63b8ff" stroke="#63b8ff" points="120.48,-458.1 130.41,-461.8 124.96,-452.71 120.48,-458.1"/>
</a>
</g>
</g>
<!-- Node3 -->
<g id="Node000003" class="node">
<title>Node3</title>
<g id="a_Node000003"><a xlink:href="Scene_8hpp.html" target="_top" xlink:title=" ">
<polygon fill="white" stroke="#666666" points="291.5,-426 159.5,-426 159.5,-396 291.5,-396 291.5,-426"/>
<text text-anchor="start" x="167.5" y="-414" font-family="Helvetica,sans-Serif" font-size="10.00">src/SceneSystem/Scene</text>
<text text-anchor="middle" x="225.5" y="-403" font-family="Helvetica,sans-Serif" font-size="10.00">/Scene.hpp</text>
</a>
</g>
</g>
<!-- Node1&#45;&gt;Node3 -->
<g id="edge2_Node000001_Node000003" class="edge">
<title>Node1&#45;&gt;Node3</title>
<g id="a_edge2_Node000001_Node000003"><a xlink:title=" ">
<path fill="none" stroke="#63b8ff" d="M172.85,-455.2C184.43,-445.7 197.85,-434.69 208.24,-426.16"/>
<polygon fill="#63b8ff" stroke="#63b8ff" points="170.32,-452.75 164.81,-461.8 174.76,-458.16 170.32,-452.75"/>
</a>
</g>
</g>
<!-- Node4 -->
<g id="Node000004" class="node">
<title>Node4</title>
<g id="a_Node000004"><a xlink:href="ILight_8hpp.html" target="_top" xlink:title=" ">
<polygon fill="white" stroke="#666666" points="284,-360 167,-360 167,-330 284,-330 284,-360"/>
<text text-anchor="start" x="175" y="-348" font-family="Helvetica,sans-Serif" font-size="10.00">src/Objects/Interface</text>
<text text-anchor="middle" x="225.5" y="-337" font-family="Helvetica,sans-Serif" font-size="10.00">/ILight.hpp</text>
</a>
</g>
</g>
<!-- Node3&#45;&gt;Node4 -->
<g id="edge3_Node000003_Node000004" class="edge">
<title>Node3&#45;&gt;Node4</title>
<g id="a_edge3_Node000003_Node000004"><a xlink:title=" ">
<path fill="none" stroke="#63b8ff" d="M218.93,-385.83C218.52,-377.17 218.81,-367.7 219.79,-360.16"/>
<polygon fill="#63b8ff" stroke="#63b8ff" points="215.45,-386.13 219.78,-395.8 222.42,-385.54 215.45,-386.13"/>
</a>
</g>
</g>
<!-- Node13 -->
<g id="Node000013" class="node">
<title>Node13</title>
<g id="a_Node000013"><a xlink:href="Renderer_8hpp.html" target="_top" xlink:title=" ">
<polygon fill="white" stroke="#666666" points="159.5,-222.5 13.5,-222.5 13.5,-203.5 159.5,-203.5 159.5,-222.5"/>
<text text-anchor="middle" x="86.5" y="-210.5" font-family="Helvetica,sans-Serif" font-size="10.00">src/Renderer/Renderer.hpp</text>
</a>
</g>
</g>
<!-- Node3&#45;&gt;Node13 -->
<g id="edge21_Node000003_Node000013" class="edge">
<title>Node3&#45;&gt;Node13</title>
<g id="a_edge21_Node000003_Node000013"><a xlink:title=" ">
<path fill="none" stroke="#63b8ff" d="M192.02,-390.19C180.06,-381.95 167.16,-371.6 157.5,-360 119.97,-314.96 96.56,-246.73 89.09,-222.72"/>
<polygon fill="#63b8ff" stroke="#63b8ff" points="190.23,-393.21 200.51,-395.81 194.1,-387.37 190.23,-393.21"/>
</a>
</g>
</g>
<!-- Node15 -->
<g id="Node000015" class="node">
<title>Node15</title>
<g id="a_Node000015"><a xlink:href="Scene_8cpp.html" target="_top" xlink:title=" ">
<polygon fill="white" stroke="#666666" points="434.5,-360 302.5,-360 302.5,-330 434.5,-330 434.5,-360"/>
<text text-anchor="start" x="310.5" y="-348" font-family="Helvetica,sans-Serif" font-size="10.00">src/SceneSystem/Scene</text>
<text text-anchor="middle" x="368.5" y="-337" font-family="Helvetica,sans-Serif" font-size="10.00">/Scene.cpp</text>
</a>
</g>
</g>
<!-- Node3&#45;&gt;Node15 -->
<g id="edge22_Node000003_Node000015" class="edge">
<title>Node3&#45;&gt;Node15</title>
<g id="a_edge22_Node000003_Node000015"><a xlink:title=" ">
<path fill="none" stroke="#63b8ff" d="M266.2,-391.78C288.75,-381.69 316.34,-369.34 337.19,-360.01"/>
<polygon fill="#63b8ff" stroke="#63b8ff" points="264.58,-388.68 256.88,-395.95 267.44,-395.06 264.58,-388.68"/>
</a>
</g>
</g>
<!-- Node4&#45;&gt;Node3 -->
<g id="edge20_Node000004_Node000003" class="edge">
<title>Node4&#45;&gt;Node3</title>
<g id="a_edge20_Node000004_Node000003"><a xlink:title=" ">
<path fill="none" stroke="#63b8ff" d="M232.07,-370.13C232.48,-378.78 232.2,-388.26 231.22,-395.8"/>
<polygon fill="#63b8ff" stroke="#63b8ff" points="235.55,-369.83 231.21,-360.16 228.58,-370.43 235.55,-369.83"/>
</a>
</g>
</g>
<!-- Node5 -->
<g id="Node000005" class="node">
<title>Node5</title>
<g id="a_Node000005"><a xlink:href="IMaterial_8hpp.html" target="_top" xlink:title=" ">
<polygon fill="white" stroke="#666666" points="284,-294 167,-294 167,-264 284,-264 284,-294"/>
<text text-anchor="start" x="175" y="-282" font-family="Helvetica,sans-Serif" font-size="10.00">src/Objects/Interface</text>
<text text-anchor="middle" x="225.5" y="-271" font-family="Helvetica,sans-Serif" font-size="10.00">/IMaterial.hpp</text>
</a>
</g>
</g>
<!-- Node4&#45;&gt;Node5 -->
<g id="edge4_Node000004_Node000005" class="edge">
<title>Node4&#45;&gt;Node5</title>
<g id="a_edge4_Node000004_Node000005"><a xlink:title=" ">
<path fill="none" stroke="#63b8ff" d="M225.5,-319.54C225.5,-310.96 225.5,-301.61 225.5,-294.16"/>
<polygon fill="#63b8ff" stroke="#63b8ff" points="222,-319.8 225.5,-329.8 229,-319.8 222,-319.8"/>
</a>
</g>
</g>
<!-- Node4&#45;&gt;Node13 -->
<g id="edge19_Node000004_Node000013" class="edge">
<title>Node4&#45;&gt;Node13</title>
<g id="a_edge19_Node000004_Node000013"><a xlink:title=" ">
<path fill="none" stroke="#63b8ff" d="M195.53,-324.03C183.29,-315.35 169.26,-304.73 157.5,-294 131.71,-270.47 105.51,-238.36 93.41,-222.96"/>
<polygon fill="#63b8ff" stroke="#63b8ff" points="193.87,-327.14 204.08,-329.98 197.87,-321.4 193.87,-327.14"/>
</a>
</g>
</g>
<!-- Node6 -->
<g id="Node000006" class="node">
<title>Node6</title>
<g id="a_Node000006"><a xlink:href="HitRecord_8hpp.html" target="_top" xlink:title=" ">
<polygon fill="white" stroke="#666666" points="387.5,-228 253.5,-228 253.5,-198 387.5,-198 387.5,-228"/>
<text text-anchor="start" x="261.5" y="-216" font-family="Helvetica,sans-Serif" font-size="10.00">src/Geometry/HitRecord</text>
<text text-anchor="middle" x="320.5" y="-205" font-family="Helvetica,sans-Serif" font-size="10.00">/HitRecord.hpp</text>
</a>
</g>
</g>
<!-- Node5&#45;&gt;Node6 -->
<g id="edge5_Node000005_Node000006" class="edge">
<title>Node5&#45;&gt;Node6</title>
<g id="a_edge5_Node000005_Node000006"><a xlink:title=" ">
<path fill="none" stroke="#63b8ff" d="M249.23,-257.75C262.79,-248.13 279.73,-236.86 293.76,-228.16"/>
<polygon fill="#63b8ff" stroke="#63b8ff" points="246.92,-255.1 240.86,-263.8 251.02,-260.78 246.92,-255.1"/>
</a>
</g>
</g>
<!-- Node9 -->
<g id="Node000009" class="node">
<title>Node9</title>
<g id="a_Node000009"><a xlink:href="APrimitive_8hpp.html" target="_top" xlink:title=" ">
<polygon fill="white" stroke="#666666" points="509.5,-96 363.5,-96 363.5,-66 509.5,-66 509.5,-96"/>
<text text-anchor="start" x="371.5" y="-84" font-family="Helvetica,sans-Serif" font-size="10.00">src/Objects/Abstract</text>
<text text-anchor="middle" x="436.5" y="-73" font-family="Helvetica,sans-Serif" font-size="10.00">/APrimitive/APrimitive.hpp</text>
</a>
</g>
</g>
<!-- Node5&#45;&gt;Node9 -->
<g id="edge15_Node000005_Node000009" class="edge">
<title>Node5&#45;&gt;Node9</title>
<g id="a_edge15_Node000005_Node000009"><a xlink:title=" ">
<path fill="none" stroke="#63b8ff" d="M221.14,-253.66C216.91,-221.67 214.86,-165.61 244.5,-132 260.39,-113.98 315.98,-100.75 363.28,-92.44"/>
<polygon fill="#63b8ff" stroke="#63b8ff" points="217.73,-254.52 222.68,-263.89 224.65,-253.48 217.73,-254.52"/>
</a>
</g>
</g>
<!-- Node11 -->
<g id="Node000011" class="node">
<title>Node11</title>
<g id="a_Node000011"><a xlink:href="Plane_8hpp.html" target="_top" xlink:title=" ">
<polygon fill="white" stroke="#666666" points="313,-96 190,-96 190,-66 313,-66 313,-96"/>
<text text-anchor="start" x="198" y="-84" font-family="Helvetica,sans-Serif" font-size="10.00">src/Objects/Primitives</text>
<text text-anchor="middle" x="251.5" y="-73" font-family="Helvetica,sans-Serif" font-size="10.00">/Plane/Plane.hpp</text>
</a>
</g>
</g>
<!-- Node5&#45;&gt;Node11 -->
<g id="edge16_Node000005_Node000011" class="edge">
<title>Node5&#45;&gt;Node11</title>
<g id="a_edge16_Node000005_Node000011"><a xlink:title=" ">
<path fill="none" stroke="#63b8ff" d="M217.13,-253.99C208.18,-224.43 197.09,-173.09 211.5,-132 216.36,-118.15 226.84,-105.29 235.86,-96.08"/>
<polygon fill="#63b8ff" stroke="#63b8ff" points="213.9,-255.38 220.28,-263.84 220.56,-253.25 213.9,-255.38"/>
</a>
</g>
</g>
<!-- Node5&#45;&gt;Node13 -->
<g id="edge17_Node000005_Node000013" class="edge">
<title>Node5&#45;&gt;Node13</title>
<g id="a_edge17_Node000005_Node000013"><a xlink:title=" ">
<path fill="none" stroke="#63b8ff" d="M185.58,-259.62C159.06,-247.41 125.46,-231.94 105,-222.52"/>
<polygon fill="#63b8ff" stroke="#63b8ff" points="184.45,-262.95 195,-263.95 187.38,-256.59 184.45,-262.95"/>
</a>
</g>
</g>
<!-- Node6&#45;&gt;Node4 -->
<g id="edge7_Node000006_Node000004" class="edge">
<title>Node6&#45;&gt;Node4</title>
<g id="a_edge7_Node000006_Node000004"><a xlink:title=" ">
<path fill="none" stroke="#63b8ff" d="M315.92,-238.36C311.86,-255.2 304.64,-277.46 292.5,-294 281.68,-308.74 265.28,-321.09 251.41,-329.82"/>
<polygon fill="#63b8ff" stroke="#63b8ff" points="319.43,-238.71 318.15,-228.19 312.59,-237.21 319.43,-238.71"/>
</a>
</g>
</g>
<!-- Node6&#45;&gt;Node5 -->
<g id="edge8_Node000006_Node000005" class="edge">
<title>Node6&#45;&gt;Node5</title>
<g id="a_edge8_Node000006_Node000005"><a xlink:title=" ">
<path fill="none" stroke="#63b8ff" d="M296.99,-234.1C283.32,-243.8 266.19,-255.2 252.05,-263.95"/>
<polygon fill="#63b8ff" stroke="#63b8ff" points="299.35,-236.71 305.4,-228.01 295.24,-231.04 299.35,-236.71"/>
</a>
</g>
</g>
<!-- Node7 -->
<g id="Node000007" class="node">
<title>Node7</title>
<g id="a_Node000007"><a xlink:href="AMaterial_8hpp.html" target="_top" xlink:title=" ">
<polygon fill="white" stroke="#666666" points="391.5,-162 253.5,-162 253.5,-132 391.5,-132 391.5,-162"/>
<text text-anchor="start" x="261.5" y="-150" font-family="Helvetica,sans-Serif" font-size="10.00">src/Objects/Abstract</text>
<text text-anchor="middle" x="322.5" y="-139" font-family="Helvetica,sans-Serif" font-size="10.00">/AMaterial/AMaterial.hpp</text>
</a>
</g>
</g>
<!-- Node6&#45;&gt;Node7 -->
<g id="edge6_Node000006_Node000007" class="edge">
<title>Node6&#45;&gt;Node7</title>
<g id="a_edge6_Node000006_Node000007"><a xlink:title=" ">
<path fill="none" stroke="#63b8ff" d="M321.26,-187.54C321.53,-178.96 321.82,-169.61 322.06,-162.16"/>
<polygon fill="#63b8ff" stroke="#63b8ff" points="317.76,-187.69 320.94,-197.8 324.75,-187.91 317.76,-187.69"/>
</a>
</g>
</g>
<!-- Node8 -->
<g id="Node000008" class="node">
<title>Node8</title>
<g id="a_Node000008"><a xlink:href="IPrimitive_8hpp.html" target="_top" xlink:title=" ">
<polygon fill="white" stroke="#666666" points="527,-162 410,-162 410,-132 527,-132 527,-162"/>
<text text-anchor="start" x="418" y="-150" font-family="Helvetica,sans-Serif" font-size="10.00">src/Objects/Interface</text>
<text text-anchor="middle" x="468.5" y="-139" font-family="Helvetica,sans-Serif" font-size="10.00">/IPrimitive.hpp</text>
</a>
</g>
</g>
<!-- Node6&#45;&gt;Node8 -->
<g id="edge9_Node000006_Node000008" class="edge">
<title>Node6&#45;&gt;Node8</title>
<g id="a_edge9_Node000006_Node000008"><a xlink:title=" ">
<path fill="none" stroke="#63b8ff" d="M362.31,-193.92C385.7,-183.8 414.42,-171.38 436.1,-162.01"/>
<polygon fill="#63b8ff" stroke="#63b8ff" points="360.77,-190.77 352.98,-197.95 363.55,-197.2 360.77,-190.77"/>
</a>
</g>
</g>
<!-- Node8&#45;&gt;Node3 -->
<g id="edge14_Node000008_Node000003" class="edge">
<title>Node8&#45;&gt;Node3</title>
<g id="a_edge14_Node000008_Node000003"><a xlink:title=" ">
<path fill="none" stroke="#63b8ff" d="M473.65,-171.99C481.44,-215.4 490.73,-307.36 443.5,-360 423.47,-382.33 348.21,-395.91 291.69,-403.18"/>
<polygon fill="#63b8ff" stroke="#63b8ff" points="477.06,-171.21 471.73,-162.05 470.19,-172.53 477.06,-171.21"/>
</a>
</g>
</g>
<!-- Node8&#45;&gt;Node9 -->
<g id="edge10_Node000008_Node000009" class="edge">
<title>Node8&#45;&gt;Node9</title>
<g id="a_edge10_Node000008_Node000009"><a xlink:title=" ">
<path fill="none" stroke="#63b8ff" d="M456.84,-122.68C452.4,-113.79 447.47,-103.95 443.58,-96.16"/>
<polygon fill="#63b8ff" stroke="#63b8ff" points="453.8,-124.42 461.4,-131.8 460.06,-121.29 453.8,-124.42"/>
</a>
</g>
</g>
<!-- Node8&#45;&gt;Node11 -->
<g id="edge12_Node000008_Node000011" class="edge">
<title>Node8&#45;&gt;Node11</title>
<g id="a_edge12_Node000008_Node000011"><a xlink:title=" ">
<path fill="none" stroke="#63b8ff" d="M411.27,-129.12C376.28,-118.8 332.06,-105.76 299.01,-96.01"/>
<polygon fill="#63b8ff" stroke="#63b8ff" points="410.3,-132.48 420.88,-131.95 412.28,-125.77 410.3,-132.48"/>
</a>
</g>
</g>
<!-- Node10 -->
<g id="Node000010" class="node">
<title>Node10</title>
<g id="a_Node000010"><a xlink:href="APrimitive_8cpp.html" target="_top" xlink:title=" ">
<polygon fill="white" stroke="#666666" points="509,-30 364,-30 364,0 509,0 509,-30"/>
<text text-anchor="start" x="372" y="-18" font-family="Helvetica,sans-Serif" font-size="10.00">src/Objects/Abstract</text>
<text text-anchor="middle" x="436.5" y="-7" font-family="Helvetica,sans-Serif" font-size="10.00">/APrimitive/APrimitive.cpp</text>
</a>
</g>
</g>
<!-- Node9&#45;&gt;Node10 -->
<g id="edge11_Node000009_Node000010" class="edge">
<title>Node9&#45;&gt;Node10</title>
<g id="a_edge11_Node000009_Node000010"><a xlink:title=" ">
<path fill="none" stroke="#63b8ff" d="M436.5,-55.54C436.5,-46.96 436.5,-37.61 436.5,-30.16"/>
<polygon fill="#63b8ff" stroke="#63b8ff" points="433,-55.8 436.5,-65.8 440,-55.8 433,-55.8"/>
</a>
</g>
</g>
<!-- Node12 -->
<g id="Node000012" class="node">
<title>Node12</title>
<g id="a_Node000012"><a xlink:href="Plane_8cpp.html" target="_top" xlink:title=" ">
<polygon fill="white" stroke="#666666" points="313,-30 190,-30 190,0 313,0 313,-30"/>
<text text-anchor="start" x="198" y="-18" font-family="Helvetica,sans-Serif" font-size="10.00">src/Objects/Primitives</text>
<text text-anchor="middle" x="251.5" y="-7" font-family="Helvetica,sans-Serif" font-size="10.00">/Plane/Plane.cpp</text>
</a>
</g>
</g>
<!-- Node11&#45;&gt;Node12 -->
<g id="edge13_Node000011_Node000012" class="edge">
<title>Node11&#45;&gt;Node12</title>
<g id="a_edge13_Node000011_Node000012"><a xlink:title=" ">
<path fill="none" stroke="#63b8ff" d="M251.5,-55.54C251.5,-46.96 251.5,-37.61 251.5,-30.16"/>
<polygon fill="#63b8ff" stroke="#63b8ff" points="248,-55.8 251.5,-65.8 255,-55.8 248,-55.8"/>
</a>
</g>
</g>
<!-- Node14 -->
<g id="Node000014" class="node">
<title>Node14</title>
<g id="a_Node000014"><a xlink:href="Renderer_8cpp.html" target="_top" xlink:title=" ">
<polygon fill="white" stroke="#666666" points="159,-156.5 14,-156.5 14,-137.5 159,-137.5 159,-156.5"/>
<text text-anchor="middle" x="86.5" y="-144.5" font-family="Helvetica,sans-Serif" font-size="10.00">src/Renderer/Renderer.cpp</text>
</a>
</g>
</g>
<!-- Node13&#45;&gt;Node14 -->
<g id="edge18_Node000013_Node000014" class="edge">
<title>Node13&#45;&gt;Node14</title>
<g id="a_edge18_Node000013_Node000014"><a xlink:title=" ">
<path fill="none" stroke="#63b8ff" d="M86.5,-193.08C86.5,-181.13 86.5,-166.22 86.5,-156.91"/>
<polygon fill="#63b8ff" stroke="#63b8ff" points="83,-193.37 86.5,-203.37 90,-193.37 83,-193.37"/>
</a>
</g>
</g>
</g>
</svg>
