<?xml version="1.0" encoding="UTF-8" standalone="no"?>
<!DOCTYPE svg PUBLIC "-//W3C//DTD SVG 1.1//EN"
 "http://www.w3.org/Graphics/SVG/1.1/DTD/svg11.dtd">
<!-- Generated by graphviz version 2.43.0 (0)
 -->
<!-- Title: src/SceneSystem/Camera/Camera.cpp Pages: 1 -->
<svg width="330pt" height="335pt"
 viewBox="0.00 0.00 329.57 335.00" xmlns="http://www.w3.org/2000/svg" xmlns:xlink="http://www.w3.org/1999/xlink">

<svg id="main" version="1.1" xmlns="http://www.w3.org/2000/svg" xmlns:xlink="http://www.w3.org/1999/xlink" xml:space="preserve" onload="init(evt)">
<style type="text/css"><![CDATA[
.node, .edge {opacity: 0.7;}
.node.selected, .edge.selected {opacity: 1;}
.edge:hover path { stroke: red; }
.edge:hover polygon { stroke: red; fill: red; }
]]></style>
<script type="application/ecmascript" xlink:href="svg.min.js"/>
<svg id="graph" class="graph">
<g id="graph0" class="graph" transform="scale(1 1) rotate(0) translate(4 331)">
<title>src/SceneSystem/Camera/Camera.cpp</title>
<!-- Node1 -->
<g id="Node000001" class="node">
<title>Node1</title>
<g id="a_Node000001"><a xlink:title=" ">
<polygon fill="#999999" stroke="#666666" points="208.57,-327 67.57,-327 67.57,-297 208.57,-297 208.57,-327"/>
<text text-anchor="start" x="75.57" y="-315" font-family="Helvetica,sans-Serif" font-size="10.00">src/SceneSystem/Camera</text>
<text text-anchor="middle" x="138.07" y="-304" font-family="Helvetica,sans-Serif" font-size="10.00">/Camera.cpp</text>
</a>
</g>
</g>
<!-- Node2 -->
<g id="Node000002" class="node">
<title>Node2</title>
<g id="a_Node000002"><a xlink:href="Camera_8hpp.html" target="_top" xlink:title=" ">
<polygon fill="white" stroke="#666666" points="176.07,-261 100.07,-261 100.07,-242 176.07,-242 176.07,-261"/>
<text text-anchor="middle" x="138.07" y="-249" font-family="Helvetica,sans-Serif" font-size="10.00">Camera.hpp</text>
</a>
</g>
</g>
<!-- Node1&#45;&gt;Node2 -->
<g id="edge1_Node000001_Node000002" class="edge">
<title>Node1&#45;&gt;Node2</title>
<g id="a_edge1_Node000001_Node000002"><a xlink:title=" ">
<path fill="none" stroke="#63b8ff" d="M138.07,-296.84C138.07,-289.21 138.07,-279.7 138.07,-271.45"/>
<polygon fill="#63b8ff" stroke="#63b8ff" points="141.57,-271.27 138.07,-261.27 134.57,-271.27 141.57,-271.27"/>
</a>
</g>
</g>
<!-- Node3 -->
<g id="Node000003" class="node">
<title>Node3</title>
<g id="a_Node000003"><a xlink:href="Point3D_8hpp.html" target="_top" xlink:title=" ">
<polygon fill="white" stroke="#666666" points="241.57,-140 116.57,-140 116.57,-110 241.57,-110 241.57,-140"/>
<text text-anchor="start" x="124.57" y="-128" font-family="Helvetica,sans-Serif" font-size="10.00">../../Geometry/Point3D</text>
<text text-anchor="middle" x="179.07" y="-117" font-family="Helvetica,sans-Serif" font-size="10.00">/Point3D.hpp</text>
</a>
</g>
</g>
<!-- Node2&#45;&gt;Node3 -->
<g id="edge2_Node000002_Node000003" class="edge">
<title>Node2&#45;&gt;Node3</title>
<g id="a_edge2_Node000002_Node000003"><a xlink:title=" ">
<path fill="none" stroke="#63b8ff" d="M145.59,-241.97C152.62,-233.48 162.82,-219.75 168.07,-206 174.9,-188.12 177.58,-166.57 178.58,-150.34"/>
<polygon fill="#63b8ff" stroke="#63b8ff" points="182.09,-150.21 179.05,-140.06 175.1,-149.89 182.09,-150.21"/>
</a>
</g>
</g>
<!-- Node4 -->
<g id="Node000004" class="node">
<title>Node4</title>
<g id="a_Node000004"><a xlink:href="Vector3D_8hpp.html" target="_top" xlink:title=" ">
<polygon fill="white" stroke="#666666" points="202.07,-74 64.07,-74 64.07,-55 202.07,-55 202.07,-74"/>
<text text-anchor="middle" x="133.07" y="-62" font-family="Helvetica,sans-Serif" font-size="10.00">../Vector3D/Vector3D.hpp</text>
</a>
</g>
</g>
<!-- Node2&#45;&gt;Node4 -->
<g id="edge5_Node000002_Node000004" class="edge">
<title>Node2&#45;&gt;Node4</title>
<g id="a_edge5_Node000002_Node000004"><a xlink:title=" ">
<path fill="none" stroke="#63b8ff" d="M100.04,-248.74C69.9,-245.1 29.56,-234.74 9.07,-206 -26.88,-155.56 59.22,-102.44 105.72,-78.52"/>
<polygon fill="#63b8ff" stroke="#63b8ff" points="107.35,-81.62 114.72,-74 104.21,-75.36 107.35,-81.62"/>
</a>
</g>
</g>
<!-- Node6 -->
<g id="Node000006" class="node">
<title>Node6</title>
<g id="a_Node000006"><a xlink:href="Rectangle3D_8hpp.html" target="_top" xlink:title=" ">
<polygon fill="white" stroke="#666666" points="159.57,-206 18.57,-206 18.57,-176 159.57,-176 159.57,-206"/>
<text text-anchor="start" x="26.57" y="-194" font-family="Helvetica,sans-Serif" font-size="10.00">../../Geometry/Rectangle3</text>
<text text-anchor="middle" x="89.07" y="-183" font-family="Helvetica,sans-Serif" font-size="10.00">D/Rectangle3D.hpp</text>
</a>
</g>
</g>
<!-- Node2&#45;&gt;Node6 -->
<g id="edge6_Node000002_Node000006" class="edge">
<title>Node2&#45;&gt;Node6</title>
<g id="a_edge6_Node000002_Node000006"><a xlink:title=" ">
<path fill="none" stroke="#63b8ff" d="M130.84,-241.87C124.69,-234.52 115.57,-223.63 107.42,-213.91"/>
<polygon fill="#63b8ff" stroke="#63b8ff" points="110,-211.53 100.9,-206.11 104.63,-216.03 110,-211.53"/>
</a>
</g>
</g>
<!-- Node7 -->
<g id="Node000007" class="node">
<title>Node7</title>
<g id="a_Node000007"><a xlink:href="Ray_8hpp.html" target="_top" xlink:title=" ">
<polygon fill="white" stroke="#666666" points="321.57,-206 216.57,-206 216.57,-176 321.57,-176 321.57,-206"/>
<text text-anchor="start" x="224.57" y="-194" font-family="Helvetica,sans-Serif" font-size="10.00">../../Geometry/Ray</text>
<text text-anchor="middle" x="269.07" y="-183" font-family="Helvetica,sans-Serif" font-size="10.00">/Ray.hpp</text>
</a>
</g>
</g>
<!-- Node2&#45;&gt;Node7 -->
<g id="edge9_Node000002_Node000007" class="edge">
<title>Node2&#45;&gt;Node7</title>
<g id="a_edge9_Node000002_Node000007"><a xlink:title=" ">
<path fill="none" stroke="#63b8ff" d="M157.12,-241.99C175.73,-233.68 204.64,-220.78 228.42,-210.16"/>
<polygon fill="#63b8ff" stroke="#63b8ff" points="229.87,-213.34 237.58,-206.06 227.02,-206.95 229.87,-213.34"/>
</a>
</g>
</g>
<!-- Node3&#45;&gt;Node4 -->
<g id="edge3_Node000003_Node000004" class="edge">
<title>Node3&#45;&gt;Node4</title>
<g id="a_edge3_Node000003_Node000004"><a xlink:title=" ">
<path fill="none" stroke="#63b8ff" d="M167.94,-109.84C161.4,-101.52 153.09,-90.96 146.23,-82.23"/>
<polygon fill="#63b8ff" stroke="#63b8ff" points="148.9,-79.96 139.97,-74.27 143.4,-84.29 148.9,-79.96"/>
</a>
</g>
</g>
<!-- Node5 -->
<g id="Node000005" class="node">
<title>Node5</title>
<g id="a_Node000005"><a xlink:title=" ">
<polygon fill="#e0e0e0" stroke="#999999" points="158.57,-19 107.57,-19 107.57,0 158.57,0 158.57,-19"/>
<text text-anchor="middle" x="133.07" y="-7" font-family="Helvetica,sans-Serif" font-size="10.00">math.h</text>
</a>
</g>
</g>
<!-- Node4&#45;&gt;Node5 -->
<g id="edge4_Node000004_Node000005" class="edge">
<title>Node4&#45;&gt;Node5</title>
<g id="a_edge4_Node000004_Node000005"><a xlink:title=" ">
<path fill="none" stroke="#63b8ff" d="M133.07,-54.75C133.07,-47.8 133.07,-37.85 133.07,-29.13"/>
<polygon fill="#63b8ff" stroke="#63b8ff" points="136.57,-29.09 133.07,-19.09 129.57,-29.09 136.57,-29.09"/>
</a>
</g>
</g>
<!-- Node6&#45;&gt;Node3 -->
<g id="edge7_Node000006_Node000003" class="edge">
<title>Node6&#45;&gt;Node3</title>
<g id="a_edge7_Node000006_Node000003"><a xlink:title=" ">
<path fill="none" stroke="#63b8ff" d="M109.05,-175.8C121.28,-167.1 137.13,-155.82 150.66,-146.2"/>
<polygon fill="#63b8ff" stroke="#63b8ff" points="153.03,-148.81 159.15,-140.16 148.98,-143.11 153.03,-148.81"/>
</a>
</g>
</g>
<!-- Node6&#45;&gt;Node4 -->
<g id="edge8_Node000006_Node000004" class="edge">
<title>Node6&#45;&gt;Node4</title>
<g id="a_edge8_Node000006_Node000004"><a xlink:title=" ">
<path fill="none" stroke="#63b8ff" d="M90.93,-175.74C93.36,-159.43 98.36,-132.12 107.07,-110 110.79,-100.55 116.33,-90.72 121.34,-82.72"/>
<polygon fill="#63b8ff" stroke="#63b8ff" points="124.31,-84.58 126.84,-74.29 118.44,-80.75 124.31,-84.58"/>
</a>
</g>
</g>
<!-- Node7&#45;&gt;Node3 -->
<g id="edge10_Node000007_Node000003" class="edge">
<title>Node7&#45;&gt;Node3</title>
<g id="a_edge10_Node000007_Node000003"><a xlink:title=" ">
<path fill="none" stroke="#63b8ff" d="M249.1,-175.8C236.86,-167.1 221.01,-155.82 207.48,-146.2"/>
<polygon fill="#63b8ff" stroke="#63b8ff" points="209.17,-143.11 198.99,-140.16 205.11,-148.81 209.17,-143.11"/>
</a>
</g>
</g>
<!-- Node7&#45;&gt;Node4 -->
<g id="edge11_Node000007_Node000004" class="edge">
<title>Node7&#45;&gt;Node4</title>
<g id="a_edge11_Node000007_Node000004"><a xlink:title=" ">
<path fill="none" stroke="#63b8ff" d="M269.72,-175.78C269.74,-158.24 267.14,-128.48 251.07,-110 237,-93.81 216.41,-83.5 196.36,-76.93"/>
<polygon fill="#63b8ff" stroke="#63b8ff" points="197.18,-73.52 186.6,-74 195.17,-80.23 197.18,-73.52"/>
</a>
</g>
</g>
</g>
</svg>
</svg>

<style type='text/css'>
<![CDATA[
[data-mouse-over-selected='false'] { opacity: 0.7; }
[data-mouse-over-selected='true']  { opacity: 1.0; }
]]>
</style>
<script type="application/ecmascript"><![CDATA[
document.addEventListener('DOMContentLoaded', (event) => {
  highlightEdges();
  highlightAdjacentNodes();
});
]]></script>
</svg>
