<?xml version="1.0" encoding="UTF-8" standalone="no"?>
<!DOCTYPE svg PUBLIC "-//W3C//DTD SVG 1.1//EN"
 "http://www.w3.org/Graphics/SVG/1.1/DTD/svg11.dtd">
<!-- Generated by graphviz version 2.43.0 (0)
 -->
<!-- Title: src/Objects/Plugins/Renderers/Camera/Camera.cpp Pages: 1 -->
<svg width="954pt" height="170pt"
 viewBox="0.00 0.00 953.50 170.00" xmlns="http://www.w3.org/2000/svg" xmlns:xlink="http://www.w3.org/1999/xlink">
<g id="graph0" class="graph" transform="scale(1 1) rotate(0) translate(4 166)">
<title>src/Objects/Plugins/Renderers/Camera/Camera.cpp</title>
<!-- Node1 -->
<g id="Node000001" class="node">
<title>Node1</title>
<g id="a_Node000001"><a xlink:title=" ">
<polygon fill="#999999" stroke="#666666" points="786.5,-162 614.5,-162 614.5,-132 786.5,-132 786.5,-162"/>
<text text-anchor="start" x="622.5" y="-150" font-family="Helvetica,sans-Serif" font-size="10.00">src/Objects/Plugins</text>
<text text-anchor="middle" x="700.5" y="-139" font-family="Helvetica,sans-Serif" font-size="10.00">/Renderers/Camera/Camera.cpp</text>
</a>
</g>
</g>
<!-- Node2 -->
<g id="Node000002" class="node">
<title>Node2</title>
<g id="a_Node000002"><a xlink:href="Objects_2Plugins_2Renderers_2Camera_2Camera_8hpp.html" target="_top" xlink:title=" ">
<polygon fill="white" stroke="#666666" points="563.5,-90.5 487.5,-90.5 487.5,-71.5 563.5,-71.5 563.5,-90.5"/>
<text text-anchor="middle" x="525.5" y="-78.5" font-family="Helvetica,sans-Serif" font-size="10.00">Camera.hpp</text>
</a>
</g>
</g>
<!-- Node1&#45;&gt;Node2 -->
<g id="edge1_Node000001_Node000002" class="edge">
<title>Node1&#45;&gt;Node2</title>
<g id="a_edge1_Node000001_Node000002"><a xlink:title=" ">
<path fill="none" stroke="#63b8ff" d="M662.1,-131.95C631,-120.58 587.67,-104.74 558.21,-93.96"/>
<polygon fill="#63b8ff" stroke="#63b8ff" points="559.38,-90.66 548.79,-90.52 556.98,-97.24 559.38,-90.66"/>
</a>
</g>
</g>
<!-- Node10 -->
<g id="Node000010" class="node">
<title>Node10</title>
<g id="a_Node000010"><a xlink:title=" ">
<polygon fill="#e0e0e0" stroke="#999999" points="689.5,-90.5 581.5,-90.5 581.5,-71.5 689.5,-71.5 689.5,-90.5"/>
<text text-anchor="middle" x="635.5" y="-78.5" font-family="Helvetica,sans-Serif" font-size="10.00">../Scene/Scene.hpp</text>
</a>
</g>
</g>
<!-- Node1&#45;&gt;Node10 -->
<g id="edge9_Node000001_Node000010" class="edge">
<title>Node1&#45;&gt;Node10</title>
<g id="a_edge9_Node000001_Node000010"><a xlink:title=" ">
<path fill="none" stroke="#63b8ff" d="M686.07,-131.8C675.94,-121.82 662.37,-108.46 651.84,-98.09"/>
<polygon fill="#63b8ff" stroke="#63b8ff" points="654.06,-95.37 644.48,-90.84 649.15,-100.35 654.06,-95.37"/>
</a>
</g>
</g>
<!-- Node11 -->
<g id="Node000011" class="node">
<title>Node11</title>
<g id="a_Node000011"><a xlink:title=" ">
<polygon fill="#e0e0e0" stroke="#999999" points="825.5,-96 707.5,-96 707.5,-66 825.5,-66 825.5,-96"/>
<text text-anchor="start" x="715.5" y="-84" font-family="Helvetica,sans-Serif" font-size="10.00">../../Objects/Interface</text>
<text text-anchor="middle" x="766.5" y="-73" font-family="Helvetica,sans-Serif" font-size="10.00">/IPrimitive.hpp</text>
</a>
</g>
</g>
<!-- Node1&#45;&gt;Node11 -->
<g id="edge10_Node000001_Node000011" class="edge">
<title>Node1&#45;&gt;Node11</title>
<g id="a_edge10_Node000001_Node000011"><a xlink:title=" ">
<path fill="none" stroke="#63b8ff" d="M715.15,-131.8C723.78,-123.43 734.86,-112.68 744.52,-103.31"/>
<polygon fill="#63b8ff" stroke="#63b8ff" points="747.15,-105.64 751.89,-96.16 742.28,-100.61 747.15,-105.64"/>
</a>
</g>
</g>
<!-- Node12 -->
<g id="Node000012" class="node">
<title>Node12</title>
<g id="a_Node000012"><a xlink:title=" ">
<polygon fill="#e0e0e0" stroke="#999999" points="891,-90.5 844,-90.5 844,-71.5 891,-71.5 891,-90.5"/>
<text text-anchor="middle" x="867.5" y="-78.5" font-family="Helvetica,sans-Serif" font-size="10.00">vector</text>
</a>
</g>
</g>
<!-- Node1&#45;&gt;Node12 -->
<g id="edge11_Node000001_Node000012" class="edge">
<title>Node1&#45;&gt;Node12</title>
<g id="a_edge11_Node000001_Node000012"><a xlink:title=" ">
<path fill="none" stroke="#63b8ff" d="M739.67,-131.9C766.48,-122.12 802.78,-108.64 834.5,-96 835.7,-95.52 836.93,-95.03 838.17,-94.52"/>
<polygon fill="#63b8ff" stroke="#63b8ff" points="839.77,-97.65 847.67,-90.58 837.09,-91.18 839.77,-97.65"/>
</a>
</g>
</g>
<!-- Node3 -->
<g id="Node000003" class="node">
<title>Node3</title>
<g id="a_Node000003"><a xlink:title=" ">
<polygon fill="#e0e0e0" stroke="#999999" points="145,-30 0,-30 0,0 145,0 145,-30"/>
<text text-anchor="start" x="8" y="-18" font-family="Helvetica,sans-Serif" font-size="10.00">../../Objects/Abstracts</text>
<text text-anchor="middle" x="72.5" y="-7" font-family="Helvetica,sans-Serif" font-size="10.00">/ARenderer/ARenderer.hpp</text>
</a>
</g>
</g>
<!-- Node2&#45;&gt;Node3 -->
<g id="edge2_Node000002_Node000003" class="edge">
<title>Node2&#45;&gt;Node3</title>
<g id="a_edge2_Node000002_Node000003"><a xlink:title=" ">
<path fill="none" stroke="#63b8ff" d="M487.41,-75.36C421.69,-67.25 282.53,-49.62 155.26,-30.24"/>
<polygon fill="#63b8ff" stroke="#63b8ff" points="155.75,-26.77 145.34,-28.72 154.69,-33.69 155.75,-26.77"/>
</a>
</g>
</g>
<!-- Node4 -->
<g id="Node000004" class="node">
<title>Node4</title>
<g id="a_Node000004"><a xlink:title=" ">
<polygon fill="#e0e0e0" stroke="#999999" points="288,-30 163,-30 163,0 288,0 288,-30"/>
<text text-anchor="start" x="171" y="-18" font-family="Helvetica,sans-Serif" font-size="10.00">../../Geometry/Point3D</text>
<text text-anchor="middle" x="225.5" y="-7" font-family="Helvetica,sans-Serif" font-size="10.00">/Point3D.hpp</text>
</a>
</g>
</g>
<!-- Node2&#45;&gt;Node4 -->
<g id="edge3_Node000002_Node000004" class="edge">
<title>Node2&#45;&gt;Node4</title>
<g id="a_edge3_Node000002_Node000004"><a xlink:title=" ">
<path fill="none" stroke="#63b8ff" d="M487.2,-71.83C439.72,-61.7 357.78,-44.22 298.21,-31.51"/>
<polygon fill="#63b8ff" stroke="#63b8ff" points="298.62,-28.02 288.11,-29.36 297.16,-34.87 298.62,-28.02"/>
</a>
</g>
</g>
<!-- Node5 -->
<g id="Node000005" class="node">
<title>Node5</title>
<g id="a_Node000005"><a xlink:title=" ">
<polygon fill="#e0e0e0" stroke="#999999" points="437,-30 306,-30 306,0 437,0 437,-30"/>
<text text-anchor="start" x="314" y="-18" font-family="Helvetica,sans-Serif" font-size="10.00">../../Geometry/Vector3D</text>
<text text-anchor="middle" x="371.5" y="-7" font-family="Helvetica,sans-Serif" font-size="10.00">/Vector3D.hpp</text>
</a>
</g>
</g>
<!-- Node2&#45;&gt;Node5 -->
<g id="edge4_Node000002_Node000005" class="edge">
<title>Node2&#45;&gt;Node5</title>
<g id="a_edge4_Node000002_Node000005"><a xlink:title=" ">
<path fill="none" stroke="#63b8ff" d="M504.73,-71.37C481.77,-61.82 444.13,-46.18 414.7,-33.95"/>
<polygon fill="#63b8ff" stroke="#63b8ff" points="416.04,-30.72 405.47,-30.12 413.36,-37.19 416.04,-30.72"/>
</a>
</g>
</g>
<!-- Node6 -->
<g id="Node000006" class="node">
<title>Node6</title>
<g id="a_Node000006"><a xlink:title=" ">
<polygon fill="#e0e0e0" stroke="#999999" points="596,-30 455,-30 455,0 596,0 596,-30"/>
<text text-anchor="start" x="463" y="-18" font-family="Helvetica,sans-Serif" font-size="10.00">../../Geometry/Rectangle3</text>
<text text-anchor="middle" x="525.5" y="-7" font-family="Helvetica,sans-Serif" font-size="10.00">D/Rectangle3D.hpp</text>
</a>
</g>
</g>
<!-- Node2&#45;&gt;Node6 -->
<g id="edge5_Node000002_Node000006" class="edge">
<title>Node2&#45;&gt;Node6</title>
<g id="a_edge5_Node000002_Node000006"><a xlink:title=" ">
<path fill="none" stroke="#63b8ff" d="M525.5,-71.37C525.5,-63.49 525.5,-51.45 525.5,-40.6"/>
<polygon fill="#63b8ff" stroke="#63b8ff" points="529,-40.36 525.5,-30.36 522,-40.36 529,-40.36"/>
</a>
</g>
</g>
<!-- Node7 -->
<g id="Node000007" class="node">
<title>Node7</title>
<g id="a_Node000007"><a xlink:title=" ">
<polygon fill="#e0e0e0" stroke="#999999" points="719,-30 614,-30 614,0 719,0 719,-30"/>
<text text-anchor="start" x="622" y="-18" font-family="Helvetica,sans-Serif" font-size="10.00">../../Geometry/Ray</text>
<text text-anchor="middle" x="666.5" y="-7" font-family="Helvetica,sans-Serif" font-size="10.00">/Ray.hpp</text>
</a>
</g>
</g>
<!-- Node2&#45;&gt;Node7 -->
<g id="edge6_Node000002_Node000007" class="edge">
<title>Node2&#45;&gt;Node7</title>
<g id="a_edge6_Node000002_Node000007"><a xlink:title=" ">
<path fill="none" stroke="#63b8ff" d="M544.52,-71.37C565.36,-61.91 599.41,-46.45 626.24,-34.27"/>
<polygon fill="#63b8ff" stroke="#63b8ff" points="627.74,-37.44 635.4,-30.12 624.85,-31.06 627.74,-37.44"/>
</a>
</g>
</g>
<!-- Node8 -->
<g id="Node000008" class="node">
<title>Node8</title>
<g id="a_Node000008"><a xlink:title=" ">
<polygon fill="#e0e0e0" stroke="#999999" points="871.5,-30 737.5,-30 737.5,0 871.5,0 871.5,-30"/>
<text text-anchor="start" x="745.5" y="-18" font-family="Helvetica,sans-Serif" font-size="10.00">../../Geometry/HitRecord</text>
<text text-anchor="middle" x="804.5" y="-7" font-family="Helvetica,sans-Serif" font-size="10.00">/HitRecord.hpp</text>
</a>
</g>
</g>
<!-- Node2&#45;&gt;Node8 -->
<g id="edge7_Node000002_Node000008" class="edge">
<title>Node2&#45;&gt;Node8</title>
<g id="a_edge7_Node000002_Node000008"><a xlink:title=" ">
<path fill="none" stroke="#63b8ff" d="M552.74,-71.5C559.19,-69.59 566.07,-67.65 572.5,-66 623.8,-52.85 682.07,-40.3 727.38,-31.07"/>
<polygon fill="#63b8ff" stroke="#63b8ff" points="728.32,-34.45 737.43,-29.03 726.93,-27.59 728.32,-34.45"/>
</a>
</g>
</g>
<!-- Node9 -->
<g id="Node000009" class="node">
<title>Node9</title>
<g id="a_Node000009"><a xlink:title=" ">
<polygon fill="#e0e0e0" stroke="#999999" points="945.5,-24.5 889.5,-24.5 889.5,-5.5 945.5,-5.5 945.5,-24.5"/>
<text text-anchor="middle" x="917.5" y="-12.5" font-family="Helvetica,sans-Serif" font-size="10.00">optional</text>
</a>
</g>
</g>
<!-- Node2&#45;&gt;Node9 -->
<g id="edge8_Node000002_Node000009" class="edge">
<title>Node2&#45;&gt;Node9</title>
<g id="a_edge8_Node000002_Node000009"><a xlink:title=" ">
<path fill="none" stroke="#63b8ff" d="M551.15,-71.48C558.03,-69.44 565.49,-67.44 572.5,-66 707.49,-38.22 746.6,-62.63 880.5,-30 882.95,-29.4 885.46,-28.69 887.96,-27.9"/>
<polygon fill="#63b8ff" stroke="#63b8ff" points="889.13,-31.2 897.43,-24.62 886.83,-24.59 889.13,-31.2"/>
</a>
</g>
</g>
</g>
</svg>
