<?xml version="1.0" encoding="UTF-8" standalone="no"?>
<!DOCTYPE svg PUBLIC "-//W3C//DTD SVG 1.1//EN"
 "http://www.w3.org/Graphics/SVG/1.1/DTD/svg11.dtd">
<!-- Generated by graphviz version 2.43.0 (0)
 -->
<!-- Title: RayTracer::Plane Pages: 1 -->
<svg width="495pt" height="408pt"
 viewBox="0.00 0.00 495.00 408.00" xmlns="http://www.w3.org/2000/svg" xmlns:xlink="http://www.w3.org/1999/xlink">
<g id="graph0" class="graph" transform="scale(1 1) rotate(0) translate(4 404)">
<title>RayTracer::Plane</title>
<!-- Node1 -->
<g id="Node000001" class="node">
<title>Node1</title>
<g id="a_Node000001"><a xlink:title=" ">
<polygon fill="#999999" stroke="transparent" points="290,-94 198,-94 198,0 290,0 290,-94"/>
<text text-anchor="start" x="203" y="-82" font-family="Helvetica,sans-Serif" font-size="10.00">RayTracer::Plane</text>
<text text-anchor="start" x="242" y="-67" font-family="Helvetica,sans-Serif" font-size="10.00"> </text>
<text text-anchor="start" x="209" y="-52" font-family="Helvetica,sans-Serif" font-size="10.00">+</text>
<text text-anchor="start" x="229" y="-52" font-family="Helvetica,sans-Serif" font-size="10.00">Plane()</text>
<text text-anchor="start" x="209" y="-37" font-family="Helvetica,sans-Serif" font-size="10.00">+</text>
<text text-anchor="start" x="229" y="-37" font-family="Helvetica,sans-Serif" font-size="10.00">Plane()</text>
<text text-anchor="start" x="209" y="-22" font-family="Helvetica,sans-Serif" font-size="10.00">+</text>
<text text-anchor="start" x="229" y="-22" font-family="Helvetica,sans-Serif" font-size="10.00">~Plane()</text>
<text text-anchor="start" x="209" y="-7" font-family="Helvetica,sans-Serif" font-size="10.00">+</text>
<text text-anchor="start" x="229" y="-7" font-family="Helvetica,sans-Serif" font-size="10.00">hit()</text>
<polygon fill="#666666" stroke="#666666" points="198,-77 198,-77 290,-77 290,-77 198,-77"/>
<polygon fill="#666666" stroke="#666666" points="198,-62 198,-62 290,-62 290,-62 198,-62"/>
<polygon fill="none" stroke="#666666" points="198,0 198,-94 290,-94 290,0 198,0"/>
</a>
</g>
</g>
<!-- Node2 -->
<g id="Node000002" class="node">
<title>Node2</title>
<g id="a_Node000002"><a xlink:href="classRayTracer_1_1IPrimitive.html" target="_top" xlink:title=" ">
<polygon fill="white" stroke="transparent" points="112,-310 0,-310 0,-231 112,-231 112,-310"/>
<text text-anchor="start" x="5" y="-297.5" font-family="Helvetica,sans-Serif" font-size="10.00">RayTracer::IPrimitive</text>
<text text-anchor="start" x="54" y="-282.5" font-family="Helvetica,sans-Serif" font-size="10.00"> </text>
<text text-anchor="start" x="10.5" y="-267.5" font-family="Helvetica,sans-Serif" font-size="10.00">+</text>
<text text-anchor="start" x="30" y="-267.5" font-family="Helvetica,sans-Serif" font-size="10.00">~IPrimitive()</text>
<text text-anchor="start" x="10.5" y="-252.5" font-family="Helvetica,sans-Serif" font-size="10.00">+</text>
<text text-anchor="start" x="30" y="-252.5" font-family="Helvetica,sans-Serif" font-size="10.00">hit()</text>
<text text-anchor="start" x="10.5" y="-237.5" font-family="Helvetica,sans-Serif" font-size="10.00">+</text>
<text text-anchor="start" x="30" y="-237.5" font-family="Helvetica,sans-Serif" font-size="10.00">getMaterial()</text>
<polygon fill="#666666" stroke="#666666" points="0,-292.5 0,-292.5 112,-292.5 112,-292.5 0,-292.5"/>
<polygon fill="#666666" stroke="#666666" points="0,-277.5 0,-277.5 112,-277.5 112,-277.5 0,-277.5"/>
<polygon fill="none" stroke="#666666" points="0,-231 0,-310 112,-310 112,-231 0,-231"/>
</a>
</g>
</g>
<!-- Node2&#45;&gt;Node1 -->
<g id="edge1_Node000001_Node000002" class="edge">
<title>Node2&#45;&gt;Node1</title>
<g id="a_edge1_Node000001_Node000002"><a xlink:title=" ">
<path fill="none" stroke="#63b8ff" d="M74.13,-221.3C85.22,-195.76 101.1,-164.82 121,-141 142.62,-115.11 172.76,-92.18 197.79,-75.56"/>
<polygon fill="none" stroke="#63b8ff" points="70.79,-220.23 70.12,-230.81 77.24,-222.95 70.79,-220.23"/>
</a>
</g>
</g>
<!-- Node3 -->
<g id="Node000003" class="node">
<title>Node3</title>
<g id="a_Node000003"><a xlink:href="classGeometry_1_1Point3D.html" target="_top" xlink:title=" ">
<polygon fill="white" stroke="transparent" points="233.5,-355 130.5,-355 130.5,-186 233.5,-186 233.5,-355"/>
<text text-anchor="start" x="136" y="-342.5" font-family="Helvetica,sans-Serif" font-size="10.00">Geometry::Point3D</text>
<text text-anchor="start" x="139" y="-327.5" font-family="Helvetica,sans-Serif" font-size="10.00">+</text>
<text text-anchor="start" x="156" y="-327.5" font-family="Helvetica,sans-Serif" font-size="10.00">x</text>
<text text-anchor="start" x="139" y="-312.5" font-family="Helvetica,sans-Serif" font-size="10.00">+</text>
<text text-anchor="start" x="156" y="-312.5" font-family="Helvetica,sans-Serif" font-size="10.00">y</text>
<text text-anchor="start" x="139" y="-297.5" font-family="Helvetica,sans-Serif" font-size="10.00">+</text>
<text text-anchor="start" x="156" y="-297.5" font-family="Helvetica,sans-Serif" font-size="10.00">z</text>
<text text-anchor="start" x="139" y="-282.5" font-family="Helvetica,sans-Serif" font-size="10.00">+</text>
<text text-anchor="start" x="156" y="-282.5" font-family="Helvetica,sans-Serif" font-size="10.00">Point3D()</text>
<text text-anchor="start" x="139" y="-267.5" font-family="Helvetica,sans-Serif" font-size="10.00">+</text>
<text text-anchor="start" x="156" y="-267.5" font-family="Helvetica,sans-Serif" font-size="10.00">Point3D()</text>
<text text-anchor="start" x="139" y="-252.5" font-family="Helvetica,sans-Serif" font-size="10.00">+</text>
<text text-anchor="start" x="156" y="-252.5" font-family="Helvetica,sans-Serif" font-size="10.00">~Point3D()</text>
<text text-anchor="start" x="139" y="-237.5" font-family="Helvetica,sans-Serif" font-size="10.00">+</text>
<text text-anchor="start" x="156" y="-237.5" font-family="Helvetica,sans-Serif" font-size="10.00">operator+()</text>
<text text-anchor="start" x="139" y="-222.5" font-family="Helvetica,sans-Serif" font-size="10.00">+</text>
<text text-anchor="start" x="156" y="-222.5" font-family="Helvetica,sans-Serif" font-size="10.00">operator&#45;()</text>
<text text-anchor="start" x="139" y="-207.5" font-family="Helvetica,sans-Serif" font-size="10.00">+</text>
<text text-anchor="start" x="156" y="-207.5" font-family="Helvetica,sans-Serif" font-size="10.00">operator+=()</text>
<text text-anchor="start" x="139" y="-192.5" font-family="Helvetica,sans-Serif" font-size="10.00">+</text>
<text text-anchor="start" x="156" y="-192.5" font-family="Helvetica,sans-Serif" font-size="10.00">operator&#45;()</text>
<polygon fill="#666666" stroke="#666666" points="131,-337.5 131,-337.5 234,-337.5 234,-337.5 131,-337.5"/>
<polygon fill="#666666" stroke="#666666" points="131,-292.5 131,-292.5 154,-292.5 154,-292.5 131,-292.5"/>
<polygon fill="#666666" stroke="#666666" points="154,-292.5 154,-292.5 234,-292.5 234,-292.5 154,-292.5"/>
<polygon fill="none" stroke="#666666" points="130.5,-186 130.5,-355 233.5,-355 233.5,-186 130.5,-186"/>
</a>
</g>
</g>
<!-- Node3&#45;&gt;Node1 -->
<g id="edge2_Node000001_Node000003" class="edge">
<title>Node3&#45;&gt;Node1</title>
<g id="a_edge2_Node000001_Node000003"><a xlink:title=" ">
<path fill="none" stroke="#63b8ff" d="M205.44,-185.76C212.9,-159.12 220.97,-130.27 227.8,-105.88"/>
<polygon fill="none" stroke="#63b8ff" points="227.81,-105.85 225.57,-99 231.04,-94.3 233.28,-101.15 227.81,-105.85"/>
</a>
</g>
<text text-anchor="middle" x="244.5" y="-115" font-family="Helvetica,sans-Serif" font-size="10.00" fill="grey"> &#45;_point</text>
</g>
<!-- Node4 -->
<g id="Node000004" class="node">
<title>Node4</title>
<g id="a_Node000004"><a xlink:href="classGeometry_1_1Vector3D.html" target="_top" xlink:title=" ">
<polygon fill="white" stroke="transparent" points="360.5,-400 251.5,-400 251.5,-141 360.5,-141 360.5,-400"/>
<text text-anchor="start" x="257" y="-387.5" font-family="Helvetica,sans-Serif" font-size="10.00">Geometry::Vector3D</text>
<text text-anchor="start" x="261.5" y="-372.5" font-family="Helvetica,sans-Serif" font-size="10.00">+</text>
<text text-anchor="start" x="280" y="-372.5" font-family="Helvetica,sans-Serif" font-size="10.00">x</text>
<text text-anchor="start" x="261.5" y="-357.5" font-family="Helvetica,sans-Serif" font-size="10.00">+</text>
<text text-anchor="start" x="280" y="-357.5" font-family="Helvetica,sans-Serif" font-size="10.00">y</text>
<text text-anchor="start" x="261.5" y="-342.5" font-family="Helvetica,sans-Serif" font-size="10.00">+</text>
<text text-anchor="start" x="280" y="-342.5" font-family="Helvetica,sans-Serif" font-size="10.00">z</text>
<text text-anchor="start" x="261.5" y="-327.5" font-family="Helvetica,sans-Serif" font-size="10.00">+</text>
<text text-anchor="start" x="280" y="-327.5" font-family="Helvetica,sans-Serif" font-size="10.00">Vector3D()</text>
<text text-anchor="start" x="261.5" y="-312.5" font-family="Helvetica,sans-Serif" font-size="10.00">+</text>
<text text-anchor="start" x="280" y="-312.5" font-family="Helvetica,sans-Serif" font-size="10.00">Vector3D()</text>
<text text-anchor="start" x="261.5" y="-297.5" font-family="Helvetica,sans-Serif" font-size="10.00">+</text>
<text text-anchor="start" x="280" y="-297.5" font-family="Helvetica,sans-Serif" font-size="10.00">~Vector3D()</text>
<text text-anchor="start" x="261.5" y="-282.5" font-family="Helvetica,sans-Serif" font-size="10.00">+</text>
<text text-anchor="start" x="280" y="-282.5" font-family="Helvetica,sans-Serif" font-size="10.00">length()</text>
<text text-anchor="start" x="261.5" y="-267.5" font-family="Helvetica,sans-Serif" font-size="10.00">+</text>
<text text-anchor="start" x="280" y="-267.5" font-family="Helvetica,sans-Serif" font-size="10.00">length()</text>
<text text-anchor="start" x="261.5" y="-252.5" font-family="Helvetica,sans-Serif" font-size="10.00">+</text>
<text text-anchor="start" x="280" y="-252.5" font-family="Helvetica,sans-Serif" font-size="10.00">dot()</text>
<text text-anchor="start" x="261.5" y="-237.5" font-family="Helvetica,sans-Serif" font-size="10.00">+</text>
<text text-anchor="start" x="280" y="-237.5" font-family="Helvetica,sans-Serif" font-size="10.00">normalize()</text>
<text text-anchor="start" x="261.5" y="-222.5" font-family="Helvetica,sans-Serif" font-size="10.00">+</text>
<text text-anchor="start" x="280" y="-222.5" font-family="Helvetica,sans-Serif" font-size="10.00">operator+()</text>
<text text-anchor="start" x="261.5" y="-207.5" font-family="Helvetica,sans-Serif" font-size="10.00">+</text>
<text text-anchor="start" x="280" y="-207.5" font-family="Helvetica,sans-Serif" font-size="10.00">operator+=()</text>
<text text-anchor="start" x="261.5" y="-192.5" font-family="Helvetica,sans-Serif" font-size="10.00">+</text>
<text text-anchor="start" x="280" y="-192.5" font-family="Helvetica,sans-Serif" font-size="10.00">operator&#45;()</text>
<text text-anchor="start" x="280" y="-177.5" font-family="Helvetica,sans-Serif" font-size="10.00">and 9 more...</text>
<text text-anchor="start" x="261.5" y="-162.5" font-family="Helvetica,sans-Serif" font-size="10.00">+</text>
<text text-anchor="start" x="280" y="-162.5" font-family="Helvetica,sans-Serif" font-size="10.00">dot()</text>
<text text-anchor="start" x="261.5" y="-147.5" font-family="Helvetica,sans-Serif" font-size="10.00">+</text>
<text text-anchor="start" x="280" y="-147.5" font-family="Helvetica,sans-Serif" font-size="10.00">cross()</text>
<polygon fill="#666666" stroke="#666666" points="252,-382.5 252,-382.5 361,-382.5 361,-382.5 252,-382.5"/>
<polygon fill="#666666" stroke="#666666" points="252,-337.5 252,-337.5 278,-337.5 278,-337.5 252,-337.5"/>
<polygon fill="#666666" stroke="#666666" points="278,-337.5 278,-337.5 361,-337.5 361,-337.5 278,-337.5"/>
<polygon fill="none" stroke="#666666" points="251.5,-141 251.5,-400 360.5,-400 360.5,-141 251.5,-141"/>
</a>
</g>
</g>
<!-- Node4&#45;&gt;Node1 -->
<g id="edge3_Node000001_Node000004" class="edge">
<title>Node4&#45;&gt;Node1</title>
<g id="a_edge3_Node000001_Node000004"><a xlink:title=" ">
<path fill="none" stroke="#63b8ff" d="M275.26,-140.7C272.58,-130.96 269.82,-121.3 267,-112 266.37,-109.93 265.72,-107.83 265.04,-105.71"/>
<polygon fill="none" stroke="#63b8ff" points="265.04,-105.7 259.36,-101.26 261.27,-94.3 266.95,-98.74 265.04,-105.7"/>
</a>
</g>
<text text-anchor="middle" x="292.5" y="-115" font-family="Helvetica,sans-Serif" font-size="10.00" fill="grey"> &#45;_normal</text>
</g>
<!-- Node5 -->
<g id="Node000005" class="node">
<title>Node5</title>
<g id="a_Node000005"><a xlink:href="classRayTracer_1_1IMaterial.html" target="_top" xlink:title=" ">
<polygon fill="white" stroke="transparent" points="487,-302.5 379,-302.5 379,-238.5 487,-238.5 487,-302.5"/>
<text text-anchor="start" x="384" y="-290.5" font-family="Helvetica,sans-Serif" font-size="10.00">RayTracer::IMaterial</text>
<text text-anchor="start" x="431" y="-275.5" font-family="Helvetica,sans-Serif" font-size="10.00"> </text>
<text text-anchor="start" x="385.5" y="-260.5" font-family="Helvetica,sans-Serif" font-size="10.00">+</text>
<text text-anchor="start" x="401" y="-260.5" font-family="Helvetica,sans-Serif" font-size="10.00">computeColor()</text>
<text text-anchor="start" x="385.5" y="-245.5" font-family="Helvetica,sans-Serif" font-size="10.00">+</text>
<text text-anchor="start" x="401" y="-245.5" font-family="Helvetica,sans-Serif" font-size="10.00">~IMaterial()</text>
<polygon fill="#666666" stroke="#666666" points="379,-285.5 379,-285.5 487,-285.5 487,-285.5 379,-285.5"/>
<polygon fill="#666666" stroke="#666666" points="379,-270.5 379,-270.5 487,-270.5 487,-270.5 379,-270.5"/>
<polygon fill="none" stroke="#666666" points="379,-238.5 379,-302.5 487,-302.5 487,-238.5 379,-238.5"/>
</a>
</g>
</g>
<!-- Node5&#45;&gt;Node1 -->
<g id="edge4_Node000001_Node000005" class="edge">
<title>Node5&#45;&gt;Node1</title>
<g id="a_edge4_Node000001_Node000005"><a xlink:title=" ">
<path fill="none" stroke="#63b8ff" d="M422.54,-238.28C412.22,-210.65 394.43,-170.28 370,-141 350.58,-117.72 324.17,-97.08 300.55,-81.19"/>
<polygon fill="none" stroke="#63b8ff" points="300.31,-81.04 293.1,-81.09 290.28,-74.46 297.49,-74.4 300.31,-81.04"/>
</a>
</g>
<text text-anchor="middle" x="379" y="-115" font-family="Helvetica,sans-Serif" font-size="10.00" fill="grey"> &#45;_material</text>
</g>
</g>
</svg>
