<?xml version="1.0" encoding="UTF-8" standalone="no"?>
<!DOCTYPE svg PUBLIC "-//W3C//DTD SVG 1.1//EN"
 "http://www.w3.org/Graphics/SVG/1.1/DTD/svg11.dtd">
<!-- Generated by graphviz version 2.43.0 (0)
 -->
<!-- Title: RayTracer::Camera::Camera Pages: 1 -->
<svg width="650pt" height="354pt"
 viewBox="0.00 0.00 650.00 354.00" xmlns="http://www.w3.org/2000/svg" xmlns:xlink="http://www.w3.org/1999/xlink">
<g id="graph0" class="graph" transform="scale(1 1) rotate(0) translate(4 350)">
<title>RayTracer::Camera::Camera</title>
<!-- Node1 -->
<g id="Node000001" class="node">
<title>Node1</title>
<g id="a_Node000001"><a xlink:title="Construct a camera from a 4x4 affine transform matrix.">
<polygon fill="#999999" stroke="#666666" points="115,-212 0,-212 0,-182 115,-182 115,-212"/>
<text text-anchor="start" x="8" y="-200" font-family="Helvetica,sans-Serif" font-size="10.00">RayTracer::Camera::</text>
<text text-anchor="middle" x="57.5" y="-189" font-family="Helvetica,sans-Serif" font-size="10.00">Camera</text>
</a>
</g>
</g>
<!-- Node2 -->
<g id="Node000002" class="node">
<title>Node2</title>
<g id="a_Node000002"><a xlink:href="classRayTracer_1_1ARenderer.html#a44a60f0d86ca19731689141bfea654c7" target="_top" xlink:title="Constructor.">
<polygon fill="white" stroke="#666666" points="285.5,-236 163.5,-236 163.5,-206 285.5,-206 285.5,-236"/>
<text text-anchor="start" x="171.5" y="-224" font-family="Helvetica,sans-Serif" font-size="10.00">RayTracer::ARenderer</text>
<text text-anchor="middle" x="224.5" y="-213" font-family="Helvetica,sans-Serif" font-size="10.00">::ARenderer</text>
</a>
</g>
</g>
<!-- Node1&#45;&gt;Node2 -->
<g id="edge1_Node000001_Node000002" class="edge">
<title>Node1&#45;&gt;Node2</title>
<g id="a_edge1_Node000001_Node000002"><a xlink:title=" ">
<path fill="none" stroke="#63b8ff" d="M115.28,-205.26C127.49,-207.04 140.54,-208.93 153.19,-210.77"/>
<polygon fill="#63b8ff" stroke="#63b8ff" points="152.83,-214.26 163.23,-212.23 153.84,-207.33 152.83,-214.26"/>
</a>
</g>
</g>
<!-- Node3 -->
<g id="Node000003" class="node">
<title>Node3</title>
<g id="a_Node000003"><a xlink:href="classRayTracer_1_1Camera.html#a27ae8f34a8cb15a3ffd5e23498d894cb" target="_top" xlink:title="Rebuild the _screen rectangle from the current _transform and _fov.">
<polygon fill="white" stroke="#666666" points="298,-188 151,-188 151,-158 298,-158 298,-188"/>
<text text-anchor="start" x="159" y="-176" font-family="Helvetica,sans-Serif" font-size="10.00">RayTracer::Camera::</text>
<text text-anchor="middle" x="224.5" y="-165" font-family="Helvetica,sans-Serif" font-size="10.00">buildScreenFromTransform</text>
</a>
</g>
</g>
<!-- Node1&#45;&gt;Node3 -->
<g id="edge2_Node000001_Node000003" class="edge">
<title>Node1&#45;&gt;Node3</title>
<g id="a_edge2_Node000001_Node000003"><a xlink:title=" ">
<path fill="none" stroke="#63b8ff" d="M115.28,-188.74C123.52,-187.54 132.15,-186.29 140.77,-185.03"/>
<polygon fill="#63b8ff" stroke="#63b8ff" points="141.48,-188.47 150.88,-183.56 140.48,-181.54 141.48,-188.47"/>
</a>
</g>
</g>
<!-- Node4 -->
<g id="Node000004" class="node">
<title>Node4</title>
<g id="a_Node000004"><a xlink:href="classGeometry_1_1Point3D.html#a6a08342f9542eb6d6ff7bcf2278a240d" target="_top" xlink:title=" ">
<polygon fill="white" stroke="#666666" points="470,-346 355,-346 355,-316 470,-316 470,-346"/>
<text text-anchor="start" x="363" y="-334" font-family="Helvetica,sans-Serif" font-size="10.00">Geometry::Point3D::</text>
<text text-anchor="middle" x="412.5" y="-323" font-family="Helvetica,sans-Serif" font-size="10.00">Point3D</text>
</a>
</g>
</g>
<!-- Node3&#45;&gt;Node4 -->
<g id="edge3_Node000003_Node000004" class="edge">
<title>Node3&#45;&gt;Node4</title>
<g id="a_edge3_Node000003_Node000004"><a xlink:title=" ">
<path fill="none" stroke="#63b8ff" d="M286.24,-188.07C290.52,-190.6 294.51,-193.55 298,-197 333.07,-231.7 299.6,-266.64 334,-302 337.6,-305.7 341.72,-308.94 346.14,-311.76"/>
<polygon fill="#63b8ff" stroke="#63b8ff" points="344.52,-314.87 354.95,-316.71 347.94,-308.76 344.52,-314.87"/>
</a>
</g>
</g>
<!-- Node5 -->
<g id="Node000005" class="node">
<title>Node5</title>
<g id="a_Node000005"><a xlink:href="classGeometry_1_1Vector3D.html#ae4c5a52ebf282e334801c8ee28ad8d5d" target="_top" xlink:title=" ">
<polygon fill="white" stroke="#666666" points="642,-260 527,-260 527,-230 642,-230 642,-260"/>
<text text-anchor="start" x="535" y="-248" font-family="Helvetica,sans-Serif" font-size="10.00">Geometry::Vector3D</text>
<text text-anchor="middle" x="584.5" y="-237" font-family="Helvetica,sans-Serif" font-size="10.00">::Vector3D</text>
</a>
</g>
</g>
<!-- Node3&#45;&gt;Node5 -->
<g id="edge4_Node000003_Node000005" class="edge">
<title>Node3&#45;&gt;Node5</title>
<g id="a_edge4_Node000003_Node000005"><a xlink:title=" ">
<path fill="none" stroke="#63b8ff" d="M284.68,-188.01C289.46,-190.56 293.99,-193.53 298,-197 325.05,-220.41 303.57,-250.19 334,-269 397.6,-308.31 488.21,-284.04 540.93,-263.83"/>
<polygon fill="#63b8ff" stroke="#63b8ff" points="542.3,-267.05 550.32,-260.12 539.73,-260.54 542.3,-267.05"/>
</a>
</g>
</g>
<!-- Node6 -->
<g id="Node000006" class="node">
<title>Node6</title>
<g id="a_Node000006"><a xlink:href="classGeometry_1_1Vector3D.html#a7157de1fcf830b27bf4b2df43e6b6112" target="_top" xlink:title=" ">
<polygon fill="white" stroke="#666666" points="470,-260 355,-260 355,-230 470,-230 470,-260"/>
<text text-anchor="start" x="363" y="-248" font-family="Helvetica,sans-Serif" font-size="10.00">Geometry::Vector3D</text>
<text text-anchor="middle" x="412.5" y="-237" font-family="Helvetica,sans-Serif" font-size="10.00">::cross</text>
</a>
</g>
</g>
<!-- Node3&#45;&gt;Node6 -->
<g id="edge5_Node000003_Node000006" class="edge">
<title>Node3&#45;&gt;Node6</title>
<g id="a_edge5_Node000003_Node000006"><a xlink:title=" ">
<path fill="none" stroke="#63b8ff" d="M276.89,-188.1C284.1,-190.77 291.33,-193.74 298,-197 315.28,-205.43 316.64,-212.74 334,-221 337.86,-222.84 341.9,-224.58 346.02,-226.22"/>
<polygon fill="#63b8ff" stroke="#63b8ff" points="345.13,-229.62 355.72,-229.86 347.59,-223.07 345.13,-229.62"/>
</a>
</g>
</g>
<!-- Node7 -->
<g id="Node000007" class="node">
<title>Node7</title>
<g id="a_Node000007"><a xlink:href="classGeometry_1_1Vector3D.html#ae2861f32c5661f184b655cf412e38b91" target="_top" xlink:title=" ">
<polygon fill="white" stroke="#666666" points="470,-212 355,-212 355,-182 470,-182 470,-212"/>
<text text-anchor="start" x="363" y="-200" font-family="Helvetica,sans-Serif" font-size="10.00">Geometry::Vector3D</text>
<text text-anchor="middle" x="412.5" y="-189" font-family="Helvetica,sans-Serif" font-size="10.00">::length</text>
</a>
</g>
</g>
<!-- Node3&#45;&gt;Node7 -->
<g id="edge7_Node000003_Node000007" class="edge">
<title>Node3&#45;&gt;Node7</title>
<g id="a_edge7_Node000003_Node000007"><a xlink:title=" ">
<path fill="none" stroke="#63b8ff" d="M298.21,-182.38C313.53,-184.36 329.61,-186.43 344.7,-188.38"/>
<polygon fill="#63b8ff" stroke="#63b8ff" points="344.6,-191.9 354.96,-189.7 345.49,-184.95 344.6,-191.9"/>
</a>
</g>
</g>
<!-- Node8 -->
<g id="Node000008" class="node">
<title>Node8</title>
<g id="a_Node000008"><a xlink:href="classGeometry_1_1Vector3D.html#a388f7af8bf0095c817e89b5b2518fda7" target="_top" xlink:title=" ">
<polygon fill="white" stroke="#666666" points="470,-164 355,-164 355,-134 470,-134 470,-164"/>
<text text-anchor="start" x="363" y="-152" font-family="Helvetica,sans-Serif" font-size="10.00">Geometry::Vector3D</text>
<text text-anchor="middle" x="412.5" y="-141" font-family="Helvetica,sans-Serif" font-size="10.00">::normalize</text>
</a>
</g>
</g>
<!-- Node3&#45;&gt;Node8 -->
<g id="edge8_Node000003_Node000008" class="edge">
<title>Node3&#45;&gt;Node8</title>
<g id="a_edge8_Node000003_Node000008"><a xlink:title=" ">
<path fill="none" stroke="#63b8ff" d="M298.21,-163.62C313.53,-161.64 329.61,-159.57 344.7,-157.62"/>
<polygon fill="#63b8ff" stroke="#63b8ff" points="345.49,-161.05 354.96,-156.3 344.6,-154.1 345.49,-161.05"/>
</a>
</g>
</g>
<!-- Node10 -->
<g id="Node000010" class="node">
<title>Node10</title>
<g id="a_Node000010"><a xlink:href="classGeometry_1_1Matrix.html#a55bca424225b20c0490c21b93faea578" target="_top" xlink:title="Mutable element access.">
<polygon fill="white" stroke="#666666" points="491,-115.5 334,-115.5 334,-96.5 491,-96.5 491,-115.5"/>
<text text-anchor="middle" x="412.5" y="-103.5" font-family="Helvetica,sans-Serif" font-size="10.00">Geometry::Matrix::operator()</text>
</a>
</g>
</g>
<!-- Node3&#45;&gt;Node10 -->
<g id="edge11_Node000003_Node000010" class="edge">
<title>Node3&#45;&gt;Node10</title>
<g id="a_edge11_Node000003_Node000010"><a xlink:title=" ">
<path fill="none" stroke="#63b8ff" d="M255.79,-157.87C277.24,-147.59 306.9,-134.24 334,-125 341.38,-122.49 349.25,-120.16 357.05,-118.06"/>
<polygon fill="#63b8ff" stroke="#63b8ff" points="358.05,-121.42 366.85,-115.52 356.29,-114.64 358.05,-121.42"/>
</a>
</g>
</g>
<!-- Node11 -->
<g id="Node000011" class="node">
<title>Node11</title>
<g id="a_Node000011"><a xlink:href="classGeometry_1_1Point3D.html#a8650efc8765c2d5a3ed1ee3b9139a997" target="_top" xlink:title=" ">
<polygon fill="white" stroke="#666666" points="470,-78 355,-78 355,-48 470,-48 470,-78"/>
<text text-anchor="start" x="363" y="-66" font-family="Helvetica,sans-Serif" font-size="10.00">Geometry::Point3D::</text>
<text text-anchor="middle" x="412.5" y="-55" font-family="Helvetica,sans-Serif" font-size="10.00">operator=</text>
</a>
</g>
</g>
<!-- Node3&#45;&gt;Node11 -->
<g id="edge12_Node000003_Node000011" class="edge">
<title>Node3&#45;&gt;Node11</title>
<g id="a_edge12_Node000003_Node000011"><a xlink:title=" ">
<path fill="none" stroke="#63b8ff" d="M240.72,-157.86C260.6,-138.85 297.22,-106.4 334,-87 337.54,-85.13 341.26,-83.38 345.06,-81.75"/>
<polygon fill="#63b8ff" stroke="#63b8ff" points="346.65,-84.88 354.64,-77.92 344.05,-78.38 346.65,-84.88"/>
</a>
</g>
</g>
<!-- Node12 -->
<g id="Node000012" class="node">
<title>Node12</title>
<g id="a_Node000012"><a xlink:href="classGeometry_1_1Vector3D.html#a4f0165ac7ffb25816ce35d148b6524fa" target="_top" xlink:title=" ">
<polygon fill="white" stroke="#666666" points="470,-30 355,-30 355,0 470,0 470,-30"/>
<text text-anchor="start" x="363" y="-18" font-family="Helvetica,sans-Serif" font-size="10.00">Geometry::Vector3D</text>
<text text-anchor="middle" x="412.5" y="-7" font-family="Helvetica,sans-Serif" font-size="10.00">::operator=</text>
</a>
</g>
</g>
<!-- Node3&#45;&gt;Node12 -->
<g id="edge13_Node000003_Node000012" class="edge">
<title>Node3&#45;&gt;Node12</title>
<g id="a_edge13_Node000003_Node000012"><a xlink:title=" ">
<path fill="none" stroke="#63b8ff" d="M233.78,-157.67C249.56,-129.87 286.66,-71.06 334,-39 337.54,-36.6 341.34,-34.43 345.27,-32.48"/>
<polygon fill="#63b8ff" stroke="#63b8ff" points="346.95,-35.56 354.65,-28.28 344.1,-29.17 346.95,-35.56"/>
</a>
</g>
</g>
<!-- Node6&#45;&gt;Node5 -->
<g id="edge6_Node000006_Node000005" class="edge">
<title>Node6&#45;&gt;Node5</title>
<g id="a_edge6_Node000006_Node000005"><a xlink:title=" ">
<path fill="none" stroke="#63b8ff" d="M470.11,-245C485.08,-245 501.39,-245 516.84,-245"/>
<polygon fill="#63b8ff" stroke="#63b8ff" points="516.85,-248.5 526.85,-245 516.85,-241.5 516.85,-248.5"/>
</a>
</g>
</g>
<!-- Node8&#45;&gt;Node5 -->
<g id="edge9_Node000008_Node000005" class="edge">
<title>Node8&#45;&gt;Node5</title>
<g id="a_edge9_Node000008_Node000005"><a xlink:title=" ">
<path fill="none" stroke="#63b8ff" d="M470.34,-163.98C477.45,-166.61 484.51,-169.61 491,-173 516.66,-186.39 542.36,-207.12 560.13,-222.91"/>
<polygon fill="#63b8ff" stroke="#63b8ff" points="557.95,-225.65 567.71,-229.77 562.65,-220.46 557.95,-225.65"/>
</a>
</g>
</g>
<!-- Node9 -->
<g id="Node000009" class="node">
<title>Node9</title>
<g id="a_Node000009"><a xlink:href="classGeometry_1_1Vector3D.html#a8966b188a3b6d27793b3896618fea42c" target="_top" xlink:title="Calculate the length (magnitude) of this vector.">
<polygon fill="white" stroke="#666666" points="642,-164 527,-164 527,-134 642,-134 642,-164"/>
<text text-anchor="start" x="535" y="-152" font-family="Helvetica,sans-Serif" font-size="10.00">Geometry::Vector3D</text>
<text text-anchor="middle" x="584.5" y="-141" font-family="Helvetica,sans-Serif" font-size="10.00">::length</text>
</a>
</g>
</g>
<!-- Node8&#45;&gt;Node9 -->
<g id="edge10_Node000008_Node000009" class="edge">
<title>Node8&#45;&gt;Node9</title>
<g id="a_edge10_Node000008_Node000009"><a xlink:title=" ">
<path fill="none" stroke="#63b8ff" d="M470.11,-149C485.08,-149 501.39,-149 516.84,-149"/>
<polygon fill="#63b8ff" stroke="#63b8ff" points="516.85,-152.5 526.85,-149 516.85,-145.5 516.85,-152.5"/>
</a>
</g>
</g>
</g>
</svg>
