<?xml version="1.0" encoding="UTF-8" standalone="no"?>
<!DOCTYPE svg PUBLIC "-//W3C//DTD SVG 1.1//EN"
 "http://www.w3.org/Graphics/SVG/1.1/DTD/svg11.dtd">
<!-- Generated by graphviz version 2.43.0 (0)
 -->
<!-- Title: Geometry::Vector3D::length Pages: 1 -->
<svg width="462pt" height="218pt"
 viewBox="0.00 0.00 462.00 218.00" xmlns="http://www.w3.org/2000/svg" xmlns:xlink="http://www.w3.org/1999/xlink">
<g id="graph0" class="graph" transform="scale(1 1) rotate(0) translate(4 214)">
<title>Geometry::Vector3D::length</title>
<!-- Node1 -->
<g id="Node000001" class="node">
<title>Node1</title>
<g id="a_Node000001"><a xlink:title=" ">
<polygon fill="#999999" stroke="#666666" points="454,-121 339,-121 339,-91 454,-91 454,-121"/>
<text text-anchor="start" x="347" y="-109" font-family="Helvetica,sans-Serif" font-size="10.00">Geometry::Vector3D</text>
<text text-anchor="middle" x="396.5" y="-98" font-family="Helvetica,sans-Serif" font-size="10.00">::length</text>
</a>
</g>
</g>
<!-- Node2 -->
<g id="Node000002" class="node">
<title>Node2</title>
<g id="a_Node000002"><a xlink:href="classRayTracer_1_1BVHCam.html#a1dadda5103abfe56bd9bd73729f8be3f" target="_top" xlink:title="Construct a camera renderer.">
<polygon fill="white" stroke="#666666" points="120,-210 0,-210 0,-180 120,-180 120,-210"/>
<text text-anchor="start" x="8" y="-198" font-family="Helvetica,sans-Serif" font-size="10.00">RayTracer::BVHCam::</text>
<text text-anchor="middle" x="60" y="-187" font-family="Helvetica,sans-Serif" font-size="10.00">BVHCam</text>
</a>
</g>
</g>
<!-- Node1&#45;&gt;Node2 -->
<g id="edge1_Node000001_Node000002" class="edge">
<title>Node1&#45;&gt;Node2</title>
<g id="a_edge1_Node000001_Node000002"><a xlink:title=" ">
<path fill="none" stroke="#63b8ff" d="M372.89,-127.79C355.33,-143.28 329.57,-163.04 303,-173 243.55,-195.29 170.36,-198.98 120.13,-198.23"/>
<polygon fill="#63b8ff" stroke="#63b8ff" points="375.3,-130.33 380.36,-121.02 370.6,-125.15 375.3,-130.33"/>
</a>
</g>
</g>
<!-- Node3 -->
<g id="Node000003" class="node">
<title>Node3</title>
<g id="a_Node000003"><a xlink:href="classRayTracer_1_1Camera.html#aa88a1643d3067605407808bf3a5c14d4" target="_top" xlink:title="Construct a camera renderer.">
<polygon fill="white" stroke="#666666" points="117.5,-114 2.5,-114 2.5,-84 117.5,-84 117.5,-114"/>
<text text-anchor="start" x="10.5" y="-102" font-family="Helvetica,sans-Serif" font-size="10.00">RayTracer::Camera::</text>
<text text-anchor="middle" x="60" y="-91" font-family="Helvetica,sans-Serif" font-size="10.00">Camera</text>
</a>
</g>
</g>
<!-- Node1&#45;&gt;Node3 -->
<g id="edge2_Node000001_Node000003" class="edge">
<title>Node1&#45;&gt;Node3</title>
<g id="a_edge2_Node000001_Node000003"><a xlink:title=" ">
<path fill="none" stroke="#63b8ff" d="M328.72,-104.6C266.94,-103.31 176.1,-101.41 117.74,-100.19"/>
<polygon fill="#63b8ff" stroke="#63b8ff" points="328.69,-108.1 338.76,-104.81 328.83,-101.1 328.69,-108.1"/>
</a>
</g>
</g>
<!-- Node4 -->
<g id="Node000004" class="node">
<title>Node4</title>
<g id="a_Node000004"><a xlink:href="classRayTracer_1_1BVHCam.html#a343291f29df2a424797e29651a34dd34" target="_top" xlink:title="Rebuild the _screen rectangle from the current _transform and _fov.">
<polygon fill="white" stroke="#666666" points="303,-164 156,-164 156,-134 303,-134 303,-164"/>
<text text-anchor="start" x="164" y="-152" font-family="Helvetica,sans-Serif" font-size="10.00">RayTracer::BVHCam::</text>
<text text-anchor="middle" x="229.5" y="-141" font-family="Helvetica,sans-Serif" font-size="10.00">buildScreenFromTransform</text>
</a>
</g>
</g>
<!-- Node1&#45;&gt;Node4 -->
<g id="edge3_Node000001_Node000004" class="edge">
<title>Node1&#45;&gt;Node4</title>
<g id="a_edge3_Node000001_Node000004"><a xlink:title=" ">
<path fill="none" stroke="#63b8ff" d="M329.01,-123.33C315.5,-126.85 301.4,-130.52 288.23,-133.96"/>
<polygon fill="#63b8ff" stroke="#63b8ff" points="329.92,-126.71 338.72,-120.8 328.16,-119.93 329.92,-126.71"/>
</a>
</g>
</g>
<!-- Node6 -->
<g id="Node000006" class="node">
<title>Node6</title>
<g id="a_Node000006"><a xlink:href="classRayTracer_1_1Camera.html#a27ae8f34a8cb15a3ffd5e23498d894cb" target="_top" xlink:title="Rebuild the _screen rectangle from the current _transform and _fov.">
<polygon fill="white" stroke="#666666" points="303,-78 156,-78 156,-48 303,-48 303,-78"/>
<text text-anchor="start" x="164" y="-66" font-family="Helvetica,sans-Serif" font-size="10.00">RayTracer::Camera::</text>
<text text-anchor="middle" x="229.5" y="-55" font-family="Helvetica,sans-Serif" font-size="10.00">buildScreenFromTransform</text>
</a>
</g>
</g>
<!-- Node1&#45;&gt;Node6 -->
<g id="edge6_Node000001_Node000006" class="edge">
<title>Node1&#45;&gt;Node6</title>
<g id="a_edge6_Node000001_Node000006"><a xlink:title=" ">
<path fill="none" stroke="#63b8ff" d="M329.01,-88.67C315.5,-85.15 301.4,-81.48 288.23,-78.04"/>
<polygon fill="#63b8ff" stroke="#63b8ff" points="328.16,-92.07 338.72,-91.2 329.92,-85.29 328.16,-92.07"/>
</a>
</g>
</g>
<!-- Node8 -->
<g id="Node000008" class="node">
<title>Node8</title>
<g id="a_Node000008"><a xlink:href="classRayTracer_1_1PointLight.html#a4fdb35dd47674e655119b54c30b48b20" target="_top" xlink:title="Compute light contribution.">
<polygon fill="white" stroke="#666666" points="289,-30 170,-30 170,0 289,0 289,-30"/>
<text text-anchor="start" x="178" y="-18" font-family="Helvetica,sans-Serif" font-size="10.00">RayTracer::PointLight</text>
<text text-anchor="middle" x="229.5" y="-7" font-family="Helvetica,sans-Serif" font-size="10.00">::computeLight</text>
</a>
</g>
</g>
<!-- Node1&#45;&gt;Node8 -->
<g id="edge9_Node000001_Node000008" class="edge">
<title>Node1&#45;&gt;Node8</title>
<g id="a_edge9_Node000001_Node000008"><a xlink:title=" ">
<path fill="none" stroke="#63b8ff" d="M369.99,-84.21C352.15,-69.83 327.27,-51.43 303,-39 296.51,-35.68 289.46,-32.67 282.39,-30.01"/>
<polygon fill="#63b8ff" stroke="#63b8ff" points="368.19,-87.27 378.15,-90.9 372.63,-81.85 368.19,-87.27"/>
</a>
</g>
</g>
<!-- Node4&#45;&gt;Node2 -->
<g id="edge4_Node000004_Node000002" class="edge">
<title>Node4&#45;&gt;Node2</title>
<g id="a_edge4_Node000004_Node000002"><a xlink:title=" ">
<path fill="none" stroke="#63b8ff" d="M163.89,-166.74C147.97,-171.11 131.08,-175.75 115.68,-179.98"/>
<polygon fill="#63b8ff" stroke="#63b8ff" points="164.94,-170.09 173.65,-164.06 163.08,-163.34 164.94,-170.09"/>
</a>
</g>
</g>
<!-- Node5 -->
<g id="Node000005" class="node">
<title>Node5</title>
<g id="a_Node000005"><a xlink:href="classRayTracer_1_1BVHCam.html#a12c8b8553f66adaccedd88016dc89d1e" target="_top" xlink:title="Construct a camera from a 4x4 affine transform matrix.">
<polygon fill="white" stroke="#666666" points="120,-162 0,-162 0,-132 120,-132 120,-162"/>
<text text-anchor="start" x="8" y="-150" font-family="Helvetica,sans-Serif" font-size="10.00">RayTracer::BVHCam::</text>
<text text-anchor="middle" x="60" y="-139" font-family="Helvetica,sans-Serif" font-size="10.00">BVHCam</text>
</a>
</g>
</g>
<!-- Node4&#45;&gt;Node5 -->
<g id="edge5_Node000004_Node000005" class="edge">
<title>Node4&#45;&gt;Node5</title>
<g id="a_edge5_Node000004_Node000005"><a xlink:title=" ">
<path fill="none" stroke="#63b8ff" d="M145.5,-148.01C136.95,-147.91 128.39,-147.8 120.17,-147.71"/>
<polygon fill="#63b8ff" stroke="#63b8ff" points="145.48,-151.51 155.52,-148.13 145.56,-144.51 145.48,-151.51"/>
</a>
</g>
</g>
<!-- Node6&#45;&gt;Node3 -->
<g id="edge7_Node000006_Node000003" class="edge">
<title>Node6&#45;&gt;Node3</title>
<g id="a_edge7_Node000006_Node000003"><a xlink:title=" ">
<path fill="none" stroke="#63b8ff" d="M148.47,-80.2C138.03,-82.44 127.51,-84.71 117.56,-86.84"/>
<polygon fill="#63b8ff" stroke="#63b8ff" points="149.39,-83.58 158.44,-78.06 147.92,-76.74 149.39,-83.58"/>
</a>
</g>
</g>
<!-- Node7 -->
<g id="Node000007" class="node">
<title>Node7</title>
<g id="a_Node000007"><a xlink:href="classRayTracer_1_1Camera.html#adebcfa0c259280f3d4bcf037fa2192b8" target="_top" xlink:title="Construct a camera from a 4x4 affine transform matrix.">
<polygon fill="white" stroke="#666666" points="117.5,-66 2.5,-66 2.5,-36 117.5,-36 117.5,-66"/>
<text text-anchor="start" x="10.5" y="-54" font-family="Helvetica,sans-Serif" font-size="10.00">RayTracer::Camera::</text>
<text text-anchor="middle" x="60" y="-43" font-family="Helvetica,sans-Serif" font-size="10.00">Camera</text>
</a>
</g>
</g>
<!-- Node6&#45;&gt;Node7 -->
<g id="edge8_Node000006_Node000007" class="edge">
<title>Node6&#45;&gt;Node7</title>
<g id="a_edge8_Node000006_Node000007"><a xlink:title=" ">
<path fill="none" stroke="#63b8ff" d="M145.35,-57.04C135.96,-56.37 126.56,-55.7 117.62,-55.06"/>
<polygon fill="#63b8ff" stroke="#63b8ff" points="145.29,-60.55 155.52,-57.77 145.8,-53.57 145.29,-60.55"/>
</a>
</g>
</g>
</g>
</svg>
