<?xml version="1.0" encoding="UTF-8" standalone="no"?>
<!DOCTYPE svg PUBLIC "-//W3C//DTD SVG 1.1//EN"
 "http://www.w3.org/Graphics/SVG/1.1/DTD/svg11.dtd">
<!-- Generated by graphviz version 2.43.0 (0)
 -->
<!-- Title: Geometry::Matrix::operator() Pages: 1 -->
<svg width="664pt" height="278pt"
 viewBox="0.00 0.00 664.00 278.00" xmlns="http://www.w3.org/2000/svg" xmlns:xlink="http://www.w3.org/1999/xlink">
<g id="graph0" class="graph" transform="scale(1 1) rotate(0) translate(4 274)">
<title>Geometry::Matrix::operator()</title>
<!-- Node1 -->
<g id="Node000001" class="node">
<title>Node1</title>
<g id="a_Node000001"><a xlink:title="Mutable element access.">
<polygon fill="#999999" stroke="#666666" points="656,-146.5 499,-146.5 499,-127.5 656,-127.5 656,-146.5"/>
<text text-anchor="middle" x="577.5" y="-134.5" font-family="Helvetica,sans-Serif" font-size="10.00">Geometry::Matrix::operator()</text>
</a>
</g>
</g>
<!-- Node2 -->
<g id="Node000002" class="node">
<title>Node2</title>
<g id="a_Node000002"><a xlink:href="classRayTracer_1_1BVHCam.html#a1dadda5103abfe56bd9bd73729f8be3f" target="_top" xlink:title="Construct a camera renderer.">
<polygon fill="white" stroke="#666666" points="276,-270 156,-270 156,-240 276,-240 276,-270"/>
<text text-anchor="start" x="164" y="-258" font-family="Helvetica,sans-Serif" font-size="10.00">RayTracer::BVHCam::</text>
<text text-anchor="middle" x="216" y="-247" font-family="Helvetica,sans-Serif" font-size="10.00">BVHCam</text>
</a>
</g>
</g>
<!-- Node1&#45;&gt;Node2 -->
<g id="edge1_Node000001_Node000002" class="edge">
<title>Node1&#45;&gt;Node2</title>
<g id="a_edge1_Node000001_Node000002"><a xlink:title=" ">
<path fill="none" stroke="#63b8ff" d="M561.91,-154.23C542.06,-176.32 504.26,-213.82 463,-231 402.88,-256.03 327.6,-259.82 276.25,-258.75"/>
<polygon fill="#63b8ff" stroke="#63b8ff" points="564.65,-156.42 568.61,-146.59 559.38,-151.8 564.65,-156.42"/>
</a>
</g>
</g>
<!-- Node3 -->
<g id="Node000003" class="node">
<title>Node3</title>
<g id="a_Node000003"><a xlink:href="classRayTracer_1_1Camera.html#aa88a1643d3067605407808bf3a5c14d4" target="_top" xlink:title="Construct a camera renderer.">
<polygon fill="white" stroke="#666666" points="273.5,-174 158.5,-174 158.5,-144 273.5,-144 273.5,-174"/>
<text text-anchor="start" x="166.5" y="-162" font-family="Helvetica,sans-Serif" font-size="10.00">RayTracer::Camera::</text>
<text text-anchor="middle" x="216" y="-151" font-family="Helvetica,sans-Serif" font-size="10.00">Camera</text>
</a>
</g>
</g>
<!-- Node1&#45;&gt;Node3 -->
<g id="edge2_Node000001_Node000003" class="edge">
<title>Node1&#45;&gt;Node3</title>
<g id="a_edge2_Node000001_Node000003"><a xlink:title=" ">
<path fill="none" stroke="#63b8ff" d="M488.8,-142.37C421.76,-146.47 331.31,-152 273.56,-155.54"/>
<polygon fill="#63b8ff" stroke="#63b8ff" points="489.17,-145.85 498.94,-141.75 488.74,-138.86 489.17,-145.85"/>
</a>
</g>
</g>
<!-- Node4 -->
<g id="Node000004" class="node">
<title>Node4</title>
<g id="a_Node000004"><a xlink:href="classRayTracer_1_1BVHCam.html#a343291f29df2a424797e29651a34dd34" target="_top" xlink:title="Rebuild the _screen rectangle from the current _transform and _fov.">
<polygon fill="white" stroke="#666666" points="461,-222 314,-222 314,-192 461,-192 461,-222"/>
<text text-anchor="start" x="322" y="-210" font-family="Helvetica,sans-Serif" font-size="10.00">RayTracer::BVHCam::</text>
<text text-anchor="middle" x="387.5" y="-199" font-family="Helvetica,sans-Serif" font-size="10.00">buildScreenFromTransform</text>
</a>
</g>
</g>
<!-- Node1&#45;&gt;Node4 -->
<g id="edge3_Node000001_Node000004" class="edge">
<title>Node1&#45;&gt;Node4</title>
<g id="a_edge3_Node000001_Node000004"><a xlink:title=" ">
<path fill="none" stroke="#63b8ff" d="M541.38,-150.08C509.51,-161.94 462.53,-179.44 429.07,-191.89"/>
<polygon fill="#63b8ff" stroke="#63b8ff" points="542.6,-153.36 550.75,-146.59 540.16,-146.8 542.6,-153.36"/>
</a>
</g>
</g>
<!-- Node6 -->
<g id="Node000006" class="node">
<title>Node6</title>
<g id="a_Node000006"><a xlink:href="classRayTracer_1_1Camera.html#a27ae8f34a8cb15a3ffd5e23498d894cb" target="_top" xlink:title="Rebuild the _screen rectangle from the current _transform and _fov.">
<polygon fill="white" stroke="#666666" points="461,-131 314,-131 314,-101 461,-101 461,-131"/>
<text text-anchor="start" x="322" y="-119" font-family="Helvetica,sans-Serif" font-size="10.00">RayTracer::Camera::</text>
<text text-anchor="middle" x="387.5" y="-108" font-family="Helvetica,sans-Serif" font-size="10.00">buildScreenFromTransform</text>
</a>
</g>
</g>
<!-- Node1&#45;&gt;Node6 -->
<g id="edge6_Node000001_Node000006" class="edge">
<title>Node1&#45;&gt;Node6</title>
<g id="a_edge6_Node000001_Node000006"><a xlink:title=" ">
<path fill="none" stroke="#63b8ff" d="M488.89,-127.21C479.57,-126.17 470.16,-125.12 461.04,-124.1"/>
<polygon fill="#63b8ff" stroke="#63b8ff" points="488.62,-130.71 498.95,-128.34 489.4,-123.75 488.62,-130.71"/>
</a>
</g>
</g>
<!-- Node8 -->
<g id="Node000008" class="node">
<title>Node8</title>
<g id="a_Node000008"><a xlink:href="classGeometry_1_1TransformMatrix.html#a136a1573f63564d63426b89fcafeb21b" target="_top" xlink:title=" ">
<polygon fill="white" stroke="#666666" points="463,-81 312,-81 312,-51 463,-51 463,-81"/>
<text text-anchor="start" x="320" y="-69" font-family="Helvetica,sans-Serif" font-size="10.00">Geometry::TransformMatrix</text>
<text text-anchor="middle" x="387.5" y="-58" font-family="Helvetica,sans-Serif" font-size="10.00">::operator*</text>
</a>
</g>
</g>
<!-- Node1&#45;&gt;Node8 -->
<g id="edge9_Node000001_Node000008" class="edge">
<title>Node1&#45;&gt;Node8</title>
<g id="a_edge9_Node000001_Node000008"><a xlink:title=" ">
<path fill="none" stroke="#63b8ff" d="M543.68,-123.57C521.09,-114.43 490.34,-102.18 463,-92 453.24,-88.37 442.71,-84.6 432.73,-81.1"/>
<polygon fill="#63b8ff" stroke="#63b8ff" points="542.55,-126.89 553.13,-127.41 545.18,-120.4 542.55,-126.89"/>
</a>
</g>
</g>
<!-- Node13 -->
<g id="Node000013" class="node">
<title>Node13</title>
<g id="a_Node000013"><a xlink:href="classGeometry_1_1TransformMatrix.html#a065621a852d662251597213f484ea3f6" target="_top" xlink:title=" ">
<polygon fill="white" stroke="#666666" points="463,-33 312,-33 312,-3 463,-3 463,-33"/>
<text text-anchor="start" x="320" y="-21" font-family="Helvetica,sans-Serif" font-size="10.00">Geometry::TransformMatrix</text>
<text text-anchor="middle" x="387.5" y="-10" font-family="Helvetica,sans-Serif" font-size="10.00">::operator*</text>
</a>
</g>
</g>
<!-- Node1&#45;&gt;Node13 -->
<g id="edge14_Node000001_Node000013" class="edge">
<title>Node1&#45;&gt;Node13</title>
<g id="a_edge14_Node000001_Node000013"><a xlink:title=" ">
<path fill="none" stroke="#63b8ff" d="M560.37,-119.93C539.64,-98.91 501.7,-63.36 463,-42 456.93,-38.65 450.33,-35.68 443.64,-33.08"/>
<polygon fill="#63b8ff" stroke="#63b8ff" points="557.96,-122.48 567.43,-127.22 562.98,-117.61 557.96,-122.48"/>
</a>
</g>
</g>
<!-- Node4&#45;&gt;Node2 -->
<g id="edge4_Node000004_Node000002" class="edge">
<title>Node4&#45;&gt;Node2</title>
<g id="a_edge4_Node000004_Node000002"><a xlink:title=" ">
<path fill="none" stroke="#63b8ff" d="M323.69,-224.79C306.03,-229.79 287,-235.18 269.98,-240"/>
<polygon fill="#63b8ff" stroke="#63b8ff" points="324.67,-228.15 333.33,-222.06 322.76,-221.41 324.67,-228.15"/>
</a>
</g>
</g>
<!-- Node5 -->
<g id="Node000005" class="node">
<title>Node5</title>
<g id="a_Node000005"><a xlink:href="classRayTracer_1_1BVHCam.html#a12c8b8553f66adaccedd88016dc89d1e" target="_top" xlink:title="Construct a camera from a 4x4 affine transform matrix.">
<polygon fill="white" stroke="#666666" points="276,-222 156,-222 156,-192 276,-192 276,-222"/>
<text text-anchor="start" x="164" y="-210" font-family="Helvetica,sans-Serif" font-size="10.00">RayTracer::BVHCam::</text>
<text text-anchor="middle" x="216" y="-199" font-family="Helvetica,sans-Serif" font-size="10.00">BVHCam</text>
</a>
</g>
</g>
<!-- Node4&#45;&gt;Node5 -->
<g id="edge5_Node000004_Node000005" class="edge">
<title>Node4&#45;&gt;Node5</title>
<g id="a_edge5_Node000004_Node000005"><a xlink:title=" ">
<path fill="none" stroke="#63b8ff" d="M303.57,-207C294.26,-207 284.93,-207 276.02,-207"/>
<polygon fill="#63b8ff" stroke="#63b8ff" points="303.63,-210.5 313.63,-207 303.63,-203.5 303.63,-210.5"/>
</a>
</g>
</g>
<!-- Node6&#45;&gt;Node3 -->
<g id="edge7_Node000006_Node000003" class="edge">
<title>Node6&#45;&gt;Node3</title>
<g id="a_edge7_Node000006_Node000003"><a xlink:title=" ">
<path fill="none" stroke="#63b8ff" d="M317.3,-133.56C302.8,-137.23 287.67,-141.07 273.68,-144.62"/>
<polygon fill="#63b8ff" stroke="#63b8ff" points="318.38,-136.89 327.22,-131.04 316.66,-130.11 318.38,-136.89"/>
</a>
</g>
</g>
<!-- Node7 -->
<g id="Node000007" class="node">
<title>Node7</title>
<g id="a_Node000007"><a xlink:href="classRayTracer_1_1Camera.html#adebcfa0c259280f3d4bcf037fa2192b8" target="_top" xlink:title="Construct a camera from a 4x4 affine transform matrix.">
<polygon fill="white" stroke="#666666" points="273.5,-126 158.5,-126 158.5,-96 273.5,-96 273.5,-126"/>
<text text-anchor="start" x="166.5" y="-114" font-family="Helvetica,sans-Serif" font-size="10.00">RayTracer::Camera::</text>
<text text-anchor="middle" x="216" y="-103" font-family="Helvetica,sans-Serif" font-size="10.00">Camera</text>
</a>
</g>
</g>
<!-- Node6&#45;&gt;Node7 -->
<g id="edge8_Node000006_Node000007" class="edge">
<title>Node6&#45;&gt;Node7</title>
<g id="a_edge8_Node000006_Node000007"><a xlink:title=" ">
<path fill="none" stroke="#63b8ff" d="M303.55,-113.55C293.44,-113.25 283.29,-112.96 273.68,-112.67"/>
<polygon fill="#63b8ff" stroke="#63b8ff" points="303.53,-117.05 313.63,-113.85 303.74,-110.06 303.53,-117.05"/>
</a>
</g>
</g>
<!-- Node9 -->
<g id="Node000009" class="node">
<title>Node9</title>
<g id="a_Node000009"><a xlink:href="classRayTracer_1_1BVHCam.html#a4a4e49d9f065cf0844d84706c340147f" target="_top" xlink:title="Build a world&#45;space ray from normalized screen coordinates.">
<polygon fill="white" stroke="#666666" points="276,-78 156,-78 156,-48 276,-48 276,-78"/>
<text text-anchor="start" x="164" y="-66" font-family="Helvetica,sans-Serif" font-size="10.00">RayTracer::BVHCam::</text>
<text text-anchor="middle" x="216" y="-55" font-family="Helvetica,sans-Serif" font-size="10.00">generateRay</text>
</a>
</g>
</g>
<!-- Node8&#45;&gt;Node9 -->
<g id="edge10_Node000008_Node000009" class="edge">
<title>Node8&#45;&gt;Node9</title>
<g id="a_edge10_Node000008_Node000009"><a xlink:title=" ">
<path fill="none" stroke="#63b8ff" d="M301.59,-64.5C293,-64.35 284.41,-64.19 276.17,-64.05"/>
<polygon fill="#63b8ff" stroke="#63b8ff" points="301.6,-68 311.66,-64.68 301.72,-61 301.6,-68"/>
</a>
</g>
</g>
<!-- Node11 -->
<g id="Node000011" class="node">
<title>Node11</title>
<g id="a_Node000011"><a xlink:href="classRayTracer_1_1Camera.html#a4a7f4b6a0e5bf44d17162fb324c289bd" target="_top" xlink:title="Build a world&#45;space ray from normalized screen coordinates.">
<polygon fill="white" stroke="#666666" points="273.5,-30 158.5,-30 158.5,0 273.5,0 273.5,-30"/>
<text text-anchor="start" x="166.5" y="-18" font-family="Helvetica,sans-Serif" font-size="10.00">RayTracer::Camera::</text>
<text text-anchor="middle" x="216" y="-7" font-family="Helvetica,sans-Serif" font-size="10.00">generateRay</text>
</a>
</g>
</g>
<!-- Node8&#45;&gt;Node11 -->
<g id="edge12_Node000008_Node000011" class="edge">
<title>Node8&#45;&gt;Node11</title>
<g id="a_edge12_Node000008_Node000011"><a xlink:title=" ">
<path fill="none" stroke="#63b8ff" d="M326.82,-48.04C307.22,-42.15 285.66,-35.66 266.87,-30.01"/>
<polygon fill="#63b8ff" stroke="#63b8ff" points="325.98,-51.44 336.56,-50.97 327.99,-44.74 325.98,-51.44"/>
</a>
</g>
</g>
<!-- Node10 -->
<g id="Node000010" class="node">
<title>Node10</title>
<g id="a_Node000010"><a xlink:href="classRayTracer_1_1BVHCam.html#a26338649c825eb2ded1c9e4c9e889452" target="_top" xlink:title="Render the scene into a 2D framebuffer.">
<polygon fill="white" stroke="#666666" points="120,-78 0,-78 0,-48 120,-48 120,-78"/>
<text text-anchor="start" x="8" y="-66" font-family="Helvetica,sans-Serif" font-size="10.00">RayTracer::BVHCam::</text>
<text text-anchor="middle" x="60" y="-55" font-family="Helvetica,sans-Serif" font-size="10.00">render</text>
</a>
</g>
</g>
<!-- Node9&#45;&gt;Node10 -->
<g id="edge11_Node000009_Node000010" class="edge">
<title>Node9&#45;&gt;Node10</title>
<g id="a_edge11_Node000009_Node000010"><a xlink:title=" ">
<path fill="none" stroke="#63b8ff" d="M145.63,-63C137.14,-63 128.52,-63 120.2,-63"/>
<polygon fill="#63b8ff" stroke="#63b8ff" points="145.9,-66.5 155.9,-63 145.9,-59.5 145.9,-66.5"/>
</a>
</g>
</g>
<!-- Node12 -->
<g id="Node000012" class="node">
<title>Node12</title>
<g id="a_Node000012"><a xlink:href="classRayTracer_1_1Camera.html#a32d328268bd310d35df62adcef914187" target="_top" xlink:title="Render the scene into a 2D framebuffer.">
<polygon fill="white" stroke="#666666" points="117.5,-30 2.5,-30 2.5,0 117.5,0 117.5,-30"/>
<text text-anchor="start" x="10.5" y="-18" font-family="Helvetica,sans-Serif" font-size="10.00">RayTracer::Camera::</text>
<text text-anchor="middle" x="60" y="-7" font-family="Helvetica,sans-Serif" font-size="10.00">render</text>
</a>
</g>
</g>
<!-- Node11&#45;&gt;Node12 -->
<g id="edge13_Node000011_Node000012" class="edge">
<title>Node11&#45;&gt;Node12</title>
<g id="a_edge13_Node000011_Node000012"><a xlink:title=" ">
<path fill="none" stroke="#63b8ff" d="M148.07,-15C137.93,-15 127.56,-15 117.67,-15"/>
<polygon fill="#63b8ff" stroke="#63b8ff" points="148.09,-18.5 158.09,-15 148.09,-11.5 148.09,-18.5"/>
</a>
</g>
</g>
</g>
</svg>
