<?xml version="1.0" encoding="UTF-8" standalone="no"?>
<!DOCTYPE svg PUBLIC "-//W3C//DTD SVG 1.1//EN"
 "http://www.w3.org/Graphics/SVG/1.1/DTD/svg11.dtd">
<!-- Generated by graphviz version 2.43.0 (0)
 -->
<!-- Title: Geometry::Vector3D::Vector3D Pages: 1 -->
<svg width="642pt" height="653pt"
 viewBox="0.00 0.00 642.00 652.97" xmlns="http://www.w3.org/2000/svg" xmlns:xlink="http://www.w3.org/1999/xlink">
<g id="graph0" class="graph" transform="scale(1 1) rotate(0) translate(4 648.97)">
<title>Geometry::Vector3D::Vector3D</title>
<!-- Node1 -->
<g id="Node000001" class="node">
<title>Node1</title>
<g id="a_Node000001"><a xlink:title=" ">
<polygon fill="#999999" stroke="#666666" points="634,-361 519,-361 519,-331 634,-331 634,-361"/>
<text text-anchor="start" x="527" y="-349" font-family="Helvetica,sans-Serif" font-size="10.00">Geometry::Vector3D</text>
<text text-anchor="middle" x="576.5" y="-338" font-family="Helvetica,sans-Serif" font-size="10.00">::Vector3D</text>
</a>
</g>
</g>
<!-- Node2 -->
<g id="Node000002" class="node">
<title>Node2</title>
<g id="a_Node000002"><a xlink:href="classRayTracer_1_1Camera.html#aa88a1643d3067605407808bf3a5c14d4" target="_top" xlink:title="Construct a camera renderer.">
<polygon fill="white" stroke="#666666" points="282.5,-571 167.5,-571 167.5,-541 282.5,-541 282.5,-571"/>
<text text-anchor="start" x="175.5" y="-559" font-family="Helvetica,sans-Serif" font-size="10.00">RayTracer::Camera::</text>
<text text-anchor="middle" x="225" y="-548" font-family="Helvetica,sans-Serif" font-size="10.00">Camera</text>
</a>
</g>
</g>
<!-- Node1&#45;&gt;Node2 -->
<g id="edge1_Node000001_Node000002" class="edge">
<title>Node1&#45;&gt;Node2</title>
<g id="a_edge1_Node000001_Node000002"><a xlink:title=" ">
<path fill="none" stroke="#63b8ff" d="M575.97,-371.33C575.47,-427.79 565.34,-563.69 483,-623 429.63,-661.45 398.3,-640.9 335,-623 299.3,-612.91 263.8,-587.47 243.42,-571"/>
<polygon fill="#63b8ff" stroke="#63b8ff" points="579.47,-371.13 575.96,-361.14 572.47,-371.14 579.47,-371.13"/>
</a>
</g>
</g>
<!-- Node3 -->
<g id="Node000003" class="node">
<title>Node3</title>
<g id="a_Node000003"><a xlink:href="classRayTracer_1_1DirectionalLight.html#a7170b3c9d9e2c2e697139f0dae68ab5b" target="_top" xlink:title="Compute light contribution, shadow ray cast in opposite direction.">
<polygon fill="white" stroke="#666666" points="483,-614 335,-614 335,-584 483,-584 483,-614"/>
<text text-anchor="start" x="343" y="-602" font-family="Helvetica,sans-Serif" font-size="10.00">RayTracer::DirectionalLight</text>
<text text-anchor="middle" x="409" y="-591" font-family="Helvetica,sans-Serif" font-size="10.00">::computeLight</text>
</a>
</g>
</g>
<!-- Node1&#45;&gt;Node3 -->
<g id="edge2_Node000001_Node000003" class="edge">
<title>Node1&#45;&gt;Node3</title>
<g id="a_edge2_Node000001_Node000003"><a xlink:title=" ">
<path fill="none" stroke="#63b8ff" d="M572.32,-371.2C565.1,-418.02 543.12,-518.74 483,-575 479.3,-578.46 475.09,-581.43 470.6,-583.97"/>
<polygon fill="#63b8ff" stroke="#63b8ff" points="575.79,-371.69 573.75,-361.29 568.86,-370.69 575.79,-371.69"/>
</a>
</g>
</g>
<!-- Node4 -->
<g id="Node000004" class="node">
<title>Node4</title>
<g id="a_Node000004"><a xlink:href="classRayTracer_1_1PointLight.html#a4fdb35dd47674e655119b54c30b48b20" target="_top" xlink:title="Compute light contribution.">
<polygon fill="white" stroke="#666666" points="284.5,-475 165.5,-475 165.5,-445 284.5,-445 284.5,-475"/>
<text text-anchor="start" x="173.5" y="-463" font-family="Helvetica,sans-Serif" font-size="10.00">RayTracer::PointLight</text>
<text text-anchor="middle" x="225" y="-452" font-family="Helvetica,sans-Serif" font-size="10.00">::computeLight</text>
</a>
</g>
</g>
<!-- Node1&#45;&gt;Node4 -->
<g id="edge3_Node000001_Node000004" class="edge">
<title>Node1&#45;&gt;Node4</title>
<g id="a_edge3_Node000001_Node000004"><a xlink:title=" ">
<path fill="none" stroke="#63b8ff" d="M562.42,-369.98C547.11,-395.31 519.18,-433.89 483,-451 420.24,-480.68 338.9,-477.63 284.71,-470.65"/>
<polygon fill="#63b8ff" stroke="#63b8ff" points="565.46,-371.72 567.48,-361.32 559.41,-368.19 565.46,-371.72"/>
</a>
</g>
</g>
<!-- Node5 -->
<g id="Node000005" class="node">
<title>Node5</title>
<g id="a_Node000005"><a xlink:href="classGeometry_1_1Vector3D.html#a7157de1fcf830b27bf4b2df43e6b6112" target="_top" xlink:title=" ">
<polygon fill="white" stroke="#666666" points="466.5,-566 351.5,-566 351.5,-536 466.5,-536 466.5,-566"/>
<text text-anchor="start" x="359.5" y="-554" font-family="Helvetica,sans-Serif" font-size="10.00">Geometry::Vector3D</text>
<text text-anchor="middle" x="409" y="-543" font-family="Helvetica,sans-Serif" font-size="10.00">::cross</text>
</a>
</g>
</g>
<!-- Node1&#45;&gt;Node5 -->
<g id="edge4_Node000001_Node000005" class="edge">
<title>Node1&#45;&gt;Node5</title>
<g id="a_edge4_Node000001_Node000005"><a xlink:title=" ">
<path fill="none" stroke="#63b8ff" d="M568.56,-370.86C556.86,-408.48 529.8,-479.9 483,-522 476.82,-527.56 469.43,-532.12 461.78,-535.84"/>
<polygon fill="#63b8ff" stroke="#63b8ff" points="571.94,-371.79 571.45,-361.2 565.23,-369.78 571.94,-371.79"/>
</a>
</g>
</g>
<!-- Node6 -->
<g id="Node000006" class="node">
<title>Node6</title>
<g id="a_Node000006"><a xlink:href="classRayTracer_1_1Lambertian.html#a9cf81ac3f6c0b5cc08c14d5f30e77838" target="_top" xlink:title="Return the deterministic bounce direction for this material.">
<polygon fill="white" stroke="#666666" points="288,-523 162,-523 162,-493 288,-493 288,-523"/>
<text text-anchor="start" x="170" y="-511" font-family="Helvetica,sans-Serif" font-size="10.00">RayTracer::Lambertian</text>
<text text-anchor="middle" x="225" y="-500" font-family="Helvetica,sans-Serif" font-size="10.00">::sample</text>
</a>
</g>
</g>
<!-- Node1&#45;&gt;Node6 -->
<g id="edge36_Node000001_Node000006" class="edge">
<title>Node1&#45;&gt;Node6</title>
<g id="a_edge36_Node000001_Node000006"><a xlink:title=" ">
<path fill="none" stroke="#63b8ff" d="M565.56,-370.86C551.9,-401.47 524.24,-452.39 483,-477 423.76,-512.35 343.16,-516.45 288.12,-514.07"/>
<polygon fill="#63b8ff" stroke="#63b8ff" points="568.92,-371.9 569.65,-361.33 562.49,-369.14 568.92,-371.9"/>
</a>
</g>
</g>
<!-- Node7 -->
<g id="Node000007" class="node">
<title>Node7</title>
<g id="a_Node000007"><a xlink:href="classRayTracer_1_1Camera.html#a4a7f4b6a0e5bf44d17162fb324c289bd" target="_top" xlink:title="Build a world&#45;space ray from normalized screen coordinates.">
<polygon fill="white" stroke="#666666" points="282.5,-370 167.5,-370 167.5,-340 282.5,-340 282.5,-370"/>
<text text-anchor="start" x="175.5" y="-358" font-family="Helvetica,sans-Serif" font-size="10.00">RayTracer::Camera::</text>
<text text-anchor="middle" x="225" y="-347" font-family="Helvetica,sans-Serif" font-size="10.00">generateRay</text>
</a>
</g>
</g>
<!-- Node1&#45;&gt;Node7 -->
<g id="edge7_Node000001_Node000007" class="edge">
<title>Node1&#45;&gt;Node7</title>
<g id="a_edge7_Node000001_Node000007"><a xlink:title=" ">
<path fill="none" stroke="#63b8ff" d="M508.75,-347.72C443.28,-349.4 344.54,-351.95 282.75,-353.54"/>
<polygon fill="#63b8ff" stroke="#63b8ff" points="509.05,-351.21 518.96,-347.46 508.87,-344.21 509.05,-351.21"/>
</a>
</g>
</g>
<!-- Node9 -->
<g id="Node000009" class="node">
<title>Node9</title>
<g id="a_Node000009"><a xlink:href="CorePlugin_8cpp.html#a0e14e2166e2799c71d21f343a3d543f3" target="_top" xlink:title=" ">
<polygon fill="white" stroke="#666666" points="450.5,-393.5 367.5,-393.5 367.5,-374.5 450.5,-374.5 450.5,-393.5"/>
<text text-anchor="middle" x="409" y="-381.5" font-family="Helvetica,sans-Serif" font-size="10.00">getInitializers</text>
</a>
</g>
</g>
<!-- Node1&#45;&gt;Node9 -->
<g id="edge9_Node000001_Node000009" class="edge">
<title>Node1&#45;&gt;Node9</title>
<g id="a_edge9_Node000001_Node000009"><a xlink:title=" ">
<path fill="none" stroke="#63b8ff" d="M508.7,-361.34C489.03,-365.85 468.11,-370.66 450.61,-374.68"/>
<polygon fill="#63b8ff" stroke="#63b8ff" points="509.58,-364.73 518.54,-359.08 508.01,-357.9 509.58,-364.73"/>
</a>
</g>
</g>
<!-- Node10 -->
<g id="Node000010" class="node">
<title>Node10</title>
<g id="a_Node000010"><a xlink:href="classGeometry_1_1Vector3D.html#a388f7af8bf0095c817e89b5b2518fda7" target="_top" xlink:title=" ">
<polygon fill="white" stroke="#666666" points="466.5,-442 351.5,-442 351.5,-412 466.5,-412 466.5,-442"/>
<text text-anchor="start" x="359.5" y="-430" font-family="Helvetica,sans-Serif" font-size="10.00">Geometry::Vector3D</text>
<text text-anchor="middle" x="409" y="-419" font-family="Helvetica,sans-Serif" font-size="10.00">::normalize</text>
</a>
</g>
</g>
<!-- Node1&#45;&gt;Node10 -->
<g id="edge10_Node000001_Node000010" class="edge">
<title>Node1&#45;&gt;Node10</title>
<g id="a_edge10_Node000001_Node000010"><a xlink:title=" ">
<path fill="none" stroke="#63b8ff" d="M545.56,-366.94C527.93,-378.64 504.85,-392.85 483,-403 475.98,-406.26 468.4,-409.28 460.86,-411.99"/>
<polygon fill="#63b8ff" stroke="#63b8ff" points="547.91,-369.58 554.25,-361.09 544,-363.77 547.91,-369.58"/>
</a>
</g>
</g>
<!-- Node15 -->
<g id="Node000015" class="node">
<title>Node15</title>
<g id="a_Node000015"><a xlink:href="classGeometry_1_1Vector3D.html#a2b061b80e0fb7144c2fdcf4aa9ba73bf" target="_top" xlink:title=" ">
<polygon fill="white" stroke="#666666" points="466.5,-318 351.5,-318 351.5,-288 466.5,-288 466.5,-318"/>
<text text-anchor="start" x="359.5" y="-306" font-family="Helvetica,sans-Serif" font-size="10.00">Geometry::Vector3D</text>
<text text-anchor="middle" x="409" y="-295" font-family="Helvetica,sans-Serif" font-size="10.00">::operator*</text>
</a>
</g>
</g>
<!-- Node1&#45;&gt;Node15 -->
<g id="edge21_Node000001_Node000015" class="edge">
<title>Node1&#45;&gt;Node15</title>
<g id="a_edge21_Node000001_Node000015"><a xlink:title=" ">
<path fill="none" stroke="#63b8ff" d="M508.53,-328.6C494.58,-324.98 480.02,-321.19 466.5,-317.68"/>
<polygon fill="#63b8ff" stroke="#63b8ff" points="507.99,-332.07 518.54,-331.2 509.75,-325.3 507.99,-332.07"/>
</a>
</g>
</g>
<!-- Node16 -->
<g id="Node000016" class="node">
<title>Node16</title>
<g id="a_Node000016"><a xlink:href="classGeometry_1_1Vector3D.html#aa583eecc673b26ce6058e6dd00238a62" target="_top" xlink:title=" ">
<polygon fill="white" stroke="#666666" points="466.5,-174 351.5,-174 351.5,-144 466.5,-144 466.5,-174"/>
<text text-anchor="start" x="359.5" y="-162" font-family="Helvetica,sans-Serif" font-size="10.00">Geometry::Vector3D</text>
<text text-anchor="middle" x="409" y="-151" font-family="Helvetica,sans-Serif" font-size="10.00">::operator*</text>
</a>
</g>
</g>
<!-- Node1&#45;&gt;Node16 -->
<g id="edge22_Node000001_Node000016" class="edge">
<title>Node1&#45;&gt;Node16</title>
<g id="a_edge22_Node000001_Node000016"><a xlink:title=" ">
<path fill="none" stroke="#63b8ff" d="M567.91,-321.37C555.7,-285.77 528.37,-220.15 483,-183 478.15,-179.03 472.62,-175.7 466.82,-172.93"/>
<polygon fill="#63b8ff" stroke="#63b8ff" points="564.62,-322.58 571.08,-330.98 571.27,-320.38 564.62,-322.58"/>
</a>
</g>
</g>
<!-- Node18 -->
<g id="Node000018" class="node">
<title>Node18</title>
<g id="a_Node000018"><a xlink:href="classGeometry_1_1Vector3D.html#a374498ca7780e4ff496e56d58424e111" target="_top" xlink:title=" ">
<polygon fill="white" stroke="#666666" points="466.5,-222 351.5,-222 351.5,-192 466.5,-192 466.5,-222"/>
<text text-anchor="start" x="359.5" y="-210" font-family="Helvetica,sans-Serif" font-size="10.00">Geometry::Vector3D</text>
<text text-anchor="middle" x="409" y="-199" font-family="Helvetica,sans-Serif" font-size="10.00">::operator+</text>
</a>
</g>
</g>
<!-- Node1&#45;&gt;Node18 -->
<g id="edge26_Node000001_Node000018" class="edge">
<title>Node1&#45;&gt;Node18</title>
<g id="a_edge26_Node000001_Node000018"><a xlink:title=" ">
<path fill="none" stroke="#63b8ff" d="M562.11,-322.17C546.36,-296.21 517.9,-255.16 483,-231 477.95,-227.51 472.36,-224.49 466.59,-221.9"/>
<polygon fill="#63b8ff" stroke="#63b8ff" points="559.22,-324.16 567.32,-330.99 565.25,-320.6 559.22,-324.16"/>
</a>
</g>
</g>
<!-- Node19 -->
<g id="Node000019" class="node">
<title>Node19</title>
<g id="a_Node000019"><a xlink:href="classGeometry_1_1Point3D.html#ae9af5cd5e04e5f0635d250cf80e4e78f" target="_top" xlink:title=" ">
<polygon fill="white" stroke="#666666" points="466.5,-270 351.5,-270 351.5,-240 466.5,-240 466.5,-270"/>
<text text-anchor="start" x="359.5" y="-258" font-family="Helvetica,sans-Serif" font-size="10.00">Geometry::Point3D::</text>
<text text-anchor="middle" x="409" y="-247" font-family="Helvetica,sans-Serif" font-size="10.00">operator&#45;</text>
</a>
</g>
</g>
<!-- Node1&#45;&gt;Node19 -->
<g id="edge27_Node000001_Node000019" class="edge">
<title>Node1&#45;&gt;Node19</title>
<g id="a_edge27_Node000001_Node000019"><a xlink:title=" ">
<path fill="none" stroke="#63b8ff" d="M550,-324.2C532.16,-309.81 507.28,-291.4 483,-279 476.58,-275.72 469.63,-272.76 462.64,-270.13"/>
<polygon fill="#63b8ff" stroke="#63b8ff" points="548.2,-327.25 558.15,-330.89 552.64,-321.84 548.2,-327.25"/>
</a>
</g>
</g>
<!-- Node20 -->
<g id="Node000020" class="node">
<title>Node20</title>
<g id="a_Node000020"><a xlink:href="classGeometry_1_1Vector3D.html#a12618c1c19f8fdd6ad13fa1c7c9147c0" target="_top" xlink:title=" ">
<polygon fill="white" stroke="#666666" points="466.5,-30 351.5,-30 351.5,0 466.5,0 466.5,-30"/>
<text text-anchor="start" x="359.5" y="-18" font-family="Helvetica,sans-Serif" font-size="10.00">Geometry::Vector3D</text>
<text text-anchor="middle" x="409" y="-7" font-family="Helvetica,sans-Serif" font-size="10.00">::operator&#45;</text>
</a>
</g>
</g>
<!-- Node1&#45;&gt;Node20 -->
<g id="edge31_Node000001_Node000020" class="edge">
<title>Node1&#45;&gt;Node20</title>
<g id="a_edge31_Node000001_Node000020"><a xlink:title=" ">
<path fill="none" stroke="#63b8ff" d="M575.34,-320.71C573.6,-262.74 561.14,-119.12 483,-39 478.34,-34.22 472.72,-30.4 466.69,-27.33"/>
<polygon fill="#63b8ff" stroke="#63b8ff" points="571.85,-320.89 575.56,-330.81 578.85,-320.73 571.85,-320.89"/>
</a>
</g>
</g>
<!-- Node21 -->
<g id="Node000021" class="node">
<title>Node21</title>
<g id="a_Node000021"><a xlink:href="classGeometry_1_1Vector3D.html#ae922fd3535e26ab859ab96c63c67dace" target="_top" xlink:title=" ">
<polygon fill="white" stroke="#666666" points="466.5,-78 351.5,-78 351.5,-48 466.5,-48 466.5,-78"/>
<text text-anchor="start" x="359.5" y="-66" font-family="Helvetica,sans-Serif" font-size="10.00">Geometry::Vector3D</text>
<text text-anchor="middle" x="409" y="-55" font-family="Helvetica,sans-Serif" font-size="10.00">::operator/</text>
</a>
</g>
</g>
<!-- Node1&#45;&gt;Node21 -->
<g id="edge33_Node000001_Node000021" class="edge">
<title>Node1&#45;&gt;Node21</title>
<g id="a_edge33_Node000001_Node000021"><a xlink:title=" ">
<path fill="none" stroke="#63b8ff" d="M573.65,-320.47C568.56,-269.02 549.89,-152.21 483,-87 478.32,-82.44 472.76,-78.74 466.82,-75.75"/>
<polygon fill="#63b8ff" stroke="#63b8ff" points="570.19,-321.05 574.57,-330.7 577.16,-320.43 570.19,-321.05"/>
</a>
</g>
</g>
<!-- Node22 -->
<g id="Node000022" class="node">
<title>Node22</title>
<g id="a_Node000022"><a xlink:href="classGeometry_1_1Vector3D.html#ac56b7f7705a5b7a2a4694d419b003162" target="_top" xlink:title=" ">
<polygon fill="white" stroke="#666666" points="466.5,-126 351.5,-126 351.5,-96 466.5,-96 466.5,-126"/>
<text text-anchor="start" x="359.5" y="-114" font-family="Helvetica,sans-Serif" font-size="10.00">Geometry::Vector3D</text>
<text text-anchor="middle" x="409" y="-103" font-family="Helvetica,sans-Serif" font-size="10.00">::operator/</text>
</a>
</g>
</g>
<!-- Node1&#45;&gt;Node22 -->
<g id="edge34_Node000001_Node000022" class="edge">
<title>Node1&#45;&gt;Node22</title>
<g id="a_edge34_Node000001_Node000022"><a xlink:title=" ">
<path fill="none" stroke="#63b8ff" d="M571.36,-320.92C562.8,-276.99 539.06,-185.94 483,-135 478.16,-130.6 472.5,-127.01 466.51,-124.08"/>
<polygon fill="#63b8ff" stroke="#63b8ff" points="567.92,-321.58 573.17,-330.78 574.8,-320.31 567.92,-321.58"/>
</a>
</g>
</g>
<!-- Node5&#45;&gt;Node2 -->
<g id="edge5_Node000005_Node000002" class="edge">
<title>Node5&#45;&gt;Node2</title>
<g id="a_edge5_Node000005_Node000002"><a xlink:title=" ">
<path fill="none" stroke="#63b8ff" d="M341.2,-552.84C321.94,-553.36 301.13,-553.94 282.55,-554.45"/>
<polygon fill="#63b8ff" stroke="#63b8ff" points="341.51,-556.33 351.41,-552.55 341.32,-549.33 341.51,-556.33"/>
</a>
</g>
</g>
<!-- Node5&#45;&gt;Node6 -->
<g id="edge6_Node000005_Node000006" class="edge">
<title>Node5&#45;&gt;Node6</title>
<g id="a_edge6_Node000005_Node000006"><a xlink:title=" ">
<path fill="none" stroke="#63b8ff" d="M341.36,-535.26C324,-531.15 305.37,-526.75 288.25,-522.71"/>
<polygon fill="#63b8ff" stroke="#63b8ff" points="340.87,-538.74 351.41,-537.63 342.48,-531.92 340.87,-538.74"/>
</a>
</g>
</g>
<!-- Node8 -->
<g id="Node000008" class="node">
<title>Node8</title>
<g id="a_Node000008"><a xlink:href="classRayTracer_1_1Camera.html#a3735fca524537e8a0ce755bb77e9a71f" target="_top" xlink:title="Render the scene into a 2D framebuffer.">
<polygon fill="white" stroke="#666666" points="115,-318 0,-318 0,-288 115,-288 115,-318"/>
<text text-anchor="start" x="8" y="-306" font-family="Helvetica,sans-Serif" font-size="10.00">RayTracer::Camera::</text>
<text text-anchor="middle" x="57.5" y="-295" font-family="Helvetica,sans-Serif" font-size="10.00">render</text>
</a>
</g>
</g>
<!-- Node7&#45;&gt;Node8 -->
<g id="edge8_Node000007_Node000008" class="edge">
<title>Node7&#45;&gt;Node8</title>
<g id="a_edge8_Node000007_Node000008"><a xlink:title=" ">
<path fill="none" stroke="#63b8ff" d="M166.38,-336.9C146.75,-330.73 125.03,-323.91 106.26,-318.01"/>
<polygon fill="#63b8ff" stroke="#63b8ff" points="165.54,-340.3 176.13,-339.96 167.64,-333.62 165.54,-340.3"/>
</a>
</g>
</g>
<!-- Node10&#45;&gt;Node2 -->
<g id="edge11_Node000010_Node000002" class="edge">
<title>Node10&#45;&gt;Node2</title>
<g id="a_edge11_Node000010_Node000002"><a xlink:title=" ">
<path fill="none" stroke="#63b8ff" d="M389.75,-449.84C369.76,-473.46 335.64,-509.93 299,-532 293.4,-535.37 287.27,-538.33 281.02,-540.92"/>
<polygon fill="#63b8ff" stroke="#63b8ff" points="392.51,-451.99 396.21,-442.06 387.13,-447.52 392.51,-451.99"/>
</a>
</g>
</g>
<!-- Node10&#45;&gt;Node4 -->
<g id="edge16_Node000010_Node000004" class="edge">
<title>Node10&#45;&gt;Node4</title>
<g id="a_edge16_Node000010_Node000004"><a xlink:title=" ">
<path fill="none" stroke="#63b8ff" d="M341.55,-439.05C322.95,-442.42 302.87,-446.06 284.75,-449.35"/>
<polygon fill="#63b8ff" stroke="#63b8ff" points="342.2,-442.49 351.41,-437.26 340.95,-435.6 342.2,-442.49"/>
</a>
</g>
</g>
<!-- Node10&#45;&gt;Node6 -->
<g id="edge20_Node000010_Node000006" class="edge">
<title>Node10&#45;&gt;Node6</title>
<g id="a_edge20_Node000010_Node000006"><a xlink:title=" ">
<path fill="none" stroke="#63b8ff" d="M373.26,-447.04C352.19,-458.71 324.53,-473.21 299,-484 291.5,-487.17 283.43,-490.19 275.49,-492.95"/>
<polygon fill="#63b8ff" stroke="#63b8ff" points="375.14,-450 382.15,-442.06 371.72,-443.89 375.14,-450"/>
</a>
</g>
</g>
<!-- Node10&#45;&gt;Node7 -->
<g id="edge17_Node000010_Node000007" class="edge">
<title>Node10&#45;&gt;Node7</title>
<g id="a_edge17_Node000010_Node000007"><a xlink:title=" ">
<path fill="none" stroke="#63b8ff" d="M350.04,-408.52C344.93,-406.72 339.86,-404.86 335,-403 320.52,-397.45 285.59,-381.92 259.14,-370.02"/>
<polygon fill="#63b8ff" stroke="#63b8ff" points="349.26,-411.95 359.86,-411.91 351.55,-405.34 349.26,-411.95"/>
</a>
</g>
</g>
<!-- Node11 -->
<g id="Node000011" class="node">
<title>Node11</title>
<g id="a_Node000011"><a xlink:href="classRayTracer_1_1DirectionalLight.html#a682bc429176da9bb6b1694703b44ba0e" target="_top" xlink:title=" ">
<polygon fill="white" stroke="#666666" points="299,-427 151,-427 151,-397 299,-397 299,-427"/>
<text text-anchor="start" x="159" y="-415" font-family="Helvetica,sans-Serif" font-size="10.00">RayTracer::DirectionalLight</text>
<text text-anchor="middle" x="225" y="-404" font-family="Helvetica,sans-Serif" font-size="10.00">::DirectionalLight</text>
</a>
</g>
</g>
<!-- Node10&#45;&gt;Node11 -->
<g id="edge12_Node000010_Node000011" class="edge">
<title>Node10&#45;&gt;Node11</title>
<g id="a_edge12_Node000010_Node000011"><a xlink:title=" ">
<path fill="none" stroke="#63b8ff" d="M341.17,-421.49C327.55,-420.37 313.14,-419.18 299.31,-418.04"/>
<polygon fill="#63b8ff" stroke="#63b8ff" points="341.16,-425 351.41,-422.34 341.73,-418.03 341.16,-425"/>
</a>
</g>
</g>
<!-- Node12 -->
<g id="Node000012" class="node">
<title>Node12</title>
<g id="a_Node000012"><a xlink:href="classRayTracer_1_1Camera.html#a7cd2251f34b6dda51fe338512e598571" target="_top" xlink:title="Evaluate the rendering equation along a ray, deterministically.">
<polygon fill="white" stroke="#666666" points="282.5,-266 167.5,-266 167.5,-236 282.5,-236 282.5,-266"/>
<text text-anchor="start" x="175.5" y="-254" font-family="Helvetica,sans-Serif" font-size="10.00">RayTracer::Camera::</text>
<text text-anchor="middle" x="225" y="-243" font-family="Helvetica,sans-Serif" font-size="10.00">castRay</text>
</a>
</g>
</g>
<!-- Node10&#45;&gt;Node12 -->
<g id="edge13_Node000010_Node000012" class="edge">
<title>Node10&#45;&gt;Node12</title>
<g id="a_edge13_Node000010_Node000012"><a xlink:title=" ">
<path fill="none" stroke="#63b8ff" d="M342.72,-409.4C339.96,-407.48 337.36,-405.36 335,-403 298.9,-366.95 331.03,-333.71 299,-294 289.49,-282.21 275.81,-272.94 262.87,-266.08"/>
<polygon fill="#63b8ff" stroke="#63b8ff" points="341.04,-412.48 351.44,-414.55 344.6,-406.45 341.04,-412.48"/>
</a>
</g>
</g>
<!-- Node13 -->
<g id="Node000013" class="node">
<title>Node13</title>
<g id="a_Node000013"><a xlink:href="classRayTracer_1_1Cylinder.html#ab42450e2290b96bccdf83ba79fa9d8af" target="_top" xlink:title="Test ray–cylinder intersection using the quadratic form of the cylinder equation.">
<polygon fill="white" stroke="#666666" points="290,-168.5 160,-168.5 160,-149.5 290,-149.5 290,-168.5"/>
<text text-anchor="middle" x="225" y="-156.5" font-family="Helvetica,sans-Serif" font-size="10.00">RayTracer::Cylinder::hit</text>
</a>
</g>
</g>
<!-- Node10&#45;&gt;Node13 -->
<g id="edge18_Node000010_Node000013" class="edge">
<title>Node10&#45;&gt;Node13</title>
<g id="a_edge18_Node000010_Node000013"><a xlink:title=" ">
<path fill="none" stroke="#63b8ff" d="M342.84,-410.26C339.98,-408.12 337.33,-405.71 335,-403 272.14,-329.85 359.18,-264.37 299,-189 291.48,-179.58 280.5,-173.09 269.33,-168.63"/>
<polygon fill="#63b8ff" stroke="#63b8ff" points="341.08,-413.29 351.43,-415.59 344.78,-407.34 341.08,-413.29"/>
</a>
</g>
</g>
<!-- Node14 -->
<g id="Node000014" class="node">
<title>Node14</title>
<g id="a_Node000014"><a xlink:href="classRayTracer_1_1Sphere.html#a40d439c5a658465a6eeef01f7679ecc9" target="_top" xlink:title="Test ray intersection with this primitive.">
<polygon fill="white" stroke="#666666" points="286.5,-321.5 163.5,-321.5 163.5,-302.5 286.5,-302.5 286.5,-321.5"/>
<text text-anchor="middle" x="225" y="-309.5" font-family="Helvetica,sans-Serif" font-size="10.00">RayTracer::Sphere::hit</text>
</a>
</g>
</g>
<!-- Node10&#45;&gt;Node14 -->
<g id="edge19_Node000010_Node000014" class="edge">
<title>Node10&#45;&gt;Node14</title>
<g id="a_edge19_Node000010_Node000014"><a xlink:title=" ">
<path fill="none" stroke="#63b8ff" d="M342.52,-408.59C339.87,-406.88 337.35,-405.03 335,-403 307.92,-379.61 326.8,-353.52 299,-331 294.22,-327.13 288.73,-324.03 282.96,-321.57"/>
<polygon fill="#63b8ff" stroke="#63b8ff" points="340.9,-411.69 351.33,-413.5 344.31,-405.58 340.9,-411.69"/>
</a>
</g>
</g>
<!-- Node12&#45;&gt;Node8 -->
<g id="edge15_Node000012_Node000008" class="edge">
<title>Node12&#45;&gt;Node8</title>
<g id="a_edge15_Node000012_Node000008"><a xlink:title=" ">
<path fill="none" stroke="#63b8ff" d="M166.38,-269.1C146.75,-275.27 125.03,-282.09 106.26,-287.99"/>
<polygon fill="#63b8ff" stroke="#63b8ff" points="167.64,-272.38 176.13,-266.04 165.54,-265.7 167.64,-272.38"/>
</a>
</g>
</g>
<!-- Node12&#45;&gt;Node12 -->
<g id="edge14_Node000012_Node000012" class="edge">
<title>Node12&#45;&gt;Node12</title>
<g id="a_edge14_Node000012_Node000012"><a xlink:title=" ">
<path fill="none" stroke="#63b8ff" d="M254.06,-276.6C250.09,-280.97 240.4,-284 225,-284 199.06,-284 189.34,-275.41 195.82,-266.28"/>
<polygon fill="#63b8ff" stroke="#63b8ff" points="257.56,-276.32 254.18,-266.28 250.56,-276.23 257.56,-276.32"/>
</a>
</g>
</g>
<!-- Node16&#45;&gt;Node12 -->
<g id="edge23_Node000016_Node000012" class="edge">
<title>Node16&#45;&gt;Node12</title>
<g id="a_edge23_Node000016_Node000012"><a xlink:title=" ">
<path fill="none" stroke="#63b8ff" d="M342.46,-178.46C339.88,-179.87 337.38,-181.39 335,-183 314.37,-196.98 319.54,-211.89 299,-226 293.48,-229.79 287.33,-233.06 281.01,-235.86"/>
<polygon fill="#63b8ff" stroke="#63b8ff" points="344.06,-181.57 351.48,-174 340.96,-175.29 344.06,-181.57"/>
</a>
</g>
</g>
<!-- Node16&#45;&gt;Node13 -->
<g id="edge24_Node000016_Node000013" class="edge">
<title>Node16&#45;&gt;Node13</title>
<g id="a_edge24_Node000016_Node000013"><a xlink:title=" ">
<path fill="none" stroke="#63b8ff" d="M341.21,-159C324.55,-159 306.71,-159 290.18,-159"/>
<polygon fill="#63b8ff" stroke="#63b8ff" points="341.41,-162.5 351.41,-159 341.41,-155.5 341.41,-162.5"/>
</a>
</g>
</g>
<!-- Node17 -->
<g id="Node000017" class="node">
<title>Node17</title>
<g id="a_Node000017"><a xlink:href="classRayTracer_1_1Plane.html#a7b741696eb186f6ec9df62e58e795916" target="_top" xlink:title="Test ray–plane intersection using the algebraic plane equation.">
<polygon fill="white" stroke="#666666" points="283,-216.5 167,-216.5 167,-197.5 283,-197.5 283,-216.5"/>
<text text-anchor="middle" x="225" y="-204.5" font-family="Helvetica,sans-Serif" font-size="10.00">RayTracer::Plane::hit</text>
</a>
</g>
</g>
<!-- Node16&#45;&gt;Node17 -->
<g id="edge25_Node000016_Node000017" class="edge">
<title>Node16&#45;&gt;Node17</title>
<g id="a_edge25_Node000016_Node000017"><a xlink:title=" ">
<path fill="none" stroke="#63b8ff" d="M341.68,-176.49C314.83,-183.57 284.89,-191.47 262.19,-197.46"/>
<polygon fill="#63b8ff" stroke="#63b8ff" points="342.63,-179.86 351.41,-173.92 340.85,-173.09 342.63,-179.86"/>
</a>
</g>
</g>
<!-- Node19&#45;&gt;Node13 -->
<g id="edge28_Node000019_Node000013" class="edge">
<title>Node19&#45;&gt;Node13</title>
<g id="a_edge28_Node000019_Node000013"><a xlink:title=" ">
<path fill="none" stroke="#63b8ff" d="M342.48,-235.51C339.9,-234.1 337.39,-232.6 335,-231 314.57,-217.32 318.92,-203.41 299,-189 286.79,-180.17 271.59,-173.39 258.23,-168.53"/>
<polygon fill="#63b8ff" stroke="#63b8ff" points="341,-238.68 351.52,-239.94 344.08,-232.39 341,-238.68"/>
</a>
</g>
</g>
<!-- Node19&#45;&gt;Node14 -->
<g id="edge30_Node000019_Node000014" class="edge">
<title>Node19&#45;&gt;Node14</title>
<g id="a_edge30_Node000019_Node000014"><a xlink:title=" ">
<path fill="none" stroke="#63b8ff" d="M351.01,-273.41C345.59,-275.26 340.18,-277.14 335,-279 318.84,-284.79 315.33,-287.72 299,-293 288.41,-296.42 276.8,-299.67 266.02,-302.48"/>
<polygon fill="#63b8ff" stroke="#63b8ff" points="352.39,-276.64 360.75,-270.13 350.16,-270 352.39,-276.64"/>
</a>
</g>
</g>
<!-- Node19&#45;&gt;Node17 -->
<g id="edge29_Node000019_Node000017" class="edge">
<title>Node19&#45;&gt;Node17</title>
<g id="a_edge29_Node000019_Node000017"><a xlink:title=" ">
<path fill="none" stroke="#63b8ff" d="M341.68,-237.51C314.83,-230.43 284.89,-222.53 262.19,-216.54"/>
<polygon fill="#63b8ff" stroke="#63b8ff" points="340.85,-240.91 351.41,-240.08 342.63,-234.14 340.85,-240.91"/>
</a>
</g>
</g>
<!-- Node20&#45;&gt;Node13 -->
<g id="edge32_Node000020_Node000013" class="edge">
<title>Node20&#45;&gt;Node13</title>
<g id="a_edge32_Node000020_Node000013"><a xlink:title=" ">
<path fill="none" stroke="#63b8ff" d="M342.71,-34.49C340.05,-35.9 337.47,-37.4 335,-39 287.31,-69.94 247.01,-126.77 232.14,-149.36"/>
<polygon fill="#63b8ff" stroke="#63b8ff" points="344.49,-37.52 352,-30.05 341.46,-31.2 344.49,-37.52"/>
</a>
</g>
</g>
<!-- Node22&#45;&gt;Node13 -->
<g id="edge35_Node000022_Node000013" class="edge">
<title>Node22&#45;&gt;Node13</title>
<g id="a_edge35_Node000022_Node000013"><a xlink:title=" ">
<path fill="none" stroke="#63b8ff" d="M341.68,-128.49C314.83,-135.57 284.89,-143.47 262.19,-149.46"/>
<polygon fill="#63b8ff" stroke="#63b8ff" points="342.63,-131.86 351.41,-125.92 340.85,-125.09 342.63,-131.86"/>
</a>
</g>
</g>
</g>
</svg>
