<?xml version="1.0" encoding="UTF-8" standalone="no"?>
<!DOCTYPE svg PUBLIC "-//W3C//DTD SVG 1.1//EN"
 "http://www.w3.org/Graphics/SVG/1.1/DTD/svg11.dtd">
<!-- Generated by graphviz version 2.43.0 (0)
 -->
<!-- Title: RayTracer::BVHCam Pages: 1 -->
<svg width="540pt" height="695pt"
 viewBox="0.00 0.00 539.50 695.00" xmlns="http://www.w3.org/2000/svg" xmlns:xlink="http://www.w3.org/1999/xlink">
<g id="graph0" class="graph" transform="scale(1 1) rotate(0) translate(4 691)">
<title>RayTracer::BVHCam</title>
<!-- Node1 -->
<g id="Node000001" class="node">
<title>Node1</title>
<g id="a_Node000001"><a xlink:title="Renderer that evaluates the rendering equation deterministically.">
<polygon fill="#999999" stroke="transparent" points="287,-139 127,-139 127,0 287,0 287,-139"/>
<text text-anchor="start" x="158" y="-126.5" font-family="Helvetica,sans-Serif" font-size="10.00">RayTracer::BVHCam</text>
<text text-anchor="start" x="133.5" y="-111.5" font-family="Helvetica,sans-Serif" font-size="10.00">&#45;</text>
<text text-anchor="start" x="144" y="-111.5" font-family="Helvetica,sans-Serif" font-size="10.00">_fov</text>
<text text-anchor="start" x="133.5" y="-96.5" font-family="Helvetica,sans-Serif" font-size="10.00">&#45;</text>
<text text-anchor="start" x="144" y="-96.5" font-family="Helvetica,sans-Serif" font-size="10.00">_sqrtSamples</text>
<text text-anchor="start" x="131" y="-81.5" font-family="Helvetica,sans-Serif" font-size="10.00">+</text>
<text text-anchor="start" x="144" y="-81.5" font-family="Helvetica,sans-Serif" font-size="10.00">BVHCam()</text>
<text text-anchor="start" x="131" y="-66.5" font-family="Helvetica,sans-Serif" font-size="10.00">+</text>
<text text-anchor="start" x="144" y="-66.5" font-family="Helvetica,sans-Serif" font-size="10.00">BVHCam()</text>
<text text-anchor="start" x="131" y="-51.5" font-family="Helvetica,sans-Serif" font-size="10.00">+</text>
<text text-anchor="start" x="144" y="-51.5" font-family="Helvetica,sans-Serif" font-size="10.00">~BVHCam()</text>
<text text-anchor="start" x="131" y="-36.5" font-family="Helvetica,sans-Serif" font-size="10.00">+</text>
<text text-anchor="start" x="144" y="-36.5" font-family="Helvetica,sans-Serif" font-size="10.00">generateRay()</text>
<text text-anchor="start" x="131" y="-21.5" font-family="Helvetica,sans-Serif" font-size="10.00">+</text>
<text text-anchor="start" x="144" y="-21.5" font-family="Helvetica,sans-Serif" font-size="10.00">render()</text>
<text text-anchor="start" x="133.5" y="-6.5" font-family="Helvetica,sans-Serif" font-size="10.00">&#45;</text>
<text text-anchor="start" x="144" y="-6.5" font-family="Helvetica,sans-Serif" font-size="10.00">buildScreenFromTransform()</text>
<polygon fill="#666666" stroke="#666666" points="127,-121.5 127,-121.5 287,-121.5 287,-121.5 127,-121.5"/>
<polygon fill="#666666" stroke="#666666" points="127,-91.5 127,-91.5 142,-91.5 142,-91.5 127,-91.5"/>
<polygon fill="#666666" stroke="#666666" points="142,-91.5 142,-91.5 287,-91.5 287,-91.5 142,-91.5"/>
<polygon fill="none" stroke="#666666" points="127,0 127,-139 287,-139 287,0 127,0"/>
</a>
</g>
</g>
<!-- Node2 -->
<g id="Node000002" class="node">
<title>Node2</title>
<g id="a_Node000002"><a xlink:href="classRayTracer_1_1ARenderer.html" target="_top" xlink:title="Abstract base class for all renderers. Defines the interface for rendering a scene and producing a fr...">
<polygon fill="white" stroke="transparent" points="116,-347.5 0,-347.5 0,-208.5 116,-208.5 116,-347.5"/>
<text text-anchor="start" x="5" y="-335" font-family="Helvetica,sans-Serif" font-size="10.00">RayTracer::ARenderer</text>
<text text-anchor="start" x="11" y="-320" font-family="Helvetica,sans-Serif" font-size="10.00">#</text>
<text text-anchor="start" x="31" y="-320" font-family="Helvetica,sans-Serif" font-size="10.00">_width</text>
<text text-anchor="start" x="11" y="-305" font-family="Helvetica,sans-Serif" font-size="10.00">#</text>
<text text-anchor="start" x="31" y="-305" font-family="Helvetica,sans-Serif" font-size="10.00">_height</text>
<text text-anchor="start" x="11" y="-290" font-family="Helvetica,sans-Serif" font-size="10.00">+</text>
<text text-anchor="start" x="31" y="-290" font-family="Helvetica,sans-Serif" font-size="10.00">ARenderer()</text>
<text text-anchor="start" x="11" y="-275" font-family="Helvetica,sans-Serif" font-size="10.00">+</text>
<text text-anchor="start" x="31" y="-275" font-family="Helvetica,sans-Serif" font-size="10.00">~ARenderer()</text>
<text text-anchor="start" x="11" y="-260" font-family="Helvetica,sans-Serif" font-size="10.00">+</text>
<text text-anchor="start" x="31" y="-260" font-family="Helvetica,sans-Serif" font-size="10.00">render()</text>
<text text-anchor="start" x="11" y="-245" font-family="Helvetica,sans-Serif" font-size="10.00">+</text>
<text text-anchor="start" x="31" y="-245" font-family="Helvetica,sans-Serif" font-size="10.00">render()</text>
<text text-anchor="start" x="11" y="-230" font-family="Helvetica,sans-Serif" font-size="10.00">+</text>
<text text-anchor="start" x="31" y="-230" font-family="Helvetica,sans-Serif" font-size="10.00">getWidth()</text>
<text text-anchor="start" x="11" y="-215" font-family="Helvetica,sans-Serif" font-size="10.00">+</text>
<text text-anchor="start" x="31" y="-215" font-family="Helvetica,sans-Serif" font-size="10.00">getHeight()</text>
<polygon fill="#666666" stroke="#666666" points="0,-330 0,-330 116,-330 116,-330 0,-330"/>
<polygon fill="#666666" stroke="#666666" points="0,-300 0,-300 29,-300 29,-300 0,-300"/>
<polygon fill="#666666" stroke="#666666" points="29,-300 29,-300 116,-300 116,-300 29,-300"/>
<polygon fill="none" stroke="#666666" points="0,-208.5 0,-347.5 116,-347.5 116,-208.5 0,-208.5"/>
</a>
</g>
</g>
<!-- Node2&#45;&gt;Node1 -->
<g id="edge1_Node000001_Node000002" class="edge">
<title>Node2&#45;&gt;Node1</title>
<g id="a_edge1_Node000001_Node000002"><a xlink:title=" ">
<path fill="none" stroke="#63b8ff" d="M113.5,-200.09C127.88,-180.15 143.28,-158.81 157.35,-139.31"/>
<polygon fill="none" stroke="#63b8ff" points="110.63,-198.08 107.61,-208.24 116.3,-202.18 110.63,-198.08"/>
</a>
</g>
</g>
<!-- Node3 -->
<g id="Node000003" class="node">
<title>Node3</title>
<g id="a_Node000003"><a xlink:href="classGeometry_1_1TransformMatrix.html" target="_top" xlink:title=" ">
<polygon fill="white" stroke="transparent" points="279.5,-370 134.5,-370 134.5,-186 279.5,-186 279.5,-370"/>
<text text-anchor="start" x="140" y="-358" font-family="Helvetica,sans-Serif" font-size="10.00">Geometry::TransformMatrix</text>
<text text-anchor="start" x="205.5" y="-343" font-family="Helvetica,sans-Serif" font-size="10.00"> </text>
<text text-anchor="start" x="145.5" y="-328" font-family="Helvetica,sans-Serif" font-size="10.00">+</text>
<text text-anchor="start" x="165" y="-328" font-family="Helvetica,sans-Serif" font-size="10.00">TransformMatrix()</text>
<text text-anchor="start" x="145.5" y="-313" font-family="Helvetica,sans-Serif" font-size="10.00">+</text>
<text text-anchor="start" x="165" y="-313" font-family="Helvetica,sans-Serif" font-size="10.00">TransformMatrix()</text>
<text text-anchor="start" x="145.5" y="-298" font-family="Helvetica,sans-Serif" font-size="10.00">+</text>
<text text-anchor="start" x="165" y="-298" font-family="Helvetica,sans-Serif" font-size="10.00">~TransformMatrix()</text>
<text text-anchor="start" x="145.5" y="-283" font-family="Helvetica,sans-Serif" font-size="10.00">+</text>
<text text-anchor="start" x="165" y="-283" font-family="Helvetica,sans-Serif" font-size="10.00">operator*()</text>
<text text-anchor="start" x="145.5" y="-268" font-family="Helvetica,sans-Serif" font-size="10.00">+</text>
<text text-anchor="start" x="165" y="-268" font-family="Helvetica,sans-Serif" font-size="10.00">operator*()</text>
<text text-anchor="start" x="145.5" y="-253" font-family="Helvetica,sans-Serif" font-size="10.00">+</text>
<text text-anchor="start" x="165" y="-253" font-family="Helvetica,sans-Serif" font-size="10.00">translation()</text>
<text text-anchor="start" x="145.5" y="-238" font-family="Helvetica,sans-Serif" font-size="10.00">+</text>
<text text-anchor="start" x="165" y="-238" font-family="Helvetica,sans-Serif" font-size="10.00">scaling()</text>
<text text-anchor="start" x="145.5" y="-223" font-family="Helvetica,sans-Serif" font-size="10.00">+</text>
<text text-anchor="start" x="165" y="-223" font-family="Helvetica,sans-Serif" font-size="10.00">rotationX()</text>
<text text-anchor="start" x="145.5" y="-208" font-family="Helvetica,sans-Serif" font-size="10.00">+</text>
<text text-anchor="start" x="165" y="-208" font-family="Helvetica,sans-Serif" font-size="10.00">rotationY()</text>
<text text-anchor="start" x="145.5" y="-193" font-family="Helvetica,sans-Serif" font-size="10.00">+</text>
<text text-anchor="start" x="165" y="-193" font-family="Helvetica,sans-Serif" font-size="10.00">rotationZ()</text>
<polygon fill="#666666" stroke="#666666" points="135,-353 135,-353 280,-353 280,-353 135,-353"/>
<polygon fill="#666666" stroke="#666666" points="135,-338 135,-338 280,-338 280,-338 135,-338"/>
<polygon fill="none" stroke="#666666" points="134.5,-186 134.5,-370 279.5,-370 279.5,-186 134.5,-186"/>
</a>
</g>
</g>
<!-- Node3&#45;&gt;Node1 -->
<g id="edge2_Node000001_Node000003" class="edge">
<title>Node3&#45;&gt;Node1</title>
<g id="a_edge2_Node000001_Node000003"><a xlink:title=" ">
<path fill="none" stroke="#63b8ff" d="M207,-185.82C207,-174.32 207,-162.61 207,-151.28"/>
<polygon fill="none" stroke="#63b8ff" points="207,-151.17 203,-145.17 207,-139.17 211,-145.17 207,-151.17"/>
</a>
</g>
<text text-anchor="middle" x="237.5" y="-160" font-family="Helvetica,sans-Serif" font-size="10.00" fill="grey"> &#45;_transform</text>
</g>
<!-- Node4 -->
<g id="Node000004" class="node">
<title>Node4</title>
<g id="a_Node000004"><a xlink:href="classGeometry_1_1Matrix.html" target="_top" xlink:title=" ">
<polygon fill="white" stroke="transparent" points="275.5,-687 138.5,-687 138.5,-428 275.5,-428 275.5,-687"/>
<text text-anchor="start" x="144" y="-674.5" font-family="Helvetica,sans-Serif" font-size="10.00">Geometry::Matrix&lt; 4, 4 &gt;</text>
<text text-anchor="start" x="155.5" y="-659.5" font-family="Helvetica,sans-Serif" font-size="10.00">#</text>
<text text-anchor="start" x="181" y="-659.5" font-family="Helvetica,sans-Serif" font-size="10.00">data</text>
<text text-anchor="start" x="155.5" y="-644.5" font-family="Helvetica,sans-Serif" font-size="10.00">+</text>
<text text-anchor="start" x="181" y="-644.5" font-family="Helvetica,sans-Serif" font-size="10.00">Matrix()</text>
<text text-anchor="start" x="155.5" y="-629.5" font-family="Helvetica,sans-Serif" font-size="10.00">+</text>
<text text-anchor="start" x="181" y="-629.5" font-family="Helvetica,sans-Serif" font-size="10.00">Matrix()</text>
<text text-anchor="start" x="155.5" y="-614.5" font-family="Helvetica,sans-Serif" font-size="10.00">+</text>
<text text-anchor="start" x="181" y="-614.5" font-family="Helvetica,sans-Serif" font-size="10.00">Matrix()</text>
<text text-anchor="start" x="155.5" y="-599.5" font-family="Helvetica,sans-Serif" font-size="10.00">+</text>
<text text-anchor="start" x="181" y="-599.5" font-family="Helvetica,sans-Serif" font-size="10.00">~Matrix()</text>
<text text-anchor="start" x="155.5" y="-584.5" font-family="Helvetica,sans-Serif" font-size="10.00">+</text>
<text text-anchor="start" x="181" y="-584.5" font-family="Helvetica,sans-Serif" font-size="10.00">operator()()</text>
<text text-anchor="start" x="155.5" y="-569.5" font-family="Helvetica,sans-Serif" font-size="10.00">+</text>
<text text-anchor="start" x="181" y="-569.5" font-family="Helvetica,sans-Serif" font-size="10.00">operator()()</text>
<text text-anchor="start" x="155.5" y="-554.5" font-family="Helvetica,sans-Serif" font-size="10.00">+</text>
<text text-anchor="start" x="181" y="-554.5" font-family="Helvetica,sans-Serif" font-size="10.00">operator+()</text>
<text text-anchor="start" x="155.5" y="-539.5" font-family="Helvetica,sans-Serif" font-size="10.00">+</text>
<text text-anchor="start" x="181" y="-539.5" font-family="Helvetica,sans-Serif" font-size="10.00">operator+=()</text>
<text text-anchor="start" x="155.5" y="-524.5" font-family="Helvetica,sans-Serif" font-size="10.00">+</text>
<text text-anchor="start" x="181" y="-524.5" font-family="Helvetica,sans-Serif" font-size="10.00">operator&#45;()</text>
<text text-anchor="start" x="155.5" y="-509.5" font-family="Helvetica,sans-Serif" font-size="10.00">+</text>
<text text-anchor="start" x="181" y="-509.5" font-family="Helvetica,sans-Serif" font-size="10.00">operator&#45;=()</text>
<text text-anchor="start" x="155.5" y="-494.5" font-family="Helvetica,sans-Serif" font-size="10.00">+</text>
<text text-anchor="start" x="181" y="-494.5" font-family="Helvetica,sans-Serif" font-size="10.00">operator*()</text>
<text text-anchor="start" x="155.5" y="-479.5" font-family="Helvetica,sans-Serif" font-size="10.00">+</text>
<text text-anchor="start" x="181" y="-479.5" font-family="Helvetica,sans-Serif" font-size="10.00">operator*()</text>
<text text-anchor="start" x="155.5" y="-464.5" font-family="Helvetica,sans-Serif" font-size="10.00">+</text>
<text text-anchor="start" x="181" y="-464.5" font-family="Helvetica,sans-Serif" font-size="10.00">operator*=()</text>
<text text-anchor="start" x="155.5" y="-449.5" font-family="Helvetica,sans-Serif" font-size="10.00">+</text>
<text text-anchor="start" x="181" y="-449.5" font-family="Helvetica,sans-Serif" font-size="10.00">operator*=()</text>
<text text-anchor="start" x="155.5" y="-434.5" font-family="Helvetica,sans-Serif" font-size="10.00">+</text>
<text text-anchor="start" x="181" y="-434.5" font-family="Helvetica,sans-Serif" font-size="10.00">identity()</text>
<polygon fill="#666666" stroke="#666666" points="139,-669.5 139,-669.5 276,-669.5 276,-669.5 139,-669.5"/>
<polygon fill="#666666" stroke="#666666" points="139,-654.5 139,-654.5 179,-654.5 179,-654.5 139,-654.5"/>
<polygon fill="#666666" stroke="#666666" points="179,-654.5 179,-654.5 276,-654.5 276,-654.5 179,-654.5"/>
<polygon fill="none" stroke="#666666" points="138.5,-428 138.5,-687 275.5,-687 275.5,-428 138.5,-428"/>
</a>
</g>
</g>
<!-- Node4&#45;&gt;Node3 -->
<g id="edge3_Node000003_Node000004" class="edge">
<title>Node4&#45;&gt;Node3</title>
<g id="a_edge3_Node000003_Node000004"><a xlink:title=" ">
<path fill="none" stroke="#63b8ff" d="M207,-417.87C207,-401.75 207,-385.62 207,-370.37"/>
<polygon fill="none" stroke="#63b8ff" points="203.5,-417.9 207,-427.9 210.5,-417.9 203.5,-417.9"/>
</a>
</g>
</g>
<!-- Node5 -->
<g id="Node000005" class="node">
<title>Node5</title>
<g id="a_Node000005"><a xlink:href="classGeometry_1_1Rectangle3D.html" target="_top" xlink:title="Represents a planar rectangular surface in 3D space. Defined by an origin and two edge vectors (width...">
<polygon fill="white" stroke="transparent" points="424.5,-310 297.5,-310 297.5,-246 424.5,-246 424.5,-310"/>
<text text-anchor="start" x="303" y="-298" font-family="Helvetica,sans-Serif" font-size="10.00">Geometry::Rectangle3D</text>
<text text-anchor="start" x="359.5" y="-283" font-family="Helvetica,sans-Serif" font-size="10.00"> </text>
<text text-anchor="start" x="311" y="-268" font-family="Helvetica,sans-Serif" font-size="10.00">+</text>
<text text-anchor="start" x="333" y="-268" font-family="Helvetica,sans-Serif" font-size="10.00">Rectangle3D()</text>
<text text-anchor="start" x="311" y="-253" font-family="Helvetica,sans-Serif" font-size="10.00">+</text>
<text text-anchor="start" x="333" y="-253" font-family="Helvetica,sans-Serif" font-size="10.00">pointAt()</text>
<polygon fill="#666666" stroke="#666666" points="298,-293 298,-293 425,-293 425,-293 298,-293"/>
<polygon fill="#666666" stroke="#666666" points="298,-278 298,-278 425,-278 425,-278 298,-278"/>
<polygon fill="none" stroke="#666666" points="297.5,-246 297.5,-310 424.5,-310 424.5,-246 297.5,-246"/>
</a>
</g>
</g>
<!-- Node5&#45;&gt;Node1 -->
<g id="edge4_Node000001_Node000005" class="edge">
<title>Node5&#45;&gt;Node1</title>
<g id="a_edge4_Node000001_Node000005"><a xlink:title=" ">
<path fill="none" stroke="#63b8ff" d="M338,-245.88C320.06,-221.63 294.5,-187.14 272,-157 270.07,-154.41 268.1,-151.77 266.11,-149.11"/>
<polygon fill="none" stroke="#63b8ff" points="266.03,-149.01 259.23,-146.6 258.84,-139.4 265.64,-141.81 266.03,-149.01"/>
</a>
</g>
<text text-anchor="middle" x="302.5" y="-160" font-family="Helvetica,sans-Serif" font-size="10.00" fill="grey"> &#45;_screen</text>
</g>
<!-- Node6 -->
<g id="Node000006" class="node">
<title>Node6</title>
<g id="a_Node000006"><a xlink:href="classGeometry_1_1Point3D.html" target="_top" xlink:title="Represents a 3D point in space.">
<polygon fill="white" stroke="transparent" points="404.5,-649.5 301.5,-649.5 301.5,-465.5 404.5,-465.5 404.5,-649.5"/>
<text text-anchor="start" x="307" y="-637.5" font-family="Helvetica,sans-Serif" font-size="10.00">Geometry::Point3D</text>
<text text-anchor="start" x="310" y="-622.5" font-family="Helvetica,sans-Serif" font-size="10.00">+</text>
<text text-anchor="start" x="327" y="-622.5" font-family="Helvetica,sans-Serif" font-size="10.00">x</text>
<text text-anchor="start" x="310" y="-607.5" font-family="Helvetica,sans-Serif" font-size="10.00">+</text>
<text text-anchor="start" x="327" y="-607.5" font-family="Helvetica,sans-Serif" font-size="10.00">y</text>
<text text-anchor="start" x="310" y="-592.5" font-family="Helvetica,sans-Serif" font-size="10.00">+</text>
<text text-anchor="start" x="327" y="-592.5" font-family="Helvetica,sans-Serif" font-size="10.00">z</text>
<text text-anchor="start" x="310" y="-577.5" font-family="Helvetica,sans-Serif" font-size="10.00">+</text>
<text text-anchor="start" x="327" y="-577.5" font-family="Helvetica,sans-Serif" font-size="10.00">Point3D()</text>
<text text-anchor="start" x="310" y="-562.5" font-family="Helvetica,sans-Serif" font-size="10.00">+</text>
<text text-anchor="start" x="327" y="-562.5" font-family="Helvetica,sans-Serif" font-size="10.00">Point3D()</text>
<text text-anchor="start" x="310" y="-547.5" font-family="Helvetica,sans-Serif" font-size="10.00">+</text>
<text text-anchor="start" x="327" y="-547.5" font-family="Helvetica,sans-Serif" font-size="10.00">~Point3D()</text>
<text text-anchor="start" x="310" y="-532.5" font-family="Helvetica,sans-Serif" font-size="10.00">+</text>
<text text-anchor="start" x="327" y="-532.5" font-family="Helvetica,sans-Serif" font-size="10.00">operator+()</text>
<text text-anchor="start" x="310" y="-517.5" font-family="Helvetica,sans-Serif" font-size="10.00">+</text>
<text text-anchor="start" x="327" y="-517.5" font-family="Helvetica,sans-Serif" font-size="10.00">operator&#45;()</text>
<text text-anchor="start" x="310" y="-502.5" font-family="Helvetica,sans-Serif" font-size="10.00">+</text>
<text text-anchor="start" x="327" y="-502.5" font-family="Helvetica,sans-Serif" font-size="10.00">operator+=()</text>
<text text-anchor="start" x="310" y="-487.5" font-family="Helvetica,sans-Serif" font-size="10.00">+</text>
<text text-anchor="start" x="327" y="-487.5" font-family="Helvetica,sans-Serif" font-size="10.00">operator&#45;()</text>
<text text-anchor="start" x="310" y="-472.5" font-family="Helvetica,sans-Serif" font-size="10.00">+</text>
<text text-anchor="start" x="327" y="-472.5" font-family="Helvetica,sans-Serif" font-size="10.00">operator=()</text>
<polygon fill="#666666" stroke="#666666" points="302,-632.5 302,-632.5 405,-632.5 405,-632.5 302,-632.5"/>
<polygon fill="#666666" stroke="#666666" points="302,-587.5 302,-587.5 325,-587.5 325,-587.5 302,-587.5"/>
<polygon fill="#666666" stroke="#666666" points="325,-587.5 325,-587.5 405,-587.5 405,-587.5 325,-587.5"/>
<polygon fill="none" stroke="#666666" points="301.5,-465.5 301.5,-649.5 404.5,-649.5 404.5,-465.5 301.5,-465.5"/>
</a>
</g>
</g>
<!-- Node6&#45;&gt;Node5 -->
<g id="edge5_Node000005_Node000006" class="edge">
<title>Node6&#45;&gt;Node5</title>
<g id="a_edge5_Node000005_Node000006"><a xlink:title=" ">
<path fill="none" stroke="#63b8ff" d="M355.63,-465.25C357.02,-417.14 358.65,-360.36 359.75,-322.25"/>
<polygon fill="none" stroke="#63b8ff" points="359.76,-322.08 355.93,-315.96 360.1,-310.08 363.93,-316.19 359.76,-322.08"/>
</a>
</g>
<text text-anchor="middle" x="378" y="-396.5" font-family="Helvetica,sans-Serif" font-size="10.00" fill="grey"> +origin</text>
</g>
<!-- Node7 -->
<g id="Node000007" class="node">
<title>Node7</title>
<g id="a_Node000007"><a xlink:href="classGeometry_1_1Vector3D.html" target="_top" xlink:title="Represents a 3D vector for directions or displacements.">
<polygon fill="white" stroke="transparent" points="531.5,-687 422.5,-687 422.5,-428 531.5,-428 531.5,-687"/>
<text text-anchor="start" x="428" y="-674.5" font-family="Helvetica,sans-Serif" font-size="10.00">Geometry::Vector3D</text>
<text text-anchor="start" x="431" y="-659.5" font-family="Helvetica,sans-Serif" font-size="10.00">+</text>
<text text-anchor="start" x="448" y="-659.5" font-family="Helvetica,sans-Serif" font-size="10.00">x</text>
<text text-anchor="start" x="431" y="-644.5" font-family="Helvetica,sans-Serif" font-size="10.00">+</text>
<text text-anchor="start" x="448" y="-644.5" font-family="Helvetica,sans-Serif" font-size="10.00">y</text>
<text text-anchor="start" x="431" y="-629.5" font-family="Helvetica,sans-Serif" font-size="10.00">+</text>
<text text-anchor="start" x="448" y="-629.5" font-family="Helvetica,sans-Serif" font-size="10.00">z</text>
<text text-anchor="start" x="431" y="-614.5" font-family="Helvetica,sans-Serif" font-size="10.00">+</text>
<text text-anchor="start" x="448" y="-614.5" font-family="Helvetica,sans-Serif" font-size="10.00">Vector3D()</text>
<text text-anchor="start" x="431" y="-599.5" font-family="Helvetica,sans-Serif" font-size="10.00">+</text>
<text text-anchor="start" x="448" y="-599.5" font-family="Helvetica,sans-Serif" font-size="10.00">Vector3D()</text>
<text text-anchor="start" x="431" y="-584.5" font-family="Helvetica,sans-Serif" font-size="10.00">+</text>
<text text-anchor="start" x="448" y="-584.5" font-family="Helvetica,sans-Serif" font-size="10.00">~Vector3D()</text>
<text text-anchor="start" x="431" y="-569.5" font-family="Helvetica,sans-Serif" font-size="10.00">+</text>
<text text-anchor="start" x="448" y="-569.5" font-family="Helvetica,sans-Serif" font-size="10.00">length()</text>
<text text-anchor="start" x="431" y="-554.5" font-family="Helvetica,sans-Serif" font-size="10.00">+</text>
<text text-anchor="start" x="448" y="-554.5" font-family="Helvetica,sans-Serif" font-size="10.00">length()</text>
<text text-anchor="start" x="431" y="-539.5" font-family="Helvetica,sans-Serif" font-size="10.00">+</text>
<text text-anchor="start" x="448" y="-539.5" font-family="Helvetica,sans-Serif" font-size="10.00">dot()</text>
<text text-anchor="start" x="431" y="-524.5" font-family="Helvetica,sans-Serif" font-size="10.00">+</text>
<text text-anchor="start" x="448" y="-524.5" font-family="Helvetica,sans-Serif" font-size="10.00">normalize()</text>
<text text-anchor="start" x="431" y="-509.5" font-family="Helvetica,sans-Serif" font-size="10.00">+</text>
<text text-anchor="start" x="448" y="-509.5" font-family="Helvetica,sans-Serif" font-size="10.00">operator+()</text>
<text text-anchor="start" x="431" y="-494.5" font-family="Helvetica,sans-Serif" font-size="10.00">+</text>
<text text-anchor="start" x="448" y="-494.5" font-family="Helvetica,sans-Serif" font-size="10.00">operator+=()</text>
<text text-anchor="start" x="431" y="-479.5" font-family="Helvetica,sans-Serif" font-size="10.00">+</text>
<text text-anchor="start" x="448" y="-479.5" font-family="Helvetica,sans-Serif" font-size="10.00">operator&#45;()</text>
<text text-anchor="start" x="448" y="-464.5" font-family="Helvetica,sans-Serif" font-size="10.00">and 10 more...</text>
<text text-anchor="start" x="431" y="-449.5" font-family="Helvetica,sans-Serif" font-size="10.00">+</text>
<text text-anchor="start" x="448" y="-449.5" font-family="Helvetica,sans-Serif" font-size="10.00">dot()</text>
<text text-anchor="start" x="431" y="-434.5" font-family="Helvetica,sans-Serif" font-size="10.00">+</text>
<text text-anchor="start" x="448" y="-434.5" font-family="Helvetica,sans-Serif" font-size="10.00">cross()</text>
<polygon fill="#666666" stroke="#666666" points="423,-669.5 423,-669.5 532,-669.5 532,-669.5 423,-669.5"/>
<polygon fill="#666666" stroke="#666666" points="423,-624.5 423,-624.5 446,-624.5 446,-624.5 423,-624.5"/>
<polygon fill="#666666" stroke="#666666" points="446,-624.5 446,-624.5 532,-624.5 532,-624.5 446,-624.5"/>
<polygon fill="none" stroke="#666666" points="422.5,-428 422.5,-687 531.5,-687 531.5,-428 422.5,-428"/>
</a>
</g>
</g>
<!-- Node7&#45;&gt;Node5 -->
<g id="edge6_Node000005_Node000007" class="edge">
<title>Node7&#45;&gt;Node5</title>
<g id="a_edge6_Node000005_Node000007"><a xlink:title=" ">
<path fill="none" stroke="#63b8ff" d="M423.24,-427.9C407.15,-389.4 390.62,-349.85 378.64,-321.19"/>
<polygon fill="none" stroke="#63b8ff" points="378.59,-321.07 372.58,-317.08 373.96,-310 379.96,-313.99 378.59,-321.07"/>
</a>
</g>
<text text-anchor="middle" x="437.5" y="-402" font-family="Helvetica,sans-Serif" font-size="10.00" fill="grey"> +height</text>
<text text-anchor="middle" x="437.5" y="-391" font-family="Helvetica,sans-Serif" font-size="10.00" fill="grey">+width</text>
</g>
</g>
</svg>
