<?xml version="1.0" encoding="UTF-8" standalone="no"?>
<!DOCTYPE svg PUBLIC "-//W3C//DTD SVG 1.1//EN"
 "http://www.w3.org/Graphics/SVG/1.1/DTD/svg11.dtd">
<!-- Generated by graphviz version 2.43.0 (0)
 -->
<!-- Title: RayTracer::BVH::BVH Pages: 1 -->
<!--zoomable 269 -->

<svg id="main" version="1.1" xmlns="http://www.w3.org/2000/svg" xmlns:xlink="http://www.w3.org/1999/xlink" xml:space="preserve" onload="init(evt)">
<style type="text/css"><![CDATA[
.node, .edge {opacity: 0.7;}
.node.selected, .edge.selected {opacity: 1;}
.edge:hover path { stroke: red; }
.edge:hover polygon { stroke: red; fill: red; }
]]></style>

<defs>
  <circle id="rim" cx="0" cy="0" r="7"/>
  <circle id="rim2" cx="0" cy="0" r="3.5"/>
  <g id="zoomPlus">
    <use xlink:href="#rim" fill="#404040"><set attributeName="fill" to="#808080" begin="zoomplus.mouseover" end="zoomplus.mouseout"/></use>
    <path d="M-4,0h8M0,-4v8" fill="none" stroke="white" stroke-width="1.5" pointer-events="none"/>
  </g>
  <g id="zoomMin">
    <use xlink:href="#rim" fill="#404040"><set attributeName="fill" to="#808080" begin="zoomminus.mouseover" end="zoomminus.mouseout"/></use>
    <path d="M-4,0h8" fill="none" stroke="white" stroke-width="1.5" pointer-events="none"/>
  </g>
  <g id="arrowUp" transform="translate(30 24)">
    <use xlink:href="#rim"/>
    <path pointer-events="none" fill="none" stroke="white" stroke-width="1.5" d="M0,-3.0v7 M-2.5,-0.5L0,-3.0L2.5,-0.5"/>
  </g>
  <g id="arrowRight" transform="rotate(90) translate(36 -43)">
    <use xlink:href="#rim"/>
    <path pointer-events="none" fill="none" stroke="white" stroke-width="1.5" d="M0,-3.0v7 M-2.5,-0.5L0,-3.0L2.5,-0.5"/>
  </g>
  <g id="arrowDown" transform="rotate(180) translate(-30 -48)">
    <use xlink:href="#rim"/>
    <path pointer-events="none" fill="none" stroke="white" stroke-width="1.5" d="M0,-3.0v7 M-2.5,-0.5L0,-3.0L2.5,-0.5"/>
  </g>
  <g id="arrowLeft" transform="rotate(270) translate(-36 17)">
    <use xlink:href="#rim"/>
    <path pointer-events="none" fill="none" stroke="white" stroke-width="1.5" d="M0,-3.0v7 M-2.5,-0.5L0,-3.0L2.5,-0.5"/>
  </g>
  <g id="resetDef">
    <use xlink:href="#rim2" fill="#404040"><set attributeName="fill" to="#808080" begin="reset.mouseover" end="reset.mouseout"/></use>
  </g>
</defs>
<script type="application/ecmascript">
var viewWidth = 849;
var viewHeight = 269;
var sectionId = 'dynsection-1';
</script>
<script type="application/ecmascript" xlink:href="svg.min.js"/>
<svg id="graph" class="graph">
<g id="viewport">
<title>RayTracer::BVH::BVH</title>
<!-- Node1 -->
<g id="Node000001" class="node">
<title>Node1</title>
<g id="a_Node000001"><a xlink:title=" ">
<polygon fill="#999999" stroke="#666666" points="119,-67.5 0,-67.5 0,-48.5 119,-48.5 119,-67.5"/>
<text text-anchor="middle" x="59.5" y="-55.5" font-family="Helvetica,sans-Serif" font-size="10.00">RayTracer::BVH::BVH</text>
</a>
</g>
</g>
<!-- Node2 -->
<g id="Node000002" class="node">
<title>Node2</title>
<g id="a_Node000002"><a xlink:href="classRayTracer_1_1BVH.html#a6d1f432f54cdd62367f622f22be4eb90" target="_top" xlink:title=" ">
<polygon fill="white" stroke="#666666" points="287,-169.5 165,-169.5 165,-150.5 287,-150.5 287,-169.5"/>
<text text-anchor="middle" x="226" y="-157.5" font-family="Helvetica,sans-Serif" font-size="10.00">RayTracer::BVH::build</text>
</a>
</g>
</g>
<!-- Node1&#45;&gt;Node2 -->
<g id="edge1_Node000001_Node000002" class="edge">
<title>Node1&#45;&gt;Node2</title>
<g id="a_edge1_Node000001_Node000002"><a xlink:title=" ">
<path fill="none" stroke="#63b8ff" d="M75.98,-67.6C104.63,-85.37 166.17,-123.52 200.53,-144.82"/>
<polygon fill="#63b8ff" stroke="#63b8ff" points="199.1,-148.06 209.45,-150.36 202.79,-142.11 199.1,-148.06"/>
</a>
</g>
</g>
<!-- Node8 -->
<g id="Node000008" class="node">
<title>Node8</title>
<g id="a_Node000008"><a xlink:href="classGeometry_1_1AABB.html#ab0044437bd506a05e83b4fa2154112bd" target="_top" xlink:title=" ">
<polygon fill="white" stroke="#666666" points="674,-67.5 531,-67.5 531,-48.5 674,-48.5 674,-67.5"/>
<text text-anchor="middle" x="602.5" y="-55.5" font-family="Helvetica,sans-Serif" font-size="10.00">Geometry::AABB::centroid</text>
</a>
</g>
</g>
<!-- Node1&#45;&gt;Node8 -->
<g id="edge11_Node000001_Node000008" class="edge">
<title>Node1&#45;&gt;Node8</title>
<g id="a_edge11_Node000001_Node000008"><a xlink:title=" ">
<path fill="none" stroke="#63b8ff" d="M119.17,-58C216.25,-58 410.51,-58 520.57,-58"/>
<polygon fill="#63b8ff" stroke="#63b8ff" points="520.63,-61.5 530.63,-58 520.63,-54.5 520.63,-61.5"/>
</a>
</g>
</g>
<!-- Node9 -->
<g id="Node000009" class="node">
<title>Node9</title>
<g id="a_Node000009"><a xlink:href="classRayTracer_1_1BVH.html#a35dd93780219d96db4c13861d755dc50" target="_top" xlink:title=" ">
<polygon fill="white" stroke="#666666" points="297,-30 155,-30 155,0 297,0 297,-30"/>
<text text-anchor="start" x="163" y="-18" font-family="Helvetica,sans-Serif" font-size="10.00">RayTracer::BVH::primitive</text>
<text text-anchor="middle" x="226" y="-7" font-family="Helvetica,sans-Serif" font-size="10.00">Bounds</text>
</a>
</g>
</g>
<!-- Node1&#45;&gt;Node9 -->
<g id="edge13_Node000001_Node000009" class="edge">
<title>Node1&#45;&gt;Node9</title>
<g id="a_edge13_Node000001_Node000009"><a xlink:title=" ">
<path fill="none" stroke="#63b8ff" d="M97.01,-48.46C114.9,-43.78 137.03,-37.99 157.83,-32.56"/>
<polygon fill="#63b8ff" stroke="#63b8ff" points="158.8,-35.92 167.59,-30.01 157.03,-29.15 158.8,-35.92"/>
</a>
</g>
</g>
<!-- Node2&#45;&gt;Node2 -->
<g id="edge8_Node000002_Node000002" class="edge">
<title>Node2&#45;&gt;Node2</title>
<g id="a_edge8_Node000002_Node000002"><a xlink:title=" ">
<path fill="none" stroke="#63b8ff" d="M200.41,-169.58C187.97,-178.23 196.5,-187.5 226,-187.5 245.36,-187.5 255.69,-183.51 256.99,-178.32"/>
<polygon fill="#63b8ff" stroke="#63b8ff" points="259.82,-176.25 251.59,-169.58 253.87,-179.93 259.82,-176.25"/>
</a>
</g>
</g>
<!-- Node3 -->
<g id="Node000003" class="node">
<title>Node3</title>
<g id="a_Node000003"><a xlink:href="classGeometry_1_1AABB.html#ae2037890566d429b5b2f933a6ca9900c" target="_top" xlink:title=" ">
<polygon fill="white" stroke="#666666" points="841,-218.5 710,-218.5 710,-199.5 841,-199.5 841,-218.5"/>
<text text-anchor="middle" x="775.5" y="-206.5" font-family="Helvetica,sans-Serif" font-size="10.00">Geometry::AABB::AABB</text>
</a>
</g>
</g>
<!-- Node2&#45;&gt;Node3 -->
<g id="edge2_Node000002_Node000003" class="edge">
<title>Node2&#45;&gt;Node3</title>
<g id="a_edge2_Node000002_Node000003"><a xlink:title=" ">
<path fill="none" stroke="#63b8ff" d="M235.72,-169.74C252.46,-187.63 291.17,-225.13 333,-239 474.84,-286.04 656.03,-244.28 734.88,-221.5"/>
<polygon fill="#63b8ff" stroke="#63b8ff" points="736.26,-224.74 744.87,-218.56 734.29,-218.03 736.26,-224.74"/>
</a>
</g>
</g>
<!-- Node4 -->
<g id="Node000004" class="node">
<title>Node4</title>
<g id="a_Node000004"><a xlink:href="classGeometry_1_1Point3D.html#a6a08342f9542eb6d6ff7bcf2278a240d" target="_top" xlink:title=" ">
<polygon fill="white" stroke="#666666" points="833,-111 718,-111 718,-81 833,-81 833,-111"/>
<text text-anchor="start" x="726" y="-99" font-family="Helvetica,sans-Serif" font-size="10.00">Geometry::Point3D::</text>
<text text-anchor="middle" x="775.5" y="-88" font-family="Helvetica,sans-Serif" font-size="10.00">Point3D</text>
</a>
</g>
</g>
<!-- Node2&#45;&gt;Node4 -->
<g id="edge3_Node000002_Node000004" class="edge">
<title>Node2&#45;&gt;Node4</title>
<g id="a_edge3_Node000002_Node000004"><a xlink:title=" ">
<path fill="none" stroke="#63b8ff" d="M244.35,-150.33C264.83,-139.47 300.24,-122.4 333,-115 463.29,-85.56 620.57,-87.37 707.86,-91.55"/>
<polygon fill="#63b8ff" stroke="#63b8ff" points="707.73,-95.05 717.9,-92.06 708.09,-88.06 707.73,-95.05"/>
</a>
</g>
</g>
<!-- Node5 -->
<g id="Node000005" class="node">
<title>Node5</title>
<g id="a_Node000005"><a xlink:href="classRayTracer_1_1BVH.html#ae7a593c0ee607404fdc95024f8a17fab" target="_top" xlink:title=" ">
<polygon fill="white" stroke="#666666" points="493,-154 335,-154 335,-124 493,-124 493,-154"/>
<text text-anchor="start" x="343" y="-142" font-family="Helvetica,sans-Serif" font-size="10.00">RayTracer::BVH::boundsFrom</text>
<text text-anchor="middle" x="414" y="-131" font-family="Helvetica,sans-Serif" font-size="10.00">Records</text>
</a>
</g>
</g>
<!-- Node2&#45;&gt;Node5 -->
<g id="edge4_Node000002_Node000005" class="edge">
<title>Node2&#45;&gt;Node5</title>
<g id="a_edge4_Node000002_Node000005"><a xlink:title=" ">
<path fill="none" stroke="#63b8ff" d="M287.13,-153.21C299.11,-151.86 311.92,-150.41 324.61,-148.98"/>
<polygon fill="#63b8ff" stroke="#63b8ff" points="325.21,-152.43 334.75,-147.83 324.42,-145.48 325.21,-152.43"/>
</a>
</g>
</g>
<!-- Node6 -->
<g id="Node000006" class="node">
<title>Node6</title>
<g id="a_Node000006"><a xlink:href="classGeometry_1_1AABB.html#ad625c435b383175aae100d15fa0f3cca" target="_top" xlink:title=" ">
<polygon fill="white" stroke="#666666" points="666.5,-170.5 538.5,-170.5 538.5,-151.5 666.5,-151.5 666.5,-170.5"/>
<text text-anchor="middle" x="602.5" y="-158.5" font-family="Helvetica,sans-Serif" font-size="10.00">Geometry::AABB::unite</text>
</a>
</g>
</g>
<!-- Node2&#45;&gt;Node6 -->
<g id="edge10_Node000002_Node000006" class="edge">
<title>Node2&#45;&gt;Node6</title>
<g id="a_edge10_Node000002_Node000006"><a xlink:title=" ">
<path fill="none" stroke="#63b8ff" d="M287.25,-162C302.2,-162.42 318.18,-162.79 333,-163 404.99,-164.02 423,-163.68 495,-163 505.76,-162.9 517.13,-162.74 528.28,-162.56"/>
<polygon fill="#63b8ff" stroke="#63b8ff" points="528.49,-166.05 538.43,-162.38 528.37,-159.05 528.49,-166.05"/>
</a>
</g>
</g>
<!-- Node7 -->
<g id="Node000007" class="node">
<title>Node7</title>
<g id="a_Node000007"><a xlink:href="classGeometry_1_1AABB.html#a90d5e4b3068744113a03a307ef1ab258" target="_top" xlink:title=" ">
<polygon fill="white" stroke="#666666" points="495,-229.5 333,-229.5 333,-210.5 495,-210.5 495,-229.5"/>
<text text-anchor="middle" x="414" y="-217.5" font-family="Helvetica,sans-Serif" font-size="10.00">Geometry::AABB::surfaceArea</text>
</a>
</g>
</g>
<!-- Node2&#45;&gt;Node7 -->
<g id="edge9_Node000002_Node000007" class="edge">
<title>Node2&#45;&gt;Node7</title>
<g id="a_edge9_Node000002_Node000007"><a xlink:title=" ">
<path fill="none" stroke="#63b8ff" d="M254.36,-169.6C275.72,-177.01 306.16,-187.42 333,-196 345.09,-199.86 358.26,-203.89 370.36,-207.52"/>
<polygon fill="#63b8ff" stroke="#63b8ff" points="369.64,-210.95 380.22,-210.46 371.64,-204.25 369.64,-210.95"/>
</a>
</g>
</g>
<!-- Node5&#45;&gt;Node6 -->
<g id="edge5_Node000005_Node000006" class="edge">
<title>Node5&#45;&gt;Node6</title>
<g id="a_edge5_Node000005_Node000006"><a xlink:title=" ">
<path fill="none" stroke="#63b8ff" d="M493.01,-148.2C504.67,-149.58 516.65,-150.99 528.21,-152.35"/>
<polygon fill="#63b8ff" stroke="#63b8ff" points="527.89,-155.84 538.23,-153.54 528.71,-148.89 527.89,-155.84"/>
</a>
</g>
</g>
<!-- Node6&#45;&gt;Node3 -->
<g id="edge6_Node000006_Node000003" class="edge">
<title>Node6&#45;&gt;Node3</title>
<g id="a_edge6_Node000006_Node000003"><a xlink:title=" ">
<path fill="none" stroke="#63b8ff" d="M637.69,-170.6C664.37,-178.09 701.63,-188.54 730.52,-196.66"/>
<polygon fill="#63b8ff" stroke="#63b8ff" points="729.79,-200.09 740.37,-199.42 731.68,-193.35 729.79,-200.09"/>
</a>
</g>
</g>
<!-- Node6&#45;&gt;Node4 -->
<g id="edge7_Node000006_Node000004" class="edge">
<title>Node6&#45;&gt;Node4</title>
<g id="a_edge7_Node000006_Node000004"><a xlink:title=" ">
<path fill="none" stroke="#63b8ff" d="M628.73,-151.41C654.07,-141.78 693.79,-126.68 725.37,-114.68"/>
<polygon fill="#63b8ff" stroke="#63b8ff" points="726.78,-117.88 734.88,-111.06 724.29,-111.34 726.78,-117.88"/>
</a>
</g>
</g>
<!-- Node8&#45;&gt;Node4 -->
<g id="edge12_Node000008_Node000004" class="edge">
<title>Node8&#45;&gt;Node4</title>
<g id="a_edge12_Node000008_Node000004"><a xlink:title=" ">
<path fill="none" stroke="#63b8ff" d="M646.65,-67.59C665.19,-71.71 687.27,-76.62 707.83,-81.19"/>
<polygon fill="#63b8ff" stroke="#63b8ff" points="707.26,-84.64 717.78,-83.4 708.78,-77.81 707.26,-84.64"/>
</a>
</g>
</g>
<!-- Node10 -->
<g id="Node000010" class="node">
<title>Node10</title>
<g id="a_Node000010"><a xlink:href="classRayTracer_1_1APrimitive.html#a6860e01f9fe7dba5d0a8301aba44efa0" target="_top" xlink:title="Get the primitive&#39;s axis&#45;aligned bounds, if any. Unbounded primitives may return std::nullopt.">
<polygon fill="white" stroke="#666666" points="475,-30 353,-30 353,0 475,0 475,-30"/>
<text text-anchor="start" x="361" y="-18" font-family="Helvetica,sans-Serif" font-size="10.00">RayTracer::APrimitive</text>
<text text-anchor="middle" x="414" y="-7" font-family="Helvetica,sans-Serif" font-size="10.00">::getBounds</text>
</a>
</g>
</g>
<!-- Node9&#45;&gt;Node10 -->
<g id="edge14_Node000009_Node000010" class="edge">
<title>Node9&#45;&gt;Node10</title>
<g id="a_edge14_Node000009_Node000010"><a xlink:title=" ">
<path fill="none" stroke="#63b8ff" d="M297.05,-15C311.95,-15 327.68,-15 342.58,-15"/>
<polygon fill="#63b8ff" stroke="#63b8ff" points="342.75,-18.5 352.75,-15 342.75,-11.5 342.75,-18.5"/>
</a>
</g>
</g>
</g>
</svg>

<g id="navigator" transform="translate(0 0)" fill="#404254">
  <rect fill="#f2f5e9" fill-opacity="0.5" stroke="#606060" stroke-width=".5" x="0" y="0" width="60" height="60"/>
  <use id="zoomplus" xlink:href="#zoomPlus" x="17" y="9" onmousedown="handleZoom(evt,'in')"/>
  <use id="zoomminus" xlink:href="#zoomMin" x="42" y="9" onmousedown="handleZoom(evt,'out')"/>
  <use id="reset" xlink:href="#resetDef" x="30" y="36" onmousedown="handleReset()"/>
   <use id="arrowup" xlink:href="#arrowUp" x="0" y="0" onmousedown="handlePan(0,-1)"/>
  <use id="arrowright" xlink:href="#arrowRight" x="0" y="0" onmousedown="handlePan(1,0)"/>
  <use id="arrowdown" xlink:href="#arrowDown" x="0" y="0" onmousedown="handlePan(0,1)"/>
  <use id="arrowleft" xlink:href="#arrowLeft" x="0" y="0" onmousedown="handlePan(-1,0)"/>
</g>
<svg viewBox="0 0 15 15" width="100%" height="30px" preserveAspectRatio="xMaxYMin meet">
 <g id="arrow_out" transform="scale(0.3 0.3)">
  <a xlink:href="classRayTracer_1_1BVH_a68e74bb5f748dbf38d86eea0a21d2b76_cgraph_org.svg" target="_base">
   <rect id="button" ry="5" rx="5" y="6" x="6" height="38" width="38"
        fill="#f2f5e9" fill-opacity="0.5" stroke="#606060" stroke-width="1.0"/>
   <path id="arrow"
     d="M 11.500037,31.436501 C 11.940474,20.09759 22.043105,11.32322 32.158766,21.979434 L 37.068811,17.246167 C 37.068811,17.246167 37.088388,32 37.088388,32 L 22.160133,31.978069 C 22.160133,31.978069 26.997745,27.140456 26.997745,27.140456 C 18.528582,18.264221 13.291696,25.230495 11.500037,31.436501 z"
     style="fill:#404040;"/>
  </a>
 </g>
</svg>

<style type='text/css'>
<![CDATA[
[data-mouse-over-selected='false'] { opacity: 0.7; }
[data-mouse-over-selected='true']  { opacity: 1.0; }
]]>
</style>
<script type="application/ecmascript"><![CDATA[
document.addEventListener('DOMContentLoaded', (event) => {
  highlightEdges();
  highlightAdjacentNodes();
});
]]></script>
</svg>
