<?xml version="1.0" encoding="UTF-8" standalone="no"?>
<!DOCTYPE svg PUBLIC "-//W3C//DTD SVG 1.1//EN"
 "http://www.w3.org/Graphics/SVG/1.1/DTD/svg11.dtd">
<!-- Generated by graphviz version 2.43.0 (0)
 -->
<!-- Title: RayTracer::Cylinder Pages: 1 -->
<svg width="124pt" height="262pt"
 viewBox="0.00 0.00 124.00 262.00" xmlns="http://www.w3.org/2000/svg" xmlns:xlink="http://www.w3.org/1999/xlink">

<svg id="main" version="1.1" xmlns="http://www.w3.org/2000/svg" xmlns:xlink="http://www.w3.org/1999/xlink" xml:space="preserve" onload="init(evt)">
<style type="text/css"><![CDATA[
.node, .edge {opacity: 0.7;}
.node.selected, .edge.selected {opacity: 1;}
.edge:hover path { stroke: red; }
.edge:hover polygon { stroke: red; fill: red; }
]]></style>
<script type="application/ecmascript" xlink:href="svg.min.js"/>
<svg id="graph" class="graph">
<g id="graph0" class="graph" transform="scale(1 1) rotate(0) translate(4 258)">
<title>RayTracer::Cylinder</title>
<!-- Node1 -->
<g id="Node000001" class="node">
<title>Node1</title>
<g id="a_Node000001"><a xlink:title=" ">
<polygon fill="#999999" stroke="transparent" points="110.5,-124 5.5,-124 5.5,0 110.5,0 110.5,-124"/>
<text text-anchor="start" x="11" y="-112" font-family="Helvetica,sans-Serif" font-size="10.00">RayTracer::Cylinder</text>
<text text-anchor="start" x="19" y="-97" font-family="Helvetica,sans-Serif" font-size="10.00">&#45;</text>
<text text-anchor="start" x="36" y="-97" font-family="Helvetica,sans-Serif" font-size="10.00">_origin</text>
<text text-anchor="start" x="19" y="-82" font-family="Helvetica,sans-Serif" font-size="10.00">&#45;</text>
<text text-anchor="start" x="36" y="-82" font-family="Helvetica,sans-Serif" font-size="10.00">_axis</text>
<text text-anchor="start" x="19" y="-67" font-family="Helvetica,sans-Serif" font-size="10.00">&#45;</text>
<text text-anchor="start" x="36" y="-67" font-family="Helvetica,sans-Serif" font-size="10.00">_radius</text>
<text text-anchor="start" x="16.5" y="-52" font-family="Helvetica,sans-Serif" font-size="10.00">+</text>
<text text-anchor="start" x="36" y="-52" font-family="Helvetica,sans-Serif" font-size="10.00">Cylinder()</text>
<text text-anchor="start" x="16.5" y="-37" font-family="Helvetica,sans-Serif" font-size="10.00">+</text>
<text text-anchor="start" x="36" y="-37" font-family="Helvetica,sans-Serif" font-size="10.00">Cylinder()</text>
<text text-anchor="start" x="16.5" y="-22" font-family="Helvetica,sans-Serif" font-size="10.00">+</text>
<text text-anchor="start" x="36" y="-22" font-family="Helvetica,sans-Serif" font-size="10.00">~Cylinder()</text>
<text text-anchor="start" x="16.5" y="-7" font-family="Helvetica,sans-Serif" font-size="10.00">+</text>
<text text-anchor="start" x="36" y="-7" font-family="Helvetica,sans-Serif" font-size="10.00">hit()</text>
<polygon fill="#666666" stroke="#666666" points="6,-107 6,-107 111,-107 111,-107 6,-107"/>
<polygon fill="#666666" stroke="#666666" points="6,-62 6,-62 34,-62 34,-62 6,-62"/>
<polygon fill="#666666" stroke="#666666" points="34,-62 34,-62 111,-62 111,-62 34,-62"/>
<polygon fill="none" stroke="#666666" points="5.5,0 5.5,-124 110.5,-124 110.5,0 5.5,0"/>
</a>
</g>
</g>
<!-- Node2 -->
<g id="Node000002" class="node">
<title>Node2</title>
<g id="a_Node000002"><a xlink:href="classRayTracer_1_1APrimitive.html" target="_top" xlink:title="Abstract base class for all primitives (renderable objects). Primitives have geometry and a material.">
<polygon fill="white" stroke="transparent" points="116,-254 0,-254 0,-160 116,-160 116,-254"/>
<text text-anchor="start" x="5" y="-242" font-family="Helvetica,sans-Serif" font-size="10.00">RayTracer::APrimitive</text>
<text text-anchor="start" x="13.5" y="-227" font-family="Helvetica,sans-Serif" font-size="10.00">&#45;</text>
<text text-anchor="start" x="31" y="-227" font-family="Helvetica,sans-Serif" font-size="10.00">_material</text>
<text text-anchor="start" x="11" y="-212" font-family="Helvetica,sans-Serif" font-size="10.00">+</text>
<text text-anchor="start" x="31" y="-212" font-family="Helvetica,sans-Serif" font-size="10.00">APrimitive()</text>
<text text-anchor="start" x="11" y="-197" font-family="Helvetica,sans-Serif" font-size="10.00">+</text>
<text text-anchor="start" x="31" y="-197" font-family="Helvetica,sans-Serif" font-size="10.00">~APrimitive()</text>
<text text-anchor="start" x="11" y="-182" font-family="Helvetica,sans-Serif" font-size="10.00">+</text>
<text text-anchor="start" x="31" y="-182" font-family="Helvetica,sans-Serif" font-size="10.00">hit()</text>
<text text-anchor="start" x="11" y="-167" font-family="Helvetica,sans-Serif" font-size="10.00">+</text>
<text text-anchor="start" x="31" y="-167" font-family="Helvetica,sans-Serif" font-size="10.00">getMaterial()</text>
<polygon fill="#666666" stroke="#666666" points="0,-237 0,-237 116,-237 116,-237 0,-237"/>
<polygon fill="#666666" stroke="#666666" points="0,-222 0,-222 29,-222 29,-222 0,-222"/>
<polygon fill="#666666" stroke="#666666" points="29,-222 29,-222 116,-222 116,-222 29,-222"/>
<polygon fill="none" stroke="#666666" points="0,-160 0,-254 116,-254 116,-160 0,-160"/>
</a>
</g>
</g>
<!-- Node2&#45;&gt;Node1 -->
<g id="edge1_Node000001_Node000002" class="edge">
<title>Node2&#45;&gt;Node1</title>
<g id="a_edge1_Node000001_Node000002"><a xlink:title=" ">
<path fill="none" stroke="#63b8ff" d="M58,-149.84C58,-141.38 58,-132.63 58,-124.08"/>
<polygon fill="none" stroke="#63b8ff" points="54.5,-149.97 58,-159.97 61.5,-149.97 54.5,-149.97"/>
</a>
</g>
</g>
</g>
</svg>
</svg>

<style type='text/css'>
<![CDATA[
[data-mouse-over-selected='false'] { opacity: 0.7; }
[data-mouse-over-selected='true']  { opacity: 1.0; }
]]>
</style>
<script type="application/ecmascript"><![CDATA[
document.addEventListener('DOMContentLoaded', (event) => {
  highlightEdges();
  highlightAdjacentNodes();
});
]]></script>
</svg>
