<?xml version="1.0" encoding="UTF-8" standalone="no"?>
<!DOCTYPE svg PUBLIC "-//W3C//DTD SVG 1.1//EN"
 "http://www.w3.org/Graphics/SVG/1.1/DTD/svg11.dtd">
<!-- Generated by graphviz version 2.43.0 (0)
 -->
<!-- Title: Geometry::AABB::AABB Pages: 1 -->
<svg width="810pt" height="96pt"
 viewBox="0.00 0.00 810.00 96.12" xmlns="http://www.w3.org/2000/svg" xmlns:xlink="http://www.w3.org/1999/xlink">
<g id="graph0" class="graph" transform="scale(1 1) rotate(0) translate(4 92.12)">
<title>Geometry::AABB::AABB</title>
<!-- Node1 -->
<g id="Node000001" class="node">
<title>Node1</title>
<g id="a_Node000001"><a xlink:title=" ">
<polygon fill="#999999" stroke="#666666" points="802,-67.5 671,-67.5 671,-48.5 802,-48.5 802,-67.5"/>
<text text-anchor="middle" x="736.5" y="-55.5" font-family="Helvetica,sans-Serif" font-size="10.00">Geometry::AABB::AABB</text>
</a>
</g>
</g>
<!-- Node2 -->
<g id="Node000002" class="node">
<title>Node2</title>
<g id="a_Node000002"><a xlink:href="classRayTracer_1_1BVH.html#a6d1f432f54cdd62367f622f22be4eb90" target="_top" xlink:title=" ">
<polygon fill="white" stroke="#666666" points="277,-67.5 155,-67.5 155,-48.5 277,-48.5 277,-67.5"/>
<text text-anchor="middle" x="216" y="-55.5" font-family="Helvetica,sans-Serif" font-size="10.00">RayTracer::BVH::build</text>
</a>
</g>
</g>
<!-- Node1&#45;&gt;Node2 -->
<g id="edge1_Node000001_Node000002" class="edge">
<title>Node1&#45;&gt;Node2</title>
<g id="a_edge1_Node000001_Node000002"><a xlink:title=" ">
<path fill="none" stroke="#63b8ff" d="M693.85,-70.26C675.92,-74.94 654.6,-79.69 635,-82 506.5,-97.13 354.61,-79.62 273.98,-67.54"/>
<polygon fill="#63b8ff" stroke="#63b8ff" points="694.96,-73.59 703.71,-67.61 693.14,-66.83 694.96,-73.59"/>
</a>
</g>
</g>
<!-- Node4 -->
<g id="Node000004" class="node">
<title>Node4</title>
<g id="a_Node000004"><a xlink:href="classRayTracer_1_1Sphere.html#a873777f6a7ae521b8e940f7b94c80fd8" target="_top" xlink:title="Get the primitive&#39;s axis&#45;aligned bounds, if any. Unbounded primitives may return std::nullopt.">
<polygon fill="white" stroke="#666666" points="626,-73 516,-73 516,-43 626,-43 626,-73"/>
<text text-anchor="start" x="524" y="-61" font-family="Helvetica,sans-Serif" font-size="10.00">RayTracer::Sphere::</text>
<text text-anchor="middle" x="571" y="-50" font-family="Helvetica,sans-Serif" font-size="10.00">getBounds</text>
</a>
</g>
</g>
<!-- Node1&#45;&gt;Node4 -->
<g id="edge4_Node000001_Node000004" class="edge">
<title>Node1&#45;&gt;Node4</title>
<g id="a_edge4_Node000001_Node000004"><a xlink:title=" ">
<path fill="none" stroke="#63b8ff" d="M660.71,-58C649.06,-58 637.22,-58 626.14,-58"/>
<polygon fill="#63b8ff" stroke="#63b8ff" points="660.88,-61.5 670.88,-58 660.88,-54.5 660.88,-61.5"/>
</a>
</g>
</g>
<!-- Node5 -->
<g id="Node000005" class="node">
<title>Node5</title>
<g id="a_Node000005"><a xlink:href="classGeometry_1_1AABB.html#ad625c435b383175aae100d15fa0f3cca" target="_top" xlink:title=" ">
<polygon fill="white" stroke="#666666" points="635,-24.5 507,-24.5 507,-5.5 635,-5.5 635,-24.5"/>
<text text-anchor="middle" x="571" y="-12.5" font-family="Helvetica,sans-Serif" font-size="10.00">Geometry::AABB::unite</text>
</a>
</g>
</g>
<!-- Node1&#45;&gt;Node5 -->
<g id="edge5_Node000001_Node000005" class="edge">
<title>Node1&#45;&gt;Node5</title>
<g id="a_edge5_Node000001_Node000005"><a xlink:title=" ">
<path fill="none" stroke="#63b8ff" d="M689.32,-45.85C663.61,-39.09 632.08,-30.8 608.18,-24.52"/>
<polygon fill="#63b8ff" stroke="#63b8ff" points="688.65,-49.3 699.21,-48.46 690.43,-42.53 688.65,-49.3"/>
</a>
</g>
</g>
<!-- Node2&#45;&gt;Node2 -->
<g id="edge3_Node000002_Node000002" class="edge">
<title>Node2&#45;&gt;Node2</title>
<g id="a_edge3_Node000002_Node000002"><a xlink:title=" ">
<path fill="none" stroke="#63b8ff" d="M245.12,-76.32C243.9,-81.51 234.2,-85.5 216,-85.5 188.27,-85.5 180.26,-76.23 191.96,-67.58"/>
<polygon fill="#63b8ff" stroke="#63b8ff" points="248.09,-74.47 240.04,-67.58 242.04,-77.99 248.09,-74.47"/>
</a>
</g>
</g>
<!-- Node3 -->
<g id="Node000003" class="node">
<title>Node3</title>
<g id="a_Node000003"><a xlink:href="classRayTracer_1_1BVH.html#a68e74bb5f748dbf38d86eea0a21d2b76" target="_top" xlink:title=" ">
<polygon fill="white" stroke="#666666" points="119,-67.5 0,-67.5 0,-48.5 119,-48.5 119,-67.5"/>
<text text-anchor="middle" x="59.5" y="-55.5" font-family="Helvetica,sans-Serif" font-size="10.00">RayTracer::BVH::BVH</text>
</a>
</g>
</g>
<!-- Node2&#45;&gt;Node3 -->
<g id="edge2_Node000002_Node000003" class="edge">
<title>Node2&#45;&gt;Node3</title>
<g id="a_edge2_Node000002_Node000003"><a xlink:title=" ">
<path fill="none" stroke="#63b8ff" d="M144.57,-58C136.1,-58 127.52,-58 119.24,-58"/>
<polygon fill="#63b8ff" stroke="#63b8ff" points="144.82,-61.5 154.82,-58 144.82,-54.5 144.82,-61.5"/>
</a>
</g>
</g>
<!-- Node5&#45;&gt;Node2 -->
<g id="edge8_Node000005_Node000002" class="edge">
<title>Node5&#45;&gt;Node2</title>
<g id="a_edge8_Node000005_Node000002"><a xlink:title=" ">
<path fill="none" stroke="#63b8ff" d="M526.61,-27.14C509.42,-31.53 489.4,-36.1 471,-39 405.15,-49.37 328.78,-54.12 277.11,-56.27"/>
<polygon fill="#63b8ff" stroke="#63b8ff" points="527.57,-30.51 536.37,-24.6 525.81,-23.73 527.57,-30.51"/>
</a>
</g>
</g>
<!-- Node6 -->
<g id="Node000006" class="node">
<title>Node6</title>
<g id="a_Node000006"><a xlink:href="classRayTracer_1_1BVH.html#ae7a593c0ee607404fdc95024f8a17fab" target="_top" xlink:title=" ">
<polygon fill="white" stroke="#666666" points="471,-30 313,-30 313,0 471,0 471,-30"/>
<text text-anchor="start" x="321" y="-18" font-family="Helvetica,sans-Serif" font-size="10.00">RayTracer::BVH::boundsFrom</text>
<text text-anchor="middle" x="392" y="-7" font-family="Helvetica,sans-Serif" font-size="10.00">Records</text>
</a>
</g>
</g>
<!-- Node5&#45;&gt;Node6 -->
<g id="edge6_Node000005_Node000006" class="edge">
<title>Node5&#45;&gt;Node6</title>
<g id="a_edge6_Node000005_Node000006"><a xlink:title=" ">
<path fill="none" stroke="#63b8ff" d="M496.49,-15C488.1,-15 479.54,-15 471.1,-15"/>
<polygon fill="#63b8ff" stroke="#63b8ff" points="496.6,-18.5 506.6,-15 496.6,-11.5 496.6,-18.5"/>
</a>
</g>
</g>
<!-- Node6&#45;&gt;Node2 -->
<g id="edge7_Node000006_Node000002" class="edge">
<title>Node6&#45;&gt;Node2</title>
<g id="a_edge7_Node000006_Node000002"><a xlink:title=" ">
<path fill="none" stroke="#63b8ff" d="M320.42,-32.44C298.25,-37.92 274.61,-43.76 255.53,-48.48"/>
<polygon fill="#63b8ff" stroke="#63b8ff" points="321.27,-35.84 330.14,-30.04 319.6,-29.04 321.27,-35.84"/>
</a>
</g>
</g>
</g>
</svg>
