<?xml version="1.0" encoding="UTF-8" standalone="no"?>
<!DOCTYPE svg PUBLIC "-//W3C//DTD SVG 1.1//EN"
 "http://www.w3.org/Graphics/SVG/1.1/DTD/svg11.dtd">
<!-- Generated by graphviz version 2.43.0 (0)
 -->
<!-- Title: RayTracer::Livescene Pages: 1 -->
<svg width="142pt" height="277pt"
 viewBox="0.00 0.00 142.00 277.00" xmlns="http://www.w3.org/2000/svg" xmlns:xlink="http://www.w3.org/1999/xlink">

<svg id="main" version="1.1" xmlns="http://www.w3.org/2000/svg" xmlns:xlink="http://www.w3.org/1999/xlink" xml:space="preserve" onload="init(evt)">
<style type="text/css"><![CDATA[
.node, .edge {opacity: 0.7;}
.node.selected, .edge.selected {opacity: 1;}
.edge:hover path { stroke: red; }
.edge:hover polygon { stroke: red; fill: red; }
]]></style>
<script type="application/ecmascript" xlink:href="svg.min.js"/>
<svg id="graph" class="graph">
<g id="graph0" class="graph" transform="scale(1 1) rotate(0) translate(4 273)">
<title>RayTracer::Livescene</title>
<!-- Node1 -->
<g id="Node000001" class="node">
<title>Node1</title>
<g id="a_Node000001"><a xlink:title="Concrete interface implementation that renders a scene in an SFML window.">
<polygon fill="#999999" stroke="transparent" points="134,-139 0,-139 0,0 134,0 134,-139"/>
<text text-anchor="start" x="15.5" y="-126.5" font-family="Helvetica,sans-Serif" font-size="10.00">RayTracer::Livescene</text>
<text text-anchor="start" x="65" y="-111.5" font-family="Helvetica,sans-Serif" font-size="10.00"> </text>
<text text-anchor="start" x="4" y="-96.5" font-family="Helvetica,sans-Serif" font-size="10.00">+</text>
<text text-anchor="start" x="17" y="-96.5" font-family="Helvetica,sans-Serif" font-size="10.00">Livescene()</text>
<text text-anchor="start" x="4" y="-81.5" font-family="Helvetica,sans-Serif" font-size="10.00">+</text>
<text text-anchor="start" x="17" y="-81.5" font-family="Helvetica,sans-Serif" font-size="10.00">~Livescene()</text>
<text text-anchor="start" x="4" y="-66.5" font-family="Helvetica,sans-Serif" font-size="10.00">+</text>
<text text-anchor="start" x="17" y="-66.5" font-family="Helvetica,sans-Serif" font-size="10.00">execute()</text>
<text text-anchor="start" x="6.5" y="-51.5" font-family="Helvetica,sans-Serif" font-size="10.00">&#45;</text>
<text text-anchor="start" x="17" y="-51.5" font-family="Helvetica,sans-Serif" font-size="10.00">renderSceneAsync()</text>
<text text-anchor="start" x="6.5" y="-36.5" font-family="Helvetica,sans-Serif" font-size="10.00">&#45;</text>
<text text-anchor="start" x="17" y="-36.5" font-family="Helvetica,sans-Serif" font-size="10.00">framebufferToTexture()</text>
<text text-anchor="start" x="6.5" y="-21.5" font-family="Helvetica,sans-Serif" font-size="10.00">&#45;</text>
<text text-anchor="start" x="17" y="-21.5" font-family="Helvetica,sans-Serif" font-size="10.00">handleWindowEvents()</text>
<text text-anchor="start" x="6.5" y="-6.5" font-family="Helvetica,sans-Serif" font-size="10.00">&#45;</text>
<text text-anchor="start" x="17" y="-6.5" font-family="Helvetica,sans-Serif" font-size="10.00">displayFrame()</text>
<polygon fill="#666666" stroke="#666666" points="0,-121.5 0,-121.5 134,-121.5 134,-121.5 0,-121.5"/>
<polygon fill="#666666" stroke="#666666" points="0,-106.5 0,-106.5 134,-106.5 134,-106.5 0,-106.5"/>
<polygon fill="none" stroke="#666666" points="0,0 0,-139 134,-139 134,0 0,0"/>
</a>
</g>
</g>
<!-- Node2 -->
<g id="Node000002" class="node">
<title>Node2</title>
<g id="a_Node000002"><a xlink:href="classRayTracer_1_1AInterface.html" target="_top" xlink:title="Abstract base class for application interfaces. An interface owns a renderer and orchestrates executi...">
<polygon fill="white" stroke="transparent" points="124.5,-269 9.5,-269 9.5,-175 124.5,-175 124.5,-269"/>
<text text-anchor="start" x="15" y="-257" font-family="Helvetica,sans-Serif" font-size="10.00">RayTracer::AInterface</text>
<text text-anchor="start" x="20.5" y="-242" font-family="Helvetica,sans-Serif" font-size="10.00">#</text>
<text text-anchor="start" x="40" y="-242" font-family="Helvetica,sans-Serif" font-size="10.00">_renderer</text>
<text text-anchor="start" x="20.5" y="-227" font-family="Helvetica,sans-Serif" font-size="10.00">+</text>
<text text-anchor="start" x="40" y="-227" font-family="Helvetica,sans-Serif" font-size="10.00">AInterface()</text>
<text text-anchor="start" x="20.5" y="-212" font-family="Helvetica,sans-Serif" font-size="10.00">+</text>
<text text-anchor="start" x="40" y="-212" font-family="Helvetica,sans-Serif" font-size="10.00">~AInterface()</text>
<text text-anchor="start" x="20.5" y="-197" font-family="Helvetica,sans-Serif" font-size="10.00">+</text>
<text text-anchor="start" x="40" y="-197" font-family="Helvetica,sans-Serif" font-size="10.00">setRenderer()</text>
<text text-anchor="start" x="20.5" y="-182" font-family="Helvetica,sans-Serif" font-size="10.00">+</text>
<text text-anchor="start" x="40" y="-182" font-family="Helvetica,sans-Serif" font-size="10.00">execute()</text>
<polygon fill="#666666" stroke="#666666" points="10,-252 10,-252 125,-252 125,-252 10,-252"/>
<polygon fill="#666666" stroke="#666666" points="10,-237 10,-237 38,-237 38,-237 10,-237"/>
<polygon fill="#666666" stroke="#666666" points="38,-237 38,-237 125,-237 125,-237 38,-237"/>
<polygon fill="none" stroke="#666666" points="9.5,-175 9.5,-269 124.5,-269 124.5,-175 9.5,-175"/>
</a>
</g>
</g>
<!-- Node2&#45;&gt;Node1 -->
<g id="edge1_Node000001_Node000002" class="edge">
<title>Node2&#45;&gt;Node1</title>
<g id="a_edge1_Node000001_Node000002"><a xlink:title=" ">
<path fill="none" stroke="#63b8ff" d="M67,-164.38C67,-156.14 67,-147.58 67,-139.14"/>
<polygon fill="none" stroke="#63b8ff" points="63.5,-164.62 67,-174.62 70.5,-164.62 63.5,-164.62"/>
</a>
</g>
</g>
</g>
</svg>
</svg>

<style type='text/css'>
<![CDATA[
[data-mouse-over-selected='false'] { opacity: 0.7; }
[data-mouse-over-selected='true']  { opacity: 1.0; }
]]>
</style>
<script type="application/ecmascript"><![CDATA[
document.addEventListener('DOMContentLoaded', (event) => {
  highlightEdges();
  highlightAdjacentNodes();
});
]]></script>
</svg>
