<?xml version="1.0" encoding="UTF-8" standalone="no"?>
<!DOCTYPE svg PUBLIC "-//W3C//DTD SVG 1.1//EN"
 "http://www.w3.org/Graphics/SVG/1.1/DTD/svg11.dtd">
<!-- Generated by graphviz version 2.43.0 (0)
 -->
<!-- Title: RayTracer::ARenderer::ARenderer Pages: 1 -->
<svg width="286pt" height="182pt"
 viewBox="0.00 0.00 286.00 182.00" xmlns="http://www.w3.org/2000/svg" xmlns:xlink="http://www.w3.org/1999/xlink">

<svg id="main" version="1.1" xmlns="http://www.w3.org/2000/svg" xmlns:xlink="http://www.w3.org/1999/xlink" xml:space="preserve" onload="init(evt)">
<style type="text/css"><![CDATA[
.node, .edge {opacity: 0.7;}
.node.selected, .edge.selected {opacity: 1;}
.edge:hover path { stroke: red; }
.edge:hover polygon { stroke: red; fill: red; }
]]></style>
<script type="application/ecmascript" xlink:href="svg.min.js"/>
<svg id="graph" class="graph">
<g id="graph0" class="graph" transform="scale(1 1) rotate(0) translate(4 178)">
<title>RayTracer::ARenderer::ARenderer</title>
<!-- Node1 -->
<g id="Node000001" class="node">
<title>Node1</title>
<g id="a_Node000001"><a xlink:title="Constructor.">
<polygon fill="#999999" stroke="#666666" points="278,-102 156,-102 156,-72 278,-72 278,-102"/>
<text text-anchor="start" x="164" y="-90" font-family="Helvetica,sans-Serif" font-size="10.00">RayTracer::ARenderer</text>
<text text-anchor="middle" x="217" y="-79" font-family="Helvetica,sans-Serif" font-size="10.00">::ARenderer</text>
</a>
</g>
</g>
<!-- Node2 -->
<g id="Node000002" class="node">
<title>Node2</title>
<g id="a_Node000002"><a xlink:href="classRayTracer_1_1BVHCam.html#a1dadda5103abfe56bd9bd73729f8be3f" target="_top" xlink:title="Construct a camera renderer.">
<polygon fill="white" stroke="#666666" points="120,-174 0,-174 0,-144 120,-144 120,-174"/>
<text text-anchor="start" x="8" y="-162" font-family="Helvetica,sans-Serif" font-size="10.00">RayTracer::BVHCam::</text>
<text text-anchor="middle" x="60" y="-151" font-family="Helvetica,sans-Serif" font-size="10.00">BVHCam</text>
</a>
</g>
</g>
<!-- Node1&#45;&gt;Node2 -->
<g id="edge1_Node000001_Node000002" class="edge">
<title>Node1&#45;&gt;Node2</title>
<g id="a_edge1_Node000001_Node000002"><a xlink:title=" ">
<path fill="none" stroke="#63b8ff" d="M177.98,-106.86C160.47,-115.78 139.34,-126.25 120,-135 113.35,-138.01 106.21,-141.06 99.27,-143.94"/>
<polygon fill="#63b8ff" stroke="#63b8ff" points="179.99,-109.76 187.29,-102.08 176.8,-103.53 179.99,-109.76"/>
</a>
</g>
</g>
<!-- Node3 -->
<g id="Node000003" class="node">
<title>Node3</title>
<g id="a_Node000003"><a xlink:href="classRayTracer_1_1BVHCam.html#a12c8b8553f66adaccedd88016dc89d1e" target="_top" xlink:title="Construct a camera from a 4x4 affine transform matrix.">
<polygon fill="white" stroke="#666666" points="120,-126 0,-126 0,-96 120,-96 120,-126"/>
<text text-anchor="start" x="8" y="-114" font-family="Helvetica,sans-Serif" font-size="10.00">RayTracer::BVHCam::</text>
<text text-anchor="middle" x="60" y="-103" font-family="Helvetica,sans-Serif" font-size="10.00">BVHCam</text>
</a>
</g>
</g>
<!-- Node1&#45;&gt;Node3 -->
<g id="edge2_Node000001_Node000003" class="edge">
<title>Node1&#45;&gt;Node3</title>
<g id="a_edge2_Node000001_Node000003"><a xlink:title=" ">
<path fill="none" stroke="#63b8ff" d="M145.7,-97.89C137.17,-99.21 128.53,-100.54 120.19,-101.84"/>
<polygon fill="#63b8ff" stroke="#63b8ff" points="146.28,-101.34 155.63,-96.35 145.21,-94.42 146.28,-101.34"/>
</a>
</g>
</g>
<!-- Node4 -->
<g id="Node000004" class="node">
<title>Node4</title>
<g id="a_Node000004"><a xlink:href="classRayTracer_1_1Camera.html#aa88a1643d3067605407808bf3a5c14d4" target="_top" xlink:title="Construct a camera renderer.">
<polygon fill="white" stroke="#666666" points="117.5,-78 2.5,-78 2.5,-48 117.5,-48 117.5,-78"/>
<text text-anchor="start" x="10.5" y="-66" font-family="Helvetica,sans-Serif" font-size="10.00">RayTracer::Camera::</text>
<text text-anchor="middle" x="60" y="-55" font-family="Helvetica,sans-Serif" font-size="10.00">Camera</text>
</a>
</g>
</g>
<!-- Node1&#45;&gt;Node4 -->
<g id="edge3_Node000001_Node000004" class="edge">
<title>Node1&#45;&gt;Node4</title>
<g id="a_edge3_Node000001_Node000004"><a xlink:title=" ">
<path fill="none" stroke="#63b8ff" d="M145.57,-76.09C136.22,-74.65 126.73,-73.18 117.66,-71.77"/>
<polygon fill="#63b8ff" stroke="#63b8ff" points="145.21,-79.58 155.63,-77.65 146.28,-72.66 145.21,-79.58"/>
</a>
</g>
</g>
<!-- Node5 -->
<g id="Node000005" class="node">
<title>Node5</title>
<g id="a_Node000005"><a xlink:href="classRayTracer_1_1Camera.html#adebcfa0c259280f3d4bcf037fa2192b8" target="_top" xlink:title="Construct a camera from a 4x4 affine transform matrix.">
<polygon fill="white" stroke="#666666" points="117.5,-30 2.5,-30 2.5,0 117.5,0 117.5,-30"/>
<text text-anchor="start" x="10.5" y="-18" font-family="Helvetica,sans-Serif" font-size="10.00">RayTracer::Camera::</text>
<text text-anchor="middle" x="60" y="-7" font-family="Helvetica,sans-Serif" font-size="10.00">Camera</text>
</a>
</g>
</g>
<!-- Node1&#45;&gt;Node5 -->
<g id="edge4_Node000001_Node000005" class="edge">
<title>Node1&#45;&gt;Node5</title>
<g id="a_edge4_Node000001_Node000005"><a xlink:title=" ">
<path fill="none" stroke="#63b8ff" d="M177.98,-67.14C160.47,-58.22 139.34,-47.75 120,-39 113.35,-35.99 106.21,-32.94 99.27,-30.06"/>
<polygon fill="#63b8ff" stroke="#63b8ff" points="176.8,-70.47 187.29,-71.92 179.99,-64.24 176.8,-70.47"/>
</a>
</g>
</g>
</g>
</svg>
</svg>

<style type='text/css'>
<![CDATA[
[data-mouse-over-selected='false'] { opacity: 0.7; }
[data-mouse-over-selected='true']  { opacity: 1.0; }
]]>
</style>
<script type="application/ecmascript"><![CDATA[
document.addEventListener('DOMContentLoaded', (event) => {
  highlightEdges();
  highlightAdjacentNodes();
});
]]></script>
</svg>
