<?xml version="1.0" encoding="UTF-8" standalone="no"?>
<!DOCTYPE svg PUBLIC "-//W3C//DTD SVG 1.1//EN"
 "http://www.w3.org/Graphics/SVG/1.1/DTD/svg11.dtd">
<!-- Generated by graphviz version 2.43.0 (0)
 -->
<!-- Title: Geometry::Vector3D::operator&#45; Pages: 1 -->
<svg width="308pt" height="138pt"
 viewBox="0.00 0.00 308.00 138.00" xmlns="http://www.w3.org/2000/svg" xmlns:xlink="http://www.w3.org/1999/xlink">
<g id="graph0" class="graph" transform="scale(1 1) rotate(0) translate(4 134)">
<title>Geometry::Vector3D::operator&#45;</title>
<!-- Node1 -->
<g id="Node000001" class="node">
<title>Node1</title>
<g id="a_Node000001"><a xlink:title=" ">
<polygon fill="#999999" stroke="#666666" points="300,-79.5 185,-79.5 185,-49.5 300,-49.5 300,-79.5"/>
<text text-anchor="start" x="193" y="-67.5" font-family="Helvetica,sans-Serif" font-size="10.00">Geometry::Vector3D</text>
<text text-anchor="middle" x="242.5" y="-56.5" font-family="Helvetica,sans-Serif" font-size="10.00">::operator&#45;</text>
</a>
</g>
</g>
<!-- Node2 -->
<g id="Node000002" class="node">
<title>Node2</title>
<g id="a_Node000002"><a xlink:href="classRayTracer_1_1Phong.html#a2526bd20be0b2cbb045250c4a6573b27" target="_top" xlink:title="Evaluate the BRDF for a given pair of directions.">
<polygon fill="white" stroke="#666666" points="149,-130 0,-130 0,-111 149,-111 149,-130"/>
<text text-anchor="middle" x="74.5" y="-118" font-family="Helvetica,sans-Serif" font-size="10.00">RayTracer::Phong::evaluate</text>
</a>
</g>
</g>
<!-- Node1&#45;&gt;Node2 -->
<g id="edge1_Node000001_Node000002" class="edge">
<title>Node1&#45;&gt;Node2</title>
<g id="a_edge1_Node000001_Node000002"><a xlink:title=" ">
<path fill="none" stroke="#63b8ff" d="M198.8,-83.6C183.3,-90.12 165.54,-97.11 149,-102.5 139.51,-105.59 129.17,-108.44 119.33,-110.91"/>
<polygon fill="#63b8ff" stroke="#63b8ff" points="200.3,-86.77 208.12,-79.63 197.55,-80.33 200.3,-86.77"/>
</a>
</g>
</g>
<!-- Node3 -->
<g id="Node000003" class="node">
<title>Node3</title>
<g id="a_Node000003"><a xlink:href="classRayTracer_1_1Cylinder.html#ab42450e2290b96bccdf83ba79fa9d8af" target="_top" xlink:title="Test ray–cylinder intersection using the quadratic form of the cylinder equation.">
<polygon fill="white" stroke="#666666" points="139.5,-93 9.5,-93 9.5,-74 139.5,-74 139.5,-93"/>
<text text-anchor="middle" x="74.5" y="-81" font-family="Helvetica,sans-Serif" font-size="10.00">RayTracer::Cylinder::hit</text>
</a>
</g>
</g>
<!-- Node1&#45;&gt;Node3 -->
<g id="edge2_Node000001_Node000003" class="edge">
<title>Node1&#45;&gt;Node3</title>
<g id="a_edge2_Node000001_Node000003"><a xlink:title=" ">
<path fill="none" stroke="#63b8ff" d="M174.78,-72.14C163.18,-73.46 151.14,-74.84 139.61,-76.16"/>
<polygon fill="#63b8ff" stroke="#63b8ff" points="175.3,-75.6 184.84,-70.99 174.5,-68.65 175.3,-75.6"/>
</a>
</g>
</g>
<!-- Node4 -->
<g id="Node000004" class="node">
<title>Node4</title>
<g id="a_Node000004"><a xlink:href="classRayTracer_1_1Phong.html#af9bc5125da9a856062f5284e36ceb5b2" target="_top" xlink:title="Return the probability density of the direction from sample().">
<polygon fill="white" stroke="#666666" points="135.5,-56 13.5,-56 13.5,-37 135.5,-37 135.5,-56"/>
<text text-anchor="middle" x="74.5" y="-44" font-family="Helvetica,sans-Serif" font-size="10.00">RayTracer::Phong::pdf</text>
</a>
</g>
</g>
<!-- Node1&#45;&gt;Node4 -->
<g id="edge3_Node000001_Node000004" class="edge">
<title>Node1&#45;&gt;Node4</title>
<g id="a_edge3_Node000001_Node000004"><a xlink:title=" ">
<path fill="none" stroke="#63b8ff" d="M174.63,-57.25C161.72,-55.85 148.27,-54.39 135.59,-53.02"/>
<polygon fill="#63b8ff" stroke="#63b8ff" points="174.52,-60.76 184.84,-58.36 175.27,-53.8 174.52,-60.76"/>
</a>
</g>
</g>
<!-- Node5 -->
<g id="Node000005" class="node">
<title>Node5</title>
<g id="a_Node000005"><a xlink:href="classRayTracer_1_1Phong.html#a2fe3eab64f5b9ab9ab73976f0c8b80fd" target="_top" xlink:title="Return the deterministic bounce direction for this material.">
<polygon fill="white" stroke="#666666" points="146,-19 3,-19 3,0 146,0 146,-19"/>
<text text-anchor="middle" x="74.5" y="-7" font-family="Helvetica,sans-Serif" font-size="10.00">RayTracer::Phong::sample</text>
</a>
</g>
</g>
<!-- Node1&#45;&gt;Node5 -->
<g id="edge4_Node000001_Node000005" class="edge">
<title>Node1&#45;&gt;Node5</title>
<g id="a_edge4_Node000001_Node000005"><a xlink:title=" ">
<path fill="none" stroke="#63b8ff" d="M196.32,-45.69C181.39,-39.8 164.61,-33.53 149,-28.5 138.34,-25.06 126.65,-21.81 115.8,-19"/>
<polygon fill="#63b8ff" stroke="#63b8ff" points="195.25,-49.03 205.83,-49.48 197.84,-42.53 195.25,-49.03"/>
</a>
</g>
</g>
</g>
</svg>
