<?xml version="1.0" encoding="UTF-8" standalone="no"?>
<!DOCTYPE svg PUBLIC "-//W3C//DTD SVG 1.1//EN"
 "http://www.w3.org/Graphics/SVG/1.1/DTD/svg11.dtd">
<!-- Generated by graphviz version 2.43.0 (0)
 -->
<!-- Title: RayTracer::APrimitive Pages: 1 -->
<svg width="340pt" height="307pt"
 viewBox="0.00 0.00 339.50 307.00" xmlns="http://www.w3.org/2000/svg" xmlns:xlink="http://www.w3.org/1999/xlink">
<g id="graph0" class="graph" transform="scale(1 1) rotate(0) translate(4 303)">
<title>RayTracer::APrimitive</title>
<!-- Node1 -->
<g id="Node000001" class="node">
<title>Node1</title>
<g id="a_Node000001"><a xlink:title="Abstract base class for all primitives (renderable objects). Primitives have geometry and a material.">
<polygon fill="#999999" stroke="transparent" points="227.5,-299 111.5,-299 111.5,-190 227.5,-190 227.5,-299"/>
<text text-anchor="start" x="116.5" y="-286.5" font-family="Helvetica,sans-Serif" font-size="10.00">RayTracer::APrimitive</text>
<text text-anchor="start" x="125" y="-271.5" font-family="Helvetica,sans-Serif" font-size="10.00">&#45;</text>
<text text-anchor="start" x="142.5" y="-271.5" font-family="Helvetica,sans-Serif" font-size="10.00">_material</text>
<text text-anchor="start" x="122.5" y="-256.5" font-family="Helvetica,sans-Serif" font-size="10.00">+</text>
<text text-anchor="start" x="142.5" y="-256.5" font-family="Helvetica,sans-Serif" font-size="10.00">APrimitive()</text>
<text text-anchor="start" x="122.5" y="-241.5" font-family="Helvetica,sans-Serif" font-size="10.00">+</text>
<text text-anchor="start" x="142.5" y="-241.5" font-family="Helvetica,sans-Serif" font-size="10.00">~APrimitive()</text>
<text text-anchor="start" x="122.5" y="-226.5" font-family="Helvetica,sans-Serif" font-size="10.00">+</text>
<text text-anchor="start" x="142.5" y="-226.5" font-family="Helvetica,sans-Serif" font-size="10.00">hit()</text>
<text text-anchor="start" x="122.5" y="-211.5" font-family="Helvetica,sans-Serif" font-size="10.00">+</text>
<text text-anchor="start" x="142.5" y="-211.5" font-family="Helvetica,sans-Serif" font-size="10.00">getBounds()</text>
<text text-anchor="start" x="122.5" y="-196.5" font-family="Helvetica,sans-Serif" font-size="10.00">+</text>
<text text-anchor="start" x="142.5" y="-196.5" font-family="Helvetica,sans-Serif" font-size="10.00">getMaterial()</text>
<polygon fill="#666666" stroke="#666666" points="111.5,-281.5 111.5,-281.5 227.5,-281.5 227.5,-281.5 111.5,-281.5"/>
<polygon fill="#666666" stroke="#666666" points="111.5,-266.5 111.5,-266.5 140.5,-266.5 140.5,-266.5 111.5,-266.5"/>
<polygon fill="#666666" stroke="#666666" points="140.5,-266.5 140.5,-266.5 227.5,-266.5 227.5,-266.5 140.5,-266.5"/>
<polygon fill="none" stroke="#666666" points="111.5,-190 111.5,-299 227.5,-299 227.5,-190 111.5,-190"/>
</a>
</g>
</g>
<!-- Node2 -->
<g id="Node000002" class="node">
<title>Node2</title>
<g id="a_Node000002"><a xlink:href="classRayTracer_1_1Cylinder.html" target="_top" xlink:title=" ">
<polygon fill="white" stroke="transparent" points="105,-154 0,-154 0,0 105,0 105,-154"/>
<text text-anchor="start" x="5.5" y="-142" font-family="Helvetica,sans-Serif" font-size="10.00">RayTracer::Cylinder</text>
<text text-anchor="start" x="13" y="-127" font-family="Helvetica,sans-Serif" font-size="10.00">&#45;</text>
<text text-anchor="start" x="29.5" y="-127" font-family="Helvetica,sans-Serif" font-size="10.00">_origin</text>
<text text-anchor="start" x="13" y="-112" font-family="Helvetica,sans-Serif" font-size="10.00">&#45;</text>
<text text-anchor="start" x="29.5" y="-112" font-family="Helvetica,sans-Serif" font-size="10.00">_axis</text>
<text text-anchor="start" x="13" y="-97" font-family="Helvetica,sans-Serif" font-size="10.00">&#45;</text>
<text text-anchor="start" x="29.5" y="-97" font-family="Helvetica,sans-Serif" font-size="10.00">_radius</text>
<text text-anchor="start" x="13" y="-82" font-family="Helvetica,sans-Serif" font-size="10.00">&#45;</text>
<text text-anchor="start" x="29.5" y="-82" font-family="Helvetica,sans-Serif" font-size="10.00">_height</text>
<text text-anchor="start" x="10.5" y="-67" font-family="Helvetica,sans-Serif" font-size="10.00">+</text>
<text text-anchor="start" x="29.5" y="-67" font-family="Helvetica,sans-Serif" font-size="10.00">Cylinder()</text>
<text text-anchor="start" x="10.5" y="-52" font-family="Helvetica,sans-Serif" font-size="10.00">+</text>
<text text-anchor="start" x="29.5" y="-52" font-family="Helvetica,sans-Serif" font-size="10.00">Cylinder()</text>
<text text-anchor="start" x="10.5" y="-37" font-family="Helvetica,sans-Serif" font-size="10.00">+</text>
<text text-anchor="start" x="29.5" y="-37" font-family="Helvetica,sans-Serif" font-size="10.00">~Cylinder()</text>
<text text-anchor="start" x="10.5" y="-22" font-family="Helvetica,sans-Serif" font-size="10.00">+</text>
<text text-anchor="start" x="29.5" y="-22" font-family="Helvetica,sans-Serif" font-size="10.00">hit()</text>
<text text-anchor="start" x="10.5" y="-7" font-family="Helvetica,sans-Serif" font-size="10.00">+</text>
<text text-anchor="start" x="29.5" y="-7" font-family="Helvetica,sans-Serif" font-size="10.00">getBounds()</text>
<polygon fill="#666666" stroke="#666666" points="0.5,-137 0.5,-137 105.5,-137 105.5,-137 0.5,-137"/>
<polygon fill="#666666" stroke="#666666" points="0.5,-77 0.5,-77 27.5,-77 27.5,-77 0.5,-77"/>
<polygon fill="#666666" stroke="#666666" points="27.5,-77 27.5,-77 105.5,-77 105.5,-77 27.5,-77"/>
<polygon fill="none" stroke="#666666" points="0,0 0,-154 105,-154 105,0 0,0"/>
</a>
</g>
</g>
<!-- Node1&#45;&gt;Node2 -->
<g id="edge1_Node000001_Node000002" class="edge">
<title>Node1&#45;&gt;Node2</title>
<g id="a_edge1_Node000001_Node000002"><a xlink:title=" ">
<path fill="none" stroke="#63b8ff" d="M125.71,-181.56C119.01,-172.08 112.04,-162.22 105.18,-152.51"/>
<polygon fill="none" stroke="#63b8ff" points="122.88,-183.62 131.51,-189.77 128.6,-179.58 122.88,-183.62"/>
</a>
</g>
</g>
<!-- Node3 -->
<g id="Node000003" class="node">
<title>Node3</title>
<g id="a_Node000003"><a xlink:href="classRayTracer_1_1Plane.html" target="_top" xlink:title=" ">
<polygon fill="white" stroke="transparent" points="215.5,-139 123.5,-139 123.5,-15 215.5,-15 215.5,-139"/>
<text text-anchor="start" x="128.5" y="-127" font-family="Helvetica,sans-Serif" font-size="10.00">RayTracer::Plane</text>
<text text-anchor="start" x="132.5" y="-112" font-family="Helvetica,sans-Serif" font-size="10.00">&#45;</text>
<text text-anchor="start" x="145.5" y="-112" font-family="Helvetica,sans-Serif" font-size="10.00">_point</text>
<text text-anchor="start" x="132.5" y="-97" font-family="Helvetica,sans-Serif" font-size="10.00">&#45;</text>
<text text-anchor="start" x="145.5" y="-97" font-family="Helvetica,sans-Serif" font-size="10.00">_normal</text>
<text text-anchor="start" x="130" y="-82" font-family="Helvetica,sans-Serif" font-size="10.00">+</text>
<text text-anchor="start" x="145.5" y="-82" font-family="Helvetica,sans-Serif" font-size="10.00">Plane()</text>
<text text-anchor="start" x="130" y="-67" font-family="Helvetica,sans-Serif" font-size="10.00">+</text>
<text text-anchor="start" x="145.5" y="-67" font-family="Helvetica,sans-Serif" font-size="10.00">Plane()</text>
<text text-anchor="start" x="130" y="-52" font-family="Helvetica,sans-Serif" font-size="10.00">+</text>
<text text-anchor="start" x="145.5" y="-52" font-family="Helvetica,sans-Serif" font-size="10.00">~Plane()</text>
<text text-anchor="start" x="130" y="-37" font-family="Helvetica,sans-Serif" font-size="10.00">+</text>
<text text-anchor="start" x="145.5" y="-37" font-family="Helvetica,sans-Serif" font-size="10.00">hit()</text>
<text text-anchor="start" x="130" y="-22" font-family="Helvetica,sans-Serif" font-size="10.00">+</text>
<text text-anchor="start" x="145.5" y="-22" font-family="Helvetica,sans-Serif" font-size="10.00">getBounds()</text>
<polygon fill="#666666" stroke="#666666" points="123.5,-122 123.5,-122 215.5,-122 215.5,-122 123.5,-122"/>
<polygon fill="#666666" stroke="#666666" points="123.5,-92 123.5,-92 143.5,-92 143.5,-92 123.5,-92"/>
<polygon fill="#666666" stroke="#666666" points="143.5,-92 143.5,-92 215.5,-92 215.5,-92 143.5,-92"/>
<polygon fill="none" stroke="#666666" points="123.5,-15 123.5,-139 215.5,-139 215.5,-15 123.5,-15"/>
</a>
</g>
</g>
<!-- Node1&#45;&gt;Node3 -->
<g id="edge2_Node000001_Node000003" class="edge">
<title>Node1&#45;&gt;Node3</title>
<g id="a_edge2_Node000001_Node000003"><a xlink:title=" ">
<path fill="none" stroke="#63b8ff" d="M169.5,-179.75C169.5,-166.44 169.5,-152.43 169.5,-139.22"/>
<polygon fill="none" stroke="#63b8ff" points="166,-179.77 169.5,-189.77 173,-179.77 166,-179.77"/>
</a>
</g>
</g>
<!-- Node4 -->
<g id="Node000004" class="node">
<title>Node4</title>
<g id="a_Node000004"><a xlink:href="classRayTracer_1_1Sphere.html" target="_top" xlink:title=" ">
<polygon fill="white" stroke="transparent" points="331.5,-131.5 233.5,-131.5 233.5,-22.5 331.5,-22.5 331.5,-131.5"/>
<text text-anchor="start" x="238.5" y="-119" font-family="Helvetica,sans-Serif" font-size="10.00">RayTracer::Sphere</text>
<text text-anchor="start" x="244" y="-104" font-family="Helvetica,sans-Serif" font-size="10.00">&#45;</text>
<text text-anchor="start" x="258.5" y="-104" font-family="Helvetica,sans-Serif" font-size="10.00">_center</text>
<text text-anchor="start" x="244" y="-89" font-family="Helvetica,sans-Serif" font-size="10.00">&#45;</text>
<text text-anchor="start" x="258.5" y="-89" font-family="Helvetica,sans-Serif" font-size="10.00">_radius</text>
<text text-anchor="start" x="241.5" y="-74" font-family="Helvetica,sans-Serif" font-size="10.00">+</text>
<text text-anchor="start" x="258.5" y="-74" font-family="Helvetica,sans-Serif" font-size="10.00">Sphere()</text>
<text text-anchor="start" x="241.5" y="-59" font-family="Helvetica,sans-Serif" font-size="10.00">+</text>
<text text-anchor="start" x="258.5" y="-59" font-family="Helvetica,sans-Serif" font-size="10.00">~Sphere()</text>
<text text-anchor="start" x="241.5" y="-44" font-family="Helvetica,sans-Serif" font-size="10.00">+</text>
<text text-anchor="start" x="258.5" y="-44" font-family="Helvetica,sans-Serif" font-size="10.00">hit()</text>
<text text-anchor="start" x="241.5" y="-29" font-family="Helvetica,sans-Serif" font-size="10.00">+</text>
<text text-anchor="start" x="258.5" y="-29" font-family="Helvetica,sans-Serif" font-size="10.00">getBounds()</text>
<polygon fill="#666666" stroke="#666666" points="233.5,-114 233.5,-114 331.5,-114 331.5,-114 233.5,-114"/>
<polygon fill="#666666" stroke="#666666" points="233.5,-84 233.5,-84 256.5,-84 256.5,-84 233.5,-84"/>
<polygon fill="#666666" stroke="#666666" points="256.5,-84 256.5,-84 331.5,-84 331.5,-84 256.5,-84"/>
<polygon fill="none" stroke="#666666" points="233.5,-22.5 233.5,-131.5 331.5,-131.5 331.5,-22.5 233.5,-22.5"/>
</a>
</g>
</g>
<!-- Node1&#45;&gt;Node4 -->
<g id="edge3_Node000001_Node000004" class="edge">
<title>Node1&#45;&gt;Node4</title>
<g id="a_edge3_Node000001_Node000004"><a xlink:title=" ">
<path fill="none" stroke="#63b8ff" d="M211.93,-181.35C223.07,-165.04 234.99,-147.58 245.8,-131.75"/>
<polygon fill="none" stroke="#63b8ff" points="208.94,-179.53 206.19,-189.77 214.72,-183.48 208.94,-179.53"/>
</a>
</g>
</g>
</g>
</svg>
