<?xml version="1.0" encoding="UTF-8" standalone="no"?>
<!DOCTYPE svg PUBLIC "-//W3C//DTD SVG 1.1//EN"
 "http://www.w3.org/Graphics/SVG/1.1/DTD/svg11.dtd">
<!-- Generated by graphviz version 2.43.0 (0)
 -->
<!-- Title: Geometry::Point3D::Point3D Pages: 1 -->
<svg width="838pt" height="880pt"
 viewBox="0.00 0.00 838.00 879.50" xmlns="http://www.w3.org/2000/svg" xmlns:xlink="http://www.w3.org/1999/xlink">
<g id="graph0" class="graph" transform="scale(1 1) rotate(0) translate(4 875.5)">
<title>Geometry::Point3D::Point3D</title>
<!-- Node1 -->
<g id="Node000001" class="node">
<title>Node1</title>
<g id="a_Node000001"><a xlink:title=" ">
<polygon fill="#999999" stroke="#666666" points="830,-378.5 715,-378.5 715,-348.5 830,-348.5 830,-378.5"/>
<text text-anchor="start" x="723" y="-366.5" font-family="Helvetica,sans-Serif" font-size="10.00">Geometry::Point3D::</text>
<text text-anchor="middle" x="772.5" y="-355.5" font-family="Helvetica,sans-Serif" font-size="10.00">Point3D</text>
</a>
</g>
</g>
<!-- Node2 -->
<g id="Node000002" class="node">
<title>Node2</title>
<g id="a_Node000002"><a xlink:href="classGeometry_1_1Ray.html#ab2ee230ea6c5b866a94d7bfd57c98845" target="_top" xlink:title="Compute a point at parameter t along the ray.">
<polygon fill="white" stroke="#666666" points="655.5,-749 551.5,-749 551.5,-730 655.5,-730 655.5,-749"/>
<text text-anchor="middle" x="603.5" y="-737" font-family="Helvetica,sans-Serif" font-size="10.00">Geometry::Ray::at</text>
</a>
</g>
</g>
<!-- Node1&#45;&gt;Node2 -->
<g id="edge1_Node000001_Node000002" class="edge">
<title>Node1&#45;&gt;Node2</title>
<g id="a_edge1_Node000001_Node000002"><a xlink:title=" ">
<path fill="none" stroke="#63b8ff" d="M766.03,-388.5C754.49,-438.41 724.91,-553.1 679,-640.5 660.19,-676.3 628.83,-712.91 613.5,-729.83"/>
<polygon fill="#63b8ff" stroke="#63b8ff" points="769.48,-389.12 768.27,-378.6 762.65,-387.57 769.48,-389.12"/>
</a>
</g>
</g>
<!-- Node7 -->
<g id="Node000007" class="node">
<title>Node7</title>
<g id="a_Node000007"><a xlink:href="classRayTracer_1_1BVH.html#a6d1f432f54cdd62367f622f22be4eb90" target="_top" xlink:title=" ">
<polygon fill="white" stroke="#666666" points="287.5,-609 165.5,-609 165.5,-590 287.5,-590 287.5,-609"/>
<text text-anchor="middle" x="226.5" y="-597" font-family="Helvetica,sans-Serif" font-size="10.00">RayTracer::BVH::build</text>
</a>
</g>
</g>
<!-- Node1&#45;&gt;Node7 -->
<g id="edge6_Node000001_Node000007" class="edge">
<title>Node1&#45;&gt;Node7</title>
<g id="a_edge6_Node000001_Node000007"><a xlink:title=" ">
<path fill="none" stroke="#63b8ff" d="M763.87,-388.28C751.75,-423.33 724.68,-486.87 679,-520.5 617.73,-565.62 396.02,-587.42 287.78,-595.55"/>
<polygon fill="#63b8ff" stroke="#63b8ff" points="767.19,-389.38 767.02,-378.79 760.55,-387.17 767.19,-389.38"/>
</a>
</g>
</g>
<!-- Node9 -->
<g id="Node000009" class="node">
<title>Node9</title>
<g id="a_Node000009"><a xlink:href="classRayTracer_1_1BVHCam.html#a343291f29df2a424797e29651a34dd34" target="_top" xlink:title="Rebuild the _screen rectangle from the current _transform and _fov.">
<polygon fill="white" stroke="#666666" points="677,-469.5 530,-469.5 530,-439.5 677,-439.5 677,-469.5"/>
<text text-anchor="start" x="538" y="-457.5" font-family="Helvetica,sans-Serif" font-size="10.00">RayTracer::BVHCam::</text>
<text text-anchor="middle" x="603.5" y="-446.5" font-family="Helvetica,sans-Serif" font-size="10.00">buildScreenFromTransform</text>
</a>
</g>
</g>
<!-- Node1&#45;&gt;Node9 -->
<g id="edge9_Node000001_Node000009" class="edge">
<title>Node1&#45;&gt;Node9</title>
<g id="a_edge9_Node000001_Node000009"><a xlink:title=" ">
<path fill="none" stroke="#63b8ff" d="M746.02,-385.35C728.2,-399.76 703.32,-418.17 679,-430.5 672.46,-433.82 665.36,-436.8 658.23,-439.45"/>
<polygon fill="#63b8ff" stroke="#63b8ff" points="748.67,-387.7 754.17,-378.65 744.22,-382.3 748.67,-387.7"/>
</a>
</g>
</g>
<!-- Node12 -->
<g id="Node000012" class="node">
<title>Node12</title>
<g id="a_Node000012"><a xlink:href="classRayTracer_1_1Camera.html#a27ae8f34a8cb15a3ffd5e23498d894cb" target="_top" xlink:title="Rebuild the _screen rectangle from the current _transform and _fov.">
<polygon fill="white" stroke="#666666" points="677,-421.5 530,-421.5 530,-391.5 677,-391.5 677,-421.5"/>
<text text-anchor="start" x="538" y="-409.5" font-family="Helvetica,sans-Serif" font-size="10.00">RayTracer::Camera::</text>
<text text-anchor="middle" x="603.5" y="-398.5" font-family="Helvetica,sans-Serif" font-size="10.00">buildScreenFromTransform</text>
</a>
</g>
</g>
<!-- Node1&#45;&gt;Node12 -->
<g id="edge12_Node000001_Node000012" class="edge">
<title>Node1&#45;&gt;Node12</title>
<g id="a_edge12_Node000001_Node000012"><a xlink:title=" ">
<path fill="none" stroke="#63b8ff" d="M704.99,-380.63C691.09,-384.2 676.55,-387.95 662.97,-391.44"/>
<polygon fill="#63b8ff" stroke="#63b8ff" points="706.15,-383.94 714.96,-378.06 704.4,-377.16 706.15,-383.94"/>
</a>
</g>
</g>
<!-- Node15 -->
<g id="Node000015" class="node">
<title>Node15</title>
<g id="a_Node000015"><a xlink:href="classRayTracer_1_1Camera.html#a7cd2251f34b6dda51fe338512e598571" target="_top" xlink:title="Evaluate the rendering equation along a ray, deterministically.">
<polygon fill="white" stroke="#666666" points="470.5,-302.5 355.5,-302.5 355.5,-272.5 470.5,-272.5 470.5,-302.5"/>
<text text-anchor="start" x="363.5" y="-290.5" font-family="Helvetica,sans-Serif" font-size="10.00">RayTracer::Camera::</text>
<text text-anchor="middle" x="413" y="-279.5" font-family="Helvetica,sans-Serif" font-size="10.00">castRay</text>
</a>
</g>
</g>
<!-- Node1&#45;&gt;Node15 -->
<g id="edge15_Node000001_Node000015" class="edge">
<title>Node1&#45;&gt;Node15</title>
<g id="a_edge15_Node000001_Node000015"><a xlink:title=" ">
<path fill="none" stroke="#63b8ff" d="M704.69,-362.81C655.15,-360.89 586.4,-355.23 528,-339.5 496.7,-331.07 463.22,-314.84 440.7,-302.74"/>
<polygon fill="#63b8ff" stroke="#63b8ff" points="704.84,-366.32 714.95,-363.16 705.08,-359.32 704.84,-366.32"/>
</a>
</g>
</g>
<!-- Node17 -->
<g id="Node000017" class="node">
<title>Node17</title>
<g id="a_Node000017"><a xlink:href="classGeometry_1_1AABB.html#ab0044437bd506a05e83b4fa2154112bd" target="_top" xlink:title=" ">
<polygon fill="white" stroke="#666666" points="298,-561 155,-561 155,-542 298,-542 298,-561"/>
<text text-anchor="middle" x="226.5" y="-549" font-family="Helvetica,sans-Serif" font-size="10.00">Geometry::AABB::centroid</text>
</a>
</g>
</g>
<!-- Node1&#45;&gt;Node17 -->
<g id="edge18_Node000001_Node000017" class="edge">
<title>Node1&#45;&gt;Node17</title>
<g id="a_edge18_Node000001_Node000017"><a xlink:title=" ">
<path fill="none" stroke="#63b8ff" d="M758.76,-387.51C743.42,-413.99 715.16,-455.84 679,-478.5 560.91,-552.49 392.54,-559.34 298.33,-556.33"/>
<polygon fill="#63b8ff" stroke="#63b8ff" points="761.96,-388.95 763.81,-378.52 755.86,-385.52 761.96,-388.95"/>
</a>
</g>
</g>
<!-- Node18 -->
<g id="Node000018" class="node">
<title>Node18</title>
<g id="a_Node000018"><a xlink:href="classRayTracer_1_1DirectionalLight.html#a7170b3c9d9e2c2e697139f0dae68ab5b" target="_top" xlink:title="Compute light contribution, shadow ray cast in opposite direction.">
<polygon fill="white" stroke="#666666" points="677.5,-163.5 529.5,-163.5 529.5,-133.5 677.5,-133.5 677.5,-163.5"/>
<text text-anchor="start" x="537.5" y="-151.5" font-family="Helvetica,sans-Serif" font-size="10.00">RayTracer::DirectionalLight</text>
<text text-anchor="middle" x="603.5" y="-140.5" font-family="Helvetica,sans-Serif" font-size="10.00">::computeLight</text>
</a>
</g>
</g>
<!-- Node1&#45;&gt;Node18 -->
<g id="edge20_Node000001_Node000018" class="edge">
<title>Node1&#45;&gt;Node18</title>
<g id="a_edge20_Node000001_Node000018"><a xlink:title=" ">
<path fill="none" stroke="#63b8ff" d="M765.39,-338.63C754.51,-299.24 728.15,-222.4 679,-177.5 672.85,-171.88 665.49,-167.31 657.83,-163.59"/>
<polygon fill="#63b8ff" stroke="#63b8ff" points="762.06,-339.7 768,-348.46 768.82,-337.9 762.06,-339.7"/>
</a>
</g>
</g>
<!-- Node19 -->
<g id="Node000019" class="node">
<title>Node19</title>
<g id="a_Node000019"><a xlink:href="classRayTracer_1_1PointLight.html#a4fdb35dd47674e655119b54c30b48b20" target="_top" xlink:title="Compute light contribution.">
<polygon fill="white" stroke="#666666" points="663,-115.5 544,-115.5 544,-85.5 663,-85.5 663,-115.5"/>
<text text-anchor="start" x="552" y="-103.5" font-family="Helvetica,sans-Serif" font-size="10.00">RayTracer::PointLight</text>
<text text-anchor="middle" x="603.5" y="-92.5" font-family="Helvetica,sans-Serif" font-size="10.00">::computeLight</text>
</a>
</g>
</g>
<!-- Node1&#45;&gt;Node19 -->
<g id="edge21_Node000001_Node000019" class="edge">
<title>Node1&#45;&gt;Node19</title>
<g id="a_edge21_Node000001_Node000019"><a xlink:title=" ">
<path fill="none" stroke="#63b8ff" d="M768.84,-338.24C762.4,-289.83 741.58,-183.58 679,-124.5 674.36,-120.12 668.91,-116.53 663.1,-113.6"/>
<polygon fill="#63b8ff" stroke="#63b8ff" points="765.4,-338.95 770.1,-348.45 772.35,-338.09 765.4,-338.95"/>
</a>
</g>
</g>
<!-- Node20 -->
<g id="Node000020" class="node">
<title>Node20</title>
<g id="a_Node000020"><a xlink:href="namespaceRaytracer.html#a4804feabf04b641269bc1db2afd57459" target="_top" xlink:title=" ">
<polygon fill="white" stroke="#666666" points="669,-67.5 538,-67.5 538,-37.5 669,-37.5 669,-67.5"/>
<text text-anchor="start" x="546" y="-55.5" font-family="Helvetica,sans-Serif" font-size="10.00">Raytracer::fromNode</text>
<text text-anchor="middle" x="603.5" y="-44.5" font-family="Helvetica,sans-Serif" font-size="10.00">&lt; Geometry::Point3D &gt;</text>
</a>
</g>
</g>
<!-- Node1&#45;&gt;Node20 -->
<g id="edge22_Node000001_Node000020" class="edge">
<title>Node1&#45;&gt;Node20</title>
<g id="a_edge22_Node000001_Node000020"><a xlink:title=" ">
<path fill="none" stroke="#63b8ff" d="M770.73,-337.94C767.67,-282.46 752.6,-150.09 679,-76.5 675.54,-73.04 671.58,-70.08 667.33,-67.55"/>
<polygon fill="#63b8ff" stroke="#63b8ff" points="767.25,-338.44 771.21,-348.27 774.24,-338.12 767.25,-338.44"/>
</a>
</g>
</g>
<!-- Node21 -->
<g id="Node000021" class="node">
<title>Node21</title>
<g id="a_Node000021"><a xlink:href="classRayTracer_1_1BVHCam.html#a4a4e49d9f065cf0844d84706c340147f" target="_top" xlink:title="Build a world&#45;space ray from normalized screen coordinates.">
<polygon fill="white" stroke="#666666" points="473,-206.5 353,-206.5 353,-176.5 473,-176.5 473,-206.5"/>
<text text-anchor="start" x="361" y="-194.5" font-family="Helvetica,sans-Serif" font-size="10.00">RayTracer::BVHCam::</text>
<text text-anchor="middle" x="413" y="-183.5" font-family="Helvetica,sans-Serif" font-size="10.00">generateRay</text>
</a>
</g>
</g>
<!-- Node1&#45;&gt;Node21 -->
<g id="edge23_Node000001_Node000021" class="edge">
<title>Node1&#45;&gt;Node21</title>
<g id="a_edge23_Node000001_Node000021"><a xlink:title=" ">
<path fill="none" stroke="#63b8ff" d="M764.37,-338.43C752.86,-303.06 726.5,-239.58 679,-210.5 616.74,-172.39 530.19,-174.14 473.17,-181.03"/>
<polygon fill="#63b8ff" stroke="#63b8ff" points="761.17,-339.93 767.48,-348.44 767.86,-337.85 761.17,-339.93"/>
</a>
</g>
</g>
<!-- Node23 -->
<g id="Node000023" class="node">
<title>Node23</title>
<g id="a_Node000023"><a xlink:href="classRayTracer_1_1Camera.html#a4a7f4b6a0e5bf44d17162fb324c289bd" target="_top" xlink:title="Build a world&#45;space ray from normalized screen coordinates.">
<polygon fill="white" stroke="#666666" points="470.5,-254.5 355.5,-254.5 355.5,-224.5 470.5,-224.5 470.5,-254.5"/>
<text text-anchor="start" x="363.5" y="-242.5" font-family="Helvetica,sans-Serif" font-size="10.00">RayTracer::Camera::</text>
<text text-anchor="middle" x="413" y="-231.5" font-family="Helvetica,sans-Serif" font-size="10.00">generateRay</text>
</a>
</g>
</g>
<!-- Node1&#45;&gt;Node23 -->
<g id="edge25_Node000001_Node000023" class="edge">
<title>Node1&#45;&gt;Node23</title>
<g id="a_edge25_Node000001_Node000023"><a xlink:title=" ">
<path fill="none" stroke="#63b8ff" d="M705.04,-345.93C696.3,-343.71 687.44,-341.52 679,-339.5 612.19,-323.54 586.76,-342.08 528,-306.5 506.68,-293.59 512.76,-277.29 492,-263.5 485.51,-259.19 478.21,-255.62 470.74,-252.68"/>
<polygon fill="#63b8ff" stroke="#63b8ff" points="704.29,-349.35 714.84,-348.43 706.02,-342.56 704.29,-349.35"/>
</a>
</g>
</g>
<!-- Node24 -->
<g id="Node000024" class="node">
<title>Node24</title>
<g id="a_Node000024"><a xlink:href="BVHCamPlugin_8cpp.html#a0e14e2166e2799c71d21f343a3d543f3" target="_top" xlink:title=" ">
<polygon fill="white" stroke="#666666" points="645,-19 562,-19 562,0 645,0 645,-19"/>
<text text-anchor="middle" x="603.5" y="-7" font-family="Helvetica,sans-Serif" font-size="10.00">getInitializers</text>
</a>
</g>
</g>
<!-- Node1&#45;&gt;Node24 -->
<g id="edge27_Node000001_Node000024" class="edge">
<title>Node1&#45;&gt;Node24</title>
<g id="a_edge27_Node000001_Node000024"><a xlink:title=" ">
<path fill="none" stroke="#63b8ff" d="M767.82,-338.06C757.13,-267.67 723.98,-72.61 679,-28.5 669.95,-19.62 657.35,-14.72 645.09,-12.06"/>
<polygon fill="#63b8ff" stroke="#63b8ff" points="764.4,-338.87 769.34,-348.25 771.32,-337.84 764.4,-338.87"/>
</a>
</g>
</g>
<!-- Node25 -->
<g id="Node000025" class="node">
<title>Node25</title>
<g id="a_Node000025"><a xlink:href="classGeometry_1_1TransformMatrix.html#a136a1573f63564d63426b89fcafeb21b" target="_top" xlink:title=" ">
<polygon fill="white" stroke="#666666" points="679,-249.5 528,-249.5 528,-219.5 679,-219.5 679,-249.5"/>
<text text-anchor="start" x="536" y="-237.5" font-family="Helvetica,sans-Serif" font-size="10.00">Geometry::TransformMatrix</text>
<text text-anchor="middle" x="603.5" y="-226.5" font-family="Helvetica,sans-Serif" font-size="10.00">::operator*</text>
</a>
</g>
</g>
<!-- Node1&#45;&gt;Node25 -->
<g id="edge28_Node000001_Node000025" class="edge">
<title>Node1&#45;&gt;Node25</title>
<g id="a_edge28_Node000001_Node000025"><a xlink:title=" ">
<path fill="none" stroke="#63b8ff" d="M756.37,-339.88C740,-316.11 711.79,-279.99 679,-258.5 673.77,-255.07 668.02,-252.1 662.09,-249.54"/>
<polygon fill="#63b8ff" stroke="#63b8ff" points="753.57,-341.98 762.05,-348.33 759.38,-338.08 753.57,-341.98"/>
</a>
</g>
</g>
<!-- Node26 -->
<g id="Node000026" class="node">
<title>Node26</title>
<g id="a_Node000026"><a xlink:href="classGeometry_1_1Point3D.html#a59644f9fa320bfc8f33e3761fd7577b0" target="_top" xlink:title=" ">
<polygon fill="white" stroke="#666666" points="661,-823.5 546,-823.5 546,-793.5 661,-793.5 661,-823.5"/>
<text text-anchor="start" x="554" y="-811.5" font-family="Helvetica,sans-Serif" font-size="10.00">Geometry::Point3D::</text>
<text text-anchor="middle" x="603.5" y="-800.5" font-family="Helvetica,sans-Serif" font-size="10.00">operator+</text>
</a>
</g>
</g>
<!-- Node1&#45;&gt;Node26 -->
<g id="edge31_Node000001_Node000026" class="edge">
<title>Node1&#45;&gt;Node26</title>
<g id="a_edge31_Node000001_Node000026"><a xlink:title=" ">
<path fill="none" stroke="#63b8ff" d="M771.74,-389.08C771.13,-455.97 761.54,-639.11 679,-758.5 668.72,-773.36 652.47,-785.02 637.75,-793.33"/>
<polygon fill="#63b8ff" stroke="#63b8ff" points="775.24,-388.69 771.76,-378.68 768.24,-388.67 775.24,-388.69"/>
</a>
</g>
</g>
<!-- Node28 -->
<g id="Node000028" class="node">
<title>Node28</title>
<g id="a_Node000028"><a xlink:href="classGeometry_1_1Point3D.html#a317d081effd79290e9d5e314ee335484" target="_top" xlink:title=" ">
<polygon fill="white" stroke="#666666" points="661,-871.5 546,-871.5 546,-841.5 661,-841.5 661,-871.5"/>
<text text-anchor="start" x="554" y="-859.5" font-family="Helvetica,sans-Serif" font-size="10.00">Geometry::Point3D::</text>
<text text-anchor="middle" x="603.5" y="-848.5" font-family="Helvetica,sans-Serif" font-size="10.00">operator&#45;</text>
</a>
</g>
</g>
<!-- Node1&#45;&gt;Node28 -->
<g id="edge34_Node000001_Node000028" class="edge">
<title>Node1&#45;&gt;Node28</title>
<g id="a_edge34_Node000001_Node000028"><a xlink:title=" ">
<path fill="none" stroke="#63b8ff" d="M769.82,-389.06C763.52,-477.01 738.64,-765.45 679,-832.5 674.12,-837.98 667.99,-842.22 661.35,-845.49"/>
<polygon fill="#63b8ff" stroke="#63b8ff" points="773.32,-389.13 770.52,-378.91 766.34,-388.64 773.32,-389.13"/>
</a>
</g>
</g>
<!-- Node29 -->
<g id="Node000029" class="node">
<title>Node29</title>
<g id="a_Node000029"><a xlink:href="classGeometry_1_1Rectangle3D.html#a2b17f489ad6e57c131dc0e1c8ac2f1a0" target="_top" xlink:title="Get a point on the rectangle at normalized coordinates (u, v).">
<polygon fill="white" stroke="#666666" points="670,-297.5 537,-297.5 537,-267.5 670,-267.5 670,-297.5"/>
<text text-anchor="start" x="545" y="-285.5" font-family="Helvetica,sans-Serif" font-size="10.00">Geometry::Rectangle3D</text>
<text text-anchor="middle" x="603.5" y="-274.5" font-family="Helvetica,sans-Serif" font-size="10.00">::pointAt</text>
</a>
</g>
</g>
<!-- Node1&#45;&gt;Node29 -->
<g id="edge36_Node000001_Node000029" class="edge">
<title>Node1&#45;&gt;Node29</title>
<g id="a_edge36_Node000001_Node000029"><a xlink:title=" ">
<path fill="none" stroke="#63b8ff" d="M738.24,-343.3C720.89,-333.15 699.14,-321.02 679,-311.5 668.59,-306.58 657.09,-301.8 646.32,-297.59"/>
<polygon fill="#63b8ff" stroke="#63b8ff" points="736.49,-346.33 746.88,-348.4 740.05,-340.3 736.49,-346.33"/>
</a>
</g>
</g>
<!-- Node30 -->
<g id="Node000030" class="node">
<title>Node30</title>
<g id="a_Node000030"><a xlink:href="classGeometry_1_1AABB.html#ad625c435b383175aae100d15fa0f3cca" target="_top" xlink:title=" ">
<polygon fill="white" stroke="#666666" points="667.5,-631 539.5,-631 539.5,-612 667.5,-612 667.5,-631"/>
<text text-anchor="middle" x="603.5" y="-619" font-family="Helvetica,sans-Serif" font-size="10.00">Geometry::AABB::unite</text>
</a>
</g>
</g>
<!-- Node1&#45;&gt;Node30 -->
<g id="edge39_Node000001_Node000030" class="edge">
<title>Node1&#45;&gt;Node30</title>
<g id="a_edge39_Node000001_Node000030"><a xlink:title=" ">
<path fill="none" stroke="#63b8ff" d="M767.99,-388.7C760.24,-435.14 737.47,-534.77 679,-592.5 670.01,-601.37 658,-607.6 646.25,-611.95"/>
<polygon fill="#63b8ff" stroke="#63b8ff" points="771.48,-389.03 769.57,-378.6 764.56,-387.94 771.48,-389.03"/>
</a>
</g>
</g>
<!-- Node3 -->
<g id="Node000003" class="node">
<title>Node3</title>
<g id="a_Node000003"><a xlink:href="classRayTracer_1_1Cone.html#a19623c2790fd4ab917eb624508e57e5d" target="_top" xlink:title="Test ray–cone intersection using the quadratic form of the cone equation.">
<polygon fill="white" stroke="#666666" points="470,-712 356,-712 356,-693 470,-693 470,-712"/>
<text text-anchor="middle" x="413" y="-700" font-family="Helvetica,sans-Serif" font-size="10.00">RayTracer::Cone::hit</text>
</a>
</g>
</g>
<!-- Node2&#45;&gt;Node3 -->
<g id="edge2_Node000002_Node000003" class="edge">
<title>Node2&#45;&gt;Node3</title>
<g id="a_edge2_Node000002_Node000003"><a xlink:title=" ">
<path fill="none" stroke="#63b8ff" d="M543.83,-727.98C517.78,-722.87 487.48,-716.92 462.71,-712.06"/>
<polygon fill="#63b8ff" stroke="#63b8ff" points="543.47,-731.48 553.96,-729.97 544.82,-724.61 543.47,-731.48"/>
</a>
</g>
</g>
<!-- Node4 -->
<g id="Node000004" class="node">
<title>Node4</title>
<g id="a_Node000004"><a xlink:href="classRayTracer_1_1Cylinder.html#ab42450e2290b96bccdf83ba79fa9d8af" target="_top" xlink:title="Test ray–cylinder intersection using the quadratic form of the cylinder equation.">
<polygon fill="white" stroke="#666666" points="478,-823 348,-823 348,-804 478,-804 478,-823"/>
<text text-anchor="middle" x="413" y="-811" font-family="Helvetica,sans-Serif" font-size="10.00">RayTracer::Cylinder::hit</text>
</a>
</g>
</g>
<!-- Node2&#45;&gt;Node4 -->
<g id="edge3_Node000002_Node000004" class="edge">
<title>Node2&#45;&gt;Node4</title>
<g id="a_edge3_Node000002_Node000004"><a xlink:title=" ">
<path fill="none" stroke="#63b8ff" d="M577.64,-754.3C555.74,-766.8 522.64,-784.39 492,-795.5 482.99,-798.77 473.16,-801.58 463.62,-803.95"/>
<polygon fill="#63b8ff" stroke="#63b8ff" points="579.68,-757.17 586.58,-749.13 576.17,-751.11 579.68,-757.17"/>
</a>
</g>
</g>
<!-- Node5 -->
<g id="Node000005" class="node">
<title>Node5</title>
<g id="a_Node000005"><a xlink:href="classRayTracer_1_1Plane.html#a7b741696eb186f6ec9df62e58e795916" target="_top" xlink:title="Test ray–plane intersection using the algebraic plane equation.">
<polygon fill="white" stroke="#666666" points="471,-786 355,-786 355,-767 471,-767 471,-786"/>
<text text-anchor="middle" x="413" y="-774" font-family="Helvetica,sans-Serif" font-size="10.00">RayTracer::Plane::hit</text>
</a>
</g>
</g>
<!-- Node2&#45;&gt;Node5 -->
<g id="edge4_Node000002_Node000005" class="edge">
<title>Node2&#45;&gt;Node5</title>
<g id="a_edge4_Node000002_Node000005"><a xlink:title=" ">
<path fill="none" stroke="#63b8ff" d="M543.83,-751.02C517.78,-756.13 487.48,-762.08 462.71,-766.94"/>
<polygon fill="#63b8ff" stroke="#63b8ff" points="544.82,-754.39 553.96,-749.03 543.47,-747.52 544.82,-754.39"/>
</a>
</g>
</g>
<!-- Node6 -->
<g id="Node000006" class="node">
<title>Node6</title>
<g id="a_Node000006"><a xlink:href="classRayTracer_1_1Sphere.html#a40d439c5a658465a6eeef01f7679ecc9" target="_top" xlink:title="Test ray intersection with this primitive.">
<polygon fill="white" stroke="#666666" points="474.5,-749 351.5,-749 351.5,-730 474.5,-730 474.5,-749"/>
<text text-anchor="middle" x="413" y="-737" font-family="Helvetica,sans-Serif" font-size="10.00">RayTracer::Sphere::hit</text>
</a>
</g>
</g>
<!-- Node2&#45;&gt;Node6 -->
<g id="edge5_Node000002_Node000006" class="edge">
<title>Node2&#45;&gt;Node6</title>
<g id="a_edge5_Node000002_Node000006"><a xlink:title=" ">
<path fill="none" stroke="#63b8ff" d="M541.25,-739.5C519.94,-739.5 496.05,-739.5 474.77,-739.5"/>
<polygon fill="#63b8ff" stroke="#63b8ff" points="541.49,-743 551.49,-739.5 541.49,-736 541.49,-743"/>
</a>
</g>
</g>
<!-- Node7&#45;&gt;Node7 -->
<g id="edge8_Node000007_Node000007" class="edge">
<title>Node7&#45;&gt;Node7</title>
<g id="a_edge8_Node000007_Node000007"><a xlink:title=" ">
<path fill="none" stroke="#63b8ff" d="M257.49,-617.82C256.19,-623.01 245.86,-627 226.5,-627 197,-627 188.47,-617.73 200.91,-609.08"/>
<polygon fill="#63b8ff" stroke="#63b8ff" points="260.32,-615.75 252.09,-609.08 254.37,-619.43 260.32,-615.75"/>
</a>
</g>
</g>
<!-- Node8 -->
<g id="Node000008" class="node">
<title>Node8</title>
<g id="a_Node000008"><a xlink:href="classRayTracer_1_1BVH.html#a68e74bb5f748dbf38d86eea0a21d2b76" target="_top" xlink:title=" ">
<polygon fill="white" stroke="#666666" points="119,-580 0,-580 0,-561 119,-561 119,-580"/>
<text text-anchor="middle" x="59.5" y="-568" font-family="Helvetica,sans-Serif" font-size="10.00">RayTracer::BVH::BVH</text>
</a>
</g>
</g>
<!-- Node7&#45;&gt;Node8 -->
<g id="edge7_Node000007_Node000008" class="edge">
<title>Node7&#45;&gt;Node8</title>
<g id="a_edge7_Node000007_Node000008"><a xlink:title=" ">
<path fill="none" stroke="#63b8ff" d="M161.08,-588.18C145.72,-585.48 129.49,-582.62 114.65,-580.02"/>
<polygon fill="#63b8ff" stroke="#63b8ff" points="160.56,-591.64 171.02,-589.92 161.77,-584.75 160.56,-591.64"/>
</a>
</g>
</g>
<!-- Node10 -->
<g id="Node000010" class="node">
<title>Node10</title>
<g id="a_Node000010"><a xlink:href="classRayTracer_1_1BVHCam.html#a1dadda5103abfe56bd9bd73729f8be3f" target="_top" xlink:title="Construct a camera renderer.">
<polygon fill="white" stroke="#666666" points="473,-512.5 353,-512.5 353,-482.5 473,-482.5 473,-512.5"/>
<text text-anchor="start" x="361" y="-500.5" font-family="Helvetica,sans-Serif" font-size="10.00">RayTracer::BVHCam::</text>
<text text-anchor="middle" x="413" y="-489.5" font-family="Helvetica,sans-Serif" font-size="10.00">BVHCam</text>
</a>
</g>
</g>
<!-- Node9&#45;&gt;Node10 -->
<g id="edge10_Node000009_Node000010" class="edge">
<title>Node9&#45;&gt;Node10</title>
<g id="a_edge10_Node000009_Node000010"><a xlink:title=" ">
<path fill="none" stroke="#63b8ff" d="M526.79,-471.77C508.98,-475.83 490.25,-480.11 473.28,-483.98"/>
<polygon fill="#63b8ff" stroke="#63b8ff" points="527.6,-475.18 536.57,-469.54 526.04,-468.35 527.6,-475.18"/>
</a>
</g>
</g>
<!-- Node11 -->
<g id="Node000011" class="node">
<title>Node11</title>
<g id="a_Node000011"><a xlink:href="classRayTracer_1_1BVHCam.html#a12c8b8553f66adaccedd88016dc89d1e" target="_top" xlink:title="Construct a camera from a 4x4 affine transform matrix.">
<polygon fill="white" stroke="#666666" points="473,-464.5 353,-464.5 353,-434.5 473,-434.5 473,-464.5"/>
<text text-anchor="start" x="361" y="-452.5" font-family="Helvetica,sans-Serif" font-size="10.00">RayTracer::BVHCam::</text>
<text text-anchor="middle" x="413" y="-441.5" font-family="Helvetica,sans-Serif" font-size="10.00">BVHCam</text>
</a>
</g>
</g>
<!-- Node9&#45;&gt;Node11 -->
<g id="edge11_Node000009_Node000011" class="edge">
<title>Node9&#45;&gt;Node11</title>
<g id="a_edge11_Node000009_Node000011"><a xlink:title=" ">
<path fill="none" stroke="#63b8ff" d="M519.67,-452.3C504,-451.89 487.9,-451.46 473.14,-451.07"/>
<polygon fill="#63b8ff" stroke="#63b8ff" points="519.8,-455.81 529.89,-452.57 519.99,-448.81 519.8,-455.81"/>
</a>
</g>
</g>
<!-- Node13 -->
<g id="Node000013" class="node">
<title>Node13</title>
<g id="a_Node000013"><a xlink:href="classRayTracer_1_1Camera.html#aa88a1643d3067605407808bf3a5c14d4" target="_top" xlink:title="Construct a camera renderer.">
<polygon fill="white" stroke="#666666" points="470.5,-416.5 355.5,-416.5 355.5,-386.5 470.5,-386.5 470.5,-416.5"/>
<text text-anchor="start" x="363.5" y="-404.5" font-family="Helvetica,sans-Serif" font-size="10.00">RayTracer::Camera::</text>
<text text-anchor="middle" x="413" y="-393.5" font-family="Helvetica,sans-Serif" font-size="10.00">Camera</text>
</a>
</g>
</g>
<!-- Node12&#45;&gt;Node13 -->
<g id="edge13_Node000012_Node000013" class="edge">
<title>Node12&#45;&gt;Node13</title>
<g id="a_edge13_Node000012_Node000013"><a xlink:title=" ">
<path fill="none" stroke="#63b8ff" d="M519.68,-404.3C503.17,-403.87 486.17,-403.41 470.77,-403.01"/>
<polygon fill="#63b8ff" stroke="#63b8ff" points="519.8,-407.81 529.89,-404.57 519.99,-400.81 519.8,-407.81"/>
</a>
</g>
</g>
<!-- Node14 -->
<g id="Node000014" class="node">
<title>Node14</title>
<g id="a_Node000014"><a xlink:href="classRayTracer_1_1Camera.html#adebcfa0c259280f3d4bcf037fa2192b8" target="_top" xlink:title="Construct a camera from a 4x4 affine transform matrix.">
<polygon fill="white" stroke="#666666" points="470.5,-368.5 355.5,-368.5 355.5,-338.5 470.5,-338.5 470.5,-368.5"/>
<text text-anchor="start" x="363.5" y="-356.5" font-family="Helvetica,sans-Serif" font-size="10.00">RayTracer::Camera::</text>
<text text-anchor="middle" x="413" y="-345.5" font-family="Helvetica,sans-Serif" font-size="10.00">Camera</text>
</a>
</g>
</g>
<!-- Node12&#45;&gt;Node14 -->
<g id="edge14_Node000012_Node000014" class="edge">
<title>Node12&#45;&gt;Node14</title>
<g id="a_edge14_Node000012_Node000014"><a xlink:title=" ">
<path fill="none" stroke="#63b8ff" d="M539.23,-388.71C516,-382.18 489.95,-374.85 467.65,-368.58"/>
<polygon fill="#63b8ff" stroke="#63b8ff" points="538.41,-392.12 548.99,-391.45 540.31,-385.38 538.41,-392.12"/>
</a>
</g>
</g>
<!-- Node15&#45;&gt;Node15 -->
<g id="edge16_Node000015_Node000015" class="edge">
<title>Node15&#45;&gt;Node15</title>
<g id="a_edge16_Node000015_Node000015"><a xlink:title=" ">
<path fill="none" stroke="#63b8ff" d="M445.56,-313.1C441.11,-317.47 430.26,-320.5 413,-320.5 383.94,-320.5 373.04,-311.91 380.3,-302.78"/>
<polygon fill="#63b8ff" stroke="#63b8ff" points="449.06,-312.82 445.7,-302.78 442.06,-312.73 449.06,-312.82"/>
</a>
</g>
</g>
<!-- Node16 -->
<g id="Node000016" class="node">
<title>Node16</title>
<g id="a_Node000016"><a xlink:href="classRayTracer_1_1Camera.html#a32d328268bd310d35df62adcef914187" target="_top" xlink:title="Render the scene into a 2D framebuffer.">
<polygon fill="white" stroke="#666666" points="284,-278.5 169,-278.5 169,-248.5 284,-248.5 284,-278.5"/>
<text text-anchor="start" x="177" y="-266.5" font-family="Helvetica,sans-Serif" font-size="10.00">RayTracer::Camera::</text>
<text text-anchor="middle" x="226.5" y="-255.5" font-family="Helvetica,sans-Serif" font-size="10.00">render</text>
</a>
</g>
</g>
<!-- Node15&#45;&gt;Node16 -->
<g id="edge17_Node000015_Node000016" class="edge">
<title>Node15&#45;&gt;Node16</title>
<g id="a_edge17_Node000015_Node000016"><a xlink:title=" ">
<path fill="none" stroke="#63b8ff" d="M345.37,-278.83C325.26,-276.22 303.39,-273.37 284,-270.85"/>
<polygon fill="#63b8ff" stroke="#63b8ff" points="345.02,-282.32 355.39,-280.14 345.93,-275.38 345.02,-282.32"/>
</a>
</g>
</g>
<!-- Node17&#45;&gt;Node8 -->
<g id="edge19_Node000017_Node000008" class="edge">
<title>Node17&#45;&gt;Node8</title>
<g id="a_edge19_Node000017_Node000008"><a xlink:title=" ">
<path fill="none" stroke="#63b8ff" d="M144.56,-560.82C136.02,-561.8 127.44,-562.79 119.22,-563.74"/>
<polygon fill="#63b8ff" stroke="#63b8ff" points="145.03,-564.29 154.57,-559.67 144.23,-557.33 145.03,-564.29"/>
</a>
</g>
</g>
<!-- Node22 -->
<g id="Node000022" class="node">
<title>Node22</title>
<g id="a_Node000022"><a xlink:href="classRayTracer_1_1BVHCam.html#a26338649c825eb2ded1c9e4c9e889452" target="_top" xlink:title="Render the scene into a 2D framebuffer.">
<polygon fill="white" stroke="#666666" points="286.5,-206.5 166.5,-206.5 166.5,-176.5 286.5,-176.5 286.5,-206.5"/>
<text text-anchor="start" x="174.5" y="-194.5" font-family="Helvetica,sans-Serif" font-size="10.00">RayTracer::BVHCam::</text>
<text text-anchor="middle" x="226.5" y="-183.5" font-family="Helvetica,sans-Serif" font-size="10.00">render</text>
</a>
</g>
</g>
<!-- Node21&#45;&gt;Node22 -->
<g id="edge24_Node000021_Node000022" class="edge">
<title>Node21&#45;&gt;Node22</title>
<g id="a_edge24_Node000021_Node000022"><a xlink:title=" ">
<path fill="none" stroke="#63b8ff" d="M342.75,-191.5C324.28,-191.5 304.49,-191.5 286.62,-191.5"/>
<polygon fill="#63b8ff" stroke="#63b8ff" points="342.86,-195 352.86,-191.5 342.86,-188 342.86,-195"/>
</a>
</g>
</g>
<!-- Node23&#45;&gt;Node16 -->
<g id="edge26_Node000023_Node000016" class="edge">
<title>Node23&#45;&gt;Node16</title>
<g id="a_edge26_Node000023_Node000016"><a xlink:title=" ">
<path fill="none" stroke="#63b8ff" d="M345.37,-248.17C325.26,-250.78 303.39,-253.63 284,-256.15"/>
<polygon fill="#63b8ff" stroke="#63b8ff" points="345.93,-251.62 355.39,-246.86 345.02,-244.68 345.93,-251.62"/>
</a>
</g>
</g>
<!-- Node25&#45;&gt;Node21 -->
<g id="edge29_Node000025_Node000021" class="edge">
<title>Node25&#45;&gt;Node21</title>
<g id="a_edge29_Node000025_Node000021"><a xlink:title=" ">
<path fill="none" stroke="#63b8ff" d="M526.79,-217.23C508.98,-213.17 490.25,-208.89 473.28,-205.02"/>
<polygon fill="#63b8ff" stroke="#63b8ff" points="526.04,-220.65 536.57,-219.46 527.6,-213.82 526.04,-220.65"/>
</a>
</g>
</g>
<!-- Node25&#45;&gt;Node23 -->
<g id="edge30_Node000025_Node000023" class="edge">
<title>Node25&#45;&gt;Node23</title>
<g id="a_edge30_Node000025_Node000023"><a xlink:title=" ">
<path fill="none" stroke="#63b8ff" d="M517.59,-236.75C501.64,-237.18 485.33,-237.61 470.52,-238"/>
<polygon fill="#63b8ff" stroke="#63b8ff" points="518.1,-240.24 528,-236.48 517.91,-233.24 518.1,-240.24"/>
</a>
</g>
</g>
<!-- Node26&#45;&gt;Node4 -->
<g id="edge33_Node000026_Node000004" class="edge">
<title>Node26&#45;&gt;Node4</title>
<g id="a_edge33_Node000026_Node000004"><a xlink:title=" ">
<path fill="none" stroke="#63b8ff" d="M535.72,-810.27C517,-810.77 496.68,-811.31 478.12,-811.8"/>
<polygon fill="#63b8ff" stroke="#63b8ff" points="536.04,-813.76 545.94,-810 535.85,-806.77 536.04,-813.76"/>
</a>
</g>
</g>
<!-- Node27 -->
<g id="Node000027" class="node">
<title>Node27</title>
<g id="a_Node000027"><a xlink:href="classRayTracer_1_1Sphere.html#a873777f6a7ae521b8e940f7b94c80fd8" target="_top" xlink:title="Get the primitive&#39;s axis&#45;aligned bounds, if any. Unbounded primitives may return std::nullopt.">
<polygon fill="white" stroke="#666666" points="468,-871.5 358,-871.5 358,-841.5 468,-841.5 468,-871.5"/>
<text text-anchor="start" x="366" y="-859.5" font-family="Helvetica,sans-Serif" font-size="10.00">RayTracer::Sphere::</text>
<text text-anchor="middle" x="413" y="-848.5" font-family="Helvetica,sans-Serif" font-size="10.00">getBounds</text>
</a>
</g>
</g>
<!-- Node26&#45;&gt;Node27 -->
<g id="edge32_Node000026_Node000027" class="edge">
<title>Node26&#45;&gt;Node27</title>
<g id="a_edge32_Node000026_Node000027"><a xlink:title=" ">
<path fill="none" stroke="#63b8ff" d="M536.24,-825.37C513.99,-831.04 489.46,-837.28 468.25,-842.69"/>
<polygon fill="#63b8ff" stroke="#63b8ff" points="537.12,-828.76 545.94,-822.9 535.39,-821.98 537.12,-828.76"/>
</a>
</g>
</g>
<!-- Node28&#45;&gt;Node27 -->
<g id="edge35_Node000028_Node000027" class="edge">
<title>Node28&#45;&gt;Node27</title>
<g id="a_edge35_Node000028_Node000027"><a xlink:title=" ">
<path fill="none" stroke="#63b8ff" d="M535.94,-856.5C513.77,-856.5 489.37,-856.5 468.25,-856.5"/>
<polygon fill="#63b8ff" stroke="#63b8ff" points="535.94,-860 545.94,-856.5 535.94,-853 535.94,-860"/>
</a>
</g>
</g>
<!-- Node29&#45;&gt;Node21 -->
<g id="edge37_Node000029_Node000021" class="edge">
<title>Node29&#45;&gt;Node21</title>
<g id="a_edge37_Node000029_Node000021"><a xlink:title=" ">
<path fill="none" stroke="#63b8ff" d="M535.44,-263.01C532.87,-261.6 530.38,-260.1 528,-258.5 507.33,-244.58 512.76,-229.29 492,-215.5 486.22,-211.66 479.79,-208.41 473.18,-205.67"/>
<polygon fill="#63b8ff" stroke="#63b8ff" points="533.91,-266.16 544.43,-267.43 537,-259.87 533.91,-266.16"/>
</a>
</g>
</g>
<!-- Node29&#45;&gt;Node23 -->
<g id="edge38_Node000029_Node000023" class="edge">
<title>Node29&#45;&gt;Node23</title>
<g id="a_edge38_Node000029_Node000023"><a xlink:title=" ">
<path fill="none" stroke="#63b8ff" d="M526.84,-265.24C508.09,-260.96 488.32,-256.45 470.65,-252.42"/>
<polygon fill="#63b8ff" stroke="#63b8ff" points="526.31,-268.71 536.84,-267.52 527.87,-261.88 526.31,-268.71"/>
</a>
</g>
</g>
<!-- Node30&#45;&gt;Node7 -->
<g id="edge42_Node000030_Node000007" class="edge">
<title>Node30&#45;&gt;Node7</title>
<g id="a_edge42_Node000030_Node000007"><a xlink:title=" ">
<path fill="none" stroke="#63b8ff" d="M557.48,-633.46C503.77,-645.91 411.5,-661.52 334,-645.5 300.27,-638.53 264.08,-620.35 243.77,-609.04"/>
<polygon fill="#63b8ff" stroke="#63b8ff" points="558.45,-636.82 567.37,-631.1 556.83,-630.01 558.45,-636.82"/>
</a>
</g>
</g>
<!-- Node31 -->
<g id="Node000031" class="node">
<title>Node31</title>
<g id="a_Node000031"><a xlink:href="classRayTracer_1_1BVH.html#ae7a593c0ee607404fdc95024f8a17fab" target="_top" xlink:title=" ">
<polygon fill="white" stroke="#666666" points="492,-636.5 334,-636.5 334,-606.5 492,-606.5 492,-636.5"/>
<text text-anchor="start" x="342" y="-624.5" font-family="Helvetica,sans-Serif" font-size="10.00">RayTracer::BVH::boundsFrom</text>
<text text-anchor="middle" x="413" y="-613.5" font-family="Helvetica,sans-Serif" font-size="10.00">Records</text>
</a>
</g>
</g>
<!-- Node30&#45;&gt;Node31 -->
<g id="edge40_Node000030_Node000031" class="edge">
<title>Node30&#45;&gt;Node31</title>
<g id="a_edge40_Node000030_Node000031"><a xlink:title=" ">
<path fill="none" stroke="#63b8ff" d="M529.34,-621.5C517.12,-621.5 504.4,-621.5 492.06,-621.5"/>
<polygon fill="#63b8ff" stroke="#63b8ff" points="529.47,-625 539.47,-621.5 529.47,-618 529.47,-625"/>
</a>
</g>
</g>
<!-- Node31&#45;&gt;Node7 -->
<g id="edge41_Node000031_Node000007" class="edge">
<title>Node31&#45;&gt;Node7</title>
<g id="a_edge41_Node000031_Node000007"><a xlink:title=" ">
<path fill="none" stroke="#63b8ff" d="M323.58,-610.96C311.42,-609.51 299.16,-608.05 287.67,-606.67"/>
<polygon fill="#63b8ff" stroke="#63b8ff" points="323.41,-614.46 333.76,-612.17 324.24,-607.51 323.41,-614.46"/>
</a>
</g>
</g>
</g>
</svg>
