<?xml version="1.0" encoding="UTF-8" standalone="no"?>
<!DOCTYPE svg PUBLIC "-//W3C//DTD SVG 1.1//EN"
 "http://www.w3.org/Graphics/SVG/1.1/DTD/svg11.dtd">
<!-- Generated by graphviz version 2.43.0 (0)
 -->
<!-- Title: PluginManager::PluginManager Pages: 1 -->
<svg width="683pt" height="27pt"
 viewBox="0.00 0.00 683.00 27.00" xmlns="http://www.w3.org/2000/svg" xmlns:xlink="http://www.w3.org/1999/xlink">
<g id="graph0" class="graph" transform="scale(1 1) rotate(0) translate(4 23)">
<title>PluginManager::PluginManager</title>
<!-- Node1 -->
<g id="Node000001" class="node">
<title>Node1</title>
<g id="a_Node000001"><a xlink:title="Constructor that loads plugins from the default directory;.">
<polygon fill="#999999" stroke="#666666" points="168,-19 0,-19 0,0 168,0 168,-19"/>
<text text-anchor="middle" x="84" y="-7" font-family="Helvetica,sans-Serif" font-size="10.00">PluginManager::PluginManager</text>
</a>
</g>
</g>
<!-- Node2 -->
<g id="Node000002" class="node">
<title>Node2</title>
<g id="a_Node000002"><a xlink:href="classPluginManager.html#a685e9abd87edf1e34fd8a29258cf19e0" target="_top" xlink:title="Loads all plugins within the directory.">
<polygon fill="white" stroke="#666666" points="356,-19 204,-19 204,0 356,0 356,-19"/>
<text text-anchor="middle" x="280" y="-7" font-family="Helvetica,sans-Serif" font-size="10.00">PluginManager::loadPlugins</text>
</a>
</g>
</g>
<!-- Node1&#45;&gt;Node2 -->
<g id="edge1_Node000001_Node000002" class="edge">
<title>Node1&#45;&gt;Node2</title>
<g id="a_edge1_Node000001_Node000002"><a xlink:title=" ">
<path fill="none" stroke="#63b8ff" d="M168.12,-9.5C176.53,-9.5 185.08,-9.5 193.51,-9.5"/>
<polygon fill="#63b8ff" stroke="#63b8ff" points="193.72,-13 203.72,-9.5 193.72,-6 193.72,-13"/>
</a>
</g>
</g>
<!-- Node3 -->
<g id="Node000003" class="node">
<title>Node3</title>
<g id="a_Node000003"><a xlink:href="classPluginManager.html#a8e407ffe215f71a33f06c4fbb3927445" target="_top" xlink:title="Load a plugin from a shared library file.">
<polygon fill="white" stroke="#666666" points="538,-19 392,-19 392,0 538,0 538,-19"/>
<text text-anchor="middle" x="465" y="-7" font-family="Helvetica,sans-Serif" font-size="10.00">PluginManager::loadPlugin</text>
</a>
</g>
</g>
<!-- Node2&#45;&gt;Node3 -->
<g id="edge2_Node000002_Node000003" class="edge">
<title>Node2&#45;&gt;Node3</title>
<g id="a_edge2_Node000002_Node000003"><a xlink:title=" ">
<path fill="none" stroke="#63b8ff" d="M356.23,-9.5C364.57,-9.5 373.09,-9.5 381.52,-9.5"/>
<polygon fill="#63b8ff" stroke="#63b8ff" points="381.72,-13 391.72,-9.5 381.72,-6 381.72,-13"/>
</a>
</g>
</g>
<!-- Node4 -->
<g id="Node000004" class="node">
<title>Node4</title>
<g id="a_Node000004"><a xlink:href="classIPlugin.html#a58f4b80e2e486068559ef774c612b8e6" target="_top" xlink:title="Get the name of the plugin.">
<polygon fill="white" stroke="#666666" points="675,-19 574,-19 574,0 675,0 675,-19"/>
<text text-anchor="middle" x="624.5" y="-7" font-family="Helvetica,sans-Serif" font-size="10.00">IPlugin::getName</text>
</a>
</g>
</g>
<!-- Node3&#45;&gt;Node4 -->
<g id="edge3_Node000003_Node000004" class="edge">
<title>Node3&#45;&gt;Node4</title>
<g id="a_edge3_Node000003_Node000004"><a xlink:title=" ">
<path fill="none" stroke="#63b8ff" d="M538.3,-9.5C546.71,-9.5 555.23,-9.5 563.45,-9.5"/>
<polygon fill="#63b8ff" stroke="#63b8ff" points="563.69,-13 573.69,-9.5 563.69,-6 563.69,-13"/>
</a>
</g>
</g>
</g>
</svg>
