<?xml version="1.0" encoding="UTF-8" standalone="no"?>
<!DOCTYPE svg PUBLIC "-//W3C//DTD SVG 1.1//EN"
 "http://www.w3.org/Graphics/SVG/1.1/DTD/svg11.dtd">
<!-- Generated by graphviz version 2.43.0 (0)
 -->
<!-- Title: RayTracer::DirectionalLight::computeLight Pages: 1 -->
<svg width="505pt" height="264pt"
 viewBox="0.00 0.00 505.00 263.88" xmlns="http://www.w3.org/2000/svg" xmlns:xlink="http://www.w3.org/1999/xlink">
<g id="graph0" class="graph" transform="scale(1 1) rotate(0) translate(4 259.88)">
<title>RayTracer::DirectionalLight::computeLight</title>
<!-- Node1 -->
<g id="Node000001" class="node">
<title>Node1</title>
<g id="a_Node000001"><a xlink:title="Compute light contribution, shadow ray cast in opposite direction.">
<polygon fill="#999999" stroke="#666666" points="148,-141.5 0,-141.5 0,-111.5 148,-111.5 148,-141.5"/>
<text text-anchor="start" x="8" y="-129.5" font-family="Helvetica,sans-Serif" font-size="10.00">RayTracer::DirectionalLight</text>
<text text-anchor="middle" x="74" y="-118.5" font-family="Helvetica,sans-Serif" font-size="10.00">::computeLight</text>
</a>
</g>
</g>
<!-- Node2 -->
<g id="Node000002" class="node">
<title>Node2</title>
<g id="a_Node000002"><a xlink:href="structRayTracer_1_1Color.html#a01b4a4dad8204eed80f8d38d3d004e4d" target="_top" xlink:title=" ">
<polygon fill="white" stroke="#666666" points="497,-142 369,-142 369,-123 497,-123 497,-142"/>
<text text-anchor="middle" x="433" y="-130" font-family="Helvetica,sans-Serif" font-size="10.00">RayTracer::Color::Color</text>
</a>
</g>
</g>
<!-- Node1&#45;&gt;Node2 -->
<g id="edge1_Node000001_Node000002" class="edge">
<title>Node1&#45;&gt;Node2</title>
<g id="a_edge1_Node000001_Node000002"><a xlink:title=" ">
<path fill="none" stroke="#63b8ff" d="M84.11,-141.54C100.43,-166.84 137.35,-217.05 184,-236.5 245.12,-261.98 272.14,-262.59 333,-236.5 373.66,-219.07 405.52,-175.84 421.24,-150.94"/>
<polygon fill="#63b8ff" stroke="#63b8ff" points="424.41,-152.46 426.63,-142.1 418.44,-148.82 424.41,-152.46"/>
</a>
</g>
</g>
<!-- Node3 -->
<g id="Node000003" class="node">
<title>Node3</title>
<g id="a_Node000003"><a xlink:href="classGeometry_1_1Point3D.html#a6a08342f9542eb6d6ff7bcf2278a240d" target="_top" xlink:title=" ">
<polygon fill="white" stroke="#666666" points="316,-227.5 201,-227.5 201,-197.5 316,-197.5 316,-227.5"/>
<text text-anchor="start" x="209" y="-215.5" font-family="Helvetica,sans-Serif" font-size="10.00">Geometry::Point3D::</text>
<text text-anchor="middle" x="258.5" y="-204.5" font-family="Helvetica,sans-Serif" font-size="10.00">Point3D</text>
</a>
</g>
</g>
<!-- Node1&#45;&gt;Node3 -->
<g id="edge2_Node000001_Node000003" class="edge">
<title>Node1&#45;&gt;Node3</title>
<g id="a_edge2_Node000001_Node000003"><a xlink:title=" ">
<path fill="none" stroke="#63b8ff" d="M98.52,-141.73C120.12,-155.26 153.34,-174.94 184,-188.5 188.3,-190.4 192.8,-192.23 197.36,-193.98"/>
<polygon fill="#63b8ff" stroke="#63b8ff" points="196.19,-197.27 206.78,-197.43 198.6,-190.7 196.19,-197.27"/>
</a>
</g>
</g>
<!-- Node4 -->
<g id="Node000004" class="node">
<title>Node4</title>
<g id="a_Node000004"><a xlink:href="classGeometry_1_1Ray.html#a009af874883eaeca399a3c5c144df2fc" target="_top" xlink:title="Constructor.">
<polygon fill="white" stroke="#666666" points="315,-179 202,-179 202,-160 315,-160 315,-179"/>
<text text-anchor="middle" x="258.5" y="-167" font-family="Helvetica,sans-Serif" font-size="10.00">Geometry::Ray::Ray</text>
</a>
</g>
</g>
<!-- Node1&#45;&gt;Node4 -->
<g id="edge3_Node000001_Node000004" class="edge">
<title>Node1&#45;&gt;Node4</title>
<g id="a_edge3_Node000001_Node000004"><a xlink:title=" ">
<path fill="none" stroke="#63b8ff" d="M138.83,-141.54C161.28,-146.83 186.17,-152.69 207.34,-157.68"/>
<polygon fill="#63b8ff" stroke="#63b8ff" points="206.55,-161.09 217.09,-159.98 208.16,-154.28 206.55,-161.09"/>
</a>
</g>
</g>
<!-- Node5 -->
<g id="Node000005" class="node">
<title>Node5</title>
<g id="a_Node000005"><a xlink:href="classGeometry_1_1Vector3D.html#ae4c5a52ebf282e334801c8ee28ad8d5d" target="_top" xlink:title=" ">
<polygon fill="white" stroke="#666666" points="316,-141.5 201,-141.5 201,-111.5 316,-111.5 316,-141.5"/>
<text text-anchor="start" x="209" y="-129.5" font-family="Helvetica,sans-Serif" font-size="10.00">Geometry::Vector3D</text>
<text text-anchor="middle" x="258.5" y="-118.5" font-family="Helvetica,sans-Serif" font-size="10.00">::Vector3D</text>
</a>
</g>
</g>
<!-- Node1&#45;&gt;Node5 -->
<g id="edge4_Node000001_Node000005" class="edge">
<title>Node1&#45;&gt;Node5</title>
<g id="a_edge4_Node000001_Node000005"><a xlink:title=" ">
<path fill="none" stroke="#63b8ff" d="M148.18,-126.5C162.17,-126.5 176.74,-126.5 190.52,-126.5"/>
<polygon fill="#63b8ff" stroke="#63b8ff" points="190.88,-130 200.88,-126.5 190.88,-123 190.88,-130"/>
</a>
</g>
</g>
<!-- Node6 -->
<g id="Node000006" class="node">
<title>Node6</title>
<g id="a_Node000006"><a xlink:href="classGeometry_1_1Vector3D.html#affb9009fe58aafa334f1f5f703feceb3" target="_top" xlink:title=" ">
<polygon fill="white" stroke="#666666" points="327,-93 190,-93 190,-74 327,-74 327,-93"/>
<text text-anchor="middle" x="258.5" y="-81" font-family="Helvetica,sans-Serif" font-size="10.00">Geometry::Vector3D::dot</text>
</a>
</g>
</g>
<!-- Node1&#45;&gt;Node6 -->
<g id="edge5_Node000001_Node000006" class="edge">
<title>Node1&#45;&gt;Node6</title>
<g id="a_edge5_Node000001_Node000006"><a xlink:title=" ">
<path fill="none" stroke="#63b8ff" d="M138.83,-111.46C161.28,-106.17 186.17,-100.31 207.34,-95.32"/>
<polygon fill="#63b8ff" stroke="#63b8ff" points="208.16,-98.72 217.09,-93.02 206.55,-91.91 208.16,-98.72"/>
</a>
</g>
</g>
<!-- Node7 -->
<g id="Node000007" class="node">
<title>Node7</title>
<g id="a_Node000007"><a xlink:href="classRayTracer_1_1APrimitive.html#af00a66a6a6b8d251f5d21e1cc5077c6b" target="_top" xlink:title="Test ray intersection with this primitive.">
<polygon fill="white" stroke="#666666" points="328.5,-56 188.5,-56 188.5,-37 328.5,-37 328.5,-56"/>
<text text-anchor="middle" x="258.5" y="-44" font-family="Helvetica,sans-Serif" font-size="10.00">RayTracer::APrimitive::hit</text>
</a>
</g>
</g>
<!-- Node1&#45;&gt;Node7 -->
<g id="edge6_Node000001_Node000007" class="edge">
<title>Node1&#45;&gt;Node7</title>
<g id="a_edge6_Node000001_Node000007"><a xlink:title=" ">
<path fill="none" stroke="#63b8ff" d="M97.94,-111.35C119.43,-97.74 152.81,-78.02 184,-65.5 190.16,-63.03 196.75,-60.79 203.35,-58.8"/>
<polygon fill="#63b8ff" stroke="#63b8ff" points="204.33,-62.15 212.99,-56.04 202.41,-55.42 204.33,-62.15"/>
</a>
</g>
</g>
<!-- Node8 -->
<g id="Node000008" class="node">
<title>Node8</title>
<g id="a_Node000008"><a xlink:href="structRayTracer_1_1Color.html#aefc65f4c5ffc2e9bca0a35e4e55d68b8" target="_top" xlink:title=" ">
<polygon fill="white" stroke="#666666" points="333,-19 184,-19 184,0 333,0 333,-19"/>
<text text-anchor="middle" x="258.5" y="-7" font-family="Helvetica,sans-Serif" font-size="10.00">RayTracer::Color::operator*</text>
</a>
</g>
</g>
<!-- Node1&#45;&gt;Node8 -->
<g id="edge7_Node000001_Node000008" class="edge">
<title>Node1&#45;&gt;Node8</title>
<g id="a_edge7_Node000001_Node000008"><a xlink:title=" ">
<path fill="none" stroke="#63b8ff" d="M87.45,-111.44C106.15,-89.81 143.64,-50.16 184,-28.5 188.27,-26.21 192.84,-24.18 197.52,-22.39"/>
<polygon fill="#63b8ff" stroke="#63b8ff" points="198.93,-25.6 207.25,-19.04 196.65,-18.99 198.93,-25.6"/>
</a>
</g>
</g>
<!-- Node8&#45;&gt;Node2 -->
<g id="edge8_Node000008_Node000002" class="edge">
<title>Node8&#45;&gt;Node2</title>
<g id="a_edge8_Node000008_Node000002"><a xlink:title=" ">
<path fill="none" stroke="#63b8ff" d="M311.57,-19.06C319.03,-21.53 326.41,-24.63 333,-28.5 370.56,-50.58 402.99,-91 419.77,-114.41"/>
<polygon fill="#63b8ff" stroke="#63b8ff" points="417.01,-116.57 425.61,-122.76 422.75,-112.56 417.01,-116.57"/>
</a>
</g>
</g>
</g>
</svg>
