<?xml version="1.0" encoding="UTF-8" standalone="no"?>
<!DOCTYPE svg PUBLIC "-//W3C//DTD SVG 1.1//EN"
 "http://www.w3.org/Graphics/SVG/1.1/DTD/svg11.dtd">
<!-- Generated by graphviz version 2.43.0 (0)
 -->
<!-- Title: RayTracer::ARenderer Pages: 1 -->
<svg width="346pt" height="382pt"
 viewBox="0.00 0.00 346.00 382.00" xmlns="http://www.w3.org/2000/svg" xmlns:xlink="http://www.w3.org/1999/xlink">

<svg id="main" version="1.1" xmlns="http://www.w3.org/2000/svg" xmlns:xlink="http://www.w3.org/1999/xlink" xml:space="preserve" onload="init(evt)">
<style type="text/css"><![CDATA[
.node, .edge {opacity: 0.7;}
.node.selected, .edge.selected {opacity: 1;}
.edge:hover path { stroke: red; }
.edge:hover polygon { stroke: red; fill: red; }
]]></style>
<script type="application/ecmascript" xlink:href="svg.min.js"/>
<svg id="graph" class="graph">
<g id="graph0" class="graph" transform="scale(1 1) rotate(0) translate(4 378)">
<title>RayTracer::ARenderer</title>
<!-- Node1 -->
<g id="Node000001" class="node">
<title>Node1</title>
<g id="a_Node000001"><a xlink:title="Abstract base class for all renderers. Defines the interface for rendering a scene and producing a fr...">
<polygon fill="#999999" stroke="transparent" points="227,-374 111,-374 111,-235 227,-235 227,-374"/>
<text text-anchor="start" x="116" y="-361.5" font-family="Helvetica,sans-Serif" font-size="10.00">RayTracer::ARenderer</text>
<text text-anchor="start" x="122" y="-346.5" font-family="Helvetica,sans-Serif" font-size="10.00">#</text>
<text text-anchor="start" x="142" y="-346.5" font-family="Helvetica,sans-Serif" font-size="10.00">_width</text>
<text text-anchor="start" x="122" y="-331.5" font-family="Helvetica,sans-Serif" font-size="10.00">#</text>
<text text-anchor="start" x="142" y="-331.5" font-family="Helvetica,sans-Serif" font-size="10.00">_height</text>
<text text-anchor="start" x="122" y="-316.5" font-family="Helvetica,sans-Serif" font-size="10.00">+</text>
<text text-anchor="start" x="142" y="-316.5" font-family="Helvetica,sans-Serif" font-size="10.00">ARenderer()</text>
<text text-anchor="start" x="122" y="-301.5" font-family="Helvetica,sans-Serif" font-size="10.00">+</text>
<text text-anchor="start" x="142" y="-301.5" font-family="Helvetica,sans-Serif" font-size="10.00">~ARenderer()</text>
<text text-anchor="start" x="122" y="-286.5" font-family="Helvetica,sans-Serif" font-size="10.00">+</text>
<text text-anchor="start" x="142" y="-286.5" font-family="Helvetica,sans-Serif" font-size="10.00">render()</text>
<text text-anchor="start" x="122" y="-271.5" font-family="Helvetica,sans-Serif" font-size="10.00">+</text>
<text text-anchor="start" x="142" y="-271.5" font-family="Helvetica,sans-Serif" font-size="10.00">render()</text>
<text text-anchor="start" x="122" y="-256.5" font-family="Helvetica,sans-Serif" font-size="10.00">+</text>
<text text-anchor="start" x="142" y="-256.5" font-family="Helvetica,sans-Serif" font-size="10.00">getWidth()</text>
<text text-anchor="start" x="122" y="-241.5" font-family="Helvetica,sans-Serif" font-size="10.00">+</text>
<text text-anchor="start" x="142" y="-241.5" font-family="Helvetica,sans-Serif" font-size="10.00">getHeight()</text>
<polygon fill="#666666" stroke="#666666" points="111,-356.5 111,-356.5 227,-356.5 227,-356.5 111,-356.5"/>
<polygon fill="#666666" stroke="#666666" points="111,-326.5 111,-326.5 140,-326.5 140,-326.5 111,-326.5"/>
<polygon fill="#666666" stroke="#666666" points="140,-326.5 140,-326.5 227,-326.5 227,-326.5 140,-326.5"/>
<polygon fill="none" stroke="#666666" points="111,-235 111,-374 227,-374 227,-235 111,-235"/>
</a>
</g>
</g>
<!-- Node2 -->
<g id="Node000002" class="node">
<title>Node2</title>
<g id="a_Node000002"><a xlink:href="classRayTracer_1_1BVHCam.html" target="_top" xlink:title="Renderer that evaluates the rendering equation deterministically.">
<polygon fill="white" stroke="transparent" points="160,-184 0,-184 0,-15 160,-15 160,-184"/>
<text text-anchor="start" x="31" y="-171.5" font-family="Helvetica,sans-Serif" font-size="10.00">RayTracer::BVHCam</text>
<text text-anchor="start" x="6.5" y="-156.5" font-family="Helvetica,sans-Serif" font-size="10.00">&#45;</text>
<text text-anchor="start" x="17" y="-156.5" font-family="Helvetica,sans-Serif" font-size="10.00">_transform</text>
<text text-anchor="start" x="6.5" y="-141.5" font-family="Helvetica,sans-Serif" font-size="10.00">&#45;</text>
<text text-anchor="start" x="17" y="-141.5" font-family="Helvetica,sans-Serif" font-size="10.00">_screen</text>
<text text-anchor="start" x="6.5" y="-126.5" font-family="Helvetica,sans-Serif" font-size="10.00">&#45;</text>
<text text-anchor="start" x="17" y="-126.5" font-family="Helvetica,sans-Serif" font-size="10.00">_fov</text>
<text text-anchor="start" x="6.5" y="-111.5" font-family="Helvetica,sans-Serif" font-size="10.00">&#45;</text>
<text text-anchor="start" x="17" y="-111.5" font-family="Helvetica,sans-Serif" font-size="10.00">_sqrtSamples</text>
<text text-anchor="start" x="4" y="-96.5" font-family="Helvetica,sans-Serif" font-size="10.00">+</text>
<text text-anchor="start" x="17" y="-96.5" font-family="Helvetica,sans-Serif" font-size="10.00">BVHCam()</text>
<text text-anchor="start" x="4" y="-81.5" font-family="Helvetica,sans-Serif" font-size="10.00">+</text>
<text text-anchor="start" x="17" y="-81.5" font-family="Helvetica,sans-Serif" font-size="10.00">BVHCam()</text>
<text text-anchor="start" x="4" y="-66.5" font-family="Helvetica,sans-Serif" font-size="10.00">+</text>
<text text-anchor="start" x="17" y="-66.5" font-family="Helvetica,sans-Serif" font-size="10.00">~BVHCam()</text>
<text text-anchor="start" x="4" y="-51.5" font-family="Helvetica,sans-Serif" font-size="10.00">+</text>
<text text-anchor="start" x="17" y="-51.5" font-family="Helvetica,sans-Serif" font-size="10.00">generateRay()</text>
<text text-anchor="start" x="4" y="-36.5" font-family="Helvetica,sans-Serif" font-size="10.00">+</text>
<text text-anchor="start" x="17" y="-36.5" font-family="Helvetica,sans-Serif" font-size="10.00">render()</text>
<text text-anchor="start" x="6.5" y="-21.5" font-family="Helvetica,sans-Serif" font-size="10.00">&#45;</text>
<text text-anchor="start" x="17" y="-21.5" font-family="Helvetica,sans-Serif" font-size="10.00">buildScreenFromTransform()</text>
<polygon fill="#666666" stroke="#666666" points="0,-166.5 0,-166.5 160,-166.5 160,-166.5 0,-166.5"/>
<polygon fill="#666666" stroke="#666666" points="0,-106.5 0,-106.5 15,-106.5 15,-106.5 0,-106.5"/>
<polygon fill="#666666" stroke="#666666" points="15,-106.5 15,-106.5 160,-106.5 160,-106.5 15,-106.5"/>
<polygon fill="none" stroke="#666666" points="0,-15 0,-184 160,-184 160,-15 0,-15"/>
</a>
</g>
</g>
<!-- Node1&#45;&gt;Node2 -->
<g id="edge1_Node000001_Node000002" class="edge">
<title>Node1&#45;&gt;Node2</title>
<g id="a_edge1_Node000001_Node000002"><a xlink:title=" ">
<path fill="none" stroke="#63b8ff" d="M134.82,-225.53C128.9,-212.03 122.72,-197.94 116.73,-184.29"/>
<polygon fill="none" stroke="#63b8ff" points="131.65,-227.02 138.87,-234.77 138.06,-224.21 131.65,-227.02"/>
</a>
</g>
</g>
<!-- Node3 -->
<g id="Node000003" class="node">
<title>Node3</title>
<g id="a_Node000003"><a xlink:href="classRayTracer_1_1Camera.html" target="_top" xlink:title="Renderer that evaluates the rendering equation deterministically.">
<polygon fill="white" stroke="transparent" points="338,-199 178,-199 178,0 338,0 338,-199"/>
<text text-anchor="start" x="211.5" y="-186.5" font-family="Helvetica,sans-Serif" font-size="10.00">RayTracer::Camera</text>
<text text-anchor="start" x="184.5" y="-171.5" font-family="Helvetica,sans-Serif" font-size="10.00">&#45;</text>
<text text-anchor="start" x="195" y="-171.5" font-family="Helvetica,sans-Serif" font-size="10.00">_transform</text>
<text text-anchor="start" x="184.5" y="-156.5" font-family="Helvetica,sans-Serif" font-size="10.00">&#45;</text>
<text text-anchor="start" x="195" y="-156.5" font-family="Helvetica,sans-Serif" font-size="10.00">_screen</text>
<text text-anchor="start" x="184.5" y="-141.5" font-family="Helvetica,sans-Serif" font-size="10.00">&#45;</text>
<text text-anchor="start" x="195" y="-141.5" font-family="Helvetica,sans-Serif" font-size="10.00">_fov</text>
<text text-anchor="start" x="184.5" y="-126.5" font-family="Helvetica,sans-Serif" font-size="10.00">&#45;</text>
<text text-anchor="start" x="195" y="-126.5" font-family="Helvetica,sans-Serif" font-size="10.00">_maxDepth</text>
<text text-anchor="start" x="184.5" y="-111.5" font-family="Helvetica,sans-Serif" font-size="10.00">&#45;</text>
<text text-anchor="start" x="195" y="-111.5" font-family="Helvetica,sans-Serif" font-size="10.00">_sqrtSamples</text>
<text text-anchor="start" x="182" y="-96.5" font-family="Helvetica,sans-Serif" font-size="10.00">+</text>
<text text-anchor="start" x="195" y="-96.5" font-family="Helvetica,sans-Serif" font-size="10.00">Camera()</text>
<text text-anchor="start" x="182" y="-81.5" font-family="Helvetica,sans-Serif" font-size="10.00">+</text>
<text text-anchor="start" x="195" y="-81.5" font-family="Helvetica,sans-Serif" font-size="10.00">Camera()</text>
<text text-anchor="start" x="182" y="-66.5" font-family="Helvetica,sans-Serif" font-size="10.00">+</text>
<text text-anchor="start" x="195" y="-66.5" font-family="Helvetica,sans-Serif" font-size="10.00">~Camera()</text>
<text text-anchor="start" x="182" y="-51.5" font-family="Helvetica,sans-Serif" font-size="10.00">+</text>
<text text-anchor="start" x="195" y="-51.5" font-family="Helvetica,sans-Serif" font-size="10.00">generateRay()</text>
<text text-anchor="start" x="182" y="-36.5" font-family="Helvetica,sans-Serif" font-size="10.00">+</text>
<text text-anchor="start" x="195" y="-36.5" font-family="Helvetica,sans-Serif" font-size="10.00">render()</text>
<text text-anchor="start" x="184.5" y="-21.5" font-family="Helvetica,sans-Serif" font-size="10.00">&#45;</text>
<text text-anchor="start" x="195" y="-21.5" font-family="Helvetica,sans-Serif" font-size="10.00">castRay()</text>
<text text-anchor="start" x="184.5" y="-6.5" font-family="Helvetica,sans-Serif" font-size="10.00">&#45;</text>
<text text-anchor="start" x="195" y="-6.5" font-family="Helvetica,sans-Serif" font-size="10.00">buildScreenFromTransform()</text>
<polygon fill="#666666" stroke="#666666" points="178,-181.5 178,-181.5 338,-181.5 338,-181.5 178,-181.5"/>
<polygon fill="#666666" stroke="#666666" points="178,-106.5 178,-106.5 193,-106.5 193,-106.5 178,-106.5"/>
<polygon fill="#666666" stroke="#666666" points="193,-106.5 193,-106.5 338,-106.5 338,-106.5 193,-106.5"/>
<polygon fill="none" stroke="#666666" points="178,0 178,-199 338,-199 338,0 178,0"/>
</a>
</g>
</g>
<!-- Node1&#45;&gt;Node3 -->
<g id="edge2_Node000001_Node000003" class="edge">
<title>Node1&#45;&gt;Node3</title>
<g id="a_edge2_Node000001_Node000003"><a xlink:title=" ">
<path fill="none" stroke="#63b8ff" d="M203.2,-225.49C207,-216.83 210.9,-207.93 214.79,-199.06"/>
<polygon fill="none" stroke="#63b8ff" points="199.94,-224.21 199.13,-234.77 206.35,-227.02 199.94,-224.21"/>
</a>
</g>
</g>
</g>
</svg>
</svg>

<style type='text/css'>
<![CDATA[
[data-mouse-over-selected='false'] { opacity: 0.7; }
[data-mouse-over-selected='true']  { opacity: 1.0; }
]]>
</style>
<script type="application/ecmascript"><![CDATA[
document.addEventListener('DOMContentLoaded', (event) => {
  highlightEdges();
  highlightAdjacentNodes();
});
]]></script>
</svg>
