<?xml version="1.0" encoding="UTF-8" standalone="no"?>
<!DOCTYPE svg PUBLIC "-//W3C//DTD SVG 1.1//EN"
 "http://www.w3.org/Graphics/SVG/1.1/DTD/svg11.dtd">
<!-- Generated by graphviz version 2.43.0 (0)
 -->
<!-- Title: Geometry::Matrix::identity Pages: 1 -->
<svg width="550pt" height="278pt"
 viewBox="0.00 0.00 550.00 278.00" xmlns="http://www.w3.org/2000/svg" xmlns:xlink="http://www.w3.org/1999/xlink">
<g id="graph0" class="graph" transform="scale(1 1) rotate(0) translate(4 274)">
<title>Geometry::Matrix::identity</title>
<!-- Node1 -->
<g id="Node000001" class="node">
<title>Node1</title>
<g id="a_Node000001"><a xlink:title="Create an identity matrix.">
<polygon fill="#999999" stroke="#666666" points="542,-144.5 396,-144.5 396,-125.5 542,-125.5 542,-144.5"/>
<text text-anchor="middle" x="469" y="-132.5" font-family="Helvetica,sans-Serif" font-size="10.00">Geometry::Matrix::identity</text>
</a>
</g>
</g>
<!-- Node2 -->
<g id="Node000002" class="node">
<title>Node2</title>
<g id="a_Node000002"><a xlink:href="classRayTracer_1_1Camera.html#aa88a1643d3067605407808bf3a5c14d4" target="_top" xlink:title="Construct a camera renderer.">
<polygon fill="white" stroke="#666666" points="342,-270 227,-270 227,-240 342,-240 342,-270"/>
<text text-anchor="start" x="235" y="-258" font-family="Helvetica,sans-Serif" font-size="10.00">RayTracer::Camera::</text>
<text text-anchor="middle" x="284.5" y="-247" font-family="Helvetica,sans-Serif" font-size="10.00">Camera</text>
</a>
</g>
</g>
<!-- Node1&#45;&gt;Node2 -->
<g id="edge1_Node000001_Node000002" class="edge">
<title>Node1&#45;&gt;Node2</title>
<g id="a_edge1_Node000001_Node000002"><a xlink:title=" ">
<path fill="none" stroke="#63b8ff" d="M452.9,-152.26C433.4,-173.55 397.5,-209.57 360,-231 354.1,-234.37 347.66,-237.34 341.12,-239.94"/>
<polygon fill="#63b8ff" stroke="#63b8ff" points="455.68,-154.4 459.76,-144.62 450.47,-149.72 455.68,-154.4"/>
</a>
</g>
</g>
<!-- Node3 -->
<g id="Node000003" class="node">
<title>Node3</title>
<g id="a_Node000003"><a xlink:href="classGeometry_1_1TransformMatrix.html#acff8638f8a3e9f4ed6e462c1b39c4083" target="_top" xlink:title=" ">
<polygon fill="white" stroke="#666666" points="360,-222 209,-222 209,-192 360,-192 360,-222"/>
<text text-anchor="start" x="217" y="-210" font-family="Helvetica,sans-Serif" font-size="10.00">Geometry::TransformMatrix</text>
<text text-anchor="middle" x="284.5" y="-199" font-family="Helvetica,sans-Serif" font-size="10.00">::rotationX</text>
</a>
</g>
</g>
<!-- Node1&#45;&gt;Node3 -->
<g id="edge2_Node000001_Node000003" class="edge">
<title>Node1&#45;&gt;Node3</title>
<g id="a_edge2_Node000001_Node000003"><a xlink:title=" ">
<path fill="none" stroke="#63b8ff" d="M438.72,-149.03C417.19,-159.09 387.09,-172.65 360,-183 351.88,-186.1 343.16,-189.16 334.65,-191.99"/>
<polygon fill="#63b8ff" stroke="#63b8ff" points="440.41,-152.1 447.97,-144.68 437.43,-145.77 440.41,-152.1"/>
</a>
</g>
</g>
<!-- Node6 -->
<g id="Node000006" class="node">
<title>Node6</title>
<g id="a_Node000006"><a xlink:href="classGeometry_1_1TransformMatrix.html#a75fbc44956cff1212e332c49862f6b09" target="_top" xlink:title=" ">
<polygon fill="white" stroke="#666666" points="360,-174 209,-174 209,-144 360,-144 360,-174"/>
<text text-anchor="start" x="217" y="-162" font-family="Helvetica,sans-Serif" font-size="10.00">Geometry::TransformMatrix</text>
<text text-anchor="middle" x="284.5" y="-151" font-family="Helvetica,sans-Serif" font-size="10.00">::rotationY</text>
</a>
</g>
</g>
<!-- Node1&#45;&gt;Node6 -->
<g id="edge5_Node000001_Node000006" class="edge">
<title>Node1&#45;&gt;Node6</title>
<g id="a_edge5_Node000001_Node000006"><a xlink:title=" ">
<path fill="none" stroke="#63b8ff" d="M385.86,-145.8C377.28,-146.93 368.59,-148.07 360.1,-149.19"/>
<polygon fill="#63b8ff" stroke="#63b8ff" points="386.41,-149.26 395.87,-144.49 385.5,-142.32 386.41,-149.26"/>
</a>
</g>
</g>
<!-- Node7 -->
<g id="Node000007" class="node">
<title>Node7</title>
<g id="a_Node000007"><a xlink:href="classGeometry_1_1TransformMatrix.html#aea39d6665c49e892c46f10c545622ec5" target="_top" xlink:title=" ">
<polygon fill="white" stroke="#666666" points="360,-126 209,-126 209,-96 360,-96 360,-126"/>
<text text-anchor="start" x="217" y="-114" font-family="Helvetica,sans-Serif" font-size="10.00">Geometry::TransformMatrix</text>
<text text-anchor="middle" x="284.5" y="-103" font-family="Helvetica,sans-Serif" font-size="10.00">::rotationZ</text>
</a>
</g>
</g>
<!-- Node1&#45;&gt;Node7 -->
<g id="edge8_Node000001_Node000007" class="edge">
<title>Node1&#45;&gt;Node7</title>
<g id="a_edge8_Node000001_Node000007"><a xlink:title=" ">
<path fill="none" stroke="#63b8ff" d="M385.86,-124.2C377.28,-123.07 368.59,-121.93 360.1,-120.81"/>
<polygon fill="#63b8ff" stroke="#63b8ff" points="385.5,-127.68 395.87,-125.51 386.41,-120.74 385.5,-127.68"/>
</a>
</g>
</g>
<!-- Node8 -->
<g id="Node000008" class="node">
<title>Node8</title>
<g id="a_Node000008"><a xlink:href="classGeometry_1_1TransformMatrix.html#a5c6d12321bf1dcf7aa84380811b20798" target="_top" xlink:title=" ">
<polygon fill="white" stroke="#666666" points="360,-30 209,-30 209,0 360,0 360,-30"/>
<text text-anchor="start" x="217" y="-18" font-family="Helvetica,sans-Serif" font-size="10.00">Geometry::TransformMatrix</text>
<text text-anchor="middle" x="284.5" y="-7" font-family="Helvetica,sans-Serif" font-size="10.00">::scaling</text>
</a>
</g>
</g>
<!-- Node1&#45;&gt;Node8 -->
<g id="edge11_Node000001_Node000008" class="edge">
<title>Node1&#45;&gt;Node8</title>
<g id="a_edge11_Node000001_Node000008"><a xlink:title=" ">
<path fill="none" stroke="#63b8ff" d="M452.9,-117.74C433.4,-96.45 397.5,-60.43 360,-39 354.1,-35.63 347.66,-32.66 341.12,-30.06"/>
<polygon fill="#63b8ff" stroke="#63b8ff" points="450.47,-120.28 459.76,-125.38 455.68,-115.6 450.47,-120.28"/>
</a>
</g>
</g>
<!-- Node9 -->
<g id="Node000009" class="node">
<title>Node9</title>
<g id="a_Node000009"><a xlink:href="classGeometry_1_1TransformMatrix.html#a02574645df377db5928c2dbaf0bf7315" target="_top" xlink:title=" ">
<polygon fill="white" stroke="#666666" points="360,-78 209,-78 209,-48 360,-48 360,-78"/>
<text text-anchor="start" x="217" y="-66" font-family="Helvetica,sans-Serif" font-size="10.00">Geometry::TransformMatrix</text>
<text text-anchor="middle" x="284.5" y="-55" font-family="Helvetica,sans-Serif" font-size="10.00">::translation</text>
</a>
</g>
</g>
<!-- Node1&#45;&gt;Node9 -->
<g id="edge13_Node000001_Node000009" class="edge">
<title>Node1&#45;&gt;Node9</title>
<g id="a_edge13_Node000001_Node000009"><a xlink:title=" ">
<path fill="none" stroke="#63b8ff" d="M438.72,-120.97C417.19,-110.91 387.09,-97.35 360,-87 351.88,-83.9 343.16,-80.84 334.65,-78.01"/>
<polygon fill="#63b8ff" stroke="#63b8ff" points="437.43,-124.23 447.97,-125.32 440.41,-117.9 437.43,-124.23"/>
</a>
</g>
</g>
<!-- Node4 -->
<g id="Node000004" class="node">
<title>Node4</title>
<g id="a_Node000004"><a xlink:href="namespaceRaytracer.html#a3383e6835a38ae30771c728347d5e556" target="_top" xlink:title=" ">
<polygon fill="white" stroke="#666666" points="173,-171 0,-171 0,-141 173,-141 173,-171"/>
<text text-anchor="start" x="8" y="-159" font-family="Helvetica,sans-Serif" font-size="10.00">Raytracer::fromNode</text>
<text text-anchor="middle" x="86.5" y="-148" font-family="Helvetica,sans-Serif" font-size="10.00">&lt; Geometry::TransformMatrix &gt;</text>
</a>
</g>
</g>
<!-- Node3&#45;&gt;Node4 -->
<g id="edge3_Node000003_Node000004" class="edge">
<title>Node3&#45;&gt;Node4</title>
<g id="a_edge3_Node000003_Node000004"><a xlink:title=" ">
<path fill="none" stroke="#63b8ff" d="M216.04,-189.45C192.97,-183.44 167.4,-176.79 145.17,-171.01"/>
<polygon fill="#63b8ff" stroke="#63b8ff" points="215.19,-192.84 225.75,-191.97 216.96,-186.07 215.19,-192.84"/>
</a>
</g>
</g>
<!-- Node5 -->
<g id="Node000005" class="node">
<title>Node5</title>
<g id="a_Node000005"><a xlink:href="CorePlugin_8cpp.html#a0e14e2166e2799c71d21f343a3d543f3" target="_top" xlink:title=" ">
<polygon fill="white" stroke="#666666" points="128,-120.5 45,-120.5 45,-101.5 128,-101.5 128,-120.5"/>
<text text-anchor="middle" x="86.5" y="-108.5" font-family="Helvetica,sans-Serif" font-size="10.00">getInitializers</text>
</a>
</g>
</g>
<!-- Node3&#45;&gt;Node5 -->
<g id="edge4_Node000003_Node000005" class="edge">
<title>Node3&#45;&gt;Node5</title>
<g id="a_edge4_Node000003_Node000005"><a xlink:title=" ">
<path fill="none" stroke="#63b8ff" d="M215.45,-187.27C213.22,-185.94 211.06,-184.51 209,-183 186.65,-166.57 195.92,-147.63 173,-132 159.87,-123.04 143.29,-117.9 128.24,-114.95"/>
<polygon fill="#63b8ff" stroke="#63b8ff" points="213.9,-190.41 224.38,-191.99 217.18,-184.22 213.9,-190.41"/>
</a>
</g>
</g>
<!-- Node6&#45;&gt;Node4 -->
<g id="edge6_Node000006_Node000004" class="edge">
<title>Node6&#45;&gt;Node4</title>
<g id="a_edge6_Node000006_Node000004"><a xlink:title=" ">
<path fill="none" stroke="#63b8ff" d="M198.61,-157.7C190.15,-157.57 181.56,-157.44 173.1,-157.31"/>
<polygon fill="#63b8ff" stroke="#63b8ff" points="198.79,-161.2 208.84,-157.86 198.9,-154.2 198.79,-161.2"/>
</a>
</g>
</g>
<!-- Node6&#45;&gt;Node5 -->
<g id="edge7_Node000006_Node000005" class="edge">
<title>Node6&#45;&gt;Node5</title>
<g id="a_edge7_Node000006_Node000005"><a xlink:title=" ">
<path fill="none" stroke="#63b8ff" d="M211.97,-141.48C183.12,-134.42 150.96,-126.54 126.55,-120.56"/>
<polygon fill="#63b8ff" stroke="#63b8ff" points="211.48,-144.96 222.02,-143.94 213.14,-138.17 211.48,-144.96"/>
</a>
</g>
</g>
<!-- Node7&#45;&gt;Node4 -->
<g id="edge9_Node000007_Node000004" class="edge">
<title>Node7&#45;&gt;Node4</title>
<g id="a_edge9_Node000007_Node000004"><a xlink:title=" ">
<path fill="none" stroke="#63b8ff" d="M208.01,-128.33C189.86,-132.5 170.62,-136.92 152.98,-140.97"/>
<polygon fill="#63b8ff" stroke="#63b8ff" points="209,-131.7 217.96,-126.05 207.43,-124.87 209,-131.7"/>
</a>
</g>
</g>
<!-- Node7&#45;&gt;Node5 -->
<g id="edge10_Node000007_Node000005" class="edge">
<title>Node7&#45;&gt;Node5</title>
<g id="a_edge10_Node000007_Node000005"><a xlink:title=" ">
<path fill="none" stroke="#63b8ff" d="M198.8,-111C174.32,-111 148.7,-111 128.23,-111"/>
<polygon fill="#63b8ff" stroke="#63b8ff" points="198.84,-114.5 208.84,-111 198.84,-107.5 198.84,-114.5"/>
</a>
</g>
</g>
<!-- Node8&#45;&gt;Node5 -->
<g id="edge12_Node000008_Node000005" class="edge">
<title>Node8&#45;&gt;Node5</title>
<g id="a_edge12_Node000008_Node000005"><a xlink:title=" ">
<path fill="none" stroke="#63b8ff" d="M221.91,-33.63C217.5,-35.34 213.15,-37.13 209,-39 168.09,-57.43 123.58,-86.3 101.52,-101.27"/>
<polygon fill="#63b8ff" stroke="#63b8ff" points="223.46,-36.79 231.64,-30.05 221.04,-30.22 223.46,-36.79"/>
</a>
</g>
</g>
<!-- Node9&#45;&gt;Node4 -->
<g id="edge14_Node000009_Node000004" class="edge">
<title>Node9&#45;&gt;Node4</title>
<g id="a_edge14_Node000009_Node000004"><a xlink:title=" ">
<path fill="none" stroke="#63b8ff" d="M216.44,-82.49C213.87,-83.9 211.38,-85.4 209,-87 188.33,-100.92 193.79,-116.25 173,-130 166.53,-134.28 159.33,-137.88 151.92,-140.9"/>
<polygon fill="#63b8ff" stroke="#63b8ff" points="218,-85.63 225.43,-78.07 214.91,-79.34 218,-85.63"/>
</a>
</g>
</g>
<!-- Node9&#45;&gt;Node5 -->
<g id="edge15_Node000009_Node000005" class="edge">
<title>Node9&#45;&gt;Node5</title>
<g id="a_edge15_Node000009_Node000005"><a xlink:title=" ">
<path fill="none" stroke="#63b8ff" d="M211.97,-80.52C183.12,-87.58 150.96,-95.46 126.55,-101.44"/>
<polygon fill="#63b8ff" stroke="#63b8ff" points="213.14,-83.83 222.02,-78.06 211.48,-77.04 213.14,-83.83"/>
</a>
</g>
</g>
</g>
</svg>
