<?xml version="1.0" encoding="UTF-8" standalone="no"?>
<!DOCTYPE svg PUBLIC "-//W3C//DTD SVG 1.1//EN"
 "http://www.w3.org/Graphics/SVG/1.1/DTD/svg11.dtd">
<!-- Generated by graphviz version 2.43.0 (0)
 -->
<!-- Title: RayTracer::SceneWriter Pages: 1 -->
<svg width="132pt" height="404pt"
 viewBox="0.00 0.00 132.00 404.00" xmlns="http://www.w3.org/2000/svg" xmlns:xlink="http://www.w3.org/1999/xlink">

<svg id="main" version="1.1" xmlns="http://www.w3.org/2000/svg" xmlns:xlink="http://www.w3.org/1999/xlink" xml:space="preserve" onload="init(evt)">
<style type="text/css"><![CDATA[
.node, .edge {opacity: 0.7;}
.node.selected, .edge.selected {opacity: 1;}
.edge:hover path { stroke: red; }
.edge:hover polygon { stroke: red; fill: red; }
]]></style>
<script type="application/ecmascript" xlink:href="svg.min.js"/>
<svg id="graph" class="graph">
<g id="graph0" class="graph" transform="scale(1 1) rotate(0) translate(4 400)">
<title>RayTracer::SceneWriter</title>
<!-- Node1 -->
<g id="Node000001" class="node">
<title>Node1</title>
<g id="a_Node000001"><a xlink:title="Concrete interface implementation that renders a scene and writes output to a PPM file.">
<polygon fill="#999999" stroke="transparent" points="124,-79 0,-79 0,0 124,0 124,-79"/>
<text text-anchor="start" x="5" y="-66.5" font-family="Helvetica,sans-Serif" font-size="10.00">RayTracer::SceneWriter</text>
<text text-anchor="start" x="13" y="-51.5" font-family="Helvetica,sans-Serif" font-size="10.00">&#45;</text>
<text text-anchor="start" x="30" y="-51.5" font-family="Helvetica,sans-Serif" font-size="10.00">_outputFile</text>
<text text-anchor="start" x="10.5" y="-36.5" font-family="Helvetica,sans-Serif" font-size="10.00">+</text>
<text text-anchor="start" x="30" y="-36.5" font-family="Helvetica,sans-Serif" font-size="10.00">SceneWriter()</text>
<text text-anchor="start" x="10.5" y="-21.5" font-family="Helvetica,sans-Serif" font-size="10.00">+</text>
<text text-anchor="start" x="30" y="-21.5" font-family="Helvetica,sans-Serif" font-size="10.00">~SceneWriter()</text>
<text text-anchor="start" x="10.5" y="-6.5" font-family="Helvetica,sans-Serif" font-size="10.00">+</text>
<text text-anchor="start" x="30" y="-6.5" font-family="Helvetica,sans-Serif" font-size="10.00">execute()</text>
<polygon fill="#666666" stroke="#666666" points="0,-61.5 0,-61.5 124,-61.5 124,-61.5 0,-61.5"/>
<polygon fill="#666666" stroke="#666666" points="0,-46.5 0,-46.5 28,-46.5 28,-46.5 0,-46.5"/>
<polygon fill="#666666" stroke="#666666" points="28,-46.5 28,-46.5 124,-46.5 124,-46.5 28,-46.5"/>
<polygon fill="none" stroke="#666666" points="0,0 0,-79 124,-79 124,0 0,0"/>
</a>
</g>
</g>
<!-- Node2 -->
<g id="Node000002" class="node">
<title>Node2</title>
<g id="a_Node000002"><a xlink:href="classRayTracer_1_1AInterface.html" target="_top" xlink:title="Abstract base class for application interfaces. An interface owns a renderer and orchestrates executi...">
<polygon fill="white" stroke="transparent" points="119.5,-210 4.5,-210 4.5,-116 119.5,-116 119.5,-210"/>
<text text-anchor="start" x="10" y="-198" font-family="Helvetica,sans-Serif" font-size="10.00">RayTracer::AInterface</text>
<text text-anchor="start" x="60.5" y="-183" font-family="Helvetica,sans-Serif" font-size="10.00"> </text>
<text text-anchor="start" x="15.5" y="-168" font-family="Helvetica,sans-Serif" font-size="10.00">+</text>
<text text-anchor="start" x="35" y="-168" font-family="Helvetica,sans-Serif" font-size="10.00">AInterface()</text>
<text text-anchor="start" x="15.5" y="-153" font-family="Helvetica,sans-Serif" font-size="10.00">+</text>
<text text-anchor="start" x="35" y="-153" font-family="Helvetica,sans-Serif" font-size="10.00">~AInterface()</text>
<text text-anchor="start" x="15.5" y="-138" font-family="Helvetica,sans-Serif" font-size="10.00">+</text>
<text text-anchor="start" x="35" y="-138" font-family="Helvetica,sans-Serif" font-size="10.00">setRenderer()</text>
<text text-anchor="start" x="15.5" y="-123" font-family="Helvetica,sans-Serif" font-size="10.00">+</text>
<text text-anchor="start" x="35" y="-123" font-family="Helvetica,sans-Serif" font-size="10.00">execute()</text>
<polygon fill="#666666" stroke="#666666" points="5,-193 5,-193 120,-193 120,-193 5,-193"/>
<polygon fill="#666666" stroke="#666666" points="5,-178 5,-178 120,-178 120,-178 5,-178"/>
<polygon fill="none" stroke="#666666" points="4.5,-116 4.5,-210 119.5,-210 119.5,-116 4.5,-116"/>
</a>
</g>
</g>
<!-- Node2&#45;&gt;Node1 -->
<g id="edge1_Node000001_Node000002" class="edge">
<title>Node2&#45;&gt;Node1</title>
<g id="a_edge1_Node000001_Node000002"><a xlink:title=" ">
<path fill="none" stroke="#63b8ff" d="M62,-105.68C62,-96.7 62,-87.59 62,-79.14"/>
<polygon fill="none" stroke="#63b8ff" points="58.5,-105.72 62,-115.72 65.5,-105.72 58.5,-105.72"/>
</a>
</g>
</g>
<!-- Node3 -->
<g id="Node000003" class="node">
<title>Node3</title>
<g id="a_Node000003"><a xlink:href="classRayTracer_1_1ARenderer.html" target="_top" xlink:title="Abstract base class for all renderers. Defines the interface for rendering a scene and producing a fr...">
<polygon fill="white" stroke="transparent" points="120,-396 4,-396 4,-257 120,-257 120,-396"/>
<text text-anchor="start" x="9" y="-383.5" font-family="Helvetica,sans-Serif" font-size="10.00">RayTracer::ARenderer</text>
<text text-anchor="start" x="15" y="-368.5" font-family="Helvetica,sans-Serif" font-size="10.00">#</text>
<text text-anchor="start" x="35" y="-368.5" font-family="Helvetica,sans-Serif" font-size="10.00">_width</text>
<text text-anchor="start" x="15" y="-353.5" font-family="Helvetica,sans-Serif" font-size="10.00">#</text>
<text text-anchor="start" x="35" y="-353.5" font-family="Helvetica,sans-Serif" font-size="10.00">_height</text>
<text text-anchor="start" x="15" y="-338.5" font-family="Helvetica,sans-Serif" font-size="10.00">+</text>
<text text-anchor="start" x="35" y="-338.5" font-family="Helvetica,sans-Serif" font-size="10.00">ARenderer()</text>
<text text-anchor="start" x="15" y="-323.5" font-family="Helvetica,sans-Serif" font-size="10.00">+</text>
<text text-anchor="start" x="35" y="-323.5" font-family="Helvetica,sans-Serif" font-size="10.00">~ARenderer()</text>
<text text-anchor="start" x="15" y="-308.5" font-family="Helvetica,sans-Serif" font-size="10.00">+</text>
<text text-anchor="start" x="35" y="-308.5" font-family="Helvetica,sans-Serif" font-size="10.00">render()</text>
<text text-anchor="start" x="15" y="-293.5" font-family="Helvetica,sans-Serif" font-size="10.00">+</text>
<text text-anchor="start" x="35" y="-293.5" font-family="Helvetica,sans-Serif" font-size="10.00">render()</text>
<text text-anchor="start" x="15" y="-278.5" font-family="Helvetica,sans-Serif" font-size="10.00">+</text>
<text text-anchor="start" x="35" y="-278.5" font-family="Helvetica,sans-Serif" font-size="10.00">getWidth()</text>
<text text-anchor="start" x="15" y="-263.5" font-family="Helvetica,sans-Serif" font-size="10.00">+</text>
<text text-anchor="start" x="35" y="-263.5" font-family="Helvetica,sans-Serif" font-size="10.00">getHeight()</text>
<polygon fill="#666666" stroke="#666666" points="4,-378.5 4,-378.5 120,-378.5 120,-378.5 4,-378.5"/>
<polygon fill="#666666" stroke="#666666" points="4,-348.5 4,-348.5 33,-348.5 33,-348.5 4,-348.5"/>
<polygon fill="#666666" stroke="#666666" points="33,-348.5 33,-348.5 120,-348.5 120,-348.5 33,-348.5"/>
<polygon fill="none" stroke="#666666" points="4,-257 4,-396 120,-396 120,-257 4,-257"/>
</a>
</g>
</g>
<!-- Node3&#45;&gt;Node2 -->
<g id="edge2_Node000002_Node000003" class="edge">
<title>Node3&#45;&gt;Node2</title>
<g id="a_edge2_Node000002_Node000003"><a xlink:title=" ">
<path fill="none" stroke="#63b8ff" d="M62,-256.54C62,-245.2 62,-233.55 62,-222.5"/>
<polygon fill="none" stroke="#63b8ff" points="62,-222.33 58,-216.33 62,-210.33 66,-216.33 62,-222.33"/>
</a>
</g>
<text text-anchor="middle" x="91" y="-231" font-family="Helvetica,sans-Serif" font-size="10.00" fill="grey"> #_renderer</text>
</g>
</g>
</svg>
</svg>

<style type='text/css'>
<![CDATA[
[data-mouse-over-selected='false'] { opacity: 0.7; }
[data-mouse-over-selected='true']  { opacity: 1.0; }
]]>
</style>
<script type="application/ecmascript"><![CDATA[
document.addEventListener('DOMContentLoaded', (event) => {
  highlightEdges();
  highlightAdjacentNodes();
});
]]></script>
</svg>
