<?xml version="1.0" encoding="UTF-8" standalone="no"?>
<!DOCTYPE svg PUBLIC "-//W3C//DTD SVG 1.1//EN"
 "http://www.w3.org/Graphics/SVG/1.1/DTD/svg11.dtd">
<!-- Generated by graphviz version 2.43.0 (0)
 -->
<!-- Title: Geometry::Vector3D::Vector3D Pages: 1 -->
<svg width="646pt" height="929pt"
 viewBox="0.00 0.00 646.00 928.74" xmlns="http://www.w3.org/2000/svg" xmlns:xlink="http://www.w3.org/1999/xlink">
<g id="graph0" class="graph" transform="scale(1 1) rotate(0) translate(4 924.74)">
<title>Geometry::Vector3D::Vector3D</title>
<!-- Node1 -->
<g id="Node000001" class="node">
<title>Node1</title>
<g id="a_Node000001"><a xlink:title=" ">
<polygon fill="#999999" stroke="#666666" points="638,-476 523,-476 523,-446 638,-446 638,-476"/>
<text text-anchor="start" x="531" y="-464" font-family="Helvetica,sans-Serif" font-size="10.00">Geometry::Vector3D</text>
<text text-anchor="middle" x="580.5" y="-453" font-family="Helvetica,sans-Serif" font-size="10.00">::Vector3D</text>
</a>
</g>
</g>
<!-- Node2 -->
<g id="Node000002" class="node">
<title>Node2</title>
<g id="a_Node000002"><a xlink:href="classRayTracer_1_1Camera.html#aa88a1643d3067605407808bf3a5c14d4" target="_top" xlink:title="Construct a camera renderer.">
<polygon fill="white" stroke="#666666" points="115,-885 0,-885 0,-855 115,-855 115,-885"/>
<text text-anchor="start" x="8" y="-873" font-family="Helvetica,sans-Serif" font-size="10.00">RayTracer::Camera::</text>
<text text-anchor="middle" x="57.5" y="-862" font-family="Helvetica,sans-Serif" font-size="10.00">Camera</text>
</a>
</g>
</g>
<!-- Node1&#45;&gt;Node2 -->
<g id="edge1_Node000001_Node000002" class="edge">
<title>Node1&#45;&gt;Node2</title>
<g id="a_edge1_Node000001_Node000002"><a xlink:title=" ">
<path fill="none" stroke="#63b8ff" d="M577.18,-486.52C569.41,-566.01 541.7,-806.89 487,-859 381.39,-959.61 186.32,-912.61 100.68,-885.05"/>
<polygon fill="#63b8ff" stroke="#63b8ff" points="580.67,-486.7 578.14,-476.42 573.71,-486.04 580.67,-486.7"/>
</a>
</g>
</g>
<!-- Node3 -->
<g id="Node000003" class="node">
<title>Node3</title>
<g id="a_Node000003"><a xlink:href="classRayTracer_1_1Camera.html#a27ae8f34a8cb15a3ffd5e23498d894cb" target="_top" xlink:title="Rebuild the _screen rectangle from the current _transform and _fov.">
<polygon fill="white" stroke="#666666" points="299,-816 152,-816 152,-786 299,-786 299,-816"/>
<text text-anchor="start" x="160" y="-804" font-family="Helvetica,sans-Serif" font-size="10.00">RayTracer::Camera::</text>
<text text-anchor="middle" x="225.5" y="-793" font-family="Helvetica,sans-Serif" font-size="10.00">buildScreenFromTransform</text>
</a>
</g>
</g>
<!-- Node1&#45;&gt;Node3 -->
<g id="edge2_Node000001_Node000003" class="edge">
<title>Node1&#45;&gt;Node3</title>
<g id="a_edge2_Node000001_Node000003"><a xlink:title=" ">
<path fill="none" stroke="#63b8ff" d="M577.54,-486.15C572.24,-536.85 553.2,-651.92 487,-716 459.27,-742.84 362.05,-769.8 294.56,-785.95"/>
<polygon fill="#63b8ff" stroke="#63b8ff" points="581.03,-486.37 578.5,-476.08 574.07,-485.7 581.03,-486.37"/>
</a>
</g>
</g>
<!-- Node5 -->
<g id="Node000005" class="node">
<title>Node5</title>
<g id="a_Node000005"><a xlink:href="classRayTracer_1_1DirectionalLight.html#a7170b3c9d9e2c2e697139f0dae68ab5b" target="_top" xlink:title="Compute light contribution, shadow ray cast in opposite direction.">
<polygon fill="white" stroke="#666666" points="485.5,-308 337.5,-308 337.5,-278 485.5,-278 485.5,-308"/>
<text text-anchor="start" x="345.5" y="-296" font-family="Helvetica,sans-Serif" font-size="10.00">RayTracer::DirectionalLight</text>
<text text-anchor="middle" x="411.5" y="-285" font-family="Helvetica,sans-Serif" font-size="10.00">::computeLight</text>
</a>
</g>
</g>
<!-- Node1&#45;&gt;Node5 -->
<g id="edge5_Node000001_Node000005" class="edge">
<title>Node1&#45;&gt;Node5</title>
<g id="a_edge5_Node000001_Node000005"><a xlink:title=" ">
<path fill="none" stroke="#63b8ff" d="M569.97,-436.43C556.32,-404.39 528.23,-348.72 487,-317 482.58,-313.6 477.67,-310.68 472.54,-308.16"/>
<polygon fill="#63b8ff" stroke="#63b8ff" points="566.84,-438.03 573.89,-445.94 573.32,-435.36 566.84,-438.03"/>
</a>
</g>
</g>
<!-- Node6 -->
<g id="Node000006" class="node">
<title>Node6</title>
<g id="a_Node000006"><a xlink:href="classRayTracer_1_1PointLight.html#a4fdb35dd47674e655119b54c30b48b20" target="_top" xlink:title="Compute light contribution.">
<polygon fill="white" stroke="#666666" points="285,-768 166,-768 166,-738 285,-738 285,-768"/>
<text text-anchor="start" x="174" y="-756" font-family="Helvetica,sans-Serif" font-size="10.00">RayTracer::PointLight</text>
<text text-anchor="middle" x="225.5" y="-745" font-family="Helvetica,sans-Serif" font-size="10.00">::computeLight</text>
</a>
</g>
</g>
<!-- Node1&#45;&gt;Node6 -->
<g id="edge6_Node000001_Node000006" class="edge">
<title>Node1&#45;&gt;Node6</title>
<g id="a_edge6_Node000001_Node000006"><a xlink:title=" ">
<path fill="none" stroke="#63b8ff" d="M575.66,-486.26C567.55,-530.92 544.42,-623.94 487,-675 457.06,-701.63 352.29,-727.24 285.09,-741.47"/>
<polygon fill="#63b8ff" stroke="#63b8ff" points="579.14,-486.69 577.38,-476.24 572.24,-485.51 579.14,-486.69"/>
</a>
</g>
</g>
<!-- Node7 -->
<g id="Node000007" class="node">
<title>Node7</title>
<g id="a_Node000007"><a xlink:href="classGeometry_1_1Vector3D.html#a7157de1fcf830b27bf4b2df43e6b6112" target="_top" xlink:title=" ">
<polygon fill="white" stroke="#666666" points="469,-816 354,-816 354,-786 469,-786 469,-816"/>
<text text-anchor="start" x="362" y="-804" font-family="Helvetica,sans-Serif" font-size="10.00">Geometry::Vector3D</text>
<text text-anchor="middle" x="411.5" y="-793" font-family="Helvetica,sans-Serif" font-size="10.00">::cross</text>
</a>
</g>
</g>
<!-- Node1&#45;&gt;Node7 -->
<g id="edge7_Node000001_Node000007" class="edge">
<title>Node1&#45;&gt;Node7</title>
<g id="a_edge7_Node000001_Node000007"><a xlink:title=" ">
<path fill="none" stroke="#63b8ff" d="M578.74,-486.53C575.72,-543.89 560.74,-684.47 487,-768 480.45,-775.42 471.91,-781.25 462.96,-785.81"/>
<polygon fill="#63b8ff" stroke="#63b8ff" points="582.25,-486.35 579.2,-476.21 575.26,-486.04 582.25,-486.35"/>
</a>
</g>
</g>
<!-- Node8 -->
<g id="Node000008" class="node">
<title>Node8</title>
<g id="a_Node000008"><a xlink:href="classRayTracer_1_1Lambertian.html#a9cf81ac3f6c0b5cc08c14d5f30e77838" target="_top" xlink:title="Return the deterministic bounce direction for this material.">
<polygon fill="white" stroke="#666666" points="288.5,-864 162.5,-864 162.5,-834 288.5,-834 288.5,-864"/>
<text text-anchor="start" x="170.5" y="-852" font-family="Helvetica,sans-Serif" font-size="10.00">RayTracer::Lambertian</text>
<text text-anchor="middle" x="225.5" y="-841" font-family="Helvetica,sans-Serif" font-size="10.00">::sample</text>
</a>
</g>
</g>
<!-- Node1&#45;&gt;Node8 -->
<g id="edge57_Node000001_Node000008" class="edge">
<title>Node1&#45;&gt;Node8</title>
<g id="a_edge57_Node000001_Node000008"><a xlink:title=" ">
<path fill="none" stroke="#63b8ff" d="M576.85,-486.01C568.39,-560.78 539.45,-780.2 487,-825 432.7,-871.39 346.81,-869.84 288.64,-861.75"/>
<polygon fill="#63b8ff" stroke="#63b8ff" points="580.33,-486.39 577.95,-476.07 573.37,-485.62 580.33,-486.39"/>
</a>
</g>
</g>
<!-- Node9 -->
<g id="Node000009" class="node">
<title>Node9</title>
<g id="a_Node000009"><a xlink:href="classRayTracer_1_1Phong.html#a2fe3eab64f5b9ab9ab73976f0c8b80fd" target="_top" xlink:title="Return the deterministic bounce direction for this material.">
<polygon fill="white" stroke="#666666" points="297,-585.5 154,-585.5 154,-566.5 297,-566.5 297,-585.5"/>
<text text-anchor="middle" x="225.5" y="-573.5" font-family="Helvetica,sans-Serif" font-size="10.00">RayTracer::Phong::sample</text>
</a>
</g>
</g>
<!-- Node1&#45;&gt;Node9 -->
<g id="edge58_Node000001_Node000009" class="edge">
<title>Node1&#45;&gt;Node9</title>
<g id="a_edge58_Node000001_Node000009"><a xlink:title=" ">
<path fill="none" stroke="#63b8ff" d="M564.31,-484.83C548.21,-507.8 520.49,-541.3 487,-557 427.36,-584.96 351.54,-587.31 297.1,-584.11"/>
<polygon fill="#63b8ff" stroke="#63b8ff" points="567.38,-486.55 570.1,-476.31 561.59,-482.62 567.38,-486.55"/>
</a>
</g>
</g>
<!-- Node10 -->
<g id="Node000010" class="node">
<title>Node10</title>
<g id="a_Node000010"><a xlink:href="namespaceRaytracer.html#af4800ab171090b01c2b9dcf5ab91894e" target="_top" xlink:title=" ">
<polygon fill="white" stroke="#666666" points="480,-260 343,-260 343,-230 480,-230 480,-260"/>
<text text-anchor="start" x="351" y="-248" font-family="Helvetica,sans-Serif" font-size="10.00">Raytracer::fromNode</text>
<text text-anchor="middle" x="411.5" y="-237" font-family="Helvetica,sans-Serif" font-size="10.00">&lt; Geometry::Vector3D &gt;</text>
</a>
</g>
</g>
<!-- Node1&#45;&gt;Node10 -->
<g id="edge12_Node000001_Node000010" class="edge">
<title>Node1&#45;&gt;Node10</title>
<g id="a_edge12_Node000001_Node000010"><a xlink:title=" ">
<path fill="none" stroke="#63b8ff" d="M574.15,-435.85C564.18,-394.98 538.86,-314.18 487,-269 483.11,-265.61 478.73,-262.69 474.09,-260.19"/>
<polygon fill="#63b8ff" stroke="#63b8ff" points="570.79,-436.85 576.47,-445.8 577.61,-435.26 570.79,-436.85"/>
</a>
</g>
</g>
<!-- Node11 -->
<g id="Node000011" class="node">
<title>Node11</title>
<g id="a_Node000011"><a xlink:href="classRayTracer_1_1Camera.html#a4a7f4b6a0e5bf44d17162fb324c289bd" target="_top" xlink:title="Build a world&#45;space ray from normalized screen coordinates.">
<polygon fill="white" stroke="#666666" points="283,-682 168,-682 168,-652 283,-652 283,-682"/>
<text text-anchor="start" x="176" y="-670" font-family="Helvetica,sans-Serif" font-size="10.00">RayTracer::Camera::</text>
<text text-anchor="middle" x="225.5" y="-659" font-family="Helvetica,sans-Serif" font-size="10.00">generateRay</text>
</a>
</g>
</g>
<!-- Node1&#45;&gt;Node11 -->
<g id="edge13_Node000001_Node000011" class="edge">
<title>Node1&#45;&gt;Node11</title>
<g id="a_edge13_Node000001_Node000011"><a xlink:title=" ">
<path fill="none" stroke="#63b8ff" d="M574.75,-486.15C565.63,-526.77 541.52,-606 487,-643 426.68,-683.93 339.6,-682.97 283.03,-676.56"/>
<polygon fill="#63b8ff" stroke="#63b8ff" points="578.2,-486.75 576.85,-476.24 571.36,-485.3 578.2,-486.75"/>
</a>
</g>
</g>
<!-- Node13 -->
<g id="Node000013" class="node">
<title>Node13</title>
<g id="a_Node000013"><a xlink:href="classRayTracer_1_1Sphere.html#a873777f6a7ae521b8e940f7b94c80fd8" target="_top" xlink:title="Get the primitive&#39;s axis&#45;aligned bounds, if any. Unbounded primitives may return std::nullopt.">
<polygon fill="white" stroke="#666666" points="466.5,-212 356.5,-212 356.5,-182 466.5,-182 466.5,-212"/>
<text text-anchor="start" x="364.5" y="-200" font-family="Helvetica,sans-Serif" font-size="10.00">RayTracer::Sphere::</text>
<text text-anchor="middle" x="411.5" y="-189" font-family="Helvetica,sans-Serif" font-size="10.00">getBounds</text>
</a>
</g>
</g>
<!-- Node1&#45;&gt;Node13 -->
<g id="edge15_Node000001_Node000013" class="edge">
<title>Node1&#45;&gt;Node13</title>
<g id="a_edge15_Node000001_Node000013"><a xlink:title=" ">
<path fill="none" stroke="#63b8ff" d="M576.91,-435.94C570.58,-387.48 549.9,-280.46 487,-221 481.17,-215.49 474.08,-211.25 466.6,-207.98"/>
<polygon fill="#63b8ff" stroke="#63b8ff" points="573.44,-436.38 578.12,-445.88 580.39,-435.54 573.44,-436.38"/>
</a>
</g>
</g>
<!-- Node14 -->
<g id="Node000014" class="node">
<title>Node14</title>
<g id="a_Node000014"><a xlink:href="CorePlugin_8cpp.html#a0e14e2166e2799c71d21f343a3d543f3" target="_top" xlink:title=" ">
<polygon fill="white" stroke="#666666" points="453,-163.5 370,-163.5 370,-144.5 453,-144.5 453,-163.5"/>
<text text-anchor="middle" x="411.5" y="-151.5" font-family="Helvetica,sans-Serif" font-size="10.00">getInitializers</text>
</a>
</g>
</g>
<!-- Node1&#45;&gt;Node14 -->
<g id="edge16_Node000001_Node000014" class="edge">
<title>Node1&#45;&gt;Node14</title>
<g id="a_edge16_Node000001_Node000014"><a xlink:title=" ">
<path fill="none" stroke="#63b8ff" d="M579.13,-435.75C576.88,-379.84 563.38,-244.85 487,-173 477.86,-164.4 465.39,-159.56 453.26,-156.87"/>
<polygon fill="#63b8ff" stroke="#63b8ff" points="575.63,-435.95 579.44,-445.84 582.63,-435.74 575.63,-435.95"/>
</a>
</g>
</g>
<!-- Node15 -->
<g id="Node000015" class="node">
<title>Node15</title>
<g id="a_Node000015"><a xlink:href="classGeometry_1_1Vector3D.html#a388f7af8bf0095c817e89b5b2518fda7" target="_top" xlink:title=" ">
<polygon fill="white" stroke="#666666" points="469,-634 354,-634 354,-604 469,-604 469,-634"/>
<text text-anchor="start" x="362" y="-622" font-family="Helvetica,sans-Serif" font-size="10.00">Geometry::Vector3D</text>
<text text-anchor="middle" x="411.5" y="-611" font-family="Helvetica,sans-Serif" font-size="10.00">::normalize</text>
</a>
</g>
</g>
<!-- Node1&#45;&gt;Node15 -->
<g id="edge17_Node000001_Node000015" class="edge">
<title>Node1&#45;&gt;Node15</title>
<g id="a_edge17_Node000001_Node000015"><a xlink:title=" ">
<path fill="none" stroke="#63b8ff" d="M567.68,-485.27C552.59,-513.92 523.97,-561.31 487,-590 479.87,-595.53 471.56,-600.12 463.13,-603.9"/>
<polygon fill="#63b8ff" stroke="#63b8ff" points="570.81,-486.82 572.26,-476.32 564.59,-483.62 570.81,-486.82"/>
</a>
</g>
</g>
<!-- Node22 -->
<g id="Node000022" class="node">
<title>Node22</title>
<g id="a_Node000022"><a xlink:href="classGeometry_1_1Vector3D.html#a2b061b80e0fb7144c2fdcf4aa9ba73bf" target="_top" xlink:title=" ">
<polygon fill="white" stroke="#666666" points="469,-126 354,-126 354,-96 469,-96 469,-126"/>
<text text-anchor="start" x="362" y="-114" font-family="Helvetica,sans-Serif" font-size="10.00">Geometry::Vector3D</text>
<text text-anchor="middle" x="411.5" y="-103" font-family="Helvetica,sans-Serif" font-size="10.00">::operator*</text>
</a>
</g>
</g>
<!-- Node1&#45;&gt;Node22 -->
<g id="edge32_Node000001_Node000022" class="edge">
<title>Node1&#45;&gt;Node22</title>
<g id="a_edge32_Node000001_Node000022"><a xlink:title=" ">
<path fill="none" stroke="#63b8ff" d="M579.91,-435.8C579.5,-375.37 569.9,-220.87 487,-135 482,-129.82 475.87,-125.75 469.31,-122.57"/>
<polygon fill="#63b8ff" stroke="#63b8ff" points="576.41,-435.95 579.9,-445.95 583.41,-435.96 576.41,-435.95"/>
</a>
</g>
</g>
<!-- Node23 -->
<g id="Node000023" class="node">
<title>Node23</title>
<g id="a_Node000023"><a xlink:href="classGeometry_1_1TransformMatrix.html#a065621a852d662251597213f484ea3f6" target="_top" xlink:title=" ">
<polygon fill="white" stroke="#666666" points="487,-78 336,-78 336,-48 487,-48 487,-78"/>
<text text-anchor="start" x="344" y="-66" font-family="Helvetica,sans-Serif" font-size="10.00">Geometry::TransformMatrix</text>
<text text-anchor="middle" x="411.5" y="-55" font-family="Helvetica,sans-Serif" font-size="10.00">::operator*</text>
</a>
</g>
</g>
<!-- Node1&#45;&gt;Node23 -->
<g id="edge33_Node000001_Node000023" class="edge">
<title>Node1&#45;&gt;Node23</title>
<g id="a_edge33_Node000001_Node000023"><a xlink:title=" ">
<path fill="none" stroke="#63b8ff" d="M576.47,-435.81C566.94,-360.45 535.28,-138.74 487,-87 483.76,-83.52 480.01,-80.55 475.95,-78"/>
<polygon fill="#63b8ff" stroke="#63b8ff" points="573.01,-436.34 577.72,-445.83 579.96,-435.48 573.01,-436.34"/>
</a>
</g>
</g>
<!-- Node24 -->
<g id="Node000024" class="node">
<title>Node24</title>
<g id="a_Node000024"><a xlink:href="classGeometry_1_1Vector3D.html#aa583eecc673b26ce6058e6dd00238a62" target="_top" xlink:title=" ">
<polygon fill="white" stroke="#666666" points="469,-500 354,-500 354,-470 469,-470 469,-500"/>
<text text-anchor="start" x="362" y="-488" font-family="Helvetica,sans-Serif" font-size="10.00">Geometry::Vector3D</text>
<text text-anchor="middle" x="411.5" y="-477" font-family="Helvetica,sans-Serif" font-size="10.00">::operator*</text>
</a>
</g>
</g>
<!-- Node1&#45;&gt;Node24 -->
<g id="edge34_Node000001_Node000024" class="edge">
<title>Node1&#45;&gt;Node24</title>
<g id="a_edge34_Node000001_Node000024"><a xlink:title=" ">
<path fill="none" stroke="#63b8ff" d="M513.06,-470.55C498.56,-472.63 483.35,-474.82 469.26,-476.84"/>
<polygon fill="#63b8ff" stroke="#63b8ff" points="513.56,-474.01 522.96,-469.13 512.57,-467.08 513.56,-474.01"/>
</a>
</g>
</g>
<!-- Node27 -->
<g id="Node000027" class="node">
<title>Node27</title>
<g id="a_Node000027"><a xlink:href="classGeometry_1_1Vector3D.html#a374498ca7780e4ff496e56d58424e111" target="_top" xlink:title=" ">
<polygon fill="white" stroke="#666666" points="469,-356 354,-356 354,-326 469,-326 469,-356"/>
<text text-anchor="start" x="362" y="-344" font-family="Helvetica,sans-Serif" font-size="10.00">Geometry::Vector3D</text>
<text text-anchor="middle" x="411.5" y="-333" font-family="Helvetica,sans-Serif" font-size="10.00">::operator+</text>
</a>
</g>
</g>
<!-- Node1&#45;&gt;Node27 -->
<g id="edge42_Node000001_Node000027" class="edge">
<title>Node1&#45;&gt;Node27</title>
<g id="a_edge42_Node000001_Node000027"><a xlink:title=" ">
<path fill="none" stroke="#63b8ff" d="M562.58,-437.72C545.68,-416.04 517.86,-384.25 487,-365 481.47,-361.55 475.39,-358.55 469.17,-355.95"/>
<polygon fill="#63b8ff" stroke="#63b8ff" points="559.86,-439.93 568.71,-445.77 565.43,-435.69 559.86,-439.93"/>
</a>
</g>
</g>
<!-- Node28 -->
<g id="Node000028" class="node">
<title>Node28</title>
<g id="a_Node000028"><a xlink:href="classGeometry_1_1Point3D.html#ae9af5cd5e04e5f0635d250cf80e4e78f" target="_top" xlink:title=" ">
<polygon fill="white" stroke="#666666" points="469,-404 354,-404 354,-374 469,-374 469,-404"/>
<text text-anchor="start" x="362" y="-392" font-family="Helvetica,sans-Serif" font-size="10.00">Geometry::Point3D::</text>
<text text-anchor="middle" x="411.5" y="-381" font-family="Helvetica,sans-Serif" font-size="10.00">operator&#45;</text>
</a>
</g>
</g>
<!-- Node1&#45;&gt;Node28 -->
<g id="edge44_Node000001_Node000028" class="edge">
<title>Node1&#45;&gt;Node28</title>
<g id="a_edge44_Node000001_Node000028"><a xlink:title=" ">
<path fill="none" stroke="#63b8ff" d="M544.34,-440.99C527.34,-431.77 506.44,-421.11 487,-413 479.35,-409.81 471.12,-406.78 463.01,-404.01"/>
<polygon fill="#63b8ff" stroke="#63b8ff" points="542.9,-444.19 553.35,-445.93 546.26,-438.05 542.9,-444.19"/>
</a>
</g>
</g>
<!-- Node29 -->
<g id="Node000029" class="node">
<title>Node29</title>
<g id="a_Node000029"><a xlink:href="classGeometry_1_1Vector3D.html#a12618c1c19f8fdd6ad13fa1c7c9147c0" target="_top" xlink:title=" ">
<polygon fill="white" stroke="#666666" points="469,-548 354,-548 354,-518 469,-518 469,-548"/>
<text text-anchor="start" x="362" y="-536" font-family="Helvetica,sans-Serif" font-size="10.00">Geometry::Vector3D</text>
<text text-anchor="middle" x="411.5" y="-525" font-family="Helvetica,sans-Serif" font-size="10.00">::operator&#45;</text>
</a>
</g>
</g>
<!-- Node1&#45;&gt;Node29 -->
<g id="edge48_Node000001_Node000029" class="edge">
<title>Node1&#45;&gt;Node29</title>
<g id="a_edge48_Node000001_Node000029"><a xlink:title=" ">
<path fill="none" stroke="#63b8ff" d="M544.34,-481.01C527.34,-490.23 506.44,-500.89 487,-509 479.35,-512.19 471.12,-515.22 463.01,-517.99"/>
<polygon fill="#63b8ff" stroke="#63b8ff" points="546.26,-483.95 553.35,-476.07 542.9,-477.81 546.26,-483.95"/>
</a>
</g>
</g>
<!-- Node30 -->
<g id="Node000030" class="node">
<title>Node30</title>
<g id="a_Node000030"><a xlink:href="classGeometry_1_1Vector3D.html#ae922fd3535e26ab859ab96c63c67dace" target="_top" xlink:title=" ">
<polygon fill="white" stroke="#666666" points="469,-30 354,-30 354,0 469,0 469,-30"/>
<text text-anchor="start" x="362" y="-18" font-family="Helvetica,sans-Serif" font-size="10.00">Geometry::Vector3D</text>
<text text-anchor="middle" x="411.5" y="-7" font-family="Helvetica,sans-Serif" font-size="10.00">::operator/</text>
</a>
</g>
</g>
<!-- Node1&#45;&gt;Node30 -->
<g id="edge54_Node000001_Node000030" class="edge">
<title>Node1&#45;&gt;Node30</title>
<g id="a_edge54_Node000001_Node000030"><a xlink:title=" ">
<path fill="none" stroke="#63b8ff" d="M577.22,-435.63C569.39,-353.75 541,-98.45 487,-39 482.07,-33.57 475.9,-29.36 469.24,-26.1"/>
<polygon fill="#63b8ff" stroke="#63b8ff" points="573.76,-436.15 578.17,-445.78 580.73,-435.5 573.76,-436.15"/>
</a>
</g>
</g>
<!-- Node31 -->
<g id="Node000031" class="node">
<title>Node31</title>
<g id="a_Node000031"><a xlink:href="classGeometry_1_1Vector3D.html#ac56b7f7705a5b7a2a4694d419b003162" target="_top" xlink:title=" ">
<polygon fill="white" stroke="#666666" points="469,-452 354,-452 354,-422 469,-422 469,-452"/>
<text text-anchor="start" x="362" y="-440" font-family="Helvetica,sans-Serif" font-size="10.00">Geometry::Vector3D</text>
<text text-anchor="middle" x="411.5" y="-429" font-family="Helvetica,sans-Serif" font-size="10.00">::operator/</text>
</a>
</g>
</g>
<!-- Node1&#45;&gt;Node31 -->
<g id="edge55_Node000001_Node000031" class="edge">
<title>Node1&#45;&gt;Node31</title>
<g id="a_edge55_Node000001_Node000031"><a xlink:title=" ">
<path fill="none" stroke="#63b8ff" d="M513.06,-451.45C498.56,-449.37 483.35,-447.18 469.26,-445.16"/>
<polygon fill="#63b8ff" stroke="#63b8ff" points="512.57,-454.92 522.96,-452.87 513.56,-447.99 512.57,-454.92"/>
</a>
</g>
</g>
<!-- Node3&#45;&gt;Node2 -->
<g id="edge3_Node000003_Node000002" class="edge">
<title>Node3&#45;&gt;Node2</title>
<g id="a_edge3_Node000003_Node000002"><a xlink:title=" ">
<path fill="none" stroke="#63b8ff" d="M165.58,-819.44C160.62,-821.24 155.7,-823.1 151,-825 128.98,-833.9 104.87,-845.7 86.79,-854.98"/>
<polygon fill="#63b8ff" stroke="#63b8ff" points="166.86,-822.7 175.14,-816.08 164.54,-816.1 166.86,-822.7"/>
</a>
</g>
</g>
<!-- Node4 -->
<g id="Node000004" class="node">
<title>Node4</title>
<g id="a_Node000004"><a xlink:href="classRayTracer_1_1Camera.html#a502f05c3a82d9627f26300d71569ffad" target="_top" xlink:title="Construct a camera from a 4x4 affine transform matrix.">
<polygon fill="white" stroke="#666666" points="115,-816 0,-816 0,-786 115,-786 115,-816"/>
<text text-anchor="start" x="8" y="-804" font-family="Helvetica,sans-Serif" font-size="10.00">RayTracer::Camera::</text>
<text text-anchor="middle" x="57.5" y="-793" font-family="Helvetica,sans-Serif" font-size="10.00">Camera</text>
</a>
</g>
</g>
<!-- Node3&#45;&gt;Node4 -->
<g id="edge4_Node000003_Node000004" class="edge">
<title>Node3&#45;&gt;Node4</title>
<g id="a_edge4_Node000003_Node000004"><a xlink:title=" ">
<path fill="none" stroke="#63b8ff" d="M141.57,-801C132.58,-801 123.6,-801 115.03,-801"/>
<polygon fill="#63b8ff" stroke="#63b8ff" points="141.69,-804.5 151.69,-801 141.69,-797.5 141.69,-804.5"/>
</a>
</g>
</g>
<!-- Node7&#45;&gt;Node2 -->
<g id="edge8_Node000007_Node000002" class="edge">
<title>Node7&#45;&gt;Node2</title>
<g id="a_edge8_Node000007_Node000002"><a xlink:title=" ">
<path fill="none" stroke="#63b8ff" d="M386.32,-822.75C365.24,-840.16 332.94,-863.22 300,-873 238.9,-891.15 165.22,-886.69 115.44,-880.07"/>
<polygon fill="#63b8ff" stroke="#63b8ff" points="388.73,-825.3 394.1,-816.16 384.21,-819.96 388.73,-825.3"/>
</a>
</g>
</g>
<!-- Node7&#45;&gt;Node3 -->
<g id="edge9_Node000007_Node000003" class="edge">
<title>Node7&#45;&gt;Node3</title>
<g id="a_edge9_Node000007_Node000003"><a xlink:title=" ">
<path fill="none" stroke="#63b8ff" d="M343.51,-801C329.14,-801 313.89,-801 299.31,-801"/>
<polygon fill="#63b8ff" stroke="#63b8ff" points="343.79,-804.5 353.79,-801 343.79,-797.5 343.79,-804.5"/>
</a>
</g>
</g>
<!-- Node7&#45;&gt;Node8 -->
<g id="edge10_Node000007_Node000008" class="edge">
<title>Node7&#45;&gt;Node8</title>
<g id="a_edge10_Node000007_Node000008"><a xlink:title=" ">
<path fill="none" stroke="#63b8ff" d="M344.04,-818.34C324.49,-823.44 303.26,-828.98 284.29,-833.92"/>
<polygon fill="#63b8ff" stroke="#63b8ff" points="345,-821.7 353.79,-815.79 343.23,-814.93 345,-821.7"/>
</a>
</g>
</g>
<!-- Node7&#45;&gt;Node9 -->
<g id="edge11_Node000007_Node000009" class="edge">
<title>Node7&#45;&gt;Node9</title>
<g id="a_edge11_Node000007_Node000009"><a xlink:title=" ">
<path fill="none" stroke="#63b8ff" d="M400.44,-776.75C379.66,-727.78 331.35,-619.62 300,-595 295.02,-591.09 289.33,-587.98 283.36,-585.51"/>
<polygon fill="#63b8ff" stroke="#63b8ff" points="397.22,-778.13 404.33,-785.99 403.67,-775.41 397.22,-778.13"/>
</a>
</g>
</g>
<!-- Node12 -->
<g id="Node000012" class="node">
<title>Node12</title>
<g id="a_Node000012"><a xlink:href="classRayTracer_1_1Camera.html#a32d328268bd310d35df62adcef914187" target="_top" xlink:title="Render the scene into a 2D framebuffer.">
<polygon fill="white" stroke="#666666" points="115,-569 0,-569 0,-539 115,-539 115,-569"/>
<text text-anchor="start" x="8" y="-557" font-family="Helvetica,sans-Serif" font-size="10.00">RayTracer::Camera::</text>
<text text-anchor="middle" x="57.5" y="-546" font-family="Helvetica,sans-Serif" font-size="10.00">render</text>
</a>
</g>
</g>
<!-- Node11&#45;&gt;Node12 -->
<g id="edge14_Node000011_Node000012" class="edge">
<title>Node11&#45;&gt;Node12</title>
<g id="a_edge14_Node000011_Node000012"><a xlink:title=" ">
<path fill="none" stroke="#63b8ff" d="M159.81,-647.77C156.77,-646.28 153.82,-644.69 151,-643 117.57,-622.92 86.62,-588.7 70.38,-569.06"/>
<polygon fill="#63b8ff" stroke="#63b8ff" points="158.55,-651.04 169.11,-651.94 161.42,-644.66 158.55,-651.04"/>
</a>
</g>
</g>
<!-- Node15&#45;&gt;Node2 -->
<g id="edge18_Node000015_Node000002" class="edge">
<title>Node15&#45;&gt;Node2</title>
<g id="a_edge18_Node000015_Node000002"><a xlink:title=" ">
<path fill="none" stroke="#63b8ff" d="M383.63,-640.13C362.1,-656.13 330.54,-677.6 300,-691 237.42,-718.47 201.89,-683.38 151,-729 117.07,-759.42 141.79,-788.14 115,-825 106.45,-836.77 94.05,-847.11 83.04,-854.9"/>
<polygon fill="#63b8ff" stroke="#63b8ff" points="385.78,-642.89 391.65,-634.07 381.56,-637.3 385.78,-642.89"/>
</a>
</g>
</g>
<!-- Node15&#45;&gt;Node3 -->
<g id="edge20_Node000015_Node000003" class="edge">
<title>Node15&#45;&gt;Node3</title>
<g id="a_edge20_Node000015_Node000003"><a xlink:title=" ">
<path fill="none" stroke="#63b8ff" d="M396.4,-642.89C372.75,-682.26 325.2,-758.31 300,-777 295.36,-780.44 290.21,-783.4 284.85,-785.94"/>
<polygon fill="#63b8ff" stroke="#63b8ff" points="399.48,-644.55 401.61,-634.17 393.47,-640.96 399.48,-644.55"/>
</a>
</g>
</g>
<!-- Node15&#45;&gt;Node6 -->
<g id="edge24_Node000015_Node000006" class="edge">
<title>Node15&#45;&gt;Node6</title>
<g id="a_edge24_Node000015_Node000006"><a xlink:title=" ">
<path fill="none" stroke="#63b8ff" d="M388.82,-641.53C362.48,-668.56 319.19,-711.76 300,-724 291.56,-729.39 281.95,-734.06 272.54,-737.99"/>
<polygon fill="#63b8ff" stroke="#63b8ff" points="391.63,-643.66 396.09,-634.05 386.61,-638.79 391.63,-643.66"/>
</a>
</g>
</g>
<!-- Node15&#45;&gt;Node8 -->
<g id="edge30_Node000015_Node000008" class="edge">
<title>Node15&#45;&gt;Node8</title>
<g id="a_edge30_Node000015_Node000008"><a xlink:title=" ">
<path fill="none" stroke="#63b8ff" d="M400.16,-643.44C379.07,-692.28 330.5,-799.47 300,-825 295.88,-828.45 291.26,-831.4 286.38,-833.94"/>
<polygon fill="#63b8ff" stroke="#63b8ff" points="403.39,-644.79 404.11,-634.22 396.96,-642.03 403.39,-644.79"/>
</a>
</g>
</g>
<!-- Node15&#45;&gt;Node9 -->
<g id="edge31_Node000015_Node000009" class="edge">
<title>Node15&#45;&gt;Node9</title>
<g id="a_edge31_Node000015_Node000009"><a xlink:title=" ">
<path fill="none" stroke="#63b8ff" d="M343.76,-603.4C318.15,-597.42 289.71,-590.77 267.25,-585.52"/>
<polygon fill="#63b8ff" stroke="#63b8ff" points="343.26,-606.88 353.79,-605.75 344.85,-600.06 343.26,-606.88"/>
</a>
</g>
</g>
<!-- Node15&#45;&gt;Node11 -->
<g id="edge26_Node000015_Node000011" class="edge">
<title>Node15&#45;&gt;Node11</title>
<g id="a_edge26_Node000015_Node000011"><a xlink:title=" ">
<path fill="none" stroke="#63b8ff" d="M343.85,-636.39C323.91,-641.59 302.25,-647.24 283.02,-652.26"/>
<polygon fill="#63b8ff" stroke="#63b8ff" points="345,-639.7 353.79,-633.79 343.23,-632.93 345,-639.7"/>
</a>
</g>
</g>
<!-- Node16 -->
<g id="Node000016" class="node">
<title>Node16</title>
<g id="a_Node000016"><a xlink:href="classRayTracer_1_1DirectionalLight.html#a682bc429176da9bb6b1694703b44ba0e" target="_top" xlink:title=" ">
<polygon fill="white" stroke="#666666" points="299.5,-634 151.5,-634 151.5,-604 299.5,-604 299.5,-634"/>
<text text-anchor="start" x="159.5" y="-622" font-family="Helvetica,sans-Serif" font-size="10.00">RayTracer::DirectionalLight</text>
<text text-anchor="middle" x="225.5" y="-611" font-family="Helvetica,sans-Serif" font-size="10.00">::DirectionalLight</text>
</a>
</g>
</g>
<!-- Node15&#45;&gt;Node16 -->
<g id="edge19_Node000015_Node000016" class="edge">
<title>Node15&#45;&gt;Node16</title>
<g id="a_edge19_Node000015_Node000016"><a xlink:title=" ">
<path fill="none" stroke="#63b8ff" d="M343.57,-619C329.29,-619 314.14,-619 299.64,-619"/>
<polygon fill="#63b8ff" stroke="#63b8ff" points="343.79,-622.5 353.79,-619 343.79,-615.5 343.79,-622.5"/>
</a>
</g>
</g>
<!-- Node17 -->
<g id="Node000017" class="node">
<title>Node17</title>
<g id="a_Node000017"><a xlink:href="classRayTracer_1_1Camera.html#a7cd2251f34b6dda51fe338512e598571" target="_top" xlink:title="Evaluate the rendering equation along a ray, deterministically.">
<polygon fill="white" stroke="#666666" points="283,-456 168,-456 168,-426 283,-426 283,-456"/>
<text text-anchor="start" x="176" y="-444" font-family="Helvetica,sans-Serif" font-size="10.00">RayTracer::Camera::</text>
<text text-anchor="middle" x="225.5" y="-433" font-family="Helvetica,sans-Serif" font-size="10.00">castRay</text>
</a>
</g>
</g>
<!-- Node15&#45;&gt;Node17 -->
<g id="edge21_Node000015_Node000017" class="edge">
<title>Node15&#45;&gt;Node17</title>
<g id="a_edge21_Node000015_Node000017"><a xlink:title=" ">
<path fill="none" stroke="#63b8ff" d="M379.56,-597.93C365.04,-586.95 348.28,-572.58 336,-557 313.61,-528.59 324.65,-510.47 300,-484 289.32,-472.53 274.88,-463.19 261.63,-456.18"/>
<polygon fill="#63b8ff" stroke="#63b8ff" points="377.67,-600.88 387.8,-603.99 381.81,-595.24 377.67,-600.88"/>
</a>
</g>
</g>
<!-- Node18 -->
<g id="Node000018" class="node">
<title>Node18</title>
<g id="a_Node000018"><a xlink:href="classRayTracer_1_1Phong.html#a2526bd20be0b2cbb045250c4a6573b27" target="_top" xlink:title="Evaluate the BRDF for a given pair of directions.">
<polygon fill="white" stroke="#666666" points="300,-548.5 151,-548.5 151,-529.5 300,-529.5 300,-548.5"/>
<text text-anchor="middle" x="225.5" y="-536.5" font-family="Helvetica,sans-Serif" font-size="10.00">RayTracer::Phong::evaluate</text>
</a>
</g>
</g>
<!-- Node15&#45;&gt;Node18 -->
<g id="edge25_Node000015_Node000018" class="edge">
<title>Node15&#45;&gt;Node18</title>
<g id="a_edge25_Node000015_Node000018"><a xlink:title=" ">
<path fill="none" stroke="#63b8ff" d="M378.5,-598.51C356.98,-585.45 327.61,-568.99 300,-558 290.82,-554.35 280.7,-551.2 271,-548.58"/>
<polygon fill="#63b8ff" stroke="#63b8ff" points="376.86,-601.61 387.21,-603.87 380.53,-595.65 376.86,-601.61"/>
</a>
</g>
</g>
<!-- Node19 -->
<g id="Node000019" class="node">
<title>Node19</title>
<g id="a_Node000019"><a xlink:href="classRayTracer_1_1Cylinder.html#ab42450e2290b96bccdf83ba79fa9d8af" target="_top" xlink:title="Test ray–cylinder intersection using the quadratic form of the cylinder equation.">
<polygon fill="white" stroke="#666666" points="290.5,-407.5 160.5,-407.5 160.5,-388.5 290.5,-388.5 290.5,-407.5"/>
<text text-anchor="middle" x="225.5" y="-395.5" font-family="Helvetica,sans-Serif" font-size="10.00">RayTracer::Cylinder::hit</text>
</a>
</g>
</g>
<!-- Node15&#45;&gt;Node19 -->
<g id="edge27_Node000015_Node000019" class="edge">
<title>Node15&#45;&gt;Node19</title>
<g id="a_edge27_Node000015_Node000019"><a xlink:title=" ">
<path fill="none" stroke="#63b8ff" d="M376.83,-598.04C362.3,-587.41 346.31,-573.28 336,-557 301.64,-502.71 345.4,-462.46 300,-417 296.18,-413.18 291.7,-410.09 286.87,-407.6"/>
<polygon fill="#63b8ff" stroke="#63b8ff" points="374.97,-601.01 385.16,-603.89 378.99,-595.28 374.97,-601.01"/>
</a>
</g>
</g>
<!-- Node20 -->
<g id="Node000020" class="node">
<title>Node20</title>
<g id="a_Node000020"><a xlink:href="classRayTracer_1_1Sphere.html#a40d439c5a658465a6eeef01f7679ecc9" target="_top" xlink:title="Test ray intersection with this primitive.">
<polygon fill="white" stroke="#666666" points="287,-370.5 164,-370.5 164,-351.5 287,-351.5 287,-370.5"/>
<text text-anchor="middle" x="225.5" y="-358.5" font-family="Helvetica,sans-Serif" font-size="10.00">RayTracer::Sphere::hit</text>
</a>
</g>
</g>
<!-- Node15&#45;&gt;Node20 -->
<g id="edge28_Node000015_Node000020" class="edge">
<title>Node15&#45;&gt;Node20</title>
<g id="a_edge28_Node000015_Node000020"><a xlink:title=" ">
<path fill="none" stroke="#63b8ff" d="M376.12,-598.05C361.59,-587.49 345.8,-573.43 336,-557 294.63,-487.69 355.9,-437.22 300,-379 296.27,-375.11 291.85,-372.01 287.05,-369.54"/>
<polygon fill="#63b8ff" stroke="#63b8ff" points="374.26,-601.02 384.47,-603.86 378.26,-595.27 374.26,-601.02"/>
</a>
</g>
</g>
<!-- Node21 -->
<g id="Node000021" class="node">
<title>Node21</title>
<g id="a_Node000021"><a xlink:href="classRayTracer_1_1Phong.html#af9bc5125da9a856062f5284e36ceb5b2" target="_top" xlink:title="Return the probability density of the direction from sample().">
<polygon fill="white" stroke="#666666" points="286.5,-511.5 164.5,-511.5 164.5,-492.5 286.5,-492.5 286.5,-511.5"/>
<text text-anchor="middle" x="225.5" y="-499.5" font-family="Helvetica,sans-Serif" font-size="10.00">RayTracer::Phong::pdf</text>
</a>
</g>
</g>
<!-- Node15&#45;&gt;Node21 -->
<g id="edge29_Node000015_Node000021" class="edge">
<title>Node15&#45;&gt;Node21</title>
<g id="a_edge29_Node000015_Node000021"><a xlink:title=" ">
<path fill="none" stroke="#63b8ff" d="M383.41,-597.45C369.05,-585.78 351.27,-570.94 336,-557 319.29,-541.75 319.65,-532.23 300,-521 293.25,-517.14 285.71,-514.05 278.09,-511.58"/>
<polygon fill="#63b8ff" stroke="#63b8ff" points="381.44,-600.36 391.42,-603.92 385.84,-594.91 381.44,-600.36"/>
</a>
</g>
</g>
<!-- Node17&#45;&gt;Node12 -->
<g id="edge23_Node000017_Node000012" class="edge">
<title>Node17&#45;&gt;Node12</title>
<g id="a_edge23_Node000017_Node000012"><a xlink:title=" ">
<path fill="none" stroke="#63b8ff" d="M187.95,-461.24C175.99,-468.17 162.76,-476.15 151,-484 124.53,-501.67 95.5,-524.19 77.15,-538.85"/>
<polygon fill="#63b8ff" stroke="#63b8ff" points="189.86,-464.18 196.8,-456.17 186.38,-458.1 189.86,-464.18"/>
</a>
</g>
</g>
<!-- Node17&#45;&gt;Node17 -->
<g id="edge22_Node000017_Node000017" class="edge">
<title>Node17&#45;&gt;Node17</title>
<g id="a_edge22_Node000017_Node000017"><a xlink:title=" ">
<path fill="none" stroke="#63b8ff" d="M254.56,-466.6C250.59,-470.97 240.9,-474 225.5,-474 199.56,-474 189.84,-465.41 196.32,-456.28"/>
<polygon fill="#63b8ff" stroke="#63b8ff" points="258.06,-466.32 254.68,-456.28 251.06,-466.23 258.06,-466.32"/>
</a>
</g>
</g>
<!-- Node24&#45;&gt;Node9 -->
<g id="edge41_Node000024_Node000009" class="edge">
<title>Node24&#45;&gt;Node9</title>
<g id="a_edge41_Node000024_Node000009"><a xlink:title=" ">
<path fill="none" stroke="#63b8ff" d="M344.54,-503.61C341.57,-505.26 338.7,-507.05 336,-509 314.08,-524.8 322.47,-543 300,-558 294.86,-561.43 289.14,-564.2 283.21,-566.45"/>
<polygon fill="#63b8ff" stroke="#63b8ff" points="346.32,-506.63 353.74,-499.06 343.22,-500.36 346.32,-506.63"/>
</a>
</g>
</g>
<!-- Node24&#45;&gt;Node17 -->
<g id="edge35_Node000024_Node000017" class="edge">
<title>Node24&#45;&gt;Node17</title>
<g id="a_edge35_Node000024_Node000017"><a xlink:title=" ">
<path fill="none" stroke="#63b8ff" d="M343.85,-469.06C323.91,-464.29 302.25,-459.11 283.02,-454.52"/>
<polygon fill="#63b8ff" stroke="#63b8ff" points="343.25,-472.52 353.79,-471.44 344.88,-465.71 343.25,-472.52"/>
</a>
</g>
</g>
<!-- Node24&#45;&gt;Node18 -->
<g id="edge36_Node000024_Node000018" class="edge">
<title>Node24&#45;&gt;Node18</title>
<g id="a_edge36_Node000024_Node000018"><a xlink:title=" ">
<path fill="none" stroke="#63b8ff" d="M354.05,-503.12C347.96,-505.09 341.85,-507.08 336,-509 319.97,-514.25 316.2,-516.32 300,-521 289.65,-523.99 278.39,-526.91 267.86,-529.5"/>
<polygon fill="#63b8ff" stroke="#63b8ff" points="355.14,-506.44 363.58,-500.04 352.99,-499.78 355.14,-506.44"/>
</a>
</g>
</g>
<!-- Node24&#45;&gt;Node19 -->
<g id="edge37_Node000024_Node000019" class="edge">
<title>Node24&#45;&gt;Node19</title>
<g id="a_edge37_Node000024_Node000019"><a xlink:title=" ">
<path fill="none" stroke="#63b8ff" d="M344.66,-466.22C341.66,-464.61 338.75,-462.88 336,-461 315.12,-446.77 321.29,-430.61 300,-417 293.89,-413.09 287.02,-409.99 279.99,-407.52"/>
<polygon fill="#63b8ff" stroke="#63b8ff" points="343.4,-469.49 353.93,-470.66 346.43,-463.18 343.4,-469.49"/>
</a>
</g>
</g>
<!-- Node24&#45;&gt;Node21 -->
<g id="edge39_Node000024_Node000021" class="edge">
<title>Node24&#45;&gt;Node21</title>
<g id="a_edge39_Node000024_Node000021"><a xlink:title=" ">
<path fill="none" stroke="#63b8ff" d="M343.6,-491.18C324.93,-492.91 304.77,-494.77 286.53,-496.45"/>
<polygon fill="#63b8ff" stroke="#63b8ff" points="344.16,-494.64 353.79,-490.24 343.51,-487.67 344.16,-494.64"/>
</a>
</g>
</g>
<!-- Node25 -->
<g id="Node000025" class="node">
<title>Node25</title>
<g id="a_Node000025"><a xlink:href="classRayTracer_1_1Plane.html#a7b741696eb186f6ec9df62e58e795916" target="_top" xlink:title="Test ray–plane intersection using the algebraic plane equation.">
<polygon fill="white" stroke="#666666" points="283.5,-296.5 167.5,-296.5 167.5,-277.5 283.5,-277.5 283.5,-296.5"/>
<text text-anchor="middle" x="225.5" y="-284.5" font-family="Helvetica,sans-Serif" font-size="10.00">RayTracer::Plane::hit</text>
</a>
</g>
</g>
<!-- Node24&#45;&gt;Node25 -->
<g id="edge38_Node000024_Node000025" class="edge">
<title>Node24&#45;&gt;Node25</title>
<g id="a_edge38_Node000024_Node000025"><a xlink:title=" ">
<path fill="none" stroke="#63b8ff" d="M345.12,-468.82C341.79,-466.55 338.71,-463.96 336,-461 287.86,-408.6 349.98,-355.65 300,-305 295.39,-300.32 289.77,-296.79 283.72,-294.13"/>
<polygon fill="#63b8ff" stroke="#63b8ff" points="343.41,-471.88 353.82,-473.85 346.91,-465.81 343.41,-471.88"/>
</a>
</g>
</g>
<!-- Node26 -->
<g id="Node000026" class="node">
<title>Node26</title>
<g id="a_Node000026"><a xlink:href="classRayTracer_1_1Glass.html#a2c9fb925e8ccd41d68e1126530937c84" target="_top" xlink:title="Return the deterministic bounce direction for this material.">
<polygon fill="white" stroke="#666666" points="295.5,-333.5 155.5,-333.5 155.5,-314.5 295.5,-314.5 295.5,-333.5"/>
<text text-anchor="middle" x="225.5" y="-321.5" font-family="Helvetica,sans-Serif" font-size="10.00">RayTracer::Glass::sample</text>
</a>
</g>
</g>
<!-- Node24&#45;&gt;Node26 -->
<g id="edge40_Node000024_Node000026" class="edge">
<title>Node24&#45;&gt;Node26</title>
<g id="a_edge40_Node000024_Node000026"><a xlink:title=" ">
<path fill="none" stroke="#63b8ff" d="M344.88,-468.29C341.67,-466.15 338.68,-463.73 336,-461 297.28,-421.58 340.1,-380.01 300,-342 296.47,-338.66 292.43,-335.9 288.09,-333.64"/>
<polygon fill="#63b8ff" stroke="#63b8ff" points="343.35,-471.45 353.78,-473.35 346.81,-465.37 343.35,-471.45"/>
</a>
</g>
</g>
<!-- Node27&#45;&gt;Node26 -->
<g id="edge43_Node000027_Node000026" class="edge">
<title>Node27&#45;&gt;Node26</title>
<g id="a_edge43_Node000027_Node000026"><a xlink:title=" ">
<path fill="none" stroke="#63b8ff" d="M343.69,-334.83C328.07,-333.38 311.39,-331.84 295.66,-330.39"/>
<polygon fill="#63b8ff" stroke="#63b8ff" points="343.51,-338.33 353.79,-335.76 344.16,-331.36 343.51,-338.33"/>
</a>
</g>
</g>
<!-- Node28&#45;&gt;Node19 -->
<g id="edge45_Node000028_Node000019" class="edge">
<title>Node28&#45;&gt;Node19</title>
<g id="a_edge45_Node000028_Node000019"><a xlink:title=" ">
<path fill="none" stroke="#63b8ff" d="M343.78,-392.26C326.48,-393.11 307.9,-394.02 290.73,-394.86"/>
<polygon fill="#63b8ff" stroke="#63b8ff" points="343.98,-395.76 353.79,-391.77 343.63,-388.77 343.98,-395.76"/>
</a>
</g>
</g>
<!-- Node28&#45;&gt;Node20 -->
<g id="edge47_Node000028_Node000020" class="edge">
<title>Node28&#45;&gt;Node20</title>
<g id="a_edge47_Node000028_Node000020"><a xlink:title=" ">
<path fill="none" stroke="#63b8ff" d="M343.7,-378.83C325.22,-376.02 305.28,-372.99 287.17,-370.23"/>
<polygon fill="#63b8ff" stroke="#63b8ff" points="343.38,-382.33 353.79,-380.37 344.43,-375.41 343.38,-382.33"/>
</a>
</g>
</g>
<!-- Node28&#45;&gt;Node25 -->
<g id="edge46_Node000028_Node000025" class="edge">
<title>Node28&#45;&gt;Node25</title>
<g id="a_edge46_Node000028_Node000025"><a xlink:title=" ">
<path fill="none" stroke="#63b8ff" d="M344.77,-370.97C341.69,-369.16 338.74,-367.18 336,-365 311.64,-345.66 325.03,-323.45 300,-305 295.03,-301.34 289.41,-298.41 283.54,-296.08"/>
<polygon fill="#63b8ff" stroke="#63b8ff" points="343.26,-374.12 353.75,-375.6 346.47,-367.9 343.26,-374.12"/>
</a>
</g>
</g>
<!-- Node29&#45;&gt;Node9 -->
<g id="edge53_Node000029_Node000009" class="edge">
<title>Node29&#45;&gt;Node9</title>
<g id="a_edge53_Node000029_Node000009"><a xlink:title=" ">
<path fill="none" stroke="#63b8ff" d="M343.76,-548.6C318.15,-554.58 289.71,-561.23 267.25,-566.48"/>
<polygon fill="#63b8ff" stroke="#63b8ff" points="344.85,-551.94 353.79,-546.25 343.26,-545.12 344.85,-551.94"/>
</a>
</g>
</g>
<!-- Node29&#45;&gt;Node18 -->
<g id="edge49_Node000029_Node000018" class="edge">
<title>Node29&#45;&gt;Node18</title>
<g id="a_edge49_Node000029_Node000018"><a xlink:title=" ">
<path fill="none" stroke="#63b8ff" d="M343.7,-535.18C329.6,-535.64 314.65,-536.13 300.31,-536.59"/>
<polygon fill="#63b8ff" stroke="#63b8ff" points="343.91,-538.67 353.79,-534.85 343.68,-531.68 343.91,-538.67"/>
</a>
</g>
</g>
<!-- Node29&#45;&gt;Node19 -->
<g id="edge50_Node000029_Node000019" class="edge">
<title>Node29&#45;&gt;Node19</title>
<g id="a_edge50_Node000029_Node000019"><a xlink:title=" ">
<path fill="none" stroke="#63b8ff" d="M344.94,-515.92C341.75,-513.87 338.73,-511.57 336,-509 304.02,-478.92 332.85,-446.13 300,-417 295.66,-413.15 290.64,-410.07 285.31,-407.59"/>
<polygon fill="#63b8ff" stroke="#63b8ff" points="343.33,-519.03 353.78,-520.79 346.71,-512.9 343.33,-519.03"/>
</a>
</g>
</g>
<!-- Node29&#45;&gt;Node21 -->
<g id="edge51_Node000029_Node000021" class="edge">
<title>Node29&#45;&gt;Node21</title>
<g id="a_edge51_Node000029_Node000021"><a xlink:title=" ">
<path fill="none" stroke="#63b8ff" d="M343.85,-521.77C323.91,-518.41 302.25,-514.76 283.02,-511.52"/>
<polygon fill="#63b8ff" stroke="#63b8ff" points="343.35,-525.24 353.79,-523.45 344.51,-518.33 343.35,-525.24"/>
</a>
</g>
</g>
<!-- Node29&#45;&gt;Node26 -->
<g id="edge52_Node000029_Node000026" class="edge">
<title>Node29&#45;&gt;Node26</title>
<g id="a_edge52_Node000029_Node000026"><a xlink:title=" ">
<path fill="none" stroke="#63b8ff" d="M345.07,-516.87C341.76,-514.58 338.69,-511.97 336,-509 285.04,-452.71 352.94,-396.43 300,-342 296.7,-338.61 292.88,-335.82 288.74,-333.52"/>
<polygon fill="#63b8ff" stroke="#63b8ff" points="343.34,-519.91 353.74,-521.91 346.86,-513.86 343.34,-519.91"/>
</a>
</g>
</g>
<!-- Node31&#45;&gt;Node19 -->
<g id="edge56_Node000031_Node000019" class="edge">
<title>Node31&#45;&gt;Node19</title>
<g id="a_edge56_Node000031_Node000019"><a xlink:title=" ">
<path fill="none" stroke="#63b8ff" d="M343.98,-422.9C319.85,-417.79 293.17,-412.13 271.35,-407.51"/>
<polygon fill="#63b8ff" stroke="#63b8ff" points="343.28,-426.33 353.79,-424.98 344.74,-419.48 343.28,-426.33"/>
</a>
</g>
</g>
</g>
</svg>
