<?xml version="1.0" encoding="UTF-8" standalone="no"?>
<!DOCTYPE svg PUBLIC "-//W3C//DTD SVG 1.1//EN"
 "http://www.w3.org/Graphics/SVG/1.1/DTD/svg11.dtd">
<!-- Generated by graphviz version 2.43.0 (0)
 -->
<!-- Title: RayTracer::APrimitive::hit Pages: 1 -->
<svg width="935pt" height="147pt"
 viewBox="0.00 0.00 935.00 147.00" xmlns="http://www.w3.org/2000/svg" xmlns:xlink="http://www.w3.org/1999/xlink">
<g id="graph0" class="graph" transform="scale(1 1) rotate(0) translate(4 143)">
<title>RayTracer::APrimitive::hit</title>
<!-- Node1 -->
<g id="Node000001" class="node">
<title>Node1</title>
<g id="a_Node000001"><a xlink:title="Test ray intersection with this primitive.">
<polygon fill="#999999" stroke="#666666" points="927,-85.5 787,-85.5 787,-66.5 927,-66.5 927,-85.5"/>
<text text-anchor="middle" x="857" y="-73.5" font-family="Helvetica,sans-Serif" font-size="10.00">RayTracer::APrimitive::hit</text>
</a>
</g>
</g>
<!-- Node2 -->
<g id="Node000002" class="node">
<title>Node2</title>
<g id="a_Node000002"><a xlink:href="classRayTracer_1_1DirectionalLight.html#a7170b3c9d9e2c2e697139f0dae68ab5b" target="_top" xlink:title="Compute light contribution, shadow ray cast in opposite direction.">
<polygon fill="white" stroke="#666666" points="751,-139 603,-139 603,-109 751,-109 751,-139"/>
<text text-anchor="start" x="611" y="-127" font-family="Helvetica,sans-Serif" font-size="10.00">RayTracer::DirectionalLight</text>
<text text-anchor="middle" x="677" y="-116" font-family="Helvetica,sans-Serif" font-size="10.00">::computeLight</text>
</a>
</g>
</g>
<!-- Node1&#45;&gt;Node2 -->
<g id="edge1_Node000001_Node000002" class="edge">
<title>Node1&#45;&gt;Node2</title>
<g id="a_edge1_Node000001_Node000002"><a xlink:title=" ">
<path fill="none" stroke="#63b8ff" d="M810.74,-88.2C787.36,-94.51 758.61,-102.26 733.86,-108.94"/>
<polygon fill="#63b8ff" stroke="#63b8ff" points="811.66,-91.58 820.41,-85.6 809.84,-84.82 811.66,-91.58"/>
</a>
</g>
</g>
<!-- Node3 -->
<g id="Node000003" class="node">
<title>Node3</title>
<g id="a_Node000003"><a xlink:href="classRayTracer_1_1PointLight.html#a4fdb35dd47674e655119b54c30b48b20" target="_top" xlink:title="Compute light contribution.">
<polygon fill="white" stroke="#666666" points="736.5,-91 617.5,-91 617.5,-61 736.5,-61 736.5,-91"/>
<text text-anchor="start" x="625.5" y="-79" font-family="Helvetica,sans-Serif" font-size="10.00">RayTracer::PointLight</text>
<text text-anchor="middle" x="677" y="-68" font-family="Helvetica,sans-Serif" font-size="10.00">::computeLight</text>
</a>
</g>
</g>
<!-- Node1&#45;&gt;Node3 -->
<g id="edge2_Node000001_Node000003" class="edge">
<title>Node1&#45;&gt;Node3</title>
<g id="a_edge2_Node000001_Node000003"><a xlink:title=" ">
<path fill="none" stroke="#63b8ff" d="M776.7,-76C763.23,-76 749.46,-76 736.64,-76"/>
<polygon fill="#63b8ff" stroke="#63b8ff" points="776.93,-79.5 786.93,-76 776.93,-72.5 776.93,-79.5"/>
</a>
</g>
</g>
<!-- Node4 -->
<g id="Node000004" class="node">
<title>Node4</title>
<g id="a_Node000004"><a xlink:href="classRayTracer_1_1BVH.html#aa28c211e870f890ee8b318cb0356beb7" target="_top" xlink:title=" ">
<polygon fill="white" stroke="#666666" points="745,-24.5 609,-24.5 609,-5.5 745,-5.5 745,-24.5"/>
<text text-anchor="middle" x="677" y="-12.5" font-family="Helvetica,sans-Serif" font-size="10.00">RayTracer::BVH::hitNode</text>
</a>
</g>
</g>
<!-- Node1&#45;&gt;Node4 -->
<g id="edge3_Node000001_Node000004" class="edge">
<title>Node1&#45;&gt;Node4</title>
<g id="a_edge3_Node000001_Node000004"><a xlink:title=" ">
<path fill="none" stroke="#63b8ff" d="M818.7,-63.22C785.04,-51.68 736.3,-34.98 705.91,-24.56"/>
<polygon fill="#63b8ff" stroke="#63b8ff" points="817.59,-66.54 828.19,-66.47 819.86,-59.92 817.59,-66.54"/>
</a>
</g>
</g>
<!-- Node4&#45;&gt;Node4 -->
<g id="edge8_Node000004_Node000004" class="edge">
<title>Node4&#45;&gt;Node4</title>
<g id="a_edge8_Node000004_Node000004"><a xlink:title=" ">
<path fill="none" stroke="#63b8ff" d="M707.61,-33.32C706.33,-38.51 696.13,-42.5 677,-42.5 647.85,-42.5 639.43,-33.23 651.72,-24.58"/>
<polygon fill="#63b8ff" stroke="#63b8ff" points="710.48,-31.29 702.28,-24.58 704.5,-34.94 710.48,-31.29"/>
</a>
</g>
</g>
<!-- Node5 -->
<g id="Node000005" class="node">
<title>Node5</title>
<g id="a_Node000005"><a xlink:href="classRayTracer_1_1BVH.html#a5385dd9961d6eb9148833e83538b24f9" target="_top" xlink:title=" ">
<polygon fill="white" stroke="#666666" points="567,-24.5 457,-24.5 457,-5.5 567,-5.5 567,-24.5"/>
<text text-anchor="middle" x="512" y="-12.5" font-family="Helvetica,sans-Serif" font-size="10.00">RayTracer::BVH::hit</text>
</a>
</g>
</g>
<!-- Node4&#45;&gt;Node5 -->
<g id="edge4_Node000004_Node000005" class="edge">
<title>Node4&#45;&gt;Node5</title>
<g id="a_edge4_Node000004_Node000005"><a xlink:title=" ">
<path fill="none" stroke="#63b8ff" d="M598.62,-15C587.98,-15 577.25,-15 567.16,-15"/>
<polygon fill="#63b8ff" stroke="#63b8ff" points="598.76,-18.5 608.76,-15 598.76,-11.5 598.76,-18.5"/>
</a>
</g>
</g>
<!-- Node6 -->
<g id="Node000006" class="node">
<title>Node6</title>
<g id="a_Node000006"><a xlink:href="classRayTracer_1_1Scene.html#a67328ab35346b609ab3b7220fa08098c" target="_top" xlink:title="Find the closest hit for a ray using the current acceleration state.">
<polygon fill="white" stroke="#666666" points="421,-24.5 302,-24.5 302,-5.5 421,-5.5 421,-24.5"/>
<text text-anchor="middle" x="361.5" y="-12.5" font-family="Helvetica,sans-Serif" font-size="10.00">RayTracer::Scene::hit</text>
</a>
</g>
</g>
<!-- Node5&#45;&gt;Node6 -->
<g id="edge5_Node000005_Node000006" class="edge">
<title>Node5&#45;&gt;Node6</title>
<g id="a_edge5_Node000005_Node000006"><a xlink:title=" ">
<path fill="none" stroke="#63b8ff" d="M446.96,-15C438.33,-15 429.52,-15 421,-15"/>
<polygon fill="#63b8ff" stroke="#63b8ff" points="446.97,-18.5 456.97,-15 446.97,-11.5 446.97,-18.5"/>
</a>
</g>
</g>
<!-- Node7 -->
<g id="Node000007" class="node">
<title>Node7</title>
<g id="a_Node000007"><a xlink:href="classRayTracer_1_1Camera.html#a7cd2251f34b6dda51fe338512e598571" target="_top" xlink:title="Evaluate the rendering equation along a ray, deterministically.">
<polygon fill="white" stroke="#666666" points="266,-30 151,-30 151,0 266,0 266,-30"/>
<text text-anchor="start" x="159" y="-18" font-family="Helvetica,sans-Serif" font-size="10.00">RayTracer::Camera::</text>
<text text-anchor="middle" x="208.5" y="-7" font-family="Helvetica,sans-Serif" font-size="10.00">castRay</text>
</a>
</g>
</g>
<!-- Node6&#45;&gt;Node7 -->
<g id="edge6_Node000006_Node000007" class="edge">
<title>Node6&#45;&gt;Node7</title>
<g id="a_edge6_Node000006_Node000007"><a xlink:title=" ">
<path fill="none" stroke="#63b8ff" d="M291.52,-15C283.12,-15 274.62,-15 266.42,-15"/>
<polygon fill="#63b8ff" stroke="#63b8ff" points="291.69,-18.5 301.69,-15 291.69,-11.5 291.69,-18.5"/>
</a>
</g>
</g>
<!-- Node8 -->
<g id="Node000008" class="node">
<title>Node8</title>
<g id="a_Node000008"><a xlink:href="classRayTracer_1_1Camera.html#a3735fca524537e8a0ce755bb77e9a71f" target="_top" xlink:title="Render the scene into a 2D framebuffer.">
<polygon fill="white" stroke="#666666" points="115,-30 0,-30 0,0 115,0 115,-30"/>
<text text-anchor="start" x="8" y="-18" font-family="Helvetica,sans-Serif" font-size="10.00">RayTracer::Camera::</text>
<text text-anchor="middle" x="57.5" y="-7" font-family="Helvetica,sans-Serif" font-size="10.00">render</text>
</a>
</g>
</g>
<!-- Node7&#45;&gt;Node8 -->
<g id="edge7_Node000007_Node000008" class="edge">
<title>Node7&#45;&gt;Node8</title>
<g id="a_edge7_Node000007_Node000008"><a xlink:title=" ">
<path fill="none" stroke="#63b8ff" d="M140.49,-15C132.01,-15 123.4,-15 115.1,-15"/>
<polygon fill="#63b8ff" stroke="#63b8ff" points="140.74,-18.5 150.74,-15 140.74,-11.5 140.74,-18.5"/>
</a>
</g>
</g>
</g>
</svg>
