<?xml version="1.0" encoding="UTF-8" standalone="no"?>
<!DOCTYPE svg PUBLIC "-//W3C//DTD SVG 1.1//EN"
 "http://www.w3.org/Graphics/SVG/1.1/DTD/svg11.dtd">
<!-- Generated by graphviz version 2.43.0 (0)
 -->
<!-- Title: RayTracer::Plane Pages: 1 -->
<svg width="373pt" height="423pt"
 viewBox="0.00 0.00 372.50 423.00" xmlns="http://www.w3.org/2000/svg" xmlns:xlink="http://www.w3.org/1999/xlink">
<g id="graph0" class="graph" transform="scale(1 1) rotate(0) translate(4 419)">
<title>RayTracer::Plane</title>
<!-- Node1 -->
<g id="Node000001" class="node">
<title>Node1</title>
<g id="a_Node000001"><a xlink:title=" ">
<polygon fill="#999999" stroke="transparent" points="232,-109 140,-109 140,0 232,0 232,-109"/>
<text text-anchor="start" x="145" y="-96.5" font-family="Helvetica,sans-Serif" font-size="10.00">RayTracer::Plane</text>
<text text-anchor="start" x="184" y="-81.5" font-family="Helvetica,sans-Serif" font-size="10.00"> </text>
<text text-anchor="start" x="146.5" y="-66.5" font-family="Helvetica,sans-Serif" font-size="10.00">+</text>
<text text-anchor="start" x="162" y="-66.5" font-family="Helvetica,sans-Serif" font-size="10.00">Plane()</text>
<text text-anchor="start" x="146.5" y="-51.5" font-family="Helvetica,sans-Serif" font-size="10.00">+</text>
<text text-anchor="start" x="162" y="-51.5" font-family="Helvetica,sans-Serif" font-size="10.00">Plane()</text>
<text text-anchor="start" x="146.5" y="-36.5" font-family="Helvetica,sans-Serif" font-size="10.00">+</text>
<text text-anchor="start" x="162" y="-36.5" font-family="Helvetica,sans-Serif" font-size="10.00">~Plane()</text>
<text text-anchor="start" x="146.5" y="-21.5" font-family="Helvetica,sans-Serif" font-size="10.00">+</text>
<text text-anchor="start" x="162" y="-21.5" font-family="Helvetica,sans-Serif" font-size="10.00">hit()</text>
<text text-anchor="start" x="146.5" y="-6.5" font-family="Helvetica,sans-Serif" font-size="10.00">+</text>
<text text-anchor="start" x="162" y="-6.5" font-family="Helvetica,sans-Serif" font-size="10.00">getBounds()</text>
<polygon fill="#666666" stroke="#666666" points="140,-91.5 140,-91.5 232,-91.5 232,-91.5 140,-91.5"/>
<polygon fill="#666666" stroke="#666666" points="140,-76.5 140,-76.5 232,-76.5 232,-76.5 140,-76.5"/>
<polygon fill="none" stroke="#666666" points="140,0 140,-109 232,-109 232,0 140,0"/>
</a>
</g>
</g>
<!-- Node2 -->
<g id="Node000002" class="node">
<title>Node2</title>
<g id="a_Node000002"><a xlink:href="classRayTracer_1_1APrimitive.html" target="_top" xlink:title="Abstract base class for all primitives (renderable objects). Primitives have geometry and a material.">
<polygon fill="white" stroke="transparent" points="116,-340 0,-340 0,-231 116,-231 116,-340"/>
<text text-anchor="start" x="5" y="-327.5" font-family="Helvetica,sans-Serif" font-size="10.00">RayTracer::APrimitive</text>
<text text-anchor="start" x="13.5" y="-312.5" font-family="Helvetica,sans-Serif" font-size="10.00">&#45;</text>
<text text-anchor="start" x="31" y="-312.5" font-family="Helvetica,sans-Serif" font-size="10.00">_material</text>
<text text-anchor="start" x="11" y="-297.5" font-family="Helvetica,sans-Serif" font-size="10.00">+</text>
<text text-anchor="start" x="31" y="-297.5" font-family="Helvetica,sans-Serif" font-size="10.00">APrimitive()</text>
<text text-anchor="start" x="11" y="-282.5" font-family="Helvetica,sans-Serif" font-size="10.00">+</text>
<text text-anchor="start" x="31" y="-282.5" font-family="Helvetica,sans-Serif" font-size="10.00">~APrimitive()</text>
<text text-anchor="start" x="11" y="-267.5" font-family="Helvetica,sans-Serif" font-size="10.00">+</text>
<text text-anchor="start" x="31" y="-267.5" font-family="Helvetica,sans-Serif" font-size="10.00">hit()</text>
<text text-anchor="start" x="11" y="-252.5" font-family="Helvetica,sans-Serif" font-size="10.00">+</text>
<text text-anchor="start" x="31" y="-252.5" font-family="Helvetica,sans-Serif" font-size="10.00">getBounds()</text>
<text text-anchor="start" x="11" y="-237.5" font-family="Helvetica,sans-Serif" font-size="10.00">+</text>
<text text-anchor="start" x="31" y="-237.5" font-family="Helvetica,sans-Serif" font-size="10.00">getMaterial()</text>
<polygon fill="#666666" stroke="#666666" points="0,-322.5 0,-322.5 116,-322.5 116,-322.5 0,-322.5"/>
<polygon fill="#666666" stroke="#666666" points="0,-307.5 0,-307.5 29,-307.5 29,-307.5 0,-307.5"/>
<polygon fill="#666666" stroke="#666666" points="29,-307.5 29,-307.5 116,-307.5 116,-307.5 29,-307.5"/>
<polygon fill="none" stroke="#666666" points="0,-231 0,-340 116,-340 116,-231 0,-231"/>
</a>
</g>
</g>
<!-- Node2&#45;&gt;Node1 -->
<g id="edge1_Node000001_Node000002" class="edge">
<title>Node2&#45;&gt;Node1</title>
<g id="a_edge1_Node000001_Node000002"><a xlink:title=" ">
<path fill="none" stroke="#63b8ff" d="M89.53,-222.05C100.47,-200.92 113.01,-177.29 125,-156 133.67,-140.62 143.44,-124.16 152.58,-109.1"/>
<polygon fill="none" stroke="#63b8ff" points="86.41,-220.45 84.94,-230.94 92.64,-223.66 86.41,-220.45"/>
</a>
</g>
</g>
<!-- Node3 -->
<g id="Node000003" class="node">
<title>Node3</title>
<g id="a_Node000003"><a xlink:href="classGeometry_1_1Point3D.html" target="_top" xlink:title="Represents a 3D point in space.">
<polygon fill="white" stroke="transparent" points="237.5,-377.5 134.5,-377.5 134.5,-193.5 237.5,-193.5 237.5,-377.5"/>
<text text-anchor="start" x="140" y="-365.5" font-family="Helvetica,sans-Serif" font-size="10.00">Geometry::Point3D</text>
<text text-anchor="start" x="143" y="-350.5" font-family="Helvetica,sans-Serif" font-size="10.00">+</text>
<text text-anchor="start" x="160" y="-350.5" font-family="Helvetica,sans-Serif" font-size="10.00">x</text>
<text text-anchor="start" x="143" y="-335.5" font-family="Helvetica,sans-Serif" font-size="10.00">+</text>
<text text-anchor="start" x="160" y="-335.5" font-family="Helvetica,sans-Serif" font-size="10.00">y</text>
<text text-anchor="start" x="143" y="-320.5" font-family="Helvetica,sans-Serif" font-size="10.00">+</text>
<text text-anchor="start" x="160" y="-320.5" font-family="Helvetica,sans-Serif" font-size="10.00">z</text>
<text text-anchor="start" x="143" y="-305.5" font-family="Helvetica,sans-Serif" font-size="10.00">+</text>
<text text-anchor="start" x="160" y="-305.5" font-family="Helvetica,sans-Serif" font-size="10.00">Point3D()</text>
<text text-anchor="start" x="143" y="-290.5" font-family="Helvetica,sans-Serif" font-size="10.00">+</text>
<text text-anchor="start" x="160" y="-290.5" font-family="Helvetica,sans-Serif" font-size="10.00">Point3D()</text>
<text text-anchor="start" x="143" y="-275.5" font-family="Helvetica,sans-Serif" font-size="10.00">+</text>
<text text-anchor="start" x="160" y="-275.5" font-family="Helvetica,sans-Serif" font-size="10.00">~Point3D()</text>
<text text-anchor="start" x="143" y="-260.5" font-family="Helvetica,sans-Serif" font-size="10.00">+</text>
<text text-anchor="start" x="160" y="-260.5" font-family="Helvetica,sans-Serif" font-size="10.00">operator+()</text>
<text text-anchor="start" x="143" y="-245.5" font-family="Helvetica,sans-Serif" font-size="10.00">+</text>
<text text-anchor="start" x="160" y="-245.5" font-family="Helvetica,sans-Serif" font-size="10.00">operator&#45;()</text>
<text text-anchor="start" x="143" y="-230.5" font-family="Helvetica,sans-Serif" font-size="10.00">+</text>
<text text-anchor="start" x="160" y="-230.5" font-family="Helvetica,sans-Serif" font-size="10.00">operator+=()</text>
<text text-anchor="start" x="143" y="-215.5" font-family="Helvetica,sans-Serif" font-size="10.00">+</text>
<text text-anchor="start" x="160" y="-215.5" font-family="Helvetica,sans-Serif" font-size="10.00">operator&#45;()</text>
<text text-anchor="start" x="143" y="-200.5" font-family="Helvetica,sans-Serif" font-size="10.00">+</text>
<text text-anchor="start" x="160" y="-200.5" font-family="Helvetica,sans-Serif" font-size="10.00">operator=()</text>
<polygon fill="#666666" stroke="#666666" points="135,-360.5 135,-360.5 238,-360.5 238,-360.5 135,-360.5"/>
<polygon fill="#666666" stroke="#666666" points="135,-315.5 135,-315.5 158,-315.5 158,-315.5 135,-315.5"/>
<polygon fill="#666666" stroke="#666666" points="158,-315.5 158,-315.5 238,-315.5 238,-315.5 158,-315.5"/>
<polygon fill="none" stroke="#666666" points="134.5,-193.5 134.5,-377.5 237.5,-377.5 237.5,-193.5 134.5,-193.5"/>
</a>
</g>
</g>
<!-- Node3&#45;&gt;Node1 -->
<g id="edge2_Node000001_Node000003" class="edge">
<title>Node3&#45;&gt;Node1</title>
<g id="a_edge2_Node000001_Node000003"><a xlink:title=" ">
<path fill="none" stroke="#63b8ff" d="M186,-193.34C186,-169.24 186,-143.7 186,-121.23"/>
<polygon fill="none" stroke="#63b8ff" points="186,-121.1 182,-115.1 186,-109.1 190,-115.1 186,-121.1"/>
</a>
</g>
<text text-anchor="middle" x="204.5" y="-130" font-family="Helvetica,sans-Serif" font-size="10.00" fill="grey"> &#45;_point</text>
</g>
<!-- Node4 -->
<g id="Node000004" class="node">
<title>Node4</title>
<g id="a_Node000004"><a xlink:href="classGeometry_1_1Vector3D.html" target="_top" xlink:title="Represents a 3D vector for directions or displacements.">
<polygon fill="white" stroke="transparent" points="364.5,-415 255.5,-415 255.5,-156 364.5,-156 364.5,-415"/>
<text text-anchor="start" x="261" y="-402.5" font-family="Helvetica,sans-Serif" font-size="10.00">Geometry::Vector3D</text>
<text text-anchor="start" x="264" y="-387.5" font-family="Helvetica,sans-Serif" font-size="10.00">+</text>
<text text-anchor="start" x="281" y="-387.5" font-family="Helvetica,sans-Serif" font-size="10.00">x</text>
<text text-anchor="start" x="264" y="-372.5" font-family="Helvetica,sans-Serif" font-size="10.00">+</text>
<text text-anchor="start" x="281" y="-372.5" font-family="Helvetica,sans-Serif" font-size="10.00">y</text>
<text text-anchor="start" x="264" y="-357.5" font-family="Helvetica,sans-Serif" font-size="10.00">+</text>
<text text-anchor="start" x="281" y="-357.5" font-family="Helvetica,sans-Serif" font-size="10.00">z</text>
<text text-anchor="start" x="264" y="-342.5" font-family="Helvetica,sans-Serif" font-size="10.00">+</text>
<text text-anchor="start" x="281" y="-342.5" font-family="Helvetica,sans-Serif" font-size="10.00">Vector3D()</text>
<text text-anchor="start" x="264" y="-327.5" font-family="Helvetica,sans-Serif" font-size="10.00">+</text>
<text text-anchor="start" x="281" y="-327.5" font-family="Helvetica,sans-Serif" font-size="10.00">Vector3D()</text>
<text text-anchor="start" x="264" y="-312.5" font-family="Helvetica,sans-Serif" font-size="10.00">+</text>
<text text-anchor="start" x="281" y="-312.5" font-family="Helvetica,sans-Serif" font-size="10.00">~Vector3D()</text>
<text text-anchor="start" x="264" y="-297.5" font-family="Helvetica,sans-Serif" font-size="10.00">+</text>
<text text-anchor="start" x="281" y="-297.5" font-family="Helvetica,sans-Serif" font-size="10.00">length()</text>
<text text-anchor="start" x="264" y="-282.5" font-family="Helvetica,sans-Serif" font-size="10.00">+</text>
<text text-anchor="start" x="281" y="-282.5" font-family="Helvetica,sans-Serif" font-size="10.00">length()</text>
<text text-anchor="start" x="264" y="-267.5" font-family="Helvetica,sans-Serif" font-size="10.00">+</text>
<text text-anchor="start" x="281" y="-267.5" font-family="Helvetica,sans-Serif" font-size="10.00">dot()</text>
<text text-anchor="start" x="264" y="-252.5" font-family="Helvetica,sans-Serif" font-size="10.00">+</text>
<text text-anchor="start" x="281" y="-252.5" font-family="Helvetica,sans-Serif" font-size="10.00">normalize()</text>
<text text-anchor="start" x="264" y="-237.5" font-family="Helvetica,sans-Serif" font-size="10.00">+</text>
<text text-anchor="start" x="281" y="-237.5" font-family="Helvetica,sans-Serif" font-size="10.00">operator+()</text>
<text text-anchor="start" x="264" y="-222.5" font-family="Helvetica,sans-Serif" font-size="10.00">+</text>
<text text-anchor="start" x="281" y="-222.5" font-family="Helvetica,sans-Serif" font-size="10.00">operator+=()</text>
<text text-anchor="start" x="264" y="-207.5" font-family="Helvetica,sans-Serif" font-size="10.00">+</text>
<text text-anchor="start" x="281" y="-207.5" font-family="Helvetica,sans-Serif" font-size="10.00">operator&#45;()</text>
<text text-anchor="start" x="281" y="-192.5" font-family="Helvetica,sans-Serif" font-size="10.00">and 10 more...</text>
<text text-anchor="start" x="264" y="-177.5" font-family="Helvetica,sans-Serif" font-size="10.00">+</text>
<text text-anchor="start" x="281" y="-177.5" font-family="Helvetica,sans-Serif" font-size="10.00">dot()</text>
<text text-anchor="start" x="264" y="-162.5" font-family="Helvetica,sans-Serif" font-size="10.00">+</text>
<text text-anchor="start" x="281" y="-162.5" font-family="Helvetica,sans-Serif" font-size="10.00">cross()</text>
<polygon fill="#666666" stroke="#666666" points="256,-397.5 256,-397.5 365,-397.5 365,-397.5 256,-397.5"/>
<polygon fill="#666666" stroke="#666666" points="256,-352.5 256,-352.5 279,-352.5 279,-352.5 256,-352.5"/>
<polygon fill="#666666" stroke="#666666" points="279,-352.5 279,-352.5 365,-352.5 365,-352.5 279,-352.5"/>
<polygon fill="none" stroke="#666666" points="255.5,-156 255.5,-415 364.5,-415 364.5,-156 255.5,-156"/>
</a>
</g>
</g>
<!-- Node4&#45;&gt;Node1 -->
<g id="edge3_Node000001_Node000004" class="edge">
<title>Node4&#45;&gt;Node1</title>
<g id="a_edge3_Node000001_Node000004"><a xlink:title=" ">
<path fill="none" stroke="#63b8ff" d="M255.43,-171.72C252.62,-166.39 249.8,-161.12 247,-156 240.48,-144.09 233.23,-131.58 226.07,-119.6"/>
<polygon fill="none" stroke="#63b8ff" points="226.02,-119.5 219.5,-116.43 219.83,-109.22 226.35,-112.3 226.02,-119.5"/>
</a>
</g>
<text text-anchor="middle" x="258.5" y="-130" font-family="Helvetica,sans-Serif" font-size="10.00" fill="grey"> &#45;_normal</text>
</g>
</g>
</svg>
