<?xml version="1.0" encoding="UTF-8" standalone="no"?>
<!DOCTYPE svg PUBLIC "-//W3C//DTD SVG 1.1//EN"
 "http://www.w3.org/Graphics/SVG/1.1/DTD/svg11.dtd">
<!-- Generated by graphviz version 2.43.0 (0)
 -->
<!-- Title: Geometry::Vector3D::operator* Pages: 1 -->
<svg width="459pt" height="316pt"
 viewBox="0.00 0.00 459.00 315.50" xmlns="http://www.w3.org/2000/svg" xmlns:xlink="http://www.w3.org/1999/xlink">
<g id="graph0" class="graph" transform="scale(1 1) rotate(0) translate(4 311.5)">
<title>Geometry::Vector3D::operator*</title>
<!-- Node1 -->
<g id="Node000001" class="node">
<title>Node1</title>
<g id="a_Node000001"><a xlink:title=" ">
<polygon fill="#999999" stroke="#666666" points="451,-153.5 336,-153.5 336,-123.5 451,-123.5 451,-153.5"/>
<text text-anchor="start" x="344" y="-141.5" font-family="Helvetica,sans-Serif" font-size="10.00">Geometry::Vector3D</text>
<text text-anchor="middle" x="393.5" y="-130.5" font-family="Helvetica,sans-Serif" font-size="10.00">::operator*</text>
</a>
</g>
</g>
<!-- Node2 -->
<g id="Node000002" class="node">
<title>Node2</title>
<g id="a_Node000002"><a xlink:href="classRayTracer_1_1Camera.html#a7cd2251f34b6dda51fe338512e598571" target="_top" xlink:title="Evaluate the rendering equation along a ray, deterministically.">
<polygon fill="white" stroke="#666666" points="283,-289.5 168,-289.5 168,-259.5 283,-259.5 283,-289.5"/>
<text text-anchor="start" x="176" y="-277.5" font-family="Helvetica,sans-Serif" font-size="10.00">RayTracer::Camera::</text>
<text text-anchor="middle" x="225.5" y="-266.5" font-family="Helvetica,sans-Serif" font-size="10.00">castRay</text>
</a>
</g>
</g>
<!-- Node1&#45;&gt;Node2 -->
<g id="edge1_Node000001_Node000002" class="edge">
<title>Node1&#45;&gt;Node2</title>
<g id="a_edge1_Node000001_Node000002"><a xlink:title=" ">
<path fill="none" stroke="#63b8ff" d="M378.71,-162.12C362.79,-187.43 334.34,-227.11 300,-250.5 294.79,-254.05 289.01,-257.11 283.05,-259.73"/>
<polygon fill="#63b8ff" stroke="#63b8ff" points="381.75,-163.86 384,-153.5 375.79,-160.2 381.75,-163.86"/>
</a>
</g>
</g>
<!-- Node4 -->
<g id="Node000004" class="node">
<title>Node4</title>
<g id="a_Node000004"><a xlink:href="classRayTracer_1_1Phong.html#a2526bd20be0b2cbb045250c4a6573b27" target="_top" xlink:title="Evaluate the BRDF for a given pair of directions.">
<polygon fill="white" stroke="#666666" points="300,-241 151,-241 151,-222 300,-222 300,-241"/>
<text text-anchor="middle" x="225.5" y="-229" font-family="Helvetica,sans-Serif" font-size="10.00">RayTracer::Phong::evaluate</text>
</a>
</g>
</g>
<!-- Node1&#45;&gt;Node4 -->
<g id="edge4_Node000001_Node000004" class="edge">
<title>Node1&#45;&gt;Node4</title>
<g id="a_edge4_Node000001_Node000004"><a xlink:title=" ">
<path fill="none" stroke="#63b8ff" d="M370.8,-160.82C353.21,-177.67 326.98,-200.11 300,-213.5 293.17,-216.89 285.67,-219.66 278.14,-221.93"/>
<polygon fill="#63b8ff" stroke="#63b8ff" points="373.56,-163.02 378.25,-153.52 368.66,-158.02 373.56,-163.02"/>
</a>
</g>
</g>
<!-- Node5 -->
<g id="Node000005" class="node">
<title>Node5</title>
<g id="a_Node000005"><a xlink:href="classRayTracer_1_1Cone.html#a19623c2790fd4ab917eb624508e57e5d" target="_top" xlink:title="Test ray–cone intersection using the quadratic form of the cone equation.">
<polygon fill="white" stroke="#666666" points="282.5,-204 168.5,-204 168.5,-185 282.5,-185 282.5,-204"/>
<text text-anchor="middle" x="225.5" y="-192" font-family="Helvetica,sans-Serif" font-size="10.00">RayTracer::Cone::hit</text>
</a>
</g>
</g>
<!-- Node1&#45;&gt;Node5 -->
<g id="edge5_Node000001_Node000005" class="edge">
<title>Node1&#45;&gt;Node5</title>
<g id="a_edge5_Node000001_Node000005"><a xlink:title=" ">
<path fill="none" stroke="#63b8ff" d="M349.8,-157.6C334.3,-164.12 316.54,-171.11 300,-176.5 290.51,-179.59 280.17,-182.44 270.33,-184.91"/>
<polygon fill="#63b8ff" stroke="#63b8ff" points="351.3,-160.77 359.12,-153.63 348.55,-154.33 351.3,-160.77"/>
</a>
</g>
</g>
<!-- Node6 -->
<g id="Node000006" class="node">
<title>Node6</title>
<g id="a_Node000006"><a xlink:href="classRayTracer_1_1Cylinder.html#ab42450e2290b96bccdf83ba79fa9d8af" target="_top" xlink:title="Test ray–cylinder intersection using the quadratic form of the cylinder equation.">
<polygon fill="white" stroke="#666666" points="290.5,-167 160.5,-167 160.5,-148 290.5,-148 290.5,-167"/>
<text text-anchor="middle" x="225.5" y="-155" font-family="Helvetica,sans-Serif" font-size="10.00">RayTracer::Cylinder::hit</text>
</a>
</g>
</g>
<!-- Node1&#45;&gt;Node6 -->
<g id="edge6_Node000001_Node000006" class="edge">
<title>Node1&#45;&gt;Node6</title>
<g id="a_edge6_Node000001_Node000006"><a xlink:title=" ">
<path fill="none" stroke="#63b8ff" d="M325.78,-146.14C314.18,-147.46 302.14,-148.84 290.61,-150.16"/>
<polygon fill="#63b8ff" stroke="#63b8ff" points="326.3,-149.6 335.84,-144.99 325.5,-142.65 326.3,-149.6"/>
</a>
</g>
</g>
<!-- Node7 -->
<g id="Node000007" class="node">
<title>Node7</title>
<g id="a_Node000007"><a xlink:href="classRayTracer_1_1Plane.html#a7b741696eb186f6ec9df62e58e795916" target="_top" xlink:title="Test ray–plane intersection using the algebraic plane equation.">
<polygon fill="white" stroke="#666666" points="283.5,-130 167.5,-130 167.5,-111 283.5,-111 283.5,-130"/>
<text text-anchor="middle" x="225.5" y="-118" font-family="Helvetica,sans-Serif" font-size="10.00">RayTracer::Plane::hit</text>
</a>
</g>
</g>
<!-- Node1&#45;&gt;Node7 -->
<g id="edge7_Node000001_Node000007" class="edge">
<title>Node1&#45;&gt;Node7</title>
<g id="a_edge7_Node000001_Node000007"><a xlink:title=" ">
<path fill="none" stroke="#63b8ff" d="M325.83,-131.27C311.89,-129.76 297.31,-128.18 283.75,-126.71"/>
<polygon fill="#63b8ff" stroke="#63b8ff" points="325.52,-134.76 335.84,-132.36 326.27,-127.8 325.52,-134.76"/>
</a>
</g>
</g>
<!-- Node8 -->
<g id="Node000008" class="node">
<title>Node8</title>
<g id="a_Node000008"><a xlink:href="classRayTracer_1_1Phong.html#af9bc5125da9a856062f5284e36ceb5b2" target="_top" xlink:title="Return the probability density of the direction from sample().">
<polygon fill="white" stroke="#666666" points="286.5,-93 164.5,-93 164.5,-74 286.5,-74 286.5,-93"/>
<text text-anchor="middle" x="225.5" y="-81" font-family="Helvetica,sans-Serif" font-size="10.00">RayTracer::Phong::pdf</text>
</a>
</g>
</g>
<!-- Node1&#45;&gt;Node8 -->
<g id="edge8_Node000001_Node000008" class="edge">
<title>Node1&#45;&gt;Node8</title>
<g id="a_edge8_Node000001_Node000008"><a xlink:title=" ">
<path fill="none" stroke="#63b8ff" d="M347.32,-119.69C332.39,-113.8 315.61,-107.53 300,-102.5 289.34,-99.06 277.65,-95.81 266.8,-93"/>
<polygon fill="#63b8ff" stroke="#63b8ff" points="346.25,-123.03 356.83,-123.48 348.84,-116.53 346.25,-123.03"/>
</a>
</g>
</g>
<!-- Node9 -->
<g id="Node000009" class="node">
<title>Node9</title>
<g id="a_Node000009"><a xlink:href="classRayTracer_1_1Glass.html#a2c9fb925e8ccd41d68e1126530937c84" target="_top" xlink:title="Return the deterministic bounce direction for this material.">
<polygon fill="white" stroke="#666666" points="295.5,-56 155.5,-56 155.5,-37 295.5,-37 295.5,-56"/>
<text text-anchor="middle" x="225.5" y="-44" font-family="Helvetica,sans-Serif" font-size="10.00">RayTracer::Glass::sample</text>
</a>
</g>
</g>
<!-- Node1&#45;&gt;Node9 -->
<g id="edge9_Node000001_Node000009" class="edge">
<title>Node1&#45;&gt;Node9</title>
<g id="a_edge9_Node000001_Node000009"><a xlink:title=" ">
<path fill="none" stroke="#63b8ff" d="M370.01,-116.31C352.34,-100.04 326.38,-78.59 300,-65.5 292.33,-61.69 283.81,-58.59 275.38,-56.09"/>
<polygon fill="#63b8ff" stroke="#63b8ff" points="367.84,-119.07 377.52,-123.37 372.63,-113.97 367.84,-119.07"/>
</a>
</g>
</g>
<!-- Node10 -->
<g id="Node000010" class="node">
<title>Node10</title>
<g id="a_Node000010"><a xlink:href="classRayTracer_1_1Phong.html#a2fe3eab64f5b9ab9ab73976f0c8b80fd" target="_top" xlink:title="Return the deterministic bounce direction for this material.">
<polygon fill="white" stroke="#666666" points="297,-19 154,-19 154,0 297,0 297,-19"/>
<text text-anchor="middle" x="225.5" y="-7" font-family="Helvetica,sans-Serif" font-size="10.00">RayTracer::Phong::sample</text>
</a>
</g>
</g>
<!-- Node1&#45;&gt;Node10 -->
<g id="edge10_Node000001_Node000010" class="edge">
<title>Node1&#45;&gt;Node10</title>
<g id="a_edge10_Node000001_Node000010"><a xlink:title=" ">
<path fill="none" stroke="#63b8ff" d="M378.88,-114.9C363.11,-89.69 334.78,-50.42 300,-28.5 293.87,-24.64 286.98,-21.55 279.94,-19.1"/>
<polygon fill="#63b8ff" stroke="#63b8ff" points="375.92,-116.77 384.11,-123.49 381.9,-113.13 375.92,-116.77"/>
</a>
</g>
</g>
<!-- Node2&#45;&gt;Node2 -->
<g id="edge2_Node000002_Node000002" class="edge">
<title>Node2&#45;&gt;Node2</title>
<g id="a_edge2_Node000002_Node000002"><a xlink:title=" ">
<path fill="none" stroke="#63b8ff" d="M254.56,-300.1C250.59,-304.47 240.9,-307.5 225.5,-307.5 199.56,-307.5 189.84,-298.91 196.32,-289.78"/>
<polygon fill="#63b8ff" stroke="#63b8ff" points="258.06,-299.82 254.68,-289.78 251.06,-299.73 258.06,-299.82"/>
</a>
</g>
</g>
<!-- Node3 -->
<g id="Node000003" class="node">
<title>Node3</title>
<g id="a_Node000003"><a xlink:href="classRayTracer_1_1Camera.html#a32d328268bd310d35df62adcef914187" target="_top" xlink:title="Render the scene into a 2D framebuffer.">
<polygon fill="white" stroke="#666666" points="115,-289.5 0,-289.5 0,-259.5 115,-259.5 115,-289.5"/>
<text text-anchor="start" x="8" y="-277.5" font-family="Helvetica,sans-Serif" font-size="10.00">RayTracer::Camera::</text>
<text text-anchor="middle" x="57.5" y="-266.5" font-family="Helvetica,sans-Serif" font-size="10.00">render</text>
</a>
</g>
</g>
<!-- Node2&#45;&gt;Node3 -->
<g id="edge3_Node000002_Node000003" class="edge">
<title>Node2&#45;&gt;Node3</title>
<g id="a_edge3_Node000002_Node000003"><a xlink:title=" ">
<path fill="none" stroke="#63b8ff" d="M157.71,-274.5C143.62,-274.5 128.87,-274.5 115.19,-274.5"/>
<polygon fill="#63b8ff" stroke="#63b8ff" points="157.84,-278 167.84,-274.5 157.84,-271 157.84,-278"/>
</a>
</g>
</g>
</g>
</svg>
