<?xml version="1.0" encoding="UTF-8" standalone="no"?>
<!DOCTYPE svg PUBLIC "-//W3C//DTD SVG 1.1//EN"
 "http://www.w3.org/Graphics/SVG/1.1/DTD/svg11.dtd">
<!-- Generated by graphviz version 2.43.0 (0)
 -->
<!-- Title: Geometry::Point3D::Point3D Pages: 1 -->
<svg width="838pt" height="676pt"
 viewBox="0.00 0.00 838.00 675.50" xmlns="http://www.w3.org/2000/svg" xmlns:xlink="http://www.w3.org/1999/xlink">
<g id="graph0" class="graph" transform="scale(1 1) rotate(0) translate(4 671.5)">
<title>Geometry::Point3D::Point3D</title>
<!-- Node1 -->
<g id="Node000001" class="node">
<title>Node1</title>
<g id="a_Node000001"><a xlink:title=" ">
<polygon fill="#999999" stroke="#666666" points="830,-321.5 715,-321.5 715,-291.5 830,-291.5 830,-321.5"/>
<text text-anchor="start" x="723" y="-309.5" font-family="Helvetica,sans-Serif" font-size="10.00">Geometry::Point3D::</text>
<text text-anchor="middle" x="772.5" y="-298.5" font-family="Helvetica,sans-Serif" font-size="10.00">Point3D</text>
</a>
</g>
</g>
<!-- Node2 -->
<g id="Node000002" class="node">
<title>Node2</title>
<g id="a_Node000002"><a xlink:href="classGeometry_1_1Ray.html#ab2ee230ea6c5b866a94d7bfd57c98845" target="_top" xlink:title="Compute a point at parameter t along the ray.">
<polygon fill="white" stroke="#666666" points="655.5,-558 551.5,-558 551.5,-539 655.5,-539 655.5,-558"/>
<text text-anchor="middle" x="603.5" y="-546" font-family="Helvetica,sans-Serif" font-size="10.00">Geometry::Ray::at</text>
</a>
</g>
</g>
<!-- Node1&#45;&gt;Node2 -->
<g id="edge1_Node000001_Node000002" class="edge">
<title>Node1&#45;&gt;Node2</title>
<g id="a_edge1_Node000001_Node000002"><a xlink:title=" ">
<path fill="none" stroke="#63b8ff" d="M766.04,-331.55C755.72,-373.59 729.72,-458.86 679,-511.5 666.88,-524.08 649.57,-533.04 634.69,-538.98"/>
<polygon fill="#63b8ff" stroke="#63b8ff" points="769.49,-332.15 768.38,-321.61 762.68,-330.54 769.49,-332.15"/>
</a>
</g>
</g>
<!-- Node6 -->
<g id="Node000006" class="node">
<title>Node6</title>
<g id="a_Node000006"><a xlink:href="classRayTracer_1_1BVH.html#a6d1f432f54cdd62367f622f22be4eb90" target="_top" xlink:title=" ">
<polygon fill="white" stroke="#666666" points="287.5,-447 165.5,-447 165.5,-428 287.5,-428 287.5,-447"/>
<text text-anchor="middle" x="226.5" y="-435" font-family="Helvetica,sans-Serif" font-size="10.00">RayTracer::BVH::build</text>
</a>
</g>
</g>
<!-- Node1&#45;&gt;Node6 -->
<g id="edge5_Node000001_Node000006" class="edge">
<title>Node1&#45;&gt;Node6</title>
<g id="a_edge5_Node000001_Node000006"><a xlink:title=" ">
<path fill="none" stroke="#63b8ff" d="M761.49,-331.05C747.75,-361.24 720.01,-411.46 679,-435.5 540.55,-516.67 334.75,-469.28 257.89,-447.05"/>
<polygon fill="#63b8ff" stroke="#63b8ff" points="764.8,-332.2 765.61,-321.64 758.39,-329.39 764.8,-332.2"/>
</a>
</g>
</g>
<!-- Node8 -->
<g id="Node000008" class="node">
<title>Node8</title>
<g id="a_Node000008"><a xlink:href="classRayTracer_1_1Camera.html#a27ae8f34a8cb15a3ffd5e23498d894cb" target="_top" xlink:title="Rebuild the _screen rectangle from the current _transform and _fov.">
<polygon fill="white" stroke="#666666" points="677,-345.5 530,-345.5 530,-315.5 677,-315.5 677,-345.5"/>
<text text-anchor="start" x="538" y="-333.5" font-family="Helvetica,sans-Serif" font-size="10.00">RayTracer::Camera::</text>
<text text-anchor="middle" x="603.5" y="-322.5" font-family="Helvetica,sans-Serif" font-size="10.00">buildScreenFromTransform</text>
</a>
</g>
</g>
<!-- Node1&#45;&gt;Node8 -->
<g id="edge8_Node000001_Node000008" class="edge">
<title>Node1&#45;&gt;Node8</title>
<g id="a_edge8_Node000001_Node000008"><a xlink:title=" ">
<path fill="none" stroke="#63b8ff" d="M704.86,-316.08C695.79,-317.38 686.44,-318.72 677.26,-320.04"/>
<polygon fill="#63b8ff" stroke="#63b8ff" points="705.56,-319.51 714.96,-314.63 704.57,-312.58 705.56,-319.51"/>
</a>
</g>
</g>
<!-- Node11 -->
<g id="Node000011" class="node">
<title>Node11</title>
<g id="a_Node000011"><a xlink:href="classGeometry_1_1AABB.html#ab0044437bd506a05e83b4fa2154112bd" target="_top" xlink:title=" ">
<polygon fill="white" stroke="#666666" points="298,-386 155,-386 155,-367 298,-367 298,-386"/>
<text text-anchor="middle" x="226.5" y="-374" font-family="Helvetica,sans-Serif" font-size="10.00">Geometry::AABB::centroid</text>
</a>
</g>
</g>
<!-- Node1&#45;&gt;Node11 -->
<g id="edge11_Node000001_Node000011" class="edge">
<title>Node1&#45;&gt;Node11</title>
<g id="a_edge11_Node000001_Node000011"><a xlink:title=" ">
<path fill="none" stroke="#63b8ff" d="M740.5,-326.88C723.16,-337.15 700.72,-348.64 679,-354.5 548.11,-389.83 388.28,-387.5 298.16,-382.24"/>
<polygon fill="#63b8ff" stroke="#63b8ff" points="742.35,-329.85 749.07,-321.66 738.71,-323.87 742.35,-329.85"/>
</a>
</g>
</g>
<!-- Node12 -->
<g id="Node000012" class="node">
<title>Node12</title>
<g id="a_Node000012"><a xlink:href="classRayTracer_1_1DirectionalLight.html#a7170b3c9d9e2c2e697139f0dae68ab5b" target="_top" xlink:title="Compute light contribution, shadow ray cast in opposite direction.">
<polygon fill="white" stroke="#666666" points="677.5,-297.5 529.5,-297.5 529.5,-267.5 677.5,-267.5 677.5,-297.5"/>
<text text-anchor="start" x="537.5" y="-285.5" font-family="Helvetica,sans-Serif" font-size="10.00">RayTracer::DirectionalLight</text>
<text text-anchor="middle" x="603.5" y="-274.5" font-family="Helvetica,sans-Serif" font-size="10.00">::computeLight</text>
</a>
</g>
</g>
<!-- Node1&#45;&gt;Node12 -->
<g id="edge13_Node000001_Node000012" class="edge">
<title>Node1&#45;&gt;Node12</title>
<g id="a_edge13_Node000001_Node000012"><a xlink:title=" ">
<path fill="none" stroke="#63b8ff" d="M704.94,-296.93C695.94,-295.64 686.66,-294.31 677.56,-293"/>
<polygon fill="#63b8ff" stroke="#63b8ff" points="704.57,-300.42 714.96,-298.37 705.56,-293.49 704.57,-300.42"/>
</a>
</g>
</g>
<!-- Node13 -->
<g id="Node000013" class="node">
<title>Node13</title>
<g id="a_Node000013"><a xlink:href="classRayTracer_1_1PointLight.html#a4fdb35dd47674e655119b54c30b48b20" target="_top" xlink:title="Compute light contribution.">
<polygon fill="white" stroke="#666666" points="663,-249.5 544,-249.5 544,-219.5 663,-219.5 663,-249.5"/>
<text text-anchor="start" x="552" y="-237.5" font-family="Helvetica,sans-Serif" font-size="10.00">RayTracer::PointLight</text>
<text text-anchor="middle" x="603.5" y="-226.5" font-family="Helvetica,sans-Serif" font-size="10.00">::computeLight</text>
</a>
</g>
</g>
<!-- Node1&#45;&gt;Node13 -->
<g id="edge14_Node000001_Node000013" class="edge">
<title>Node1&#45;&gt;Node13</title>
<g id="a_edge14_Node000001_Node000013"><a xlink:title=" ">
<path fill="none" stroke="#63b8ff" d="M736.34,-286.49C719.34,-277.27 698.44,-266.61 679,-258.5 671.35,-255.31 663.12,-252.28 655.01,-249.51"/>
<polygon fill="#63b8ff" stroke="#63b8ff" points="734.9,-289.69 745.35,-291.43 738.26,-283.55 734.9,-289.69"/>
</a>
</g>
</g>
<!-- Node14 -->
<g id="Node000014" class="node">
<title>Node14</title>
<g id="a_Node000014"><a xlink:href="namespaceRaytracer.html#a4804feabf04b641269bc1db2afd57459" target="_top" xlink:title=" ">
<polygon fill="white" stroke="#666666" points="669,-201.5 538,-201.5 538,-171.5 669,-171.5 669,-201.5"/>
<text text-anchor="start" x="546" y="-189.5" font-family="Helvetica,sans-Serif" font-size="10.00">Raytracer::fromNode</text>
<text text-anchor="middle" x="603.5" y="-178.5" font-family="Helvetica,sans-Serif" font-size="10.00">&lt; Geometry::Point3D &gt;</text>
</a>
</g>
</g>
<!-- Node1&#45;&gt;Node14 -->
<g id="edge15_Node000001_Node000014" class="edge">
<title>Node1&#45;&gt;Node14</title>
<g id="a_edge15_Node000001_Node000014"><a xlink:title=" ">
<path fill="none" stroke="#63b8ff" d="M754.58,-283.22C737.68,-261.54 709.86,-229.75 679,-210.5 673.58,-207.12 667.64,-204.17 661.55,-201.61"/>
<polygon fill="#63b8ff" stroke="#63b8ff" points="751.86,-285.43 760.71,-291.27 757.43,-281.19 751.86,-285.43"/>
</a>
</g>
</g>
<!-- Node15 -->
<g id="Node000015" class="node">
<title>Node15</title>
<g id="a_Node000015"><a xlink:href="classRayTracer_1_1Camera.html#a4a7f4b6a0e5bf44d17162fb324c289bd" target="_top" xlink:title="Build a world&#45;space ray from normalized screen coordinates.">
<polygon fill="white" stroke="#666666" points="470.5,-115.5 355.5,-115.5 355.5,-85.5 470.5,-85.5 470.5,-115.5"/>
<text text-anchor="start" x="363.5" y="-103.5" font-family="Helvetica,sans-Serif" font-size="10.00">RayTracer::Camera::</text>
<text text-anchor="middle" x="413" y="-92.5" font-family="Helvetica,sans-Serif" font-size="10.00">generateRay</text>
</a>
</g>
</g>
<!-- Node1&#45;&gt;Node15 -->
<g id="edge16_Node000001_Node000015" class="edge">
<title>Node1&#45;&gt;Node15</title>
<g id="a_edge16_Node000001_Node000015"><a xlink:title=" ">
<path fill="none" stroke="#63b8ff" d="M762.35,-281.41C749.12,-248.81 721.49,-192.5 679,-162.5 670.42,-156.44 546,-128.91 470.74,-112.64"/>
<polygon fill="#63b8ff" stroke="#63b8ff" points="759.24,-283.06 766.14,-291.1 765.76,-280.52 759.24,-283.06"/>
</a>
</g>
</g>
<!-- Node17 -->
<g id="Node000017" class="node">
<title>Node17</title>
<g id="a_Node000017"><a xlink:href="CorePlugin_8cpp.html#a0e14e2166e2799c71d21f343a3d543f3" target="_top" xlink:title=" ">
<polygon fill="white" stroke="#666666" points="645,-19 562,-19 562,0 645,0 645,-19"/>
<text text-anchor="middle" x="603.5" y="-7" font-family="Helvetica,sans-Serif" font-size="10.00">getInitializers</text>
</a>
</g>
</g>
<!-- Node1&#45;&gt;Node17 -->
<g id="edge18_Node000001_Node000017" class="edge">
<title>Node1&#45;&gt;Node17</title>
<g id="a_edge18_Node000001_Node000017"><a xlink:title=" ">
<path fill="none" stroke="#63b8ff" d="M770.77,-281C767.79,-226.33 752.84,-97.24 679,-28.5 669.82,-19.95 657.33,-15.12 645.21,-12.43"/>
<polygon fill="#63b8ff" stroke="#63b8ff" points="767.29,-281.37 771.24,-291.2 774.28,-281.05 767.29,-281.37"/>
</a>
</g>
</g>
<!-- Node18 -->
<g id="Node000018" class="node">
<title>Node18</title>
<g id="a_Node000018"><a xlink:href="classGeometry_1_1TransformMatrix.html#a136a1573f63564d63426b89fcafeb21b" target="_top" xlink:title=" ">
<polygon fill="white" stroke="#666666" points="679,-115.5 528,-115.5 528,-85.5 679,-85.5 679,-115.5"/>
<text text-anchor="start" x="536" y="-103.5" font-family="Helvetica,sans-Serif" font-size="10.00">Geometry::TransformMatrix</text>
<text text-anchor="middle" x="603.5" y="-92.5" font-family="Helvetica,sans-Serif" font-size="10.00">::operator*</text>
</a>
</g>
</g>
<!-- Node1&#45;&gt;Node18 -->
<g id="edge19_Node000001_Node000018" class="edge">
<title>Node1&#45;&gt;Node18</title>
<g id="a_edge19_Node000001_Node000018"><a xlink:title=" ">
<path fill="none" stroke="#63b8ff" d="M764.72,-281.74C753.17,-243.94 726.22,-171.78 679,-129.5 672.69,-123.85 665.16,-119.25 657.35,-115.51"/>
<polygon fill="#63b8ff" stroke="#63b8ff" points="761.39,-282.83 767.57,-291.44 768.11,-280.86 761.39,-282.83"/>
</a>
</g>
</g>
<!-- Node19 -->
<g id="Node000019" class="node">
<title>Node19</title>
<g id="a_Node000019"><a xlink:href="classGeometry_1_1Point3D.html#a59644f9fa320bfc8f33e3761fd7577b0" target="_top" xlink:title=" ">
<polygon fill="white" stroke="#666666" points="661,-619.5 546,-619.5 546,-589.5 661,-589.5 661,-619.5"/>
<text text-anchor="start" x="554" y="-607.5" font-family="Helvetica,sans-Serif" font-size="10.00">Geometry::Point3D::</text>
<text text-anchor="middle" x="603.5" y="-596.5" font-family="Helvetica,sans-Serif" font-size="10.00">operator+</text>
</a>
</g>
</g>
<!-- Node1&#45;&gt;Node19 -->
<g id="edge21_Node000001_Node000019" class="edge">
<title>Node1&#45;&gt;Node19</title>
<g id="a_edge21_Node000001_Node000019"><a xlink:title=" ">
<path fill="none" stroke="#63b8ff" d="M768.86,-331.81C762.34,-382.42 741.24,-497.28 679,-567.5 670.86,-576.69 659.91,-583.85 648.92,-589.32"/>
<polygon fill="#63b8ff" stroke="#63b8ff" points="772.35,-332.09 770.07,-321.75 765.4,-331.26 772.35,-332.09"/>
</a>
</g>
</g>
<!-- Node21 -->
<g id="Node000021" class="node">
<title>Node21</title>
<g id="a_Node000021"><a xlink:href="classGeometry_1_1Point3D.html#a317d081effd79290e9d5e314ee335484" target="_top" xlink:title=" ">
<polygon fill="white" stroke="#666666" points="661,-667.5 546,-667.5 546,-637.5 661,-637.5 661,-667.5"/>
<text text-anchor="start" x="554" y="-655.5" font-family="Helvetica,sans-Serif" font-size="10.00">Geometry::Point3D::</text>
<text text-anchor="middle" x="603.5" y="-644.5" font-family="Helvetica,sans-Serif" font-size="10.00">operator&#45;</text>
</a>
</g>
</g>
<!-- Node1&#45;&gt;Node21 -->
<g id="edge24_Node000001_Node000021" class="edge">
<title>Node1&#45;&gt;Node21</title>
<g id="a_edge24_Node000001_Node000021"><a xlink:title=" ">
<path fill="none" stroke="#63b8ff" d="M771.8,-331.81C771.12,-391.81 760.9,-543.94 679,-628.5 673.99,-633.67 667.86,-637.73 661.29,-640.92"/>
<polygon fill="#63b8ff" stroke="#63b8ff" points="775.3,-331.73 771.84,-321.72 768.3,-331.71 775.3,-331.73"/>
</a>
</g>
</g>
<!-- Node22 -->
<g id="Node000022" class="node">
<title>Node22</title>
<g id="a_Node000022"><a xlink:href="classGeometry_1_1Rectangle3D.html#a2b17f489ad6e57c131dc0e1c8ac2f1a0" target="_top" xlink:title="Get a point on the rectangle at normalized coordinates (u, v).">
<polygon fill="white" stroke="#666666" points="670,-67.5 537,-67.5 537,-37.5 670,-37.5 670,-67.5"/>
<text text-anchor="start" x="545" y="-55.5" font-family="Helvetica,sans-Serif" font-size="10.00">Geometry::Rectangle3D</text>
<text text-anchor="middle" x="603.5" y="-44.5" font-family="Helvetica,sans-Serif" font-size="10.00">::pointAt</text>
</a>
</g>
</g>
<!-- Node1&#45;&gt;Node22 -->
<g id="edge26_Node000001_Node000022" class="edge">
<title>Node1&#45;&gt;Node22</title>
<g id="a_edge26_Node000001_Node000022"><a xlink:title=" ">
<path fill="none" stroke="#63b8ff" d="M768.44,-281.49C761.38,-234.57 739.62,-132.98 679,-76.5 675.32,-73.07 671.15,-70.13 666.7,-67.62"/>
<polygon fill="#63b8ff" stroke="#63b8ff" points="764.98,-282 769.83,-291.42 771.91,-281.03 764.98,-282"/>
</a>
</g>
</g>
<!-- Node23 -->
<g id="Node000023" class="node">
<title>Node23</title>
<g id="a_Node000023"><a xlink:href="classGeometry_1_1AABB.html#ad625c435b383175aae100d15fa0f3cca" target="_top" xlink:title=" ">
<polygon fill="white" stroke="#666666" points="667.5,-426 539.5,-426 539.5,-407 667.5,-407 667.5,-426"/>
<text text-anchor="middle" x="603.5" y="-414" font-family="Helvetica,sans-Serif" font-size="10.00">Geometry::AABB::unite</text>
</a>
</g>
</g>
<!-- Node1&#45;&gt;Node23 -->
<g id="edge28_Node000001_Node000023" class="edge">
<title>Node1&#45;&gt;Node23</title>
<g id="a_edge28_Node000001_Node000023"><a xlink:title=" ">
<path fill="none" stroke="#63b8ff" d="M750.38,-328.88C732.66,-346.65 705.99,-371.13 679,-387.5 665.71,-395.56 649.79,-402.12 636.08,-406.95"/>
<polygon fill="#63b8ff" stroke="#63b8ff" points="752.9,-331.31 757.4,-321.72 747.9,-326.41 752.9,-331.31"/>
</a>
</g>
</g>
<!-- Node3 -->
<g id="Node000003" class="node">
<title>Node3</title>
<g id="a_Node000003"><a xlink:href="classRayTracer_1_1Cylinder.html#ab42450e2290b96bccdf83ba79fa9d8af" target="_top" xlink:title="Test ray–cylinder intersection using the quadratic form of the cylinder equation.">
<polygon fill="white" stroke="#666666" points="478,-619 348,-619 348,-600 478,-600 478,-619"/>
<text text-anchor="middle" x="413" y="-607" font-family="Helvetica,sans-Serif" font-size="10.00">RayTracer::Cylinder::hit</text>
</a>
</g>
</g>
<!-- Node2&#45;&gt;Node3 -->
<g id="edge2_Node000002_Node000003" class="edge">
<title>Node2&#45;&gt;Node3</title>
<g id="a_edge2_Node000002_Node000003"><a xlink:title=" ">
<path fill="none" stroke="#63b8ff" d="M571.37,-562C549.46,-571.16 519.3,-583.09 492,-591.5 481.91,-594.61 470.93,-597.46 460.49,-599.93"/>
<polygon fill="#63b8ff" stroke="#63b8ff" points="572.97,-565.13 580.82,-558.01 570.24,-558.68 572.97,-565.13"/>
</a>
</g>
</g>
<!-- Node4 -->
<g id="Node000004" class="node">
<title>Node4</title>
<g id="a_Node000004"><a xlink:href="classRayTracer_1_1Plane.html#a7b741696eb186f6ec9df62e58e795916" target="_top" xlink:title="Test ray–plane intersection using the algebraic plane equation.">
<polygon fill="white" stroke="#666666" points="471,-582 355,-582 355,-563 471,-563 471,-582"/>
<text text-anchor="middle" x="413" y="-570" font-family="Helvetica,sans-Serif" font-size="10.00">RayTracer::Plane::hit</text>
</a>
</g>
</g>
<!-- Node2&#45;&gt;Node4 -->
<g id="edge3_Node000002_Node000004" class="edge">
<title>Node2&#45;&gt;Node4</title>
<g id="a_edge3_Node000002_Node000004"><a xlink:title=" ">
<path fill="none" stroke="#63b8ff" d="M541.34,-556.29C518.74,-559.16 493.24,-562.41 471.03,-565.24"/>
<polygon fill="#63b8ff" stroke="#63b8ff" points="542.01,-559.73 551.49,-554.99 541.13,-552.79 542.01,-559.73"/>
</a>
</g>
</g>
<!-- Node5 -->
<g id="Node000005" class="node">
<title>Node5</title>
<g id="a_Node000005"><a xlink:href="classRayTracer_1_1Sphere.html#a40d439c5a658465a6eeef01f7679ecc9" target="_top" xlink:title="Test ray intersection with this primitive.">
<polygon fill="white" stroke="#666666" points="474.5,-545 351.5,-545 351.5,-526 474.5,-526 474.5,-545"/>
<text text-anchor="middle" x="413" y="-533" font-family="Helvetica,sans-Serif" font-size="10.00">RayTracer::Sphere::hit</text>
</a>
</g>
</g>
<!-- Node2&#45;&gt;Node5 -->
<g id="edge4_Node000002_Node000005" class="edge">
<title>Node2&#45;&gt;Node5</title>
<g id="a_edge4_Node000002_Node000005"><a xlink:title=" ">
<path fill="none" stroke="#63b8ff" d="M541.25,-544.28C519.94,-542.81 496.05,-541.16 474.77,-539.69"/>
<polygon fill="#63b8ff" stroke="#63b8ff" points="541.27,-547.79 551.49,-544.98 541.75,-540.8 541.27,-547.79"/>
</a>
</g>
</g>
<!-- Node6&#45;&gt;Node6 -->
<g id="edge7_Node000006_Node000006" class="edge">
<title>Node6&#45;&gt;Node6</title>
<g id="a_edge7_Node000006_Node000006"><a xlink:title=" ">
<path fill="none" stroke="#63b8ff" d="M257.49,-455.82C256.19,-461.01 245.86,-465 226.5,-465 197,-465 188.47,-455.73 200.91,-447.08"/>
<polygon fill="#63b8ff" stroke="#63b8ff" points="260.32,-453.75 252.09,-447.08 254.37,-457.43 260.32,-453.75"/>
</a>
</g>
</g>
<!-- Node7 -->
<g id="Node000007" class="node">
<title>Node7</title>
<g id="a_Node000007"><a xlink:href="classRayTracer_1_1BVH.html#a68e74bb5f748dbf38d86eea0a21d2b76" target="_top" xlink:title=" ">
<polygon fill="white" stroke="#666666" points="119,-407 0,-407 0,-388 119,-388 119,-407"/>
<text text-anchor="middle" x="59.5" y="-395" font-family="Helvetica,sans-Serif" font-size="10.00">RayTracer::BVH::BVH</text>
</a>
</g>
</g>
<!-- Node6&#45;&gt;Node7 -->
<g id="edge6_Node000006_Node000007" class="edge">
<title>Node6&#45;&gt;Node7</title>
<g id="a_edge6_Node000006_Node000007"><a xlink:title=" ">
<path fill="none" stroke="#63b8ff" d="M176.17,-425.54C151.71,-419.61 122.6,-412.55 99.7,-407"/>
<polygon fill="#63b8ff" stroke="#63b8ff" points="175.44,-428.96 185.98,-427.92 177.08,-422.16 175.44,-428.96"/>
</a>
</g>
</g>
<!-- Node9 -->
<g id="Node000009" class="node">
<title>Node9</title>
<g id="a_Node000009"><a xlink:href="classRayTracer_1_1Camera.html#aa88a1643d3067605407808bf3a5c14d4" target="_top" xlink:title="Construct a camera renderer.">
<polygon fill="white" stroke="#666666" points="470.5,-345.5 355.5,-345.5 355.5,-315.5 470.5,-315.5 470.5,-345.5"/>
<text text-anchor="start" x="363.5" y="-333.5" font-family="Helvetica,sans-Serif" font-size="10.00">RayTracer::Camera::</text>
<text text-anchor="middle" x="413" y="-322.5" font-family="Helvetica,sans-Serif" font-size="10.00">Camera</text>
</a>
</g>
</g>
<!-- Node8&#45;&gt;Node9 -->
<g id="edge9_Node000008_Node000009" class="edge">
<title>Node8&#45;&gt;Node9</title>
<g id="a_edge9_Node000008_Node000009"><a xlink:title=" ">
<path fill="none" stroke="#63b8ff" d="M519.68,-330.5C503.17,-330.5 486.17,-330.5 470.77,-330.5"/>
<polygon fill="#63b8ff" stroke="#63b8ff" points="519.89,-334 529.89,-330.5 519.89,-327 519.89,-334"/>
</a>
</g>
</g>
<!-- Node10 -->
<g id="Node000010" class="node">
<title>Node10</title>
<g id="a_Node000010"><a xlink:href="classRayTracer_1_1Camera.html#a502f05c3a82d9627f26300d71569ffad" target="_top" xlink:title="Construct a camera from a 4x4 affine transform matrix.">
<polygon fill="white" stroke="#666666" points="470.5,-297.5 355.5,-297.5 355.5,-267.5 470.5,-267.5 470.5,-297.5"/>
<text text-anchor="start" x="363.5" y="-285.5" font-family="Helvetica,sans-Serif" font-size="10.00">RayTracer::Camera::</text>
<text text-anchor="middle" x="413" y="-274.5" font-family="Helvetica,sans-Serif" font-size="10.00">Camera</text>
</a>
</g>
</g>
<!-- Node8&#45;&gt;Node10 -->
<g id="edge10_Node000008_Node000010" class="edge">
<title>Node8&#45;&gt;Node10</title>
<g id="a_edge10_Node000008_Node000010"><a xlink:title=" ">
<path fill="none" stroke="#63b8ff" d="M533.4,-312.91C512.77,-307.65 490.4,-301.95 470.66,-296.93"/>
<polygon fill="#63b8ff" stroke="#63b8ff" points="532.82,-316.37 543.37,-315.44 534.55,-309.58 532.82,-316.37"/>
</a>
</g>
</g>
<!-- Node11&#45;&gt;Node7 -->
<g id="edge12_Node000011_Node000007" class="edge">
<title>Node11&#45;&gt;Node7</title>
<g id="a_edge12_Node000011_Node000007"><a xlink:title=" ">
<path fill="none" stroke="#63b8ff" d="M144.56,-386.8C136.02,-387.89 127.44,-388.98 119.22,-390.03"/>
<polygon fill="#63b8ff" stroke="#63b8ff" points="145.09,-390.26 154.57,-385.53 144.21,-383.32 145.09,-390.26"/>
</a>
</g>
</g>
<!-- Node16 -->
<g id="Node000016" class="node">
<title>Node16</title>
<g id="a_Node000016"><a xlink:href="classRayTracer_1_1Camera.html#a3735fca524537e8a0ce755bb77e9a71f" target="_top" xlink:title="Render the scene into a 2D framebuffer.">
<polygon fill="white" stroke="#666666" points="284,-115.5 169,-115.5 169,-85.5 284,-85.5 284,-115.5"/>
<text text-anchor="start" x="177" y="-103.5" font-family="Helvetica,sans-Serif" font-size="10.00">RayTracer::Camera::</text>
<text text-anchor="middle" x="226.5" y="-92.5" font-family="Helvetica,sans-Serif" font-size="10.00">render</text>
</a>
</g>
</g>
<!-- Node15&#45;&gt;Node16 -->
<g id="edge17_Node000015_Node000016" class="edge">
<title>Node15&#45;&gt;Node16</title>
<g id="a_edge17_Node000015_Node000016"><a xlink:title=" ">
<path fill="none" stroke="#63b8ff" d="M345.37,-100.5C325.26,-100.5 303.39,-100.5 284,-100.5"/>
<polygon fill="#63b8ff" stroke="#63b8ff" points="345.39,-104 355.39,-100.5 345.39,-97 345.39,-104"/>
</a>
</g>
</g>
<!-- Node18&#45;&gt;Node15 -->
<g id="edge20_Node000018_Node000015" class="edge">
<title>Node18&#45;&gt;Node15</title>
<g id="a_edge20_Node000018_Node000015"><a xlink:title=" ">
<path fill="none" stroke="#63b8ff" d="M517.59,-100.5C501.64,-100.5 485.33,-100.5 470.52,-100.5"/>
<polygon fill="#63b8ff" stroke="#63b8ff" points="518,-104 528,-100.5 518,-97 518,-104"/>
</a>
</g>
</g>
<!-- Node19&#45;&gt;Node3 -->
<g id="edge23_Node000019_Node000003" class="edge">
<title>Node19&#45;&gt;Node3</title>
<g id="a_edge23_Node000019_Node000003"><a xlink:title=" ">
<path fill="none" stroke="#63b8ff" d="M535.72,-606.27C517,-606.77 496.68,-607.31 478.12,-607.8"/>
<polygon fill="#63b8ff" stroke="#63b8ff" points="536.04,-609.76 545.94,-606 535.85,-602.77 536.04,-609.76"/>
</a>
</g>
</g>
<!-- Node20 -->
<g id="Node000020" class="node">
<title>Node20</title>
<g id="a_Node000020"><a xlink:href="classRayTracer_1_1Sphere.html#a873777f6a7ae521b8e940f7b94c80fd8" target="_top" xlink:title="Get the primitive&#39;s axis&#45;aligned bounds, if any. Unbounded primitives may return std::nullopt.">
<polygon fill="white" stroke="#666666" points="468,-667.5 358,-667.5 358,-637.5 468,-637.5 468,-667.5"/>
<text text-anchor="start" x="366" y="-655.5" font-family="Helvetica,sans-Serif" font-size="10.00">RayTracer::Sphere::</text>
<text text-anchor="middle" x="413" y="-644.5" font-family="Helvetica,sans-Serif" font-size="10.00">getBounds</text>
</a>
</g>
</g>
<!-- Node19&#45;&gt;Node20 -->
<g id="edge22_Node000019_Node000020" class="edge">
<title>Node19&#45;&gt;Node20</title>
<g id="a_edge22_Node000019_Node000020"><a xlink:title=" ">
<path fill="none" stroke="#63b8ff" d="M536.24,-621.37C513.99,-627.04 489.46,-633.28 468.25,-638.69"/>
<polygon fill="#63b8ff" stroke="#63b8ff" points="537.12,-624.76 545.94,-618.9 535.39,-617.98 537.12,-624.76"/>
</a>
</g>
</g>
<!-- Node21&#45;&gt;Node20 -->
<g id="edge25_Node000021_Node000020" class="edge">
<title>Node21&#45;&gt;Node20</title>
<g id="a_edge25_Node000021_Node000020"><a xlink:title=" ">
<path fill="none" stroke="#63b8ff" d="M535.94,-652.5C513.77,-652.5 489.37,-652.5 468.25,-652.5"/>
<polygon fill="#63b8ff" stroke="#63b8ff" points="535.94,-656 545.94,-652.5 535.94,-649 535.94,-656"/>
</a>
</g>
</g>
<!-- Node22&#45;&gt;Node15 -->
<g id="edge27_Node000022_Node000015" class="edge">
<title>Node22&#45;&gt;Node15</title>
<g id="a_edge27_Node000022_Node000015"><a xlink:title=" ">
<path fill="none" stroke="#63b8ff" d="M533.4,-70.09C512.77,-75.35 490.4,-81.05 470.66,-86.07"/>
<polygon fill="#63b8ff" stroke="#63b8ff" points="534.55,-73.42 543.37,-67.56 532.82,-66.63 534.55,-73.42"/>
</a>
</g>
</g>
<!-- Node23&#45;&gt;Node6 -->
<g id="edge31_Node000023_Node000006" class="edge">
<title>Node23&#45;&gt;Node6</title>
<g id="a_edge31_Node000023_Node000006"><a xlink:title=" ">
<path fill="none" stroke="#63b8ff" d="M557.73,-428.5C537.77,-433.26 513.87,-438.15 492,-440.5 422.14,-448 341.31,-445.46 287.57,-442.21"/>
<polygon fill="#63b8ff" stroke="#63b8ff" points="558.6,-431.89 567.48,-426.11 556.94,-425.09 558.6,-431.89"/>
</a>
</g>
</g>
<!-- Node24 -->
<g id="Node000024" class="node">
<title>Node24</title>
<g id="a_Node000024"><a xlink:href="classRayTracer_1_1BVH.html#ae7a593c0ee607404fdc95024f8a17fab" target="_top" xlink:title=" ">
<polygon fill="white" stroke="#666666" points="492,-431.5 334,-431.5 334,-401.5 492,-401.5 492,-431.5"/>
<text text-anchor="start" x="342" y="-419.5" font-family="Helvetica,sans-Serif" font-size="10.00">RayTracer::BVH::boundsFrom</text>
<text text-anchor="middle" x="413" y="-408.5" font-family="Helvetica,sans-Serif" font-size="10.00">Records</text>
</a>
</g>
</g>
<!-- Node23&#45;&gt;Node24 -->
<g id="edge29_Node000023_Node000024" class="edge">
<title>Node23&#45;&gt;Node24</title>
<g id="a_edge29_Node000023_Node000024"><a xlink:title=" ">
<path fill="none" stroke="#63b8ff" d="M529.34,-416.5C517.12,-416.5 504.4,-416.5 492.06,-416.5"/>
<polygon fill="#63b8ff" stroke="#63b8ff" points="529.47,-420 539.47,-416.5 529.47,-413 529.47,-420"/>
</a>
</g>
</g>
<!-- Node24&#45;&gt;Node6 -->
<g id="edge30_Node000024_Node000006" class="edge">
<title>Node24&#45;&gt;Node6</title>
<g id="a_edge30_Node000024_Node000006"><a xlink:title=" ">
<path fill="none" stroke="#63b8ff" d="M323.58,-426.56C311.42,-427.95 299.16,-429.34 287.67,-430.65"/>
<polygon fill="#63b8ff" stroke="#63b8ff" points="324.22,-430.01 333.76,-425.41 323.42,-423.06 324.22,-430.01"/>
</a>
</g>
</g>
</g>
</svg>
