<?xml version="1.0" encoding="UTF-8" standalone="no"?>
<!DOCTYPE svg PUBLIC "-//W3C//DTD SVG 1.1//EN"
 "http://www.w3.org/Graphics/SVG/1.1/DTD/svg11.dtd">
<!-- Generated by graphviz version 2.43.0 (0)
 -->
<!-- Title: RayTracer::Glass Pages: 1 -->
<svg width="120pt" height="392pt"
 viewBox="0.00 0.00 120.00 392.00" xmlns="http://www.w3.org/2000/svg" xmlns:xlink="http://www.w3.org/1999/xlink">
<g id="graph0" class="graph" transform="scale(1 1) rotate(0) translate(4 388)">
<title>RayTracer::Glass</title>
<!-- Node1 -->
<g id="Node000001" class="node">
<title>Node1</title>
<g id="a_Node000001"><a xlink:title=" ">
<polygon fill="#999999" stroke="transparent" points="106.5,-124 5.5,-124 5.5,0 106.5,0 106.5,-124"/>
<text text-anchor="start" x="15.5" y="-112" font-family="Helvetica,sans-Serif" font-size="10.00">RayTracer::Glass</text>
<text text-anchor="start" x="12.5" y="-97" font-family="Helvetica,sans-Serif" font-size="10.00">&#45;</text>
<text text-anchor="start" x="23" y="-97" font-family="Helvetica,sans-Serif" font-size="10.00">_refractiveIndex</text>
<text text-anchor="start" x="10" y="-82" font-family="Helvetica,sans-Serif" font-size="10.00">+</text>
<text text-anchor="start" x="23" y="-82" font-family="Helvetica,sans-Serif" font-size="10.00">Glass()</text>
<text text-anchor="start" x="10" y="-67" font-family="Helvetica,sans-Serif" font-size="10.00">+</text>
<text text-anchor="start" x="23" y="-67" font-family="Helvetica,sans-Serif" font-size="10.00">~Glass()</text>
<text text-anchor="start" x="10" y="-52" font-family="Helvetica,sans-Serif" font-size="10.00">+</text>
<text text-anchor="start" x="23" y="-52" font-family="Helvetica,sans-Serif" font-size="10.00">evaluate()</text>
<text text-anchor="start" x="10" y="-37" font-family="Helvetica,sans-Serif" font-size="10.00">+</text>
<text text-anchor="start" x="23" y="-37" font-family="Helvetica,sans-Serif" font-size="10.00">sample()</text>
<text text-anchor="start" x="10" y="-22" font-family="Helvetica,sans-Serif" font-size="10.00">+</text>
<text text-anchor="start" x="23" y="-22" font-family="Helvetica,sans-Serif" font-size="10.00">pdf()</text>
<text text-anchor="start" x="10" y="-7" font-family="Helvetica,sans-Serif" font-size="10.00">+</text>
<text text-anchor="start" x="23" y="-7" font-family="Helvetica,sans-Serif" font-size="10.00">emission()</text>
<polygon fill="#666666" stroke="#666666" points="6,-107 6,-107 107,-107 107,-107 6,-107"/>
<polygon fill="#666666" stroke="#666666" points="6,-92 6,-92 21,-92 21,-92 6,-92"/>
<polygon fill="#666666" stroke="#666666" points="21,-92 21,-92 107,-92 107,-92 21,-92"/>
<polygon fill="none" stroke="#666666" points="5.5,0 5.5,-124 106.5,-124 106.5,0 5.5,0"/>
</a>
</g>
</g>
<!-- Node2 -->
<g id="Node000002" class="node">
<title>Node2</title>
<g id="a_Node000002"><a xlink:href="classRayTracer_1_1AMaterial.html" target="_top" xlink:title="Abstract base class for all materials. Defines the interface for evaluating the BRDF,...">
<polygon fill="white" stroke="transparent" points="112,-239 0,-239 0,-160 112,-160 112,-239"/>
<text text-anchor="start" x="5" y="-226.5" font-family="Helvetica,sans-Serif" font-size="10.00">RayTracer::AMaterial</text>
<text text-anchor="start" x="10.5" y="-211.5" font-family="Helvetica,sans-Serif" font-size="10.00">#</text>
<text text-anchor="start" x="30" y="-211.5" font-family="Helvetica,sans-Serif" font-size="10.00">_albedo</text>
<text text-anchor="start" x="10.5" y="-196.5" font-family="Helvetica,sans-Serif" font-size="10.00">+</text>
<text text-anchor="start" x="30" y="-196.5" font-family="Helvetica,sans-Serif" font-size="10.00">AMaterial()</text>
<text text-anchor="start" x="10.5" y="-181.5" font-family="Helvetica,sans-Serif" font-size="10.00">+</text>
<text text-anchor="start" x="30" y="-181.5" font-family="Helvetica,sans-Serif" font-size="10.00">AMaterial()</text>
<text text-anchor="start" x="10.5" y="-166.5" font-family="Helvetica,sans-Serif" font-size="10.00">+</text>
<text text-anchor="start" x="30" y="-166.5" font-family="Helvetica,sans-Serif" font-size="10.00">~AMaterial()</text>
<polygon fill="#666666" stroke="#666666" points="0,-221.5 0,-221.5 112,-221.5 112,-221.5 0,-221.5"/>
<polygon fill="#666666" stroke="#666666" points="0,-206.5 0,-206.5 28,-206.5 28,-206.5 0,-206.5"/>
<polygon fill="#666666" stroke="#666666" points="28,-206.5 28,-206.5 112,-206.5 112,-206.5 28,-206.5"/>
<polygon fill="none" stroke="#666666" points="0,-160 0,-239 112,-239 112,-160 0,-160"/>
</a>
</g>
</g>
<!-- Node2&#45;&gt;Node1 -->
<g id="edge1_Node000001_Node000002" class="edge">
<title>Node2&#45;&gt;Node1</title>
<g id="a_edge1_Node000001_Node000002"><a xlink:title=" ">
<path fill="none" stroke="#63b8ff" d="M56,-149.48C56,-141.24 56,-132.59 56,-124.09"/>
<polygon fill="none" stroke="#63b8ff" points="52.5,-149.67 56,-159.67 59.5,-149.67 52.5,-149.67"/>
</a>
</g>
</g>
<!-- Node3 -->
<g id="Node000003" class="node">
<title>Node3</title>
<g id="a_Node000003"><a xlink:href="classRayTracer_1_1IMaterial.html" target="_top" xlink:title="Interface for physically&#45;based surface materials.">
<polygon fill="white" stroke="transparent" points="110,-384 2,-384 2,-275 110,-275 110,-384"/>
<text text-anchor="start" x="7" y="-371.5" font-family="Helvetica,sans-Serif" font-size="10.00">RayTracer::IMaterial</text>
<text text-anchor="start" x="54" y="-356.5" font-family="Helvetica,sans-Serif" font-size="10.00"> </text>
<text text-anchor="start" x="12.5" y="-341.5" font-family="Helvetica,sans-Serif" font-size="10.00">+</text>
<text text-anchor="start" x="32" y="-341.5" font-family="Helvetica,sans-Serif" font-size="10.00">~IMaterial()</text>
<text text-anchor="start" x="12.5" y="-326.5" font-family="Helvetica,sans-Serif" font-size="10.00">+</text>
<text text-anchor="start" x="32" y="-326.5" font-family="Helvetica,sans-Serif" font-size="10.00">evaluate()</text>
<text text-anchor="start" x="12.5" y="-311.5" font-family="Helvetica,sans-Serif" font-size="10.00">+</text>
<text text-anchor="start" x="32" y="-311.5" font-family="Helvetica,sans-Serif" font-size="10.00">sample()</text>
<text text-anchor="start" x="12.5" y="-296.5" font-family="Helvetica,sans-Serif" font-size="10.00">+</text>
<text text-anchor="start" x="32" y="-296.5" font-family="Helvetica,sans-Serif" font-size="10.00">pdf()</text>
<text text-anchor="start" x="12.5" y="-281.5" font-family="Helvetica,sans-Serif" font-size="10.00">+</text>
<text text-anchor="start" x="32" y="-281.5" font-family="Helvetica,sans-Serif" font-size="10.00">emission()</text>
<polygon fill="#666666" stroke="#666666" points="2,-366.5 2,-366.5 110,-366.5 110,-366.5 2,-366.5"/>
<polygon fill="#666666" stroke="#666666" points="2,-351.5 2,-351.5 110,-351.5 110,-351.5 2,-351.5"/>
<polygon fill="none" stroke="#666666" points="2,-275 2,-384 110,-384 110,-275 2,-275"/>
</a>
</g>
</g>
<!-- Node3&#45;&gt;Node2 -->
<g id="edge2_Node000002_Node000003" class="edge">
<title>Node3&#45;&gt;Node2</title>
<g id="a_edge2_Node000002_Node000003"><a xlink:title=" ">
<path fill="none" stroke="#63b8ff" d="M56,-264.7C56,-255.93 56,-247.16 56,-239.03"/>
<polygon fill="none" stroke="#63b8ff" points="52.5,-264.96 56,-274.96 59.5,-264.96 52.5,-264.96"/>
</a>
</g>
</g>
</g>
</svg>
