<?xml version="1.0" encoding="UTF-8" standalone="no"?>
<!DOCTYPE svg PUBLIC "-//W3C//DTD SVG 1.1//EN"
 "http://www.w3.org/Graphics/SVG/1.1/DTD/svg11.dtd">
<!-- Generated by graphviz version 2.43.0 (0)
 -->
<!-- Title: Geometry::Vector3D::normalize Pages: 1 -->
<svg width="458pt" height="371pt"
 viewBox="0.00 0.00 458.00 371.00" xmlns="http://www.w3.org/2000/svg" xmlns:xlink="http://www.w3.org/1999/xlink">
<g id="graph0" class="graph" transform="scale(1 1) rotate(0) translate(4 367)">
<title>Geometry::Vector3D::normalize</title>
<!-- Node1 -->
<g id="Node000001" class="node">
<title>Node1</title>
<g id="a_Node000001"><a xlink:title=" ">
<polygon fill="#999999" stroke="#666666" points="450,-177 335,-177 335,-147 450,-147 450,-177"/>
<text text-anchor="start" x="343" y="-165" font-family="Helvetica,sans-Serif" font-size="10.00">Geometry::Vector3D</text>
<text text-anchor="middle" x="392.5" y="-154" font-family="Helvetica,sans-Serif" font-size="10.00">::normalize</text>
</a>
</g>
</g>
<!-- Node2 -->
<g id="Node000002" class="node">
<title>Node2</title>
<g id="a_Node000002"><a xlink:href="classRayTracer_1_1Camera.html#aa88a1643d3067605407808bf3a5c14d4" target="_top" xlink:title="Construct a camera renderer.">
<polygon fill="white" stroke="#666666" points="282.5,-363 167.5,-363 167.5,-333 282.5,-333 282.5,-363"/>
<text text-anchor="start" x="175.5" y="-351" font-family="Helvetica,sans-Serif" font-size="10.00">RayTracer::Camera::</text>
<text text-anchor="middle" x="225" y="-340" font-family="Helvetica,sans-Serif" font-size="10.00">Camera</text>
</a>
</g>
</g>
<!-- Node1&#45;&gt;Node2 -->
<g id="edge1_Node000001_Node000002" class="edge">
<title>Node1&#45;&gt;Node2</title>
<g id="a_edge1_Node000001_Node000002"><a xlink:title=" ">
<path fill="none" stroke="#63b8ff" d="M383.68,-187.02C371.33,-222.52 343.98,-287.27 299,-324 294.14,-327.97 288.61,-331.28 282.81,-334.06"/>
<polygon fill="#63b8ff" stroke="#63b8ff" points="387.04,-188.01 386.9,-177.42 380.4,-185.78 387.04,-188.01"/>
</a>
</g>
</g>
<!-- Node3 -->
<g id="Node000003" class="node">
<title>Node3</title>
<g id="a_Node000003"><a xlink:href="classRayTracer_1_1DirectionalLight.html#a682bc429176da9bb6b1694703b44ba0e" target="_top" xlink:title=" ">
<polygon fill="white" stroke="#666666" points="299,-315 151,-315 151,-285 299,-285 299,-315"/>
<text text-anchor="start" x="159" y="-303" font-family="Helvetica,sans-Serif" font-size="10.00">RayTracer::DirectionalLight</text>
<text text-anchor="middle" x="225" y="-292" font-family="Helvetica,sans-Serif" font-size="10.00">::DirectionalLight</text>
</a>
</g>
</g>
<!-- Node1&#45;&gt;Node3 -->
<g id="edge2_Node000001_Node000003" class="edge">
<title>Node1&#45;&gt;Node3</title>
<g id="a_edge2_Node000001_Node000003"><a xlink:title=" ">
<path fill="none" stroke="#63b8ff" d="M377.8,-186.04C361.96,-211.79 333.58,-252.17 299,-276 294.06,-279.41 288.6,-282.36 282.95,-284.91"/>
<polygon fill="#63b8ff" stroke="#63b8ff" points="380.92,-187.65 383.06,-177.27 374.92,-184.05 380.92,-187.65"/>
</a>
</g>
</g>
<!-- Node4 -->
<g id="Node000004" class="node">
<title>Node4</title>
<g id="a_Node000004"><a xlink:href="classRayTracer_1_1Camera.html#a7cd2251f34b6dda51fe338512e598571" target="_top" xlink:title="Evaluate the rendering equation along a ray, deterministically.">
<polygon fill="white" stroke="#666666" points="282.5,-249 167.5,-249 167.5,-219 282.5,-219 282.5,-249"/>
<text text-anchor="start" x="175.5" y="-237" font-family="Helvetica,sans-Serif" font-size="10.00">RayTracer::Camera::</text>
<text text-anchor="middle" x="225" y="-226" font-family="Helvetica,sans-Serif" font-size="10.00">castRay</text>
</a>
</g>
</g>
<!-- Node1&#45;&gt;Node4 -->
<g id="edge3_Node000001_Node000004" class="edge">
<title>Node1&#45;&gt;Node4</title>
<g id="a_edge3_Node000001_Node000004"><a xlink:title=" ">
<path fill="none" stroke="#63b8ff" d="M356.31,-181.96C339.31,-191.16 318.42,-201.83 299,-210 291.5,-213.16 283.43,-216.17 275.48,-218.93"/>
<polygon fill="#63b8ff" stroke="#63b8ff" points="358.24,-184.9 365.33,-177.02 354.88,-178.76 358.24,-184.9"/>
</a>
</g>
</g>
<!-- Node6 -->
<g id="Node000006" class="node">
<title>Node6</title>
<g id="a_Node000006"><a xlink:href="classRayTracer_1_1PointLight.html#a4fdb35dd47674e655119b54c30b48b20" target="_top" xlink:title="Compute light contribution.">
<polygon fill="white" stroke="#666666" points="284.5,-201 165.5,-201 165.5,-171 284.5,-171 284.5,-201"/>
<text text-anchor="start" x="173.5" y="-189" font-family="Helvetica,sans-Serif" font-size="10.00">RayTracer::PointLight</text>
<text text-anchor="middle" x="225" y="-178" font-family="Helvetica,sans-Serif" font-size="10.00">::computeLight</text>
</a>
</g>
</g>
<!-- Node1&#45;&gt;Node6 -->
<g id="edge6_Node000001_Node000006" class="edge">
<title>Node1&#45;&gt;Node6</title>
<g id="a_edge6_Node000001_Node000006"><a xlink:title=" ">
<path fill="none" stroke="#63b8ff" d="M324.59,-171.7C311.4,-173.62 297.65,-175.61 284.75,-177.48"/>
<polygon fill="#63b8ff" stroke="#63b8ff" points="325.15,-175.16 334.54,-170.26 324.15,-168.23 325.15,-175.16"/>
</a>
</g>
</g>
<!-- Node7 -->
<g id="Node000007" class="node">
<title>Node7</title>
<g id="a_Node000007"><a xlink:href="classRayTracer_1_1Camera.html#a4a7f4b6a0e5bf44d17162fb324c289bd" target="_top" xlink:title="Build a world&#45;space ray from normalized screen coordinates.">
<polygon fill="white" stroke="#666666" points="282.5,-153 167.5,-153 167.5,-123 282.5,-123 282.5,-153"/>
<text text-anchor="start" x="175.5" y="-141" font-family="Helvetica,sans-Serif" font-size="10.00">RayTracer::Camera::</text>
<text text-anchor="middle" x="225" y="-130" font-family="Helvetica,sans-Serif" font-size="10.00">generateRay</text>
</a>
</g>
</g>
<!-- Node1&#45;&gt;Node7 -->
<g id="edge7_Node000001_Node000007" class="edge">
<title>Node1&#45;&gt;Node7</title>
<g id="a_edge7_Node000001_Node000007"><a xlink:title=" ">
<path fill="none" stroke="#63b8ff" d="M324.53,-152.29C310.58,-150.27 296.02,-148.15 282.5,-146.19"/>
<polygon fill="#63b8ff" stroke="#63b8ff" points="324.15,-155.77 334.54,-153.74 325.15,-148.84 324.15,-155.77"/>
</a>
</g>
</g>
<!-- Node8 -->
<g id="Node000008" class="node">
<title>Node8</title>
<g id="a_Node000008"><a xlink:href="classRayTracer_1_1Cylinder.html#ab42450e2290b96bccdf83ba79fa9d8af" target="_top" xlink:title="Test ray–cylinder intersection using the quadratic form of the cylinder equation.">
<polygon fill="white" stroke="#666666" points="290,-104.5 160,-104.5 160,-85.5 290,-85.5 290,-104.5"/>
<text text-anchor="middle" x="225" y="-92.5" font-family="Helvetica,sans-Serif" font-size="10.00">RayTracer::Cylinder::hit</text>
</a>
</g>
</g>
<!-- Node1&#45;&gt;Node8 -->
<g id="edge9_Node000001_Node000008" class="edge">
<title>Node1&#45;&gt;Node8</title>
<g id="a_edge9_Node000001_Node000008"><a xlink:title=" ">
<path fill="none" stroke="#63b8ff" d="M357.27,-141.9C340.18,-132.47 318.95,-121.66 299,-114 289.59,-110.39 279.23,-107.23 269.35,-104.58"/>
<polygon fill="#63b8ff" stroke="#63b8ff" points="355.87,-145.12 366.3,-146.96 359.29,-139.01 355.87,-145.12"/>
</a>
</g>
</g>
<!-- Node9 -->
<g id="Node000009" class="node">
<title>Node9</title>
<g id="a_Node000009"><a xlink:href="classRayTracer_1_1Sphere.html#a40d439c5a658465a6eeef01f7679ecc9" target="_top" xlink:title="Test ray intersection with this primitive.">
<polygon fill="white" stroke="#666666" points="286.5,-67.5 163.5,-67.5 163.5,-48.5 286.5,-48.5 286.5,-67.5"/>
<text text-anchor="middle" x="225" y="-55.5" font-family="Helvetica,sans-Serif" font-size="10.00">RayTracer::Sphere::hit</text>
</a>
</g>
</g>
<!-- Node1&#45;&gt;Node9 -->
<g id="edge10_Node000001_Node000009" class="edge">
<title>Node1&#45;&gt;Node9</title>
<g id="a_edge10_Node000001_Node000009"><a xlink:title=" ">
<path fill="none" stroke="#63b8ff" d="M372.3,-138.93C355.04,-119.63 327.99,-92.8 299,-77 291.87,-73.12 283.91,-70 275.95,-67.5"/>
<polygon fill="#63b8ff" stroke="#63b8ff" points="369.87,-141.46 379.08,-146.68 375.14,-136.85 369.87,-141.46"/>
</a>
</g>
</g>
<!-- Node10 -->
<g id="Node000010" class="node">
<title>Node10</title>
<g id="a_Node000010"><a xlink:href="classRayTracer_1_1Lambertian.html#a9cf81ac3f6c0b5cc08c14d5f30e77838" target="_top" xlink:title="Return the deterministic bounce direction for this material.">
<polygon fill="white" stroke="#666666" points="288,-30 162,-30 162,0 288,0 288,-30"/>
<text text-anchor="start" x="170" y="-18" font-family="Helvetica,sans-Serif" font-size="10.00">RayTracer::Lambertian</text>
<text text-anchor="middle" x="225" y="-7" font-family="Helvetica,sans-Serif" font-size="10.00">::sample</text>
</a>
</g>
</g>
<!-- Node1&#45;&gt;Node10 -->
<g id="edge11_Node000001_Node000010" class="edge">
<title>Node1&#45;&gt;Node10</title>
<g id="a_edge11_Node000001_Node000010"><a xlink:title=" ">
<path fill="none" stroke="#63b8ff" d="M379.1,-138.02C363.77,-110.62 335.22,-66.19 299,-40 293.68,-36.15 287.72,-32.86 281.57,-30.06"/>
<polygon fill="#63b8ff" stroke="#63b8ff" points="376.1,-139.84 383.96,-146.95 382.25,-136.49 376.1,-139.84"/>
</a>
</g>
</g>
<!-- Node4&#45;&gt;Node4 -->
<g id="edge4_Node000004_Node000004" class="edge">
<title>Node4&#45;&gt;Node4</title>
<g id="a_edge4_Node000004_Node000004"><a xlink:title=" ">
<path fill="none" stroke="#63b8ff" d="M254.06,-259.6C250.09,-263.97 240.4,-267 225,-267 199.06,-267 189.34,-258.41 195.82,-249.28"/>
<polygon fill="#63b8ff" stroke="#63b8ff" points="257.56,-259.32 254.18,-249.28 250.56,-259.23 257.56,-259.32"/>
</a>
</g>
</g>
<!-- Node5 -->
<g id="Node000005" class="node">
<title>Node5</title>
<g id="a_Node000005"><a xlink:href="classRayTracer_1_1Camera.html#a3735fca524537e8a0ce755bb77e9a71f" target="_top" xlink:title="Render the scene into a 2D framebuffer.">
<polygon fill="white" stroke="#666666" points="115,-201 0,-201 0,-171 115,-171 115,-201"/>
<text text-anchor="start" x="8" y="-189" font-family="Helvetica,sans-Serif" font-size="10.00">RayTracer::Camera::</text>
<text text-anchor="middle" x="57.5" y="-178" font-family="Helvetica,sans-Serif" font-size="10.00">render</text>
</a>
</g>
</g>
<!-- Node4&#45;&gt;Node5 -->
<g id="edge5_Node000004_Node000005" class="edge">
<title>Node4&#45;&gt;Node5</title>
<g id="a_edge5_Node000004_Node000005"><a xlink:title=" ">
<path fill="none" stroke="#63b8ff" d="M162.19,-216.07C145.08,-211.11 126.7,-205.78 110.23,-201"/>
<polygon fill="#63b8ff" stroke="#63b8ff" points="161.51,-219.52 172.09,-218.94 163.46,-212.8 161.51,-219.52"/>
</a>
</g>
</g>
<!-- Node7&#45;&gt;Node5 -->
<g id="edge8_Node000007_Node000005" class="edge">
<title>Node7&#45;&gt;Node5</title>
<g id="a_edge8_Node000007_Node000005"><a xlink:title=" ">
<path fill="none" stroke="#63b8ff" d="M162.19,-155.93C145.08,-160.89 126.7,-166.22 110.23,-171"/>
<polygon fill="#63b8ff" stroke="#63b8ff" points="163.46,-159.2 172.09,-153.06 161.51,-152.48 163.46,-159.2"/>
</a>
</g>
</g>
</g>
</svg>
