<?xml version="1.0" encoding="UTF-8" standalone="no"?>
<!DOCTYPE svg PUBLIC "-//W3C//DTD SVG 1.1//EN"
 "http://www.w3.org/Graphics/SVG/1.1/DTD/svg11.dtd">
<!-- Generated by graphviz version 2.43.0 (0)
 -->
<!-- Title: Geometry::Vector3D::Vector3D Pages: 1 -->
<svg width="646pt" height="908pt"
 viewBox="0.00 0.00 646.00 907.77" xmlns="http://www.w3.org/2000/svg" xmlns:xlink="http://www.w3.org/1999/xlink">
<g id="graph0" class="graph" transform="scale(1 1) rotate(0) translate(4 903.77)">
<title>Geometry::Vector3D::Vector3D</title>
<!-- Node1 -->
<g id="Node000001" class="node">
<title>Node1</title>
<g id="a_Node000001"><a xlink:title=" ">
<polygon fill="#999999" stroke="#666666" points="638,-452 523,-452 523,-422 638,-422 638,-452"/>
<text text-anchor="start" x="531" y="-440" font-family="Helvetica,sans-Serif" font-size="10.00">Geometry::Vector3D</text>
<text text-anchor="middle" x="580.5" y="-429" font-family="Helvetica,sans-Serif" font-size="10.00">::Vector3D</text>
</a>
</g>
</g>
<!-- Node2 -->
<g id="Node000002" class="node">
<title>Node2</title>
<g id="a_Node000002"><a xlink:href="classRayTracer_1_1Camera.html#aa88a1643d3067605407808bf3a5c14d4" target="_top" xlink:title="Construct a camera renderer.">
<polygon fill="white" stroke="#666666" points="115,-811 0,-811 0,-781 115,-781 115,-811"/>
<text text-anchor="start" x="8" y="-799" font-family="Helvetica,sans-Serif" font-size="10.00">RayTracer::Camera::</text>
<text text-anchor="middle" x="57.5" y="-788" font-family="Helvetica,sans-Serif" font-size="10.00">Camera</text>
</a>
</g>
</g>
<!-- Node1&#45;&gt;Node2 -->
<g id="edge1_Node000001_Node000002" class="edge">
<title>Node1&#45;&gt;Node2</title>
<g id="a_edge1_Node000001_Node000002"><a xlink:title=" ">
<path fill="none" stroke="#63b8ff" d="M576.84,-462.54C568.26,-539.97 538.81,-769.98 487,-821 379.76,-926.59 294.16,-909.4 151,-863 119.69,-852.85 90.09,-827.69 73.15,-811.26"/>
<polygon fill="#63b8ff" stroke="#63b8ff" points="580.36,-462.58 577.96,-452.26 573.4,-461.82 580.36,-462.58"/>
</a>
</g>
</g>
<!-- Node3 -->
<g id="Node000003" class="node">
<title>Node3</title>
<g id="a_Node000003"><a xlink:href="classRayTracer_1_1Camera.html#a27ae8f34a8cb15a3ffd5e23498d894cb" target="_top" xlink:title="Rebuild the _screen rectangle from the current _transform and _fov.">
<polygon fill="white" stroke="#666666" points="299,-768 152,-768 152,-738 299,-738 299,-768"/>
<text text-anchor="start" x="160" y="-756" font-family="Helvetica,sans-Serif" font-size="10.00">RayTracer::Camera::</text>
<text text-anchor="middle" x="225.5" y="-745" font-family="Helvetica,sans-Serif" font-size="10.00">buildScreenFromTransform</text>
</a>
</g>
</g>
<!-- Node1&#45;&gt;Node3 -->
<g id="edge2_Node000001_Node000003" class="edge">
<title>Node1&#45;&gt;Node3</title>
<g id="a_edge2_Node000001_Node000003"><a xlink:title=" ">
<path fill="none" stroke="#63b8ff" d="M576.82,-462.5C570.37,-510.84 549.56,-616.12 487,-674 471.97,-687.9 357.98,-719.17 285.85,-737.93"/>
<polygon fill="#63b8ff" stroke="#63b8ff" points="580.33,-462.64 578.08,-452.29 573.38,-461.79 580.33,-462.64"/>
</a>
</g>
</g>
<!-- Node5 -->
<g id="Node000005" class="node">
<title>Node5</title>
<g id="a_Node000005"><a xlink:href="classRayTracer_1_1DirectionalLight.html#a7170b3c9d9e2c2e697139f0dae68ab5b" target="_top" xlink:title="Compute light contribution, shadow ray cast in opposite direction.">
<polygon fill="white" stroke="#666666" points="485.5,-308 337.5,-308 337.5,-278 485.5,-278 485.5,-308"/>
<text text-anchor="start" x="345.5" y="-296" font-family="Helvetica,sans-Serif" font-size="10.00">RayTracer::DirectionalLight</text>
<text text-anchor="middle" x="411.5" y="-285" font-family="Helvetica,sans-Serif" font-size="10.00">::computeLight</text>
</a>
</g>
</g>
<!-- Node1&#45;&gt;Node5 -->
<g id="edge5_Node000001_Node000005" class="edge">
<title>Node1&#45;&gt;Node5</title>
<g id="a_edge5_Node000001_Node000005"><a xlink:title=" ">
<path fill="none" stroke="#63b8ff" d="M566.84,-412.87C551.44,-385.78 522.99,-342.31 487,-317 482.11,-313.56 476.7,-310.59 471.09,-308.04"/>
<polygon fill="#63b8ff" stroke="#63b8ff" points="563.83,-414.66 571.73,-421.71 569.95,-411.27 563.83,-414.66"/>
</a>
</g>
</g>
<!-- Node6 -->
<g id="Node000006" class="node">
<title>Node6</title>
<g id="a_Node000006"><a xlink:href="classRayTracer_1_1PointLight.html#a4fdb35dd47674e655119b54c30b48b20" target="_top" xlink:title="Compute light contribution.">
<polygon fill="white" stroke="#666666" points="285,-720 166,-720 166,-690 285,-690 285,-720"/>
<text text-anchor="start" x="174" y="-708" font-family="Helvetica,sans-Serif" font-size="10.00">RayTracer::PointLight</text>
<text text-anchor="middle" x="225.5" y="-697" font-family="Helvetica,sans-Serif" font-size="10.00">::computeLight</text>
</a>
</g>
</g>
<!-- Node1&#45;&gt;Node6 -->
<g id="edge6_Node000001_Node000006" class="edge">
<title>Node1&#45;&gt;Node6</title>
<g id="a_edge6_Node000001_Node000006"><a xlink:title=" ">
<path fill="none" stroke="#63b8ff" d="M574.96,-462.15C565.97,-504.55 541.81,-590.09 487,-636 456.6,-661.46 352.26,-683.46 285.21,-695.41"/>
<polygon fill="#63b8ff" stroke="#63b8ff" points="578.44,-462.61 576.98,-452.12 571.58,-461.23 578.44,-462.61"/>
</a>
</g>
</g>
<!-- Node7 -->
<g id="Node000007" class="node">
<title>Node7</title>
<g id="a_Node000007"><a xlink:href="classGeometry_1_1Vector3D.html#a7157de1fcf830b27bf4b2df43e6b6112" target="_top" xlink:title=" ">
<polygon fill="white" stroke="#666666" points="469,-768 354,-768 354,-738 469,-738 469,-768"/>
<text text-anchor="start" x="362" y="-756" font-family="Helvetica,sans-Serif" font-size="10.00">Geometry::Vector3D</text>
<text text-anchor="middle" x="411.5" y="-745" font-family="Helvetica,sans-Serif" font-size="10.00">::cross</text>
</a>
</g>
</g>
<!-- Node1&#45;&gt;Node7 -->
<g id="edge7_Node000001_Node000007" class="edge">
<title>Node1&#45;&gt;Node7</title>
<g id="a_edge7_Node000001_Node000007"><a xlink:title=" ">
<path fill="none" stroke="#63b8ff" d="M578.18,-462.32C574.04,-516.77 556.96,-646.17 487,-722 480.92,-728.59 473.22,-733.82 465.1,-737.96"/>
<polygon fill="#63b8ff" stroke="#63b8ff" points="581.69,-462.39 578.87,-452.18 574.7,-461.92 581.69,-462.39"/>
</a>
</g>
</g>
<!-- Node8 -->
<g id="Node000008" class="node">
<title>Node8</title>
<g id="a_Node000008"><a xlink:href="classRayTracer_1_1Lambertian.html#a9cf81ac3f6c0b5cc08c14d5f30e77838" target="_top" xlink:title="Return the deterministic bounce direction for this material.">
<polygon fill="white" stroke="#666666" points="288.5,-854 162.5,-854 162.5,-824 288.5,-824 288.5,-854"/>
<text text-anchor="start" x="170.5" y="-842" font-family="Helvetica,sans-Serif" font-size="10.00">RayTracer::Lambertian</text>
<text text-anchor="middle" x="225.5" y="-831" font-family="Helvetica,sans-Serif" font-size="10.00">::sample</text>
</a>
</g>
</g>
<!-- Node1&#45;&gt;Node8 -->
<g id="edge52_Node000001_Node000008" class="edge">
<title>Node1&#45;&gt;Node8</title>
<g id="a_edge52_Node000001_Node000008"><a xlink:title=" ">
<path fill="none" stroke="#63b8ff" d="M575.98,-462.37C565.61,-533.48 532.99,-732.46 487,-777 434.24,-828.1 347.37,-839.74 288.6,-841.17"/>
<polygon fill="#63b8ff" stroke="#63b8ff" points="579.5,-462.49 577.45,-452.09 572.57,-461.5 579.5,-462.49"/>
</a>
</g>
</g>
<!-- Node9 -->
<g id="Node000009" class="node">
<title>Node9</title>
<g id="a_Node000009"><a xlink:href="classRayTracer_1_1Phong.html#a2fe3eab64f5b9ab9ab73976f0c8b80fd" target="_top" xlink:title="Return the deterministic bounce direction for this material.">
<polygon fill="white" stroke="#666666" points="297,-537.5 154,-537.5 154,-518.5 297,-518.5 297,-537.5"/>
<text text-anchor="middle" x="225.5" y="-525.5" font-family="Helvetica,sans-Serif" font-size="10.00">RayTracer::Phong::sample</text>
</a>
</g>
</g>
<!-- Node1&#45;&gt;Node9 -->
<g id="edge53_Node000001_Node000009" class="edge">
<title>Node1&#45;&gt;Node9</title>
<g id="a_edge53_Node000001_Node000009"><a xlink:title=" ">
<path fill="none" stroke="#63b8ff" d="M558.5,-459.36C541.12,-476.25 514.84,-498.3 487,-509 425.95,-532.48 350.99,-535.53 297.18,-533.72"/>
<polygon fill="#63b8ff" stroke="#63b8ff" points="561.24,-461.57 565.83,-452.02 556.29,-456.62 561.24,-461.57"/>
</a>
</g>
</g>
<!-- Node10 -->
<g id="Node000010" class="node">
<title>Node10</title>
<g id="a_Node000010"><a xlink:href="namespaceRaytracer.html#af4800ab171090b01c2b9dcf5ab91894e" target="_top" xlink:title=" ">
<polygon fill="white" stroke="#666666" points="480,-260 343,-260 343,-230 480,-230 480,-260"/>
<text text-anchor="start" x="351" y="-248" font-family="Helvetica,sans-Serif" font-size="10.00">Raytracer::fromNode</text>
<text text-anchor="middle" x="411.5" y="-237" font-family="Helvetica,sans-Serif" font-size="10.00">&lt; Geometry::Vector3D &gt;</text>
</a>
</g>
</g>
<!-- Node1&#45;&gt;Node10 -->
<g id="edge12_Node000001_Node000010" class="edge">
<title>Node1&#45;&gt;Node10</title>
<g id="a_edge12_Node000001_Node000010"><a xlink:title=" ">
<path fill="none" stroke="#63b8ff" d="M572.33,-412.14C560.52,-375.54 533.53,-307.37 487,-269 482.81,-265.54 478.1,-262.58 473.16,-260.04"/>
<polygon fill="#63b8ff" stroke="#63b8ff" points="569.08,-413.48 575.39,-421.99 575.77,-411.4 569.08,-413.48"/>
</a>
</g>
</g>
<!-- Node11 -->
<g id="Node000011" class="node">
<title>Node11</title>
<g id="a_Node000011"><a xlink:href="classRayTracer_1_1Camera.html#a4a7f4b6a0e5bf44d17162fb324c289bd" target="_top" xlink:title="Build a world&#45;space ray from normalized screen coordinates.">
<polygon fill="white" stroke="#666666" points="283,-672 168,-672 168,-642 283,-642 283,-672"/>
<text text-anchor="start" x="176" y="-660" font-family="Helvetica,sans-Serif" font-size="10.00">RayTracer::Camera::</text>
<text text-anchor="middle" x="225.5" y="-649" font-family="Helvetica,sans-Serif" font-size="10.00">generateRay</text>
</a>
</g>
</g>
<!-- Node1&#45;&gt;Node11 -->
<g id="edge13_Node000001_Node000011" class="edge">
<title>Node1&#45;&gt;Node11</title>
<g id="a_edge13_Node000001_Node000011"><a xlink:title=" ">
<path fill="none" stroke="#63b8ff" d="M571.9,-461.92C559.82,-497.17 532.8,-561.08 487,-595 427.04,-639.4 339.87,-652.5 283.17,-656.09"/>
<polygon fill="#63b8ff" stroke="#63b8ff" points="575.24,-462.96 575.04,-452.37 568.59,-460.77 575.24,-462.96"/>
</a>
</g>
</g>
<!-- Node13 -->
<g id="Node000013" class="node">
<title>Node13</title>
<g id="a_Node000013"><a xlink:href="CorePlugin_8cpp.html#a0e14e2166e2799c71d21f343a3d543f3" target="_top" xlink:title=" ">
<polygon fill="white" stroke="#666666" points="453,-211.5 370,-211.5 370,-192.5 453,-192.5 453,-211.5"/>
<text text-anchor="middle" x="411.5" y="-199.5" font-family="Helvetica,sans-Serif" font-size="10.00">getInitializers</text>
</a>
</g>
</g>
<!-- Node1&#45;&gt;Node13 -->
<g id="edge15_Node000001_Node000013" class="edge">
<title>Node1&#45;&gt;Node13</title>
<g id="a_edge15_Node000001_Node000013"><a xlink:title=" ">
<path fill="none" stroke="#63b8ff" d="M576,-411.6C568.39,-366.28 545.98,-271.48 487,-221 477.57,-212.93 465.16,-208.21 453.18,-205.48"/>
<polygon fill="#63b8ff" stroke="#63b8ff" points="572.59,-412.42 577.6,-421.75 579.5,-411.33 572.59,-412.42"/>
</a>
</g>
</g>
<!-- Node14 -->
<g id="Node000014" class="node">
<title>Node14</title>
<g id="a_Node000014"><a xlink:href="classGeometry_1_1Vector3D.html#a388f7af8bf0095c817e89b5b2518fda7" target="_top" xlink:title=" ">
<polygon fill="white" stroke="#666666" points="469,-586 354,-586 354,-556 469,-556 469,-586"/>
<text text-anchor="start" x="362" y="-574" font-family="Helvetica,sans-Serif" font-size="10.00">Geometry::Vector3D</text>
<text text-anchor="middle" x="411.5" y="-563" font-family="Helvetica,sans-Serif" font-size="10.00">::normalize</text>
</a>
</g>
</g>
<!-- Node1&#45;&gt;Node14 -->
<g id="edge16_Node000001_Node000014" class="edge">
<title>Node1&#45;&gt;Node14</title>
<g id="a_edge16_Node000001_Node000014"><a xlink:title=" ">
<path fill="none" stroke="#63b8ff" d="M563.83,-460.61C547.2,-484.07 518.96,-519.67 487,-542 479.15,-547.49 470.12,-552.12 461.11,-555.97"/>
<polygon fill="#63b8ff" stroke="#63b8ff" points="566.79,-462.48 569.61,-452.27 561.04,-458.49 566.79,-462.48"/>
</a>
</g>
</g>
<!-- Node21 -->
<g id="Node000021" class="node">
<title>Node21</title>
<g id="a_Node000021"><a xlink:href="classGeometry_1_1Vector3D.html#a2b061b80e0fb7144c2fdcf4aa9ba73bf" target="_top" xlink:title=" ">
<polygon fill="white" stroke="#666666" points="469,-174 354,-174 354,-144 469,-144 469,-174"/>
<text text-anchor="start" x="362" y="-162" font-family="Helvetica,sans-Serif" font-size="10.00">Geometry::Vector3D</text>
<text text-anchor="middle" x="411.5" y="-151" font-family="Helvetica,sans-Serif" font-size="10.00">::operator*</text>
</a>
</g>
</g>
<!-- Node1&#45;&gt;Node21 -->
<g id="edge30_Node000001_Node000021" class="edge">
<title>Node1&#45;&gt;Node21</title>
<g id="a_edge30_Node000001_Node000021"><a xlink:title=" ">
<path fill="none" stroke="#63b8ff" d="M577.53,-411.92C572.21,-361.38 553.13,-246.69 487,-183 481.91,-178.1 475.81,-174.2 469.33,-171.09"/>
<polygon fill="#63b8ff" stroke="#63b8ff" points="574.05,-412.35 578.49,-421.97 581.02,-411.68 574.05,-412.35"/>
</a>
</g>
</g>
<!-- Node22 -->
<g id="Node000022" class="node">
<title>Node22</title>
<g id="a_Node000022"><a xlink:href="classGeometry_1_1TransformMatrix.html#a065621a852d662251597213f484ea3f6" target="_top" xlink:title=" ">
<polygon fill="white" stroke="#666666" points="487,-126 336,-126 336,-96 487,-96 487,-126"/>
<text text-anchor="start" x="344" y="-114" font-family="Helvetica,sans-Serif" font-size="10.00">Geometry::TransformMatrix</text>
<text text-anchor="middle" x="411.5" y="-103" font-family="Helvetica,sans-Serif" font-size="10.00">::operator*</text>
</a>
</g>
</g>
<!-- Node1&#45;&gt;Node22 -->
<g id="edge31_Node000001_Node000022" class="edge">
<title>Node1&#45;&gt;Node22</title>
<g id="a_edge31_Node000001_Node000022"><a xlink:title=" ">
<path fill="none" stroke="#63b8ff" d="M579.23,-411.68C577.21,-354.3 564.21,-213.33 487,-135 483.66,-131.61 479.84,-128.7 475.74,-126.2"/>
<polygon fill="#63b8ff" stroke="#63b8ff" points="575.73,-411.78 579.49,-421.69 582.73,-411.6 575.73,-411.78"/>
</a>
</g>
</g>
<!-- Node23 -->
<g id="Node000023" class="node">
<title>Node23</title>
<g id="a_Node000023"><a xlink:href="classGeometry_1_1Vector3D.html#aa583eecc673b26ce6058e6dd00238a62" target="_top" xlink:title=" ">
<polygon fill="white" stroke="#666666" points="469,-452 354,-452 354,-422 469,-422 469,-452"/>
<text text-anchor="start" x="362" y="-440" font-family="Helvetica,sans-Serif" font-size="10.00">Geometry::Vector3D</text>
<text text-anchor="middle" x="411.5" y="-429" font-family="Helvetica,sans-Serif" font-size="10.00">::operator*</text>
</a>
</g>
</g>
<!-- Node1&#45;&gt;Node23 -->
<g id="edge32_Node000001_Node000023" class="edge">
<title>Node1&#45;&gt;Node23</title>
<g id="a_edge32_Node000001_Node000023"><a xlink:title=" ">
<path fill="none" stroke="#63b8ff" d="M512.64,-437C498.27,-437 483.21,-437 469.26,-437"/>
<polygon fill="#63b8ff" stroke="#63b8ff" points="512.96,-440.5 522.96,-437 512.96,-433.5 512.96,-440.5"/>
</a>
</g>
</g>
<!-- Node25 -->
<g id="Node000025" class="node">
<title>Node25</title>
<g id="a_Node000025"><a xlink:href="classGeometry_1_1Vector3D.html#a374498ca7780e4ff496e56d58424e111" target="_top" xlink:title=" ">
<polygon fill="white" stroke="#666666" points="469,-78 354,-78 354,-48 469,-48 469,-78"/>
<text text-anchor="start" x="362" y="-66" font-family="Helvetica,sans-Serif" font-size="10.00">Geometry::Vector3D</text>
<text text-anchor="middle" x="411.5" y="-55" font-family="Helvetica,sans-Serif" font-size="10.00">::operator+</text>
</a>
</g>
</g>
<!-- Node1&#45;&gt;Node25 -->
<g id="edge39_Node000001_Node000025" class="edge">
<title>Node1&#45;&gt;Node25</title>
<g id="a_edge39_Node000001_Node000025"><a xlink:title=" ">
<path fill="none" stroke="#63b8ff" d="M576.04,-412.01C565.63,-340.14 532.45,-134.94 487,-87 481.95,-81.68 475.72,-77.53 469.02,-74.3"/>
<polygon fill="#63b8ff" stroke="#63b8ff" points="572.59,-412.58 577.47,-421.99 579.52,-411.59 572.59,-412.58"/>
</a>
</g>
</g>
<!-- Node26 -->
<g id="Node000026" class="node">
<title>Node26</title>
<g id="a_Node000026"><a xlink:href="classGeometry_1_1Point3D.html#ae9af5cd5e04e5f0635d250cf80e4e78f" target="_top" xlink:title=" ">
<polygon fill="white" stroke="#666666" points="469,-356 354,-356 354,-326 469,-326 469,-356"/>
<text text-anchor="start" x="362" y="-344" font-family="Helvetica,sans-Serif" font-size="10.00">Geometry::Point3D::</text>
<text text-anchor="middle" x="411.5" y="-333" font-family="Helvetica,sans-Serif" font-size="10.00">operator&#45;</text>
</a>
</g>
</g>
<!-- Node1&#45;&gt;Node26 -->
<g id="edge40_Node000001_Node000026" class="edge">
<title>Node1&#45;&gt;Node26</title>
<g id="a_edge40_Node000001_Node000026"><a xlink:title=" ">
<path fill="none" stroke="#63b8ff" d="M556.09,-414.99C538.29,-399.25 512.58,-378.53 487,-365 480.75,-361.7 473.97,-358.74 467.13,-356.14"/>
<polygon fill="#63b8ff" stroke="#63b8ff" points="553.91,-417.74 563.68,-421.83 558.59,-412.54 553.91,-417.74"/>
</a>
</g>
</g>
<!-- Node27 -->
<g id="Node000027" class="node">
<title>Node27</title>
<g id="a_Node000027"><a xlink:href="classGeometry_1_1Vector3D.html#a12618c1c19f8fdd6ad13fa1c7c9147c0" target="_top" xlink:title=" ">
<polygon fill="white" stroke="#666666" points="469,-500 354,-500 354,-470 469,-470 469,-500"/>
<text text-anchor="start" x="362" y="-488" font-family="Helvetica,sans-Serif" font-size="10.00">Geometry::Vector3D</text>
<text text-anchor="middle" x="411.5" y="-477" font-family="Helvetica,sans-Serif" font-size="10.00">::operator&#45;</text>
</a>
</g>
</g>
<!-- Node1&#45;&gt;Node27 -->
<g id="edge44_Node000001_Node000027" class="edge">
<title>Node1&#45;&gt;Node27</title>
<g id="a_edge44_Node000001_Node000027"><a xlink:title=" ">
<path fill="none" stroke="#63b8ff" d="M517.13,-454.93C499.87,-459.89 481.31,-465.22 464.7,-470"/>
<polygon fill="#63b8ff" stroke="#63b8ff" points="518.47,-458.18 527.12,-452.06 516.54,-451.45 518.47,-458.18"/>
</a>
</g>
</g>
<!-- Node28 -->
<g id="Node000028" class="node">
<title>Node28</title>
<g id="a_Node000028"><a xlink:href="classGeometry_1_1Vector3D.html#ae922fd3535e26ab859ab96c63c67dace" target="_top" xlink:title=" ">
<polygon fill="white" stroke="#666666" points="469,-30 354,-30 354,0 469,0 469,-30"/>
<text text-anchor="start" x="362" y="-18" font-family="Helvetica,sans-Serif" font-size="10.00">Geometry::Vector3D</text>
<text text-anchor="middle" x="411.5" y="-7" font-family="Helvetica,sans-Serif" font-size="10.00">::operator/</text>
</a>
</g>
</g>
<!-- Node1&#45;&gt;Node28 -->
<g id="edge49_Node000001_Node000028" class="edge">
<title>Node1&#45;&gt;Node28</title>
<g id="a_edge49_Node000001_Node000028"><a xlink:title=" ">
<path fill="none" stroke="#63b8ff" d="M576.87,-411.77C568.21,-333.16 538.15,-94.6 487,-39 482.03,-33.6 475.84,-29.41 469.17,-26.16"/>
<polygon fill="#63b8ff" stroke="#63b8ff" points="573.4,-412.2 577.95,-421.77 580.36,-411.45 573.4,-412.2"/>
</a>
</g>
</g>
<!-- Node29 -->
<g id="Node000029" class="node">
<title>Node29</title>
<g id="a_Node000029"><a xlink:href="classGeometry_1_1Vector3D.html#ac56b7f7705a5b7a2a4694d419b003162" target="_top" xlink:title=" ">
<polygon fill="white" stroke="#666666" points="469,-404 354,-404 354,-374 469,-374 469,-404"/>
<text text-anchor="start" x="362" y="-392" font-family="Helvetica,sans-Serif" font-size="10.00">Geometry::Vector3D</text>
<text text-anchor="middle" x="411.5" y="-381" font-family="Helvetica,sans-Serif" font-size="10.00">::operator/</text>
</a>
</g>
</g>
<!-- Node1&#45;&gt;Node29 -->
<g id="edge50_Node000001_Node000029" class="edge">
<title>Node1&#45;&gt;Node29</title>
<g id="a_edge50_Node000001_Node000029"><a xlink:title=" ">
<path fill="none" stroke="#63b8ff" d="M517.13,-419.07C499.87,-414.11 481.31,-408.78 464.7,-404"/>
<polygon fill="#63b8ff" stroke="#63b8ff" points="516.54,-422.55 527.12,-421.94 518.47,-415.82 516.54,-422.55"/>
</a>
</g>
</g>
<!-- Node3&#45;&gt;Node2 -->
<g id="edge3_Node000003_Node000002" class="edge">
<title>Node3&#45;&gt;Node2</title>
<g id="a_edge3_Node000003_Node000002"><a xlink:title=" ">
<path fill="none" stroke="#63b8ff" d="M156.54,-770.6C142.78,-774.17 128.45,-777.88 115.13,-781.33"/>
<polygon fill="#63b8ff" stroke="#63b8ff" points="157.64,-773.94 166.44,-768.04 155.88,-767.16 157.64,-773.94"/>
</a>
</g>
</g>
<!-- Node4 -->
<g id="Node000004" class="node">
<title>Node4</title>
<g id="a_Node000004"><a xlink:href="classRayTracer_1_1Camera.html#adebcfa0c259280f3d4bcf037fa2192b8" target="_top" xlink:title="Construct a camera from a 4x4 affine transform matrix.">
<polygon fill="white" stroke="#666666" points="115,-763 0,-763 0,-733 115,-733 115,-763"/>
<text text-anchor="start" x="8" y="-751" font-family="Helvetica,sans-Serif" font-size="10.00">RayTracer::Camera::</text>
<text text-anchor="middle" x="57.5" y="-740" font-family="Helvetica,sans-Serif" font-size="10.00">Camera</text>
</a>
</g>
</g>
<!-- Node3&#45;&gt;Node4 -->
<g id="edge4_Node000003_Node000004" class="edge">
<title>Node3&#45;&gt;Node4</title>
<g id="a_edge4_Node000003_Node000004"><a xlink:title=" ">
<path fill="none" stroke="#63b8ff" d="M141.57,-750.5C132.58,-750.23 123.6,-749.96 115.03,-749.7"/>
<polygon fill="#63b8ff" stroke="#63b8ff" points="141.59,-754 151.69,-750.81 141.8,-747.01 141.59,-754"/>
</a>
</g>
</g>
<!-- Node7&#45;&gt;Node2 -->
<g id="edge8_Node000007_Node000002" class="edge">
<title>Node7&#45;&gt;Node2</title>
<g id="a_edge8_Node000007_Node000002"><a xlink:title=" ">
<path fill="none" stroke="#63b8ff" d="M344.12,-768.94C329.64,-771.99 314.36,-774.89 300,-777 237.17,-786.25 164.44,-791.2 115.35,-793.7"/>
<polygon fill="#63b8ff" stroke="#63b8ff" points="344.95,-772.34 353.99,-766.81 343.47,-765.5 344.95,-772.34"/>
</a>
</g>
</g>
<!-- Node7&#45;&gt;Node3 -->
<g id="edge9_Node000007_Node000003" class="edge">
<title>Node7&#45;&gt;Node3</title>
<g id="a_edge9_Node000007_Node000003"><a xlink:title=" ">
<path fill="none" stroke="#63b8ff" d="M343.51,-753C329.14,-753 313.89,-753 299.31,-753"/>
<polygon fill="#63b8ff" stroke="#63b8ff" points="343.79,-756.5 353.79,-753 343.79,-749.5 343.79,-756.5"/>
</a>
</g>
</g>
<!-- Node7&#45;&gt;Node8 -->
<g id="edge10_Node000007_Node000008" class="edge">
<title>Node7&#45;&gt;Node8</title>
<g id="a_edge10_Node000007_Node000008"><a xlink:title=" ">
<path fill="none" stroke="#63b8ff" d="M374.15,-772.92C352.81,-784.32 325.17,-798.58 300,-810 289.38,-814.82 277.71,-819.63 266.86,-823.92"/>
<polygon fill="#63b8ff" stroke="#63b8ff" points="376.03,-775.89 383.18,-768.07 372.71,-769.72 376.03,-775.89"/>
</a>
</g>
</g>
<!-- Node7&#45;&gt;Node9 -->
<g id="edge11_Node000007_Node000009" class="edge">
<title>Node7&#45;&gt;Node9</title>
<g id="a_edge11_Node000007_Node000009"><a xlink:title=" ">
<path fill="none" stroke="#63b8ff" d="M400.44,-728.75C379.66,-679.78 331.35,-571.62 300,-547 295.02,-543.09 289.33,-539.98 283.36,-537.51"/>
<polygon fill="#63b8ff" stroke="#63b8ff" points="397.22,-730.13 404.33,-737.99 403.67,-727.41 397.22,-730.13"/>
</a>
</g>
</g>
<!-- Node12 -->
<g id="Node000012" class="node">
<title>Node12</title>
<g id="a_Node000012"><a xlink:href="classRayTracer_1_1Camera.html#a3735fca524537e8a0ce755bb77e9a71f" target="_top" xlink:title="Render the scene into a 2D framebuffer.">
<polygon fill="white" stroke="#666666" points="115,-586 0,-586 0,-556 115,-556 115,-586"/>
<text text-anchor="start" x="8" y="-574" font-family="Helvetica,sans-Serif" font-size="10.00">RayTracer::Camera::</text>
<text text-anchor="middle" x="57.5" y="-563" font-family="Helvetica,sans-Serif" font-size="10.00">render</text>
</a>
</g>
</g>
<!-- Node11&#45;&gt;Node12 -->
<g id="edge14_Node000011_Node000012" class="edge">
<title>Node11&#45;&gt;Node12</title>
<g id="a_edge14_Node000011_Node000012"><a xlink:title=" ">
<path fill="none" stroke="#63b8ff" d="M186.26,-637.19C156.17,-621.6 114.9,-600.22 87.5,-586.03"/>
<polygon fill="#63b8ff" stroke="#63b8ff" points="184.72,-640.33 195.2,-641.82 187.94,-634.12 184.72,-640.33"/>
</a>
</g>
</g>
<!-- Node14&#45;&gt;Node2 -->
<g id="edge17_Node000014_Node000002" class="edge">
<title>Node14&#45;&gt;Node2</title>
<g id="a_edge17_Node000014_Node000002"><a xlink:title=" ">
<path fill="none" stroke="#63b8ff" d="M343.98,-586.02C268.26,-603.23 154.52,-629.55 151,-633 105.45,-677.7 156.66,-723.66 115,-772 112.08,-775.39 108.59,-778.31 104.81,-780.83"/>
<polygon fill="#63b8ff" stroke="#63b8ff" points="344.96,-589.38 353.93,-583.75 343.41,-582.56 344.96,-589.38"/>
</a>
</g>
</g>
<!-- Node14&#45;&gt;Node3 -->
<g id="edge19_Node000014_Node000003" class="edge">
<title>Node14&#45;&gt;Node3</title>
<g id="a_edge19_Node000014_Node000003"><a xlink:title=" ">
<path fill="none" stroke="#63b8ff" d="M396.4,-594.89C372.75,-634.26 325.2,-710.31 300,-729 295.36,-732.44 290.21,-735.4 284.85,-737.94"/>
<polygon fill="#63b8ff" stroke="#63b8ff" points="399.48,-596.55 401.61,-586.17 393.47,-592.96 399.48,-596.55"/>
</a>
</g>
</g>
<!-- Node14&#45;&gt;Node6 -->
<g id="edge22_Node000014_Node000006" class="edge">
<title>Node14&#45;&gt;Node6</title>
<g id="a_edge22_Node000014_Node000006"><a xlink:title=" ">
<path fill="none" stroke="#63b8ff" d="M390.2,-593.56C364.21,-621.99 320.15,-668.66 300,-681 294.5,-684.36 288.49,-687.31 282.33,-689.88"/>
<polygon fill="#63b8ff" stroke="#63b8ff" points="392.87,-595.82 397.01,-586.06 387.69,-591.11 392.87,-595.82"/>
</a>
</g>
</g>
<!-- Node14&#45;&gt;Node8 -->
<g id="edge28_Node000014_Node000008" class="edge">
<title>Node14&#45;&gt;Node8</title>
<g id="a_edge28_Node000014_Node000008"><a xlink:title=" ">
<path fill="none" stroke="#63b8ff" d="M400.95,-595.49C384.42,-635.99 347.59,-718.29 300,-777 285.18,-795.29 264.39,-812.24 248.7,-823.78"/>
<polygon fill="#63b8ff" stroke="#63b8ff" points="404.23,-596.71 404.72,-586.13 397.74,-594.1 404.23,-596.71"/>
</a>
</g>
</g>
<!-- Node14&#45;&gt;Node9 -->
<g id="edge29_Node000014_Node000009" class="edge">
<title>Node14&#45;&gt;Node9</title>
<g id="a_edge29_Node000014_Node000009"><a xlink:title=" ">
<path fill="none" stroke="#63b8ff" d="M343.76,-555.4C318.15,-549.42 289.71,-542.77 267.25,-537.52"/>
<polygon fill="#63b8ff" stroke="#63b8ff" points="343.26,-558.88 353.79,-557.75 344.85,-552.06 343.26,-558.88"/>
</a>
</g>
</g>
<!-- Node14&#45;&gt;Node11 -->
<g id="edge24_Node000014_Node000011" class="edge">
<title>Node14&#45;&gt;Node11</title>
<g id="a_edge24_Node000014_Node000011"><a xlink:title=" ">
<path fill="none" stroke="#63b8ff" d="M362.34,-590C353.43,-593.98 344.31,-598.39 336,-603 318.96,-612.45 317.17,-618.81 300,-628 290.45,-633.11 279.79,-637.83 269.62,-641.91"/>
<polygon fill="#63b8ff" stroke="#63b8ff" points="363.74,-593.2 371.51,-586 360.94,-586.79 363.74,-593.2"/>
</a>
</g>
</g>
<!-- Node15 -->
<g id="Node000015" class="node">
<title>Node15</title>
<g id="a_Node000015"><a xlink:href="classRayTracer_1_1DirectionalLight.html#a682bc429176da9bb6b1694703b44ba0e" target="_top" xlink:title=" ">
<polygon fill="white" stroke="#666666" points="299.5,-586 151.5,-586 151.5,-556 299.5,-556 299.5,-586"/>
<text text-anchor="start" x="159.5" y="-574" font-family="Helvetica,sans-Serif" font-size="10.00">RayTracer::DirectionalLight</text>
<text text-anchor="middle" x="225.5" y="-563" font-family="Helvetica,sans-Serif" font-size="10.00">::DirectionalLight</text>
</a>
</g>
</g>
<!-- Node14&#45;&gt;Node15 -->
<g id="edge18_Node000014_Node000015" class="edge">
<title>Node14&#45;&gt;Node15</title>
<g id="a_edge18_Node000014_Node000015"><a xlink:title=" ">
<path fill="none" stroke="#63b8ff" d="M343.57,-571C329.29,-571 314.14,-571 299.64,-571"/>
<polygon fill="#63b8ff" stroke="#63b8ff" points="343.79,-574.5 353.79,-571 343.79,-567.5 343.79,-574.5"/>
</a>
</g>
</g>
<!-- Node16 -->
<g id="Node000016" class="node">
<title>Node16</title>
<g id="a_Node000016"><a xlink:href="classRayTracer_1_1Camera.html#a7cd2251f34b6dda51fe338512e598571" target="_top" xlink:title="Evaluate the rendering equation along a ray, deterministically.">
<polygon fill="white" stroke="#666666" points="283,-500 168,-500 168,-470 283,-470 283,-500"/>
<text text-anchor="start" x="176" y="-488" font-family="Helvetica,sans-Serif" font-size="10.00">RayTracer::Camera::</text>
<text text-anchor="middle" x="225.5" y="-477" font-family="Helvetica,sans-Serif" font-size="10.00">castRay</text>
</a>
</g>
</g>
<!-- Node14&#45;&gt;Node16 -->
<g id="edge20_Node000014_Node000016" class="edge">
<title>Node14&#45;&gt;Node16</title>
<g id="a_edge20_Node000014_Node000016"><a xlink:title=" ">
<path fill="none" stroke="#63b8ff" d="M377.37,-550.69C355.82,-538 326.83,-521.86 300,-510 291.99,-506.46 283.3,-503.1 274.81,-500.07"/>
<polygon fill="#63b8ff" stroke="#63b8ff" points="375.74,-553.8 386.12,-555.9 379.32,-547.78 375.74,-553.8"/>
</a>
</g>
</g>
<!-- Node17 -->
<g id="Node000017" class="node">
<title>Node17</title>
<g id="a_Node000017"><a xlink:href="classRayTracer_1_1Phong.html#a2526bd20be0b2cbb045250c4a6573b27" target="_top" xlink:title="Evaluate the BRDF for a given pair of directions.">
<polygon fill="white" stroke="#666666" points="300,-451.5 151,-451.5 151,-432.5 300,-432.5 300,-451.5"/>
<text text-anchor="middle" x="225.5" y="-439.5" font-family="Helvetica,sans-Serif" font-size="10.00">RayTracer::Phong::evaluate</text>
</a>
</g>
</g>
<!-- Node14&#45;&gt;Node17 -->
<g id="edge23_Node000014_Node000017" class="edge">
<title>Node14&#45;&gt;Node17</title>
<g id="a_edge23_Node000014_Node000017"><a xlink:title=" ">
<path fill="none" stroke="#63b8ff" d="M381.68,-549.59C367.26,-538.26 349.96,-523.68 336,-509 317.63,-489.67 322.16,-475.84 300,-461 294.2,-457.11 287.65,-454.02 280.9,-451.56"/>
<polygon fill="#63b8ff" stroke="#63b8ff" points="379.73,-552.52 389.78,-555.87 384.02,-546.98 379.73,-552.52"/>
</a>
</g>
</g>
<!-- Node18 -->
<g id="Node000018" class="node">
<title>Node18</title>
<g id="a_Node000018"><a xlink:href="classRayTracer_1_1Cylinder.html#ab42450e2290b96bccdf83ba79fa9d8af" target="_top" xlink:title="Test ray–cylinder intersection using the quadratic form of the cylinder equation.">
<polygon fill="white" stroke="#666666" points="290.5,-340.5 160.5,-340.5 160.5,-321.5 290.5,-321.5 290.5,-340.5"/>
<text text-anchor="middle" x="225.5" y="-328.5" font-family="Helvetica,sans-Serif" font-size="10.00">RayTracer::Cylinder::hit</text>
</a>
</g>
</g>
<!-- Node14&#45;&gt;Node18 -->
<g id="edge25_Node000014_Node000018" class="edge">
<title>Node14&#45;&gt;Node18</title>
<g id="a_edge25_Node000014_Node000018"><a xlink:title=" ">
<path fill="none" stroke="#63b8ff" d="M376.29,-549.95C361.8,-539.36 345.99,-525.31 336,-509 298.15,-447.22 350.45,-402 300,-350 296.33,-346.22 292.01,-343.15 287.34,-340.67"/>
<polygon fill="#63b8ff" stroke="#63b8ff" points="374.42,-552.9 384.62,-555.77 378.43,-547.17 374.42,-552.9"/>
</a>
</g>
</g>
<!-- Node19 -->
<g id="Node000019" class="node">
<title>Node19</title>
<g id="a_Node000019"><a xlink:href="classRayTracer_1_1Sphere.html#a40d439c5a658465a6eeef01f7679ecc9" target="_top" xlink:title="Test ray intersection with this primitive.">
<polygon fill="white" stroke="#666666" points="287,-377.5 164,-377.5 164,-358.5 287,-358.5 287,-377.5"/>
<text text-anchor="middle" x="225.5" y="-365.5" font-family="Helvetica,sans-Serif" font-size="10.00">RayTracer::Sphere::hit</text>
</a>
</g>
</g>
<!-- Node14&#45;&gt;Node19 -->
<g id="edge26_Node000014_Node000019" class="edge">
<title>Node14&#45;&gt;Node19</title>
<g id="a_edge26_Node000014_Node000019"><a xlink:title=" ">
<path fill="none" stroke="#63b8ff" d="M377.41,-550.11C362.85,-539.41 346.67,-525.22 336,-509 304.93,-461.77 340.65,-426.29 300,-387 296.02,-383.15 291.37,-380.06 286.37,-377.57"/>
<polygon fill="#63b8ff" stroke="#63b8ff" points="375.55,-553.08 385.74,-555.99 379.59,-547.36 375.55,-553.08"/>
</a>
</g>
</g>
<!-- Node20 -->
<g id="Node000020" class="node">
<title>Node20</title>
<g id="a_Node000020"><a xlink:href="classRayTracer_1_1Phong.html#af9bc5125da9a856062f5284e36ceb5b2" target="_top" xlink:title="Return the probability density of the direction from sample().">
<polygon fill="white" stroke="#666666" points="286.5,-414.5 164.5,-414.5 164.5,-395.5 286.5,-395.5 286.5,-414.5"/>
<text text-anchor="middle" x="225.5" y="-402.5" font-family="Helvetica,sans-Serif" font-size="10.00">RayTracer::Phong::pdf</text>
</a>
</g>
</g>
<!-- Node14&#45;&gt;Node20 -->
<g id="edge27_Node000014_Node000020" class="edge">
<title>Node14&#45;&gt;Node20</title>
<g id="a_edge27_Node000014_Node000020"><a xlink:title=" ">
<path fill="none" stroke="#63b8ff" d="M378.85,-550C364.32,-539.12 347.74,-524.81 336,-509 311.54,-476.06 331.07,-450.79 300,-424 295.51,-420.13 290.32,-417.03 284.83,-414.55"/>
<polygon fill="#63b8ff" stroke="#63b8ff" points="376.97,-552.96 387.12,-556 381.08,-547.3 376.97,-552.96"/>
</a>
</g>
</g>
<!-- Node16&#45;&gt;Node12 -->
<g id="edge21_Node000016_Node000012" class="edge">
<title>Node16&#45;&gt;Node12</title>
<g id="a_edge21_Node000016_Node000012"><a xlink:title=" ">
<path fill="none" stroke="#63b8ff" d="M164.69,-503.89C160,-505.81 155.38,-507.85 151,-510 124.4,-523.03 96.33,-542.46 78.18,-555.87"/>
<polygon fill="#63b8ff" stroke="#63b8ff" points="166.33,-507.01 174.38,-500.12 163.79,-500.49 166.33,-507.01"/>
</a>
</g>
</g>
<!-- Node23&#45;&gt;Node9 -->
<g id="edge38_Node000023_Node000009" class="edge">
<title>Node23&#45;&gt;Node9</title>
<g id="a_edge38_Node000023_Node000009"><a xlink:title=" ">
<path fill="none" stroke="#63b8ff" d="M344.57,-455.64C341.58,-457.28 338.71,-459.07 336,-461 314.29,-476.48 322.16,-494.16 300,-509 294.2,-512.89 287.65,-515.98 280.9,-518.44"/>
<polygon fill="#63b8ff" stroke="#63b8ff" points="346.34,-458.67 353.78,-451.12 343.26,-452.38 346.34,-458.67"/>
</a>
</g>
</g>
<!-- Node23&#45;&gt;Node16 -->
<g id="edge33_Node000023_Node000016" class="edge">
<title>Node23&#45;&gt;Node16</title>
<g id="a_edge33_Node000023_Node000016"><a xlink:title=" ">
<path fill="none" stroke="#63b8ff" d="M343.85,-454.39C323.91,-459.59 302.25,-465.24 283.02,-470.26"/>
<polygon fill="#63b8ff" stroke="#63b8ff" points="345,-457.7 353.79,-451.79 343.23,-450.93 345,-457.7"/>
</a>
</g>
</g>
<!-- Node23&#45;&gt;Node17 -->
<g id="edge34_Node000023_Node000017" class="edge">
<title>Node23&#45;&gt;Node17</title>
<g id="a_edge34_Node000023_Node000017"><a xlink:title=" ">
<path fill="none" stroke="#63b8ff" d="M343.7,-438.82C329.6,-439.2 314.65,-439.6 300.31,-439.99"/>
<polygon fill="#63b8ff" stroke="#63b8ff" points="343.89,-442.31 353.79,-438.54 343.7,-435.31 343.89,-442.31"/>
</a>
</g>
</g>
<!-- Node23&#45;&gt;Node18 -->
<g id="edge35_Node000023_Node000018" class="edge">
<title>Node23&#45;&gt;Node18</title>
<g id="a_edge35_Node000023_Node000018"><a xlink:title=" ">
<path fill="none" stroke="#63b8ff" d="M344.71,-419.04C341.65,-417.21 338.72,-415.21 336,-413 310.96,-392.68 325.63,-369.58 300,-350 294.97,-346.16 289.25,-343.09 283.26,-340.64"/>
<polygon fill="#63b8ff" stroke="#63b8ff" points="343.18,-422.18 353.66,-423.7 346.42,-415.98 343.18,-422.18"/>
</a>
</g>
</g>
<!-- Node23&#45;&gt;Node20 -->
<g id="edge37_Node000023_Node000020" class="edge">
<title>Node23&#45;&gt;Node20</title>
<g id="a_edge37_Node000023_Node000020"><a xlink:title=" ">
<path fill="none" stroke="#63b8ff" d="M343.85,-425.41C323.25,-421.83 300.82,-417.92 281.13,-414.5"/>
<polygon fill="#63b8ff" stroke="#63b8ff" points="343.34,-428.87 353.79,-427.14 344.54,-421.98 343.34,-428.87"/>
</a>
</g>
</g>
<!-- Node24 -->
<g id="Node000024" class="node">
<title>Node24</title>
<g id="a_Node000024"><a xlink:href="classRayTracer_1_1Plane.html#a7b741696eb186f6ec9df62e58e795916" target="_top" xlink:title="Test ray–plane intersection using the algebraic plane equation.">
<polygon fill="white" stroke="#666666" points="283.5,-303.5 167.5,-303.5 167.5,-284.5 283.5,-284.5 283.5,-303.5"/>
<text text-anchor="middle" x="225.5" y="-291.5" font-family="Helvetica,sans-Serif" font-size="10.00">RayTracer::Plane::hit</text>
</a>
</g>
</g>
<!-- Node23&#45;&gt;Node24 -->
<g id="edge36_Node000023_Node000024" class="edge">
<title>Node23&#45;&gt;Node24</title>
<g id="a_edge36_Node000023_Node000024"><a xlink:title=" ">
<path fill="none" stroke="#63b8ff" d="M344.86,-420.01C341.68,-417.93 338.7,-415.61 336,-413 302.04,-380.17 334.91,-344.82 300,-313 295.23,-308.65 289.59,-305.27 283.59,-302.65"/>
<polygon fill="#63b8ff" stroke="#63b8ff" points="343.21,-423.1 353.65,-424.92 346.63,-416.99 343.21,-423.1"/>
</a>
</g>
</g>
<!-- Node26&#45;&gt;Node18 -->
<g id="edge41_Node000026_Node000018" class="edge">
<title>Node26&#45;&gt;Node18</title>
<g id="a_edge41_Node000026_Node000018"><a xlink:title=" ">
<path fill="none" stroke="#63b8ff" d="M343.78,-337.37C326.48,-336.43 307.9,-335.42 290.73,-334.49"/>
<polygon fill="#63b8ff" stroke="#63b8ff" points="343.62,-340.87 353.79,-337.92 344,-333.88 343.62,-340.87"/>
</a>
</g>
</g>
<!-- Node26&#45;&gt;Node19 -->
<g id="edge43_Node000026_Node000019" class="edge">
<title>Node26&#45;&gt;Node19</title>
<g id="a_edge43_Node000026_Node000019"><a xlink:title=" ">
<path fill="none" stroke="#63b8ff" d="M343.7,-350.8C325.22,-353.51 305.28,-356.44 287.17,-359.1"/>
<polygon fill="#63b8ff" stroke="#63b8ff" points="344.41,-354.24 353.79,-349.32 343.39,-347.31 344.41,-354.24"/>
</a>
</g>
</g>
<!-- Node26&#45;&gt;Node24 -->
<g id="edge42_Node000026_Node000024" class="edge">
<title>Node26&#45;&gt;Node24</title>
<g id="a_edge42_Node000026_Node000024"><a xlink:title=" ">
<path fill="none" stroke="#63b8ff" d="M344.01,-324.02C317.03,-317.12 286.86,-309.42 263.85,-303.54"/>
<polygon fill="#63b8ff" stroke="#63b8ff" points="343.24,-327.43 353.79,-326.51 344.97,-320.65 343.24,-327.43"/>
</a>
</g>
</g>
<!-- Node27&#45;&gt;Node9 -->
<g id="edge48_Node000027_Node000009" class="edge">
<title>Node27&#45;&gt;Node9</title>
<g id="a_edge48_Node000027_Node000009"><a xlink:title=" ">
<path fill="none" stroke="#63b8ff" d="M343.76,-500.6C318.15,-506.58 289.71,-513.23 267.25,-518.48"/>
<polygon fill="#63b8ff" stroke="#63b8ff" points="344.85,-503.94 353.79,-498.25 343.26,-497.12 344.85,-503.94"/>
</a>
</g>
</g>
<!-- Node27&#45;&gt;Node17 -->
<g id="edge45_Node000027_Node000017" class="edge">
<title>Node27&#45;&gt;Node17</title>
<g id="a_edge45_Node000027_Node000017"><a xlink:title=" ">
<path fill="none" stroke="#63b8ff" d="M343.76,-469.4C318.15,-463.42 289.71,-456.77 267.25,-451.52"/>
<polygon fill="#63b8ff" stroke="#63b8ff" points="343.26,-472.88 353.79,-471.75 344.85,-466.06 343.26,-472.88"/>
</a>
</g>
</g>
<!-- Node27&#45;&gt;Node18 -->
<g id="edge46_Node000027_Node000018" class="edge">
<title>Node27&#45;&gt;Node18</title>
<g id="a_edge46_Node000027_Node000018"><a xlink:title=" ">
<path fill="none" stroke="#63b8ff" d="M344.94,-468.23C341.72,-466.1 338.71,-463.7 336,-461 299.29,-424.36 337.77,-385.54 300,-350 295.87,-346.12 291.06,-343 285.9,-340.51"/>
<polygon fill="#63b8ff" stroke="#63b8ff" points="343.44,-471.4 353.87,-473.26 346.88,-465.3 343.44,-471.4"/>
</a>
</g>
</g>
<!-- Node27&#45;&gt;Node20 -->
<g id="edge47_Node000027_Node000020" class="edge">
<title>Node27&#45;&gt;Node20</title>
<g id="a_edge47_Node000027_Node000020"><a xlink:title=" ">
<path fill="none" stroke="#63b8ff" d="M344.67,-465.83C341.68,-464.33 338.77,-462.72 336,-461 316.5,-448.9 319.84,-435.52 300,-424 293.28,-420.1 285.75,-416.98 278.14,-414.5"/>
<polygon fill="#63b8ff" stroke="#63b8ff" points="343.3,-469.05 353.85,-470.03 346.21,-462.69 343.3,-469.05"/>
</a>
</g>
</g>
<!-- Node29&#45;&gt;Node18 -->
<g id="edge51_Node000029_Node000018" class="edge">
<title>Node29&#45;&gt;Node18</title>
<g id="a_edge51_Node000029_Node000018"><a xlink:title=" ">
<path fill="none" stroke="#63b8ff" d="M352.03,-370.68C346.59,-368.82 341.18,-366.91 336,-365 319.74,-359 316.43,-355.52 300,-350 289.63,-346.52 278.26,-343.3 267.62,-340.53"/>
<polygon fill="#63b8ff" stroke="#63b8ff" points="351.22,-374.09 361.81,-373.96 353.44,-367.46 351.22,-374.09"/>
</a>
</g>
</g>
</g>
</svg>
