<?xml version="1.0" encoding="UTF-8" standalone="no"?>
<!DOCTYPE svg PUBLIC "-//W3C//DTD SVG 1.1//EN"
 "http://www.w3.org/Graphics/SVG/1.1/DTD/svg11.dtd">
<!-- Generated by graphviz version 2.43.0 (0)
 -->
<!-- Title: RayTracer::AmbientLight Pages: 1 -->
<svg width="138pt" height="202pt"
 viewBox="0.00 0.00 138.00 202.00" xmlns="http://www.w3.org/2000/svg" xmlns:xlink="http://www.w3.org/1999/xlink">
<g id="graph0" class="graph" transform="scale(1 1) rotate(0) translate(4 198)">
<title>RayTracer::AmbientLight</title>
<!-- Node1 -->
<g id="Node000001" class="node">
<title>Node1</title>
<g id="a_Node000001"><a xlink:title=" ">
<polygon fill="#999999" stroke="transparent" points="130,-94 0,-94 0,0 130,0 130,-94"/>
<text text-anchor="start" x="5" y="-82" font-family="Helvetica,sans-Serif" font-size="10.00">RayTracer::AmbientLight</text>
<text text-anchor="start" x="13" y="-67" font-family="Helvetica,sans-Serif" font-size="10.00">&#45;</text>
<text text-anchor="start" x="30" y="-67" font-family="Helvetica,sans-Serif" font-size="10.00">_intensity</text>
<text text-anchor="start" x="13" y="-52" font-family="Helvetica,sans-Serif" font-size="10.00">&#45;</text>
<text text-anchor="start" x="30" y="-52" font-family="Helvetica,sans-Serif" font-size="10.00">_color</text>
<text text-anchor="start" x="10.5" y="-37" font-family="Helvetica,sans-Serif" font-size="10.00">+</text>
<text text-anchor="start" x="30" y="-37" font-family="Helvetica,sans-Serif" font-size="10.00">AmbientLight()</text>
<text text-anchor="start" x="10.5" y="-22" font-family="Helvetica,sans-Serif" font-size="10.00">+</text>
<text text-anchor="start" x="30" y="-22" font-family="Helvetica,sans-Serif" font-size="10.00">~AmbientLight()</text>
<text text-anchor="start" x="10.5" y="-7" font-family="Helvetica,sans-Serif" font-size="10.00">+</text>
<text text-anchor="start" x="30" y="-7" font-family="Helvetica,sans-Serif" font-size="10.00">computeLight()</text>
<polygon fill="#666666" stroke="#666666" points="0,-77 0,-77 130,-77 130,-77 0,-77"/>
<polygon fill="#666666" stroke="#666666" points="0,-47 0,-47 28,-47 28,-47 0,-47"/>
<polygon fill="#666666" stroke="#666666" points="28,-47 28,-47 130,-47 130,-47 28,-47"/>
<polygon fill="none" stroke="#666666" points="0,0 0,-94 130,-94 130,0 0,0"/>
</a>
</g>
</g>
<!-- Node2 -->
<g id="Node000002" class="node">
<title>Node2</title>
<g id="a_Node000002"><a xlink:href="classRayTracer_1_1ILight.html" target="_top" xlink:title=" ">
<polygon fill="white" stroke="transparent" points="113,-194 17,-194 17,-130 113,-130 113,-194"/>
<text text-anchor="start" x="24" y="-182" font-family="Helvetica,sans-Serif" font-size="10.00">RayTracer::ILight</text>
<text text-anchor="start" x="63" y="-167" font-family="Helvetica,sans-Serif" font-size="10.00"> </text>
<text text-anchor="start" x="21" y="-152" font-family="Helvetica,sans-Serif" font-size="10.00">+</text>
<text text-anchor="start" x="34" y="-152" font-family="Helvetica,sans-Serif" font-size="10.00">~ILight()</text>
<text text-anchor="start" x="21" y="-137" font-family="Helvetica,sans-Serif" font-size="10.00">+</text>
<text text-anchor="start" x="34" y="-137" font-family="Helvetica,sans-Serif" font-size="10.00">computeLight()</text>
<polygon fill="#666666" stroke="#666666" points="17,-177 17,-177 113,-177 113,-177 17,-177"/>
<polygon fill="#666666" stroke="#666666" points="17,-162 17,-162 113,-162 113,-162 17,-162"/>
<polygon fill="none" stroke="#666666" points="17,-130 17,-194 113,-194 113,-130 17,-130"/>
</a>
</g>
</g>
<!-- Node2&#45;&gt;Node1 -->
<g id="edge1_Node000001_Node000002" class="edge">
<title>Node2&#45;&gt;Node1</title>
<g id="a_edge1_Node000001_Node000002"><a xlink:title=" ">
<path fill="none" stroke="#63b8ff" d="M65,-119.68C65,-111.43 65,-102.72 65,-94.31"/>
<polygon fill="none" stroke="#63b8ff" points="61.5,-119.82 65,-129.82 68.5,-119.82 61.5,-119.82"/>
</a>
</g>
</g>
</g>
</svg>
