<?xml version="1.0" encoding="UTF-8" standalone="no"?>
<!DOCTYPE svg PUBLIC "-//W3C//DTD SVG 1.1//EN"
 "http://www.w3.org/Graphics/SVG/1.1/DTD/svg11.dtd">
<!-- Generated by graphviz version 2.43.0 (0)
 -->
<!-- Title: RayTracer::Cone::hit Pages: 1 -->
<svg width="446pt" height="449pt"
 viewBox="0.00 0.00 446.00 449.00" xmlns="http://www.w3.org/2000/svg" xmlns:xlink="http://www.w3.org/1999/xlink">
<g id="graph0" class="graph" transform="scale(1 1) rotate(0) translate(4 445)">
<title>RayTracer::Cone::hit</title>
<!-- Node1 -->
<g id="Node000001" class="node">
<title>Node1</title>
<g id="a_Node000001"><a xlink:title="Test ray–cone intersection using the quadratic form of the cone equation.">
<polygon fill="#999999" stroke="#666666" points="114,-240.5 0,-240.5 0,-221.5 114,-221.5 114,-240.5"/>
<text text-anchor="middle" x="57" y="-228.5" font-family="Helvetica,sans-Serif" font-size="10.00">RayTracer::Cone::hit</text>
</a>
</g>
</g>
<!-- Node2 -->
<g id="Node000002" class="node">
<title>Node2</title>
<g id="a_Node000002"><a xlink:href="structGeometry_1_1HitRecord.html#a158d2c230c1851a8f6bc0e79dc4b12b5" target="_top" xlink:title="Constructor.">
<polygon fill="white" stroke="#666666" points="278,-441 159,-441 159,-411 278,-411 278,-441"/>
<text text-anchor="start" x="167" y="-429" font-family="Helvetica,sans-Serif" font-size="10.00">Geometry::HitRecord</text>
<text text-anchor="middle" x="218.5" y="-418" font-family="Helvetica,sans-Serif" font-size="10.00">::HitRecord</text>
</a>
</g>
</g>
<!-- Node1&#45;&gt;Node2 -->
<g id="edge1_Node000001_Node000002" class="edge">
<title>Node1&#45;&gt;Node2</title>
<g id="a_edge1_Node000001_Node000002"><a xlink:title=" ">
<path fill="none" stroke="#63b8ff" d="M60.53,-240.7C68.53,-269.54 96.03,-355.67 150,-402 151.36,-403.17 152.79,-404.28 154.26,-405.34"/>
<polygon fill="#63b8ff" stroke="#63b8ff" points="152.82,-408.57 163.16,-410.86 156.5,-402.62 152.82,-408.57"/>
</a>
</g>
</g>
<!-- Node3 -->
<g id="Node000003" class="node">
<title>Node3</title>
<g id="a_Node000003"><a xlink:href="classGeometry_1_1Ray.html#ab2ee230ea6c5b866a94d7bfd57c98845" target="_top" xlink:title="Compute a point at parameter t along the ray.">
<polygon fill="white" stroke="#666666" points="270.5,-392.5 166.5,-392.5 166.5,-373.5 270.5,-373.5 270.5,-392.5"/>
<text text-anchor="middle" x="218.5" y="-380.5" font-family="Helvetica,sans-Serif" font-size="10.00">Geometry::Ray::at</text>
</a>
</g>
</g>
<!-- Node1&#45;&gt;Node3 -->
<g id="edge2_Node000001_Node000003" class="edge">
<title>Node1&#45;&gt;Node3</title>
<g id="a_edge2_Node000001_Node000003"><a xlink:title=" ">
<path fill="none" stroke="#63b8ff" d="M61.72,-240.5C71.88,-265.13 102.52,-331.47 150,-365 152.24,-366.59 154.62,-368.03 157.09,-369.35"/>
<polygon fill="#63b8ff" stroke="#63b8ff" points="155.79,-372.61 166.34,-373.59 158.71,-366.24 155.79,-372.61"/>
</a>
</g>
</g>
<!-- Node5 -->
<g id="Node000005" class="node">
<title>Node5</title>
<g id="a_Node000005"><a xlink:href="classGeometry_1_1Vector3D.html#affb9009fe58aafa334f1f5f703feceb3" target="_top" xlink:title=" ">
<polygon fill="white" stroke="#666666" points="287,-355.5 150,-355.5 150,-336.5 287,-336.5 287,-355.5"/>
<text text-anchor="middle" x="218.5" y="-343.5" font-family="Helvetica,sans-Serif" font-size="10.00">Geometry::Vector3D::dot</text>
</a>
</g>
</g>
<!-- Node1&#45;&gt;Node5 -->
<g id="edge4_Node000001_Node000005" class="edge">
<title>Node1&#45;&gt;Node5</title>
<g id="a_edge4_Node000001_Node000005"><a xlink:title=" ">
<path fill="none" stroke="#63b8ff" d="M64.4,-240.51C77.89,-259.81 111.2,-303.72 150,-327 153.64,-329.18 157.54,-331.13 161.57,-332.85"/>
<polygon fill="#63b8ff" stroke="#63b8ff" points="160.52,-336.2 171.11,-336.5 163.02,-329.66 160.52,-336.2"/>
</a>
</g>
</g>
<!-- Node6 -->
<g id="Node000006" class="node">
<title>Node6</title>
<g id="a_Node000006"><a xlink:href="classRayTracer_1_1APrimitive.html#acdc1a350e79537fa0b9c8588a170bdcf" target="_top" xlink:title="Get the material of this primitive.">
<polygon fill="white" stroke="#666666" points="279.5,-318 157.5,-318 157.5,-288 279.5,-288 279.5,-318"/>
<text text-anchor="start" x="165.5" y="-306" font-family="Helvetica,sans-Serif" font-size="10.00">RayTracer::APrimitive</text>
<text text-anchor="middle" x="218.5" y="-295" font-family="Helvetica,sans-Serif" font-size="10.00">::getMaterial</text>
</a>
</g>
</g>
<!-- Node1&#45;&gt;Node6 -->
<g id="edge5_Node000001_Node000006" class="edge">
<title>Node1&#45;&gt;Node6</title>
<g id="a_edge5_Node000001_Node000006"><a xlink:title=" ">
<path fill="none" stroke="#63b8ff" d="M74.61,-240.57C92.78,-250.81 122.92,-267.19 150,-279 154.15,-280.81 158.49,-282.59 162.87,-284.32"/>
<polygon fill="#63b8ff" stroke="#63b8ff" points="161.91,-287.69 172.5,-287.99 164.4,-281.15 161.91,-287.69"/>
</a>
</g>
</g>
<!-- Node7 -->
<g id="Node000007" class="node">
<title>Node7</title>
<g id="a_Node000007"><a xlink:href="classGeometry_1_1Vector3D.html#ae2861f32c5661f184b655cf412e38b91" target="_top" xlink:title=" ">
<polygon fill="white" stroke="#666666" points="276,-270 161,-270 161,-240 276,-240 276,-270"/>
<text text-anchor="start" x="169" y="-258" font-family="Helvetica,sans-Serif" font-size="10.00">Geometry::Vector3D</text>
<text text-anchor="middle" x="218.5" y="-247" font-family="Helvetica,sans-Serif" font-size="10.00">::length</text>
</a>
</g>
</g>
<!-- Node1&#45;&gt;Node7 -->
<g id="edge6_Node000001_Node000007" class="edge">
<title>Node1&#45;&gt;Node7</title>
<g id="a_edge6_Node000001_Node000007"><a xlink:title=" ">
<path fill="none" stroke="#63b8ff" d="M114.23,-239.46C126.08,-241.24 138.68,-243.14 150.86,-244.97"/>
<polygon fill="#63b8ff" stroke="#63b8ff" points="150.56,-248.47 160.97,-246.49 151.6,-241.54 150.56,-248.47"/>
</a>
</g>
</g>
<!-- Node8 -->
<g id="Node000008" class="node">
<title>Node8</title>
<g id="a_Node000008"><a xlink:href="classGeometry_1_1Vector3D.html#a388f7af8bf0095c817e89b5b2518fda7" target="_top" xlink:title=" ">
<polygon fill="white" stroke="#666666" points="276,-222 161,-222 161,-192 276,-192 276,-222"/>
<text text-anchor="start" x="169" y="-210" font-family="Helvetica,sans-Serif" font-size="10.00">Geometry::Vector3D</text>
<text text-anchor="middle" x="218.5" y="-199" font-family="Helvetica,sans-Serif" font-size="10.00">::normalize</text>
</a>
</g>
</g>
<!-- Node1&#45;&gt;Node8 -->
<g id="edge7_Node000001_Node000008" class="edge">
<title>Node1&#45;&gt;Node8</title>
<g id="a_edge7_Node000001_Node000008"><a xlink:title=" ">
<path fill="none" stroke="#63b8ff" d="M114.23,-222.54C126.08,-220.76 138.68,-218.86 150.86,-217.03"/>
<polygon fill="#63b8ff" stroke="#63b8ff" points="151.6,-220.46 160.97,-215.51 150.56,-213.53 151.6,-220.46"/>
</a>
</g>
</g>
<!-- Node11 -->
<g id="Node000011" class="node">
<title>Node11</title>
<g id="a_Node000011"><a xlink:href="classGeometry_1_1Vector3D.html#aa583eecc673b26ce6058e6dd00238a62" target="_top" xlink:title=" ">
<polygon fill="white" stroke="#666666" points="276,-174 161,-174 161,-144 276,-144 276,-174"/>
<text text-anchor="start" x="169" y="-162" font-family="Helvetica,sans-Serif" font-size="10.00">Geometry::Vector3D</text>
<text text-anchor="middle" x="218.5" y="-151" font-family="Helvetica,sans-Serif" font-size="10.00">::operator*</text>
</a>
</g>
</g>
<!-- Node1&#45;&gt;Node11 -->
<g id="edge10_Node000001_Node000011" class="edge">
<title>Node1&#45;&gt;Node11</title>
<g id="a_edge10_Node000001_Node000011"><a xlink:title=" ">
<path fill="none" stroke="#63b8ff" d="M74.61,-221.43C92.78,-211.19 122.92,-194.81 150,-183 154.15,-181.19 158.49,-179.41 162.87,-177.68"/>
<polygon fill="#63b8ff" stroke="#63b8ff" points="164.4,-180.85 172.5,-174.01 161.91,-174.31 164.4,-180.85"/>
</a>
</g>
</g>
<!-- Node12 -->
<g id="Node000012" class="node">
<title>Node12</title>
<g id="a_Node000012"><a xlink:href="classGeometry_1_1Point3D.html#ae9af5cd5e04e5f0635d250cf80e4e78f" target="_top" xlink:title=" ">
<polygon fill="white" stroke="#666666" points="276,-126 161,-126 161,-96 276,-96 276,-126"/>
<text text-anchor="start" x="169" y="-114" font-family="Helvetica,sans-Serif" font-size="10.00">Geometry::Point3D::</text>
<text text-anchor="middle" x="218.5" y="-103" font-family="Helvetica,sans-Serif" font-size="10.00">operator&#45;</text>
</a>
</g>
</g>
<!-- Node1&#45;&gt;Node12 -->
<g id="edge12_Node000001_Node000012" class="edge">
<title>Node1&#45;&gt;Node12</title>
<g id="a_edge12_Node000001_Node000012"><a xlink:title=" ">
<path fill="none" stroke="#63b8ff" d="M64.74,-221.41C78.61,-202.35 112.2,-159.45 150,-135 152.45,-133.42 155.01,-131.92 157.65,-130.51"/>
<polygon fill="#63b8ff" stroke="#63b8ff" points="159.39,-133.56 166.86,-126.05 156.34,-127.26 159.39,-133.56"/>
</a>
</g>
</g>
<!-- Node13 -->
<g id="Node000013" class="node">
<title>Node13</title>
<g id="a_Node000013"><a xlink:href="classGeometry_1_1Vector3D.html#a12618c1c19f8fdd6ad13fa1c7c9147c0" target="_top" xlink:title=" ">
<polygon fill="white" stroke="#666666" points="276,-78 161,-78 161,-48 276,-48 276,-78"/>
<text text-anchor="start" x="169" y="-66" font-family="Helvetica,sans-Serif" font-size="10.00">Geometry::Vector3D</text>
<text text-anchor="middle" x="218.5" y="-55" font-family="Helvetica,sans-Serif" font-size="10.00">::operator&#45;</text>
</a>
</g>
</g>
<!-- Node1&#45;&gt;Node13 -->
<g id="edge14_Node000001_Node000013" class="edge">
<title>Node1&#45;&gt;Node13</title>
<g id="a_edge14_Node000001_Node000013"><a xlink:title=" ">
<path fill="none" stroke="#63b8ff" d="M61.54,-221.39C71.45,-195.78 101.94,-125.23 150,-87 151.61,-85.72 153.29,-84.51 155.02,-83.36"/>
<polygon fill="#63b8ff" stroke="#63b8ff" points="157.2,-86.14 164.11,-78.11 153.7,-80.08 157.2,-86.14"/>
</a>
</g>
</g>
<!-- Node14 -->
<g id="Node000014" class="node">
<title>Node14</title>
<g id="a_Node000014"><a xlink:href="classGeometry_1_1Vector3D.html#ac56b7f7705a5b7a2a4694d419b003162" target="_top" xlink:title=" ">
<polygon fill="white" stroke="#666666" points="276,-30 161,-30 161,0 276,0 276,-30"/>
<text text-anchor="start" x="169" y="-18" font-family="Helvetica,sans-Serif" font-size="10.00">Geometry::Vector3D</text>
<text text-anchor="middle" x="218.5" y="-7" font-family="Helvetica,sans-Serif" font-size="10.00">::operator/</text>
</a>
</g>
</g>
<!-- Node1&#45;&gt;Node14 -->
<g id="edge16_Node000001_Node000014" class="edge">
<title>Node1&#45;&gt;Node14</title>
<g id="a_edge16_Node000001_Node000014"><a xlink:title=" ">
<path fill="none" stroke="#63b8ff" d="M59.87,-221.46C66.42,-190.53 91.2,-91.91 150,-39 151.3,-37.83 152.67,-36.71 154.08,-35.65"/>
<polygon fill="#63b8ff" stroke="#63b8ff" points="156.14,-38.48 162.66,-30.13 152.36,-32.6 156.14,-38.48"/>
</a>
</g>
</g>
<!-- Node4 -->
<g id="Node000004" class="node">
<title>Node4</title>
<g id="a_Node000004"><a xlink:href="classGeometry_1_1Point3D.html#a6a08342f9542eb6d6ff7bcf2278a240d" target="_top" xlink:title=" ">
<polygon fill="white" stroke="#666666" points="438,-398 323,-398 323,-368 438,-368 438,-398"/>
<text text-anchor="start" x="331" y="-386" font-family="Helvetica,sans-Serif" font-size="10.00">Geometry::Point3D::</text>
<text text-anchor="middle" x="380.5" y="-375" font-family="Helvetica,sans-Serif" font-size="10.00">Point3D</text>
</a>
</g>
</g>
<!-- Node3&#45;&gt;Node4 -->
<g id="edge3_Node000003_Node000004" class="edge">
<title>Node3&#45;&gt;Node4</title>
<g id="a_edge3_Node000003_Node000004"><a xlink:title=" ">
<path fill="none" stroke="#63b8ff" d="M270.56,-383C283.96,-383 298.6,-383 312.69,-383"/>
<polygon fill="#63b8ff" stroke="#63b8ff" points="312.82,-386.5 322.82,-383 312.82,-379.5 312.82,-386.5"/>
</a>
</g>
</g>
<!-- Node9 -->
<g id="Node000009" class="node">
<title>Node9</title>
<g id="a_Node000009"><a xlink:href="classGeometry_1_1Vector3D.html#ae4c5a52ebf282e334801c8ee28ad8d5d" target="_top" xlink:title=" ">
<polygon fill="white" stroke="#666666" points="438,-126 323,-126 323,-96 438,-96 438,-126"/>
<text text-anchor="start" x="331" y="-114" font-family="Helvetica,sans-Serif" font-size="10.00">Geometry::Vector3D</text>
<text text-anchor="middle" x="380.5" y="-103" font-family="Helvetica,sans-Serif" font-size="10.00">::Vector3D</text>
</a>
</g>
</g>
<!-- Node8&#45;&gt;Node9 -->
<g id="edge8_Node000008_Node000009" class="edge">
<title>Node8&#45;&gt;Node9</title>
<g id="a_edge8_Node000008_Node000009"><a xlink:title=" ">
<path fill="none" stroke="#63b8ff" d="M267.9,-191.93C274.47,-189.27 281,-186.29 287,-183 312.22,-169.17 337.79,-148.66 355.64,-133.07"/>
<polygon fill="#63b8ff" stroke="#63b8ff" points="358.11,-135.55 363.26,-126.29 353.46,-130.32 358.11,-135.55"/>
</a>
</g>
</g>
<!-- Node10 -->
<g id="Node000010" class="node">
<title>Node10</title>
<g id="a_Node000010"><a xlink:href="classGeometry_1_1Vector3D.html#a8966b188a3b6d27793b3896618fea42c" target="_top" xlink:title="Calculate the length (magnitude) of this vector.">
<polygon fill="white" stroke="#666666" points="438,-222 323,-222 323,-192 438,-192 438,-222"/>
<text text-anchor="start" x="331" y="-210" font-family="Helvetica,sans-Serif" font-size="10.00">Geometry::Vector3D</text>
<text text-anchor="middle" x="380.5" y="-199" font-family="Helvetica,sans-Serif" font-size="10.00">::length</text>
</a>
</g>
</g>
<!-- Node8&#45;&gt;Node10 -->
<g id="edge9_Node000008_Node000010" class="edge">
<title>Node8&#45;&gt;Node10</title>
<g id="a_edge9_Node000008_Node000010"><a xlink:title=" ">
<path fill="none" stroke="#63b8ff" d="M276.36,-207C288.15,-207 300.67,-207 312.78,-207"/>
<polygon fill="#63b8ff" stroke="#63b8ff" points="312.82,-210.5 322.82,-207 312.82,-203.5 312.82,-210.5"/>
</a>
</g>
</g>
<!-- Node11&#45;&gt;Node9 -->
<g id="edge11_Node000011_Node000009" class="edge">
<title>Node11&#45;&gt;Node9</title>
<g id="a_edge11_Node000011_Node000009"><a xlink:title=" ">
<path fill="none" stroke="#63b8ff" d="M269.69,-143.94C285.47,-139.21 303.07,-133.93 319.46,-129.01"/>
<polygon fill="#63b8ff" stroke="#63b8ff" points="320.92,-132.23 329.49,-126 318.91,-125.52 320.92,-132.23"/>
</a>
</g>
</g>
<!-- Node12&#45;&gt;Node9 -->
<g id="edge13_Node000012_Node000009" class="edge">
<title>Node12&#45;&gt;Node9</title>
<g id="a_edge13_Node000012_Node000009"><a xlink:title=" ">
<path fill="none" stroke="#63b8ff" d="M276.36,-111C288.15,-111 300.67,-111 312.78,-111"/>
<polygon fill="#63b8ff" stroke="#63b8ff" points="312.82,-114.5 322.82,-111 312.82,-107.5 312.82,-114.5"/>
</a>
</g>
</g>
<!-- Node13&#45;&gt;Node9 -->
<g id="edge15_Node000013_Node000009" class="edge">
<title>Node13&#45;&gt;Node9</title>
<g id="a_edge15_Node000013_Node000009"><a xlink:title=" ">
<path fill="none" stroke="#63b8ff" d="M269.69,-78.06C285.47,-82.79 303.07,-88.07 319.46,-92.99"/>
<polygon fill="#63b8ff" stroke="#63b8ff" points="318.91,-96.48 329.49,-96 320.92,-89.77 318.91,-96.48"/>
</a>
</g>
</g>
<!-- Node14&#45;&gt;Node9 -->
<g id="edge17_Node000014_Node000009" class="edge">
<title>Node14&#45;&gt;Node9</title>
<g id="a_edge17_Node000014_Node000009"><a xlink:title=" ">
<path fill="none" stroke="#63b8ff" d="M267.9,-30.07C274.47,-32.73 281,-35.71 287,-39 312.22,-52.83 337.79,-73.34 355.64,-88.93"/>
<polygon fill="#63b8ff" stroke="#63b8ff" points="353.46,-91.68 363.26,-95.71 358.11,-86.45 353.46,-91.68"/>
</a>
</g>
</g>
</g>
</svg>
