<?xml version="1.0" encoding="UTF-8" standalone="no"?>
<!DOCTYPE svg PUBLIC "-//W3C//DTD SVG 1.1//EN"
 "http://www.w3.org/Graphics/SVG/1.1/DTD/svg11.dtd">
<!-- Generated by graphviz version 2.43.0 (0)
 -->
<!-- Title: RayTracer::BVH::hitNode Pages: 1 -->
<svg width="320pt" height="113pt"
 viewBox="0.00 0.00 320.00 112.50" xmlns="http://www.w3.org/2000/svg" xmlns:xlink="http://www.w3.org/1999/xlink">
<g id="graph0" class="graph" transform="scale(1 1) rotate(0) translate(4 108.5)">
<title>RayTracer::BVH::hitNode</title>
<!-- Node1 -->
<g id="Node000001" class="node">
<title>Node1</title>
<g id="a_Node000001"><a xlink:title=" ">
<polygon fill="#999999" stroke="#666666" points="136,-67.5 0,-67.5 0,-48.5 136,-48.5 136,-67.5"/>
<text text-anchor="middle" x="68" y="-55.5" font-family="Helvetica,sans-Serif" font-size="10.00">RayTracer::BVH::hitNode</text>
</a>
</g>
</g>
<!-- Node1&#45;&gt;Node1 -->
<g id="edge3_Node000001_Node000001" class="edge">
<title>Node1&#45;&gt;Node1</title>
<g id="a_edge3_Node000001_Node000001"><a xlink:title=" ">
<path fill="none" stroke="#63b8ff" d="M41.18,-67.58C28.13,-76.23 37.07,-85.5 68,-85.5 88.78,-85.5 99.63,-81.32 100.56,-75.95"/>
<polygon fill="#63b8ff" stroke="#63b8ff" points="103.36,-73.85 94.82,-67.58 97.59,-77.81 103.36,-73.85"/>
</a>
</g>
</g>
<!-- Node2 -->
<g id="Node000002" class="node">
<title>Node2</title>
<g id="a_Node000002"><a xlink:href="classRayTracer_1_1APrimitive.html#af00a66a6a6b8d251f5d21e1cc5077c6b" target="_top" xlink:title="Test ray intersection with this primitive.">
<polygon fill="white" stroke="#666666" points="312,-104.5 172,-104.5 172,-85.5 312,-85.5 312,-104.5"/>
<text text-anchor="middle" x="242" y="-92.5" font-family="Helvetica,sans-Serif" font-size="10.00">RayTracer::APrimitive::hit</text>
</a>
</g>
</g>
<!-- Node1&#45;&gt;Node2 -->
<g id="edge1_Node000001_Node000002" class="edge">
<title>Node1&#45;&gt;Node2</title>
<g id="a_edge1_Node000001_Node000002"><a xlink:title=" ">
<path fill="none" stroke="#63b8ff" d="M113.29,-67.53C135.68,-72.34 163.03,-78.23 186.68,-83.31"/>
<polygon fill="#63b8ff" stroke="#63b8ff" points="186.04,-86.76 196.56,-85.44 187.52,-79.91 186.04,-86.76"/>
</a>
</g>
</g>
<!-- Node3 -->
<g id="Node000003" class="node">
<title>Node3</title>
<g id="a_Node000003"><a xlink:href="classGeometry_1_1AABB.html#a8c406537b6e233f459bf9c258f7ad911" target="_top" xlink:title=" ">
<polygon fill="white" stroke="#666666" points="300,-67.5 184,-67.5 184,-48.5 300,-48.5 300,-67.5"/>
<text text-anchor="middle" x="242" y="-55.5" font-family="Helvetica,sans-Serif" font-size="10.00">Geometry::AABB::hit</text>
</a>
</g>
</g>
<!-- Node1&#45;&gt;Node3 -->
<g id="edge2_Node000001_Node000003" class="edge">
<title>Node1&#45;&gt;Node3</title>
<g id="a_edge2_Node000001_Node000003"><a xlink:title=" ">
<path fill="none" stroke="#63b8ff" d="M136.49,-58C148.76,-58 161.57,-58 173.84,-58"/>
<polygon fill="#63b8ff" stroke="#63b8ff" points="174,-61.5 184,-58 174,-54.5 174,-61.5"/>
</a>
</g>
</g>
<!-- Node4 -->
<g id="Node000004" class="node">
<title>Node4</title>
<g id="a_Node000004"><a xlink:href="structRayTracer_1_1BVH_1_1Node.html#adf1c12ea3158748487372080e28a8315" target="_top" xlink:title=" ">
<polygon fill="white" stroke="#666666" points="303.5,-30 180.5,-30 180.5,0 303.5,0 303.5,-30"/>
<text text-anchor="start" x="188.5" y="-18" font-family="Helvetica,sans-Serif" font-size="10.00">RayTracer::BVH::Node</text>
<text text-anchor="middle" x="242" y="-7" font-family="Helvetica,sans-Serif" font-size="10.00">::isLeaf</text>
</a>
</g>
</g>
<!-- Node1&#45;&gt;Node4 -->
<g id="edge4_Node000001_Node000004" class="edge">
<title>Node1&#45;&gt;Node4</title>
<g id="a_edge4_Node000001_Node000004"><a xlink:title=" ">
<path fill="none" stroke="#63b8ff" d="M107.17,-48.46C125.97,-43.76 149.23,-37.94 171.07,-32.48"/>
<polygon fill="#63b8ff" stroke="#63b8ff" points="172.12,-35.83 180.97,-30.01 170.42,-29.04 172.12,-35.83"/>
</a>
</g>
</g>
</g>
</svg>
