<?xml version="1.0" encoding="UTF-8" standalone="no"?>
<!DOCTYPE svg PUBLIC "-//W3C//DTD SVG 1.1//EN"
 "http://www.w3.org/Graphics/SVG/1.1/DTD/svg11.dtd">
<!-- Generated by graphviz version 2.43.0 (0)
 -->
<!-- Title: RayTracer::AMaterial Pages: 1 -->
<svg width="361pt" height="392pt"
 viewBox="0.00 0.00 361.00 392.00" xmlns="http://www.w3.org/2000/svg" xmlns:xlink="http://www.w3.org/1999/xlink">

<svg id="main" version="1.1" xmlns="http://www.w3.org/2000/svg" xmlns:xlink="http://www.w3.org/1999/xlink" xml:space="preserve" onload="init(evt)">
<style type="text/css"><![CDATA[
.node, .edge {opacity: 0.7;}
.node.selected, .edge.selected {opacity: 1;}
.edge:hover path { stroke: red; }
.edge:hover polygon { stroke: red; fill: red; }
]]></style>
<script type="application/ecmascript" xlink:href="svg.min.js"/>
<svg id="graph" class="graph">
<g id="graph0" class="graph" transform="scale(1 1) rotate(0) translate(4 388)">
<title>RayTracer::AMaterial</title>
<!-- Node1 -->
<g id="Node000001" class="node">
<title>Node1</title>
<g id="a_Node000001"><a xlink:title="Abstract base class for all materials. Defines the interface for evaluating the BRDF,...">
<polygon fill="#999999" stroke="transparent" points="235.5,-239 123.5,-239 123.5,-160 235.5,-160 235.5,-239"/>
<text text-anchor="start" x="128.5" y="-226.5" font-family="Helvetica,sans-Serif" font-size="10.00">RayTracer::AMaterial</text>
<text text-anchor="start" x="134" y="-211.5" font-family="Helvetica,sans-Serif" font-size="10.00">#</text>
<text text-anchor="start" x="153.5" y="-211.5" font-family="Helvetica,sans-Serif" font-size="10.00">_albedo</text>
<text text-anchor="start" x="134" y="-196.5" font-family="Helvetica,sans-Serif" font-size="10.00">+</text>
<text text-anchor="start" x="153.5" y="-196.5" font-family="Helvetica,sans-Serif" font-size="10.00">AMaterial()</text>
<text text-anchor="start" x="134" y="-181.5" font-family="Helvetica,sans-Serif" font-size="10.00">+</text>
<text text-anchor="start" x="153.5" y="-181.5" font-family="Helvetica,sans-Serif" font-size="10.00">AMaterial()</text>
<text text-anchor="start" x="134" y="-166.5" font-family="Helvetica,sans-Serif" font-size="10.00">+</text>
<text text-anchor="start" x="153.5" y="-166.5" font-family="Helvetica,sans-Serif" font-size="10.00">~AMaterial()</text>
<polygon fill="#666666" stroke="#666666" points="123.5,-221.5 123.5,-221.5 235.5,-221.5 235.5,-221.5 123.5,-221.5"/>
<polygon fill="#666666" stroke="#666666" points="123.5,-206.5 123.5,-206.5 151.5,-206.5 151.5,-206.5 123.5,-206.5"/>
<polygon fill="#666666" stroke="#666666" points="151.5,-206.5 151.5,-206.5 235.5,-206.5 235.5,-206.5 151.5,-206.5"/>
<polygon fill="none" stroke="#666666" points="123.5,-160 123.5,-239 235.5,-239 235.5,-160 123.5,-160"/>
</a>
</g>
</g>
<!-- Node3 -->
<g id="Node000003" class="node">
<title>Node3</title>
<g id="a_Node000003"><a xlink:href="classRayTracer_1_1Glass.html" target="_top" xlink:title=" ">
<polygon fill="white" stroke="transparent" points="101,-124 0,-124 0,0 101,0 101,-124"/>
<text text-anchor="start" x="10" y="-112" font-family="Helvetica,sans-Serif" font-size="10.00">RayTracer::Glass</text>
<text text-anchor="start" x="7" y="-97" font-family="Helvetica,sans-Serif" font-size="10.00">&#45;</text>
<text text-anchor="start" x="17.5" y="-97" font-family="Helvetica,sans-Serif" font-size="10.00">_refractiveIndex</text>
<text text-anchor="start" x="4.5" y="-82" font-family="Helvetica,sans-Serif" font-size="10.00">+</text>
<text text-anchor="start" x="17.5" y="-82" font-family="Helvetica,sans-Serif" font-size="10.00">Glass()</text>
<text text-anchor="start" x="4.5" y="-67" font-family="Helvetica,sans-Serif" font-size="10.00">+</text>
<text text-anchor="start" x="17.5" y="-67" font-family="Helvetica,sans-Serif" font-size="10.00">~Glass()</text>
<text text-anchor="start" x="4.5" y="-52" font-family="Helvetica,sans-Serif" font-size="10.00">+</text>
<text text-anchor="start" x="17.5" y="-52" font-family="Helvetica,sans-Serif" font-size="10.00">evaluate()</text>
<text text-anchor="start" x="4.5" y="-37" font-family="Helvetica,sans-Serif" font-size="10.00">+</text>
<text text-anchor="start" x="17.5" y="-37" font-family="Helvetica,sans-Serif" font-size="10.00">sample()</text>
<text text-anchor="start" x="4.5" y="-22" font-family="Helvetica,sans-Serif" font-size="10.00">+</text>
<text text-anchor="start" x="17.5" y="-22" font-family="Helvetica,sans-Serif" font-size="10.00">pdf()</text>
<text text-anchor="start" x="4.5" y="-7" font-family="Helvetica,sans-Serif" font-size="10.00">+</text>
<text text-anchor="start" x="17.5" y="-7" font-family="Helvetica,sans-Serif" font-size="10.00">emission()</text>
<polygon fill="#666666" stroke="#666666" points="0.5,-107 0.5,-107 101.5,-107 101.5,-107 0.5,-107"/>
<polygon fill="#666666" stroke="#666666" points="0.5,-92 0.5,-92 15.5,-92 15.5,-92 0.5,-92"/>
<polygon fill="#666666" stroke="#666666" points="15.5,-92 15.5,-92 101.5,-92 101.5,-92 15.5,-92"/>
<polygon fill="none" stroke="#666666" points="0,0 0,-124 101,-124 101,0 0,0"/>
</a>
</g>
</g>
<!-- Node1&#45;&gt;Node3 -->
<g id="edge2_Node000001_Node000003" class="edge">
<title>Node1&#45;&gt;Node3</title>
<g id="a_edge2_Node000001_Node000003"><a xlink:title=" ">
<path fill="none" stroke="#63b8ff" d="M135.43,-152.21C124.41,-140.63 112.49,-128.11 101.17,-116.23"/>
<polygon fill="none" stroke="#63b8ff" points="133.1,-154.84 142.53,-159.67 138.17,-150.02 133.1,-154.84"/>
</a>
</g>
</g>
<!-- Node4 -->
<g id="Node000004" class="node">
<title>Node4</title>
<g id="a_Node000004"><a xlink:href="classRayTracer_1_1Lambertian.html" target="_top" xlink:title=" ">
<polygon fill="white" stroke="transparent" points="239.5,-124 119.5,-124 119.5,0 239.5,0 239.5,-124"/>
<text text-anchor="start" x="124.5" y="-112" font-family="Helvetica,sans-Serif" font-size="10.00">RayTracer::Lambertian</text>
<text text-anchor="start" x="177.5" y="-97" font-family="Helvetica,sans-Serif" font-size="10.00"> </text>
<text text-anchor="start" x="130" y="-82" font-family="Helvetica,sans-Serif" font-size="10.00">+</text>
<text text-anchor="start" x="149.5" y="-82" font-family="Helvetica,sans-Serif" font-size="10.00">Lambertian()</text>
<text text-anchor="start" x="130" y="-67" font-family="Helvetica,sans-Serif" font-size="10.00">+</text>
<text text-anchor="start" x="149.5" y="-67" font-family="Helvetica,sans-Serif" font-size="10.00">~Lambertian()</text>
<text text-anchor="start" x="130" y="-52" font-family="Helvetica,sans-Serif" font-size="10.00">+</text>
<text text-anchor="start" x="149.5" y="-52" font-family="Helvetica,sans-Serif" font-size="10.00">evaluate()</text>
<text text-anchor="start" x="130" y="-37" font-family="Helvetica,sans-Serif" font-size="10.00">+</text>
<text text-anchor="start" x="149.5" y="-37" font-family="Helvetica,sans-Serif" font-size="10.00">sample()</text>
<text text-anchor="start" x="130" y="-22" font-family="Helvetica,sans-Serif" font-size="10.00">+</text>
<text text-anchor="start" x="149.5" y="-22" font-family="Helvetica,sans-Serif" font-size="10.00">pdf()</text>
<text text-anchor="start" x="130" y="-7" font-family="Helvetica,sans-Serif" font-size="10.00">+</text>
<text text-anchor="start" x="149.5" y="-7" font-family="Helvetica,sans-Serif" font-size="10.00">emission()</text>
<polygon fill="#666666" stroke="#666666" points="119.5,-107 119.5,-107 239.5,-107 239.5,-107 119.5,-107"/>
<polygon fill="#666666" stroke="#666666" points="119.5,-92 119.5,-92 239.5,-92 239.5,-92 119.5,-92"/>
<polygon fill="none" stroke="#666666" points="119.5,0 119.5,-124 239.5,-124 239.5,0 119.5,0"/>
</a>
</g>
</g>
<!-- Node1&#45;&gt;Node4 -->
<g id="edge3_Node000001_Node000004" class="edge">
<title>Node1&#45;&gt;Node4</title>
<g id="a_edge3_Node000001_Node000004"><a xlink:title=" ">
<path fill="none" stroke="#63b8ff" d="M179.5,-149.48C179.5,-141.24 179.5,-132.59 179.5,-124.09"/>
<polygon fill="none" stroke="#63b8ff" points="176,-149.67 179.5,-159.67 183,-149.67 176,-149.67"/>
</a>
</g>
</g>
<!-- Node5 -->
<g id="Node000005" class="node">
<title>Node5</title>
<g id="a_Node000005"><a xlink:href="classRayTracer_1_1Phong.html" target="_top" xlink:title=" ">
<polygon fill="white" stroke="transparent" points="353,-124 258,-124 258,0 353,0 353,-124"/>
<text text-anchor="start" x="263.5" y="-112" font-family="Helvetica,sans-Serif" font-size="10.00">RayTracer::Phong</text>
<text text-anchor="start" x="270.5" y="-97" font-family="Helvetica,sans-Serif" font-size="10.00">&#45;</text>
<text text-anchor="start" x="286.5" y="-97" font-family="Helvetica,sans-Serif" font-size="10.00">_shininess</text>
<text text-anchor="start" x="268" y="-82" font-family="Helvetica,sans-Serif" font-size="10.00">+</text>
<text text-anchor="start" x="286.5" y="-82" font-family="Helvetica,sans-Serif" font-size="10.00">Phong()</text>
<text text-anchor="start" x="268" y="-67" font-family="Helvetica,sans-Serif" font-size="10.00">+</text>
<text text-anchor="start" x="286.5" y="-67" font-family="Helvetica,sans-Serif" font-size="10.00">~Phong()</text>
<text text-anchor="start" x="268" y="-52" font-family="Helvetica,sans-Serif" font-size="10.00">+</text>
<text text-anchor="start" x="286.5" y="-52" font-family="Helvetica,sans-Serif" font-size="10.00">evaluate()</text>
<text text-anchor="start" x="268" y="-37" font-family="Helvetica,sans-Serif" font-size="10.00">+</text>
<text text-anchor="start" x="286.5" y="-37" font-family="Helvetica,sans-Serif" font-size="10.00">sample()</text>
<text text-anchor="start" x="268" y="-22" font-family="Helvetica,sans-Serif" font-size="10.00">+</text>
<text text-anchor="start" x="286.5" y="-22" font-family="Helvetica,sans-Serif" font-size="10.00">pdf()</text>
<text text-anchor="start" x="268" y="-7" font-family="Helvetica,sans-Serif" font-size="10.00">+</text>
<text text-anchor="start" x="286.5" y="-7" font-family="Helvetica,sans-Serif" font-size="10.00">emission()</text>
<polygon fill="#666666" stroke="#666666" points="258.5,-107 258.5,-107 353.5,-107 353.5,-107 258.5,-107"/>
<polygon fill="#666666" stroke="#666666" points="258.5,-92 258.5,-92 284.5,-92 284.5,-92 258.5,-92"/>
<polygon fill="#666666" stroke="#666666" points="284.5,-92 284.5,-92 353.5,-92 353.5,-92 284.5,-92"/>
<polygon fill="none" stroke="#666666" points="258,0 258,-124 353,-124 353,0 258,0"/>
</a>
</g>
</g>
<!-- Node1&#45;&gt;Node5 -->
<g id="edge4_Node000001_Node000005" class="edge">
<title>Node1&#45;&gt;Node5</title>
<g id="a_edge4_Node000001_Node000005"><a xlink:title=" ">
<path fill="none" stroke="#63b8ff" d="M222.51,-152.25C233.82,-140.08 246.09,-126.89 257.64,-114.47"/>
<polygon fill="none" stroke="#63b8ff" points="219.85,-149.96 215.61,-159.67 224.98,-154.73 219.85,-149.96"/>
</a>
</g>
</g>
<!-- Node2 -->
<g id="Node000002" class="node">
<title>Node2</title>
<g id="a_Node000002"><a xlink:href="classRayTracer_1_1IMaterial.html" target="_top" xlink:title="Interface for physically&#45;based surface materials.">
<polygon fill="white" stroke="transparent" points="233.5,-384 125.5,-384 125.5,-275 233.5,-275 233.5,-384"/>
<text text-anchor="start" x="130.5" y="-371.5" font-family="Helvetica,sans-Serif" font-size="10.00">RayTracer::IMaterial</text>
<text text-anchor="start" x="177.5" y="-356.5" font-family="Helvetica,sans-Serif" font-size="10.00"> </text>
<text text-anchor="start" x="136" y="-341.5" font-family="Helvetica,sans-Serif" font-size="10.00">+</text>
<text text-anchor="start" x="155.5" y="-341.5" font-family="Helvetica,sans-Serif" font-size="10.00">~IMaterial()</text>
<text text-anchor="start" x="136" y="-326.5" font-family="Helvetica,sans-Serif" font-size="10.00">+</text>
<text text-anchor="start" x="155.5" y="-326.5" font-family="Helvetica,sans-Serif" font-size="10.00">evaluate()</text>
<text text-anchor="start" x="136" y="-311.5" font-family="Helvetica,sans-Serif" font-size="10.00">+</text>
<text text-anchor="start" x="155.5" y="-311.5" font-family="Helvetica,sans-Serif" font-size="10.00">sample()</text>
<text text-anchor="start" x="136" y="-296.5" font-family="Helvetica,sans-Serif" font-size="10.00">+</text>
<text text-anchor="start" x="155.5" y="-296.5" font-family="Helvetica,sans-Serif" font-size="10.00">pdf()</text>
<text text-anchor="start" x="136" y="-281.5" font-family="Helvetica,sans-Serif" font-size="10.00">+</text>
<text text-anchor="start" x="155.5" y="-281.5" font-family="Helvetica,sans-Serif" font-size="10.00">emission()</text>
<polygon fill="#666666" stroke="#666666" points="125.5,-366.5 125.5,-366.5 233.5,-366.5 233.5,-366.5 125.5,-366.5"/>
<polygon fill="#666666" stroke="#666666" points="125.5,-351.5 125.5,-351.5 233.5,-351.5 233.5,-351.5 125.5,-351.5"/>
<polygon fill="none" stroke="#666666" points="125.5,-275 125.5,-384 233.5,-384 233.5,-275 125.5,-275"/>
</a>
</g>
</g>
<!-- Node2&#45;&gt;Node1 -->
<g id="edge1_Node000001_Node000002" class="edge">
<title>Node2&#45;&gt;Node1</title>
<g id="a_edge1_Node000001_Node000002"><a xlink:title=" ">
<path fill="none" stroke="#63b8ff" d="M179.5,-264.7C179.5,-255.93 179.5,-247.16 179.5,-239.03"/>
<polygon fill="none" stroke="#63b8ff" points="176,-264.96 179.5,-274.96 183,-264.96 176,-264.96"/>
</a>
</g>
</g>
</g>
</svg>
</svg>

<style type='text/css'>
<![CDATA[
[data-mouse-over-selected='false'] { opacity: 0.7; }
[data-mouse-over-selected='true']  { opacity: 1.0; }
]]>
</style>
<script type="application/ecmascript"><![CDATA[
document.addEventListener('DOMContentLoaded', (event) => {
  highlightEdges();
  highlightAdjacentNodes();
});
]]></script>
</svg>
