<?xml version="1.0" encoding="UTF-8" standalone="no"?>
<!DOCTYPE svg PUBLIC "-//W3C//DTD SVG 1.1//EN"
 "http://www.w3.org/Graphics/SVG/1.1/DTD/svg11.dtd">
<!-- Generated by graphviz version 2.43.0 (0)
 -->
<!-- Title: RayTracer::PointLight::computeLight Pages: 1 -->
<svg width="476pt" height="286pt"
 viewBox="0.00 0.00 476.00 285.50" xmlns="http://www.w3.org/2000/svg" xmlns:xlink="http://www.w3.org/1999/xlink">
<g id="graph0" class="graph" transform="scale(1 1) rotate(0) translate(4 281.5)">
<title>RayTracer::PointLight::computeLight</title>
<!-- Node1 -->
<g id="Node000001" class="node">
<title>Node1</title>
<g id="a_Node000001"><a xlink:title="Compute light contribution.">
<polygon fill="#999999" stroke="#666666" points="119,-158.5 0,-158.5 0,-128.5 119,-128.5 119,-158.5"/>
<text text-anchor="start" x="8" y="-146.5" font-family="Helvetica,sans-Serif" font-size="10.00">RayTracer::PointLight</text>
<text text-anchor="middle" x="59.5" y="-135.5" font-family="Helvetica,sans-Serif" font-size="10.00">::computeLight</text>
</a>
</g>
</g>
<!-- Node2 -->
<g id="Node000002" class="node">
<title>Node2</title>
<g id="a_Node000002"><a xlink:href="classGeometry_1_1Point3D.html#a6a08342f9542eb6d6ff7bcf2278a240d" target="_top" xlink:title=" ">
<polygon fill="white" stroke="#666666" points="287,-277.5 172,-277.5 172,-247.5 287,-247.5 287,-277.5"/>
<text text-anchor="start" x="180" y="-265.5" font-family="Helvetica,sans-Serif" font-size="10.00">Geometry::Point3D::</text>
<text text-anchor="middle" x="229.5" y="-254.5" font-family="Helvetica,sans-Serif" font-size="10.00">Point3D</text>
</a>
</g>
</g>
<!-- Node1&#45;&gt;Node2 -->
<g id="edge1_Node000001_Node000002" class="edge">
<title>Node1&#45;&gt;Node2</title>
<g id="a_edge1_Node000001_Node000002"><a xlink:title=" ">
<path fill="none" stroke="#63b8ff" d="M71.65,-158.54C87.83,-179.34 119.74,-216.79 155,-238.5 157.66,-240.14 160.44,-241.67 163.3,-243.12"/>
<polygon fill="#63b8ff" stroke="#63b8ff" points="162.1,-246.42 172.65,-247.4 165.02,-240.05 162.1,-246.42"/>
</a>
</g>
</g>
<!-- Node3 -->
<g id="Node000003" class="node">
<title>Node3</title>
<g id="a_Node000003"><a xlink:href="classGeometry_1_1Ray.html#a009af874883eaeca399a3c5c144df2fc" target="_top" xlink:title="Constructor.">
<polygon fill="white" stroke="#666666" points="286,-229 173,-229 173,-210 286,-210 286,-229"/>
<text text-anchor="middle" x="229.5" y="-217" font-family="Helvetica,sans-Serif" font-size="10.00">Geometry::Ray::Ray</text>
</a>
</g>
</g>
<!-- Node1&#45;&gt;Node3 -->
<g id="edge2_Node000001_Node000003" class="edge">
<title>Node1&#45;&gt;Node3</title>
<g id="a_edge2_Node000001_Node000003"><a xlink:title=" ">
<path fill="none" stroke="#63b8ff" d="M85.12,-158.72C103.83,-169.87 130.43,-184.84 155,-195.5 164.51,-199.63 174.98,-203.45 184.95,-206.77"/>
<polygon fill="#63b8ff" stroke="#63b8ff" points="184.12,-210.18 194.71,-209.93 186.27,-203.52 184.12,-210.18"/>
</a>
</g>
</g>
<!-- Node4 -->
<g id="Node000004" class="node">
<title>Node4</title>
<g id="a_Node000004"><a xlink:href="classGeometry_1_1Vector3D.html#ae4c5a52ebf282e334801c8ee28ad8d5d" target="_top" xlink:title=" ">
<polygon fill="white" stroke="#666666" points="461.5,-155.5 346.5,-155.5 346.5,-125.5 461.5,-125.5 461.5,-155.5"/>
<text text-anchor="start" x="354.5" y="-143.5" font-family="Helvetica,sans-Serif" font-size="10.00">Geometry::Vector3D</text>
<text text-anchor="middle" x="404" y="-132.5" font-family="Helvetica,sans-Serif" font-size="10.00">::Vector3D</text>
</a>
</g>
</g>
<!-- Node1&#45;&gt;Node4 -->
<g id="edge3_Node000001_Node000004" class="edge">
<title>Node1&#45;&gt;Node4</title>
<g id="a_edge3_Node000001_Node000004"><a xlink:title=" ">
<path fill="none" stroke="#63b8ff" d="M119.21,-157.18C131,-159.39 143.34,-161.34 155,-162.5 220.9,-169.06 238.17,-169.73 304,-162.5 314.59,-161.34 325.7,-159.5 336.49,-157.36"/>
<polygon fill="#63b8ff" stroke="#63b8ff" points="337.21,-160.79 346.29,-155.33 335.79,-153.93 337.21,-160.79"/>
</a>
</g>
</g>
<!-- Node5 -->
<g id="Node000005" class="node">
<title>Node5</title>
<g id="a_Node000005"><a xlink:href="classGeometry_1_1Vector3D.html#affb9009fe58aafa334f1f5f703feceb3" target="_top" xlink:title=" ">
<polygon fill="white" stroke="#666666" points="298,-153 161,-153 161,-134 298,-134 298,-153"/>
<text text-anchor="middle" x="229.5" y="-141" font-family="Helvetica,sans-Serif" font-size="10.00">Geometry::Vector3D::dot</text>
</a>
</g>
</g>
<!-- Node1&#45;&gt;Node5 -->
<g id="edge4_Node000001_Node000005" class="edge">
<title>Node1&#45;&gt;Node5</title>
<g id="a_edge4_Node000001_Node000005"><a xlink:title=" ">
<path fill="none" stroke="#63b8ff" d="M119.26,-143.5C129.44,-143.5 140.17,-143.5 150.76,-143.5"/>
<polygon fill="#63b8ff" stroke="#63b8ff" points="150.86,-147 160.86,-143.5 150.86,-140 150.86,-147"/>
</a>
</g>
</g>
<!-- Node6 -->
<g id="Node000006" class="node">
<title>Node6</title>
<g id="a_Node000006"><a xlink:href="classGeometry_1_1Vector3D.html#ae2861f32c5661f184b655cf412e38b91" target="_top" xlink:title=" ">
<polygon fill="white" stroke="#666666" points="287,-115.5 172,-115.5 172,-85.5 287,-85.5 287,-115.5"/>
<text text-anchor="start" x="180" y="-103.5" font-family="Helvetica,sans-Serif" font-size="10.00">Geometry::Vector3D</text>
<text text-anchor="middle" x="229.5" y="-92.5" font-family="Helvetica,sans-Serif" font-size="10.00">::length</text>
</a>
</g>
</g>
<!-- Node1&#45;&gt;Node6 -->
<g id="edge5_Node000001_Node000006" class="edge">
<title>Node1&#45;&gt;Node6</title>
<g id="a_edge5_Node000001_Node000006"><a xlink:title=" ">
<path fill="none" stroke="#63b8ff" d="M119.26,-128.46C132.96,-124.95 147.66,-121.19 161.68,-117.6"/>
<polygon fill="#63b8ff" stroke="#63b8ff" points="162.93,-120.89 171.75,-115.02 161.2,-114.11 162.93,-120.89"/>
</a>
</g>
</g>
<!-- Node7 -->
<g id="Node000007" class="node">
<title>Node7</title>
<g id="a_Node000007"><a xlink:href="classGeometry_1_1Vector3D.html#a388f7af8bf0095c817e89b5b2518fda7" target="_top" xlink:title=" ">
<polygon fill="white" stroke="#666666" points="287,-67.5 172,-67.5 172,-37.5 287,-37.5 287,-67.5"/>
<text text-anchor="start" x="180" y="-55.5" font-family="Helvetica,sans-Serif" font-size="10.00">Geometry::Vector3D</text>
<text text-anchor="middle" x="229.5" y="-44.5" font-family="Helvetica,sans-Serif" font-size="10.00">::normalize</text>
</a>
</g>
</g>
<!-- Node1&#45;&gt;Node7 -->
<g id="edge6_Node000001_Node000007" class="edge">
<title>Node1&#45;&gt;Node7</title>
<g id="a_edge6_Node000001_Node000007"><a xlink:title=" ">
<path fill="none" stroke="#63b8ff" d="M78.27,-128.4C96.53,-113.52 126.26,-90.96 155,-76.5 158.71,-74.63 162.6,-72.87 166.56,-71.21"/>
<polygon fill="#63b8ff" stroke="#63b8ff" points="167.9,-74.44 175.92,-67.52 165.33,-67.93 167.9,-74.44"/>
</a>
</g>
</g>
<!-- Node9 -->
<g id="Node000009" class="node">
<title>Node9</title>
<g id="a_Node000009"><a xlink:href="structRayTracer_1_1Color.html#aefc65f4c5ffc2e9bca0a35e4e55d68b8" target="_top" xlink:title=" ">
<polygon fill="white" stroke="#666666" points="304,-19 155,-19 155,0 304,0 304,-19"/>
<text text-anchor="middle" x="229.5" y="-7" font-family="Helvetica,sans-Serif" font-size="10.00">RayTracer::Color::operator*</text>
</a>
</g>
</g>
<!-- Node1&#45;&gt;Node9 -->
<g id="edge9_Node000001_Node000009" class="edge">
<title>Node1&#45;&gt;Node9</title>
<g id="a_edge9_Node000001_Node000009"><a xlink:title=" ">
<path fill="none" stroke="#63b8ff" d="M68.74,-128.21C82.96,-103.35 114.48,-54.35 155,-28.5 158.34,-26.37 161.91,-24.47 165.61,-22.79"/>
<polygon fill="#63b8ff" stroke="#63b8ff" points="167.03,-25.99 175.02,-19.03 164.44,-19.49 167.03,-25.99"/>
</a>
</g>
</g>
<!-- Node7&#45;&gt;Node4 -->
<g id="edge7_Node000007_Node000004" class="edge">
<title>Node7&#45;&gt;Node4</title>
<g id="a_edge7_Node000007_Node000004"><a xlink:title=" ">
<path fill="none" stroke="#63b8ff" d="M282.56,-67.64C289.88,-70.3 297.21,-73.27 304,-76.5 329.15,-88.49 355.55,-105.83 374.76,-119.43"/>
<polygon fill="#63b8ff" stroke="#63b8ff" points="372.89,-122.4 383.05,-125.39 376.97,-116.71 372.89,-122.4"/>
</a>
</g>
</g>
<!-- Node8 -->
<g id="Node000008" class="node">
<title>Node8</title>
<g id="a_Node000008"><a xlink:href="classGeometry_1_1Vector3D.html#a8966b188a3b6d27793b3896618fea42c" target="_top" xlink:title="Calculate the length (magnitude) of this vector.">
<polygon fill="white" stroke="#666666" points="461.5,-67.5 346.5,-67.5 346.5,-37.5 461.5,-37.5 461.5,-67.5"/>
<text text-anchor="start" x="354.5" y="-55.5" font-family="Helvetica,sans-Serif" font-size="10.00">Geometry::Vector3D</text>
<text text-anchor="middle" x="404" y="-44.5" font-family="Helvetica,sans-Serif" font-size="10.00">::length</text>
</a>
</g>
</g>
<!-- Node7&#45;&gt;Node8 -->
<g id="edge8_Node000007_Node000008" class="edge">
<title>Node7&#45;&gt;Node8</title>
<g id="a_edge8_Node000007_Node000008"><a xlink:title=" ">
<path fill="none" stroke="#63b8ff" d="M287.46,-52.5C303,-52.5 319.97,-52.5 336.01,-52.5"/>
<polygon fill="#63b8ff" stroke="#63b8ff" points="336.39,-56 346.39,-52.5 336.39,-49 336.39,-56"/>
</a>
</g>
</g>
<!-- Node10 -->
<g id="Node000010" class="node">
<title>Node10</title>
<g id="a_Node000010"><a xlink:href="structRayTracer_1_1Color.html#a01b4a4dad8204eed80f8d38d3d004e4d" target="_top" xlink:title=" ">
<polygon fill="white" stroke="#666666" points="468,-19 340,-19 340,0 468,0 468,-19"/>
<text text-anchor="middle" x="404" y="-7" font-family="Helvetica,sans-Serif" font-size="10.00">RayTracer::Color::Color</text>
</a>
</g>
</g>
<!-- Node9&#45;&gt;Node10 -->
<g id="edge10_Node000009_Node000010" class="edge">
<title>Node9&#45;&gt;Node10</title>
<g id="a_edge10_Node000009_Node000010"><a xlink:title=" ">
<path fill="none" stroke="#63b8ff" d="M304.16,-9.5C312.62,-9.5 321.25,-9.5 329.71,-9.5"/>
<polygon fill="#63b8ff" stroke="#63b8ff" points="329.92,-13 339.92,-9.5 329.92,-6 329.92,-13"/>
</a>
</g>
</g>
</g>
</svg>
