<?xml version="1.0" encoding="UTF-8" standalone="no"?>
<!DOCTYPE svg PUBLIC "-//W3C//DTD SVG 1.1//EN"
 "http://www.w3.org/Graphics/SVG/1.1/DTD/svg11.dtd">
<!-- Generated by graphviz version 2.43.0 (0)
 -->
<!-- Title: RayTracer::DirectionalLight::computeLight Pages: 1 -->
<!--zoomable 264 -->

<svg id="main" version="1.1" xmlns="http://www.w3.org/2000/svg" xmlns:xlink="http://www.w3.org/1999/xlink" xml:space="preserve" onload="init(evt)">
<style type="text/css"><![CDATA[
.node, .edge {opacity: 0.7;}
.node.selected, .edge.selected {opacity: 1;}
.edge:hover path { stroke: red; }
.edge:hover polygon { stroke: red; fill: red; }
]]></style>

<defs>
  <circle id="rim" cx="0" cy="0" r="7"/>
  <circle id="rim2" cx="0" cy="0" r="3.5"/>
  <g id="zoomPlus">
    <use xlink:href="#rim" fill="#404040"><set attributeName="fill" to="#808080" begin="zoomplus.mouseover" end="zoomplus.mouseout"/></use>
    <path d="M-4,0h8M0,-4v8" fill="none" stroke="white" stroke-width="1.5" pointer-events="none"/>
  </g>
  <g id="zoomMin">
    <use xlink:href="#rim" fill="#404040"><set attributeName="fill" to="#808080" begin="zoomminus.mouseover" end="zoomminus.mouseout"/></use>
    <path d="M-4,0h8" fill="none" stroke="white" stroke-width="1.5" pointer-events="none"/>
  </g>
  <g id="arrowUp" transform="translate(30 24)">
    <use xlink:href="#rim"/>
    <path pointer-events="none" fill="none" stroke="white" stroke-width="1.5" d="M0,-3.0v7 M-2.5,-0.5L0,-3.0L2.5,-0.5"/>
  </g>
  <g id="arrowRight" transform="rotate(90) translate(36 -43)">
    <use xlink:href="#rim"/>
    <path pointer-events="none" fill="none" stroke="white" stroke-width="1.5" d="M0,-3.0v7 M-2.5,-0.5L0,-3.0L2.5,-0.5"/>
  </g>
  <g id="arrowDown" transform="rotate(180) translate(-30 -48)">
    <use xlink:href="#rim"/>
    <path pointer-events="none" fill="none" stroke="white" stroke-width="1.5" d="M0,-3.0v7 M-2.5,-0.5L0,-3.0L2.5,-0.5"/>
  </g>
  <g id="arrowLeft" transform="rotate(270) translate(-36 17)">
    <use xlink:href="#rim"/>
    <path pointer-events="none" fill="none" stroke="white" stroke-width="1.5" d="M0,-3.0v7 M-2.5,-0.5L0,-3.0L2.5,-0.5"/>
  </g>
  <g id="resetDef">
    <use xlink:href="#rim2" fill="#404040"><set attributeName="fill" to="#808080" begin="reset.mouseover" end="reset.mouseout"/></use>
  </g>
</defs>
<script type="application/ecmascript">
var viewWidth = 505;
var viewHeight = 264;
var sectionId = 'dynsection-3';
</script>
<script type="application/ecmascript" xlink:href="svg.min.js"/>
<svg id="graph" class="graph">
<g id="viewport">
<title>RayTracer::DirectionalLight::computeLight</title>
<!-- Node1 -->
<g id="Node000001" class="node">
<title>Node1</title>
<g id="a_Node000001"><a xlink:title="Compute light contribution, shadow ray cast in opposite direction.">
<polygon fill="#999999" stroke="#666666" points="148,-141.5 0,-141.5 0,-111.5 148,-111.5 148,-141.5"/>
<text text-anchor="start" x="8" y="-129.5" font-family="Helvetica,sans-Serif" font-size="10.00">RayTracer::DirectionalLight</text>
<text text-anchor="middle" x="74" y="-118.5" font-family="Helvetica,sans-Serif" font-size="10.00">::computeLight</text>
</a>
</g>
</g>
<!-- Node2 -->
<g id="Node000002" class="node">
<title>Node2</title>
<g id="a_Node000002"><a xlink:href="structRayTracer_1_1Color.html#a01b4a4dad8204eed80f8d38d3d004e4d" target="_top" xlink:title=" ">
<polygon fill="white" stroke="#666666" points="497,-142 369,-142 369,-123 497,-123 497,-142"/>
<text text-anchor="middle" x="433" y="-130" font-family="Helvetica,sans-Serif" font-size="10.00">RayTracer::Color::Color</text>
</a>
</g>
</g>
<!-- Node1&#45;&gt;Node2 -->
<g id="edge1_Node000001_Node000002" class="edge">
<title>Node1&#45;&gt;Node2</title>
<g id="a_edge1_Node000001_Node000002"><a xlink:title=" ">
<path fill="none" stroke="#63b8ff" d="M84.11,-141.54C100.43,-166.84 137.35,-217.05 184,-236.5 245.12,-261.98 272.14,-262.59 333,-236.5 373.66,-219.07 405.52,-175.84 421.24,-150.94"/>
<polygon fill="#63b8ff" stroke="#63b8ff" points="424.41,-152.46 426.63,-142.1 418.44,-148.82 424.41,-152.46"/>
</a>
</g>
</g>
<!-- Node3 -->
<g id="Node000003" class="node">
<title>Node3</title>
<g id="a_Node000003"><a xlink:href="classGeometry_1_1Point3D.html#a6a08342f9542eb6d6ff7bcf2278a240d" target="_top" xlink:title=" ">
<polygon fill="white" stroke="#666666" points="316,-227.5 201,-227.5 201,-197.5 316,-197.5 316,-227.5"/>
<text text-anchor="start" x="209" y="-215.5" font-family="Helvetica,sans-Serif" font-size="10.00">Geometry::Point3D::</text>
<text text-anchor="middle" x="258.5" y="-204.5" font-family="Helvetica,sans-Serif" font-size="10.00">Point3D</text>
</a>
</g>
</g>
<!-- Node1&#45;&gt;Node3 -->
<g id="edge2_Node000001_Node000003" class="edge">
<title>Node1&#45;&gt;Node3</title>
<g id="a_edge2_Node000001_Node000003"><a xlink:title=" ">
<path fill="none" stroke="#63b8ff" d="M98.52,-141.73C120.12,-155.26 153.34,-174.94 184,-188.5 188.3,-190.4 192.8,-192.23 197.36,-193.98"/>
<polygon fill="#63b8ff" stroke="#63b8ff" points="196.19,-197.27 206.78,-197.43 198.6,-190.7 196.19,-197.27"/>
</a>
</g>
</g>
<!-- Node4 -->
<g id="Node000004" class="node">
<title>Node4</title>
<g id="a_Node000004"><a xlink:href="classGeometry_1_1Ray.html#a009af874883eaeca399a3c5c144df2fc" target="_top" xlink:title="Constructor.">
<polygon fill="white" stroke="#666666" points="315,-179 202,-179 202,-160 315,-160 315,-179"/>
<text text-anchor="middle" x="258.5" y="-167" font-family="Helvetica,sans-Serif" font-size="10.00">Geometry::Ray::Ray</text>
</a>
</g>
</g>
<!-- Node1&#45;&gt;Node4 -->
<g id="edge3_Node000001_Node000004" class="edge">
<title>Node1&#45;&gt;Node4</title>
<g id="a_edge3_Node000001_Node000004"><a xlink:title=" ">
<path fill="none" stroke="#63b8ff" d="M138.83,-141.54C161.28,-146.83 186.17,-152.69 207.34,-157.68"/>
<polygon fill="#63b8ff" stroke="#63b8ff" points="206.55,-161.09 217.09,-159.98 208.16,-154.28 206.55,-161.09"/>
</a>
</g>
</g>
<!-- Node5 -->
<g id="Node000005" class="node">
<title>Node5</title>
<g id="a_Node000005"><a xlink:href="classGeometry_1_1Vector3D.html#ae4c5a52ebf282e334801c8ee28ad8d5d" target="_top" xlink:title=" ">
<polygon fill="white" stroke="#666666" points="316,-141.5 201,-141.5 201,-111.5 316,-111.5 316,-141.5"/>
<text text-anchor="start" x="209" y="-129.5" font-family="Helvetica,sans-Serif" font-size="10.00">Geometry::Vector3D</text>
<text text-anchor="middle" x="258.5" y="-118.5" font-family="Helvetica,sans-Serif" font-size="10.00">::Vector3D</text>
</a>
</g>
</g>
<!-- Node1&#45;&gt;Node5 -->
<g id="edge4_Node000001_Node000005" class="edge">
<title>Node1&#45;&gt;Node5</title>
<g id="a_edge4_Node000001_Node000005"><a xlink:title=" ">
<path fill="none" stroke="#63b8ff" d="M148.18,-126.5C162.17,-126.5 176.74,-126.5 190.52,-126.5"/>
<polygon fill="#63b8ff" stroke="#63b8ff" points="190.88,-130 200.88,-126.5 190.88,-123 190.88,-130"/>
</a>
</g>
</g>
<!-- Node6 -->
<g id="Node000006" class="node">
<title>Node6</title>
<g id="a_Node000006"><a xlink:href="classGeometry_1_1Vector3D.html#affb9009fe58aafa334f1f5f703feceb3" target="_top" xlink:title=" ">
<polygon fill="white" stroke="#666666" points="327,-93 190,-93 190,-74 327,-74 327,-93"/>
<text text-anchor="middle" x="258.5" y="-81" font-family="Helvetica,sans-Serif" font-size="10.00">Geometry::Vector3D::dot</text>
</a>
</g>
</g>
<!-- Node1&#45;&gt;Node6 -->
<g id="edge5_Node000001_Node000006" class="edge">
<title>Node1&#45;&gt;Node6</title>
<g id="a_edge5_Node000001_Node000006"><a xlink:title=" ">
<path fill="none" stroke="#63b8ff" d="M138.83,-111.46C161.28,-106.17 186.17,-100.31 207.34,-95.32"/>
<polygon fill="#63b8ff" stroke="#63b8ff" points="208.16,-98.72 217.09,-93.02 206.55,-91.91 208.16,-98.72"/>
</a>
</g>
</g>
<!-- Node7 -->
<g id="Node000007" class="node">
<title>Node7</title>
<g id="a_Node000007"><a xlink:href="classRayTracer_1_1APrimitive.html#af00a66a6a6b8d251f5d21e1cc5077c6b" target="_top" xlink:title="Test ray intersection with this primitive.">
<polygon fill="white" stroke="#666666" points="328.5,-56 188.5,-56 188.5,-37 328.5,-37 328.5,-56"/>
<text text-anchor="middle" x="258.5" y="-44" font-family="Helvetica,sans-Serif" font-size="10.00">RayTracer::APrimitive::hit</text>
</a>
</g>
</g>
<!-- Node1&#45;&gt;Node7 -->
<g id="edge6_Node000001_Node000007" class="edge">
<title>Node1&#45;&gt;Node7</title>
<g id="a_edge6_Node000001_Node000007"><a xlink:title=" ">
<path fill="none" stroke="#63b8ff" d="M97.94,-111.35C119.43,-97.74 152.81,-78.02 184,-65.5 190.16,-63.03 196.75,-60.79 203.35,-58.8"/>
<polygon fill="#63b8ff" stroke="#63b8ff" points="204.33,-62.15 212.99,-56.04 202.41,-55.42 204.33,-62.15"/>
</a>
</g>
</g>
<!-- Node8 -->
<g id="Node000008" class="node">
<title>Node8</title>
<g id="a_Node000008"><a xlink:href="structRayTracer_1_1Color.html#aefc65f4c5ffc2e9bca0a35e4e55d68b8" target="_top" xlink:title=" ">
<polygon fill="white" stroke="#666666" points="333,-19 184,-19 184,0 333,0 333,-19"/>
<text text-anchor="middle" x="258.5" y="-7" font-family="Helvetica,sans-Serif" font-size="10.00">RayTracer::Color::operator*</text>
</a>
</g>
</g>
<!-- Node1&#45;&gt;Node8 -->
<g id="edge7_Node000001_Node000008" class="edge">
<title>Node1&#45;&gt;Node8</title>
<g id="a_edge7_Node000001_Node000008"><a xlink:title=" ">
<path fill="none" stroke="#63b8ff" d="M87.45,-111.44C106.15,-89.81 143.64,-50.16 184,-28.5 188.27,-26.21 192.84,-24.18 197.52,-22.39"/>
<polygon fill="#63b8ff" stroke="#63b8ff" points="198.93,-25.6 207.25,-19.04 196.65,-18.99 198.93,-25.6"/>
</a>
</g>
</g>
<!-- Node8&#45;&gt;Node2 -->
<g id="edge8_Node000008_Node000002" class="edge">
<title>Node8&#45;&gt;Node2</title>
<g id="a_edge8_Node000008_Node000002"><a xlink:title=" ">
<path fill="none" stroke="#63b8ff" d="M311.57,-19.06C319.03,-21.53 326.41,-24.63 333,-28.5 370.56,-50.58 402.99,-91 419.77,-114.41"/>
<polygon fill="#63b8ff" stroke="#63b8ff" points="417.01,-116.57 425.61,-122.76 422.75,-112.56 417.01,-116.57"/>
</a>
</g>
</g>
</g>
</svg>

<g id="navigator" transform="translate(0 0)" fill="#404254">
  <rect fill="#f2f5e9" fill-opacity="0.5" stroke="#606060" stroke-width=".5" x="0" y="0" width="60" height="60"/>
  <use id="zoomplus" xlink:href="#zoomPlus" x="17" y="9" onmousedown="handleZoom(evt,'in')"/>
  <use id="zoomminus" xlink:href="#zoomMin" x="42" y="9" onmousedown="handleZoom(evt,'out')"/>
  <use id="reset" xlink:href="#resetDef" x="30" y="36" onmousedown="handleReset()"/>
   <use id="arrowup" xlink:href="#arrowUp" x="0" y="0" onmousedown="handlePan(0,-1)"/>
  <use id="arrowright" xlink:href="#arrowRight" x="0" y="0" onmousedown="handlePan(1,0)"/>
  <use id="arrowdown" xlink:href="#arrowDown" x="0" y="0" onmousedown="handlePan(0,1)"/>
  <use id="arrowleft" xlink:href="#arrowLeft" x="0" y="0" onmousedown="handlePan(-1,0)"/>
</g>
<svg viewBox="0 0 15 15" width="100%" height="30px" preserveAspectRatio="xMaxYMin meet">
 <g id="arrow_out" transform="scale(0.3 0.3)">
  <a xlink:href="classRayTracer_1_1DirectionalLight_a7170b3c9d9e2c2e697139f0dae68ab5b_cgraph_org.svg" target="_base">
   <rect id="button" ry="5" rx="5" y="6" x="6" height="38" width="38"
        fill="#f2f5e9" fill-opacity="0.5" stroke="#606060" stroke-width="1.0"/>
   <path id="arrow"
     d="M 11.500037,31.436501 C 11.940474,20.09759 22.043105,11.32322 32.158766,21.979434 L 37.068811,17.246167 C 37.068811,17.246167 37.088388,32 37.088388,32 L 22.160133,31.978069 C 22.160133,31.978069 26.997745,27.140456 26.997745,27.140456 C 18.528582,18.264221 13.291696,25.230495 11.500037,31.436501 z"
     style="fill:#404040;"/>
  </a>
 </g>
</svg>

<style type='text/css'>
<![CDATA[
[data-mouse-over-selected='false'] { opacity: 0.7; }
[data-mouse-over-selected='true']  { opacity: 1.0; }
]]>
</style>
<script type="application/ecmascript"><![CDATA[
document.addEventListener('DOMContentLoaded', (event) => {
  highlightEdges();
  highlightAdjacentNodes();
});
]]></script>
</svg>
