<?xml version="1.0" encoding="UTF-8" standalone="no"?>
<!DOCTYPE svg PUBLIC "-//W3C//DTD SVG 1.1//EN"
 "http://www.w3.org/Graphics/SVG/1.1/DTD/svg11.dtd">
<!-- Generated by graphviz version 2.43.0 (0)
 -->
<!-- Title: RayTracer::Camera::render Pages: 1 -->
<svg width="1068pt" height="905pt"
 viewBox="0.00 0.00 1068.00 905.23" xmlns="http://www.w3.org/2000/svg" xmlns:xlink="http://www.w3.org/1999/xlink">
<g id="graph0" class="graph" transform="scale(1 1) rotate(0) translate(4 901.23)">
<title>RayTracer::Camera::render</title>
<!-- Node1 -->
<g id="Node000001" class="node">
<title>Node1</title>
<g id="a_Node000001"><a xlink:title="Render the scene into a 2D framebuffer.">
<polygon fill="#999999" stroke="#666666" points="115,-561 0,-561 0,-531 115,-531 115,-561"/>
<text text-anchor="start" x="8" y="-549" font-family="Helvetica,sans-Serif" font-size="10.00">RayTracer::Camera::</text>
<text text-anchor="middle" x="57.5" y="-538" font-family="Helvetica,sans-Serif" font-size="10.00">render</text>
</a>
</g>
</g>
<!-- Node2 -->
<g id="Node000002" class="node">
<title>Node2</title>
<g id="a_Node000002"><a xlink:href="structRayTracer_1_1Color.html#a01b4a4dad8204eed80f8d38d3d004e4d" target="_top" xlink:title=" ">
<polygon fill="white" stroke="#666666" points="697.5,-828.5 569.5,-828.5 569.5,-809.5 697.5,-809.5 697.5,-828.5"/>
<text text-anchor="middle" x="633.5" y="-816.5" font-family="Helvetica,sans-Serif" font-size="10.00">RayTracer::Color::Color</text>
</a>
</g>
</g>
<!-- Node1&#45;&gt;Node2 -->
<g id="edge1_Node000001_Node000002" class="edge">
<title>Node1&#45;&gt;Node2</title>
<g id="a_edge1_Node000001_Node000002"><a xlink:title=" ">
<path fill="none" stroke="#63b8ff" d="M60.13,-561.03C65.42,-602.81 85.73,-721.72 151,-790 267,-911.34 355.53,-913.13 519,-875 552.7,-867.14 587.9,-847.75 609.99,-834"/>
<polygon fill="#63b8ff" stroke="#63b8ff" points="612.06,-836.83 618.61,-828.5 608.3,-830.93 612.06,-836.83"/>
</a>
</g>
</g>
<!-- Node3 -->
<g id="Node000003" class="node">
<title>Node3</title>
<g id="a_Node000003"><a xlink:href="classRayTracer_1_1Camera.html#a7cd2251f34b6dda51fe338512e598571" target="_top" xlink:title="Evaluate the rendering equation along a ray, deterministically.">
<polygon fill="white" stroke="#666666" points="289,-583 174,-583 174,-553 289,-553 289,-583"/>
<text text-anchor="start" x="182" y="-571" font-family="Helvetica,sans-Serif" font-size="10.00">RayTracer::Camera::</text>
<text text-anchor="middle" x="231.5" y="-560" font-family="Helvetica,sans-Serif" font-size="10.00">castRay</text>
</a>
</g>
</g>
<!-- Node1&#45;&gt;Node3 -->
<g id="edge2_Node000001_Node000003" class="edge">
<title>Node1&#45;&gt;Node3</title>
<g id="a_edge2_Node000001_Node000003"><a xlink:title=" ">
<path fill="none" stroke="#63b8ff" d="M115.3,-553.26C130.71,-555.24 147.54,-557.39 163.46,-559.42"/>
<polygon fill="#63b8ff" stroke="#63b8ff" points="163.4,-562.95 173.76,-560.74 164.29,-556 163.4,-562.95"/>
</a>
</g>
</g>
<!-- Node22 -->
<g id="Node000022" class="node">
<title>Node22</title>
<g id="a_Node000022"><a xlink:href="structRayTracer_1_1Color.html#aefc65f4c5ffc2e9bca0a35e4e55d68b8" target="_top" xlink:title=" ">
<polygon fill="white" stroke="#666666" points="508,-865.5 359,-865.5 359,-846.5 508,-846.5 508,-865.5"/>
<text text-anchor="middle" x="433.5" y="-853.5" font-family="Helvetica,sans-Serif" font-size="10.00">RayTracer::Color::operator*</text>
</a>
</g>
</g>
<!-- Node1&#45;&gt;Node22 -->
<g id="edge44_Node000001_Node000022" class="edge">
<title>Node1&#45;&gt;Node22</title>
<g id="a_edge44_Node000001_Node000022"><a xlink:title=" ">
<path fill="none" stroke="#63b8ff" d="M62.75,-561.08C72.93,-594.87 101.6,-677.72 151,-729 220.42,-801.07 254.27,-802.97 348,-838 353.9,-840.21 360.14,-842.17 366.45,-843.92"/>
<polygon fill="#63b8ff" stroke="#63b8ff" points="365.82,-847.37 376.38,-846.48 367.57,-840.59 365.82,-847.37"/>
</a>
</g>
</g>
<!-- Node23 -->
<g id="Node000023" class="node">
<title>Node23</title>
<g id="a_Node000023"><a xlink:href="structRayTracer_1_1Color.html#a327b4006c4abe3faf3491929b8ee1a7c" target="_top" xlink:title=" ">
<polygon fill="white" stroke="#666666" points="509.5,-828.5 357.5,-828.5 357.5,-809.5 509.5,-809.5 509.5,-828.5"/>
<text text-anchor="middle" x="433.5" y="-816.5" font-family="Helvetica,sans-Serif" font-size="10.00">RayTracer::Color::operator+</text>
</a>
</g>
</g>
<!-- Node1&#45;&gt;Node23 -->
<g id="edge45_Node000001_Node000023" class="edge">
<title>Node1&#45;&gt;Node23</title>
<g id="a_edge45_Node000001_Node000023"><a xlink:title=" ">
<path fill="none" stroke="#63b8ff" d="M70.8,-561.17C107.67,-605.58 222.56,-736.17 348,-800 352.65,-802.37 357.6,-804.44 362.68,-806.26"/>
<polygon fill="#63b8ff" stroke="#63b8ff" points="361.96,-809.71 372.55,-809.45 364.11,-803.05 361.96,-809.71"/>
</a>
</g>
</g>
<!-- Node26 -->
<g id="Node000026" class="node">
<title>Node26</title>
<g id="a_Node000026"><a xlink:href="structRayTracer_1_1Color.html#a26e65fe782b16c73dd0b01eff463890a" target="_top" xlink:title=" ">
<polygon fill="white" stroke="#666666" points="297.5,-534.5 165.5,-534.5 165.5,-515.5 297.5,-515.5 297.5,-534.5"/>
<text text-anchor="middle" x="231.5" y="-522.5" font-family="Helvetica,sans-Serif" font-size="10.00">RayTracer::Color::clamp</text>
</a>
</g>
</g>
<!-- Node1&#45;&gt;Node26 -->
<g id="edge32_Node000001_Node000026" class="edge">
<title>Node1&#45;&gt;Node26</title>
<g id="a_edge32_Node000001_Node000026"><a xlink:title=" ">
<path fill="none" stroke="#63b8ff" d="M115.3,-539.07C128.08,-537.5 141.85,-535.82 155.26,-534.19"/>
<polygon fill="#63b8ff" stroke="#63b8ff" points="155.92,-537.63 165.42,-532.95 155.07,-530.68 155.92,-537.63"/>
</a>
</g>
</g>
<!-- Node27 -->
<g id="Node000027" class="node">
<title>Node27</title>
<g id="a_Node000027"><a xlink:href="namespaceRayTracer.html#a3a908bb35774e440b38b116966136c16" target="_top" xlink:title=" ">
<polygon fill="white" stroke="#666666" points="312,-497.5 151,-497.5 151,-478.5 312,-478.5 312,-497.5"/>
<text text-anchor="middle" x="231.5" y="-485.5" font-family="Helvetica,sans-Serif" font-size="10.00">RayTracer::FrameBufferMutex</text>
</a>
</g>
</g>
<!-- Node1&#45;&gt;Node27 -->
<g id="edge33_Node000001_Node000027" class="edge">
<title>Node1&#45;&gt;Node27</title>
<g id="a_edge33_Node000001_Node000027"><a xlink:title=" ">
<path fill="none" stroke="#63b8ff" d="M90.54,-530.96C108.12,-523.09 130.46,-513.73 151,-507 158.67,-504.49 166.85,-502.15 174.95,-500.04"/>
<polygon fill="#63b8ff" stroke="#63b8ff" points="175.89,-503.41 184.74,-497.58 174.18,-496.62 175.89,-503.41"/>
</a>
</g>
</g>
<!-- Node28 -->
<g id="Node000028" class="node">
<title>Node28</title>
<g id="a_Node000028"><a xlink:href="classRayTracer_1_1Camera.html#a4a7f4b6a0e5bf44d17162fb324c289bd" target="_top" xlink:title="Build a world&#45;space ray from normalized screen coordinates.">
<polygon fill="white" stroke="#666666" points="289,-207 174,-207 174,-177 289,-177 289,-207"/>
<text text-anchor="start" x="182" y="-195" font-family="Helvetica,sans-Serif" font-size="10.00">RayTracer::Camera::</text>
<text text-anchor="middle" x="231.5" y="-184" font-family="Helvetica,sans-Serif" font-size="10.00">generateRay</text>
</a>
</g>
</g>
<!-- Node1&#45;&gt;Node28 -->
<g id="edge34_Node000001_Node000028" class="edge">
<title>Node1&#45;&gt;Node28</title>
<g id="a_edge34_Node000001_Node000028"><a xlink:title=" ">
<path fill="none" stroke="#63b8ff" d="M65.89,-530.79C92.8,-475.42 185.66,-284.28 218.71,-216.27"/>
<polygon fill="#63b8ff" stroke="#63b8ff" points="221.91,-217.68 223.14,-207.15 215.62,-214.62 221.91,-217.68"/>
</a>
</g>
</g>
<!-- Node32 -->
<g id="Node000032" class="node">
<title>Node32</title>
<g id="a_Node000032"><a xlink:href="classRayTracer_1_1Scene.html#a95fa63f62bcc5ebefabf3209eb5af01a" target="_top" xlink:title="Prepare the scene hit structure for the next render pass.">
<polygon fill="white" stroke="#666666" points="303,-95 160,-95 160,-65 303,-65 303,-95"/>
<text text-anchor="start" x="168" y="-83" font-family="Helvetica,sans-Serif" font-size="10.00">RayTracer::Scene::prepare</text>
<text text-anchor="middle" x="231.5" y="-72" font-family="Helvetica,sans-Serif" font-size="10.00">AccelerationStructure</text>
</a>
</g>
</g>
<!-- Node1&#45;&gt;Node32 -->
<g id="edge46_Node000001_Node000032" class="edge">
<title>Node1&#45;&gt;Node32</title>
<g id="a_edge46_Node000001_Node000032"><a xlink:title=" ">
<path fill="none" stroke="#63b8ff" d="M59.56,-530.64C63.79,-477.4 82.66,-296.94 151,-168 164.46,-142.6 186.89,-118.73 204.49,-102.28"/>
<polygon fill="#63b8ff" stroke="#63b8ff" points="207.16,-104.58 212.19,-95.26 202.45,-99.41 207.16,-104.58"/>
</a>
</g>
</g>
<!-- Node3&#45;&gt;Node2 -->
<g id="edge3_Node000003_Node000002" class="edge">
<title>Node3&#45;&gt;Node2</title>
<g id="a_edge3_Node000003_Node000002"><a xlink:title=" ">
<path fill="none" stroke="#63b8ff" d="M289.18,-555.08C361.8,-539.9 482.65,-519.68 519,-544 607.98,-603.54 627.28,-746.96 631.4,-799.39"/>
<polygon fill="#63b8ff" stroke="#63b8ff" points="627.91,-799.65 632.08,-809.39 634.89,-799.17 627.91,-799.65"/>
</a>
</g>
</g>
<!-- Node3&#45;&gt;Node3 -->
<g id="edge6_Node000003_Node000003" class="edge">
<title>Node3&#45;&gt;Node3</title>
<g id="a_edge6_Node000003_Node000003"><a xlink:title=" ">
<path fill="none" stroke="#63b8ff" d="M200.91,-583.28C194.12,-592.41 204.31,-601 231.5,-601 247.64,-601 257.79,-597.97 261.96,-593.6"/>
<polygon fill="#63b8ff" stroke="#63b8ff" points="265.46,-593.32 262.09,-583.28 258.46,-593.23 265.46,-593.32"/>
</a>
</g>
</g>
<!-- Node4 -->
<g id="Node000004" class="node">
<title>Node4</title>
<g id="a_Node000004"><a xlink:href="classGeometry_1_1Point3D.html#a6a08342f9542eb6d6ff7bcf2278a240d" target="_top" xlink:title=" ">
<polygon fill="white" stroke="#666666" points="691,-147 576,-147 576,-117 691,-117 691,-147"/>
<text text-anchor="start" x="584" y="-135" font-family="Helvetica,sans-Serif" font-size="10.00">Geometry::Point3D::</text>
<text text-anchor="middle" x="633.5" y="-124" font-family="Helvetica,sans-Serif" font-size="10.00">Point3D</text>
</a>
</g>
</g>
<!-- Node3&#45;&gt;Node4 -->
<g id="edge4_Node000003_Node000004" class="edge">
<title>Node3&#45;&gt;Node4</title>
<g id="a_edge4_Node000003_Node000004"><a xlink:title=" ">
<path fill="none" stroke="#63b8ff" d="M289.38,-558.99C297.86,-555.49 305.82,-550.65 312,-544 361.91,-490.29 296.12,-434.81 348,-383 403.09,-327.99 463.73,-399.83 519,-345 569.52,-294.89 515.9,-248.45 555,-189 564.73,-174.21 579.69,-161.89 593.88,-152.54"/>
<polygon fill="#63b8ff" stroke="#63b8ff" points="595.94,-155.38 602.56,-147.1 592.23,-149.44 595.94,-155.38"/>
</a>
</g>
</g>
<!-- Node5 -->
<g id="Node000005" class="node">
<title>Node5</title>
<g id="a_Node000005"><a xlink:href="classGeometry_1_1Ray.html#a009af874883eaeca399a3c5c144df2fc" target="_top" xlink:title="Constructor.">
<polygon fill="white" stroke="#666666" points="490,-287.5 377,-287.5 377,-268.5 490,-268.5 490,-287.5"/>
<text text-anchor="middle" x="433.5" y="-275.5" font-family="Helvetica,sans-Serif" font-size="10.00">Geometry::Ray::Ray</text>
</a>
</g>
</g>
<!-- Node3&#45;&gt;Node5 -->
<g id="edge5_Node000003_Node000005" class="edge">
<title>Node3&#45;&gt;Node5</title>
<g id="a_edge5_Node000003_Node000005"><a xlink:title=" ">
<path fill="none" stroke="#63b8ff" d="M289.01,-559.71C297.75,-556.14 305.88,-551.1 312,-544 384.41,-459.95 272.61,-378.39 348,-297 353.2,-291.39 359.67,-287.26 366.7,-284.24"/>
<polygon fill="#63b8ff" stroke="#63b8ff" points="368.29,-287.39 376.57,-280.78 365.97,-280.78 368.29,-287.39"/>
</a>
</g>
</g>
<!-- Node6 -->
<g id="Node000006" class="node">
<title>Node6</title>
<g id="a_Node000006"><a xlink:href="classRayTracer_1_1ILight.html#ad73c94dce4fad84ce321082bee288ae1" target="_top" xlink:title="Compute this light&#39;s contribution to a surface. Handles both direct illumination and shadow testing i...">
<polygon fill="white" stroke="#666666" points="485.5,-336 381.5,-336 381.5,-306 485.5,-306 485.5,-336"/>
<text text-anchor="start" x="389.5" y="-324" font-family="Helvetica,sans-Serif" font-size="10.00">RayTracer::ILight::</text>
<text text-anchor="middle" x="433.5" y="-313" font-family="Helvetica,sans-Serif" font-size="10.00">computeLight</text>
</a>
</g>
</g>
<!-- Node3&#45;&gt;Node6 -->
<g id="edge7_Node000003_Node000006" class="edge">
<title>Node3&#45;&gt;Node6</title>
<g id="a_edge7_Node000003_Node000006"><a xlink:title=" ">
<path fill="none" stroke="#63b8ff" d="M289.19,-559.35C297.8,-555.81 305.84,-550.87 312,-544 370.52,-478.68 290.72,-416.4 348,-350 354.39,-342.59 362.76,-337.07 371.75,-332.96"/>
<polygon fill="#63b8ff" stroke="#63b8ff" points="373.29,-336.12 381.29,-329.17 370.7,-329.61 373.29,-336.12"/>
</a>
</g>
</g>
<!-- Node7 -->
<g id="Node000007" class="node">
<title>Node7</title>
<g id="a_Node000007"><a xlink:href="classRayTracer_1_1IMaterial.html#acd4b1bdc4f1ec9f555277b4b87199bb9" target="_top" xlink:title="Return the radiance emitted by this surface.">
<polygon fill="white" stroke="#666666" points="490.5,-791 376.5,-791 376.5,-761 490.5,-761 490.5,-791"/>
<text text-anchor="start" x="384.5" y="-779" font-family="Helvetica,sans-Serif" font-size="10.00">RayTracer::IMaterial</text>
<text text-anchor="middle" x="433.5" y="-768" font-family="Helvetica,sans-Serif" font-size="10.00">::emission</text>
</a>
</g>
</g>
<!-- Node3&#45;&gt;Node7 -->
<g id="edge8_Node000003_Node000007" class="edge">
<title>Node3&#45;&gt;Node7</title>
<g id="a_edge8_Node000003_Node000007"><a xlink:title=" ">
<path fill="none" stroke="#63b8ff" d="M247.94,-583.3C265.32,-601.16 293.52,-632.21 312,-663 333.96,-699.58 316.25,-723.5 348,-752 353.46,-756.9 359.86,-760.81 366.64,-763.92"/>
<polygon fill="#63b8ff" stroke="#63b8ff" points="365.49,-767.24 376.08,-767.7 368.09,-760.74 365.49,-767.24"/>
</a>
</g>
</g>
<!-- Node8 -->
<g id="Node000008" class="node">
<title>Node8</title>
<g id="a_Node000008"><a xlink:href="classRayTracer_1_1IMaterial.html#a98d43460913f09c692f84affec665226" target="_top" xlink:title="Evaluate the BRDF for a given pair of directions.">
<polygon fill="white" stroke="#666666" points="490.5,-743 376.5,-743 376.5,-713 490.5,-713 490.5,-743"/>
<text text-anchor="start" x="384.5" y="-731" font-family="Helvetica,sans-Serif" font-size="10.00">RayTracer::IMaterial</text>
<text text-anchor="middle" x="433.5" y="-720" font-family="Helvetica,sans-Serif" font-size="10.00">::evaluate</text>
</a>
</g>
</g>
<!-- Node3&#45;&gt;Node8 -->
<g id="edge9_Node000003_Node000008" class="edge">
<title>Node3&#45;&gt;Node8</title>
<g id="a_edge9_Node000003_Node000008"><a xlink:title=" ">
<path fill="none" stroke="#63b8ff" d="M245.09,-583.06C274.35,-618.02 344.7,-701.88 348,-704 353.77,-707.71 360.13,-710.86 366.68,-713.53"/>
<polygon fill="#63b8ff" stroke="#63b8ff" points="365.79,-716.94 376.38,-717.11 368.21,-710.37 365.79,-716.94"/>
</a>
</g>
</g>
<!-- Node9 -->
<g id="Node000009" class="node">
<title>Node9</title>
<g id="a_Node000009"><a xlink:href="classRayTracer_1_1Scene.html#a43b223d3c67aa2b66eb5eca01470f09d" target="_top" xlink:title="Get mutable reference to lights.">
<polygon fill="white" stroke="#666666" points="509,-694.5 358,-694.5 358,-675.5 509,-675.5 509,-694.5"/>
<text text-anchor="middle" x="433.5" y="-682.5" font-family="Helvetica,sans-Serif" font-size="10.00">RayTracer::Scene::getLights</text>
</a>
</g>
</g>
<!-- Node3&#45;&gt;Node9 -->
<g id="edge10_Node000003_Node000009" class="edge">
<title>Node3&#45;&gt;Node9</title>
<g id="a_edge10_Node000003_Node000009"><a xlink:title=" ">
<path fill="none" stroke="#63b8ff" d="M245.4,-583.06C265.16,-605.09 305.15,-645.81 348,-667 351.86,-668.91 355.91,-670.61 360.07,-672.14"/>
<polygon fill="#63b8ff" stroke="#63b8ff" points="359.32,-675.58 369.92,-675.38 361.51,-668.93 359.32,-675.58"/>
</a>
</g>
</g>
<!-- Node10 -->
<g id="Node000010" class="node">
<title>Node10</title>
<g id="a_Node000010"><a xlink:href="classRayTracer_1_1Scene.html#a8aa62e8397ea4837bb5a4c12aef5eb54" target="_top" xlink:title="Get mutable reference to primitives.">
<polygon fill="white" stroke="#666666" points="519,-657.5 348,-657.5 348,-638.5 519,-638.5 519,-657.5"/>
<text text-anchor="middle" x="433.5" y="-645.5" font-family="Helvetica,sans-Serif" font-size="10.00">RayTracer::Scene::getPrimitives</text>
</a>
</g>
</g>
<!-- Node3&#45;&gt;Node10 -->
<g id="edge11_Node000003_Node000010" class="edge">
<title>Node3&#45;&gt;Node10</title>
<g id="a_edge11_Node000003_Node000010"><a xlink:title=" ">
<path fill="none" stroke="#63b8ff" d="M255.91,-583.13C278.61,-597.17 314.45,-617.71 348,-630 354.01,-632.2 360.36,-634.17 366.77,-635.92"/>
<polygon fill="#63b8ff" stroke="#63b8ff" points="366.31,-639.41 376.86,-638.49 368.04,-632.63 366.31,-639.41"/>
</a>
</g>
</g>
<!-- Node11 -->
<g id="Node000011" class="node">
<title>Node11</title>
<g id="a_Node000011"><a xlink:href="classRayTracer_1_1Scene.html#a67328ab35346b609ab3b7220fa08098c" target="_top" xlink:title="Find the closest hit for a ray using the current acceleration state.">
<polygon fill="white" stroke="#666666" points="493,-459.5 374,-459.5 374,-440.5 493,-440.5 493,-459.5"/>
<text text-anchor="middle" x="433.5" y="-447.5" font-family="Helvetica,sans-Serif" font-size="10.00">RayTracer::Scene::hit</text>
</a>
</g>
</g>
<!-- Node3&#45;&gt;Node11 -->
<g id="edge12_Node000003_Node000011" class="edge">
<title>Node3&#45;&gt;Node11</title>
<g id="a_edge12_Node000003_Node000011"><a xlink:title=" ">
<path fill="none" stroke="#63b8ff" d="M289.39,-557.23C297.57,-553.93 305.43,-549.63 312,-544 340.08,-519.95 319.07,-492.03 348,-469 352.94,-465.07 358.54,-461.91 364.44,-459.39"/>
<polygon fill="#63b8ff" stroke="#63b8ff" points="365.72,-462.64 373.91,-455.92 363.32,-456.07 365.72,-462.64"/>
</a>
</g>
</g>
<!-- Node17 -->
<g id="Node000017" class="node">
<title>Node17</title>
<g id="a_Node000017"><a xlink:href="classGeometry_1_1Vector3D.html#a388f7af8bf0095c817e89b5b2518fda7" target="_top" xlink:title=" ">
<polygon fill="white" stroke="#666666" points="491,-250 376,-250 376,-220 491,-220 491,-250"/>
<text text-anchor="start" x="384" y="-238" font-family="Helvetica,sans-Serif" font-size="10.00">Geometry::Vector3D</text>
<text text-anchor="middle" x="433.5" y="-227" font-family="Helvetica,sans-Serif" font-size="10.00">::normalize</text>
</a>
</g>
</g>
<!-- Node3&#45;&gt;Node17 -->
<g id="edge19_Node000003_Node000017" class="edge">
<title>Node3&#45;&gt;Node17</title>
<g id="a_edge19_Node000003_Node000017"><a xlink:title=" ">
<path fill="none" stroke="#63b8ff" d="M289.12,-559.81C297.85,-556.23 305.95,-551.16 312,-544 394.15,-446.84 265.59,-356.93 348,-260 352.97,-254.15 359.24,-249.63 366.11,-246.15"/>
<polygon fill="#63b8ff" stroke="#63b8ff" points="367.97,-249.17 375.78,-242.02 365.21,-242.73 367.97,-249.17"/>
</a>
</g>
</g>
<!-- Node20 -->
<g id="Node000020" class="node">
<title>Node20</title>
<g id="a_Node000020"><a xlink:href="structRayTracer_1_1Color.html#a3a5645c19c0b60a67b3dfac325727248" target="_top" xlink:title=" ">
<polygon fill="white" stroke="#666666" points="508,-496.5 359,-496.5 359,-477.5 508,-477.5 508,-496.5"/>
<text text-anchor="middle" x="433.5" y="-484.5" font-family="Helvetica,sans-Serif" font-size="10.00">RayTracer::Color::operator*</text>
</a>
</g>
</g>
<!-- Node3&#45;&gt;Node20 -->
<g id="edge22_Node000003_Node000020" class="edge">
<title>Node3&#45;&gt;Node20</title>
<g id="a_edge22_Node000003_Node000020"><a xlink:title=" ">
<path fill="none" stroke="#63b8ff" d="M289.4,-554.26C297.23,-551.39 304.98,-547.99 312,-544 330.86,-533.26 329.05,-521.58 348,-511 356.12,-506.47 365.16,-502.73 374.22,-499.67"/>
<polygon fill="#63b8ff" stroke="#63b8ff" points="375.53,-502.93 384.03,-496.61 373.44,-496.25 375.53,-502.93"/>
</a>
</g>
</g>
<!-- Node21 -->
<g id="Node000021" class="node">
<title>Node21</title>
<g id="a_Node000021"><a xlink:href="classGeometry_1_1Vector3D.html#aa583eecc673b26ce6058e6dd00238a62" target="_top" xlink:title=" ">
<polygon fill="white" stroke="#666666" points="491,-422 376,-422 376,-392 491,-392 491,-422"/>
<text text-anchor="start" x="384" y="-410" font-family="Helvetica,sans-Serif" font-size="10.00">Geometry::Vector3D</text>
<text text-anchor="middle" x="433.5" y="-399" font-family="Helvetica,sans-Serif" font-size="10.00">::operator*</text>
</a>
</g>
</g>
<!-- Node3&#45;&gt;Node21 -->
<g id="edge24_Node000003_Node000021" class="edge">
<title>Node3&#45;&gt;Node21</title>
<g id="a_edge24_Node000003_Node000021"><a xlink:title=" ">
<path fill="none" stroke="#63b8ff" d="M289.28,-558.33C297.67,-554.9 305.62,-550.26 312,-544 349.3,-507.36 310.6,-468.54 348,-432 353.27,-426.86 359.54,-422.76 366.25,-419.5"/>
<polygon fill="#63b8ff" stroke="#63b8ff" points="367.77,-422.66 375.63,-415.56 365.06,-416.21 367.77,-422.66"/>
</a>
</g>
</g>
<!-- Node3&#45;&gt;Node22 -->
<g id="edge26_Node000003_Node000022" class="edge">
<title>Node3&#45;&gt;Node22</title>
<g id="a_edge26_Node000003_Node000022"><a xlink:title=" ">
<path fill="none" stroke="#63b8ff" d="M236.96,-583.15C252.48,-634.85 305.47,-803.03 348,-838 349.39,-839.15 350.84,-840.22 352.34,-841.24"/>
<polygon fill="#63b8ff" stroke="#63b8ff" points="350.95,-844.47 361.37,-846.37 354.41,-838.39 350.95,-844.47"/>
</a>
</g>
</g>
<!-- Node3&#45;&gt;Node23 -->
<g id="edge28_Node000003_Node000023" class="edge">
<title>Node3&#45;&gt;Node23</title>
<g id="a_edge28_Node000003_Node000023"><a xlink:title=" ">
<path fill="none" stroke="#63b8ff" d="M248.99,-583.21C267.05,-600.75 295.61,-631.28 312,-663 340.9,-718.93 302.69,-756.29 348,-800 349.46,-801.41 351,-802.72 352.61,-803.95"/>
<polygon fill="#63b8ff" stroke="#63b8ff" points="350.85,-806.97 361.17,-809.35 354.58,-801.05 350.85,-806.97"/>
</a>
</g>
</g>
<!-- Node24 -->
<g id="Node000024" class="node">
<title>Node24</title>
<g id="a_Node000024"><a xlink:href="classRayTracer_1_1IMaterial.html#a2b3e2b7f5cf291a25885aaf2d39d5582" target="_top" xlink:title="Return the probability density of the direction from sample().">
<polygon fill="white" stroke="#666666" points="501.5,-620.5 365.5,-620.5 365.5,-601.5 501.5,-601.5 501.5,-620.5"/>
<text text-anchor="middle" x="433.5" y="-608.5" font-family="Helvetica,sans-Serif" font-size="10.00">RayTracer::IMaterial::pdf</text>
</a>
</g>
</g>
<!-- Node3&#45;&gt;Node24 -->
<g id="edge30_Node000003_Node000024" class="edge">
<title>Node3&#45;&gt;Node24</title>
<g id="a_edge30_Node000003_Node000024"><a xlink:title=" ">
<path fill="none" stroke="#63b8ff" d="M289.01,-580.15C316.99,-586.17 350.62,-593.4 378.28,-599.34"/>
<polygon fill="#63b8ff" stroke="#63b8ff" points="377.67,-602.79 388.18,-601.47 379.14,-595.95 377.67,-602.79"/>
</a>
</g>
</g>
<!-- Node25 -->
<g id="Node000025" class="node">
<title>Node25</title>
<g id="a_Node000025"><a xlink:href="classRayTracer_1_1IMaterial.html#ade12fb28f824d8b9f9627bc3692afa80" target="_top" xlink:title="Return the deterministic bounce direction for this material.">
<polygon fill="white" stroke="#666666" points="490.5,-583 376.5,-583 376.5,-553 490.5,-553 490.5,-583"/>
<text text-anchor="start" x="384.5" y="-571" font-family="Helvetica,sans-Serif" font-size="10.00">RayTracer::IMaterial</text>
<text text-anchor="middle" x="433.5" y="-560" font-family="Helvetica,sans-Serif" font-size="10.00">::sample</text>
</a>
</g>
</g>
<!-- Node3&#45;&gt;Node25 -->
<g id="edge31_Node000003_Node000025" class="edge">
<title>Node3&#45;&gt;Node25</title>
<g id="a_edge31_Node000003_Node000025"><a xlink:title=" ">
<path fill="none" stroke="#63b8ff" d="M289.01,-568C313.07,-568 341.3,-568 366.33,-568"/>
<polygon fill="#63b8ff" stroke="#63b8ff" points="366.48,-571.5 376.48,-568 366.48,-564.5 366.48,-571.5"/>
</a>
</g>
</g>
<!-- Node12 -->
<g id="Node000012" class="node">
<title>Node12</title>
<g id="a_Node000012"><a xlink:href="classRayTracer_1_1BVH.html#a5385dd9961d6eb9148833e83538b24f9" target="_top" xlink:title=" ">
<polygon fill="white" stroke="#666666" points="688.5,-459.5 578.5,-459.5 578.5,-440.5 688.5,-440.5 688.5,-459.5"/>
<text text-anchor="middle" x="633.5" y="-447.5" font-family="Helvetica,sans-Serif" font-size="10.00">RayTracer::BVH::hit</text>
</a>
</g>
</g>
<!-- Node11&#45;&gt;Node12 -->
<g id="edge13_Node000011_Node000012" class="edge">
<title>Node11&#45;&gt;Node12</title>
<g id="a_edge13_Node000011_Node000012"><a xlink:title=" ">
<path fill="none" stroke="#63b8ff" d="M493.1,-450C516.75,-450 544.11,-450 568.3,-450"/>
<polygon fill="#63b8ff" stroke="#63b8ff" points="568.45,-453.5 578.45,-450 568.45,-446.5 568.45,-453.5"/>
</a>
</g>
</g>
<!-- Node13 -->
<g id="Node000013" class="node">
<title>Node13</title>
<g id="a_Node000013"><a xlink:href="classRayTracer_1_1BVH.html#aa28c211e870f890ee8b318cb0356beb7" target="_top" xlink:title=" ">
<polygon fill="white" stroke="#666666" points="884,-459.5 748,-459.5 748,-440.5 884,-440.5 884,-459.5"/>
<text text-anchor="middle" x="816" y="-447.5" font-family="Helvetica,sans-Serif" font-size="10.00">RayTracer::BVH::hitNode</text>
</a>
</g>
</g>
<!-- Node12&#45;&gt;Node13 -->
<g id="edge14_Node000012_Node000013" class="edge">
<title>Node12&#45;&gt;Node13</title>
<g id="a_edge14_Node000012_Node000013"><a xlink:title=" ">
<path fill="none" stroke="#63b8ff" d="M688.66,-450C704.05,-450 721.12,-450 737.61,-450"/>
<polygon fill="#63b8ff" stroke="#63b8ff" points="737.77,-453.5 747.77,-450 737.77,-446.5 737.77,-453.5"/>
</a>
</g>
</g>
<!-- Node13&#45;&gt;Node13 -->
<g id="edge17_Node000013_Node000013" class="edge">
<title>Node13&#45;&gt;Node13</title>
<g id="a_edge17_Node000013_Node000013"><a xlink:title=" ">
<path fill="none" stroke="#63b8ff" d="M789.18,-459.58C776.13,-468.23 785.07,-477.5 816,-477.5 836.78,-477.5 847.63,-473.32 848.56,-467.95"/>
<polygon fill="#63b8ff" stroke="#63b8ff" points="851.36,-465.85 842.82,-459.58 845.59,-469.81 851.36,-465.85"/>
</a>
</g>
</g>
<!-- Node14 -->
<g id="Node000014" class="node">
<title>Node14</title>
<g id="a_Node000014"><a xlink:href="classRayTracer_1_1APrimitive.html#af00a66a6a6b8d251f5d21e1cc5077c6b" target="_top" xlink:title="Test ray intersection with this primitive.">
<polygon fill="white" stroke="#666666" points="1060,-496.5 920,-496.5 920,-477.5 1060,-477.5 1060,-496.5"/>
<text text-anchor="middle" x="990" y="-484.5" font-family="Helvetica,sans-Serif" font-size="10.00">RayTracer::APrimitive::hit</text>
</a>
</g>
</g>
<!-- Node13&#45;&gt;Node14 -->
<g id="edge15_Node000013_Node000014" class="edge">
<title>Node13&#45;&gt;Node14</title>
<g id="a_edge15_Node000013_Node000014"><a xlink:title=" ">
<path fill="none" stroke="#63b8ff" d="M861.29,-459.53C883.68,-464.34 911.03,-470.23 934.68,-475.31"/>
<polygon fill="#63b8ff" stroke="#63b8ff" points="934.04,-478.76 944.56,-477.44 935.52,-471.91 934.04,-478.76"/>
</a>
</g>
</g>
<!-- Node15 -->
<g id="Node000015" class="node">
<title>Node15</title>
<g id="a_Node000015"><a xlink:href="classGeometry_1_1AABB.html#a8c406537b6e233f459bf9c258f7ad911" target="_top" xlink:title=" ">
<polygon fill="white" stroke="#666666" points="1048,-459.5 932,-459.5 932,-440.5 1048,-440.5 1048,-459.5"/>
<text text-anchor="middle" x="990" y="-447.5" font-family="Helvetica,sans-Serif" font-size="10.00">Geometry::AABB::hit</text>
</a>
</g>
</g>
<!-- Node13&#45;&gt;Node15 -->
<g id="edge16_Node000013_Node000015" class="edge">
<title>Node13&#45;&gt;Node15</title>
<g id="a_edge16_Node000013_Node000015"><a xlink:title=" ">
<path fill="none" stroke="#63b8ff" d="M884.49,-450C896.76,-450 909.57,-450 921.84,-450"/>
<polygon fill="#63b8ff" stroke="#63b8ff" points="922,-453.5 932,-450 922,-446.5 922,-453.5"/>
</a>
</g>
</g>
<!-- Node16 -->
<g id="Node000016" class="node">
<title>Node16</title>
<g id="a_Node000016"><a xlink:href="structRayTracer_1_1BVH_1_1Node.html#adf1c12ea3158748487372080e28a8315" target="_top" xlink:title=" ">
<polygon fill="white" stroke="#666666" points="1051.5,-422 928.5,-422 928.5,-392 1051.5,-392 1051.5,-422"/>
<text text-anchor="start" x="936.5" y="-410" font-family="Helvetica,sans-Serif" font-size="10.00">RayTracer::BVH::Node</text>
<text text-anchor="middle" x="990" y="-399" font-family="Helvetica,sans-Serif" font-size="10.00">::isLeaf</text>
</a>
</g>
</g>
<!-- Node13&#45;&gt;Node16 -->
<g id="edge18_Node000013_Node000016" class="edge">
<title>Node13&#45;&gt;Node16</title>
<g id="a_edge18_Node000013_Node000016"><a xlink:title=" ">
<path fill="none" stroke="#63b8ff" d="M855.17,-440.46C873.97,-435.76 897.23,-429.94 919.07,-424.48"/>
<polygon fill="#63b8ff" stroke="#63b8ff" points="920.12,-427.83 928.97,-422.01 918.42,-421.04 920.12,-427.83"/>
</a>
</g>
</g>
<!-- Node18 -->
<g id="Node000018" class="node">
<title>Node18</title>
<g id="a_Node000018"><a xlink:href="classGeometry_1_1Vector3D.html#ae4c5a52ebf282e334801c8ee28ad8d5d" target="_top" xlink:title=" ">
<polygon fill="white" stroke="#666666" points="691,-228 576,-228 576,-198 691,-198 691,-228"/>
<text text-anchor="start" x="584" y="-216" font-family="Helvetica,sans-Serif" font-size="10.00">Geometry::Vector3D</text>
<text text-anchor="middle" x="633.5" y="-205" font-family="Helvetica,sans-Serif" font-size="10.00">::Vector3D</text>
</a>
</g>
</g>
<!-- Node17&#45;&gt;Node18 -->
<g id="edge20_Node000017_Node000018" class="edge">
<title>Node17&#45;&gt;Node18</title>
<g id="a_edge20_Node000017_Node000018"><a xlink:title=" ">
<path fill="none" stroke="#63b8ff" d="M491.24,-228.7C514.44,-226.12 541.45,-223.12 565.6,-220.43"/>
<polygon fill="#63b8ff" stroke="#63b8ff" points="566.2,-223.89 575.75,-219.31 565.43,-216.93 566.2,-223.89"/>
</a>
</g>
</g>
<!-- Node19 -->
<g id="Node000019" class="node">
<title>Node19</title>
<g id="a_Node000019"><a xlink:href="classGeometry_1_1Vector3D.html#a8966b188a3b6d27793b3896618fea42c" target="_top" xlink:title="Calculate the length (magnitude) of this vector.">
<polygon fill="white" stroke="#666666" points="691,-276 576,-276 576,-246 691,-246 691,-276"/>
<text text-anchor="start" x="584" y="-264" font-family="Helvetica,sans-Serif" font-size="10.00">Geometry::Vector3D</text>
<text text-anchor="middle" x="633.5" y="-253" font-family="Helvetica,sans-Serif" font-size="10.00">::length</text>
</a>
</g>
</g>
<!-- Node17&#45;&gt;Node19 -->
<g id="edge21_Node000017_Node000019" class="edge">
<title>Node17&#45;&gt;Node19</title>
<g id="a_edge21_Node000017_Node000019"><a xlink:title=" ">
<path fill="none" stroke="#63b8ff" d="M491.24,-242.45C514.44,-245.5 541.45,-249.04 565.6,-252.21"/>
<polygon fill="#63b8ff" stroke="#63b8ff" points="565.38,-255.72 575.75,-253.55 566.29,-248.78 565.38,-255.72"/>
</a>
</g>
</g>
<!-- Node20&#45;&gt;Node2 -->
<g id="edge23_Node000020_Node000002" class="edge">
<title>Node20&#45;&gt;Node2</title>
<g id="a_edge23_Node000020_Node000002"><a xlink:title=" ">
<path fill="none" stroke="#63b8ff" d="M495.01,-496.56C503.81,-500.01 512.18,-504.68 519,-511 606.03,-591.63 626.57,-744.82 631.21,-799.22"/>
<polygon fill="#63b8ff" stroke="#63b8ff" points="627.73,-799.57 631.98,-809.27 634.7,-799.03 627.73,-799.57"/>
</a>
</g>
</g>
<!-- Node21&#45;&gt;Node18 -->
<g id="edge25_Node000021_Node000018" class="edge">
<title>Node21&#45;&gt;Node18</title>
<g id="a_edge25_Node000021_Node000018"><a xlink:title=" ">
<path fill="none" stroke="#63b8ff" d="M491.41,-396.14C501.71,-391.93 511.53,-386.09 519,-378 562.85,-330.46 510.43,-283.87 555,-237 558.4,-233.42 562.32,-230.38 566.56,-227.78"/>
<polygon fill="#63b8ff" stroke="#63b8ff" points="568.37,-230.78 575.63,-223.06 565.14,-224.57 568.37,-230.78"/>
</a>
</g>
</g>
<!-- Node22&#45;&gt;Node2 -->
<g id="edge27_Node000022_Node000002" class="edge">
<title>Node22&#45;&gt;Node2</title>
<g id="a_edge27_Node000022_Node000002"><a xlink:title=" ">
<path fill="none" stroke="#63b8ff" d="M485.49,-846.47C511.72,-841.57 543.87,-835.56 571.42,-830.41"/>
<polygon fill="#63b8ff" stroke="#63b8ff" points="572.15,-833.84 581.34,-828.56 570.87,-826.96 572.15,-833.84"/>
</a>
</g>
</g>
<!-- Node23&#45;&gt;Node2 -->
<g id="edge29_Node000023_Node000002" class="edge">
<title>Node23&#45;&gt;Node2</title>
<g id="a_edge29_Node000023_Node000002"><a xlink:title=" ">
<path fill="none" stroke="#63b8ff" d="M509.64,-819C525.79,-819 542.85,-819 558.94,-819"/>
<polygon fill="#63b8ff" stroke="#63b8ff" points="559.36,-822.5 569.36,-819 559.36,-815.5 559.36,-822.5"/>
</a>
</g>
</g>
<!-- Node28&#45;&gt;Node4 -->
<g id="edge35_Node000028_Node000004" class="edge">
<title>Node28&#45;&gt;Node4</title>
<g id="a_edge35_Node000028_Node000004"><a xlink:title=" ">
<path fill="none" stroke="#63b8ff" d="M289.39,-183.47C362.25,-172.54 488.34,-153.62 565.7,-142.02"/>
<polygon fill="#63b8ff" stroke="#63b8ff" points="566.44,-145.45 575.81,-140.5 565.4,-138.53 566.44,-145.45"/>
</a>
</g>
</g>
<!-- Node28&#45;&gt;Node5 -->
<g id="edge36_Node000028_Node000005" class="edge">
<title>Node28&#45;&gt;Node5</title>
<g id="a_edge36_Node000028_Node000005"><a xlink:title=" ">
<path fill="none" stroke="#63b8ff" d="M254.06,-207.21C276.53,-222.4 313.25,-245.39 348,-259 354.64,-261.6 361.72,-263.89 368.85,-265.9"/>
<polygon fill="#63b8ff" stroke="#63b8ff" points="368.01,-269.29 378.57,-268.46 369.79,-262.52 368.01,-269.29"/>
</a>
</g>
</g>
<!-- Node28&#45;&gt;Node17 -->
<g id="edge38_Node000028_Node000017" class="edge">
<title>Node28&#45;&gt;Node17</title>
<g id="a_edge38_Node000028_Node000017"><a xlink:title=" ">
<path fill="none" stroke="#63b8ff" d="M289.01,-204.15C312.87,-209.28 340.83,-215.29 365.7,-220.64"/>
<polygon fill="#63b8ff" stroke="#63b8ff" points="365.27,-224.13 375.78,-222.81 366.74,-217.28 365.27,-224.13"/>
</a>
</g>
</g>
<!-- Node28&#45;&gt;Node18 -->
<g id="edge37_Node000028_Node000018" class="edge">
<title>Node28&#45;&gt;Node18</title>
<g id="a_edge37_Node000028_Node000018"><a xlink:title=" ">
<path fill="none" stroke="#63b8ff" d="M289.39,-194.99C362.25,-198.81 488.34,-205.43 565.7,-209.49"/>
<polygon fill="#63b8ff" stroke="#63b8ff" points="565.64,-212.99 575.81,-210.02 566.01,-206 565.64,-212.99"/>
</a>
</g>
</g>
<!-- Node29 -->
<g id="Node000029" class="node">
<title>Node29</title>
<g id="a_Node000029"><a xlink:href="classGeometry_1_1TransformMatrix.html#a136a1573f63564d63426b89fcafeb21b" target="_top" xlink:title=" ">
<polygon fill="white" stroke="#666666" points="509,-78 358,-78 358,-48 509,-48 509,-78"/>
<text text-anchor="start" x="366" y="-66" font-family="Helvetica,sans-Serif" font-size="10.00">Geometry::TransformMatrix</text>
<text text-anchor="middle" x="433.5" y="-55" font-family="Helvetica,sans-Serif" font-size="10.00">::operator*</text>
</a>
</g>
</g>
<!-- Node28&#45;&gt;Node29 -->
<g id="edge39_Node000028_Node000029" class="edge">
<title>Node28&#45;&gt;Node29</title>
<g id="a_edge39_Node000028_Node000029"><a xlink:title=" ">
<path fill="none" stroke="#63b8ff" d="M245.07,-176.76C264.7,-153.92 304.89,-110.96 348,-87 351.26,-85.19 354.66,-83.51 358.16,-81.94"/>
<polygon fill="#63b8ff" stroke="#63b8ff" points="359.66,-85.11 367.58,-78.07 357,-78.63 359.66,-85.11"/>
</a>
</g>
</g>
<!-- Node31 -->
<g id="Node000031" class="node">
<title>Node31</title>
<g id="a_Node000031"><a xlink:href="classGeometry_1_1Rectangle3D.html#a2b17f489ad6e57c131dc0e1c8ac2f1a0" target="_top" xlink:title="Get a point on the rectangle at normalized coordinates (u, v).">
<polygon fill="white" stroke="#666666" points="500,-126 367,-126 367,-96 500,-96 500,-126"/>
<text text-anchor="start" x="375" y="-114" font-family="Helvetica,sans-Serif" font-size="10.00">Geometry::Rectangle3D</text>
<text text-anchor="middle" x="433.5" y="-103" font-family="Helvetica,sans-Serif" font-size="10.00">::pointAt</text>
</a>
</g>
</g>
<!-- Node28&#45;&gt;Node31 -->
<g id="edge42_Node000028_Node000031" class="edge">
<title>Node28&#45;&gt;Node31</title>
<g id="a_edge42_Node000028_Node000031"><a xlink:title=" ">
<path fill="none" stroke="#63b8ff" d="M264.03,-176.85C287.06,-166.03 319.17,-151.41 348,-140 357.19,-136.36 367.05,-132.74 376.67,-129.34"/>
<polygon fill="#63b8ff" stroke="#63b8ff" points="377.87,-132.63 386.17,-126.04 375.57,-126.02 377.87,-132.63"/>
</a>
</g>
</g>
<!-- Node29&#45;&gt;Node4 -->
<g id="edge40_Node000029_Node000004" class="edge">
<title>Node29&#45;&gt;Node4</title>
<g id="a_edge40_Node000029_Node000004"><a xlink:title=" ">
<path fill="none" stroke="#63b8ff" d="M490.65,-78.09C500.16,-80.89 509.9,-83.91 519,-87 541.96,-94.79 567.06,-104.6 587.81,-113.08"/>
<polygon fill="#63b8ff" stroke="#63b8ff" points="586.73,-116.42 597.31,-116.99 589.4,-109.94 586.73,-116.42"/>
</a>
</g>
</g>
<!-- Node30 -->
<g id="Node000030" class="node">
<title>Node30</title>
<g id="a_Node000030"><a xlink:href="classGeometry_1_1Matrix.html#a55bca424225b20c0490c21b93faea578" target="_top" xlink:title="Mutable element access.">
<polygon fill="white" stroke="#666666" points="712,-72.5 555,-72.5 555,-53.5 712,-53.5 712,-72.5"/>
<text text-anchor="middle" x="633.5" y="-60.5" font-family="Helvetica,sans-Serif" font-size="10.00">Geometry::Matrix::operator()</text>
</a>
</g>
</g>
<!-- Node29&#45;&gt;Node30 -->
<g id="edge41_Node000029_Node000030" class="edge">
<title>Node29&#45;&gt;Node30</title>
<g id="a_edge41_Node000029_Node000030"><a xlink:title=" ">
<path fill="none" stroke="#63b8ff" d="M509.07,-63C520.6,-63 532.61,-63 544.4,-63"/>
<polygon fill="#63b8ff" stroke="#63b8ff" points="544.69,-66.5 554.69,-63 544.69,-59.5 544.69,-66.5"/>
</a>
</g>
</g>
<!-- Node31&#45;&gt;Node4 -->
<g id="edge43_Node000031_Node000004" class="edge">
<title>Node31&#45;&gt;Node4</title>
<g id="a_edge43_Node000031_Node000004"><a xlink:title=" ">
<path fill="none" stroke="#63b8ff" d="M500.16,-117.96C521.25,-120.2 544.62,-122.68 565.78,-124.92"/>
<polygon fill="#63b8ff" stroke="#63b8ff" points="565.66,-128.43 575.98,-126.01 566.4,-121.47 565.66,-128.43"/>
</a>
</g>
</g>
<!-- Node33 -->
<g id="Node000033" class="node">
<title>Node33</title>
<g id="a_Node000033"><a xlink:href="classRayTracer_1_1APrimitive.html#a6860e01f9fe7dba5d0a8301aba44efa0" target="_top" xlink:title="Get the primitive&#39;s axis&#45;aligned bounds, if any. Unbounded primitives may return std::nullopt.">
<polygon fill="white" stroke="#666666" points="494.5,-30 372.5,-30 372.5,0 494.5,0 494.5,-30"/>
<text text-anchor="start" x="380.5" y="-18" font-family="Helvetica,sans-Serif" font-size="10.00">RayTracer::APrimitive</text>
<text text-anchor="middle" x="433.5" y="-7" font-family="Helvetica,sans-Serif" font-size="10.00">::getBounds</text>
</a>
</g>
</g>
<!-- Node32&#45;&gt;Node33 -->
<g id="edge47_Node000032_Node000033" class="edge">
<title>Node32&#45;&gt;Node33</title>
<g id="a_edge47_Node000032_Node000033"><a xlink:title=" ">
<path fill="none" stroke="#63b8ff" d="M272.91,-64.94C294.98,-56.89 322.86,-47.02 348,-39 354.34,-36.98 360.98,-34.94 367.63,-32.96"/>
<polygon fill="#63b8ff" stroke="#63b8ff" points="368.74,-36.29 377.35,-30.11 366.77,-29.57 368.74,-36.29"/>
</a>
</g>
</g>
</g>
</svg>
