<?xml version="1.0" encoding="UTF-8" standalone="no"?>
<!DOCTYPE svg PUBLIC "-//W3C//DTD SVG 1.1//EN"
 "http://www.w3.org/Graphics/SVG/1.1/DTD/svg11.dtd">
<!-- Generated by graphviz version 2.43.0 (0)
 -->
<!-- Title: Geometry::Vector3D::dot Pages: 1 -->
<svg width="480pt" height="301pt"
 viewBox="0.00 0.00 480.00 300.50" xmlns="http://www.w3.org/2000/svg" xmlns:xlink="http://www.w3.org/1999/xlink">
<g id="graph0" class="graph" transform="scale(1 1) rotate(0) translate(4 296.5)">
<title>Geometry::Vector3D::dot</title>
<!-- Node1 -->
<g id="Node000001" class="node">
<title>Node1</title>
<g id="a_Node000001"><a xlink:title=" ">
<polygon fill="#999999" stroke="#666666" points="472,-130 335,-130 335,-111 472,-111 472,-130"/>
<text text-anchor="middle" x="403.5" y="-118" font-family="Helvetica,sans-Serif" font-size="10.00">Geometry::Vector3D::dot</text>
</a>
</g>
</g>
<!-- Node2 -->
<g id="Node000002" class="node">
<title>Node2</title>
<g id="a_Node000002"><a xlink:href="classRayTracer_1_1Camera.html#a7cd2251f34b6dda51fe338512e598571" target="_top" xlink:title="Evaluate the rendering equation along a ray, deterministically.">
<polygon fill="white" stroke="#666666" points="282.5,-274.5 167.5,-274.5 167.5,-244.5 282.5,-244.5 282.5,-274.5"/>
<text text-anchor="start" x="175.5" y="-262.5" font-family="Helvetica,sans-Serif" font-size="10.00">RayTracer::Camera::</text>
<text text-anchor="middle" x="225" y="-251.5" font-family="Helvetica,sans-Serif" font-size="10.00">castRay</text>
</a>
</g>
</g>
<!-- Node1&#45;&gt;Node2 -->
<g id="edge1_Node000001_Node000002" class="edge">
<title>Node1&#45;&gt;Node2</title>
<g id="a_edge1_Node000001_Node000002"><a xlink:title=" ">
<path fill="none" stroke="#63b8ff" d="M390.75,-138.65C373.53,-163.87 339.1,-209.35 299,-235.5 293.75,-238.92 287.96,-241.9 282.02,-244.48"/>
<polygon fill="#63b8ff" stroke="#63b8ff" points="393.84,-140.32 396.48,-130.06 388.02,-136.44 393.84,-140.32"/>
</a>
</g>
</g>
<!-- Node4 -->
<g id="Node000004" class="node">
<title>Node4</title>
<g id="a_Node000004"><a xlink:href="classRayTracer_1_1DirectionalLight.html#a7170b3c9d9e2c2e697139f0dae68ab5b" target="_top" xlink:title="Compute light contribution, shadow ray cast in opposite direction.">
<polygon fill="white" stroke="#666666" points="299,-226.5 151,-226.5 151,-196.5 299,-196.5 299,-226.5"/>
<text text-anchor="start" x="159" y="-214.5" font-family="Helvetica,sans-Serif" font-size="10.00">RayTracer::DirectionalLight</text>
<text text-anchor="middle" x="225" y="-203.5" font-family="Helvetica,sans-Serif" font-size="10.00">::computeLight</text>
</a>
</g>
</g>
<!-- Node1&#45;&gt;Node4 -->
<g id="edge4_Node000001_Node000004" class="edge">
<title>Node1&#45;&gt;Node4</title>
<g id="a_edge4_Node000001_Node000004"><a xlink:title=" ">
<path fill="none" stroke="#63b8ff" d="M381.9,-136.12C361.65,-150.9 329.45,-172.94 299,-187.5 292.14,-190.78 284.72,-193.79 277.32,-196.49"/>
<polygon fill="#63b8ff" stroke="#63b8ff" points="384.1,-138.84 390.05,-130.08 379.93,-133.21 384.1,-138.84"/>
</a>
</g>
</g>
<!-- Node5 -->
<g id="Node000005" class="node">
<title>Node5</title>
<g id="a_Node000005"><a xlink:href="classRayTracer_1_1PointLight.html#a4fdb35dd47674e655119b54c30b48b20" target="_top" xlink:title="Compute light contribution.">
<polygon fill="white" stroke="#666666" points="284.5,-178.5 165.5,-178.5 165.5,-148.5 284.5,-148.5 284.5,-178.5"/>
<text text-anchor="start" x="173.5" y="-166.5" font-family="Helvetica,sans-Serif" font-size="10.00">RayTracer::PointLight</text>
<text text-anchor="middle" x="225" y="-155.5" font-family="Helvetica,sans-Serif" font-size="10.00">::computeLight</text>
</a>
</g>
</g>
<!-- Node1&#45;&gt;Node5 -->
<g id="edge5_Node000001_Node000005" class="edge">
<title>Node1&#45;&gt;Node5</title>
<g id="a_edge5_Node000001_Node000005"><a xlink:title=" ">
<path fill="none" stroke="#63b8ff" d="M353.49,-132.44C332.11,-137.65 306.87,-143.8 284.51,-149.25"/>
<polygon fill="#63b8ff" stroke="#63b8ff" points="354.44,-135.81 363.33,-130.04 352.78,-129.01 354.44,-135.81"/>
</a>
</g>
</g>
<!-- Node6 -->
<g id="Node000006" class="node">
<title>Node6</title>
<g id="a_Node000006"><a xlink:href="classRayTracer_1_1Cylinder.html#ab42450e2290b96bccdf83ba79fa9d8af" target="_top" xlink:title="Test ray–cylinder intersection using the quadratic form of the cylinder equation.">
<polygon fill="white" stroke="#666666" points="290,-130 160,-130 160,-111 290,-111 290,-130"/>
<text text-anchor="middle" x="225" y="-118" font-family="Helvetica,sans-Serif" font-size="10.00">RayTracer::Cylinder::hit</text>
</a>
</g>
</g>
<!-- Node1&#45;&gt;Node6 -->
<g id="edge6_Node000001_Node000006" class="edge">
<title>Node1&#45;&gt;Node6</title>
<g id="a_edge6_Node000001_Node000006"><a xlink:title=" ">
<path fill="none" stroke="#63b8ff" d="M324.68,-120.5C313.12,-120.5 301.31,-120.5 290.07,-120.5"/>
<polygon fill="#63b8ff" stroke="#63b8ff" points="324.77,-124 334.77,-120.5 324.77,-117 324.77,-124"/>
</a>
</g>
</g>
<!-- Node7 -->
<g id="Node000007" class="node">
<title>Node7</title>
<g id="a_Node000007"><a xlink:href="classRayTracer_1_1Plane.html#a7b741696eb186f6ec9df62e58e795916" target="_top" xlink:title="Test ray–plane intersection using the algebraic plane equation.">
<polygon fill="white" stroke="#666666" points="283,-93 167,-93 167,-74 283,-74 283,-93"/>
<text text-anchor="middle" x="225" y="-81" font-family="Helvetica,sans-Serif" font-size="10.00">RayTracer::Plane::hit</text>
</a>
</g>
</g>
<!-- Node1&#45;&gt;Node7 -->
<g id="edge7_Node000001_Node000007" class="edge">
<title>Node1&#45;&gt;Node7</title>
<g id="a_edge7_Node000001_Node000007"><a xlink:title=" ">
<path fill="none" stroke="#63b8ff" d="M347.24,-108.92C322.92,-103.82 294.7,-97.9 271.61,-93.06"/>
<polygon fill="#63b8ff" stroke="#63b8ff" points="346.54,-112.35 357.05,-110.97 347.98,-105.49 346.54,-112.35"/>
</a>
</g>
</g>
<!-- Node8 -->
<g id="Node000008" class="node">
<title>Node8</title>
<g id="a_Node000008"><a xlink:href="classRayTracer_1_1Sphere.html#a40d439c5a658465a6eeef01f7679ecc9" target="_top" xlink:title="Test ray intersection with this primitive.">
<polygon fill="white" stroke="#666666" points="286.5,-56 163.5,-56 163.5,-37 286.5,-37 286.5,-56"/>
<text text-anchor="middle" x="225" y="-44" font-family="Helvetica,sans-Serif" font-size="10.00">RayTracer::Sphere::hit</text>
</a>
</g>
</g>
<!-- Node1&#45;&gt;Node8 -->
<g id="edge8_Node000001_Node000008" class="edge">
<title>Node1&#45;&gt;Node8</title>
<g id="a_edge8_Node000001_Node000008"><a xlink:title=" ">
<path fill="none" stroke="#63b8ff" d="M378.6,-105.73C358.1,-93.56 327.44,-76.58 299,-65.5 289.6,-61.84 279.26,-58.66 269.38,-56.01"/>
<polygon fill="#63b8ff" stroke="#63b8ff" points="376.89,-108.78 387.26,-110.93 380.49,-102.78 376.89,-108.78"/>
</a>
</g>
</g>
<!-- Node9 -->
<g id="Node000009" class="node">
<title>Node9</title>
<g id="a_Node000009"><a xlink:href="classRayTracer_1_1Lambertian.html#a0a74c9347b24b236af1e44c302ac7c5e" target="_top" xlink:title="Return the probability density of the direction from sample().">
<polygon fill="white" stroke="#666666" points="299,-19 151,-19 151,0 299,0 299,-19"/>
<text text-anchor="middle" x="225" y="-7" font-family="Helvetica,sans-Serif" font-size="10.00">RayTracer::Lambertian::pdf</text>
</a>
</g>
</g>
<!-- Node1&#45;&gt;Node9 -->
<g id="edge9_Node000001_Node000009" class="edge">
<title>Node1&#45;&gt;Node9</title>
<g id="a_edge9_Node000001_Node000009"><a xlink:title=" ">
<path fill="none" stroke="#63b8ff" d="M387.68,-103.03C369.06,-82.21 335.16,-47.82 299,-28.5 291.84,-24.67 283.86,-21.59 275.89,-19.11"/>
<polygon fill="#63b8ff" stroke="#63b8ff" points="385.25,-105.57 394.47,-110.79 390.52,-100.96 385.25,-105.57"/>
</a>
</g>
</g>
<!-- Node2&#45;&gt;Node2 -->
<g id="edge2_Node000002_Node000002" class="edge">
<title>Node2&#45;&gt;Node2</title>
<g id="a_edge2_Node000002_Node000002"><a xlink:title=" ">
<path fill="none" stroke="#63b8ff" d="M254.06,-285.1C250.09,-289.47 240.4,-292.5 225,-292.5 199.06,-292.5 189.34,-283.91 195.82,-274.78"/>
<polygon fill="#63b8ff" stroke="#63b8ff" points="257.56,-284.82 254.18,-274.78 250.56,-284.73 257.56,-284.82"/>
</a>
</g>
</g>
<!-- Node3 -->
<g id="Node000003" class="node">
<title>Node3</title>
<g id="a_Node000003"><a xlink:href="classRayTracer_1_1Camera.html#a3735fca524537e8a0ce755bb77e9a71f" target="_top" xlink:title="Render the scene into a 2D framebuffer.">
<polygon fill="white" stroke="#666666" points="115,-274.5 0,-274.5 0,-244.5 115,-244.5 115,-274.5"/>
<text text-anchor="start" x="8" y="-262.5" font-family="Helvetica,sans-Serif" font-size="10.00">RayTracer::Camera::</text>
<text text-anchor="middle" x="57.5" y="-251.5" font-family="Helvetica,sans-Serif" font-size="10.00">render</text>
</a>
</g>
</g>
<!-- Node2&#45;&gt;Node3 -->
<g id="edge3_Node000002_Node000003" class="edge">
<title>Node2&#45;&gt;Node3</title>
<g id="a_edge3_Node000002_Node000003"><a xlink:title=" ">
<path fill="none" stroke="#63b8ff" d="M157.03,-259.5C143.08,-259.5 128.52,-259.5 115,-259.5"/>
<polygon fill="#63b8ff" stroke="#63b8ff" points="157.04,-263 167.04,-259.5 157.04,-256 157.04,-263"/>
</a>
</g>
</g>
</g>
</svg>
