<?xml version="1.0" encoding="UTF-8" standalone="no"?>
<!DOCTYPE svg PUBLIC "-//W3C//DTD SVG 1.1//EN"
 "http://www.w3.org/Graphics/SVG/1.1/DTD/svg11.dtd">
<!-- Generated by graphviz version 2.43.0 (0)
 -->
<!-- Title: RayTracer::ILight Pages: 1 -->
<svg width="430pt" height="217pt"
 viewBox="0.00 0.00 429.50 217.00" xmlns="http://www.w3.org/2000/svg" xmlns:xlink="http://www.w3.org/1999/xlink">

<svg id="main" version="1.1" xmlns="http://www.w3.org/2000/svg" xmlns:xlink="http://www.w3.org/1999/xlink" xml:space="preserve" onload="init(evt)">
<style type="text/css"><![CDATA[
.node, .edge {opacity: 0.7;}
.node.selected, .edge.selected {opacity: 1;}
.edge:hover path { stroke: red; }
.edge:hover polygon { stroke: red; fill: red; }
]]></style>
<script type="application/ecmascript" xlink:href="svg.min.js"/>
<svg id="graph" class="graph">
<g id="graph0" class="graph" transform="scale(1 1) rotate(0) translate(4 213)">
<title>RayTracer::ILight</title>
<!-- Node1 -->
<g id="Node000001" class="node">
<title>Node1</title>
<g id="a_Node000001"><a xlink:title=" ">
<polygon fill="#999999" stroke="transparent" points="267,-209 171,-209 171,-145 267,-145 267,-209"/>
<text text-anchor="start" x="178" y="-197" font-family="Helvetica,sans-Serif" font-size="10.00">RayTracer::ILight</text>
<text text-anchor="start" x="217" y="-182" font-family="Helvetica,sans-Serif" font-size="10.00"> </text>
<text text-anchor="start" x="175" y="-167" font-family="Helvetica,sans-Serif" font-size="10.00">+</text>
<text text-anchor="start" x="188" y="-167" font-family="Helvetica,sans-Serif" font-size="10.00">~ILight()</text>
<text text-anchor="start" x="175" y="-152" font-family="Helvetica,sans-Serif" font-size="10.00">+</text>
<text text-anchor="start" x="188" y="-152" font-family="Helvetica,sans-Serif" font-size="10.00">computeLight()</text>
<polygon fill="#666666" stroke="#666666" points="171,-192 171,-192 267,-192 267,-192 171,-192"/>
<polygon fill="#666666" stroke="#666666" points="171,-177 171,-177 267,-177 267,-177 171,-177"/>
<polygon fill="none" stroke="#666666" points="171,-145 171,-209 267,-209 267,-145 171,-145"/>
</a>
</g>
</g>
<!-- Node2 -->
<g id="Node000002" class="node">
<title>Node2</title>
<g id="a_Node000002"><a xlink:href="classRayTracer_1_1AmbientLight.html" target="_top" xlink:title=" ">
<polygon fill="white" stroke="transparent" points="130,-101.5 0,-101.5 0,-7.5 130,-7.5 130,-101.5"/>
<text text-anchor="start" x="5" y="-89.5" font-family="Helvetica,sans-Serif" font-size="10.00">RayTracer::AmbientLight</text>
<text text-anchor="start" x="13" y="-74.5" font-family="Helvetica,sans-Serif" font-size="10.00">&#45;</text>
<text text-anchor="start" x="30" y="-74.5" font-family="Helvetica,sans-Serif" font-size="10.00">_intensity</text>
<text text-anchor="start" x="13" y="-59.5" font-family="Helvetica,sans-Serif" font-size="10.00">&#45;</text>
<text text-anchor="start" x="30" y="-59.5" font-family="Helvetica,sans-Serif" font-size="10.00">_color</text>
<text text-anchor="start" x="10.5" y="-44.5" font-family="Helvetica,sans-Serif" font-size="10.00">+</text>
<text text-anchor="start" x="30" y="-44.5" font-family="Helvetica,sans-Serif" font-size="10.00">AmbientLight()</text>
<text text-anchor="start" x="10.5" y="-29.5" font-family="Helvetica,sans-Serif" font-size="10.00">+</text>
<text text-anchor="start" x="30" y="-29.5" font-family="Helvetica,sans-Serif" font-size="10.00">~AmbientLight()</text>
<text text-anchor="start" x="10.5" y="-14.5" font-family="Helvetica,sans-Serif" font-size="10.00">+</text>
<text text-anchor="start" x="30" y="-14.5" font-family="Helvetica,sans-Serif" font-size="10.00">computeLight()</text>
<polygon fill="#666666" stroke="#666666" points="0,-84.5 0,-84.5 130,-84.5 130,-84.5 0,-84.5"/>
<polygon fill="#666666" stroke="#666666" points="0,-54.5 0,-54.5 28,-54.5 28,-54.5 0,-54.5"/>
<polygon fill="#666666" stroke="#666666" points="28,-54.5 28,-54.5 130,-54.5 130,-54.5 28,-54.5"/>
<polygon fill="none" stroke="#666666" points="0,-7.5 0,-101.5 130,-101.5 130,-7.5 0,-7.5"/>
</a>
</g>
</g>
<!-- Node1&#45;&gt;Node2 -->
<g id="edge1_Node000001_Node000002" class="edge">
<title>Node1&#45;&gt;Node2</title>
<g id="a_edge1_Node000001_Node000002"><a xlink:title=" ">
<path fill="none" stroke="#63b8ff" d="M171.23,-138.62C156.29,-126.93 139.62,-113.88 123.99,-101.66"/>
<polygon fill="none" stroke="#63b8ff" points="169.31,-141.56 179.34,-144.97 173.62,-136.05 169.31,-141.56"/>
</a>
</g>
</g>
<!-- Node3 -->
<g id="Node000003" class="node">
<title>Node3</title>
<g id="a_Node000003"><a xlink:href="classRayTracer_1_1DirectionalLight.html" target="_top" xlink:title="Directional light — no position, only a direction (simulates sunlight).">
<polygon fill="white" stroke="transparent" points="290,-109 148,-109 148,0 290,0 290,-109"/>
<text text-anchor="start" x="153" y="-96.5" font-family="Helvetica,sans-Serif" font-size="10.00">RayTracer::DirectionalLight</text>
<text text-anchor="start" x="161" y="-81.5" font-family="Helvetica,sans-Serif" font-size="10.00">&#45;</text>
<text text-anchor="start" x="178" y="-81.5" font-family="Helvetica,sans-Serif" font-size="10.00">_direction</text>
<text text-anchor="start" x="161" y="-66.5" font-family="Helvetica,sans-Serif" font-size="10.00">&#45;</text>
<text text-anchor="start" x="178" y="-66.5" font-family="Helvetica,sans-Serif" font-size="10.00">_intensity</text>
<text text-anchor="start" x="161" y="-51.5" font-family="Helvetica,sans-Serif" font-size="10.00">&#45;</text>
<text text-anchor="start" x="178" y="-51.5" font-family="Helvetica,sans-Serif" font-size="10.00">_color</text>
<text text-anchor="start" x="158.5" y="-36.5" font-family="Helvetica,sans-Serif" font-size="10.00">+</text>
<text text-anchor="start" x="178" y="-36.5" font-family="Helvetica,sans-Serif" font-size="10.00">DirectionalLight()</text>
<text text-anchor="start" x="158.5" y="-21.5" font-family="Helvetica,sans-Serif" font-size="10.00">+</text>
<text text-anchor="start" x="178" y="-21.5" font-family="Helvetica,sans-Serif" font-size="10.00">~DirectionalLight()</text>
<text text-anchor="start" x="158.5" y="-6.5" font-family="Helvetica,sans-Serif" font-size="10.00">+</text>
<text text-anchor="start" x="178" y="-6.5" font-family="Helvetica,sans-Serif" font-size="10.00">computeLight()</text>
<polygon fill="#666666" stroke="#666666" points="148,-91.5 148,-91.5 290,-91.5 290,-91.5 148,-91.5"/>
<polygon fill="#666666" stroke="#666666" points="148,-46.5 148,-46.5 176,-46.5 176,-46.5 148,-46.5"/>
<polygon fill="#666666" stroke="#666666" points="176,-46.5 176,-46.5 290,-46.5 290,-46.5 176,-46.5"/>
<polygon fill="none" stroke="#666666" points="148,0 148,-109 290,-109 290,0 148,0"/>
</a>
</g>
</g>
<!-- Node1&#45;&gt;Node3 -->
<g id="edge2_Node000001_Node000003" class="edge">
<title>Node1&#45;&gt;Node3</title>
<g id="a_edge2_Node000001_Node000003"><a xlink:title=" ">
<path fill="none" stroke="#63b8ff" d="M219,-134.89C219,-126.67 219,-117.91 219,-109.33"/>
<polygon fill="none" stroke="#63b8ff" points="215.5,-134.97 219,-144.97 222.5,-134.97 215.5,-134.97"/>
</a>
</g>
</g>
<!-- Node4 -->
<g id="Node000004" class="node">
<title>Node4</title>
<g id="a_Node000004"><a xlink:href="classRayTracer_1_1PointLight.html" target="_top" xlink:title="A punctual light source emitting equally in all directions.">
<polygon fill="white" stroke="transparent" points="421.5,-109 308.5,-109 308.5,0 421.5,0 421.5,-109"/>
<text text-anchor="start" x="314" y="-96.5" font-family="Helvetica,sans-Serif" font-size="10.00">RayTracer::PointLight</text>
<text text-anchor="start" x="319.5" y="-81.5" font-family="Helvetica,sans-Serif" font-size="10.00">&#45;</text>
<text text-anchor="start" x="334" y="-81.5" font-family="Helvetica,sans-Serif" font-size="10.00">_position</text>
<text text-anchor="start" x="319.5" y="-66.5" font-family="Helvetica,sans-Serif" font-size="10.00">&#45;</text>
<text text-anchor="start" x="334" y="-66.5" font-family="Helvetica,sans-Serif" font-size="10.00">_intensity</text>
<text text-anchor="start" x="319.5" y="-51.5" font-family="Helvetica,sans-Serif" font-size="10.00">&#45;</text>
<text text-anchor="start" x="334" y="-51.5" font-family="Helvetica,sans-Serif" font-size="10.00">_color</text>
<text text-anchor="start" x="317" y="-36.5" font-family="Helvetica,sans-Serif" font-size="10.00">+</text>
<text text-anchor="start" x="334" y="-36.5" font-family="Helvetica,sans-Serif" font-size="10.00">PointLight()</text>
<text text-anchor="start" x="317" y="-21.5" font-family="Helvetica,sans-Serif" font-size="10.00">+</text>
<text text-anchor="start" x="334" y="-21.5" font-family="Helvetica,sans-Serif" font-size="10.00">~PointLight()</text>
<text text-anchor="start" x="317" y="-6.5" font-family="Helvetica,sans-Serif" font-size="10.00">+</text>
<text text-anchor="start" x="334" y="-6.5" font-family="Helvetica,sans-Serif" font-size="10.00">computeLight()</text>
<polygon fill="#666666" stroke="#666666" points="309,-91.5 309,-91.5 422,-91.5 422,-91.5 309,-91.5"/>
<polygon fill="#666666" stroke="#666666" points="309,-46.5 309,-46.5 332,-46.5 332,-46.5 309,-46.5"/>
<polygon fill="#666666" stroke="#666666" points="332,-46.5 332,-46.5 422,-46.5 422,-46.5 332,-46.5"/>
<polygon fill="none" stroke="#666666" points="308.5,0 308.5,-109 421.5,-109 421.5,0 308.5,0"/>
</a>
</g>
</g>
<!-- Node1&#45;&gt;Node4 -->
<g id="edge3_Node000001_Node000004" class="edge">
<title>Node1&#45;&gt;Node4</title>
<g id="a_edge3_Node000001_Node000004"><a xlink:title=" ">
<path fill="none" stroke="#63b8ff" d="M264.55,-138.41C278.38,-126.99 293.76,-114.3 308.24,-102.35"/>
<polygon fill="none" stroke="#63b8ff" points="262.08,-135.9 256.6,-144.97 266.54,-141.3 262.08,-135.9"/>
</a>
</g>
</g>
</g>
</svg>
</svg>

<style type='text/css'>
<![CDATA[
[data-mouse-over-selected='false'] { opacity: 0.7; }
[data-mouse-over-selected='true']  { opacity: 1.0; }
]]>
</style>
<script type="application/ecmascript"><![CDATA[
document.addEventListener('DOMContentLoaded', (event) => {
  highlightEdges();
  highlightAdjacentNodes();
});
]]></script>
</svg>
