<?xml version="1.0" encoding="UTF-8" standalone="no"?>
<!DOCTYPE svg PUBLIC "-//W3C//DTD SVG 1.1//EN"
 "http://www.w3.org/Graphics/SVG/1.1/DTD/svg11.dtd">
<!-- Generated by graphviz version 2.43.0 (0)
 -->
<!-- Title: RayTracer::APrimitive::APrimitive Pages: 1 -->
<svg width="297pt" height="162pt"
 viewBox="0.00 0.00 297.00 161.50" xmlns="http://www.w3.org/2000/svg" xmlns:xlink="http://www.w3.org/1999/xlink">

<svg id="main" version="1.1" xmlns="http://www.w3.org/2000/svg" xmlns:xlink="http://www.w3.org/1999/xlink" xml:space="preserve" onload="init(evt)">
<style type="text/css"><![CDATA[
.node, .edge {opacity: 0.7;}
.node.selected, .edge.selected {opacity: 1;}
.edge:hover path { stroke: red; }
.edge:hover polygon { stroke: red; fill: red; }
]]></style>
<script type="application/ecmascript" xlink:href="svg.min.js"/>
<svg id="graph" class="graph">
<g id="graph0" class="graph" transform="scale(1 1) rotate(0) translate(4 157.5)">
<title>RayTracer::APrimitive::APrimitive</title>
<!-- Node1 -->
<g id="Node000001" class="node">
<title>Node1</title>
<g id="a_Node000001"><a xlink:title="Constructor.">
<polygon fill="#999999" stroke="#666666" points="289,-94 167,-94 167,-64 289,-64 289,-94"/>
<text text-anchor="start" x="175" y="-82" font-family="Helvetica,sans-Serif" font-size="10.00">RayTracer::APrimitive</text>
<text text-anchor="middle" x="228" y="-71" font-family="Helvetica,sans-Serif" font-size="10.00">::APrimitive</text>
</a>
</g>
</g>
<!-- Node2 -->
<g id="Node000002" class="node">
<title>Node2</title>
<g id="a_Node000002"><a xlink:href="classRayTracer_1_1Cone.html#a0417d15c52ce606783e998a50c918c03" target="_top" xlink:title=" ">
<polygon fill="white" stroke="#666666" points="128.5,-153.5 2.5,-153.5 2.5,-134.5 128.5,-134.5 128.5,-153.5"/>
<text text-anchor="middle" x="65.5" y="-141.5" font-family="Helvetica,sans-Serif" font-size="10.00">RayTracer::Cone::Cone</text>
</a>
</g>
</g>
<!-- Node1&#45;&gt;Node2 -->
<g id="edge1_Node000001_Node000002" class="edge">
<title>Node1&#45;&gt;Node2</title>
<g id="a_edge1_Node000001_Node000002"><a xlink:title=" ">
<path fill="none" stroke="#63b8ff" d="M189.27,-98.81C171.82,-107.52 150.65,-117.45 131,-125 121.95,-128.47 111.99,-131.69 102.66,-134.46"/>
<polygon fill="#63b8ff" stroke="#63b8ff" points="191.2,-101.75 198.54,-94.12 188.04,-95.51 191.2,-101.75"/>
</a>
</g>
</g>
<!-- Node3 -->
<g id="Node000003" class="node">
<title>Node3</title>
<g id="a_Node000003"><a xlink:href="classRayTracer_1_1Cylinder.html#a666e124576398d62aef664b4f20bced3" target="_top" xlink:title=" ">
<polygon fill="white" stroke="#666666" points="121,-116 10,-116 10,-86 121,-86 121,-116"/>
<text text-anchor="start" x="18" y="-104" font-family="Helvetica,sans-Serif" font-size="10.00">RayTracer::Cylinder</text>
<text text-anchor="middle" x="65.5" y="-93" font-family="Helvetica,sans-Serif" font-size="10.00">::Cylinder</text>
</a>
</g>
</g>
<!-- Node1&#45;&gt;Node3 -->
<g id="edge2_Node000001_Node000003" class="edge">
<title>Node1&#45;&gt;Node3</title>
<g id="a_edge2_Node000001_Node000003"><a xlink:title=" ">
<path fill="none" stroke="#63b8ff" d="M156.85,-88.62C144.93,-90.25 132.69,-91.93 121.24,-93.5"/>
<polygon fill="#63b8ff" stroke="#63b8ff" points="157.35,-92.08 166.78,-87.25 156.4,-85.15 157.35,-92.08"/>
</a>
</g>
</g>
<!-- Node4 -->
<g id="Node000004" class="node">
<title>Node4</title>
<g id="a_Node000004"><a xlink:href="classRayTracer_1_1Plane.html#a7a3b16442a1acae3cfd9c1f32c848f1b" target="_top" xlink:title=" ">
<polygon fill="white" stroke="#666666" points="131,-67.5 0,-67.5 0,-48.5 131,-48.5 131,-67.5"/>
<text text-anchor="middle" x="65.5" y="-55.5" font-family="Helvetica,sans-Serif" font-size="10.00">RayTracer::Plane::Plane</text>
</a>
</g>
</g>
<!-- Node1&#45;&gt;Node4 -->
<g id="edge3_Node000001_Node000004" class="edge">
<title>Node1&#45;&gt;Node4</title>
<g id="a_edge3_Node000001_Node000004"><a xlink:title=" ">
<path fill="none" stroke="#63b8ff" d="M156.83,-69.82C148.27,-68.7 139.56,-67.56 131.09,-66.45"/>
<polygon fill="#63b8ff" stroke="#63b8ff" points="156.41,-73.29 166.78,-71.12 157.32,-66.35 156.41,-73.29"/>
</a>
</g>
</g>
<!-- Node5 -->
<g id="Node000005" class="node">
<title>Node5</title>
<g id="a_Node000005"><a xlink:href="classRayTracer_1_1Sphere.html#a650db381c2a60dd2430c563048111e28" target="_top" xlink:title=" ">
<polygon fill="white" stroke="#666666" points="120.5,-30 10.5,-30 10.5,0 120.5,0 120.5,-30"/>
<text text-anchor="start" x="18.5" y="-18" font-family="Helvetica,sans-Serif" font-size="10.00">RayTracer::Sphere::</text>
<text text-anchor="middle" x="65.5" y="-7" font-family="Helvetica,sans-Serif" font-size="10.00">Sphere</text>
</a>
</g>
</g>
<!-- Node1&#45;&gt;Node5 -->
<g id="edge4_Node000001_Node000005" class="edge">
<title>Node1&#45;&gt;Node5</title>
<g id="a_edge4_Node000001_Node000005"><a xlink:title=" ">
<path fill="none" stroke="#63b8ff" d="M180.62,-59.98C164.89,-53.58 147.2,-46.43 131,-40 122.85,-36.77 114.11,-33.34 105.76,-30.1"/>
<polygon fill="#63b8ff" stroke="#63b8ff" points="179.55,-63.33 190.13,-63.86 182.19,-56.84 179.55,-63.33"/>
</a>
</g>
</g>
</g>
</svg>
</svg>

<style type='text/css'>
<![CDATA[
[data-mouse-over-selected='false'] { opacity: 0.7; }
[data-mouse-over-selected='true']  { opacity: 1.0; }
]]>
</style>
<script type="application/ecmascript"><![CDATA[
document.addEventListener('DOMContentLoaded', (event) => {
  highlightEdges();
  highlightAdjacentNodes();
});
]]></script>
</svg>
