<?xml version="1.0" encoding="UTF-8" standalone="no"?>
<!DOCTYPE svg PUBLIC "-//W3C//DTD SVG 1.1//EN"
 "http://www.w3.org/Graphics/SVG/1.1/DTD/svg11.dtd">
<!-- Generated by graphviz version 2.43.0 (0)
 -->
<!-- Title: RayTracer::Plane::hit Pages: 1 -->
<svg width="448pt" height="257pt"
 viewBox="0.00 0.00 448.00 257.00" xmlns="http://www.w3.org/2000/svg" xmlns:xlink="http://www.w3.org/1999/xlink">

<svg id="main" version="1.1" xmlns="http://www.w3.org/2000/svg" xmlns:xlink="http://www.w3.org/1999/xlink" xml:space="preserve" onload="init(evt)">
<style type="text/css"><![CDATA[
.node, .edge {opacity: 0.7;}
.node.selected, .edge.selected {opacity: 1;}
.edge:hover path { stroke: red; }
.edge:hover polygon { stroke: red; fill: red; }
]]></style>
<script type="application/ecmascript" xlink:href="svg.min.js"/>
<svg id="graph" class="graph">
<g id="graph0" class="graph" transform="scale(1 1) rotate(0) translate(4 253)">
<title>RayTracer::Plane::hit</title>
<!-- Node1 -->
<g id="Node000001" class="node">
<title>Node1</title>
<g id="a_Node000001"><a xlink:title="Test ray–plane intersection using the algebraic plane equation.">
<polygon fill="#999999" stroke="#666666" points="116,-141.5 0,-141.5 0,-122.5 116,-122.5 116,-141.5"/>
<text text-anchor="middle" x="58" y="-129.5" font-family="Helvetica,sans-Serif" font-size="10.00">RayTracer::Plane::hit</text>
</a>
</g>
</g>
<!-- Node2 -->
<g id="Node000002" class="node">
<title>Node2</title>
<g id="a_Node000002"><a xlink:href="structGeometry_1_1HitRecord.html#a158d2c230c1851a8f6bc0e79dc4b12b5" target="_top" xlink:title="Constructor.">
<polygon fill="white" stroke="#666666" points="280,-249 161,-249 161,-219 280,-219 280,-249"/>
<text text-anchor="start" x="169" y="-237" font-family="Helvetica,sans-Serif" font-size="10.00">Geometry::HitRecord</text>
<text text-anchor="middle" x="220.5" y="-226" font-family="Helvetica,sans-Serif" font-size="10.00">::HitRecord</text>
</a>
</g>
</g>
<!-- Node1&#45;&gt;Node2 -->
<g id="edge1_Node000001_Node000002" class="edge">
<title>Node1&#45;&gt;Node2</title>
<g id="a_edge1_Node000001_Node000002"><a xlink:title=" ">
<path fill="none" stroke="#63b8ff" d="M68.17,-141.68C83.94,-157.83 117.8,-190.43 152,-210 155.01,-211.72 158.16,-213.35 161.38,-214.89"/>
<polygon fill="#63b8ff" stroke="#63b8ff" points="160.07,-218.13 170.63,-218.98 162.91,-211.73 160.07,-218.13"/>
</a>
</g>
</g>
<!-- Node3 -->
<g id="Node000003" class="node">
<title>Node3</title>
<g id="a_Node000003"><a xlink:href="classGeometry_1_1Ray.html#ab2ee230ea6c5b866a94d7bfd57c98845" target="_top" xlink:title="Compute a point at parameter t along the ray.">
<polygon fill="white" stroke="#666666" points="272.5,-200.5 168.5,-200.5 168.5,-181.5 272.5,-181.5 272.5,-200.5"/>
<text text-anchor="middle" x="220.5" y="-188.5" font-family="Helvetica,sans-Serif" font-size="10.00">Geometry::Ray::at</text>
</a>
</g>
</g>
<!-- Node1&#45;&gt;Node3 -->
<g id="edge2_Node000001_Node000003" class="edge">
<title>Node1&#45;&gt;Node3</title>
<g id="a_edge2_Node000001_Node000003"><a xlink:title=" ">
<path fill="none" stroke="#63b8ff" d="M78.24,-141.53C96.81,-150.48 125.86,-163.82 152,-173 157.64,-174.98 163.62,-176.87 169.59,-178.63"/>
<polygon fill="#63b8ff" stroke="#63b8ff" points="168.99,-182.09 179.57,-181.45 170.9,-175.36 168.99,-182.09"/>
</a>
</g>
</g>
<!-- Node5 -->
<g id="Node000005" class="node">
<title>Node5</title>
<g id="a_Node000005"><a xlink:href="classGeometry_1_1Vector3D.html#affb9009fe58aafa334f1f5f703feceb3" target="_top" xlink:title=" ">
<polygon fill="white" stroke="#666666" points="289,-163.5 152,-163.5 152,-144.5 289,-144.5 289,-163.5"/>
<text text-anchor="middle" x="220.5" y="-151.5" font-family="Helvetica,sans-Serif" font-size="10.00">Geometry::Vector3D::dot</text>
</a>
</g>
</g>
<!-- Node1&#45;&gt;Node5 -->
<g id="edge4_Node000001_Node000005" class="edge">
<title>Node1&#45;&gt;Node5</title>
<g id="a_edge4_Node000001_Node000005"><a xlink:title=" ">
<path fill="none" stroke="#63b8ff" d="M116.04,-139.82C124.39,-140.96 133.11,-142.16 141.8,-143.35"/>
<polygon fill="#63b8ff" stroke="#63b8ff" points="141.56,-146.85 151.94,-144.74 142.51,-139.91 141.56,-146.85"/>
</a>
</g>
</g>
<!-- Node6 -->
<g id="Node000006" class="node">
<title>Node6</title>
<g id="a_Node000006"><a xlink:href="classRayTracer_1_1APrimitive.html#acdc1a350e79537fa0b9c8588a170bdcf" target="_top" xlink:title="Get the material of this primitive.">
<polygon fill="white" stroke="#666666" points="281.5,-126 159.5,-126 159.5,-96 281.5,-96 281.5,-126"/>
<text text-anchor="start" x="167.5" y="-114" font-family="Helvetica,sans-Serif" font-size="10.00">RayTracer::APrimitive</text>
<text text-anchor="middle" x="220.5" y="-103" font-family="Helvetica,sans-Serif" font-size="10.00">::getMaterial</text>
</a>
</g>
</g>
<!-- Node1&#45;&gt;Node6 -->
<g id="edge5_Node000001_Node000006" class="edge">
<title>Node1&#45;&gt;Node6</title>
<g id="a_edge5_Node000001_Node000006"><a xlink:title=" ">
<path fill="none" stroke="#63b8ff" d="M116.04,-124.54C126.8,-123.13 138.17,-121.64 149.28,-120.19"/>
<polygon fill="#63b8ff" stroke="#63b8ff" points="149.92,-123.63 159.39,-118.87 149.02,-116.69 149.92,-123.63"/>
</a>
</g>
</g>
<!-- Node7 -->
<g id="Node000007" class="node">
<title>Node7</title>
<g id="a_Node000007"><a xlink:href="classGeometry_1_1Vector3D.html#aa583eecc673b26ce6058e6dd00238a62" target="_top" xlink:title=" ">
<polygon fill="white" stroke="#666666" points="278,-78 163,-78 163,-48 278,-48 278,-78"/>
<text text-anchor="start" x="171" y="-66" font-family="Helvetica,sans-Serif" font-size="10.00">Geometry::Vector3D</text>
<text text-anchor="middle" x="220.5" y="-55" font-family="Helvetica,sans-Serif" font-size="10.00">::operator*</text>
</a>
</g>
</g>
<!-- Node1&#45;&gt;Node7 -->
<g id="edge6_Node000001_Node000007" class="edge">
<title>Node1&#45;&gt;Node7</title>
<g id="a_edge6_Node000001_Node000007"><a xlink:title=" ">
<path fill="none" stroke="#63b8ff" d="M77.26,-122.43C95.81,-112.88 125.52,-98.07 152,-87 156.36,-85.18 160.91,-83.37 165.51,-81.6"/>
<polygon fill="#63b8ff" stroke="#63b8ff" points="166.8,-84.85 174.94,-78.07 164.35,-78.3 166.8,-84.85"/>
</a>
</g>
</g>
<!-- Node9 -->
<g id="Node000009" class="node">
<title>Node9</title>
<g id="a_Node000009"><a xlink:href="classGeometry_1_1Point3D.html#ae9af5cd5e04e5f0635d250cf80e4e78f" target="_top" xlink:title=" ">
<polygon fill="white" stroke="#666666" points="278,-30 163,-30 163,0 278,0 278,-30"/>
<text text-anchor="start" x="171" y="-18" font-family="Helvetica,sans-Serif" font-size="10.00">Geometry::Point3D::</text>
<text text-anchor="middle" x="220.5" y="-7" font-family="Helvetica,sans-Serif" font-size="10.00">operator&#45;</text>
</a>
</g>
</g>
<!-- Node1&#45;&gt;Node9 -->
<g id="edge8_Node000001_Node000009" class="edge">
<title>Node1&#45;&gt;Node9</title>
<g id="a_edge8_Node000001_Node000009"><a xlink:title=" ">
<path fill="none" stroke="#63b8ff" d="M66.13,-122.44C80.45,-103.87 114.55,-62.66 152,-39 154.6,-37.36 157.32,-35.81 160.13,-34.35"/>
<polygon fill="#63b8ff" stroke="#63b8ff" points="161.75,-37.46 169.29,-30 158.75,-31.13 161.75,-37.46"/>
</a>
</g>
</g>
<!-- Node4 -->
<g id="Node000004" class="node">
<title>Node4</title>
<g id="a_Node000004"><a xlink:href="classGeometry_1_1Point3D.html#a6a08342f9542eb6d6ff7bcf2278a240d" target="_top" xlink:title=" ">
<polygon fill="white" stroke="#666666" points="440,-206 325,-206 325,-176 440,-176 440,-206"/>
<text text-anchor="start" x="333" y="-194" font-family="Helvetica,sans-Serif" font-size="10.00">Geometry::Point3D::</text>
<text text-anchor="middle" x="382.5" y="-183" font-family="Helvetica,sans-Serif" font-size="10.00">Point3D</text>
</a>
</g>
</g>
<!-- Node3&#45;&gt;Node4 -->
<g id="edge3_Node000003_Node000004" class="edge">
<title>Node3&#45;&gt;Node4</title>
<g id="a_edge3_Node000003_Node000004"><a xlink:title=" ">
<path fill="none" stroke="#63b8ff" d="M272.56,-191C285.96,-191 300.6,-191 314.69,-191"/>
<polygon fill="#63b8ff" stroke="#63b8ff" points="314.82,-194.5 324.82,-191 314.82,-187.5 314.82,-194.5"/>
</a>
</g>
</g>
<!-- Node8 -->
<g id="Node000008" class="node">
<title>Node8</title>
<g id="a_Node000008"><a xlink:href="classGeometry_1_1Vector3D.html#ae4c5a52ebf282e334801c8ee28ad8d5d" target="_top" xlink:title=" ">
<polygon fill="white" stroke="#666666" points="440,-54 325,-54 325,-24 440,-24 440,-54"/>
<text text-anchor="start" x="333" y="-42" font-family="Helvetica,sans-Serif" font-size="10.00">Geometry::Vector3D</text>
<text text-anchor="middle" x="382.5" y="-31" font-family="Helvetica,sans-Serif" font-size="10.00">::Vector3D</text>
</a>
</g>
</g>
<!-- Node7&#45;&gt;Node8 -->
<g id="edge7_Node000007_Node000008" class="edge">
<title>Node7&#45;&gt;Node8</title>
<g id="a_edge7_Node000007_Node000008"><a xlink:title=" ">
<path fill="none" stroke="#63b8ff" d="M278.36,-54.47C290.15,-52.7 302.67,-50.82 314.78,-49.01"/>
<polygon fill="#63b8ff" stroke="#63b8ff" points="315.45,-52.45 324.82,-47.5 314.41,-45.52 315.45,-52.45"/>
</a>
</g>
</g>
<!-- Node9&#45;&gt;Node8 -->
<g id="edge9_Node000009_Node000008" class="edge">
<title>Node9&#45;&gt;Node8</title>
<g id="a_edge9_Node000009_Node000008"><a xlink:title=" ">
<path fill="none" stroke="#63b8ff" d="M278.36,-23.53C290.15,-25.3 302.67,-27.18 314.78,-28.99"/>
<polygon fill="#63b8ff" stroke="#63b8ff" points="314.41,-32.48 324.82,-30.5 315.45,-25.55 314.41,-32.48"/>
</a>
</g>
</g>
</g>
</svg>
</svg>

<style type='text/css'>
<![CDATA[
[data-mouse-over-selected='false'] { opacity: 0.7; }
[data-mouse-over-selected='true']  { opacity: 1.0; }
]]>
</style>
<script type="application/ecmascript"><![CDATA[
document.addEventListener('DOMContentLoaded', (event) => {
  highlightEdges();
  highlightAdjacentNodes();
});
]]></script>
</svg>
