<?xml version="1.0" encoding="UTF-8" standalone="no"?>
<!DOCTYPE svg PUBLIC "-//W3C//DTD SVG 1.1//EN"
 "http://www.w3.org/Graphics/SVG/1.1/DTD/svg11.dtd">
<!-- Generated by graphviz version 2.43.0 (0)
 -->
<!-- Title: RayTracer::Phong Pages: 1 -->
<svg width="224pt" height="479pt"
 viewBox="0.00 0.00 224.00 479.00" xmlns="http://www.w3.org/2000/svg" xmlns:xlink="http://www.w3.org/1999/xlink">
<g id="graph0" class="graph" transform="scale(1 1) rotate(0) translate(4 475)">
<title>RayTracer::Phong</title>
<!-- Node1 -->
<g id="Node000001" class="node">
<title>Node1</title>
<g id="a_Node000001"><a xlink:title=" ">
<polygon fill="#999999" stroke="transparent" points="159.5,-124 64.5,-124 64.5,0 159.5,0 159.5,-124"/>
<text text-anchor="start" x="70" y="-112" font-family="Helvetica,sans-Serif" font-size="10.00">RayTracer::Phong</text>
<text text-anchor="start" x="77" y="-97" font-family="Helvetica,sans-Serif" font-size="10.00">&#45;</text>
<text text-anchor="start" x="93" y="-97" font-family="Helvetica,sans-Serif" font-size="10.00">_shininess</text>
<text text-anchor="start" x="74.5" y="-82" font-family="Helvetica,sans-Serif" font-size="10.00">+</text>
<text text-anchor="start" x="93" y="-82" font-family="Helvetica,sans-Serif" font-size="10.00">Phong()</text>
<text text-anchor="start" x="74.5" y="-67" font-family="Helvetica,sans-Serif" font-size="10.00">+</text>
<text text-anchor="start" x="93" y="-67" font-family="Helvetica,sans-Serif" font-size="10.00">~Phong()</text>
<text text-anchor="start" x="74.5" y="-52" font-family="Helvetica,sans-Serif" font-size="10.00">+</text>
<text text-anchor="start" x="93" y="-52" font-family="Helvetica,sans-Serif" font-size="10.00">evaluate()</text>
<text text-anchor="start" x="74.5" y="-37" font-family="Helvetica,sans-Serif" font-size="10.00">+</text>
<text text-anchor="start" x="93" y="-37" font-family="Helvetica,sans-Serif" font-size="10.00">sample()</text>
<text text-anchor="start" x="74.5" y="-22" font-family="Helvetica,sans-Serif" font-size="10.00">+</text>
<text text-anchor="start" x="93" y="-22" font-family="Helvetica,sans-Serif" font-size="10.00">pdf()</text>
<text text-anchor="start" x="74.5" y="-7" font-family="Helvetica,sans-Serif" font-size="10.00">+</text>
<text text-anchor="start" x="93" y="-7" font-family="Helvetica,sans-Serif" font-size="10.00">emission()</text>
<polygon fill="#666666" stroke="#666666" points="65,-107 65,-107 160,-107 160,-107 65,-107"/>
<polygon fill="#666666" stroke="#666666" points="65,-92 65,-92 91,-92 91,-92 65,-92"/>
<polygon fill="#666666" stroke="#666666" points="91,-92 91,-92 160,-92 160,-92 91,-92"/>
<polygon fill="none" stroke="#666666" points="64.5,0 64.5,-124 159.5,-124 159.5,0 64.5,0"/>
</a>
</g>
</g>
<!-- Node2 -->
<g id="Node000002" class="node">
<title>Node2</title>
<g id="a_Node000002"><a xlink:href="classRayTracer_1_1AMaterial.html" target="_top" xlink:title="Abstract base class for all materials. Defines the interface for evaluating the BRDF,...">
<polygon fill="white" stroke="transparent" points="168,-240 56,-240 56,-161 168,-161 168,-240"/>
<text text-anchor="start" x="61" y="-227.5" font-family="Helvetica,sans-Serif" font-size="10.00">RayTracer::AMaterial</text>
<text text-anchor="start" x="110" y="-212.5" font-family="Helvetica,sans-Serif" font-size="10.00"> </text>
<text text-anchor="start" x="66.5" y="-197.5" font-family="Helvetica,sans-Serif" font-size="10.00">+</text>
<text text-anchor="start" x="86" y="-197.5" font-family="Helvetica,sans-Serif" font-size="10.00">AMaterial()</text>
<text text-anchor="start" x="66.5" y="-182.5" font-family="Helvetica,sans-Serif" font-size="10.00">+</text>
<text text-anchor="start" x="86" y="-182.5" font-family="Helvetica,sans-Serif" font-size="10.00">AMaterial()</text>
<text text-anchor="start" x="66.5" y="-167.5" font-family="Helvetica,sans-Serif" font-size="10.00">+</text>
<text text-anchor="start" x="86" y="-167.5" font-family="Helvetica,sans-Serif" font-size="10.00">~AMaterial()</text>
<polygon fill="#666666" stroke="#666666" points="56,-222.5 56,-222.5 168,-222.5 168,-222.5 56,-222.5"/>
<polygon fill="#666666" stroke="#666666" points="56,-207.5 56,-207.5 168,-207.5 168,-207.5 56,-207.5"/>
<polygon fill="none" stroke="#666666" points="56,-161 56,-240 168,-240 168,-161 56,-161"/>
</a>
</g>
</g>
<!-- Node2&#45;&gt;Node1 -->
<g id="edge1_Node000001_Node000002" class="edge">
<title>Node2&#45;&gt;Node1</title>
<g id="a_edge1_Node000001_Node000002"><a xlink:title=" ">
<path fill="none" stroke="#63b8ff" d="M112,-150.54C112,-141.95 112,-132.92 112,-124.05"/>
<polygon fill="none" stroke="#63b8ff" points="108.5,-150.75 112,-160.75 115.5,-150.75 108.5,-150.75"/>
</a>
</g>
</g>
<!-- Node3 -->
<g id="Node000003" class="node">
<title>Node3</title>
<g id="a_Node000003"><a xlink:href="classRayTracer_1_1IMaterial.html" target="_top" xlink:title="Interface for physically&#45;based surface materials.">
<polygon fill="white" stroke="transparent" points="108,-433.5 0,-433.5 0,-324.5 108,-324.5 108,-433.5"/>
<text text-anchor="start" x="5" y="-421" font-family="Helvetica,sans-Serif" font-size="10.00">RayTracer::IMaterial</text>
<text text-anchor="start" x="52" y="-406" font-family="Helvetica,sans-Serif" font-size="10.00"> </text>
<text text-anchor="start" x="10.5" y="-391" font-family="Helvetica,sans-Serif" font-size="10.00">+</text>
<text text-anchor="start" x="30" y="-391" font-family="Helvetica,sans-Serif" font-size="10.00">~IMaterial()</text>
<text text-anchor="start" x="10.5" y="-376" font-family="Helvetica,sans-Serif" font-size="10.00">+</text>
<text text-anchor="start" x="30" y="-376" font-family="Helvetica,sans-Serif" font-size="10.00">evaluate()</text>
<text text-anchor="start" x="10.5" y="-361" font-family="Helvetica,sans-Serif" font-size="10.00">+</text>
<text text-anchor="start" x="30" y="-361" font-family="Helvetica,sans-Serif" font-size="10.00">sample()</text>
<text text-anchor="start" x="10.5" y="-346" font-family="Helvetica,sans-Serif" font-size="10.00">+</text>
<text text-anchor="start" x="30" y="-346" font-family="Helvetica,sans-Serif" font-size="10.00">pdf()</text>
<text text-anchor="start" x="10.5" y="-331" font-family="Helvetica,sans-Serif" font-size="10.00">+</text>
<text text-anchor="start" x="30" y="-331" font-family="Helvetica,sans-Serif" font-size="10.00">emission()</text>
<polygon fill="#666666" stroke="#666666" points="0,-416 0,-416 108,-416 108,-416 0,-416"/>
<polygon fill="#666666" stroke="#666666" points="0,-401 0,-401 108,-401 108,-401 0,-401"/>
<polygon fill="none" stroke="#666666" points="0,-324.5 0,-433.5 108,-433.5 108,-324.5 0,-324.5"/>
</a>
</g>
</g>
<!-- Node3&#45;&gt;Node2 -->
<g id="edge2_Node000002_Node000003" class="edge">
<title>Node3&#45;&gt;Node2</title>
<g id="a_edge2_Node000002_Node000003"><a xlink:title=" ">
<path fill="none" stroke="#63b8ff" d="M74.91,-314.38C83.06,-289.58 92.13,-261.96 99.27,-240.25"/>
<polygon fill="none" stroke="#63b8ff" points="71.51,-313.49 71.72,-324.09 78.16,-315.68 71.51,-313.49"/>
</a>
</g>
</g>
<!-- Node4 -->
<g id="Node000004" class="node">
<title>Node4</title>
<g id="a_Node000004"><a xlink:href="structRayTracer_1_1Color.html" target="_top" xlink:title=" ">
<polygon fill="white" stroke="transparent" points="216,-471 126,-471 126,-287 216,-287 216,-471"/>
<text text-anchor="start" x="131" y="-459" font-family="Helvetica,sans-Serif" font-size="10.00">RayTracer::Color</text>
<text text-anchor="start" x="132.5" y="-444" font-family="Helvetica,sans-Serif" font-size="10.00">+</text>
<text text-anchor="start" x="148" y="-444" font-family="Helvetica,sans-Serif" font-size="10.00">r</text>
<text text-anchor="start" x="132.5" y="-429" font-family="Helvetica,sans-Serif" font-size="10.00">+</text>
<text text-anchor="start" x="148" y="-429" font-family="Helvetica,sans-Serif" font-size="10.00">g</text>
<text text-anchor="start" x="132.5" y="-414" font-family="Helvetica,sans-Serif" font-size="10.00">+</text>
<text text-anchor="start" x="148" y="-414" font-family="Helvetica,sans-Serif" font-size="10.00">b</text>
<text text-anchor="start" x="132.5" y="-399" font-family="Helvetica,sans-Serif" font-size="10.00">+</text>
<text text-anchor="start" x="148" y="-399" font-family="Helvetica,sans-Serif" font-size="10.00">Color()</text>
<text text-anchor="start" x="132.5" y="-384" font-family="Helvetica,sans-Serif" font-size="10.00">+</text>
<text text-anchor="start" x="148" y="-384" font-family="Helvetica,sans-Serif" font-size="10.00">Color()</text>
<text text-anchor="start" x="132.5" y="-369" font-family="Helvetica,sans-Serif" font-size="10.00">+</text>
<text text-anchor="start" x="148" y="-369" font-family="Helvetica,sans-Serif" font-size="10.00">Color()</text>
<text text-anchor="start" x="132.5" y="-354" font-family="Helvetica,sans-Serif" font-size="10.00">+</text>
<text text-anchor="start" x="148" y="-354" font-family="Helvetica,sans-Serif" font-size="10.00">clamp()</text>
<text text-anchor="start" x="132.5" y="-339" font-family="Helvetica,sans-Serif" font-size="10.00">+</text>
<text text-anchor="start" x="148" y="-339" font-family="Helvetica,sans-Serif" font-size="10.00">operator*()</text>
<text text-anchor="start" x="132.5" y="-324" font-family="Helvetica,sans-Serif" font-size="10.00">+</text>
<text text-anchor="start" x="148" y="-324" font-family="Helvetica,sans-Serif" font-size="10.00">operator*()</text>
<text text-anchor="start" x="132.5" y="-309" font-family="Helvetica,sans-Serif" font-size="10.00">+</text>
<text text-anchor="start" x="148" y="-309" font-family="Helvetica,sans-Serif" font-size="10.00">operator+()</text>
<text text-anchor="start" x="132.5" y="-294" font-family="Helvetica,sans-Serif" font-size="10.00">+</text>
<text text-anchor="start" x="148" y="-294" font-family="Helvetica,sans-Serif" font-size="10.00">operator&#45;()</text>
<polygon fill="#666666" stroke="#666666" points="126,-454 126,-454 216,-454 216,-454 126,-454"/>
<polygon fill="#666666" stroke="#666666" points="126,-409 126,-409 146,-409 146,-409 126,-409"/>
<polygon fill="#666666" stroke="#666666" points="146,-409 146,-409 216,-409 216,-409 146,-409"/>
<polygon fill="none" stroke="#666666" points="126,-287 126,-471 216,-471 216,-287 126,-287"/>
</a>
</g>
</g>
<!-- Node4&#45;&gt;Node2 -->
<g id="edge3_Node000002_Node000004" class="edge">
<title>Node4&#45;&gt;Node2</title>
<g id="a_edge3_Node000002_Node000004"><a xlink:title=" ">
<path fill="none" stroke="#63b8ff" d="M140.55,-286.91C136.49,-274.77 132.46,-262.71 128.76,-251.64"/>
<polygon fill="none" stroke="#63b8ff" points="128.69,-251.44 123,-247.02 124.89,-240.06 130.59,-244.48 128.69,-251.44"/>
</a>
</g>
<text text-anchor="middle" x="160" y="-261" font-family="Helvetica,sans-Serif" font-size="10.00" fill="grey"> #_albedo</text>
</g>
</g>
</svg>
