<?xml version="1.0" encoding="UTF-8" standalone="no"?>
<!DOCTYPE svg PUBLIC "-//W3C//DTD SVG 1.1//EN"
 "http://www.w3.org/Graphics/SVG/1.1/DTD/svg11.dtd">
<!-- Generated by graphviz version 2.43.0 (0)
 -->
<!-- Title: RayTracer::Camera::render Pages: 1 -->
<svg width="645pt" height="353pt"
 viewBox="0.00 0.00 645.00 352.54" xmlns="http://www.w3.org/2000/svg" xmlns:xlink="http://www.w3.org/1999/xlink">
<g id="graph0" class="graph" transform="scale(1 1) rotate(0) translate(4 348.54)">
<title>RayTracer::Camera::render</title>
<!-- Node1 -->
<g id="Node000001" class="node">
<title>Node1</title>
<g id="a_Node000001"><a xlink:title="Render a full scene into a 2D framebuffer.">
<polygon fill="#999999" stroke="#666666" points="115,-180 0,-180 0,-150 115,-150 115,-180"/>
<text text-anchor="start" x="8" y="-168" font-family="Helvetica,sans-Serif" font-size="10.00">RayTracer::Camera::</text>
<text text-anchor="middle" x="57.5" y="-157" font-family="Helvetica,sans-Serif" font-size="10.00">render</text>
</a>
</g>
</g>
<!-- Node2 -->
<g id="Node000002" class="node">
<title>Node2</title>
<g id="a_Node000002"><a xlink:href="classRayTracer_1_1Camera.html#a23a720e6aeb1c1a410b3d704cac7ce11" target="_top" xlink:title="Trace a single ray in the scene and compute the resulting color.">
<polygon fill="white" stroke="#666666" points="266,-257 151,-257 151,-227 266,-227 266,-257"/>
<text text-anchor="start" x="159" y="-245" font-family="Helvetica,sans-Serif" font-size="10.00">RayTracer::Camera::</text>
<text text-anchor="middle" x="208.5" y="-234" font-family="Helvetica,sans-Serif" font-size="10.00">castRay</text>
</a>
</g>
</g>
<!-- Node1&#45;&gt;Node2 -->
<g id="edge1_Node000001_Node000002" class="edge">
<title>Node1&#45;&gt;Node2</title>
<g id="a_edge1_Node000001_Node000002"><a xlink:title=" ">
<path fill="none" stroke="#63b8ff" d="M87.58,-180.03C110.89,-192.07 143.79,-209.07 169.23,-222.22"/>
<polygon fill="#63b8ff" stroke="#63b8ff" points="167.75,-225.4 178.24,-226.88 170.96,-219.18 167.75,-225.4"/>
</a>
</g>
</g>
<!-- Node8 -->
<g id="Node000008" class="node">
<title>Node8</title>
<g id="a_Node000008"><a xlink:href="classRayTracer_1_1Camera.html#a4a7f4b6a0e5bf44d17162fb324c289bd" target="_top" xlink:title="Generate a world&#45;space ray from normalized screen coordinates.">
<polygon fill="white" stroke="#666666" points="266,-124 151,-124 151,-94 266,-94 266,-124"/>
<text text-anchor="start" x="159" y="-112" font-family="Helvetica,sans-Serif" font-size="10.00">RayTracer::Camera::</text>
<text text-anchor="middle" x="208.5" y="-101" font-family="Helvetica,sans-Serif" font-size="10.00">generateRay</text>
</a>
</g>
</g>
<!-- Node1&#45;&gt;Node8 -->
<g id="edge8_Node000001_Node000008" class="edge">
<title>Node1&#45;&gt;Node8</title>
<g id="a_edge8_Node000001_Node000008"><a xlink:title=" ">
<path fill="none" stroke="#63b8ff" d="M98.43,-149.99C116.72,-143.12 138.58,-134.9 157.91,-127.64"/>
<polygon fill="#63b8ff" stroke="#63b8ff" points="159.33,-130.84 167.46,-124.05 156.87,-124.29 159.33,-130.84"/>
</a>
</g>
</g>
<!-- Node3 -->
<g id="Node000003" class="node">
<title>Node3</title>
<g id="a_Node000003"><a xlink:href="structRayTracer_1_1Color.html#a01b4a4dad8204eed80f8d38d3d004e4d" target="_top" xlink:title=" ">
<polygon fill="white" stroke="#666666" points="637,-273.5 509,-273.5 509,-254.5 637,-254.5 637,-273.5"/>
<text text-anchor="middle" x="573" y="-261.5" font-family="Helvetica,sans-Serif" font-size="10.00">RayTracer::Color::Color</text>
</a>
</g>
</g>
<!-- Node2&#45;&gt;Node3 -->
<g id="edge2_Node000002_Node000003" class="edge">
<title>Node2&#45;&gt;Node3</title>
<g id="a_edge2_Node000002_Node000003"><a xlink:title=" ">
<path fill="none" stroke="#63b8ff" d="M220.26,-257.11C235.68,-277.31 266.18,-312.16 302,-326 372.89,-353.39 399.95,-346.99 473,-326 504.1,-317.07 534.89,-295.18 553.68,-279.96"/>
<polygon fill="#63b8ff" stroke="#63b8ff" points="555.98,-282.6 561.42,-273.51 551.5,-277.22 555.98,-282.6"/>
</a>
</g>
</g>
<!-- Node4 -->
<g id="Node000004" class="node">
<title>Node4</title>
<g id="a_Node000004"><a xlink:href="structRayTracer_1_1Color.html#ae749f3583bffdf5596744257593d35e6" target="_top" xlink:title=" ">
<polygon fill="white" stroke="#666666" points="453.5,-316.5 321.5,-316.5 321.5,-297.5 453.5,-297.5 453.5,-316.5"/>
<text text-anchor="middle" x="387.5" y="-304.5" font-family="Helvetica,sans-Serif" font-size="10.00">RayTracer::Color::clamp</text>
</a>
</g>
</g>
<!-- Node2&#45;&gt;Node4 -->
<g id="edge3_Node000002_Node000004" class="edge">
<title>Node2&#45;&gt;Node4</title>
<g id="a_edge3_Node000002_Node000004"><a xlink:title=" ">
<path fill="none" stroke="#63b8ff" d="M235.48,-257.03C253.62,-267 278.68,-279.72 302,-288 309.37,-290.62 317.24,-292.96 325.09,-295.02"/>
<polygon fill="#63b8ff" stroke="#63b8ff" points="324.45,-298.47 335,-297.49 326.14,-291.68 324.45,-298.47"/>
</a>
</g>
</g>
<!-- Node5 -->
<g id="Node000005" class="node">
<title>Node5</title>
<g id="a_Node000005"><a xlink:href="classRayTracer_1_1Camera.html#a68fed07788d6155ad2689dcde296dcf8" target="_top" xlink:title="Determine whether a hit point is shadowed by any primitive.">
<polygon fill="white" stroke="#666666" points="445,-279 330,-279 330,-249 445,-249 445,-279"/>
<text text-anchor="start" x="338" y="-267" font-family="Helvetica,sans-Serif" font-size="10.00">RayTracer::Camera::</text>
<text text-anchor="middle" x="387.5" y="-256" font-family="Helvetica,sans-Serif" font-size="10.00">computeShadow</text>
</a>
</g>
</g>
<!-- Node2&#45;&gt;Node5 -->
<g id="edge4_Node000002_Node000005" class="edge">
<title>Node2&#45;&gt;Node5</title>
<g id="a_edge4_Node000002_Node000005"><a xlink:title=" ">
<path fill="none" stroke="#63b8ff" d="M266.48,-249.08C283.46,-251.19 302.22,-253.52 319.76,-255.71"/>
<polygon fill="#63b8ff" stroke="#63b8ff" points="319.58,-259.21 329.93,-256.97 320.44,-252.26 319.58,-259.21"/>
</a>
</g>
</g>
<!-- Node6 -->
<g id="Node000006" class="node">
<title>Node6</title>
<g id="a_Node000006"><a xlink:href="classRayTracer_1_1Scene.html#a3cf955a569ab5c1a9b77203e2f85bf6e" target="_top" xlink:title="Get mutable reference to primitives.">
<polygon fill="white" stroke="#666666" points="473,-230.5 302,-230.5 302,-211.5 473,-211.5 473,-230.5"/>
<text text-anchor="middle" x="387.5" y="-218.5" font-family="Helvetica,sans-Serif" font-size="10.00">RayTracer::Scene::getPrimitives</text>
</a>
</g>
</g>
<!-- Node2&#45;&gt;Node6 -->
<g id="edge5_Node000002_Node000006" class="edge">
<title>Node2&#45;&gt;Node6</title>
<g id="a_edge5_Node000002_Node000006"><a xlink:title=" ">
<path fill="none" stroke="#63b8ff" d="M266.48,-235.24C276.03,-234.11 286.14,-232.91 296.29,-231.7"/>
<polygon fill="#63b8ff" stroke="#63b8ff" points="296.9,-235.15 306.42,-230.5 296.08,-228.2 296.9,-235.15"/>
</a>
</g>
</g>
<!-- Node7 -->
<g id="Node000007" class="node">
<title>Node7</title>
<g id="a_Node000007"><a xlink:href="structRayTracer_1_1Color.html#aefc65f4c5ffc2e9bca0a35e4e55d68b8" target="_top" xlink:title=" ">
<polygon fill="white" stroke="#666666" points="462,-193.5 313,-193.5 313,-174.5 462,-174.5 462,-193.5"/>
<text text-anchor="middle" x="387.5" y="-181.5" font-family="Helvetica,sans-Serif" font-size="10.00">RayTracer::Color::operator*</text>
</a>
</g>
</g>
<!-- Node2&#45;&gt;Node7 -->
<g id="edge6_Node000002_Node000007" class="edge">
<title>Node2&#45;&gt;Node7</title>
<g id="a_edge6_Node000002_Node000007"><a xlink:title=" ">
<path fill="none" stroke="#63b8ff" d="M241.5,-226.85C259.07,-218.95 281.42,-209.59 302,-203 310.03,-200.43 318.59,-198.07 327.07,-195.96"/>
<polygon fill="#63b8ff" stroke="#63b8ff" points="328.04,-199.33 336.95,-193.59 326.41,-192.52 328.04,-199.33"/>
</a>
</g>
</g>
<!-- Node7&#45;&gt;Node3 -->
<g id="edge7_Node000007_Node000003" class="edge">
<title>Node7&#45;&gt;Node3</title>
<g id="a_edge7_Node000007_Node000003"><a xlink:title=" ">
<path fill="none" stroke="#63b8ff" d="M443.41,-193.56C453.43,-196.09 463.67,-199.2 473,-203 501.89,-214.77 531.98,-234.55 551.29,-248.39"/>
<polygon fill="#63b8ff" stroke="#63b8ff" points="549.46,-251.39 559.6,-254.46 553.59,-245.74 549.46,-251.39"/>
</a>
</g>
</g>
<!-- Node9 -->
<g id="Node000009" class="node">
<title>Node9</title>
<g id="a_Node000009"><a xlink:href="classGeometry_1_1Ray.html#a009af874883eaeca399a3c5c144df2fc" target="_top" xlink:title="Constructor.">
<polygon fill="white" stroke="#666666" points="444,-156.5 331,-156.5 331,-137.5 444,-137.5 444,-156.5"/>
<text text-anchor="middle" x="387.5" y="-144.5" font-family="Helvetica,sans-Serif" font-size="10.00">Geometry::Ray::Ray</text>
</a>
</g>
</g>
<!-- Node8&#45;&gt;Node9 -->
<g id="edge9_Node000008_Node000009" class="edge">
<title>Node8&#45;&gt;Node9</title>
<g id="a_edge9_Node000008_Node000009"><a xlink:title=" ">
<path fill="none" stroke="#63b8ff" d="M266.48,-121.23C287.5,-125.74 311.24,-130.84 332.03,-135.31"/>
<polygon fill="#63b8ff" stroke="#63b8ff" points="331.46,-138.76 341.97,-137.44 332.93,-131.92 331.46,-138.76"/>
</a>
</g>
</g>
<!-- Node10 -->
<g id="Node000010" class="node">
<title>Node10</title>
<g id="a_Node000010"><a xlink:href="classGeometry_1_1Vector3D.html#ae4c5a52ebf282e334801c8ee28ad8d5d" target="_top" xlink:title=" ">
<polygon fill="white" stroke="#666666" points="630.5,-126 515.5,-126 515.5,-96 630.5,-96 630.5,-126"/>
<text text-anchor="start" x="523.5" y="-114" font-family="Helvetica,sans-Serif" font-size="10.00">Geometry::Vector3D</text>
<text text-anchor="middle" x="573" y="-103" font-family="Helvetica,sans-Serif" font-size="10.00">::Vector3D</text>
</a>
</g>
</g>
<!-- Node8&#45;&gt;Node10 -->
<g id="edge10_Node000008_Node000010" class="edge">
<title>Node8&#45;&gt;Node10</title>
<g id="a_edge10_Node000008_Node000010"><a xlink:title=" ">
<path fill="none" stroke="#63b8ff" d="M266.14,-109.31C330.82,-109.67 436.54,-110.25 505.19,-110.63"/>
<polygon fill="#63b8ff" stroke="#63b8ff" points="505.44,-114.13 515.46,-110.69 505.48,-107.13 505.44,-114.13"/>
</a>
</g>
</g>
<!-- Node11 -->
<g id="Node000011" class="node">
<title>Node11</title>
<g id="a_Node000011"><a xlink:href="classGeometry_1_1Vector3D.html#a388f7af8bf0095c817e89b5b2518fda7" target="_top" xlink:title=" ">
<polygon fill="white" stroke="#666666" points="445,-81 330,-81 330,-51 445,-51 445,-81"/>
<text text-anchor="start" x="338" y="-69" font-family="Helvetica,sans-Serif" font-size="10.00">Geometry::Vector3D</text>
<text text-anchor="middle" x="387.5" y="-58" font-family="Helvetica,sans-Serif" font-size="10.00">::normalize</text>
</a>
</g>
</g>
<!-- Node8&#45;&gt;Node11 -->
<g id="edge11_Node000008_Node000011" class="edge">
<title>Node8&#45;&gt;Node11</title>
<g id="a_edge11_Node000008_Node000011"><a xlink:title=" ">
<path fill="none" stroke="#63b8ff" d="M266.48,-95.16C283.46,-91.03 302.22,-86.47 319.76,-82.21"/>
<polygon fill="#63b8ff" stroke="#63b8ff" points="321.04,-85.5 329.93,-79.74 319.39,-78.7 321.04,-85.5"/>
</a>
</g>
</g>
<!-- Node13 -->
<g id="Node000013" class="node">
<title>Node13</title>
<g id="a_Node000013"><a xlink:href="classGeometry_1_1Rectangle3D.html#a2b17f489ad6e57c131dc0e1c8ac2f1a0" target="_top" xlink:title="Get a point on the rectangle at normalized coordinates (u, v).">
<polygon fill="white" stroke="#666666" points="454,-32 321,-32 321,-2 454,-2 454,-32"/>
<text text-anchor="start" x="329" y="-20" font-family="Helvetica,sans-Serif" font-size="10.00">Geometry::Rectangle3D</text>
<text text-anchor="middle" x="387.5" y="-9" font-family="Helvetica,sans-Serif" font-size="10.00">::pointAt</text>
</a>
</g>
</g>
<!-- Node8&#45;&gt;Node13 -->
<g id="edge14_Node000008_Node000013" class="edge">
<title>Node8&#45;&gt;Node13</title>
<g id="a_edge14_Node000008_Node000013"><a xlink:title=" ">
<path fill="none" stroke="#63b8ff" d="M226.43,-93.99C244.15,-78.96 273.35,-56.09 302,-42 306.68,-39.7 311.62,-37.56 316.66,-35.59"/>
<polygon fill="#63b8ff" stroke="#63b8ff" points="318.25,-38.74 326.44,-32.01 315.84,-32.16 318.25,-38.74"/>
</a>
</g>
</g>
<!-- Node11&#45;&gt;Node10 -->
<g id="edge12_Node000011_Node000010" class="edge">
<title>Node11&#45;&gt;Node10</title>
<g id="a_edge12_Node000011_Node000010"><a xlink:title=" ">
<path fill="none" stroke="#63b8ff" d="M445.05,-79.87C464.15,-84.55 485.65,-89.82 505.45,-94.68"/>
<polygon fill="#63b8ff" stroke="#63b8ff" points="504.77,-98.12 515.32,-97.1 506.44,-91.32 504.77,-98.12"/>
</a>
</g>
</g>
<!-- Node12 -->
<g id="Node000012" class="node">
<title>Node12</title>
<g id="a_Node000012"><a xlink:href="classGeometry_1_1Vector3D.html#a8966b188a3b6d27793b3896618fea42c" target="_top" xlink:title="Calculate the length (magnitude) of this vector.">
<polygon fill="white" stroke="#666666" points="630.5,-78 515.5,-78 515.5,-48 630.5,-48 630.5,-78"/>
<text text-anchor="start" x="523.5" y="-66" font-family="Helvetica,sans-Serif" font-size="10.00">Geometry::Vector3D</text>
<text text-anchor="middle" x="573" y="-55" font-family="Helvetica,sans-Serif" font-size="10.00">::length</text>
</a>
</g>
</g>
<!-- Node11&#45;&gt;Node12 -->
<g id="edge13_Node000011_Node000012" class="edge">
<title>Node11&#45;&gt;Node12</title>
<g id="a_edge13_Node000011_Node000012"><a xlink:title=" ">
<path fill="none" stroke="#63b8ff" d="M445.05,-65.08C464.06,-64.76 485.45,-64.41 505.18,-64.09"/>
<polygon fill="#63b8ff" stroke="#63b8ff" points="505.38,-67.59 515.32,-63.93 505.26,-60.59 505.38,-67.59"/>
</a>
</g>
</g>
<!-- Node14 -->
<g id="Node000014" class="node">
<title>Node14</title>
<g id="a_Node000014"><a xlink:href="classGeometry_1_1Point3D.html#a6a08342f9542eb6d6ff7bcf2278a240d" target="_top" xlink:title=" ">
<polygon fill="white" stroke="#666666" points="630.5,-30 515.5,-30 515.5,0 630.5,0 630.5,-30"/>
<text text-anchor="start" x="523.5" y="-18" font-family="Helvetica,sans-Serif" font-size="10.00">Geometry::Point3D::</text>
<text text-anchor="middle" x="573" y="-7" font-family="Helvetica,sans-Serif" font-size="10.00">Point3D</text>
</a>
</g>
</g>
<!-- Node13&#45;&gt;Node14 -->
<g id="edge15_Node000013_Node000014" class="edge">
<title>Node13&#45;&gt;Node14</title>
<g id="a_edge15_Node000013_Node000014"><a xlink:title=" ">
<path fill="none" stroke="#63b8ff" d="M454.23,-16.28C470.75,-16.1 488.5,-15.91 505.08,-15.73"/>
<polygon fill="#63b8ff" stroke="#63b8ff" points="505.27,-19.23 515.23,-15.62 505.19,-12.23 505.27,-19.23"/>
</a>
</g>
</g>
</g>
</svg>
