<?xml version="1.0" encoding="UTF-8" standalone="no"?>
<!DOCTYPE svg PUBLIC "-//W3C//DTD SVG 1.1//EN"
 "http://www.w3.org/Graphics/SVG/1.1/DTD/svg11.dtd">
<!-- Generated by graphviz version 2.43.0 (0)
 -->
<!-- Title: Geometry::Vector3D::cross Pages: 1 -->
<svg width="457pt" height="167pt"
 viewBox="0.00 0.00 457.00 166.50" xmlns="http://www.w3.org/2000/svg" xmlns:xlink="http://www.w3.org/1999/xlink">

<svg id="main" version="1.1" xmlns="http://www.w3.org/2000/svg" xmlns:xlink="http://www.w3.org/1999/xlink" xml:space="preserve" onload="init(evt)">
<style type="text/css"><![CDATA[
.node, .edge {opacity: 0.7;}
.node.selected, .edge.selected {opacity: 1;}
.edge:hover path { stroke: red; }
.edge:hover polygon { stroke: red; fill: red; }
]]></style>
<script type="application/ecmascript" xlink:href="svg.min.js"/>
<svg id="graph" class="graph">
<g id="graph0" class="graph" transform="scale(1 1) rotate(0) translate(4 162.5)">
<title>Geometry::Vector3D::cross</title>
<!-- Node1 -->
<g id="Node000001" class="node">
<title>Node1</title>
<g id="a_Node000001"><a xlink:title=" ">
<polygon fill="#999999" stroke="#666666" points="449,-91.5 334,-91.5 334,-61.5 449,-61.5 449,-91.5"/>
<text text-anchor="start" x="342" y="-79.5" font-family="Helvetica,sans-Serif" font-size="10.00">Geometry::Vector3D</text>
<text text-anchor="middle" x="391.5" y="-68.5" font-family="Helvetica,sans-Serif" font-size="10.00">::cross</text>
</a>
</g>
</g>
<!-- Node2 -->
<g id="Node000002" class="node">
<title>Node2</title>
<g id="a_Node000002"><a xlink:href="classRayTracer_1_1Camera.html#aa88a1643d3067605407808bf3a5c14d4" target="_top" xlink:title="Construct a camera renderer.">
<polygon fill="white" stroke="#666666" points="115,-158.5 0,-158.5 0,-128.5 115,-128.5 115,-158.5"/>
<text text-anchor="start" x="8" y="-146.5" font-family="Helvetica,sans-Serif" font-size="10.00">RayTracer::Camera::</text>
<text text-anchor="middle" x="57.5" y="-135.5" font-family="Helvetica,sans-Serif" font-size="10.00">Camera</text>
</a>
</g>
</g>
<!-- Node1&#45;&gt;Node2 -->
<g id="edge1_Node000001_Node000002" class="edge">
<title>Node1&#45;&gt;Node2</title>
<g id="a_edge1_Node000001_Node000002"><a xlink:title=" ">
<path fill="none" stroke="#63b8ff" d="M358.59,-97.11C341.35,-107.17 319.28,-118.41 298,-124.5 237.25,-141.9 164.53,-145.36 115.27,-145.28"/>
<polygon fill="#63b8ff" stroke="#63b8ff" points="360.86,-99.82 367.63,-91.67 357.26,-93.82 360.86,-99.82"/>
</a>
</g>
</g>
<!-- Node3 -->
<g id="Node000003" class="node">
<title>Node3</title>
<g id="a_Node000003"><a xlink:href="classRayTracer_1_1Camera.html#a27ae8f34a8cb15a3ffd5e23498d894cb" target="_top" xlink:title="Rebuild the _screen rectangle from the current _transform and _fov.">
<polygon fill="white" stroke="#666666" points="298,-115.5 151,-115.5 151,-85.5 298,-85.5 298,-115.5"/>
<text text-anchor="start" x="159" y="-103.5" font-family="Helvetica,sans-Serif" font-size="10.00">RayTracer::Camera::</text>
<text text-anchor="middle" x="224.5" y="-92.5" font-family="Helvetica,sans-Serif" font-size="10.00">buildScreenFromTransform</text>
</a>
</g>
</g>
<!-- Node1&#45;&gt;Node3 -->
<g id="edge2_Node000001_Node000003" class="edge">
<title>Node1&#45;&gt;Node3</title>
<g id="a_edge2_Node000001_Node000003"><a xlink:title=" ">
<path fill="none" stroke="#63b8ff" d="M323.61,-86.23C315.22,-87.45 306.6,-88.7 298.12,-89.94"/>
<polygon fill="#63b8ff" stroke="#63b8ff" points="324.32,-89.66 333.72,-84.76 323.32,-82.74 324.32,-89.66"/>
</a>
</g>
</g>
<!-- Node5 -->
<g id="Node000005" class="node">
<title>Node5</title>
<g id="a_Node000005"><a xlink:href="classRayTracer_1_1Lambertian.html#a9cf81ac3f6c0b5cc08c14d5f30e77838" target="_top" xlink:title="Return the deterministic bounce direction for this material.">
<polygon fill="white" stroke="#666666" points="287.5,-67.5 161.5,-67.5 161.5,-37.5 287.5,-37.5 287.5,-67.5"/>
<text text-anchor="start" x="169.5" y="-55.5" font-family="Helvetica,sans-Serif" font-size="10.00">RayTracer::Lambertian</text>
<text text-anchor="middle" x="224.5" y="-44.5" font-family="Helvetica,sans-Serif" font-size="10.00">::sample</text>
</a>
</g>
</g>
<!-- Node1&#45;&gt;Node5 -->
<g id="edge5_Node000001_Node000005" class="edge">
<title>Node1&#45;&gt;Node5</title>
<g id="a_edge5_Node000001_Node000005"><a xlink:title=" ">
<path fill="none" stroke="#63b8ff" d="M323.48,-66.75C311.67,-65.03 299.42,-63.25 287.75,-61.55"/>
<polygon fill="#63b8ff" stroke="#63b8ff" points="323.32,-70.26 333.72,-68.24 324.32,-63.34 323.32,-70.26"/>
</a>
</g>
</g>
<!-- Node6 -->
<g id="Node000006" class="node">
<title>Node6</title>
<g id="a_Node000006"><a xlink:href="classRayTracer_1_1Phong.html#a2fe3eab64f5b9ab9ab73976f0c8b80fd" target="_top" xlink:title="Return the deterministic bounce direction for this material.">
<polygon fill="white" stroke="#666666" points="296,-19 153,-19 153,0 296,0 296,-19"/>
<text text-anchor="middle" x="224.5" y="-7" font-family="Helvetica,sans-Serif" font-size="10.00">RayTracer::Phong::sample</text>
</a>
</g>
</g>
<!-- Node1&#45;&gt;Node6 -->
<g id="edge6_Node000001_Node000006" class="edge">
<title>Node1&#45;&gt;Node6</title>
<g id="a_edge6_Node000001_Node000006"><a xlink:title=" ">
<path fill="none" stroke="#63b8ff" d="M356.26,-56.41C339.18,-46.99 317.94,-36.18 298,-28.5 288.65,-24.9 278.37,-21.75 268.55,-19.1"/>
<polygon fill="#63b8ff" stroke="#63b8ff" points="354.86,-59.64 365.3,-61.47 358.28,-53.53 354.86,-59.64"/>
</a>
</g>
</g>
<!-- Node3&#45;&gt;Node2 -->
<g id="edge3_Node000003_Node000002" class="edge">
<title>Node3&#45;&gt;Node2</title>
<g id="a_edge3_Node000003_Node000002"><a xlink:title=" ">
<path fill="none" stroke="#63b8ff" d="M156.01,-118.09C142.41,-121.63 128.24,-125.32 115.06,-128.76"/>
<polygon fill="#63b8ff" stroke="#63b8ff" points="157,-121.45 165.79,-115.54 155.23,-114.67 157,-121.45"/>
</a>
</g>
</g>
<!-- Node4 -->
<g id="Node000004" class="node">
<title>Node4</title>
<g id="a_Node000004"><a xlink:href="classRayTracer_1_1Camera.html#adebcfa0c259280f3d4bcf037fa2192b8" target="_top" xlink:title="Construct a camera from a 4x4 affine transform matrix.">
<polygon fill="white" stroke="#666666" points="115,-110.5 0,-110.5 0,-80.5 115,-80.5 115,-110.5"/>
<text text-anchor="start" x="8" y="-98.5" font-family="Helvetica,sans-Serif" font-size="10.00">RayTracer::Camera::</text>
<text text-anchor="middle" x="57.5" y="-87.5" font-family="Helvetica,sans-Serif" font-size="10.00">Camera</text>
</a>
</g>
</g>
<!-- Node3&#45;&gt;Node4 -->
<g id="edge4_Node000003_Node000004" class="edge">
<title>Node3&#45;&gt;Node4</title>
<g id="a_edge4_Node000003_Node000004"><a xlink:title=" ">
<path fill="none" stroke="#63b8ff" d="M140.55,-97.99C131.94,-97.73 123.33,-97.46 115.1,-97.22"/>
<polygon fill="#63b8ff" stroke="#63b8ff" points="140.55,-101.49 150.65,-98.29 140.76,-94.49 140.55,-101.49"/>
</a>
</g>
</g>
</g>
</svg>
</svg>

<style type='text/css'>
<![CDATA[
[data-mouse-over-selected='false'] { opacity: 0.7; }
[data-mouse-over-selected='true']  { opacity: 1.0; }
]]>
</style>
<script type="application/ecmascript"><![CDATA[
document.addEventListener('DOMContentLoaded', (event) => {
  highlightEdges();
  highlightAdjacentNodes();
});
]]></script>
</svg>
