<?xml version="1.0" encoding="UTF-8" standalone="no"?>
<!DOCTYPE svg PUBLIC "-//W3C//DTD SVG 1.1//EN"
 "http://www.w3.org/Graphics/SVG/1.1/DTD/svg11.dtd">
<!-- Generated by graphviz version 2.43.0 (0)
 -->
<!-- Title: Geometry::Point3D::Point3D Pages: 1 -->
<svg width="627pt" height="523pt"
 viewBox="0.00 0.00 627.00 522.50" xmlns="http://www.w3.org/2000/svg" xmlns:xlink="http://www.w3.org/1999/xlink">
<g id="graph0" class="graph" transform="scale(1 1) rotate(0) translate(4 518.5)">
<title>Geometry::Point3D::Point3D</title>
<!-- Node1 -->
<g id="Node000001" class="node">
<title>Node1</title>
<g id="a_Node000001"><a xlink:title=" ">
<polygon fill="#999999" stroke="#666666" points="619,-250 504,-250 504,-220 619,-220 619,-250"/>
<text text-anchor="start" x="512" y="-238" font-family="Helvetica,sans-Serif" font-size="10.00">Geometry::Point3D::</text>
<text text-anchor="middle" x="561.5" y="-227" font-family="Helvetica,sans-Serif" font-size="10.00">Point3D</text>
</a>
</g>
</g>
<!-- Node2 -->
<g id="Node000002" class="node">
<title>Node2</title>
<g id="a_Node000002"><a xlink:href="classGeometry_1_1Ray.html#ab2ee230ea6c5b866a94d7bfd57c98845" target="_top" xlink:title="Compute a point at parameter t along the ray.">
<polygon fill="white" stroke="#666666" points="444.5,-479.5 340.5,-479.5 340.5,-460.5 444.5,-460.5 444.5,-479.5"/>
<text text-anchor="middle" x="392.5" y="-467.5" font-family="Helvetica,sans-Serif" font-size="10.00">Geometry::Ray::at</text>
</a>
</g>
</g>
<!-- Node1&#45;&gt;Node2 -->
<g id="edge1_Node000001_Node000002" class="edge">
<title>Node1&#45;&gt;Node2</title>
<g id="a_edge1_Node000001_Node000002"><a xlink:title=" ">
<path fill="none" stroke="#63b8ff" d="M557,-260.4C549.39,-305.72 526.98,-400.52 468,-451 461.31,-456.73 453.11,-460.77 444.64,-463.6"/>
<polygon fill="#63b8ff" stroke="#63b8ff" points="560.5,-260.67 558.6,-250.25 553.59,-259.58 560.5,-260.67"/>
</a>
</g>
</g>
<!-- Node6 -->
<g id="Node000006" class="node">
<title>Node6</title>
<g id="a_Node000006"><a xlink:href="classRayTracer_1_1Camera.html#a27ae8f34a8cb15a3ffd5e23498d894cb" target="_top" xlink:title="Rebuild the _screen rectangle from the current _transform and _fov.">
<polygon fill="white" stroke="#666666" points="466,-250 319,-250 319,-220 466,-220 466,-250"/>
<text text-anchor="start" x="327" y="-238" font-family="Helvetica,sans-Serif" font-size="10.00">RayTracer::Camera::</text>
<text text-anchor="middle" x="392.5" y="-227" font-family="Helvetica,sans-Serif" font-size="10.00">buildScreenFromTransform</text>
</a>
</g>
</g>
<!-- Node1&#45;&gt;Node6 -->
<g id="edge5_Node000001_Node000006" class="edge">
<title>Node1&#45;&gt;Node6</title>
<g id="a_edge5_Node000001_Node000006"><a xlink:title=" ">
<path fill="none" stroke="#63b8ff" d="M493.86,-235C484.79,-235 475.44,-235 466.26,-235"/>
<polygon fill="#63b8ff" stroke="#63b8ff" points="493.96,-238.5 503.96,-235 493.96,-231.5 493.96,-238.5"/>
</a>
</g>
</g>
<!-- Node9 -->
<g id="Node000009" class="node">
<title>Node9</title>
<g id="a_Node000009"><a xlink:href="classRayTracer_1_1DirectionalLight.html#a7170b3c9d9e2c2e697139f0dae68ab5b" target="_top" xlink:title="Compute light contribution, shadow ray cast in opposite direction.">
<polygon fill="white" stroke="#666666" points="466.5,-394 318.5,-394 318.5,-364 466.5,-364 466.5,-394"/>
<text text-anchor="start" x="326.5" y="-382" font-family="Helvetica,sans-Serif" font-size="10.00">RayTracer::DirectionalLight</text>
<text text-anchor="middle" x="392.5" y="-371" font-family="Helvetica,sans-Serif" font-size="10.00">::computeLight</text>
</a>
</g>
</g>
<!-- Node1&#45;&gt;Node9 -->
<g id="edge8_Node000001_Node000009" class="edge">
<title>Node1&#45;&gt;Node9</title>
<g id="a_edge8_Node000001_Node000009"><a xlink:title=" ">
<path fill="none" stroke="#63b8ff" d="M547.84,-259.13C532.44,-286.22 503.99,-329.69 468,-355 463.11,-358.44 457.7,-361.41 452.09,-363.96"/>
<polygon fill="#63b8ff" stroke="#63b8ff" points="550.95,-260.73 552.73,-250.29 544.83,-257.34 550.95,-260.73"/>
</a>
</g>
</g>
<!-- Node10 -->
<g id="Node000010" class="node">
<title>Node10</title>
<g id="a_Node000010"><a xlink:href="classRayTracer_1_1PointLight.html#a4fdb35dd47674e655119b54c30b48b20" target="_top" xlink:title="Compute light contribution.">
<polygon fill="white" stroke="#666666" points="452,-346 333,-346 333,-316 452,-316 452,-346"/>
<text text-anchor="start" x="341" y="-334" font-family="Helvetica,sans-Serif" font-size="10.00">RayTracer::PointLight</text>
<text text-anchor="middle" x="392.5" y="-323" font-family="Helvetica,sans-Serif" font-size="10.00">::computeLight</text>
</a>
</g>
</g>
<!-- Node1&#45;&gt;Node10 -->
<g id="edge9_Node000001_Node000010" class="edge">
<title>Node1&#45;&gt;Node10</title>
<g id="a_edge9_Node000001_Node000010"><a xlink:title=" ">
<path fill="none" stroke="#63b8ff" d="M537.09,-257.01C519.29,-272.75 493.58,-293.47 468,-307 461.75,-310.3 454.97,-313.26 448.13,-315.86"/>
<polygon fill="#63b8ff" stroke="#63b8ff" points="539.59,-259.46 544.68,-250.17 534.91,-254.26 539.59,-259.46"/>
</a>
</g>
</g>
<!-- Node11 -->
<g id="Node000011" class="node">
<title>Node11</title>
<g id="a_Node000011"><a xlink:href="namespaceRaytracer.html#a4804feabf04b641269bc1db2afd57459" target="_top" xlink:title=" ">
<polygon fill="white" stroke="#666666" points="458,-298 327,-298 327,-268 458,-268 458,-298"/>
<text text-anchor="start" x="335" y="-286" font-family="Helvetica,sans-Serif" font-size="10.00">Raytracer::fromNode</text>
<text text-anchor="middle" x="392.5" y="-275" font-family="Helvetica,sans-Serif" font-size="10.00">&lt; Geometry::Point3D &gt;</text>
</a>
</g>
</g>
<!-- Node1&#45;&gt;Node11 -->
<g id="edge10_Node000001_Node000011" class="edge">
<title>Node1&#45;&gt;Node11</title>
<g id="a_edge10_Node000001_Node000011"><a xlink:title=" ">
<path fill="none" stroke="#63b8ff" d="M498.13,-252.93C480.87,-257.89 462.31,-263.22 445.7,-268"/>
<polygon fill="#63b8ff" stroke="#63b8ff" points="499.47,-256.18 508.12,-250.06 497.54,-249.45 499.47,-256.18"/>
</a>
</g>
</g>
<!-- Node12 -->
<g id="Node000012" class="node">
<title>Node12</title>
<g id="a_Node000012"><a xlink:href="classRayTracer_1_1Camera.html#a4a7f4b6a0e5bf44d17162fb324c289bd" target="_top" xlink:title="Build a world&#45;space ray from normalized screen coordinates.">
<polygon fill="white" stroke="#666666" points="273.5,-121 158.5,-121 158.5,-91 273.5,-91 273.5,-121"/>
<text text-anchor="start" x="166.5" y="-109" font-family="Helvetica,sans-Serif" font-size="10.00">RayTracer::Camera::</text>
<text text-anchor="middle" x="216" y="-98" font-family="Helvetica,sans-Serif" font-size="10.00">generateRay</text>
</a>
</g>
</g>
<!-- Node1&#45;&gt;Node12 -->
<g id="edge11_Node000001_Node000012" class="edge">
<title>Node1&#45;&gt;Node12</title>
<g id="a_edge11_Node000001_Node000012"><a xlink:title=" ">
<path fill="none" stroke="#63b8ff" d="M548.06,-211.04C533,-184.8 504.98,-143.95 468,-125 407.13,-93.81 326.88,-93.65 273.69,-98.24"/>
<polygon fill="#63b8ff" stroke="#63b8ff" points="545.1,-212.92 553.01,-219.97 551.22,-209.53 545.1,-212.92"/>
</a>
</g>
</g>
<!-- Node14 -->
<g id="Node000014" class="node">
<title>Node14</title>
<g id="a_Node000014"><a xlink:href="CorePlugin_8cpp.html#a0e14e2166e2799c71d21f343a3d543f3" target="_top" xlink:title=" ">
<polygon fill="white" stroke="#666666" points="434,-201.5 351,-201.5 351,-182.5 434,-182.5 434,-201.5"/>
<text text-anchor="middle" x="392.5" y="-189.5" font-family="Helvetica,sans-Serif" font-size="10.00">getInitializers</text>
</a>
</g>
</g>
<!-- Node1&#45;&gt;Node14 -->
<g id="edge13_Node000001_Node000014" class="edge">
<title>Node1&#45;&gt;Node14</title>
<g id="a_edge13_Node000001_Node000014"><a xlink:title=" ">
<path fill="none" stroke="#63b8ff" d="M493.97,-217.7C485.24,-215.44 476.41,-213.16 468,-211 455.98,-207.91 442.86,-204.55 431.03,-201.54"/>
<polygon fill="#63b8ff" stroke="#63b8ff" points="493.21,-221.12 503.76,-220.24 494.96,-214.34 493.21,-221.12"/>
</a>
</g>
</g>
<!-- Node15 -->
<g id="Node000015" class="node">
<title>Node15</title>
<g id="a_Node000015"><a xlink:href="classGeometry_1_1TransformMatrix.html#a136a1573f63564d63426b89fcafeb21b" target="_top" xlink:title=" ">
<polygon fill="white" stroke="#666666" points="468,-164 317,-164 317,-134 468,-134 468,-164"/>
<text text-anchor="start" x="325" y="-152" font-family="Helvetica,sans-Serif" font-size="10.00">Geometry::TransformMatrix</text>
<text text-anchor="middle" x="392.5" y="-141" font-family="Helvetica,sans-Serif" font-size="10.00">::operator*</text>
</a>
</g>
</g>
<!-- Node1&#45;&gt;Node15 -->
<g id="edge14_Node000001_Node000015" class="edge">
<title>Node1&#45;&gt;Node15</title>
<g id="a_edge14_Node000001_Node000015"><a xlink:title=" ">
<path fill="none" stroke="#63b8ff" d="M532.62,-213.86C514.83,-201.08 490.89,-185.15 468,-174 460.52,-170.35 452.37,-167.03 444.3,-164.07"/>
<polygon fill="#63b8ff" stroke="#63b8ff" points="530.69,-216.78 540.83,-219.84 534.82,-211.12 530.69,-216.78"/>
</a>
</g>
</g>
<!-- Node16 -->
<g id="Node000016" class="node">
<title>Node16</title>
<g id="a_Node000016"><a xlink:href="classGeometry_1_1Point3D.html#a59644f9fa320bfc8f33e3761fd7577b0" target="_top" xlink:title=" ">
<polygon fill="white" stroke="#666666" points="450,-442 335,-442 335,-412 450,-412 450,-442"/>
<text text-anchor="start" x="343" y="-430" font-family="Helvetica,sans-Serif" font-size="10.00">Geometry::Point3D::</text>
<text text-anchor="middle" x="392.5" y="-419" font-family="Helvetica,sans-Serif" font-size="10.00">operator+</text>
</a>
</g>
</g>
<!-- Node1&#45;&gt;Node16 -->
<g id="edge16_Node000001_Node000016" class="edge">
<title>Node1&#45;&gt;Node16</title>
<g id="a_edge16_Node000001_Node000016"><a xlink:title=" ">
<path fill="none" stroke="#63b8ff" d="M553.33,-259.86C541.52,-296.46 514.53,-364.63 468,-403 462.65,-407.41 456.48,-411.01 450.02,-413.96"/>
<polygon fill="#63b8ff" stroke="#63b8ff" points="556.77,-260.6 556.39,-250.01 550.08,-258.52 556.77,-260.6"/>
</a>
</g>
</g>
<!-- Node17 -->
<g id="Node000017" class="node">
<title>Node17</title>
<g id="a_Node000017"><a xlink:href="classGeometry_1_1Point3D.html#a317d081effd79290e9d5e314ee335484" target="_top" xlink:title=" ">
<polygon fill="white" stroke="#666666" points="450,-78 335,-78 335,-48 450,-48 450,-78"/>
<text text-anchor="start" x="343" y="-66" font-family="Helvetica,sans-Serif" font-size="10.00">Geometry::Point3D::</text>
<text text-anchor="middle" x="392.5" y="-55" font-family="Helvetica,sans-Serif" font-size="10.00">operator&#45;</text>
</a>
</g>
</g>
<!-- Node1&#45;&gt;Node17 -->
<g id="edge18_Node000001_Node000017" class="edge">
<title>Node1&#45;&gt;Node17</title>
<g id="a_edge18_Node000001_Node000017"><a xlink:title=" ">
<path fill="none" stroke="#63b8ff" d="M550.42,-210.47C536.33,-178.98 507.91,-124.54 468,-92 461.22,-86.48 453.27,-81.91 445.13,-78.18"/>
<polygon fill="#63b8ff" stroke="#63b8ff" points="547.29,-212.06 554.49,-219.83 553.71,-209.27 547.29,-212.06"/>
</a>
</g>
</g>
<!-- Node18 -->
<g id="Node000018" class="node">
<title>Node18</title>
<g id="a_Node000018"><a xlink:href="classGeometry_1_1Rectangle3D.html#a2b17f489ad6e57c131dc0e1c8ac2f1a0" target="_top" xlink:title="Get a point on the rectangle at normalized coordinates (u, v).">
<polygon fill="white" stroke="#666666" points="459,-30 326,-30 326,0 459,0 459,-30"/>
<text text-anchor="start" x="334" y="-18" font-family="Helvetica,sans-Serif" font-size="10.00">Geometry::Rectangle3D</text>
<text text-anchor="middle" x="392.5" y="-7" font-family="Helvetica,sans-Serif" font-size="10.00">::pointAt</text>
</a>
</g>
</g>
<!-- Node1&#45;&gt;Node18 -->
<g id="edge19_Node000001_Node000018" class="edge">
<title>Node1&#45;&gt;Node18</title>
<g id="a_edge19_Node000001_Node000018"><a xlink:title=" ">
<path fill="none" stroke="#63b8ff" d="M555.44,-209.91C545.79,-168.39 520.79,-85.37 468,-39 464.12,-35.59 459.75,-32.67 455.12,-30.16"/>
<polygon fill="#63b8ff" stroke="#63b8ff" points="552.05,-210.75 557.63,-219.76 558.88,-209.24 552.05,-210.75"/>
</a>
</g>
</g>
<!-- Node3 -->
<g id="Node000003" class="node">
<title>Node3</title>
<g id="a_Node000003"><a xlink:href="classRayTracer_1_1Cylinder.html#ab42450e2290b96bccdf83ba79fa9d8af" target="_top" xlink:title="Test ray–cylinder intersection using the quadratic form of the cylinder equation.">
<polygon fill="white" stroke="#666666" points="281,-437.5 151,-437.5 151,-418.5 281,-418.5 281,-437.5"/>
<text text-anchor="middle" x="216" y="-425.5" font-family="Helvetica,sans-Serif" font-size="10.00">RayTracer::Cylinder::hit</text>
</a>
</g>
</g>
<!-- Node2&#45;&gt;Node3 -->
<g id="edge2_Node000002_Node000003" class="edge">
<title>Node2&#45;&gt;Node3</title>
<g id="a_edge2_Node000002_Node000003"><a xlink:title=" ">
<path fill="none" stroke="#63b8ff" d="M341.88,-458.06C314.91,-451.57 282,-443.65 256.74,-437.57"/>
<polygon fill="#63b8ff" stroke="#63b8ff" points="341.36,-461.53 351.9,-460.47 343,-454.73 341.36,-461.53"/>
</a>
</g>
</g>
<!-- Node4 -->
<g id="Node000004" class="node">
<title>Node4</title>
<g id="a_Node000004"><a xlink:href="classRayTracer_1_1Plane.html#a7b741696eb186f6ec9df62e58e795916" target="_top" xlink:title="Test ray–plane intersection using the algebraic plane equation.">
<polygon fill="white" stroke="#666666" points="274,-514.5 158,-514.5 158,-495.5 274,-495.5 274,-514.5"/>
<text text-anchor="middle" x="216" y="-502.5" font-family="Helvetica,sans-Serif" font-size="10.00">RayTracer::Plane::hit</text>
</a>
</g>
</g>
<!-- Node2&#45;&gt;Node4 -->
<g id="edge3_Node000002_Node000004" class="edge">
<title>Node2&#45;&gt;Node4</title>
<g id="a_edge3_Node000002_Node000004"><a xlink:title=" ">
<path fill="none" stroke="#63b8ff" d="M333.75,-481.58C311.33,-486.08 285.97,-491.17 264.63,-495.45"/>
<polygon fill="#63b8ff" stroke="#63b8ff" points="334.7,-484.96 343.82,-479.56 333.32,-478.1 334.7,-484.96"/>
</a>
</g>
</g>
<!-- Node5 -->
<g id="Node000005" class="node">
<title>Node5</title>
<g id="a_Node000005"><a xlink:href="classRayTracer_1_1Sphere.html#a40d439c5a658465a6eeef01f7679ecc9" target="_top" xlink:title="Test ray intersection with this primitive.">
<polygon fill="white" stroke="#666666" points="277.5,-477.5 154.5,-477.5 154.5,-458.5 277.5,-458.5 277.5,-477.5"/>
<text text-anchor="middle" x="216" y="-465.5" font-family="Helvetica,sans-Serif" font-size="10.00">RayTracer::Sphere::hit</text>
</a>
</g>
</g>
<!-- Node2&#45;&gt;Node5 -->
<g id="edge4_Node000002_Node000005" class="edge">
<title>Node2&#45;&gt;Node5</title>
<g id="a_edge4_Node000002_Node000005"><a xlink:title=" ">
<path fill="none" stroke="#63b8ff" d="M329.75,-469.29C312.8,-469.1 294.46,-468.89 277.58,-468.69"/>
<polygon fill="#63b8ff" stroke="#63b8ff" points="330.05,-472.8 340.09,-469.41 330.13,-465.8 330.05,-472.8"/>
</a>
</g>
</g>
<!-- Node7 -->
<g id="Node000007" class="node">
<title>Node7</title>
<g id="a_Node000007"><a xlink:href="classRayTracer_1_1Camera.html#aa88a1643d3067605407808bf3a5c14d4" target="_top" xlink:title="Construct a camera renderer.">
<polygon fill="white" stroke="#666666" points="273.5,-274 158.5,-274 158.5,-244 273.5,-244 273.5,-274"/>
<text text-anchor="start" x="166.5" y="-262" font-family="Helvetica,sans-Serif" font-size="10.00">RayTracer::Camera::</text>
<text text-anchor="middle" x="216" y="-251" font-family="Helvetica,sans-Serif" font-size="10.00">Camera</text>
</a>
</g>
</g>
<!-- Node6&#45;&gt;Node7 -->
<g id="edge6_Node000006_Node000007" class="edge">
<title>Node6&#45;&gt;Node7</title>
<g id="a_edge6_Node000006_Node000007"><a xlink:title=" ">
<path fill="none" stroke="#63b8ff" d="M308.81,-246.37C296.92,-248.01 284.91,-249.66 273.67,-251.21"/>
<polygon fill="#63b8ff" stroke="#63b8ff" points="309.33,-249.83 318.76,-245 308.38,-242.9 309.33,-249.83"/>
</a>
</g>
</g>
<!-- Node8 -->
<g id="Node000008" class="node">
<title>Node8</title>
<g id="a_Node000008"><a xlink:href="classRayTracer_1_1Camera.html#adebcfa0c259280f3d4bcf037fa2192b8" target="_top" xlink:title="Construct a camera from a 4x4 affine transform matrix.">
<polygon fill="white" stroke="#666666" points="273.5,-226 158.5,-226 158.5,-196 273.5,-196 273.5,-226"/>
<text text-anchor="start" x="166.5" y="-214" font-family="Helvetica,sans-Serif" font-size="10.00">RayTracer::Camera::</text>
<text text-anchor="middle" x="216" y="-203" font-family="Helvetica,sans-Serif" font-size="10.00">Camera</text>
</a>
</g>
</g>
<!-- Node6&#45;&gt;Node8 -->
<g id="edge7_Node000006_Node000008" class="edge">
<title>Node6&#45;&gt;Node8</title>
<g id="a_edge7_Node000006_Node000008"><a xlink:title=" ">
<path fill="none" stroke="#63b8ff" d="M308.81,-223.63C296.92,-221.99 284.91,-220.34 273.67,-218.79"/>
<polygon fill="#63b8ff" stroke="#63b8ff" points="308.38,-227.1 318.76,-225 309.33,-220.17 308.38,-227.1"/>
</a>
</g>
</g>
<!-- Node13 -->
<g id="Node000013" class="node">
<title>Node13</title>
<g id="a_Node000013"><a xlink:href="classRayTracer_1_1Camera.html#a3735fca524537e8a0ce755bb77e9a71f" target="_top" xlink:title="Render the scene into a 2D framebuffer.">
<polygon fill="white" stroke="#666666" points="115,-121 0,-121 0,-91 115,-91 115,-121"/>
<text text-anchor="start" x="8" y="-109" font-family="Helvetica,sans-Serif" font-size="10.00">RayTracer::Camera::</text>
<text text-anchor="middle" x="57.5" y="-98" font-family="Helvetica,sans-Serif" font-size="10.00">render</text>
</a>
</g>
</g>
<!-- Node12&#45;&gt;Node13 -->
<g id="edge12_Node000012_Node000013" class="edge">
<title>Node12&#45;&gt;Node13</title>
<g id="a_edge12_Node000012_Node000013"><a xlink:title=" ">
<path fill="none" stroke="#63b8ff" d="M148.45,-106C137.37,-106 125.98,-106 115.18,-106"/>
<polygon fill="#63b8ff" stroke="#63b8ff" points="148.5,-109.5 158.5,-106 148.5,-102.5 148.5,-109.5"/>
</a>
</g>
</g>
<!-- Node15&#45;&gt;Node12 -->
<g id="edge15_Node000015_Node000012" class="edge">
<title>Node15&#45;&gt;Node12</title>
<g id="a_edge15_Node000015_Node000012"><a xlink:title=" ">
<path fill="none" stroke="#63b8ff" d="M320.36,-131.47C304.8,-127.63 288.52,-123.62 273.61,-119.95"/>
<polygon fill="#63b8ff" stroke="#63b8ff" points="319.92,-134.97 330.47,-133.96 321.6,-128.17 319.92,-134.97"/>
</a>
</g>
</g>
<!-- Node16&#45;&gt;Node3 -->
<g id="edge17_Node000016_Node000003" class="edge">
<title>Node16&#45;&gt;Node3</title>
<g id="a_edge17_Node000016_Node000003"><a xlink:title=" ">
<path fill="none" stroke="#63b8ff" d="M324.63,-427.38C310.39,-427.46 295.38,-427.55 281.24,-427.63"/>
<polygon fill="#63b8ff" stroke="#63b8ff" points="324.87,-430.88 334.84,-427.32 324.82,-423.88 324.87,-430.88"/>
</a>
</g>
</g>
<!-- Node18&#45;&gt;Node12 -->
<g id="edge20_Node000018_Node000012" class="edge">
<title>Node18&#45;&gt;Node12</title>
<g id="a_edge20_Node000018_Node000012"><a xlink:title=" ">
<path fill="none" stroke="#63b8ff" d="M328.77,-33.78C324.74,-35.43 320.78,-37.17 317,-39 286.91,-53.57 255.37,-76.1 235.95,-90.95"/>
<polygon fill="#63b8ff" stroke="#63b8ff" points="330.2,-36.99 338.28,-30.13 327.69,-30.45 330.2,-36.99"/>
</a>
</g>
</g>
</g>
</svg>
