<?xml version="1.0" encoding="UTF-8" standalone="no"?>
<!DOCTYPE svg PUBLIC "-//W3C//DTD SVG 1.1//EN"
 "http://www.w3.org/Graphics/SVG/1.1/DTD/svg11.dtd">
<!-- Generated by graphviz version 2.43.0 (0)
 -->
<!-- Title: RayTracer::Camera Pages: 1 -->
<svg width="124pt" height="352pt"
 viewBox="0.00 0.00 124.00 352.00" xmlns="http://www.w3.org/2000/svg" xmlns:xlink="http://www.w3.org/1999/xlink">

<svg id="main" version="1.1" xmlns="http://www.w3.org/2000/svg" xmlns:xlink="http://www.w3.org/1999/xlink" xml:space="preserve" onload="init(evt)">
<style type="text/css"><![CDATA[
.node, .edge {opacity: 0.7;}
.node.selected, .edge.selected {opacity: 1;}
.edge:hover path { stroke: red; }
.edge:hover polygon { stroke: red; fill: red; }
]]></style>
<script type="application/ecmascript" xlink:href="svg.min.js"/>
<svg id="graph" class="graph">
<g id="graph0" class="graph" transform="scale(1 1) rotate(0) translate(4 348)">
<title>RayTracer::Camera</title>
<!-- Node1 -->
<g id="Node000001" class="node">
<title>Node1</title>
<g id="a_Node000001"><a xlink:title="Renderer that evaluates the rendering equation deterministically.">
<polygon fill="#999999" stroke="transparent" points="109.5,-184 6.5,-184 6.5,0 109.5,0 109.5,-184"/>
<text text-anchor="start" x="12" y="-172" font-family="Helvetica,sans-Serif" font-size="10.00">RayTracer::Camera</text>
<text text-anchor="start" x="16.5" y="-157" font-family="Helvetica,sans-Serif" font-size="10.00">&#45;</text>
<text text-anchor="start" x="30" y="-157" font-family="Helvetica,sans-Serif" font-size="10.00">_position</text>
<text text-anchor="start" x="16.5" y="-142" font-family="Helvetica,sans-Serif" font-size="10.00">&#45;</text>
<text text-anchor="start" x="30" y="-142" font-family="Helvetica,sans-Serif" font-size="10.00">_direction</text>
<text text-anchor="start" x="16.5" y="-127" font-family="Helvetica,sans-Serif" font-size="10.00">&#45;</text>
<text text-anchor="start" x="30" y="-127" font-family="Helvetica,sans-Serif" font-size="10.00">_screen</text>
<text text-anchor="start" x="16.5" y="-112" font-family="Helvetica,sans-Serif" font-size="10.00">&#45;</text>
<text text-anchor="start" x="30" y="-112" font-family="Helvetica,sans-Serif" font-size="10.00">_fov</text>
<text text-anchor="start" x="16.5" y="-97" font-family="Helvetica,sans-Serif" font-size="10.00">&#45;</text>
<text text-anchor="start" x="30" y="-97" font-family="Helvetica,sans-Serif" font-size="10.00">_maxDepth</text>
<text text-anchor="start" x="16.5" y="-82" font-family="Helvetica,sans-Serif" font-size="10.00">&#45;</text>
<text text-anchor="start" x="30" y="-82" font-family="Helvetica,sans-Serif" font-size="10.00">_sqrtSamples</text>
<text text-anchor="start" x="14" y="-67" font-family="Helvetica,sans-Serif" font-size="10.00">+</text>
<text text-anchor="start" x="30" y="-67" font-family="Helvetica,sans-Serif" font-size="10.00">Camera()</text>
<text text-anchor="start" x="14" y="-52" font-family="Helvetica,sans-Serif" font-size="10.00">+</text>
<text text-anchor="start" x="30" y="-52" font-family="Helvetica,sans-Serif" font-size="10.00">~Camera()</text>
<text text-anchor="start" x="14" y="-37" font-family="Helvetica,sans-Serif" font-size="10.00">+</text>
<text text-anchor="start" x="30" y="-37" font-family="Helvetica,sans-Serif" font-size="10.00">generateRay()</text>
<text text-anchor="start" x="14" y="-22" font-family="Helvetica,sans-Serif" font-size="10.00">+</text>
<text text-anchor="start" x="30" y="-22" font-family="Helvetica,sans-Serif" font-size="10.00">render()</text>
<text text-anchor="start" x="16.5" y="-7" font-family="Helvetica,sans-Serif" font-size="10.00">&#45;</text>
<text text-anchor="start" x="30" y="-7" font-family="Helvetica,sans-Serif" font-size="10.00">castRay()</text>
<polygon fill="#666666" stroke="#666666" points="7,-167 7,-167 110,-167 110,-167 7,-167"/>
<polygon fill="#666666" stroke="#666666" points="7,-77 7,-77 28,-77 28,-77 7,-77"/>
<polygon fill="#666666" stroke="#666666" points="28,-77 28,-77 110,-77 110,-77 28,-77"/>
<polygon fill="none" stroke="#666666" points="6.5,0 6.5,-184 109.5,-184 109.5,0 6.5,0"/>
</a>
</g>
</g>
<!-- Node2 -->
<g id="Node000002" class="node">
<title>Node2</title>
<g id="a_Node000002"><a xlink:href="classRayTracer_1_1ARenderer.html" target="_top" xlink:title="Abstract base class for all renderers. Defines the interface for rendering a scene and producing a fr...">
<polygon fill="white" stroke="transparent" points="116,-344 0,-344 0,-220 116,-220 116,-344"/>
<text text-anchor="start" x="5" y="-332" font-family="Helvetica,sans-Serif" font-size="10.00">RayTracer::ARenderer</text>
<text text-anchor="start" x="11" y="-317" font-family="Helvetica,sans-Serif" font-size="10.00">#</text>
<text text-anchor="start" x="31" y="-317" font-family="Helvetica,sans-Serif" font-size="10.00">_width</text>
<text text-anchor="start" x="11" y="-302" font-family="Helvetica,sans-Serif" font-size="10.00">#</text>
<text text-anchor="start" x="31" y="-302" font-family="Helvetica,sans-Serif" font-size="10.00">_height</text>
<text text-anchor="start" x="11" y="-287" font-family="Helvetica,sans-Serif" font-size="10.00">+</text>
<text text-anchor="start" x="31" y="-287" font-family="Helvetica,sans-Serif" font-size="10.00">ARenderer()</text>
<text text-anchor="start" x="11" y="-272" font-family="Helvetica,sans-Serif" font-size="10.00">+</text>
<text text-anchor="start" x="31" y="-272" font-family="Helvetica,sans-Serif" font-size="10.00">~ARenderer()</text>
<text text-anchor="start" x="11" y="-257" font-family="Helvetica,sans-Serif" font-size="10.00">+</text>
<text text-anchor="start" x="31" y="-257" font-family="Helvetica,sans-Serif" font-size="10.00">render()</text>
<text text-anchor="start" x="11" y="-242" font-family="Helvetica,sans-Serif" font-size="10.00">+</text>
<text text-anchor="start" x="31" y="-242" font-family="Helvetica,sans-Serif" font-size="10.00">getWidth()</text>
<text text-anchor="start" x="11" y="-227" font-family="Helvetica,sans-Serif" font-size="10.00">+</text>
<text text-anchor="start" x="31" y="-227" font-family="Helvetica,sans-Serif" font-size="10.00">getHeight()</text>
<polygon fill="#666666" stroke="#666666" points="0,-327 0,-327 116,-327 116,-327 0,-327"/>
<polygon fill="#666666" stroke="#666666" points="0,-297 0,-297 29,-297 29,-297 0,-297"/>
<polygon fill="#666666" stroke="#666666" points="29,-297 29,-297 116,-297 116,-297 29,-297"/>
<polygon fill="none" stroke="#666666" points="0,-220 0,-344 116,-344 116,-220 0,-220"/>
</a>
</g>
</g>
<!-- Node2&#45;&gt;Node1 -->
<g id="edge1_Node000001_Node000002" class="edge">
<title>Node2&#45;&gt;Node1</title>
<g id="a_edge1_Node000001_Node000002"><a xlink:title=" ">
<path fill="none" stroke="#63b8ff" d="M58,-209.84C58,-201.43 58,-192.75 58,-184.11"/>
<polygon fill="none" stroke="#63b8ff" points="54.5,-209.96 58,-219.96 61.5,-209.96 54.5,-209.96"/>
</a>
</g>
</g>
</g>
</svg>
</svg>

<style type='text/css'>
<![CDATA[
[data-mouse-over-selected='false'] { opacity: 0.7; }
[data-mouse-over-selected='true']  { opacity: 1.0; }
]]>
</style>
<script type="application/ecmascript"><![CDATA[
document.addEventListener('DOMContentLoaded', (event) => {
  highlightEdges();
  highlightAdjacentNodes();
});
]]></script>
</svg>
