<?xml version="1.0" encoding="UTF-8" standalone="no"?>
<!DOCTYPE svg PUBLIC "-//W3C//DTD SVG 1.1//EN"
 "http://www.w3.org/Graphics/SVG/1.1/DTD/svg11.dtd">
<!-- Generated by graphviz version 2.43.0 (0)
 -->
<!-- Title: Geometry::Point3D::Point3D Pages: 1 -->
<svg width="624pt" height="354pt"
 viewBox="0.00 0.00 624.00 354.00" xmlns="http://www.w3.org/2000/svg" xmlns:xlink="http://www.w3.org/1999/xlink">
<g id="graph0" class="graph" transform="scale(1 1) rotate(0) translate(4 350)">
<title>Geometry::Point3D::Point3D</title>
<!-- Node1 -->
<g id="Node000001" class="node">
<title>Node1</title>
<g id="a_Node000001"><a xlink:title=" ">
<polygon fill="#999999" stroke="#666666" points="616,-190 501,-190 501,-160 616,-160 616,-190"/>
<text text-anchor="start" x="509" y="-178" font-family="Helvetica,sans-Serif" font-size="10.00">Geometry::Point3D::</text>
<text text-anchor="middle" x="558.5" y="-167" font-family="Helvetica,sans-Serif" font-size="10.00">Point3D</text>
</a>
</g>
</g>
<!-- Node2 -->
<g id="Node000002" class="node">
<title>Node2</title>
<g id="a_Node000002"><a xlink:href="classRayTracer_1_1Camera.html#aa88a1643d3067605407808bf3a5c14d4" target="_top" xlink:title="Construct a camera renderer.">
<polygon fill="white" stroke="#666666" points="448.5,-346 333.5,-346 333.5,-316 448.5,-316 448.5,-346"/>
<text text-anchor="start" x="341.5" y="-334" font-family="Helvetica,sans-Serif" font-size="10.00">RayTracer::Camera::</text>
<text text-anchor="middle" x="391" y="-323" font-family="Helvetica,sans-Serif" font-size="10.00">Camera</text>
</a>
</g>
</g>
<!-- Node1&#45;&gt;Node2 -->
<g id="edge1_Node000001_Node000002" class="edge">
<title>Node1&#45;&gt;Node2</title>
<g id="a_edge1_Node000001_Node000002"><a xlink:title=" ">
<path fill="none" stroke="#63b8ff" d="M546.54,-199.25C531.99,-228.82 503.56,-278.38 465,-307 460.07,-310.66 454.56,-313.78 448.83,-316.43"/>
<polygon fill="#63b8ff" stroke="#63b8ff" points="549.78,-200.58 550.94,-190.05 543.47,-197.56 549.78,-200.58"/>
</a>
</g>
</g>
<!-- Node3 -->
<g id="Node000003" class="node">
<title>Node3</title>
<g id="a_Node000003"><a xlink:href="classGeometry_1_1Ray.html#ab2ee230ea6c5b866a94d7bfd57c98845" target="_top" xlink:title="Compute a point at parameter t along the ray.">
<polygon fill="white" stroke="#666666" points="443,-297.5 339,-297.5 339,-278.5 443,-278.5 443,-297.5"/>
<text text-anchor="middle" x="391" y="-285.5" font-family="Helvetica,sans-Serif" font-size="10.00">Geometry::Ray::at</text>
</a>
</g>
</g>
<!-- Node1&#45;&gt;Node3 -->
<g id="edge2_Node000001_Node000003" class="edge">
<title>Node1&#45;&gt;Node3</title>
<g id="a_edge2_Node000001_Node000003"><a xlink:title=" ">
<path fill="none" stroke="#63b8ff" d="M540.71,-198.17C523.91,-219.68 496.15,-251 465,-269 458.31,-272.87 450.83,-275.96 443.27,-278.43"/>
<polygon fill="#63b8ff" stroke="#63b8ff" points="543.52,-200.26 546.8,-190.18 537.95,-196.01 543.52,-200.26"/>
</a>
</g>
</g>
<!-- Node7 -->
<g id="Node000007" class="node">
<title>Node7</title>
<g id="a_Node000007"><a xlink:href="classRayTracer_1_1DirectionalLight.html#a7170b3c9d9e2c2e697139f0dae68ab5b" target="_top" xlink:title="Compute light contribution, shadow ray cast in opposite direction.">
<polygon fill="white" stroke="#666666" points="465,-260 317,-260 317,-230 465,-230 465,-260"/>
<text text-anchor="start" x="325" y="-248" font-family="Helvetica,sans-Serif" font-size="10.00">RayTracer::DirectionalLight</text>
<text text-anchor="middle" x="391" y="-237" font-family="Helvetica,sans-Serif" font-size="10.00">::computeLight</text>
</a>
</g>
</g>
<!-- Node1&#45;&gt;Node7 -->
<g id="edge6_Node000001_Node000007" class="edge">
<title>Node1&#45;&gt;Node7</title>
<g id="a_edge6_Node000001_Node000007"><a xlink:title=" ">
<path fill="none" stroke="#63b8ff" d="M520.74,-194.81C503.99,-203.43 483.76,-213.3 465,-221 457.35,-224.14 449.12,-227.17 441.05,-229.95"/>
<polygon fill="#63b8ff" stroke="#63b8ff" points="522.39,-197.89 529.65,-190.17 519.16,-191.68 522.39,-197.89"/>
</a>
</g>
</g>
<!-- Node8 -->
<g id="Node000008" class="node">
<title>Node8</title>
<g id="a_Node000008"><a xlink:href="classRayTracer_1_1PointLight.html#a4fdb35dd47674e655119b54c30b48b20" target="_top" xlink:title="Compute light contribution.">
<polygon fill="white" stroke="#666666" points="450.5,-212 331.5,-212 331.5,-182 450.5,-182 450.5,-212"/>
<text text-anchor="start" x="339.5" y="-200" font-family="Helvetica,sans-Serif" font-size="10.00">RayTracer::PointLight</text>
<text text-anchor="middle" x="391" y="-189" font-family="Helvetica,sans-Serif" font-size="10.00">::computeLight</text>
</a>
</g>
</g>
<!-- Node1&#45;&gt;Node8 -->
<g id="edge7_Node000001_Node000008" class="edge">
<title>Node1&#45;&gt;Node8</title>
<g id="a_edge7_Node000001_Node000008"><a xlink:title=" ">
<path fill="none" stroke="#63b8ff" d="M490.59,-183.89C477.4,-185.65 463.65,-187.48 450.75,-189.19"/>
<polygon fill="#63b8ff" stroke="#63b8ff" points="491.09,-187.36 500.54,-182.57 490.17,-180.42 491.09,-187.36"/>
</a>
</g>
</g>
<!-- Node9 -->
<g id="Node000009" class="node">
<title>Node9</title>
<g id="a_Node000009"><a xlink:href="CorePlugin_8cpp.html#a0e14e2166e2799c71d21f343a3d543f3" target="_top" xlink:title=" ">
<polygon fill="white" stroke="#666666" points="432.5,-163.5 349.5,-163.5 349.5,-144.5 432.5,-144.5 432.5,-163.5"/>
<text text-anchor="middle" x="391" y="-151.5" font-family="Helvetica,sans-Serif" font-size="10.00">getInitializers</text>
</a>
</g>
</g>
<!-- Node1&#45;&gt;Node9 -->
<g id="edge8_Node000001_Node000009" class="edge">
<title>Node1&#45;&gt;Node9</title>
<g id="a_edge8_Node000001_Node000009"><a xlink:title=" ">
<path fill="none" stroke="#63b8ff" d="M490.43,-166.49C470.84,-164 450.03,-161.36 432.61,-159.15"/>
<polygon fill="#63b8ff" stroke="#63b8ff" points="490.18,-169.99 500.54,-167.77 491.06,-163.04 490.18,-169.99"/>
</a>
</g>
</g>
<!-- Node10 -->
<g id="Node000010" class="node">
<title>Node10</title>
<g id="a_Node000010"><a xlink:href="classGeometry_1_1Point3D.html#a59644f9fa320bfc8f33e3761fd7577b0" target="_top" xlink:title=" ">
<polygon fill="white" stroke="#666666" points="448.5,-126 333.5,-126 333.5,-96 448.5,-96 448.5,-126"/>
<text text-anchor="start" x="341.5" y="-114" font-family="Helvetica,sans-Serif" font-size="10.00">Geometry::Point3D::</text>
<text text-anchor="middle" x="391" y="-103" font-family="Helvetica,sans-Serif" font-size="10.00">operator+</text>
</a>
</g>
</g>
<!-- Node1&#45;&gt;Node10 -->
<g id="edge9_Node000001_Node000010" class="edge">
<title>Node1&#45;&gt;Node10</title>
<g id="a_edge9_Node000001_Node000010"><a xlink:title=" ">
<path fill="none" stroke="#63b8ff" d="M514.17,-156C498.74,-149.43 481.18,-142.17 465,-136 456.24,-132.66 446.81,-129.27 437.74,-126.12"/>
<polygon fill="#63b8ff" stroke="#63b8ff" points="512.89,-159.26 523.46,-159.99 515.65,-152.83 512.89,-159.26"/>
</a>
</g>
</g>
<!-- Node13 -->
<g id="Node000013" class="node">
<title>Node13</title>
<g id="a_Node000013"><a xlink:href="classGeometry_1_1Point3D.html#a317d081effd79290e9d5e314ee335484" target="_top" xlink:title=" ">
<polygon fill="white" stroke="#666666" points="448.5,-78 333.5,-78 333.5,-48 448.5,-48 448.5,-78"/>
<text text-anchor="start" x="341.5" y="-66" font-family="Helvetica,sans-Serif" font-size="10.00">Geometry::Point3D::</text>
<text text-anchor="middle" x="391" y="-55" font-family="Helvetica,sans-Serif" font-size="10.00">operator&#45;</text>
</a>
</g>
</g>
<!-- Node1&#45;&gt;Node13 -->
<g id="edge14_Node000001_Node000013" class="edge">
<title>Node1&#45;&gt;Node13</title>
<g id="a_edge14_Node000001_Node000013"><a xlink:title=" ">
<path fill="none" stroke="#63b8ff" d="M538.74,-152.15C521.43,-132.42 494.09,-104.4 465,-87 459.39,-83.64 453.25,-80.69 447,-78.12"/>
<polygon fill="#63b8ff" stroke="#63b8ff" points="536.13,-154.48 545.3,-159.79 541.44,-149.92 536.13,-154.48"/>
</a>
</g>
</g>
<!-- Node14 -->
<g id="Node000014" class="node">
<title>Node14</title>
<g id="a_Node000014"><a xlink:href="classGeometry_1_1Rectangle3D.html#a2b17f489ad6e57c131dc0e1c8ac2f1a0" target="_top" xlink:title="Get a point on the rectangle at normalized coordinates (u, v).">
<polygon fill="white" stroke="#666666" points="457.5,-30 324.5,-30 324.5,0 457.5,0 457.5,-30"/>
<text text-anchor="start" x="332.5" y="-18" font-family="Helvetica,sans-Serif" font-size="10.00">Geometry::Rectangle3D</text>
<text text-anchor="middle" x="391" y="-7" font-family="Helvetica,sans-Serif" font-size="10.00">::pointAt</text>
</a>
</g>
</g>
<!-- Node1&#45;&gt;Node14 -->
<g id="edge15_Node000001_Node000014" class="edge">
<title>Node1&#45;&gt;Node14</title>
<g id="a_edge15_Node000001_Node000014"><a xlink:title=" ">
<path fill="none" stroke="#63b8ff" d="M546.95,-150.49C532.67,-120.08 504.34,-68.64 465,-39 460.42,-35.55 455.32,-32.58 450,-30.03"/>
<polygon fill="#63b8ff" stroke="#63b8ff" points="543.93,-152.29 551.26,-159.93 550.3,-149.38 543.93,-152.29"/>
</a>
</g>
</g>
<!-- Node4 -->
<g id="Node000004" class="node">
<title>Node4</title>
<g id="a_Node000004"><a xlink:href="classRayTracer_1_1Cylinder.html#ab42450e2290b96bccdf83ba79fa9d8af" target="_top" xlink:title="Test ray–cylinder intersection using the quadratic form of the cylinder equation.">
<polygon fill="white" stroke="#666666" points="281,-208.5 151,-208.5 151,-189.5 281,-189.5 281,-208.5"/>
<text text-anchor="middle" x="216" y="-196.5" font-family="Helvetica,sans-Serif" font-size="10.00">RayTracer::Cylinder::hit</text>
</a>
</g>
</g>
<!-- Node3&#45;&gt;Node4 -->
<g id="edge3_Node000003_Node000004" class="edge">
<title>Node3&#45;&gt;Node4</title>
<g id="a_edge3_Node000003_Node000004"><a xlink:title=" ">
<path fill="none" stroke="#63b8ff" d="M333.57,-275.49C327.87,-273.58 322.26,-271.43 317,-269 281.6,-252.65 245.43,-223.64 227.88,-208.62"/>
<polygon fill="#63b8ff" stroke="#63b8ff" points="332.59,-278.85 343.18,-278.46 334.66,-272.16 332.59,-278.85"/>
</a>
</g>
</g>
<!-- Node5 -->
<g id="Node000005" class="node">
<title>Node5</title>
<g id="a_Node000005"><a xlink:href="classRayTracer_1_1Plane.html#a7b741696eb186f6ec9df62e58e795916" target="_top" xlink:title="Test ray–plane intersection using the algebraic plane equation.">
<polygon fill="white" stroke="#666666" points="274,-315.5 158,-315.5 158,-296.5 274,-296.5 274,-315.5"/>
<text text-anchor="middle" x="216" y="-303.5" font-family="Helvetica,sans-Serif" font-size="10.00">RayTracer::Plane::hit</text>
</a>
</g>
</g>
<!-- Node3&#45;&gt;Node5 -->
<g id="edge4_Node000003_Node000005" class="edge">
<title>Node3&#45;&gt;Node5</title>
<g id="a_edge4_Node000003_Node000005"><a xlink:title=" ">
<path fill="none" stroke="#63b8ff" d="M328.39,-294.41C310.77,-296.24 291.64,-298.23 274.29,-300.04"/>
<polygon fill="#63b8ff" stroke="#63b8ff" points="328.98,-297.87 338.56,-293.35 328.25,-290.91 328.98,-297.87"/>
</a>
</g>
</g>
<!-- Node6 -->
<g id="Node000006" class="node">
<title>Node6</title>
<g id="a_Node000006"><a xlink:href="classRayTracer_1_1Sphere.html#a40d439c5a658465a6eeef01f7679ecc9" target="_top" xlink:title="Test ray intersection with this primitive.">
<polygon fill="white" stroke="#666666" points="277.5,-278.5 154.5,-278.5 154.5,-259.5 277.5,-259.5 277.5,-278.5"/>
<text text-anchor="middle" x="216" y="-266.5" font-family="Helvetica,sans-Serif" font-size="10.00">RayTracer::Sphere::hit</text>
</a>
</g>
</g>
<!-- Node3&#45;&gt;Node6 -->
<g id="edge5_Node000003_Node000006" class="edge">
<title>Node3&#45;&gt;Node6</title>
<g id="a_edge5_Node000003_Node000006"><a xlink:title=" ">
<path fill="none" stroke="#63b8ff" d="M328.48,-281.24C311.98,-279.43 294.15,-277.47 277.69,-275.67"/>
<polygon fill="#63b8ff" stroke="#63b8ff" points="328.24,-284.74 338.56,-282.35 329,-277.78 328.24,-284.74"/>
</a>
</g>
</g>
<!-- Node10&#45;&gt;Node4 -->
<g id="edge13_Node000010_Node000004" class="edge">
<title>Node10&#45;&gt;Node4</title>
<g id="a_edge13_Node000010_Node000004"><a xlink:title=" ">
<path fill="none" stroke="#63b8ff" d="M331.25,-129.77C326.37,-131.73 321.57,-133.82 317,-136 284.05,-151.76 248.57,-176.06 230.02,-189.41"/>
<polygon fill="#63b8ff" stroke="#63b8ff" points="332.61,-133 340.68,-126.14 330.09,-126.46 332.61,-133"/>
</a>
</g>
</g>
<!-- Node11 -->
<g id="Node000011" class="node">
<title>Node11</title>
<g id="a_Node000011"><a xlink:href="classRayTracer_1_1Camera.html#a7cd2251f34b6dda51fe338512e598571" target="_top" xlink:title="Evaluate the rendering equation along a ray, deterministically.">
<polygon fill="white" stroke="#666666" points="273.5,-102 158.5,-102 158.5,-72 273.5,-72 273.5,-102"/>
<text text-anchor="start" x="166.5" y="-90" font-family="Helvetica,sans-Serif" font-size="10.00">RayTracer::Camera::</text>
<text text-anchor="middle" x="216" y="-79" font-family="Helvetica,sans-Serif" font-size="10.00">castRay</text>
</a>
</g>
</g>
<!-- Node10&#45;&gt;Node11 -->
<g id="edge10_Node000010_Node000011" class="edge">
<title>Node10&#45;&gt;Node11</title>
<g id="a_edge10_Node000010_Node000011"><a xlink:title=" ">
<path fill="none" stroke="#63b8ff" d="M323.32,-101.75C306.97,-99.48 289.61,-97.07 273.77,-94.88"/>
<polygon fill="#63b8ff" stroke="#63b8ff" points="322.97,-105.23 333.35,-103.14 323.93,-98.3 322.97,-105.23"/>
</a>
</g>
</g>
<!-- Node11&#45;&gt;Node11 -->
<g id="edge11_Node000011_Node000011" class="edge">
<title>Node11&#45;&gt;Node11</title>
<g id="a_edge11_Node000011_Node000011"><a xlink:title=" ">
<path fill="none" stroke="#63b8ff" d="M243.66,-112.6C239.88,-116.97 230.66,-120 216,-120 191.31,-120 182.05,-111.41 188.23,-102.28"/>
<polygon fill="#63b8ff" stroke="#63b8ff" points="247.16,-112.31 243.77,-102.28 240.16,-112.23 247.16,-112.31"/>
</a>
</g>
</g>
<!-- Node12 -->
<g id="Node000012" class="node">
<title>Node12</title>
<g id="a_Node000012"><a xlink:href="classRayTracer_1_1Camera.html#a3735fca524537e8a0ce755bb77e9a71f" target="_top" xlink:title="Render the scene into a 2D framebuffer.">
<polygon fill="white" stroke="#666666" points="115,-66 0,-66 0,-36 115,-36 115,-66"/>
<text text-anchor="start" x="8" y="-54" font-family="Helvetica,sans-Serif" font-size="10.00">RayTracer::Camera::</text>
<text text-anchor="middle" x="57.5" y="-43" font-family="Helvetica,sans-Serif" font-size="10.00">render</text>
</a>
</g>
</g>
<!-- Node11&#45;&gt;Node12 -->
<g id="edge12_Node000011_Node000012" class="edge">
<title>Node11&#45;&gt;Node12</title>
<g id="a_edge12_Node000011_Node000012"><a xlink:title=" ">
<path fill="none" stroke="#63b8ff" d="M148.45,-71.69C137.37,-69.14 125.98,-66.52 115.18,-64.04"/>
<polygon fill="#63b8ff" stroke="#63b8ff" points="147.97,-75.17 158.5,-74 149.54,-68.35 147.97,-75.17"/>
</a>
</g>
</g>
<!-- Node15 -->
<g id="Node000015" class="node">
<title>Node15</title>
<g id="a_Node000015"><a xlink:href="classRayTracer_1_1Camera.html#a4a7f4b6a0e5bf44d17162fb324c289bd" target="_top" xlink:title="Build a world&#45;space ray from normalized screen coordinates.">
<polygon fill="white" stroke="#666666" points="273.5,-42 158.5,-42 158.5,-12 273.5,-12 273.5,-42"/>
<text text-anchor="start" x="166.5" y="-30" font-family="Helvetica,sans-Serif" font-size="10.00">RayTracer::Camera::</text>
<text text-anchor="middle" x="216" y="-19" font-family="Helvetica,sans-Serif" font-size="10.00">generateRay</text>
</a>
</g>
</g>
<!-- Node14&#45;&gt;Node15 -->
<g id="edge16_Node000014_Node000015" class="edge">
<title>Node14&#45;&gt;Node15</title>
<g id="a_edge16_Node000014_Node000015"><a xlink:title=" ">
<path fill="none" stroke="#63b8ff" d="M313.87,-20.28C300.37,-21.22 286.52,-22.18 273.68,-23.07"/>
<polygon fill="#63b8ff" stroke="#63b8ff" points="314.37,-23.75 324.1,-19.57 313.88,-16.77 314.37,-23.75"/>
</a>
</g>
</g>
<!-- Node15&#45;&gt;Node12 -->
<g id="edge17_Node000015_Node000012" class="edge">
<title>Node15&#45;&gt;Node12</title>
<g id="a_edge17_Node000015_Node000012"><a xlink:title=" ">
<path fill="none" stroke="#63b8ff" d="M148.45,-37.21C137.37,-38.9 125.98,-40.65 115.18,-42.31"/>
<polygon fill="#63b8ff" stroke="#63b8ff" points="149.15,-40.64 158.5,-35.66 148.08,-33.72 149.15,-40.64"/>
</a>
</g>
</g>
</g>
</svg>
