<?xml version="1.0" encoding="UTF-8" standalone="no"?>
<!DOCTYPE svg PUBLIC "-//W3C//DTD SVG 1.1//EN"
 "http://www.w3.org/Graphics/SVG/1.1/DTD/svg11.dtd">
<!-- Generated by graphviz version 2.43.0 (0)
 -->
<!-- Title: RayTracer::Scene::prepareAccelerationStructure Pages: 1 -->
<svg width="307pt" height="86pt"
 viewBox="0.00 0.00 307.00 86.00" xmlns="http://www.w3.org/2000/svg" xmlns:xlink="http://www.w3.org/1999/xlink">
<g id="graph0" class="graph" transform="scale(1 1) rotate(0) translate(4 82)">
<title>RayTracer::Scene::prepareAccelerationStructure</title>
<!-- Node1 -->
<g id="Node000001" class="node">
<title>Node1</title>
<g id="a_Node000001"><a xlink:title="Prepare the scene hit structure for the next render pass.">
<polygon fill="#999999" stroke="#666666" points="299,-54 156,-54 156,-24 299,-24 299,-54"/>
<text text-anchor="start" x="164" y="-42" font-family="Helvetica,sans-Serif" font-size="10.00">RayTracer::Scene::prepare</text>
<text text-anchor="middle" x="227.5" y="-31" font-family="Helvetica,sans-Serif" font-size="10.00">AccelerationStructure</text>
</a>
</g>
</g>
<!-- Node2 -->
<g id="Node000002" class="node">
<title>Node2</title>
<g id="a_Node000002"><a xlink:href="classRayTracer_1_1BVHCam.html#a26338649c825eb2ded1c9e4c9e889452" target="_top" xlink:title="Render the scene into a 2D framebuffer.">
<polygon fill="white" stroke="#666666" points="120,-78 0,-78 0,-48 120,-48 120,-78"/>
<text text-anchor="start" x="8" y="-66" font-family="Helvetica,sans-Serif" font-size="10.00">RayTracer::BVHCam::</text>
<text text-anchor="middle" x="60" y="-55" font-family="Helvetica,sans-Serif" font-size="10.00">render</text>
</a>
</g>
</g>
<!-- Node1&#45;&gt;Node2 -->
<g id="edge1_Node000001_Node000002" class="edge">
<title>Node1&#45;&gt;Node2</title>
<g id="a_edge1_Node000001_Node000002"><a xlink:title=" ">
<path fill="none" stroke="#63b8ff" d="M145.77,-50.71C137.16,-51.96 128.53,-53.21 120.24,-54.41"/>
<polygon fill="#63b8ff" stroke="#63b8ff" points="146.44,-54.15 155.83,-49.25 145.43,-47.22 146.44,-54.15"/>
</a>
</g>
</g>
<!-- Node3 -->
<g id="Node000003" class="node">
<title>Node3</title>
<g id="a_Node000003"><a xlink:href="classRayTracer_1_1Camera.html#a32d328268bd310d35df62adcef914187" target="_top" xlink:title="Render the scene into a 2D framebuffer.">
<polygon fill="white" stroke="#666666" points="117.5,-30 2.5,-30 2.5,0 117.5,0 117.5,-30"/>
<text text-anchor="start" x="10.5" y="-18" font-family="Helvetica,sans-Serif" font-size="10.00">RayTracer::Camera::</text>
<text text-anchor="middle" x="60" y="-7" font-family="Helvetica,sans-Serif" font-size="10.00">render</text>
</a>
</g>
</g>
<!-- Node1&#45;&gt;Node3 -->
<g id="edge2_Node000001_Node000003" class="edge">
<title>Node1&#45;&gt;Node3</title>
<g id="a_edge2_Node000001_Node000003"><a xlink:title=" ">
<path fill="none" stroke="#63b8ff" d="M145.92,-27.32C136.38,-25.93 126.8,-24.54 117.69,-23.22"/>
<polygon fill="#63b8ff" stroke="#63b8ff" points="145.43,-30.78 155.83,-28.75 146.44,-23.85 145.43,-30.78"/>
</a>
</g>
</g>
</g>
</svg>
