<?xml version="1.0" encoding="UTF-8" standalone="no"?>
<!DOCTYPE svg PUBLIC "-//W3C//DTD SVG 1.1//EN"
 "http://www.w3.org/Graphics/SVG/1.1/DTD/svg11.dtd">
<!-- Generated by graphviz version 2.43.0 (0)
 -->
<!-- Title: RayTracer::Camera::render Pages: 1 -->
<!--zoomable 721 -->

<svg id="main" version="1.1" xmlns="http://www.w3.org/2000/svg" xmlns:xlink="http://www.w3.org/1999/xlink" xml:space="preserve" onload="init(evt)">
<style type="text/css"><![CDATA[
.node, .edge {opacity: 0.7;}
.node.selected, .edge.selected {opacity: 1;}
.edge:hover path { stroke: red; }
.edge:hover polygon { stroke: red; fill: red; }
]]></style>

<defs>
  <circle id="rim" cx="0" cy="0" r="7"/>
  <circle id="rim2" cx="0" cy="0" r="3.5"/>
  <g id="zoomPlus">
    <use xlink:href="#rim" fill="#404040"><set attributeName="fill" to="#808080" begin="zoomplus.mouseover" end="zoomplus.mouseout"/></use>
    <path d="M-4,0h8M0,-4v8" fill="none" stroke="white" stroke-width="1.5" pointer-events="none"/>
  </g>
  <g id="zoomMin">
    <use xlink:href="#rim" fill="#404040"><set attributeName="fill" to="#808080" begin="zoomminus.mouseover" end="zoomminus.mouseout"/></use>
    <path d="M-4,0h8" fill="none" stroke="white" stroke-width="1.5" pointer-events="none"/>
  </g>
  <g id="arrowUp" transform="translate(30 24)">
    <use xlink:href="#rim"/>
    <path pointer-events="none" fill="none" stroke="white" stroke-width="1.5" d="M0,-3.0v7 M-2.5,-0.5L0,-3.0L2.5,-0.5"/>
  </g>
  <g id="arrowRight" transform="rotate(90) translate(36 -43)">
    <use xlink:href="#rim"/>
    <path pointer-events="none" fill="none" stroke="white" stroke-width="1.5" d="M0,-3.0v7 M-2.5,-0.5L0,-3.0L2.5,-0.5"/>
  </g>
  <g id="arrowDown" transform="rotate(180) translate(-30 -48)">
    <use xlink:href="#rim"/>
    <path pointer-events="none" fill="none" stroke="white" stroke-width="1.5" d="M0,-3.0v7 M-2.5,-0.5L0,-3.0L2.5,-0.5"/>
  </g>
  <g id="arrowLeft" transform="rotate(270) translate(-36 17)">
    <use xlink:href="#rim"/>
    <path pointer-events="none" fill="none" stroke="white" stroke-width="1.5" d="M0,-3.0v7 M-2.5,-0.5L0,-3.0L2.5,-0.5"/>
  </g>
  <g id="resetDef">
    <use xlink:href="#rim2" fill="#404040"><set attributeName="fill" to="#808080" begin="reset.mouseover" end="reset.mouseout"/></use>
  </g>
</defs>
<script type="application/ecmascript">
var viewWidth = 691;
var viewHeight = 721;
var sectionId = 'dynsection-10';
</script>
<script type="application/ecmascript" xlink:href="svg.min.js"/>
<svg id="graph" class="graph">
<g id="viewport">
<title>RayTracer::Camera::render</title>
<!-- Node1 -->
<g id="Node000001" class="node">
<title>Node1</title>
<g id="a_Node000001"><a xlink:title="Render the scene into a 2D framebuffer.">
<polygon fill="#999999" stroke="#666666" points="115,-578.5 0,-578.5 0,-548.5 115,-548.5 115,-578.5"/>
<text text-anchor="start" x="8" y="-566.5" font-family="Helvetica,sans-Serif" font-size="10.00">RayTracer::Camera::</text>
<text text-anchor="middle" x="57.5" y="-555.5" font-family="Helvetica,sans-Serif" font-size="10.00">render</text>
</a>
</g>
</g>
<!-- Node2 -->
<g id="Node000002" class="node">
<title>Node2</title>
<g id="a_Node000002"><a xlink:href="structRayTracer_1_1Color.html#a01b4a4dad8204eed80f8d38d3d004e4d" target="_top" xlink:title=" ">
<polygon fill="white" stroke="#666666" points="668.5,-657 540.5,-657 540.5,-638 668.5,-638 668.5,-657"/>
<text text-anchor="middle" x="604.5" y="-645" font-family="Helvetica,sans-Serif" font-size="10.00">RayTracer::Color::Color</text>
</a>
</g>
</g>
<!-- Node1&#45;&gt;Node2 -->
<g id="edge1_Node000001_Node000002" class="edge">
<title>Node1&#45;&gt;Node2</title>
<g id="a_edge1_Node000001_Node000002"><a xlink:title=" ">
<path fill="none" stroke="#63b8ff" d="M70.63,-578.83C86.92,-598.41 117.68,-632.08 151,-651.5 218.42,-690.79 241.81,-691.04 319,-702.5 394.18,-713.66 415.93,-719.5 490,-702.5 523.43,-694.83 558.44,-675.96 580.58,-662.46"/>
<polygon fill="#63b8ff" stroke="#63b8ff" points="582.61,-665.32 589.24,-657.05 578.9,-659.38 582.61,-665.32"/>
</a>
</g>
</g>
<!-- Node3 -->
<g id="Node000003" class="node">
<title>Node3</title>
<g id="a_Node000003"><a xlink:href="classRayTracer_1_1Camera.html#a7cd2251f34b6dda51fe338512e598571" target="_top" xlink:title="Evaluate the rendering equation along a ray, deterministically.">
<polygon fill="white" stroke="#666666" points="274.5,-495.5 159.5,-495.5 159.5,-465.5 274.5,-465.5 274.5,-495.5"/>
<text text-anchor="start" x="167.5" y="-483.5" font-family="Helvetica,sans-Serif" font-size="10.00">RayTracer::Camera::</text>
<text text-anchor="middle" x="217" y="-472.5" font-family="Helvetica,sans-Serif" font-size="10.00">castRay</text>
</a>
</g>
</g>
<!-- Node1&#45;&gt;Node3 -->
<g id="edge2_Node000001_Node000003" class="edge">
<title>Node1&#45;&gt;Node3</title>
<g id="a_edge2_Node000001_Node000003"><a xlink:title=" ">
<path fill="none" stroke="#63b8ff" d="M87.02,-548.47C112.59,-535 150.27,-515.14 178.32,-500.36"/>
<polygon fill="#63b8ff" stroke="#63b8ff" points="180.21,-503.32 187.42,-495.56 176.95,-497.12 180.21,-503.32"/>
</a>
</g>
</g>
<!-- Node15 -->
<g id="Node000015" class="node">
<title>Node15</title>
<g id="a_Node000015"><a xlink:href="structRayTracer_1_1Color.html#aefc65f4c5ffc2e9bca0a35e4e55d68b8" target="_top" xlink:title=" ">
<polygon fill="white" stroke="#666666" points="479,-657 330,-657 330,-638 479,-638 479,-657"/>
<text text-anchor="middle" x="404.5" y="-645" font-family="Helvetica,sans-Serif" font-size="10.00">RayTracer::Color::operator*</text>
</a>
</g>
</g>
<!-- Node1&#45;&gt;Node15 -->
<g id="edge32_Node000001_Node000015" class="edge">
<title>Node1&#45;&gt;Node15</title>
<g id="a_edge32_Node000001_Node000015"><a xlink:title=" ">
<path fill="none" stroke="#63b8ff" d="M115.08,-577.28C181.77,-593.51 291.47,-620.22 354.61,-635.6"/>
<polygon fill="#63b8ff" stroke="#63b8ff" points="353.79,-639 364.34,-637.96 355.45,-632.2 353.79,-639"/>
</a>
</g>
</g>
<!-- Node16 -->
<g id="Node000016" class="node">
<title>Node16</title>
<g id="a_Node000016"><a xlink:href="structRayTracer_1_1Color.html#a327b4006c4abe3faf3491929b8ee1a7c" target="_top" xlink:title=" ">
<polygon fill="white" stroke="#666666" points="480.5,-694 328.5,-694 328.5,-675 480.5,-675 480.5,-694"/>
<text text-anchor="middle" x="404.5" y="-682" font-family="Helvetica,sans-Serif" font-size="10.00">RayTracer::Color::operator+</text>
</a>
</g>
</g>
<!-- Node1&#45;&gt;Node16 -->
<g id="edge33_Node000001_Node000016" class="edge">
<title>Node1&#45;&gt;Node16</title>
<g id="a_edge33_Node000001_Node000016"><a xlink:title=" ">
<path fill="none" stroke="#63b8ff" d="M81.28,-578.59C99.54,-590.17 126.13,-605.93 151,-616.5 222.58,-646.94 243.69,-646.07 319,-665.5 328.61,-667.98 338.88,-670.44 348.83,-672.73"/>
<polygon fill="#63b8ff" stroke="#63b8ff" points="348.12,-676.16 358.64,-674.96 349.67,-669.33 348.12,-676.16"/>
</a>
</g>
</g>
<!-- Node17 -->
<g id="Node000017" class="node">
<title>Node17</title>
<g id="a_Node000017"><a xlink:href="structRayTracer_1_1Color.html#a26e65fe782b16c73dd0b01eff463890a" target="_top" xlink:title=" ">
<polygon fill="white" stroke="#666666" points="283,-129 151,-129 151,-110 283,-110 283,-129"/>
<text text-anchor="middle" x="217" y="-117" font-family="Helvetica,sans-Serif" font-size="10.00">RayTracer::Color::clamp</text>
</a>
</g>
</g>
<!-- Node1&#45;&gt;Node17 -->
<g id="edge21_Node000001_Node000017" class="edge">
<title>Node1&#45;&gt;Node17</title>
<g id="a_edge21_Node000001_Node000017"><a xlink:title=" ">
<path fill="none" stroke="#63b8ff" d="M59.77,-548.14C65.76,-479.36 93.33,-200.36 151,-138.5 152.24,-137.17 153.57,-135.93 154.97,-134.78"/>
<polygon fill="#63b8ff" stroke="#63b8ff" points="157.24,-137.47 163.67,-129.06 153.39,-131.62 157.24,-137.47"/>
</a>
</g>
</g>
<!-- Node18 -->
<g id="Node000018" class="node">
<title>Node18</title>
<g id="a_Node000018"><a xlink:href="classRayTracer_1_1Camera.html#a4a7f4b6a0e5bf44d17162fb324c289bd" target="_top" xlink:title="Build a world&#45;space ray from normalized screen coordinates.">
<polygon fill="white" stroke="#666666" points="274.5,-177.5 159.5,-177.5 159.5,-147.5 274.5,-147.5 274.5,-177.5"/>
<text text-anchor="start" x="167.5" y="-165.5" font-family="Helvetica,sans-Serif" font-size="10.00">RayTracer::Camera::</text>
<text text-anchor="middle" x="217" y="-154.5" font-family="Helvetica,sans-Serif" font-size="10.00">generateRay</text>
</a>
</g>
</g>
<!-- Node1&#45;&gt;Node18 -->
<g id="edge22_Node000001_Node000018" class="edge">
<title>Node1&#45;&gt;Node18</title>
<g id="a_edge22_Node000001_Node000018"><a xlink:title=" ">
<path fill="none" stroke="#63b8ff" d="M64.48,-548.27C88.31,-487.6 176.6,-262.8 206.23,-187.37"/>
<polygon fill="#63b8ff" stroke="#63b8ff" points="209.61,-188.33 210.01,-177.75 203.1,-185.77 209.61,-188.33"/>
</a>
</g>
</g>
<!-- Node3&#45;&gt;Node2 -->
<g id="edge3_Node000003_Node000002" class="edge">
<title>Node3&#45;&gt;Node2</title>
<g id="a_edge3_Node000003_Node000002"><a xlink:title=" ">
<path fill="none" stroke="#63b8ff" d="M227.4,-495.6C243.18,-519.6 277.4,-566.11 319,-589.5 337.84,-600.1 459.19,-622.54 537.2,-636.19"/>
<polygon fill="#63b8ff" stroke="#63b8ff" points="536.97,-639.7 547.43,-637.97 538.18,-632.81 536.97,-639.7"/>
</a>
</g>
</g>
<!-- Node4 -->
<g id="Node000004" class="node">
<title>Node4</title>
<g id="a_Node000004"><a xlink:href="classRayTracer_1_1ILight.html#ad73c94dce4fad84ce321082bee288ae1" target="_top" xlink:title="Compute this light&#39;s contribution to a surface. Handles both direct illumination and shadow testing i...">
<polygon fill="white" stroke="#666666" points="456.5,-543.5 352.5,-543.5 352.5,-513.5 456.5,-513.5 456.5,-543.5"/>
<text text-anchor="start" x="360.5" y="-531.5" font-family="Helvetica,sans-Serif" font-size="10.00">RayTracer::ILight::</text>
<text text-anchor="middle" x="404.5" y="-520.5" font-family="Helvetica,sans-Serif" font-size="10.00">computeLight</text>
</a>
</g>
</g>
<!-- Node3&#45;&gt;Node4 -->
<g id="edge4_Node000003_Node000004" class="edge">
<title>Node3&#45;&gt;Node4</title>
<g id="a_edge4_Node000003_Node000004"><a xlink:title=" ">
<path fill="none" stroke="#63b8ff" d="M274.66,-495.16C296.1,-500.71 320.58,-507.04 342.41,-512.69"/>
<polygon fill="#63b8ff" stroke="#63b8ff" points="341.67,-516.12 352.23,-515.23 343.42,-509.34 341.67,-516.12"/>
</a>
</g>
</g>
<!-- Node5 -->
<g id="Node000005" class="node">
<title>Node5</title>
<g id="a_Node000005"><a xlink:href="classRayTracer_1_1IMaterial.html#acd4b1bdc4f1ec9f555277b4b87199bb9" target="_top" xlink:title="Return the radiance emitted by this surface.">
<polygon fill="white" stroke="#666666" points="461.5,-495.5 347.5,-495.5 347.5,-465.5 461.5,-465.5 461.5,-495.5"/>
<text text-anchor="start" x="355.5" y="-483.5" font-family="Helvetica,sans-Serif" font-size="10.00">RayTracer::IMaterial</text>
<text text-anchor="middle" x="404.5" y="-472.5" font-family="Helvetica,sans-Serif" font-size="10.00">::emission</text>
</a>
</g>
</g>
<!-- Node3&#45;&gt;Node5 -->
<g id="edge5_Node000003_Node000005" class="edge">
<title>Node3&#45;&gt;Node5</title>
<g id="a_edge5_Node000003_Node000005"><a xlink:title=" ">
<path fill="none" stroke="#63b8ff" d="M274.66,-480.5C294.35,-480.5 316.61,-480.5 337.02,-480.5"/>
<polygon fill="#63b8ff" stroke="#63b8ff" points="337.18,-484 347.18,-480.5 337.18,-477 337.18,-484"/>
</a>
</g>
</g>
<!-- Node6 -->
<g id="Node000006" class="node">
<title>Node6</title>
<g id="a_Node000006"><a xlink:href="classRayTracer_1_1IMaterial.html#a98d43460913f09c692f84affec665226" target="_top" xlink:title="Evaluate the BRDF for a given pair of directions.">
<polygon fill="white" stroke="#666666" points="461.5,-447.5 347.5,-447.5 347.5,-417.5 461.5,-417.5 461.5,-447.5"/>
<text text-anchor="start" x="355.5" y="-435.5" font-family="Helvetica,sans-Serif" font-size="10.00">RayTracer::IMaterial</text>
<text text-anchor="middle" x="404.5" y="-424.5" font-family="Helvetica,sans-Serif" font-size="10.00">::evaluate</text>
</a>
</g>
</g>
<!-- Node3&#45;&gt;Node6 -->
<g id="edge6_Node000003_Node000006" class="edge">
<title>Node3&#45;&gt;Node6</title>
<g id="a_edge6_Node000003_Node000006"><a xlink:title=" ">
<path fill="none" stroke="#63b8ff" d="M274.66,-465.84C294.44,-460.72 316.81,-454.93 337.3,-449.63"/>
<polygon fill="#63b8ff" stroke="#63b8ff" points="338.38,-452.97 347.18,-447.07 336.62,-446.19 338.38,-452.97"/>
</a>
</g>
</g>
<!-- Node7 -->
<g id="Node000007" class="node">
<title>Node7</title>
<g id="a_Node000007"><a xlink:href="classRayTracer_1_1Scene.html#a43b223d3c67aa2b66eb5eca01470f09d" target="_top" xlink:title="Get mutable reference to lights.">
<polygon fill="white" stroke="#666666" points="480,-399 329,-399 329,-380 480,-380 480,-399"/>
<text text-anchor="middle" x="404.5" y="-387" font-family="Helvetica,sans-Serif" font-size="10.00">RayTracer::Scene::getLights</text>
</a>
</g>
</g>
<!-- Node3&#45;&gt;Node7 -->
<g id="edge7_Node000003_Node000007" class="edge">
<title>Node3&#45;&gt;Node7</title>
<g id="a_edge7_Node000003_Node000007"><a xlink:title=" ">
<path fill="none" stroke="#63b8ff" d="M234.57,-465.47C253.59,-449.03 286.36,-423.08 319,-408.5 324.68,-405.96 330.72,-403.75 336.87,-401.82"/>
<polygon fill="#63b8ff" stroke="#63b8ff" points="337.94,-405.16 346.58,-399.02 336,-398.43 337.94,-405.16"/>
</a>
</g>
</g>
<!-- Node8 -->
<g id="Node000008" class="node">
<title>Node8</title>
<g id="a_Node000008"><a xlink:href="classRayTracer_1_1Scene.html#a8aa62e8397ea4837bb5a4c12aef5eb54" target="_top" xlink:title="Get mutable reference to primitives.">
<polygon fill="white" stroke="#666666" points="490,-362 319,-362 319,-343 490,-343 490,-362"/>
<text text-anchor="middle" x="404.5" y="-350" font-family="Helvetica,sans-Serif" font-size="10.00">RayTracer::Scene::getPrimitives</text>
</a>
</g>
</g>
<!-- Node3&#45;&gt;Node8 -->
<g id="edge8_Node000003_Node000008" class="edge">
<title>Node3&#45;&gt;Node8</title>
<g id="a_edge8_Node000003_Node000008"><a xlink:title=" ">
<path fill="none" stroke="#63b8ff" d="M227.39,-465.3C243.15,-441.14 277.35,-394.29 319,-370.5 322.09,-368.74 325.33,-367.14 328.67,-365.71"/>
<polygon fill="#63b8ff" stroke="#63b8ff" points="330.19,-368.87 338.3,-362.06 327.71,-362.33 330.19,-368.87"/>
</a>
</g>
</g>
<!-- Node9 -->
<g id="Node000009" class="node">
<title>Node9</title>
<g id="a_Node000009"><a xlink:href="classRayTracer_1_1APrimitive.html#af00a66a6a6b8d251f5d21e1cc5077c6b" target="_top" xlink:title="Test ray intersection with this primitive.">
<polygon fill="white" stroke="#666666" points="474.5,-325 334.5,-325 334.5,-306 474.5,-306 474.5,-325"/>
<text text-anchor="middle" x="404.5" y="-313" font-family="Helvetica,sans-Serif" font-size="10.00">RayTracer::APrimitive::hit</text>
</a>
</g>
</g>
<!-- Node3&#45;&gt;Node9 -->
<g id="edge9_Node000003_Node000009" class="edge">
<title>Node3&#45;&gt;Node9</title>
<g id="a_edge9_Node000003_Node000009"><a xlink:title=" ">
<path fill="none" stroke="#63b8ff" d="M223.92,-465.15C236.48,-434.79 268.81,-367.06 319,-333.5 321.32,-331.95 323.74,-330.53 326.25,-329.23"/>
<polygon fill="#63b8ff" stroke="#63b8ff" points="327.93,-332.31 335.63,-325.03 325.07,-325.93 327.93,-332.31"/>
</a>
</g>
</g>
<!-- Node10 -->
<g id="Node000010" class="node">
<title>Node10</title>
<g id="a_Node000010"><a xlink:href="classGeometry_1_1Vector3D.html#a388f7af8bf0095c817e89b5b2518fda7" target="_top" xlink:title=" ">
<polygon fill="white" stroke="#666666" points="462,-239.5 347,-239.5 347,-209.5 462,-209.5 462,-239.5"/>
<text text-anchor="start" x="355" y="-227.5" font-family="Helvetica,sans-Serif" font-size="10.00">Geometry::Vector3D</text>
<text text-anchor="middle" x="404.5" y="-216.5" font-family="Helvetica,sans-Serif" font-size="10.00">::normalize</text>
</a>
</g>
</g>
<!-- Node3&#45;&gt;Node10 -->
<g id="edge10_Node000003_Node000010" class="edge">
<title>Node3&#45;&gt;Node10</title>
<g id="a_edge10_Node000003_Node000010"><a xlink:title=" ">
<path fill="none" stroke="#63b8ff" d="M220.07,-465.43C226.53,-424.21 250.21,-308.64 319,-248.5 324.45,-243.74 330.78,-239.92 337.47,-236.85"/>
<polygon fill="#63b8ff" stroke="#63b8ff" points="338.81,-240.09 346.79,-233.12 336.2,-233.59 338.81,-240.09"/>
</a>
</g>
</g>
<!-- Node13 -->
<g id="Node000013" class="node">
<title>Node13</title>
<g id="a_Node000013"><a xlink:href="structRayTracer_1_1Color.html#a3a5645c19c0b60a67b3dfac325727248" target="_top" xlink:title=" ">
<polygon fill="white" stroke="#666666" points="479,-581 330,-581 330,-562 479,-562 479,-581"/>
<text text-anchor="middle" x="404.5" y="-569" font-family="Helvetica,sans-Serif" font-size="10.00">RayTracer::Color::operator*</text>
</a>
</g>
</g>
<!-- Node3&#45;&gt;Node13 -->
<g id="edge13_Node000003_Node000013" class="edge">
<title>Node3&#45;&gt;Node13</title>
<g id="a_edge13_Node000003_Node000013"><a xlink:title=" ">
<path fill="none" stroke="#63b8ff" d="M234.57,-495.53C253.59,-511.97 286.36,-537.92 319,-552.5 324.68,-555.04 330.72,-557.25 336.87,-559.18"/>
<polygon fill="#63b8ff" stroke="#63b8ff" points="336,-562.57 346.58,-561.98 337.94,-555.84 336,-562.57"/>
</a>
</g>
</g>
<!-- Node14 -->
<g id="Node000014" class="node">
<title>Node14</title>
<g id="a_Node000014"><a xlink:href="classGeometry_1_1Vector3D.html#aa583eecc673b26ce6058e6dd00238a62" target="_top" xlink:title=" ">
<polygon fill="white" stroke="#666666" points="462,-287.5 347,-287.5 347,-257.5 462,-257.5 462,-287.5"/>
<text text-anchor="start" x="355" y="-275.5" font-family="Helvetica,sans-Serif" font-size="10.00">Geometry::Vector3D</text>
<text text-anchor="middle" x="404.5" y="-264.5" font-family="Helvetica,sans-Serif" font-size="10.00">::operator*</text>
</a>
</g>
</g>
<!-- Node3&#45;&gt;Node14 -->
<g id="edge15_Node000003_Node000014" class="edge">
<title>Node3&#45;&gt;Node14</title>
<g id="a_edge15_Node000003_Node000014"><a xlink:title=" ">
<path fill="none" stroke="#63b8ff" d="M221.98,-465.25C231.97,-429.98 261.57,-342.26 319,-296.5 324.45,-292.16 330.64,-288.6 337.15,-285.69"/>
<polygon fill="#63b8ff" stroke="#63b8ff" points="338.82,-288.79 346.84,-281.86 336.25,-282.28 338.82,-288.79"/>
</a>
</g>
</g>
<!-- Node3&#45;&gt;Node15 -->
<g id="edge17_Node000003_Node000015" class="edge">
<title>Node3&#45;&gt;Node15</title>
<g id="a_edge17_Node000003_Node000015"><a xlink:title=" ">
<path fill="none" stroke="#63b8ff" d="M229.18,-495.69C242.23,-513.51 264.42,-543.98 283,-570.5 299.34,-593.82 295.91,-606.83 319,-623.5 325.03,-627.86 331.84,-631.43 338.9,-634.35"/>
<polygon fill="#63b8ff" stroke="#63b8ff" points="338.05,-637.77 348.65,-637.95 340.48,-631.2 338.05,-637.77"/>
</a>
</g>
</g>
<!-- Node3&#45;&gt;Node16 -->
<g id="edge19_Node000003_Node000016" class="edge">
<title>Node3&#45;&gt;Node16</title>
<g id="a_edge19_Node000003_Node000016"><a xlink:title=" ">
<path fill="none" stroke="#63b8ff" d="M221.64,-495.52C231.08,-531.1 259.84,-620.88 319,-665.5 321.36,-667.28 323.86,-668.9 326.46,-670.38"/>
<polygon fill="#63b8ff" stroke="#63b8ff" points="325.12,-673.62 335.65,-674.84 328.18,-667.32 325.12,-673.62"/>
</a>
</g>
</g>
<!-- Node11 -->
<g id="Node000011" class="node">
<title>Node11</title>
<g id="a_Node000011"><a xlink:href="classGeometry_1_1Vector3D.html#ae4c5a52ebf282e334801c8ee28ad8d5d" target="_top" xlink:title=" ">
<polygon fill="white" stroke="#666666" points="662,-217.5 547,-217.5 547,-187.5 662,-187.5 662,-217.5"/>
<text text-anchor="start" x="555" y="-205.5" font-family="Helvetica,sans-Serif" font-size="10.00">Geometry::Vector3D</text>
<text text-anchor="middle" x="604.5" y="-194.5" font-family="Helvetica,sans-Serif" font-size="10.00">::Vector3D</text>
</a>
</g>
</g>
<!-- Node10&#45;&gt;Node11 -->
<g id="edge11_Node000010_Node000011" class="edge">
<title>Node10&#45;&gt;Node11</title>
<g id="a_edge11_Node000010_Node000011"><a xlink:title=" ">
<path fill="none" stroke="#63b8ff" d="M462.24,-218.2C485.44,-215.62 512.45,-212.62 536.6,-209.93"/>
<polygon fill="#63b8ff" stroke="#63b8ff" points="537.2,-213.39 546.75,-208.81 536.43,-206.43 537.2,-213.39"/>
</a>
</g>
</g>
<!-- Node12 -->
<g id="Node000012" class="node">
<title>Node12</title>
<g id="a_Node000012"><a xlink:href="classGeometry_1_1Vector3D.html#a8966b188a3b6d27793b3896618fea42c" target="_top" xlink:title="Calculate the length (magnitude) of this vector.">
<polygon fill="white" stroke="#666666" points="662,-265.5 547,-265.5 547,-235.5 662,-235.5 662,-265.5"/>
<text text-anchor="start" x="555" y="-253.5" font-family="Helvetica,sans-Serif" font-size="10.00">Geometry::Vector3D</text>
<text text-anchor="middle" x="604.5" y="-242.5" font-family="Helvetica,sans-Serif" font-size="10.00">::length</text>
</a>
</g>
</g>
<!-- Node10&#45;&gt;Node12 -->
<g id="edge12_Node000010_Node000012" class="edge">
<title>Node10&#45;&gt;Node12</title>
<g id="a_edge12_Node000010_Node000012"><a xlink:title=" ">
<path fill="none" stroke="#63b8ff" d="M462.24,-231.95C485.44,-235 512.45,-238.54 536.6,-241.71"/>
<polygon fill="#63b8ff" stroke="#63b8ff" points="536.38,-245.22 546.75,-243.05 537.29,-238.28 536.38,-245.22"/>
</a>
</g>
</g>
<!-- Node13&#45;&gt;Node2 -->
<g id="edge14_Node000013_Node000002" class="edge">
<title>Node13&#45;&gt;Node2</title>
<g id="a_edge14_Node000013_Node000002"><a xlink:title=" ">
<path fill="none" stroke="#63b8ff" d="M443.75,-581.03C458.38,-585.02 475.12,-590.01 490,-595.5 520.07,-606.59 553.27,-622.21 575.96,-633.44"/>
<polygon fill="#63b8ff" stroke="#63b8ff" points="574.48,-636.62 584.99,-637.95 577.61,-630.35 574.48,-636.62"/>
</a>
</g>
</g>
<!-- Node14&#45;&gt;Node11 -->
<g id="edge16_Node000014_Node000011" class="edge">
<title>Node14&#45;&gt;Node11</title>
<g id="a_edge16_Node000014_Node000011"><a xlink:title=" ">
<path fill="none" stroke="#63b8ff" d="M462.16,-258.71C471.61,-255.76 481.2,-252.35 490,-248.5 507.18,-240.98 508.91,-234.22 526,-226.5 530.16,-224.62 534.5,-222.84 538.92,-221.15"/>
<polygon fill="#63b8ff" stroke="#63b8ff" points="540.46,-224.31 548.66,-217.61 538.07,-217.73 540.46,-224.31"/>
</a>
</g>
</g>
<!-- Node15&#45;&gt;Node2 -->
<g id="edge18_Node000015_Node000002" class="edge">
<title>Node15&#45;&gt;Node2</title>
<g id="a_edge18_Node000015_Node000002"><a xlink:title=" ">
<path fill="none" stroke="#63b8ff" d="M479.23,-647.5C495.89,-647.5 513.58,-647.5 530.22,-647.5"/>
<polygon fill="#63b8ff" stroke="#63b8ff" points="530.43,-651 540.43,-647.5 530.43,-644 530.43,-651"/>
</a>
</g>
</g>
<!-- Node16&#45;&gt;Node2 -->
<g id="edge20_Node000016_Node000002" class="edge">
<title>Node16&#45;&gt;Node2</title>
<g id="a_edge20_Node000016_Node000002"><a xlink:title=" ">
<path fill="none" stroke="#63b8ff" d="M456.49,-674.97C482.72,-670.07 514.87,-664.06 542.42,-658.91"/>
<polygon fill="#63b8ff" stroke="#63b8ff" points="543.15,-662.34 552.34,-657.06 541.87,-655.46 543.15,-662.34"/>
</a>
</g>
</g>
<!-- Node18&#45;&gt;Node10 -->
<g id="edge26_Node000018_Node000010" class="edge">
<title>Node18&#45;&gt;Node10</title>
<g id="a_edge26_Node000018_Node000010"><a xlink:title=" ">
<path fill="none" stroke="#63b8ff" d="M262.9,-177.51C288.69,-186.13 321.27,-197.01 348.57,-206.14"/>
<polygon fill="#63b8ff" stroke="#63b8ff" points="347.77,-209.56 358.37,-209.41 349.99,-202.93 347.77,-209.56"/>
</a>
</g>
</g>
<!-- Node18&#45;&gt;Node11 -->
<g id="edge25_Node000018_Node000011" class="edge">
<title>Node18&#45;&gt;Node11</title>
<g id="a_edge25_Node000018_Node000011"><a xlink:title=" ">
<path fill="none" stroke="#63b8ff" d="M274.88,-168.4C344.59,-175.64 462.55,-187.87 536.56,-195.55"/>
<polygon fill="#63b8ff" stroke="#63b8ff" points="536.39,-199.06 546.7,-196.61 537.11,-192.09 536.39,-199.06"/>
</a>
</g>
</g>
<!-- Node19 -->
<g id="Node000019" class="node">
<title>Node19</title>
<g id="a_Node000019"><a xlink:href="classGeometry_1_1Point3D.html#a6a08342f9542eb6d6ff7bcf2278a240d" target="_top" xlink:title=" ">
<polygon fill="white" stroke="#666666" points="662,-115.5 547,-115.5 547,-85.5 662,-85.5 662,-115.5"/>
<text text-anchor="start" x="555" y="-103.5" font-family="Helvetica,sans-Serif" font-size="10.00">Geometry::Point3D::</text>
<text text-anchor="middle" x="604.5" y="-92.5" font-family="Helvetica,sans-Serif" font-size="10.00">Point3D</text>
</a>
</g>
</g>
<!-- Node18&#45;&gt;Node19 -->
<g id="edge23_Node000018_Node000019" class="edge">
<title>Node18&#45;&gt;Node19</title>
<g id="a_edge23_Node000018_Node000019"><a xlink:title=" ">
<path fill="none" stroke="#63b8ff" d="M274.7,-155.75C329.85,-148.9 415.91,-137.49 490,-124.5 505.22,-121.83 521.5,-118.61 536.85,-115.4"/>
<polygon fill="#63b8ff" stroke="#63b8ff" points="537.72,-118.79 546.78,-113.3 536.28,-111.95 537.72,-118.79"/>
</a>
</g>
</g>
<!-- Node20 -->
<g id="Node000020" class="node">
<title>Node20</title>
<g id="a_Node000020"><a xlink:href="classGeometry_1_1Ray.html#a009af874883eaeca399a3c5c144df2fc" target="_top" xlink:title="Constructor.">
<polygon fill="white" stroke="#666666" points="461,-19 348,-19 348,0 461,0 461,-19"/>
<text text-anchor="middle" x="404.5" y="-7" font-family="Helvetica,sans-Serif" font-size="10.00">Geometry::Ray::Ray</text>
</a>
</g>
</g>
<!-- Node18&#45;&gt;Node20 -->
<g id="edge24_Node000018_Node000020" class="edge">
<title>Node18&#45;&gt;Node20</title>
<g id="a_edge24_Node000018_Node000020"><a xlink:title=" ">
<path fill="none" stroke="#63b8ff" d="M270.35,-147.39C275,-144.62 279.33,-141.35 283,-137.5 318.2,-100.57 281.2,-62.77 319,-28.5 324.51,-23.5 331.05,-19.72 338.02,-16.88"/>
<polygon fill="#63b8ff" stroke="#63b8ff" points="339.39,-20.11 347.72,-13.57 337.13,-13.49 339.39,-20.11"/>
</a>
</g>
</g>
<!-- Node21 -->
<g id="Node000021" class="node">
<title>Node21</title>
<g id="a_Node000021"><a xlink:href="classGeometry_1_1TransformMatrix.html#a136a1573f63564d63426b89fcafeb21b" target="_top" xlink:title=" ">
<polygon fill="white" stroke="#666666" points="480,-67.5 329,-67.5 329,-37.5 480,-37.5 480,-67.5"/>
<text text-anchor="start" x="337" y="-55.5" font-family="Helvetica,sans-Serif" font-size="10.00">Geometry::TransformMatrix</text>
<text text-anchor="middle" x="404.5" y="-44.5" font-family="Helvetica,sans-Serif" font-size="10.00">::operator*</text>
</a>
</g>
</g>
<!-- Node18&#45;&gt;Node21 -->
<g id="edge27_Node000018_Node000021" class="edge">
<title>Node18&#45;&gt;Node21</title>
<g id="a_edge27_Node000018_Node000021"><a xlink:title=" ">
<path fill="none" stroke="#63b8ff" d="M267.9,-147.4C273.31,-144.61 278.48,-141.33 283,-137.5 307.03,-117.16 294.08,-95.73 319,-76.5 320.81,-75.1 322.71,-73.78 324.66,-72.54"/>
<polygon fill="#63b8ff" stroke="#63b8ff" points="326.56,-75.49 333.59,-67.57 323.15,-69.37 326.56,-75.49"/>
</a>
</g>
</g>
<!-- Node23 -->
<g id="Node000023" class="node">
<title>Node23</title>
<g id="a_Node000023"><a xlink:href="classGeometry_1_1Rectangle3D.html#a2b17f489ad6e57c131dc0e1c8ac2f1a0" target="_top" xlink:title="Get a point on the rectangle at normalized coordinates (u, v).">
<polygon fill="white" stroke="#666666" points="471,-115.5 338,-115.5 338,-85.5 471,-85.5 471,-115.5"/>
<text text-anchor="start" x="346" y="-103.5" font-family="Helvetica,sans-Serif" font-size="10.00">Geometry::Rectangle3D</text>
<text text-anchor="middle" x="404.5" y="-92.5" font-family="Helvetica,sans-Serif" font-size="10.00">::pointAt</text>
</a>
</g>
</g>
<!-- Node18&#45;&gt;Node23 -->
<g id="edge30_Node000018_Node000023" class="edge">
<title>Node18&#45;&gt;Node23</title>
<g id="a_edge30_Node000018_Node000023"><a xlink:title=" ">
<path fill="none" stroke="#63b8ff" d="M262.9,-147.49C288.69,-138.87 321.27,-127.99 348.57,-118.86"/>
<polygon fill="#63b8ff" stroke="#63b8ff" points="349.99,-122.07 358.37,-115.59 347.77,-115.44 349.99,-122.07"/>
</a>
</g>
</g>
<!-- Node21&#45;&gt;Node19 -->
<g id="edge28_Node000021_Node000019" class="edge">
<title>Node21&#45;&gt;Node19</title>
<g id="a_edge28_Node000021_Node000019"><a xlink:title=" ">
<path fill="none" stroke="#63b8ff" d="M467.61,-67.56C489.73,-72.92 514.73,-78.98 537.2,-84.43"/>
<polygon fill="#63b8ff" stroke="#63b8ff" points="536.45,-87.85 546.99,-86.8 538.1,-81.04 536.45,-87.85"/>
</a>
</g>
</g>
<!-- Node22 -->
<g id="Node000022" class="node">
<title>Node22</title>
<g id="a_Node000022"><a xlink:href="classGeometry_1_1Matrix.html#a55bca424225b20c0490c21b93faea578" target="_top" xlink:title="Mutable element access.">
<polygon fill="white" stroke="#666666" points="683,-62 526,-62 526,-43 683,-43 683,-62"/>
<text text-anchor="middle" x="604.5" y="-50" font-family="Helvetica,sans-Serif" font-size="10.00">Geometry::Matrix::operator()</text>
</a>
</g>
</g>
<!-- Node21&#45;&gt;Node22 -->
<g id="edge29_Node000021_Node000022" class="edge">
<title>Node21&#45;&gt;Node22</title>
<g id="a_edge29_Node000021_Node000022"><a xlink:title=" ">
<path fill="none" stroke="#63b8ff" d="M480.07,-52.5C491.6,-52.5 503.61,-52.5 515.4,-52.5"/>
<polygon fill="#63b8ff" stroke="#63b8ff" points="515.69,-56 525.69,-52.5 515.69,-49 515.69,-56"/>
</a>
</g>
</g>
<!-- Node23&#45;&gt;Node19 -->
<g id="edge31_Node000023_Node000019" class="edge">
<title>Node23&#45;&gt;Node19</title>
<g id="a_edge31_Node000023_Node000019"><a xlink:title=" ">
<path fill="none" stroke="#63b8ff" d="M471.16,-100.5C492.25,-100.5 515.62,-100.5 536.78,-100.5"/>
<polygon fill="#63b8ff" stroke="#63b8ff" points="536.98,-104 546.98,-100.5 536.98,-97 536.98,-104"/>
</a>
</g>
</g>
</g>
</svg>

<g id="navigator" transform="translate(0 0)" fill="#404254">
  <rect fill="#f2f5e9" fill-opacity="0.5" stroke="#606060" stroke-width=".5" x="0" y="0" width="60" height="60"/>
  <use id="zoomplus" xlink:href="#zoomPlus" x="17" y="9" onmousedown="handleZoom(evt,'in')"/>
  <use id="zoomminus" xlink:href="#zoomMin" x="42" y="9" onmousedown="handleZoom(evt,'out')"/>
  <use id="reset" xlink:href="#resetDef" x="30" y="36" onmousedown="handleReset()"/>
   <use id="arrowup" xlink:href="#arrowUp" x="0" y="0" onmousedown="handlePan(0,-1)"/>
  <use id="arrowright" xlink:href="#arrowRight" x="0" y="0" onmousedown="handlePan(1,0)"/>
  <use id="arrowdown" xlink:href="#arrowDown" x="0" y="0" onmousedown="handlePan(0,1)"/>
  <use id="arrowleft" xlink:href="#arrowLeft" x="0" y="0" onmousedown="handlePan(-1,0)"/>
</g>
<svg viewBox="0 0 15 15" width="100%" height="30px" preserveAspectRatio="xMaxYMin meet">
 <g id="arrow_out" transform="scale(0.3 0.3)">
  <a xlink:href="classRayTracer_1_1Camera_a3735fca524537e8a0ce755bb77e9a71f_cgraph_org.svg" target="_base">
   <rect id="button" ry="5" rx="5" y="6" x="6" height="38" width="38"
        fill="#f2f5e9" fill-opacity="0.5" stroke="#606060" stroke-width="1.0"/>
   <path id="arrow"
     d="M 11.500037,31.436501 C 11.940474,20.09759 22.043105,11.32322 32.158766,21.979434 L 37.068811,17.246167 C 37.068811,17.246167 37.088388,32 37.088388,32 L 22.160133,31.978069 C 22.160133,31.978069 26.997745,27.140456 26.997745,27.140456 C 18.528582,18.264221 13.291696,25.230495 11.500037,31.436501 z"
     style="fill:#404040;"/>
  </a>
 </g>
</svg>

<style type='text/css'>
<![CDATA[
[data-mouse-over-selected='false'] { opacity: 0.7; }
[data-mouse-over-selected='true']  { opacity: 1.0; }
]]>
</style>
<script type="application/ecmascript"><![CDATA[
document.addEventListener('DOMContentLoaded', (event) => {
  highlightEdges();
  highlightAdjacentNodes();
});
]]></script>
</svg>
