<?xml version="1.0" encoding="UTF-8" standalone="no"?>
<!DOCTYPE svg PUBLIC "-//W3C//DTD SVG 1.1//EN"
 "http://www.w3.org/Graphics/SVG/1.1/DTD/svg11.dtd">
<!-- Generated by graphviz version 2.43.0 (0)
 -->
<!-- Title: RayTracer::Plane Pages: 1 -->
<!--zoomable 519 -->

<svg id="main" version="1.1" xmlns="http://www.w3.org/2000/svg" xmlns:xlink="http://www.w3.org/1999/xlink" xml:space="preserve" onload="init(evt)">
<style type="text/css"><![CDATA[
.node, .edge {opacity: 0.7;}
.node.selected, .edge.selected {opacity: 1;}
.edge:hover path { stroke: red; }
.edge:hover polygon { stroke: red; fill: red; }
]]></style>

<defs>
  <circle id="rim" cx="0" cy="0" r="7"/>
  <circle id="rim2" cx="0" cy="0" r="3.5"/>
  <g id="zoomPlus">
    <use xlink:href="#rim" fill="#404040"><set attributeName="fill" to="#808080" begin="zoomplus.mouseover" end="zoomplus.mouseout"/></use>
    <path d="M-4,0h8M0,-4v8" fill="none" stroke="white" stroke-width="1.5" pointer-events="none"/>
  </g>
  <g id="zoomMin">
    <use xlink:href="#rim" fill="#404040"><set attributeName="fill" to="#808080" begin="zoomminus.mouseover" end="zoomminus.mouseout"/></use>
    <path d="M-4,0h8" fill="none" stroke="white" stroke-width="1.5" pointer-events="none"/>
  </g>
  <g id="arrowUp" transform="translate(30 24)">
    <use xlink:href="#rim"/>
    <path pointer-events="none" fill="none" stroke="white" stroke-width="1.5" d="M0,-3.0v7 M-2.5,-0.5L0,-3.0L2.5,-0.5"/>
  </g>
  <g id="arrowRight" transform="rotate(90) translate(36 -43)">
    <use xlink:href="#rim"/>
    <path pointer-events="none" fill="none" stroke="white" stroke-width="1.5" d="M0,-3.0v7 M-2.5,-0.5L0,-3.0L2.5,-0.5"/>
  </g>
  <g id="arrowDown" transform="rotate(180) translate(-30 -48)">
    <use xlink:href="#rim"/>
    <path pointer-events="none" fill="none" stroke="white" stroke-width="1.5" d="M0,-3.0v7 M-2.5,-0.5L0,-3.0L2.5,-0.5"/>
  </g>
  <g id="arrowLeft" transform="rotate(270) translate(-36 17)">
    <use xlink:href="#rim"/>
    <path pointer-events="none" fill="none" stroke="white" stroke-width="1.5" d="M0,-3.0v7 M-2.5,-0.5L0,-3.0L2.5,-0.5"/>
  </g>
  <g id="resetDef">
    <use xlink:href="#rim2" fill="#404040"><set attributeName="fill" to="#808080" begin="reset.mouseover" end="reset.mouseout"/></use>
  </g>
</defs>
<script type="application/ecmascript">
var viewWidth = 373;
var viewHeight = 519;
var sectionId = 'dynsection-1';
</script>
<script type="application/ecmascript" xlink:href="svg.min.js"/>
<svg id="graph" class="graph">
<g id="viewport">
<title>RayTracer::Plane</title>
<!-- Node1 -->
<g id="Node000001" class="node">
<title>Node1</title>
<g id="a_Node000001"><a xlink:title=" ">
<polygon fill="#999999" stroke="transparent" points="232,-94 140,-94 140,0 232,0 232,-94"/>
<text text-anchor="start" x="145" y="-82" font-family="Helvetica,sans-Serif" font-size="10.00">RayTracer::Plane</text>
<text text-anchor="start" x="184" y="-67" font-family="Helvetica,sans-Serif" font-size="10.00"> </text>
<text text-anchor="start" x="151" y="-52" font-family="Helvetica,sans-Serif" font-size="10.00">+</text>
<text text-anchor="start" x="171" y="-52" font-family="Helvetica,sans-Serif" font-size="10.00">Plane()</text>
<text text-anchor="start" x="151" y="-37" font-family="Helvetica,sans-Serif" font-size="10.00">+</text>
<text text-anchor="start" x="171" y="-37" font-family="Helvetica,sans-Serif" font-size="10.00">Plane()</text>
<text text-anchor="start" x="151" y="-22" font-family="Helvetica,sans-Serif" font-size="10.00">+</text>
<text text-anchor="start" x="171" y="-22" font-family="Helvetica,sans-Serif" font-size="10.00">~Plane()</text>
<text text-anchor="start" x="151" y="-7" font-family="Helvetica,sans-Serif" font-size="10.00">+</text>
<text text-anchor="start" x="171" y="-7" font-family="Helvetica,sans-Serif" font-size="10.00">hit()</text>
<polygon fill="#666666" stroke="#666666" points="140,-77 140,-77 232,-77 232,-77 140,-77"/>
<polygon fill="#666666" stroke="#666666" points="140,-62 140,-62 232,-62 232,-62 140,-62"/>
<polygon fill="none" stroke="#666666" points="140,0 140,-94 232,-94 232,0 140,0"/>
</a>
</g>
</g>
<!-- Node2 -->
<g id="Node000002" class="node">
<title>Node2</title>
<g id="a_Node000002"><a xlink:href="classRayTracer_1_1APrimitive.html" target="_top" xlink:title="Abstract base class for all primitives (renderable objects). Primitives have geometry and a material.">
<polygon fill="white" stroke="transparent" points="116,-317.5 0,-317.5 0,-223.5 116,-223.5 116,-317.5"/>
<text text-anchor="start" x="5" y="-305.5" font-family="Helvetica,sans-Serif" font-size="10.00">RayTracer::APrimitive</text>
<text text-anchor="start" x="56" y="-290.5" font-family="Helvetica,sans-Serif" font-size="10.00"> </text>
<text text-anchor="start" x="11" y="-275.5" font-family="Helvetica,sans-Serif" font-size="10.00">+</text>
<text text-anchor="start" x="31" y="-275.5" font-family="Helvetica,sans-Serif" font-size="10.00">APrimitive()</text>
<text text-anchor="start" x="11" y="-260.5" font-family="Helvetica,sans-Serif" font-size="10.00">+</text>
<text text-anchor="start" x="31" y="-260.5" font-family="Helvetica,sans-Serif" font-size="10.00">~APrimitive()</text>
<text text-anchor="start" x="11" y="-245.5" font-family="Helvetica,sans-Serif" font-size="10.00">+</text>
<text text-anchor="start" x="31" y="-245.5" font-family="Helvetica,sans-Serif" font-size="10.00">hit()</text>
<text text-anchor="start" x="11" y="-230.5" font-family="Helvetica,sans-Serif" font-size="10.00">+</text>
<text text-anchor="start" x="31" y="-230.5" font-family="Helvetica,sans-Serif" font-size="10.00">getMaterial()</text>
<polygon fill="#666666" stroke="#666666" points="0,-300.5 0,-300.5 116,-300.5 116,-300.5 0,-300.5"/>
<polygon fill="#666666" stroke="#666666" points="0,-285.5 0,-285.5 116,-285.5 116,-285.5 0,-285.5"/>
<polygon fill="none" stroke="#666666" points="0,-223.5 0,-317.5 116,-317.5 116,-223.5 0,-223.5"/>
</a>
</g>
</g>
<!-- Node2&#45;&gt;Node1 -->
<g id="edge1_Node000001_Node000002" class="edge">
<title>Node2&#45;&gt;Node1</title>
<g id="a_edge1_Node000001_Node000002"><a xlink:title=" ">
<path fill="none" stroke="#63b8ff" d="M85.17,-214.46C96.91,-191.47 111.12,-164.66 125,-141 134.09,-125.51 144.62,-109 154.35,-94.26"/>
<polygon fill="none" stroke="#63b8ff" points="82.04,-212.9 80.63,-223.4 88.28,-216.07 82.04,-212.9"/>
</a>
</g>
</g>
<!-- Node3 -->
<g id="Node000003" class="node">
<title>Node3</title>
<g id="a_Node000003"><a xlink:href="classRayTracer_1_1IMaterial.html" target="_top" xlink:title="Abstract base for materials defining how surfaces shade.">
<polygon fill="white" stroke="transparent" points="112,-511 4,-511 4,-447 112,-447 112,-511"/>
<text text-anchor="start" x="9" y="-499" font-family="Helvetica,sans-Serif" font-size="10.00">RayTracer::IMaterial</text>
<text text-anchor="start" x="56" y="-484" font-family="Helvetica,sans-Serif" font-size="10.00"> </text>
<text text-anchor="start" x="10.5" y="-469" font-family="Helvetica,sans-Serif" font-size="10.00">+</text>
<text text-anchor="start" x="26" y="-469" font-family="Helvetica,sans-Serif" font-size="10.00">computeColor()</text>
<text text-anchor="start" x="10.5" y="-454" font-family="Helvetica,sans-Serif" font-size="10.00">+</text>
<text text-anchor="start" x="26" y="-454" font-family="Helvetica,sans-Serif" font-size="10.00">~IMaterial()</text>
<polygon fill="#666666" stroke="#666666" points="4,-494 4,-494 112,-494 112,-494 4,-494"/>
<polygon fill="#666666" stroke="#666666" points="4,-479 4,-479 112,-479 112,-479 4,-479"/>
<polygon fill="none" stroke="#666666" points="4,-447 4,-511 112,-511 112,-447 4,-447"/>
</a>
</g>
</g>
<!-- Node3&#45;&gt;Node2 -->
<g id="edge2_Node000002_Node000003" class="edge">
<title>Node3&#45;&gt;Node2</title>
<g id="a_edge2_Node000002_Node000003"><a xlink:title=" ">
<path fill="none" stroke="#63b8ff" d="M58,-446.64C58,-415.82 58,-368.04 58,-330.17"/>
<polygon fill="none" stroke="#63b8ff" points="58,-329.75 54,-323.75 58,-317.75 62,-323.75 58,-329.75"/>
</a>
</g>
<text text-anchor="middle" x="85" y="-421" font-family="Helvetica,sans-Serif" font-size="10.00" fill="grey"> &#45;_material</text>
</g>
<!-- Node4 -->
<g id="Node000004" class="node">
<title>Node4</title>
<g id="a_Node000004"><a xlink:href="classGeometry_1_1Point3D.html" target="_top" xlink:title="Represents a 3D point in space.">
<polygon fill="white" stroke="transparent" points="237.5,-355 134.5,-355 134.5,-186 237.5,-186 237.5,-355"/>
<text text-anchor="start" x="140" y="-342.5" font-family="Helvetica,sans-Serif" font-size="10.00">Geometry::Point3D</text>
<text text-anchor="start" x="143" y="-327.5" font-family="Helvetica,sans-Serif" font-size="10.00">+</text>
<text text-anchor="start" x="160" y="-327.5" font-family="Helvetica,sans-Serif" font-size="10.00">x</text>
<text text-anchor="start" x="143" y="-312.5" font-family="Helvetica,sans-Serif" font-size="10.00">+</text>
<text text-anchor="start" x="160" y="-312.5" font-family="Helvetica,sans-Serif" font-size="10.00">y</text>
<text text-anchor="start" x="143" y="-297.5" font-family="Helvetica,sans-Serif" font-size="10.00">+</text>
<text text-anchor="start" x="160" y="-297.5" font-family="Helvetica,sans-Serif" font-size="10.00">z</text>
<text text-anchor="start" x="143" y="-282.5" font-family="Helvetica,sans-Serif" font-size="10.00">+</text>
<text text-anchor="start" x="160" y="-282.5" font-family="Helvetica,sans-Serif" font-size="10.00">Point3D()</text>
<text text-anchor="start" x="143" y="-267.5" font-family="Helvetica,sans-Serif" font-size="10.00">+</text>
<text text-anchor="start" x="160" y="-267.5" font-family="Helvetica,sans-Serif" font-size="10.00">Point3D()</text>
<text text-anchor="start" x="143" y="-252.5" font-family="Helvetica,sans-Serif" font-size="10.00">+</text>
<text text-anchor="start" x="160" y="-252.5" font-family="Helvetica,sans-Serif" font-size="10.00">~Point3D()</text>
<text text-anchor="start" x="143" y="-237.5" font-family="Helvetica,sans-Serif" font-size="10.00">+</text>
<text text-anchor="start" x="160" y="-237.5" font-family="Helvetica,sans-Serif" font-size="10.00">operator+()</text>
<text text-anchor="start" x="143" y="-222.5" font-family="Helvetica,sans-Serif" font-size="10.00">+</text>
<text text-anchor="start" x="160" y="-222.5" font-family="Helvetica,sans-Serif" font-size="10.00">operator&#45;()</text>
<text text-anchor="start" x="143" y="-207.5" font-family="Helvetica,sans-Serif" font-size="10.00">+</text>
<text text-anchor="start" x="160" y="-207.5" font-family="Helvetica,sans-Serif" font-size="10.00">operator+=()</text>
<text text-anchor="start" x="143" y="-192.5" font-family="Helvetica,sans-Serif" font-size="10.00">+</text>
<text text-anchor="start" x="160" y="-192.5" font-family="Helvetica,sans-Serif" font-size="10.00">operator&#45;()</text>
<polygon fill="#666666" stroke="#666666" points="135,-337.5 135,-337.5 238,-337.5 238,-337.5 135,-337.5"/>
<polygon fill="#666666" stroke="#666666" points="135,-292.5 135,-292.5 158,-292.5 158,-292.5 135,-292.5"/>
<polygon fill="#666666" stroke="#666666" points="158,-292.5 158,-292.5 238,-292.5 238,-292.5 158,-292.5"/>
<polygon fill="none" stroke="#666666" points="134.5,-186 134.5,-355 237.5,-355 237.5,-186 134.5,-186"/>
</a>
</g>
</g>
<!-- Node4&#45;&gt;Node1 -->
<g id="edge3_Node000001_Node000004" class="edge">
<title>Node4&#45;&gt;Node1</title>
<g id="a_edge3_Node000001_Node000004"><a xlink:title=" ">
<path fill="none" stroke="#63b8ff" d="M186,-185.76C186,-159.37 186,-130.79 186,-106.55"/>
<polygon fill="none" stroke="#63b8ff" points="186,-106.3 182,-100.3 186,-94.3 190,-100.3 186,-106.3"/>
</a>
</g>
<text text-anchor="middle" x="204.5" y="-115" font-family="Helvetica,sans-Serif" font-size="10.00" fill="grey"> &#45;_point</text>
</g>
<!-- Node5 -->
<g id="Node000005" class="node">
<title>Node5</title>
<g id="a_Node000005"><a xlink:href="classGeometry_1_1Vector3D.html" target="_top" xlink:title="Represents a 3D vector for directions or displacements.">
<polygon fill="white" stroke="transparent" points="364.5,-400 255.5,-400 255.5,-141 364.5,-141 364.5,-400"/>
<text text-anchor="start" x="261" y="-387.5" font-family="Helvetica,sans-Serif" font-size="10.00">Geometry::Vector3D</text>
<text text-anchor="start" x="265.5" y="-372.5" font-family="Helvetica,sans-Serif" font-size="10.00">+</text>
<text text-anchor="start" x="284" y="-372.5" font-family="Helvetica,sans-Serif" font-size="10.00">x</text>
<text text-anchor="start" x="265.5" y="-357.5" font-family="Helvetica,sans-Serif" font-size="10.00">+</text>
<text text-anchor="start" x="284" y="-357.5" font-family="Helvetica,sans-Serif" font-size="10.00">y</text>
<text text-anchor="start" x="265.5" y="-342.5" font-family="Helvetica,sans-Serif" font-size="10.00">+</text>
<text text-anchor="start" x="284" y="-342.5" font-family="Helvetica,sans-Serif" font-size="10.00">z</text>
<text text-anchor="start" x="265.5" y="-327.5" font-family="Helvetica,sans-Serif" font-size="10.00">+</text>
<text text-anchor="start" x="284" y="-327.5" font-family="Helvetica,sans-Serif" font-size="10.00">Vector3D()</text>
<text text-anchor="start" x="265.5" y="-312.5" font-family="Helvetica,sans-Serif" font-size="10.00">+</text>
<text text-anchor="start" x="284" y="-312.5" font-family="Helvetica,sans-Serif" font-size="10.00">Vector3D()</text>
<text text-anchor="start" x="265.5" y="-297.5" font-family="Helvetica,sans-Serif" font-size="10.00">+</text>
<text text-anchor="start" x="284" y="-297.5" font-family="Helvetica,sans-Serif" font-size="10.00">~Vector3D()</text>
<text text-anchor="start" x="265.5" y="-282.5" font-family="Helvetica,sans-Serif" font-size="10.00">+</text>
<text text-anchor="start" x="284" y="-282.5" font-family="Helvetica,sans-Serif" font-size="10.00">length()</text>
<text text-anchor="start" x="265.5" y="-267.5" font-family="Helvetica,sans-Serif" font-size="10.00">+</text>
<text text-anchor="start" x="284" y="-267.5" font-family="Helvetica,sans-Serif" font-size="10.00">length()</text>
<text text-anchor="start" x="265.5" y="-252.5" font-family="Helvetica,sans-Serif" font-size="10.00">+</text>
<text text-anchor="start" x="284" y="-252.5" font-family="Helvetica,sans-Serif" font-size="10.00">dot()</text>
<text text-anchor="start" x="265.5" y="-237.5" font-family="Helvetica,sans-Serif" font-size="10.00">+</text>
<text text-anchor="start" x="284" y="-237.5" font-family="Helvetica,sans-Serif" font-size="10.00">normalize()</text>
<text text-anchor="start" x="265.5" y="-222.5" font-family="Helvetica,sans-Serif" font-size="10.00">+</text>
<text text-anchor="start" x="284" y="-222.5" font-family="Helvetica,sans-Serif" font-size="10.00">operator+()</text>
<text text-anchor="start" x="265.5" y="-207.5" font-family="Helvetica,sans-Serif" font-size="10.00">+</text>
<text text-anchor="start" x="284" y="-207.5" font-family="Helvetica,sans-Serif" font-size="10.00">operator+=()</text>
<text text-anchor="start" x="265.5" y="-192.5" font-family="Helvetica,sans-Serif" font-size="10.00">+</text>
<text text-anchor="start" x="284" y="-192.5" font-family="Helvetica,sans-Serif" font-size="10.00">operator&#45;()</text>
<text text-anchor="start" x="284" y="-177.5" font-family="Helvetica,sans-Serif" font-size="10.00">and 9 more...</text>
<text text-anchor="start" x="265.5" y="-162.5" font-family="Helvetica,sans-Serif" font-size="10.00">+</text>
<text text-anchor="start" x="284" y="-162.5" font-family="Helvetica,sans-Serif" font-size="10.00">dot()</text>
<text text-anchor="start" x="265.5" y="-147.5" font-family="Helvetica,sans-Serif" font-size="10.00">+</text>
<text text-anchor="start" x="284" y="-147.5" font-family="Helvetica,sans-Serif" font-size="10.00">cross()</text>
<polygon fill="#666666" stroke="#666666" points="256,-382.5 256,-382.5 365,-382.5 365,-382.5 256,-382.5"/>
<polygon fill="#666666" stroke="#666666" points="256,-337.5 256,-337.5 282,-337.5 282,-337.5 256,-337.5"/>
<polygon fill="#666666" stroke="#666666" points="282,-337.5 282,-337.5 365,-337.5 365,-337.5 282,-337.5"/>
<polygon fill="none" stroke="#666666" points="255.5,-141 255.5,-400 364.5,-400 364.5,-141 255.5,-141"/>
</a>
</g>
</g>
<!-- Node5&#45;&gt;Node1 -->
<g id="edge4_Node000001_Node000005" class="edge">
<title>Node5&#45;&gt;Node1</title>
<g id="a_edge4_Node000001_Node000005"><a xlink:title=" ">
<path fill="none" stroke="#63b8ff" d="M255.47,-156.26C252.66,-151.07 249.83,-145.96 247,-141 240.12,-128.93 232.29,-116.31 224.59,-104.39"/>
<polygon fill="none" stroke="#63b8ff" points="224.45,-104.17 217.82,-101.33 217.88,-94.12 224.51,-96.96 224.45,-104.17"/>
</a>
</g>
<text text-anchor="middle" x="259.5" y="-115" font-family="Helvetica,sans-Serif" font-size="10.00" fill="grey"> &#45;_normal</text>
</g>
</g>
</svg>

<g id="navigator" transform="translate(0 0)" fill="#404254">
  <rect fill="#f2f5e9" fill-opacity="0.5" stroke="#606060" stroke-width=".5" x="0" y="0" width="60" height="60"/>
  <use id="zoomplus" xlink:href="#zoomPlus" x="17" y="9" onmousedown="handleZoom(evt,'in')"/>
  <use id="zoomminus" xlink:href="#zoomMin" x="42" y="9" onmousedown="handleZoom(evt,'out')"/>
  <use id="reset" xlink:href="#resetDef" x="30" y="36" onmousedown="handleReset()"/>
   <use id="arrowup" xlink:href="#arrowUp" x="0" y="0" onmousedown="handlePan(0,-1)"/>
  <use id="arrowright" xlink:href="#arrowRight" x="0" y="0" onmousedown="handlePan(1,0)"/>
  <use id="arrowdown" xlink:href="#arrowDown" x="0" y="0" onmousedown="handlePan(0,1)"/>
  <use id="arrowleft" xlink:href="#arrowLeft" x="0" y="0" onmousedown="handlePan(-1,0)"/>
</g>
<svg viewBox="0 0 15 15" width="100%" height="30px" preserveAspectRatio="xMaxYMin meet">
 <g id="arrow_out" transform="scale(0.3 0.3)">
  <a xlink:href="classRayTracer_1_1Plane__coll__graph_org.svg" target="_base">
   <rect id="button" ry="5" rx="5" y="6" x="6" height="38" width="38"
        fill="#f2f5e9" fill-opacity="0.5" stroke="#606060" stroke-width="1.0"/>
   <path id="arrow"
     d="M 11.500037,31.436501 C 11.940474,20.09759 22.043105,11.32322 32.158766,21.979434 L 37.068811,17.246167 C 37.068811,17.246167 37.088388,32 37.088388,32 L 22.160133,31.978069 C 22.160133,31.978069 26.997745,27.140456 26.997745,27.140456 C 18.528582,18.264221 13.291696,25.230495 11.500037,31.436501 z"
     style="fill:#404040;"/>
  </a>
 </g>
</svg>

<style type='text/css'>
<![CDATA[
[data-mouse-over-selected='false'] { opacity: 0.7; }
[data-mouse-over-selected='true']  { opacity: 1.0; }
]]>
</style>
<script type="application/ecmascript"><![CDATA[
document.addEventListener('DOMContentLoaded', (event) => {
  highlightEdges();
  highlightAdjacentNodes();
});
]]></script>
</svg>
