<?xml version="1.0" encoding="UTF-8" standalone="no"?>
<!DOCTYPE svg PUBLIC "-//W3C//DTD SVG 1.1//EN"
 "http://www.w3.org/Graphics/SVG/1.1/DTD/svg11.dtd">
<!-- Generated by graphviz version 2.43.0 (0)
 -->
<!-- Title: RayTracer::Camera Pages: 1 -->
<svg width="287pt" height="530pt"
 viewBox="0.00 0.00 286.83 530.00" xmlns="http://www.w3.org/2000/svg" xmlns:xlink="http://www.w3.org/1999/xlink">
<g id="graph0" class="graph" transform="scale(1 1) rotate(0) translate(4 526)">
<title>RayTracer::Camera</title>
<!-- Node1 -->
<g id="Node000001" class="node">
<title>Node1</title>
<g id="a_Node000001"><a xlink:title=" ">
<polygon fill="#999999" stroke="transparent" points="191.33,-94 88.33,-94 88.33,0 191.33,0 191.33,-94"/>
<text text-anchor="start" x="93.83" y="-82" font-family="Helvetica,sans-Serif" font-size="10.00">RayTracer::Camera</text>
<text text-anchor="start" x="98.33" y="-67" font-family="Helvetica,sans-Serif" font-size="10.00">&#45;</text>
<text text-anchor="start" x="111.83" y="-67" font-family="Helvetica,sans-Serif" font-size="10.00">_fov</text>
<text text-anchor="start" x="95.83" y="-52" font-family="Helvetica,sans-Serif" font-size="10.00">+</text>
<text text-anchor="start" x="111.83" y="-52" font-family="Helvetica,sans-Serif" font-size="10.00">Camera()</text>
<text text-anchor="start" x="95.83" y="-37" font-family="Helvetica,sans-Serif" font-size="10.00">+</text>
<text text-anchor="start" x="111.83" y="-37" font-family="Helvetica,sans-Serif" font-size="10.00">generateRay()</text>
<text text-anchor="start" x="95.83" y="-22" font-family="Helvetica,sans-Serif" font-size="10.00">+</text>
<text text-anchor="start" x="111.83" y="-22" font-family="Helvetica,sans-Serif" font-size="10.00">getWidth()</text>
<text text-anchor="start" x="95.83" y="-7" font-family="Helvetica,sans-Serif" font-size="10.00">+</text>
<text text-anchor="start" x="111.83" y="-7" font-family="Helvetica,sans-Serif" font-size="10.00">getHeight()</text>
<polygon fill="#666666" stroke="#666666" points="88.83,-77 88.83,-77 191.83,-77 191.83,-77 88.83,-77"/>
<polygon fill="#666666" stroke="#666666" points="88.83,-62 88.83,-62 109.83,-62 109.83,-62 88.83,-62"/>
<polygon fill="#666666" stroke="#666666" points="109.83,-62 109.83,-62 191.83,-62 191.83,-62 109.83,-62"/>
<polygon fill="none" stroke="#666666" points="88.33,0 88.33,-94 191.33,-94 191.33,0 88.33,0"/>
</a>
</g>
</g>
<!-- Node2 -->
<g id="Node000002" class="node">
<title>Node2</title>
<g id="a_Node000002"><a xlink:href="classGeometry_1_1Point3D.html" target="_top" xlink:title=" ">
<polygon fill="white" stroke="transparent" points="116.33,-477 13.33,-477 13.33,-308 116.33,-308 116.33,-477"/>
<text text-anchor="start" x="18.83" y="-464.5" font-family="Helvetica,sans-Serif" font-size="10.00">Geometry::Point3D</text>
<text text-anchor="start" x="21.83" y="-449.5" font-family="Helvetica,sans-Serif" font-size="10.00">+</text>
<text text-anchor="start" x="38.83" y="-449.5" font-family="Helvetica,sans-Serif" font-size="10.00">x</text>
<text text-anchor="start" x="21.83" y="-434.5" font-family="Helvetica,sans-Serif" font-size="10.00">+</text>
<text text-anchor="start" x="38.83" y="-434.5" font-family="Helvetica,sans-Serif" font-size="10.00">y</text>
<text text-anchor="start" x="21.83" y="-419.5" font-family="Helvetica,sans-Serif" font-size="10.00">+</text>
<text text-anchor="start" x="38.83" y="-419.5" font-family="Helvetica,sans-Serif" font-size="10.00">z</text>
<text text-anchor="start" x="21.83" y="-404.5" font-family="Helvetica,sans-Serif" font-size="10.00">+</text>
<text text-anchor="start" x="38.83" y="-404.5" font-family="Helvetica,sans-Serif" font-size="10.00">Point3D()</text>
<text text-anchor="start" x="21.83" y="-389.5" font-family="Helvetica,sans-Serif" font-size="10.00">+</text>
<text text-anchor="start" x="38.83" y="-389.5" font-family="Helvetica,sans-Serif" font-size="10.00">Point3D()</text>
<text text-anchor="start" x="21.83" y="-374.5" font-family="Helvetica,sans-Serif" font-size="10.00">+</text>
<text text-anchor="start" x="38.83" y="-374.5" font-family="Helvetica,sans-Serif" font-size="10.00">~Point3D()</text>
<text text-anchor="start" x="21.83" y="-359.5" font-family="Helvetica,sans-Serif" font-size="10.00">+</text>
<text text-anchor="start" x="38.83" y="-359.5" font-family="Helvetica,sans-Serif" font-size="10.00">operator+()</text>
<text text-anchor="start" x="21.83" y="-344.5" font-family="Helvetica,sans-Serif" font-size="10.00">+</text>
<text text-anchor="start" x="38.83" y="-344.5" font-family="Helvetica,sans-Serif" font-size="10.00">operator&#45;()</text>
<text text-anchor="start" x="21.83" y="-329.5" font-family="Helvetica,sans-Serif" font-size="10.00">+</text>
<text text-anchor="start" x="38.83" y="-329.5" font-family="Helvetica,sans-Serif" font-size="10.00">operator+=()</text>
<text text-anchor="start" x="21.83" y="-314.5" font-family="Helvetica,sans-Serif" font-size="10.00">+</text>
<text text-anchor="start" x="38.83" y="-314.5" font-family="Helvetica,sans-Serif" font-size="10.00">operator&#45;()</text>
<polygon fill="#666666" stroke="#666666" points="13.83,-459.5 13.83,-459.5 116.83,-459.5 116.83,-459.5 13.83,-459.5"/>
<polygon fill="#666666" stroke="#666666" points="13.83,-414.5 13.83,-414.5 36.83,-414.5 36.83,-414.5 13.83,-414.5"/>
<polygon fill="#666666" stroke="#666666" points="36.83,-414.5 36.83,-414.5 116.83,-414.5 116.83,-414.5 36.83,-414.5"/>
<polygon fill="none" stroke="#666666" points="13.33,-308 13.33,-477 116.33,-477 116.33,-308 13.33,-308"/>
</a>
</g>
</g>
<!-- Node2&#45;&gt;Node1 -->
<g id="edge1_Node000001_Node000002" class="edge">
<title>Node2&#45;&gt;Node1</title>
<g id="a_edge1_Node000001_Node000002"><a xlink:title=" ">
<path fill="none" stroke="#63b8ff" d="M22.05,-307.78C2.45,-257.29 -11.25,-192.91 14.83,-141 28.27,-114.25 53.45,-93.24 77.72,-78.02"/>
<polygon fill="none" stroke="#63b8ff" points="77.73,-78.01 80.82,-71.5 88.02,-71.85 84.93,-78.36 77.73,-78.01"/>
</a>
</g>
<text text-anchor="middle" x="40.83" y="-170.5" font-family="Helvetica,sans-Serif" font-size="10.00" fill="grey"> &#45;_position</text>
</g>
<!-- Node4 -->
<g id="Node000004" class="node">
<title>Node4</title>
<g id="a_Node000004"><a xlink:href="classGeometry_1_1Rectangle3D.html" target="_top" xlink:title=" ">
<polygon fill="white" stroke="transparent" points="203.33,-205 76.33,-205 76.33,-141 203.33,-141 203.33,-205"/>
<text text-anchor="start" x="81.83" y="-193" font-family="Helvetica,sans-Serif" font-size="10.00">Geometry::Rectangle3D</text>
<text text-anchor="start" x="138.33" y="-178" font-family="Helvetica,sans-Serif" font-size="10.00"> </text>
<text text-anchor="start" x="89.83" y="-163" font-family="Helvetica,sans-Serif" font-size="10.00">+</text>
<text text-anchor="start" x="111.83" y="-163" font-family="Helvetica,sans-Serif" font-size="10.00">Rectangle3D()</text>
<text text-anchor="start" x="89.83" y="-148" font-family="Helvetica,sans-Serif" font-size="10.00">+</text>
<text text-anchor="start" x="111.83" y="-148" font-family="Helvetica,sans-Serif" font-size="10.00">pointAt()</text>
<polygon fill="#666666" stroke="#666666" points="76.83,-188 76.83,-188 203.83,-188 203.83,-188 76.83,-188"/>
<polygon fill="#666666" stroke="#666666" points="76.83,-173 76.83,-173 203.83,-173 203.83,-173 76.83,-173"/>
<polygon fill="none" stroke="#666666" points="76.33,-141 76.33,-205 203.33,-205 203.33,-141 76.33,-141"/>
</a>
</g>
</g>
<!-- Node2&#45;&gt;Node4 -->
<g id="edge4_Node000004_Node000002" class="edge">
<title>Node2&#45;&gt;Node4</title>
<g id="a_edge4_Node000004_Node000002"><a xlink:title=" ">
<path fill="none" stroke="#63b8ff" d="M82.16,-307.62C89.18,-280.09 98.37,-249.71 109.83,-223 110.82,-220.67 111.92,-218.32 113.08,-215.98"/>
<polygon fill="none" stroke="#63b8ff" points="113.22,-215.74 112.55,-208.56 118.91,-205.18 119.59,-212.36 113.22,-215.74"/>
</a>
</g>
<text text-anchor="middle" x="129.83" y="-231.5" font-family="Helvetica,sans-Serif" font-size="10.00" fill="grey"> +origin</text>
</g>
<!-- Node3 -->
<g id="Node000003" class="node">
<title>Node3</title>
<g id="a_Node000003"><a xlink:href="classGeometry_1_1Vector3D.html" target="_top" xlink:title=" ">
<polygon fill="white" stroke="transparent" points="248.33,-522 139.33,-522 139.33,-263 248.33,-263 248.33,-522"/>
<text text-anchor="start" x="144.83" y="-509.5" font-family="Helvetica,sans-Serif" font-size="10.00">Geometry::Vector3D</text>
<text text-anchor="start" x="149.33" y="-494.5" font-family="Helvetica,sans-Serif" font-size="10.00">+</text>
<text text-anchor="start" x="167.83" y="-494.5" font-family="Helvetica,sans-Serif" font-size="10.00">x</text>
<text text-anchor="start" x="149.33" y="-479.5" font-family="Helvetica,sans-Serif" font-size="10.00">+</text>
<text text-anchor="start" x="167.83" y="-479.5" font-family="Helvetica,sans-Serif" font-size="10.00">y</text>
<text text-anchor="start" x="149.33" y="-464.5" font-family="Helvetica,sans-Serif" font-size="10.00">+</text>
<text text-anchor="start" x="167.83" y="-464.5" font-family="Helvetica,sans-Serif" font-size="10.00">z</text>
<text text-anchor="start" x="149.33" y="-449.5" font-family="Helvetica,sans-Serif" font-size="10.00">+</text>
<text text-anchor="start" x="167.83" y="-449.5" font-family="Helvetica,sans-Serif" font-size="10.00">Vector3D()</text>
<text text-anchor="start" x="149.33" y="-434.5" font-family="Helvetica,sans-Serif" font-size="10.00">+</text>
<text text-anchor="start" x="167.83" y="-434.5" font-family="Helvetica,sans-Serif" font-size="10.00">Vector3D()</text>
<text text-anchor="start" x="149.33" y="-419.5" font-family="Helvetica,sans-Serif" font-size="10.00">+</text>
<text text-anchor="start" x="167.83" y="-419.5" font-family="Helvetica,sans-Serif" font-size="10.00">~Vector3D()</text>
<text text-anchor="start" x="149.33" y="-404.5" font-family="Helvetica,sans-Serif" font-size="10.00">+</text>
<text text-anchor="start" x="167.83" y="-404.5" font-family="Helvetica,sans-Serif" font-size="10.00">length()</text>
<text text-anchor="start" x="149.33" y="-389.5" font-family="Helvetica,sans-Serif" font-size="10.00">+</text>
<text text-anchor="start" x="167.83" y="-389.5" font-family="Helvetica,sans-Serif" font-size="10.00">length()</text>
<text text-anchor="start" x="149.33" y="-374.5" font-family="Helvetica,sans-Serif" font-size="10.00">+</text>
<text text-anchor="start" x="167.83" y="-374.5" font-family="Helvetica,sans-Serif" font-size="10.00">dot()</text>
<text text-anchor="start" x="149.33" y="-359.5" font-family="Helvetica,sans-Serif" font-size="10.00">+</text>
<text text-anchor="start" x="167.83" y="-359.5" font-family="Helvetica,sans-Serif" font-size="10.00">normalize()</text>
<text text-anchor="start" x="149.33" y="-344.5" font-family="Helvetica,sans-Serif" font-size="10.00">+</text>
<text text-anchor="start" x="167.83" y="-344.5" font-family="Helvetica,sans-Serif" font-size="10.00">operator+()</text>
<text text-anchor="start" x="149.33" y="-329.5" font-family="Helvetica,sans-Serif" font-size="10.00">+</text>
<text text-anchor="start" x="167.83" y="-329.5" font-family="Helvetica,sans-Serif" font-size="10.00">operator+=()</text>
<text text-anchor="start" x="149.33" y="-314.5" font-family="Helvetica,sans-Serif" font-size="10.00">+</text>
<text text-anchor="start" x="167.83" y="-314.5" font-family="Helvetica,sans-Serif" font-size="10.00">operator&#45;()</text>
<text text-anchor="start" x="167.83" y="-299.5" font-family="Helvetica,sans-Serif" font-size="10.00">and 9 more...</text>
<text text-anchor="start" x="149.33" y="-284.5" font-family="Helvetica,sans-Serif" font-size="10.00">+</text>
<text text-anchor="start" x="167.83" y="-284.5" font-family="Helvetica,sans-Serif" font-size="10.00">dot()</text>
<text text-anchor="start" x="149.33" y="-269.5" font-family="Helvetica,sans-Serif" font-size="10.00">+</text>
<text text-anchor="start" x="167.83" y="-269.5" font-family="Helvetica,sans-Serif" font-size="10.00">cross()</text>
<polygon fill="#666666" stroke="#666666" points="139.83,-504.5 139.83,-504.5 248.83,-504.5 248.83,-504.5 139.83,-504.5"/>
<polygon fill="#666666" stroke="#666666" points="139.83,-459.5 139.83,-459.5 165.83,-459.5 165.83,-459.5 139.83,-459.5"/>
<polygon fill="#666666" stroke="#666666" points="165.83,-459.5 165.83,-459.5 248.83,-459.5 248.83,-459.5 165.83,-459.5"/>
<polygon fill="none" stroke="#666666" points="139.33,-263 139.33,-522 248.33,-522 248.33,-263 139.33,-263"/>
</a>
</g>
</g>
<!-- Node3&#45;&gt;Node1 -->
<g id="edge2_Node000001_Node000003" class="edge">
<title>Node3&#45;&gt;Node1</title>
<g id="a_edge2_Node000001_Node000003"><a xlink:title=" ">
<path fill="none" stroke="#63b8ff" d="M222.38,-262.82C226.15,-222.92 224.94,-179.37 211.83,-141 207.38,-128 200.3,-115.41 192.27,-103.91"/>
<polygon fill="none" stroke="#63b8ff" points="192.16,-103.75 185.37,-101.3 185.02,-94.1 191.8,-96.55 192.16,-103.75"/>
</a>
</g>
<text text-anchor="middle" x="251.33" y="-170.5" font-family="Helvetica,sans-Serif" font-size="10.00" fill="grey"> &#45;_direction</text>
</g>
<!-- Node3&#45;&gt;Node4 -->
<g id="edge5_Node000004_Node000003" class="edge">
<title>Node3&#45;&gt;Node4</title>
<g id="a_edge5_Node000004_Node000003"><a xlink:title=" ">
<path fill="none" stroke="#63b8ff" d="M161.87,-262.78C157.79,-246.35 153.87,-230.54 150.49,-216.94"/>
<polygon fill="none" stroke="#63b8ff" points="150.44,-216.76 145.12,-211.9 147.55,-205.11 152.88,-209.97 150.44,-216.76"/>
</a>
</g>
<text text-anchor="middle" x="179.33" y="-237" font-family="Helvetica,sans-Serif" font-size="10.00" fill="grey"> +height</text>
<text text-anchor="middle" x="179.33" y="-226" font-family="Helvetica,sans-Serif" font-size="10.00" fill="grey">+width</text>
</g>
<!-- Node4&#45;&gt;Node1 -->
<g id="edge3_Node000001_Node000004" class="edge">
<title>Node4&#45;&gt;Node1</title>
<g id="a_edge3_Node000001_Node000004"><a xlink:title=" ">
<path fill="none" stroke="#63b8ff" d="M139.83,-140.71C139.83,-130.27 139.83,-118.28 139.83,-106.46"/>
<polygon fill="none" stroke="#63b8ff" points="139.83,-106.28 135.83,-100.28 139.83,-94.28 143.83,-100.28 139.83,-106.28"/>
</a>
</g>
<text text-anchor="middle" x="162.33" y="-115" font-family="Helvetica,sans-Serif" font-size="10.00" fill="grey"> &#45;_screen</text>
</g>
</g>
</svg>
