<?xml version="1.0" encoding="UTF-8" standalone="no"?>
<!DOCTYPE svg PUBLIC "-//W3C//DTD SVG 1.1//EN"
 "http://www.w3.org/Graphics/SVG/1.1/DTD/svg11.dtd">
<!-- Generated by graphviz version 2.43.0 (0)
 -->
<!-- Title: RayTracer::ARenderer::render Pages: 1 -->
<svg width="454pt" height="38pt"
 viewBox="0.00 0.00 454.00 38.00" xmlns="http://www.w3.org/2000/svg" xmlns:xlink="http://www.w3.org/1999/xlink">
<g id="graph0" class="graph" transform="scale(1 1) rotate(0) translate(4 34)">
<title>RayTracer::ARenderer::render</title>
<!-- Node1 -->
<g id="Node000001" class="node">
<title>Node1</title>
<g id="a_Node000001"><a xlink:title="Render a scene into the provided framebuffer and return it. Implementations should fill/resize frameb...">
<polygon fill="#999999" stroke="#666666" points="446,-30 324,-30 324,0 446,0 446,-30"/>
<text text-anchor="start" x="332" y="-18" font-family="Helvetica,sans-Serif" font-size="10.00">RayTracer::ARenderer</text>
<text text-anchor="middle" x="385" y="-7" font-family="Helvetica,sans-Serif" font-size="10.00">::render</text>
</a>
</g>
</g>
<!-- Node2 -->
<g id="Node000002" class="node">
<title>Node2</title>
<g id="a_Node000002"><a xlink:href="classRayTracer_1_1ARenderer.html#a3280ccfc3779b2f93695b65e94166294" target="_top" xlink:title="Convenience: allocate a framebuffer of the renderer&#39;s size and call the two&#45;argument render overload.">
<polygon fill="white" stroke="#666666" points="288,-30 166,-30 166,0 288,0 288,-30"/>
<text text-anchor="start" x="174" y="-18" font-family="Helvetica,sans-Serif" font-size="10.00">RayTracer::ARenderer</text>
<text text-anchor="middle" x="227" y="-7" font-family="Helvetica,sans-Serif" font-size="10.00">::render</text>
</a>
</g>
</g>
<!-- Node1&#45;&gt;Node2 -->
<g id="edge1_Node000001_Node000002" class="edge">
<title>Node1&#45;&gt;Node2</title>
<g id="a_edge1_Node000001_Node000002"><a xlink:title=" ">
<path fill="none" stroke="#63b8ff" d="M313.46,-15C305.01,-15 296.44,-15 288.15,-15"/>
<polygon fill="#63b8ff" stroke="#63b8ff" points="313.69,-18.5 323.69,-15 313.69,-11.5 313.69,-18.5"/>
</a>
</g>
</g>
<!-- Node3 -->
<g id="Node000003" class="node">
<title>Node3</title>
<g id="a_Node000003"><a xlink:href="classRayTracer_1_1SceneWriter.html#ab3bd12d86ff87ea7fb238197f3630a49" target="_top" xlink:title="Render the scene and write the framebuffer to a PPM file.">
<polygon fill="white" stroke="#666666" points="130,-30 0,-30 0,0 130,0 130,-30"/>
<text text-anchor="start" x="8" y="-18" font-family="Helvetica,sans-Serif" font-size="10.00">RayTracer::SceneWriter</text>
<text text-anchor="middle" x="65" y="-7" font-family="Helvetica,sans-Serif" font-size="10.00">::execute</text>
</a>
</g>
</g>
<!-- Node2&#45;&gt;Node3 -->
<g id="edge2_Node000002_Node000003" class="edge">
<title>Node2&#45;&gt;Node3</title>
<g id="a_edge2_Node000002_Node000003"><a xlink:title=" ">
<path fill="none" stroke="#63b8ff" d="M155.69,-15C147.18,-15 138.53,-15 130.12,-15"/>
<polygon fill="#63b8ff" stroke="#63b8ff" points="155.97,-18.5 165.97,-15 155.97,-11.5 155.97,-18.5"/>
</a>
</g>
</g>
</g>
</svg>
