<?xml version="1.0" encoding="UTF-8" standalone="no"?>
<!DOCTYPE svg PUBLIC "-//W3C//DTD SVG 1.1//EN"
 "http://www.w3.org/Graphics/SVG/1.1/DTD/svg11.dtd">
<!-- Generated by graphviz version 2.43.0 (0)
 -->
<!-- Title: RayTracer::Lambertian Pages: 1 -->
<svg width="128pt" height="392pt"
 viewBox="0.00 0.00 128.00 392.00" xmlns="http://www.w3.org/2000/svg" xmlns:xlink="http://www.w3.org/1999/xlink">
<g id="graph0" class="graph" transform="scale(1 1) rotate(0) translate(4 388)">
<title>RayTracer::Lambertian</title>
<!-- Node1 -->
<g id="Node000001" class="node">
<title>Node1</title>
<g id="a_Node000001"><a xlink:title=" ">
<polygon fill="#999999" stroke="transparent" points="120,-124 0,-124 0,0 120,0 120,-124"/>
<text text-anchor="start" x="5" y="-112" font-family="Helvetica,sans-Serif" font-size="10.00">RayTracer::Lambertian</text>
<text text-anchor="start" x="58" y="-97" font-family="Helvetica,sans-Serif" font-size="10.00"> </text>
<text text-anchor="start" x="10.5" y="-82" font-family="Helvetica,sans-Serif" font-size="10.00">+</text>
<text text-anchor="start" x="30" y="-82" font-family="Helvetica,sans-Serif" font-size="10.00">Lambertian()</text>
<text text-anchor="start" x="10.5" y="-67" font-family="Helvetica,sans-Serif" font-size="10.00">+</text>
<text text-anchor="start" x="30" y="-67" font-family="Helvetica,sans-Serif" font-size="10.00">~Lambertian()</text>
<text text-anchor="start" x="10.5" y="-52" font-family="Helvetica,sans-Serif" font-size="10.00">+</text>
<text text-anchor="start" x="30" y="-52" font-family="Helvetica,sans-Serif" font-size="10.00">evaluate()</text>
<text text-anchor="start" x="10.5" y="-37" font-family="Helvetica,sans-Serif" font-size="10.00">+</text>
<text text-anchor="start" x="30" y="-37" font-family="Helvetica,sans-Serif" font-size="10.00">sample()</text>
<text text-anchor="start" x="10.5" y="-22" font-family="Helvetica,sans-Serif" font-size="10.00">+</text>
<text text-anchor="start" x="30" y="-22" font-family="Helvetica,sans-Serif" font-size="10.00">pdf()</text>
<text text-anchor="start" x="10.5" y="-7" font-family="Helvetica,sans-Serif" font-size="10.00">+</text>
<text text-anchor="start" x="30" y="-7" font-family="Helvetica,sans-Serif" font-size="10.00">emission()</text>
<polygon fill="#666666" stroke="#666666" points="0,-107 0,-107 120,-107 120,-107 0,-107"/>
<polygon fill="#666666" stroke="#666666" points="0,-92 0,-92 120,-92 120,-92 0,-92"/>
<polygon fill="none" stroke="#666666" points="0,0 0,-124 120,-124 120,0 0,0"/>
</a>
</g>
</g>
<!-- Node2 -->
<g id="Node000002" class="node">
<title>Node2</title>
<g id="a_Node000002"><a xlink:href="classRayTracer_1_1AMaterial.html" target="_top" xlink:title="Abstract base class for all materials. Defines the interface for evaluating the BRDF,...">
<polygon fill="white" stroke="transparent" points="116,-239 4,-239 4,-160 116,-160 116,-239"/>
<text text-anchor="start" x="9" y="-226.5" font-family="Helvetica,sans-Serif" font-size="10.00">RayTracer::AMaterial</text>
<text text-anchor="start" x="14.5" y="-211.5" font-family="Helvetica,sans-Serif" font-size="10.00">#</text>
<text text-anchor="start" x="34" y="-211.5" font-family="Helvetica,sans-Serif" font-size="10.00">_albedo</text>
<text text-anchor="start" x="14.5" y="-196.5" font-family="Helvetica,sans-Serif" font-size="10.00">+</text>
<text text-anchor="start" x="34" y="-196.5" font-family="Helvetica,sans-Serif" font-size="10.00">AMaterial()</text>
<text text-anchor="start" x="14.5" y="-181.5" font-family="Helvetica,sans-Serif" font-size="10.00">+</text>
<text text-anchor="start" x="34" y="-181.5" font-family="Helvetica,sans-Serif" font-size="10.00">AMaterial()</text>
<text text-anchor="start" x="14.5" y="-166.5" font-family="Helvetica,sans-Serif" font-size="10.00">+</text>
<text text-anchor="start" x="34" y="-166.5" font-family="Helvetica,sans-Serif" font-size="10.00">~AMaterial()</text>
<polygon fill="#666666" stroke="#666666" points="4,-221.5 4,-221.5 116,-221.5 116,-221.5 4,-221.5"/>
<polygon fill="#666666" stroke="#666666" points="4,-206.5 4,-206.5 32,-206.5 32,-206.5 4,-206.5"/>
<polygon fill="#666666" stroke="#666666" points="32,-206.5 32,-206.5 116,-206.5 116,-206.5 32,-206.5"/>
<polygon fill="none" stroke="#666666" points="4,-160 4,-239 116,-239 116,-160 4,-160"/>
</a>
</g>
</g>
<!-- Node2&#45;&gt;Node1 -->
<g id="edge1_Node000001_Node000002" class="edge">
<title>Node2&#45;&gt;Node1</title>
<g id="a_edge1_Node000001_Node000002"><a xlink:title=" ">
<path fill="none" stroke="#63b8ff" d="M60,-149.48C60,-141.24 60,-132.59 60,-124.09"/>
<polygon fill="none" stroke="#63b8ff" points="56.5,-149.67 60,-159.67 63.5,-149.67 56.5,-149.67"/>
</a>
</g>
</g>
<!-- Node3 -->
<g id="Node000003" class="node">
<title>Node3</title>
<g id="a_Node000003"><a xlink:href="classRayTracer_1_1IMaterial.html" target="_top" xlink:title="Interface for physically&#45;based surface materials.">
<polygon fill="white" stroke="transparent" points="114,-384 6,-384 6,-275 114,-275 114,-384"/>
<text text-anchor="start" x="11" y="-371.5" font-family="Helvetica,sans-Serif" font-size="10.00">RayTracer::IMaterial</text>
<text text-anchor="start" x="58" y="-356.5" font-family="Helvetica,sans-Serif" font-size="10.00"> </text>
<text text-anchor="start" x="16.5" y="-341.5" font-family="Helvetica,sans-Serif" font-size="10.00">+</text>
<text text-anchor="start" x="36" y="-341.5" font-family="Helvetica,sans-Serif" font-size="10.00">~IMaterial()</text>
<text text-anchor="start" x="16.5" y="-326.5" font-family="Helvetica,sans-Serif" font-size="10.00">+</text>
<text text-anchor="start" x="36" y="-326.5" font-family="Helvetica,sans-Serif" font-size="10.00">evaluate()</text>
<text text-anchor="start" x="16.5" y="-311.5" font-family="Helvetica,sans-Serif" font-size="10.00">+</text>
<text text-anchor="start" x="36" y="-311.5" font-family="Helvetica,sans-Serif" font-size="10.00">sample()</text>
<text text-anchor="start" x="16.5" y="-296.5" font-family="Helvetica,sans-Serif" font-size="10.00">+</text>
<text text-anchor="start" x="36" y="-296.5" font-family="Helvetica,sans-Serif" font-size="10.00">pdf()</text>
<text text-anchor="start" x="16.5" y="-281.5" font-family="Helvetica,sans-Serif" font-size="10.00">+</text>
<text text-anchor="start" x="36" y="-281.5" font-family="Helvetica,sans-Serif" font-size="10.00">emission()</text>
<polygon fill="#666666" stroke="#666666" points="6,-366.5 6,-366.5 114,-366.5 114,-366.5 6,-366.5"/>
<polygon fill="#666666" stroke="#666666" points="6,-351.5 6,-351.5 114,-351.5 114,-351.5 6,-351.5"/>
<polygon fill="none" stroke="#666666" points="6,-275 6,-384 114,-384 114,-275 6,-275"/>
</a>
</g>
</g>
<!-- Node3&#45;&gt;Node2 -->
<g id="edge2_Node000002_Node000003" class="edge">
<title>Node3&#45;&gt;Node2</title>
<g id="a_edge2_Node000002_Node000003"><a xlink:title=" ">
<path fill="none" stroke="#63b8ff" d="M60,-264.7C60,-255.93 60,-247.16 60,-239.03"/>
<polygon fill="none" stroke="#63b8ff" points="56.5,-264.96 60,-274.96 63.5,-264.96 56.5,-264.96"/>
</a>
</g>
</g>
</g>
</svg>
