<?xml version="1.0" encoding="UTF-8" standalone="no"?>
<!DOCTYPE svg PUBLIC "-//W3C//DTD SVG 1.1//EN"
 "http://www.w3.org/Graphics/SVG/1.1/DTD/svg11.dtd">
<!-- Generated by graphviz version 2.43.0 (0)
 -->
<!-- Title: RayTracer::Phong::sample Pages: 1 -->
<svg width="475pt" height="247pt"
 viewBox="0.00 0.00 475.00 246.74" xmlns="http://www.w3.org/2000/svg" xmlns:xlink="http://www.w3.org/1999/xlink">
<g id="graph0" class="graph" transform="scale(1 1) rotate(0) translate(4 242.74)">
<title>RayTracer::Phong::sample</title>
<!-- Node1 -->
<g id="Node000001" class="node">
<title>Node1</title>
<g id="a_Node000001"><a xlink:title="Return the deterministic bounce direction for this material.">
<polygon fill="#999999" stroke="#666666" points="143,-141.5 0,-141.5 0,-122.5 143,-122.5 143,-141.5"/>
<text text-anchor="middle" x="71.5" y="-129.5" font-family="Helvetica,sans-Serif" font-size="10.00">RayTracer::Phong::sample</text>
</a>
</g>
</g>
<!-- Node2 -->
<g id="Node000002" class="node">
<title>Node2</title>
<g id="a_Node000002"><a xlink:href="classGeometry_1_1Vector3D.html#ae4c5a52ebf282e334801c8ee28ad8d5d" target="_top" xlink:title=" ">
<polygon fill="white" stroke="#666666" points="467,-126 352,-126 352,-96 467,-96 467,-126"/>
<text text-anchor="start" x="360" y="-114" font-family="Helvetica,sans-Serif" font-size="10.00">Geometry::Vector3D</text>
<text text-anchor="middle" x="409.5" y="-103" font-family="Helvetica,sans-Serif" font-size="10.00">::Vector3D</text>
</a>
</g>
</g>
<!-- Node1&#45;&gt;Node2 -->
<g id="edge1_Node000001_Node000002" class="edge">
<title>Node1&#45;&gt;Node2</title>
<g id="a_edge1_Node000001_Node000002"><a xlink:title=" ">
<path fill="none" stroke="#63b8ff" d="M79.99,-141.72C95.76,-161.28 134.6,-204.89 179,-221 236.24,-241.77 260.8,-246.7 316,-221 353.67,-203.46 381.48,-162.18 396.31,-135.48"/>
<polygon fill="#63b8ff" stroke="#63b8ff" points="399.55,-136.84 401.18,-126.37 393.38,-133.54 399.55,-136.84"/>
</a>
</g>
</g>
<!-- Node3 -->
<g id="Node000003" class="node">
<title>Node3</title>
<g id="a_Node000003"><a xlink:href="classGeometry_1_1Vector3D.html#a7157de1fcf830b27bf4b2df43e6b6112" target="_top" xlink:title=" ">
<polygon fill="white" stroke="#666666" points="305,-212 190,-212 190,-182 305,-182 305,-212"/>
<text text-anchor="start" x="198" y="-200" font-family="Helvetica,sans-Serif" font-size="10.00">Geometry::Vector3D</text>
<text text-anchor="middle" x="247.5" y="-189" font-family="Helvetica,sans-Serif" font-size="10.00">::cross</text>
</a>
</g>
</g>
<!-- Node1&#45;&gt;Node3 -->
<g id="edge2_Node000001_Node000003" class="edge">
<title>Node1&#45;&gt;Node3</title>
<g id="a_edge2_Node000001_Node000003"><a xlink:title=" ">
<path fill="none" stroke="#63b8ff" d="M96.97,-141.63C118.51,-150.05 150.76,-162.55 179,-173 183.83,-174.79 188.87,-176.63 193.92,-178.45"/>
<polygon fill="#63b8ff" stroke="#63b8ff" points="193,-181.84 203.59,-181.93 195.36,-175.25 193,-181.84"/>
</a>
</g>
</g>
<!-- Node4 -->
<g id="Node000004" class="node">
<title>Node4</title>
<g id="a_Node000004"><a xlink:href="classGeometry_1_1Vector3D.html#affb9009fe58aafa334f1f5f703feceb3" target="_top" xlink:title=" ">
<polygon fill="white" stroke="#666666" points="316,-163.5 179,-163.5 179,-144.5 316,-144.5 316,-163.5"/>
<text text-anchor="middle" x="247.5" y="-151.5" font-family="Helvetica,sans-Serif" font-size="10.00">Geometry::Vector3D::dot</text>
</a>
</g>
</g>
<!-- Node1&#45;&gt;Node4 -->
<g id="edge4_Node000001_Node000004" class="edge">
<title>Node1&#45;&gt;Node4</title>
<g id="a_edge4_Node000001_Node000004"><a xlink:title=" ">
<path fill="none" stroke="#63b8ff" d="M143.02,-140.92C151.55,-142 160.3,-143.1 168.93,-144.19"/>
<polygon fill="#63b8ff" stroke="#63b8ff" points="168.62,-147.68 178.98,-145.46 169.5,-140.74 168.62,-147.68"/>
</a>
</g>
</g>
<!-- Node5 -->
<g id="Node000005" class="node">
<title>Node5</title>
<g id="a_Node000005"><a xlink:href="classGeometry_1_1Vector3D.html#a388f7af8bf0095c817e89b5b2518fda7" target="_top" xlink:title=" ">
<polygon fill="white" stroke="#666666" points="305,-30 190,-30 190,0 305,0 305,-30"/>
<text text-anchor="start" x="198" y="-18" font-family="Helvetica,sans-Serif" font-size="10.00">Geometry::Vector3D</text>
<text text-anchor="middle" x="247.5" y="-7" font-family="Helvetica,sans-Serif" font-size="10.00">::normalize</text>
</a>
</g>
</g>
<!-- Node1&#45;&gt;Node5 -->
<g id="edge5_Node000001_Node000005" class="edge">
<title>Node1&#45;&gt;Node5</title>
<g id="a_edge5_Node000001_Node000005"><a xlink:title=" ">
<path fill="none" stroke="#63b8ff" d="M81.25,-122.22C98.35,-103.64 138.12,-62.94 179,-39 181.84,-37.33 184.82,-35.76 187.88,-34.27"/>
<polygon fill="#63b8ff" stroke="#63b8ff" points="189.54,-37.36 197.21,-30.06 186.66,-30.98 189.54,-37.36"/>
</a>
</g>
</g>
<!-- Node7 -->
<g id="Node000007" class="node">
<title>Node7</title>
<g id="a_Node000007"><a xlink:href="classGeometry_1_1Vector3D.html#aa583eecc673b26ce6058e6dd00238a62" target="_top" xlink:title=" ">
<polygon fill="white" stroke="#666666" points="305,-126 190,-126 190,-96 305,-96 305,-126"/>
<text text-anchor="start" x="198" y="-114" font-family="Helvetica,sans-Serif" font-size="10.00">Geometry::Vector3D</text>
<text text-anchor="middle" x="247.5" y="-103" font-family="Helvetica,sans-Serif" font-size="10.00">::operator*</text>
</a>
</g>
</g>
<!-- Node1&#45;&gt;Node7 -->
<g id="edge8_Node000001_Node000007" class="edge">
<title>Node1&#45;&gt;Node7</title>
<g id="a_edge8_Node000001_Node000007"><a xlink:title=" ">
<path fill="none" stroke="#63b8ff" d="M143.02,-123.49C155.17,-122.02 167.75,-120.5 179.79,-119.05"/>
<polygon fill="#63b8ff" stroke="#63b8ff" points="180.25,-122.52 189.75,-117.85 179.41,-115.57 180.25,-122.52"/>
</a>
</g>
</g>
<!-- Node8 -->
<g id="Node000008" class="node">
<title>Node8</title>
<g id="a_Node000008"><a xlink:href="classGeometry_1_1Vector3D.html#a12618c1c19f8fdd6ad13fa1c7c9147c0" target="_top" xlink:title=" ">
<polygon fill="white" stroke="#666666" points="305,-78 190,-78 190,-48 305,-48 305,-78"/>
<text text-anchor="start" x="198" y="-66" font-family="Helvetica,sans-Serif" font-size="10.00">Geometry::Vector3D</text>
<text text-anchor="middle" x="247.5" y="-55" font-family="Helvetica,sans-Serif" font-size="10.00">::operator&#45;</text>
</a>
</g>
</g>
<!-- Node1&#45;&gt;Node8 -->
<g id="edge10_Node000001_Node000008" class="edge">
<title>Node1&#45;&gt;Node8</title>
<g id="a_edge10_Node000001_Node000008"><a xlink:title=" ">
<path fill="none" stroke="#63b8ff" d="M93.97,-122.49C115.37,-113.12 149.25,-98.56 179,-87 183.54,-85.23 188.28,-83.45 193.04,-81.69"/>
<polygon fill="#63b8ff" stroke="#63b8ff" points="194.6,-84.84 202.79,-78.12 192.2,-78.27 194.6,-84.84"/>
</a>
</g>
</g>
<!-- Node3&#45;&gt;Node2 -->
<g id="edge3_Node000003_Node000002" class="edge">
<title>Node3&#45;&gt;Node2</title>
<g id="a_edge3_Node000003_Node000002"><a xlink:title=" ">
<path fill="none" stroke="#63b8ff" d="M295.61,-181.95C302.57,-179.25 309.56,-176.24 316,-173 339.01,-161.43 363.11,-145.11 380.95,-132.12"/>
<polygon fill="#63b8ff" stroke="#63b8ff" points="383.21,-134.81 389.17,-126.05 379.04,-129.18 383.21,-134.81"/>
</a>
</g>
</g>
<!-- Node5&#45;&gt;Node2 -->
<g id="edge6_Node000005_Node000002" class="edge">
<title>Node5&#45;&gt;Node2</title>
<g id="a_edge6_Node000005_Node000002"><a xlink:title=" ">
<path fill="none" stroke="#63b8ff" d="M296.9,-30.07C303.47,-32.73 310,-35.71 316,-39 341.22,-52.83 366.79,-73.34 384.64,-88.93"/>
<polygon fill="#63b8ff" stroke="#63b8ff" points="382.46,-91.68 392.26,-95.71 387.11,-86.45 382.46,-91.68"/>
</a>
</g>
</g>
<!-- Node6 -->
<g id="Node000006" class="node">
<title>Node6</title>
<g id="a_Node000006"><a xlink:href="classGeometry_1_1Vector3D.html#a8966b188a3b6d27793b3896618fea42c" target="_top" xlink:title="Calculate the length (magnitude) of this vector.">
<polygon fill="white" stroke="#666666" points="467,-30 352,-30 352,0 467,0 467,-30"/>
<text text-anchor="start" x="360" y="-18" font-family="Helvetica,sans-Serif" font-size="10.00">Geometry::Vector3D</text>
<text text-anchor="middle" x="409.5" y="-7" font-family="Helvetica,sans-Serif" font-size="10.00">::length</text>
</a>
</g>
</g>
<!-- Node5&#45;&gt;Node6 -->
<g id="edge7_Node000005_Node000006" class="edge">
<title>Node5&#45;&gt;Node6</title>
<g id="a_edge7_Node000005_Node000006"><a xlink:title=" ">
<path fill="none" stroke="#63b8ff" d="M305.36,-15C317.15,-15 329.67,-15 341.78,-15"/>
<polygon fill="#63b8ff" stroke="#63b8ff" points="341.82,-18.5 351.82,-15 341.82,-11.5 341.82,-18.5"/>
</a>
</g>
</g>
<!-- Node7&#45;&gt;Node2 -->
<g id="edge9_Node000007_Node000002" class="edge">
<title>Node7&#45;&gt;Node2</title>
<g id="a_edge9_Node000007_Node000002"><a xlink:title=" ">
<path fill="none" stroke="#63b8ff" d="M305.36,-111C317.15,-111 329.67,-111 341.78,-111"/>
<polygon fill="#63b8ff" stroke="#63b8ff" points="341.82,-114.5 351.82,-111 341.82,-107.5 341.82,-114.5"/>
</a>
</g>
</g>
<!-- Node8&#45;&gt;Node2 -->
<g id="edge11_Node000008_Node000002" class="edge">
<title>Node8&#45;&gt;Node2</title>
<g id="a_edge11_Node000008_Node000002"><a xlink:title=" ">
<path fill="none" stroke="#63b8ff" d="M298.69,-78.06C314.47,-82.79 332.07,-88.07 348.46,-92.99"/>
<polygon fill="#63b8ff" stroke="#63b8ff" points="347.91,-96.48 358.49,-96 349.92,-89.77 347.91,-96.48"/>
</a>
</g>
</g>
</g>
</svg>
