<?xml version="1.0" encoding="UTF-8" standalone="no"?>
<!DOCTYPE svg PUBLIC "-//W3C//DTD SVG 1.1//EN"
 "http://www.w3.org/Graphics/SVG/1.1/DTD/svg11.dtd">
<!-- Generated by graphviz version 2.43.0 (0)
 -->
<!-- Title: RayTracer::Phong::evaluate Pages: 1 -->
<svg width="509pt" height="246pt"
 viewBox="0.00 0.00 509.00 246.00" xmlns="http://www.w3.org/2000/svg" xmlns:xlink="http://www.w3.org/1999/xlink">
<g id="graph0" class="graph" transform="scale(1 1) rotate(0) translate(4 242)">
<title>RayTracer::Phong::evaluate</title>
<!-- Node1 -->
<g id="Node000001" class="node">
<title>Node1</title>
<g id="a_Node000001"><a xlink:title="Evaluate the BRDF for a given pair of directions.">
<polygon fill="#999999" stroke="#666666" points="149,-123 0,-123 0,-104 149,-104 149,-123"/>
<text text-anchor="middle" x="74.5" y="-111" font-family="Helvetica,sans-Serif" font-size="10.00">RayTracer::Phong::evaluate</text>
</a>
</g>
</g>
<!-- Node2 -->
<g id="Node000002" class="node">
<title>Node2</title>
<g id="a_Node000002"><a xlink:href="classGeometry_1_1Vector3D.html#affb9009fe58aafa334f1f5f703feceb3" target="_top" xlink:title=" ">
<polygon fill="white" stroke="#666666" points="329.5,-238 192.5,-238 192.5,-219 329.5,-219 329.5,-238"/>
<text text-anchor="middle" x="261" y="-226" font-family="Helvetica,sans-Serif" font-size="10.00">Geometry::Vector3D::dot</text>
</a>
</g>
</g>
<!-- Node1&#45;&gt;Node2 -->
<g id="edge1_Node000001_Node000002" class="edge">
<title>Node1&#45;&gt;Node2</title>
<g id="a_edge1_Node000001_Node000002"><a xlink:title=" ">
<path fill="none" stroke="#63b8ff" d="M83.5,-123.05C100.25,-142.42 141.14,-186.44 185,-209.5 189.49,-211.86 194.29,-213.94 199.21,-215.77"/>
<polygon fill="#63b8ff" stroke="#63b8ff" points="198.17,-219.11 208.77,-218.98 200.4,-212.47 198.17,-219.11"/>
</a>
</g>
</g>
<!-- Node3 -->
<g id="Node000003" class="node">
<title>Node3</title>
<g id="a_Node000003"><a xlink:href="classGeometry_1_1Vector3D.html#a388f7af8bf0095c817e89b5b2518fda7" target="_top" xlink:title=" ">
<polygon fill="white" stroke="#666666" points="318.5,-104.5 203.5,-104.5 203.5,-74.5 318.5,-74.5 318.5,-104.5"/>
<text text-anchor="start" x="211.5" y="-92.5" font-family="Helvetica,sans-Serif" font-size="10.00">Geometry::Vector3D</text>
<text text-anchor="middle" x="261" y="-81.5" font-family="Helvetica,sans-Serif" font-size="10.00">::normalize</text>
</a>
</g>
</g>
<!-- Node1&#45;&gt;Node3 -->
<g id="edge2_Node000001_Node000003" class="edge">
<title>Node1&#45;&gt;Node3</title>
<g id="a_edge2_Node000001_Node000003"><a xlink:title=" ">
<path fill="none" stroke="#63b8ff" d="M148.68,-103.98C163.34,-102.07 178.66,-100.08 193.09,-98.2"/>
<polygon fill="#63b8ff" stroke="#63b8ff" points="193.95,-101.62 203.42,-96.86 193.05,-94.68 193.95,-101.62"/>
</a>
</g>
</g>
<!-- Node6 -->
<g id="Node000006" class="node">
<title>Node6</title>
<g id="a_Node000006"><a xlink:href="classGeometry_1_1Vector3D.html#aa583eecc673b26ce6058e6dd00238a62" target="_top" xlink:title=" ">
<polygon fill="white" stroke="#666666" points="318.5,-200.5 203.5,-200.5 203.5,-170.5 318.5,-170.5 318.5,-200.5"/>
<text text-anchor="start" x="211.5" y="-188.5" font-family="Helvetica,sans-Serif" font-size="10.00">Geometry::Vector3D</text>
<text text-anchor="middle" x="261" y="-177.5" font-family="Helvetica,sans-Serif" font-size="10.00">::operator*</text>
</a>
</g>
</g>
<!-- Node1&#45;&gt;Node6 -->
<g id="edge5_Node000001_Node000006" class="edge">
<title>Node1&#45;&gt;Node6</title>
<g id="a_edge5_Node000001_Node000006"><a xlink:title=" ">
<path fill="none" stroke="#63b8ff" d="M95.82,-123.17C117.61,-133.35 153.35,-149.54 185,-161.5 190.12,-163.43 195.46,-165.35 200.85,-167.2"/>
<polygon fill="#63b8ff" stroke="#63b8ff" points="199.94,-170.59 210.53,-170.47 202.17,-163.96 199.94,-170.59"/>
</a>
</g>
</g>
<!-- Node7 -->
<g id="Node000007" class="node">
<title>Node7</title>
<g id="a_Node000007"><a xlink:href="structRayTracer_1_1Color.html#aefc65f4c5ffc2e9bca0a35e4e55d68b8" target="_top" xlink:title=" ">
<polygon fill="white" stroke="#666666" points="335.5,-56 186.5,-56 186.5,-37 335.5,-37 335.5,-56"/>
<text text-anchor="middle" x="261" y="-44" font-family="Helvetica,sans-Serif" font-size="10.00">RayTracer::Color::operator*</text>
</a>
</g>
</g>
<!-- Node1&#45;&gt;Node7 -->
<g id="edge7_Node000001_Node000007" class="edge">
<title>Node1&#45;&gt;Node7</title>
<g id="a_edge7_Node000001_Node000007"><a xlink:title=" ">
<path fill="none" stroke="#63b8ff" d="M94.89,-103.83C116.48,-93.34 152.61,-76.62 185,-65.5 192.16,-63.04 199.79,-60.75 207.35,-58.66"/>
<polygon fill="#63b8ff" stroke="#63b8ff" points="208.44,-62 217.2,-56.05 206.64,-55.23 208.44,-62"/>
</a>
</g>
</g>
<!-- Node9 -->
<g id="Node000009" class="node">
<title>Node9</title>
<g id="a_Node000009"><a xlink:href="structRayTracer_1_1Color.html#a327b4006c4abe3faf3491929b8ee1a7c" target="_top" xlink:title=" ">
<polygon fill="white" stroke="#666666" points="337,-19 185,-19 185,0 337,0 337,-19"/>
<text text-anchor="middle" x="261" y="-7" font-family="Helvetica,sans-Serif" font-size="10.00">RayTracer::Color::operator+</text>
</a>
</g>
</g>
<!-- Node1&#45;&gt;Node9 -->
<g id="edge9_Node000001_Node000009" class="edge">
<title>Node1&#45;&gt;Node9</title>
<g id="a_edge9_Node000001_Node000009"><a xlink:title=" ">
<path fill="none" stroke="#63b8ff" d="M84.78,-103.85C102.52,-85.98 143.22,-47.71 185,-27.5 189.04,-25.54 193.31,-23.79 197.68,-22.22"/>
<polygon fill="#63b8ff" stroke="#63b8ff" points="198.93,-25.5 207.35,-19.08 196.76,-18.84 198.93,-25.5"/>
</a>
</g>
</g>
<!-- Node10 -->
<g id="Node000010" class="node">
<title>Node10</title>
<g id="a_Node000010"><a xlink:href="classGeometry_1_1Vector3D.html#a12618c1c19f8fdd6ad13fa1c7c9147c0" target="_top" xlink:title=" ">
<polygon fill="white" stroke="#666666" points="318.5,-152.5 203.5,-152.5 203.5,-122.5 318.5,-122.5 318.5,-152.5"/>
<text text-anchor="start" x="211.5" y="-140.5" font-family="Helvetica,sans-Serif" font-size="10.00">Geometry::Vector3D</text>
<text text-anchor="middle" x="261" y="-129.5" font-family="Helvetica,sans-Serif" font-size="10.00">::operator&#45;</text>
</a>
</g>
</g>
<!-- Node1&#45;&gt;Node10 -->
<g id="edge11_Node000001_Node000010" class="edge">
<title>Node1&#45;&gt;Node10</title>
<g id="a_edge11_Node000001_Node000010"><a xlink:title=" ">
<path fill="none" stroke="#63b8ff" d="M148.68,-123.02C163.34,-124.93 178.66,-126.92 193.09,-128.8"/>
<polygon fill="#63b8ff" stroke="#63b8ff" points="193.05,-132.32 203.42,-130.14 193.95,-125.38 193.05,-132.32"/>
</a>
</g>
</g>
<!-- Node4 -->
<g id="Node000004" class="node">
<title>Node4</title>
<g id="a_Node000004"><a xlink:href="classGeometry_1_1Vector3D.html#ae4c5a52ebf282e334801c8ee28ad8d5d" target="_top" xlink:title=" ">
<polygon fill="white" stroke="#666666" points="494.5,-152.5 379.5,-152.5 379.5,-122.5 494.5,-122.5 494.5,-152.5"/>
<text text-anchor="start" x="387.5" y="-140.5" font-family="Helvetica,sans-Serif" font-size="10.00">Geometry::Vector3D</text>
<text text-anchor="middle" x="437" y="-129.5" font-family="Helvetica,sans-Serif" font-size="10.00">::Vector3D</text>
</a>
</g>
</g>
<!-- Node3&#45;&gt;Node4 -->
<g id="edge3_Node000003_Node000004" class="edge">
<title>Node3&#45;&gt;Node4</title>
<g id="a_edge3_Node000003_Node000004"><a xlink:title=" ">
<path fill="none" stroke="#63b8ff" d="M316.58,-104.56C334.15,-109.4 353.78,-114.82 371.97,-119.84"/>
<polygon fill="#63b8ff" stroke="#63b8ff" points="371.05,-123.21 381.62,-122.5 372.91,-116.46 371.05,-123.21"/>
</a>
</g>
</g>
<!-- Node5 -->
<g id="Node000005" class="node">
<title>Node5</title>
<g id="a_Node000005"><a xlink:href="classGeometry_1_1Vector3D.html#a8966b188a3b6d27793b3896618fea42c" target="_top" xlink:title="Calculate the length (magnitude) of this vector.">
<polygon fill="white" stroke="#666666" points="494.5,-104.5 379.5,-104.5 379.5,-74.5 494.5,-74.5 494.5,-104.5"/>
<text text-anchor="start" x="387.5" y="-92.5" font-family="Helvetica,sans-Serif" font-size="10.00">Geometry::Vector3D</text>
<text text-anchor="middle" x="437" y="-81.5" font-family="Helvetica,sans-Serif" font-size="10.00">::length</text>
</a>
</g>
</g>
<!-- Node3&#45;&gt;Node5 -->
<g id="edge4_Node000003_Node000005" class="edge">
<title>Node3&#45;&gt;Node5</title>
<g id="a_edge4_Node000003_Node000005"><a xlink:title=" ">
<path fill="none" stroke="#63b8ff" d="M318.97,-89.5C335.06,-89.5 352.71,-89.5 369.31,-89.5"/>
<polygon fill="#63b8ff" stroke="#63b8ff" points="369.49,-93 379.49,-89.5 369.49,-86 369.49,-93"/>
</a>
</g>
</g>
<!-- Node6&#45;&gt;Node4 -->
<g id="edge6_Node000006_Node000004" class="edge">
<title>Node6&#45;&gt;Node4</title>
<g id="a_edge6_Node000006_Node000004"><a xlink:title=" ">
<path fill="none" stroke="#63b8ff" d="M316.58,-170.44C334.15,-165.6 353.78,-160.18 371.97,-155.16"/>
<polygon fill="#63b8ff" stroke="#63b8ff" points="372.91,-158.54 381.62,-152.5 371.05,-151.79 372.91,-158.54"/>
</a>
</g>
</g>
<!-- Node8 -->
<g id="Node000008" class="node">
<title>Node8</title>
<g id="a_Node000008"><a xlink:href="structRayTracer_1_1Color.html#a01b4a4dad8204eed80f8d38d3d004e4d" target="_top" xlink:title=" ">
<polygon fill="white" stroke="#666666" points="501,-38 373,-38 373,-19 501,-19 501,-38"/>
<text text-anchor="middle" x="437" y="-26" font-family="Helvetica,sans-Serif" font-size="10.00">RayTracer::Color::Color</text>
</a>
</g>
</g>
<!-- Node7&#45;&gt;Node8 -->
<g id="edge8_Node000007_Node000008" class="edge">
<title>Node7&#45;&gt;Node8</title>
<g id="a_edge8_Node000007_Node000008"><a xlink:title=" ">
<path fill="none" stroke="#63b8ff" d="M335.54,-38.89C344.57,-37.96 353.8,-37 362.82,-36.07"/>
<polygon fill="#63b8ff" stroke="#63b8ff" points="363.32,-39.54 372.9,-35.03 362.6,-32.57 363.32,-39.54"/>
</a>
</g>
</g>
<!-- Node9&#45;&gt;Node8 -->
<g id="edge10_Node000009_Node000008" class="edge">
<title>Node9&#45;&gt;Node8</title>
<g id="a_edge10_Node000009_Node000008"><a xlink:title=" ">
<path fill="none" stroke="#63b8ff" d="M337.05,-17.7C345.65,-18.63 354.4,-19.59 362.97,-20.53"/>
<polygon fill="#63b8ff" stroke="#63b8ff" points="362.6,-24.01 372.92,-21.61 363.36,-17.05 362.6,-24.01"/>
</a>
</g>
</g>
<!-- Node10&#45;&gt;Node4 -->
<g id="edge12_Node000010_Node000004" class="edge">
<title>Node10&#45;&gt;Node4</title>
<g id="a_edge12_Node000010_Node000004"><a xlink:title=" ">
<path fill="none" stroke="#63b8ff" d="M318.97,-137.5C335.06,-137.5 352.71,-137.5 369.31,-137.5"/>
<polygon fill="#63b8ff" stroke="#63b8ff" points="369.49,-141 379.49,-137.5 369.49,-134 369.49,-141"/>
</a>
</g>
</g>
</g>
</svg>
