<?xml version="1.0" encoding="UTF-8" standalone="no"?>
<!DOCTYPE svg PUBLIC "-//W3C//DTD SVG 1.1//EN"
 "http://www.w3.org/Graphics/SVG/1.1/DTD/svg11.dtd">
<!-- Generated by graphviz version 2.43.0 (0)
 -->
<!-- Title: Geometry::Ray::at Pages: 1 -->
<svg width="278pt" height="138pt"
 viewBox="0.00 0.00 278.00 138.00" xmlns="http://www.w3.org/2000/svg" xmlns:xlink="http://www.w3.org/1999/xlink">
<g id="graph0" class="graph" transform="scale(1 1) rotate(0) translate(4 134)">
<title>Geometry::Ray::at</title>
<!-- Node1 -->
<g id="Node000001" class="node">
<title>Node1</title>
<g id="a_Node000001"><a xlink:title="Compute a point at parameter t along the ray.">
<polygon fill="#999999" stroke="#666666" points="270,-74 166,-74 166,-55 270,-55 270,-74"/>
<text text-anchor="middle" x="218" y="-62" font-family="Helvetica,sans-Serif" font-size="10.00">Geometry::Ray::at</text>
</a>
</g>
</g>
<!-- Node2 -->
<g id="Node000002" class="node">
<title>Node2</title>
<g id="a_Node000002"><a xlink:href="classRayTracer_1_1Cone.html#a19623c2790fd4ab917eb624508e57e5d" target="_top" xlink:title="Test ray–cone intersection using the quadratic form of the cone equation.">
<polygon fill="white" stroke="#666666" points="122,-130 8,-130 8,-111 122,-111 122,-130"/>
<text text-anchor="middle" x="65" y="-118" font-family="Helvetica,sans-Serif" font-size="10.00">RayTracer::Cone::hit</text>
</a>
</g>
</g>
<!-- Node1&#45;&gt;Node2 -->
<g id="edge1_Node000001_Node000002" class="edge">
<title>Node1&#45;&gt;Node2</title>
<g id="a_edge1_Node000001_Node000002"><a xlink:title=" ">
<path fill="none" stroke="#63b8ff" d="M188.03,-78.35C171.3,-86.04 149.72,-95.46 130,-102.5 121.41,-105.57 112.03,-108.45 103.16,-110.98"/>
<polygon fill="#63b8ff" stroke="#63b8ff" points="189.68,-81.44 197.27,-74.05 186.73,-75.09 189.68,-81.44"/>
</a>
</g>
</g>
<!-- Node3 -->
<g id="Node000003" class="node">
<title>Node3</title>
<g id="a_Node000003"><a xlink:href="classRayTracer_1_1Cylinder.html#ab42450e2290b96bccdf83ba79fa9d8af" target="_top" xlink:title="Test ray–cylinder intersection using the quadratic form of the cylinder equation.">
<polygon fill="white" stroke="#666666" points="130,-93 0,-93 0,-74 130,-74 130,-93"/>
<text text-anchor="middle" x="65" y="-81" font-family="Helvetica,sans-Serif" font-size="10.00">RayTracer::Cylinder::hit</text>
</a>
</g>
</g>
<!-- Node1&#45;&gt;Node3 -->
<g id="edge2_Node000001_Node000003" class="edge">
<title>Node1&#45;&gt;Node3</title>
<g id="a_edge2_Node000001_Node000003"><a xlink:title=" ">
<path fill="none" stroke="#63b8ff" d="M155.76,-72.21C147.33,-73.27 138.66,-74.36 130.19,-75.42"/>
<polygon fill="#63b8ff" stroke="#63b8ff" points="156.39,-75.65 165.88,-70.93 155.52,-68.71 156.39,-75.65"/>
</a>
</g>
</g>
<!-- Node4 -->
<g id="Node000004" class="node">
<title>Node4</title>
<g id="a_Node000004"><a xlink:href="classRayTracer_1_1Plane.html#a7b741696eb186f6ec9df62e58e795916" target="_top" xlink:title="Test ray–plane intersection using the algebraic plane equation.">
<polygon fill="white" stroke="#666666" points="123,-56 7,-56 7,-37 123,-37 123,-56"/>
<text text-anchor="middle" x="65" y="-44" font-family="Helvetica,sans-Serif" font-size="10.00">RayTracer::Plane::hit</text>
</a>
</g>
</g>
<!-- Node1&#45;&gt;Node4 -->
<g id="edge3_Node000001_Node000004" class="edge">
<title>Node1&#45;&gt;Node4</title>
<g id="a_edge3_Node000001_Node000004"><a xlink:title=" ">
<path fill="none" stroke="#63b8ff" d="M155.69,-57.19C144.9,-55.9 133.71,-54.57 123.04,-53.3"/>
<polygon fill="#63b8ff" stroke="#63b8ff" points="155.53,-60.7 165.88,-58.41 156.36,-53.75 155.53,-60.7"/>
</a>
</g>
</g>
<!-- Node5 -->
<g id="Node000005" class="node">
<title>Node5</title>
<g id="a_Node000005"><a xlink:href="classRayTracer_1_1Sphere.html#a40d439c5a658465a6eeef01f7679ecc9" target="_top" xlink:title="Test ray intersection with this primitive.">
<polygon fill="white" stroke="#666666" points="126.5,-19 3.5,-19 3.5,0 126.5,0 126.5,-19"/>
<text text-anchor="middle" x="65" y="-7" font-family="Helvetica,sans-Serif" font-size="10.00">RayTracer::Sphere::hit</text>
</a>
</g>
</g>
<!-- Node1&#45;&gt;Node5 -->
<g id="edge4_Node000001_Node000005" class="edge">
<title>Node1&#45;&gt;Node5</title>
<g id="a_edge4_Node000001_Node000005"><a xlink:title=" ">
<path fill="none" stroke="#63b8ff" d="M186.59,-51.01C170.02,-43.89 149.06,-35.25 130,-28.5 120.5,-25.13 110.06,-21.86 100.42,-19.01"/>
<polygon fill="#63b8ff" stroke="#63b8ff" points="185.22,-54.23 195.79,-55 188.01,-47.81 185.22,-54.23"/>
</a>
</g>
</g>
</g>
</svg>
