<?xml version="1.0" encoding="UTF-8" standalone="no"?>
<!DOCTYPE svg PUBLIC "-//W3C//DTD SVG 1.1//EN"
 "http://www.w3.org/Graphics/SVG/1.1/DTD/svg11.dtd">
<!-- Generated by graphviz version 2.43.0 (0)
 -->
<!-- Title: RayTracer::AMaterial::AMaterial Pages: 1 -->
<svg width="299pt" height="76pt"
 viewBox="0.00 0.00 299.00 75.50" xmlns="http://www.w3.org/2000/svg" xmlns:xlink="http://www.w3.org/1999/xlink">
<g id="graph0" class="graph" transform="scale(1 1) rotate(0) translate(4 71.5)">
<title>RayTracer::AMaterial::AMaterial</title>
<!-- Node1 -->
<g id="Node000001" class="node">
<title>Node1</title>
<g id="a_Node000001"><a xlink:title=" ">
<polygon fill="#999999" stroke="#666666" points="291,-45.5 173,-45.5 173,-15.5 291,-15.5 291,-45.5"/>
<text text-anchor="start" x="181" y="-33.5" font-family="Helvetica,sans-Serif" font-size="10.00">RayTracer::AMaterial</text>
<text text-anchor="middle" x="232" y="-22.5" font-family="Helvetica,sans-Serif" font-size="10.00">::AMaterial</text>
</a>
</g>
</g>
<!-- Node2 -->
<g id="Node000002" class="node">
<title>Node2</title>
<g id="a_Node000002"><a xlink:href="classRayTracer_1_1Lambertian.html#a9d3f150cb0d7a06f1f7487be4676f258" target="_top" xlink:title=" ">
<polygon fill="white" stroke="#666666" points="131.5,-67.5 5.5,-67.5 5.5,-37.5 131.5,-37.5 131.5,-67.5"/>
<text text-anchor="start" x="13.5" y="-55.5" font-family="Helvetica,sans-Serif" font-size="10.00">RayTracer::Lambertian</text>
<text text-anchor="middle" x="68.5" y="-44.5" font-family="Helvetica,sans-Serif" font-size="10.00">::Lambertian</text>
</a>
</g>
</g>
<!-- Node1&#45;&gt;Node2 -->
<g id="edge1_Node000001_Node000002" class="edge">
<title>Node1&#45;&gt;Node2</title>
<g id="a_edge1_Node000001_Node000002"><a xlink:title=" ">
<path fill="none" stroke="#63b8ff" d="M162.52,-39.83C152.24,-41.23 141.68,-42.67 131.54,-44.05"/>
<polygon fill="#63b8ff" stroke="#63b8ff" points="163.26,-43.26 172.69,-38.44 162.31,-36.32 163.26,-43.26"/>
</a>
</g>
</g>
<!-- Node3 -->
<g id="Node000003" class="node">
<title>Node3</title>
<g id="a_Node000003"><a xlink:href="classRayTracer_1_1Phong.html#aed034ba959eedee570e3572385c8ae09" target="_top" xlink:title=" ">
<polygon fill="white" stroke="#666666" points="137,-19 0,-19 0,0 137,0 137,-19"/>
<text text-anchor="middle" x="68.5" y="-7" font-family="Helvetica,sans-Serif" font-size="10.00">RayTracer::Phong::Phong</text>
</a>
</g>
</g>
<!-- Node1&#45;&gt;Node3 -->
<g id="edge2_Node000001_Node000003" class="edge">
<title>Node1&#45;&gt;Node3</title>
<g id="a_edge2_Node000001_Node000003"><a xlink:title=" ">
<path fill="none" stroke="#63b8ff" d="M162.52,-21.6C154.09,-20.5 145.47,-19.38 137.05,-18.28"/>
<polygon fill="#63b8ff" stroke="#63b8ff" points="162.33,-25.1 172.69,-22.92 163.23,-18.16 162.33,-25.1"/>
</a>
</g>
</g>
</g>
</svg>
