<?xml version="1.0" encoding="UTF-8" standalone="no"?>
<!DOCTYPE svg PUBLIC "-//W3C//DTD SVG 1.1//EN"
 "http://www.w3.org/Graphics/SVG/1.1/DTD/svg11.dtd">
<!-- Generated by graphviz version 2.43.0 (0)
 -->
<!-- Title: RayTracer::Camera::generateRay Pages: 1 -->
<svg width="503pt" height="240pt"
 viewBox="0.00 0.00 503.00 239.93" xmlns="http://www.w3.org/2000/svg" xmlns:xlink="http://www.w3.org/1999/xlink">
<g id="graph0" class="graph" transform="scale(1 1) rotate(0) translate(4 235.93)">
<title>RayTracer::Camera::generateRay</title>
<!-- Node1 -->
<g id="Node000001" class="node">
<title>Node1</title>
<g id="a_Node000001"><a xlink:title="Build a world&#45;space ray from normalized screen coordinates.">
<polygon fill="#999999" stroke="#666666" points="115,-145 0,-145 0,-115 115,-115 115,-145"/>
<text text-anchor="start" x="8" y="-133" font-family="Helvetica,sans-Serif" font-size="10.00">RayTracer::Camera::</text>
<text text-anchor="middle" x="57.5" y="-122" font-family="Helvetica,sans-Serif" font-size="10.00">generateRay</text>
</a>
</g>
</g>
<!-- Node2 -->
<g id="Node000002" class="node">
<title>Node2</title>
<g id="a_Node000002"><a xlink:href="classGeometry_1_1Point3D.html#a6a08342f9542eb6d6ff7bcf2278a240d" target="_top" xlink:title=" ">
<polygon fill="white" stroke="#666666" points="474,-169 359,-169 359,-139 474,-139 474,-169"/>
<text text-anchor="start" x="367" y="-157" font-family="Helvetica,sans-Serif" font-size="10.00">Geometry::Point3D::</text>
<text text-anchor="middle" x="416.5" y="-146" font-family="Helvetica,sans-Serif" font-size="10.00">Point3D</text>
</a>
</g>
</g>
<!-- Node1&#45;&gt;Node2 -->
<g id="edge1_Node000001_Node000002" class="edge">
<title>Node1&#45;&gt;Node2</title>
<g id="a_edge1_Node000001_Node000002"><a xlink:title=" ">
<path fill="none" stroke="#63b8ff" d="M68.91,-145.11C84.14,-165.72 114.67,-201.72 151,-216 213.46,-240.55 236.97,-232.6 302,-216 333.17,-208.04 365,-189.57 386.98,-174.85"/>
<polygon fill="#63b8ff" stroke="#63b8ff" points="389.22,-177.56 395.49,-169.02 385.26,-171.79 389.22,-177.56"/>
</a>
</g>
</g>
<!-- Node3 -->
<g id="Node000003" class="node">
<title>Node3</title>
<g id="a_Node000003"><a xlink:href="classGeometry_1_1Ray.html#a009af874883eaeca399a3c5c144df2fc" target="_top" xlink:title="Constructor.">
<polygon fill="white" stroke="#666666" points="283,-206.5 170,-206.5 170,-187.5 283,-187.5 283,-206.5"/>
<text text-anchor="middle" x="226.5" y="-194.5" font-family="Helvetica,sans-Serif" font-size="10.00">Geometry::Ray::Ray</text>
</a>
</g>
</g>
<!-- Node1&#45;&gt;Node3 -->
<g id="edge2_Node000001_Node000003" class="edge">
<title>Node1&#45;&gt;Node3</title>
<g id="a_edge2_Node000001_Node000003"><a xlink:title=" ">
<path fill="none" stroke="#63b8ff" d="M83.69,-145.08C101.89,-155.47 127.33,-168.98 151,-178 157.45,-180.46 164.34,-182.7 171.22,-184.71"/>
<polygon fill="#63b8ff" stroke="#63b8ff" points="170.68,-188.19 181.25,-187.49 172.55,-181.45 170.68,-188.19"/>
</a>
</g>
</g>
<!-- Node4 -->
<g id="Node000004" class="node">
<title>Node4</title>
<g id="a_Node000004"><a xlink:href="classGeometry_1_1Vector3D.html#ae4c5a52ebf282e334801c8ee28ad8d5d" target="_top" xlink:title=" ">
<polygon fill="white" stroke="#666666" points="474,-78 359,-78 359,-48 474,-48 474,-78"/>
<text text-anchor="start" x="367" y="-66" font-family="Helvetica,sans-Serif" font-size="10.00">Geometry::Vector3D</text>
<text text-anchor="middle" x="416.5" y="-55" font-family="Helvetica,sans-Serif" font-size="10.00">::Vector3D</text>
</a>
</g>
</g>
<!-- Node1&#45;&gt;Node4 -->
<g id="edge3_Node000001_Node000004" class="edge">
<title>Node1&#45;&gt;Node4</title>
<g id="a_edge3_Node000001_Node000004"><a xlink:title=" ">
<path fill="none" stroke="#63b8ff" d="M81.35,-114.77C99.43,-103.58 125.75,-89.13 151,-82 216.45,-63.52 294.44,-60.04 348.71,-60.4"/>
<polygon fill="#63b8ff" stroke="#63b8ff" points="348.85,-63.91 358.89,-60.52 348.93,-56.91 348.85,-63.91"/>
</a>
</g>
</g>
<!-- Node5 -->
<g id="Node000005" class="node">
<title>Node5</title>
<g id="a_Node000005"><a xlink:href="classGeometry_1_1Vector3D.html#a388f7af8bf0095c817e89b5b2518fda7" target="_top" xlink:title=" ">
<polygon fill="white" stroke="#666666" points="284,-35 169,-35 169,-5 284,-5 284,-35"/>
<text text-anchor="start" x="177" y="-23" font-family="Helvetica,sans-Serif" font-size="10.00">Geometry::Vector3D</text>
<text text-anchor="middle" x="226.5" y="-12" font-family="Helvetica,sans-Serif" font-size="10.00">::normalize</text>
</a>
</g>
</g>
<!-- Node1&#45;&gt;Node5 -->
<g id="edge4_Node000001_Node000005" class="edge">
<title>Node1&#45;&gt;Node5</title>
<g id="a_edge4_Node000001_Node000005"><a xlink:title=" ">
<path fill="none" stroke="#63b8ff" d="M72.6,-114.78C89.72,-97.02 120.16,-67.71 151,-49 156.9,-45.42 163.32,-42.14 169.83,-39.17"/>
<polygon fill="#63b8ff" stroke="#63b8ff" points="171.59,-42.23 179.39,-35.05 168.82,-35.8 171.59,-42.23"/>
</a>
</g>
</g>
<!-- Node7 -->
<g id="Node000007" class="node">
<title>Node7</title>
<g id="a_Node000007"><a xlink:href="classGeometry_1_1TransformMatrix.html#a136a1573f63564d63426b89fcafeb21b" target="_top" xlink:title=" ">
<polygon fill="white" stroke="#666666" points="302,-121 151,-121 151,-91 302,-91 302,-121"/>
<text text-anchor="start" x="159" y="-109" font-family="Helvetica,sans-Serif" font-size="10.00">Geometry::TransformMatrix</text>
<text text-anchor="middle" x="226.5" y="-98" font-family="Helvetica,sans-Serif" font-size="10.00">::operator*</text>
</a>
</g>
</g>
<!-- Node1&#45;&gt;Node7 -->
<g id="edge7_Node000001_Node000007" class="edge">
<title>Node1&#45;&gt;Node7</title>
<g id="a_edge7_Node000001_Node000007"><a xlink:title=" ">
<path fill="none" stroke="#63b8ff" d="M115.04,-121.87C123.43,-120.67 132.22,-119.41 141.03,-118.14"/>
<polygon fill="#63b8ff" stroke="#63b8ff" points="141.56,-121.6 150.96,-116.71 140.56,-114.67 141.56,-121.6"/>
</a>
</g>
</g>
<!-- Node9 -->
<g id="Node000009" class="node">
<title>Node9</title>
<g id="a_Node000009"><a xlink:href="classGeometry_1_1Rectangle3D.html#a2b17f489ad6e57c131dc0e1c8ac2f1a0" target="_top" xlink:title="Get a point on the rectangle at normalized coordinates (u, v).">
<polygon fill="white" stroke="#666666" points="293,-169 160,-169 160,-139 293,-139 293,-169"/>
<text text-anchor="start" x="168" y="-157" font-family="Helvetica,sans-Serif" font-size="10.00">Geometry::Rectangle3D</text>
<text text-anchor="middle" x="226.5" y="-146" font-family="Helvetica,sans-Serif" font-size="10.00">::pointAt</text>
</a>
</g>
</g>
<!-- Node1&#45;&gt;Node9 -->
<g id="edge10_Node000001_Node000009" class="edge">
<title>Node1&#45;&gt;Node9</title>
<g id="a_edge10_Node000001_Node000009"><a xlink:title=" ">
<path fill="none" stroke="#63b8ff" d="M115.04,-138.13C126.16,-139.72 138,-141.43 149.64,-143.1"/>
<polygon fill="#63b8ff" stroke="#63b8ff" points="149.4,-146.6 159.8,-144.56 150.4,-139.67 149.4,-146.6"/>
</a>
</g>
</g>
<!-- Node5&#45;&gt;Node4 -->
<g id="edge5_Node000005_Node000004" class="edge">
<title>Node5&#45;&gt;Node4</title>
<g id="a_edge5_Node000005_Node000004"><a xlink:title=" ">
<path fill="none" stroke="#63b8ff" d="M284.16,-32.96C304.6,-37.63 327.85,-42.95 349.06,-47.8"/>
<polygon fill="#63b8ff" stroke="#63b8ff" points="348.43,-51.25 358.95,-50.07 349.99,-44.43 348.43,-51.25"/>
</a>
</g>
</g>
<!-- Node6 -->
<g id="Node000006" class="node">
<title>Node6</title>
<g id="a_Node000006"><a xlink:href="classGeometry_1_1Vector3D.html#a8966b188a3b6d27793b3896618fea42c" target="_top" xlink:title="Calculate the length (magnitude) of this vector.">
<polygon fill="white" stroke="#666666" points="474,-30 359,-30 359,0 474,0 474,-30"/>
<text text-anchor="start" x="367" y="-18" font-family="Helvetica,sans-Serif" font-size="10.00">Geometry::Vector3D</text>
<text text-anchor="middle" x="416.5" y="-7" font-family="Helvetica,sans-Serif" font-size="10.00">::length</text>
</a>
</g>
</g>
<!-- Node5&#45;&gt;Node6 -->
<g id="edge6_Node000005_Node000006" class="edge">
<title>Node5&#45;&gt;Node6</title>
<g id="a_edge6_Node000005_Node000006"><a xlink:title=" ">
<path fill="none" stroke="#63b8ff" d="M284.16,-18.49C304.51,-17.95 327.64,-17.34 348.77,-16.77"/>
<polygon fill="#63b8ff" stroke="#63b8ff" points="349.05,-20.27 358.95,-16.5 348.87,-13.27 349.05,-20.27"/>
</a>
</g>
</g>
<!-- Node7&#45;&gt;Node2 -->
<g id="edge8_Node000007_Node000002" class="edge">
<title>Node7&#45;&gt;Node2</title>
<g id="a_edge8_Node000007_Node000002"><a xlink:title=" ">
<path fill="none" stroke="#63b8ff" d="M286.47,-121.06C306.36,-126.14 328.7,-131.84 349.13,-137.06"/>
<polygon fill="#63b8ff" stroke="#63b8ff" points="348.43,-140.49 358.99,-139.57 350.17,-133.71 348.43,-140.49"/>
</a>
</g>
</g>
<!-- Node8 -->
<g id="Node000008" class="node">
<title>Node8</title>
<g id="a_Node000008"><a xlink:href="classGeometry_1_1Matrix.html#a55bca424225b20c0490c21b93faea578" target="_top" xlink:title="Mutable element access.">
<polygon fill="white" stroke="#666666" points="495,-115.5 338,-115.5 338,-96.5 495,-96.5 495,-115.5"/>
<text text-anchor="middle" x="416.5" y="-103.5" font-family="Helvetica,sans-Serif" font-size="10.00">Geometry::Matrix::operator()</text>
</a>
</g>
</g>
<!-- Node7&#45;&gt;Node8 -->
<g id="edge9_Node000007_Node000008" class="edge">
<title>Node7&#45;&gt;Node8</title>
<g id="a_edge9_Node000007_Node000008"><a xlink:title=" ">
<path fill="none" stroke="#63b8ff" d="M302.07,-106C310.55,-106 319.24,-106 327.86,-106"/>
<polygon fill="#63b8ff" stroke="#63b8ff" points="327.93,-109.5 337.93,-106 327.93,-102.5 327.93,-109.5"/>
</a>
</g>
</g>
<!-- Node9&#45;&gt;Node2 -->
<g id="edge11_Node000009_Node000002" class="edge">
<title>Node9&#45;&gt;Node2</title>
<g id="a_edge11_Node000009_Node000002"><a xlink:title=" ">
<path fill="none" stroke="#63b8ff" d="M293.25,-154C311.22,-154 330.7,-154 348.72,-154"/>
<polygon fill="#63b8ff" stroke="#63b8ff" points="348.85,-157.5 358.85,-154 348.85,-150.5 348.85,-157.5"/>
</a>
</g>
</g>
</g>
</svg>
