<?xml version="1.0" encoding="UTF-8" standalone="no"?>
<!DOCTYPE svg PUBLIC "-//W3C//DTD SVG 1.1//EN"
 "http://www.w3.org/Graphics/SVG/1.1/DTD/svg11.dtd">
<!-- Generated by graphviz version 2.43.0 (0)
 -->
<!-- Title: RayTracer::SceneLoader Pages: 1 -->
<svg width="292pt" height="303pt"
 viewBox="0.00 0.00 291.50 303.00" xmlns="http://www.w3.org/2000/svg" xmlns:xlink="http://www.w3.org/1999/xlink">

<svg id="main" version="1.1" xmlns="http://www.w3.org/2000/svg" xmlns:xlink="http://www.w3.org/1999/xlink" xml:space="preserve" onload="init(evt)">
<style type="text/css"><![CDATA[
.node, .edge {opacity: 0.7;}
.node.selected, .edge.selected {opacity: 1;}
.edge:hover path { stroke: red; }
.edge:hover polygon { stroke: red; fill: red; }
]]></style>
<script type="application/ecmascript" xlink:href="svg.min.js"/>
<svg id="graph" class="graph">
<g id="graph0" class="graph" transform="scale(1 1) rotate(0) translate(4 299)">
<title>RayTracer::SceneLoader</title>
<!-- Node1 -->
<g id="Node000001" class="node">
<title>Node1</title>
<g id="a_Node000001"><a xlink:title=" ">
<polygon fill="#999999" stroke="transparent" points="207,-79 80,-79 80,0 207,0 207,-79"/>
<text text-anchor="start" x="85.5" y="-66.5" font-family="Helvetica,sans-Serif" font-size="10.00">RayTracer::SceneLoader</text>
<text text-anchor="start" x="142" y="-51.5" font-family="Helvetica,sans-Serif" font-size="10.00"> </text>
<text text-anchor="start" x="91" y="-36.5" font-family="Helvetica,sans-Serif" font-size="10.00">+</text>
<text text-anchor="start" x="110.5" y="-36.5" font-family="Helvetica,sans-Serif" font-size="10.00">SceneLoader()</text>
<text text-anchor="start" x="91" y="-21.5" font-family="Helvetica,sans-Serif" font-size="10.00">+</text>
<text text-anchor="start" x="110.5" y="-21.5" font-family="Helvetica,sans-Serif" font-size="10.00">~SceneLoader()</text>
<text text-anchor="start" x="91" y="-6.5" font-family="Helvetica,sans-Serif" font-size="10.00">+</text>
<text text-anchor="start" x="110.5" y="-6.5" font-family="Helvetica,sans-Serif" font-size="10.00">loadScene()</text>
<polygon fill="#666666" stroke="#666666" points="80.5,-61.5 80.5,-61.5 207.5,-61.5 207.5,-61.5 80.5,-61.5"/>
<polygon fill="#666666" stroke="#666666" points="80.5,-46.5 80.5,-46.5 207.5,-46.5 207.5,-46.5 80.5,-46.5"/>
<polygon fill="none" stroke="#666666" points="80,0 80,-79 207,-79 207,0 80,0"/>
</a>
</g>
</g>
<!-- Node2 -->
<g id="Node000002" class="node">
<title>Node2</title>
<g id="a_Node000002"><a xlink:href="classRayTracer_1_1PluginManager.html" target="_top" xlink:title=" ">
<polygon fill="white" stroke="transparent" points="137,-295 0,-295 0,-126 137,-126 137,-295"/>
<text text-anchor="start" x="5.5" y="-282.5" font-family="Helvetica,sans-Serif" font-size="10.00">RayTracer::PluginManager</text>
<text text-anchor="start" x="11" y="-267.5" font-family="Helvetica,sans-Serif" font-size="10.00">&#45;</text>
<text text-anchor="start" x="25.5" y="-267.5" font-family="Helvetica,sans-Serif" font-size="10.00">_pluginDirectory</text>
<text text-anchor="start" x="11" y="-252.5" font-family="Helvetica,sans-Serif" font-size="10.00">&#45;</text>
<text text-anchor="start" x="25.5" y="-252.5" font-family="Helvetica,sans-Serif" font-size="10.00">_plugins</text>
<text text-anchor="start" x="11" y="-237.5" font-family="Helvetica,sans-Serif" font-size="10.00">&#45;</text>
<text text-anchor="start" x="25.5" y="-237.5" font-family="Helvetica,sans-Serif" font-size="10.00">_handles</text>
<text text-anchor="start" x="8.5" y="-222.5" font-family="Helvetica,sans-Serif" font-size="10.00">+</text>
<text text-anchor="start" x="25.5" y="-222.5" font-family="Helvetica,sans-Serif" font-size="10.00">PluginManager()</text>
<text text-anchor="start" x="8.5" y="-207.5" font-family="Helvetica,sans-Serif" font-size="10.00">+</text>
<text text-anchor="start" x="25.5" y="-207.5" font-family="Helvetica,sans-Serif" font-size="10.00">~PluginManager()</text>
<text text-anchor="start" x="8.5" y="-192.5" font-family="Helvetica,sans-Serif" font-size="10.00">+</text>
<text text-anchor="start" x="25.5" y="-192.5" font-family="Helvetica,sans-Serif" font-size="10.00">loadPlugins()</text>
<text text-anchor="start" x="8.5" y="-177.5" font-family="Helvetica,sans-Serif" font-size="10.00">+</text>
<text text-anchor="start" x="25.5" y="-177.5" font-family="Helvetica,sans-Serif" font-size="10.00">getInitializer()</text>
<text text-anchor="start" x="11" y="-162.5" font-family="Helvetica,sans-Serif" font-size="10.00">&#45;</text>
<text text-anchor="start" x="25.5" y="-162.5" font-family="Helvetica,sans-Serif" font-size="10.00">unloadPlugins()</text>
<text text-anchor="start" x="11" y="-147.5" font-family="Helvetica,sans-Serif" font-size="10.00">&#45;</text>
<text text-anchor="start" x="25.5" y="-147.5" font-family="Helvetica,sans-Serif" font-size="10.00">loadPlugin()</text>
<text text-anchor="start" x="11" y="-132.5" font-family="Helvetica,sans-Serif" font-size="10.00">&#45;</text>
<text text-anchor="start" x="25.5" y="-132.5" font-family="Helvetica,sans-Serif" font-size="10.00">overrideInitializers()</text>
<polygon fill="#666666" stroke="#666666" points="0.5,-277.5 0.5,-277.5 137.5,-277.5 137.5,-277.5 0.5,-277.5"/>
<polygon fill="#666666" stroke="#666666" points="0.5,-232.5 0.5,-232.5 23.5,-232.5 23.5,-232.5 0.5,-232.5"/>
<polygon fill="#666666" stroke="#666666" points="23.5,-232.5 23.5,-232.5 137.5,-232.5 137.5,-232.5 23.5,-232.5"/>
<polygon fill="none" stroke="#666666" points="0,-126 0,-295 137,-295 137,-126 0,-126"/>
</a>
</g>
</g>
<!-- Node2&#45;&gt;Node1 -->
<g id="edge1_Node000001_Node000002" class="edge">
<title>Node2&#45;&gt;Node1</title>
<g id="a_edge1_Node000001_Node000002"><a xlink:title=" ">
<path fill="none" stroke="#63b8ff" d="M99.87,-125.74C103.94,-115.97 108.19,-106.21 112.5,-97 113.62,-94.61 114.79,-92.18 116,-89.75"/>
<polygon fill="none" stroke="#63b8ff" points="116,-89.74 115.19,-82.57 121.48,-79.06 122.3,-86.23 116,-89.74"/>
</a>
</g>
<text text-anchor="middle" x="155" y="-100" font-family="Helvetica,sans-Serif" font-size="10.00" fill="grey"> &#45;_pluginManager</text>
</g>
<!-- Node3 -->
<g id="Node000003" class="node">
<title>Node3</title>
<g id="a_Node000003"><a xlink:href="classRayTracer_1_1Parser.html" target="_top" xlink:title=" ">
<polygon fill="white" stroke="transparent" points="283.5,-287.5 155.5,-287.5 155.5,-133.5 283.5,-133.5 283.5,-287.5"/>
<text text-anchor="start" x="177" y="-275.5" font-family="Helvetica,sans-Serif" font-size="10.00">RayTracer::Parser</text>
<text text-anchor="start" x="159.5" y="-260.5" font-family="Helvetica,sans-Serif" font-size="10.00">+</text>
<text text-anchor="start" x="172.5" y="-260.5" font-family="Helvetica,sans-Serif" font-size="10.00">_node</text>
<text text-anchor="start" x="162" y="-245.5" font-family="Helvetica,sans-Serif" font-size="10.00">&#45;</text>
<text text-anchor="start" x="172.5" y="-245.5" font-family="Helvetica,sans-Serif" font-size="10.00">_cfg</text>
<text text-anchor="start" x="162" y="-230.5" font-family="Helvetica,sans-Serif" font-size="10.00">&#45;</text>
<text text-anchor="start" x="172.5" y="-230.5" font-family="Helvetica,sans-Serif" font-size="10.00">_root</text>
<text text-anchor="start" x="159.5" y="-215.5" font-family="Helvetica,sans-Serif" font-size="10.00">+</text>
<text text-anchor="start" x="172.5" y="-215.5" font-family="Helvetica,sans-Serif" font-size="10.00">Parser()</text>
<text text-anchor="start" x="159.5" y="-200.5" font-family="Helvetica,sans-Serif" font-size="10.00">+</text>
<text text-anchor="start" x="172.5" y="-200.5" font-family="Helvetica,sans-Serif" font-size="10.00">~Parser()</text>
<text text-anchor="start" x="159.5" y="-185.5" font-family="Helvetica,sans-Serif" font-size="10.00">+</text>
<text text-anchor="start" x="172.5" y="-185.5" font-family="Helvetica,sans-Serif" font-size="10.00">getValue()</text>
<text text-anchor="start" x="159.5" y="-170.5" font-family="Helvetica,sans-Serif" font-size="10.00">+</text>
<text text-anchor="start" x="172.5" y="-170.5" font-family="Helvetica,sans-Serif" font-size="10.00">insert_value()</text>
<text text-anchor="start" x="159.5" y="-155.5" font-family="Helvetica,sans-Serif" font-size="10.00">+</text>
<text text-anchor="start" x="172.5" y="-155.5" font-family="Helvetica,sans-Serif" font-size="10.00">insert_vector_object()</text>
<text text-anchor="start" x="159.5" y="-140.5" font-family="Helvetica,sans-Serif" font-size="10.00">+</text>
<text text-anchor="start" x="172.5" y="-140.5" font-family="Helvetica,sans-Serif" font-size="10.00">parseSettings()</text>
<polygon fill="#666666" stroke="#666666" points="155.5,-270.5 155.5,-270.5 283.5,-270.5 283.5,-270.5 155.5,-270.5"/>
<polygon fill="#666666" stroke="#666666" points="155.5,-225.5 155.5,-225.5 170.5,-225.5 170.5,-225.5 155.5,-225.5"/>
<polygon fill="#666666" stroke="#666666" points="170.5,-225.5 170.5,-225.5 283.5,-225.5 283.5,-225.5 170.5,-225.5"/>
<polygon fill="none" stroke="#666666" points="155.5,-133.5 155.5,-287.5 283.5,-287.5 283.5,-133.5 155.5,-133.5"/>
</a>
</g>
</g>
<!-- Node3&#45;&gt;Node1 -->
<g id="edge2_Node000001_Node000003" class="edge">
<title>Node3&#45;&gt;Node1</title>
<g id="a_edge2_Node000001_Node000003"><a xlink:title=" ">
<path fill="none" stroke="#63b8ff" d="M210.75,-133.37C207.6,-120.8 203.31,-108.22 197.5,-97 196.08,-94.26 194.49,-91.56 192.76,-88.91"/>
<polygon fill="none" stroke="#63b8ff" points="192.61,-88.71 185.84,-86.22 185.54,-79.02 192.31,-81.51 192.61,-88.71"/>
</a>
</g>
<text text-anchor="middle" x="222" y="-100" font-family="Helvetica,sans-Serif" font-size="10.00" fill="grey"> &#45;_parser</text>
</g>
</g>
</svg>
</svg>

<style type='text/css'>
<![CDATA[
[data-mouse-over-selected='false'] { opacity: 0.7; }
[data-mouse-over-selected='true']  { opacity: 1.0; }
]]>
</style>
<script type="application/ecmascript"><![CDATA[
document.addEventListener('DOMContentLoaded', (event) => {
  highlightEdges();
  highlightAdjacentNodes();
});
]]></script>
</svg>
