<?xml version="1.0" encoding="UTF-8" standalone="no"?>
<!DOCTYPE svg PUBLIC "-//W3C//DTD SVG 1.1//EN"
 "http://www.w3.org/Graphics/SVG/1.1/DTD/svg11.dtd">
<!-- Generated by graphviz version 2.43.0 (0)
 -->
<!-- Title: RayTracer::Sphere Pages: 1 -->
<svg width="124pt" height="262pt"
 viewBox="0.00 0.00 124.00 262.00" xmlns="http://www.w3.org/2000/svg" xmlns:xlink="http://www.w3.org/1999/xlink">
<g id="graph0" class="graph" transform="scale(1 1) rotate(0) translate(4 258)">
<title>RayTracer::Sphere</title>
<!-- Node1 -->
<g id="Node000001" class="node">
<title>Node1</title>
<g id="a_Node000001"><a xlink:title=" ">
<polygon fill="#999999" stroke="transparent" points="107,-109 9,-109 9,0 107,0 107,-109"/>
<text text-anchor="start" x="14" y="-96.5" font-family="Helvetica,sans-Serif" font-size="10.00">RayTracer::Sphere</text>
<text text-anchor="start" x="19.5" y="-81.5" font-family="Helvetica,sans-Serif" font-size="10.00">&#45;</text>
<text text-anchor="start" x="34" y="-81.5" font-family="Helvetica,sans-Serif" font-size="10.00">_center</text>
<text text-anchor="start" x="19.5" y="-66.5" font-family="Helvetica,sans-Serif" font-size="10.00">&#45;</text>
<text text-anchor="start" x="34" y="-66.5" font-family="Helvetica,sans-Serif" font-size="10.00">_radius</text>
<text text-anchor="start" x="17" y="-51.5" font-family="Helvetica,sans-Serif" font-size="10.00">+</text>
<text text-anchor="start" x="34" y="-51.5" font-family="Helvetica,sans-Serif" font-size="10.00">Sphere()</text>
<text text-anchor="start" x="17" y="-36.5" font-family="Helvetica,sans-Serif" font-size="10.00">+</text>
<text text-anchor="start" x="34" y="-36.5" font-family="Helvetica,sans-Serif" font-size="10.00">~Sphere()</text>
<text text-anchor="start" x="17" y="-21.5" font-family="Helvetica,sans-Serif" font-size="10.00">+</text>
<text text-anchor="start" x="34" y="-21.5" font-family="Helvetica,sans-Serif" font-size="10.00">hit()</text>
<text text-anchor="start" x="17" y="-6.5" font-family="Helvetica,sans-Serif" font-size="10.00">+</text>
<text text-anchor="start" x="34" y="-6.5" font-family="Helvetica,sans-Serif" font-size="10.00">getBounds()</text>
<polygon fill="#666666" stroke="#666666" points="9,-91.5 9,-91.5 107,-91.5 107,-91.5 9,-91.5"/>
<polygon fill="#666666" stroke="#666666" points="9,-61.5 9,-61.5 32,-61.5 32,-61.5 9,-61.5"/>
<polygon fill="#666666" stroke="#666666" points="32,-61.5 32,-61.5 107,-61.5 107,-61.5 32,-61.5"/>
<polygon fill="none" stroke="#666666" points="9,0 9,-109 107,-109 107,0 9,0"/>
</a>
</g>
</g>
<!-- Node2 -->
<g id="Node000002" class="node">
<title>Node2</title>
<g id="a_Node000002"><a xlink:href="classRayTracer_1_1APrimitive.html" target="_top" xlink:title="Abstract base class for all primitives (renderable objects). Primitives have geometry and a material.">
<polygon fill="white" stroke="transparent" points="116,-254 0,-254 0,-145 116,-145 116,-254"/>
<text text-anchor="start" x="5" y="-241.5" font-family="Helvetica,sans-Serif" font-size="10.00">RayTracer::APrimitive</text>
<text text-anchor="start" x="13.5" y="-226.5" font-family="Helvetica,sans-Serif" font-size="10.00">&#45;</text>
<text text-anchor="start" x="31" y="-226.5" font-family="Helvetica,sans-Serif" font-size="10.00">_material</text>
<text text-anchor="start" x="11" y="-211.5" font-family="Helvetica,sans-Serif" font-size="10.00">+</text>
<text text-anchor="start" x="31" y="-211.5" font-family="Helvetica,sans-Serif" font-size="10.00">APrimitive()</text>
<text text-anchor="start" x="11" y="-196.5" font-family="Helvetica,sans-Serif" font-size="10.00">+</text>
<text text-anchor="start" x="31" y="-196.5" font-family="Helvetica,sans-Serif" font-size="10.00">~APrimitive()</text>
<text text-anchor="start" x="11" y="-181.5" font-family="Helvetica,sans-Serif" font-size="10.00">+</text>
<text text-anchor="start" x="31" y="-181.5" font-family="Helvetica,sans-Serif" font-size="10.00">hit()</text>
<text text-anchor="start" x="11" y="-166.5" font-family="Helvetica,sans-Serif" font-size="10.00">+</text>
<text text-anchor="start" x="31" y="-166.5" font-family="Helvetica,sans-Serif" font-size="10.00">getBounds()</text>
<text text-anchor="start" x="11" y="-151.5" font-family="Helvetica,sans-Serif" font-size="10.00">+</text>
<text text-anchor="start" x="31" y="-151.5" font-family="Helvetica,sans-Serif" font-size="10.00">getMaterial()</text>
<polygon fill="#666666" stroke="#666666" points="0,-236.5 0,-236.5 116,-236.5 116,-236.5 0,-236.5"/>
<polygon fill="#666666" stroke="#666666" points="0,-221.5 0,-221.5 29,-221.5 29,-221.5 0,-221.5"/>
<polygon fill="#666666" stroke="#666666" points="29,-221.5 29,-221.5 116,-221.5 116,-221.5 29,-221.5"/>
<polygon fill="none" stroke="#666666" points="0,-145 0,-254 116,-254 116,-145 0,-145"/>
</a>
</g>
</g>
<!-- Node2&#45;&gt;Node1 -->
<g id="edge1_Node000001_Node000002" class="edge">
<title>Node2&#45;&gt;Node1</title>
<g id="a_edge1_Node000001_Node000002"><a xlink:title=" ">
<path fill="none" stroke="#63b8ff" d="M58,-134.68C58,-126.25 58,-117.69 58,-109.46"/>
<polygon fill="none" stroke="#63b8ff" points="54.5,-134.85 58,-144.85 61.5,-134.85 54.5,-134.85"/>
</a>
</g>
</g>
</g>
</svg>
