<?xml version="1.0" encoding="UTF-8" standalone="no"?>
<!DOCTYPE svg PUBLIC "-//W3C//DTD SVG 1.1//EN"
 "http://www.w3.org/Graphics/SVG/1.1/DTD/svg11.dtd">
<!-- Generated by graphviz version 2.43.0 (0)
 -->
<!-- Title: Geometry::Point3D::operator&#45; Pages: 1 -->
<svg width="289pt" height="138pt"
 viewBox="0.00 0.00 289.00 138.00" xmlns="http://www.w3.org/2000/svg" xmlns:xlink="http://www.w3.org/1999/xlink">

<svg id="main" version="1.1" xmlns="http://www.w3.org/2000/svg" xmlns:xlink="http://www.w3.org/1999/xlink" xml:space="preserve" onload="init(evt)">
<style type="text/css"><![CDATA[
.node, .edge {opacity: 0.7;}
.node.selected, .edge.selected {opacity: 1;}
.edge:hover path { stroke: red; }
.edge:hover polygon { stroke: red; fill: red; }
]]></style>
<script type="application/ecmascript" xlink:href="svg.min.js"/>
<svg id="graph" class="graph">
<g id="graph0" class="graph" transform="scale(1 1) rotate(0) translate(4 134)">
<title>Geometry::Point3D::operator&#45;</title>
<!-- Node1 -->
<g id="Node000001" class="node">
<title>Node1</title>
<g id="a_Node000001"><a xlink:title=" ">
<polygon fill="#999999" stroke="#666666" points="281,-79.5 166,-79.5 166,-49.5 281,-49.5 281,-79.5"/>
<text text-anchor="start" x="174" y="-67.5" font-family="Helvetica,sans-Serif" font-size="10.00">Geometry::Point3D::</text>
<text text-anchor="middle" x="223.5" y="-56.5" font-family="Helvetica,sans-Serif" font-size="10.00">operator&#45;</text>
</a>
</g>
</g>
<!-- Node2 -->
<g id="Node000002" class="node">
<title>Node2</title>
<g id="a_Node000002"><a xlink:href="classRayTracer_1_1Cone.html#a19623c2790fd4ab917eb624508e57e5d" target="_top" xlink:title="Test ray–cone intersection using the quadratic form of the cone equation.">
<polygon fill="white" stroke="#666666" points="122,-130 8,-130 8,-111 122,-111 122,-130"/>
<text text-anchor="middle" x="65" y="-118" font-family="Helvetica,sans-Serif" font-size="10.00">RayTracer::Cone::hit</text>
</a>
</g>
</g>
<!-- Node1&#45;&gt;Node2 -->
<g id="edge1_Node000001_Node000002" class="edge">
<title>Node1&#45;&gt;Node2</title>
<g id="a_edge1_Node000001_Node000002"><a xlink:title=" ">
<path fill="none" stroke="#63b8ff" d="M179.31,-83.45C163.9,-89.89 146.31,-96.88 130,-102.5 121.27,-105.51 111.75,-108.4 102.78,-110.94"/>
<polygon fill="#63b8ff" stroke="#63b8ff" points="180.75,-86.65 188.6,-79.53 178.02,-80.2 180.75,-86.65"/>
</a>
</g>
</g>
<!-- Node3 -->
<g id="Node000003" class="node">
<title>Node3</title>
<g id="a_Node000003"><a xlink:href="classRayTracer_1_1Cylinder.html#ab42450e2290b96bccdf83ba79fa9d8af" target="_top" xlink:title="Test ray–cylinder intersection using the quadratic form of the cylinder equation.">
<polygon fill="white" stroke="#666666" points="130,-93 0,-93 0,-74 130,-74 130,-93"/>
<text text-anchor="middle" x="65" y="-81" font-family="Helvetica,sans-Serif" font-size="10.00">RayTracer::Cylinder::hit</text>
</a>
</g>
</g>
<!-- Node1&#45;&gt;Node3 -->
<g id="edge2_Node000001_Node000003" class="edge">
<title>Node1&#45;&gt;Node3</title>
<g id="a_edge2_Node000001_Node000003"><a xlink:title=" ">
<path fill="none" stroke="#63b8ff" d="M156.03,-72.57C147.45,-73.61 138.67,-74.68 130.12,-75.72"/>
<polygon fill="#63b8ff" stroke="#63b8ff" points="156.49,-76.04 166,-71.36 155.65,-69.09 156.49,-76.04"/>
</a>
</g>
</g>
<!-- Node4 -->
<g id="Node000004" class="node">
<title>Node4</title>
<g id="a_Node000004"><a xlink:href="classRayTracer_1_1Plane.html#a7b741696eb186f6ec9df62e58e795916" target="_top" xlink:title="Test ray–plane intersection using the algebraic plane equation.">
<polygon fill="white" stroke="#666666" points="123,-56 7,-56 7,-37 123,-37 123,-56"/>
<text text-anchor="middle" x="65" y="-44" font-family="Helvetica,sans-Serif" font-size="10.00">RayTracer::Plane::hit</text>
</a>
</g>
</g>
<!-- Node1&#45;&gt;Node4 -->
<g id="edge3_Node000001_Node000004" class="edge">
<title>Node1&#45;&gt;Node4</title>
<g id="a_edge3_Node000001_Node000004"><a xlink:title=" ">
<path fill="none" stroke="#63b8ff" d="M155.74,-56.82C144.91,-55.58 133.78,-54.3 123.21,-53.08"/>
<polygon fill="#63b8ff" stroke="#63b8ff" points="155.67,-60.34 166,-58 156.47,-53.38 155.67,-60.34"/>
</a>
</g>
</g>
<!-- Node5 -->
<g id="Node000005" class="node">
<title>Node5</title>
<g id="a_Node000005"><a xlink:href="classRayTracer_1_1Sphere.html#a40d439c5a658465a6eeef01f7679ecc9" target="_top" xlink:title="Test ray intersection with this primitive.">
<polygon fill="white" stroke="#666666" points="126.5,-19 3.5,-19 3.5,0 126.5,0 126.5,-19"/>
<text text-anchor="middle" x="65" y="-7" font-family="Helvetica,sans-Serif" font-size="10.00">RayTracer::Sphere::hit</text>
</a>
</g>
</g>
<!-- Node1&#45;&gt;Node5 -->
<g id="edge4_Node000001_Node000005" class="edge">
<title>Node1&#45;&gt;Node5</title>
<g id="a_edge4_Node000001_Node000005"><a xlink:title=" ">
<path fill="none" stroke="#63b8ff" d="M176.44,-45.71C161.7,-39.93 145.25,-33.72 130,-28.5 120.35,-25.2 109.77,-21.92 100.04,-19.04"/>
<polygon fill="#63b8ff" stroke="#63b8ff" points="175.26,-49.01 185.85,-49.43 177.84,-42.5 175.26,-49.01"/>
</a>
</g>
</g>
</g>
</svg>
</svg>

<style type='text/css'>
<![CDATA[
[data-mouse-over-selected='false'] { opacity: 0.7; }
[data-mouse-over-selected='true']  { opacity: 1.0; }
]]>
</style>
<script type="application/ecmascript"><![CDATA[
document.addEventListener('DOMContentLoaded', (event) => {
  highlightEdges();
  highlightAdjacentNodes();
});
]]></script>
</svg>
