<?xml version="1.0" encoding="UTF-8" standalone="no"?>
<!DOCTYPE svg PUBLIC "-//W3C//DTD SVG 1.1//EN"
 "http://www.w3.org/Graphics/SVG/1.1/DTD/svg11.dtd">
<!-- Generated by graphviz version 2.43.0 (0)
 -->
<!-- Title: RayTracer::APrimitive Pages: 1 -->
<svg width="340pt" height="262pt"
 viewBox="0.00 0.00 339.50 262.00" xmlns="http://www.w3.org/2000/svg" xmlns:xlink="http://www.w3.org/1999/xlink">
<g id="graph0" class="graph" transform="scale(1 1) rotate(0) translate(4 258)">
<title>RayTracer::APrimitive</title>
<!-- Node1 -->
<g id="Node000001" class="node">
<title>Node1</title>
<g id="a_Node000001"><a xlink:title="Abstract base class for all primitives (renderable objects). Primitives have geometry and a material.">
<polygon fill="#999999" stroke="transparent" points="227.5,-254 111.5,-254 111.5,-160 227.5,-160 227.5,-254"/>
<text text-anchor="start" x="116.5" y="-242" font-family="Helvetica,sans-Serif" font-size="10.00">RayTracer::APrimitive</text>
<text text-anchor="start" x="125" y="-227" font-family="Helvetica,sans-Serif" font-size="10.00">&#45;</text>
<text text-anchor="start" x="142.5" y="-227" font-family="Helvetica,sans-Serif" font-size="10.00">_material</text>
<text text-anchor="start" x="122.5" y="-212" font-family="Helvetica,sans-Serif" font-size="10.00">+</text>
<text text-anchor="start" x="142.5" y="-212" font-family="Helvetica,sans-Serif" font-size="10.00">APrimitive()</text>
<text text-anchor="start" x="122.5" y="-197" font-family="Helvetica,sans-Serif" font-size="10.00">+</text>
<text text-anchor="start" x="142.5" y="-197" font-family="Helvetica,sans-Serif" font-size="10.00">~APrimitive()</text>
<text text-anchor="start" x="122.5" y="-182" font-family="Helvetica,sans-Serif" font-size="10.00">+</text>
<text text-anchor="start" x="142.5" y="-182" font-family="Helvetica,sans-Serif" font-size="10.00">hit()</text>
<text text-anchor="start" x="122.5" y="-167" font-family="Helvetica,sans-Serif" font-size="10.00">+</text>
<text text-anchor="start" x="142.5" y="-167" font-family="Helvetica,sans-Serif" font-size="10.00">getMaterial()</text>
<polygon fill="#666666" stroke="#666666" points="111.5,-237 111.5,-237 227.5,-237 227.5,-237 111.5,-237"/>
<polygon fill="#666666" stroke="#666666" points="111.5,-222 111.5,-222 140.5,-222 140.5,-222 111.5,-222"/>
<polygon fill="#666666" stroke="#666666" points="140.5,-222 140.5,-222 227.5,-222 227.5,-222 140.5,-222"/>
<polygon fill="none" stroke="#666666" points="111.5,-160 111.5,-254 227.5,-254 227.5,-160 111.5,-160"/>
</a>
</g>
</g>
<!-- Node2 -->
<g id="Node000002" class="node">
<title>Node2</title>
<g id="a_Node000002"><a xlink:href="classRayTracer_1_1Cylinder.html" target="_top" xlink:title=" ">
<polygon fill="white" stroke="transparent" points="105,-124 0,-124 0,0 105,0 105,-124"/>
<text text-anchor="start" x="5.5" y="-112" font-family="Helvetica,sans-Serif" font-size="10.00">RayTracer::Cylinder</text>
<text text-anchor="start" x="13.5" y="-97" font-family="Helvetica,sans-Serif" font-size="10.00">&#45;</text>
<text text-anchor="start" x="30.5" y="-97" font-family="Helvetica,sans-Serif" font-size="10.00">_origin</text>
<text text-anchor="start" x="13.5" y="-82" font-family="Helvetica,sans-Serif" font-size="10.00">&#45;</text>
<text text-anchor="start" x="30.5" y="-82" font-family="Helvetica,sans-Serif" font-size="10.00">_axis</text>
<text text-anchor="start" x="13.5" y="-67" font-family="Helvetica,sans-Serif" font-size="10.00">&#45;</text>
<text text-anchor="start" x="30.5" y="-67" font-family="Helvetica,sans-Serif" font-size="10.00">_radius</text>
<text text-anchor="start" x="11" y="-52" font-family="Helvetica,sans-Serif" font-size="10.00">+</text>
<text text-anchor="start" x="30.5" y="-52" font-family="Helvetica,sans-Serif" font-size="10.00">Cylinder()</text>
<text text-anchor="start" x="11" y="-37" font-family="Helvetica,sans-Serif" font-size="10.00">+</text>
<text text-anchor="start" x="30.5" y="-37" font-family="Helvetica,sans-Serif" font-size="10.00">Cylinder()</text>
<text text-anchor="start" x="11" y="-22" font-family="Helvetica,sans-Serif" font-size="10.00">+</text>
<text text-anchor="start" x="30.5" y="-22" font-family="Helvetica,sans-Serif" font-size="10.00">~Cylinder()</text>
<text text-anchor="start" x="11" y="-7" font-family="Helvetica,sans-Serif" font-size="10.00">+</text>
<text text-anchor="start" x="30.5" y="-7" font-family="Helvetica,sans-Serif" font-size="10.00">hit()</text>
<polygon fill="#666666" stroke="#666666" points="0.5,-107 0.5,-107 105.5,-107 105.5,-107 0.5,-107"/>
<polygon fill="#666666" stroke="#666666" points="0.5,-62 0.5,-62 28.5,-62 28.5,-62 0.5,-62"/>
<polygon fill="#666666" stroke="#666666" points="28.5,-62 28.5,-62 105.5,-62 105.5,-62 28.5,-62"/>
<polygon fill="none" stroke="#666666" points="0,0 0,-124 105,-124 105,0 0,0"/>
</a>
</g>
</g>
<!-- Node1&#45;&gt;Node2 -->
<g id="edge1_Node000001_Node000002" class="edge">
<title>Node1&#45;&gt;Node2</title>
<g id="a_edge1_Node000001_Node000002"><a xlink:title=" ">
<path fill="none" stroke="#63b8ff" d="M125.37,-152.06C117.89,-142.92 110.08,-133.38 102.47,-124.08"/>
<polygon fill="none" stroke="#63b8ff" points="122.8,-154.44 131.84,-159.97 128.21,-150.01 122.8,-154.44"/>
</a>
</g>
</g>
<!-- Node3 -->
<g id="Node000003" class="node">
<title>Node3</title>
<g id="a_Node000003"><a xlink:href="classRayTracer_1_1Plane.html" target="_top" xlink:title=" ">
<polygon fill="white" stroke="transparent" points="215.5,-116.5 123.5,-116.5 123.5,-7.5 215.5,-7.5 215.5,-116.5"/>
<text text-anchor="start" x="128.5" y="-104" font-family="Helvetica,sans-Serif" font-size="10.00">RayTracer::Plane</text>
<text text-anchor="start" x="137" y="-89" font-family="Helvetica,sans-Serif" font-size="10.00">&#45;</text>
<text text-anchor="start" x="154.5" y="-89" font-family="Helvetica,sans-Serif" font-size="10.00">_point</text>
<text text-anchor="start" x="137" y="-74" font-family="Helvetica,sans-Serif" font-size="10.00">&#45;</text>
<text text-anchor="start" x="154.5" y="-74" font-family="Helvetica,sans-Serif" font-size="10.00">_normal</text>
<text text-anchor="start" x="134.5" y="-59" font-family="Helvetica,sans-Serif" font-size="10.00">+</text>
<text text-anchor="start" x="154.5" y="-59" font-family="Helvetica,sans-Serif" font-size="10.00">Plane()</text>
<text text-anchor="start" x="134.5" y="-44" font-family="Helvetica,sans-Serif" font-size="10.00">+</text>
<text text-anchor="start" x="154.5" y="-44" font-family="Helvetica,sans-Serif" font-size="10.00">Plane()</text>
<text text-anchor="start" x="134.5" y="-29" font-family="Helvetica,sans-Serif" font-size="10.00">+</text>
<text text-anchor="start" x="154.5" y="-29" font-family="Helvetica,sans-Serif" font-size="10.00">~Plane()</text>
<text text-anchor="start" x="134.5" y="-14" font-family="Helvetica,sans-Serif" font-size="10.00">+</text>
<text text-anchor="start" x="154.5" y="-14" font-family="Helvetica,sans-Serif" font-size="10.00">hit()</text>
<polygon fill="#666666" stroke="#666666" points="123.5,-99 123.5,-99 215.5,-99 215.5,-99 123.5,-99"/>
<polygon fill="#666666" stroke="#666666" points="123.5,-69 123.5,-69 152.5,-69 152.5,-69 123.5,-69"/>
<polygon fill="#666666" stroke="#666666" points="152.5,-69 152.5,-69 215.5,-69 215.5,-69 152.5,-69"/>
<polygon fill="none" stroke="#666666" points="123.5,-7.5 123.5,-116.5 215.5,-116.5 215.5,-7.5 123.5,-7.5"/>
</a>
</g>
</g>
<!-- Node1&#45;&gt;Node3 -->
<g id="edge2_Node000001_Node000003" class="edge">
<title>Node1&#45;&gt;Node3</title>
<g id="a_edge2_Node000001_Node000003"><a xlink:title=" ">
<path fill="none" stroke="#63b8ff" d="M169.5,-149.72C169.5,-138.84 169.5,-127.46 169.5,-116.67"/>
<polygon fill="none" stroke="#63b8ff" points="166,-149.97 169.5,-159.97 173,-149.97 166,-149.97"/>
</a>
</g>
</g>
<!-- Node4 -->
<g id="Node000004" class="node">
<title>Node4</title>
<g id="a_Node000004"><a xlink:href="classRayTracer_1_1Sphere.html" target="_top" xlink:title=" ">
<polygon fill="white" stroke="transparent" points="331.5,-109 233.5,-109 233.5,-15 331.5,-15 331.5,-109"/>
<text text-anchor="start" x="238.5" y="-97" font-family="Helvetica,sans-Serif" font-size="10.00">RayTracer::Sphere</text>
<text text-anchor="start" x="246.5" y="-82" font-family="Helvetica,sans-Serif" font-size="10.00">&#45;</text>
<text text-anchor="start" x="263.5" y="-82" font-family="Helvetica,sans-Serif" font-size="10.00">_center</text>
<text text-anchor="start" x="246.5" y="-67" font-family="Helvetica,sans-Serif" font-size="10.00">&#45;</text>
<text text-anchor="start" x="263.5" y="-67" font-family="Helvetica,sans-Serif" font-size="10.00">_radius</text>
<text text-anchor="start" x="244" y="-52" font-family="Helvetica,sans-Serif" font-size="10.00">+</text>
<text text-anchor="start" x="263.5" y="-52" font-family="Helvetica,sans-Serif" font-size="10.00">Sphere()</text>
<text text-anchor="start" x="244" y="-37" font-family="Helvetica,sans-Serif" font-size="10.00">+</text>
<text text-anchor="start" x="263.5" y="-37" font-family="Helvetica,sans-Serif" font-size="10.00">~Sphere()</text>
<text text-anchor="start" x="244" y="-22" font-family="Helvetica,sans-Serif" font-size="10.00">+</text>
<text text-anchor="start" x="263.5" y="-22" font-family="Helvetica,sans-Serif" font-size="10.00">hit()</text>
<polygon fill="#666666" stroke="#666666" points="233.5,-92 233.5,-92 331.5,-92 331.5,-92 233.5,-92"/>
<polygon fill="#666666" stroke="#666666" points="233.5,-62 233.5,-62 261.5,-62 261.5,-62 233.5,-62"/>
<polygon fill="#666666" stroke="#666666" points="261.5,-62 261.5,-62 331.5,-62 331.5,-62 261.5,-62"/>
<polygon fill="none" stroke="#666666" points="233.5,-15 233.5,-109 331.5,-109 331.5,-15 233.5,-15"/>
</a>
</g>
</g>
<!-- Node1&#45;&gt;Node4 -->
<g id="edge3_Node000001_Node000004" class="edge">
<title>Node1&#45;&gt;Node4</title>
<g id="a_edge3_Node000001_Node000004"><a xlink:title=" ">
<path fill="none" stroke="#63b8ff" d="M212.28,-151.87C223.32,-137.89 235.1,-122.98 245.8,-109.44"/>
<polygon fill="none" stroke="#63b8ff" points="209.33,-149.95 205.88,-159.97 214.82,-154.29 209.33,-149.95"/>
</a>
</g>
</g>
</g>
</svg>
