<?xml version="1.0" encoding="UTF-8" standalone="no"?>
<!DOCTYPE svg PUBLIC "-//W3C//DTD SVG 1.1//EN"
 "http://www.w3.org/Graphics/SVG/1.1/DTD/svg11.dtd">
<!-- Generated by graphviz version 2.43.0 (0)
 -->
<!-- Title: RayTracer::APrimitive::getMaterial Pages: 1 -->
<svg width="296pt" height="101pt"
 viewBox="0.00 0.00 296.00 101.00" xmlns="http://www.w3.org/2000/svg" xmlns:xlink="http://www.w3.org/1999/xlink">
<g id="graph0" class="graph" transform="scale(1 1) rotate(0) translate(4 97)">
<title>RayTracer::APrimitive::getMaterial</title>
<!-- Node1 -->
<g id="Node000001" class="node">
<title>Node1</title>
<g id="a_Node000001"><a xlink:title="Get the material of this primitive.">
<polygon fill="#999999" stroke="#666666" points="288,-61.5 166,-61.5 166,-31.5 288,-31.5 288,-61.5"/>
<text text-anchor="start" x="174" y="-49.5" font-family="Helvetica,sans-Serif" font-size="10.00">RayTracer::APrimitive</text>
<text text-anchor="middle" x="227" y="-38.5" font-family="Helvetica,sans-Serif" font-size="10.00">::getMaterial</text>
</a>
</g>
</g>
<!-- Node2 -->
<g id="Node000002" class="node">
<title>Node2</title>
<g id="a_Node000002"><a xlink:href="classRayTracer_1_1Cylinder.html#ab42450e2290b96bccdf83ba79fa9d8af" target="_top" xlink:title="Test ray–cylinder intersection using the quadratic form of the cylinder equation.">
<polygon fill="white" stroke="#666666" points="130,-93 0,-93 0,-74 130,-74 130,-93"/>
<text text-anchor="middle" x="65" y="-81" font-family="Helvetica,sans-Serif" font-size="10.00">RayTracer::Cylinder::hit</text>
</a>
</g>
</g>
<!-- Node1&#45;&gt;Node2 -->
<g id="edge1_Node000001_Node000002" class="edge">
<title>Node1&#45;&gt;Node2</title>
<g id="a_edge1_Node000001_Node000002"><a xlink:title=" ">
<path fill="none" stroke="#63b8ff" d="M155.78,-62.74C139.27,-66.56 122.19,-70.51 107.42,-73.92"/>
<polygon fill="#63b8ff" stroke="#63b8ff" points="157.01,-66.05 165.97,-60.38 155.44,-59.23 157.01,-66.05"/>
</a>
</g>
</g>
<!-- Node3 -->
<g id="Node000003" class="node">
<title>Node3</title>
<g id="a_Node000003"><a xlink:href="classRayTracer_1_1Plane.html#a7b741696eb186f6ec9df62e58e795916" target="_top" xlink:title="Test ray–plane intersection using the algebraic plane equation.">
<polygon fill="white" stroke="#666666" points="123,-56 7,-56 7,-37 123,-37 123,-56"/>
<text text-anchor="middle" x="65" y="-44" font-family="Helvetica,sans-Serif" font-size="10.00">RayTracer::Plane::hit</text>
</a>
</g>
</g>
<!-- Node1&#45;&gt;Node3 -->
<g id="edge2_Node000001_Node000003" class="edge">
<title>Node1&#45;&gt;Node3</title>
<g id="a_edge2_Node000001_Node000003"><a xlink:title=" ">
<path fill="none" stroke="#63b8ff" d="M155.66,-46.5C144.81,-46.5 133.71,-46.5 123.19,-46.5"/>
<polygon fill="#63b8ff" stroke="#63b8ff" points="155.97,-50 165.97,-46.5 155.97,-43 155.97,-50"/>
</a>
</g>
</g>
<!-- Node4 -->
<g id="Node000004" class="node">
<title>Node4</title>
<g id="a_Node000004"><a xlink:href="classRayTracer_1_1Sphere.html#a40d439c5a658465a6eeef01f7679ecc9" target="_top" xlink:title="Test ray intersection with this primitive.">
<polygon fill="white" stroke="#666666" points="126.5,-19 3.5,-19 3.5,0 126.5,0 126.5,-19"/>
<text text-anchor="middle" x="65" y="-7" font-family="Helvetica,sans-Serif" font-size="10.00">RayTracer::Sphere::hit</text>
</a>
</g>
</g>
<!-- Node1&#45;&gt;Node4 -->
<g id="edge3_Node000001_Node000004" class="edge">
<title>Node1&#45;&gt;Node4</title>
<g id="a_edge3_Node000001_Node000004"><a xlink:title=" ">
<path fill="none" stroke="#63b8ff" d="M155.78,-30.26C139.27,-26.44 122.19,-22.49 107.42,-19.08"/>
<polygon fill="#63b8ff" stroke="#63b8ff" points="155.44,-33.77 165.97,-32.62 157.01,-26.95 155.44,-33.77"/>
</a>
</g>
</g>
</g>
</svg>
