<?xml version="1.0" encoding="UTF-8" standalone="no"?>
<!DOCTYPE svg PUBLIC "-//W3C//DTD SVG 1.1//EN"
 "http://www.w3.org/Graphics/SVG/1.1/DTD/svg11.dtd">
<!-- Generated by graphviz version 2.43.0 (0)
 -->
<!-- Title: RayTracer::Sphere::hit Pages: 1 -->
<svg width="455pt" height="257pt"
 viewBox="0.00 0.00 455.00 257.00" xmlns="http://www.w3.org/2000/svg" xmlns:xlink="http://www.w3.org/1999/xlink">
<g id="graph0" class="graph" transform="scale(1 1) rotate(0) translate(4 253)">
<title>RayTracer::Sphere::hit</title>
<!-- Node1 -->
<g id="Node000001" class="node">
<title>Node1</title>
<g id="a_Node000001"><a xlink:title="Test ray intersection with this primitive.">
<polygon fill="#999999" stroke="#666666" points="123,-141.5 0,-141.5 0,-122.5 123,-122.5 123,-141.5"/>
<text text-anchor="middle" x="61.5" y="-129.5" font-family="Helvetica,sans-Serif" font-size="10.00">RayTracer::Sphere::hit</text>
</a>
</g>
</g>
<!-- Node2 -->
<g id="Node000002" class="node">
<title>Node2</title>
<g id="a_Node000002"><a xlink:href="structGeometry_1_1HitRecord.html#a158d2c230c1851a8f6bc0e79dc4b12b5" target="_top" xlink:title="Constructor.">
<polygon fill="white" stroke="#666666" points="287,-249 168,-249 168,-219 287,-219 287,-249"/>
<text text-anchor="start" x="176" y="-237" font-family="Helvetica,sans-Serif" font-size="10.00">Geometry::HitRecord</text>
<text text-anchor="middle" x="227.5" y="-226" font-family="Helvetica,sans-Serif" font-size="10.00">::HitRecord</text>
</a>
</g>
</g>
<!-- Node1&#45;&gt;Node2 -->
<g id="edge1_Node000001_Node000002" class="edge">
<title>Node1&#45;&gt;Node2</title>
<g id="a_edge1_Node000001_Node000002"><a xlink:title=" ">
<path fill="none" stroke="#63b8ff" d="M72.09,-141.65C88.56,-157.77 123.86,-190.31 159,-210 162.02,-211.69 165.18,-213.3 168.42,-214.82"/>
<polygon fill="#63b8ff" stroke="#63b8ff" points="167.12,-218.08 177.69,-218.88 169.93,-211.66 167.12,-218.08"/>
</a>
</g>
</g>
<!-- Node3 -->
<g id="Node000003" class="node">
<title>Node3</title>
<g id="a_Node000003"><a xlink:href="classGeometry_1_1Ray.html#ab2ee230ea6c5b866a94d7bfd57c98845" target="_top" xlink:title="Compute a point at parameter t along the ray.">
<polygon fill="white" stroke="#666666" points="279.5,-200.5 175.5,-200.5 175.5,-181.5 279.5,-181.5 279.5,-200.5"/>
<text text-anchor="middle" x="227.5" y="-188.5" font-family="Helvetica,sans-Serif" font-size="10.00">Geometry::Ray::at</text>
</a>
</g>
</g>
<!-- Node1&#45;&gt;Node3 -->
<g id="edge2_Node000001_Node000003" class="edge">
<title>Node1&#45;&gt;Node3</title>
<g id="a_edge2_Node000001_Node000003"><a xlink:title=" ">
<path fill="none" stroke="#63b8ff" d="M82.88,-141.65C102.19,-150.56 132.15,-163.77 159,-173 164.87,-175.02 171.09,-176.95 177.29,-178.75"/>
<polygon fill="#63b8ff" stroke="#63b8ff" points="176.38,-182.13 186.96,-181.46 178.27,-175.39 176.38,-182.13"/>
</a>
</g>
</g>
<!-- Node5 -->
<g id="Node000005" class="node">
<title>Node5</title>
<g id="a_Node000005"><a xlink:href="classGeometry_1_1Vector3D.html#affb9009fe58aafa334f1f5f703feceb3" target="_top" xlink:title=" ">
<polygon fill="white" stroke="#666666" points="296,-163.5 159,-163.5 159,-144.5 296,-144.5 296,-163.5"/>
<text text-anchor="middle" x="227.5" y="-151.5" font-family="Helvetica,sans-Serif" font-size="10.00">Geometry::Vector3D::dot</text>
</a>
</g>
</g>
<!-- Node1&#45;&gt;Node5 -->
<g id="edge4_Node000001_Node000005" class="edge">
<title>Node1&#45;&gt;Node5</title>
<g id="a_edge4_Node000001_Node000005"><a xlink:title=" ">
<path fill="none" stroke="#63b8ff" d="M123.1,-140.13C131.5,-141.26 140.21,-142.42 148.86,-143.59"/>
<polygon fill="#63b8ff" stroke="#63b8ff" points="148.59,-147.08 158.97,-144.94 149.52,-140.14 148.59,-147.08"/>
</a>
</g>
</g>
<!-- Node6 -->
<g id="Node000006" class="node">
<title>Node6</title>
<g id="a_Node000006"><a xlink:href="classRayTracer_1_1APrimitive.html#acdc1a350e79537fa0b9c8588a170bdcf" target="_top" xlink:title="Get the material of this primitive.">
<polygon fill="white" stroke="#666666" points="288.5,-126 166.5,-126 166.5,-96 288.5,-96 288.5,-126"/>
<text text-anchor="start" x="174.5" y="-114" font-family="Helvetica,sans-Serif" font-size="10.00">RayTracer::APrimitive</text>
<text text-anchor="middle" x="227.5" y="-103" font-family="Helvetica,sans-Serif" font-size="10.00">::getMaterial</text>
</a>
</g>
</g>
<!-- Node1&#45;&gt;Node6 -->
<g id="edge5_Node000001_Node000006" class="edge">
<title>Node1&#45;&gt;Node6</title>
<g id="a_edge5_Node000001_Node000006"><a xlink:title=" ">
<path fill="none" stroke="#63b8ff" d="M123.1,-124.24C133.93,-122.85 145.29,-121.4 156.36,-119.98"/>
<polygon fill="#63b8ff" stroke="#63b8ff" points="156.95,-123.43 166.42,-118.69 156.06,-116.49 156.95,-123.43"/>
</a>
</g>
</g>
<!-- Node7 -->
<g id="Node000007" class="node">
<title>Node7</title>
<g id="a_Node000007"><a xlink:href="classGeometry_1_1Vector3D.html#a388f7af8bf0095c817e89b5b2518fda7" target="_top" xlink:title=" ">
<polygon fill="white" stroke="#666666" points="285,-30 170,-30 170,0 285,0 285,-30"/>
<text text-anchor="start" x="178" y="-18" font-family="Helvetica,sans-Serif" font-size="10.00">Geometry::Vector3D</text>
<text text-anchor="middle" x="227.5" y="-7" font-family="Helvetica,sans-Serif" font-size="10.00">::normalize</text>
</a>
</g>
</g>
<!-- Node1&#45;&gt;Node7 -->
<g id="edge6_Node000001_Node000007" class="edge">
<title>Node1&#45;&gt;Node7</title>
<g id="a_edge6_Node000001_Node000007"><a xlink:title=" ">
<path fill="none" stroke="#63b8ff" d="M69.99,-122.46C84.99,-103.92 120.62,-62.76 159,-39 161.61,-37.38 164.35,-35.85 167.16,-34.41"/>
<polygon fill="#63b8ff" stroke="#63b8ff" points="168.78,-37.52 176.35,-30.1 165.81,-31.18 168.78,-37.52"/>
</a>
</g>
</g>
<!-- Node10 -->
<g id="Node000010" class="node">
<title>Node10</title>
<g id="a_Node000010"><a xlink:href="classGeometry_1_1Point3D.html#ae9af5cd5e04e5f0635d250cf80e4e78f" target="_top" xlink:title=" ">
<polygon fill="white" stroke="#666666" points="285,-78 170,-78 170,-48 285,-48 285,-78"/>
<text text-anchor="start" x="178" y="-66" font-family="Helvetica,sans-Serif" font-size="10.00">Geometry::Point3D::</text>
<text text-anchor="middle" x="227.5" y="-55" font-family="Helvetica,sans-Serif" font-size="10.00">operator&#45;</text>
</a>
</g>
</g>
<!-- Node1&#45;&gt;Node10 -->
<g id="edge9_Node000001_Node000010" class="edge">
<title>Node1&#45;&gt;Node10</title>
<g id="a_edge9_Node000001_Node000010"><a xlink:title=" ">
<path fill="none" stroke="#63b8ff" d="M81.49,-122.49C100.78,-112.99 131.63,-98.22 159,-87 163.44,-85.18 168.08,-83.36 172.75,-81.59"/>
<polygon fill="#63b8ff" stroke="#63b8ff" points="174.18,-84.79 182.34,-78.02 171.74,-78.23 174.18,-84.79"/>
</a>
</g>
</g>
<!-- Node4 -->
<g id="Node000004" class="node">
<title>Node4</title>
<g id="a_Node000004"><a xlink:href="classGeometry_1_1Point3D.html#a6a08342f9542eb6d6ff7bcf2278a240d" target="_top" xlink:title=" ">
<polygon fill="white" stroke="#666666" points="447,-206 332,-206 332,-176 447,-176 447,-206"/>
<text text-anchor="start" x="340" y="-194" font-family="Helvetica,sans-Serif" font-size="10.00">Geometry::Point3D::</text>
<text text-anchor="middle" x="389.5" y="-183" font-family="Helvetica,sans-Serif" font-size="10.00">Point3D</text>
</a>
</g>
</g>
<!-- Node3&#45;&gt;Node4 -->
<g id="edge3_Node000003_Node000004" class="edge">
<title>Node3&#45;&gt;Node4</title>
<g id="a_edge3_Node000003_Node000004"><a xlink:title=" ">
<path fill="none" stroke="#63b8ff" d="M279.56,-191C292.96,-191 307.6,-191 321.69,-191"/>
<polygon fill="#63b8ff" stroke="#63b8ff" points="321.82,-194.5 331.82,-191 321.82,-187.5 321.82,-194.5"/>
</a>
</g>
</g>
<!-- Node8 -->
<g id="Node000008" class="node">
<title>Node8</title>
<g id="a_Node000008"><a xlink:href="classGeometry_1_1Vector3D.html#ae4c5a52ebf282e334801c8ee28ad8d5d" target="_top" xlink:title=" ">
<polygon fill="white" stroke="#666666" points="447,-78 332,-78 332,-48 447,-48 447,-78"/>
<text text-anchor="start" x="340" y="-66" font-family="Helvetica,sans-Serif" font-size="10.00">Geometry::Vector3D</text>
<text text-anchor="middle" x="389.5" y="-55" font-family="Helvetica,sans-Serif" font-size="10.00">::Vector3D</text>
</a>
</g>
</g>
<!-- Node7&#45;&gt;Node8 -->
<g id="edge7_Node000007_Node000008" class="edge">
<title>Node7&#45;&gt;Node8</title>
<g id="a_edge7_Node000007_Node000008"><a xlink:title=" ">
<path fill="none" stroke="#63b8ff" d="M278.69,-30.06C294.47,-34.79 312.07,-40.07 328.46,-44.99"/>
<polygon fill="#63b8ff" stroke="#63b8ff" points="327.91,-48.48 338.49,-48 329.92,-41.77 327.91,-48.48"/>
</a>
</g>
</g>
<!-- Node9 -->
<g id="Node000009" class="node">
<title>Node9</title>
<g id="a_Node000009"><a xlink:href="classGeometry_1_1Vector3D.html#a8966b188a3b6d27793b3896618fea42c" target="_top" xlink:title="Calculate the length (magnitude) of this vector.">
<polygon fill="white" stroke="#666666" points="447,-30 332,-30 332,0 447,0 447,-30"/>
<text text-anchor="start" x="340" y="-18" font-family="Helvetica,sans-Serif" font-size="10.00">Geometry::Vector3D</text>
<text text-anchor="middle" x="389.5" y="-7" font-family="Helvetica,sans-Serif" font-size="10.00">::length</text>
</a>
</g>
</g>
<!-- Node7&#45;&gt;Node9 -->
<g id="edge8_Node000007_Node000009" class="edge">
<title>Node7&#45;&gt;Node9</title>
<g id="a_edge8_Node000007_Node000009"><a xlink:title=" ">
<path fill="none" stroke="#63b8ff" d="M285.36,-15C297.15,-15 309.67,-15 321.78,-15"/>
<polygon fill="#63b8ff" stroke="#63b8ff" points="321.82,-18.5 331.82,-15 321.82,-11.5 321.82,-18.5"/>
</a>
</g>
</g>
<!-- Node10&#45;&gt;Node8 -->
<g id="edge10_Node000010_Node000008" class="edge">
<title>Node10&#45;&gt;Node8</title>
<g id="a_edge10_Node000010_Node000008"><a xlink:title=" ">
<path fill="none" stroke="#63b8ff" d="M285.36,-63C297.15,-63 309.67,-63 321.78,-63"/>
<polygon fill="#63b8ff" stroke="#63b8ff" points="321.82,-66.5 331.82,-63 321.82,-59.5 321.82,-66.5"/>
</a>
</g>
</g>
</g>
</svg>
