<?xml version="1.0" encoding="UTF-8" standalone="no"?>
<!DOCTYPE svg PUBLIC "-//W3C//DTD SVG 1.1//EN"
 "http://www.w3.org/Graphics/SVG/1.1/DTD/svg11.dtd">
<!-- Generated by graphviz version 2.43.0 (0)
 -->
<!-- Title: RayTracer::Plane Pages: 1 -->
<svg width="120pt" height="247pt"
 viewBox="0.00 0.00 120.00 247.00" xmlns="http://www.w3.org/2000/svg" xmlns:xlink="http://www.w3.org/1999/xlink">
<g id="graph0" class="graph" transform="scale(1 1) rotate(0) translate(4 243)">
<title>RayTracer::Plane</title>
<!-- Node1 -->
<g id="Node000001" class="node">
<title>Node1</title>
<g id="a_Node000001"><a xlink:title=" ">
<polygon fill="#999999" stroke="transparent" points="102,-124 10,-124 10,0 102,0 102,-124"/>
<text text-anchor="start" x="15" y="-112" font-family="Helvetica,sans-Serif" font-size="10.00">RayTracer::Plane</text>
<text text-anchor="start" x="22.5" y="-97" font-family="Helvetica,sans-Serif" font-size="10.00">&#45;</text>
<text text-anchor="start" x="39" y="-97" font-family="Helvetica,sans-Serif" font-size="10.00">_point</text>
<text text-anchor="start" x="22.5" y="-82" font-family="Helvetica,sans-Serif" font-size="10.00">&#45;</text>
<text text-anchor="start" x="39" y="-82" font-family="Helvetica,sans-Serif" font-size="10.00">_normal</text>
<text text-anchor="start" x="22.5" y="-67" font-family="Helvetica,sans-Serif" font-size="10.00">&#45;</text>
<text text-anchor="start" x="39" y="-67" font-family="Helvetica,sans-Serif" font-size="10.00">_material</text>
<text text-anchor="start" x="20" y="-52" font-family="Helvetica,sans-Serif" font-size="10.00">+</text>
<text text-anchor="start" x="39" y="-52" font-family="Helvetica,sans-Serif" font-size="10.00">Plane()</text>
<text text-anchor="start" x="20" y="-37" font-family="Helvetica,sans-Serif" font-size="10.00">+</text>
<text text-anchor="start" x="39" y="-37" font-family="Helvetica,sans-Serif" font-size="10.00">Plane()</text>
<text text-anchor="start" x="20" y="-22" font-family="Helvetica,sans-Serif" font-size="10.00">+</text>
<text text-anchor="start" x="39" y="-22" font-family="Helvetica,sans-Serif" font-size="10.00">~Plane()</text>
<text text-anchor="start" x="20" y="-7" font-family="Helvetica,sans-Serif" font-size="10.00">+</text>
<text text-anchor="start" x="39" y="-7" font-family="Helvetica,sans-Serif" font-size="10.00">hit()</text>
<polygon fill="#666666" stroke="#666666" points="10,-107 10,-107 102,-107 102,-107 10,-107"/>
<polygon fill="#666666" stroke="#666666" points="10,-62 10,-62 37,-62 37,-62 10,-62"/>
<polygon fill="#666666" stroke="#666666" points="37,-62 37,-62 102,-62 102,-62 37,-62"/>
<polygon fill="none" stroke="#666666" points="10,0 10,-124 102,-124 102,0 10,0"/>
</a>
</g>
</g>
<!-- Node2 -->
<g id="Node000002" class="node">
<title>Node2</title>
<g id="a_Node000002"><a xlink:href="classRayTracer_1_1IPrimitive.html" target="_top" xlink:title=" ">
<polygon fill="white" stroke="transparent" points="112,-239 0,-239 0,-160 112,-160 112,-239"/>
<text text-anchor="start" x="5" y="-226.5" font-family="Helvetica,sans-Serif" font-size="10.00">RayTracer::IPrimitive</text>
<text text-anchor="start" x="54" y="-211.5" font-family="Helvetica,sans-Serif" font-size="10.00"> </text>
<text text-anchor="start" x="10.5" y="-196.5" font-family="Helvetica,sans-Serif" font-size="10.00">+</text>
<text text-anchor="start" x="30" y="-196.5" font-family="Helvetica,sans-Serif" font-size="10.00">~IPrimitive()</text>
<text text-anchor="start" x="10.5" y="-181.5" font-family="Helvetica,sans-Serif" font-size="10.00">+</text>
<text text-anchor="start" x="30" y="-181.5" font-family="Helvetica,sans-Serif" font-size="10.00">hit()</text>
<text text-anchor="start" x="10.5" y="-166.5" font-family="Helvetica,sans-Serif" font-size="10.00">+</text>
<text text-anchor="start" x="30" y="-166.5" font-family="Helvetica,sans-Serif" font-size="10.00">getMaterial()</text>
<polygon fill="#666666" stroke="#666666" points="0,-221.5 0,-221.5 112,-221.5 112,-221.5 0,-221.5"/>
<polygon fill="#666666" stroke="#666666" points="0,-206.5 0,-206.5 112,-206.5 112,-206.5 0,-206.5"/>
<polygon fill="none" stroke="#666666" points="0,-160 0,-239 112,-239 112,-160 0,-160"/>
</a>
</g>
</g>
<!-- Node2&#45;&gt;Node1 -->
<g id="edge1_Node000001_Node000002" class="edge">
<title>Node2&#45;&gt;Node1</title>
<g id="a_edge1_Node000001_Node000002"><a xlink:title=" ">
<path fill="none" stroke="#63b8ff" d="M56,-149.48C56,-141.24 56,-132.59 56,-124.09"/>
<polygon fill="none" stroke="#63b8ff" points="52.5,-149.67 56,-159.67 59.5,-149.67 52.5,-149.67"/>
</a>
</g>
</g>
</g>
</svg>
