<?xml version="1.0" encoding="UTF-8" standalone="no"?>
<!DOCTYPE svg PUBLIC "-//W3C//DTD SVG 1.1//EN"
 "http://www.w3.org/Graphics/SVG/1.1/DTD/svg11.dtd">
<!-- Generated by graphviz version 2.43.0 (0)
 -->
<!-- Title: RayTracer::BVHCam::buildScreenFromTransform Pages: 1 -->
<svg width="499pt" height="354pt"
 viewBox="0.00 0.00 499.00 354.00" xmlns="http://www.w3.org/2000/svg" xmlns:xlink="http://www.w3.org/1999/xlink">
<g id="graph0" class="graph" transform="scale(1 1) rotate(0) translate(4 350)">
<title>RayTracer::BVHCam::buildScreenFromTransform</title>
<!-- Node1 -->
<g id="Node000001" class="node">
<title>Node1</title>
<g id="a_Node000001"><a xlink:title="Rebuild the _screen rectangle from the current _transform and _fov.">
<polygon fill="#999999" stroke="#666666" points="147,-188 0,-188 0,-158 147,-158 147,-188"/>
<text text-anchor="start" x="8" y="-176" font-family="Helvetica,sans-Serif" font-size="10.00">RayTracer::BVHCam::</text>
<text text-anchor="middle" x="73.5" y="-165" font-family="Helvetica,sans-Serif" font-size="10.00">buildScreenFromTransform</text>
</a>
</g>
</g>
<!-- Node2 -->
<g id="Node000002" class="node">
<title>Node2</title>
<g id="a_Node000002"><a xlink:href="classGeometry_1_1Point3D.html#a6a08342f9542eb6d6ff7bcf2278a240d" target="_top" xlink:title=" ">
<polygon fill="white" stroke="#666666" points="319,-346 204,-346 204,-316 319,-316 319,-346"/>
<text text-anchor="start" x="212" y="-334" font-family="Helvetica,sans-Serif" font-size="10.00">Geometry::Point3D::</text>
<text text-anchor="middle" x="261.5" y="-323" font-family="Helvetica,sans-Serif" font-size="10.00">Point3D</text>
</a>
</g>
</g>
<!-- Node1&#45;&gt;Node2 -->
<g id="edge1_Node000001_Node000002" class="edge">
<title>Node1&#45;&gt;Node2</title>
<g id="a_edge1_Node000001_Node000002"><a xlink:title=" ">
<path fill="none" stroke="#63b8ff" d="M83.62,-188.33C100.21,-214.99 137.82,-270.1 183,-302 188.16,-305.64 193.83,-308.89 199.69,-311.77"/>
<polygon fill="#63b8ff" stroke="#63b8ff" points="198.45,-315.05 209,-316 201.35,-308.68 198.45,-315.05"/>
</a>
</g>
</g>
<!-- Node3 -->
<g id="Node000003" class="node">
<title>Node3</title>
<g id="a_Node000003"><a xlink:href="classGeometry_1_1Vector3D.html#ae4c5a52ebf282e334801c8ee28ad8d5d" target="_top" xlink:title=" ">
<polygon fill="white" stroke="#666666" points="491,-260 376,-260 376,-230 491,-230 491,-260"/>
<text text-anchor="start" x="384" y="-248" font-family="Helvetica,sans-Serif" font-size="10.00">Geometry::Vector3D</text>
<text text-anchor="middle" x="433.5" y="-237" font-family="Helvetica,sans-Serif" font-size="10.00">::Vector3D</text>
</a>
</g>
</g>
<!-- Node1&#45;&gt;Node3 -->
<g id="edge2_Node000001_Node000003" class="edge">
<title>Node1&#45;&gt;Node3</title>
<g id="a_edge2_Node000001_Node000003"><a xlink:title=" ">
<path fill="none" stroke="#63b8ff" d="M85.73,-188.36C103.41,-211.1 140.19,-252.78 183,-269 248.18,-293.7 329.47,-278.09 381.2,-262.95"/>
<polygon fill="#63b8ff" stroke="#63b8ff" points="382.26,-266.29 390.82,-260.04 380.23,-259.59 382.26,-266.29"/>
</a>
</g>
</g>
<!-- Node4 -->
<g id="Node000004" class="node">
<title>Node4</title>
<g id="a_Node000004"><a xlink:href="classGeometry_1_1Vector3D.html#a7157de1fcf830b27bf4b2df43e6b6112" target="_top" xlink:title=" ">
<polygon fill="white" stroke="#666666" points="319,-260 204,-260 204,-230 319,-230 319,-260"/>
<text text-anchor="start" x="212" y="-248" font-family="Helvetica,sans-Serif" font-size="10.00">Geometry::Vector3D</text>
<text text-anchor="middle" x="261.5" y="-237" font-family="Helvetica,sans-Serif" font-size="10.00">::cross</text>
</a>
</g>
</g>
<!-- Node1&#45;&gt;Node4 -->
<g id="edge3_Node000001_Node000004" class="edge">
<title>Node1&#45;&gt;Node4</title>
<g id="a_edge3_Node000001_Node000004"><a xlink:title=" ">
<path fill="none" stroke="#63b8ff" d="M105.91,-188.06C127.36,-198.05 156.57,-211.1 183,-221 188.19,-222.95 193.62,-224.86 199.09,-226.71"/>
<polygon fill="#63b8ff" stroke="#63b8ff" points="198.35,-230.15 208.94,-229.95 200.54,-223.5 198.35,-230.15"/>
</a>
</g>
</g>
<!-- Node5 -->
<g id="Node000005" class="node">
<title>Node5</title>
<g id="a_Node000005"><a xlink:href="classGeometry_1_1Vector3D.html#ae2861f32c5661f184b655cf412e38b91" target="_top" xlink:title=" ">
<polygon fill="white" stroke="#666666" points="319,-212 204,-212 204,-182 319,-182 319,-212"/>
<text text-anchor="start" x="212" y="-200" font-family="Helvetica,sans-Serif" font-size="10.00">Geometry::Vector3D</text>
<text text-anchor="middle" x="261.5" y="-189" font-family="Helvetica,sans-Serif" font-size="10.00">::length</text>
</a>
</g>
</g>
<!-- Node1&#45;&gt;Node5 -->
<g id="edge5_Node000001_Node000005" class="edge">
<title>Node1&#45;&gt;Node5</title>
<g id="a_edge5_Node000001_Node000005"><a xlink:title=" ">
<path fill="none" stroke="#63b8ff" d="M147.21,-182.38C162.53,-184.36 178.61,-186.43 193.7,-188.38"/>
<polygon fill="#63b8ff" stroke="#63b8ff" points="193.6,-191.9 203.96,-189.7 194.49,-184.95 193.6,-191.9"/>
</a>
</g>
</g>
<!-- Node6 -->
<g id="Node000006" class="node">
<title>Node6</title>
<g id="a_Node000006"><a xlink:href="classGeometry_1_1Vector3D.html#a388f7af8bf0095c817e89b5b2518fda7" target="_top" xlink:title=" ">
<polygon fill="white" stroke="#666666" points="319,-164 204,-164 204,-134 319,-134 319,-164"/>
<text text-anchor="start" x="212" y="-152" font-family="Helvetica,sans-Serif" font-size="10.00">Geometry::Vector3D</text>
<text text-anchor="middle" x="261.5" y="-141" font-family="Helvetica,sans-Serif" font-size="10.00">::normalize</text>
</a>
</g>
</g>
<!-- Node1&#45;&gt;Node6 -->
<g id="edge6_Node000001_Node000006" class="edge">
<title>Node1&#45;&gt;Node6</title>
<g id="a_edge6_Node000001_Node000006"><a xlink:title=" ">
<path fill="none" stroke="#63b8ff" d="M147.21,-163.62C162.53,-161.64 178.61,-159.57 193.7,-157.62"/>
<polygon fill="#63b8ff" stroke="#63b8ff" points="194.49,-161.05 203.96,-156.3 193.6,-154.1 194.49,-161.05"/>
</a>
</g>
</g>
<!-- Node8 -->
<g id="Node000008" class="node">
<title>Node8</title>
<g id="a_Node000008"><a xlink:href="classGeometry_1_1Matrix.html#a55bca424225b20c0490c21b93faea578" target="_top" xlink:title="Mutable element access.">
<polygon fill="white" stroke="#666666" points="340,-115.5 183,-115.5 183,-96.5 340,-96.5 340,-115.5"/>
<text text-anchor="middle" x="261.5" y="-103.5" font-family="Helvetica,sans-Serif" font-size="10.00">Geometry::Matrix::operator()</text>
</a>
</g>
</g>
<!-- Node1&#45;&gt;Node8 -->
<g id="edge9_Node000001_Node000008" class="edge">
<title>Node1&#45;&gt;Node8</title>
<g id="a_edge9_Node000001_Node000008"><a xlink:title=" ">
<path fill="none" stroke="#63b8ff" d="M104.79,-157.87C126.24,-147.59 155.9,-134.24 183,-125 190.38,-122.49 198.25,-120.16 206.05,-118.06"/>
<polygon fill="#63b8ff" stroke="#63b8ff" points="207.05,-121.42 215.85,-115.52 205.29,-114.64 207.05,-121.42"/>
</a>
</g>
</g>
<!-- Node9 -->
<g id="Node000009" class="node">
<title>Node9</title>
<g id="a_Node000009"><a xlink:href="classGeometry_1_1Point3D.html#a8650efc8765c2d5a3ed1ee3b9139a997" target="_top" xlink:title=" ">
<polygon fill="white" stroke="#666666" points="319,-78 204,-78 204,-48 319,-48 319,-78"/>
<text text-anchor="start" x="212" y="-66" font-family="Helvetica,sans-Serif" font-size="10.00">Geometry::Point3D::</text>
<text text-anchor="middle" x="261.5" y="-55" font-family="Helvetica,sans-Serif" font-size="10.00">operator=</text>
</a>
</g>
</g>
<!-- Node1&#45;&gt;Node9 -->
<g id="edge10_Node000001_Node000009" class="edge">
<title>Node1&#45;&gt;Node9</title>
<g id="a_edge10_Node000001_Node000009"><a xlink:title=" ">
<path fill="none" stroke="#63b8ff" d="M89.72,-157.86C109.6,-138.85 146.22,-106.4 183,-87 186.54,-85.13 190.26,-83.38 194.06,-81.75"/>
<polygon fill="#63b8ff" stroke="#63b8ff" points="195.65,-84.88 203.64,-77.92 193.05,-78.38 195.65,-84.88"/>
</a>
</g>
</g>
<!-- Node10 -->
<g id="Node000010" class="node">
<title>Node10</title>
<g id="a_Node000010"><a xlink:href="classGeometry_1_1Vector3D.html#a4f0165ac7ffb25816ce35d148b6524fa" target="_top" xlink:title=" ">
<polygon fill="white" stroke="#666666" points="319,-30 204,-30 204,0 319,0 319,-30"/>
<text text-anchor="start" x="212" y="-18" font-family="Helvetica,sans-Serif" font-size="10.00">Geometry::Vector3D</text>
<text text-anchor="middle" x="261.5" y="-7" font-family="Helvetica,sans-Serif" font-size="10.00">::operator=</text>
</a>
</g>
</g>
<!-- Node1&#45;&gt;Node10 -->
<g id="edge11_Node000001_Node000010" class="edge">
<title>Node1&#45;&gt;Node10</title>
<g id="a_edge11_Node000001_Node000010"><a xlink:title=" ">
<path fill="none" stroke="#63b8ff" d="M82.78,-157.67C98.56,-129.87 135.66,-71.06 183,-39 186.54,-36.6 190.34,-34.43 194.27,-32.48"/>
<polygon fill="#63b8ff" stroke="#63b8ff" points="195.95,-35.56 203.65,-28.28 193.1,-29.17 195.95,-35.56"/>
</a>
</g>
</g>
<!-- Node4&#45;&gt;Node3 -->
<g id="edge4_Node000004_Node000003" class="edge">
<title>Node4&#45;&gt;Node3</title>
<g id="a_edge4_Node000004_Node000003"><a xlink:title=" ">
<path fill="none" stroke="#63b8ff" d="M319.11,-245C334.08,-245 350.39,-245 365.84,-245"/>
<polygon fill="#63b8ff" stroke="#63b8ff" points="365.85,-248.5 375.85,-245 365.85,-241.5 365.85,-248.5"/>
</a>
</g>
</g>
<!-- Node6&#45;&gt;Node3 -->
<g id="edge7_Node000006_Node000003" class="edge">
<title>Node6&#45;&gt;Node3</title>
<g id="a_edge7_Node000006_Node000003"><a xlink:title=" ">
<path fill="none" stroke="#63b8ff" d="M319.34,-163.98C326.45,-166.61 333.51,-169.61 340,-173 365.66,-186.39 391.36,-207.12 409.13,-222.91"/>
<polygon fill="#63b8ff" stroke="#63b8ff" points="406.95,-225.65 416.71,-229.77 411.65,-220.46 406.95,-225.65"/>
</a>
</g>
</g>
<!-- Node7 -->
<g id="Node000007" class="node">
<title>Node7</title>
<g id="a_Node000007"><a xlink:href="classGeometry_1_1Vector3D.html#a8966b188a3b6d27793b3896618fea42c" target="_top" xlink:title="Calculate the length (magnitude) of this vector.">
<polygon fill="white" stroke="#666666" points="491,-164 376,-164 376,-134 491,-134 491,-164"/>
<text text-anchor="start" x="384" y="-152" font-family="Helvetica,sans-Serif" font-size="10.00">Geometry::Vector3D</text>
<text text-anchor="middle" x="433.5" y="-141" font-family="Helvetica,sans-Serif" font-size="10.00">::length</text>
</a>
</g>
</g>
<!-- Node6&#45;&gt;Node7 -->
<g id="edge8_Node000006_Node000007" class="edge">
<title>Node6&#45;&gt;Node7</title>
<g id="a_edge8_Node000006_Node000007"><a xlink:title=" ">
<path fill="none" stroke="#63b8ff" d="M319.11,-149C334.08,-149 350.39,-149 365.84,-149"/>
<polygon fill="#63b8ff" stroke="#63b8ff" points="365.85,-152.5 375.85,-149 365.85,-145.5 365.85,-152.5"/>
</a>
</g>
</g>
</g>
</svg>
