<?xml version="1.0" encoding="UTF-8" standalone="no"?>
<!DOCTYPE svg PUBLIC "-//W3C//DTD SVG 1.1//EN"
 "http://www.w3.org/Graphics/SVG/1.1/DTD/svg11.dtd">
<!-- Generated by graphviz version 2.43.0 (0)
 -->
<!-- Title: Geometry::Vector3D::dot Pages: 1 -->
<svg width="330pt" height="383pt"
 viewBox="0.00 0.00 330.00 382.50" xmlns="http://www.w3.org/2000/svg" xmlns:xlink="http://www.w3.org/1999/xlink">

<svg id="main" version="1.1" xmlns="http://www.w3.org/2000/svg" xmlns:xlink="http://www.w3.org/1999/xlink" xml:space="preserve" onload="init(evt)">
<style type="text/css"><![CDATA[
.node, .edge {opacity: 0.7;}
.node.selected, .edge.selected {opacity: 1;}
.edge:hover path { stroke: red; }
.edge:hover polygon { stroke: red; fill: red; }
]]></style>
<script type="application/ecmascript" xlink:href="svg.min.js"/>
<svg id="graph" class="graph">
<g id="graph0" class="graph" transform="scale(1 1) rotate(0) translate(4 378.5)">
<title>Geometry::Vector3D::dot</title>
<!-- Node1 -->
<g id="Node000001" class="node">
<title>Node1</title>
<g id="a_Node000001"><a xlink:title=" ">
<polygon fill="#999999" stroke="#666666" points="322,-185 185,-185 185,-166 322,-166 322,-185"/>
<text text-anchor="middle" x="253.5" y="-173" font-family="Helvetica,sans-Serif" font-size="10.00">Geometry::Vector3D::dot</text>
</a>
</g>
</g>
<!-- Node2 -->
<g id="Node000002" class="node">
<title>Node2</title>
<g id="a_Node000002"><a xlink:href="classRayTracer_1_1DirectionalLight.html#a7170b3c9d9e2c2e697139f0dae68ab5b" target="_top" xlink:title="Compute light contribution, shadow ray cast in opposite direction.">
<polygon fill="white" stroke="#666666" points="148.5,-374.5 0.5,-374.5 0.5,-344.5 148.5,-344.5 148.5,-374.5"/>
<text text-anchor="start" x="8.5" y="-362.5" font-family="Helvetica,sans-Serif" font-size="10.00">RayTracer::DirectionalLight</text>
<text text-anchor="middle" x="74.5" y="-351.5" font-family="Helvetica,sans-Serif" font-size="10.00">::computeLight</text>
</a>
</g>
</g>
<!-- Node1&#45;&gt;Node2 -->
<g id="edge1_Node000001_Node000002" class="edge">
<title>Node1&#45;&gt;Node2</title>
<g id="a_edge1_Node000001_Node000002"><a xlink:title=" ">
<path fill="none" stroke="#63b8ff" d="M245.23,-194.54C231.52,-227.96 198.67,-297.26 149,-335.5 144.53,-338.94 139.55,-341.9 134.35,-344.44"/>
<polygon fill="#63b8ff" stroke="#63b8ff" points="248.57,-195.62 249.01,-185.04 242.06,-193.04 248.57,-195.62"/>
</a>
</g>
</g>
<!-- Node3 -->
<g id="Node000003" class="node">
<title>Node3</title>
<g id="a_Node000003"><a xlink:href="classRayTracer_1_1PointLight.html#a4fdb35dd47674e655119b54c30b48b20" target="_top" xlink:title="Compute light contribution.">
<polygon fill="white" stroke="#666666" points="134,-326.5 15,-326.5 15,-296.5 134,-296.5 134,-326.5"/>
<text text-anchor="start" x="23" y="-314.5" font-family="Helvetica,sans-Serif" font-size="10.00">RayTracer::PointLight</text>
<text text-anchor="middle" x="74.5" y="-303.5" font-family="Helvetica,sans-Serif" font-size="10.00">::computeLight</text>
</a>
</g>
</g>
<!-- Node1&#45;&gt;Node3 -->
<g id="edge2_Node000001_Node000003" class="edge">
<title>Node1&#45;&gt;Node3</title>
<g id="a_edge2_Node000001_Node000003"><a xlink:title=" ">
<path fill="none" stroke="#63b8ff" d="M240.39,-193.54C222.96,-218.18 188.52,-262.15 149,-287.5 143.69,-290.91 137.85,-293.87 131.86,-296.44"/>
<polygon fill="#63b8ff" stroke="#63b8ff" points="243.4,-195.34 246.21,-185.13 237.64,-191.36 243.4,-195.34"/>
</a>
</g>
</g>
<!-- Node4 -->
<g id="Node000004" class="node">
<title>Node4</title>
<g id="a_Node000004"><a xlink:href="classRayTracer_1_1Phong.html#a2526bd20be0b2cbb045250c4a6573b27" target="_top" xlink:title="Evaluate the BRDF for a given pair of directions.">
<polygon fill="white" stroke="#666666" points="149,-278 0,-278 0,-259 149,-259 149,-278"/>
<text text-anchor="middle" x="74.5" y="-266" font-family="Helvetica,sans-Serif" font-size="10.00">RayTracer::Phong::evaluate</text>
</a>
</g>
</g>
<!-- Node1&#45;&gt;Node4 -->
<g id="edge3_Node000001_Node000004" class="edge">
<title>Node1&#45;&gt;Node4</title>
<g id="a_edge3_Node000001_Node000004"><a xlink:title=" ">
<path fill="none" stroke="#63b8ff" d="M234.67,-191.79C215.06,-208.85 181.95,-235.24 149,-250.5 141.73,-253.87 133.75,-256.65 125.81,-258.94"/>
<polygon fill="#63b8ff" stroke="#63b8ff" points="237.04,-194.36 242.2,-185.11 232.4,-189.12 237.04,-194.36"/>
</a>
</g>
</g>
<!-- Node5 -->
<g id="Node000005" class="node">
<title>Node5</title>
<g id="a_Node000005"><a xlink:href="classRayTracer_1_1Cylinder.html#ab42450e2290b96bccdf83ba79fa9d8af" target="_top" xlink:title="Test ray–cylinder intersection using the quadratic form of the cylinder equation.">
<polygon fill="white" stroke="#666666" points="139.5,-241 9.5,-241 9.5,-222 139.5,-222 139.5,-241"/>
<text text-anchor="middle" x="74.5" y="-229" font-family="Helvetica,sans-Serif" font-size="10.00">RayTracer::Cylinder::hit</text>
</a>
</g>
</g>
<!-- Node1&#45;&gt;Node5 -->
<g id="edge4_Node000001_Node000005" class="edge">
<title>Node1&#45;&gt;Node5</title>
<g id="a_edge4_Node000001_Node000005"><a xlink:title=" ">
<path fill="none" stroke="#63b8ff" d="M219.55,-188.67C199.37,-196.46 172.92,-206.21 149,-213.5 139.07,-216.53 128.27,-219.4 118.08,-221.93"/>
<polygon fill="#63b8ff" stroke="#63b8ff" points="220.87,-191.91 228.91,-185.02 218.32,-185.39 220.87,-191.91"/>
</a>
</g>
</g>
<!-- Node6 -->
<g id="Node000006" class="node">
<title>Node6</title>
<g id="a_Node000006"><a xlink:href="classRayTracer_1_1Plane.html#a7b741696eb186f6ec9df62e58e795916" target="_top" xlink:title="Test ray–plane intersection using the algebraic plane equation.">
<polygon fill="white" stroke="#666666" points="132.5,-204 16.5,-204 16.5,-185 132.5,-185 132.5,-204"/>
<text text-anchor="middle" x="74.5" y="-192" font-family="Helvetica,sans-Serif" font-size="10.00">RayTracer::Plane::hit</text>
</a>
</g>
</g>
<!-- Node1&#45;&gt;Node6 -->
<g id="edge5_Node000001_Node000006" class="edge">
<title>Node1&#45;&gt;Node6</title>
<g id="a_edge5_Node000001_Node000006"><a xlink:title=" ">
<path fill="none" stroke="#63b8ff" d="M174.66,-183.86C160.57,-185.37 146.12,-186.92 132.76,-188.35"/>
<polygon fill="#63b8ff" stroke="#63b8ff" points="175.26,-187.31 184.83,-182.76 174.51,-180.35 175.26,-187.31"/>
</a>
</g>
</g>
<!-- Node7 -->
<g id="Node000007" class="node">
<title>Node7</title>
<g id="a_Node000007"><a xlink:href="classRayTracer_1_1Sphere.html#a40d439c5a658465a6eeef01f7679ecc9" target="_top" xlink:title="Test ray intersection with this primitive.">
<polygon fill="white" stroke="#666666" points="136,-167 13,-167 13,-148 136,-148 136,-167"/>
<text text-anchor="middle" x="74.5" y="-155" font-family="Helvetica,sans-Serif" font-size="10.00">RayTracer::Sphere::hit</text>
</a>
</g>
</g>
<!-- Node1&#45;&gt;Node7 -->
<g id="edge6_Node000001_Node000007" class="edge">
<title>Node1&#45;&gt;Node7</title>
<g id="a_edge6_Node000001_Node000007"><a xlink:title=" ">
<path fill="none" stroke="#63b8ff" d="M174.59,-167.58C161.72,-166.27 148.55,-164.93 136.18,-163.67"/>
<polygon fill="#63b8ff" stroke="#63b8ff" points="174.52,-171.09 184.83,-168.62 175.23,-164.12 174.52,-171.09"/>
</a>
</g>
</g>
<!-- Node8 -->
<g id="Node000008" class="node">
<title>Node8</title>
<g id="a_Node000008"><a xlink:href="classRayTracer_1_1Lambertian.html#a0a74c9347b24b236af1e44c302ac7c5e" target="_top" xlink:title="Return the probability density of the direction from sample().">
<polygon fill="white" stroke="#666666" points="148.5,-130 0.5,-130 0.5,-111 148.5,-111 148.5,-130"/>
<text text-anchor="middle" x="74.5" y="-118" font-family="Helvetica,sans-Serif" font-size="10.00">RayTracer::Lambertian::pdf</text>
</a>
</g>
</g>
<!-- Node1&#45;&gt;Node8 -->
<g id="edge7_Node000001_Node000008" class="edge">
<title>Node1&#45;&gt;Node8</title>
<g id="a_edge7_Node000001_Node000008"><a xlink:title=" ">
<path fill="none" stroke="#63b8ff" d="M217.17,-162.41C197.28,-155.24 171.9,-146.43 149,-139.5 138.03,-136.18 126.02,-132.92 114.95,-130.07"/>
<polygon fill="#63b8ff" stroke="#63b8ff" points="216.15,-165.76 226.75,-165.88 218.54,-159.18 216.15,-165.76"/>
</a>
</g>
</g>
<!-- Node9 -->
<g id="Node000009" class="node">
<title>Node9</title>
<g id="a_Node000009"><a xlink:href="classRayTracer_1_1Phong.html#af9bc5125da9a856062f5284e36ceb5b2" target="_top" xlink:title="Return the probability density of the direction from sample().">
<polygon fill="white" stroke="#666666" points="135.5,-93 13.5,-93 13.5,-74 135.5,-74 135.5,-93"/>
<text text-anchor="middle" x="74.5" y="-81" font-family="Helvetica,sans-Serif" font-size="10.00">RayTracer::Phong::pdf</text>
</a>
</g>
</g>
<!-- Node1&#45;&gt;Node9 -->
<g id="edge8_Node000001_Node000009" class="edge">
<title>Node1&#45;&gt;Node9</title>
<g id="a_edge8_Node000001_Node000009"><a xlink:title=" ">
<path fill="none" stroke="#63b8ff" d="M233.97,-159.26C214.19,-142.73 181.33,-117.47 149,-102.5 140.87,-98.73 131.87,-95.63 123.04,-93.1"/>
<polygon fill="#63b8ff" stroke="#63b8ff" points="231.96,-162.15 241.84,-165.97 236.5,-156.82 231.96,-162.15"/>
</a>
</g>
</g>
<!-- Node10 -->
<g id="Node000010" class="node">
<title>Node10</title>
<g id="a_Node000010"><a xlink:href="classRayTracer_1_1Glass.html#a2c9fb925e8ccd41d68e1126530937c84" target="_top" xlink:title="Return the deterministic bounce direction for this material.">
<polygon fill="white" stroke="#666666" points="144.5,-56 4.5,-56 4.5,-37 144.5,-37 144.5,-56"/>
<text text-anchor="middle" x="74.5" y="-44" font-family="Helvetica,sans-Serif" font-size="10.00">RayTracer::Glass::sample</text>
</a>
</g>
</g>
<!-- Node1&#45;&gt;Node10 -->
<g id="edge9_Node000001_Node000010" class="edge">
<title>Node1&#45;&gt;Node10</title>
<g id="a_edge9_Node000001_Node000010"><a xlink:title=" ">
<path fill="none" stroke="#63b8ff" d="M240.53,-157.44C223.26,-132.84 189.02,-89.18 149,-65.5 142.42,-61.61 135.05,-58.5 127.59,-56.03"/>
<polygon fill="#63b8ff" stroke="#63b8ff" points="237.75,-159.57 246.29,-165.85 243.52,-155.62 237.75,-159.57"/>
</a>
</g>
</g>
<!-- Node11 -->
<g id="Node000011" class="node">
<title>Node11</title>
<g id="a_Node000011"><a xlink:href="classRayTracer_1_1Phong.html#a2fe3eab64f5b9ab9ab73976f0c8b80fd" target="_top" xlink:title="Return the deterministic bounce direction for this material.">
<polygon fill="white" stroke="#666666" points="146,-19 3,-19 3,0 146,0 146,-19"/>
<text text-anchor="middle" x="74.5" y="-7" font-family="Helvetica,sans-Serif" font-size="10.00">RayTracer::Phong::sample</text>
</a>
</g>
</g>
<!-- Node1&#45;&gt;Node11 -->
<g id="edge10_Node000001_Node000011" class="edge">
<title>Node1&#45;&gt;Node11</title>
<g id="a_edge10_Node000001_Node000011"><a xlink:title=" ">
<path fill="none" stroke="#63b8ff" d="M244.43,-156.39C230.06,-124.75 196.97,-61.68 149,-28.5 143.36,-24.6 136.98,-21.5 130.4,-19.04"/>
<polygon fill="#63b8ff" stroke="#63b8ff" points="241.35,-158.08 248.58,-165.83 247.76,-155.27 241.35,-158.08"/>
</a>
</g>
</g>
</g>
</svg>
</svg>

<style type='text/css'>
<![CDATA[
[data-mouse-over-selected='false'] { opacity: 0.7; }
[data-mouse-over-selected='true']  { opacity: 1.0; }
]]>
</style>
<script type="application/ecmascript"><![CDATA[
document.addEventListener('DOMContentLoaded', (event) => {
  highlightEdges();
  highlightAdjacentNodes();
});
]]></script>
</svg>
