<?xml version="1.0" encoding="UTF-8" standalone="no"?>
<!DOCTYPE svg PUBLIC "-//W3C//DTD SVG 1.1//EN"
 "http://www.w3.org/Graphics/SVG/1.1/DTD/svg11.dtd">
<!-- Generated by graphviz version 2.43.0 (0)
 -->
<!-- Title: RayTracer::AMaterial Pages: 1 -->
<svg width="224pt" height="318pt"
 viewBox="0.00 0.00 224.00 318.00" xmlns="http://www.w3.org/2000/svg" xmlns:xlink="http://www.w3.org/1999/xlink">
<g id="graph0" class="graph" transform="scale(1 1) rotate(0) translate(4 314)">
<title>RayTracer::AMaterial</title>
<!-- Node1 -->
<g id="Node000001" class="node">
<title>Node1</title>
<g id="a_Node000001"><a xlink:title="Abstract base class for all materials. Defines the interface for evaluating the BRDF,...">
<polygon fill="#999999" stroke="transparent" points="168,-79 56,-79 56,0 168,0 168,-79"/>
<text text-anchor="start" x="61" y="-66.5" font-family="Helvetica,sans-Serif" font-size="10.00">RayTracer::AMaterial</text>
<text text-anchor="start" x="110" y="-51.5" font-family="Helvetica,sans-Serif" font-size="10.00"> </text>
<text text-anchor="start" x="66.5" y="-36.5" font-family="Helvetica,sans-Serif" font-size="10.00">+</text>
<text text-anchor="start" x="86" y="-36.5" font-family="Helvetica,sans-Serif" font-size="10.00">AMaterial()</text>
<text text-anchor="start" x="66.5" y="-21.5" font-family="Helvetica,sans-Serif" font-size="10.00">+</text>
<text text-anchor="start" x="86" y="-21.5" font-family="Helvetica,sans-Serif" font-size="10.00">AMaterial()</text>
<text text-anchor="start" x="66.5" y="-6.5" font-family="Helvetica,sans-Serif" font-size="10.00">+</text>
<text text-anchor="start" x="86" y="-6.5" font-family="Helvetica,sans-Serif" font-size="10.00">~AMaterial()</text>
<polygon fill="#666666" stroke="#666666" points="56,-61.5 56,-61.5 168,-61.5 168,-61.5 56,-61.5"/>
<polygon fill="#666666" stroke="#666666" points="56,-46.5 56,-46.5 168,-46.5 168,-46.5 56,-46.5"/>
<polygon fill="none" stroke="#666666" points="56,0 56,-79 168,-79 168,0 56,0"/>
</a>
</g>
</g>
<!-- Node2 -->
<g id="Node000002" class="node">
<title>Node2</title>
<g id="a_Node000002"><a xlink:href="classRayTracer_1_1IMaterial.html" target="_top" xlink:title="Interface for physically&#45;based surface materials.">
<polygon fill="white" stroke="transparent" points="108,-272.5 0,-272.5 0,-163.5 108,-163.5 108,-272.5"/>
<text text-anchor="start" x="5" y="-260" font-family="Helvetica,sans-Serif" font-size="10.00">RayTracer::IMaterial</text>
<text text-anchor="start" x="52" y="-245" font-family="Helvetica,sans-Serif" font-size="10.00"> </text>
<text text-anchor="start" x="10.5" y="-230" font-family="Helvetica,sans-Serif" font-size="10.00">+</text>
<text text-anchor="start" x="30" y="-230" font-family="Helvetica,sans-Serif" font-size="10.00">~IMaterial()</text>
<text text-anchor="start" x="10.5" y="-215" font-family="Helvetica,sans-Serif" font-size="10.00">+</text>
<text text-anchor="start" x="30" y="-215" font-family="Helvetica,sans-Serif" font-size="10.00">evaluate()</text>
<text text-anchor="start" x="10.5" y="-200" font-family="Helvetica,sans-Serif" font-size="10.00">+</text>
<text text-anchor="start" x="30" y="-200" font-family="Helvetica,sans-Serif" font-size="10.00">sample()</text>
<text text-anchor="start" x="10.5" y="-185" font-family="Helvetica,sans-Serif" font-size="10.00">+</text>
<text text-anchor="start" x="30" y="-185" font-family="Helvetica,sans-Serif" font-size="10.00">pdf()</text>
<text text-anchor="start" x="10.5" y="-170" font-family="Helvetica,sans-Serif" font-size="10.00">+</text>
<text text-anchor="start" x="30" y="-170" font-family="Helvetica,sans-Serif" font-size="10.00">emission()</text>
<polygon fill="#666666" stroke="#666666" points="0,-255 0,-255 108,-255 108,-255 0,-255"/>
<polygon fill="#666666" stroke="#666666" points="0,-240 0,-240 108,-240 108,-240 0,-240"/>
<polygon fill="none" stroke="#666666" points="0,-163.5 0,-272.5 108,-272.5 108,-163.5 0,-163.5"/>
</a>
</g>
</g>
<!-- Node2&#45;&gt;Node1 -->
<g id="edge1_Node000001_Node000002" class="edge">
<title>Node2&#45;&gt;Node1</title>
<g id="a_edge1_Node000001_Node000002"><a xlink:title=" ">
<path fill="none" stroke="#63b8ff" d="M74.91,-153.38C83.06,-128.58 92.13,-100.96 99.27,-79.25"/>
<polygon fill="none" stroke="#63b8ff" points="71.51,-152.49 71.72,-163.09 78.16,-154.68 71.51,-152.49"/>
</a>
</g>
</g>
<!-- Node3 -->
<g id="Node000003" class="node">
<title>Node3</title>
<g id="a_Node000003"><a xlink:href="structRayTracer_1_1Color.html" target="_top" xlink:title=" ">
<polygon fill="white" stroke="transparent" points="216,-310 126,-310 126,-126 216,-126 216,-310"/>
<text text-anchor="start" x="131" y="-298" font-family="Helvetica,sans-Serif" font-size="10.00">RayTracer::Color</text>
<text text-anchor="start" x="132.5" y="-283" font-family="Helvetica,sans-Serif" font-size="10.00">+</text>
<text text-anchor="start" x="148" y="-283" font-family="Helvetica,sans-Serif" font-size="10.00">r</text>
<text text-anchor="start" x="132.5" y="-268" font-family="Helvetica,sans-Serif" font-size="10.00">+</text>
<text text-anchor="start" x="148" y="-268" font-family="Helvetica,sans-Serif" font-size="10.00">g</text>
<text text-anchor="start" x="132.5" y="-253" font-family="Helvetica,sans-Serif" font-size="10.00">+</text>
<text text-anchor="start" x="148" y="-253" font-family="Helvetica,sans-Serif" font-size="10.00">b</text>
<text text-anchor="start" x="132.5" y="-238" font-family="Helvetica,sans-Serif" font-size="10.00">+</text>
<text text-anchor="start" x="148" y="-238" font-family="Helvetica,sans-Serif" font-size="10.00">Color()</text>
<text text-anchor="start" x="132.5" y="-223" font-family="Helvetica,sans-Serif" font-size="10.00">+</text>
<text text-anchor="start" x="148" y="-223" font-family="Helvetica,sans-Serif" font-size="10.00">Color()</text>
<text text-anchor="start" x="132.5" y="-208" font-family="Helvetica,sans-Serif" font-size="10.00">+</text>
<text text-anchor="start" x="148" y="-208" font-family="Helvetica,sans-Serif" font-size="10.00">Color()</text>
<text text-anchor="start" x="132.5" y="-193" font-family="Helvetica,sans-Serif" font-size="10.00">+</text>
<text text-anchor="start" x="148" y="-193" font-family="Helvetica,sans-Serif" font-size="10.00">clamp()</text>
<text text-anchor="start" x="132.5" y="-178" font-family="Helvetica,sans-Serif" font-size="10.00">+</text>
<text text-anchor="start" x="148" y="-178" font-family="Helvetica,sans-Serif" font-size="10.00">operator*()</text>
<text text-anchor="start" x="132.5" y="-163" font-family="Helvetica,sans-Serif" font-size="10.00">+</text>
<text text-anchor="start" x="148" y="-163" font-family="Helvetica,sans-Serif" font-size="10.00">operator*()</text>
<text text-anchor="start" x="132.5" y="-148" font-family="Helvetica,sans-Serif" font-size="10.00">+</text>
<text text-anchor="start" x="148" y="-148" font-family="Helvetica,sans-Serif" font-size="10.00">operator+()</text>
<text text-anchor="start" x="132.5" y="-133" font-family="Helvetica,sans-Serif" font-size="10.00">+</text>
<text text-anchor="start" x="148" y="-133" font-family="Helvetica,sans-Serif" font-size="10.00">operator&#45;()</text>
<polygon fill="#666666" stroke="#666666" points="126,-293 126,-293 216,-293 216,-293 126,-293"/>
<polygon fill="#666666" stroke="#666666" points="126,-248 126,-248 146,-248 146,-248 126,-248"/>
<polygon fill="#666666" stroke="#666666" points="146,-248 146,-248 216,-248 216,-248 146,-248"/>
<polygon fill="none" stroke="#666666" points="126,-126 126,-310 216,-310 216,-126 126,-126"/>
</a>
</g>
</g>
<!-- Node3&#45;&gt;Node1 -->
<g id="edge2_Node000001_Node000003" class="edge">
<title>Node3&#45;&gt;Node1</title>
<g id="a_edge2_Node000001_Node000003"><a xlink:title=" ">
<path fill="none" stroke="#63b8ff" d="M140.55,-125.91C136.49,-113.77 132.46,-101.71 128.76,-90.64"/>
<polygon fill="none" stroke="#63b8ff" points="128.69,-90.44 123,-86.02 124.89,-79.06 130.59,-83.48 128.69,-90.44"/>
</a>
</g>
<text text-anchor="middle" x="160" y="-100" font-family="Helvetica,sans-Serif" font-size="10.00" fill="grey"> #_albedo</text>
</g>
</g>
</svg>
