<?xml version="1.0" encoding="UTF-8" standalone="no"?>
<!DOCTYPE svg PUBLIC "-//W3C//DTD SVG 1.1//EN"
 "http://www.w3.org/Graphics/SVG/1.1/DTD/svg11.dtd">
<!-- Generated by graphviz version 2.43.0 (0)
 -->
<!-- Title: RayTracer::DirectionalLight::DirectionalLight Pages: 1 -->
<svg width="471pt" height="100pt"
 viewBox="0.00 0.00 471.00 99.50" xmlns="http://www.w3.org/2000/svg" xmlns:xlink="http://www.w3.org/1999/xlink">
<g id="graph0" class="graph" transform="scale(1 1) rotate(0) translate(4 95.5)">
<title>RayTracer::DirectionalLight::DirectionalLight</title>
<!-- Node1 -->
<g id="Node000001" class="node">
<title>Node1</title>
<g id="a_Node000001"><a xlink:title=" ">
<polygon fill="#999999" stroke="#666666" points="148,-75 0,-75 0,-45 148,-45 148,-75"/>
<text text-anchor="start" x="8" y="-63" font-family="Helvetica,sans-Serif" font-size="10.00">RayTracer::DirectionalLight</text>
<text text-anchor="middle" x="74" y="-52" font-family="Helvetica,sans-Serif" font-size="10.00">::DirectionalLight</text>
</a>
</g>
</g>
<!-- Node2 -->
<g id="Node000002" class="node">
<title>Node2</title>
<g id="a_Node000002"><a xlink:href="structRayTracer_1_1Color.html#abee709d919baf85b9c3d1197830957a0" target="_top" xlink:title=" ">
<polygon fill="white" stroke="#666666" points="312,-91.5 184,-91.5 184,-72.5 312,-72.5 312,-91.5"/>
<text text-anchor="middle" x="248" y="-79.5" font-family="Helvetica,sans-Serif" font-size="10.00">RayTracer::Color::Color</text>
</a>
</g>
</g>
<!-- Node1&#45;&gt;Node2 -->
<g id="edge1_Node000001_Node000002" class="edge">
<title>Node1&#45;&gt;Node2</title>
<g id="a_edge1_Node000001_Node000002"><a xlink:title=" ">
<path fill="none" stroke="#63b8ff" d="M148.44,-69.39C156.82,-70.46 165.35,-71.56 173.72,-72.63"/>
<polygon fill="#63b8ff" stroke="#63b8ff" points="173.47,-76.12 183.83,-73.92 174.36,-69.18 173.47,-76.12"/>
</a>
</g>
</g>
<!-- Node3 -->
<g id="Node000003" class="node">
<title>Node3</title>
<g id="a_Node000003"><a xlink:href="classGeometry_1_1Vector3D.html#a388f7af8bf0095c817e89b5b2518fda7" target="_top" xlink:title=" ">
<polygon fill="white" stroke="#666666" points="305.5,-54 190.5,-54 190.5,-24 305.5,-24 305.5,-54"/>
<text text-anchor="start" x="198.5" y="-42" font-family="Helvetica,sans-Serif" font-size="10.00">Geometry::Vector3D</text>
<text text-anchor="middle" x="248" y="-31" font-family="Helvetica,sans-Serif" font-size="10.00">::normalize</text>
</a>
</g>
</g>
<!-- Node1&#45;&gt;Node3 -->
<g id="edge2_Node000001_Node000003" class="edge">
<title>Node1&#45;&gt;Node3</title>
<g id="a_edge2_Node000001_Node000003"><a xlink:title=" ">
<path fill="none" stroke="#63b8ff" d="M148.44,-51.03C159.1,-49.73 170.02,-48.4 180.52,-47.12"/>
<polygon fill="#63b8ff" stroke="#63b8ff" points="180.95,-50.59 190.45,-45.9 180.1,-43.64 180.95,-50.59"/>
</a>
</g>
</g>
<!-- Node4 -->
<g id="Node000004" class="node">
<title>Node4</title>
<g id="a_Node000004"><a xlink:href="classGeometry_1_1Vector3D.html#ae4c5a52ebf282e334801c8ee28ad8d5d" target="_top" xlink:title=" ">
<polygon fill="white" stroke="#666666" points="463,-78 348,-78 348,-48 463,-48 463,-78"/>
<text text-anchor="start" x="356" y="-66" font-family="Helvetica,sans-Serif" font-size="10.00">Geometry::Vector3D</text>
<text text-anchor="middle" x="405.5" y="-55" font-family="Helvetica,sans-Serif" font-size="10.00">::Vector3D</text>
</a>
</g>
</g>
<!-- Node3&#45;&gt;Node4 -->
<g id="edge3_Node000003_Node000004" class="edge">
<title>Node3&#45;&gt;Node4</title>
<g id="a_edge3_Node000003_Node000004"><a xlink:title=" ">
<path fill="none" stroke="#63b8ff" d="M305.58,-47.73C316.04,-49.35 327.06,-51.05 337.79,-52.7"/>
<polygon fill="#63b8ff" stroke="#63b8ff" points="337.55,-56.21 347.96,-54.27 338.61,-49.29 337.55,-56.21"/>
</a>
</g>
</g>
<!-- Node5 -->
<g id="Node000005" class="node">
<title>Node5</title>
<g id="a_Node000005"><a xlink:href="classGeometry_1_1Vector3D.html#a8966b188a3b6d27793b3896618fea42c" target="_top" xlink:title="Calculate the length (magnitude) of this vector.">
<polygon fill="white" stroke="#666666" points="463,-30 348,-30 348,0 463,0 463,-30"/>
<text text-anchor="start" x="356" y="-18" font-family="Helvetica,sans-Serif" font-size="10.00">Geometry::Vector3D</text>
<text text-anchor="middle" x="405.5" y="-7" font-family="Helvetica,sans-Serif" font-size="10.00">::length</text>
</a>
</g>
</g>
<!-- Node3&#45;&gt;Node5 -->
<g id="edge4_Node000003_Node000005" class="edge">
<title>Node3&#45;&gt;Node5</title>
<g id="a_edge4_Node000003_Node000005"><a xlink:title=" ">
<path fill="none" stroke="#63b8ff" d="M305.58,-30.27C316.04,-28.65 327.06,-26.95 337.79,-25.3"/>
<polygon fill="#63b8ff" stroke="#63b8ff" points="338.61,-28.71 347.96,-23.73 337.55,-21.79 338.61,-28.71"/>
</a>
</g>
</g>
</g>
</svg>
