<?xml version="1.0" encoding="UTF-8" standalone="no"?>
<!DOCTYPE svg PUBLIC "-//W3C//DTD SVG 1.1//EN"
 "http://www.w3.org/Graphics/SVG/1.1/DTD/svg11.dtd">
<!-- Generated by graphviz version 2.43.0 (0)
 -->
<!-- Title: RayTracer::BVH::build Pages: 1 -->
<svg width="659pt" height="156pt"
 viewBox="0.00 0.00 659.00 155.94" xmlns="http://www.w3.org/2000/svg" xmlns:xlink="http://www.w3.org/1999/xlink">
<g id="graph0" class="graph" transform="scale(1 1) rotate(0) translate(4 151.94)">
<title>RayTracer::BVH::build</title>
<!-- Node1 -->
<g id="Node000001" class="node">
<title>Node1</title>
<g id="a_Node000001"><a xlink:title=" ">
<polygon fill="#999999" stroke="#666666" points="122,-100 0,-100 0,-81 122,-81 122,-100"/>
<text text-anchor="middle" x="61" y="-88" font-family="Helvetica,sans-Serif" font-size="10.00">RayTracer::BVH::build</text>
</a>
</g>
</g>
<!-- Node1&#45;&gt;Node1 -->
<g id="edge7_Node000001_Node000001" class="edge">
<title>Node1&#45;&gt;Node1</title>
<g id="a_edge7_Node000001_Node000001"><a xlink:title=" ">
<path fill="none" stroke="#63b8ff" d="M33.57,-100.08C20.22,-108.73 29.36,-118 61,-118 82.26,-118 93.36,-113.82 94.31,-108.45"/>
<polygon fill="#63b8ff" stroke="#63b8ff" points="97.05,-106.26 88.43,-100.08 91.32,-110.28 97.05,-106.26"/>
</a>
</g>
</g>
<!-- Node2 -->
<g id="Node000002" class="node">
<title>Node2</title>
<g id="a_Node000002"><a xlink:href="classGeometry_1_1AABB.html#ae2037890566d429b5b2f933a6ca9900c" target="_top" xlink:title=" ">
<polygon fill="white" stroke="#666666" points="651,-142 520,-142 520,-123 651,-123 651,-142"/>
<text text-anchor="middle" x="585.5" y="-130" font-family="Helvetica,sans-Serif" font-size="10.00">Geometry::AABB::AABB</text>
</a>
</g>
</g>
<!-- Node1&#45;&gt;Node2 -->
<g id="edge1_Node000001_Node000002" class="edge">
<title>Node1&#45;&gt;Node2</title>
<g id="a_edge1_Node000001_Node000002"><a xlink:title=" ">
<path fill="none" stroke="#63b8ff" d="M79.04,-100.01C97.74,-109.86 128.98,-124.62 158,-130.5 279.17,-155.03 423.7,-148.41 509.58,-140.84"/>
<polygon fill="#63b8ff" stroke="#63b8ff" points="510.12,-144.31 519.76,-139.92 509.49,-137.34 510.12,-144.31"/>
</a>
</g>
</g>
<!-- Node3 -->
<g id="Node000003" class="node">
<title>Node3</title>
<g id="a_Node000003"><a xlink:href="classGeometry_1_1Point3D.html#a6a08342f9542eb6d6ff7bcf2278a240d" target="_top" xlink:title=" ">
<polygon fill="white" stroke="#666666" points="643,-104.5 528,-104.5 528,-74.5 643,-74.5 643,-104.5"/>
<text text-anchor="start" x="536" y="-92.5" font-family="Helvetica,sans-Serif" font-size="10.00">Geometry::Point3D::</text>
<text text-anchor="middle" x="585.5" y="-81.5" font-family="Helvetica,sans-Serif" font-size="10.00">Point3D</text>
</a>
</g>
</g>
<!-- Node1&#45;&gt;Node3 -->
<g id="edge2_Node000001_Node000003" class="edge">
<title>Node1&#45;&gt;Node3</title>
<g id="a_edge2_Node000001_Node000003"><a xlink:title=" ">
<path fill="none" stroke="#63b8ff" d="M92.34,-80.89C111.05,-75.47 135.66,-69.25 158,-66.5 284.59,-50.92 433.62,-66.66 517.77,-78.66"/>
<polygon fill="#63b8ff" stroke="#63b8ff" points="517.31,-82.13 527.71,-80.11 518.32,-75.21 517.31,-82.13"/>
</a>
</g>
</g>
<!-- Node4 -->
<g id="Node000004" class="node">
<title>Node4</title>
<g id="a_Node000004"><a xlink:href="classRayTracer_1_1BVH.html#ae7a593c0ee607404fdc95024f8a17fab" target="_top" xlink:title=" ">
<polygon fill="white" stroke="#666666" points="318,-105.5 160,-105.5 160,-75.5 318,-75.5 318,-105.5"/>
<text text-anchor="start" x="168" y="-93.5" font-family="Helvetica,sans-Serif" font-size="10.00">RayTracer::BVH::boundsFrom</text>
<text text-anchor="middle" x="239" y="-82.5" font-family="Helvetica,sans-Serif" font-size="10.00">Records</text>
</a>
</g>
</g>
<!-- Node1&#45;&gt;Node4 -->
<g id="edge3_Node000001_Node000004" class="edge">
<title>Node1&#45;&gt;Node4</title>
<g id="a_edge3_Node000001_Node000004"><a xlink:title=" ">
<path fill="none" stroke="#63b8ff" d="M122.08,-90.5C131,-90.5 140.35,-90.5 149.7,-90.5"/>
<polygon fill="#63b8ff" stroke="#63b8ff" points="149.83,-94 159.83,-90.5 149.83,-87 149.83,-94"/>
</a>
</g>
</g>
<!-- Node5 -->
<g id="Node000005" class="node">
<title>Node5</title>
<g id="a_Node000005"><a xlink:href="classGeometry_1_1AABB.html#ad625c435b383175aae100d15fa0f3cca" target="_top" xlink:title=" ">
<polygon fill="white" stroke="#666666" points="484,-121 356,-121 356,-102 484,-102 484,-121"/>
<text text-anchor="middle" x="420" y="-109" font-family="Helvetica,sans-Serif" font-size="10.00">Geometry::AABB::unite</text>
</a>
</g>
</g>
<!-- Node1&#45;&gt;Node5 -->
<g id="edge9_Node000001_Node000005" class="edge">
<title>Node1&#45;&gt;Node5</title>
<g id="a_edge9_Node000001_Node000005"><a xlink:title=" ">
<path fill="none" stroke="#63b8ff" d="M92.34,-100.11C111.05,-105.53 135.66,-111.75 158,-114.5 221.04,-122.26 293.28,-120.62 345.76,-117.55"/>
<polygon fill="#63b8ff" stroke="#63b8ff" points="346.22,-121.03 355.98,-116.92 345.79,-114.05 346.22,-121.03"/>
</a>
</g>
</g>
<!-- Node6 -->
<g id="Node000006" class="node">
<title>Node6</title>
<g id="a_Node000006"><a xlink:href="classGeometry_1_1AABB.html#a90d5e4b3068744113a03a307ef1ab258" target="_top" xlink:title=" ">
<polygon fill="white" stroke="#666666" points="320,-19 158,-19 158,0 320,0 320,-19"/>
<text text-anchor="middle" x="239" y="-7" font-family="Helvetica,sans-Serif" font-size="10.00">Geometry::AABB::surfaceArea</text>
</a>
</g>
</g>
<!-- Node1&#45;&gt;Node6 -->
<g id="edge8_Node000001_Node000006" class="edge">
<title>Node1&#45;&gt;Node6</title>
<g id="a_edge8_Node000001_Node000006"><a xlink:title=" ">
<path fill="none" stroke="#63b8ff" d="M75.73,-80.87C93.87,-68.52 127.12,-47.06 158,-33.5 167.86,-29.17 178.73,-25.33 189.2,-22.07"/>
<polygon fill="#63b8ff" stroke="#63b8ff" points="190.49,-25.34 199.06,-19.11 188.48,-18.63 190.49,-25.34"/>
</a>
</g>
</g>
<!-- Node4&#45;&gt;Node5 -->
<g id="edge4_Node000004_Node000005" class="edge">
<title>Node4&#45;&gt;Node5</title>
<g id="a_edge4_Node000004_Node000005"><a xlink:title=" ">
<path fill="none" stroke="#63b8ff" d="M318.25,-99.68C327.41,-100.75 336.73,-101.85 345.82,-102.91"/>
<polygon fill="#63b8ff" stroke="#63b8ff" points="345.62,-106.41 355.96,-104.1 346.43,-99.46 345.62,-106.41"/>
</a>
</g>
</g>
<!-- Node5&#45;&gt;Node2 -->
<g id="edge5_Node000005_Node000002" class="edge">
<title>Node5&#45;&gt;Node2</title>
<g id="a_edge5_Node000005_Node000002"><a xlink:title=" ">
<path fill="none" stroke="#63b8ff" d="M484.21,-119.62C492.61,-120.7 501.28,-121.81 509.85,-122.91"/>
<polygon fill="#63b8ff" stroke="#63b8ff" points="509.47,-126.39 519.83,-124.19 510.36,-119.45 509.47,-126.39"/>
</a>
</g>
</g>
<!-- Node5&#45;&gt;Node3 -->
<g id="edge6_Node000005_Node000003" class="edge">
<title>Node5&#45;&gt;Node3</title>
<g id="a_edge6_Node000005_Node000003"><a xlink:title=" ">
<path fill="none" stroke="#63b8ff" d="M484.21,-102.99C495.22,-101.51 506.7,-99.97 517.8,-98.47"/>
<polygon fill="#63b8ff" stroke="#63b8ff" points="518.42,-101.92 527.86,-97.12 517.48,-94.99 518.42,-101.92"/>
</a>
</g>
</g>
</g>
</svg>
