<?xml version="1.0" encoding="UTF-8" standalone="no"?>
<!DOCTYPE svg PUBLIC "-//W3C//DTD SVG 1.1//EN"
 "http://www.w3.org/Graphics/SVG/1.1/DTD/svg11.dtd">
<!-- Generated by graphviz version 2.43.0 (0)
 -->
<!-- Title: Geometry::Ray Pages: 1 -->
<svg width="238pt" height="408pt"
 viewBox="0.00 0.00 238.00 408.00" xmlns="http://www.w3.org/2000/svg" xmlns:xlink="http://www.w3.org/1999/xlink">

<svg id="main" version="1.1" xmlns="http://www.w3.org/2000/svg" xmlns:xlink="http://www.w3.org/1999/xlink" xml:space="preserve" onload="init(evt)">
<style type="text/css"><![CDATA[
.node, .edge {opacity: 0.7;}
.node.selected, .edge.selected {opacity: 1;}
.edge:hover path { stroke: red; }
.edge:hover polygon { stroke: red; fill: red; }
]]></style>
<script type="application/ecmascript" xlink:href="svg.min.js"/>
<svg id="graph" class="graph">
<g id="graph0" class="graph" transform="scale(1 1) rotate(0) translate(4 404)">
<title>Geometry::Ray</title>
<!-- Node1 -->
<g id="Node000001" class="node">
<title>Node1</title>
<g id="a_Node000001"><a xlink:title="Represents a ray: an origin point and a direction vector.">
<polygon fill="#999999" stroke="transparent" points="155,-94 72,-94 72,0 155,0 155,-94"/>
<text text-anchor="start" x="77.5" y="-82" font-family="Helvetica,sans-Serif" font-size="10.00">Geometry::Ray</text>
<text text-anchor="start" x="112" y="-67" font-family="Helvetica,sans-Serif" font-size="10.00"> </text>
<text text-anchor="start" x="83" y="-52" font-family="Helvetica,sans-Serif" font-size="10.00">+</text>
<text text-anchor="start" x="102.5" y="-52" font-family="Helvetica,sans-Serif" font-size="10.00">Ray()</text>
<text text-anchor="start" x="83" y="-37" font-family="Helvetica,sans-Serif" font-size="10.00">+</text>
<text text-anchor="start" x="102.5" y="-37" font-family="Helvetica,sans-Serif" font-size="10.00">~Ray()</text>
<text text-anchor="start" x="83" y="-22" font-family="Helvetica,sans-Serif" font-size="10.00">+</text>
<text text-anchor="start" x="102.5" y="-22" font-family="Helvetica,sans-Serif" font-size="10.00">Ray()</text>
<text text-anchor="start" x="83" y="-7" font-family="Helvetica,sans-Serif" font-size="10.00">+</text>
<text text-anchor="start" x="102.5" y="-7" font-family="Helvetica,sans-Serif" font-size="10.00">at()</text>
<polygon fill="#666666" stroke="#666666" points="72.5,-77 72.5,-77 155.5,-77 155.5,-77 72.5,-77"/>
<polygon fill="#666666" stroke="#666666" points="72.5,-62 72.5,-62 155.5,-62 155.5,-62 72.5,-62"/>
<polygon fill="none" stroke="#666666" points="72,0 72,-94 155,-94 155,0 72,0"/>
</a>
</g>
</g>
<!-- Node2 -->
<g id="Node000002" class="node">
<title>Node2</title>
<g id="a_Node000002"><a xlink:href="classGeometry_1_1Point3D.html" target="_top" xlink:title="Represents a 3D point in space.">
<polygon fill="white" stroke="transparent" points="103,-362.5 0,-362.5 0,-178.5 103,-178.5 103,-362.5"/>
<text text-anchor="start" x="5.5" y="-350.5" font-family="Helvetica,sans-Serif" font-size="10.00">Geometry::Point3D</text>
<text text-anchor="start" x="8.5" y="-335.5" font-family="Helvetica,sans-Serif" font-size="10.00">+</text>
<text text-anchor="start" x="25.5" y="-335.5" font-family="Helvetica,sans-Serif" font-size="10.00">x</text>
<text text-anchor="start" x="8.5" y="-320.5" font-family="Helvetica,sans-Serif" font-size="10.00">+</text>
<text text-anchor="start" x="25.5" y="-320.5" font-family="Helvetica,sans-Serif" font-size="10.00">y</text>
<text text-anchor="start" x="8.5" y="-305.5" font-family="Helvetica,sans-Serif" font-size="10.00">+</text>
<text text-anchor="start" x="25.5" y="-305.5" font-family="Helvetica,sans-Serif" font-size="10.00">z</text>
<text text-anchor="start" x="8.5" y="-290.5" font-family="Helvetica,sans-Serif" font-size="10.00">+</text>
<text text-anchor="start" x="25.5" y="-290.5" font-family="Helvetica,sans-Serif" font-size="10.00">Point3D()</text>
<text text-anchor="start" x="8.5" y="-275.5" font-family="Helvetica,sans-Serif" font-size="10.00">+</text>
<text text-anchor="start" x="25.5" y="-275.5" font-family="Helvetica,sans-Serif" font-size="10.00">Point3D()</text>
<text text-anchor="start" x="8.5" y="-260.5" font-family="Helvetica,sans-Serif" font-size="10.00">+</text>
<text text-anchor="start" x="25.5" y="-260.5" font-family="Helvetica,sans-Serif" font-size="10.00">~Point3D()</text>
<text text-anchor="start" x="8.5" y="-245.5" font-family="Helvetica,sans-Serif" font-size="10.00">+</text>
<text text-anchor="start" x="25.5" y="-245.5" font-family="Helvetica,sans-Serif" font-size="10.00">operator+()</text>
<text text-anchor="start" x="8.5" y="-230.5" font-family="Helvetica,sans-Serif" font-size="10.00">+</text>
<text text-anchor="start" x="25.5" y="-230.5" font-family="Helvetica,sans-Serif" font-size="10.00">operator&#45;()</text>
<text text-anchor="start" x="8.5" y="-215.5" font-family="Helvetica,sans-Serif" font-size="10.00">+</text>
<text text-anchor="start" x="25.5" y="-215.5" font-family="Helvetica,sans-Serif" font-size="10.00">operator+=()</text>
<text text-anchor="start" x="8.5" y="-200.5" font-family="Helvetica,sans-Serif" font-size="10.00">+</text>
<text text-anchor="start" x="25.5" y="-200.5" font-family="Helvetica,sans-Serif" font-size="10.00">operator&#45;()</text>
<text text-anchor="start" x="8.5" y="-185.5" font-family="Helvetica,sans-Serif" font-size="10.00">+</text>
<text text-anchor="start" x="25.5" y="-185.5" font-family="Helvetica,sans-Serif" font-size="10.00">operator=()</text>
<polygon fill="#666666" stroke="#666666" points="0.5,-345.5 0.5,-345.5 103.5,-345.5 103.5,-345.5 0.5,-345.5"/>
<polygon fill="#666666" stroke="#666666" points="0.5,-300.5 0.5,-300.5 23.5,-300.5 23.5,-300.5 0.5,-300.5"/>
<polygon fill="#666666" stroke="#666666" points="23.5,-300.5 23.5,-300.5 103.5,-300.5 103.5,-300.5 23.5,-300.5"/>
<polygon fill="none" stroke="#666666" points="0,-178.5 0,-362.5 103,-362.5 103,-178.5 0,-178.5"/>
</a>
</g>
</g>
<!-- Node2&#45;&gt;Node1 -->
<g id="edge1_Node000001_Node000002" class="edge">
<title>Node2&#45;&gt;Node1</title>
<g id="a_edge1_Node000001_Node000002"><a xlink:title=" ">
<path fill="none" stroke="#63b8ff" d="M76.99,-178.45C83.87,-153.87 91.12,-127.96 97.33,-105.76"/>
<polygon fill="none" stroke="#63b8ff" points="97.34,-105.73 95.11,-98.88 100.57,-94.18 102.81,-101.03 97.34,-105.73"/>
</a>
</g>
<text text-anchor="middle" x="115.5" y="-115" font-family="Helvetica,sans-Serif" font-size="10.00" fill="grey"> +origin</text>
</g>
<!-- Node3 -->
<g id="Node000003" class="node">
<title>Node3</title>
<g id="a_Node000003"><a xlink:href="classGeometry_1_1Vector3D.html" target="_top" xlink:title="Represents a 3D vector for directions or displacements.">
<polygon fill="white" stroke="transparent" points="230,-400 121,-400 121,-141 230,-141 230,-400"/>
<text text-anchor="start" x="126.5" y="-387.5" font-family="Helvetica,sans-Serif" font-size="10.00">Geometry::Vector3D</text>
<text text-anchor="start" x="129.5" y="-372.5" font-family="Helvetica,sans-Serif" font-size="10.00">+</text>
<text text-anchor="start" x="146.5" y="-372.5" font-family="Helvetica,sans-Serif" font-size="10.00">x</text>
<text text-anchor="start" x="129.5" y="-357.5" font-family="Helvetica,sans-Serif" font-size="10.00">+</text>
<text text-anchor="start" x="146.5" y="-357.5" font-family="Helvetica,sans-Serif" font-size="10.00">y</text>
<text text-anchor="start" x="129.5" y="-342.5" font-family="Helvetica,sans-Serif" font-size="10.00">+</text>
<text text-anchor="start" x="146.5" y="-342.5" font-family="Helvetica,sans-Serif" font-size="10.00">z</text>
<text text-anchor="start" x="129.5" y="-327.5" font-family="Helvetica,sans-Serif" font-size="10.00">+</text>
<text text-anchor="start" x="146.5" y="-327.5" font-family="Helvetica,sans-Serif" font-size="10.00">Vector3D()</text>
<text text-anchor="start" x="129.5" y="-312.5" font-family="Helvetica,sans-Serif" font-size="10.00">+</text>
<text text-anchor="start" x="146.5" y="-312.5" font-family="Helvetica,sans-Serif" font-size="10.00">Vector3D()</text>
<text text-anchor="start" x="129.5" y="-297.5" font-family="Helvetica,sans-Serif" font-size="10.00">+</text>
<text text-anchor="start" x="146.5" y="-297.5" font-family="Helvetica,sans-Serif" font-size="10.00">~Vector3D()</text>
<text text-anchor="start" x="129.5" y="-282.5" font-family="Helvetica,sans-Serif" font-size="10.00">+</text>
<text text-anchor="start" x="146.5" y="-282.5" font-family="Helvetica,sans-Serif" font-size="10.00">length()</text>
<text text-anchor="start" x="129.5" y="-267.5" font-family="Helvetica,sans-Serif" font-size="10.00">+</text>
<text text-anchor="start" x="146.5" y="-267.5" font-family="Helvetica,sans-Serif" font-size="10.00">length()</text>
<text text-anchor="start" x="129.5" y="-252.5" font-family="Helvetica,sans-Serif" font-size="10.00">+</text>
<text text-anchor="start" x="146.5" y="-252.5" font-family="Helvetica,sans-Serif" font-size="10.00">dot()</text>
<text text-anchor="start" x="129.5" y="-237.5" font-family="Helvetica,sans-Serif" font-size="10.00">+</text>
<text text-anchor="start" x="146.5" y="-237.5" font-family="Helvetica,sans-Serif" font-size="10.00">normalize()</text>
<text text-anchor="start" x="129.5" y="-222.5" font-family="Helvetica,sans-Serif" font-size="10.00">+</text>
<text text-anchor="start" x="146.5" y="-222.5" font-family="Helvetica,sans-Serif" font-size="10.00">operator+()</text>
<text text-anchor="start" x="129.5" y="-207.5" font-family="Helvetica,sans-Serif" font-size="10.00">+</text>
<text text-anchor="start" x="146.5" y="-207.5" font-family="Helvetica,sans-Serif" font-size="10.00">operator+=()</text>
<text text-anchor="start" x="129.5" y="-192.5" font-family="Helvetica,sans-Serif" font-size="10.00">+</text>
<text text-anchor="start" x="146.5" y="-192.5" font-family="Helvetica,sans-Serif" font-size="10.00">operator&#45;()</text>
<text text-anchor="start" x="146.5" y="-177.5" font-family="Helvetica,sans-Serif" font-size="10.00">and 10 more...</text>
<text text-anchor="start" x="129.5" y="-162.5" font-family="Helvetica,sans-Serif" font-size="10.00">+</text>
<text text-anchor="start" x="146.5" y="-162.5" font-family="Helvetica,sans-Serif" font-size="10.00">dot()</text>
<text text-anchor="start" x="129.5" y="-147.5" font-family="Helvetica,sans-Serif" font-size="10.00">+</text>
<text text-anchor="start" x="146.5" y="-147.5" font-family="Helvetica,sans-Serif" font-size="10.00">cross()</text>
<polygon fill="#666666" stroke="#666666" points="121.5,-382.5 121.5,-382.5 230.5,-382.5 230.5,-382.5 121.5,-382.5"/>
<polygon fill="#666666" stroke="#666666" points="121.5,-337.5 121.5,-337.5 144.5,-337.5 144.5,-337.5 121.5,-337.5"/>
<polygon fill="#666666" stroke="#666666" points="144.5,-337.5 144.5,-337.5 230.5,-337.5 230.5,-337.5 144.5,-337.5"/>
<polygon fill="none" stroke="#666666" points="121,-141 121,-400 230,-400 230,-141 121,-141"/>
</a>
</g>
</g>
<!-- Node3&#45;&gt;Node1 -->
<g id="edge2_Node000001_Node000003" class="edge">
<title>Node3&#45;&gt;Node1</title>
<g id="a_edge2_Node000001_Node000003"><a xlink:title=" ">
<path fill="none" stroke="#63b8ff" d="M147.93,-140.96C145.27,-131.11 142.45,-121.36 139.5,-112 138.84,-109.9 138.14,-107.78 137.41,-105.64"/>
<polygon fill="none" stroke="#63b8ff" points="137.35,-105.46 131.55,-101.17 133.28,-94.17 139.08,-98.46 137.35,-105.46"/>
</a>
</g>
<text text-anchor="middle" x="169" y="-115" font-family="Helvetica,sans-Serif" font-size="10.00" fill="grey"> +direction</text>
</g>
</g>
</svg>
</svg>

<style type='text/css'>
<![CDATA[
[data-mouse-over-selected='false'] { opacity: 0.7; }
[data-mouse-over-selected='true']  { opacity: 1.0; }
]]>
</style>
<script type="application/ecmascript"><![CDATA[
document.addEventListener('DOMContentLoaded', (event) => {
  highlightEdges();
  highlightAdjacentNodes();
});
]]></script>
</svg>
