<?xml version="1.0" encoding="UTF-8" standalone="no"?>
<!DOCTYPE svg PUBLIC "-//W3C//DTD SVG 1.1//EN"
 "http://www.w3.org/Graphics/SVG/1.1/DTD/svg11.dtd">
<!-- Generated by graphviz version 2.43.0 (0)
 -->
<!-- Title: RayTracer::Camera::castRay Pages: 1 -->
<svg width="494pt" height="176pt"
 viewBox="0.00 0.00 494.00 175.73" xmlns="http://www.w3.org/2000/svg" xmlns:xlink="http://www.w3.org/1999/xlink">

<svg id="main" version="1.1" xmlns="http://www.w3.org/2000/svg" xmlns:xlink="http://www.w3.org/1999/xlink" xml:space="preserve" onload="init(evt)">
<style type="text/css"><![CDATA[
.node, .edge {opacity: 0.7;}
.node.selected, .edge.selected {opacity: 1;}
.edge:hover path { stroke: red; }
.edge:hover polygon { stroke: red; fill: red; }
]]></style>
<script type="application/ecmascript" xlink:href="svg.min.js"/>
<svg id="graph" class="graph">
<g id="graph0" class="graph" transform="scale(1 1) rotate(0) translate(4 171.73)">
<title>RayTracer::Camera::castRay</title>
<!-- Node1 -->
<g id="Node000001" class="node">
<title>Node1</title>
<g id="a_Node000001"><a xlink:title="Trace a single ray in the scene and compute the resulting color.">
<polygon fill="#999999" stroke="#666666" points="115,-104.5 0,-104.5 0,-74.5 115,-74.5 115,-104.5"/>
<text text-anchor="start" x="8" y="-92.5" font-family="Helvetica,sans-Serif" font-size="10.00">RayTracer::Camera::</text>
<text text-anchor="middle" x="57.5" y="-81.5" font-family="Helvetica,sans-Serif" font-size="10.00">castRay</text>
</a>
</g>
</g>
<!-- Node2 -->
<g id="Node000002" class="node">
<title>Node2</title>
<g id="a_Node000002"><a xlink:href="structRayTracer_1_1Color.html#a01b4a4dad8204eed80f8d38d3d004e4d" target="_top" xlink:title=" ">
<polygon fill="white" stroke="#666666" points="486,-99 358,-99 358,-80 486,-80 486,-99"/>
<text text-anchor="middle" x="422" y="-87" font-family="Helvetica,sans-Serif" font-size="10.00">RayTracer::Color::Color</text>
</a>
</g>
</g>
<!-- Node1&#45;&gt;Node2 -->
<g id="edge1_Node000001_Node000002" class="edge">
<title>Node1&#45;&gt;Node2</title>
<g id="a_edge1_Node000001_Node000002"><a xlink:title=" ">
<path fill="none" stroke="#63b8ff" d="M74.64,-104.75C91.95,-119.98 121.04,-142.39 151,-151.5 223.71,-173.61 248.95,-172.49 322,-151.5 353.1,-142.57 383.89,-120.68 402.68,-105.46"/>
<polygon fill="#63b8ff" stroke="#63b8ff" points="404.98,-108.1 410.42,-99.01 400.5,-102.72 404.98,-108.1"/>
</a>
</g>
</g>
<!-- Node3 -->
<g id="Node000003" class="node">
<title>Node3</title>
<g id="a_Node000003"><a xlink:href="structRayTracer_1_1Color.html#ae749f3583bffdf5596744257593d35e6" target="_top" xlink:title=" ">
<polygon fill="white" stroke="#666666" points="302.5,-142 170.5,-142 170.5,-123 302.5,-123 302.5,-142"/>
<text text-anchor="middle" x="236.5" y="-130" font-family="Helvetica,sans-Serif" font-size="10.00">RayTracer::Color::clamp</text>
</a>
</g>
</g>
<!-- Node1&#45;&gt;Node3 -->
<g id="edge2_Node000001_Node000003" class="edge">
<title>Node1&#45;&gt;Node3</title>
<g id="a_edge2_Node000001_Node000003"><a xlink:title=" ">
<path fill="none" stroke="#63b8ff" d="M115.17,-104.52C126.99,-107.56 139.39,-110.69 151,-113.5 160.86,-115.89 171.4,-118.34 181.57,-120.65"/>
<polygon fill="#63b8ff" stroke="#63b8ff" points="181.05,-124.12 191.58,-122.91 182.6,-117.29 181.05,-124.12"/>
</a>
</g>
</g>
<!-- Node4 -->
<g id="Node000004" class="node">
<title>Node4</title>
<g id="a_Node000004"><a xlink:href="classRayTracer_1_1Camera.html#a68fed07788d6155ad2689dcde296dcf8" target="_top" xlink:title="Determine whether a hit point is shadowed by any primitive.">
<polygon fill="white" stroke="#666666" points="294,-104.5 179,-104.5 179,-74.5 294,-74.5 294,-104.5"/>
<text text-anchor="start" x="187" y="-92.5" font-family="Helvetica,sans-Serif" font-size="10.00">RayTracer::Camera::</text>
<text text-anchor="middle" x="236.5" y="-81.5" font-family="Helvetica,sans-Serif" font-size="10.00">computeShadow</text>
</a>
</g>
</g>
<!-- Node1&#45;&gt;Node4 -->
<g id="edge3_Node000001_Node000004" class="edge">
<title>Node1&#45;&gt;Node4</title>
<g id="a_edge3_Node000001_Node000004"><a xlink:title=" ">
<path fill="none" stroke="#63b8ff" d="M115.48,-89.5C132.46,-89.5 151.22,-89.5 168.76,-89.5"/>
<polygon fill="#63b8ff" stroke="#63b8ff" points="168.93,-93 178.93,-89.5 168.93,-86 168.93,-93"/>
</a>
</g>
</g>
<!-- Node5 -->
<g id="Node000005" class="node">
<title>Node5</title>
<g id="a_Node000005"><a xlink:href="classRayTracer_1_1Scene.html#a3cf955a569ab5c1a9b77203e2f85bf6e" target="_top" xlink:title="Get mutable reference to primitives.">
<polygon fill="white" stroke="#666666" points="322,-56 151,-56 151,-37 322,-37 322,-56"/>
<text text-anchor="middle" x="236.5" y="-44" font-family="Helvetica,sans-Serif" font-size="10.00">RayTracer::Scene::getPrimitives</text>
</a>
</g>
</g>
<!-- Node1&#45;&gt;Node5 -->
<g id="edge4_Node000001_Node000005" class="edge">
<title>Node1&#45;&gt;Node5</title>
<g id="a_edge4_Node000001_Node000005"><a xlink:title=" ">
<path fill="none" stroke="#63b8ff" d="M115.17,-74.48C126.99,-71.44 139.39,-68.31 151,-65.5 160.86,-63.11 171.4,-60.66 181.57,-58.35"/>
<polygon fill="#63b8ff" stroke="#63b8ff" points="182.6,-61.71 191.58,-56.09 181.05,-54.88 182.6,-61.71"/>
</a>
</g>
</g>
<!-- Node6 -->
<g id="Node000006" class="node">
<title>Node6</title>
<g id="a_Node000006"><a xlink:href="structRayTracer_1_1Color.html#aefc65f4c5ffc2e9bca0a35e4e55d68b8" target="_top" xlink:title=" ">
<polygon fill="white" stroke="#666666" points="311,-19 162,-19 162,0 311,0 311,-19"/>
<text text-anchor="middle" x="236.5" y="-7" font-family="Helvetica,sans-Serif" font-size="10.00">RayTracer::Color::operator*</text>
</a>
</g>
</g>
<!-- Node1&#45;&gt;Node6 -->
<g id="edge5_Node000001_Node000006" class="edge">
<title>Node1&#45;&gt;Node6</title>
<g id="a_edge5_Node000001_Node000006"><a xlink:title=" ">
<path fill="none" stroke="#63b8ff" d="M76.83,-74.49C94.71,-60.58 123.21,-40.32 151,-28.5 156.9,-25.99 163.18,-23.79 169.55,-21.86"/>
<polygon fill="#63b8ff" stroke="#63b8ff" points="170.91,-25.12 179.6,-19.06 169.02,-18.38 170.91,-25.12"/>
</a>
</g>
</g>
<!-- Node6&#45;&gt;Node2 -->
<g id="edge6_Node000006_Node000002" class="edge">
<title>Node6&#45;&gt;Node2</title>
<g id="a_edge6_Node000006_Node000002"><a xlink:title=" ">
<path fill="none" stroke="#63b8ff" d="M292.41,-19.06C302.43,-21.59 312.67,-24.7 322,-28.5 350.89,-40.27 380.98,-60.05 400.29,-73.89"/>
<polygon fill="#63b8ff" stroke="#63b8ff" points="398.46,-76.89 408.6,-79.96 402.59,-71.24 398.46,-76.89"/>
</a>
</g>
</g>
</g>
</svg>
</svg>

<style type='text/css'>
<![CDATA[
[data-mouse-over-selected='false'] { opacity: 0.7; }
[data-mouse-over-selected='true']  { opacity: 1.0; }
]]>
</style>
<script type="application/ecmascript"><![CDATA[
document.addEventListener('DOMContentLoaded', (event) => {
  highlightEdges();
  highlightAdjacentNodes();
});
]]></script>
</svg>
