<?xml version="1.0" encoding="UTF-8" standalone="no"?>
<!DOCTYPE svg PUBLIC "-//W3C//DTD SVG 1.1//EN"
 "http://www.w3.org/Graphics/SVG/1.1/DTD/svg11.dtd">
<!-- Generated by graphviz version 2.43.0 (0)
 -->
<!-- Title: RayTracer::BVHCam::generateRay Pages: 1 -->
<svg width="508pt" height="240pt"
 viewBox="0.00 0.00 508.00 239.75" xmlns="http://www.w3.org/2000/svg" xmlns:xlink="http://www.w3.org/1999/xlink">
<g id="graph0" class="graph" transform="scale(1 1) rotate(0) translate(4 235.75)">
<title>RayTracer::BVHCam::generateRay</title>
<!-- Node1 -->
<g id="Node000001" class="node">
<title>Node1</title>
<g id="a_Node000001"><a xlink:title="Build a world&#45;space ray from normalized screen coordinates.">
<polygon fill="#999999" stroke="#666666" points="120,-145 0,-145 0,-115 120,-115 120,-145"/>
<text text-anchor="start" x="8" y="-133" font-family="Helvetica,sans-Serif" font-size="10.00">RayTracer::BVHCam::</text>
<text text-anchor="middle" x="60" y="-122" font-family="Helvetica,sans-Serif" font-size="10.00">generateRay</text>
</a>
</g>
</g>
<!-- Node2 -->
<g id="Node000002" class="node">
<title>Node2</title>
<g id="a_Node000002"><a xlink:href="classGeometry_1_1Point3D.html#a6a08342f9542eb6d6ff7bcf2278a240d" target="_top" xlink:title=" ">
<polygon fill="white" stroke="#666666" points="479,-169 364,-169 364,-139 479,-139 479,-169"/>
<text text-anchor="start" x="372" y="-157" font-family="Helvetica,sans-Serif" font-size="10.00">Geometry::Point3D::</text>
<text text-anchor="middle" x="421.5" y="-146" font-family="Helvetica,sans-Serif" font-size="10.00">Point3D</text>
</a>
</g>
</g>
<!-- Node1&#45;&gt;Node2 -->
<g id="edge1_Node000001_Node000002" class="edge">
<title>Node1&#45;&gt;Node2</title>
<g id="a_edge1_Node000001_Node000002"><a xlink:title=" ">
<path fill="none" stroke="#63b8ff" d="M71.79,-145.12C87.55,-165.74 119.05,-201.76 156,-216 218.62,-240.13 241.97,-232.6 307,-216 338.17,-208.04 370,-189.57 391.98,-174.85"/>
<polygon fill="#63b8ff" stroke="#63b8ff" points="394.22,-177.56 400.49,-169.02 390.26,-171.79 394.22,-177.56"/>
</a>
</g>
</g>
<!-- Node3 -->
<g id="Node000003" class="node">
<title>Node3</title>
<g id="a_Node000003"><a xlink:href="classGeometry_1_1Ray.html#a009af874883eaeca399a3c5c144df2fc" target="_top" xlink:title="Constructor.">
<polygon fill="white" stroke="#666666" points="288,-206.5 175,-206.5 175,-187.5 288,-187.5 288,-206.5"/>
<text text-anchor="middle" x="231.5" y="-194.5" font-family="Helvetica,sans-Serif" font-size="10.00">Geometry::Ray::Ray</text>
</a>
</g>
</g>
<!-- Node1&#45;&gt;Node3 -->
<g id="edge2_Node000001_Node000003" class="edge">
<title>Node1&#45;&gt;Node3</title>
<g id="a_edge2_Node000001_Node000003"><a xlink:title=" ">
<path fill="none" stroke="#63b8ff" d="M86.92,-145.04C105.64,-155.41 131.78,-168.92 156,-178 162.47,-180.42 169.36,-182.65 176.25,-184.65"/>
<polygon fill="#63b8ff" stroke="#63b8ff" points="175.71,-188.13 186.28,-187.42 177.57,-181.38 175.71,-188.13"/>
</a>
</g>
</g>
<!-- Node4 -->
<g id="Node000004" class="node">
<title>Node4</title>
<g id="a_Node000004"><a xlink:href="classGeometry_1_1Vector3D.html#ae4c5a52ebf282e334801c8ee28ad8d5d" target="_top" xlink:title=" ">
<polygon fill="white" stroke="#666666" points="479,-78 364,-78 364,-48 479,-48 479,-78"/>
<text text-anchor="start" x="372" y="-66" font-family="Helvetica,sans-Serif" font-size="10.00">Geometry::Vector3D</text>
<text text-anchor="middle" x="421.5" y="-55" font-family="Helvetica,sans-Serif" font-size="10.00">::Vector3D</text>
</a>
</g>
</g>
<!-- Node1&#45;&gt;Node4 -->
<g id="edge3_Node000001_Node000004" class="edge">
<title>Node1&#45;&gt;Node4</title>
<g id="a_edge3_Node000001_Node000004"><a xlink:title=" ">
<path fill="none" stroke="#63b8ff" d="M84.53,-114.78C103.13,-103.59 130.17,-89.14 156,-82 221.55,-63.87 299.53,-60.34 353.76,-60.59"/>
<polygon fill="#63b8ff" stroke="#63b8ff" points="353.91,-64.1 363.94,-60.69 353.97,-57.1 353.91,-64.1"/>
</a>
</g>
</g>
<!-- Node5 -->
<g id="Node000005" class="node">
<title>Node5</title>
<g id="a_Node000005"><a xlink:href="classGeometry_1_1Vector3D.html#a388f7af8bf0095c817e89b5b2518fda7" target="_top" xlink:title=" ">
<polygon fill="white" stroke="#666666" points="289,-35 174,-35 174,-5 289,-5 289,-35"/>
<text text-anchor="start" x="182" y="-23" font-family="Helvetica,sans-Serif" font-size="10.00">Geometry::Vector3D</text>
<text text-anchor="middle" x="231.5" y="-12" font-family="Helvetica,sans-Serif" font-size="10.00">::normalize</text>
</a>
</g>
</g>
<!-- Node1&#45;&gt;Node5 -->
<g id="edge4_Node000001_Node000005" class="edge">
<title>Node1&#45;&gt;Node5</title>
<g id="a_edge4_Node000001_Node000005"><a xlink:title=" ">
<path fill="none" stroke="#63b8ff" d="M75.56,-114.8C93.23,-97.07 124.56,-67.79 156,-49 161.92,-45.46 168.36,-42.2 174.88,-39.25"/>
<polygon fill="#63b8ff" stroke="#63b8ff" points="176.64,-42.3 184.44,-35.14 173.87,-35.87 176.64,-42.3"/>
</a>
</g>
</g>
<!-- Node7 -->
<g id="Node000007" class="node">
<title>Node7</title>
<g id="a_Node000007"><a xlink:href="classGeometry_1_1TransformMatrix.html#a136a1573f63564d63426b89fcafeb21b" target="_top" xlink:title=" ">
<polygon fill="white" stroke="#666666" points="307,-121 156,-121 156,-91 307,-91 307,-121"/>
<text text-anchor="start" x="164" y="-109" font-family="Helvetica,sans-Serif" font-size="10.00">Geometry::TransformMatrix</text>
<text text-anchor="middle" x="231.5" y="-98" font-family="Helvetica,sans-Serif" font-size="10.00">::operator*</text>
</a>
</g>
</g>
<!-- Node1&#45;&gt;Node7 -->
<g id="edge7_Node000001_Node000007" class="edge">
<title>Node1&#45;&gt;Node7</title>
<g id="a_edge7_Node000001_Node000007"><a xlink:title=" ">
<path fill="none" stroke="#63b8ff" d="M120.28,-121.61C128.52,-120.44 137.1,-119.22 145.69,-118.01"/>
<polygon fill="#63b8ff" stroke="#63b8ff" points="146.34,-121.45 155.75,-116.58 145.36,-114.52 146.34,-121.45"/>
</a>
</g>
</g>
<!-- Node9 -->
<g id="Node000009" class="node">
<title>Node9</title>
<g id="a_Node000009"><a xlink:href="classGeometry_1_1Rectangle3D.html#a2b17f489ad6e57c131dc0e1c8ac2f1a0" target="_top" xlink:title="Get a point on the rectangle at normalized coordinates (u, v).">
<polygon fill="white" stroke="#666666" points="298,-169 165,-169 165,-139 298,-139 298,-169"/>
<text text-anchor="start" x="173" y="-157" font-family="Helvetica,sans-Serif" font-size="10.00">Geometry::Rectangle3D</text>
<text text-anchor="middle" x="231.5" y="-146" font-family="Helvetica,sans-Serif" font-size="10.00">::pointAt</text>
</a>
</g>
</g>
<!-- Node1&#45;&gt;Node9 -->
<g id="edge10_Node000001_Node000009" class="edge">
<title>Node1&#45;&gt;Node9</title>
<g id="a_edge10_Node000001_Node000009"><a xlink:title=" ">
<path fill="none" stroke="#63b8ff" d="M120.28,-138.39C131.43,-139.97 143.23,-141.64 154.8,-143.28"/>
<polygon fill="#63b8ff" stroke="#63b8ff" points="154.5,-146.77 164.89,-144.71 155.48,-139.84 154.5,-146.77"/>
</a>
</g>
</g>
<!-- Node5&#45;&gt;Node4 -->
<g id="edge5_Node000005_Node000004" class="edge">
<title>Node5&#45;&gt;Node4</title>
<g id="a_edge5_Node000005_Node000004"><a xlink:title=" ">
<path fill="none" stroke="#63b8ff" d="M289.16,-32.96C309.6,-37.63 332.85,-42.95 354.06,-47.8"/>
<polygon fill="#63b8ff" stroke="#63b8ff" points="353.43,-51.25 363.95,-50.07 354.99,-44.43 353.43,-51.25"/>
</a>
</g>
</g>
<!-- Node6 -->
<g id="Node000006" class="node">
<title>Node6</title>
<g id="a_Node000006"><a xlink:href="classGeometry_1_1Vector3D.html#a8966b188a3b6d27793b3896618fea42c" target="_top" xlink:title="Calculate the length (magnitude) of this vector.">
<polygon fill="white" stroke="#666666" points="479,-30 364,-30 364,0 479,0 479,-30"/>
<text text-anchor="start" x="372" y="-18" font-family="Helvetica,sans-Serif" font-size="10.00">Geometry::Vector3D</text>
<text text-anchor="middle" x="421.5" y="-7" font-family="Helvetica,sans-Serif" font-size="10.00">::length</text>
</a>
</g>
</g>
<!-- Node5&#45;&gt;Node6 -->
<g id="edge6_Node000005_Node000006" class="edge">
<title>Node5&#45;&gt;Node6</title>
<g id="a_edge6_Node000005_Node000006"><a xlink:title=" ">
<path fill="none" stroke="#63b8ff" d="M289.16,-18.49C309.51,-17.95 332.64,-17.34 353.77,-16.77"/>
<polygon fill="#63b8ff" stroke="#63b8ff" points="354.05,-20.27 363.95,-16.5 353.87,-13.27 354.05,-20.27"/>
</a>
</g>
</g>
<!-- Node7&#45;&gt;Node2 -->
<g id="edge8_Node000007_Node000002" class="edge">
<title>Node7&#45;&gt;Node2</title>
<g id="a_edge8_Node000007_Node000002"><a xlink:title=" ">
<path fill="none" stroke="#63b8ff" d="M291.47,-121.06C311.36,-126.14 333.7,-131.84 354.13,-137.06"/>
<polygon fill="#63b8ff" stroke="#63b8ff" points="353.43,-140.49 363.99,-139.57 355.17,-133.71 353.43,-140.49"/>
</a>
</g>
</g>
<!-- Node8 -->
<g id="Node000008" class="node">
<title>Node8</title>
<g id="a_Node000008"><a xlink:href="classGeometry_1_1Matrix.html#a55bca424225b20c0490c21b93faea578" target="_top" xlink:title="Mutable element access.">
<polygon fill="white" stroke="#666666" points="500,-115.5 343,-115.5 343,-96.5 500,-96.5 500,-115.5"/>
<text text-anchor="middle" x="421.5" y="-103.5" font-family="Helvetica,sans-Serif" font-size="10.00">Geometry::Matrix::operator()</text>
</a>
</g>
</g>
<!-- Node7&#45;&gt;Node8 -->
<g id="edge9_Node000007_Node000008" class="edge">
<title>Node7&#45;&gt;Node8</title>
<g id="a_edge9_Node000007_Node000008"><a xlink:title=" ">
<path fill="none" stroke="#63b8ff" d="M307.07,-106C315.55,-106 324.24,-106 332.86,-106"/>
<polygon fill="#63b8ff" stroke="#63b8ff" points="332.93,-109.5 342.93,-106 332.93,-102.5 332.93,-109.5"/>
</a>
</g>
</g>
<!-- Node9&#45;&gt;Node2 -->
<g id="edge11_Node000009_Node000002" class="edge">
<title>Node9&#45;&gt;Node2</title>
<g id="a_edge11_Node000009_Node000002"><a xlink:title=" ">
<path fill="none" stroke="#63b8ff" d="M298.25,-154C316.22,-154 335.7,-154 353.72,-154"/>
<polygon fill="#63b8ff" stroke="#63b8ff" points="353.85,-157.5 363.85,-154 353.85,-150.5 353.85,-157.5"/>
</a>
</g>
</g>
</g>
</svg>
