<?xml version="1.0" encoding="UTF-8" standalone="no"?>
<!DOCTYPE svg PUBLIC "-//W3C//DTD SVG 1.1//EN"
 "http://www.w3.org/Graphics/SVG/1.1/DTD/svg11.dtd">
<!-- Generated by graphviz version 2.43.0 (0)
 -->
<!-- Title: RayTracer::Scene::addLights Pages: 1 -->
<svg width="345pt" height="76pt"
 viewBox="0.00 0.00 345.00 75.50" xmlns="http://www.w3.org/2000/svg" xmlns:xlink="http://www.w3.org/1999/xlink">
<g id="graph0" class="graph" transform="scale(1 1) rotate(0) translate(4 71.5)">
<title>RayTracer::Scene::addLights</title>
<!-- Node1 -->
<g id="Node000001" class="node">
<title>Node1</title>
<g id="a_Node000001"><a xlink:title="Add lights to the scene.">
<polygon fill="#999999" stroke="#666666" points="153,-45.5 0,-45.5 0,-26.5 153,-26.5 153,-45.5"/>
<text text-anchor="middle" x="76.5" y="-33.5" font-family="Helvetica,sans-Serif" font-size="10.00">RayTracer::Scene::addLights</text>
</a>
</g>
</g>
<!-- Node2 -->
<g id="Node000002" class="node">
<title>Node2</title>
<g id="a_Node000002"><a xlink:href="classRayTracer_1_1Scene.html#ad36d89648fcb66900a06ee71b8324bcc" target="_top" xlink:title="Add a light to the scene.">
<polygon fill="white" stroke="#666666" points="337,-67.5 189,-67.5 189,-48.5 337,-48.5 337,-67.5"/>
<text text-anchor="middle" x="263" y="-55.5" font-family="Helvetica,sans-Serif" font-size="10.00">RayTracer::Scene::addLight</text>
</a>
</g>
</g>
<!-- Node1&#45;&gt;Node2 -->
<g id="edge1_Node000001_Node000002" class="edge">
<title>Node1&#45;&gt;Node2</title>
<g id="a_edge1_Node000001_Node000002"><a xlink:title=" ">
<path fill="none" stroke="#63b8ff" d="M153.08,-45.01C161.59,-46.03 170.29,-47.06 178.9,-48.09"/>
<polygon fill="#63b8ff" stroke="#63b8ff" points="178.58,-51.58 188.92,-49.29 179.41,-44.63 178.58,-51.58"/>
</a>
</g>
</g>
<!-- Node3 -->
<g id="Node000003" class="node">
<title>Node3</title>
<g id="a_Node000003"><a xlink:href="classRayTracer_1_1PluginManager.html#a12a011c7eb217200fcabaf40b57da4c7" target="_top" xlink:title="Get an initializer function pointer from a loaded plugin.">
<polygon fill="white" stroke="#666666" points="334.5,-30 191.5,-30 191.5,0 334.5,0 334.5,-30"/>
<text text-anchor="start" x="199.5" y="-18" font-family="Helvetica,sans-Serif" font-size="10.00">RayTracer::PluginManager</text>
<text text-anchor="middle" x="263" y="-7" font-family="Helvetica,sans-Serif" font-size="10.00">::getInitializer</text>
</a>
</g>
</g>
<!-- Node1&#45;&gt;Node3 -->
<g id="edge2_Node000001_Node000003" class="edge">
<title>Node1&#45;&gt;Node3</title>
<g id="a_edge2_Node000001_Node000003"><a xlink:title=" ">
<path fill="none" stroke="#63b8ff" d="M153.08,-27.4C162.36,-26.34 171.87,-25.26 181.23,-24.19"/>
<polygon fill="#63b8ff" stroke="#63b8ff" points="181.76,-27.66 191.3,-23.05 180.96,-20.7 181.76,-27.66"/>
</a>
</g>
</g>
</g>
</svg>
