<?xml version="1.0" encoding="UTF-8" standalone="no"?>
<!DOCTYPE svg PUBLIC "-//W3C//DTD SVG 1.1//EN"
 "http://www.w3.org/Graphics/SVG/1.1/DTD/svg11.dtd">
<!-- Generated by graphviz version 2.43.0 (0)
 -->
<!-- Title: RayTracer::Exception Pages: 1 -->
<svg width="326pt" height="268pt"
 viewBox="0.00 0.00 326.00 268.00" xmlns="http://www.w3.org/2000/svg" xmlns:xlink="http://www.w3.org/1999/xlink">
<g id="graph0" class="graph" transform="scale(1 1) rotate(0) translate(4 264)">
<title>RayTracer::Exception</title>
<!-- Node1 -->
<g id="Node000001" class="node">
<title>Node1</title>
<g id="a_Node000001"><a xlink:title=" ">
<polygon fill="#999999" stroke="transparent" points="216.5,-175 103.5,-175 103.5,-96 216.5,-96 216.5,-175"/>
<text text-anchor="start" x="109" y="-162.5" font-family="Helvetica,sans-Serif" font-size="10.00">RayTracer::Exception</text>
<text text-anchor="start" x="119.5" y="-147.5" font-family="Helvetica,sans-Serif" font-size="10.00">&#45;</text>
<text text-anchor="start" x="139" y="-147.5" font-family="Helvetica,sans-Serif" font-size="10.00">_message</text>
<text text-anchor="start" x="119.5" y="-132.5" font-family="Helvetica,sans-Serif" font-size="10.00">&#45;</text>
<text text-anchor="start" x="139" y="-132.5" font-family="Helvetica,sans-Serif" font-size="10.00">_location</text>
<text text-anchor="start" x="117" y="-117.5" font-family="Helvetica,sans-Serif" font-size="10.00">+</text>
<text text-anchor="start" x="139" y="-117.5" font-family="Helvetica,sans-Serif" font-size="10.00">Exception()</text>
<text text-anchor="start" x="117" y="-102.5" font-family="Helvetica,sans-Serif" font-size="10.00">+</text>
<text text-anchor="start" x="139" y="-102.5" font-family="Helvetica,sans-Serif" font-size="10.00">what()</text>
<polygon fill="#666666" stroke="#666666" points="104,-157.5 104,-157.5 217,-157.5 217,-157.5 104,-157.5"/>
<polygon fill="#666666" stroke="#666666" points="104,-127.5 104,-127.5 137,-127.5 137,-127.5 104,-127.5"/>
<polygon fill="#666666" stroke="#666666" points="137,-127.5 137,-127.5 217,-127.5 217,-127.5 137,-127.5"/>
<polygon fill="none" stroke="#666666" points="103.5,-96 103.5,-175 216.5,-175 216.5,-96 103.5,-96"/>
</a>
</g>
</g>
<!-- Node3 -->
<g id="Node000003" class="node">
<title>Node3</title>
<g id="a_Node000003"><a xlink:href="classRayTracer_1_1DivisionByZeroException.html" target="_top" xlink:title=" ">
<polygon fill="white" stroke="transparent" points="152,-60 0,-60 0,0 152,0 152,-60"/>
<text text-anchor="start" x="11" y="-48" font-family="Helvetica,sans-Serif" font-size="10.00">RayTracer::DivisionByZero</text>
<text text-anchor="start" x="51.5" y="-37" font-family="Helvetica,sans-Serif" font-size="10.00">Exception</text>
<text text-anchor="start" x="74" y="-22" font-family="Helvetica,sans-Serif" font-size="10.00"> </text>
<text text-anchor="start" x="4" y="-7" font-family="Helvetica,sans-Serif" font-size="10.00">+</text>
<text text-anchor="start" x="17" y="-7" font-family="Helvetica,sans-Serif" font-size="10.00">DivisionByZeroException()</text>
<polygon fill="#666666" stroke="#666666" points="0,-32 0,-32 152,-32 152,-32 0,-32"/>
<polygon fill="#666666" stroke="#666666" points="0,-17 0,-17 152,-17 152,-17 0,-17"/>
<polygon fill="none" stroke="#666666" points="0,0 0,-60 152,-60 152,0 0,0"/>
</a>
</g>
</g>
<!-- Node1&#45;&gt;Node3 -->
<g id="edge2_Node000001_Node000003" class="edge">
<title>Node1&#45;&gt;Node3</title>
<g id="a_edge2_Node000001_Node000003"><a xlink:title=" ">
<path fill="none" stroke="#63b8ff" d="M122.32,-88.08C114.62,-78.59 106.73,-68.86 99.69,-60.19"/>
<polygon fill="none" stroke="#63b8ff" points="119.7,-90.4 128.72,-95.96 125.14,-85.99 119.7,-90.4"/>
</a>
</g>
</g>
<!-- Node4 -->
<g id="Node000004" class="node">
<title>Node4</title>
<g id="a_Node000004"><a xlink:href="classRayTracer_1_1ParsingException.html" target="_top" xlink:title=" ">
<polygon fill="white" stroke="transparent" points="318,-54.5 170,-54.5 170,-5.5 318,-5.5 318,-54.5"/>
<text text-anchor="start" x="175" y="-42" font-family="Helvetica,sans-Serif" font-size="10.00">RayTracer::ParsingException</text>
<text text-anchor="start" x="242" y="-27" font-family="Helvetica,sans-Serif" font-size="10.00"> </text>
<text text-anchor="start" x="183" y="-12" font-family="Helvetica,sans-Serif" font-size="10.00">+</text>
<text text-anchor="start" x="205" y="-12" font-family="Helvetica,sans-Serif" font-size="10.00">ParsingException()</text>
<polygon fill="#666666" stroke="#666666" points="170,-37 170,-37 318,-37 318,-37 170,-37"/>
<polygon fill="#666666" stroke="#666666" points="170,-22 170,-22 318,-22 318,-22 170,-22"/>
<polygon fill="none" stroke="#666666" points="170,-5.5 170,-54.5 318,-54.5 318,-5.5 170,-5.5"/>
</a>
</g>
</g>
<!-- Node1&#45;&gt;Node4 -->
<g id="edge3_Node000001_Node000004" class="edge">
<title>Node1&#45;&gt;Node4</title>
<g id="a_edge3_Node000001_Node000004"><a xlink:title=" ">
<path fill="none" stroke="#63b8ff" d="M197.72,-88.02C207.13,-76.43 216.82,-64.48 224.9,-54.54"/>
<polygon fill="none" stroke="#63b8ff" points="194.86,-85.99 191.28,-95.96 200.3,-90.4 194.86,-85.99"/>
</a>
</g>
</g>
<!-- Node2 -->
<g id="Node000002" class="node">
<title>Node2</title>
<g id="a_Node000002"><a xlink:title=" ">
<polygon fill="white" stroke="transparent" points="200,-260 120,-260 120,-211 200,-211 200,-260"/>
<text text-anchor="start" x="125" y="-247.5" font-family="Helvetica,sans-Serif" font-size="10.00">std::exception</text>
<text text-anchor="start" x="158" y="-232.5" font-family="Helvetica,sans-Serif" font-size="10.00"> </text>
<text text-anchor="start" x="158" y="-217.5" font-family="Helvetica,sans-Serif" font-size="10.00"> </text>
<polygon fill="#666666" stroke="#666666" points="120,-242.5 120,-242.5 200,-242.5 200,-242.5 120,-242.5"/>
<polygon fill="#666666" stroke="#666666" points="120,-227.5 120,-227.5 200,-227.5 200,-227.5 120,-227.5"/>
<polygon fill="none" stroke="#666666" points="120,-211 120,-260 200,-260 200,-211 120,-211"/>
</a>
</g>
</g>
<!-- Node2&#45;&gt;Node1 -->
<g id="edge1_Node000001_Node000002" class="edge">
<title>Node2&#45;&gt;Node1</title>
<g id="a_edge1_Node000001_Node000002"><a xlink:title=" ">
<path fill="none" stroke="#63b8ff" d="M160,-200.52C160,-192.38 160,-183.63 160,-175.29"/>
<polygon fill="none" stroke="#63b8ff" points="156.5,-200.78 160,-210.78 163.5,-200.78 156.5,-200.78"/>
</a>
</g>
</g>
</g>
</svg>
