<?xml version="1.0" encoding="UTF-8" standalone="no"?>
<!DOCTYPE svg PUBLIC "-//W3C//DTD SVG 1.1//EN"
 "http://www.w3.org/Graphics/SVG/1.1/DTD/svg11.dtd">
<!-- Generated by graphviz version 2.43.0 (0)
 -->
<!-- Title: RayTracer::Cylinder::hit Pages: 1 -->
<svg width="462pt" height="449pt"
 viewBox="0.00 0.00 462.00 449.00" xmlns="http://www.w3.org/2000/svg" xmlns:xlink="http://www.w3.org/1999/xlink">
<g id="graph0" class="graph" transform="scale(1 1) rotate(0) translate(4 445)">
<title>RayTracer::Cylinder::hit</title>
<!-- Node1 -->
<g id="Node000001" class="node">
<title>Node1</title>
<g id="a_Node000001"><a xlink:title="Test ray–cylinder intersection using the quadratic form of the cylinder equation.">
<polygon fill="#999999" stroke="#666666" points="130,-240.5 0,-240.5 0,-221.5 130,-221.5 130,-240.5"/>
<text text-anchor="middle" x="65" y="-228.5" font-family="Helvetica,sans-Serif" font-size="10.00">RayTracer::Cylinder::hit</text>
</a>
</g>
</g>
<!-- Node2 -->
<g id="Node000002" class="node">
<title>Node2</title>
<g id="a_Node000002"><a xlink:href="structGeometry_1_1HitRecord.html#a158d2c230c1851a8f6bc0e79dc4b12b5" target="_top" xlink:title="Constructor.">
<polygon fill="white" stroke="#666666" points="294,-441 175,-441 175,-411 294,-411 294,-441"/>
<text text-anchor="start" x="183" y="-429" font-family="Helvetica,sans-Serif" font-size="10.00">Geometry::HitRecord</text>
<text text-anchor="middle" x="234.5" y="-418" font-family="Helvetica,sans-Serif" font-size="10.00">::HitRecord</text>
</a>
</g>
</g>
<!-- Node1&#45;&gt;Node2 -->
<g id="edge1_Node000001_Node000002" class="edge">
<title>Node1&#45;&gt;Node2</title>
<g id="a_edge1_Node000001_Node000002"><a xlink:title=" ">
<path fill="none" stroke="#63b8ff" d="M69,-240.7C78.42,-269.56 110.11,-355.72 166,-402 167.54,-403.28 169.16,-404.49 170.84,-405.64"/>
<polygon fill="#63b8ff" stroke="#63b8ff" points="169.25,-408.77 179.63,-410.89 172.83,-402.76 169.25,-408.77"/>
</a>
</g>
</g>
<!-- Node3 -->
<g id="Node000003" class="node">
<title>Node3</title>
<g id="a_Node000003"><a xlink:href="classGeometry_1_1Ray.html#ab2ee230ea6c5b866a94d7bfd57c98845" target="_top" xlink:title="Compute a point at parameter t along the ray.">
<polygon fill="white" stroke="#666666" points="286.5,-392.5 182.5,-392.5 182.5,-373.5 286.5,-373.5 286.5,-392.5"/>
<text text-anchor="middle" x="234.5" y="-380.5" font-family="Helvetica,sans-Serif" font-size="10.00">Geometry::Ray::at</text>
</a>
</g>
</g>
<!-- Node1&#45;&gt;Node3 -->
<g id="edge2_Node000001_Node000003" class="edge">
<title>Node1&#45;&gt;Node3</title>
<g id="a_edge2_Node000001_Node000003"><a xlink:title=" ">
<path fill="none" stroke="#63b8ff" d="M70.29,-240.5C81.91,-265.14 116.48,-331.48 166,-365 168.28,-366.54 170.68,-367.95 173.16,-369.24"/>
<polygon fill="#63b8ff" stroke="#63b8ff" points="171.92,-372.51 182.47,-373.4 174.77,-366.12 171.92,-372.51"/>
</a>
</g>
</g>
<!-- Node5 -->
<g id="Node000005" class="node">
<title>Node5</title>
<g id="a_Node000005"><a xlink:href="classGeometry_1_1Vector3D.html#affb9009fe58aafa334f1f5f703feceb3" target="_top" xlink:title=" ">
<polygon fill="white" stroke="#666666" points="303,-355.5 166,-355.5 166,-336.5 303,-336.5 303,-355.5"/>
<text text-anchor="middle" x="234.5" y="-343.5" font-family="Helvetica,sans-Serif" font-size="10.00">Geometry::Vector3D::dot</text>
</a>
</g>
</g>
<!-- Node1&#45;&gt;Node5 -->
<g id="edge4_Node000001_Node000005" class="edge">
<title>Node1&#45;&gt;Node5</title>
<g id="a_edge4_Node000001_Node000005"><a xlink:title=" ">
<path fill="none" stroke="#63b8ff" d="M73.39,-240.78C88.57,-260.19 125.27,-303.69 166,-327 169.91,-329.24 174.1,-331.22 178.41,-332.99"/>
<polygon fill="#63b8ff" stroke="#63b8ff" points="177.37,-336.33 187.96,-336.5 179.78,-329.76 177.37,-336.33"/>
</a>
</g>
</g>
<!-- Node6 -->
<g id="Node000006" class="node">
<title>Node6</title>
<g id="a_Node000006"><a xlink:href="classRayTracer_1_1APrimitive.html#acdc1a350e79537fa0b9c8588a170bdcf" target="_top" xlink:title="Get the material of this primitive.">
<polygon fill="white" stroke="#666666" points="295.5,-318 173.5,-318 173.5,-288 295.5,-288 295.5,-318"/>
<text text-anchor="start" x="181.5" y="-306" font-family="Helvetica,sans-Serif" font-size="10.00">RayTracer::APrimitive</text>
<text text-anchor="middle" x="234.5" y="-295" font-family="Helvetica,sans-Serif" font-size="10.00">::getMaterial</text>
</a>
</g>
</g>
<!-- Node1&#45;&gt;Node6 -->
<g id="edge5_Node000001_Node000006" class="edge">
<title>Node1&#45;&gt;Node6</title>
<g id="a_edge5_Node000001_Node000006"><a xlink:title=" ">
<path fill="none" stroke="#63b8ff" d="M84.53,-240.62C104.4,-250.77 137.02,-266.93 166,-279 170.36,-280.82 174.92,-282.62 179.51,-284.38"/>
<polygon fill="#63b8ff" stroke="#63b8ff" points="178.35,-287.69 188.95,-287.91 180.81,-281.13 178.35,-287.69"/>
</a>
</g>
</g>
<!-- Node7 -->
<g id="Node000007" class="node">
<title>Node7</title>
<g id="a_Node000007"><a xlink:href="classGeometry_1_1Vector3D.html#a388f7af8bf0095c817e89b5b2518fda7" target="_top" xlink:title=" ">
<polygon fill="white" stroke="#666666" points="292,-222 177,-222 177,-192 292,-192 292,-222"/>
<text text-anchor="start" x="185" y="-210" font-family="Helvetica,sans-Serif" font-size="10.00">Geometry::Vector3D</text>
<text text-anchor="middle" x="234.5" y="-199" font-family="Helvetica,sans-Serif" font-size="10.00">::normalize</text>
</a>
</g>
</g>
<!-- Node1&#45;&gt;Node7 -->
<g id="edge6_Node000001_Node000007" class="edge">
<title>Node1&#45;&gt;Node7</title>
<g id="a_edge6_Node000001_Node000007"><a xlink:title=" ">
<path fill="none" stroke="#63b8ff" d="M130.28,-221.79C142.25,-220.08 154.77,-218.28 166.81,-216.56"/>
<polygon fill="#63b8ff" stroke="#63b8ff" points="167.38,-220.01 176.78,-215.13 166.38,-213.08 167.38,-220.01"/>
</a>
</g>
</g>
<!-- Node10 -->
<g id="Node000010" class="node">
<title>Node10</title>
<g id="a_Node000010"><a xlink:href="classGeometry_1_1Vector3D.html#aa583eecc673b26ce6058e6dd00238a62" target="_top" xlink:title=" ">
<polygon fill="white" stroke="#666666" points="292,-174 177,-174 177,-144 292,-144 292,-174"/>
<text text-anchor="start" x="185" y="-162" font-family="Helvetica,sans-Serif" font-size="10.00">Geometry::Vector3D</text>
<text text-anchor="middle" x="234.5" y="-151" font-family="Helvetica,sans-Serif" font-size="10.00">::operator*</text>
</a>
</g>
</g>
<!-- Node1&#45;&gt;Node10 -->
<g id="edge9_Node000001_Node000010" class="edge">
<title>Node1&#45;&gt;Node10</title>
<g id="a_edge9_Node000001_Node000010"><a xlink:title=" ">
<path fill="none" stroke="#63b8ff" d="M84.53,-221.38C104.4,-211.23 137.02,-195.07 166,-183 170.36,-181.18 174.92,-179.38 179.51,-177.62"/>
<polygon fill="#63b8ff" stroke="#63b8ff" points="180.81,-180.87 188.95,-174.09 178.35,-174.31 180.81,-180.87"/>
</a>
</g>
</g>
<!-- Node11 -->
<g id="Node000011" class="node">
<title>Node11</title>
<g id="a_Node000011"><a xlink:href="classGeometry_1_1Point3D.html#a59644f9fa320bfc8f33e3761fd7577b0" target="_top" xlink:title=" ">
<polygon fill="white" stroke="#666666" points="292,-270 177,-270 177,-240 292,-240 292,-270"/>
<text text-anchor="start" x="185" y="-258" font-family="Helvetica,sans-Serif" font-size="10.00">Geometry::Point3D::</text>
<text text-anchor="middle" x="234.5" y="-247" font-family="Helvetica,sans-Serif" font-size="10.00">operator+</text>
</a>
</g>
</g>
<!-- Node1&#45;&gt;Node11 -->
<g id="edge11_Node000001_Node000011" class="edge">
<title>Node1&#45;&gt;Node11</title>
<g id="a_edge11_Node000001_Node000011"><a xlink:title=" ">
<path fill="none" stroke="#63b8ff" d="M130.28,-240.21C142.25,-241.92 154.77,-243.72 166.81,-245.44"/>
<polygon fill="#63b8ff" stroke="#63b8ff" points="166.38,-248.92 176.78,-246.87 167.38,-241.99 166.38,-248.92"/>
</a>
</g>
</g>
<!-- Node12 -->
<g id="Node000012" class="node">
<title>Node12</title>
<g id="a_Node000012"><a xlink:href="classGeometry_1_1Point3D.html#ae9af5cd5e04e5f0635d250cf80e4e78f" target="_top" xlink:title=" ">
<polygon fill="white" stroke="#666666" points="292,-126 177,-126 177,-96 292,-96 292,-126"/>
<text text-anchor="start" x="185" y="-114" font-family="Helvetica,sans-Serif" font-size="10.00">Geometry::Point3D::</text>
<text text-anchor="middle" x="234.5" y="-103" font-family="Helvetica,sans-Serif" font-size="10.00">operator&#45;</text>
</a>
</g>
</g>
<!-- Node1&#45;&gt;Node12 -->
<g id="edge13_Node000001_Node000012" class="edge">
<title>Node1&#45;&gt;Node12</title>
<g id="a_edge13_Node000001_Node000012"><a xlink:title=" ">
<path fill="none" stroke="#63b8ff" d="M73.53,-221.45C88.95,-202.45 126.07,-159.66 166,-135 168.61,-133.39 171.35,-131.86 174.17,-130.42"/>
<polygon fill="#63b8ff" stroke="#63b8ff" points="175.78,-133.53 183.35,-126.11 172.81,-127.19 175.78,-133.53"/>
</a>
</g>
</g>
<!-- Node13 -->
<g id="Node000013" class="node">
<title>Node13</title>
<g id="a_Node000013"><a xlink:href="classGeometry_1_1Vector3D.html#a12618c1c19f8fdd6ad13fa1c7c9147c0" target="_top" xlink:title=" ">
<polygon fill="white" stroke="#666666" points="292,-78 177,-78 177,-48 292,-48 292,-78"/>
<text text-anchor="start" x="185" y="-66" font-family="Helvetica,sans-Serif" font-size="10.00">Geometry::Vector3D</text>
<text text-anchor="middle" x="234.5" y="-55" font-family="Helvetica,sans-Serif" font-size="10.00">::operator&#45;</text>
</a>
</g>
</g>
<!-- Node1&#45;&gt;Node13 -->
<g id="edge15_Node000001_Node000013" class="edge">
<title>Node1&#45;&gt;Node13</title>
<g id="a_edge15_Node000001_Node000013"><a xlink:title=" ">
<path fill="none" stroke="#63b8ff" d="M70.09,-221.4C81.46,-195.8 115.95,-125.27 166,-87 167.81,-85.62 169.7,-84.31 171.66,-83.08"/>
<polygon fill="#63b8ff" stroke="#63b8ff" points="173.55,-86.03 180.59,-78.11 170.15,-79.91 173.55,-86.03"/>
</a>
</g>
</g>
<!-- Node14 -->
<g id="Node000014" class="node">
<title>Node14</title>
<g id="a_Node000014"><a xlink:href="classGeometry_1_1Vector3D.html#ac56b7f7705a5b7a2a4694d419b003162" target="_top" xlink:title=" ">
<polygon fill="white" stroke="#666666" points="292,-30 177,-30 177,0 292,0 292,-30"/>
<text text-anchor="start" x="185" y="-18" font-family="Helvetica,sans-Serif" font-size="10.00">Geometry::Vector3D</text>
<text text-anchor="middle" x="234.5" y="-7" font-family="Helvetica,sans-Serif" font-size="10.00">::operator/</text>
</a>
</g>
</g>
<!-- Node1&#45;&gt;Node14 -->
<g id="edge17_Node000001_Node000014" class="edge">
<title>Node1&#45;&gt;Node14</title>
<g id="a_edge17_Node000001_Node000014"><a xlink:title=" ">
<path fill="none" stroke="#63b8ff" d="M68.29,-221.46C76.21,-190.49 105.33,-91.8 166,-39 167.35,-37.82 168.77,-36.7 170.24,-35.63"/>
<polygon fill="#63b8ff" stroke="#63b8ff" points="172.49,-38.35 179.12,-30.09 168.78,-32.42 172.49,-38.35"/>
</a>
</g>
</g>
<!-- Node4 -->
<g id="Node000004" class="node">
<title>Node4</title>
<g id="a_Node000004"><a xlink:href="classGeometry_1_1Point3D.html#a6a08342f9542eb6d6ff7bcf2278a240d" target="_top" xlink:title=" ">
<polygon fill="white" stroke="#666666" points="454,-334 339,-334 339,-304 454,-304 454,-334"/>
<text text-anchor="start" x="347" y="-322" font-family="Helvetica,sans-Serif" font-size="10.00">Geometry::Point3D::</text>
<text text-anchor="middle" x="396.5" y="-311" font-family="Helvetica,sans-Serif" font-size="10.00">Point3D</text>
</a>
</g>
</g>
<!-- Node3&#45;&gt;Node4 -->
<g id="edge3_Node000003_Node000004" class="edge">
<title>Node3&#45;&gt;Node4</title>
<g id="a_edge3_Node000003_Node000004"><a xlink:title=" ">
<path fill="none" stroke="#63b8ff" d="M276.61,-373.45C285.42,-371.01 294.6,-368.17 303,-365 322.25,-357.73 342.83,-347.73 359.68,-338.92"/>
<polygon fill="#63b8ff" stroke="#63b8ff" points="361.43,-341.95 368.62,-334.17 358.15,-335.77 361.43,-341.95"/>
</a>
</g>
</g>
<!-- Node8 -->
<g id="Node000008" class="node">
<title>Node8</title>
<g id="a_Node000008"><a xlink:href="classGeometry_1_1Vector3D.html#ae4c5a52ebf282e334801c8ee28ad8d5d" target="_top" xlink:title=" ">
<polygon fill="white" stroke="#666666" points="454,-126 339,-126 339,-96 454,-96 454,-126"/>
<text text-anchor="start" x="347" y="-114" font-family="Helvetica,sans-Serif" font-size="10.00">Geometry::Vector3D</text>
<text text-anchor="middle" x="396.5" y="-103" font-family="Helvetica,sans-Serif" font-size="10.00">::Vector3D</text>
</a>
</g>
</g>
<!-- Node7&#45;&gt;Node8 -->
<g id="edge7_Node000007_Node000008" class="edge">
<title>Node7&#45;&gt;Node8</title>
<g id="a_edge7_Node000007_Node000008"><a xlink:title=" ">
<path fill="none" stroke="#63b8ff" d="M283.9,-191.93C290.47,-189.27 297,-186.29 303,-183 328.22,-169.17 353.79,-148.66 371.64,-133.07"/>
<polygon fill="#63b8ff" stroke="#63b8ff" points="374.11,-135.55 379.26,-126.29 369.46,-130.32 374.11,-135.55"/>
</a>
</g>
</g>
<!-- Node9 -->
<g id="Node000009" class="node">
<title>Node9</title>
<g id="a_Node000009"><a xlink:href="classGeometry_1_1Vector3D.html#a8966b188a3b6d27793b3896618fea42c" target="_top" xlink:title="Calculate the length (magnitude) of this vector.">
<polygon fill="white" stroke="#666666" points="454,-222 339,-222 339,-192 454,-192 454,-222"/>
<text text-anchor="start" x="347" y="-210" font-family="Helvetica,sans-Serif" font-size="10.00">Geometry::Vector3D</text>
<text text-anchor="middle" x="396.5" y="-199" font-family="Helvetica,sans-Serif" font-size="10.00">::length</text>
</a>
</g>
</g>
<!-- Node7&#45;&gt;Node9 -->
<g id="edge8_Node000007_Node000009" class="edge">
<title>Node7&#45;&gt;Node9</title>
<g id="a_edge8_Node000007_Node000009"><a xlink:title=" ">
<path fill="none" stroke="#63b8ff" d="M292.36,-207C304.15,-207 316.67,-207 328.78,-207"/>
<polygon fill="#63b8ff" stroke="#63b8ff" points="328.82,-210.5 338.82,-207 328.82,-203.5 328.82,-210.5"/>
</a>
</g>
</g>
<!-- Node10&#45;&gt;Node8 -->
<g id="edge10_Node000010_Node000008" class="edge">
<title>Node10&#45;&gt;Node8</title>
<g id="a_edge10_Node000010_Node000008"><a xlink:title=" ">
<path fill="none" stroke="#63b8ff" d="M285.69,-143.94C301.47,-139.21 319.07,-133.93 335.46,-129.01"/>
<polygon fill="#63b8ff" stroke="#63b8ff" points="336.92,-132.23 345.49,-126 334.91,-125.52 336.92,-132.23"/>
</a>
</g>
</g>
<!-- Node11&#45;&gt;Node4 -->
<g id="edge12_Node000011_Node000004" class="edge">
<title>Node11&#45;&gt;Node4</title>
<g id="a_edge12_Node000011_Node000004"><a xlink:title=" ">
<path fill="none" stroke="#63b8ff" d="M279.23,-270.07C287.17,-272.94 295.36,-275.99 303,-279 319.31,-285.42 337.03,-292.94 352.55,-299.72"/>
<polygon fill="#63b8ff" stroke="#63b8ff" points="351.33,-303.01 361.9,-303.83 354.15,-296.6 351.33,-303.01"/>
</a>
</g>
</g>
<!-- Node12&#45;&gt;Node8 -->
<g id="edge14_Node000012_Node000008" class="edge">
<title>Node12&#45;&gt;Node8</title>
<g id="a_edge14_Node000012_Node000008"><a xlink:title=" ">
<path fill="none" stroke="#63b8ff" d="M292.36,-111C304.15,-111 316.67,-111 328.78,-111"/>
<polygon fill="#63b8ff" stroke="#63b8ff" points="328.82,-114.5 338.82,-111 328.82,-107.5 328.82,-114.5"/>
</a>
</g>
</g>
<!-- Node13&#45;&gt;Node8 -->
<g id="edge16_Node000013_Node000008" class="edge">
<title>Node13&#45;&gt;Node8</title>
<g id="a_edge16_Node000013_Node000008"><a xlink:title=" ">
<path fill="none" stroke="#63b8ff" d="M285.69,-78.06C301.47,-82.79 319.07,-88.07 335.46,-92.99"/>
<polygon fill="#63b8ff" stroke="#63b8ff" points="334.91,-96.48 345.49,-96 336.92,-89.77 334.91,-96.48"/>
</a>
</g>
</g>
<!-- Node14&#45;&gt;Node8 -->
<g id="edge18_Node000014_Node000008" class="edge">
<title>Node14&#45;&gt;Node8</title>
<g id="a_edge18_Node000014_Node000008"><a xlink:title=" ">
<path fill="none" stroke="#63b8ff" d="M283.9,-30.07C290.47,-32.73 297,-35.71 303,-39 328.22,-52.83 353.79,-73.34 371.64,-88.93"/>
<polygon fill="#63b8ff" stroke="#63b8ff" points="369.46,-91.68 379.26,-95.71 374.11,-86.45 369.46,-91.68"/>
</a>
</g>
</g>
</g>
</svg>
