<?xml version="1.0" encoding="UTF-8" standalone="no"?>
<!DOCTYPE svg PUBLIC "-//W3C//DTD SVG 1.1//EN"
 "http://www.w3.org/Graphics/SVG/1.1/DTD/svg11.dtd">
<!-- Generated by graphviz version 2.43.0 (0)
 -->
<!-- Title: RayTracer::Camera::render Pages: 1 -->
<!--zoomable 772 -->

<svg id="main" version="1.1" xmlns="http://www.w3.org/2000/svg" xmlns:xlink="http://www.w3.org/1999/xlink" xml:space="preserve" onload="init(evt)">
<style type="text/css"><![CDATA[
.node, .edge {opacity: 0.7;}
.node.selected, .edge.selected {opacity: 1;}
.edge:hover path { stroke: red; }
.edge:hover polygon { stroke: red; fill: red; }
]]></style>

<defs>
  <circle id="rim" cx="0" cy="0" r="7"/>
  <circle id="rim2" cx="0" cy="0" r="3.5"/>
  <g id="zoomPlus">
    <use xlink:href="#rim" fill="#404040"><set attributeName="fill" to="#808080" begin="zoomplus.mouseover" end="zoomplus.mouseout"/></use>
    <path d="M-4,0h8M0,-4v8" fill="none" stroke="white" stroke-width="1.5" pointer-events="none"/>
  </g>
  <g id="zoomMin">
    <use xlink:href="#rim" fill="#404040"><set attributeName="fill" to="#808080" begin="zoomminus.mouseover" end="zoomminus.mouseout"/></use>
    <path d="M-4,0h8" fill="none" stroke="white" stroke-width="1.5" pointer-events="none"/>
  </g>
  <g id="arrowUp" transform="translate(30 24)">
    <use xlink:href="#rim"/>
    <path pointer-events="none" fill="none" stroke="white" stroke-width="1.5" d="M0,-3.0v7 M-2.5,-0.5L0,-3.0L2.5,-0.5"/>
  </g>
  <g id="arrowRight" transform="rotate(90) translate(36 -43)">
    <use xlink:href="#rim"/>
    <path pointer-events="none" fill="none" stroke="white" stroke-width="1.5" d="M0,-3.0v7 M-2.5,-0.5L0,-3.0L2.5,-0.5"/>
  </g>
  <g id="arrowDown" transform="rotate(180) translate(-30 -48)">
    <use xlink:href="#rim"/>
    <path pointer-events="none" fill="none" stroke="white" stroke-width="1.5" d="M0,-3.0v7 M-2.5,-0.5L0,-3.0L2.5,-0.5"/>
  </g>
  <g id="arrowLeft" transform="rotate(270) translate(-36 17)">
    <use xlink:href="#rim"/>
    <path pointer-events="none" fill="none" stroke="white" stroke-width="1.5" d="M0,-3.0v7 M-2.5,-0.5L0,-3.0L2.5,-0.5"/>
  </g>
  <g id="resetDef">
    <use xlink:href="#rim2" fill="#404040"><set attributeName="fill" to="#808080" begin="reset.mouseover" end="reset.mouseout"/></use>
  </g>
</defs>
<script type="application/ecmascript">
var viewWidth = 1050;
var viewHeight = 772;
var sectionId = 'dynsection-10';
</script>
<script type="application/ecmascript" xlink:href="svg.min.js"/>
<svg id="graph" class="graph">
<g id="viewport">
<title>RayTracer::Camera::render</title>
<!-- Node1 -->
<g id="Node000001" class="node">
<title>Node1</title>
<g id="a_Node000001"><a xlink:title="Render the scene into a 2D framebuffer.">
<polygon fill="#999999" stroke="#666666" points="115,-527 0,-527 0,-497 115,-497 115,-527"/>
<text text-anchor="start" x="8" y="-515" font-family="Helvetica,sans-Serif" font-size="10.00">RayTracer::Camera::</text>
<text text-anchor="middle" x="57.5" y="-504" font-family="Helvetica,sans-Serif" font-size="10.00">render</text>
</a>
</g>
</g>
<!-- Node2 -->
<g id="Node000002" class="node">
<title>Node2</title>
<g id="a_Node000002"><a xlink:href="structRayTracer_1_1Color.html#a01b4a4dad8204eed80f8d38d3d004e4d" target="_top" xlink:title=" ">
<polygon fill="white" stroke="#666666" points="679.5,-705.5 551.5,-705.5 551.5,-686.5 679.5,-686.5 679.5,-705.5"/>
<text text-anchor="middle" x="615.5" y="-693.5" font-family="Helvetica,sans-Serif" font-size="10.00">RayTracer::Color::Color</text>
</a>
</g>
</g>
<!-- Node1&#45;&gt;Node2 -->
<g id="edge1_Node000001_Node000002" class="edge">
<title>Node1&#45;&gt;Node2</title>
<g id="a_edge1_Node000001_Node000002"><a xlink:title=" ">
<path fill="none" stroke="#63b8ff" d="M63.08,-527.01C73.55,-559.02 102.2,-634.57 151,-678 215.31,-735.23 245.56,-735.23 330,-752 404.54,-766.8 426.99,-769.27 501,-752 534.7,-744.14 569.9,-724.75 591.99,-711"/>
<polygon fill="#63b8ff" stroke="#63b8ff" points="594.06,-713.83 600.61,-705.5 590.3,-707.93 594.06,-713.83"/>
</a>
</g>
</g>
<!-- Node3 -->
<g id="Node000003" class="node">
<title>Node3</title>
<g id="a_Node000003"><a xlink:href="classRayTracer_1_1Camera.html#a7cd2251f34b6dda51fe338512e598571" target="_top" xlink:title="Evaluate the rendering equation along a ray, deterministically.">
<polygon fill="white" stroke="#666666" points="280,-527 165,-527 165,-497 280,-497 280,-527"/>
<text text-anchor="start" x="173" y="-515" font-family="Helvetica,sans-Serif" font-size="10.00">RayTracer::Camera::</text>
<text text-anchor="middle" x="222.5" y="-504" font-family="Helvetica,sans-Serif" font-size="10.00">castRay</text>
</a>
</g>
</g>
<!-- Node1&#45;&gt;Node3 -->
<g id="edge2_Node000001_Node000003" class="edge">
<title>Node1&#45;&gt;Node3</title>
<g id="a_edge2_Node000001_Node000003"><a xlink:title=" ">
<path fill="none" stroke="#63b8ff" d="M115.05,-512C127.75,-512 141.34,-512 154.42,-512"/>
<polygon fill="#63b8ff" stroke="#63b8ff" points="154.77,-515.5 164.77,-512 154.77,-508.5 154.77,-515.5"/>
</a>
</g>
</g>
<!-- Node20 -->
<g id="Node000020" class="node">
<title>Node20</title>
<g id="a_Node000020"><a xlink:href="structRayTracer_1_1Color.html#aefc65f4c5ffc2e9bca0a35e4e55d68b8" target="_top" xlink:title=" ">
<polygon fill="white" stroke="#666666" points="490,-742.5 341,-742.5 341,-723.5 490,-723.5 490,-742.5"/>
<text text-anchor="middle" x="415.5" y="-730.5" font-family="Helvetica,sans-Serif" font-size="10.00">RayTracer::Color::operator*</text>
</a>
</g>
</g>
<!-- Node1&#45;&gt;Node20 -->
<g id="edge38_Node000001_Node000020" class="edge">
<title>Node1&#45;&gt;Node20</title>
<g id="a_edge38_Node000001_Node000020"><a xlink:title=" ">
<path fill="none" stroke="#63b8ff" d="M67.65,-527.02C82.62,-550.62 114.4,-596.68 151,-626 220.35,-681.54 246.11,-685.74 330,-715 336.38,-717.22 343.12,-719.22 349.91,-721.01"/>
<polygon fill="#63b8ff" stroke="#63b8ff" points="349.3,-724.46 359.85,-723.47 350.98,-717.67 349.3,-724.46"/>
</a>
</g>
</g>
<!-- Node21 -->
<g id="Node000021" class="node">
<title>Node21</title>
<g id="a_Node000021"><a xlink:href="structRayTracer_1_1Color.html#a327b4006c4abe3faf3491929b8ee1a7c" target="_top" xlink:title=" ">
<polygon fill="white" stroke="#666666" points="491.5,-705.5 339.5,-705.5 339.5,-686.5 491.5,-686.5 491.5,-705.5"/>
<text text-anchor="middle" x="415.5" y="-693.5" font-family="Helvetica,sans-Serif" font-size="10.00">RayTracer::Color::operator+</text>
</a>
</g>
</g>
<!-- Node1&#45;&gt;Node21 -->
<g id="edge39_Node000001_Node000021" class="edge">
<title>Node1&#45;&gt;Node21</title>
<g id="a_edge39_Node000001_Node000021"><a xlink:title=" ">
<path fill="none" stroke="#63b8ff" d="M80.46,-527.14C125.5,-557.64 232.34,-627.23 330,-670 341.76,-675.15 354.86,-679.71 367.16,-683.52"/>
<polygon fill="#63b8ff" stroke="#63b8ff" points="366.23,-686.89 376.81,-686.4 368.24,-680.19 366.23,-686.89"/>
</a>
</g>
</g>
<!-- Node22 -->
<g id="Node000022" class="node">
<title>Node22</title>
<g id="a_Node000022"><a xlink:href="structRayTracer_1_1Color.html#a26e65fe782b16c73dd0b01eff463890a" target="_top" xlink:title=" ">
<polygon fill="white" stroke="#666666" points="288.5,-177.5 156.5,-177.5 156.5,-158.5 288.5,-158.5 288.5,-177.5"/>
<text text-anchor="middle" x="222.5" y="-165.5" font-family="Helvetica,sans-Serif" font-size="10.00">RayTracer::Color::clamp</text>
</a>
</g>
</g>
<!-- Node1&#45;&gt;Node22 -->
<g id="edge27_Node000001_Node000022" class="edge">
<title>Node1&#45;&gt;Node22</title>
<g id="a_edge27_Node000001_Node000022"><a xlink:title=" ">
<path fill="none" stroke="#63b8ff" d="M57.95,-496.84C56.97,-445.39 60.98,-275.76 151,-187 152.46,-185.56 154.01,-184.24 155.64,-183"/>
<polygon fill="#63b8ff" stroke="#63b8ff" points="157.69,-185.85 164.36,-177.62 154.01,-179.89 157.69,-185.85"/>
</a>
</g>
</g>
<!-- Node23 -->
<g id="Node000023" class="node">
<title>Node23</title>
<g id="a_Node000023"><a xlink:href="classRayTracer_1_1Camera.html#a4a7f4b6a0e5bf44d17162fb324c289bd" target="_top" xlink:title="Build a world&#45;space ray from normalized screen coordinates.">
<polygon fill="white" stroke="#666666" points="280,-226 165,-226 165,-196 280,-196 280,-226"/>
<text text-anchor="start" x="173" y="-214" font-family="Helvetica,sans-Serif" font-size="10.00">RayTracer::Camera::</text>
<text text-anchor="middle" x="222.5" y="-203" font-family="Helvetica,sans-Serif" font-size="10.00">generateRay</text>
</a>
</g>
</g>
<!-- Node1&#45;&gt;Node23 -->
<g id="edge28_Node000001_Node000023" class="edge">
<title>Node1&#45;&gt;Node23</title>
<g id="a_edge28_Node000001_Node000023"><a xlink:title=" ">
<path fill="none" stroke="#63b8ff" d="M66.81,-496.66C93.29,-447.75 175.9,-295.2 208.29,-235.4"/>
<polygon fill="#63b8ff" stroke="#63b8ff" points="211.53,-236.77 213.21,-226.31 205.37,-233.44 211.53,-236.77"/>
</a>
</g>
</g>
<!-- Node29 -->
<g id="Node000029" class="node">
<title>Node29</title>
<g id="a_Node000029"><a xlink:href="classRayTracer_1_1Scene.html#a95fa63f62bcc5ebefabf3209eb5af01a" target="_top" xlink:title="Prepare the scene hit structure for the next render pass.">
<polygon fill="white" stroke="#666666" points="294,-76 151,-76 151,-46 294,-46 294,-76"/>
<text text-anchor="start" x="159" y="-64" font-family="Helvetica,sans-Serif" font-size="10.00">RayTracer::Scene::prepare</text>
<text text-anchor="middle" x="222.5" y="-53" font-family="Helvetica,sans-Serif" font-size="10.00">AccelerationStructure</text>
</a>
</g>
</g>
<!-- Node1&#45;&gt;Node29 -->
<g id="edge40_Node000001_Node000029" class="edge">
<title>Node1&#45;&gt;Node29</title>
<g id="a_edge40_Node000001_Node000029"><a xlink:title=" ">
<path fill="none" stroke="#63b8ff" d="M60.06,-496.68C65.77,-445.12 88.62,-274.14 151,-149 163.23,-124.46 183.19,-100.43 198.75,-83.69"/>
<polygon fill="#63b8ff" stroke="#63b8ff" points="201.62,-85.75 205.98,-76.1 196.55,-80.93 201.62,-85.75"/>
</a>
</g>
</g>
<!-- Node3&#45;&gt;Node2 -->
<g id="edge3_Node000003_Node000002" class="edge">
<title>Node3&#45;&gt;Node2</title>
<g id="a_edge3_Node000003_Node000002"><a xlink:title=" ">
<path fill="none" stroke="#63b8ff" d="M252.32,-527.19C266.3,-535.67 282.51,-547.3 294,-561 318.54,-590.25 300.03,-615.35 330,-639 338.67,-645.85 469.15,-670.09 550.36,-684.67"/>
<polygon fill="#63b8ff" stroke="#63b8ff" points="550.04,-688.16 560.5,-686.48 551.27,-681.27 550.04,-688.16"/>
</a>
</g>
</g>
<!-- Node4 -->
<g id="Node000004" class="node">
<title>Node4</title>
<g id="a_Node000004"><a xlink:href="classRayTracer_1_1ILight.html#ad73c94dce4fad84ce321082bee288ae1" target="_top" xlink:title="Compute this light&#39;s contribution to a surface. Handles both direct illumination and shadow testing i...">
<polygon fill="white" stroke="#666666" points="467.5,-555 363.5,-555 363.5,-525 467.5,-525 467.5,-555"/>
<text text-anchor="start" x="371.5" y="-543" font-family="Helvetica,sans-Serif" font-size="10.00">RayTracer::ILight::</text>
<text text-anchor="middle" x="415.5" y="-532" font-family="Helvetica,sans-Serif" font-size="10.00">computeLight</text>
</a>
</g>
</g>
<!-- Node3&#45;&gt;Node4 -->
<g id="edge4_Node000003_Node000004" class="edge">
<title>Node3&#45;&gt;Node4</title>
<g id="a_edge4_Node000003_Node000004"><a xlink:title=" ">
<path fill="none" stroke="#63b8ff" d="M280.03,-520.29C303.03,-523.66 329.66,-527.56 353.13,-531"/>
<polygon fill="#63b8ff" stroke="#63b8ff" points="352.92,-534.51 363.32,-532.5 353.94,-527.58 352.92,-534.51"/>
</a>
</g>
</g>
<!-- Node5 -->
<g id="Node000005" class="node">
<title>Node5</title>
<g id="a_Node000005"><a xlink:href="classRayTracer_1_1IMaterial.html#acd4b1bdc4f1ec9f555277b4b87199bb9" target="_top" xlink:title="Return the radiance emitted by this surface.">
<polygon fill="white" stroke="#666666" points="472.5,-507 358.5,-507 358.5,-477 472.5,-477 472.5,-507"/>
<text text-anchor="start" x="366.5" y="-495" font-family="Helvetica,sans-Serif" font-size="10.00">RayTracer::IMaterial</text>
<text text-anchor="middle" x="415.5" y="-484" font-family="Helvetica,sans-Serif" font-size="10.00">::emission</text>
</a>
</g>
</g>
<!-- Node3&#45;&gt;Node5 -->
<g id="edge5_Node000003_Node000005" class="edge">
<title>Node3&#45;&gt;Node5</title>
<g id="a_edge5_Node000003_Node000005"><a xlink:title=" ">
<path fill="none" stroke="#63b8ff" d="M280.03,-506.08C301.49,-503.83 326.13,-501.25 348.4,-498.92"/>
<polygon fill="#63b8ff" stroke="#63b8ff" points="348.86,-502.39 358.44,-497.87 348.13,-495.43 348.86,-502.39"/>
</a>
</g>
</g>
<!-- Node6 -->
<g id="Node000006" class="node">
<title>Node6</title>
<g id="a_Node000006"><a xlink:href="classRayTracer_1_1IMaterial.html#a98d43460913f09c692f84affec665226" target="_top" xlink:title="Evaluate the BRDF for a given pair of directions.">
<polygon fill="white" stroke="#666666" points="472.5,-459 358.5,-459 358.5,-429 472.5,-429 472.5,-459"/>
<text text-anchor="start" x="366.5" y="-447" font-family="Helvetica,sans-Serif" font-size="10.00">RayTracer::IMaterial</text>
<text text-anchor="middle" x="415.5" y="-436" font-family="Helvetica,sans-Serif" font-size="10.00">::evaluate</text>
</a>
</g>
</g>
<!-- Node3&#45;&gt;Node6 -->
<g id="edge6_Node000003_Node000006" class="edge">
<title>Node3&#45;&gt;Node6</title>
<g id="a_edge6_Node000003_Node000006"><a xlink:title=" ">
<path fill="none" stroke="#63b8ff" d="M257.17,-496.92C277.94,-487.92 305.24,-476.6 330,-468 335.96,-465.93 342.19,-463.91 348.46,-461.96"/>
<polygon fill="#63b8ff" stroke="#63b8ff" points="349.75,-465.23 358.31,-458.98 347.72,-458.53 349.75,-465.23"/>
</a>
</g>
</g>
<!-- Node7 -->
<g id="Node000007" class="node">
<title>Node7</title>
<g id="a_Node000007"><a xlink:href="classRayTracer_1_1Scene.html#a43b223d3c67aa2b66eb5eca01470f09d" target="_top" xlink:title="Get mutable reference to lights.">
<polygon fill="white" stroke="#666666" points="491,-410.5 340,-410.5 340,-391.5 491,-391.5 491,-410.5"/>
<text text-anchor="middle" x="415.5" y="-398.5" font-family="Helvetica,sans-Serif" font-size="10.00">RayTracer::Scene::getLights</text>
</a>
</g>
</g>
<!-- Node3&#45;&gt;Node7 -->
<g id="edge7_Node000003_Node000007" class="edge">
<title>Node3&#45;&gt;Node7</title>
<g id="a_edge7_Node000003_Node000007"><a xlink:title=" ">
<path fill="none" stroke="#63b8ff" d="M236.63,-496.68C255.25,-475.99 291.38,-439.46 330,-420 334.66,-417.65 339.62,-415.59 344.7,-413.78"/>
<polygon fill="#63b8ff" stroke="#63b8ff" points="346.13,-416.99 354.58,-410.6 343.99,-410.33 346.13,-416.99"/>
</a>
</g>
</g>
<!-- Node8 -->
<g id="Node000008" class="node">
<title>Node8</title>
<g id="a_Node000008"><a xlink:href="classRayTracer_1_1Scene.html#a8aa62e8397ea4837bb5a4c12aef5eb54" target="_top" xlink:title="Get mutable reference to primitives.">
<polygon fill="white" stroke="#666666" points="501,-373.5 330,-373.5 330,-354.5 501,-354.5 501,-373.5"/>
<text text-anchor="middle" x="415.5" y="-361.5" font-family="Helvetica,sans-Serif" font-size="10.00">RayTracer::Scene::getPrimitives</text>
</a>
</g>
</g>
<!-- Node3&#45;&gt;Node8 -->
<g id="edge8_Node000003_Node000008" class="edge">
<title>Node3&#45;&gt;Node8</title>
<g id="a_edge8_Node000003_Node000008"><a xlink:title=" ">
<path fill="none" stroke="#63b8ff" d="M231.47,-496.89C246.72,-469.55 282.74,-412.04 330,-383 333.43,-380.89 337.07,-379.01 340.84,-377.35"/>
<polygon fill="#63b8ff" stroke="#63b8ff" points="342.37,-380.51 350.42,-373.61 339.83,-373.98 342.37,-380.51"/>
</a>
</g>
</g>
<!-- Node9 -->
<g id="Node000009" class="node">
<title>Node9</title>
<g id="a_Node000009"><a xlink:href="classRayTracer_1_1Scene.html#a67328ab35346b609ab3b7220fa08098c" target="_top" xlink:title="Find the closest hit for a ray using the current acceleration state.">
<polygon fill="white" stroke="#666666" points="475,-592.5 356,-592.5 356,-573.5 475,-573.5 475,-592.5"/>
<text text-anchor="middle" x="415.5" y="-580.5" font-family="Helvetica,sans-Serif" font-size="10.00">RayTracer::Scene::hit</text>
</a>
</g>
</g>
<!-- Node3&#45;&gt;Node9 -->
<g id="edge9_Node000003_Node000009" class="edge">
<title>Node3&#45;&gt;Node9</title>
<g id="a_edge9_Node000003_Node000009"><a xlink:title=" ">
<path fill="none" stroke="#63b8ff" d="M249.89,-527.04C271,-538.53 301.66,-554.05 330,-564 337.38,-566.59 345.25,-568.92 353.11,-570.97"/>
<polygon fill="#63b8ff" stroke="#63b8ff" points="352.47,-574.42 363.02,-573.43 354.16,-567.63 352.47,-574.42"/>
</a>
</g>
</g>
<!-- Node15 -->
<g id="Node000015" class="node">
<title>Node15</title>
<g id="a_Node000015"><a xlink:href="classGeometry_1_1Vector3D.html#a388f7af8bf0095c817e89b5b2518fda7" target="_top" xlink:title=" ">
<polygon fill="white" stroke="#666666" points="473,-288 358,-288 358,-258 473,-258 473,-288"/>
<text text-anchor="start" x="366" y="-276" font-family="Helvetica,sans-Serif" font-size="10.00">Geometry::Vector3D</text>
<text text-anchor="middle" x="415.5" y="-265" font-family="Helvetica,sans-Serif" font-size="10.00">::normalize</text>
</a>
</g>
</g>
<!-- Node3&#45;&gt;Node15 -->
<g id="edge16_Node000003_Node000015" class="edge">
<title>Node3&#45;&gt;Node15</title>
<g id="a_edge16_Node000003_Node000015"><a xlink:title=" ">
<path fill="none" stroke="#63b8ff" d="M226.55,-496.88C235.27,-457.65 264.03,-351.87 330,-297 335.36,-292.54 341.49,-288.91 347.96,-285.96"/>
<polygon fill="#63b8ff" stroke="#63b8ff" points="349.64,-289.06 357.62,-282.09 347.03,-282.56 349.64,-289.06"/>
</a>
</g>
</g>
<!-- Node18 -->
<g id="Node000018" class="node">
<title>Node18</title>
<g id="a_Node000018"><a xlink:href="structRayTracer_1_1Color.html#a3a5645c19c0b60a67b3dfac325727248" target="_top" xlink:title=" ">
<polygon fill="white" stroke="#666666" points="490,-629.5 341,-629.5 341,-610.5 490,-610.5 490,-629.5"/>
<text text-anchor="middle" x="415.5" y="-617.5" font-family="Helvetica,sans-Serif" font-size="10.00">RayTracer::Color::operator*</text>
</a>
</g>
</g>
<!-- Node3&#45;&gt;Node18 -->
<g id="edge19_Node000003_Node000018" class="edge">
<title>Node3&#45;&gt;Node18</title>
<g id="a_edge19_Node000003_Node000018"><a xlink:title=" ">
<path fill="none" stroke="#63b8ff" d="M248.41,-527.18C262.42,-536.24 279.88,-548.39 294,-561 312.09,-577.15 309.08,-589.74 330,-602 333,-603.76 336.16,-605.35 339.41,-606.78"/>
<polygon fill="#63b8ff" stroke="#63b8ff" points="338.19,-610.07 348.78,-610.43 340.73,-603.54 338.19,-610.07"/>
</a>
</g>
</g>
<!-- Node19 -->
<g id="Node000019" class="node">
<title>Node19</title>
<g id="a_Node000019"><a xlink:href="classGeometry_1_1Vector3D.html#aa583eecc673b26ce6058e6dd00238a62" target="_top" xlink:title=" ">
<polygon fill="white" stroke="#666666" points="473,-336 358,-336 358,-306 473,-306 473,-336"/>
<text text-anchor="start" x="366" y="-324" font-family="Helvetica,sans-Serif" font-size="10.00">Geometry::Vector3D</text>
<text text-anchor="middle" x="415.5" y="-313" font-family="Helvetica,sans-Serif" font-size="10.00">::operator*</text>
</a>
</g>
</g>
<!-- Node3&#45;&gt;Node19 -->
<g id="edge21_Node000003_Node000019" class="edge">
<title>Node3&#45;&gt;Node19</title>
<g id="a_edge21_Node000003_Node000019"><a xlink:title=" ">
<path fill="none" stroke="#63b8ff" d="M229.07,-496.57C241.72,-463.75 275.78,-386.71 330,-346 335.51,-341.87 341.69,-338.41 348.14,-335.53"/>
<polygon fill="#63b8ff" stroke="#63b8ff" points="349.75,-338.65 357.74,-331.7 347.15,-332.15 349.75,-338.65"/>
</a>
</g>
</g>
<!-- Node3&#45;&gt;Node20 -->
<g id="edge23_Node000003_Node000020" class="edge">
<title>Node3&#45;&gt;Node20</title>
<g id="a_edge23_Node000003_Node000020"><a xlink:title=" ">
<path fill="none" stroke="#63b8ff" d="M226.76,-527.09C235.8,-565.19 264.99,-665.71 330,-715 331.66,-716.26 333.39,-717.43 335.17,-718.53"/>
<polygon fill="#63b8ff" stroke="#63b8ff" points="334.01,-721.87 344.49,-723.38 337.24,-715.66 334.01,-721.87"/>
</a>
</g>
</g>
<!-- Node3&#45;&gt;Node21 -->
<g id="edge25_Node000003_Node000021" class="edge">
<title>Node3&#45;&gt;Node21</title>
<g id="a_edge25_Node000003_Node000021"><a xlink:title=" ">
<path fill="none" stroke="#63b8ff" d="M253.73,-527.05C267.72,-535.36 283.52,-546.88 294,-561 324.91,-602.65 292.66,-636.01 330,-672 334.05,-675.9 338.68,-679.18 343.65,-681.93"/>
<polygon fill="#63b8ff" stroke="#63b8ff" points="342.37,-685.19 352.91,-686.33 345.38,-678.87 342.37,-685.19"/>
</a>
</g>
</g>
<!-- Node10 -->
<g id="Node000010" class="node">
<title>Node10</title>
<g id="a_Node000010"><a xlink:href="classRayTracer_1_1BVH.html#a5385dd9961d6eb9148833e83538b24f9" target="_top" xlink:title=" ">
<polygon fill="white" stroke="#666666" points="670.5,-592.5 560.5,-592.5 560.5,-573.5 670.5,-573.5 670.5,-592.5"/>
<text text-anchor="middle" x="615.5" y="-580.5" font-family="Helvetica,sans-Serif" font-size="10.00">RayTracer::BVH::hit</text>
</a>
</g>
</g>
<!-- Node9&#45;&gt;Node10 -->
<g id="edge10_Node000009_Node000010" class="edge">
<title>Node9&#45;&gt;Node10</title>
<g id="a_edge10_Node000009_Node000010"><a xlink:title=" ">
<path fill="none" stroke="#63b8ff" d="M475.1,-583C498.75,-583 526.11,-583 550.3,-583"/>
<polygon fill="#63b8ff" stroke="#63b8ff" points="550.45,-586.5 560.45,-583 550.45,-579.5 550.45,-586.5"/>
</a>
</g>
</g>
<!-- Node11 -->
<g id="Node000011" class="node">
<title>Node11</title>
<g id="a_Node000011"><a xlink:href="classRayTracer_1_1BVH.html#aa28c211e870f890ee8b318cb0356beb7" target="_top" xlink:title=" ">
<polygon fill="white" stroke="#666666" points="866,-592.5 730,-592.5 730,-573.5 866,-573.5 866,-592.5"/>
<text text-anchor="middle" x="798" y="-580.5" font-family="Helvetica,sans-Serif" font-size="10.00">RayTracer::BVH::hitNode</text>
</a>
</g>
</g>
<!-- Node10&#45;&gt;Node11 -->
<g id="edge11_Node000010_Node000011" class="edge">
<title>Node10&#45;&gt;Node11</title>
<g id="a_edge11_Node000010_Node000011"><a xlink:title=" ">
<path fill="none" stroke="#63b8ff" d="M670.66,-583C686.05,-583 703.12,-583 719.61,-583"/>
<polygon fill="#63b8ff" stroke="#63b8ff" points="719.77,-586.5 729.77,-583 719.77,-579.5 719.77,-586.5"/>
</a>
</g>
</g>
<!-- Node11&#45;&gt;Node11 -->
<g id="edge14_Node000011_Node000011" class="edge">
<title>Node11&#45;&gt;Node11</title>
<g id="a_edge14_Node000011_Node000011"><a xlink:title=" ">
<path fill="none" stroke="#63b8ff" d="M771.18,-592.58C758.13,-601.23 767.07,-610.5 798,-610.5 818.78,-610.5 829.63,-606.32 830.56,-600.95"/>
<polygon fill="#63b8ff" stroke="#63b8ff" points="833.36,-598.85 824.82,-592.58 827.59,-602.81 833.36,-598.85"/>
</a>
</g>
</g>
<!-- Node12 -->
<g id="Node000012" class="node">
<title>Node12</title>
<g id="a_Node000012"><a xlink:href="classRayTracer_1_1APrimitive.html#af00a66a6a6b8d251f5d21e1cc5077c6b" target="_top" xlink:title="Test ray intersection with this primitive.">
<polygon fill="white" stroke="#666666" points="1042,-629.5 902,-629.5 902,-610.5 1042,-610.5 1042,-629.5"/>
<text text-anchor="middle" x="972" y="-617.5" font-family="Helvetica,sans-Serif" font-size="10.00">RayTracer::APrimitive::hit</text>
</a>
</g>
</g>
<!-- Node11&#45;&gt;Node12 -->
<g id="edge12_Node000011_Node000012" class="edge">
<title>Node11&#45;&gt;Node12</title>
<g id="a_edge12_Node000011_Node000012"><a xlink:title=" ">
<path fill="none" stroke="#63b8ff" d="M843.29,-592.53C865.68,-597.34 893.03,-603.23 916.68,-608.31"/>
<polygon fill="#63b8ff" stroke="#63b8ff" points="916.04,-611.76 926.56,-610.44 917.52,-604.91 916.04,-611.76"/>
</a>
</g>
</g>
<!-- Node13 -->
<g id="Node000013" class="node">
<title>Node13</title>
<g id="a_Node000013"><a xlink:href="classGeometry_1_1AABB.html#a8c406537b6e233f459bf9c258f7ad911" target="_top" xlink:title=" ">
<polygon fill="white" stroke="#666666" points="1030,-592.5 914,-592.5 914,-573.5 1030,-573.5 1030,-592.5"/>
<text text-anchor="middle" x="972" y="-580.5" font-family="Helvetica,sans-Serif" font-size="10.00">Geometry::AABB::hit</text>
</a>
</g>
</g>
<!-- Node11&#45;&gt;Node13 -->
<g id="edge13_Node000011_Node000013" class="edge">
<title>Node11&#45;&gt;Node13</title>
<g id="a_edge13_Node000011_Node000013"><a xlink:title=" ">
<path fill="none" stroke="#63b8ff" d="M866.49,-583C878.76,-583 891.57,-583 903.84,-583"/>
<polygon fill="#63b8ff" stroke="#63b8ff" points="904,-586.5 914,-583 904,-579.5 904,-586.5"/>
</a>
</g>
</g>
<!-- Node14 -->
<g id="Node000014" class="node">
<title>Node14</title>
<g id="a_Node000014"><a xlink:href="structRayTracer_1_1BVH_1_1Node.html#adf1c12ea3158748487372080e28a8315" target="_top" xlink:title=" ">
<polygon fill="white" stroke="#666666" points="1033.5,-555 910.5,-555 910.5,-525 1033.5,-525 1033.5,-555"/>
<text text-anchor="start" x="918.5" y="-543" font-family="Helvetica,sans-Serif" font-size="10.00">RayTracer::BVH::Node</text>
<text text-anchor="middle" x="972" y="-532" font-family="Helvetica,sans-Serif" font-size="10.00">::isLeaf</text>
</a>
</g>
</g>
<!-- Node11&#45;&gt;Node14 -->
<g id="edge15_Node000011_Node000014" class="edge">
<title>Node11&#45;&gt;Node14</title>
<g id="a_edge15_Node000011_Node000014"><a xlink:title=" ">
<path fill="none" stroke="#63b8ff" d="M837.17,-573.46C855.97,-568.76 879.23,-562.94 901.07,-557.48"/>
<polygon fill="#63b8ff" stroke="#63b8ff" points="902.12,-560.83 910.97,-555.01 900.42,-554.04 902.12,-560.83"/>
</a>
</g>
</g>
<!-- Node16 -->
<g id="Node000016" class="node">
<title>Node16</title>
<g id="a_Node000016"><a xlink:href="classGeometry_1_1Vector3D.html#ae4c5a52ebf282e334801c8ee28ad8d5d" target="_top" xlink:title=" ">
<polygon fill="white" stroke="#666666" points="673,-266 558,-266 558,-236 673,-236 673,-266"/>
<text text-anchor="start" x="566" y="-254" font-family="Helvetica,sans-Serif" font-size="10.00">Geometry::Vector3D</text>
<text text-anchor="middle" x="615.5" y="-243" font-family="Helvetica,sans-Serif" font-size="10.00">::Vector3D</text>
</a>
</g>
</g>
<!-- Node15&#45;&gt;Node16 -->
<g id="edge17_Node000015_Node000016" class="edge">
<title>Node15&#45;&gt;Node16</title>
<g id="a_edge17_Node000015_Node000016"><a xlink:title=" ">
<path fill="none" stroke="#63b8ff" d="M473.24,-266.7C496.44,-264.12 523.45,-261.12 547.6,-258.43"/>
<polygon fill="#63b8ff" stroke="#63b8ff" points="548.2,-261.89 557.75,-257.31 547.43,-254.93 548.2,-261.89"/>
</a>
</g>
</g>
<!-- Node17 -->
<g id="Node000017" class="node">
<title>Node17</title>
<g id="a_Node000017"><a xlink:href="classGeometry_1_1Vector3D.html#a8966b188a3b6d27793b3896618fea42c" target="_top" xlink:title="Calculate the length (magnitude) of this vector.">
<polygon fill="white" stroke="#666666" points="673,-314 558,-314 558,-284 673,-284 673,-314"/>
<text text-anchor="start" x="566" y="-302" font-family="Helvetica,sans-Serif" font-size="10.00">Geometry::Vector3D</text>
<text text-anchor="middle" x="615.5" y="-291" font-family="Helvetica,sans-Serif" font-size="10.00">::length</text>
</a>
</g>
</g>
<!-- Node15&#45;&gt;Node17 -->
<g id="edge18_Node000015_Node000017" class="edge">
<title>Node15&#45;&gt;Node17</title>
<g id="a_edge18_Node000015_Node000017"><a xlink:title=" ">
<path fill="none" stroke="#63b8ff" d="M473.24,-280.45C496.44,-283.5 523.45,-287.04 547.6,-290.21"/>
<polygon fill="#63b8ff" stroke="#63b8ff" points="547.38,-293.72 557.75,-291.55 548.29,-286.78 547.38,-293.72"/>
</a>
</g>
</g>
<!-- Node18&#45;&gt;Node2 -->
<g id="edge20_Node000018_Node000002" class="edge">
<title>Node18&#45;&gt;Node2</title>
<g id="a_edge20_Node000018_Node000002"><a xlink:title=" ">
<path fill="none" stroke="#63b8ff" d="M454.75,-629.53C469.38,-633.52 486.12,-638.51 501,-644 531.07,-655.09 564.27,-670.71 586.96,-681.94"/>
<polygon fill="#63b8ff" stroke="#63b8ff" points="585.48,-685.12 595.99,-686.45 588.61,-678.85 585.48,-685.12"/>
</a>
</g>
</g>
<!-- Node19&#45;&gt;Node16 -->
<g id="edge22_Node000019_Node000016" class="edge">
<title>Node19&#45;&gt;Node16</title>
<g id="a_edge22_Node000019_Node000016"><a xlink:title=" ">
<path fill="none" stroke="#63b8ff" d="M473.16,-307.21C482.61,-304.26 492.2,-300.85 501,-297 518.18,-289.48 519.91,-282.72 537,-275 541.16,-273.12 545.5,-271.34 549.92,-269.65"/>
<polygon fill="#63b8ff" stroke="#63b8ff" points="551.46,-272.81 559.66,-266.11 549.07,-266.23 551.46,-272.81"/>
</a>
</g>
</g>
<!-- Node20&#45;&gt;Node2 -->
<g id="edge24_Node000020_Node000002" class="edge">
<title>Node20&#45;&gt;Node2</title>
<g id="a_edge24_Node000020_Node000002"><a xlink:title=" ">
<path fill="none" stroke="#63b8ff" d="M467.49,-723.47C493.72,-718.57 525.87,-712.56 553.42,-707.41"/>
<polygon fill="#63b8ff" stroke="#63b8ff" points="554.15,-710.84 563.34,-705.56 552.87,-703.96 554.15,-710.84"/>
</a>
</g>
</g>
<!-- Node21&#45;&gt;Node2 -->
<g id="edge26_Node000021_Node000002" class="edge">
<title>Node21&#45;&gt;Node2</title>
<g id="a_edge26_Node000021_Node000002"><a xlink:title=" ">
<path fill="none" stroke="#63b8ff" d="M491.64,-696C507.79,-696 524.85,-696 540.94,-696"/>
<polygon fill="#63b8ff" stroke="#63b8ff" points="541.36,-699.5 551.36,-696 541.36,-692.5 541.36,-699.5"/>
</a>
</g>
</g>
<!-- Node23&#45;&gt;Node15 -->
<g id="edge32_Node000023_Node000015" class="edge">
<title>Node23&#45;&gt;Node15</title>
<g id="a_edge32_Node000023_Node000015"><a xlink:title=" ">
<path fill="none" stroke="#63b8ff" d="M269.74,-226.01C296.4,-234.66 330.12,-245.61 358.31,-254.76"/>
<polygon fill="#63b8ff" stroke="#63b8ff" points="357.44,-258.16 368.03,-257.91 359.6,-251.5 357.44,-258.16"/>
</a>
</g>
</g>
<!-- Node23&#45;&gt;Node16 -->
<g id="edge31_Node000023_Node000016" class="edge">
<title>Node23&#45;&gt;Node16</title>
<g id="a_edge31_Node000023_Node000016"><a xlink:title=" ">
<path fill="none" stroke="#63b8ff" d="M280.35,-216.82C351.26,-224.07 472.28,-236.45 547.58,-244.15"/>
<polygon fill="#63b8ff" stroke="#63b8ff" points="547.59,-247.67 557.89,-245.21 548.3,-240.71 547.59,-247.67"/>
</a>
</g>
</g>
<!-- Node24 -->
<g id="Node000024" class="node">
<title>Node24</title>
<g id="a_Node000024"><a xlink:href="classGeometry_1_1Point3D.html#a6a08342f9542eb6d6ff7bcf2278a240d" target="_top" xlink:title=" ">
<polygon fill="white" stroke="#666666" points="673,-126 558,-126 558,-96 673,-96 673,-126"/>
<text text-anchor="start" x="566" y="-114" font-family="Helvetica,sans-Serif" font-size="10.00">Geometry::Point3D::</text>
<text text-anchor="middle" x="615.5" y="-103" font-family="Helvetica,sans-Serif" font-size="10.00">Point3D</text>
</a>
</g>
</g>
<!-- Node23&#45;&gt;Node24 -->
<g id="edge29_Node000023_Node000024" class="edge">
<title>Node23&#45;&gt;Node24</title>
<g id="a_edge29_Node000023_Node000024"><a xlink:title=" ">
<path fill="none" stroke="#63b8ff" d="M266.01,-195.97C275.24,-192.69 284.95,-189.24 294,-186 310.02,-180.27 313.65,-177.71 330,-173 340.51,-169.97 466.88,-142.69 547.62,-125.34"/>
<polygon fill="#63b8ff" stroke="#63b8ff" points="548.68,-128.7 557.72,-123.17 547.21,-121.85 548.68,-128.7"/>
</a>
</g>
</g>
<!-- Node25 -->
<g id="Node000025" class="node">
<title>Node25</title>
<g id="a_Node000025"><a xlink:href="classGeometry_1_1Ray.html#a009af874883eaeca399a3c5c144df2fc" target="_top" xlink:title="Constructor.">
<polygon fill="white" stroke="#666666" points="472,-201.5 359,-201.5 359,-182.5 472,-182.5 472,-201.5"/>
<text text-anchor="middle" x="415.5" y="-189.5" font-family="Helvetica,sans-Serif" font-size="10.00">Geometry::Ray::Ray</text>
</a>
</g>
</g>
<!-- Node23&#45;&gt;Node25 -->
<g id="edge30_Node000023_Node000025" class="edge">
<title>Node23&#45;&gt;Node25</title>
<g id="a_edge30_Node000023_Node000025"><a xlink:title=" ">
<path fill="none" stroke="#63b8ff" d="M280.03,-205.38C301.59,-203.23 326.35,-200.77 348.69,-198.55"/>
<polygon fill="#63b8ff" stroke="#63b8ff" points="349.17,-202.02 358.77,-197.54 348.48,-195.05 349.17,-202.02"/>
</a>
</g>
</g>
<!-- Node26 -->
<g id="Node000026" class="node">
<title>Node26</title>
<g id="a_Node000026"><a xlink:href="classGeometry_1_1TransformMatrix.html#a136a1573f63564d63426b89fcafeb21b" target="_top" xlink:title=" ">
<polygon fill="white" stroke="#666666" points="491,-78 340,-78 340,-48 491,-48 491,-78"/>
<text text-anchor="start" x="348" y="-66" font-family="Helvetica,sans-Serif" font-size="10.00">Geometry::TransformMatrix</text>
<text text-anchor="middle" x="415.5" y="-55" font-family="Helvetica,sans-Serif" font-size="10.00">::operator*</text>
</a>
</g>
</g>
<!-- Node23&#45;&gt;Node26 -->
<g id="edge33_Node000023_Node000026" class="edge">
<title>Node23&#45;&gt;Node26</title>
<g id="a_edge33_Node000023_Node000026"><a xlink:title=" ">
<path fill="none" stroke="#63b8ff" d="M280.12,-196.24C285.2,-193.4 289.94,-190.02 294,-186 327.24,-153.03 295.72,-118.89 330,-87 331.15,-85.93 332.35,-84.9 333.58,-83.93"/>
<polygon fill="#63b8ff" stroke="#63b8ff" points="335.89,-86.59 342.24,-78.1 331.99,-80.78 335.89,-86.59"/>
</a>
</g>
</g>
<!-- Node28 -->
<g id="Node000028" class="node">
<title>Node28</title>
<g id="a_Node000028"><a xlink:href="classGeometry_1_1Rectangle3D.html#a2b17f489ad6e57c131dc0e1c8ac2f1a0" target="_top" xlink:title="Get a point on the rectangle at normalized coordinates (u, v).">
<polygon fill="white" stroke="#666666" points="482,-126 349,-126 349,-96 482,-96 482,-126"/>
<text text-anchor="start" x="357" y="-114" font-family="Helvetica,sans-Serif" font-size="10.00">Geometry::Rectangle3D</text>
<text text-anchor="middle" x="415.5" y="-103" font-family="Helvetica,sans-Serif" font-size="10.00">::pointAt</text>
</a>
</g>
</g>
<!-- Node23&#45;&gt;Node28 -->
<g id="edge36_Node000023_Node000028" class="edge">
<title>Node23&#45;&gt;Node28</title>
<g id="a_edge36_Node000023_Node000028"><a xlink:title=" ">
<path fill="none" stroke="#63b8ff" d="M276.74,-195.86C282.83,-193.06 288.73,-189.79 294,-186 315.07,-170.84 308.85,-155.06 330,-140 335.14,-136.34 340.78,-133.11 346.64,-130.27"/>
<polygon fill="#63b8ff" stroke="#63b8ff" points="348.25,-133.38 355.96,-126.11 345.41,-126.98 348.25,-133.38"/>
</a>
</g>
</g>
<!-- Node26&#45;&gt;Node24 -->
<g id="edge34_Node000026_Node000024" class="edge">
<title>Node26&#45;&gt;Node24</title>
<g id="a_edge34_Node000026_Node000024"><a xlink:title=" ">
<path fill="none" stroke="#63b8ff" d="M478.61,-78.06C500.73,-83.42 525.73,-89.48 548.2,-94.93"/>
<polygon fill="#63b8ff" stroke="#63b8ff" points="547.45,-98.35 557.99,-97.3 549.1,-91.54 547.45,-98.35"/>
</a>
</g>
</g>
<!-- Node27 -->
<g id="Node000027" class="node">
<title>Node27</title>
<g id="a_Node000027"><a xlink:href="classGeometry_1_1Matrix.html#a55bca424225b20c0490c21b93faea578" target="_top" xlink:title="Mutable element access.">
<polygon fill="white" stroke="#666666" points="694,-72.5 537,-72.5 537,-53.5 694,-53.5 694,-72.5"/>
<text text-anchor="middle" x="615.5" y="-60.5" font-family="Helvetica,sans-Serif" font-size="10.00">Geometry::Matrix::operator()</text>
</a>
</g>
</g>
<!-- Node26&#45;&gt;Node27 -->
<g id="edge35_Node000026_Node000027" class="edge">
<title>Node26&#45;&gt;Node27</title>
<g id="a_edge35_Node000026_Node000027"><a xlink:title=" ">
<path fill="none" stroke="#63b8ff" d="M491.07,-63C502.6,-63 514.61,-63 526.4,-63"/>
<polygon fill="#63b8ff" stroke="#63b8ff" points="526.69,-66.5 536.69,-63 526.69,-59.5 526.69,-66.5"/>
</a>
</g>
</g>
<!-- Node28&#45;&gt;Node24 -->
<g id="edge37_Node000028_Node000024" class="edge">
<title>Node28&#45;&gt;Node24</title>
<g id="a_edge37_Node000028_Node000024"><a xlink:title=" ">
<path fill="none" stroke="#63b8ff" d="M482.16,-111C503.25,-111 526.62,-111 547.78,-111"/>
<polygon fill="#63b8ff" stroke="#63b8ff" points="547.98,-114.5 557.98,-111 547.98,-107.5 547.98,-114.5"/>
</a>
</g>
</g>
<!-- Node30 -->
<g id="Node000030" class="node">
<title>Node30</title>
<g id="a_Node000030"><a xlink:href="classRayTracer_1_1APrimitive.html#a6860e01f9fe7dba5d0a8301aba44efa0" target="_top" xlink:title="Get the primitive&#39;s axis&#45;aligned bounds, if any. Unbounded primitives may return std::nullopt.">
<polygon fill="white" stroke="#666666" points="476.5,-30 354.5,-30 354.5,0 476.5,0 476.5,-30"/>
<text text-anchor="start" x="362.5" y="-18" font-family="Helvetica,sans-Serif" font-size="10.00">RayTracer::APrimitive</text>
<text text-anchor="middle" x="415.5" y="-7" font-family="Helvetica,sans-Serif" font-size="10.00">::getBounds</text>
</a>
</g>
</g>
<!-- Node29&#45;&gt;Node30 -->
<g id="edge41_Node000029_Node000030" class="edge">
<title>Node29&#45;&gt;Node30</title>
<g id="a_edge41_Node000029_Node000030"><a xlink:title=" ">
<path fill="none" stroke="#63b8ff" d="M286.04,-45.94C304.76,-41.43 325.39,-36.46 344.55,-31.85"/>
<polygon fill="#63b8ff" stroke="#63b8ff" points="345.52,-35.21 354.42,-29.47 343.88,-28.41 345.52,-35.21"/>
</a>
</g>
</g>
</g>
</svg>

<g id="navigator" transform="translate(0 0)" fill="#404254">
  <rect fill="#f2f5e9" fill-opacity="0.5" stroke="#606060" stroke-width=".5" x="0" y="0" width="60" height="60"/>
  <use id="zoomplus" xlink:href="#zoomPlus" x="17" y="9" onmousedown="handleZoom(evt,'in')"/>
  <use id="zoomminus" xlink:href="#zoomMin" x="42" y="9" onmousedown="handleZoom(evt,'out')"/>
  <use id="reset" xlink:href="#resetDef" x="30" y="36" onmousedown="handleReset()"/>
   <use id="arrowup" xlink:href="#arrowUp" x="0" y="0" onmousedown="handlePan(0,-1)"/>
  <use id="arrowright" xlink:href="#arrowRight" x="0" y="0" onmousedown="handlePan(1,0)"/>
  <use id="arrowdown" xlink:href="#arrowDown" x="0" y="0" onmousedown="handlePan(0,1)"/>
  <use id="arrowleft" xlink:href="#arrowLeft" x="0" y="0" onmousedown="handlePan(-1,0)"/>
</g>
<svg viewBox="0 0 15 15" width="100%" height="30px" preserveAspectRatio="xMaxYMin meet">
 <g id="arrow_out" transform="scale(0.3 0.3)">
  <a xlink:href="classRayTracer_1_1Camera_a3735fca524537e8a0ce755bb77e9a71f_cgraph_org.svg" target="_base">
   <rect id="button" ry="5" rx="5" y="6" x="6" height="38" width="38"
        fill="#f2f5e9" fill-opacity="0.5" stroke="#606060" stroke-width="1.0"/>
   <path id="arrow"
     d="M 11.500037,31.436501 C 11.940474,20.09759 22.043105,11.32322 32.158766,21.979434 L 37.068811,17.246167 C 37.068811,17.246167 37.088388,32 37.088388,32 L 22.160133,31.978069 C 22.160133,31.978069 26.997745,27.140456 26.997745,27.140456 C 18.528582,18.264221 13.291696,25.230495 11.500037,31.436501 z"
     style="fill:#404040;"/>
  </a>
 </g>
</svg>

<style type='text/css'>
<![CDATA[
[data-mouse-over-selected='false'] { opacity: 0.7; }
[data-mouse-over-selected='true']  { opacity: 1.0; }
]]>
</style>
<script type="application/ecmascript"><![CDATA[
document.addEventListener('DOMContentLoaded', (event) => {
  highlightEdges();
  highlightAdjacentNodes();
});
]]></script>
</svg>
