<?xml version="1.0" encoding="UTF-8" standalone="no"?>
<!DOCTYPE svg PUBLIC "-//W3C//DTD SVG 1.1//EN"
 "http://www.w3.org/Graphics/SVG/1.1/DTD/svg11.dtd">
<!-- Generated by graphviz version 2.43.0 (0)
 -->
<!-- Title: RayTracer::APrimitive::APrimitive Pages: 1 -->
<svg width="297pt" height="124pt"
 viewBox="0.00 0.00 297.00 124.00" xmlns="http://www.w3.org/2000/svg" xmlns:xlink="http://www.w3.org/1999/xlink">
<g id="graph0" class="graph" transform="scale(1 1) rotate(0) translate(4 120)">
<title>RayTracer::APrimitive::APrimitive</title>
<!-- Node1 -->
<g id="Node000001" class="node">
<title>Node1</title>
<g id="a_Node000001"><a xlink:title="Constructor.">
<polygon fill="#999999" stroke="#666666" points="289,-73 167,-73 167,-43 289,-43 289,-73"/>
<text text-anchor="start" x="175" y="-61" font-family="Helvetica,sans-Serif" font-size="10.00">RayTracer::APrimitive</text>
<text text-anchor="middle" x="228" y="-50" font-family="Helvetica,sans-Serif" font-size="10.00">::APrimitive</text>
</a>
</g>
</g>
<!-- Node2 -->
<g id="Node000002" class="node">
<title>Node2</title>
<g id="a_Node000002"><a xlink:href="classRayTracer_1_1Cylinder.html#a42af0cea83f7e299521660a6d84e2a3c" target="_top" xlink:title=" ">
<polygon fill="white" stroke="#666666" points="121,-116 10,-116 10,-86 121,-86 121,-116"/>
<text text-anchor="start" x="18" y="-104" font-family="Helvetica,sans-Serif" font-size="10.00">RayTracer::Cylinder</text>
<text text-anchor="middle" x="65.5" y="-93" font-family="Helvetica,sans-Serif" font-size="10.00">::Cylinder</text>
</a>
</g>
</g>
<!-- Node1&#45;&gt;Node2 -->
<g id="edge1_Node000001_Node000002" class="edge">
<title>Node1&#45;&gt;Node2</title>
<g id="a_edge1_Node000001_Node000002"><a xlink:title=" ">
<path fill="none" stroke="#63b8ff" d="M160.91,-75.71C147.72,-79.24 134.01,-82.91 121.25,-86.33"/>
<polygon fill="#63b8ff" stroke="#63b8ff" points="162.11,-79.01 170.86,-73.04 160.3,-72.25 162.11,-79.01"/>
</a>
</g>
</g>
<!-- Node3 -->
<g id="Node000003" class="node">
<title>Node3</title>
<g id="a_Node000003"><a xlink:href="classRayTracer_1_1Plane.html#aad26406644051e626d8ef6d2e6391c18" target="_top" xlink:title=" ">
<polygon fill="white" stroke="#666666" points="131,-67.5 0,-67.5 0,-48.5 131,-48.5 131,-67.5"/>
<text text-anchor="middle" x="65.5" y="-55.5" font-family="Helvetica,sans-Serif" font-size="10.00">RayTracer::Plane::Plane</text>
</a>
</g>
</g>
<!-- Node1&#45;&gt;Node3 -->
<g id="edge2_Node000001_Node000003" class="edge">
<title>Node1&#45;&gt;Node3</title>
<g id="a_edge2_Node000001_Node000003"><a xlink:title=" ">
<path fill="none" stroke="#63b8ff" d="M156.55,-58C148.08,-58 139.47,-58 131.09,-58"/>
<polygon fill="#63b8ff" stroke="#63b8ff" points="156.78,-61.5 166.78,-58 156.78,-54.5 156.78,-61.5"/>
</a>
</g>
</g>
<!-- Node4 -->
<g id="Node000004" class="node">
<title>Node4</title>
<g id="a_Node000004"><a xlink:href="classRayTracer_1_1Sphere.html#aa89da13cd4b5a7ecaa87c23d4bda1385" target="_top" xlink:title=" ">
<polygon fill="white" stroke="#666666" points="120.5,-30 10.5,-30 10.5,0 120.5,0 120.5,-30"/>
<text text-anchor="start" x="18.5" y="-18" font-family="Helvetica,sans-Serif" font-size="10.00">RayTracer::Sphere::</text>
<text text-anchor="middle" x="65.5" y="-7" font-family="Helvetica,sans-Serif" font-size="10.00">Sphere</text>
</a>
</g>
</g>
<!-- Node1&#45;&gt;Node4 -->
<g id="edge3_Node000001_Node000004" class="edge">
<title>Node1&#45;&gt;Node4</title>
<g id="a_edge3_Node000001_Node000004"><a xlink:title=" ">
<path fill="none" stroke="#63b8ff" d="M161.19,-40.37C147.73,-36.76 133.71,-33.01 120.71,-29.52"/>
<polygon fill="#63b8ff" stroke="#63b8ff" points="160.3,-43.75 170.86,-42.96 162.11,-36.99 160.3,-43.75"/>
</a>
</g>
</g>
</g>
</svg>
