<?xml version="1.0" encoding="UTF-8" standalone="no"?>
<!DOCTYPE svg PUBLIC "-//W3C//DTD SVG 1.1//EN"
 "http://www.w3.org/Graphics/SVG/1.1/DTD/svg11.dtd">
<!-- Generated by graphviz version 2.43.0 (0)
 -->
<!-- Title: RayTracer::Scene Pages: 1 -->
<svg width="446pt" height="821pt"
 viewBox="0.00 0.00 446.00 821.00" xmlns="http://www.w3.org/2000/svg" xmlns:xlink="http://www.w3.org/1999/xlink">
<g id="graph0" class="graph" transform="scale(1 1) rotate(0) translate(4 817)">
<title>RayTracer::Scene</title>
<!-- Node1 -->
<g id="Node000001" class="node">
<title>Node1</title>
<g id="a_Node000001"><a xlink:title="Represents a scene containing a camera, primitives, and lights.">
<polygon fill="#999999" stroke="transparent" points="241,-154 147,-154 147,0 241,0 241,-154"/>
<text text-anchor="start" x="152" y="-142" font-family="Helvetica,sans-Serif" font-size="10.00">RayTracer::Scene</text>
<text text-anchor="start" x="153.5" y="-127" font-family="Helvetica,sans-Serif" font-size="10.00">&#45;</text>
<text text-anchor="start" x="164" y="-127" font-family="Helvetica,sans-Serif" font-size="10.00">_primitives</text>
<text text-anchor="start" x="153.5" y="-112" font-family="Helvetica,sans-Serif" font-size="10.00">&#45;</text>
<text text-anchor="start" x="164" y="-112" font-family="Helvetica,sans-Serif" font-size="10.00">_lights</text>
<text text-anchor="start" x="151" y="-97" font-family="Helvetica,sans-Serif" font-size="10.00">+</text>
<text text-anchor="start" x="164" y="-97" font-family="Helvetica,sans-Serif" font-size="10.00">Scene()</text>
<text text-anchor="start" x="151" y="-82" font-family="Helvetica,sans-Serif" font-size="10.00">+</text>
<text text-anchor="start" x="164" y="-82" font-family="Helvetica,sans-Serif" font-size="10.00">~Scene()</text>
<text text-anchor="start" x="151" y="-67" font-family="Helvetica,sans-Serif" font-size="10.00">+</text>
<text text-anchor="start" x="164" y="-67" font-family="Helvetica,sans-Serif" font-size="10.00">addPrimitive()</text>
<text text-anchor="start" x="151" y="-52" font-family="Helvetica,sans-Serif" font-size="10.00">+</text>
<text text-anchor="start" x="164" y="-52" font-family="Helvetica,sans-Serif" font-size="10.00">addLight()</text>
<text text-anchor="start" x="151" y="-37" font-family="Helvetica,sans-Serif" font-size="10.00">+</text>
<text text-anchor="start" x="164" y="-37" font-family="Helvetica,sans-Serif" font-size="10.00">getCamera()</text>
<text text-anchor="start" x="151" y="-22" font-family="Helvetica,sans-Serif" font-size="10.00">+</text>
<text text-anchor="start" x="164" y="-22" font-family="Helvetica,sans-Serif" font-size="10.00">getPrimitives()</text>
<text text-anchor="start" x="151" y="-7" font-family="Helvetica,sans-Serif" font-size="10.00">+</text>
<text text-anchor="start" x="164" y="-7" font-family="Helvetica,sans-Serif" font-size="10.00">getLights()</text>
<polygon fill="#666666" stroke="#666666" points="147,-137 147,-137 241,-137 241,-137 147,-137"/>
<polygon fill="#666666" stroke="#666666" points="147,-107 147,-107 162,-107 162,-107 147,-107"/>
<polygon fill="#666666" stroke="#666666" points="162,-107 162,-107 241,-107 241,-107 162,-107"/>
<polygon fill="none" stroke="#666666" points="147,0 147,-154 241,-154 241,0 147,0"/>
</a>
</g>
</g>
<!-- Node2 -->
<g id="Node000002" class="node">
<title>Node2</title>
<g id="a_Node000002"><a xlink:href="classRayTracer_1_1Camera.html" target="_top" xlink:title="Concrete renderer plugin that implements camera&#45;based ray casting.">
<polygon fill="white" stroke="transparent" points="249,-325 139,-325 139,-201 249,-201 249,-325"/>
<text text-anchor="start" x="147.5" y="-313" font-family="Helvetica,sans-Serif" font-size="10.00">RayTracer::Camera</text>
<text text-anchor="start" x="145.5" y="-298" font-family="Helvetica,sans-Serif" font-size="10.00">&#45;</text>
<text text-anchor="start" x="156" y="-298" font-family="Helvetica,sans-Serif" font-size="10.00">_fov</text>
<text text-anchor="start" x="143" y="-283" font-family="Helvetica,sans-Serif" font-size="10.00">+</text>
<text text-anchor="start" x="156" y="-283" font-family="Helvetica,sans-Serif" font-size="10.00">Camera()</text>
<text text-anchor="start" x="143" y="-268" font-family="Helvetica,sans-Serif" font-size="10.00">+</text>
<text text-anchor="start" x="156" y="-268" font-family="Helvetica,sans-Serif" font-size="10.00">~Camera()</text>
<text text-anchor="start" x="143" y="-253" font-family="Helvetica,sans-Serif" font-size="10.00">+</text>
<text text-anchor="start" x="156" y="-253" font-family="Helvetica,sans-Serif" font-size="10.00">generateRay()</text>
<text text-anchor="start" x="143" y="-238" font-family="Helvetica,sans-Serif" font-size="10.00">+</text>
<text text-anchor="start" x="156" y="-238" font-family="Helvetica,sans-Serif" font-size="10.00">render()</text>
<text text-anchor="start" x="145.5" y="-223" font-family="Helvetica,sans-Serif" font-size="10.00">&#45;</text>
<text text-anchor="start" x="156" y="-223" font-family="Helvetica,sans-Serif" font-size="10.00">castRay()</text>
<text text-anchor="start" x="145.5" y="-208" font-family="Helvetica,sans-Serif" font-size="10.00">&#45;</text>
<text text-anchor="start" x="156" y="-208" font-family="Helvetica,sans-Serif" font-size="10.00">computeShadow()</text>
<polygon fill="#666666" stroke="#666666" points="139,-308 139,-308 249,-308 249,-308 139,-308"/>
<polygon fill="#666666" stroke="#666666" points="139,-293 139,-293 154,-293 154,-293 139,-293"/>
<polygon fill="#666666" stroke="#666666" points="154,-293 154,-293 249,-293 249,-293 154,-293"/>
<polygon fill="none" stroke="#666666" points="139,-201 139,-325 249,-325 249,-201 139,-201"/>
</a>
</g>
</g>
<!-- Node2&#45;&gt;Node1 -->
<g id="edge1_Node000001_Node000002" class="edge">
<title>Node2&#45;&gt;Node1</title>
<g id="a_edge1_Node000001_Node000002"><a xlink:title=" ">
<path fill="none" stroke="#63b8ff" d="M194,-200.99C194,-189.88 194,-178.1 194,-166.39"/>
<polygon fill="none" stroke="#63b8ff" points="194,-166.25 190,-160.25 194,-154.25 198,-160.25 194,-166.25"/>
</a>
</g>
<text text-anchor="middle" x="218.5" y="-175" font-family="Helvetica,sans-Serif" font-size="10.00" fill="grey"> &#45;_camera</text>
</g>
<!-- Node3 -->
<g id="Node000003" class="node">
<title>Node3</title>
<g id="a_Node000003"><a xlink:href="classRayTracer_1_1ARenderer.html" target="_top" xlink:title="Abstract base class for all renderers. Defines the interface for rendering a scene and producing a fr...">
<polygon fill="white" stroke="transparent" points="116,-496 0,-496 0,-372 116,-372 116,-496"/>
<text text-anchor="start" x="5" y="-484" font-family="Helvetica,sans-Serif" font-size="10.00">RayTracer::ARenderer</text>
<text text-anchor="start" x="11" y="-469" font-family="Helvetica,sans-Serif" font-size="10.00">#</text>
<text text-anchor="start" x="31" y="-469" font-family="Helvetica,sans-Serif" font-size="10.00">_width</text>
<text text-anchor="start" x="11" y="-454" font-family="Helvetica,sans-Serif" font-size="10.00">#</text>
<text text-anchor="start" x="31" y="-454" font-family="Helvetica,sans-Serif" font-size="10.00">_height</text>
<text text-anchor="start" x="11" y="-439" font-family="Helvetica,sans-Serif" font-size="10.00">+</text>
<text text-anchor="start" x="31" y="-439" font-family="Helvetica,sans-Serif" font-size="10.00">ARenderer()</text>
<text text-anchor="start" x="11" y="-424" font-family="Helvetica,sans-Serif" font-size="10.00">+</text>
<text text-anchor="start" x="31" y="-424" font-family="Helvetica,sans-Serif" font-size="10.00">~ARenderer()</text>
<text text-anchor="start" x="11" y="-409" font-family="Helvetica,sans-Serif" font-size="10.00">+</text>
<text text-anchor="start" x="31" y="-409" font-family="Helvetica,sans-Serif" font-size="10.00">render()</text>
<text text-anchor="start" x="11" y="-394" font-family="Helvetica,sans-Serif" font-size="10.00">+</text>
<text text-anchor="start" x="31" y="-394" font-family="Helvetica,sans-Serif" font-size="10.00">getWidth()</text>
<text text-anchor="start" x="11" y="-379" font-family="Helvetica,sans-Serif" font-size="10.00">+</text>
<text text-anchor="start" x="31" y="-379" font-family="Helvetica,sans-Serif" font-size="10.00">getHeight()</text>
<polygon fill="#666666" stroke="#666666" points="0,-479 0,-479 116,-479 116,-479 0,-479"/>
<polygon fill="#666666" stroke="#666666" points="0,-449 0,-449 29,-449 29,-449 0,-449"/>
<polygon fill="#666666" stroke="#666666" points="29,-449 29,-449 116,-449 116,-449 29,-449"/>
<polygon fill="none" stroke="#666666" points="0,-372 0,-496 116,-496 116,-372 0,-372"/>
</a>
</g>
</g>
<!-- Node3&#45;&gt;Node2 -->
<g id="edge2_Node000002_Node000003" class="edge">
<title>Node3&#45;&gt;Node2</title>
<g id="a_edge2_Node000002_Node000003"><a xlink:title=" ">
<path fill="none" stroke="#63b8ff" d="M113.49,-364.05C123.84,-351.19 134.59,-337.82 144.74,-325.21"/>
<polygon fill="none" stroke="#63b8ff" points="110.64,-362 107.1,-371.99 116.1,-366.39 110.64,-362"/>
</a>
</g>
</g>
<!-- Node4 -->
<g id="Node000004" class="node">
<title>Node4</title>
<g id="a_Node000004"><a xlink:href="classGeometry_1_1Point3D.html" target="_top" xlink:title="Represents a 3D point in space.">
<polygon fill="white" stroke="transparent" points="244.5,-768 141.5,-768 141.5,-599 244.5,-599 244.5,-768"/>
<text text-anchor="start" x="147" y="-755.5" font-family="Helvetica,sans-Serif" font-size="10.00">Geometry::Point3D</text>
<text text-anchor="start" x="150" y="-740.5" font-family="Helvetica,sans-Serif" font-size="10.00">+</text>
<text text-anchor="start" x="167" y="-740.5" font-family="Helvetica,sans-Serif" font-size="10.00">x</text>
<text text-anchor="start" x="150" y="-725.5" font-family="Helvetica,sans-Serif" font-size="10.00">+</text>
<text text-anchor="start" x="167" y="-725.5" font-family="Helvetica,sans-Serif" font-size="10.00">y</text>
<text text-anchor="start" x="150" y="-710.5" font-family="Helvetica,sans-Serif" font-size="10.00">+</text>
<text text-anchor="start" x="167" y="-710.5" font-family="Helvetica,sans-Serif" font-size="10.00">z</text>
<text text-anchor="start" x="150" y="-695.5" font-family="Helvetica,sans-Serif" font-size="10.00">+</text>
<text text-anchor="start" x="167" y="-695.5" font-family="Helvetica,sans-Serif" font-size="10.00">Point3D()</text>
<text text-anchor="start" x="150" y="-680.5" font-family="Helvetica,sans-Serif" font-size="10.00">+</text>
<text text-anchor="start" x="167" y="-680.5" font-family="Helvetica,sans-Serif" font-size="10.00">Point3D()</text>
<text text-anchor="start" x="150" y="-665.5" font-family="Helvetica,sans-Serif" font-size="10.00">+</text>
<text text-anchor="start" x="167" y="-665.5" font-family="Helvetica,sans-Serif" font-size="10.00">~Point3D()</text>
<text text-anchor="start" x="150" y="-650.5" font-family="Helvetica,sans-Serif" font-size="10.00">+</text>
<text text-anchor="start" x="167" y="-650.5" font-family="Helvetica,sans-Serif" font-size="10.00">operator+()</text>
<text text-anchor="start" x="150" y="-635.5" font-family="Helvetica,sans-Serif" font-size="10.00">+</text>
<text text-anchor="start" x="167" y="-635.5" font-family="Helvetica,sans-Serif" font-size="10.00">operator&#45;()</text>
<text text-anchor="start" x="150" y="-620.5" font-family="Helvetica,sans-Serif" font-size="10.00">+</text>
<text text-anchor="start" x="167" y="-620.5" font-family="Helvetica,sans-Serif" font-size="10.00">operator+=()</text>
<text text-anchor="start" x="150" y="-605.5" font-family="Helvetica,sans-Serif" font-size="10.00">+</text>
<text text-anchor="start" x="167" y="-605.5" font-family="Helvetica,sans-Serif" font-size="10.00">operator&#45;()</text>
<polygon fill="#666666" stroke="#666666" points="142,-750.5 142,-750.5 245,-750.5 245,-750.5 142,-750.5"/>
<polygon fill="#666666" stroke="#666666" points="142,-705.5 142,-705.5 165,-705.5 165,-705.5 142,-705.5"/>
<polygon fill="#666666" stroke="#666666" points="165,-705.5 165,-705.5 245,-705.5 245,-705.5 165,-705.5"/>
<polygon fill="none" stroke="#666666" points="141.5,-599 141.5,-768 244.5,-768 244.5,-599 141.5,-599"/>
</a>
</g>
</g>
<!-- Node4&#45;&gt;Node2 -->
<g id="edge3_Node000002_Node000004" class="edge">
<title>Node4&#45;&gt;Node2</title>
<g id="a_edge3_Node000002_Node000004"><a xlink:title=" ">
<path fill="none" stroke="#63b8ff" d="M173.04,-598.89C160.84,-536.24 149.57,-448.51 161,-372 162.71,-360.56 165.38,-348.65 168.49,-337.11"/>
<polygon fill="none" stroke="#63b8ff" points="168.58,-336.78 166.37,-329.92 171.85,-325.24 174.06,-332.1 168.58,-336.78"/>
</a>
</g>
<text text-anchor="middle" x="187" y="-431.5" font-family="Helvetica,sans-Serif" font-size="10.00" fill="grey"> &#45;_position</text>
</g>
<!-- Node6 -->
<g id="Node000006" class="node">
<title>Node6</title>
<g id="a_Node000006"><a xlink:href="classGeometry_1_1Rectangle3D.html" target="_top" xlink:title="Represents a planar rectangular surface in 3D space. Defined by an origin and two edge vectors (width...">
<polygon fill="white" stroke="transparent" points="349.5,-466 222.5,-466 222.5,-402 349.5,-402 349.5,-466"/>
<text text-anchor="start" x="228" y="-454" font-family="Helvetica,sans-Serif" font-size="10.00">Geometry::Rectangle3D</text>
<text text-anchor="start" x="284.5" y="-439" font-family="Helvetica,sans-Serif" font-size="10.00"> </text>
<text text-anchor="start" x="236" y="-424" font-family="Helvetica,sans-Serif" font-size="10.00">+</text>
<text text-anchor="start" x="258" y="-424" font-family="Helvetica,sans-Serif" font-size="10.00">Rectangle3D()</text>
<text text-anchor="start" x="236" y="-409" font-family="Helvetica,sans-Serif" font-size="10.00">+</text>
<text text-anchor="start" x="258" y="-409" font-family="Helvetica,sans-Serif" font-size="10.00">pointAt()</text>
<polygon fill="#666666" stroke="#666666" points="223,-449 223,-449 350,-449 350,-449 223,-449"/>
<polygon fill="#666666" stroke="#666666" points="223,-434 223,-434 350,-434 350,-434 223,-434"/>
<polygon fill="none" stroke="#666666" points="222.5,-402 222.5,-466 349.5,-466 349.5,-402 222.5,-402"/>
</a>
</g>
</g>
<!-- Node4&#45;&gt;Node6 -->
<g id="edge6_Node000006_Node000004" class="edge">
<title>Node4&#45;&gt;Node6</title>
<g id="a_edge6_Node000006_Node000004"><a xlink:title=" ">
<path fill="none" stroke="#63b8ff" d="M224.49,-598.71C239.79,-557.99 257.51,-510.81 270,-477.59"/>
<polygon fill="none" stroke="#63b8ff" points="270.12,-477.25 268.49,-470.23 274.35,-466.02 275.98,-473.04 270.12,-477.25"/>
</a>
</g>
<text text-anchor="middle" x="276" y="-522.5" font-family="Helvetica,sans-Serif" font-size="10.00" fill="grey"> +origin</text>
</g>
<!-- Node5 -->
<g id="Node000005" class="node">
<title>Node5</title>
<g id="a_Node000005"><a xlink:href="classGeometry_1_1Vector3D.html" target="_top" xlink:title="Represents a 3D vector for directions or displacements.">
<polygon fill="white" stroke="transparent" points="391.5,-813 282.5,-813 282.5,-554 391.5,-554 391.5,-813"/>
<text text-anchor="start" x="288" y="-800.5" font-family="Helvetica,sans-Serif" font-size="10.00">Geometry::Vector3D</text>
<text text-anchor="start" x="292.5" y="-785.5" font-family="Helvetica,sans-Serif" font-size="10.00">+</text>
<text text-anchor="start" x="311" y="-785.5" font-family="Helvetica,sans-Serif" font-size="10.00">x</text>
<text text-anchor="start" x="292.5" y="-770.5" font-family="Helvetica,sans-Serif" font-size="10.00">+</text>
<text text-anchor="start" x="311" y="-770.5" font-family="Helvetica,sans-Serif" font-size="10.00">y</text>
<text text-anchor="start" x="292.5" y="-755.5" font-family="Helvetica,sans-Serif" font-size="10.00">+</text>
<text text-anchor="start" x="311" y="-755.5" font-family="Helvetica,sans-Serif" font-size="10.00">z</text>
<text text-anchor="start" x="292.5" y="-740.5" font-family="Helvetica,sans-Serif" font-size="10.00">+</text>
<text text-anchor="start" x="311" y="-740.5" font-family="Helvetica,sans-Serif" font-size="10.00">Vector3D()</text>
<text text-anchor="start" x="292.5" y="-725.5" font-family="Helvetica,sans-Serif" font-size="10.00">+</text>
<text text-anchor="start" x="311" y="-725.5" font-family="Helvetica,sans-Serif" font-size="10.00">Vector3D()</text>
<text text-anchor="start" x="292.5" y="-710.5" font-family="Helvetica,sans-Serif" font-size="10.00">+</text>
<text text-anchor="start" x="311" y="-710.5" font-family="Helvetica,sans-Serif" font-size="10.00">~Vector3D()</text>
<text text-anchor="start" x="292.5" y="-695.5" font-family="Helvetica,sans-Serif" font-size="10.00">+</text>
<text text-anchor="start" x="311" y="-695.5" font-family="Helvetica,sans-Serif" font-size="10.00">length()</text>
<text text-anchor="start" x="292.5" y="-680.5" font-family="Helvetica,sans-Serif" font-size="10.00">+</text>
<text text-anchor="start" x="311" y="-680.5" font-family="Helvetica,sans-Serif" font-size="10.00">length()</text>
<text text-anchor="start" x="292.5" y="-665.5" font-family="Helvetica,sans-Serif" font-size="10.00">+</text>
<text text-anchor="start" x="311" y="-665.5" font-family="Helvetica,sans-Serif" font-size="10.00">dot()</text>
<text text-anchor="start" x="292.5" y="-650.5" font-family="Helvetica,sans-Serif" font-size="10.00">+</text>
<text text-anchor="start" x="311" y="-650.5" font-family="Helvetica,sans-Serif" font-size="10.00">normalize()</text>
<text text-anchor="start" x="292.5" y="-635.5" font-family="Helvetica,sans-Serif" font-size="10.00">+</text>
<text text-anchor="start" x="311" y="-635.5" font-family="Helvetica,sans-Serif" font-size="10.00">operator+()</text>
<text text-anchor="start" x="292.5" y="-620.5" font-family="Helvetica,sans-Serif" font-size="10.00">+</text>
<text text-anchor="start" x="311" y="-620.5" font-family="Helvetica,sans-Serif" font-size="10.00">operator+=()</text>
<text text-anchor="start" x="292.5" y="-605.5" font-family="Helvetica,sans-Serif" font-size="10.00">+</text>
<text text-anchor="start" x="311" y="-605.5" font-family="Helvetica,sans-Serif" font-size="10.00">operator&#45;()</text>
<text text-anchor="start" x="311" y="-590.5" font-family="Helvetica,sans-Serif" font-size="10.00">and 9 more...</text>
<text text-anchor="start" x="292.5" y="-575.5" font-family="Helvetica,sans-Serif" font-size="10.00">+</text>
<text text-anchor="start" x="311" y="-575.5" font-family="Helvetica,sans-Serif" font-size="10.00">dot()</text>
<text text-anchor="start" x="292.5" y="-560.5" font-family="Helvetica,sans-Serif" font-size="10.00">+</text>
<text text-anchor="start" x="311" y="-560.5" font-family="Helvetica,sans-Serif" font-size="10.00">cross()</text>
<polygon fill="#666666" stroke="#666666" points="283,-795.5 283,-795.5 392,-795.5 392,-795.5 283,-795.5"/>
<polygon fill="#666666" stroke="#666666" points="283,-750.5 283,-750.5 309,-750.5 309,-750.5 283,-750.5"/>
<polygon fill="#666666" stroke="#666666" points="309,-750.5 309,-750.5 392,-750.5 392,-750.5 309,-750.5"/>
<polygon fill="none" stroke="#666666" points="282.5,-554 282.5,-813 391.5,-813 391.5,-554 282.5,-554"/>
</a>
</g>
</g>
<!-- Node5&#45;&gt;Node2 -->
<g id="edge4_Node000002_Node000005" class="edge">
<title>Node5&#45;&gt;Node2</title>
<g id="a_edge4_Node000002_Node000005"><a xlink:title=" ">
<path fill="none" stroke="#63b8ff" d="M376.5,-553.82C387.11,-495.18 388.62,-426.79 359,-372 338.05,-333.24 296.47,-306.16 260.29,-288.81"/>
<polygon fill="none" stroke="#63b8ff" points="260.16,-288.75 253.04,-289.88 249.26,-283.73 256.39,-282.61 260.16,-288.75"/>
</a>
</g>
<text text-anchor="middle" x="410.5" y="-431.5" font-family="Helvetica,sans-Serif" font-size="10.00" fill="grey"> &#45;_direction</text>
</g>
<!-- Node5&#45;&gt;Node6 -->
<g id="edge7_Node000006_Node000005" class="edge">
<title>Node5&#45;&gt;Node6</title>
<g id="a_edge7_Node000006_Node000005"><a xlink:title=" ">
<path fill="none" stroke="#63b8ff" d="M310.45,-553.68C304.83,-526.38 299.27,-499.41 294.88,-478.1"/>
<polygon fill="none" stroke="#63b8ff" points="294.86,-478 289.73,-472.93 292.44,-466.25 297.57,-471.32 294.86,-478"/>
</a>
</g>
<text text-anchor="middle" x="327.5" y="-528" font-family="Helvetica,sans-Serif" font-size="10.00" fill="grey"> +height</text>
<text text-anchor="middle" x="327.5" y="-517" font-family="Helvetica,sans-Serif" font-size="10.00" fill="grey">+width</text>
</g>
<!-- Node6&#45;&gt;Node2 -->
<g id="edge5_Node000002_Node000006" class="edge">
<title>Node6&#45;&gt;Node2</title>
<g id="a_edge5_Node000002_Node000006"><a xlink:title=" ">
<path fill="none" stroke="#63b8ff" d="M268.91,-401.61C258.86,-383.15 245.72,-359 233.25,-336.1"/>
<polygon fill="none" stroke="#63b8ff" points="233.13,-335.88 226.75,-332.52 227.39,-325.34 233.77,-328.7 233.13,-335.88"/>
</a>
</g>
<text text-anchor="middle" x="265.5" y="-346" font-family="Helvetica,sans-Serif" font-size="10.00" fill="grey"> &#45;_screen</text>
</g>
</g>
</svg>
