<?xml version="1.0" encoding="UTF-8" standalone="no"?>
<!DOCTYPE svg PUBLIC "-//W3C//DTD SVG 1.1//EN"
 "http://www.w3.org/Graphics/SVG/1.1/DTD/svg11.dtd">
<!-- Generated by graphviz version 2.43.0 (0)
 -->
<!-- Title: Geometry::Point3D::operator= Pages: 1 -->
<svg width="457pt" height="86pt"
 viewBox="0.00 0.00 457.00 86.00" xmlns="http://www.w3.org/2000/svg" xmlns:xlink="http://www.w3.org/1999/xlink">
<g id="graph0" class="graph" transform="scale(1 1) rotate(0) translate(4 82)">
<title>Geometry::Point3D::operator=</title>
<!-- Node1 -->
<g id="Node000001" class="node">
<title>Node1</title>
<g id="a_Node000001"><a xlink:title=" ">
<polygon fill="#999999" stroke="#666666" points="449,-54 334,-54 334,-24 449,-24 449,-54"/>
<text text-anchor="start" x="342" y="-42" font-family="Helvetica,sans-Serif" font-size="10.00">Geometry::Point3D::</text>
<text text-anchor="middle" x="391.5" y="-31" font-family="Helvetica,sans-Serif" font-size="10.00">operator=</text>
</a>
</g>
</g>
<!-- Node2 -->
<g id="Node000002" class="node">
<title>Node2</title>
<g id="a_Node000002"><a xlink:href="classRayTracer_1_1Camera.html#a27ae8f34a8cb15a3ffd5e23498d894cb" target="_top" xlink:title="Rebuild the _screen rectangle from the current _transform and _fov.">
<polygon fill="white" stroke="#666666" points="298,-54 151,-54 151,-24 298,-24 298,-54"/>
<text text-anchor="start" x="159" y="-42" font-family="Helvetica,sans-Serif" font-size="10.00">RayTracer::Camera::</text>
<text text-anchor="middle" x="224.5" y="-31" font-family="Helvetica,sans-Serif" font-size="10.00">buildScreenFromTransform</text>
</a>
</g>
</g>
<!-- Node1&#45;&gt;Node2 -->
<g id="edge1_Node000001_Node000002" class="edge">
<title>Node1&#45;&gt;Node2</title>
<g id="a_edge1_Node000001_Node000002"><a xlink:title=" ">
<path fill="none" stroke="#63b8ff" d="M323.61,-39C315.22,-39 306.6,-39 298.12,-39"/>
<polygon fill="#63b8ff" stroke="#63b8ff" points="323.72,-42.5 333.72,-39 323.72,-35.5 323.72,-42.5"/>
</a>
</g>
</g>
<!-- Node3 -->
<g id="Node000003" class="node">
<title>Node3</title>
<g id="a_Node000003"><a xlink:href="classRayTracer_1_1Camera.html#aa88a1643d3067605407808bf3a5c14d4" target="_top" xlink:title="Construct a camera renderer.">
<polygon fill="white" stroke="#666666" points="115,-78 0,-78 0,-48 115,-48 115,-78"/>
<text text-anchor="start" x="8" y="-66" font-family="Helvetica,sans-Serif" font-size="10.00">RayTracer::Camera::</text>
<text text-anchor="middle" x="57.5" y="-55" font-family="Helvetica,sans-Serif" font-size="10.00">Camera</text>
</a>
</g>
</g>
<!-- Node2&#45;&gt;Node3 -->
<g id="edge2_Node000002_Node000003" class="edge">
<title>Node2&#45;&gt;Node3</title>
<g id="a_edge2_Node000002_Node000003"><a xlink:title=" ">
<path fill="none" stroke="#63b8ff" d="M140.55,-51.06C131.94,-52.32 123.33,-53.57 115.1,-54.77"/>
<polygon fill="#63b8ff" stroke="#63b8ff" points="141.26,-54.5 150.65,-49.6 140.25,-47.57 141.26,-54.5"/>
</a>
</g>
</g>
<!-- Node4 -->
<g id="Node000004" class="node">
<title>Node4</title>
<g id="a_Node000004"><a xlink:href="classRayTracer_1_1Camera.html#a502f05c3a82d9627f26300d71569ffad" target="_top" xlink:title="Construct a camera from a 4x4 affine transform matrix.">
<polygon fill="white" stroke="#666666" points="115,-30 0,-30 0,0 115,0 115,-30"/>
<text text-anchor="start" x="8" y="-18" font-family="Helvetica,sans-Serif" font-size="10.00">RayTracer::Camera::</text>
<text text-anchor="middle" x="57.5" y="-7" font-family="Helvetica,sans-Serif" font-size="10.00">Camera</text>
</a>
</g>
</g>
<!-- Node2&#45;&gt;Node4 -->
<g id="edge3_Node000002_Node000004" class="edge">
<title>Node2&#45;&gt;Node4</title>
<g id="a_edge3_Node000002_Node000004"><a xlink:title=" ">
<path fill="none" stroke="#63b8ff" d="M140.55,-26.94C131.94,-25.68 123.33,-24.43 115.1,-23.23"/>
<polygon fill="#63b8ff" stroke="#63b8ff" points="140.25,-30.43 150.65,-28.4 141.26,-23.5 140.25,-30.43"/>
</a>
</g>
</g>
</g>
</svg>
