<?xml version="1.0" encoding="UTF-8" standalone="no"?>
<!DOCTYPE svg PUBLIC "-//W3C//DTD SVG 1.1//EN"
 "http://www.w3.org/Graphics/SVG/1.1/DTD/svg11.dtd">
<!-- Generated by graphviz version 2.43.0 (0)
 -->
<!-- Title: RayTracer::APrimitive Pages: 1 -->
<svg width="447pt" height="307pt"
 viewBox="0.00 0.00 446.50 307.00" xmlns="http://www.w3.org/2000/svg" xmlns:xlink="http://www.w3.org/1999/xlink">

<svg id="main" version="1.1" xmlns="http://www.w3.org/2000/svg" xmlns:xlink="http://www.w3.org/1999/xlink" xml:space="preserve" onload="init(evt)">
<style type="text/css"><![CDATA[
.node, .edge {opacity: 0.7;}
.node.selected, .edge.selected {opacity: 1;}
.edge:hover path { stroke: red; }
.edge:hover polygon { stroke: red; fill: red; }
]]></style>
<script type="application/ecmascript" xlink:href="svg.min.js"/>
<svg id="graph" class="graph">
<g id="graph0" class="graph" transform="scale(1 1) rotate(0) translate(4 303)">
<title>RayTracer::APrimitive</title>
<!-- Node1 -->
<g id="Node000001" class="node">
<title>Node1</title>
<g id="a_Node000001"><a xlink:title="Abstract base class for all primitives (renderable objects). Primitives have geometry and a material.">
<polygon fill="#999999" stroke="transparent" points="275.5,-299 159.5,-299 159.5,-190 275.5,-190 275.5,-299"/>
<text text-anchor="start" x="164.5" y="-286.5" font-family="Helvetica,sans-Serif" font-size="10.00">RayTracer::APrimitive</text>
<text text-anchor="start" x="173" y="-271.5" font-family="Helvetica,sans-Serif" font-size="10.00">&#45;</text>
<text text-anchor="start" x="190.5" y="-271.5" font-family="Helvetica,sans-Serif" font-size="10.00">_material</text>
<text text-anchor="start" x="170.5" y="-256.5" font-family="Helvetica,sans-Serif" font-size="10.00">+</text>
<text text-anchor="start" x="190.5" y="-256.5" font-family="Helvetica,sans-Serif" font-size="10.00">APrimitive()</text>
<text text-anchor="start" x="170.5" y="-241.5" font-family="Helvetica,sans-Serif" font-size="10.00">+</text>
<text text-anchor="start" x="190.5" y="-241.5" font-family="Helvetica,sans-Serif" font-size="10.00">~APrimitive()</text>
<text text-anchor="start" x="170.5" y="-226.5" font-family="Helvetica,sans-Serif" font-size="10.00">+</text>
<text text-anchor="start" x="190.5" y="-226.5" font-family="Helvetica,sans-Serif" font-size="10.00">hit()</text>
<text text-anchor="start" x="170.5" y="-211.5" font-family="Helvetica,sans-Serif" font-size="10.00">+</text>
<text text-anchor="start" x="190.5" y="-211.5" font-family="Helvetica,sans-Serif" font-size="10.00">getBounds()</text>
<text text-anchor="start" x="170.5" y="-196.5" font-family="Helvetica,sans-Serif" font-size="10.00">+</text>
<text text-anchor="start" x="190.5" y="-196.5" font-family="Helvetica,sans-Serif" font-size="10.00">getMaterial()</text>
<polygon fill="#666666" stroke="#666666" points="159.5,-281.5 159.5,-281.5 275.5,-281.5 275.5,-281.5 159.5,-281.5"/>
<polygon fill="#666666" stroke="#666666" points="159.5,-266.5 159.5,-266.5 188.5,-266.5 188.5,-266.5 159.5,-266.5"/>
<polygon fill="#666666" stroke="#666666" points="188.5,-266.5 188.5,-266.5 275.5,-266.5 275.5,-266.5 188.5,-266.5"/>
<polygon fill="none" stroke="#666666" points="159.5,-190 159.5,-299 275.5,-299 275.5,-190 159.5,-190"/>
</a>
</g>
</g>
<!-- Node2 -->
<g id="Node000002" class="node">
<title>Node2</title>
<g id="a_Node000002"><a xlink:href="classRayTracer_1_1Cone.html" target="_top" xlink:title=" ">
<polygon fill="white" stroke="transparent" points="89,-154 0,-154 0,0 89,0 89,-154"/>
<text text-anchor="start" x="5.5" y="-142" font-family="Helvetica,sans-Serif" font-size="10.00">RayTracer::Cone</text>
<text text-anchor="start" x="9" y="-127" font-family="Helvetica,sans-Serif" font-size="10.00">&#45;</text>
<text text-anchor="start" x="21.5" y="-127" font-family="Helvetica,sans-Serif" font-size="10.00">_apex</text>
<text text-anchor="start" x="9" y="-112" font-family="Helvetica,sans-Serif" font-size="10.00">&#45;</text>
<text text-anchor="start" x="21.5" y="-112" font-family="Helvetica,sans-Serif" font-size="10.00">_axis</text>
<text text-anchor="start" x="9" y="-97" font-family="Helvetica,sans-Serif" font-size="10.00">&#45;</text>
<text text-anchor="start" x="21.5" y="-97" font-family="Helvetica,sans-Serif" font-size="10.00">_radius</text>
<text text-anchor="start" x="9" y="-82" font-family="Helvetica,sans-Serif" font-size="10.00">&#45;</text>
<text text-anchor="start" x="21.5" y="-82" font-family="Helvetica,sans-Serif" font-size="10.00">_height</text>
<text text-anchor="start" x="6.5" y="-67" font-family="Helvetica,sans-Serif" font-size="10.00">+</text>
<text text-anchor="start" x="21.5" y="-67" font-family="Helvetica,sans-Serif" font-size="10.00">Cone()</text>
<text text-anchor="start" x="6.5" y="-52" font-family="Helvetica,sans-Serif" font-size="10.00">+</text>
<text text-anchor="start" x="21.5" y="-52" font-family="Helvetica,sans-Serif" font-size="10.00">Cone()</text>
<text text-anchor="start" x="6.5" y="-37" font-family="Helvetica,sans-Serif" font-size="10.00">+</text>
<text text-anchor="start" x="21.5" y="-37" font-family="Helvetica,sans-Serif" font-size="10.00">~Cone()</text>
<text text-anchor="start" x="6.5" y="-22" font-family="Helvetica,sans-Serif" font-size="10.00">+</text>
<text text-anchor="start" x="21.5" y="-22" font-family="Helvetica,sans-Serif" font-size="10.00">hit()</text>
<text text-anchor="start" x="6.5" y="-7" font-family="Helvetica,sans-Serif" font-size="10.00">+</text>
<text text-anchor="start" x="21.5" y="-7" font-family="Helvetica,sans-Serif" font-size="10.00">getBounds()</text>
<polygon fill="#666666" stroke="#666666" points="0.5,-137 0.5,-137 89.5,-137 89.5,-137 0.5,-137"/>
<polygon fill="#666666" stroke="#666666" points="0.5,-77 0.5,-77 19.5,-77 19.5,-77 0.5,-77"/>
<polygon fill="#666666" stroke="#666666" points="19.5,-77 19.5,-77 89.5,-77 89.5,-77 19.5,-77"/>
<polygon fill="none" stroke="#666666" points="0,0 0,-154 89,-154 89,0 0,0"/>
</a>
</g>
</g>
<!-- Node1&#45;&gt;Node2 -->
<g id="edge1_Node000001_Node000002" class="edge">
<title>Node1&#45;&gt;Node2</title>
<g id="a_edge1_Node000001_Node000002"><a xlink:title=" ">
<path fill="none" stroke="#63b8ff" d="M151.13,-199.89C132.76,-186.3 113.49,-170.51 97.5,-154 94.7,-151.11 91.95,-148.06 89.25,-144.91"/>
<polygon fill="none" stroke="#63b8ff" points="149.35,-202.92 159.49,-205.97 153.47,-197.26 149.35,-202.92"/>
</a>
</g>
</g>
<!-- Node3 -->
<g id="Node000003" class="node">
<title>Node3</title>
<g id="a_Node000003"><a xlink:href="classRayTracer_1_1Cylinder.html" target="_top" xlink:title=" ">
<polygon fill="white" stroke="transparent" points="212,-154 107,-154 107,0 212,0 212,-154"/>
<text text-anchor="start" x="112.5" y="-142" font-family="Helvetica,sans-Serif" font-size="10.00">RayTracer::Cylinder</text>
<text text-anchor="start" x="120" y="-127" font-family="Helvetica,sans-Serif" font-size="10.00">&#45;</text>
<text text-anchor="start" x="136.5" y="-127" font-family="Helvetica,sans-Serif" font-size="10.00">_origin</text>
<text text-anchor="start" x="120" y="-112" font-family="Helvetica,sans-Serif" font-size="10.00">&#45;</text>
<text text-anchor="start" x="136.5" y="-112" font-family="Helvetica,sans-Serif" font-size="10.00">_axis</text>
<text text-anchor="start" x="120" y="-97" font-family="Helvetica,sans-Serif" font-size="10.00">&#45;</text>
<text text-anchor="start" x="136.5" y="-97" font-family="Helvetica,sans-Serif" font-size="10.00">_radius</text>
<text text-anchor="start" x="120" y="-82" font-family="Helvetica,sans-Serif" font-size="10.00">&#45;</text>
<text text-anchor="start" x="136.5" y="-82" font-family="Helvetica,sans-Serif" font-size="10.00">_height</text>
<text text-anchor="start" x="117.5" y="-67" font-family="Helvetica,sans-Serif" font-size="10.00">+</text>
<text text-anchor="start" x="136.5" y="-67" font-family="Helvetica,sans-Serif" font-size="10.00">Cylinder()</text>
<text text-anchor="start" x="117.5" y="-52" font-family="Helvetica,sans-Serif" font-size="10.00">+</text>
<text text-anchor="start" x="136.5" y="-52" font-family="Helvetica,sans-Serif" font-size="10.00">Cylinder()</text>
<text text-anchor="start" x="117.5" y="-37" font-family="Helvetica,sans-Serif" font-size="10.00">+</text>
<text text-anchor="start" x="136.5" y="-37" font-family="Helvetica,sans-Serif" font-size="10.00">~Cylinder()</text>
<text text-anchor="start" x="117.5" y="-22" font-family="Helvetica,sans-Serif" font-size="10.00">+</text>
<text text-anchor="start" x="136.5" y="-22" font-family="Helvetica,sans-Serif" font-size="10.00">hit()</text>
<text text-anchor="start" x="117.5" y="-7" font-family="Helvetica,sans-Serif" font-size="10.00">+</text>
<text text-anchor="start" x="136.5" y="-7" font-family="Helvetica,sans-Serif" font-size="10.00">getBounds()</text>
<polygon fill="#666666" stroke="#666666" points="107.5,-137 107.5,-137 212.5,-137 212.5,-137 107.5,-137"/>
<polygon fill="#666666" stroke="#666666" points="107.5,-77 107.5,-77 134.5,-77 134.5,-77 107.5,-77"/>
<polygon fill="#666666" stroke="#666666" points="134.5,-77 134.5,-77 212.5,-77 212.5,-77 134.5,-77"/>
<polygon fill="none" stroke="#666666" points="107,0 107,-154 212,-154 212,0 107,0"/>
</a>
</g>
</g>
<!-- Node1&#45;&gt;Node3 -->
<g id="edge2_Node000001_Node000003" class="edge">
<title>Node1&#45;&gt;Node3</title>
<g id="a_edge2_Node000001_Node000003"><a xlink:title=" ">
<path fill="none" stroke="#63b8ff" d="M195.33,-180.23C192.32,-171.65 189.21,-162.78 186.14,-154.01"/>
<polygon fill="none" stroke="#63b8ff" points="192.06,-181.49 198.67,-189.77 198.66,-179.17 192.06,-181.49"/>
</a>
</g>
</g>
<!-- Node4 -->
<g id="Node000004" class="node">
<title>Node4</title>
<g id="a_Node000004"><a xlink:href="classRayTracer_1_1Plane.html" target="_top" xlink:title=" ">
<polygon fill="white" stroke="transparent" points="322.5,-139 230.5,-139 230.5,-15 322.5,-15 322.5,-139"/>
<text text-anchor="start" x="235.5" y="-127" font-family="Helvetica,sans-Serif" font-size="10.00">RayTracer::Plane</text>
<text text-anchor="start" x="239.5" y="-112" font-family="Helvetica,sans-Serif" font-size="10.00">&#45;</text>
<text text-anchor="start" x="252.5" y="-112" font-family="Helvetica,sans-Serif" font-size="10.00">_point</text>
<text text-anchor="start" x="239.5" y="-97" font-family="Helvetica,sans-Serif" font-size="10.00">&#45;</text>
<text text-anchor="start" x="252.5" y="-97" font-family="Helvetica,sans-Serif" font-size="10.00">_normal</text>
<text text-anchor="start" x="237" y="-82" font-family="Helvetica,sans-Serif" font-size="10.00">+</text>
<text text-anchor="start" x="252.5" y="-82" font-family="Helvetica,sans-Serif" font-size="10.00">Plane()</text>
<text text-anchor="start" x="237" y="-67" font-family="Helvetica,sans-Serif" font-size="10.00">+</text>
<text text-anchor="start" x="252.5" y="-67" font-family="Helvetica,sans-Serif" font-size="10.00">Plane()</text>
<text text-anchor="start" x="237" y="-52" font-family="Helvetica,sans-Serif" font-size="10.00">+</text>
<text text-anchor="start" x="252.5" y="-52" font-family="Helvetica,sans-Serif" font-size="10.00">~Plane()</text>
<text text-anchor="start" x="237" y="-37" font-family="Helvetica,sans-Serif" font-size="10.00">+</text>
<text text-anchor="start" x="252.5" y="-37" font-family="Helvetica,sans-Serif" font-size="10.00">hit()</text>
<text text-anchor="start" x="237" y="-22" font-family="Helvetica,sans-Serif" font-size="10.00">+</text>
<text text-anchor="start" x="252.5" y="-22" font-family="Helvetica,sans-Serif" font-size="10.00">getBounds()</text>
<polygon fill="#666666" stroke="#666666" points="230.5,-122 230.5,-122 322.5,-122 322.5,-122 230.5,-122"/>
<polygon fill="#666666" stroke="#666666" points="230.5,-92 230.5,-92 250.5,-92 250.5,-92 230.5,-92"/>
<polygon fill="#666666" stroke="#666666" points="250.5,-92 250.5,-92 322.5,-92 322.5,-92 250.5,-92"/>
<polygon fill="none" stroke="#666666" points="230.5,-15 230.5,-139 322.5,-139 322.5,-15 230.5,-15"/>
</a>
</g>
</g>
<!-- Node1&#45;&gt;Node4 -->
<g id="edge3_Node000001_Node000004" class="edge">
<title>Node1&#45;&gt;Node4</title>
<g id="a_edge3_Node000001_Node000004"><a xlink:title=" ">
<path fill="none" stroke="#63b8ff" d="M240.09,-180.14C244.87,-166.71 249.92,-152.56 254.68,-139.22"/>
<polygon fill="none" stroke="#63b8ff" points="236.72,-179.17 236.66,-189.77 243.31,-181.52 236.72,-179.17"/>
</a>
</g>
</g>
<!-- Node5 -->
<g id="Node000005" class="node">
<title>Node5</title>
<g id="a_Node000005"><a xlink:href="classRayTracer_1_1Sphere.html" target="_top" xlink:title=" ">
<polygon fill="white" stroke="transparent" points="438.5,-131.5 340.5,-131.5 340.5,-22.5 438.5,-22.5 438.5,-131.5"/>
<text text-anchor="start" x="345.5" y="-119" font-family="Helvetica,sans-Serif" font-size="10.00">RayTracer::Sphere</text>
<text text-anchor="start" x="351" y="-104" font-family="Helvetica,sans-Serif" font-size="10.00">&#45;</text>
<text text-anchor="start" x="365.5" y="-104" font-family="Helvetica,sans-Serif" font-size="10.00">_center</text>
<text text-anchor="start" x="351" y="-89" font-family="Helvetica,sans-Serif" font-size="10.00">&#45;</text>
<text text-anchor="start" x="365.5" y="-89" font-family="Helvetica,sans-Serif" font-size="10.00">_radius</text>
<text text-anchor="start" x="348.5" y="-74" font-family="Helvetica,sans-Serif" font-size="10.00">+</text>
<text text-anchor="start" x="365.5" y="-74" font-family="Helvetica,sans-Serif" font-size="10.00">Sphere()</text>
<text text-anchor="start" x="348.5" y="-59" font-family="Helvetica,sans-Serif" font-size="10.00">+</text>
<text text-anchor="start" x="365.5" y="-59" font-family="Helvetica,sans-Serif" font-size="10.00">~Sphere()</text>
<text text-anchor="start" x="348.5" y="-44" font-family="Helvetica,sans-Serif" font-size="10.00">+</text>
<text text-anchor="start" x="365.5" y="-44" font-family="Helvetica,sans-Serif" font-size="10.00">hit()</text>
<text text-anchor="start" x="348.5" y="-29" font-family="Helvetica,sans-Serif" font-size="10.00">+</text>
<text text-anchor="start" x="365.5" y="-29" font-family="Helvetica,sans-Serif" font-size="10.00">getBounds()</text>
<polygon fill="#666666" stroke="#666666" points="340.5,-114 340.5,-114 438.5,-114 438.5,-114 340.5,-114"/>
<polygon fill="#666666" stroke="#666666" points="340.5,-84 340.5,-84 363.5,-84 363.5,-84 340.5,-84"/>
<polygon fill="#666666" stroke="#666666" points="363.5,-84 363.5,-84 438.5,-84 438.5,-84 363.5,-84"/>
<polygon fill="none" stroke="#666666" points="340.5,-22.5 340.5,-131.5 438.5,-131.5 438.5,-22.5 340.5,-22.5"/>
</a>
</g>
</g>
<!-- Node1&#45;&gt;Node5 -->
<g id="edge4_Node000001_Node000005" class="edge">
<title>Node1&#45;&gt;Node5</title>
<g id="a_edge4_Node000001_Node000005"><a xlink:title=" ">
<path fill="none" stroke="#63b8ff" d="M283.52,-196.26C299.9,-183.33 316.92,-168.78 331.5,-154 338.26,-147.15 344.93,-139.5 351.21,-131.76"/>
<polygon fill="none" stroke="#63b8ff" points="281.29,-193.56 275.55,-202.47 285.59,-199.09 281.29,-193.56"/>
</a>
</g>
</g>
</g>
</svg>
</svg>

<style type='text/css'>
<![CDATA[
[data-mouse-over-selected='false'] { opacity: 0.7; }
[data-mouse-over-selected='true']  { opacity: 1.0; }
]]>
</style>
<script type="application/ecmascript"><![CDATA[
document.addEventListener('DOMContentLoaded', (event) => {
  highlightEdges();
  highlightAdjacentNodes();
});
]]></script>
</svg>
