<?xml version="1.0" encoding="UTF-8" standalone="no"?>
<!DOCTYPE svg PUBLIC "-//W3C//DTD SVG 1.1//EN"
 "http://www.w3.org/Graphics/SVG/1.1/DTD/svg11.dtd">
<!-- Generated by graphviz version 2.43.0 (0)
 -->
<!-- Title: src/Utils/Color.hpp Pages: 1 -->
<svg width="920pt" height="610pt"
 viewBox="0.00 0.00 919.50 610.00" xmlns="http://www.w3.org/2000/svg" xmlns:xlink="http://www.w3.org/1999/xlink">
<g id="graph0" class="graph" transform="scale(1 1) rotate(0) translate(4 606)">
<title>src/Utils/Color.hpp</title>
<!-- Node1 -->
<g id="Node000001" class="node">
<title>Node1</title>
<g id="a_Node000001"><a xlink:title=" ">
<polygon fill="#999999" stroke="#666666" points="477,-602 372,-602 372,-583 477,-583 477,-602"/>
<text text-anchor="middle" x="424.5" y="-590" font-family="Helvetica,sans-Serif" font-size="10.00">src/Utils/Color.hpp</text>
</a>
</g>
</g>
<!-- Node2 -->
<g id="Node000002" class="node">
<title>Node2</title>
<g id="a_Node000002"><a xlink:href="ARenderer_8hpp.html" target="_top" xlink:title=" ">
<polygon fill="white" stroke="#666666" points="616,-547 471,-547 471,-517 616,-517 616,-547"/>
<text text-anchor="start" x="479" y="-535" font-family="Helvetica,sans-Serif" font-size="10.00">src/Objects/Abstracts</text>
<text text-anchor="middle" x="543.5" y="-524" font-family="Helvetica,sans-Serif" font-size="10.00">/ARenderer/ARenderer.hpp</text>
</a>
</g>
</g>
<!-- Node1&#45;&gt;Node2 -->
<g id="edge1_Node000001_Node000002" class="edge">
<title>Node1&#45;&gt;Node2</title>
<g id="a_edge1_Node000001_Node000002"><a xlink:title=" ">
<path fill="none" stroke="#63b8ff" d="M451.02,-578.46C469.91,-569.18 495.27,-556.71 514.66,-547.18"/>
<polygon fill="#63b8ff" stroke="#63b8ff" points="449.23,-575.44 441.8,-582.99 452.32,-581.72 449.23,-575.44"/>
</a>
</g>
</g>
<!-- Node6 -->
<g id="Node000006" class="node">
<title>Node6</title>
<g id="a_Node000006"><a xlink:href="ILight_8hpp.html" target="_top" xlink:title=" ">
<polygon fill="white" stroke="#666666" points="390,-349 271,-349 271,-319 390,-319 390,-349"/>
<text text-anchor="start" x="279" y="-337" font-family="Helvetica,sans-Serif" font-size="10.00">src/Objects/Abstracts</text>
<text text-anchor="middle" x="330.5" y="-326" font-family="Helvetica,sans-Serif" font-size="10.00">/ILight.hpp</text>
</a>
</g>
</g>
<!-- Node1&#45;&gt;Node6 -->
<g id="edge26_Node000001_Node000006" class="edge">
<title>Node1&#45;&gt;Node6</title>
<g id="a_edge26_Node000001_Node000006"><a xlink:title=" ">
<path fill="none" stroke="#63b8ff" d="M415.73,-573.68C400.55,-542.26 369.11,-474.68 349.5,-415 342.06,-392.35 336.24,-365.21 333.09,-349.07"/>
<polygon fill="#63b8ff" stroke="#63b8ff" points="412.69,-575.43 420.22,-582.89 418.99,-572.36 412.69,-575.43"/>
</a>
</g>
</g>
<!-- Node7 -->
<g id="Node000007" class="node">
<title>Node7</title>
<g id="a_Node000007"><a xlink:href="IMaterial_8hpp.html" target="_top" xlink:title=" ">
<polygon fill="white" stroke="#666666" points="352,-283 233,-283 233,-253 352,-253 352,-283"/>
<text text-anchor="start" x="241" y="-271" font-family="Helvetica,sans-Serif" font-size="10.00">src/Objects/Abstracts</text>
<text text-anchor="middle" x="292.5" y="-260" font-family="Helvetica,sans-Serif" font-size="10.00">/IMaterial.hpp</text>
</a>
</g>
</g>
<!-- Node1&#45;&gt;Node7 -->
<g id="edge27_Node000001_Node000007" class="edge">
<title>Node1&#45;&gt;Node7</title>
<g id="a_edge27_Node000001_Node000007"><a xlink:title=" ">
<path fill="none" stroke="#63b8ff" d="M374.81,-580.29C320.92,-564.85 242.5,-531.33 242.5,-467 242.5,-467 242.5,-467 242.5,-399 242.5,-362.46 247.47,-352.74 261.5,-319 266.83,-306.17 275.25,-292.86 281.97,-283.2"/>
<polygon fill="#63b8ff" stroke="#63b8ff" points="373.99,-583.7 384.56,-582.97 375.84,-576.94 373.99,-583.7"/>
</a>
</g>
</g>
<!-- Node18 -->
<g id="Node000018" class="node">
<title>Node18</title>
<g id="a_Node000018"><a xlink:href="Color_8cpp.html" target="_top" xlink:title=" ">
<polygon fill="white" stroke="#666666" points="738.5,-541.5 634.5,-541.5 634.5,-522.5 738.5,-522.5 738.5,-541.5"/>
<text text-anchor="middle" x="686.5" y="-529.5" font-family="Helvetica,sans-Serif" font-size="10.00">src/Utils/Color.cpp</text>
</a>
</g>
</g>
<!-- Node1&#45;&gt;Node18 -->
<g id="edge28_Node000001_Node000018" class="edge">
<title>Node1&#45;&gt;Node18</title>
<g id="a_edge28_Node000001_Node000018"><a xlink:title=" ">
<path fill="none" stroke="#63b8ff" d="M473.36,-580.79C514.08,-571.84 573.59,-558.7 625.5,-547 633.24,-545.26 641.52,-543.37 649.41,-541.56"/>
<polygon fill="#63b8ff" stroke="#63b8ff" points="472.44,-577.41 463.43,-582.97 473.95,-584.25 472.44,-577.41"/>
</a>
</g>
</g>
<!-- Node3 -->
<g id="Node000003" class="node">
<title>Node3</title>
<g id="a_Node000003"><a xlink:href="Camera_8hpp.html" target="_top" xlink:title=" ">
<polygon fill="white" stroke="#666666" points="613,-481 474,-481 474,-451 613,-451 613,-481"/>
<text text-anchor="start" x="482" y="-469" font-family="Helvetica,sans-Serif" font-size="10.00">src/CorePlugin/Renderers</text>
<text text-anchor="middle" x="543.5" y="-458" font-family="Helvetica,sans-Serif" font-size="10.00">/Camera/Camera.hpp</text>
</a>
</g>
</g>
<!-- Node2&#45;&gt;Node3 -->
<g id="edge2_Node000002_Node000003" class="edge">
<title>Node2&#45;&gt;Node3</title>
<g id="a_edge2_Node000002_Node000003"><a xlink:title=" ">
<path fill="none" stroke="#63b8ff" d="M543.5,-506.54C543.5,-497.96 543.5,-488.61 543.5,-481.16"/>
<polygon fill="#63b8ff" stroke="#63b8ff" points="540,-506.8 543.5,-516.8 547,-506.8 540,-506.8"/>
</a>
</g>
</g>
<!-- Node13 -->
<g id="Node000013" class="node">
<title>Node13</title>
<g id="a_Node000013"><a xlink:href="IPlugin_8hpp.html" target="_top" xlink:title=" ">
<polygon fill="white" stroke="#666666" points="448.5,-145.5 320.5,-145.5 320.5,-126.5 448.5,-126.5 448.5,-145.5"/>
<text text-anchor="middle" x="384.5" y="-133.5" font-family="Helvetica,sans-Serif" font-size="10.00">src/Objects/IPlugin.hpp</text>
</a>
</g>
</g>
<!-- Node2&#45;&gt;Node13 -->
<g id="edge25_Node000002_Node000013" class="edge">
<title>Node2&#45;&gt;Node13</title>
<g id="a_edge25_Node000002_Node000013"><a xlink:title=" ">
<path fill="none" stroke="#63b8ff" d="M617.02,-513.93C672.64,-496.14 739.5,-462.05 739.5,-401 739.5,-401 739.5,-401 739.5,-267 739.5,-204.07 540.33,-162.48 440.36,-145.56"/>
<polygon fill="#63b8ff" stroke="#63b8ff" points="615.67,-510.68 607.14,-516.96 617.72,-517.37 615.67,-510.68"/>
</a>
</g>
</g>
<!-- Node17 -->
<g id="Node000017" class="node">
<title>Node17</title>
<g id="a_Node000017"><a xlink:href="AInterface_8hpp.html" target="_top" xlink:title=" ">
<polygon fill="white" stroke="#666666" points="911.5,-481 767.5,-481 767.5,-451 911.5,-451 911.5,-481"/>
<text text-anchor="start" x="775.5" y="-469" font-family="Helvetica,sans-Serif" font-size="10.00">src/Objects/Abstracts</text>
<text text-anchor="middle" x="839.5" y="-458" font-family="Helvetica,sans-Serif" font-size="10.00">/AInterface/AInterface.hpp</text>
</a>
</g>
</g>
<!-- Node2&#45;&gt;Node17 -->
<g id="edge24_Node000002_Node000017" class="edge">
<title>Node2&#45;&gt;Node17</title>
<g id="a_edge24_Node000002_Node000017"><a xlink:title=" ">
<path fill="none" stroke="#63b8ff" d="M618.52,-514.78C666.7,-504.36 728.65,-490.97 774.69,-481.01"/>
<polygon fill="#63b8ff" stroke="#63b8ff" points="617.49,-511.42 608.46,-516.95 618.97,-518.26 617.49,-511.42"/>
</a>
</g>
</g>
<!-- Node4 -->
<g id="Node000004" class="node">
<title>Node4</title>
<g id="a_Node000004"><a xlink:href="Camera_8cpp.html" target="_top" xlink:title=" ">
<polygon fill="white" stroke="#666666" points="711,-415 572,-415 572,-385 711,-385 711,-415"/>
<text text-anchor="start" x="580" y="-403" font-family="Helvetica,sans-Serif" font-size="10.00">src/CorePlugin/Renderers</text>
<text text-anchor="middle" x="641.5" y="-392" font-family="Helvetica,sans-Serif" font-size="10.00">/Camera/Camera.cpp</text>
</a>
</g>
</g>
<!-- Node3&#45;&gt;Node4 -->
<g id="edge3_Node000003_Node000004" class="edge">
<title>Node3&#45;&gt;Node4</title>
<g id="a_edge3_Node000003_Node000004"><a xlink:title=" ">
<path fill="none" stroke="#63b8ff" d="M573.66,-445.3C588.58,-435.56 606.25,-424.02 619.81,-415.16"/>
<polygon fill="#63b8ff" stroke="#63b8ff" points="571.71,-442.4 565.25,-450.8 575.54,-448.26 571.71,-442.4"/>
</a>
</g>
</g>
<!-- Node5 -->
<g id="Node000005" class="node">
<title>Node5</title>
<g id="a_Node000005"><a xlink:href="Scene_8hpp.html" target="_top" xlink:title=" ">
<polygon fill="white" stroke="#666666" points="490.5,-415 358.5,-415 358.5,-385 490.5,-385 490.5,-415"/>
<text text-anchor="start" x="366.5" y="-403" font-family="Helvetica,sans-Serif" font-size="10.00">src/SceneSystem/Scene</text>
<text text-anchor="middle" x="424.5" y="-392" font-family="Helvetica,sans-Serif" font-size="10.00">/Scene.hpp</text>
</a>
</g>
</g>
<!-- Node3&#45;&gt;Node5 -->
<g id="edge4_Node000003_Node000005" class="edge">
<title>Node3&#45;&gt;Node5</title>
<g id="a_edge4_Node000003_Node000005"><a xlink:title=" ">
<path fill="none" stroke="#63b8ff" d="M508.37,-446.11C489.85,-436.14 467.51,-424.13 450.55,-415.01"/>
<polygon fill="#63b8ff" stroke="#63b8ff" points="506.92,-449.3 517.38,-450.95 510.24,-443.14 506.92,-449.3"/>
</a>
</g>
</g>
<!-- Node5&#45;&gt;Node6 -->
<g id="edge5_Node000005_Node000006" class="edge">
<title>Node5&#45;&gt;Node6</title>
<g id="a_edge5_Node000005_Node000006"><a xlink:title=" ">
<path fill="none" stroke="#63b8ff" d="M389.47,-379.42C374.25,-369.6 357.3,-357.93 345.39,-349.01"/>
<polygon fill="#63b8ff" stroke="#63b8ff" points="387.86,-382.54 398.17,-384.95 391.61,-376.64 387.86,-382.54"/>
</a>
</g>
</g>
<!-- Node16 -->
<g id="Node000016" class="node">
<title>Node16</title>
<g id="a_Node000016"><a xlink:href="Scene_8cpp.html" target="_top" xlink:title=" ">
<polygon fill="white" stroke="#666666" points="540.5,-349 408.5,-349 408.5,-319 540.5,-319 540.5,-349"/>
<text text-anchor="start" x="416.5" y="-337" font-family="Helvetica,sans-Serif" font-size="10.00">src/SceneSystem/Scene</text>
<text text-anchor="middle" x="474.5" y="-326" font-family="Helvetica,sans-Serif" font-size="10.00">/Scene.cpp</text>
</a>
</g>
</g>
<!-- Node5&#45;&gt;Node16 -->
<g id="edge23_Node000005_Node000016" class="edge">
<title>Node5&#45;&gt;Node16</title>
<g id="a_edge23_Node000005_Node000016"><a xlink:title=" ">
<path fill="none" stroke="#63b8ff" d="M441.84,-376.81C449,-367.64 457.1,-357.28 463.43,-349.16"/>
<polygon fill="#63b8ff" stroke="#63b8ff" points="439,-374.76 435.6,-384.8 444.51,-379.07 439,-374.76"/>
</a>
</g>
</g>
<!-- Node6&#45;&gt;Node5 -->
<g id="edge22_Node000006_Node000005" class="edge">
<title>Node6&#45;&gt;Node5</title>
<g id="a_edge22_Node000006_Node000005"><a xlink:title=" ">
<path fill="none" stroke="#63b8ff" d="M365.65,-354.66C380.73,-364.39 397.49,-375.93 409.36,-384.8"/>
<polygon fill="#63b8ff" stroke="#63b8ff" points="367.33,-351.58 357.02,-349.16 363.58,-357.48 367.33,-351.58"/>
</a>
</g>
</g>
<!-- Node6&#45;&gt;Node7 -->
<g id="edge6_Node000006_Node000007" class="edge">
<title>Node6&#45;&gt;Node7</title>
<g id="a_edge6_Node000006_Node000007"><a xlink:title=" ">
<path fill="none" stroke="#63b8ff" d="M316.82,-309.96C311.5,-301 305.58,-291.03 300.91,-283.16"/>
<polygon fill="#63b8ff" stroke="#63b8ff" points="313.95,-311.98 322.07,-318.8 319.97,-308.41 313.95,-311.98"/>
</a>
</g>
</g>
<!-- Node6&#45;&gt;Node13 -->
<g id="edge21_Node000006_Node000013" class="edge">
<title>Node6&#45;&gt;Node13</title>
<g id="a_edge21_Node000006_Node000013"><a xlink:title=" ">
<path fill="none" stroke="#63b8ff" d="M347.06,-310.56C352.45,-302.27 357.95,-292.56 361.5,-283 379.99,-233.21 383.62,-168.48 384.33,-145.53"/>
<polygon fill="#63b8ff" stroke="#63b8ff" points="344.1,-308.69 341.36,-318.92 349.89,-312.63 344.1,-308.69"/>
</a>
</g>
</g>
<!-- Node8 -->
<g id="Node000008" class="node">
<title>Node8</title>
<g id="a_Node000008"><a xlink:href="Plane_8hpp.html" target="_top" xlink:title=" ">
<polygon fill="white" stroke="#666666" points="139,-151 0,-151 0,-121 139,-121 139,-151"/>
<text text-anchor="start" x="8" y="-139" font-family="Helvetica,sans-Serif" font-size="10.00">src/CorePlugin/Primitives</text>
<text text-anchor="middle" x="69.5" y="-128" font-family="Helvetica,sans-Serif" font-size="10.00">/Plane/Plane.hpp</text>
</a>
</g>
</g>
<!-- Node7&#45;&gt;Node8 -->
<g id="edge7_Node000007_Node000008" class="edge">
<title>Node7&#45;&gt;Node8</title>
<g id="a_edge7_Node000007_Node000008"><a xlink:title=" ">
<path fill="none" stroke="#63b8ff" d="M223.09,-250.27C198.1,-242.43 170.43,-231.54 147.5,-217 119.16,-199.03 93.5,-168.81 79.84,-151.11"/>
<polygon fill="#63b8ff" stroke="#63b8ff" points="222.3,-253.69 232.89,-253.23 224.33,-246.99 222.3,-253.69"/>
</a>
</g>
</g>
<!-- Node10 -->
<g id="Node000010" class="node">
<title>Node10</title>
<g id="a_Node000010"><a xlink:href="HitRecord_8hpp.html" target="_top" xlink:title=" ">
<polygon fill="white" stroke="#666666" points="542.5,-217 408.5,-217 408.5,-187 542.5,-187 542.5,-217"/>
<text text-anchor="start" x="416.5" y="-205" font-family="Helvetica,sans-Serif" font-size="10.00">src/Geometry/HitRecord</text>
<text text-anchor="middle" x="475.5" y="-194" font-family="Helvetica,sans-Serif" font-size="10.00">/HitRecord.hpp</text>
</a>
</g>
</g>
<!-- Node7&#45;&gt;Node10 -->
<g id="edge9_Node000007_Node000010" class="edge">
<title>Node7&#45;&gt;Node10</title>
<g id="a_edge9_Node000007_Node000010"><a xlink:title=" ">
<path fill="none" stroke="#63b8ff" d="M336.57,-249.46C364.77,-239.25 401.21,-226.55 429.74,-217.01"/>
<polygon fill="#63b8ff" stroke="#63b8ff" points="335.16,-246.24 326.96,-252.95 337.55,-252.82 335.16,-246.24"/>
</a>
</g>
</g>
<!-- Node11 -->
<g id="Node000011" class="node">
<title>Node11</title>
<g id="a_Node000011"><a xlink:href="APrimitive_8hpp.html" target="_top" xlink:title=" ">
<polygon fill="white" stroke="#666666" points="302.5,-217 156.5,-217 156.5,-187 302.5,-187 302.5,-217"/>
<text text-anchor="start" x="164.5" y="-205" font-family="Helvetica,sans-Serif" font-size="10.00">src/Objects/Abstracts</text>
<text text-anchor="middle" x="229.5" y="-194" font-family="Helvetica,sans-Serif" font-size="10.00">/APrimitive/APrimitive.hpp</text>
</a>
</g>
</g>
<!-- Node7&#45;&gt;Node11 -->
<g id="edge13_Node000007_Node000011" class="edge">
<title>Node7&#45;&gt;Node11</title>
<g id="a_edge13_Node000007_Node000011"><a xlink:title=" ">
<path fill="none" stroke="#63b8ff" d="M271.48,-245.65C262.25,-236.27 251.67,-225.53 243.44,-217.16"/>
<polygon fill="#63b8ff" stroke="#63b8ff" points="269.01,-248.13 278.52,-252.8 274,-243.21 269.01,-248.13"/>
</a>
</g>
</g>
<!-- Node7&#45;&gt;Node13 -->
<g id="edge20_Node000007_Node000013" class="edge">
<title>Node7&#45;&gt;Node13</title>
<g id="a_edge20_Node000007_Node000013"><a xlink:title=" ">
<path fill="none" stroke="#63b8ff" d="M308.43,-244.49C329.09,-215.29 364.16,-165.74 378.31,-145.75"/>
<polygon fill="#63b8ff" stroke="#63b8ff" points="305.44,-242.66 302.52,-252.84 311.15,-246.7 305.44,-242.66"/>
</a>
</g>
</g>
<!-- Node9 -->
<g id="Node000009" class="node">
<title>Node9</title>
<g id="a_Node000009"><a xlink:href="Plane_8cpp.html" target="_top" xlink:title=" ">
<polygon fill="white" stroke="#666666" points="139,-85 0,-85 0,-55 139,-55 139,-85"/>
<text text-anchor="start" x="8" y="-73" font-family="Helvetica,sans-Serif" font-size="10.00">src/CorePlugin/Primitives</text>
<text text-anchor="middle" x="69.5" y="-62" font-family="Helvetica,sans-Serif" font-size="10.00">/Plane/Plane.cpp</text>
</a>
</g>
</g>
<!-- Node8&#45;&gt;Node9 -->
<g id="edge8_Node000008_Node000009" class="edge">
<title>Node8&#45;&gt;Node9</title>
<g id="a_edge8_Node000008_Node000009"><a xlink:title=" ">
<path fill="none" stroke="#63b8ff" d="M69.5,-110.54C69.5,-101.96 69.5,-92.61 69.5,-85.16"/>
<polygon fill="#63b8ff" stroke="#63b8ff" points="66,-110.8 69.5,-120.8 73,-110.8 66,-110.8"/>
</a>
</g>
</g>
<!-- Node10&#45;&gt;Node3 -->
<g id="edge10_Node000010_Node000003" class="edge">
<title>Node10&#45;&gt;Node3</title>
<g id="a_edge10_Node000010_Node000003"><a xlink:title=" ">
<path fill="none" stroke="#63b8ff" d="M494.83,-224.75C512.98,-246.75 538.88,-282.6 549.5,-319 563.14,-365.76 552.95,-424.5 547,-450.95"/>
<polygon fill="#63b8ff" stroke="#63b8ff" points="497.43,-222.41 488.31,-217.03 492.09,-226.93 497.43,-222.41"/>
</a>
</g>
</g>
<!-- Node10&#45;&gt;Node6 -->
<g id="edge11_Node000010_Node000006" class="edge">
<title>Node10&#45;&gt;Node6</title>
<g id="a_edge11_Node000010_Node000006"><a xlink:title=" ">
<path fill="none" stroke="#63b8ff" d="M454.95,-224.62C438.95,-241.12 415.93,-264.16 394.5,-283 379.99,-295.75 362.68,-309.18 349.73,-318.9"/>
<polygon fill="#63b8ff" stroke="#63b8ff" points="457.79,-226.72 462.21,-217.09 452.75,-221.86 457.79,-226.72"/>
</a>
</g>
</g>
<!-- Node10&#45;&gt;Node7 -->
<g id="edge12_Node000010_Node000007" class="edge">
<title>Node10&#45;&gt;Node7</title>
<g id="a_edge12_Node000010_Node000007"><a xlink:title=" ">
<path fill="none" stroke="#63b8ff" d="M431.53,-220.51C403.34,-230.71 366.91,-243.41 338.36,-252.95"/>
<polygon fill="#63b8ff" stroke="#63b8ff" points="432.93,-223.72 441.13,-217.01 430.53,-217.15 432.93,-223.72"/>
</a>
</g>
</g>
<!-- Node11&#45;&gt;Node5 -->
<g id="edge19_Node000011_Node000005" class="edge">
<title>Node11&#45;&gt;Node5</title>
<g id="a_edge19_Node000011_Node000005"><a xlink:title=" ">
<path fill="none" stroke="#63b8ff" d="M225.98,-227.37C224.97,-235.5 224,-244.63 223.5,-253 220.76,-298.81 225.62,-320.4 261.5,-349 289.16,-371.05 326.51,-383.41 358.48,-390.32"/>
<polygon fill="#63b8ff" stroke="#63b8ff" points="229.46,-227.77 227.31,-217.4 222.52,-226.85 229.46,-227.77"/>
</a>
</g>
</g>
<!-- Node11&#45;&gt;Node8 -->
<g id="edge14_Node000011_Node000008" class="edge">
<title>Node11&#45;&gt;Node8</title>
<g id="a_edge14_Node000011_Node000008"><a xlink:title=" ">
<path fill="none" stroke="#63b8ff" d="M184.97,-183.19C159.56,-173.02 128.17,-160.47 104.53,-151.01"/>
<polygon fill="#63b8ff" stroke="#63b8ff" points="183.8,-186.49 194.39,-186.95 186.4,-179.99 183.8,-186.49"/>
</a>
</g>
</g>
<!-- Node12 -->
<g id="Node000012" class="node">
<title>Node12</title>
<g id="a_Node000012"><a xlink:href="APrimitive_8cpp.html" target="_top" xlink:title=" ">
<polygon fill="white" stroke="#666666" points="302,-151 157,-151 157,-121 302,-121 302,-151"/>
<text text-anchor="start" x="165" y="-139" font-family="Helvetica,sans-Serif" font-size="10.00">src/Objects/Abstracts</text>
<text text-anchor="middle" x="229.5" y="-128" font-family="Helvetica,sans-Serif" font-size="10.00">/APrimitive/APrimitive.cpp</text>
</a>
</g>
</g>
<!-- Node11&#45;&gt;Node12 -->
<g id="edge15_Node000011_Node000012" class="edge">
<title>Node11&#45;&gt;Node12</title>
<g id="a_edge15_Node000011_Node000012"><a xlink:title=" ">
<path fill="none" stroke="#63b8ff" d="M229.5,-176.54C229.5,-167.96 229.5,-158.61 229.5,-151.16"/>
<polygon fill="#63b8ff" stroke="#63b8ff" points="226,-176.8 229.5,-186.8 233,-176.8 226,-176.8"/>
</a>
</g>
</g>
<!-- Node11&#45;&gt;Node13 -->
<g id="edge16_Node000011_Node000013" class="edge">
<title>Node11&#45;&gt;Node13</title>
<g id="a_edge16_Node000011_Node000013"><a xlink:title=" ">
<path fill="none" stroke="#63b8ff" d="M272.85,-183.1C302.6,-170.82 340.75,-155.06 363.87,-145.52"/>
<polygon fill="#63b8ff" stroke="#63b8ff" points="271.42,-179.9 263.52,-186.95 274.09,-186.37 271.42,-179.9"/>
</a>
</g>
</g>
<!-- Node14 -->
<g id="Node000014" class="node">
<title>Node14</title>
<g id="a_Node000014"><a xlink:href="CorePlugin_8hpp.html" target="_top" xlink:title=" ">
<polygon fill="white" stroke="#666666" points="466,-79.5 303,-79.5 303,-60.5 466,-60.5 466,-79.5"/>
<text text-anchor="middle" x="384.5" y="-67.5" font-family="Helvetica,sans-Serif" font-size="10.00">src/CorePlugin/CorePlugin.hpp</text>
</a>
</g>
</g>
<!-- Node13&#45;&gt;Node14 -->
<g id="edge17_Node000013_Node000014" class="edge">
<title>Node13&#45;&gt;Node14</title>
<g id="a_edge17_Node000013_Node000014"><a xlink:title=" ">
<path fill="none" stroke="#63b8ff" d="M384.5,-116.08C384.5,-104.13 384.5,-89.22 384.5,-79.91"/>
<polygon fill="#63b8ff" stroke="#63b8ff" points="381,-116.37 384.5,-126.37 388,-116.37 381,-116.37"/>
</a>
</g>
</g>
<!-- Node15 -->
<g id="Node000015" class="node">
<title>Node15</title>
<g id="a_Node000015"><a xlink:href="CorePlugin_8cpp.html" target="_top" xlink:title=" ">
<polygon fill="white" stroke="#666666" points="465.5,-19 303.5,-19 303.5,0 465.5,0 465.5,-19"/>
<text text-anchor="middle" x="384.5" y="-7" font-family="Helvetica,sans-Serif" font-size="10.00">src/CorePlugin/CorePlugin.cpp</text>
</a>
</g>
</g>
<!-- Node14&#45;&gt;Node15 -->
<g id="edge18_Node000014_Node000015" class="edge">
<title>Node14&#45;&gt;Node15</title>
<g id="a_edge18_Node000014_Node000015"><a xlink:title=" ">
<path fill="none" stroke="#63b8ff" d="M384.5,-50.16C384.5,-39.74 384.5,-27.3 384.5,-19.17"/>
<polygon fill="#63b8ff" stroke="#63b8ff" points="381,-50.37 384.5,-60.37 388,-50.37 381,-50.37"/>
</a>
</g>
</g>
</g>
</svg>
