<?xml version="1.0" encoding="UTF-8" standalone="no"?>
<!DOCTYPE svg PUBLIC "-//W3C//DTD SVG 1.1//EN"
 "http://www.w3.org/Graphics/SVG/1.1/DTD/svg11.dtd">
<!-- Generated by graphviz version 2.43.0 (0)
 -->
<!-- Title: src/Objects/Plugins/CorePlugin/Primitives/Cone/Cone.cpp Pages: 1 -->
<svg width="715pt" height="533pt"
 viewBox="0.00 0.00 715.00 533.00" xmlns="http://www.w3.org/2000/svg" xmlns:xlink="http://www.w3.org/1999/xlink">
<g id="graph0" class="graph" transform="scale(1 1) rotate(0) translate(4 529)">
<title>src/Objects/Plugins/CorePlugin/Primitives/Cone/Cone.cpp</title>
<!-- Node1 -->
<g id="Node000001" class="node">
<title>Node1</title>
<g id="a_Node000001"><a xlink:title=" ">
<polygon fill="#999999" stroke="#666666" points="217,-525 92,-525 92,-484 217,-484 217,-525"/>
<text text-anchor="start" x="100" y="-513" font-family="Helvetica,sans-Serif" font-size="10.00">src/Objects/Plugins</text>
<text text-anchor="start" x="100" y="-502" font-family="Helvetica,sans-Serif" font-size="10.00">/CorePlugin/Primitives</text>
<text text-anchor="middle" x="154.5" y="-491" font-family="Helvetica,sans-Serif" font-size="10.00">/Cone/Cone.cpp</text>
</a>
</g>
</g>
<!-- Node2 -->
<g id="Node000002" class="node">
<title>Node2</title>
<g id="a_Node000002"><a xlink:href="Cone_8hpp.html" target="_top" xlink:title=" ">
<polygon fill="white" stroke="#666666" points="369.5,-448 307.5,-448 307.5,-429 369.5,-429 369.5,-448"/>
<text text-anchor="middle" x="338.5" y="-436" font-family="Helvetica,sans-Serif" font-size="10.00">Cone.hpp</text>
</a>
</g>
</g>
<!-- Node1&#45;&gt;Node2 -->
<g id="edge1_Node000001_Node000002" class="edge">
<title>Node1&#45;&gt;Node2</title>
<g id="a_edge1_Node000001_Node000002"><a xlink:title=" ">
<path fill="none" stroke="#63b8ff" d="M210.71,-483.95C241.26,-473.32 278.05,-460.53 304.29,-451.4"/>
<polygon fill="#63b8ff" stroke="#63b8ff" points="305.5,-454.68 313.8,-448.09 303.2,-448.07 305.5,-454.68"/>
</a>
</g>
</g>
<!-- Node16 -->
<g id="Node000016" class="node">
<title>Node16</title>
<g id="a_Node000016"><a xlink:title=" ">
<polygon fill="#e0e0e0" stroke="#999999" points="47,-250 0,-250 0,-231 47,-231 47,-250"/>
<text text-anchor="middle" x="23.5" y="-238" font-family="Helvetica,sans-Serif" font-size="10.00">cmath</text>
</a>
</g>
</g>
<!-- Node1&#45;&gt;Node16 -->
<g id="edge31_Node000001_Node000016" class="edge">
<title>Node1&#45;&gt;Node16</title>
<g id="a_edge31_Node000001_Node000016"><a xlink:title=" ">
<path fill="none" stroke="#63b8ff" d="M144.65,-483.81C120.04,-434.58 56.12,-306.74 32.47,-259.44"/>
<polygon fill="#63b8ff" stroke="#63b8ff" points="35.55,-257.77 27.95,-250.39 29.29,-260.9 35.55,-257.77"/>
</a>
</g>
</g>
<!-- Node3 -->
<g id="Node000003" class="node">
<title>Node3</title>
<g id="a_Node000003"><a xlink:href="APrimitive_8hpp.html" target="_top" xlink:title=" ">
<polygon fill="white" stroke="#666666" points="354,-393 235,-393 235,-352 354,-352 354,-393"/>
<text text-anchor="start" x="243" y="-381" font-family="Helvetica,sans-Serif" font-size="10.00">../../../../../Objects</text>
<text text-anchor="start" x="243" y="-370" font-family="Helvetica,sans-Serif" font-size="10.00">/Abstracts/APrimitive</text>
<text text-anchor="middle" x="294.5" y="-359" font-family="Helvetica,sans-Serif" font-size="10.00">/APrimitive.hpp</text>
</a>
</g>
</g>
<!-- Node2&#45;&gt;Node3 -->
<g id="edge2_Node000002_Node000003" class="edge">
<title>Node2&#45;&gt;Node3</title>
<g id="a_edge2_Node000002_Node000003"><a xlink:title=" ">
<path fill="none" stroke="#63b8ff" d="M332.57,-428.87C327.7,-421.8 320.54,-411.38 313.73,-401.48"/>
<polygon fill="#63b8ff" stroke="#63b8ff" points="316.46,-399.27 307.91,-393.01 310.69,-403.23 316.46,-399.27"/>
</a>
</g>
</g>
<!-- Node4 -->
<g id="Node000004" class="node">
<title>Node4</title>
<g id="a_Node000004"><a xlink:href="IMaterial_8hpp.html" target="_top" xlink:title=" ">
<polygon fill="white" stroke="#666666" points="547.5,-310.5 457.5,-310.5 457.5,-291.5 547.5,-291.5 547.5,-310.5"/>
<text text-anchor="middle" x="502.5" y="-298.5" font-family="Helvetica,sans-Serif" font-size="10.00">../IMaterial.hpp</text>
</a>
</g>
</g>
<!-- Node2&#45;&gt;Node4 -->
<g id="edge27_Node000002_Node000004" class="edge">
<title>Node2&#45;&gt;Node4</title>
<g id="a_edge27_Node000002_Node000004"><a xlink:title=" ">
<path fill="none" stroke="#63b8ff" d="M369.61,-429.64C392.01,-422.79 421.96,-411.07 443.5,-393 467.57,-372.8 485.33,-340.26 494.78,-320.05"/>
<polygon fill="#63b8ff" stroke="#63b8ff" points="498.06,-321.3 498.95,-310.74 491.67,-318.44 498.06,-321.3"/>
</a>
</g>
</g>
<!-- Node13 -->
<g id="Node000013" class="node">
<title>Node13</title>
<g id="a_Node000013"><a xlink:title=" ">
<polygon fill="#e0e0e0" stroke="#999999" points="365.5,-189.5 307.5,-189.5 307.5,-170.5 365.5,-170.5 365.5,-189.5"/>
<text text-anchor="middle" x="336.5" y="-177.5" font-family="Helvetica,sans-Serif" font-size="10.00">memory</text>
</a>
</g>
</g>
<!-- Node2&#45;&gt;Node13 -->
<g id="edge29_Node000002_Node000013" class="edge">
<title>Node2&#45;&gt;Node13</title>
<g id="a_edge29_Node000002_Node000013"><a xlink:title=" ">
<path fill="none" stroke="#63b8ff" d="M348.96,-428.92C358.53,-420.59 372.54,-407.16 381.5,-393 407.85,-351.37 425.39,-332.97 410.5,-286 399.18,-250.28 370.85,-216.23 352.71,-197.03"/>
<polygon fill="#63b8ff" stroke="#63b8ff" points="355.12,-194.49 345.64,-189.75 350.09,-199.36 355.12,-194.49"/>
</a>
</g>
</g>
<!-- Node14 -->
<g id="Node000014" class="node">
<title>Node14</title>
<g id="a_Node000014"><a xlink:title=" ">
<polygon fill="#e0e0e0" stroke="#999999" points="401.5,-310.5 345.5,-310.5 345.5,-291.5 401.5,-291.5 401.5,-310.5"/>
<text text-anchor="middle" x="373.5" y="-298.5" font-family="Helvetica,sans-Serif" font-size="10.00">optional</text>
</a>
</g>
</g>
<!-- Node2&#45;&gt;Node14 -->
<g id="edge30_Node000002_Node000014" class="edge">
<title>Node2&#45;&gt;Node14</title>
<g id="a_edge30_Node000002_Node000014"><a xlink:title=" ">
<path fill="none" stroke="#63b8ff" d="M344.51,-428.74C350.14,-420.07 358.3,-406.22 362.5,-393 370.16,-368.88 372.55,-339.62 373.26,-320.91"/>
<polygon fill="#63b8ff" stroke="#63b8ff" points="376.76,-320.84 373.52,-310.76 369.76,-320.67 376.76,-320.84"/>
</a>
</g>
</g>
<!-- Node18 -->
<g id="Node000018" class="node">
<title>Node18</title>
<g id="a_Node000018"><a xlink:href="Ray_8hpp.html" target="_top" xlink:title="Ray primitive used to represent a parametric line (origin + direction).">
<polygon fill="white" stroke="#666666" points="151.5,-250 65.5,-250 65.5,-231 151.5,-231 151.5,-250"/>
<text text-anchor="middle" x="108.5" y="-238" font-family="Helvetica,sans-Serif" font-size="10.00">../Ray/Ray.hpp</text>
</a>
</g>
</g>
<!-- Node2&#45;&gt;Node18 -->
<g id="edge28_Node000002_Node000018" class="edge">
<title>Node2&#45;&gt;Node18</title>
<g id="a_edge28_Node000002_Node000018"><a xlink:title=" ">
<path fill="none" stroke="#63b8ff" d="M307.16,-429C260,-414.42 171.78,-379.87 129.5,-316 118.28,-299.05 112.99,-276.12 110.53,-260.19"/>
<polygon fill="#63b8ff" stroke="#63b8ff" points="113.97,-259.48 109.21,-250.02 107.03,-260.39 113.97,-259.48"/>
</a>
</g>
</g>
<!-- Node3&#45;&gt;Node4 -->
<g id="edge3_Node000003_Node000004" class="edge">
<title>Node3&#45;&gt;Node4</title>
<g id="a_edge3_Node000003_Node000004"><a xlink:title=" ">
<path fill="none" stroke="#63b8ff" d="M352.99,-351.96C389.86,-339.64 436.22,-324.15 467.47,-313.71"/>
<polygon fill="#63b8ff" stroke="#63b8ff" points="468.68,-316.99 477.05,-310.5 466.46,-310.35 468.68,-316.99"/>
</a>
</g>
</g>
<!-- Node3&#45;&gt;Node13 -->
<g id="edge16_Node000003_Node000013" class="edge">
<title>Node3&#45;&gt;Node13</title>
<g id="a_edge16_Node000003_Node000013"><a xlink:title=" ">
<path fill="none" stroke="#63b8ff" d="M298.84,-351.83C306.97,-314.95 324.41,-235.86 332.37,-199.71"/>
<polygon fill="#63b8ff" stroke="#63b8ff" points="335.87,-200.12 334.6,-189.6 329.03,-198.61 335.87,-200.12"/>
</a>
</g>
</g>
<!-- Node3&#45;&gt;Node14 -->
<g id="edge17_Node000003_Node000014" class="edge">
<title>Node3&#45;&gt;Node14</title>
<g id="a_edge17_Node000003_Node000014"><a xlink:title=" ">
<path fill="none" stroke="#63b8ff" d="M316.93,-351.77C329.26,-340.92 344.34,-327.65 355.83,-317.54"/>
<polygon fill="#63b8ff" stroke="#63b8ff" points="358.28,-320.05 363.47,-310.82 353.65,-314.8 358.28,-320.05"/>
</a>
</g>
</g>
<!-- Node15 -->
<g id="Node000015" class="node">
<title>Node15</title>
<g id="a_Node000015"><a xlink:href="AABB_8hpp.html" target="_top" xlink:title=" ">
<polygon fill="white" stroke="#666666" points="289.5,-316 167.5,-316 167.5,-286 289.5,-286 289.5,-316"/>
<text text-anchor="start" x="175.5" y="-304" font-family="Helvetica,sans-Serif" font-size="10.00">../../../Geometry/AABB</text>
<text text-anchor="middle" x="228.5" y="-293" font-family="Helvetica,sans-Serif" font-size="10.00">/AABB.hpp</text>
</a>
</g>
</g>
<!-- Node3&#45;&gt;Node15 -->
<g id="edge18_Node000003_Node000015" class="edge">
<title>Node3&#45;&gt;Node15</title>
<g id="a_edge18_Node000003_Node000015"><a xlink:title=" ">
<path fill="none" stroke="#63b8ff" d="M275.76,-351.77C267.39,-342.95 257.5,-332.54 248.94,-323.53"/>
<polygon fill="#63b8ff" stroke="#63b8ff" points="251.26,-320.88 241.83,-316.04 246.18,-325.7 251.26,-320.88"/>
</a>
</g>
</g>
<!-- Node3&#45;&gt;Node18 -->
<g id="edge26_Node000003_Node000018" class="edge">
<title>Node3&#45;&gt;Node18</title>
<g id="a_edge26_Node000003_Node000018"><a xlink:title=" ">
<path fill="none" stroke="#63b8ff" d="M234.84,-355.7C209.44,-346.92 180.64,-334.04 158.5,-316 139.5,-300.52 124.97,-275.93 116.59,-259.27"/>
<polygon fill="#63b8ff" stroke="#63b8ff" points="119.66,-257.58 112.18,-250.07 113.35,-260.61 119.66,-257.58"/>
</a>
</g>
</g>
<!-- Node5 -->
<g id="Node000005" class="node">
<title>Node5</title>
<g id="a_Node000005"><a xlink:href="Color_8hpp.html" target="_top" xlink:title=" ">
<polygon fill="white" stroke="#666666" points="489.5,-189.5 383.5,-189.5 383.5,-170.5 489.5,-170.5 489.5,-189.5"/>
<text text-anchor="middle" x="436.5" y="-177.5" font-family="Helvetica,sans-Serif" font-size="10.00">../../Utils/Color.hpp</text>
</a>
</g>
</g>
<!-- Node4&#45;&gt;Node5 -->
<g id="edge4_Node000004_Node000005" class="edge">
<title>Node4&#45;&gt;Node5</title>
<g id="a_edge4_Node000004_Node000005"><a xlink:title=" ">
<path fill="none" stroke="#63b8ff" d="M497.75,-291.44C487.01,-272.07 460.64,-224.52 446.25,-198.58"/>
<polygon fill="#63b8ff" stroke="#63b8ff" points="449.29,-196.85 441.38,-189.8 443.17,-200.24 449.29,-196.85"/>
</a>
</g>
</g>
<!-- Node7 -->
<g id="Node000007" class="node">
<title>Node7</title>
<g id="a_Node000007"><a xlink:href="ILight_8hpp.html" target="_top" xlink:title=" ">
<polygon fill="white" stroke="#666666" points="561,-250 496,-250 496,-231 561,-231 561,-250"/>
<text text-anchor="middle" x="528.5" y="-238" font-family="Helvetica,sans-Serif" font-size="10.00">ILight.hpp</text>
</a>
</g>
</g>
<!-- Node4&#45;&gt;Node7 -->
<g id="edge6_Node000004_Node000007" class="edge">
<title>Node4&#45;&gt;Node7</title>
<g id="a_edge6_Node000004_Node000007"><a xlink:title=" ">
<path fill="none" stroke="#63b8ff" d="M506.34,-291.37C510.06,-282.99 515.83,-270.01 520.55,-259.39"/>
<polygon fill="#63b8ff" stroke="#63b8ff" points="523.78,-260.73 524.65,-250.17 517.39,-257.88 523.78,-260.73"/>
</a>
</g>
</g>
<!-- Node12 -->
<g id="Node000012" class="node">
<title>Node12</title>
<g id="a_Node000012"><a xlink:title=" ">
<polygon fill="#e0e0e0" stroke="#999999" points="707,-189.5 660,-189.5 660,-170.5 707,-170.5 707,-189.5"/>
<text text-anchor="middle" x="683.5" y="-177.5" font-family="Helvetica,sans-Serif" font-size="10.00">vector</text>
</a>
</g>
</g>
<!-- Node4&#45;&gt;Node12 -->
<g id="edge15_Node000004_Node000012" class="edge">
<title>Node4&#45;&gt;Node12</title>
<g id="a_edge15_Node000004_Node000012"><a xlink:title=" ">
<path fill="none" stroke="#63b8ff" d="M515.52,-291.44C546.15,-271.3 623.1,-220.71 661.29,-195.6"/>
<polygon fill="#63b8ff" stroke="#63b8ff" points="663.68,-198.22 670.11,-189.8 659.83,-192.37 663.68,-198.22"/>
</a>
</g>
</g>
<!-- Node6 -->
<g id="Node000006" class="node">
<title>Node6</title>
<g id="a_Node000006"><a xlink:title=" ">
<polygon fill="#e0e0e0" stroke="#999999" points="403.5,-129 339.5,-129 339.5,-110 403.5,-110 403.5,-129"/>
<text text-anchor="middle" x="371.5" y="-117" font-family="Helvetica,sans-Serif" font-size="10.00">algorithm</text>
</a>
</g>
</g>
<!-- Node5&#45;&gt;Node6 -->
<g id="edge5_Node000005_Node000006" class="edge">
<title>Node5&#45;&gt;Node6</title>
<g id="a_edge5_Node000005_Node000006"><a xlink:title=" ">
<path fill="none" stroke="#63b8ff" d="M426.91,-170.37C416.92,-161.38 401.07,-147.11 388.87,-136.14"/>
<polygon fill="#63b8ff" stroke="#63b8ff" points="390.9,-133.26 381.13,-129.17 386.22,-138.46 390.9,-133.26"/>
</a>
</g>
</g>
<!-- Node7&#45;&gt;Node5 -->
<g id="edge12_Node000007_Node000005" class="edge">
<title>Node7&#45;&gt;Node5</title>
<g id="a_edge12_Node000007_Node000005"><a xlink:title=" ">
<path fill="none" stroke="#63b8ff" d="M514.93,-230.87C500.11,-221.45 476.17,-206.23 458.64,-195.08"/>
<polygon fill="#63b8ff" stroke="#63b8ff" points="460.45,-192.08 450.13,-189.67 456.69,-197.99 460.45,-192.08"/>
</a>
</g>
</g>
<!-- Node8 -->
<g id="Node000008" class="node">
<title>Node8</title>
<g id="a_Node000008"><a xlink:href="HitRecord_8hpp.html" target="_top" xlink:title=" ">
<polygon fill="white" stroke="#666666" points="641.5,-195 507.5,-195 507.5,-165 641.5,-165 641.5,-195"/>
<text text-anchor="start" x="515.5" y="-183" font-family="Helvetica,sans-Serif" font-size="10.00">../../Geometry/HitRecord</text>
<text text-anchor="middle" x="574.5" y="-172" font-family="Helvetica,sans-Serif" font-size="10.00">/HitRecord.hpp</text>
</a>
</g>
</g>
<!-- Node7&#45;&gt;Node8 -->
<g id="edge7_Node000007_Node000008" class="edge">
<title>Node7&#45;&gt;Node8</title>
<g id="a_edge7_Node000007_Node000008"><a xlink:title=" ">
<path fill="none" stroke="#63b8ff" d="M535.29,-230.87C541.01,-223.59 549.45,-212.85 557.04,-203.2"/>
<polygon fill="#63b8ff" stroke="#63b8ff" points="559.97,-205.14 563.4,-195.11 554.47,-200.81 559.97,-205.14"/>
</a>
</g>
</g>
<!-- Node7&#45;&gt;Node12 -->
<g id="edge13_Node000007_Node000012" class="edge">
<title>Node7&#45;&gt;Node12</title>
<g id="a_edge13_Node000007_Node000012"><a xlink:title=" ">
<path fill="none" stroke="#63b8ff" d="M553.41,-230.84C578.16,-222.13 617.15,-208.15 650.5,-195 651.71,-194.52 652.93,-194.03 654.17,-193.53"/>
<polygon fill="#63b8ff" stroke="#63b8ff" points="655.77,-196.66 663.67,-189.61 653.1,-190.19 655.77,-196.66"/>
</a>
</g>
</g>
<!-- Node7&#45;&gt;Node13 -->
<g id="edge14_Node000007_Node000013" class="edge">
<title>Node7&#45;&gt;Node13</title>
<g id="a_edge14_Node000007_Node000013"><a xlink:title=" ">
<path fill="none" stroke="#63b8ff" d="M496.44,-230.96C465.15,-222.45 416.28,-208.71 374.5,-195 372.6,-194.38 370.65,-193.72 368.68,-193.04"/>
<polygon fill="#63b8ff" stroke="#63b8ff" points="369.51,-189.62 358.91,-189.56 367.16,-196.21 369.51,-189.62"/>
</a>
</g>
</g>
<!-- Node9 -->
<g id="Node000009" class="node">
<title>Node9</title>
<g id="a_Node000009"><a xlink:href="Point3D_8hpp.html" target="_top" xlink:title=" ">
<polygon fill="white" stroke="#666666" points="257.5,-129 131.5,-129 131.5,-110 257.5,-110 257.5,-129"/>
<text text-anchor="middle" x="194.5" y="-117" font-family="Helvetica,sans-Serif" font-size="10.00">../Point3D/Point3D.hpp</text>
</a>
</g>
</g>
<!-- Node8&#45;&gt;Node9 -->
<g id="edge8_Node000008_Node000009" class="edge">
<title>Node8&#45;&gt;Node9</title>
<g id="a_edge8_Node000008_Node000009"><a xlink:title=" ">
<path fill="none" stroke="#63b8ff" d="M507.39,-166.5C504.39,-165.98 501.41,-165.48 498.5,-165 419.73,-151.98 329.16,-138.98 267.51,-130.42"/>
<polygon fill="#63b8ff" stroke="#63b8ff" points="267.87,-126.94 257.49,-129.03 266.91,-133.87 267.87,-126.94"/>
</a>
</g>
</g>
<!-- Node10 -->
<g id="Node000010" class="node">
<title>Node10</title>
<g id="a_Node000010"><a xlink:href="Vector3D_8hpp.html" target="_top" xlink:title=" ">
<polygon fill="white" stroke="#666666" points="263.5,-74 125.5,-74 125.5,-55 263.5,-55 263.5,-74"/>
<text text-anchor="middle" x="194.5" y="-62" font-family="Helvetica,sans-Serif" font-size="10.00">../Vector3D/Vector3D.hpp</text>
</a>
</g>
</g>
<!-- Node8&#45;&gt;Node10 -->
<g id="edge11_Node000008_Node000010" class="edge">
<title>Node8&#45;&gt;Node10</title>
<g id="a_edge11_Node000008_Node000010"><a xlink:title=" ">
<path fill="none" stroke="#63b8ff" d="M546.19,-164.87C514.36,-149.48 460.8,-125.05 412.5,-110 363.06,-94.6 305.62,-83.12 262.11,-75.69"/>
<polygon fill="#63b8ff" stroke="#63b8ff" points="262.65,-72.23 252.21,-74.02 261.49,-79.13 262.65,-72.23"/>
</a>
</g>
</g>
<!-- Node9&#45;&gt;Node10 -->
<g id="edge9_Node000009_Node000010" class="edge">
<title>Node9&#45;&gt;Node10</title>
<g id="a_edge9_Node000009_Node000010"><a xlink:title=" ">
<path fill="none" stroke="#63b8ff" d="M194.5,-109.75C194.5,-102.8 194.5,-92.85 194.5,-84.13"/>
<polygon fill="#63b8ff" stroke="#63b8ff" points="198,-84.09 194.5,-74.09 191,-84.09 198,-84.09"/>
</a>
</g>
</g>
<!-- Node11 -->
<g id="Node000011" class="node">
<title>Node11</title>
<g id="a_Node000011"><a xlink:title=" ">
<polygon fill="#e0e0e0" stroke="#999999" points="220,-19 169,-19 169,0 220,0 220,-19"/>
<text text-anchor="middle" x="194.5" y="-7" font-family="Helvetica,sans-Serif" font-size="10.00">math.h</text>
</a>
</g>
</g>
<!-- Node10&#45;&gt;Node11 -->
<g id="edge10_Node000010_Node000011" class="edge">
<title>Node10&#45;&gt;Node11</title>
<g id="a_edge10_Node000010_Node000011"><a xlink:title=" ">
<path fill="none" stroke="#63b8ff" d="M194.5,-54.75C194.5,-47.8 194.5,-37.85 194.5,-29.13"/>
<polygon fill="#63b8ff" stroke="#63b8ff" points="198,-29.09 194.5,-19.09 191,-29.09 198,-29.09"/>
</a>
</g>
</g>
<!-- Node15&#45;&gt;Node6 -->
<g id="edge19_Node000015_Node000006" class="edge">
<title>Node15&#45;&gt;Node6</title>
<g id="a_edge19_Node000015_Node000006"><a xlink:title=" ">
<path fill="none" stroke="#63b8ff" d="M238.32,-285.9C244.97,-276.07 253.75,-262.52 260.5,-250 280.15,-213.58 271.16,-196.06 298.5,-165 310.25,-151.66 326.98,-141.06 341.46,-133.56"/>
<polygon fill="#63b8ff" stroke="#63b8ff" points="343.15,-136.63 350.58,-129.08 340.06,-130.35 343.15,-136.63"/>
</a>
</g>
</g>
<!-- Node15&#45;&gt;Node9 -->
<g id="edge22_Node000015_Node000009" class="edge">
<title>Node15&#45;&gt;Node9</title>
<g id="a_edge22_Node000015_Node000009"><a xlink:title=" ">
<path fill="none" stroke="#63b8ff" d="M217.16,-285.62C210.36,-276.1 202.32,-263.02 198.5,-250 187.34,-212.01 189.64,-165.03 192.16,-139.39"/>
<polygon fill="#63b8ff" stroke="#63b8ff" points="195.67,-139.54 193.29,-129.22 188.71,-138.77 195.67,-139.54"/>
</a>
</g>
</g>
<!-- Node15&#45;&gt;Node16 -->
<g id="edge20_Node000015_Node000016" class="edge">
<title>Node15&#45;&gt;Node16</title>
<g id="a_edge20_Node000015_Node000016"><a xlink:title=" ">
<path fill="none" stroke="#63b8ff" d="M179.4,-285.99C141.5,-275.17 90.1,-260.51 56.87,-251.02"/>
<polygon fill="#63b8ff" stroke="#63b8ff" points="57.75,-247.63 47.17,-248.25 55.82,-254.36 57.75,-247.63"/>
</a>
</g>
</g>
<!-- Node17 -->
<g id="Node000017" class="node">
<title>Node17</title>
<g id="a_Node000017"><a xlink:title=" ">
<polygon fill="#e0e0e0" stroke="#999999" points="251.5,-250 207.5,-250 207.5,-231 251.5,-231 251.5,-250"/>
<text text-anchor="middle" x="229.5" y="-238" font-family="Helvetica,sans-Serif" font-size="10.00">limits</text>
</a>
</g>
</g>
<!-- Node15&#45;&gt;Node17 -->
<g id="edge21_Node000015_Node000017" class="edge">
<title>Node15&#45;&gt;Node17</title>
<g id="a_edge21_Node000015_Node000017"><a xlink:title=" ">
<path fill="none" stroke="#63b8ff" d="M228.74,-285.84C228.87,-278.21 229.03,-268.7 229.18,-260.45"/>
<polygon fill="#63b8ff" stroke="#63b8ff" points="232.68,-260.32 229.35,-250.27 225.68,-260.2 232.68,-260.32"/>
</a>
</g>
</g>
<!-- Node15&#45;&gt;Node18 -->
<g id="edge23_Node000015_Node000018" class="edge">
<title>Node15&#45;&gt;Node18</title>
<g id="a_edge23_Node000015_Node000018"><a xlink:title=" ">
<path fill="none" stroke="#63b8ff" d="M199.76,-285.99C180.18,-276.45 154.45,-263.9 135.3,-254.57"/>
<polygon fill="#63b8ff" stroke="#63b8ff" points="136.74,-251.38 126.22,-250.14 133.68,-257.67 136.74,-251.38"/>
</a>
</g>
</g>
<!-- Node18&#45;&gt;Node9 -->
<g id="edge24_Node000018_Node000009" class="edge">
<title>Node18&#45;&gt;Node9</title>
<g id="a_edge24_Node000018_Node000009"><a xlink:title=" ">
<path fill="none" stroke="#63b8ff" d="M114.68,-230.94C128.75,-211.48 163.35,-163.6 182.04,-137.74"/>
<polygon fill="#63b8ff" stroke="#63b8ff" points="185.12,-139.46 188.14,-129.3 179.44,-135.36 185.12,-139.46"/>
</a>
</g>
</g>
<!-- Node18&#45;&gt;Node10 -->
<g id="edge25_Node000018_Node000010" class="edge">
<title>Node18&#45;&gt;Node10</title>
<g id="a_edge25_Node000018_Node000010"><a xlink:title=" ">
<path fill="none" stroke="#63b8ff" d="M107,-230.8C103.67,-208.67 97.78,-149.22 122.5,-110 131.44,-95.83 146.69,-85.45 160.87,-78.3"/>
<polygon fill="#63b8ff" stroke="#63b8ff" points="162.37,-81.46 169.95,-74.06 159.41,-75.12 162.37,-81.46"/>
</a>
</g>
</g>
</g>
</svg>
