<?xml version="1.0" encoding="UTF-8" standalone="no"?>
<!DOCTYPE svg PUBLIC "-//W3C//DTD SVG 1.1//EN"
 "http://www.w3.org/Graphics/SVG/1.1/DTD/svg11.dtd">
<!-- Generated by graphviz version 2.43.0 (0)
 -->
<!-- Title: src/CorePlugin/CorePlugin.hpp Pages: 1 -->
<!--zoomable 511 -->

<svg id="main" version="1.1" xmlns="http://www.w3.org/2000/svg" xmlns:xlink="http://www.w3.org/1999/xlink" xml:space="preserve" onload="init(evt)">
<style type="text/css"><![CDATA[
.node, .edge {opacity: 0.7;}
.node.selected, .edge.selected {opacity: 1;}
.edge:hover path { stroke: red; }
.edge:hover polygon { stroke: red; fill: red; }
]]></style>

<defs>
  <circle id="rim" cx="0" cy="0" r="7"/>
  <circle id="rim2" cx="0" cy="0" r="3.5"/>
  <g id="zoomPlus">
    <use xlink:href="#rim" fill="#404040"><set attributeName="fill" to="#808080" begin="zoomplus.mouseover" end="zoomplus.mouseout"/></use>
    <path d="M-4,0h8M0,-4v8" fill="none" stroke="white" stroke-width="1.5" pointer-events="none"/>
  </g>
  <g id="zoomMin">
    <use xlink:href="#rim" fill="#404040"><set attributeName="fill" to="#808080" begin="zoomminus.mouseover" end="zoomminus.mouseout"/></use>
    <path d="M-4,0h8" fill="none" stroke="white" stroke-width="1.5" pointer-events="none"/>
  </g>
  <g id="arrowUp" transform="translate(30 24)">
    <use xlink:href="#rim"/>
    <path pointer-events="none" fill="none" stroke="white" stroke-width="1.5" d="M0,-3.0v7 M-2.5,-0.5L0,-3.0L2.5,-0.5"/>
  </g>
  <g id="arrowRight" transform="rotate(90) translate(36 -43)">
    <use xlink:href="#rim"/>
    <path pointer-events="none" fill="none" stroke="white" stroke-width="1.5" d="M0,-3.0v7 M-2.5,-0.5L0,-3.0L2.5,-0.5"/>
  </g>
  <g id="arrowDown" transform="rotate(180) translate(-30 -48)">
    <use xlink:href="#rim"/>
    <path pointer-events="none" fill="none" stroke="white" stroke-width="1.5" d="M0,-3.0v7 M-2.5,-0.5L0,-3.0L2.5,-0.5"/>
  </g>
  <g id="arrowLeft" transform="rotate(270) translate(-36 17)">
    <use xlink:href="#rim"/>
    <path pointer-events="none" fill="none" stroke="white" stroke-width="1.5" d="M0,-3.0v7 M-2.5,-0.5L0,-3.0L2.5,-0.5"/>
  </g>
  <g id="resetDef">
    <use xlink:href="#rim2" fill="#404040"><set attributeName="fill" to="#808080" begin="reset.mouseover" end="reset.mouseout"/></use>
  </g>
</defs>
<script type="application/ecmascript">
var viewWidth = 814;
var viewHeight = 511;
var sectionId = 'dynsection-0';
</script>
<script type="application/ecmascript" xlink:href="svg.min.js"/>
<svg id="graph" class="graph">
<g id="viewport">
<title>src/CorePlugin/CorePlugin.hpp</title>
<!-- Node1 -->
<g id="Node000001" class="node">
<title>Node1</title>
<g id="a_Node000001"><a xlink:title=" ">
<polygon fill="#999999" stroke="#666666" points="545,-503 382,-503 382,-484 545,-484 545,-503"/>
<text text-anchor="middle" x="463.5" y="-491" font-family="Helvetica,sans-Serif" font-size="10.00">src/CorePlugin/CorePlugin.hpp</text>
</a>
</g>
</g>
<!-- Node2 -->
<g id="Node000002" class="node">
<title>Node2</title>
<g id="a_Node000002"><a xlink:href="IPlugin_8hpp.html" target="_top" xlink:title=" ">
<polygon fill="white" stroke="#666666" points="523,-448 404,-448 404,-429 523,-429 523,-448"/>
<text text-anchor="middle" x="463.5" y="-436" font-family="Helvetica,sans-Serif" font-size="10.00">../Objects/IPlugin.hpp</text>
</a>
</g>
</g>
<!-- Node1&#45;&gt;Node2 -->
<g id="edge1_Node000001_Node000002" class="edge">
<title>Node1&#45;&gt;Node2</title>
<g id="a_edge1_Node000001_Node000002"><a xlink:title=" ">
<path fill="none" stroke="#63b8ff" d="M463.5,-483.75C463.5,-476.8 463.5,-466.85 463.5,-458.13"/>
<polygon fill="#63b8ff" stroke="#63b8ff" points="467,-458.09 463.5,-448.09 460,-458.09 467,-458.09"/>
</a>
</g>
</g>
<!-- Node3 -->
<g id="Node000003" class="node">
<title>Node3</title>
<g id="a_Node000003"><a xlink:title=" ">
<polygon fill="#e0e0e0" stroke="#999999" points="65,-387.5 0,-387.5 0,-368.5 65,-368.5 65,-387.5"/>
<text text-anchor="middle" x="32.5" y="-375.5" font-family="Helvetica,sans-Serif" font-size="10.00">functional</text>
</a>
</g>
</g>
<!-- Node2&#45;&gt;Node3 -->
<g id="edge2_Node000002_Node000003" class="edge">
<title>Node2&#45;&gt;Node3</title>
<g id="a_edge2_Node000002_Node000003"><a xlink:title=" ">
<path fill="none" stroke="#63b8ff" d="M403.7,-434.68C326.59,-430.14 188.69,-418.92 73.5,-393 70.51,-392.33 67.44,-391.52 64.39,-390.63"/>
<polygon fill="#63b8ff" stroke="#63b8ff" points="65.4,-387.27 54.81,-387.59 63.28,-393.95 65.4,-387.27"/>
</a>
</g>
</g>
<!-- Node4 -->
<g id="Node000004" class="node">
<title>Node4</title>
<g id="a_Node000004"><a xlink:title=" ">
<polygon fill="#e0e0e0" stroke="#999999" points="134,-387.5 83,-387.5 83,-368.5 134,-368.5 134,-387.5"/>
<text text-anchor="middle" x="108.5" y="-375.5" font-family="Helvetica,sans-Serif" font-size="10.00">variant</text>
</a>
</g>
</g>
<!-- Node2&#45;&gt;Node4 -->
<g id="edge3_Node000002_Node000004" class="edge">
<title>Node2&#45;&gt;Node4</title>
<g id="a_edge3_Node000002_Node000004"><a xlink:title=" ">
<path fill="none" stroke="#63b8ff" d="M403.73,-433.75C338.58,-428.61 231.7,-417.13 142.5,-393 140.56,-392.47 138.58,-391.87 136.6,-391.2"/>
<polygon fill="#63b8ff" stroke="#63b8ff" points="137.5,-387.8 126.91,-387.57 135.05,-394.36 137.5,-387.8"/>
</a>
</g>
</g>
<!-- Node5 -->
<g id="Node000005" class="node">
<title>Node5</title>
<g id="a_Node000005"><a xlink:href="RaytracerException_8hpp.html" target="_top" xlink:title=" ">
<polygon fill="white" stroke="#666666" points="329,-393 152,-393 152,-363 329,-363 329,-393"/>
<text text-anchor="start" x="160" y="-381" font-family="Helvetica,sans-Serif" font-size="10.00">../Exceptions/RaytracerException</text>
<text text-anchor="middle" x="240.5" y="-370" font-family="Helvetica,sans-Serif" font-size="10.00">/RaytracerException.hpp</text>
</a>
</g>
</g>
<!-- Node2&#45;&gt;Node5 -->
<g id="edge4_Node000002_Node000005" class="edge">
<title>Node2&#45;&gt;Node5</title>
<g id="a_edge4_Node000002_Node000005"><a xlink:title=" ">
<path fill="none" stroke="#63b8ff" d="M431.07,-428.99C397.86,-420.28 345.36,-406.51 303.86,-395.62"/>
<polygon fill="#63b8ff" stroke="#63b8ff" points="304.67,-392.22 294.11,-393.06 302.9,-398.99 304.67,-392.22"/>
</a>
</g>
</g>
<!-- Node10 -->
<g id="Node000010" class="node">
<title>Node10</title>
<g id="a_Node000010"><a xlink:title=" ">
<polygon fill="#e0e0e0" stroke="#999999" points="484,-387.5 347,-387.5 347,-368.5 484,-368.5 484,-387.5"/>
<text text-anchor="middle" x="415.5" y="-375.5" font-family="Helvetica,sans-Serif" font-size="10.00">Abstracts/AInterface.hpp</text>
</a>
</g>
</g>
<!-- Node2&#45;&gt;Node10 -->
<g id="edge9_Node000002_Node000010" class="edge">
<title>Node2&#45;&gt;Node10</title>
<g id="a_edge9_Node000002_Node000010"><a xlink:title=" ">
<path fill="none" stroke="#63b8ff" d="M456.42,-428.87C449.26,-420.14 438.01,-406.43 429.11,-395.59"/>
<polygon fill="#63b8ff" stroke="#63b8ff" points="431.66,-393.18 422.61,-387.67 426.25,-397.62 431.66,-393.18"/>
</a>
</g>
</g>
<!-- Node11 -->
<g id="Node000011" class="node">
<title>Node11</title>
<g id="a_Node000011"><a xlink:href="APrimitive_8hpp.html" target="_top" xlink:title=" ">
<polygon fill="white" stroke="#666666" points="694.5,-393 578.5,-393 578.5,-363 694.5,-363 694.5,-393"/>
<text text-anchor="start" x="586.5" y="-381" font-family="Helvetica,sans-Serif" font-size="10.00">Abstracts/APrimitive</text>
<text text-anchor="middle" x="636.5" y="-370" font-family="Helvetica,sans-Serif" font-size="10.00">/APrimitive.hpp</text>
</a>
</g>
</g>
<!-- Node2&#45;&gt;Node11 -->
<g id="edge10_Node000002_Node000011" class="edge">
<title>Node2&#45;&gt;Node11</title>
<g id="a_edge10_Node000002_Node000011"><a xlink:title=" ">
<path fill="none" stroke="#63b8ff" d="M488.66,-428.99C513.88,-420.46 553.44,-407.09 585.29,-396.32"/>
<polygon fill="#63b8ff" stroke="#63b8ff" points="586.56,-399.58 594.91,-393.06 584.31,-392.95 586.56,-399.58"/>
</a>
</g>
</g>
<!-- Node12 -->
<g id="Node000012" class="node">
<title>Node12</title>
<g id="a_Node000012"><a xlink:href="IMaterial_8hpp.html" target="_top" xlink:title=" ">
<polygon fill="white" stroke="#666666" points="630.5,-327 540.5,-327 540.5,-308 630.5,-308 630.5,-327"/>
<text text-anchor="middle" x="585.5" y="-315" font-family="Helvetica,sans-Serif" font-size="10.00">../IMaterial.hpp</text>
</a>
</g>
</g>
<!-- Node2&#45;&gt;Node12 -->
<g id="edge34_Node000002_Node000012" class="edge">
<title>Node2&#45;&gt;Node12</title>
<g id="a_edge34_Node000002_Node000012"><a xlink:title=" ">
<path fill="none" stroke="#63b8ff" d="M478.14,-428.85C491.51,-420.57 511.43,-407.27 526.5,-393 545.13,-375.36 562.89,-351.67 573.97,-335.78"/>
<polygon fill="#63b8ff" stroke="#63b8ff" points="576.92,-337.66 579.68,-327.43 571.15,-333.71 576.92,-337.66"/>
</a>
</g>
</g>
<!-- Node20 -->
<g id="Node000020" class="node">
<title>Node20</title>
<g id="a_Node000020"><a xlink:href="ILight_8hpp.html" target="_top" xlink:title=" ">
<polygon fill="white" stroke="#666666" points="534,-266.5 469,-266.5 469,-247.5 534,-247.5 534,-266.5"/>
<text text-anchor="middle" x="501.5" y="-254.5" font-family="Helvetica,sans-Serif" font-size="10.00">ILight.hpp</text>
</a>
</g>
</g>
<!-- Node2&#45;&gt;Node20 -->
<g id="edge33_Node000002_Node000020" class="edge">
<title>Node2&#45;&gt;Node20</title>
<g id="a_edge33_Node000002_Node000020"><a xlink:title=" ">
<path fill="none" stroke="#63b8ff" d="M471.52,-428.74C478.72,-420.28 488.84,-406.77 493.5,-393 506.93,-353.28 505.52,-303.29 503.43,-276.68"/>
<polygon fill="#63b8ff" stroke="#63b8ff" points="506.9,-276.15 502.51,-266.51 499.93,-276.79 506.9,-276.15"/>
</a>
</g>
</g>
<!-- Node25 -->
<g id="Node000025" class="node">
<title>Node25</title>
<g id="a_Node000025"><a xlink:href="ARenderer_8hpp.html" target="_top" xlink:title=" ">
<polygon fill="white" stroke="#666666" points="805.5,-272 689.5,-272 689.5,-242 805.5,-242 805.5,-272"/>
<text text-anchor="start" x="697.5" y="-260" font-family="Helvetica,sans-Serif" font-size="10.00">Abstracts/ARenderer</text>
<text text-anchor="middle" x="747.5" y="-249" font-family="Helvetica,sans-Serif" font-size="10.00">/ARenderer.hpp</text>
</a>
</g>
</g>
<!-- Node2&#45;&gt;Node25 -->
<g id="edge30_Node000002_Node000025" class="edge">
<title>Node2&#45;&gt;Node25</title>
<g id="a_edge30_Node000002_Node000025"><a xlink:title=" ">
<path fill="none" stroke="#63b8ff" d="M523.23,-433.34C585.38,-427.83 677.25,-416.01 703.5,-393 735.53,-364.93 744.37,-313.25 746.73,-282.62"/>
<polygon fill="#63b8ff" stroke="#63b8ff" points="750.24,-282.56 747.34,-272.37 743.25,-282.15 750.24,-282.56"/>
</a>
</g>
</g>
<!-- Node6 -->
<g id="Node000006" class="node">
<title>Node6</title>
<g id="a_Node000006"><a xlink:title=" ">
<polygon fill="#e0e0e0" stroke="#999999" points="157,-327 92,-327 92,-308 157,-308 157,-327"/>
<text text-anchor="middle" x="124.5" y="-315" font-family="Helvetica,sans-Serif" font-size="10.00">exception</text>
</a>
</g>
</g>
<!-- Node5&#45;&gt;Node6 -->
<g id="edge5_Node000005_Node000006" class="edge">
<title>Node5&#45;&gt;Node6</title>
<g id="a_edge5_Node000005_Node000006"><a xlink:title=" ">
<path fill="none" stroke="#63b8ff" d="M212.72,-362.99C193.88,-353.49 169.15,-341.02 150.66,-331.69"/>
<polygon fill="#63b8ff" stroke="#63b8ff" points="152.14,-328.52 141.63,-327.14 148.98,-334.77 152.14,-328.52"/>
</a>
</g>
</g>
<!-- Node7 -->
<g id="Node000007" class="node">
<title>Node7</title>
<g id="a_Node000007"><a xlink:title=" ">
<polygon fill="#e0e0e0" stroke="#999999" points="235.5,-327 175.5,-327 175.5,-308 235.5,-308 235.5,-327"/>
<text text-anchor="middle" x="205.5" y="-315" font-family="Helvetica,sans-Serif" font-size="10.00">iostream</text>
</a>
</g>
</g>
<!-- Node5&#45;&gt;Node7 -->
<g id="edge6_Node000005_Node000007" class="edge">
<title>Node5&#45;&gt;Node7</title>
<g id="a_edge6_Node000005_Node000007"><a xlink:title=" ">
<path fill="none" stroke="#63b8ff" d="M232.03,-362.84C227.21,-354.78 221.13,-344.62 216,-336.06"/>
<polygon fill="#63b8ff" stroke="#63b8ff" points="218.88,-334.05 210.74,-327.27 212.88,-337.64 218.88,-334.05"/>
</a>
</g>
</g>
<!-- Node8 -->
<g id="Node000008" class="node">
<title>Node8</title>
<g id="a_Node000008"><a xlink:title=" ">
<polygon fill="#e0e0e0" stroke="#999999" points="297.5,-327 253.5,-327 253.5,-308 297.5,-308 297.5,-327"/>
<text text-anchor="middle" x="275.5" y="-315" font-family="Helvetica,sans-Serif" font-size="10.00">string</text>
</a>
</g>
</g>
<!-- Node5&#45;&gt;Node8 -->
<g id="edge7_Node000005_Node000008" class="edge">
<title>Node5&#45;&gt;Node8</title>
<g id="a_edge7_Node000005_Node000008"><a xlink:title=" ">
<path fill="none" stroke="#63b8ff" d="M248.97,-362.84C253.79,-354.78 259.87,-344.62 265,-336.06"/>
<polygon fill="#63b8ff" stroke="#63b8ff" points="268.12,-337.64 270.26,-327.27 262.12,-334.05 268.12,-337.64"/>
</a>
</g>
</g>
<!-- Node9 -->
<g id="Node000009" class="node">
<title>Node9</title>
<g id="a_Node000009"><a xlink:title=" ">
<polygon fill="#e0e0e0" stroke="#999999" points="409,-327 316,-327 316,-308 409,-308 409,-327"/>
<text text-anchor="middle" x="362.5" y="-315" font-family="Helvetica,sans-Serif" font-size="10.00">source_location</text>
</a>
</g>
</g>
<!-- Node5&#45;&gt;Node9 -->
<g id="edge8_Node000005_Node000009" class="edge">
<title>Node5&#45;&gt;Node9</title>
<g id="a_edge8_Node000005_Node000009"><a xlink:title=" ">
<path fill="none" stroke="#63b8ff" d="M269.72,-362.99C289.62,-353.45 315.78,-340.9 335.25,-331.57"/>
<polygon fill="#63b8ff" stroke="#63b8ff" points="336.98,-334.62 344.48,-327.14 333.95,-328.31 336.98,-334.62"/>
</a>
</g>
</g>
<!-- Node11&#45;&gt;Node12 -->
<g id="edge11_Node000011_Node000012" class="edge">
<title>Node11&#45;&gt;Node12</title>
<g id="a_edge11_Node000011_Node000012"><a xlink:title=" ">
<path fill="none" stroke="#63b8ff" d="M624.15,-362.84C616.83,-354.43 607.5,-343.74 599.85,-334.96"/>
<polygon fill="#63b8ff" stroke="#63b8ff" points="602.35,-332.5 593.14,-327.27 597.08,-337.1 602.35,-332.5"/>
</a>
</g>
</g>
<!-- Node13 -->
<g id="Node000013" class="node">
<title>Node13</title>
<g id="a_Node000013"><a xlink:href="HitRecord_8hpp.html" target="_top" xlink:title=" ">
<polygon fill="white" stroke="#666666" points="389.5,-206 255.5,-206 255.5,-176 389.5,-176 389.5,-206"/>
<text text-anchor="start" x="263.5" y="-194" font-family="Helvetica,sans-Serif" font-size="10.00">../../Geometry/HitRecord</text>
<text text-anchor="middle" x="322.5" y="-183" font-family="Helvetica,sans-Serif" font-size="10.00">/HitRecord.hpp</text>
</a>
</g>
</g>
<!-- Node12&#45;&gt;Node13 -->
<g id="edge12_Node000012_Node000013" class="edge">
<title>Node12&#45;&gt;Node13</title>
<g id="a_edge12_Node000012_Node000013"><a xlink:title=" ">
<path fill="none" stroke="#63b8ff" d="M556.36,-307.93C530.42,-299.91 491.7,-286.93 459.5,-272 421.11,-254.21 379.46,-228.96 352.28,-211.61"/>
<polygon fill="#63b8ff" stroke="#63b8ff" points="353.95,-208.52 343.65,-206.05 350.16,-214.41 353.95,-208.52"/>
</a>
</g>
</g>
<!-- Node18 -->
<g id="Node000018" class="node">
<title>Node18</title>
<g id="a_Node000018"><a xlink:href="Color_8hpp.html" target="_top" xlink:title=" ">
<polygon fill="white" stroke="#666666" points="681.5,-200.5 575.5,-200.5 575.5,-181.5 681.5,-181.5 681.5,-200.5"/>
<text text-anchor="middle" x="628.5" y="-188.5" font-family="Helvetica,sans-Serif" font-size="10.00">../../Utils/Color.hpp</text>
</a>
</g>
</g>
<!-- Node12&#45;&gt;Node18 -->
<g id="edge18_Node000012_Node000018" class="edge">
<title>Node12&#45;&gt;Node18</title>
<g id="a_edge18_Node000012_Node000018"><a xlink:title=" ">
<path fill="none" stroke="#63b8ff" d="M588.16,-307.73C592.45,-293.76 601.22,-265.59 609.5,-242 613.21,-231.43 617.64,-219.72 621.29,-210.29"/>
<polygon fill="#63b8ff" stroke="#63b8ff" points="624.62,-211.39 625,-200.8 618.1,-208.84 624.62,-211.39"/>
</a>
</g>
</g>
<!-- Node12&#45;&gt;Node20 -->
<g id="edge20_Node000012_Node000020" class="edge">
<title>Node12&#45;&gt;Node20</title>
<g id="a_edge20_Node000012_Node000020"><a xlink:title=" ">
<path fill="none" stroke="#63b8ff" d="M573.11,-307.87C559.71,-298.54 538.12,-283.51 522.15,-272.38"/>
<polygon fill="#63b8ff" stroke="#63b8ff" points="524.15,-269.51 513.95,-266.67 520.15,-275.25 524.15,-269.51"/>
</a>
</g>
</g>
<!-- Node23 -->
<g id="Node000023" class="node">
<title>Node23</title>
<g id="a_Node000023"><a xlink:title=" ">
<polygon fill="#e0e0e0" stroke="#999999" points="749,-134.5 702,-134.5 702,-115.5 749,-115.5 749,-134.5"/>
<text text-anchor="middle" x="725.5" y="-122.5" font-family="Helvetica,sans-Serif" font-size="10.00">vector</text>
</a>
</g>
</g>
<!-- Node12&#45;&gt;Node23 -->
<g id="edge29_Node000012_Node000023" class="edge">
<title>Node12&#45;&gt;Node23</title>
<g id="a_edge29_Node000012_Node000023"><a xlink:title=" ">
<path fill="none" stroke="#63b8ff" d="M595.68,-307.99C615.97,-290.6 661.95,-248.99 690.5,-206 703.43,-186.52 713.49,-161.48 719.43,-144.65"/>
<polygon fill="#63b8ff" stroke="#63b8ff" points="722.84,-145.5 722.74,-134.91 716.21,-143.25 722.84,-145.5"/>
</a>
</g>
</g>
<!-- Node14 -->
<g id="Node000014" class="node">
<title>Node14</title>
<g id="a_Node000014"><a xlink:href="Point3D_8hpp.html" target="_top" xlink:title=" ">
<polygon fill="white" stroke="#666666" points="245.5,-134.5 119.5,-134.5 119.5,-115.5 245.5,-115.5 245.5,-134.5"/>
<text text-anchor="middle" x="182.5" y="-122.5" font-family="Helvetica,sans-Serif" font-size="10.00">../Point3D/Point3D.hpp</text>
</a>
</g>
</g>
<!-- Node13&#45;&gt;Node14 -->
<g id="edge13_Node000013_Node000014" class="edge">
<title>Node13&#45;&gt;Node14</title>
<g id="a_edge13_Node000013_Node000014"><a xlink:title=" ">
<path fill="none" stroke="#63b8ff" d="M291.78,-175.95C267.55,-164.88 234.04,-149.56 210.54,-138.82"/>
<polygon fill="#63b8ff" stroke="#63b8ff" points="211.68,-135.49 201.13,-134.52 208.77,-141.86 211.68,-135.49"/>
</a>
</g>
</g>
<!-- Node15 -->
<g id="Node000015" class="node">
<title>Node15</title>
<g id="a_Node000015"><a xlink:href="Vector3D_8hpp.html" target="_top" xlink:title=" ">
<polygon fill="white" stroke="#666666" points="205.5,-74 67.5,-74 67.5,-55 205.5,-55 205.5,-74"/>
<text text-anchor="middle" x="136.5" y="-62" font-family="Helvetica,sans-Serif" font-size="10.00">../Vector3D/Vector3D.hpp</text>
</a>
</g>
</g>
<!-- Node13&#45;&gt;Node15 -->
<g id="edge16_Node000013_Node000015" class="edge">
<title>Node13&#45;&gt;Node15</title>
<g id="a_edge16_Node000013_Node000015"><a xlink:title=" ">
<path fill="none" stroke="#63b8ff" d="M255.34,-183.18C200.2,-176.02 128.4,-162.61 110.5,-140 97.01,-122.96 110.22,-98.43 122.22,-82.24"/>
<polygon fill="#63b8ff" stroke="#63b8ff" points="125.12,-84.22 128.59,-74.2 119.64,-79.87 125.12,-84.22"/>
</a>
</g>
</g>
<!-- Node17 -->
<g id="Node000017" class="node">
<title>Node17</title>
<g id="a_Node000017"><a xlink:title=" ">
<polygon fill="#e0e0e0" stroke="#999999" points="381.5,-140 263.5,-140 263.5,-110 381.5,-110 381.5,-140"/>
<text text-anchor="start" x="271.5" y="-128" font-family="Helvetica,sans-Serif" font-size="10.00">../../Objects/Interface</text>
<text text-anchor="middle" x="322.5" y="-117" font-family="Helvetica,sans-Serif" font-size="10.00">/IMaterial.hpp</text>
</a>
</g>
</g>
<!-- Node13&#45;&gt;Node17 -->
<g id="edge17_Node000013_Node000017" class="edge">
<title>Node13&#45;&gt;Node17</title>
<g id="a_edge17_Node000013_Node000017"><a xlink:title=" ">
<path fill="none" stroke="#63b8ff" d="M322.5,-175.8C322.5,-168.34 322.5,-158.99 322.5,-150.41"/>
<polygon fill="#63b8ff" stroke="#63b8ff" points="326,-150.16 322.5,-140.16 319,-150.16 326,-150.16"/>
</a>
</g>
</g>
<!-- Node14&#45;&gt;Node15 -->
<g id="edge14_Node000014_Node000015" class="edge">
<title>Node14&#45;&gt;Node15</title>
<g id="a_edge14_Node000014_Node000015"><a xlink:title=" ">
<path fill="none" stroke="#63b8ff" d="M175.71,-115.37C168.85,-106.64 158.07,-92.93 149.55,-82.09"/>
<polygon fill="#63b8ff" stroke="#63b8ff" points="152.25,-79.86 143.32,-74.17 146.75,-84.19 152.25,-79.86"/>
</a>
</g>
</g>
<!-- Node16 -->
<g id="Node000016" class="node">
<title>Node16</title>
<g id="a_Node000016"><a xlink:title=" ">
<polygon fill="#e0e0e0" stroke="#999999" points="162,-19 111,-19 111,0 162,0 162,-19"/>
<text text-anchor="middle" x="136.5" y="-7" font-family="Helvetica,sans-Serif" font-size="10.00">math.h</text>
</a>
</g>
</g>
<!-- Node15&#45;&gt;Node16 -->
<g id="edge15_Node000015_Node000016" class="edge">
<title>Node15&#45;&gt;Node16</title>
<g id="a_edge15_Node000015_Node000016"><a xlink:title=" ">
<path fill="none" stroke="#63b8ff" d="M136.5,-54.75C136.5,-47.8 136.5,-37.85 136.5,-29.13"/>
<polygon fill="#63b8ff" stroke="#63b8ff" points="140,-29.09 136.5,-19.09 133,-29.09 140,-29.09"/>
</a>
</g>
</g>
<!-- Node19 -->
<g id="Node000019" class="node">
<title>Node19</title>
<g id="a_Node000019"><a xlink:title=" ">
<polygon fill="#e0e0e0" stroke="#999999" points="683.5,-134.5 619.5,-134.5 619.5,-115.5 683.5,-115.5 683.5,-134.5"/>
<text text-anchor="middle" x="651.5" y="-122.5" font-family="Helvetica,sans-Serif" font-size="10.00">algorithm</text>
</a>
</g>
</g>
<!-- Node18&#45;&gt;Node19 -->
<g id="edge19_Node000018_Node000019" class="edge">
<title>Node18&#45;&gt;Node19</title>
<g id="a_edge19_Node000018_Node000019"><a xlink:title=" ">
<path fill="none" stroke="#63b8ff" d="M631.6,-181.37C634.98,-171.97 640.48,-156.67 644.84,-144.53"/>
<polygon fill="#63b8ff" stroke="#63b8ff" points="648.21,-145.5 648.3,-134.91 641.62,-143.13 648.21,-145.5"/>
</a>
</g>
</g>
<!-- Node20&#45;&gt;Node13 -->
<g id="edge21_Node000020_Node000013" class="edge">
<title>Node20&#45;&gt;Node13</title>
<g id="a_edge21_Node000020_Node000013"><a xlink:title=" ">
<path fill="none" stroke="#63b8ff" d="M477.36,-247.37C450.43,-237.74 406.16,-221.91 371.83,-209.64"/>
<polygon fill="#63b8ff" stroke="#63b8ff" points="372.57,-206.19 361.98,-206.12 370.22,-212.78 372.57,-206.19"/>
</a>
</g>
</g>
<!-- Node20&#45;&gt;Node18 -->
<g id="edge22_Node000020_Node000018" class="edge">
<title>Node20&#45;&gt;Node18</title>
<g id="a_edge22_Node000020_Node000018"><a xlink:title=" ">
<path fill="none" stroke="#63b8ff" d="M518.63,-247.37C540.12,-236.54 577.2,-217.85 602.27,-205.22"/>
<polygon fill="#63b8ff" stroke="#63b8ff" points="603.88,-208.32 611.24,-200.7 600.73,-202.07 603.88,-208.32"/>
</a>
</g>
</g>
<!-- Node21 -->
<g id="Node000021" class="node">
<title>Node21</title>
<g id="a_Node000021"><a xlink:href="Scene_8hpp.html" target="_top" xlink:title=" ">
<polygon fill="white" stroke="#666666" points="557,-206 424,-206 424,-176 557,-176 557,-206"/>
<text text-anchor="start" x="432" y="-194" font-family="Helvetica,sans-Serif" font-size="10.00">../../SceneSystem/Scene</text>
<text text-anchor="middle" x="490.5" y="-183" font-family="Helvetica,sans-Serif" font-size="10.00">/Scene.hpp</text>
</a>
</g>
</g>
<!-- Node20&#45;&gt;Node21 -->
<g id="edge23_Node000020_Node000021" class="edge">
<title>Node20&#45;&gt;Node21</title>
<g id="a_edge23_Node000020_Node000021"><a xlink:title=" ">
<path fill="none" stroke="#63b8ff" d="M495.23,-247.37C492.19,-239.49 489.52,-227.45 488.14,-216.6"/>
<polygon fill="#63b8ff" stroke="#63b8ff" points="491.6,-216.01 487.23,-206.36 484.63,-216.63 491.6,-216.01"/>
</a>
</g>
</g>
<!-- Node21&#45;&gt;Node11 -->
<g id="edge25_Node000021_Node000011" class="edge">
<title>Node21&#45;&gt;Node11</title>
<g id="a_edge25_Node000021_Node000011"><a xlink:title=" ">
<path fill="none" stroke="#63b8ff" d="M522.64,-206.16C558.7,-224.02 615.31,-258.52 639.5,-308 646.3,-321.91 645.48,-339.33 642.99,-353.19"/>
<polygon fill="#63b8ff" stroke="#63b8ff" points="639.57,-352.47 640.87,-362.98 646.41,-353.95 639.57,-352.47"/>
</a>
</g>
</g>
<!-- Node21&#45;&gt;Node20 -->
<g id="edge26_Node000021_Node000020" class="edge">
<title>Node21&#45;&gt;Node20</title>
<g id="a_edge26_Node000021_Node000020"><a xlink:title=" ">
<path fill="none" stroke="#63b8ff" d="M498.71,-206.36C501.45,-215.51 503.66,-227.47 504.49,-237.35"/>
<polygon fill="#63b8ff" stroke="#63b8ff" points="501,-237.48 504.81,-247.37 507.99,-237.26 501,-237.48"/>
</a>
</g>
</g>
<!-- Node22 -->
<g id="Node000022" class="node">
<title>Node22</title>
<g id="a_Node000022"><a xlink:title=" ">
<polygon fill="#e0e0e0" stroke="#999999" points="601.5,-134.5 475.5,-134.5 475.5,-115.5 601.5,-115.5 601.5,-134.5"/>
<text text-anchor="middle" x="538.5" y="-122.5" font-family="Helvetica,sans-Serif" font-size="10.00">../Camera/Camera.hpp</text>
</a>
</g>
</g>
<!-- Node21&#45;&gt;Node22 -->
<g id="edge24_Node000021_Node000022" class="edge">
<title>Node21&#45;&gt;Node22</title>
<g id="a_edge24_Node000021_Node000022"><a xlink:title=" ">
<path fill="none" stroke="#63b8ff" d="M501.15,-175.8C508.42,-166.11 518.07,-153.24 525.74,-143.01"/>
<polygon fill="#63b8ff" stroke="#63b8ff" points="528.67,-144.94 531.87,-134.84 523.07,-140.74 528.67,-144.94"/>
</a>
</g>
</g>
<!-- Node21&#45;&gt;Node23 -->
<g id="edge27_Node000021_Node000023" class="edge">
<title>Node21&#45;&gt;Node23</title>
<g id="a_edge27_Node000021_Node000023"><a xlink:title=" ">
<path fill="none" stroke="#63b8ff" d="M557.21,-176.28C596.95,-167.42 648.12,-154.8 692.5,-140 694.12,-139.46 695.78,-138.87 697.44,-138.26"/>
<polygon fill="#63b8ff" stroke="#63b8ff" points="698.85,-141.46 706.85,-134.52 696.27,-134.96 698.85,-141.46"/>
</a>
</g>
</g>
<!-- Node24 -->
<g id="Node000024" class="node">
<title>Node24</title>
<g id="a_Node000024"><a xlink:title=" ">
<polygon fill="#e0e0e0" stroke="#999999" points="457.5,-134.5 399.5,-134.5 399.5,-115.5 457.5,-115.5 457.5,-134.5"/>
<text text-anchor="middle" x="428.5" y="-122.5" font-family="Helvetica,sans-Serif" font-size="10.00">memory</text>
</a>
</g>
</g>
<!-- Node21&#45;&gt;Node24 -->
<g id="edge28_Node000021_Node000024" class="edge">
<title>Node21&#45;&gt;Node24</title>
<g id="a_edge28_Node000021_Node000024"><a xlink:title=" ">
<path fill="none" stroke="#63b8ff" d="M476.74,-175.8C467.07,-165.82 454.13,-152.46 444.08,-142.09"/>
<polygon fill="#63b8ff" stroke="#63b8ff" points="446.54,-139.59 437.07,-134.84 441.51,-144.46 446.54,-139.59"/>
</a>
</g>
</g>
<!-- Node25&#45;&gt;Node18 -->
<g id="edge31_Node000025_Node000018" class="edge">
<title>Node25&#45;&gt;Node18</title>
<g id="a_edge31_Node000025_Node000018"><a xlink:title=" ">
<path fill="none" stroke="#63b8ff" d="M721.38,-241.95C701.16,-231.08 673.32,-216.11 653.41,-205.4"/>
<polygon fill="#63b8ff" stroke="#63b8ff" points="654.8,-202.17 644.34,-200.52 651.49,-208.34 654.8,-202.17"/>
</a>
</g>
</g>
<!-- Node25&#45;&gt;Node23 -->
<g id="edge32_Node000025_Node000023" class="edge">
<title>Node25&#45;&gt;Node23</title>
<g id="a_edge32_Node000025_Node000023"><a xlink:title=" ">
<path fill="none" stroke="#63b8ff" d="M745.1,-241.84C741.13,-218.34 733.16,-171.26 728.7,-144.93"/>
<polygon fill="#63b8ff" stroke="#63b8ff" points="732.1,-144.02 726.98,-134.75 725.2,-145.19 732.1,-144.02"/>
</a>
</g>
</g>
</g>
</svg>

<g id="navigator" transform="translate(0 0)" fill="#404254">
  <rect fill="#f2f5e9" fill-opacity="0.5" stroke="#606060" stroke-width=".5" x="0" y="0" width="60" height="60"/>
  <use id="zoomplus" xlink:href="#zoomPlus" x="17" y="9" onmousedown="handleZoom(evt,'in')"/>
  <use id="zoomminus" xlink:href="#zoomMin" x="42" y="9" onmousedown="handleZoom(evt,'out')"/>
  <use id="reset" xlink:href="#resetDef" x="30" y="36" onmousedown="handleReset()"/>
   <use id="arrowup" xlink:href="#arrowUp" x="0" y="0" onmousedown="handlePan(0,-1)"/>
  <use id="arrowright" xlink:href="#arrowRight" x="0" y="0" onmousedown="handlePan(1,0)"/>
  <use id="arrowdown" xlink:href="#arrowDown" x="0" y="0" onmousedown="handlePan(0,1)"/>
  <use id="arrowleft" xlink:href="#arrowLeft" x="0" y="0" onmousedown="handlePan(-1,0)"/>
</g>
<svg viewBox="0 0 15 15" width="100%" height="30px" preserveAspectRatio="xMaxYMin meet">
 <g id="arrow_out" transform="scale(0.3 0.3)">
  <a xlink:href="CorePlugin_8hpp__incl_org.svg" target="_base">
   <rect id="button" ry="5" rx="5" y="6" x="6" height="38" width="38"
        fill="#f2f5e9" fill-opacity="0.5" stroke="#606060" stroke-width="1.0"/>
   <path id="arrow"
     d="M 11.500037,31.436501 C 11.940474,20.09759 22.043105,11.32322 32.158766,21.979434 L 37.068811,17.246167 C 37.068811,17.246167 37.088388,32 37.088388,32 L 22.160133,31.978069 C 22.160133,31.978069 26.997745,27.140456 26.997745,27.140456 C 18.528582,18.264221 13.291696,25.230495 11.500037,31.436501 z"
     style="fill:#404040;"/>
  </a>
 </g>
</svg>

<style type='text/css'>
<![CDATA[
[data-mouse-over-selected='false'] { opacity: 0.7; }
[data-mouse-over-selected='true']  { opacity: 1.0; }
]]>
</style>
<script type="application/ecmascript"><![CDATA[
document.addEventListener('DOMContentLoaded', (event) => {
  highlightEdges();
  highlightAdjacentNodes();
});
]]></script>
</svg>
