<?xml version="1.0" encoding="UTF-8" standalone="no"?>
<!DOCTYPE svg PUBLIC "-//W3C//DTD SVG 1.1//EN"
 "http://www.w3.org/Graphics/SVG/1.1/DTD/svg11.dtd">
<!-- Generated by graphviz version 2.43.0 (0)
 -->
<!-- Title: src/Objects/Plugins/CorePlugin/CorePlugin.cpp Pages: 1 -->
<svg width="1476pt" height="577pt"
 viewBox="0.00 0.00 1476.00 577.00" xmlns="http://www.w3.org/2000/svg" xmlns:xlink="http://www.w3.org/1999/xlink">
<g id="graph0" class="graph" transform="scale(1 1) rotate(0) translate(4 573)">
<title>src/Objects/Plugins/CorePlugin/CorePlugin.cpp</title>
<!-- Node1 -->
<g id="Node000001" class="node">
<title>Node1</title>
<g id="a_Node000001"><a xlink:title=" ">
<polygon fill="#999999" stroke="#666666" points="983,-569 835,-569 835,-539 983,-539 983,-569"/>
<text text-anchor="start" x="843" y="-557" font-family="Helvetica,sans-Serif" font-size="10.00">src/Objects/Plugins</text>
<text text-anchor="middle" x="909" y="-546" font-family="Helvetica,sans-Serif" font-size="10.00">/CorePlugin/CorePlugin.cpp</text>
</a>
</g>
</g>
<!-- Node2 -->
<g id="Node000002" class="node">
<title>Node2</title>
<g id="a_Node000002"><a xlink:href="SceneWriter_8hpp.html" target="_top" xlink:title=" ">
<polygon fill="white" stroke="#666666" points="677,-503 549,-503 549,-473 677,-473 677,-503"/>
<text text-anchor="start" x="557" y="-491" font-family="Helvetica,sans-Serif" font-size="10.00">Interfaces/SceneWriter</text>
<text text-anchor="middle" x="613" y="-480" font-family="Helvetica,sans-Serif" font-size="10.00">/SceneWriter.hpp</text>
</a>
</g>
</g>
<!-- Node1&#45;&gt;Node2 -->
<g id="edge1_Node000001_Node000002" class="edge">
<title>Node1&#45;&gt;Node2</title>
<g id="a_edge1_Node000001_Node000002"><a xlink:title=" ">
<path fill="none" stroke="#63b8ff" d="M844.04,-538.95C797.73,-528.94 735.37,-515.46 687.12,-505.03"/>
<polygon fill="#63b8ff" stroke="#63b8ff" points="687.56,-501.54 677.04,-502.85 686.08,-508.38 687.56,-501.54"/>
</a>
</g>
</g>
<!-- Node3 -->
<g id="Node000003" class="node">
<title>Node3</title>
<g id="a_Node000003"><a xlink:href="Plugin_8hpp.html" target="_top" xlink:title=" ">
<polygon fill="white" stroke="#666666" points="664,-437 560,-437 560,-418 664,-418 664,-437"/>
<text text-anchor="middle" x="612" y="-425" font-family="Helvetica,sans-Serif" font-size="10.00">../../../../Plugin.hpp</text>
</a>
</g>
</g>
<!-- Node1&#45;&gt;Node3 -->
<g id="edge37_Node000001_Node000003" class="edge">
<title>Node1&#45;&gt;Node3</title>
<g id="a_edge37_Node000001_Node000003"><a xlink:title=" ">
<path fill="none" stroke="#63b8ff" d="M858.65,-538.96C828.19,-529.9 788.83,-517.19 755,-503 711.59,-484.79 663.5,-458.36 635.62,-442.36"/>
<polygon fill="#63b8ff" stroke="#63b8ff" points="637.04,-439.14 626.64,-437.17 633.54,-445.2 637.04,-439.14"/>
</a>
</g>
</g>
<!-- Node15 -->
<g id="Node000015" class="node">
<title>Node15</title>
<g id="a_Node000015"><a xlink:href="Color_8hpp.html" target="_top" xlink:title=" ">
<polygon fill="white" stroke="#666666" points="532.5,-189.5 417.5,-189.5 417.5,-170.5 532.5,-170.5 532.5,-189.5"/>
<text text-anchor="middle" x="475" y="-177.5" font-family="Helvetica,sans-Serif" font-size="10.00">../../../Utils/Color.hpp</text>
</a>
</g>
</g>
<!-- Node1&#45;&gt;Node15 -->
<g id="edge40_Node000001_Node000015" class="edge">
<title>Node1&#45;&gt;Node15</title>
<g id="a_edge40_Node000001_Node000015"><a xlink:title=" ">
<path fill="none" stroke="#63b8ff" d="M835,-550.61C618.25,-542.65 0,-512.57 0,-428.5 0,-428.5 0,-428.5 0,-305.5 0,-222.39 275.52,-193.66 406.88,-184.68"/>
<polygon fill="#63b8ff" stroke="#63b8ff" points="407.48,-188.15 417.23,-184 407.02,-181.17 407.48,-188.15"/>
</a>
</g>
</g>
<!-- Node22 -->
<g id="Node000022" class="node">
<title>Node22</title>
<g id="a_Node000022"><a xlink:href="Point3D_8hpp.html" target="_top" xlink:title=" ">
<polygon fill="white" stroke="#666666" points="1378,-129 1252,-129 1252,-110 1378,-110 1378,-129"/>
<text text-anchor="middle" x="1315" y="-117" font-family="Helvetica,sans-Serif" font-size="10.00">../Point3D/Point3D.hpp</text>
</a>
</g>
</g>
<!-- Node1&#45;&gt;Node22 -->
<g id="edge38_Node000001_Node000022" class="edge">
<title>Node1&#45;&gt;Node22</title>
<g id="a_edge38_Node000001_Node000022"><a xlink:title=" ">
<path fill="none" stroke="#63b8ff" d="M983.09,-550.63C1126.93,-544.01 1430,-519.29 1430,-428.5 1430,-428.5 1430,-428.5 1430,-305.5 1430,-233.29 1366.03,-165.88 1333.51,-136.28"/>
<polygon fill="#63b8ff" stroke="#63b8ff" points="1335.42,-133.3 1325.61,-129.28 1330.77,-138.53 1335.42,-133.3"/>
</a>
</g>
</g>
<!-- Node23 -->
<g id="Node000023" class="node">
<title>Node23</title>
<g id="a_Node000023"><a xlink:href="Vector3D_8hpp.html" target="_top" xlink:title=" ">
<polygon fill="white" stroke="#666666" points="1337,-74 1199,-74 1199,-55 1337,-55 1337,-74"/>
<text text-anchor="middle" x="1268" y="-62" font-family="Helvetica,sans-Serif" font-size="10.00">../Vector3D/Vector3D.hpp</text>
</a>
</g>
</g>
<!-- Node1&#45;&gt;Node23 -->
<g id="edge39_Node000001_Node000023" class="edge">
<title>Node1&#45;&gt;Node23</title>
<g id="a_edge39_Node000001_Node000023"><a xlink:title=" ">
<path fill="none" stroke="#63b8ff" d="M983.2,-550.56C1097.87,-545.88 1312.22,-533.29 1382,-503 1428.39,-482.86 1468,-479.07 1468,-428.5 1468,-428.5 1468,-428.5 1468,-179 1468,-117.86 1396.43,-89.25 1338.92,-76.13"/>
<polygon fill="#63b8ff" stroke="#63b8ff" points="1339.61,-72.7 1329.09,-74.01 1338.13,-79.54 1339.61,-72.7"/>
</a>
</g>
</g>
<!-- Node27 -->
<g id="Node000027" class="node">
<title>Node27</title>
<g id="a_Node000027"><a xlink:href="Lambertian_8hpp.html" target="_top" xlink:title=" ">
<polygon fill="white" stroke="#666666" points="356.5,-382 235.5,-382 235.5,-352 356.5,-352 356.5,-382"/>
<text text-anchor="start" x="243.5" y="-370" font-family="Helvetica,sans-Serif" font-size="10.00">Materials/Lambertian</text>
<text text-anchor="middle" x="296" y="-359" font-family="Helvetica,sans-Serif" font-size="10.00">/Lambertian.hpp</text>
</a>
</g>
</g>
<!-- Node1&#45;&gt;Node27 -->
<g id="edge41_Node000001_Node000027" class="edge">
<title>Node1&#45;&gt;Node27</title>
<g id="a_edge41_Node000001_Node000027"><a xlink:title=" ">
<path fill="none" stroke="#63b8ff" d="M834.73,-550.96C758.9,-547.04 638.65,-535.69 540,-503 455.95,-475.14 367.45,-418.18 323.76,-387.92"/>
<polygon fill="#63b8ff" stroke="#63b8ff" points="325.59,-384.93 315.39,-382.07 321.58,-390.67 325.59,-384.93"/>
</a>
</g>
</g>
<!-- Node28 -->
<g id="Node000028" class="node">
<title>Node28</title>
<g id="a_Node000028"><a xlink:href="Plane_8hpp.html" target="_top" xlink:title=" ">
<polygon fill="white" stroke="#666666" points="1298.5,-437 1151.5,-437 1151.5,-418 1298.5,-418 1298.5,-437"/>
<text text-anchor="middle" x="1225" y="-425" font-family="Helvetica,sans-Serif" font-size="10.00">Primitives/Plane/Plane.hpp</text>
</a>
</g>
</g>
<!-- Node1&#45;&gt;Node28 -->
<g id="edge44_Node000001_Node000028" class="edge">
<title>Node1&#45;&gt;Node28</title>
<g id="a_edge44_Node000001_Node000028"><a xlink:title=" ">
<path fill="none" stroke="#63b8ff" d="M957.03,-538.99C987.67,-529.67 1028.05,-516.66 1063,-503 1111.86,-483.91 1167.03,-457.45 1198.73,-441.74"/>
<polygon fill="#63b8ff" stroke="#63b8ff" points="1200.4,-444.82 1207.79,-437.23 1197.28,-438.55 1200.4,-444.82"/>
</a>
</g>
</g>
<!-- Node29 -->
<g id="Node000029" class="node">
<title>Node29</title>
<g id="a_Node000029"><a xlink:href="Sphere_8hpp.html" target="_top" xlink:title=" ">
<polygon fill="white" stroke="#666666" points="1133.5,-437 972.5,-437 972.5,-418 1133.5,-418 1133.5,-437"/>
<text text-anchor="middle" x="1053" y="-425" font-family="Helvetica,sans-Serif" font-size="10.00">Primitives/Sphere/Sphere.hpp</text>
</a>
</g>
</g>
<!-- Node1&#45;&gt;Node29 -->
<g id="edge49_Node000001_Node000029" class="edge">
<title>Node1&#45;&gt;Node29</title>
<g id="a_edge49_Node000001_Node000029"><a xlink:title=" ">
<path fill="none" stroke="#63b8ff" d="M983.16,-541.12C1005.96,-533.82 1028.98,-522.03 1044,-503 1056.33,-487.38 1057.15,-463.88 1055.81,-447.46"/>
<polygon fill="#63b8ff" stroke="#63b8ff" points="1059.27,-446.94 1054.64,-437.41 1052.32,-447.74 1059.27,-446.94"/>
</a>
</g>
</g>
<!-- Node30 -->
<g id="Node000030" class="node">
<title>Node30</title>
<g id="a_Node000030"><a xlink:href="PointLight_8hpp.html" target="_top" xlink:title=" ">
<polygon fill="white" stroke="#666666" points="852,-437 682,-437 682,-418 852,-418 852,-437"/>
<text text-anchor="middle" x="767" y="-425" font-family="Helvetica,sans-Serif" font-size="10.00">Lights/PointLight/PointLight.hpp</text>
</a>
</g>
</g>
<!-- Node1&#45;&gt;Node30 -->
<g id="edge51_Node000001_Node000030" class="edge">
<title>Node1&#45;&gt;Node30</title>
<g id="a_edge51_Node000001_Node000030"><a xlink:title=" ">
<path fill="none" stroke="#63b8ff" d="M834.8,-544.07C809.45,-537.09 783.58,-524.75 768,-503 756.49,-486.94 758.36,-463.52 761.74,-447.24"/>
<polygon fill="#63b8ff" stroke="#63b8ff" points="765.2,-447.84 764.18,-437.29 758.4,-446.17 765.2,-447.84"/>
</a>
</g>
</g>
<!-- Node31 -->
<g id="Node000031" class="node">
<title>Node31</title>
<g id="a_Node000031"><a xlink:href="DirectionalLight_8hpp.html" target="_top" xlink:title=" ">
<polygon fill="white" stroke="#666666" points="903,-503 777,-503 777,-473 903,-473 903,-503"/>
<text text-anchor="start" x="785" y="-491" font-family="Helvetica,sans-Serif" font-size="10.00">Lights/DirectionalLight</text>
<text text-anchor="middle" x="840" y="-480" font-family="Helvetica,sans-Serif" font-size="10.00">/DirectionalLight.hpp</text>
</a>
</g>
</g>
<!-- Node1&#45;&gt;Node31 -->
<g id="edge53_Node000001_Node000031" class="edge">
<title>Node1&#45;&gt;Node31</title>
<g id="a_edge53_Node000001_Node000031"><a xlink:title=" ">
<path fill="none" stroke="#63b8ff" d="M893.69,-538.8C884.57,-530.34 872.84,-519.46 862.67,-510.03"/>
<polygon fill="#63b8ff" stroke="#63b8ff" points="864.98,-507.4 855.27,-503.16 860.22,-512.53 864.98,-507.4"/>
</a>
</g>
</g>
<!-- Node32 -->
<g id="Node000032" class="node">
<title>Node32</title>
<g id="a_Node000032"><a xlink:href="AmbientLight_8hpp.html" target="_top" xlink:title=" ">
<polygon fill="white" stroke="#666666" points="1035,-503 921,-503 921,-473 1035,-473 1035,-503"/>
<text text-anchor="start" x="929" y="-491" font-family="Helvetica,sans-Serif" font-size="10.00">Lights/AmbientLight</text>
<text text-anchor="middle" x="978" y="-480" font-family="Helvetica,sans-Serif" font-size="10.00">/AmbientLight.hpp</text>
</a>
</g>
</g>
<!-- Node1&#45;&gt;Node32 -->
<g id="edge55_Node000001_Node000032" class="edge">
<title>Node1&#45;&gt;Node32</title>
<g id="a_edge55_Node000001_Node000032"><a xlink:title=" ">
<path fill="none" stroke="#63b8ff" d="M924.31,-538.8C933.43,-530.34 945.16,-519.46 955.33,-510.03"/>
<polygon fill="#63b8ff" stroke="#63b8ff" points="957.78,-512.53 962.73,-503.16 953.02,-507.4 957.78,-512.53"/>
</a>
</g>
</g>
<!-- Node33 -->
<g id="Node000033" class="node">
<title>Node33</title>
<g id="a_Node000033"><a xlink:href="Camera_8hpp.html" target="_top" xlink:title=" ">
<polygon fill="white" stroke="#666666" points="1402,-316 1232,-316 1232,-297 1402,-297 1402,-316"/>
<text text-anchor="middle" x="1317" y="-304" font-family="Helvetica,sans-Serif" font-size="10.00">Renderers/Camera/Camera.hpp</text>
</a>
</g>
</g>
<!-- Node1&#45;&gt;Node33 -->
<g id="edge57_Node000001_Node000033" class="edge">
<title>Node1&#45;&gt;Node33</title>
<g id="a_edge57_Node000001_Node000033"><a xlink:title=" ">
<path fill="none" stroke="#63b8ff" d="M983.1,-541.97C1087.13,-524.82 1268.23,-488.32 1308,-437 1332.99,-404.75 1327.14,-353.34 1321.56,-326"/>
<polygon fill="#63b8ff" stroke="#63b8ff" points="1324.97,-325.18 1319.36,-316.19 1318.14,-326.71 1324.97,-325.18"/>
</a>
</g>
</g>
<!-- Node2&#45;&gt;Node3 -->
<g id="edge2_Node000002_Node000003" class="edge">
<title>Node2&#45;&gt;Node3</title>
<g id="a_edge2_Node000002_Node000003"><a xlink:title=" ">
<path fill="none" stroke="#63b8ff" d="M612.76,-472.84C612.63,-465.21 612.47,-455.7 612.32,-447.45"/>
<polygon fill="#63b8ff" stroke="#63b8ff" points="615.82,-447.2 612.15,-437.27 608.82,-447.32 615.82,-447.2"/>
</a>
</g>
</g>
<!-- Node4 -->
<g id="Node000004" class="node">
<title>Node4</title>
<g id="a_Node000004"><a xlink:title=" ">
<polygon fill="#e0e0e0" stroke="#999999" points="668.5,-376.5 603.5,-376.5 603.5,-357.5 668.5,-357.5 668.5,-376.5"/>
<text text-anchor="middle" x="636" y="-364.5" font-family="Helvetica,sans-Serif" font-size="10.00">functional</text>
</a>
</g>
</g>
<!-- Node3&#45;&gt;Node4 -->
<g id="edge3_Node000003_Node000004" class="edge">
<title>Node3&#45;&gt;Node4</title>
<g id="a_edge3_Node000003_Node000004"><a xlink:title=" ">
<path fill="none" stroke="#63b8ff" d="M615.54,-417.87C618.94,-409.57 624.19,-396.78 628.52,-386.22"/>
<polygon fill="#63b8ff" stroke="#63b8ff" points="631.89,-387.25 632.44,-376.67 625.41,-384.59 631.89,-387.25"/>
</a>
</g>
</g>
<!-- Node5 -->
<g id="Node000005" class="node">
<title>Node5</title>
<g id="a_Node000005"><a xlink:title=" ">
<polygon fill="#e0e0e0" stroke="#999999" points="891,-189.5 833,-189.5 833,-170.5 891,-170.5 891,-189.5"/>
<text text-anchor="middle" x="862" y="-177.5" font-family="Helvetica,sans-Serif" font-size="10.00">memory</text>
</a>
</g>
</g>
<!-- Node3&#45;&gt;Node5 -->
<g id="edge4_Node000003_Node000005" class="edge">
<title>Node3&#45;&gt;Node5</title>
<g id="a_edge4_Node000003_Node000005"><a xlink:title=" ">
<path fill="none" stroke="#63b8ff" d="M661.02,-417.97C706.06,-409.47 768.92,-395.74 790,-382 847.05,-344.81 861.92,-325.42 884,-261 891.27,-239.79 881.56,-214.79 872.84,-198.45"/>
<polygon fill="#63b8ff" stroke="#63b8ff" points="875.71,-196.43 867.69,-189.51 869.65,-199.93 875.71,-196.43"/>
</a>
</g>
</g>
<!-- Node6 -->
<g id="Node000006" class="node">
<title>Node6</title>
<g id="a_Node000006"><a xlink:title=" ">
<polygon fill="#e0e0e0" stroke="#999999" points="737.5,-376.5 686.5,-376.5 686.5,-357.5 737.5,-357.5 737.5,-376.5"/>
<text text-anchor="middle" x="712" y="-364.5" font-family="Helvetica,sans-Serif" font-size="10.00">variant</text>
</a>
</g>
</g>
<!-- Node3&#45;&gt;Node6 -->
<g id="edge5_Node000003_Node000006" class="edge">
<title>Node3&#45;&gt;Node6</title>
<g id="a_edge5_Node000003_Node000006"><a xlink:title=" ">
<path fill="none" stroke="#63b8ff" d="M626.76,-417.87C643,-408.36 669.35,-392.95 688.46,-381.77"/>
<polygon fill="#63b8ff" stroke="#63b8ff" points="690.32,-384.74 697.18,-376.67 686.79,-378.7 690.32,-384.74"/>
</a>
</g>
</g>
<!-- Node7 -->
<g id="Node000007" class="node">
<title>Node7</title>
<g id="a_Node000007"><a xlink:title=" ">
<polygon fill="#e0e0e0" stroke="#999999" points="413,-376.5 375,-376.5 375,-357.5 413,-357.5 413,-376.5"/>
<text text-anchor="middle" x="394" y="-364.5" font-family="Helvetica,sans-Serif" font-size="10.00">map</text>
</a>
</g>
</g>
<!-- Node3&#45;&gt;Node7 -->
<g id="edge6_Node000003_Node000007" class="edge">
<title>Node3&#45;&gt;Node7</title>
<g id="a_edge6_Node000003_Node000007"><a xlink:title=" ">
<path fill="none" stroke="#63b8ff" d="M567.69,-417.99C529.85,-410.22 474.21,-397.58 427,-382 425.37,-381.46 423.72,-380.88 422.05,-380.27"/>
<polygon fill="#63b8ff" stroke="#63b8ff" points="423.23,-376.97 412.64,-376.54 420.65,-383.48 423.23,-376.97"/>
</a>
</g>
</g>
<!-- Node8 -->
<g id="Node000008" class="node">
<title>Node8</title>
<g id="a_Node000008"><a xlink:href="RaytracerException_8hpp.html" target="_top" xlink:title=" ">
<polygon fill="white" stroke="#666666" points="217.5,-382 40.5,-382 40.5,-352 217.5,-352 217.5,-382"/>
<text text-anchor="start" x="48.5" y="-370" font-family="Helvetica,sans-Serif" font-size="10.00">../Exceptions/RaytracerException</text>
<text text-anchor="middle" x="129" y="-359" font-family="Helvetica,sans-Serif" font-size="10.00">/RaytracerException.hpp</text>
</a>
</g>
</g>
<!-- Node3&#45;&gt;Node8 -->
<g id="edge7_Node000003_Node000008" class="edge">
<title>Node3&#45;&gt;Node8</title>
<g id="a_edge7_Node000003_Node000008"><a xlink:title=" ">
<path fill="none" stroke="#63b8ff" d="M559.81,-420.96C487.53,-413.19 352.6,-398.29 227.66,-382.19"/>
<polygon fill="#63b8ff" stroke="#63b8ff" points="227.9,-378.7 217.53,-380.88 227,-385.64 227.9,-378.7"/>
</a>
</g>
</g>
<!-- Node13 -->
<g id="Node000013" class="node">
<title>Node13</title>
<g id="a_Node000013"><a xlink:href="AInterface_8hpp.html" target="_top" xlink:title=" ">
<polygon fill="white" stroke="#666666" points="585,-382 469,-382 469,-352 585,-352 585,-382"/>
<text text-anchor="start" x="477" y="-370" font-family="Helvetica,sans-Serif" font-size="10.00">Abstracts/AInterface</text>
<text text-anchor="middle" x="527" y="-359" font-family="Helvetica,sans-Serif" font-size="10.00">/AInterface.hpp</text>
</a>
</g>
</g>
<!-- Node3&#45;&gt;Node13 -->
<g id="edge12_Node000003_Node000013" class="edge">
<title>Node3&#45;&gt;Node13</title>
<g id="a_edge12_Node000003_Node000013"><a xlink:title=" ">
<path fill="none" stroke="#63b8ff" d="M599.46,-417.87C588.03,-410 570.73,-398.09 555.89,-387.89"/>
<polygon fill="#63b8ff" stroke="#63b8ff" points="557.73,-384.9 547.51,-382.11 553.76,-390.67 557.73,-384.9"/>
</a>
</g>
</g>
<!-- Node14 -->
<g id="Node000014" class="node">
<title>Node14</title>
<g id="a_Node000014"><a xlink:href="ARenderer_8hpp.html" target="_top" xlink:title=" ">
<polygon fill="white" stroke="#666666" points="654.5,-255.5 503.5,-255.5 503.5,-236.5 654.5,-236.5 654.5,-255.5"/>
<text text-anchor="middle" x="579" y="-243.5" font-family="Helvetica,sans-Serif" font-size="10.00">../ARenderer/ARenderer.hpp</text>
</a>
</g>
</g>
<!-- Node3&#45;&gt;Node14 -->
<g id="edge34_Node000003_Node000014" class="edge">
<title>Node3&#45;&gt;Node14</title>
<g id="a_edge34_Node000003_Node000014"><a xlink:title=" ">
<path fill="none" stroke="#63b8ff" d="M559.79,-418.04C520.77,-410.53 472.16,-398.23 460,-382 424.58,-334.73 506.37,-283.65 551.58,-260.17"/>
<polygon fill="#63b8ff" stroke="#63b8ff" points="553.27,-263.23 560.61,-255.59 550.11,-256.99 553.27,-263.23"/>
</a>
</g>
</g>
<!-- Node18 -->
<g id="Node000018" class="node">
<title>Node18</title>
<g id="a_Node000018"><a xlink:href="APrimitive_8hpp.html" target="_top" xlink:title=" ">
<polygon fill="white" stroke="#666666" points="1138,-382 1022,-382 1022,-352 1138,-352 1138,-382"/>
<text text-anchor="start" x="1030" y="-370" font-family="Helvetica,sans-Serif" font-size="10.00">Abstracts/APrimitive</text>
<text text-anchor="middle" x="1080" y="-359" font-family="Helvetica,sans-Serif" font-size="10.00">/APrimitive.hpp</text>
</a>
</g>
</g>
<!-- Node3&#45;&gt;Node18 -->
<g id="edge17_Node000003_Node000018" class="edge">
<title>Node3&#45;&gt;Node18</title>
<g id="a_edge17_Node000003_Node000018"><a xlink:title=" ">
<path fill="none" stroke="#63b8ff" d="M664.24,-419.16C667.2,-418.77 670.14,-418.38 673,-418 792.14,-402.38 931.09,-385.62 1011.95,-376.02"/>
<polygon fill="#63b8ff" stroke="#63b8ff" points="1012.48,-379.48 1022,-374.83 1011.66,-372.53 1012.48,-379.48"/>
</a>
</g>
</g>
<!-- Node19 -->
<g id="Node000019" class="node">
<title>Node19</title>
<g id="a_Node000019"><a xlink:href="IMaterial_8hpp.html" target="_top" xlink:title=" ">
<polygon fill="white" stroke="#666666" points="776,-316 686,-316 686,-297 776,-297 776,-316"/>
<text text-anchor="middle" x="731" y="-304" font-family="Helvetica,sans-Serif" font-size="10.00">../IMaterial.hpp</text>
</a>
</g>
</g>
<!-- Node3&#45;&gt;Node19 -->
<g id="edge36_Node000003_Node000019" class="edge">
<title>Node3&#45;&gt;Node19</title>
<g id="a_edge36_Node000003_Node000019"><a xlink:title=" ">
<path fill="none" stroke="#63b8ff" d="M655.3,-417.96C690.48,-410.04 736.01,-397.2 747,-382 759.07,-365.31 750.54,-341.37 742,-325.17"/>
<polygon fill="#63b8ff" stroke="#63b8ff" points="744.88,-323.15 736.87,-316.21 738.81,-326.63 744.88,-323.15"/>
</a>
</g>
</g>
<!-- Node20 -->
<g id="Node000020" class="node">
<title>Node20</title>
<g id="a_Node000020"><a xlink:href="ILight_8hpp.html" target="_top" xlink:title=" ">
<polygon fill="white" stroke="#666666" points="874.5,-255.5 809.5,-255.5 809.5,-236.5 874.5,-236.5 874.5,-255.5"/>
<text text-anchor="middle" x="842" y="-243.5" font-family="Helvetica,sans-Serif" font-size="10.00">ILight.hpp</text>
</a>
</g>
</g>
<!-- Node3&#45;&gt;Node20 -->
<g id="edge35_Node000003_Node000020" class="edge">
<title>Node3&#45;&gt;Node20</title>
<g id="a_edge35_Node000003_Node000020"><a xlink:title=" ">
<path fill="none" stroke="#63b8ff" d="M653.24,-417.94C691.78,-409.31 745.89,-395.39 763,-382 802.44,-351.14 826.06,-294.67 836.18,-265.51"/>
<polygon fill="#63b8ff" stroke="#63b8ff" points="839.58,-266.38 839.4,-255.79 832.93,-264.18 839.58,-266.38"/>
</a>
</g>
</g>
<!-- Node9 -->
<g id="Node000009" class="node">
<title>Node9</title>
<g id="a_Node000009"><a xlink:title=" ">
<polygon fill="#e0e0e0" stroke="#999999" points="93.5,-316 28.5,-316 28.5,-297 93.5,-297 93.5,-316"/>
<text text-anchor="middle" x="61" y="-304" font-family="Helvetica,sans-Serif" font-size="10.00">exception</text>
</a>
</g>
</g>
<!-- Node8&#45;&gt;Node9 -->
<g id="edge8_Node000008_Node000009" class="edge">
<title>Node8&#45;&gt;Node9</title>
<g id="a_edge8_Node000008_Node000009"><a xlink:title=" ">
<path fill="none" stroke="#63b8ff" d="M112.54,-351.84C102.37,-343.09 89.31,-331.85 78.88,-322.88"/>
<polygon fill="#63b8ff" stroke="#63b8ff" points="81.05,-320.13 71.19,-316.27 76.49,-325.44 81.05,-320.13"/>
</a>
</g>
</g>
<!-- Node10 -->
<g id="Node000010" class="node">
<title>Node10</title>
<g id="a_Node000010"><a xlink:title=" ">
<polygon fill="#e0e0e0" stroke="#999999" points="172,-316 112,-316 112,-297 172,-297 172,-316"/>
<text text-anchor="middle" x="142" y="-304" font-family="Helvetica,sans-Serif" font-size="10.00">iostream</text>
</a>
</g>
</g>
<!-- Node8&#45;&gt;Node10 -->
<g id="edge9_Node000008_Node000010" class="edge">
<title>Node8&#45;&gt;Node10</title>
<g id="a_edge9_Node000008_Node000010"><a xlink:title=" ">
<path fill="none" stroke="#63b8ff" d="M132.15,-351.84C133.86,-344.13 136,-334.49 137.85,-326.17"/>
<polygon fill="#63b8ff" stroke="#63b8ff" points="141.3,-326.79 140.05,-316.27 134.47,-325.27 141.3,-326.79"/>
</a>
</g>
</g>
<!-- Node11 -->
<g id="Node000011" class="node">
<title>Node11</title>
<g id="a_Node000011"><a xlink:title=" ">
<polygon fill="#e0e0e0" stroke="#999999" points="234,-316 190,-316 190,-297 234,-297 234,-316"/>
<text text-anchor="middle" x="212" y="-304" font-family="Helvetica,sans-Serif" font-size="10.00">string</text>
</a>
</g>
</g>
<!-- Node8&#45;&gt;Node11 -->
<g id="edge10_Node000008_Node000011" class="edge">
<title>Node8&#45;&gt;Node11</title>
<g id="a_edge10_Node000008_Node000011"><a xlink:title=" ">
<path fill="none" stroke="#63b8ff" d="M149.09,-351.84C161.88,-342.83 178.4,-331.18 191.3,-322.09"/>
<polygon fill="#63b8ff" stroke="#63b8ff" points="193.41,-324.89 199.56,-316.27 189.37,-319.17 193.41,-324.89"/>
</a>
</g>
</g>
<!-- Node12 -->
<g id="Node000012" class="node">
<title>Node12</title>
<g id="a_Node000012"><a xlink:title=" ">
<polygon fill="#e0e0e0" stroke="#999999" points="345.5,-316 252.5,-316 252.5,-297 345.5,-297 345.5,-316"/>
<text text-anchor="middle" x="299" y="-304" font-family="Helvetica,sans-Serif" font-size="10.00">source_location</text>
</a>
</g>
</g>
<!-- Node8&#45;&gt;Node12 -->
<g id="edge11_Node000008_Node000012" class="edge">
<title>Node8&#45;&gt;Node12</title>
<g id="a_edge11_Node000008_Node000012"><a xlink:title=" ">
<path fill="none" stroke="#63b8ff" d="M169.72,-351.99C198.59,-342.05 236.91,-328.86 264.33,-319.43"/>
<polygon fill="#63b8ff" stroke="#63b8ff" points="265.58,-322.7 273.89,-316.14 263.3,-316.08 265.58,-322.7"/>
</a>
</g>
</g>
<!-- Node13&#45;&gt;Node14 -->
<g id="edge13_Node000013_Node000014" class="edge">
<title>Node13&#45;&gt;Node14</title>
<g id="a_edge13_Node000013_Node000014"><a xlink:title=" ">
<path fill="none" stroke="#63b8ff" d="M533.17,-351.88C542.64,-330.22 560.74,-288.78 571.14,-264.99"/>
<polygon fill="#63b8ff" stroke="#63b8ff" points="574.4,-266.28 575.19,-255.71 567.98,-263.47 574.4,-266.28"/>
</a>
</g>
</g>
<!-- Node14&#45;&gt;Node15 -->
<g id="edge14_Node000014_Node000015" class="edge">
<title>Node14&#45;&gt;Node15</title>
<g id="a_edge14_Node000014_Node000015"><a xlink:title=" ">
<path fill="none" stroke="#63b8ff" d="M564.97,-236.37C547.76,-225.78 518.34,-207.67 497.85,-195.06"/>
<polygon fill="#63b8ff" stroke="#63b8ff" points="499.49,-191.96 489.14,-189.7 495.82,-197.92 499.49,-191.96"/>
</a>
</g>
</g>
<!-- Node17 -->
<g id="Node000017" class="node">
<title>Node17</title>
<g id="a_Node000017"><a xlink:title=" ">
<polygon fill="#e0e0e0" stroke="#999999" points="754.5,-189.5 707.5,-189.5 707.5,-170.5 754.5,-170.5 754.5,-189.5"/>
<text text-anchor="middle" x="731" y="-177.5" font-family="Helvetica,sans-Serif" font-size="10.00">vector</text>
</a>
</g>
</g>
<!-- Node14&#45;&gt;Node17 -->
<g id="edge16_Node000014_Node000017" class="edge">
<title>Node14&#45;&gt;Node17</title>
<g id="a_edge16_Node000014_Node000017"><a xlink:title=" ">
<path fill="none" stroke="#63b8ff" d="M599.5,-236.37C625.56,-225.39 670.78,-206.36 700.79,-193.72"/>
<polygon fill="#63b8ff" stroke="#63b8ff" points="702.48,-196.81 710.34,-189.7 699.77,-190.35 702.48,-196.81"/>
</a>
</g>
</g>
<!-- Node16 -->
<g id="Node000016" class="node">
<title>Node16</title>
<g id="a_Node000016"><a xlink:title=" ">
<polygon fill="#e0e0e0" stroke="#999999" points="507,-129 443,-129 443,-110 507,-110 507,-129"/>
<text text-anchor="middle" x="475" y="-117" font-family="Helvetica,sans-Serif" font-size="10.00">algorithm</text>
</a>
</g>
</g>
<!-- Node15&#45;&gt;Node16 -->
<g id="edge15_Node000015_Node000016" class="edge">
<title>Node15&#45;&gt;Node16</title>
<g id="a_edge15_Node000015_Node000016"><a xlink:title=" ">
<path fill="none" stroke="#63b8ff" d="M475,-170.37C475,-162.25 475,-149.81 475,-139.39"/>
<polygon fill="#63b8ff" stroke="#63b8ff" points="478.5,-139.17 475,-129.17 471.5,-139.17 478.5,-139.17"/>
</a>
</g>
</g>
<!-- Node18&#45;&gt;Node19 -->
<g id="edge18_Node000018_Node000019" class="edge">
<title>Node18&#45;&gt;Node19</title>
<g id="a_edge18_Node000018_Node000019"><a xlink:title=" ">
<path fill="none" stroke="#63b8ff" d="M1021.87,-354.53C1017.18,-353.65 1012.51,-352.8 1008,-352 931.25,-338.38 842.2,-324.4 786.23,-315.83"/>
<polygon fill="#63b8ff" stroke="#63b8ff" points="786.59,-312.34 776.18,-314.29 785.53,-319.26 786.59,-312.34"/>
</a>
</g>
</g>
<!-- Node25 -->
<g id="Node000025" class="node">
<title>Node25</title>
<g id="a_Node000025"><a xlink:title=" ">
<polygon fill="#e0e0e0" stroke="#999999" points="1118,-255.5 1062,-255.5 1062,-236.5 1118,-236.5 1118,-255.5"/>
<text text-anchor="middle" x="1090" y="-243.5" font-family="Helvetica,sans-Serif" font-size="10.00">optional</text>
</a>
</g>
</g>
<!-- Node18&#45;&gt;Node25 -->
<g id="edge30_Node000018_Node000025" class="edge">
<title>Node18&#45;&gt;Node25</title>
<g id="a_edge30_Node000018_Node000025"><a xlink:title=" ">
<path fill="none" stroke="#63b8ff" d="M1081.19,-351.88C1082.98,-330.51 1086.4,-289.89 1088.41,-265.96"/>
<polygon fill="#63b8ff" stroke="#63b8ff" points="1091.92,-265.97 1089.27,-255.71 1084.94,-265.38 1091.92,-265.97"/>
</a>
</g>
</g>
<!-- Node26 -->
<g id="Node000026" class="node">
<title>Node26</title>
<g id="a_Node000026"><a xlink:href="Ray_8hpp.html" target="_top" xlink:title=" ">
<polygon fill="white" stroke="#666666" points="1250,-261 1136,-261 1136,-231 1250,-231 1250,-261"/>
<text text-anchor="start" x="1144" y="-249" font-family="Helvetica,sans-Serif" font-size="10.00">../../../Geometry/Ray</text>
<text text-anchor="middle" x="1193" y="-238" font-family="Helvetica,sans-Serif" font-size="10.00">/Ray.hpp</text>
</a>
</g>
</g>
<!-- Node18&#45;&gt;Node26 -->
<g id="edge31_Node000018_Node000026" class="edge">
<title>Node18&#45;&gt;Node26</title>
<g id="a_edge31_Node000018_Node000026"><a xlink:title=" ">
<path fill="none" stroke="#63b8ff" d="M1093.41,-351.88C1113.03,-331.22 1149.73,-292.57 1172.68,-268.4"/>
<polygon fill="#63b8ff" stroke="#63b8ff" points="1175.26,-270.76 1179.61,-261.1 1170.19,-265.94 1175.26,-270.76"/>
</a>
</g>
</g>
<!-- Node19&#45;&gt;Node15 -->
<g id="edge19_Node000019_Node000015" class="edge">
<title>Node19&#45;&gt;Node15</title>
<g id="a_edge19_Node000019_Node000015"><a xlink:title=" ">
<path fill="none" stroke="#63b8ff" d="M685.91,-302.79C625.01,-298.18 520.97,-286.71 494,-261 477.57,-245.34 474.22,-218.27 474.04,-200.01"/>
<polygon fill="#63b8ff" stroke="#63b8ff" points="477.54,-200.02 474.25,-189.95 470.54,-199.88 477.54,-200.02"/>
</a>
</g>
</g>
<!-- Node19&#45;&gt;Node17 -->
<g id="edge29_Node000019_Node000017" class="edge">
<title>Node19&#45;&gt;Node17</title>
<g id="a_edge29_Node000019_Node000017"><a xlink:title=" ">
<path fill="none" stroke="#63b8ff" d="M731,-296.94C731,-277.04 731,-227.26 731,-199.85"/>
<polygon fill="#63b8ff" stroke="#63b8ff" points="734.5,-199.62 731,-189.62 727.5,-199.62 734.5,-199.62"/>
</a>
</g>
</g>
<!-- Node19&#45;&gt;Node20 -->
<g id="edge20_Node000019_Node000020" class="edge">
<title>Node19&#45;&gt;Node20</title>
<g id="a_edge20_Node000019_Node000020"><a xlink:title=" ">
<path fill="none" stroke="#63b8ff" d="M747.38,-296.87C765.58,-287.28 795.2,-271.67 816.45,-260.47"/>
<polygon fill="#63b8ff" stroke="#63b8ff" points="818.34,-263.43 825.55,-255.67 815.08,-257.23 818.34,-263.43"/>
</a>
</g>
</g>
<!-- Node20&#45;&gt;Node5 -->
<g id="edge28_Node000020_Node000005" class="edge">
<title>Node20&#45;&gt;Node5</title>
<g id="a_edge28_Node000020_Node000005"><a xlink:title=" ">
<path fill="none" stroke="#63b8ff" d="M844.7,-236.37C847.63,-226.97 852.42,-211.67 856.21,-199.53"/>
<polygon fill="#63b8ff" stroke="#63b8ff" points="859.57,-200.49 859.22,-189.91 852.89,-198.41 859.57,-200.49"/>
</a>
</g>
</g>
<!-- Node20&#45;&gt;Node15 -->
<g id="edge26_Node000020_Node000015" class="edge">
<title>Node20&#45;&gt;Node15</title>
<g id="a_edge26_Node000020_Node000015"><a xlink:title=" ">
<path fill="none" stroke="#63b8ff" d="M809.43,-239.32C747.56,-228.53 612.26,-204.94 534.03,-191.29"/>
<polygon fill="#63b8ff" stroke="#63b8ff" points="534.3,-187.79 523.85,-189.52 533.1,-194.69 534.3,-187.79"/>
</a>
</g>
</g>
<!-- Node20&#45;&gt;Node17 -->
<g id="edge27_Node000020_Node000017" class="edge">
<title>Node20&#45;&gt;Node17</title>
<g id="a_edge27_Node000020_Node000017"><a xlink:title=" ">
<path fill="none" stroke="#63b8ff" d="M827.03,-236.37C808.49,-225.68 776.69,-207.35 754.8,-194.72"/>
<polygon fill="#63b8ff" stroke="#63b8ff" points="756.5,-191.66 746.09,-189.7 753,-197.73 756.5,-191.66"/>
</a>
</g>
</g>
<!-- Node21 -->
<g id="Node000021" class="node">
<title>Node21</title>
<g id="a_Node000021"><a xlink:href="HitRecord_8hpp.html" target="_top" xlink:title=" ">
<polygon fill="white" stroke="#666666" points="1288,-195 1154,-195 1154,-165 1288,-165 1288,-195"/>
<text text-anchor="start" x="1162" y="-183" font-family="Helvetica,sans-Serif" font-size="10.00">../../Geometry/HitRecord</text>
<text text-anchor="middle" x="1221" y="-172" font-family="Helvetica,sans-Serif" font-size="10.00">/HitRecord.hpp</text>
</a>
</g>
</g>
<!-- Node20&#45;&gt;Node21 -->
<g id="edge21_Node000020_Node000021" class="edge">
<title>Node20&#45;&gt;Node21</title>
<g id="a_edge21_Node000020_Node000021"><a xlink:title=" ">
<path fill="none" stroke="#63b8ff" d="M874.77,-239.8C928.64,-231.2 1039.57,-213.31 1143.81,-195.19"/>
<polygon fill="#63b8ff" stroke="#63b8ff" points="1144.62,-198.6 1153.88,-193.44 1143.42,-191.7 1144.62,-198.6"/>
</a>
</g>
</g>
<!-- Node21&#45;&gt;Node22 -->
<g id="edge22_Node000021_Node000022" class="edge">
<title>Node21&#45;&gt;Node22</title>
<g id="a_edge22_Node000021_Node000022"><a xlink:title=" ">
<path fill="none" stroke="#63b8ff" d="M1243.75,-164.84C1258.6,-155.6 1277.9,-143.59 1292.66,-134.4"/>
<polygon fill="#63b8ff" stroke="#63b8ff" points="1294.55,-137.35 1301.19,-129.09 1290.85,-131.41 1294.55,-137.35"/>
</a>
</g>
</g>
<!-- Node21&#45;&gt;Node23 -->
<g id="edge25_Node000021_Node000023" class="edge">
<title>Node21&#45;&gt;Node23</title>
<g id="a_edge25_Node000021_Node000023"><a xlink:title=" ">
<path fill="none" stroke="#63b8ff" d="M1224.58,-164.95C1228.39,-150.79 1234.98,-128.45 1243,-110 1247.02,-100.76 1252.4,-90.94 1257.15,-82.89"/>
<polygon fill="#63b8ff" stroke="#63b8ff" points="1260.28,-84.46 1262.48,-74.09 1254.3,-80.83 1260.28,-84.46"/>
</a>
</g>
</g>
<!-- Node22&#45;&gt;Node23 -->
<g id="edge23_Node000022_Node000023" class="edge">
<title>Node22&#45;&gt;Node23</title>
<g id="a_edge23_Node000022_Node000023"><a xlink:title=" ">
<path fill="none" stroke="#63b8ff" d="M1307.24,-109.75C1300.53,-102.18 1290.66,-91.05 1282.49,-81.84"/>
<polygon fill="#63b8ff" stroke="#63b8ff" points="1284.87,-79.25 1275.62,-74.09 1279.63,-83.89 1284.87,-79.25"/>
</a>
</g>
</g>
<!-- Node24 -->
<g id="Node000024" class="node">
<title>Node24</title>
<g id="a_Node000024"><a xlink:title=" ">
<polygon fill="#e0e0e0" stroke="#999999" points="1293.5,-19 1242.5,-19 1242.5,0 1293.5,0 1293.5,-19"/>
<text text-anchor="middle" x="1268" y="-7" font-family="Helvetica,sans-Serif" font-size="10.00">math.h</text>
</a>
</g>
</g>
<!-- Node23&#45;&gt;Node24 -->
<g id="edge24_Node000023_Node000024" class="edge">
<title>Node23&#45;&gt;Node24</title>
<g id="a_edge24_Node000023_Node000024"><a xlink:title=" ">
<path fill="none" stroke="#63b8ff" d="M1268,-54.75C1268,-47.8 1268,-37.85 1268,-29.13"/>
<polygon fill="#63b8ff" stroke="#63b8ff" points="1271.5,-29.09 1268,-19.09 1264.5,-29.09 1271.5,-29.09"/>
</a>
</g>
</g>
<!-- Node26&#45;&gt;Node22 -->
<g id="edge32_Node000026_Node000022" class="edge">
<title>Node26&#45;&gt;Node22</title>
<g id="a_edge32_Node000026_Node000022"><a xlink:title=" ">
<path fill="none" stroke="#63b8ff" d="M1243.72,-230.95C1262.95,-223.25 1283.46,-211.75 1297,-195 1309.78,-179.19 1313.72,-155.73 1314.81,-139.37"/>
<polygon fill="#63b8ff" stroke="#63b8ff" points="1318.31,-139.48 1315.19,-129.36 1311.32,-139.22 1318.31,-139.48"/>
</a>
</g>
</g>
<!-- Node26&#45;&gt;Node23 -->
<g id="edge33_Node000026_Node000023" class="edge">
<title>Node26&#45;&gt;Node23</title>
<g id="a_edge33_Node000026_Node000023"><a xlink:title=" ">
<path fill="none" stroke="#63b8ff" d="M1135.81,-232.84C1066.6,-218.11 959.18,-195.22 959,-195 950.61,-184.63 951.15,-175.78 959,-165 1011.14,-93.43 1115.66,-72.23 1188.64,-66.53"/>
<polygon fill="#63b8ff" stroke="#63b8ff" points="1188.98,-70.02 1198.72,-65.83 1188.5,-63.04 1188.98,-70.02"/>
</a>
</g>
</g>
<!-- Node27&#45;&gt;Node15 -->
<g id="edge42_Node000027_Node000015" class="edge">
<title>Node27&#45;&gt;Node15</title>
<g id="a_edge42_Node000027_Node000015"><a xlink:title=" ">
<path fill="none" stroke="#63b8ff" d="M313.52,-351.9C325.3,-342.18 341,-328.75 354,-316 395.38,-275.41 439.85,-223.35 461.54,-197.33"/>
<polygon fill="#63b8ff" stroke="#63b8ff" points="464.3,-199.49 467.99,-189.56 458.91,-195.02 464.3,-199.49"/>
</a>
</g>
</g>
<!-- Node27&#45;&gt;Node19 -->
<g id="edge43_Node000027_Node000019" class="edge">
<title>Node27&#45;&gt;Node19</title>
<g id="a_edge43_Node000027_Node000019"><a xlink:title=" ">
<path fill="none" stroke="#63b8ff" d="M356.66,-353.58C359.81,-353.02 362.94,-352.49 366,-352 475.33,-334.43 604.09,-320.24 675.74,-312.91"/>
<polygon fill="#63b8ff" stroke="#63b8ff" points="676.3,-316.38 685.89,-311.88 675.59,-309.41 676.3,-316.38"/>
</a>
</g>
</g>
<!-- Node28&#45;&gt;Node18 -->
<g id="edge45_Node000028_Node000018" class="edge">
<title>Node28&#45;&gt;Node18</title>
<g id="a_edge45_Node000028_Node000018"><a xlink:title=" ">
<path fill="none" stroke="#63b8ff" d="M1203.92,-417.99C1183.14,-409.61 1150.76,-396.55 1124.3,-385.87"/>
<polygon fill="#63b8ff" stroke="#63b8ff" points="1125.44,-382.56 1114.86,-382.06 1122.82,-389.05 1125.44,-382.56"/>
</a>
</g>
</g>
<!-- Node28&#45;&gt;Node19 -->
<g id="edge46_Node000028_Node000019" class="edge">
<title>Node28&#45;&gt;Node19</title>
<g id="a_edge46_Node000028_Node000019"><a xlink:title=" ">
<path fill="none" stroke="#63b8ff" d="M1181,-417.95C1138.02,-409.44 1070.82,-395.7 1013,-382 926.44,-361.49 825.88,-334.05 771.3,-318.84"/>
<polygon fill="#63b8ff" stroke="#63b8ff" points="771.91,-315.38 761.33,-316.06 770.02,-322.12 771.91,-315.38"/>
</a>
</g>
</g>
<!-- Node28&#45;&gt;Node25 -->
<g id="edge48_Node000028_Node000025" class="edge">
<title>Node28&#45;&gt;Node25</title>
<g id="a_edge48_Node000028_Node000025"><a xlink:title=" ">
<path fill="none" stroke="#63b8ff" d="M1218.49,-417.84C1197.42,-389.82 1130.82,-301.27 1102.71,-263.9"/>
<polygon fill="#63b8ff" stroke="#63b8ff" points="1105.25,-261.46 1096.45,-255.57 1099.66,-265.67 1105.25,-261.46"/>
</a>
</g>
</g>
<!-- Node28&#45;&gt;Node26 -->
<g id="edge47_Node000028_Node000026" class="edge">
<title>Node28&#45;&gt;Node26</title>
<g id="a_edge47_Node000028_Node000026"><a xlink:title=" ">
<path fill="none" stroke="#63b8ff" d="M1223.46,-417.84C1218.76,-391.49 1204.51,-311.56 1197.29,-271.07"/>
<polygon fill="#63b8ff" stroke="#63b8ff" points="1200.74,-270.45 1195.54,-261.22 1193.84,-271.68 1200.74,-270.45"/>
</a>
</g>
</g>
<!-- Node29&#45;&gt;Node18 -->
<g id="edge50_Node000029_Node000018" class="edge">
<title>Node29&#45;&gt;Node18</title>
<g id="a_edge50_Node000029_Node000018"><a xlink:title=" ">
<path fill="none" stroke="#63b8ff" d="M1056.98,-417.87C1060.21,-410.89 1064.9,-400.71 1069.21,-391.38"/>
<polygon fill="#63b8ff" stroke="#63b8ff" points="1072.47,-392.66 1073.49,-382.11 1066.12,-389.73 1072.47,-392.66"/>
</a>
</g>
</g>
<!-- Node30&#45;&gt;Node20 -->
<g id="edge52_Node000030_Node000020" class="edge">
<title>Node30&#45;&gt;Node20</title>
<g id="a_edge52_Node000030_Node000020"><a xlink:title=" ">
<path fill="none" stroke="#63b8ff" d="M781.53,-417.82C793.31,-409.98 809.32,-397.34 818,-382 839.12,-344.65 842.4,-292.97 842.49,-265.65"/>
<polygon fill="#63b8ff" stroke="#63b8ff" points="845.99,-265.51 842.37,-255.55 838.99,-265.59 845.99,-265.51"/>
</a>
</g>
</g>
<!-- Node31&#45;&gt;Node20 -->
<g id="edge54_Node000031_Node000020" class="edge">
<title>Node31&#45;&gt;Node20</title>
<g id="a_edge54_Node000031_Node000020"><a xlink:title=" ">
<path fill="none" stroke="#63b8ff" d="M847.85,-472.61C852.7,-462.88 858.47,-449.55 861,-437 873.47,-375.1 856.87,-300.13 847.55,-265.81"/>
<polygon fill="#63b8ff" stroke="#63b8ff" points="850.81,-264.47 844.72,-255.8 844.07,-266.38 850.81,-264.47"/>
</a>
</g>
</g>
<!-- Node32&#45;&gt;Node20 -->
<g id="edge56_Node000032_Node000020" class="edge">
<title>Node32&#45;&gt;Node20</title>
<g id="a_edge56_Node000032_Node000020"><a xlink:title=" ">
<path fill="none" stroke="#63b8ff" d="M970.01,-472.66C952.3,-440.94 908.38,-362.41 871,-297 864.87,-286.27 857.92,-274.28 852.36,-264.74"/>
<polygon fill="#63b8ff" stroke="#63b8ff" points="855.23,-262.71 847.17,-255.83 849.18,-266.23 855.23,-262.71"/>
</a>
</g>
</g>
<!-- Node33&#45;&gt;Node14 -->
<g id="edge58_Node000033_Node000014" class="edge">
<title>Node33&#45;&gt;Node14</title>
<g id="a_edge58_Node000033_Node000014"><a xlink:title=" ">
<path fill="none" stroke="#63b8ff" d="M1231.98,-298.76C1090.13,-287.52 806.74,-265.05 664.54,-253.78"/>
<polygon fill="#63b8ff" stroke="#63b8ff" points="664.8,-250.29 654.55,-252.99 664.24,-257.27 664.8,-250.29"/>
</a>
</g>
</g>
<!-- Node33&#45;&gt;Node21 -->
<g id="edge65_Node000033_Node000021" class="edge">
<title>Node33&#45;&gt;Node21</title>
<g id="a_edge65_Node000033_Node000021"><a xlink:title=" ">
<path fill="none" stroke="#63b8ff" d="M1315.89,-296.88C1313.63,-282.1 1307.33,-251.56 1292,-231 1282.94,-218.84 1270.04,-208.52 1257.71,-200.47"/>
<polygon fill="#63b8ff" stroke="#63b8ff" points="1259.25,-197.3 1248.9,-195.01 1255.56,-203.25 1259.25,-197.3"/>
</a>
</g>
</g>
<!-- Node33&#45;&gt;Node22 -->
<g id="edge59_Node000033_Node000022" class="edge">
<title>Node33&#45;&gt;Node22</title>
<g id="a_edge59_Node000033_Node000022"><a xlink:title=" ">
<path fill="none" stroke="#63b8ff" d="M1317.13,-296.95C1317.45,-275.01 1318.12,-214.99 1317,-165 1316.81,-156.49 1316.41,-147.06 1316.02,-139.09"/>
<polygon fill="#63b8ff" stroke="#63b8ff" points="1319.51,-138.83 1315.5,-129.03 1312.52,-139.2 1319.51,-138.83"/>
</a>
</g>
</g>
<!-- Node33&#45;&gt;Node23 -->
<g id="edge60_Node000033_Node000023" class="edge">
<title>Node33&#45;&gt;Node23</title>
<g id="a_edge60_Node000033_Node000023"><a xlink:title=" ">
<path fill="none" stroke="#63b8ff" d="M1325.21,-296.96C1351.78,-268.29 1431.18,-173.69 1387,-110 1375.87,-93.95 1358.19,-83.68 1339.84,-77.11"/>
<polygon fill="#63b8ff" stroke="#63b8ff" points="1340.8,-73.74 1330.21,-74 1338.65,-80.4 1340.8,-73.74"/>
</a>
</g>
</g>
<!-- Node33&#45;&gt;Node25 -->
<g id="edge66_Node000033_Node000025" class="edge">
<title>Node33&#45;&gt;Node25</title>
<g id="a_edge66_Node000033_Node000025"><a xlink:title=" ">
<path fill="none" stroke="#63b8ff" d="M1273.18,-296.95C1234.38,-288.97 1176.42,-276.07 1127,-261 1125.08,-260.41 1123.11,-259.78 1121.14,-259.11"/>
<polygon fill="#63b8ff" stroke="#63b8ff" points="1121.95,-255.69 1111.36,-255.63 1119.6,-262.28 1121.95,-255.69"/>
</a>
</g>
</g>
<!-- Node33&#45;&gt;Node26 -->
<g id="edge64_Node000033_Node000026" class="edge">
<title>Node33&#45;&gt;Node26</title>
<g id="a_edge64_Node000033_Node000026"><a xlink:title=" ">
<path fill="none" stroke="#63b8ff" d="M1298.97,-296.99C1281.57,-288.79 1254.66,-276.09 1232.31,-265.55"/>
<polygon fill="#63b8ff" stroke="#63b8ff" points="1233.59,-262.28 1223.05,-261.18 1230.6,-268.61 1233.59,-262.28"/>
</a>
</g>
</g>
<!-- Node34 -->
<g id="Node000034" class="node">
<title>Node34</title>
<g id="a_Node000034"><a xlink:href="Rectangle3D_8hpp.html" target="_top" xlink:title=" ">
<polygon fill="white" stroke="#666666" points="1136,-195 968,-195 968,-165 1136,-165 1136,-195"/>
<text text-anchor="start" x="976" y="-183" font-family="Helvetica,sans-Serif" font-size="10.00">../../../../../Geometry</text>
<text text-anchor="middle" x="1052" y="-172" font-family="Helvetica,sans-Serif" font-size="10.00">/Rectangle3D/Rectangle3D.hpp</text>
</a>
</g>
</g>
<!-- Node33&#45;&gt;Node34 -->
<g id="edge61_Node000033_Node000034" class="edge">
<title>Node33&#45;&gt;Node34</title>
<g id="a_edge61_Node000033_Node000034"><a xlink:title=" ">
<path fill="none" stroke="#63b8ff" d="M1312.77,-296.81C1304.64,-281.09 1285.3,-247.98 1259,-231 1239.57,-218.46 1189.72,-206.24 1143.81,-197.02"/>
<polygon fill="#63b8ff" stroke="#63b8ff" points="1144.27,-193.54 1133.78,-195.04 1142.91,-200.41 1144.27,-193.54"/>
</a>
</g>
</g>
<!-- Node34&#45;&gt;Node22 -->
<g id="edge62_Node000034_Node000022" class="edge">
<title>Node34&#45;&gt;Node22</title>
<g id="a_edge62_Node000034_Node000022"><a xlink:title=" ">
<path fill="none" stroke="#63b8ff" d="M1115,-164.99C1161.56,-154.63 1224.03,-140.73 1266.69,-131.25"/>
<polygon fill="#63b8ff" stroke="#63b8ff" points="1267.54,-134.64 1276.55,-129.05 1266.02,-127.81 1267.54,-134.64"/>
</a>
</g>
</g>
<!-- Node34&#45;&gt;Node23 -->
<g id="edge63_Node000034_Node000023" class="edge">
<title>Node34&#45;&gt;Node23</title>
<g id="a_edge63_Node000034_Node000023"><a xlink:title=" ">
<path fill="none" stroke="#63b8ff" d="M1078.92,-164.85C1120.9,-142.79 1201.41,-100.49 1242.5,-78.9"/>
<polygon fill="#63b8ff" stroke="#63b8ff" points="1244.36,-81.87 1251.59,-74.12 1241.11,-75.68 1244.36,-81.87"/>
</a>
</g>
</g>
</g>
</svg>
