<?xml version="1.0" encoding="UTF-8" standalone="no"?>
<!DOCTYPE svg PUBLIC "-//W3C//DTD SVG 1.1//EN"
 "http://www.w3.org/Graphics/SVG/1.1/DTD/svg11.dtd">
<!-- Generated by graphviz version 2.43.0 (0)
 -->
<!-- Title: src/CorePlugin/CorePlugin.cpp Pages: 1 -->
<!--zoomable 698 -->

<svg id="main" version="1.1" xmlns="http://www.w3.org/2000/svg" xmlns:xlink="http://www.w3.org/1999/xlink" xml:space="preserve" onload="init(evt)">
<style type="text/css"><![CDATA[
.node, .edge {opacity: 0.7;}
.node.selected, .edge.selected {opacity: 1;}
.edge:hover path { stroke: red; }
.edge:hover polygon { stroke: red; fill: red; }
]]></style>

<defs>
  <circle id="rim" cx="0" cy="0" r="7"/>
  <circle id="rim2" cx="0" cy="0" r="3.5"/>
  <g id="zoomPlus">
    <use xlink:href="#rim" fill="#404040"><set attributeName="fill" to="#808080" begin="zoomplus.mouseover" end="zoomplus.mouseout"/></use>
    <path d="M-4,0h8M0,-4v8" fill="none" stroke="white" stroke-width="1.5" pointer-events="none"/>
  </g>
  <g id="zoomMin">
    <use xlink:href="#rim" fill="#404040"><set attributeName="fill" to="#808080" begin="zoomminus.mouseover" end="zoomminus.mouseout"/></use>
    <path d="M-4,0h8" fill="none" stroke="white" stroke-width="1.5" pointer-events="none"/>
  </g>
  <g id="arrowUp" transform="translate(30 24)">
    <use xlink:href="#rim"/>
    <path pointer-events="none" fill="none" stroke="white" stroke-width="1.5" d="M0,-3.0v7 M-2.5,-0.5L0,-3.0L2.5,-0.5"/>
  </g>
  <g id="arrowRight" transform="rotate(90) translate(36 -43)">
    <use xlink:href="#rim"/>
    <path pointer-events="none" fill="none" stroke="white" stroke-width="1.5" d="M0,-3.0v7 M-2.5,-0.5L0,-3.0L2.5,-0.5"/>
  </g>
  <g id="arrowDown" transform="rotate(180) translate(-30 -48)">
    <use xlink:href="#rim"/>
    <path pointer-events="none" fill="none" stroke="white" stroke-width="1.5" d="M0,-3.0v7 M-2.5,-0.5L0,-3.0L2.5,-0.5"/>
  </g>
  <g id="arrowLeft" transform="rotate(270) translate(-36 17)">
    <use xlink:href="#rim"/>
    <path pointer-events="none" fill="none" stroke="white" stroke-width="1.5" d="M0,-3.0v7 M-2.5,-0.5L0,-3.0L2.5,-0.5"/>
  </g>
  <g id="resetDef">
    <use xlink:href="#rim2" fill="#404040"><set attributeName="fill" to="#808080" begin="reset.mouseover" end="reset.mouseout"/></use>
  </g>
</defs>
<script type="application/ecmascript">
var viewWidth = 1247;
var viewHeight = 698;
var sectionId = 'dynsection-0';
</script>
<script type="application/ecmascript" xlink:href="svg.min.js"/>
<svg id="graph" class="graph">
<g id="viewport">
<title>src/CorePlugin/CorePlugin.cpp</title>
<!-- Node1 -->
<g id="Node000001" class="node">
<title>Node1</title>
<g id="a_Node000001"><a xlink:title=" ">
<polygon fill="#999999" stroke="#666666" points="671.5,-690 509.5,-690 509.5,-671 671.5,-671 671.5,-690"/>
<text text-anchor="middle" x="590.5" y="-678" font-family="Helvetica,sans-Serif" font-size="10.00">src/CorePlugin/CorePlugin.cpp</text>
</a>
</g>
</g>
<!-- Node2 -->
<g id="Node000002" class="node">
<title>Node2</title>
<g id="a_Node000002"><a xlink:href="CorePlugin_8hpp.html" target="_top" xlink:title=" ">
<polygon fill="white" stroke="#666666" points="508.5,-629.5 418.5,-629.5 418.5,-610.5 508.5,-610.5 508.5,-629.5"/>
<text text-anchor="middle" x="463.5" y="-617.5" font-family="Helvetica,sans-Serif" font-size="10.00">CorePlugin.hpp</text>
</a>
</g>
</g>
<!-- Node1&#45;&gt;Node2 -->
<g id="edge1_Node000001_Node000002" class="edge">
<title>Node1&#45;&gt;Node2</title>
<g id="a_edge1_Node000001_Node000002"><a xlink:title=" ">
<path fill="none" stroke="#63b8ff" d="M572.03,-670.99C550.78,-661.2 515.65,-645.02 491.13,-633.73"/>
<polygon fill="#63b8ff" stroke="#63b8ff" points="492.54,-630.52 481.99,-629.52 489.61,-636.88 492.54,-630.52"/>
</a>
</g>
</g>
<!-- Node29 -->
<g id="Node000029" class="node">
<title>Node29</title>
<g id="a_Node000029"><a xlink:href="SceneWriter_8hpp.html" target="_top" xlink:title=" ">
<polygon fill="white" stroke="#666666" points="654.5,-635 526.5,-635 526.5,-605 654.5,-605 654.5,-635"/>
<text text-anchor="start" x="534.5" y="-623" font-family="Helvetica,sans-Serif" font-size="10.00">Interfaces/SceneWriter</text>
<text text-anchor="middle" x="590.5" y="-612" font-family="Helvetica,sans-Serif" font-size="10.00">/SceneWriter.hpp</text>
</a>
</g>
</g>
<!-- Node1&#45;&gt;Node29 -->
<g id="edge47_Node000001_Node000029" class="edge">
<title>Node1&#45;&gt;Node29</title>
<g id="a_edge47_Node000001_Node000029"><a xlink:title=" ">
<path fill="none" stroke="#63b8ff" d="M590.5,-670.87C590.5,-664.11 590.5,-654.35 590.5,-645.26"/>
<polygon fill="#63b8ff" stroke="#63b8ff" points="594,-645.11 590.5,-635.11 587,-645.11 594,-645.11"/>
</a>
</g>
</g>
<!-- Node31 -->
<g id="Node000031" class="node">
<title>Node31</title>
<g id="a_Node000031"><a xlink:href="FlatColor_8hpp.html" target="_top" xlink:title=" ">
<polygon fill="white" stroke="#666666" points="874.5,-629.5 744.5,-629.5 744.5,-610.5 874.5,-610.5 874.5,-629.5"/>
<text text-anchor="middle" x="809.5" y="-617.5" font-family="Helvetica,sans-Serif" font-size="10.00">Materials/FlatColor.hpp</text>
</a>
</g>
</g>
<!-- Node1&#45;&gt;Node31 -->
<g id="edge49_Node000001_Node000031" class="edge">
<title>Node1&#45;&gt;Node31</title>
<g id="a_edge49_Node000001_Node000031"><a xlink:title=" ">
<path fill="none" stroke="#63b8ff" d="M622.34,-670.99C660.78,-660.73 725.53,-643.43 767.89,-632.12"/>
<polygon fill="#63b8ff" stroke="#63b8ff" points="768.86,-635.48 777.62,-629.52 767.05,-628.72 768.86,-635.48"/>
</a>
</g>
</g>
<!-- Node3 -->
<g id="Node000003" class="node">
<title>Node3</title>
<g id="a_Node000003"><a xlink:href="IPlugin_8hpp.html" target="_top" xlink:title=" ">
<polygon fill="white" stroke="#666666" points="523,-563.5 404,-563.5 404,-544.5 523,-544.5 523,-563.5"/>
<text text-anchor="middle" x="463.5" y="-551.5" font-family="Helvetica,sans-Serif" font-size="10.00">../Objects/IPlugin.hpp</text>
</a>
</g>
</g>
<!-- Node2&#45;&gt;Node3 -->
<g id="edge2_Node000002_Node000003" class="edge">
<title>Node2&#45;&gt;Node3</title>
<g id="a_edge2_Node000002_Node000003"><a xlink:title=" ">
<path fill="none" stroke="#63b8ff" d="M463.5,-610.37C463.5,-601.16 463.5,-586.29 463.5,-574.27"/>
<polygon fill="#63b8ff" stroke="#63b8ff" points="467,-573.91 463.5,-563.91 460,-573.91 467,-573.91"/>
</a>
</g>
</g>
<!-- Node4 -->
<g id="Node000004" class="node">
<title>Node4</title>
<g id="a_Node000004"><a xlink:title=" ">
<polygon fill="#e0e0e0" stroke="#999999" points="65,-497.5 0,-497.5 0,-478.5 65,-478.5 65,-497.5"/>
<text text-anchor="middle" x="32.5" y="-485.5" font-family="Helvetica,sans-Serif" font-size="10.00">functional</text>
</a>
</g>
</g>
<!-- Node3&#45;&gt;Node4 -->
<g id="edge3_Node000003_Node000004" class="edge">
<title>Node3&#45;&gt;Node4</title>
<g id="a_edge3_Node000003_Node000004"><a xlink:title=" ">
<path fill="none" stroke="#63b8ff" d="M403.7,-549.09C326.59,-543.2 188.7,-529.76 73.5,-503 70.52,-502.31 67.45,-501.48 64.4,-500.58"/>
<polygon fill="#63b8ff" stroke="#63b8ff" points="65.41,-497.23 54.82,-497.53 63.29,-503.9 65.41,-497.23"/>
</a>
</g>
</g>
<!-- Node5 -->
<g id="Node000005" class="node">
<title>Node5</title>
<g id="a_Node000005"><a xlink:title=" ">
<polygon fill="#e0e0e0" stroke="#999999" points="134,-497.5 83,-497.5 83,-478.5 134,-478.5 134,-497.5"/>
<text text-anchor="middle" x="108.5" y="-485.5" font-family="Helvetica,sans-Serif" font-size="10.00">variant</text>
</a>
</g>
</g>
<!-- Node3&#45;&gt;Node5 -->
<g id="edge4_Node000003_Node000005" class="edge">
<title>Node3&#45;&gt;Node5</title>
<g id="a_edge4_Node000003_Node000005"><a xlink:title=" ">
<path fill="none" stroke="#63b8ff" d="M403.74,-547.95C338.59,-541.46 231.72,-527.94 142.5,-503 140.56,-502.46 138.59,-501.84 136.61,-501.17"/>
<polygon fill="#63b8ff" stroke="#63b8ff" points="137.52,-497.77 126.93,-497.51 135.05,-504.32 137.52,-497.77"/>
</a>
</g>
</g>
<!-- Node6 -->
<g id="Node000006" class="node">
<title>Node6</title>
<g id="a_Node000006"><a xlink:href="RaytracerException_8hpp.html" target="_top" xlink:title=" ">
<polygon fill="white" stroke="#666666" points="329,-503 152,-503 152,-473 329,-473 329,-503"/>
<text text-anchor="start" x="160" y="-491" font-family="Helvetica,sans-Serif" font-size="10.00">../Exceptions/RaytracerException</text>
<text text-anchor="middle" x="240.5" y="-480" font-family="Helvetica,sans-Serif" font-size="10.00">/RaytracerException.hpp</text>
</a>
</g>
</g>
<!-- Node3&#45;&gt;Node6 -->
<g id="edge5_Node000003_Node000006" class="edge">
<title>Node3&#45;&gt;Node6</title>
<g id="a_edge5_Node000003_Node000006"><a xlink:title=" ">
<path fill="none" stroke="#63b8ff" d="M433.43,-544.37C399.23,-534.56 342.58,-518.3 299.49,-505.93"/>
<polygon fill="#63b8ff" stroke="#63b8ff" points="300.26,-502.51 289.68,-503.12 298.33,-509.24 300.26,-502.51"/>
</a>
</g>
</g>
<!-- Node11 -->
<g id="Node000011" class="node">
<title>Node11</title>
<g id="a_Node000011"><a xlink:title=" ">
<polygon fill="#e0e0e0" stroke="#999999" points="484,-497.5 347,-497.5 347,-478.5 484,-478.5 484,-497.5"/>
<text text-anchor="middle" x="415.5" y="-485.5" font-family="Helvetica,sans-Serif" font-size="10.00">Abstracts/AInterface.hpp</text>
</a>
</g>
</g>
<!-- Node3&#45;&gt;Node11 -->
<g id="edge10_Node000003_Node000011" class="edge">
<title>Node3&#45;&gt;Node11</title>
<g id="a_edge10_Node000003_Node000011"><a xlink:title=" ">
<path fill="none" stroke="#63b8ff" d="M457.03,-544.37C449.7,-534.59 437.57,-518.42 428.31,-506.08"/>
<polygon fill="#63b8ff" stroke="#63b8ff" points="430.98,-503.81 422.18,-497.91 425.38,-508.01 430.98,-503.81"/>
</a>
</g>
</g>
<!-- Node12 -->
<g id="Node000012" class="node">
<title>Node12</title>
<g id="a_Node000012"><a xlink:href="APrimitive_8hpp.html" target="_top" xlink:title=" ">
<polygon fill="white" stroke="#666666" points="656.5,-503 540.5,-503 540.5,-473 656.5,-473 656.5,-503"/>
<text text-anchor="start" x="548.5" y="-491" font-family="Helvetica,sans-Serif" font-size="10.00">Abstracts/APrimitive</text>
<text text-anchor="middle" x="598.5" y="-480" font-family="Helvetica,sans-Serif" font-size="10.00">/APrimitive.hpp</text>
</a>
</g>
</g>
<!-- Node3&#45;&gt;Node12 -->
<g id="edge11_Node000003_Node000012" class="edge">
<title>Node3&#45;&gt;Node12</title>
<g id="a_edge11_Node000003_Node000012"><a xlink:title=" ">
<path fill="none" stroke="#63b8ff" d="M481.71,-544.37C501.58,-534.95 533.98,-519.59 559.62,-507.43"/>
<polygon fill="#63b8ff" stroke="#63b8ff" points="561.19,-510.56 568.72,-503.12 558.19,-504.24 561.19,-510.56"/>
</a>
</g>
</g>
<!-- Node13 -->
<g id="Node000013" class="node">
<title>Node13</title>
<g id="a_Node000013"><a xlink:href="IMaterial_8hpp.html" target="_top" xlink:title=" ">
<polygon fill="white" stroke="#666666" points="720.5,-437 630.5,-437 630.5,-418 720.5,-418 720.5,-437"/>
<text text-anchor="middle" x="675.5" y="-425" font-family="Helvetica,sans-Serif" font-size="10.00">../IMaterial.hpp</text>
</a>
</g>
</g>
<!-- Node3&#45;&gt;Node13 -->
<g id="edge46_Node000003_Node000013" class="edge">
<title>Node3&#45;&gt;Node13</title>
<g id="a_edge46_Node000003_Node000013"><a xlink:title=" ">
<path fill="none" stroke="#63b8ff" d="M503,-544.42C560.23,-531.81 660.01,-509.12 665.5,-503 678.95,-488 679.81,-464 678.38,-447.31"/>
<polygon fill="#63b8ff" stroke="#63b8ff" points="681.82,-446.63 677.15,-437.12 674.87,-447.47 681.82,-446.63"/>
</a>
</g>
</g>
<!-- Node20 -->
<g id="Node000020" class="node">
<title>Node20</title>
<g id="a_Node000020"><a xlink:href="ILight_8hpp.html" target="_top" xlink:title=" ">
<polygon fill="white" stroke="#666666" points="730,-382 665,-382 665,-363 730,-363 730,-382"/>
<text text-anchor="middle" x="697.5" y="-370" font-family="Helvetica,sans-Serif" font-size="10.00">ILight.hpp</text>
</a>
</g>
</g>
<!-- Node3&#45;&gt;Node20 -->
<g id="edge45_Node000003_Node000020" class="edge">
<title>Node3&#45;&gt;Node20</title>
<g id="a_edge45_Node000003_Node000020"><a xlink:title=" ">
<path fill="none" stroke="#63b8ff" d="M505.23,-544.49C567.69,-531.63 679.02,-508.19 686.5,-503 721.27,-478.85 742.48,-458.3 729.5,-418 726.16,-407.62 719.4,-397.62 712.95,-389.74"/>
<polygon fill="#63b8ff" stroke="#63b8ff" points="715.47,-387.31 706.25,-382.1 710.21,-391.92 715.47,-387.31"/>
</a>
</g>
</g>
<!-- Node23 -->
<g id="Node000023" class="node">
<title>Node23</title>
<g id="a_Node000023"><a xlink:href="ARenderer_8hpp.html" target="_top" xlink:title=" ">
<polygon fill="white" stroke="#666666" points="560,-195 415,-195 415,-165 560,-165 560,-195"/>
<text text-anchor="start" x="423" y="-183" font-family="Helvetica,sans-Serif" font-size="10.00">../../../Objects/Abstracts</text>
<text text-anchor="middle" x="487.5" y="-172" font-family="Helvetica,sans-Serif" font-size="10.00">/ARenderer/ARenderer.hpp</text>
</a>
</g>
</g>
<!-- Node3&#45;&gt;Node23 -->
<g id="edge44_Node000003_Node000023" class="edge">
<title>Node3&#45;&gt;Node23</title>
<g id="a_edge44_Node000003_Node000023"><a xlink:title=" ">
<path fill="none" stroke="#63b8ff" d="M469.51,-544.4C482.59,-524.81 512.5,-474.96 512.5,-428.5 512.5,-428.5 512.5,-428.5 512.5,-311 512.5,-273.43 502.31,-230.83 494.94,-204.95"/>
<polygon fill="#63b8ff" stroke="#63b8ff" points="498.27,-203.86 492.09,-195.26 491.55,-205.84 498.27,-203.86"/>
</a>
</g>
</g>
<!-- Node7 -->
<g id="Node000007" class="node">
<title>Node7</title>
<g id="a_Node000007"><a xlink:title=" ">
<polygon fill="#e0e0e0" stroke="#999999" points="157,-437 92,-437 92,-418 157,-418 157,-437"/>
<text text-anchor="middle" x="124.5" y="-425" font-family="Helvetica,sans-Serif" font-size="10.00">exception</text>
</a>
</g>
</g>
<!-- Node6&#45;&gt;Node7 -->
<g id="edge6_Node000006_Node000007" class="edge">
<title>Node6&#45;&gt;Node7</title>
<g id="a_edge6_Node000006_Node000007"><a xlink:title=" ">
<path fill="none" stroke="#63b8ff" d="M212.72,-472.99C193.88,-463.49 169.15,-451.02 150.66,-441.69"/>
<polygon fill="#63b8ff" stroke="#63b8ff" points="152.14,-438.52 141.63,-437.14 148.98,-444.77 152.14,-438.52"/>
</a>
</g>
</g>
<!-- Node8 -->
<g id="Node000008" class="node">
<title>Node8</title>
<g id="a_Node000008"><a xlink:title=" ">
<polygon fill="#e0e0e0" stroke="#999999" points="235.5,-437 175.5,-437 175.5,-418 235.5,-418 235.5,-437"/>
<text text-anchor="middle" x="205.5" y="-425" font-family="Helvetica,sans-Serif" font-size="10.00">iostream</text>
</a>
</g>
</g>
<!-- Node6&#45;&gt;Node8 -->
<g id="edge7_Node000006_Node000008" class="edge">
<title>Node6&#45;&gt;Node8</title>
<g id="a_edge7_Node000006_Node000008"><a xlink:title=" ">
<path fill="none" stroke="#63b8ff" d="M232.03,-472.84C227.21,-464.78 221.13,-454.62 216,-446.06"/>
<polygon fill="#63b8ff" stroke="#63b8ff" points="218.88,-444.05 210.74,-437.27 212.88,-447.64 218.88,-444.05"/>
</a>
</g>
</g>
<!-- Node9 -->
<g id="Node000009" class="node">
<title>Node9</title>
<g id="a_Node000009"><a xlink:title=" ">
<polygon fill="#e0e0e0" stroke="#999999" points="297.5,-437 253.5,-437 253.5,-418 297.5,-418 297.5,-437"/>
<text text-anchor="middle" x="275.5" y="-425" font-family="Helvetica,sans-Serif" font-size="10.00">string</text>
</a>
</g>
</g>
<!-- Node6&#45;&gt;Node9 -->
<g id="edge8_Node000006_Node000009" class="edge">
<title>Node6&#45;&gt;Node9</title>
<g id="a_edge8_Node000006_Node000009"><a xlink:title=" ">
<path fill="none" stroke="#63b8ff" d="M248.97,-472.84C253.79,-464.78 259.87,-454.62 265,-446.06"/>
<polygon fill="#63b8ff" stroke="#63b8ff" points="268.12,-447.64 270.26,-437.27 262.12,-444.05 268.12,-447.64"/>
</a>
</g>
</g>
<!-- Node10 -->
<g id="Node000010" class="node">
<title>Node10</title>
<g id="a_Node000010"><a xlink:title=" ">
<polygon fill="#e0e0e0" stroke="#999999" points="409,-437 316,-437 316,-418 409,-418 409,-437"/>
<text text-anchor="middle" x="362.5" y="-425" font-family="Helvetica,sans-Serif" font-size="10.00">source_location</text>
</a>
</g>
</g>
<!-- Node6&#45;&gt;Node10 -->
<g id="edge9_Node000006_Node000010" class="edge">
<title>Node6&#45;&gt;Node10</title>
<g id="a_edge9_Node000006_Node000010"><a xlink:title=" ">
<path fill="none" stroke="#63b8ff" d="M269.72,-472.99C289.62,-463.45 315.78,-450.9 335.25,-441.57"/>
<polygon fill="#63b8ff" stroke="#63b8ff" points="336.98,-444.62 344.48,-437.14 333.95,-438.31 336.98,-444.62"/>
</a>
</g>
</g>
<!-- Node12&#45;&gt;Node13 -->
<g id="edge12_Node000012_Node000013" class="edge">
<title>Node12&#45;&gt;Node13</title>
<g id="a_edge12_Node000012_Node000013"><a xlink:title=" ">
<path fill="none" stroke="#63b8ff" d="M617.14,-472.84C628.89,-463.91 644.03,-452.41 655.95,-443.35"/>
<polygon fill="#63b8ff" stroke="#63b8ff" points="658.12,-446.1 663.96,-437.27 653.88,-440.53 658.12,-446.1"/>
</a>
</g>
</g>
<!-- Node14 -->
<g id="Node000014" class="node">
<title>Node14</title>
<g id="a_Node000014"><a xlink:href="HitRecord_8hpp.html" target="_top" xlink:title=" ">
<polygon fill="white" stroke="#666666" points="1238.5,-195 1104.5,-195 1104.5,-165 1238.5,-165 1238.5,-195"/>
<text text-anchor="start" x="1112.5" y="-183" font-family="Helvetica,sans-Serif" font-size="10.00">../../Geometry/HitRecord</text>
<text text-anchor="middle" x="1171.5" y="-172" font-family="Helvetica,sans-Serif" font-size="10.00">/HitRecord.hpp</text>
</a>
</g>
</g>
<!-- Node13&#45;&gt;Node14 -->
<g id="edge13_Node000013_Node000014" class="edge">
<title>Node13&#45;&gt;Node14</title>
<g id="a_edge13_Node000013_Node000014"><a xlink:title=" ">
<path fill="none" stroke="#63b8ff" d="M690.29,-417.84C737.98,-393.78 889.66,-323.74 1013.5,-261 1053.43,-240.77 1098.64,-216.27 1130.59,-199.75"/>
<polygon fill="#63b8ff" stroke="#63b8ff" points="1132.34,-202.78 1139.64,-195.1 1129.15,-196.56 1132.34,-202.78"/>
</a>
</g>
</g>
<!-- Node18 -->
<g id="Node000018" class="node">
<title>Node18</title>
<g id="a_Node000018"><a xlink:href="Color_8hpp.html" target="_top" xlink:title=" ">
<polygon fill="white" stroke="#666666" points="439.5,-129 333.5,-129 333.5,-110 439.5,-110 439.5,-129"/>
<text text-anchor="middle" x="386.5" y="-117" font-family="Helvetica,sans-Serif" font-size="10.00">../../Utils/Color.hpp</text>
</a>
</g>
</g>
<!-- Node13&#45;&gt;Node18 -->
<g id="edge19_Node000013_Node000018" class="edge">
<title>Node13&#45;&gt;Node18</title>
<g id="a_edge19_Node000013_Node000018"><a xlink:title=" ">
<path fill="none" stroke="#63b8ff" d="M630.38,-420.47C540.67,-407.23 348.5,-371.97 348.5,-313 348.5,-313 348.5,-313 348.5,-245 348.5,-205.63 366.1,-162.18 377.34,-138.45"/>
<polygon fill="#63b8ff" stroke="#63b8ff" points="380.58,-139.8 381.84,-129.28 374.29,-136.71 380.58,-139.8"/>
</a>
</g>
</g>
<!-- Node13&#45;&gt;Node20 -->
<g id="edge21_Node000013_Node000020" class="edge">
<title>Node13&#45;&gt;Node20</title>
<g id="a_edge21_Node000013_Node000020"><a xlink:title=" ">
<path fill="none" stroke="#63b8ff" d="M679.13,-417.75C682.08,-410.65 686.33,-400.4 690.01,-391.56"/>
<polygon fill="#63b8ff" stroke="#63b8ff" points="693.33,-392.67 693.93,-382.09 686.87,-389.98 693.33,-392.67"/>
</a>
</g>
</g>
<!-- Node24 -->
<g id="Node000024" class="node">
<title>Node24</title>
<g id="a_Node000024"><a xlink:title=" ">
<polygon fill="#e0e0e0" stroke="#999999" points="612,-129 565,-129 565,-110 612,-110 612,-129"/>
<text text-anchor="middle" x="588.5" y="-117" font-family="Helvetica,sans-Serif" font-size="10.00">vector</text>
</a>
</g>
</g>
<!-- Node13&#45;&gt;Node24 -->
<g id="edge43_Node000013_Node000024" class="edge">
<title>Node13&#45;&gt;Node24</title>
<g id="a_edge43_Node000013_Node000024"><a xlink:title=" ">
<path fill="none" stroke="#63b8ff" d="M669.52,-417.91C658.2,-401.23 633.71,-362.91 621.5,-327 598.82,-260.32 591.56,-176.11 589.38,-139.23"/>
<polygon fill="#63b8ff" stroke="#63b8ff" points="592.86,-138.81 588.83,-129.01 585.87,-139.18 592.86,-138.81"/>
</a>
</g>
</g>
<!-- Node14&#45;&gt;Node13 -->
<g id="edge18_Node000014_Node000013" class="edge">
<title>Node14&#45;&gt;Node13</title>
<g id="a_edge18_Node000014_Node000013"><a xlink:title=" ">
<path fill="none" stroke="#63b8ff" d="M1152.36,-195.25C1125.32,-211.55 1075.24,-238.84 1031.5,-261 913.94,-320.55 771.32,-386.69 708.08,-413.83"/>
<polygon fill="#63b8ff" stroke="#63b8ff" points="706.47,-410.71 698.63,-417.84 709.21,-417.16 706.47,-410.71"/>
</a>
</g>
</g>
<!-- Node15 -->
<g id="Node000015" class="node">
<title>Node15</title>
<g id="a_Node000015"><a xlink:href="Point3D_8hpp.html" target="_top" xlink:title=" ">
<polygon fill="white" stroke="#666666" points="1063.5,-129 937.5,-129 937.5,-110 1063.5,-110 1063.5,-129"/>
<text text-anchor="middle" x="1000.5" y="-117" font-family="Helvetica,sans-Serif" font-size="10.00">../Point3D/Point3D.hpp</text>
</a>
</g>
</g>
<!-- Node14&#45;&gt;Node15 -->
<g id="edge14_Node000014_Node000015" class="edge">
<title>Node14&#45;&gt;Node15</title>
<g id="a_edge14_Node000014_Node000015"><a xlink:title=" ">
<path fill="none" stroke="#63b8ff" d="M1130.54,-164.99C1101.5,-155.05 1062.95,-141.86 1035.38,-132.43"/>
<polygon fill="#63b8ff" stroke="#63b8ff" points="1036.35,-129.06 1025.75,-129.14 1034.08,-135.69 1036.35,-129.06"/>
</a>
</g>
</g>
<!-- Node16 -->
<g id="Node000016" class="node">
<title>Node16</title>
<g id="a_Node000016"><a xlink:href="Vector3D_8hpp.html" target="_top" xlink:title=" ">
<polygon fill="white" stroke="#666666" points="978.5,-74 840.5,-74 840.5,-55 978.5,-55 978.5,-74"/>
<text text-anchor="middle" x="909.5" y="-62" font-family="Helvetica,sans-Serif" font-size="10.00">../Vector3D/Vector3D.hpp</text>
</a>
</g>
</g>
<!-- Node14&#45;&gt;Node16 -->
<g id="edge17_Node000014_Node000016" class="edge">
<title>Node14&#45;&gt;Node16</title>
<g id="a_edge17_Node000014_Node000016"><a xlink:title=" ">
<path fill="none" stroke="#63b8ff" d="M1155.08,-164.88C1136.28,-149.37 1104,-124.74 1072.5,-110 1039.17,-94.41 999.38,-83.41 967.45,-76.25"/>
<polygon fill="#63b8ff" stroke="#63b8ff" points="967.89,-72.77 957.38,-74.06 966.4,-79.61 967.89,-72.77"/>
</a>
</g>
</g>
<!-- Node15&#45;&gt;Node16 -->
<g id="edge15_Node000015_Node000016" class="edge">
<title>Node15&#45;&gt;Node16</title>
<g id="a_edge15_Node000015_Node000016"><a xlink:title=" ">
<path fill="none" stroke="#63b8ff" d="M985.88,-109.98C971.64,-101.69 949.75,-88.94 933.05,-79.22"/>
<polygon fill="#63b8ff" stroke="#63b8ff" points="934.79,-76.18 924.39,-74.17 931.27,-82.23 934.79,-76.18"/>
</a>
</g>
</g>
<!-- Node17 -->
<g id="Node000017" class="node">
<title>Node17</title>
<g id="a_Node000017"><a xlink:title=" ">
<polygon fill="#e0e0e0" stroke="#999999" points="935,-19 884,-19 884,0 935,0 935,-19"/>
<text text-anchor="middle" x="909.5" y="-7" font-family="Helvetica,sans-Serif" font-size="10.00">math.h</text>
</a>
</g>
</g>
<!-- Node16&#45;&gt;Node17 -->
<g id="edge16_Node000016_Node000017" class="edge">
<title>Node16&#45;&gt;Node17</title>
<g id="a_edge16_Node000016_Node000017"><a xlink:title=" ">
<path fill="none" stroke="#63b8ff" d="M909.5,-54.75C909.5,-47.8 909.5,-37.85 909.5,-29.13"/>
<polygon fill="#63b8ff" stroke="#63b8ff" points="913,-29.09 909.5,-19.09 906,-29.09 913,-29.09"/>
</a>
</g>
</g>
<!-- Node19 -->
<g id="Node000019" class="node">
<title>Node19</title>
<g id="a_Node000019"><a xlink:title=" ">
<polygon fill="#e0e0e0" stroke="#999999" points="418.5,-74 354.5,-74 354.5,-55 418.5,-55 418.5,-74"/>
<text text-anchor="middle" x="386.5" y="-62" font-family="Helvetica,sans-Serif" font-size="10.00">algorithm</text>
</a>
</g>
</g>
<!-- Node18&#45;&gt;Node19 -->
<g id="edge20_Node000018_Node000019" class="edge">
<title>Node18&#45;&gt;Node19</title>
<g id="a_edge20_Node000018_Node000019"><a xlink:title=" ">
<path fill="none" stroke="#63b8ff" d="M386.5,-109.75C386.5,-102.8 386.5,-92.85 386.5,-84.13"/>
<polygon fill="#63b8ff" stroke="#63b8ff" points="390,-84.09 386.5,-74.09 383,-84.09 390,-84.09"/>
</a>
</g>
</g>
<!-- Node20&#45;&gt;Node14 -->
<g id="edge22_Node000020_Node000014" class="edge">
<title>Node20&#45;&gt;Node14</title>
<g id="a_edge22_Node000020_Node000014"><a xlink:title=" ">
<path fill="none" stroke="#63b8ff" d="M718.79,-362.94C791.05,-333.9 1027.97,-238.68 1127.18,-198.81"/>
<polygon fill="#63b8ff" stroke="#63b8ff" points="1128.65,-201.99 1136.62,-195.02 1126.04,-195.5 1128.65,-201.99"/>
</a>
</g>
</g>
<!-- Node20&#45;&gt;Node18 -->
<g id="edge23_Node000020_Node000018" class="edge">
<title>Node20&#45;&gt;Node18</title>
<g id="a_edge23_Node000020_Node000018"><a xlink:title=" ">
<path fill="none" stroke="#63b8ff" d="M670.05,-362.96C611.74,-343.34 475.16,-289.36 405.5,-195 393.51,-178.75 389.05,-155.69 387.42,-139.54"/>
<polygon fill="#63b8ff" stroke="#63b8ff" points="390.88,-138.92 386.65,-129.2 383.9,-139.43 390.88,-138.92"/>
</a>
</g>
</g>
<!-- Node21 -->
<g id="Node000021" class="node">
<title>Node21</title>
<g id="a_Node000021"><a xlink:href="Scene_8hpp.html" target="_top" xlink:title=" ">
<polygon fill="white" stroke="#666666" points="764,-327 631,-327 631,-297 764,-297 764,-327"/>
<text text-anchor="start" x="639" y="-315" font-family="Helvetica,sans-Serif" font-size="10.00">../../SceneSystem/Scene</text>
<text text-anchor="middle" x="697.5" y="-304" font-family="Helvetica,sans-Serif" font-size="10.00">/Scene.hpp</text>
</a>
</g>
</g>
<!-- Node20&#45;&gt;Node21 -->
<g id="edge24_Node000020_Node000021" class="edge">
<title>Node20&#45;&gt;Node21</title>
<g id="a_edge24_Node000020_Node000021"><a xlink:title=" ">
<path fill="none" stroke="#63b8ff" d="M692.54,-362.87C691.08,-356.11 690.51,-346.35 690.84,-337.26"/>
<polygon fill="#63b8ff" stroke="#63b8ff" points="694.34,-337.36 691.63,-327.11 687.36,-336.81 694.34,-337.36"/>
</a>
</g>
</g>
<!-- Node21&#45;&gt;Node12 -->
<g id="edge39_Node000021_Node000012" class="edge">
<title>Node21&#45;&gt;Node12</title>
<g id="a_edge39_Node000021_Node000012"><a xlink:title=" ">
<path fill="none" stroke="#63b8ff" d="M684.42,-327.42C675.82,-337.18 664.54,-350.51 655.5,-363 638.66,-386.29 633.68,-391.97 621.5,-418 614.74,-432.44 609.06,-449.42 605.03,-462.92"/>
<polygon fill="#63b8ff" stroke="#63b8ff" points="601.56,-462.31 602.16,-472.89 608.29,-464.24 601.56,-462.31"/>
</a>
</g>
</g>
<!-- Node21&#45;&gt;Node20 -->
<g id="edge40_Node000021_Node000020" class="edge">
<title>Node21&#45;&gt;Node20</title>
<g id="a_edge40_Node000021_Node000020"><a xlink:title=" ">
<path fill="none" stroke="#63b8ff" d="M703.37,-327.11C704.36,-334.87 704.51,-344.58 703.83,-352.93"/>
<polygon fill="#63b8ff" stroke="#63b8ff" points="700.36,-352.48 702.46,-362.87 707.3,-353.44 700.36,-352.48"/>
</a>
</g>
</g>
<!-- Node22 -->
<g id="Node000022" class="node">
<title>Node22</title>
<g id="a_Node000022"><a xlink:href="Camera_8hpp.html" target="_top" xlink:title=" ">
<polygon fill="white" stroke="#666666" points="887.5,-261 747.5,-261 747.5,-231 887.5,-231 887.5,-261"/>
<text text-anchor="start" x="755.5" y="-249" font-family="Helvetica,sans-Serif" font-size="10.00">../../CorePlugin/Renderers</text>
<text text-anchor="middle" x="817.5" y="-238" font-family="Helvetica,sans-Serif" font-size="10.00">/Camera/Camera.hpp</text>
</a>
</g>
</g>
<!-- Node21&#45;&gt;Node22 -->
<g id="edge25_Node000021_Node000022" class="edge">
<title>Node21&#45;&gt;Node22</title>
<g id="a_edge25_Node000021_Node000022"><a xlink:title=" ">
<path fill="none" stroke="#63b8ff" d="M723.83,-296.95C741.03,-287.78 763.68,-275.71 782.39,-265.72"/>
<polygon fill="#63b8ff" stroke="#63b8ff" points="784.05,-268.81 791.23,-261.01 780.76,-262.63 784.05,-268.81"/>
</a>
</g>
</g>
<!-- Node21&#45;&gt;Node24 -->
<g id="edge41_Node000021_Node000024" class="edge">
<title>Node21&#45;&gt;Node24</title>
<g id="a_edge41_Node000021_Node000024"><a xlink:title=" ">
<path fill="none" stroke="#63b8ff" d="M685.46,-296.63C677.6,-286.9 667.36,-273.57 659.5,-261 633.15,-218.86 608.4,-165.69 596.28,-138.42"/>
<polygon fill="#63b8ff" stroke="#63b8ff" points="599.38,-136.77 592.15,-129.02 592.97,-139.59 599.38,-136.77"/>
</a>
</g>
</g>
<!-- Node28 -->
<g id="Node000028" class="node">
<title>Node28</title>
<g id="a_Node000028"><a xlink:title=" ">
<polygon fill="#e0e0e0" stroke="#999999" points="726.5,-255.5 668.5,-255.5 668.5,-236.5 726.5,-236.5 726.5,-255.5"/>
<text text-anchor="middle" x="697.5" y="-243.5" font-family="Helvetica,sans-Serif" font-size="10.00">memory</text>
</a>
</g>
</g>
<!-- Node21&#45;&gt;Node28 -->
<g id="edge42_Node000021_Node000028" class="edge">
<title>Node21&#45;&gt;Node28</title>
<g id="a_edge42_Node000021_Node000028"><a xlink:title=" ">
<path fill="none" stroke="#63b8ff" d="M697.5,-296.8C697.5,-287.7 697.5,-275.79 697.5,-265.9"/>
<polygon fill="#63b8ff" stroke="#63b8ff" points="701,-265.84 697.5,-255.84 694,-265.84 701,-265.84"/>
</a>
</g>
</g>
<!-- Node22&#45;&gt;Node14 -->
<g id="edge37_Node000022_Node000014" class="edge">
<title>Node22&#45;&gt;Node14</title>
<g id="a_edge37_Node000022_Node000014"><a xlink:title=" ">
<path fill="none" stroke="#63b8ff" d="M887.86,-232.28C947.45,-221.51 1032.76,-206.08 1094.23,-194.97"/>
<polygon fill="#63b8ff" stroke="#63b8ff" points="1095.05,-198.38 1104.27,-193.15 1093.81,-191.49 1095.05,-198.38"/>
</a>
</g>
</g>
<!-- Node22&#45;&gt;Node15 -->
<g id="edge29_Node000022_Node000015" class="edge">
<title>Node22&#45;&gt;Node15</title>
<g id="a_edge29_Node000022_Node000015"><a xlink:title=" ">
<path fill="none" stroke="#63b8ff" d="M887.66,-234.94C954.55,-224.64 1046.69,-208.29 1057.5,-195 1065.91,-184.66 1063.35,-176.98 1057.5,-165 1051.2,-152.09 1039.15,-141.83 1027.74,-134.43"/>
<polygon fill="#63b8ff" stroke="#63b8ff" points="1029.23,-131.25 1018.85,-129.12 1025.64,-137.25 1029.23,-131.25"/>
</a>
</g>
</g>
<!-- Node22&#45;&gt;Node16 -->
<g id="edge30_Node000022_Node000016" class="edge">
<title>Node22&#45;&gt;Node16</title>
<g id="a_edge30_Node000022_Node000016"><a xlink:title=" ">
<path fill="none" stroke="#63b8ff" d="M749.85,-230.97C706.62,-218.61 662.33,-197.45 683.5,-165 717.33,-113.14 784.93,-88.12 837.43,-76.17"/>
<polygon fill="#63b8ff" stroke="#63b8ff" points="838.34,-79.55 847.37,-74.02 836.86,-72.71 838.34,-79.55"/>
</a>
</g>
</g>
<!-- Node22&#45;&gt;Node23 -->
<g id="edge26_Node000022_Node000023" class="edge">
<title>Node22&#45;&gt;Node23</title>
<g id="a_edge26_Node000022_Node000023"><a xlink:title=" ">
<path fill="none" stroke="#63b8ff" d="M747.11,-231.35C695.17,-221.27 624.32,-207.54 569.77,-196.95"/>
<polygon fill="#63b8ff" stroke="#63b8ff" points="570.26,-193.49 559.78,-195.02 568.93,-200.36 570.26,-193.49"/>
</a>
</g>
</g>
<!-- Node25 -->
<g id="Node000025" class="node">
<title>Node25</title>
<g id="a_Node000025"><a xlink:href="Rectangle3D_8hpp.html" target="_top" xlink:title=" ">
<polygon fill="white" stroke="#666666" points="1048.5,-195 898.5,-195 898.5,-165 1048.5,-165 1048.5,-195"/>
<text text-anchor="start" x="906.5" y="-183" font-family="Helvetica,sans-Serif" font-size="10.00">../../../Geometry/Rectangle3</text>
<text text-anchor="middle" x="973.5" y="-172" font-family="Helvetica,sans-Serif" font-size="10.00">D/Rectangle3D.hpp</text>
</a>
</g>
</g>
<!-- Node22&#45;&gt;Node25 -->
<g id="edge31_Node000022_Node000025" class="edge">
<title>Node22&#45;&gt;Node25</title>
<g id="a_edge31_Node000022_Node000025"><a xlink:title=" ">
<path fill="none" stroke="#63b8ff" d="M851.73,-230.95C874.7,-221.53 905.14,-209.04 929.84,-198.91"/>
<polygon fill="#63b8ff" stroke="#63b8ff" points="931.42,-202.05 939.34,-195.01 928.76,-195.57 931.42,-202.05"/>
</a>
</g>
</g>
<!-- Node26 -->
<g id="Node000026" class="node">
<title>Node26</title>
<g id="a_Node000026"><a xlink:href="Ray_8hpp.html" target="_top" xlink:title=" ">
<polygon fill="white" stroke="#666666" points="880.5,-195 766.5,-195 766.5,-165 880.5,-165 880.5,-195"/>
<text text-anchor="start" x="774.5" y="-183" font-family="Helvetica,sans-Serif" font-size="10.00">../../../Geometry/Ray</text>
<text text-anchor="middle" x="823.5" y="-172" font-family="Helvetica,sans-Serif" font-size="10.00">/Ray.hpp</text>
</a>
</g>
</g>
<!-- Node22&#45;&gt;Node26 -->
<g id="edge34_Node000022_Node000026" class="edge">
<title>Node22&#45;&gt;Node26</title>
<g id="a_edge34_Node000022_Node000026"><a xlink:title=" ">
<path fill="none" stroke="#63b8ff" d="M818.83,-230.8C819.54,-223.26 820.43,-213.78 821.24,-205.13"/>
<polygon fill="#63b8ff" stroke="#63b8ff" points="824.72,-205.45 822.17,-195.16 817.75,-204.79 824.72,-205.45"/>
</a>
</g>
</g>
<!-- Node27 -->
<g id="Node000027" class="node">
<title>Node27</title>
<g id="a_Node000027"><a xlink:title=" ">
<polygon fill="#e0e0e0" stroke="#999999" points="748.5,-189.5 692.5,-189.5 692.5,-170.5 748.5,-170.5 748.5,-189.5"/>
<text text-anchor="middle" x="720.5" y="-177.5" font-family="Helvetica,sans-Serif" font-size="10.00">optional</text>
</a>
</g>
</g>
<!-- Node22&#45;&gt;Node27 -->
<g id="edge38_Node000022_Node000027" class="edge">
<title>Node22&#45;&gt;Node27</title>
<g id="a_edge38_Node000022_Node000027"><a xlink:title=" ">
<path fill="none" stroke="#63b8ff" d="M795.97,-230.8C780.02,-220.27 758.35,-205.97 742.32,-195.4"/>
<polygon fill="#63b8ff" stroke="#63b8ff" points="743.9,-192.24 733.62,-189.66 740.04,-198.09 743.9,-192.24"/>
</a>
</g>
</g>
<!-- Node23&#45;&gt;Node18 -->
<g id="edge27_Node000023_Node000018" class="edge">
<title>Node23&#45;&gt;Node18</title>
<g id="a_edge27_Node000023_Node000018"><a xlink:title=" ">
<path fill="none" stroke="#63b8ff" d="M463.31,-164.99C447.21,-155.66 426.16,-143.47 410.17,-134.21"/>
<polygon fill="#63b8ff" stroke="#63b8ff" points="411.82,-131.12 401.42,-129.14 408.31,-137.18 411.82,-131.12"/>
</a>
</g>
</g>
<!-- Node23&#45;&gt;Node24 -->
<g id="edge28_Node000023_Node000024" class="edge">
<title>Node23&#45;&gt;Node24</title>
<g id="a_edge28_Node000023_Node000024"><a xlink:title=" ">
<path fill="none" stroke="#63b8ff" d="M511.69,-164.99C527.79,-155.66 548.84,-143.47 564.83,-134.21"/>
<polygon fill="#63b8ff" stroke="#63b8ff" points="566.69,-137.18 573.58,-129.14 563.18,-131.12 566.69,-137.18"/>
</a>
</g>
</g>
<!-- Node25&#45;&gt;Node15 -->
<g id="edge32_Node000025_Node000015" class="edge">
<title>Node25&#45;&gt;Node15</title>
<g id="a_edge32_Node000025_Node000015"><a xlink:title=" ">
<path fill="none" stroke="#63b8ff" d="M980.04,-164.84C983.68,-156.95 988.24,-147.05 992.14,-138.61"/>
<polygon fill="#63b8ff" stroke="#63b8ff" points="995.44,-139.81 996.45,-129.27 989.09,-136.88 995.44,-139.81"/>
</a>
</g>
</g>
<!-- Node25&#45;&gt;Node16 -->
<g id="edge33_Node000025_Node000016" class="edge">
<title>Node25&#45;&gt;Node16</title>
<g id="a_edge33_Node000025_Node000016"><a xlink:title=" ">
<path fill="none" stroke="#63b8ff" d="M957.37,-164.63C947.78,-155.31 936.05,-142.44 928.5,-129 920.65,-115.03 915.72,-97.48 912.86,-84.37"/>
<polygon fill="#63b8ff" stroke="#63b8ff" points="916.22,-83.32 910.85,-74.19 909.35,-84.68 916.22,-83.32"/>
</a>
</g>
</g>
<!-- Node26&#45;&gt;Node15 -->
<g id="edge35_Node000026_Node000015" class="edge">
<title>Node26&#45;&gt;Node15</title>
<g id="a_edge35_Node000026_Node000015"><a xlink:title=" ">
<path fill="none" stroke="#63b8ff" d="M865.9,-164.99C896.18,-154.98 936.45,-141.67 965.03,-132.22"/>
<polygon fill="#63b8ff" stroke="#63b8ff" points="966.22,-135.52 974.62,-129.05 964.03,-128.87 966.22,-135.52"/>
</a>
</g>
</g>
<!-- Node26&#45;&gt;Node16 -->
<g id="edge36_Node000026_Node000016" class="edge">
<title>Node26&#45;&gt;Node16</title>
<g id="a_edge36_Node000026_Node000016"><a xlink:title=" ">
<path fill="none" stroke="#63b8ff" d="M834.39,-164.63C850.28,-143.65 879.76,-104.75 896.68,-82.42"/>
<polygon fill="#63b8ff" stroke="#63b8ff" points="899.64,-84.31 902.89,-74.23 894.06,-80.09 899.64,-84.31"/>
</a>
</g>
</g>
<!-- Node30 -->
<g id="Node000030" class="node">
<title>Node30</title>
<g id="a_Node000030"><a xlink:title=" ">
<polygon fill="#e0e0e0" stroke="#999999" points="639.5,-563.5 541.5,-563.5 541.5,-544.5 639.5,-544.5 639.5,-563.5"/>
<text text-anchor="middle" x="590.5" y="-551.5" font-family="Helvetica,sans-Serif" font-size="10.00">../../../IPlugin.hpp</text>
</a>
</g>
</g>
<!-- Node29&#45;&gt;Node30 -->
<g id="edge48_Node000029_Node000030" class="edge">
<title>Node29&#45;&gt;Node30</title>
<g id="a_edge48_Node000029_Node000030"><a xlink:title=" ">
<path fill="none" stroke="#63b8ff" d="M590.5,-604.8C590.5,-595.7 590.5,-583.79 590.5,-573.9"/>
<polygon fill="#63b8ff" stroke="#63b8ff" points="594,-573.84 590.5,-563.84 587,-573.84 594,-573.84"/>
</a>
</g>
</g>
<!-- Node32 -->
<g id="Node000032" class="node">
<title>Node32</title>
<g id="a_Node000032"><a xlink:title=" ">
<polygon fill="#e0e0e0" stroke="#999999" points="1101,-569 958,-569 958,-539 1101,-539 1101,-569"/>
<text text-anchor="start" x="966" y="-557" font-family="Helvetica,sans-Serif" font-size="10.00">../../../Geometry/HitRecord</text>
<text text-anchor="middle" x="1029.5" y="-546" font-family="Helvetica,sans-Serif" font-size="10.00">/HitRecord.hpp</text>
</a>
</g>
</g>
<!-- Node31&#45;&gt;Node32 -->
<g id="edge50_Node000031_Node000032" class="edge">
<title>Node31&#45;&gt;Node32</title>
<g id="a_edge50_Node000031_Node000032"><a xlink:title=" ">
<path fill="none" stroke="#63b8ff" d="M839.17,-610.37C872.9,-600.56 928.79,-584.3 971.3,-571.93"/>
<polygon fill="#63b8ff" stroke="#63b8ff" points="972.35,-575.27 980.98,-569.12 970.4,-568.55 972.35,-575.27"/>
</a>
</g>
</g>
<!-- Node33 -->
<g id="Node000033" class="node">
<title>Node33</title>
<g id="a_Node000033"><a xlink:title=" ">
<polygon fill="#e0e0e0" stroke="#999999" points="807.5,-569 657.5,-569 657.5,-539 807.5,-539 807.5,-569"/>
<text text-anchor="start" x="665.5" y="-557" font-family="Helvetica,sans-Serif" font-size="10.00">../../../Geometry/Rectangle3</text>
<text text-anchor="middle" x="732.5" y="-546" font-family="Helvetica,sans-Serif" font-size="10.00">D/Rectangle3D.hpp</text>
</a>
</g>
</g>
<!-- Node31&#45;&gt;Node33 -->
<g id="edge51_Node000031_Node000033" class="edge">
<title>Node31&#45;&gt;Node33</title>
<g id="a_edge51_Node000031_Node000033"><a xlink:title=" ">
<path fill="none" stroke="#63b8ff" d="M799.12,-610.37C788.48,-601.53 771.54,-587.45 757.41,-575.71"/>
<polygon fill="#63b8ff" stroke="#63b8ff" points="759.41,-572.82 749.48,-569.12 754.94,-578.2 759.41,-572.82"/>
</a>
</g>
</g>
<!-- Node34 -->
<g id="Node000034" class="node">
<title>Node34</title>
<g id="a_Node000034"><a xlink:title=" ">
<polygon fill="#e0e0e0" stroke="#999999" points="940,-563.5 825,-563.5 825,-544.5 940,-544.5 940,-563.5"/>
<text text-anchor="middle" x="882.5" y="-551.5" font-family="Helvetica,sans-Serif" font-size="10.00">../../../Utils/Color.hpp</text>
</a>
</g>
</g>
<!-- Node31&#45;&gt;Node34 -->
<g id="edge52_Node000031_Node000034" class="edge">
<title>Node31&#45;&gt;Node34</title>
<g id="a_edge52_Node000031_Node000034"><a xlink:title=" ">
<path fill="none" stroke="#63b8ff" d="M819.35,-610.37C830.93,-600.21 850.38,-583.16 864.64,-570.65"/>
<polygon fill="#63b8ff" stroke="#63b8ff" points="867.13,-573.13 872.34,-563.91 862.52,-567.87 867.13,-573.13"/>
</a>
</g>
</g>
</g>
</svg>

<g id="navigator" transform="translate(0 0)" fill="#404254">
  <rect fill="#f2f5e9" fill-opacity="0.5" stroke="#606060" stroke-width=".5" x="0" y="0" width="60" height="60"/>
  <use id="zoomplus" xlink:href="#zoomPlus" x="17" y="9" onmousedown="handleZoom(evt,'in')"/>
  <use id="zoomminus" xlink:href="#zoomMin" x="42" y="9" onmousedown="handleZoom(evt,'out')"/>
  <use id="reset" xlink:href="#resetDef" x="30" y="36" onmousedown="handleReset()"/>
   <use id="arrowup" xlink:href="#arrowUp" x="0" y="0" onmousedown="handlePan(0,-1)"/>
  <use id="arrowright" xlink:href="#arrowRight" x="0" y="0" onmousedown="handlePan(1,0)"/>
  <use id="arrowdown" xlink:href="#arrowDown" x="0" y="0" onmousedown="handlePan(0,1)"/>
  <use id="arrowleft" xlink:href="#arrowLeft" x="0" y="0" onmousedown="handlePan(-1,0)"/>
</g>
<svg viewBox="0 0 15 15" width="100%" height="30px" preserveAspectRatio="xMaxYMin meet">
 <g id="arrow_out" transform="scale(0.3 0.3)">
  <a xlink:href="CorePlugin_8cpp__incl_org.svg" target="_base">
   <rect id="button" ry="5" rx="5" y="6" x="6" height="38" width="38"
        fill="#f2f5e9" fill-opacity="0.5" stroke="#606060" stroke-width="1.0"/>
   <path id="arrow"
     d="M 11.500037,31.436501 C 11.940474,20.09759 22.043105,11.32322 32.158766,21.979434 L 37.068811,17.246167 C 37.068811,17.246167 37.088388,32 37.088388,32 L 22.160133,31.978069 C 22.160133,31.978069 26.997745,27.140456 26.997745,27.140456 C 18.528582,18.264221 13.291696,25.230495 11.500037,31.436501 z"
     style="fill:#404040;"/>
  </a>
 </g>
</svg>

<style type='text/css'>
<![CDATA[
[data-mouse-over-selected='false'] { opacity: 0.7; }
[data-mouse-over-selected='true']  { opacity: 1.0; }
]]>
</style>
<script type="application/ecmascript"><![CDATA[
document.addEventListener('DOMContentLoaded', (event) => {
  highlightEdges();
  highlightAdjacentNodes();
});
]]></script>
</svg>
