<?xml version="1.0" encoding="UTF-8" standalone="no"?>
<!DOCTYPE svg PUBLIC "-//W3C//DTD SVG 1.1//EN"
 "http://www.w3.org/Graphics/SVG/1.1/DTD/svg11.dtd">
<!-- Generated by graphviz version 2.43.0 (0)
 -->
<!-- Title: src/Objects/Plugins Pages: 1 -->
<!--zoomable 141 -->

<svg id="main" version="1.1" xmlns="http://www.w3.org/2000/svg" xmlns:xlink="http://www.w3.org/1999/xlink" xml:space="preserve" onload="init(evt)">
<style type="text/css"><![CDATA[
.node, .edge {opacity: 0.7;}
.node.selected, .edge.selected {opacity: 1;}
.edge:hover path { stroke: red; }
.edge:hover polygon { stroke: red; fill: red; }
]]></style>

<defs>
  <circle id="rim" cx="0" cy="0" r="7"/>
  <circle id="rim2" cx="0" cy="0" r="3.5"/>
  <g id="zoomPlus">
    <use xlink:href="#rim" fill="#404040"><set attributeName="fill" to="#808080" begin="zoomplus.mouseover" end="zoomplus.mouseout"/></use>
    <path d="M-4,0h8M0,-4v8" fill="none" stroke="white" stroke-width="1.5" pointer-events="none"/>
  </g>
  <g id="zoomMin">
    <use xlink:href="#rim" fill="#404040"><set attributeName="fill" to="#808080" begin="zoomminus.mouseover" end="zoomminus.mouseout"/></use>
    <path d="M-4,0h8" fill="none" stroke="white" stroke-width="1.5" pointer-events="none"/>
  </g>
  <g id="arrowUp" transform="translate(30 24)">
    <use xlink:href="#rim"/>
    <path pointer-events="none" fill="none" stroke="white" stroke-width="1.5" d="M0,-3.0v7 M-2.5,-0.5L0,-3.0L2.5,-0.5"/>
  </g>
  <g id="arrowRight" transform="rotate(90) translate(36 -43)">
    <use xlink:href="#rim"/>
    <path pointer-events="none" fill="none" stroke="white" stroke-width="1.5" d="M0,-3.0v7 M-2.5,-0.5L0,-3.0L2.5,-0.5"/>
  </g>
  <g id="arrowDown" transform="rotate(180) translate(-30 -48)">
    <use xlink:href="#rim"/>
    <path pointer-events="none" fill="none" stroke="white" stroke-width="1.5" d="M0,-3.0v7 M-2.5,-0.5L0,-3.0L2.5,-0.5"/>
  </g>
  <g id="arrowLeft" transform="rotate(270) translate(-36 17)">
    <use xlink:href="#rim"/>
    <path pointer-events="none" fill="none" stroke="white" stroke-width="1.5" d="M0,-3.0v7 M-2.5,-0.5L0,-3.0L2.5,-0.5"/>
  </g>
  <g id="resetDef">
    <use xlink:href="#rim2" fill="#404040"><set attributeName="fill" to="#808080" begin="reset.mouseover" end="reset.mouseout"/></use>
  </g>
</defs>
<script type="application/ecmascript">
var viewWidth = 664;
var viewHeight = 141;
var sectionId = 'dynsection-0';
</script>
<script type="application/ecmascript" xlink:href="svg.min.js"/>
<svg id="graph" class="graph">
<g id="viewport">
<title>src/Objects/Plugins</title>
<g id="clust1" class="cluster">
<title>clusterdir_55b41fb77a5097913bc464fb6a145e9c</title>
<g id="a_clust1"><a xlink:href="dir_55b41fb77a5097913bc464fb6a145e9c.html" target="_top" xlink:title="Objects">
<polygon fill="#edf0f7" stroke="#7f7f7f" stroke-dasharray="5,2" points="8,-8 8,-125 424,-125 424,-8 8,-8"/>
<text text-anchor="middle" x="216" y="-113" font-family="Helvetica,sans-Serif" font-size="10.00">Objects</text>
</a>
</g>
</g>
<g id="clust2" class="cluster">
<title>clusterdir_86cf0aee3ebd28cdfb001e081edcf295</title>
<g id="a_clust2"><a xlink:href="dir_86cf0aee3ebd28cdfb001e081edcf295.html" target="_top">
<polygon fill="#edf0f7" stroke="#404040" stroke-width="2" points="16,-63 16,-98 416,-98 416,-63 16,-63"/>
</a>
</g>
</g>
<!-- dir_7f2e168896bc22155d1dd7adee44c1a1 -->
<g id="node1" class="node">
<title>dir_7f2e168896bc22155d1dd7adee44c1a1</title>
<g id="a_node1"><a xlink:href="dir_7f2e168896bc22155d1dd7adee44c1a1.html" target="_top" xlink:title="Abstracts">
<polygon fill="#a2b4d6" stroke="red" points="256,-35 194,-35 194,-16 256,-16 256,-35"/>
<text text-anchor="middle" x="225" y="-23" font-family="Helvetica,sans-Serif" font-size="10.00">Abstracts</text>
</a>
</g>
</g>
<!-- dir_86cf0aee3ebd28cdfb001e081edcf295 -->
<g id="node2" class="node">
<title>dir_86cf0aee3ebd28cdfb001e081edcf295</title>
<text text-anchor="middle" x="382" y="-78" font-family="Helvetica,sans-Serif" font-size="10.00">Plugins</text>
</g>
<!-- dir_916293032859aa8b094682194383d44e -->
<g id="node3" class="node">
<title>dir_916293032859aa8b094682194383d44e</title>
<g id="a_node3"><a xlink:href="dir_916293032859aa8b094682194383d44e.html" target="_top" xlink:title="Interfaces">
<polygon fill="#a2b4d6" stroke="#404040" points="257.5,-90 192.5,-90 192.5,-71 257.5,-71 257.5,-90"/>
<text text-anchor="middle" x="225" y="-78" font-family="Helvetica,sans-Serif" font-size="10.00">Interfaces</text>
</a>
</g>
</g>
<!-- dir_916293032859aa8b094682194383d44e&#45;&gt;dir_7f2e168896bc22155d1dd7adee44c1a1 -->
<g id="edge3" class="edge">
<title>dir_916293032859aa8b094682194383d44e&#45;&gt;dir_7f2e168896bc22155d1dd7adee44c1a1</title>
<g id="a_edge3"><a xlink:href="dir_000011_000000.html" target="_top">
<path fill="none" stroke="#63b8ff" d="M225,-70.75C225,-63.8 225,-53.85 225,-45.13"/>
<polygon fill="#63b8ff" stroke="#63b8ff" points="228.5,-45.09 225,-35.09 221.5,-45.09 228.5,-45.09"/>
</a>
</g>
<g id="a_edge3&#45;headlabel"><a xlink:href="dir_000011_000000.html" target="_top" xlink:title="1">
<text text-anchor="middle" x="231.34" y="-46.18" font-family="Helvetica,sans-Serif" font-size="10.00" fill="#63b8ff">1</text>
</a>
</g>
</g>
<!-- dir_a7363e98f9e0bdd87618633653859815 -->
<g id="node7" class="node">
<title>dir_a7363e98f9e0bdd87618633653859815</title>
<g id="a_node7"><a xlink:href="dir_a7363e98f9e0bdd87618633653859815.html" target="_top" xlink:title="Utils">
<polygon fill="#edf0f7" stroke="#7f7f7f" points="572.5,-35 533.5,-35 533.5,-16 572.5,-16 572.5,-35"/>
<text text-anchor="middle" x="553" y="-23" font-family="Helvetica,sans-Serif" font-size="10.00">Utils</text>
</a>
</g>
</g>
<!-- dir_916293032859aa8b094682194383d44e&#45;&gt;dir_a7363e98f9e0bdd87618633653859815 -->
<g id="edge2" class="edge">
<title>dir_916293032859aa8b094682194383d44e&#45;&gt;dir_a7363e98f9e0bdd87618633653859815</title>
<g id="a_edge2"><a xlink:href="dir_000011_000029.html" target="_top">
<path fill="none" stroke="#63b8ff" d="M243.89,-70.84C251,-67.92 259.24,-64.91 267,-63 375.83,-36.23 410.06,-56.83 523.14,-35.02"/>
<polygon fill="#63b8ff" stroke="#63b8ff" points="524.11,-38.39 533.23,-33 522.74,-31.53 524.11,-38.39"/>
</a>
</g>
<g id="a_edge2&#45;headlabel"><a xlink:href="dir_000011_000029.html" target="_top" xlink:title="1">
<text text-anchor="middle" x="521.14" y="-39.38" font-family="Helvetica,sans-Serif" font-size="10.00" fill="#63b8ff">1</text>
</a>
</g>
</g>
<!-- dir_49f80dbd7683ed98b39c0cd73917c2a0 -->
<g id="node9" class="node">
<title>dir_49f80dbd7683ed98b39c0cd73917c2a0</title>
<g id="a_node9"><a xlink:href="dir_49f80dbd7683ed98b39c0cd73917c2a0.html" target="_top" xlink:title="SceneSystem">
<polygon fill="#edf0f7" stroke="red" stroke-dasharray="5,2" points="515.5,-35 432.5,-35 432.5,-16 515.5,-16 515.5,-35"/>
<text text-anchor="middle" x="474" y="-23" font-family="Helvetica,sans-Serif" font-size="10.00">SceneSystem</text>
</a>
</g>
</g>
<!-- dir_916293032859aa8b094682194383d44e&#45;&gt;dir_49f80dbd7683ed98b39c0cd73917c2a0 -->
<g id="edge1" class="edge">
<title>dir_916293032859aa8b094682194383d44e&#45;&gt;dir_49f80dbd7683ed98b39c0cd73917c2a0</title>
<g id="a_edge1"><a xlink:href="dir_000011_000025.html" target="_top">
<path fill="none" stroke="#63b8ff" d="M244.38,-70.94C251.4,-68.09 259.46,-65.11 267,-63 333.79,-44.28 354.65,-47.47 422.49,-35.94"/>
<polygon fill="#63b8ff" stroke="#63b8ff" points="423.13,-39.38 432.38,-34.21 421.93,-32.48 423.13,-39.38"/>
</a>
</g>
<g id="a_edge1&#45;headlabel"><a xlink:href="dir_000011_000025.html" target="_top" xlink:title="1">
<text text-anchor="middle" x="420.08" y="-40.3" font-family="Helvetica,sans-Serif" font-size="10.00" fill="#63b8ff">1</text>
</a>
</g>
</g>
<!-- dir_bf122ea29395a452000b198c9744daa8 -->
<g id="node4" class="node">
<title>dir_bf122ea29395a452000b198c9744daa8</title>
<g id="a_node4"><a xlink:href="dir_bf122ea29395a452000b198c9744daa8.html" target="_top" xlink:title="Materials">
<polygon fill="#a2b4d6" stroke="#404040" points="338,-90 276,-90 276,-71 338,-71 338,-90"/>
<text text-anchor="middle" x="307" y="-78" font-family="Helvetica,sans-Serif" font-size="10.00">Materials</text>
</a>
</g>
</g>
<!-- dir_bf122ea29395a452000b198c9744daa8&#45;&gt;dir_a7363e98f9e0bdd87618633653859815 -->
<g id="edge4" class="edge">
<title>dir_bf122ea29395a452000b198c9744daa8&#45;&gt;dir_a7363e98f9e0bdd87618633653859815</title>
<g id="a_edge4"><a xlink:href="dir_000012_000029.html" target="_top">
<path fill="none" stroke="#63b8ff" d="M325.4,-70.85C332.08,-67.99 339.77,-65.03 347,-63 421.09,-42.2 445.07,-52.05 523.38,-35.08"/>
<polygon fill="#63b8ff" stroke="#63b8ff" points="524.22,-38.48 533.21,-32.88 522.68,-31.65 524.22,-38.48"/>
</a>
</g>
<g id="a_edge4&#45;headlabel"><a xlink:href="dir_000012_000029.html" target="_top" xlink:title="1">
<text text-anchor="middle" x="521.33" y="-39.54" font-family="Helvetica,sans-Serif" font-size="10.00" fill="#63b8ff">1</text>
</a>
</g>
</g>
<!-- dir_cae27912e177176a90175eee3a6288a5 -->
<g id="node8" class="node">
<title>dir_cae27912e177176a90175eee3a6288a5</title>
<g id="a_node8"><a xlink:href="dir_cae27912e177176a90175eee3a6288a5.html" target="_top" xlink:title="Geometry">
<polygon fill="#edf0f7" stroke="red" stroke-dasharray="5,2" points="655.5,-35 590.5,-35 590.5,-16 655.5,-16 655.5,-35"/>
<text text-anchor="middle" x="623" y="-23" font-family="Helvetica,sans-Serif" font-size="10.00">Geometry</text>
</a>
</g>
</g>
<!-- dir_bf122ea29395a452000b198c9744daa8&#45;&gt;dir_cae27912e177176a90175eee3a6288a5 -->
<g id="edge5" class="edge">
<title>dir_bf122ea29395a452000b198c9744daa8&#45;&gt;dir_cae27912e177176a90175eee3a6288a5</title>
<g id="a_edge5"><a xlink:href="dir_000012_000009.html" target="_top">
<path fill="none" stroke="#63b8ff" d="M324.96,-70.87C331.73,-67.94 339.59,-64.93 347,-63 445.7,-37.28 476.34,-51.02 580.41,-35.11"/>
<polygon fill="#63b8ff" stroke="#63b8ff" points="581.04,-38.55 590.37,-33.53 579.95,-31.64 581.04,-38.55"/>
</a>
</g>
<g id="a_edge5&#45;headlabel"><a xlink:href="dir_000012_000009.html" target="_top" xlink:title="2">
<text text-anchor="middle" x="577.94" y="-39.42" font-family="Helvetica,sans-Serif" font-size="10.00" fill="#63b8ff">2</text>
</a>
</g>
</g>
<!-- dir_6d482a52dab40bb05a9c9d259552235c -->
<g id="node5" class="node">
<title>dir_6d482a52dab40bb05a9c9d259552235c</title>
<g id="a_node5"><a xlink:href="dir_6d482a52dab40bb05a9c9d259552235c.html" target="_top" xlink:title="Primitives">
<polygon fill="#a2b4d6" stroke="#404040" points="174,-90 108,-90 108,-71 174,-71 174,-90"/>
<text text-anchor="middle" x="141" y="-78" font-family="Helvetica,sans-Serif" font-size="10.00">Primitives</text>
</a>
</g>
</g>
<!-- dir_9897959acd2bee8ef3fc8c08b126fdf9 -->
<g id="node6" class="node">
<title>dir_9897959acd2bee8ef3fc8c08b126fdf9</title>
<g id="a_node6"><a xlink:href="dir_9897959acd2bee8ef3fc8c08b126fdf9.html" target="_top" xlink:title="Renderers">
<polygon fill="#a2b4d6" stroke="#404040" points="90,-90 24,-90 24,-71 90,-71 90,-90"/>
<text text-anchor="middle" x="57" y="-78" font-family="Helvetica,sans-Serif" font-size="10.00">Renderers</text>
</a>
</g>
</g>
</g>
</svg>

<g id="navigator" transform="translate(0 0)" fill="#404254">
  <rect fill="#f2f5e9" fill-opacity="0.5" stroke="#606060" stroke-width=".5" x="0" y="0" width="60" height="60"/>
  <use id="zoomplus" xlink:href="#zoomPlus" x="17" y="9" onmousedown="handleZoom(evt,'in')"/>
  <use id="zoomminus" xlink:href="#zoomMin" x="42" y="9" onmousedown="handleZoom(evt,'out')"/>
  <use id="reset" xlink:href="#resetDef" x="30" y="36" onmousedown="handleReset()"/>
   <use id="arrowup" xlink:href="#arrowUp" x="0" y="0" onmousedown="handlePan(0,-1)"/>
  <use id="arrowright" xlink:href="#arrowRight" x="0" y="0" onmousedown="handlePan(1,0)"/>
  <use id="arrowdown" xlink:href="#arrowDown" x="0" y="0" onmousedown="handlePan(0,1)"/>
  <use id="arrowleft" xlink:href="#arrowLeft" x="0" y="0" onmousedown="handlePan(-1,0)"/>
</g>
<svg viewBox="0 0 15 15" width="100%" height="30px" preserveAspectRatio="xMaxYMin meet">
 <g id="arrow_out" transform="scale(0.3 0.3)">
  <a xlink:href="dir_86cf0aee3ebd28cdfb001e081edcf295_dep_org.svg" target="_base">
   <rect id="button" ry="5" rx="5" y="6" x="6" height="38" width="38"
        fill="#f2f5e9" fill-opacity="0.5" stroke="#606060" stroke-width="1.0"/>
   <path id="arrow"
     d="M 11.500037,31.436501 C 11.940474,20.09759 22.043105,11.32322 32.158766,21.979434 L 37.068811,17.246167 C 37.068811,17.246167 37.088388,32 37.088388,32 L 22.160133,31.978069 C 22.160133,31.978069 26.997745,27.140456 26.997745,27.140456 C 18.528582,18.264221 13.291696,25.230495 11.500037,31.436501 z"
     style="fill:#404040;"/>
  </a>
 </g>
</svg>

<style type='text/css'>
<![CDATA[
[data-mouse-over-selected='false'] { opacity: 0.7; }
[data-mouse-over-selected='true']  { opacity: 1.0; }
]]>
</style>
<script type="application/ecmascript"><![CDATA[
document.addEventListener('DOMContentLoaded', (event) => {
  highlightEdges();
  highlightAdjacentNodes();
});
]]></script>
</svg>
