<?xml version="1.0" encoding="UTF-8" standalone="no"?>
<!DOCTYPE svg PUBLIC "-//W3C//DTD SVG 1.1//EN"
 "http://www.w3.org/Graphics/SVG/1.1/DTD/svg11.dtd">
<!-- Generated by graphviz version 2.43.0 (0)
 -->
<!-- Title: src/SceneSystem Pages: 1 -->
<svg width="489pt" height="251pt"
 viewBox="0.00 0.00 489.00 251.00" xmlns="http://www.w3.org/2000/svg" xmlns:xlink="http://www.w3.org/1999/xlink">

<svg id="main" version="1.1" xmlns="http://www.w3.org/2000/svg" xmlns:xlink="http://www.w3.org/1999/xlink" xml:space="preserve" onload="init(evt)">
<style type="text/css"><![CDATA[
.node, .edge {opacity: 0.7;}
.node.selected, .edge.selected {opacity: 1;}
.edge:hover path { stroke: red; }
.edge:hover polygon { stroke: red; fill: red; }
]]></style>
<script type="application/ecmascript" xlink:href="svg.min.js"/>
<svg id="graph" class="graph">
<g id="graph0" class="graph" transform="scale(1 1) rotate(0) translate(4 247)">
<title>src/SceneSystem</title>
<g id="clust1" class="cluster">
<title>clusterdir_68267d1309a1af8e8297ef4c3efbcdba</title>
<g id="a_clust1"><a xlink:href="dir_68267d1309a1af8e8297ef4c3efbcdba.html" target="_top" xlink:title="src">
<polygon fill="#edf0f7" stroke="#404040" stroke-dasharray="5,2" points="8,-8 8,-235 473,-235 473,-8 8,-8"/>
<text text-anchor="middle" x="240.5" y="-223" font-family="Helvetica,sans-Serif" font-size="10.00">src</text>
</a>
</g>
</g>
<g id="clust2" class="cluster">
<title>clusterdir_49f80dbd7683ed98b39c0cd73917c2a0</title>
<g id="a_clust2"><a xlink:href="dir_49f80dbd7683ed98b39c0cd73917c2a0.html" target="_top">
<polygon fill="#edf0f7" stroke="#404040" stroke-width="2" points="94,-63 94,-208 417,-208 417,-63 94,-63"/>
</a>
</g>
</g>
<!-- dir_55b41fb77a5097913bc464fb6a145e9c -->
<g id="node1" class="node">
<title>dir_55b41fb77a5097913bc464fb6a145e9c</title>
<g id="a_node1"><a xlink:href="dir_55b41fb77a5097913bc464fb6a145e9c.html" target="_top" xlink:title="Objects">
<polygon fill="#a2b4d6" stroke="red" points="326.5,-35 273.5,-35 273.5,-16 326.5,-16 326.5,-35"/>
<text text-anchor="middle" x="300" y="-23" font-family="Helvetica,sans-Serif" font-size="10.00">Objects</text>
</a>
</g>
</g>
<!-- dir_6bd92bd93c0d5d9980919215b46f20a3 -->
<g id="node2" class="node">
<title>dir_6bd92bd93c0d5d9980919215b46f20a3</title>
<g id="a_node2"><a xlink:href="dir_6bd92bd93c0d5d9980919215b46f20a3.html" target="_top" xlink:title="Exceptions">
<polygon fill="#a2b4d6" stroke="red" points="86,-145 16,-145 16,-126 86,-126 86,-145"/>
<text text-anchor="middle" x="51" y="-133" font-family="Helvetica,sans-Serif" font-size="10.00">Exceptions</text>
</a>
</g>
</g>
<!-- dir_a7363e98f9e0bdd87618633653859815 -->
<g id="node3" class="node">
<title>dir_a7363e98f9e0bdd87618633653859815</title>
<g id="a_node3"><a xlink:href="dir_a7363e98f9e0bdd87618633653859815.html" target="_top" xlink:title="Utils">
<polygon fill="#a2b4d6" stroke="#404040" points="464.5,-145 425.5,-145 425.5,-126 464.5,-126 464.5,-145"/>
<text text-anchor="middle" x="445" y="-133" font-family="Helvetica,sans-Serif" font-size="10.00">Utils</text>
</a>
</g>
</g>
<!-- dir_cae27912e177176a90175eee3a6288a5 -->
<g id="node4" class="node">
<title>dir_cae27912e177176a90175eee3a6288a5</title>
<g id="a_node4"><a xlink:href="dir_cae27912e177176a90175eee3a6288a5.html" target="_top" xlink:title="Geometry">
<polygon fill="#a2b4d6" stroke="red" points="149.5,-35 84.5,-35 84.5,-16 149.5,-16 149.5,-35"/>
<text text-anchor="middle" x="117" y="-23" font-family="Helvetica,sans-Serif" font-size="10.00">Geometry</text>
</a>
</g>
</g>
<!-- dir_49f80dbd7683ed98b39c0cd73917c2a0 -->
<g id="node5" class="node">
<title>dir_49f80dbd7683ed98b39c0cd73917c2a0</title>
<text text-anchor="middle" x="367" y="-188" font-family="Helvetica,sans-Serif" font-size="10.00">SceneSystem</text>
</g>
<!-- dir_bd827b96ce3dc7bd6d09ba465bd3f472 -->
<g id="node6" class="node">
<title>dir_bd827b96ce3dc7bd6d09ba465bd3f472</title>
<g id="a_node6"><a xlink:href="dir_bd827b96ce3dc7bd6d09ba465bd3f472.html" target="_top" xlink:title="BVH">
<polygon fill="#a2b4d6" stroke="#404040" points="174,-90 136,-90 136,-71 174,-71 174,-90"/>
<text text-anchor="middle" x="155" y="-78" font-family="Helvetica,sans-Serif" font-size="10.00">BVH</text>
</a>
</g>
</g>
<!-- dir_bd827b96ce3dc7bd6d09ba465bd3f472&#45;&gt;dir_55b41fb77a5097913bc464fb6a145e9c -->
<g id="edge1" class="edge">
<title>dir_bd827b96ce3dc7bd6d09ba465bd3f472&#45;&gt;dir_55b41fb77a5097913bc464fb6a145e9c</title>
<g id="a_edge1"><a xlink:href="dir_000007_000027.html" target="_top">
<path fill="none" stroke="#63b8ff" d="M168.06,-70.96C172.66,-68.19 177.95,-65.24 183,-63 209.09,-51.43 239.97,-41.96 263.45,-35.57"/>
<polygon fill="#63b8ff" stroke="#63b8ff" points="264.58,-38.89 273.34,-32.94 262.78,-32.13 264.58,-38.89"/>
</a>
</g>
<g id="a_edge1&#45;headlabel"><a xlink:href="dir_000007_000027.html" target="_top" xlink:title="1">
<text text-anchor="middle" x="261.84" y="-40.06" font-family="Helvetica,sans-Serif" font-size="10.00" fill="#63b8ff">1</text>
</a>
</g>
</g>
<!-- dir_bd827b96ce3dc7bd6d09ba465bd3f472&#45;&gt;dir_cae27912e177176a90175eee3a6288a5 -->
<g id="edge2" class="edge">
<title>dir_bd827b96ce3dc7bd6d09ba465bd3f472&#45;&gt;dir_cae27912e177176a90175eee3a6288a5</title>
<g id="a_edge2"><a xlink:href="dir_000007_000016.html" target="_top">
<path fill="none" stroke="#63b8ff" d="M148.73,-70.75C143.41,-63.34 135.64,-52.5 129.12,-43.41"/>
<polygon fill="#63b8ff" stroke="#63b8ff" points="131.83,-41.18 123.16,-35.09 126.14,-45.26 131.83,-41.18"/>
</a>
</g>
<g id="a_edge2&#45;headlabel"><a xlink:href="dir_000007_000016.html" target="_top" xlink:title="1">
<text text-anchor="middle" x="136.23" y="-39.94" font-family="Helvetica,sans-Serif" font-size="10.00" fill="#63b8ff">1</text>
</a>
</g>
</g>
<!-- dir_b0ab8d8490fb038bed899aba6a2440ac -->
<g id="node7" class="node">
<title>dir_b0ab8d8490fb038bed899aba6a2440ac</title>
<g id="a_node7"><a xlink:href="dir_b0ab8d8490fb038bed899aba6a2440ac.html" target="_top" xlink:title="ConfigParser">
<polygon fill="#a2b4d6" stroke="#404040" points="313.5,-145 236.5,-145 236.5,-126 313.5,-126 313.5,-145"/>
<text text-anchor="middle" x="275" y="-133" font-family="Helvetica,sans-Serif" font-size="10.00">ConfigParser</text>
</a>
</g>
</g>
<!-- dir_b0ab8d8490fb038bed899aba6a2440ac&#45;&gt;dir_55b41fb77a5097913bc464fb6a145e9c -->
<g id="edge3" class="edge">
<title>dir_b0ab8d8490fb038bed899aba6a2440ac&#45;&gt;dir_55b41fb77a5097913bc464fb6a145e9c</title>
<g id="a_edge3"><a xlink:href="dir_000009_000027.html" target="_top">
<path fill="none" stroke="#63b8ff" d="M283.21,-125.8C290.54,-117.38 300.75,-103.9 305,-90 309.45,-75.44 307.67,-58.18 305.07,-45.33"/>
<polygon fill="#63b8ff" stroke="#63b8ff" points="308.42,-44.28 302.71,-35.35 301.61,-45.89 308.42,-44.28"/>
</a>
</g>
<g id="a_edge3&#45;headlabel"><a xlink:href="dir_000009_000027.html" target="_top" xlink:title="1">
<text text-anchor="middle" x="312.01" y="-44.62" font-family="Helvetica,sans-Serif" font-size="10.00" fill="#63b8ff">1</text>
</a>
</g>
</g>
<!-- dir_c885c4bcce55d6fe81345b3413717718 -->
<g id="node8" class="node">
<title>dir_c885c4bcce55d6fe81345b3413717718</title>
<g id="a_node8"><a xlink:href="dir_c885c4bcce55d6fe81345b3413717718.html" target="_top" xlink:title="PluginManager">
<polygon fill="#a2b4d6" stroke="#404040" points="281.5,-90 192.5,-90 192.5,-71 281.5,-71 281.5,-90"/>
<text text-anchor="middle" x="237" y="-78" font-family="Helvetica,sans-Serif" font-size="10.00">PluginManager</text>
</a>
</g>
</g>
<!-- dir_c885c4bcce55d6fe81345b3413717718&#45;&gt;dir_55b41fb77a5097913bc464fb6a145e9c -->
<g id="edge4" class="edge">
<title>dir_c885c4bcce55d6fe81345b3413717718&#45;&gt;dir_55b41fb77a5097913bc464fb6a145e9c</title>
<g id="a_edge4"><a xlink:href="dir_000031_000027.html" target="_top">
<path fill="none" stroke="#63b8ff" d="M247.12,-70.98C256.44,-63.15 270.47,-51.34 281.74,-41.86"/>
<polygon fill="#63b8ff" stroke="#63b8ff" points="284.29,-44.29 289.69,-35.17 279.79,-38.93 284.29,-44.29"/>
</a>
</g>
<g id="a_edge4&#45;headlabel"><a xlink:href="dir_000031_000027.html" target="_top" xlink:title="1">
<text text-anchor="middle" x="283.37" y="-46.27" font-family="Helvetica,sans-Serif" font-size="10.00" fill="#63b8ff">1</text>
</a>
</g>
</g>
<!-- dir_d463935c42a880f8392bc37d38dc00e7 -->
<g id="node9" class="node">
<title>dir_d463935c42a880f8392bc37d38dc00e7</title>
<g id="a_node9"><a xlink:href="dir_d463935c42a880f8392bc37d38dc00e7.html" target="_top" xlink:title="Scene">
<polygon fill="#a2b4d6" stroke="#404040" points="178,-145 132,-145 132,-126 178,-126 178,-145"/>
<text text-anchor="middle" x="155" y="-133" font-family="Helvetica,sans-Serif" font-size="10.00">Scene</text>
</a>
</g>
</g>
<!-- dir_d463935c42a880f8392bc37d38dc00e7&#45;&gt;dir_55b41fb77a5097913bc464fb6a145e9c -->
<g id="edge5" class="edge">
<title>dir_d463935c42a880f8392bc37d38dc00e7&#45;&gt;dir_55b41fb77a5097913bc464fb6a145e9c</title>
<g id="a_edge5"><a xlink:href="dir_000040_000027.html" target="_top">
<path fill="none" stroke="#63b8ff" d="M178.07,-133.88C208.61,-131.72 261.88,-123.1 290,-90 300.39,-77.77 302.26,-59.26 301.91,-45.37"/>
<polygon fill="#63b8ff" stroke="#63b8ff" points="305.38,-44.78 301.23,-35.03 298.39,-45.24 305.38,-44.78"/>
</a>
</g>
<g id="a_edge5&#45;headlabel"><a xlink:href="dir_000040_000027.html" target="_top" xlink:title="1">
<text text-anchor="middle" x="308.45" y="-45.68" font-family="Helvetica,sans-Serif" font-size="10.00" fill="#63b8ff">1</text>
</a>
</g>
</g>
<!-- dir_d463935c42a880f8392bc37d38dc00e7&#45;&gt;dir_cae27912e177176a90175eee3a6288a5 -->
<g id="edge8" class="edge">
<title>dir_d463935c42a880f8392bc37d38dc00e7&#45;&gt;dir_cae27912e177176a90175eee3a6288a5</title>
<g id="a_edge8"><a xlink:href="dir_000040_000016.html" target="_top">
<path fill="none" stroke="#63b8ff" d="M148.06,-125.87C141.54,-117.29 132.07,-103.5 127,-90 121.6,-75.61 119.12,-58.34 117.98,-45.44"/>
<polygon fill="#63b8ff" stroke="#63b8ff" points="121.46,-45.14 117.28,-35.41 114.48,-45.63 121.46,-45.14"/>
</a>
</g>
<g id="a_edge8&#45;headlabel"><a xlink:href="dir_000040_000016.html" target="_top" xlink:title="1">
<text text-anchor="middle" x="124.55" y="-46.03" font-family="Helvetica,sans-Serif" font-size="10.00" fill="#63b8ff">1</text>
</a>
</g>
</g>
<!-- dir_d463935c42a880f8392bc37d38dc00e7&#45;&gt;dir_bd827b96ce3dc7bd6d09ba465bd3f472 -->
<g id="edge6" class="edge">
<title>dir_d463935c42a880f8392bc37d38dc00e7&#45;&gt;dir_bd827b96ce3dc7bd6d09ba465bd3f472</title>
<g id="a_edge6"><a xlink:href="dir_000040_000007.html" target="_top">
<path fill="none" stroke="#63b8ff" d="M155,-125.75C155,-118.8 155,-108.85 155,-100.13"/>
<polygon fill="#63b8ff" stroke="#63b8ff" points="158.5,-100.09 155,-90.09 151.5,-100.09 158.5,-100.09"/>
</a>
</g>
<g id="a_edge6&#45;headlabel"><a xlink:href="dir_000040_000007.html" target="_top" xlink:title="1">
<text text-anchor="middle" x="161.34" y="-101.18" font-family="Helvetica,sans-Serif" font-size="10.00" fill="#63b8ff">1</text>
</a>
</g>
</g>
<!-- dir_d463935c42a880f8392bc37d38dc00e7&#45;&gt;dir_c885c4bcce55d6fe81345b3413717718 -->
<g id="edge7" class="edge">
<title>dir_d463935c42a880f8392bc37d38dc00e7&#45;&gt;dir_c885c4bcce55d6fe81345b3413717718</title>
<g id="a_edge7"><a xlink:href="dir_000040_000031.html" target="_top">
<path fill="none" stroke="#63b8ff" d="M168.17,-125.98C180.77,-117.84 200,-105.41 214.94,-95.76"/>
<polygon fill="#63b8ff" stroke="#63b8ff" points="217.09,-98.54 223.59,-90.17 213.29,-92.66 217.09,-98.54"/>
</a>
</g>
<g id="a_edge7&#45;headlabel"><a xlink:href="dir_000040_000031.html" target="_top" xlink:title="1">
<text text-anchor="middle" x="215.61" y="-100.37" font-family="Helvetica,sans-Serif" font-size="10.00" fill="#63b8ff">1</text>
</a>
</g>
</g>
<!-- dir_371f18151ff53c40093199b356fa9271 -->
<g id="node10" class="node">
<title>dir_371f18151ff53c40093199b356fa9271</title>
<g id="a_node10"><a xlink:href="dir_371f18151ff53c40093199b356fa9271.html" target="_top" xlink:title="SceneLoader">
<polygon fill="#a2b4d6" stroke="#404040" points="180.5,-200 101.5,-200 101.5,-181 180.5,-181 180.5,-200"/>
<text text-anchor="middle" x="141" y="-188" font-family="Helvetica,sans-Serif" font-size="10.00">SceneLoader</text>
</a>
</g>
</g>
<!-- dir_371f18151ff53c40093199b356fa9271&#45;&gt;dir_6bd92bd93c0d5d9980919215b46f20a3 -->
<g id="edge9" class="edge">
<title>dir_371f18151ff53c40093199b356fa9271&#45;&gt;dir_6bd92bd93c0d5d9980919215b46f20a3</title>
<g id="a_edge9"><a xlink:href="dir_000041_000015.html" target="_top">
<path fill="none" stroke="#63b8ff" d="M126.54,-180.98C112.58,-172.77 91.21,-160.18 74.75,-150.49"/>
<polygon fill="#63b8ff" stroke="#63b8ff" points="76.12,-147.23 65.72,-145.17 72.56,-153.26 76.12,-147.23"/>
</a>
</g>
<g id="a_edge9&#45;headlabel"><a xlink:href="dir_000041_000015.html" target="_top" xlink:title="1">
<text text-anchor="middle" x="80.65" y="-144.11" font-family="Helvetica,sans-Serif" font-size="10.00" fill="#63b8ff">1</text>
</a>
</g>
</g>
<!-- dir_371f18151ff53c40093199b356fa9271&#45;&gt;dir_b0ab8d8490fb038bed899aba6a2440ac -->
<g id="edge10" class="edge">
<title>dir_371f18151ff53c40093199b356fa9271&#45;&gt;dir_b0ab8d8490fb038bed899aba6a2440ac</title>
<g id="a_edge10"><a xlink:href="dir_000041_000009.html" target="_top">
<path fill="none" stroke="#63b8ff" d="M162.53,-180.98C184.47,-172.3 218.74,-158.75 243.69,-148.88"/>
<polygon fill="#63b8ff" stroke="#63b8ff" points="245.07,-152.1 253.08,-145.17 242.49,-145.59 245.07,-152.1"/>
</a>
</g>
<g id="a_edge10&#45;headlabel"><a xlink:href="dir_000041_000009.html" target="_top" xlink:title="1">
<text text-anchor="middle" x="242.77" y="-153.57" font-family="Helvetica,sans-Serif" font-size="10.00" fill="#63b8ff">1</text>
</a>
</g>
</g>
<!-- dir_371f18151ff53c40093199b356fa9271&#45;&gt;dir_c885c4bcce55d6fe81345b3413717718 -->
<g id="edge11" class="edge">
<title>dir_371f18151ff53c40093199b356fa9271&#45;&gt;dir_c885c4bcce55d6fe81345b3413717718</title>
<g id="a_edge11"><a xlink:href="dir_000041_000031.html" target="_top">
<path fill="none" stroke="#63b8ff" d="M150.53,-180.99C160.09,-172.28 175.08,-158.19 187,-145 200.75,-129.77 215.11,-111.22 224.89,-98.11"/>
<polygon fill="#63b8ff" stroke="#63b8ff" points="227.75,-100.13 230.87,-90.01 222.12,-95.98 227.75,-100.13"/>
</a>
</g>
<g id="a_edge11&#45;headlabel"><a xlink:href="dir_000041_000031.html" target="_top" xlink:title="1">
<text text-anchor="middle" x="227.9" y="-102.21" font-family="Helvetica,sans-Serif" font-size="10.00" fill="#63b8ff">1</text>
</a>
</g>
</g>
<!-- dir_371f18151ff53c40093199b356fa9271&#45;&gt;dir_d463935c42a880f8392bc37d38dc00e7 -->
<g id="edge12" class="edge">
<title>dir_371f18151ff53c40093199b356fa9271&#45;&gt;dir_d463935c42a880f8392bc37d38dc00e7</title>
<g id="a_edge12"><a xlink:href="dir_000041_000040.html" target="_top">
<path fill="none" stroke="#63b8ff" d="M143.31,-180.75C145.17,-173.72 147.84,-163.62 150.15,-154.84"/>
<polygon fill="#63b8ff" stroke="#63b8ff" points="153.56,-155.65 152.73,-145.09 146.79,-153.86 153.56,-155.65"/>
</a>
</g>
<g id="a_edge12&#45;headlabel"><a xlink:href="dir_000041_000040.html" target="_top" xlink:title="1">
<text text-anchor="middle" x="155.39" y="-157.35" font-family="Helvetica,sans-Serif" font-size="10.00" fill="#63b8ff">1</text>
</a>
</g>
</g>
<!-- dir_d4d9038d713afba3f16da559c03994be -->
<g id="node11" class="node">
<title>dir_d4d9038d713afba3f16da559c03994be</title>
<g id="a_node11"><a xlink:href="dir_d4d9038d713afba3f16da559c03994be.html" target="_top" xlink:title="SceneNodeHelpers">
<polygon fill="#a2b4d6" stroke="#404040" points="307.5,-200 198.5,-200 198.5,-181 307.5,-181 307.5,-200"/>
<text text-anchor="middle" x="253" y="-188" font-family="Helvetica,sans-Serif" font-size="10.00">SceneNodeHelpers</text>
</a>
</g>
</g>
<!-- dir_d4d9038d713afba3f16da559c03994be&#45;&gt;dir_55b41fb77a5097913bc464fb6a145e9c -->
<g id="edge13" class="edge">
<title>dir_d4d9038d713afba3f16da559c03994be&#45;&gt;dir_55b41fb77a5097913bc464fb6a145e9c</title>
<g id="a_edge13"><a xlink:href="dir_000042_000027.html" target="_top">
<path fill="none" stroke="#63b8ff" d="M277.81,-180.95C293.84,-173.99 313.43,-162.42 323,-145 340.83,-112.53 323.08,-68.41 310.37,-44.2"/>
<polygon fill="#63b8ff" stroke="#63b8ff" points="313.26,-42.2 305.36,-35.14 307.14,-45.58 313.26,-42.2"/>
</a>
</g>
<g id="a_edge13&#45;headlabel"><a xlink:href="dir_000042_000027.html" target="_top" xlink:title="1">
<text text-anchor="middle" x="317.49" y="-41.47" font-family="Helvetica,sans-Serif" font-size="10.00" fill="#63b8ff">1</text>
</a>
</g>
</g>
<!-- dir_d4d9038d713afba3f16da559c03994be&#45;&gt;dir_a7363e98f9e0bdd87618633653859815 -->
<g id="edge14" class="edge">
<title>dir_d4d9038d713afba3f16da559c03994be&#45;&gt;dir_a7363e98f9e0bdd87618633653859815</title>
<g id="a_edge14"><a xlink:href="dir_000042_000048.html" target="_top">
<path fill="none" stroke="#63b8ff" d="M288.64,-180.96C320.6,-173.09 368.99,-160.71 415.76,-146.54"/>
<polygon fill="#63b8ff" stroke="#63b8ff" points="416.86,-149.87 425.4,-143.59 414.81,-143.17 416.86,-149.87"/>
</a>
</g>
<g id="a_edge14&#45;headlabel"><a xlink:href="dir_000042_000048.html" target="_top" xlink:title="1">
<text text-anchor="middle" x="414.26" y="-151.13" font-family="Helvetica,sans-Serif" font-size="10.00" fill="#63b8ff">1</text>
</a>
</g>
</g>
<!-- dir_d4d9038d713afba3f16da559c03994be&#45;&gt;dir_cae27912e177176a90175eee3a6288a5 -->
<g id="edge15" class="edge">
<title>dir_d4d9038d713afba3f16da559c03994be&#45;&gt;dir_cae27912e177176a90175eee3a6288a5</title>
<g id="a_edge15"><a xlink:href="dir_000042_000016.html" target="_top">
<path fill="none" stroke="#63b8ff" d="M213.66,-180.93C179.77,-172.7 134.55,-159.44 123,-145 100.13,-116.42 106.12,-70.42 111.92,-44.95"/>
<polygon fill="#63b8ff" stroke="#63b8ff" points="115.35,-45.67 114.39,-35.12 108.56,-43.97 115.35,-45.67"/>
</a>
</g>
<g id="a_edge15&#45;headlabel"><a xlink:href="dir_000042_000016.html" target="_top" xlink:title="3">
<text text-anchor="middle" x="117.23" y="-47.35" font-family="Helvetica,sans-Serif" font-size="10.00" fill="#63b8ff">3</text>
</a>
</g>
</g>
</g>
</svg>
</svg>

<style type='text/css'>
<![CDATA[
[data-mouse-over-selected='false'] { opacity: 0.7; }
[data-mouse-over-selected='true']  { opacity: 1.0; }
]]>
</style>
<script type="application/ecmascript"><![CDATA[
document.addEventListener('DOMContentLoaded', (event) => {
  highlightEdges();
  highlightAdjacentNodes();
});
]]></script>
</svg>
