<?xml version="1.0" encoding="UTF-8" standalone="no"?>
<!DOCTYPE svg PUBLIC "-//W3C//DTD SVG 1.1//EN"
 "http://www.w3.org/Graphics/SVG/1.1/DTD/svg11.dtd">
<!-- Generated by graphviz version 2.43.0 (0)
 -->
<!-- Title: src/Objects/Plugins/CorePlugin Pages: 1 -->
<svg width="434pt" height="180pt"
 viewBox="0.00 0.00 434.00 180.00" xmlns="http://www.w3.org/2000/svg" xmlns:xlink="http://www.w3.org/1999/xlink">
<g id="graph0" class="graph" transform="scale(1 1) rotate(0) translate(4 176)">
<title>src/Objects/Plugins/CorePlugin</title>
<g id="clust1" class="cluster">
<title>clusterdir_86cf0aee3ebd28cdfb001e081edcf295</title>
<g id="a_clust1"><a xlink:href="dir_86cf0aee3ebd28cdfb001e081edcf295.html" target="_top" xlink:title="Plugin modules and their implementations.">
<polygon fill="#edf0f7" stroke="#7f7f7f" stroke-dasharray="5,2" points="8,-39 8,-164 418,-164 418,-39 8,-39"/>
<text text-anchor="middle" x="213" y="-152" font-family="Helvetica,sans-Serif" font-size="10.00">Plugins</text>
</a>
</g>
</g>
<g id="clust2" class="cluster">
<title>clusterdir_bcb78dd210b4a6eed89bcede11e18332</title>
<g id="a_clust2"><a xlink:href="dir_bcb78dd210b4a6eed89bcede11e18332.html" target="_top" xlink:title="Built&#45;in plugin providing the camera renderer and core initializers.">
<polygon fill="#edf0f7" stroke="#404040" stroke-width="2" points="16,-47 16,-137 410,-137 410,-47 16,-47"/>
</a>
</g>
</g>
<!-- dir_bcb78dd210b4a6eed89bcede11e18332 -->
<g id="node1" class="node">
<title>dir_bcb78dd210b4a6eed89bcede11e18332</title>
<text text-anchor="middle" x="182" y="-117" font-family="Helvetica,sans-Serif" font-size="10.00">CorePlugin</text>
</g>
<!-- dir_8ade9f44a6014edb6d626908c2dedec7 -->
<g id="node2" class="node">
<title>dir_8ade9f44a6014edb6d626908c2dedec7</title>
<g id="a_node2"><a xlink:href="dir_8ade9f44a6014edb6d626908c2dedec7.html" target="_top" xlink:title="Interfaces">
<polygon fill="#a2b4d6" stroke="#404040" points="89.5,-74 24.5,-74 24.5,-55 89.5,-55 89.5,-74"/>
<text text-anchor="middle" x="57" y="-62" font-family="Helvetica,sans-Serif" font-size="10.00">Interfaces</text>
</a>
</g>
</g>
<!-- dir_bcb78dd210b4a6eed89bcede11e18332&#45;&gt;dir_8ade9f44a6014edb6d626908c2dedec7 -->
<g id="edge4" class="edge">
<title>dir_bcb78dd210b4a6eed89bcede11e18332&#45;&gt;dir_8ade9f44a6014edb6d626908c2dedec7</title>
<g id="a_edge4"><a xlink:href="dir_000010_000019.html" target="_top">
<path fill="none" stroke="#63b8ff" d="M161.92,-109.98C141.63,-101.38 110.04,-87.99 86.83,-78.15"/>
<polygon fill="#63b8ff" stroke="#63b8ff" points="88.02,-74.85 77.45,-74.17 85.29,-81.3 88.02,-74.85"/>
</a>
</g>
<g id="a_edge4&#45;headlabel"><a xlink:href="dir_000010_000019.html" target="_top" xlink:title="1">
<text text-anchor="middle" x="92.44" y="-71.14" font-family="Helvetica,sans-Serif" font-size="10.00" fill="#63b8ff">1</text>
</a>
</g>
</g>
<!-- dir_33385bcc03e617213f49e698b1f4af83 -->
<g id="node3" class="node">
<title>dir_33385bcc03e617213f49e698b1f4af83</title>
<g id="a_node3"><a xlink:href="dir_33385bcc03e617213f49e698b1f4af83.html" target="_top" xlink:title="Lights">
<polygon fill="#a2b4d6" stroke="#404040" points="402,-74 356,-74 356,-55 402,-55 402,-74"/>
<text text-anchor="middle" x="379" y="-62" font-family="Helvetica,sans-Serif" font-size="10.00">Lights</text>
</a>
</g>
</g>
<!-- dir_bcb78dd210b4a6eed89bcede11e18332&#45;&gt;dir_33385bcc03e617213f49e698b1f4af83 -->
<g id="edge2" class="edge">
<title>dir_bcb78dd210b4a6eed89bcede11e18332&#45;&gt;dir_33385bcc03e617213f49e698b1f4af83</title>
<g id="a_edge2"><a xlink:href="dir_000010_000022.html" target="_top">
<path fill="none" stroke="#63b8ff" d="M213.65,-109.98C249.94,-100.22 309.14,-84.29 345.99,-74.38"/>
<polygon fill="#63b8ff" stroke="#63b8ff" points="347.01,-77.73 355.75,-71.75 345.19,-70.97 347.01,-77.73"/>
</a>
</g>
<g id="a_edge2&#45;headlabel"><a xlink:href="dir_000010_000022.html" target="_top" xlink:title="3">
<text text-anchor="middle" x="344.27" y="-78.91" font-family="Helvetica,sans-Serif" font-size="10.00" fill="#63b8ff">3</text>
</a>
</g>
</g>
<!-- dir_0dc0c75b4f6356b32046a67b8d22f8ca -->
<g id="node4" class="node">
<title>dir_0dc0c75b4f6356b32046a67b8d22f8ca</title>
<g id="a_node4"><a xlink:href="dir_0dc0c75b4f6356b32046a67b8d22f8ca.html" target="_top" xlink:title="Materials">
<polygon fill="#a2b4d6" stroke="#404040" points="254,-74 192,-74 192,-55 254,-55 254,-74"/>
<text text-anchor="middle" x="223" y="-62" font-family="Helvetica,sans-Serif" font-size="10.00">Materials</text>
</a>
</g>
</g>
<!-- dir_bcb78dd210b4a6eed89bcede11e18332&#45;&gt;dir_0dc0c75b4f6356b32046a67b8d22f8ca -->
<g id="edge1" class="edge">
<title>dir_bcb78dd210b4a6eed89bcede11e18332&#45;&gt;dir_0dc0c75b4f6356b32046a67b8d22f8ca</title>
<g id="a_edge1"><a xlink:href="dir_000010_000025.html" target="_top">
<path fill="none" stroke="#63b8ff" d="M188.77,-109.75C194.56,-102.26 203.06,-91.28 210.14,-82.13"/>
<polygon fill="#63b8ff" stroke="#63b8ff" points="213.01,-84.14 216.36,-74.09 207.47,-79.86 213.01,-84.14"/>
</a>
</g>
<g id="a_edge1&#45;headlabel"><a xlink:href="dir_000010_000025.html" target="_top" xlink:title="3">
<text text-anchor="middle" x="213.05" y="-86.22" font-family="Helvetica,sans-Serif" font-size="10.00" fill="#63b8ff">3</text>
</a>
</g>
</g>
<!-- dir_c2e97253aff1e6f54792c4870ba865b7 -->
<g id="node5" class="node">
<title>dir_c2e97253aff1e6f54792c4870ba865b7</title>
<g id="a_node5"><a xlink:href="dir_c2e97253aff1e6f54792c4870ba865b7.html" target="_top" xlink:title="Primitives">
<polygon fill="#a2b4d6" stroke="#404040" points="338,-74 272,-74 272,-55 338,-55 338,-74"/>
<text text-anchor="middle" x="305" y="-62" font-family="Helvetica,sans-Serif" font-size="10.00">Primitives</text>
</a>
</g>
</g>
<!-- dir_bcb78dd210b4a6eed89bcede11e18332&#45;&gt;dir_c2e97253aff1e6f54792c4870ba865b7 -->
<g id="edge6" class="edge">
<title>dir_bcb78dd210b4a6eed89bcede11e18332&#45;&gt;dir_c2e97253aff1e6f54792c4870ba865b7</title>
<g id="a_edge6"><a xlink:href="dir_000010_000035.html" target="_top">
<path fill="none" stroke="#63b8ff" d="M201.76,-109.98C221.73,-101.38 252.8,-87.99 275.65,-78.15"/>
<polygon fill="#63b8ff" stroke="#63b8ff" points="277.08,-81.34 284.88,-74.17 274.31,-74.91 277.08,-81.34"/>
</a>
</g>
<g id="a_edge6&#45;headlabel"><a xlink:href="dir_000010_000035.html" target="_top" xlink:title="3">
<text text-anchor="middle" x="274.9" y="-82.87" font-family="Helvetica,sans-Serif" font-size="10.00" fill="#63b8ff">3</text>
</a>
</g>
</g>
<!-- dir_c186a0af92c282e284ae6676b3418fef -->
<g id="node6" class="node">
<title>dir_c186a0af92c282e284ae6676b3418fef</title>
<g id="a_node6"><a xlink:href="dir_c186a0af92c282e284ae6676b3418fef.html" target="_top" xlink:title="Renderers">
<polygon fill="#a2b4d6" stroke="#404040" points="174,-74 108,-74 108,-55 174,-55 174,-74"/>
<text text-anchor="middle" x="141" y="-62" font-family="Helvetica,sans-Serif" font-size="10.00">Renderers</text>
</a>
</g>
</g>
<!-- dir_bcb78dd210b4a6eed89bcede11e18332&#45;&gt;dir_c186a0af92c282e284ae6676b3418fef -->
<g id="edge5" class="edge">
<title>dir_bcb78dd210b4a6eed89bcede11e18332&#45;&gt;dir_c186a0af92c282e284ae6676b3418fef</title>
<g id="a_edge5"><a xlink:href="dir_000010_000039.html" target="_top">
<path fill="none" stroke="#63b8ff" d="M175.23,-109.75C169.44,-102.26 160.94,-91.28 153.86,-82.13"/>
<polygon fill="#63b8ff" stroke="#63b8ff" points="156.53,-79.86 147.64,-74.09 150.99,-84.14 156.53,-79.86"/>
</a>
</g>
<g id="a_edge5&#45;headlabel"><a xlink:href="dir_000010_000039.html" target="_top" xlink:title="1">
<text text-anchor="middle" x="160.98" y="-78.46" font-family="Helvetica,sans-Serif" font-size="10.00" fill="#63b8ff">1</text>
</a>
</g>
</g>
<!-- dir_49f80dbd7683ed98b39c0cd73917c2a0 -->
<g id="node7" class="node">
<title>dir_49f80dbd7683ed98b39c0cd73917c2a0</title>
<g id="a_node7"><a xlink:href="dir_49f80dbd7683ed98b39c0cd73917c2a0.html" target="_top" xlink:title="Scene orchestration, loading and BVH preparation.">
<polygon fill="#edf0f7" stroke="red" stroke-dasharray="5,2" points="98.5,-19 15.5,-19 15.5,0 98.5,0 98.5,-19"/>
<text text-anchor="middle" x="57" y="-7" font-family="Helvetica,sans-Serif" font-size="10.00">SceneSystem</text>
</a>
</g>
</g>
<!-- dir_bcb78dd210b4a6eed89bcede11e18332&#45;&gt;dir_49f80dbd7683ed98b39c0cd73917c2a0 -->
<g id="edge3" class="edge">
<title>dir_bcb78dd210b4a6eed89bcede11e18332&#45;&gt;dir_49f80dbd7683ed98b39c0cd73917c2a0</title>
<g id="a_edge3"><a xlink:href="dir_000010_000043.html" target="_top">
<path fill="none" stroke="#63b8ff" d="M147.43,-114.18C103.63,-107.9 31.89,-94.71 16,-74 6.53,-61.66 8.79,-52.79 16,-39 18.88,-33.49 23.37,-28.83 28.33,-24.97"/>
<polygon fill="#63b8ff" stroke="#63b8ff" points="30.56,-27.7 36.95,-19.24 26.68,-21.87 30.56,-27.7"/>
</a>
</g>
<g id="a_edge3&#45;headlabel"><a xlink:href="dir_000010_000043.html" target="_top" xlink:title="3">
<text text-anchor="middle" x="29.14" y="-29.55" font-family="Helvetica,sans-Serif" font-size="10.00" fill="#63b8ff">3</text>
</a>
</g>
</g>
<!-- dir_8ade9f44a6014edb6d626908c2dedec7&#45;&gt;dir_49f80dbd7683ed98b39c0cd73917c2a0 -->
<g id="edge7" class="edge">
<title>dir_8ade9f44a6014edb6d626908c2dedec7&#45;&gt;dir_49f80dbd7683ed98b39c0cd73917c2a0</title>
<g id="a_edge7"><a xlink:href="dir_000019_000043.html" target="_top">
<path fill="none" stroke="#63b8ff" d="M57,-54.75C57,-47.8 57,-37.85 57,-29.13"/>
<polygon fill="#63b8ff" stroke="#63b8ff" points="60.5,-29.09 57,-19.09 53.5,-29.09 60.5,-29.09"/>
</a>
</g>
<g id="a_edge7&#45;headlabel"><a xlink:href="dir_000019_000043.html" target="_top" xlink:title="1">
<text text-anchor="middle" x="63.34" y="-30.18" font-family="Helvetica,sans-Serif" font-size="10.00" fill="#63b8ff">1</text>
</a>
</g>
</g>
<!-- dir_a7363e98f9e0bdd87618633653859815 -->
<g id="node9" class="node">
<title>dir_a7363e98f9e0bdd87618633653859815</title>
<g id="a_node9"><a xlink:href="dir_a7363e98f9e0bdd87618633653859815.html" target="_top" xlink:title="Utility helpers used across the project.">
<polygon fill="#edf0f7" stroke="#7f7f7f" points="160.5,-19 121.5,-19 121.5,0 160.5,0 160.5,-19"/>
<text text-anchor="middle" x="141" y="-7" font-family="Helvetica,sans-Serif" font-size="10.00">Utils</text>
</a>
</g>
</g>
<!-- dir_8ade9f44a6014edb6d626908c2dedec7&#45;&gt;dir_a7363e98f9e0bdd87618633653859815 -->
<g id="edge8" class="edge">
<title>dir_8ade9f44a6014edb6d626908c2dedec7&#45;&gt;dir_a7363e98f9e0bdd87618633653859815</title>
<g id="a_edge8"><a xlink:href="dir_000019_000048.html" target="_top">
<path fill="none" stroke="#63b8ff" d="M70.5,-54.98C83.4,-46.84 103.1,-34.41 118.4,-24.76"/>
<polygon fill="#63b8ff" stroke="#63b8ff" points="120.67,-27.47 127.26,-19.17 116.93,-21.55 120.67,-27.47"/>
</a>
</g>
<g id="a_edge8&#45;headlabel"><a xlink:href="dir_000019_000048.html" target="_top" xlink:title="1">
<text text-anchor="middle" x="119.14" y="-29.29" font-family="Helvetica,sans-Serif" font-size="10.00" fill="#63b8ff">1</text>
</a>
</g>
</g>
<!-- dir_7f2e168896bc22155d1dd7adee44c1a1 -->
<g id="node8" class="node">
<title>dir_7f2e168896bc22155d1dd7adee44c1a1</title>
<g id="a_node8"><a xlink:href="dir_7f2e168896bc22155d1dd7adee44c1a1.html" target="_top" xlink:title="Abstract base classes and plugin&#45;facing interfaces.">
<polygon fill="#edf0f7" stroke="red" stroke-dasharray="5,2" points="254,-19 192,-19 192,0 254,0 254,-19"/>
<text text-anchor="middle" x="223" y="-7" font-family="Helvetica,sans-Serif" font-size="10.00">Abstracts</text>
</a>
</g>
</g>
<!-- dir_33385bcc03e617213f49e698b1f4af83&#45;&gt;dir_7f2e168896bc22155d1dd7adee44c1a1 -->
<g id="edge9" class="edge">
<title>dir_33385bcc03e617213f49e698b1f4af83&#45;&gt;dir_7f2e168896bc22155d1dd7adee44c1a1</title>
<g id="a_edge9"><a xlink:href="dir_000022_000001.html" target="_top">
<path fill="none" stroke="#63b8ff" d="M369.9,-54.83C363.85,-49.52 355.48,-42.99 347,-39 339.41,-35.43 297.23,-26.07 264.14,-19.05"/>
<polygon fill="#63b8ff" stroke="#63b8ff" points="264.72,-15.59 254.21,-16.95 263.27,-22.44 264.72,-15.59"/>
</a>
</g>
<g id="a_edge9&#45;headlabel"><a xlink:href="dir_000022_000001.html" target="_top" xlink:title="5">
<text text-anchor="middle" x="268.82" y="-11.06" font-family="Helvetica,sans-Serif" font-size="10.00" fill="#63b8ff">5</text>
</a>
</g>
</g>
<!-- dir_cae27912e177176a90175eee3a6288a5 -->
<g id="node10" class="node">
<title>dir_cae27912e177176a90175eee3a6288a5</title>
<g id="a_node10"><a xlink:href="dir_cae27912e177176a90175eee3a6288a5.html" target="_top" xlink:title="Geometry primitives, vectors and math utilities.">
<polygon fill="#edf0f7" stroke="red" stroke-dasharray="5,2" points="337.5,-19 272.5,-19 272.5,0 337.5,0 337.5,-19"/>
<text text-anchor="middle" x="305" y="-7" font-family="Helvetica,sans-Serif" font-size="10.00">Geometry</text>
</a>
</g>
</g>
<!-- dir_33385bcc03e617213f49e698b1f4af83&#45;&gt;dir_cae27912e177176a90175eee3a6288a5 -->
<g id="edge10" class="edge">
<title>dir_33385bcc03e617213f49e698b1f4af83&#45;&gt;dir_cae27912e177176a90175eee3a6288a5</title>
<g id="a_edge10"><a xlink:href="dir_000022_000016.html" target="_top">
<path fill="none" stroke="#63b8ff" d="M368.16,-54.95C362.01,-50.17 354.15,-44.16 347,-39 340.42,-34.25 333.13,-29.23 326.5,-24.75"/>
<polygon fill="#63b8ff" stroke="#63b8ff" points="328.25,-21.71 318,-19.04 324.35,-27.52 328.25,-21.71"/>
</a>
</g>
<g id="a_edge10&#45;headlabel"><a xlink:href="dir_000022_000016.html" target="_top" xlink:title="3">
<text text-anchor="middle" x="332.82" y="-18.85" font-family="Helvetica,sans-Serif" font-size="10.00" fill="#63b8ff">3</text>
</a>
</g>
</g>
<!-- dir_0dc0c75b4f6356b32046a67b8d22f8ca&#45;&gt;dir_7f2e168896bc22155d1dd7adee44c1a1 -->
<g id="edge11" class="edge">
<title>dir_0dc0c75b4f6356b32046a67b8d22f8ca&#45;&gt;dir_7f2e168896bc22155d1dd7adee44c1a1</title>
<g id="a_edge11"><a xlink:href="dir_000025_000001.html" target="_top">
<path fill="none" stroke="#63b8ff" d="M223,-54.75C223,-47.8 223,-37.85 223,-29.13"/>
<polygon fill="#63b8ff" stroke="#63b8ff" points="226.5,-29.09 223,-19.09 219.5,-29.09 226.5,-29.09"/>
</a>
</g>
<g id="a_edge11&#45;headlabel"><a xlink:href="dir_000025_000001.html" target="_top" xlink:title="3">
<text text-anchor="middle" x="229.34" y="-30.18" font-family="Helvetica,sans-Serif" font-size="10.00" fill="#63b8ff">3</text>
</a>
</g>
</g>
<!-- dir_0dc0c75b4f6356b32046a67b8d22f8ca&#45;&gt;dir_a7363e98f9e0bdd87618633653859815 -->
<g id="edge12" class="edge">
<title>dir_0dc0c75b4f6356b32046a67b8d22f8ca&#45;&gt;dir_a7363e98f9e0bdd87618633653859815</title>
<g id="a_edge12"><a xlink:href="dir_000025_000048.html" target="_top">
<path fill="none" stroke="#63b8ff" d="M209.83,-54.98C197.23,-46.84 178,-34.41 163.06,-24.76"/>
<polygon fill="#63b8ff" stroke="#63b8ff" points="164.71,-21.66 154.41,-19.17 160.91,-27.54 164.71,-21.66"/>
</a>
</g>
<g id="a_edge12&#45;headlabel"><a xlink:href="dir_000025_000048.html" target="_top" xlink:title="1">
<text text-anchor="middle" x="169.27" y="-18.73" font-family="Helvetica,sans-Serif" font-size="10.00" fill="#63b8ff">1</text>
</a>
</g>
</g>
<!-- dir_c2e97253aff1e6f54792c4870ba865b7&#45;&gt;dir_7f2e168896bc22155d1dd7adee44c1a1 -->
<g id="edge13" class="edge">
<title>dir_c2e97253aff1e6f54792c4870ba865b7&#45;&gt;dir_7f2e168896bc22155d1dd7adee44c1a1</title>
<g id="a_edge13"><a xlink:href="dir_000035_000001.html" target="_top">
<path fill="none" stroke="#63b8ff" d="M291.83,-54.98C279.23,-46.84 260,-34.41 245.06,-24.76"/>
<polygon fill="#63b8ff" stroke="#63b8ff" points="246.71,-21.66 236.41,-19.17 242.91,-27.54 246.71,-21.66"/>
</a>
</g>
<g id="a_edge13&#45;headlabel"><a xlink:href="dir_000035_000001.html" target="_top" xlink:title="5">
<text text-anchor="middle" x="251.27" y="-18.73" font-family="Helvetica,sans-Serif" font-size="10.00" fill="#63b8ff">5</text>
</a>
</g>
</g>
<!-- dir_c2e97253aff1e6f54792c4870ba865b7&#45;&gt;dir_cae27912e177176a90175eee3a6288a5 -->
<g id="edge14" class="edge">
<title>dir_c2e97253aff1e6f54792c4870ba865b7&#45;&gt;dir_cae27912e177176a90175eee3a6288a5</title>
<g id="a_edge14"><a xlink:href="dir_000035_000016.html" target="_top">
<path fill="none" stroke="#63b8ff" d="M305,-54.75C305,-47.8 305,-37.85 305,-29.13"/>
<polygon fill="#63b8ff" stroke="#63b8ff" points="308.5,-29.09 305,-19.09 301.5,-29.09 308.5,-29.09"/>
</a>
</g>
<g id="a_edge14&#45;headlabel"><a xlink:href="dir_000035_000016.html" target="_top" xlink:title="2">
<text text-anchor="middle" x="311.34" y="-30.18" font-family="Helvetica,sans-Serif" font-size="10.00" fill="#63b8ff">2</text>
</a>
</g>
</g>
<!-- dir_c186a0af92c282e284ae6676b3418fef&#45;&gt;dir_49f80dbd7683ed98b39c0cd73917c2a0 -->
<g id="edge15" class="edge">
<title>dir_c186a0af92c282e284ae6676b3418fef&#45;&gt;dir_49f80dbd7683ed98b39c0cd73917c2a0</title>
<g id="a_edge15"><a xlink:href="dir_000039_000043.html" target="_top">
<path fill="none" stroke="#63b8ff" d="M127.5,-54.98C114.6,-46.84 94.9,-34.41 79.6,-24.76"/>
<polygon fill="#63b8ff" stroke="#63b8ff" points="81.07,-21.55 70.74,-19.17 77.33,-27.47 81.07,-21.55"/>
</a>
</g>
<g id="a_edge15&#45;headlabel"><a xlink:href="dir_000039_000043.html" target="_top" xlink:title="1">
<text text-anchor="middle" x="85.62" y="-18.56" font-family="Helvetica,sans-Serif" font-size="10.00" fill="#63b8ff">1</text>
</a>
</g>
</g>
<!-- dir_c186a0af92c282e284ae6676b3418fef&#45;&gt;dir_7f2e168896bc22155d1dd7adee44c1a1 -->
<g id="edge16" class="edge">
<title>dir_c186a0af92c282e284ae6676b3418fef&#45;&gt;dir_7f2e168896bc22155d1dd7adee44c1a1</title>
<g id="a_edge16"><a xlink:href="dir_000039_000001.html" target="_top">
<path fill="none" stroke="#63b8ff" d="M154.17,-54.98C166.77,-46.84 186,-34.41 200.94,-24.76"/>
<polygon fill="#63b8ff" stroke="#63b8ff" points="203.09,-27.54 209.59,-19.17 199.29,-21.66 203.09,-27.54"/>
</a>
</g>
<g id="a_edge16&#45;headlabel"><a xlink:href="dir_000039_000001.html" target="_top" xlink:title="2">
<text text-anchor="middle" x="201.61" y="-29.37" font-family="Helvetica,sans-Serif" font-size="10.00" fill="#63b8ff">2</text>
</a>
</g>
</g>
<!-- dir_c186a0af92c282e284ae6676b3418fef&#45;&gt;dir_a7363e98f9e0bdd87618633653859815 -->
<g id="edge17" class="edge">
<title>dir_c186a0af92c282e284ae6676b3418fef&#45;&gt;dir_a7363e98f9e0bdd87618633653859815</title>
<g id="a_edge17"><a xlink:href="dir_000039_000048.html" target="_top">
<path fill="none" stroke="#63b8ff" d="M141,-54.75C141,-47.8 141,-37.85 141,-29.13"/>
<polygon fill="#63b8ff" stroke="#63b8ff" points="144.5,-29.09 141,-19.09 137.5,-29.09 144.5,-29.09"/>
</a>
</g>
<g id="a_edge17&#45;headlabel"><a xlink:href="dir_000039_000048.html" target="_top" xlink:title="2">
<text text-anchor="middle" x="147.34" y="-30.18" font-family="Helvetica,sans-Serif" font-size="10.00" fill="#63b8ff">2</text>
</a>
</g>
</g>
<!-- dir_c186a0af92c282e284ae6676b3418fef&#45;&gt;dir_cae27912e177176a90175eee3a6288a5 -->
<g id="edge18" class="edge">
<title>dir_c186a0af92c282e284ae6676b3418fef&#45;&gt;dir_cae27912e177176a90175eee3a6288a5</title>
<g id="a_edge18"><a xlink:href="dir_000039_000016.html" target="_top">
<path fill="none" stroke="#63b8ff" d="M153.36,-54.96C161.48,-49.7 172.49,-43.18 183,-39 190.48,-36.02 230.08,-26.97 262.16,-19.85"/>
<polygon fill="#63b8ff" stroke="#63b8ff" points="263.26,-23.19 272.27,-17.62 261.75,-16.36 263.26,-23.19"/>
</a>
</g>
<g id="a_edge18&#45;headlabel"><a xlink:href="dir_000039_000016.html" target="_top" xlink:title="6">
<text text-anchor="middle" x="260.36" y="-24.24" font-family="Helvetica,sans-Serif" font-size="10.00" fill="#63b8ff">6</text>
</a>
</g>
</g>
</g>
</svg>
