<?xml version="1.0" encoding="UTF-8" standalone="no"?>
<!DOCTYPE svg PUBLIC "-//W3C//DTD SVG 1.1//EN"
 "http://www.w3.org/Graphics/SVG/1.1/DTD/svg11.dtd">
<!-- Generated by graphviz version 2.43.0 (0)
 -->
<!-- Title: src/Objects/Plugins Pages: 1 -->
<svg width="420pt" height="141pt"
 viewBox="0.00 0.00 419.50 141.00" xmlns="http://www.w3.org/2000/svg" xmlns:xlink="http://www.w3.org/1999/xlink">
<g id="graph0" class="graph" transform="scale(1 1) rotate(0) translate(4 137)">
<title>src/Objects/Plugins</title>
<g id="clust1" class="cluster">
<title>clusterdir_55b41fb77a5097913bc464fb6a145e9c</title>
<g id="a_clust1"><a xlink:href="dir_55b41fb77a5097913bc464fb6a145e9c.html" target="_top" xlink:title="Objects">
<polygon fill="#edf0f7" stroke="#7f7f7f" stroke-dasharray="5,2" points="8,-8 8,-125 180,-125 180,-8 8,-8"/>
<text text-anchor="middle" x="94" y="-113" font-family="Helvetica,sans-Serif" font-size="10.00">Objects</text>
</a>
</g>
</g>
<g id="clust2" class="cluster">
<title>clusterdir_86cf0aee3ebd28cdfb001e081edcf295</title>
<g id="a_clust2"><a xlink:href="dir_86cf0aee3ebd28cdfb001e081edcf295.html" target="_top">
<polygon fill="#edf0f7" stroke="#404040" stroke-width="2" points="16,-63 16,-98 172,-98 172,-63 16,-63"/>
</a>
</g>
</g>
<!-- dir_7f2e168896bc22155d1dd7adee44c1a1 -->
<g id="node1" class="node">
<title>dir_7f2e168896bc22155d1dd7adee44c1a1</title>
<g id="a_node1"><a xlink:href="dir_7f2e168896bc22155d1dd7adee44c1a1.html" target="_top" xlink:title="Abstracts">
<polygon fill="#a2b4d6" stroke="red" points="90,-35 28,-35 28,-16 90,-16 90,-35"/>
<text text-anchor="middle" x="59" y="-23" font-family="Helvetica,sans-Serif" font-size="10.00">Abstracts</text>
</a>
</g>
</g>
<!-- dir_86cf0aee3ebd28cdfb001e081edcf295 -->
<g id="node2" class="node">
<title>dir_86cf0aee3ebd28cdfb001e081edcf295</title>
<text text-anchor="middle" x="138" y="-78" font-family="Helvetica,sans-Serif" font-size="10.00">Plugins</text>
</g>
<!-- dir_bcb78dd210b4a6eed89bcede11e18332 -->
<g id="node3" class="node">
<title>dir_bcb78dd210b4a6eed89bcede11e18332</title>
<g id="a_node3"><a xlink:href="dir_bcb78dd210b4a6eed89bcede11e18332.html" target="_top" xlink:title="CorePlugin">
<polygon fill="#a2b4d6" stroke="#404040" points="93.5,-90 24.5,-90 24.5,-71 93.5,-71 93.5,-90"/>
<text text-anchor="middle" x="59" y="-78" font-family="Helvetica,sans-Serif" font-size="10.00">CorePlugin</text>
</a>
</g>
</g>
<!-- dir_bcb78dd210b4a6eed89bcede11e18332&#45;&gt;dir_7f2e168896bc22155d1dd7adee44c1a1 -->
<g id="edge2" class="edge">
<title>dir_bcb78dd210b4a6eed89bcede11e18332&#45;&gt;dir_7f2e168896bc22155d1dd7adee44c1a1</title>
<g id="a_edge2"><a xlink:href="dir_000008_000000.html" target="_top">
<path fill="none" stroke="#63b8ff" d="M59,-70.75C59,-63.8 59,-53.85 59,-45.13"/>
<polygon fill="#63b8ff" stroke="#63b8ff" points="62.5,-45.09 59,-35.09 55.5,-45.09 62.5,-45.09"/>
</a>
</g>
<g id="a_edge2&#45;headlabel"><a xlink:href="dir_000008_000000.html" target="_top" xlink:title="14">
<text text-anchor="middle" x="65.34" y="-46.18" font-family="Helvetica,sans-Serif" font-size="10.00" fill="#63b8ff">14</text>
</a>
</g>
</g>
<!-- dir_49f80dbd7683ed98b39c0cd73917c2a0 -->
<g id="node4" class="node">
<title>dir_49f80dbd7683ed98b39c0cd73917c2a0</title>
<g id="a_node4"><a xlink:href="dir_49f80dbd7683ed98b39c0cd73917c2a0.html" target="_top" xlink:title="SceneSystem">
<polygon fill="#edf0f7" stroke="red" stroke-dasharray="5,2" points="271.5,-35 188.5,-35 188.5,-16 271.5,-16 271.5,-35"/>
<text text-anchor="middle" x="230" y="-23" font-family="Helvetica,sans-Serif" font-size="10.00">SceneSystem</text>
</a>
</g>
</g>
<!-- dir_bcb78dd210b4a6eed89bcede11e18332&#45;&gt;dir_49f80dbd7683ed98b39c0cd73917c2a0 -->
<g id="edge1" class="edge">
<title>dir_bcb78dd210b4a6eed89bcede11e18332&#45;&gt;dir_49f80dbd7683ed98b39c0cd73917c2a0</title>
<g id="a_edge1"><a xlink:href="dir_000008_000037.html" target="_top">
<path fill="none" stroke="#63b8ff" d="M80.81,-70.93C87.85,-68.27 95.72,-65.41 103,-63 131.05,-53.73 163.01,-44.55 187.85,-37.72"/>
<polygon fill="#63b8ff" stroke="#63b8ff" points="188.96,-41.04 197.69,-35.03 187.12,-34.29 188.96,-41.04"/>
</a>
</g>
<g id="a_edge1&#45;headlabel"><a xlink:href="dir_000008_000037.html" target="_top" xlink:title="3">
<text text-anchor="middle" x="186.24" y="-42.23" font-family="Helvetica,sans-Serif" font-size="10.00" fill="#63b8ff">3</text>
</a>
</g>
</g>
<!-- dir_a7363e98f9e0bdd87618633653859815 -->
<g id="node5" class="node">
<title>dir_a7363e98f9e0bdd87618633653859815</title>
<g id="a_node5"><a xlink:href="dir_a7363e98f9e0bdd87618633653859815.html" target="_top" xlink:title="Utils">
<polygon fill="#edf0f7" stroke="#7f7f7f" points="328.5,-35 289.5,-35 289.5,-16 328.5,-16 328.5,-35"/>
<text text-anchor="middle" x="309" y="-23" font-family="Helvetica,sans-Serif" font-size="10.00">Utils</text>
</a>
</g>
</g>
<!-- dir_bcb78dd210b4a6eed89bcede11e18332&#45;&gt;dir_a7363e98f9e0bdd87618633653859815 -->
<g id="edge3" class="edge">
<title>dir_bcb78dd210b4a6eed89bcede11e18332&#45;&gt;dir_a7363e98f9e0bdd87618633653859815</title>
<g id="a_edge3"><a xlink:href="dir_000008_000042.html" target="_top">
<path fill="none" stroke="#63b8ff" d="M79.31,-70.9C86.67,-68.05 95.11,-65.08 103,-63 177.42,-43.41 201.1,-52.14 279.38,-35.09"/>
<polygon fill="#63b8ff" stroke="#63b8ff" points="280.22,-38.49 289.21,-32.88 278.68,-31.66 280.22,-38.49"/>
</a>
</g>
<g id="a_edge3&#45;headlabel"><a xlink:href="dir_000008_000042.html" target="_top" xlink:title="3">
<text text-anchor="middle" x="277.34" y="-39.55" font-family="Helvetica,sans-Serif" font-size="10.00" fill="#63b8ff">3</text>
</a>
</g>
</g>
<!-- dir_cae27912e177176a90175eee3a6288a5 -->
<g id="node6" class="node">
<title>dir_cae27912e177176a90175eee3a6288a5</title>
<g id="a_node6"><a xlink:href="dir_cae27912e177176a90175eee3a6288a5.html" target="_top" xlink:title="Geometry">
<polygon fill="#edf0f7" stroke="red" stroke-dasharray="5,2" points="411.5,-35 346.5,-35 346.5,-16 411.5,-16 411.5,-35"/>
<text text-anchor="middle" x="379" y="-23" font-family="Helvetica,sans-Serif" font-size="10.00">Geometry</text>
</a>
</g>
</g>
<!-- dir_bcb78dd210b4a6eed89bcede11e18332&#45;&gt;dir_cae27912e177176a90175eee3a6288a5 -->
<g id="edge4" class="edge">
<title>dir_bcb78dd210b4a6eed89bcede11e18332&#45;&gt;dir_cae27912e177176a90175eee3a6288a5</title>
<g id="a_edge4"><a xlink:href="dir_000008_000014.html" target="_top">
<path fill="none" stroke="#63b8ff" d="M78.83,-70.91C86.29,-67.99 94.91,-64.97 103,-63 202.11,-38.89 232.36,-51.11 336.41,-35.11"/>
<polygon fill="#63b8ff" stroke="#63b8ff" points="337.05,-38.55 346.37,-33.53 335.95,-31.64 337.05,-38.55"/>
</a>
</g>
<g id="a_edge4&#45;headlabel"><a xlink:href="dir_000008_000014.html" target="_top" xlink:title="11">
<text text-anchor="middle" x="333.94" y="-39.42" font-family="Helvetica,sans-Serif" font-size="10.00" fill="#63b8ff">11</text>
</a>
</g>
</g>
</g>
</svg>
