<?xml version="1.0" encoding="UTF-8" standalone="no"?>
<!DOCTYPE svg PUBLIC "-//W3C//DTD SVG 1.1//EN"
 "http://www.w3.org/Graphics/SVG/1.1/DTD/svg11.dtd">
<!-- Generated by graphviz version 2.43.0 (0)
 -->
<!-- Title: src/Objects/Plugins/CorePlugin Pages: 1 -->
<svg width="434pt" height="180pt"
 viewBox="0.00 0.00 434.00 180.00" xmlns="http://www.w3.org/2000/svg" xmlns:xlink="http://www.w3.org/1999/xlink">

<svg id="main" version="1.1" xmlns="http://www.w3.org/2000/svg" xmlns:xlink="http://www.w3.org/1999/xlink" xml:space="preserve" onload="init(evt)">
<style type="text/css"><![CDATA[
.node, .edge {opacity: 0.7;}
.node.selected, .edge.selected {opacity: 1;}
.edge:hover path { stroke: red; }
.edge:hover polygon { stroke: red; fill: red; }
]]></style>
<script type="application/ecmascript" xlink:href="svg.min.js"/>
<svg id="graph" class="graph">
<g id="graph0" class="graph" transform="scale(1 1) rotate(0) translate(4 176)">
<title>src/Objects/Plugins/CorePlugin</title>
<g id="clust1" class="cluster">
<title>clusterdir_86cf0aee3ebd28cdfb001e081edcf295</title>
<g id="a_clust1"><a xlink:href="dir_86cf0aee3ebd28cdfb001e081edcf295.html" target="_top" xlink:title="Plugins">
<polygon fill="#edf0f7" stroke="#7f7f7f" stroke-dasharray="5,2" points="8,-39 8,-164 418,-164 418,-39 8,-39"/>
<text text-anchor="middle" x="213" y="-152" font-family="Helvetica,sans-Serif" font-size="10.00">Plugins</text>
</a>
</g>
</g>
<g id="clust2" class="cluster">
<title>clusterdir_bcb78dd210b4a6eed89bcede11e18332</title>
<g id="a_clust2"><a xlink:href="dir_bcb78dd210b4a6eed89bcede11e18332.html" target="_top">
<polygon fill="#edf0f7" stroke="#404040" stroke-width="2" points="16,-47 16,-137 410,-137 410,-47 16,-47"/>
</a>
</g>
</g>
<!-- dir_bcb78dd210b4a6eed89bcede11e18332 -->
<g id="node1" class="node">
<title>dir_bcb78dd210b4a6eed89bcede11e18332</title>
<text text-anchor="middle" x="221" y="-117" font-family="Helvetica,sans-Serif" font-size="10.00">CorePlugin</text>
</g>
<!-- dir_8ade9f44a6014edb6d626908c2dedec7 -->
<g id="node2" class="node">
<title>dir_8ade9f44a6014edb6d626908c2dedec7</title>
<g id="a_node2"><a xlink:href="dir_8ade9f44a6014edb6d626908c2dedec7.html" target="_top" xlink:title="Interfaces">
<polygon fill="#a2b4d6" stroke="#404040" points="89.5,-74 24.5,-74 24.5,-55 89.5,-55 89.5,-74"/>
<text text-anchor="middle" x="57" y="-62" font-family="Helvetica,sans-Serif" font-size="10.00">Interfaces</text>
</a>
</g>
</g>
<!-- dir_bcb78dd210b4a6eed89bcede11e18332&#45;&gt;dir_8ade9f44a6014edb6d626908c2dedec7 -->
<g id="edge3" class="edge">
<title>dir_bcb78dd210b4a6eed89bcede11e18332&#45;&gt;dir_8ade9f44a6014edb6d626908c2dedec7</title>
<g id="a_edge3"><a xlink:href="dir_000007_000014.html" target="_top">
<path fill="none" stroke="#63b8ff" d="M194.65,-109.98C167.24,-101.13 124.11,-87.19 93.44,-77.28"/>
<polygon fill="#63b8ff" stroke="#63b8ff" points="94.15,-73.83 83.56,-74.08 92,-80.49 94.15,-73.83"/>
</a>
</g>
<g id="a_edge3&#45;headlabel"><a xlink:href="dir_000007_000014.html" target="_top" xlink:title="1">
<text text-anchor="middle" x="98.44" y="-69.73" font-family="Helvetica,sans-Serif" font-size="10.00" fill="#63b8ff">1</text>
</a>
</g>
</g>
<!-- dir_33385bcc03e617213f49e698b1f4af83 -->
<g id="node3" class="node">
<title>dir_33385bcc03e617213f49e698b1f4af83</title>
<g id="a_node3"><a xlink:href="dir_33385bcc03e617213f49e698b1f4af83.html" target="_top" xlink:title="Lights">
<polygon fill="#a2b4d6" stroke="#404040" points="402,-74 356,-74 356,-55 402,-55 402,-74"/>
<text text-anchor="middle" x="379" y="-62" font-family="Helvetica,sans-Serif" font-size="10.00">Lights</text>
</a>
</g>
</g>
<!-- dir_bcb78dd210b4a6eed89bcede11e18332&#45;&gt;dir_33385bcc03e617213f49e698b1f4af83 -->
<g id="edge2" class="edge">
<title>dir_bcb78dd210b4a6eed89bcede11e18332&#45;&gt;dir_33385bcc03e617213f49e698b1f4af83</title>
<g id="a_edge2"><a xlink:href="dir_000007_000016.html" target="_top">
<path fill="none" stroke="#63b8ff" d="M246.39,-109.98C273.58,-100.86 316.83,-86.36 346.49,-76.4"/>
<polygon fill="#63b8ff" stroke="#63b8ff" points="347.62,-79.72 355.99,-73.22 345.4,-73.08 347.62,-79.72"/>
</a>
</g>
<g id="a_edge2&#45;headlabel"><a xlink:href="dir_000007_000016.html" target="_top" xlink:title="3">
<text text-anchor="middle" x="345.12" y="-81.05" font-family="Helvetica,sans-Serif" font-size="10.00" fill="#63b8ff">3</text>
</a>
</g>
</g>
<!-- dir_0dc0c75b4f6356b32046a67b8d22f8ca -->
<g id="node4" class="node">
<title>dir_0dc0c75b4f6356b32046a67b8d22f8ca</title>
<g id="a_node4"><a xlink:href="dir_0dc0c75b4f6356b32046a67b8d22f8ca.html" target="_top" xlink:title="Materials">
<polygon fill="#a2b4d6" stroke="#404040" points="170,-74 108,-74 108,-55 170,-55 170,-74"/>
<text text-anchor="middle" x="139" y="-62" font-family="Helvetica,sans-Serif" font-size="10.00">Materials</text>
</a>
</g>
</g>
<!-- dir_bcb78dd210b4a6eed89bcede11e18332&#45;&gt;dir_0dc0c75b4f6356b32046a67b8d22f8ca -->
<g id="edge1" class="edge">
<title>dir_bcb78dd210b4a6eed89bcede11e18332&#45;&gt;dir_0dc0c75b4f6356b32046a67b8d22f8ca</title>
<g id="a_edge1"><a xlink:href="dir_000007_000017.html" target="_top">
<path fill="none" stroke="#63b8ff" d="M207.83,-109.98C195.23,-101.84 176,-89.41 161.06,-79.76"/>
<polygon fill="#63b8ff" stroke="#63b8ff" points="162.71,-76.66 152.41,-74.17 158.91,-82.54 162.71,-76.66"/>
</a>
</g>
<g id="a_edge1&#45;headlabel"><a xlink:href="dir_000007_000017.html" target="_top" xlink:title="1">
<text text-anchor="middle" x="167.27" y="-73.73" font-family="Helvetica,sans-Serif" font-size="10.00" fill="#63b8ff">1</text>
</a>
</g>
</g>
<!-- dir_c2e97253aff1e6f54792c4870ba865b7 -->
<g id="node5" class="node">
<title>dir_c2e97253aff1e6f54792c4870ba865b7</title>
<g id="a_node5"><a xlink:href="dir_c2e97253aff1e6f54792c4870ba865b7.html" target="_top" xlink:title="Primitives">
<polygon fill="#a2b4d6" stroke="#404040" points="338,-74 272,-74 272,-55 338,-55 338,-74"/>
<text text-anchor="middle" x="305" y="-62" font-family="Helvetica,sans-Serif" font-size="10.00">Primitives</text>
</a>
</g>
</g>
<!-- dir_bcb78dd210b4a6eed89bcede11e18332&#45;&gt;dir_c2e97253aff1e6f54792c4870ba865b7 -->
<g id="edge6" class="edge">
<title>dir_bcb78dd210b4a6eed89bcede11e18332&#45;&gt;dir_c2e97253aff1e6f54792c4870ba865b7</title>
<g id="a_edge6"><a xlink:href="dir_000007_000024.html" target="_top">
<path fill="none" stroke="#63b8ff" d="M234.5,-109.98C247.4,-101.84 267.1,-89.41 282.4,-79.76"/>
<polygon fill="#63b8ff" stroke="#63b8ff" points="284.67,-82.47 291.26,-74.17 280.93,-76.55 284.67,-82.47"/>
</a>
</g>
<g id="a_edge6&#45;headlabel"><a xlink:href="dir_000007_000024.html" target="_top" xlink:title="2">
<text text-anchor="middle" x="283.14" y="-84.29" font-family="Helvetica,sans-Serif" font-size="10.00" fill="#63b8ff">2</text>
</a>
</g>
</g>
<!-- dir_c186a0af92c282e284ae6676b3418fef -->
<g id="node6" class="node">
<title>dir_c186a0af92c282e284ae6676b3418fef</title>
<g id="a_node6"><a xlink:href="dir_c186a0af92c282e284ae6676b3418fef.html" target="_top" xlink:title="Renderers">
<polygon fill="#a2b4d6" stroke="#404040" points="254,-74 188,-74 188,-55 254,-55 254,-74"/>
<text text-anchor="middle" x="221" y="-62" font-family="Helvetica,sans-Serif" font-size="10.00">Renderers</text>
</a>
</g>
</g>
<!-- dir_bcb78dd210b4a6eed89bcede11e18332&#45;&gt;dir_c186a0af92c282e284ae6676b3418fef -->
<g id="edge5" class="edge">
<title>dir_bcb78dd210b4a6eed89bcede11e18332&#45;&gt;dir_c186a0af92c282e284ae6676b3418fef</title>
<g id="a_edge5"><a xlink:href="dir_000007_000028.html" target="_top">
<path fill="none" stroke="#63b8ff" d="M221,-109.75C221,-102.8 221,-92.85 221,-84.13"/>
<polygon fill="#63b8ff" stroke="#63b8ff" points="224.5,-84.09 221,-74.09 217.5,-84.09 224.5,-84.09"/>
</a>
</g>
<g id="a_edge5&#45;headlabel"><a xlink:href="dir_000007_000028.html" target="_top" xlink:title="1">
<text text-anchor="middle" x="227.34" y="-85.18" font-family="Helvetica,sans-Serif" font-size="10.00" fill="#63b8ff">1</text>
</a>
</g>
</g>
<!-- dir_a7363e98f9e0bdd87618633653859815 -->
<g id="node9" class="node">
<title>dir_a7363e98f9e0bdd87618633653859815</title>
<g id="a_node9"><a xlink:href="dir_a7363e98f9e0bdd87618633653859815.html" target="_top" xlink:title="Utils">
<polygon fill="#edf0f7" stroke="#7f7f7f" points="111.5,-19 72.5,-19 72.5,0 111.5,0 111.5,-19"/>
<text text-anchor="middle" x="92" y="-7" font-family="Helvetica,sans-Serif" font-size="10.00">Utils</text>
</a>
</g>
</g>
<!-- dir_bcb78dd210b4a6eed89bcede11e18332&#45;&gt;dir_a7363e98f9e0bdd87618633653859815 -->
<g id="edge4" class="edge">
<title>dir_bcb78dd210b4a6eed89bcede11e18332&#45;&gt;dir_a7363e98f9e0bdd87618633653859815</title>
<g id="a_edge4"><a xlink:href="dir_000007_000035.html" target="_top">
<path fill="none" stroke="#63b8ff" d="M186.46,-116.11C133.73,-111.66 37.03,-100.08 16,-74 6.24,-61.89 7.14,-51.79 16,-39 26.44,-23.94 45.87,-16.83 62.48,-13.47"/>
<polygon fill="#63b8ff" stroke="#63b8ff" points="63.06,-16.92 72.35,-11.83 61.91,-10.02 63.06,-16.92"/>
</a>
</g>
<g id="a_edge4&#45;headlabel"><a xlink:href="dir_000007_000035.html" target="_top" xlink:title="4">
<text text-anchor="middle" x="59.98" y="-17.81" font-family="Helvetica,sans-Serif" font-size="10.00" fill="#63b8ff">4</text>
</a>
</g>
</g>
<!-- dir_cae27912e177176a90175eee3a6288a5 -->
<g id="node10" class="node">
<title>dir_cae27912e177176a90175eee3a6288a5</title>
<g id="a_node10"><a xlink:href="dir_cae27912e177176a90175eee3a6288a5.html" target="_top" xlink:title="Geometry">
<polygon fill="#edf0f7" stroke="red" stroke-dasharray="5,2" points="406.5,-19 341.5,-19 341.5,0 406.5,0 406.5,-19"/>
<text text-anchor="middle" x="374" y="-7" font-family="Helvetica,sans-Serif" font-size="10.00">Geometry</text>
</a>
</g>
</g>
<!-- dir_bcb78dd210b4a6eed89bcede11e18332&#45;&gt;dir_cae27912e177176a90175eee3a6288a5 -->
<g id="edge7" class="edge">
<title>dir_bcb78dd210b4a6eed89bcede11e18332&#45;&gt;dir_cae27912e177176a90175eee3a6288a5</title>
<g id="a_edge7"><a xlink:href="dir_000007_000012.html" target="_top">
<path fill="none" stroke="#63b8ff" d="M255.87,-115.42C305.34,-110.25 392,-97.96 411,-74 420.66,-61.81 417.87,-52.96 411,-39 408.4,-33.73 404.31,-29.15 399.78,-25.31"/>
<polygon fill="#63b8ff" stroke="#63b8ff" points="401.51,-22.24 391.37,-19.18 397.39,-27.9 401.51,-22.24"/>
</a>
</g>
<g id="a_edge7&#45;headlabel"><a xlink:href="dir_000007_000012.html" target="_top" xlink:title="12">
<text text-anchor="middle" x="406.09" y="-19.56" font-family="Helvetica,sans-Serif" font-size="10.00" fill="#63b8ff">12</text>
</a>
</g>
</g>
<!-- dir_49f80dbd7683ed98b39c0cd73917c2a0 -->
<g id="node7" class="node">
<title>dir_49f80dbd7683ed98b39c0cd73917c2a0</title>
<g id="a_node7"><a xlink:href="dir_49f80dbd7683ed98b39c0cd73917c2a0.html" target="_top" xlink:title="SceneSystem">
<polygon fill="#edf0f7" stroke="red" stroke-dasharray="5,2" points="229.5,-19 146.5,-19 146.5,0 229.5,0 229.5,-19"/>
<text text-anchor="middle" x="188" y="-7" font-family="Helvetica,sans-Serif" font-size="10.00">SceneSystem</text>
</a>
</g>
</g>
<!-- dir_8ade9f44a6014edb6d626908c2dedec7&#45;&gt;dir_49f80dbd7683ed98b39c0cd73917c2a0 -->
<g id="edge8" class="edge">
<title>dir_8ade9f44a6014edb6d626908c2dedec7&#45;&gt;dir_49f80dbd7683ed98b39c0cd73917c2a0</title>
<g id="a_edge8"><a xlink:href="dir_000014_000031.html" target="_top">
<path fill="none" stroke="#63b8ff" d="M70.22,-54.78C78.3,-49.71 88.98,-43.46 99,-39 113.95,-32.34 130.95,-26.5 146.05,-21.87"/>
<polygon fill="#63b8ff" stroke="#63b8ff" points="147.07,-25.22 155.66,-19.01 145.07,-18.51 147.07,-25.22"/>
</a>
</g>
<g id="a_edge8&#45;headlabel"><a xlink:href="dir_000014_000031.html" target="_top" xlink:title="1">
<text text-anchor="middle" x="144.44" y="-26.47" font-family="Helvetica,sans-Serif" font-size="10.00" fill="#63b8ff">1</text>
</a>
</g>
</g>
<!-- dir_8ade9f44a6014edb6d626908c2dedec7&#45;&gt;dir_a7363e98f9e0bdd87618633653859815 -->
<g id="edge9" class="edge">
<title>dir_8ade9f44a6014edb6d626908c2dedec7&#45;&gt;dir_a7363e98f9e0bdd87618633653859815</title>
<g id="a_edge9"><a xlink:href="dir_000014_000035.html" target="_top">
<path fill="none" stroke="#63b8ff" d="M62.78,-54.75C67.62,-47.42 74.68,-36.73 80.64,-27.7"/>
<polygon fill="#63b8ff" stroke="#63b8ff" points="83.74,-29.36 86.33,-19.09 77.9,-25.5 83.74,-29.36"/>
</a>
</g>
<g id="a_edge9&#45;headlabel"><a xlink:href="dir_000014_000035.html" target="_top" xlink:title="1">
<text text-anchor="middle" x="84.13" y="-31.43" font-family="Helvetica,sans-Serif" font-size="10.00" fill="#63b8ff">1</text>
</a>
</g>
</g>
<!-- dir_7f2e168896bc22155d1dd7adee44c1a1 -->
<g id="node8" class="node">
<title>dir_7f2e168896bc22155d1dd7adee44c1a1</title>
<g id="a_node8"><a xlink:href="dir_7f2e168896bc22155d1dd7adee44c1a1.html" target="_top" xlink:title="Abstracts">
<polygon fill="#edf0f7" stroke="red" stroke-dasharray="5,2" points="319,-19 257,-19 257,0 319,0 319,-19"/>
<text text-anchor="middle" x="288" y="-7" font-family="Helvetica,sans-Serif" font-size="10.00">Abstracts</text>
</a>
</g>
</g>
<!-- dir_33385bcc03e617213f49e698b1f4af83&#45;&gt;dir_7f2e168896bc22155d1dd7adee44c1a1 -->
<g id="edge10" class="edge">
<title>dir_33385bcc03e617213f49e698b1f4af83&#45;&gt;dir_7f2e168896bc22155d1dd7adee44c1a1</title>
<g id="a_edge10"><a xlink:href="dir_000016_000000.html" target="_top">
<path fill="none" stroke="#63b8ff" d="M368.72,-54.77C362.63,-49.82 354.63,-43.69 347,-39 337.7,-33.28 327.08,-27.84 317.43,-23.27"/>
<polygon fill="#63b8ff" stroke="#63b8ff" points="318.75,-20.03 308.2,-19.03 315.82,-26.39 318.75,-20.03"/>
</a>
</g>
<g id="a_edge10&#45;headlabel"><a xlink:href="dir_000016_000000.html" target="_top" xlink:title="4">
<text text-anchor="middle" x="323.2" y="-16.45" font-family="Helvetica,sans-Serif" font-size="10.00" fill="#63b8ff">4</text>
</a>
</g>
</g>
<!-- dir_33385bcc03e617213f49e698b1f4af83&#45;&gt;dir_cae27912e177176a90175eee3a6288a5 -->
<g id="edge11" class="edge">
<title>dir_33385bcc03e617213f49e698b1f4af83&#45;&gt;dir_cae27912e177176a90175eee3a6288a5</title>
<g id="a_edge11"><a xlink:href="dir_000016_000012.html" target="_top">
<path fill="none" stroke="#63b8ff" d="M378.17,-54.75C377.52,-47.8 376.58,-37.85 375.76,-29.13"/>
<polygon fill="#63b8ff" stroke="#63b8ff" points="379.23,-28.72 374.81,-19.09 372.27,-29.37 379.23,-28.72"/>
</a>
</g>
<g id="a_edge11&#45;headlabel"><a xlink:href="dir_000016_000012.html" target="_top" xlink:title="3">
<text text-anchor="middle" x="382.4" y="-29.53" font-family="Helvetica,sans-Serif" font-size="10.00" fill="#63b8ff">3</text>
</a>
</g>
</g>
<!-- dir_0dc0c75b4f6356b32046a67b8d22f8ca&#45;&gt;dir_7f2e168896bc22155d1dd7adee44c1a1 -->
<g id="edge12" class="edge">
<title>dir_0dc0c75b4f6356b32046a67b8d22f8ca&#45;&gt;dir_7f2e168896bc22155d1dd7adee44c1a1</title>
<g id="a_edge12"><a xlink:href="dir_000017_000000.html" target="_top">
<path fill="none" stroke="#63b8ff" d="M151.1,-54.79C158.78,-49.59 169.11,-43.21 179,-39 200.65,-29.78 226.03,-22.93 246.84,-18.26"/>
<polygon fill="#63b8ff" stroke="#63b8ff" points="247.62,-21.67 256.66,-16.14 246.15,-14.83 247.62,-21.67"/>
</a>
</g>
<g id="a_edge12&#45;headlabel"><a xlink:href="dir_000017_000000.html" target="_top" xlink:title="1">
<text text-anchor="middle" x="244.71" y="-22.71" font-family="Helvetica,sans-Serif" font-size="10.00" fill="#63b8ff">1</text>
</a>
</g>
</g>
<!-- dir_0dc0c75b4f6356b32046a67b8d22f8ca&#45;&gt;dir_a7363e98f9e0bdd87618633653859815 -->
<g id="edge13" class="edge">
<title>dir_0dc0c75b4f6356b32046a67b8d22f8ca&#45;&gt;dir_a7363e98f9e0bdd87618633653859815</title>
<g id="a_edge13"><a xlink:href="dir_000017_000035.html" target="_top">
<path fill="none" stroke="#63b8ff" d="M131.24,-54.75C124.53,-47.18 114.66,-36.05 106.49,-26.84"/>
<polygon fill="#63b8ff" stroke="#63b8ff" points="108.87,-24.25 99.62,-19.09 103.63,-28.89 108.87,-24.25"/>
</a>
</g>
<g id="a_edge13&#45;headlabel"><a xlink:href="dir_000017_000035.html" target="_top" xlink:title="1">
<text text-anchor="middle" x="113.38" y="-22.55" font-family="Helvetica,sans-Serif" font-size="10.00" fill="#63b8ff">1</text>
</a>
</g>
</g>
<!-- dir_c2e97253aff1e6f54792c4870ba865b7&#45;&gt;dir_7f2e168896bc22155d1dd7adee44c1a1 -->
<g id="edge14" class="edge">
<title>dir_c2e97253aff1e6f54792c4870ba865b7&#45;&gt;dir_7f2e168896bc22155d1dd7adee44c1a1</title>
<g id="a_edge14"><a xlink:href="dir_000024_000000.html" target="_top">
<path fill="none" stroke="#63b8ff" d="M302.19,-54.75C299.94,-47.72 296.7,-37.62 293.88,-28.84"/>
<polygon fill="#63b8ff" stroke="#63b8ff" points="297.14,-27.54 290.75,-19.09 290.48,-29.68 297.14,-27.54"/>
</a>
</g>
<g id="a_edge14&#45;headlabel"><a xlink:href="dir_000024_000000.html" target="_top" xlink:title="5">
<text text-anchor="middle" x="300.94" y="-27.6" font-family="Helvetica,sans-Serif" font-size="10.00" fill="#63b8ff">5</text>
</a>
</g>
</g>
<!-- dir_c2e97253aff1e6f54792c4870ba865b7&#45;&gt;dir_cae27912e177176a90175eee3a6288a5 -->
<g id="edge15" class="edge">
<title>dir_c2e97253aff1e6f54792c4870ba865b7&#45;&gt;dir_cae27912e177176a90175eee3a6288a5</title>
<g id="a_edge15"><a xlink:href="dir_000024_000012.html" target="_top">
<path fill="none" stroke="#63b8ff" d="M316.09,-54.98C326.49,-47 342.26,-34.88 354.72,-25.31"/>
<polygon fill="#63b8ff" stroke="#63b8ff" points="356.91,-28.04 362.71,-19.17 352.65,-22.49 356.91,-28.04"/>
</a>
</g>
<g id="a_edge15&#45;headlabel"><a xlink:href="dir_000024_000012.html" target="_top" xlink:title="2">
<text text-anchor="middle" x="355.79" y="-29.98" font-family="Helvetica,sans-Serif" font-size="10.00" fill="#63b8ff">2</text>
</a>
</g>
</g>
<!-- dir_c186a0af92c282e284ae6676b3418fef&#45;&gt;dir_49f80dbd7683ed98b39c0cd73917c2a0 -->
<g id="edge16" class="edge">
<title>dir_c186a0af92c282e284ae6676b3418fef&#45;&gt;dir_49f80dbd7683ed98b39c0cd73917c2a0</title>
<g id="a_edge16"><a xlink:href="dir_000028_000031.html" target="_top">
<path fill="none" stroke="#63b8ff" d="M215.55,-54.75C210.99,-47.42 204.33,-36.73 198.71,-27.7"/>
<polygon fill="#63b8ff" stroke="#63b8ff" points="201.6,-25.73 193.35,-19.09 195.66,-29.43 201.6,-25.73"/>
</a>
</g>
<g id="a_edge16&#45;headlabel"><a xlink:href="dir_000028_000031.html" target="_top" xlink:title="1">
<text text-anchor="middle" x="205.91" y="-24.78" font-family="Helvetica,sans-Serif" font-size="10.00" fill="#63b8ff">1</text>
</a>
</g>
</g>
<!-- dir_c186a0af92c282e284ae6676b3418fef&#45;&gt;dir_7f2e168896bc22155d1dd7adee44c1a1 -->
<g id="edge17" class="edge">
<title>dir_c186a0af92c282e284ae6676b3418fef&#45;&gt;dir_7f2e168896bc22155d1dd7adee44c1a1</title>
<g id="a_edge17"><a xlink:href="dir_000028_000000.html" target="_top">
<path fill="none" stroke="#63b8ff" d="M231.76,-54.98C241.77,-47.07 256.89,-35.11 268.93,-25.58"/>
<polygon fill="#63b8ff" stroke="#63b8ff" points="271.37,-28.12 277.04,-19.17 267.03,-22.63 271.37,-28.12"/>
</a>
</g>
<g id="a_edge17&#45;headlabel"><a xlink:href="dir_000028_000000.html" target="_top" xlink:title="2">
<text text-anchor="middle" x="270.31" y="-30.08" font-family="Helvetica,sans-Serif" font-size="10.00" fill="#63b8ff">2</text>
</a>
</g>
</g>
<!-- dir_c186a0af92c282e284ae6676b3418fef&#45;&gt;dir_a7363e98f9e0bdd87618633653859815 -->
<g id="edge18" class="edge">
<title>dir_c186a0af92c282e284ae6676b3418fef&#45;&gt;dir_a7363e98f9e0bdd87618633653859815</title>
<g id="a_edge18"><a xlink:href="dir_000028_000035.html" target="_top">
<path fill="none" stroke="#63b8ff" d="M207.77,-54.81C199.68,-49.75 189.01,-43.5 179,-39 160.51,-30.69 138.85,-23.59 121.77,-18.55"/>
<polygon fill="#63b8ff" stroke="#63b8ff" points="122.37,-15.08 111.8,-15.69 120.44,-21.81 122.37,-15.08"/>
</a>
</g>
<g id="a_edge18&#45;headlabel"><a xlink:href="dir_000028_000035.html" target="_top" xlink:title="1">
<text text-anchor="middle" x="126.61" y="-10.85" font-family="Helvetica,sans-Serif" font-size="10.00" fill="#63b8ff">1</text>
</a>
</g>
</g>
<!-- dir_c186a0af92c282e284ae6676b3418fef&#45;&gt;dir_cae27912e177176a90175eee3a6288a5 -->
<g id="edge19" class="edge">
<title>dir_c186a0af92c282e284ae6676b3418fef&#45;&gt;dir_cae27912e177176a90175eee3a6288a5</title>
<g id="a_edge19"><a xlink:href="dir_000028_000012.html" target="_top">
<path fill="none" stroke="#63b8ff" d="M233.76,-54.8C241.85,-49.61 252.69,-43.23 263,-39 284.83,-30.04 310.25,-23.26 331.26,-18.57"/>
<polygon fill="#63b8ff" stroke="#63b8ff" points="332.14,-21.96 341.18,-16.43 330.67,-15.12 332.14,-21.96"/>
</a>
</g>
<g id="a_edge19&#45;headlabel"><a xlink:href="dir_000028_000012.html" target="_top" xlink:title="5">
<text text-anchor="middle" x="329.22" y="-22.99" font-family="Helvetica,sans-Serif" font-size="10.00" fill="#63b8ff">5</text>
</a>
</g>
</g>
</g>
</svg>
</svg>

<style type='text/css'>
<![CDATA[
[data-mouse-over-selected='false'] { opacity: 0.7; }
[data-mouse-over-selected='true']  { opacity: 1.0; }
]]>
</style>
<script type="application/ecmascript"><![CDATA[
document.addEventListener('DOMContentLoaded', (event) => {
  highlightEdges();
  highlightAdjacentNodes();
});
]]></script>
</svg>
