<?xml version="1.0" encoding="UTF-8" standalone="no"?>
<!DOCTYPE svg PUBLIC "-//W3C//DTD SVG 1.1//EN"
 "http://www.w3.org/Graphics/SVG/1.1/DTD/svg11.dtd">
<!-- Generated by graphviz version 2.43.0 (0)
 -->
<!-- Title: src/Objects/Plugins Pages: 1 -->
<svg width="664pt" height="141pt"
 viewBox="0.00 0.00 663.50 141.00" xmlns="http://www.w3.org/2000/svg" xmlns:xlink="http://www.w3.org/1999/xlink">
<g id="graph0" class="graph" transform="scale(1 1) rotate(0) translate(4 137)">
<title>src/Objects/Plugins</title>
<g id="clust1" class="cluster">
<title>clusterdir_55b41fb77a5097913bc464fb6a145e9c</title>
<g id="a_clust1"><a xlink:href="dir_55b41fb77a5097913bc464fb6a145e9c.html" target="_top" xlink:title="Objects">
<polygon fill="#edf0f7" stroke="#7f7f7f" stroke-dasharray="5,2" points="8,-8 8,-125 424,-125 424,-8 8,-8"/>
<text text-anchor="middle" x="216" y="-113" font-family="Helvetica,sans-Serif" font-size="10.00">Objects</text>
</a>
</g>
</g>
<g id="clust2" class="cluster">
<title>clusterdir_86cf0aee3ebd28cdfb001e081edcf295</title>
<g id="a_clust2"><a xlink:href="dir_86cf0aee3ebd28cdfb001e081edcf295.html" target="_top">
<polygon fill="#edf0f7" stroke="#404040" stroke-width="2" points="16,-63 16,-98 416,-98 416,-63 16,-63"/>
</a>
</g>
</g>
<!-- dir_7f2e168896bc22155d1dd7adee44c1a1 -->
<g id="node1" class="node">
<title>dir_7f2e168896bc22155d1dd7adee44c1a1</title>
<g id="a_node1"><a xlink:href="dir_7f2e168896bc22155d1dd7adee44c1a1.html" target="_top" xlink:title="Abstracts">
<polygon fill="#a2b4d6" stroke="red" points="256,-35 194,-35 194,-16 256,-16 256,-35"/>
<text text-anchor="middle" x="225" y="-23" font-family="Helvetica,sans-Serif" font-size="10.00">Abstracts</text>
</a>
</g>
</g>
<!-- dir_86cf0aee3ebd28cdfb001e081edcf295 -->
<g id="node2" class="node">
<title>dir_86cf0aee3ebd28cdfb001e081edcf295</title>
<text text-anchor="middle" x="382" y="-78" font-family="Helvetica,sans-Serif" font-size="10.00">Plugins</text>
</g>
<!-- dir_916293032859aa8b094682194383d44e -->
<g id="node3" class="node">
<title>dir_916293032859aa8b094682194383d44e</title>
<g id="a_node3"><a xlink:href="dir_916293032859aa8b094682194383d44e.html" target="_top" xlink:title="Interfaces">
<polygon fill="#a2b4d6" stroke="#404040" points="257.5,-90 192.5,-90 192.5,-71 257.5,-71 257.5,-90"/>
<text text-anchor="middle" x="225" y="-78" font-family="Helvetica,sans-Serif" font-size="10.00">Interfaces</text>
</a>
</g>
</g>
<!-- dir_916293032859aa8b094682194383d44e&#45;&gt;dir_7f2e168896bc22155d1dd7adee44c1a1 -->
<g id="edge3" class="edge">
<title>dir_916293032859aa8b094682194383d44e&#45;&gt;dir_7f2e168896bc22155d1dd7adee44c1a1</title>
<g id="a_edge3"><a xlink:href="dir_000011_000000.html" target="_top">
<path fill="none" stroke="#63b8ff" d="M225,-70.75C225,-63.8 225,-53.85 225,-45.13"/>
<polygon fill="#63b8ff" stroke="#63b8ff" points="228.5,-45.09 225,-35.09 221.5,-45.09 228.5,-45.09"/>
</a>
</g>
<g id="a_edge3&#45;headlabel"><a xlink:href="dir_000011_000000.html" target="_top" xlink:title="1">
<text text-anchor="middle" x="231.34" y="-46.18" font-family="Helvetica,sans-Serif" font-size="10.00" fill="#63b8ff">1</text>
</a>
</g>
</g>
<!-- dir_a7363e98f9e0bdd87618633653859815 -->
<g id="node7" class="node">
<title>dir_a7363e98f9e0bdd87618633653859815</title>
<g id="a_node7"><a xlink:href="dir_a7363e98f9e0bdd87618633653859815.html" target="_top" xlink:title="Utils">
<polygon fill="#edf0f7" stroke="#7f7f7f" points="572.5,-35 533.5,-35 533.5,-16 572.5,-16 572.5,-35"/>
<text text-anchor="middle" x="553" y="-23" font-family="Helvetica,sans-Serif" font-size="10.00">Utils</text>
</a>
</g>
</g>
<!-- dir_916293032859aa8b094682194383d44e&#45;&gt;dir_a7363e98f9e0bdd87618633653859815 -->
<g id="edge2" class="edge">
<title>dir_916293032859aa8b094682194383d44e&#45;&gt;dir_a7363e98f9e0bdd87618633653859815</title>
<g id="a_edge2"><a xlink:href="dir_000011_000029.html" target="_top">
<path fill="none" stroke="#63b8ff" d="M243.89,-70.84C251,-67.92 259.24,-64.91 267,-63 375.83,-36.23 410.06,-56.83 523.14,-35.02"/>
<polygon fill="#63b8ff" stroke="#63b8ff" points="524.11,-38.39 533.23,-33 522.74,-31.53 524.11,-38.39"/>
</a>
</g>
<g id="a_edge2&#45;headlabel"><a xlink:href="dir_000011_000029.html" target="_top" xlink:title="1">
<text text-anchor="middle" x="521.14" y="-39.38" font-family="Helvetica,sans-Serif" font-size="10.00" fill="#63b8ff">1</text>
</a>
</g>
</g>
<!-- dir_49f80dbd7683ed98b39c0cd73917c2a0 -->
<g id="node9" class="node">
<title>dir_49f80dbd7683ed98b39c0cd73917c2a0</title>
<g id="a_node9"><a xlink:href="dir_49f80dbd7683ed98b39c0cd73917c2a0.html" target="_top" xlink:title="SceneSystem">
<polygon fill="#edf0f7" stroke="red" stroke-dasharray="5,2" points="515.5,-35 432.5,-35 432.5,-16 515.5,-16 515.5,-35"/>
<text text-anchor="middle" x="474" y="-23" font-family="Helvetica,sans-Serif" font-size="10.00">SceneSystem</text>
</a>
</g>
</g>
<!-- dir_916293032859aa8b094682194383d44e&#45;&gt;dir_49f80dbd7683ed98b39c0cd73917c2a0 -->
<g id="edge1" class="edge">
<title>dir_916293032859aa8b094682194383d44e&#45;&gt;dir_49f80dbd7683ed98b39c0cd73917c2a0</title>
<g id="a_edge1"><a xlink:href="dir_000011_000025.html" target="_top">
<path fill="none" stroke="#63b8ff" d="M244.38,-70.94C251.4,-68.09 259.46,-65.11 267,-63 333.79,-44.28 354.65,-47.47 422.49,-35.94"/>
<polygon fill="#63b8ff" stroke="#63b8ff" points="423.13,-39.38 432.38,-34.21 421.93,-32.48 423.13,-39.38"/>
</a>
</g>
<g id="a_edge1&#45;headlabel"><a xlink:href="dir_000011_000025.html" target="_top" xlink:title="1">
<text text-anchor="middle" x="420.08" y="-40.3" font-family="Helvetica,sans-Serif" font-size="10.00" fill="#63b8ff">1</text>
</a>
</g>
</g>
<!-- dir_bf122ea29395a452000b198c9744daa8 -->
<g id="node4" class="node">
<title>dir_bf122ea29395a452000b198c9744daa8</title>
<g id="a_node4"><a xlink:href="dir_bf122ea29395a452000b198c9744daa8.html" target="_top" xlink:title="Materials">
<polygon fill="#a2b4d6" stroke="#404040" points="338,-90 276,-90 276,-71 338,-71 338,-90"/>
<text text-anchor="middle" x="307" y="-78" font-family="Helvetica,sans-Serif" font-size="10.00">Materials</text>
</a>
</g>
</g>
<!-- dir_bf122ea29395a452000b198c9744daa8&#45;&gt;dir_a7363e98f9e0bdd87618633653859815 -->
<g id="edge4" class="edge">
<title>dir_bf122ea29395a452000b198c9744daa8&#45;&gt;dir_a7363e98f9e0bdd87618633653859815</title>
<g id="a_edge4"><a xlink:href="dir_000012_000029.html" target="_top">
<path fill="none" stroke="#63b8ff" d="M325.4,-70.85C332.08,-67.99 339.77,-65.03 347,-63 421.09,-42.2 445.07,-52.05 523.38,-35.08"/>
<polygon fill="#63b8ff" stroke="#63b8ff" points="524.22,-38.48 533.21,-32.88 522.68,-31.65 524.22,-38.48"/>
</a>
</g>
<g id="a_edge4&#45;headlabel"><a xlink:href="dir_000012_000029.html" target="_top" xlink:title="1">
<text text-anchor="middle" x="521.33" y="-39.54" font-family="Helvetica,sans-Serif" font-size="10.00" fill="#63b8ff">1</text>
</a>
</g>
</g>
<!-- dir_cae27912e177176a90175eee3a6288a5 -->
<g id="node8" class="node">
<title>dir_cae27912e177176a90175eee3a6288a5</title>
<g id="a_node8"><a xlink:href="dir_cae27912e177176a90175eee3a6288a5.html" target="_top" xlink:title="Geometry">
<polygon fill="#edf0f7" stroke="red" stroke-dasharray="5,2" points="655.5,-35 590.5,-35 590.5,-16 655.5,-16 655.5,-35"/>
<text text-anchor="middle" x="623" y="-23" font-family="Helvetica,sans-Serif" font-size="10.00">Geometry</text>
</a>
</g>
</g>
<!-- dir_bf122ea29395a452000b198c9744daa8&#45;&gt;dir_cae27912e177176a90175eee3a6288a5 -->
<g id="edge5" class="edge">
<title>dir_bf122ea29395a452000b198c9744daa8&#45;&gt;dir_cae27912e177176a90175eee3a6288a5</title>
<g id="a_edge5"><a xlink:href="dir_000012_000009.html" target="_top">
<path fill="none" stroke="#63b8ff" d="M324.96,-70.87C331.73,-67.94 339.59,-64.93 347,-63 445.7,-37.28 476.34,-51.02 580.41,-35.11"/>
<polygon fill="#63b8ff" stroke="#63b8ff" points="581.04,-38.55 590.37,-33.53 579.95,-31.64 581.04,-38.55"/>
</a>
</g>
<g id="a_edge5&#45;headlabel"><a xlink:href="dir_000012_000009.html" target="_top" xlink:title="2">
<text text-anchor="middle" x="577.94" y="-39.42" font-family="Helvetica,sans-Serif" font-size="10.00" fill="#63b8ff">2</text>
</a>
</g>
</g>
<!-- dir_6d482a52dab40bb05a9c9d259552235c -->
<g id="node5" class="node">
<title>dir_6d482a52dab40bb05a9c9d259552235c</title>
<g id="a_node5"><a xlink:href="dir_6d482a52dab40bb05a9c9d259552235c.html" target="_top" xlink:title="Primitives">
<polygon fill="#a2b4d6" stroke="#404040" points="174,-90 108,-90 108,-71 174,-71 174,-90"/>
<text text-anchor="middle" x="141" y="-78" font-family="Helvetica,sans-Serif" font-size="10.00">Primitives</text>
</a>
</g>
</g>
<!-- dir_9897959acd2bee8ef3fc8c08b126fdf9 -->
<g id="node6" class="node">
<title>dir_9897959acd2bee8ef3fc8c08b126fdf9</title>
<g id="a_node6"><a xlink:href="dir_9897959acd2bee8ef3fc8c08b126fdf9.html" target="_top" xlink:title="Renderers">
<polygon fill="#a2b4d6" stroke="#404040" points="90,-90 24,-90 24,-71 90,-71 90,-90"/>
<text text-anchor="middle" x="57" y="-78" font-family="Helvetica,sans-Serif" font-size="10.00">Renderers</text>
</a>
</g>
</g>
</g>
</svg>
