<?xml version="1.0" encoding="UTF-8" standalone="no"?>
<!DOCTYPE svg PUBLIC "-//W3C//DTD SVG 1.1//EN"
 "http://www.w3.org/Graphics/SVG/1.1/DTD/svg11.dtd">
<!-- Generated by graphviz version 2.43.0 (0)
 -->
<!-- Title: src/Objects/Abstracts Pages: 1 -->
<svg width="496pt" height="180pt"
 viewBox="0.00 0.00 495.50 180.00" xmlns="http://www.w3.org/2000/svg" xmlns:xlink="http://www.w3.org/1999/xlink">
<g id="graph0" class="graph" transform="scale(1 1) rotate(0) translate(4 176)">
<title>src/Objects/Abstracts</title>
<g id="clust1" class="cluster">
<title>clusterdir_55b41fb77a5097913bc464fb6a145e9c</title>
<g id="a_clust1"><a xlink:href="dir_55b41fb77a5097913bc464fb6a145e9c.html" target="_top" xlink:title="Objects">
<polygon fill="#edf0f7" stroke="#7f7f7f" stroke-dasharray="5,2" points="8,-39 8,-164 274,-164 274,-39 8,-39"/>
<text text-anchor="middle" x="141" y="-152" font-family="Helvetica,sans-Serif" font-size="10.00">Objects</text>
</a>
</g>
</g>
<g id="clust2" class="cluster">
<title>clusterdir_7f2e168896bc22155d1dd7adee44c1a1</title>
<g id="a_clust2"><a xlink:href="dir_7f2e168896bc22155d1dd7adee44c1a1.html" target="_top">
<polygon fill="#edf0f7" stroke="#404040" stroke-width="2" points="16,-47 16,-137 266,-137 266,-47 16,-47"/>
</a>
</g>
</g>
<!-- dir_7f2e168896bc22155d1dd7adee44c1a1 -->
<g id="node1" class="node">
<title>dir_7f2e168896bc22155d1dd7adee44c1a1</title>
<text text-anchor="middle" x="227" y="-117" font-family="Helvetica,sans-Serif" font-size="10.00">Abstracts</text>
</g>
<!-- dir_49f80dbd7683ed98b39c0cd73917c2a0 -->
<g id="node5" class="node">
<title>dir_49f80dbd7683ed98b39c0cd73917c2a0</title>
<g id="a_node5"><a xlink:href="dir_49f80dbd7683ed98b39c0cd73917c2a0.html" target="_top" xlink:title="SceneSystem">
<polygon fill="#edf0f7" stroke="red" stroke-dasharray="5,2" points="365.5,-74 282.5,-74 282.5,-55 365.5,-55 365.5,-74"/>
<text text-anchor="middle" x="324" y="-62" font-family="Helvetica,sans-Serif" font-size="10.00">SceneSystem</text>
</a>
</g>
</g>
<!-- dir_7f2e168896bc22155d1dd7adee44c1a1&#45;&gt;dir_49f80dbd7683ed98b39c0cd73917c2a0 -->
<g id="edge1" class="edge">
<title>dir_7f2e168896bc22155d1dd7adee44c1a1&#45;&gt;dir_49f80dbd7683ed98b39c0cd73917c2a0</title>
<g id="a_edge1"><a xlink:href="dir_000000_000024.html" target="_top">
<path fill="none" stroke="#63b8ff" d="M242.58,-109.98C257.77,-101.69 281.1,-88.94 298.9,-79.22"/>
<polygon fill="#63b8ff" stroke="#63b8ff" points="301.03,-82.04 308.13,-74.17 297.68,-75.89 301.03,-82.04"/>
</a>
</g>
<g id="a_edge1&#45;headlabel"><a xlink:href="dir_000000_000024.html" target="_top" xlink:title="1">
<text text-anchor="middle" x="299.24" y="-83.75" font-family="Helvetica,sans-Serif" font-size="10.00" fill="#63b8ff">1</text>
</a>
</g>
</g>
<!-- dir_a7363e98f9e0bdd87618633653859815 -->
<g id="node6" class="node">
<title>dir_a7363e98f9e0bdd87618633653859815</title>
<g id="a_node6"><a xlink:href="dir_a7363e98f9e0bdd87618633653859815.html" target="_top" xlink:title="Utils">
<polygon fill="#edf0f7" stroke="#7f7f7f" points="328.5,-19 289.5,-19 289.5,0 328.5,0 328.5,-19"/>
<text text-anchor="middle" x="309" y="-7" font-family="Helvetica,sans-Serif" font-size="10.00">Utils</text>
</a>
</g>
</g>
<!-- dir_7f2e168896bc22155d1dd7adee44c1a1&#45;&gt;dir_a7363e98f9e0bdd87618633653859815 -->
<g id="edge2" class="edge">
<title>dir_7f2e168896bc22155d1dd7adee44c1a1&#45;&gt;dir_a7363e98f9e0bdd87618633653859815</title>
<g id="a_edge2"><a xlink:href="dir_000000_000028.html" target="_top">
<path fill="none" stroke="#63b8ff" d="M258.22,-119.15C293.1,-117.99 348.18,-110.06 375,-74 384.28,-61.52 383.55,-52 375,-39 366.86,-26.62 352.07,-19.59 338.56,-15.61"/>
<polygon fill="#63b8ff" stroke="#63b8ff" points="339.15,-12.15 328.6,-13.13 337.45,-18.95 339.15,-12.15"/>
</a>
</g>
<g id="a_edge2&#45;headlabel"><a xlink:href="dir_000000_000028.html" target="_top" xlink:title="3">
<text text-anchor="middle" x="343.32" y="-7.77" font-family="Helvetica,sans-Serif" font-size="10.00" fill="#63b8ff">3</text>
</a>
</g>
</g>
<!-- dir_cae27912e177176a90175eee3a6288a5 -->
<g id="node7" class="node">
<title>dir_cae27912e177176a90175eee3a6288a5</title>
<g id="a_node7"><a xlink:href="dir_cae27912e177176a90175eee3a6288a5.html" target="_top" xlink:title="Geometry">
<polygon fill="#edf0f7" stroke="red" stroke-dasharray="5,2" points="487.5,-74 422.5,-74 422.5,-55 487.5,-55 487.5,-74"/>
<text text-anchor="middle" x="455" y="-62" font-family="Helvetica,sans-Serif" font-size="10.00">Geometry</text>
</a>
</g>
</g>
<!-- dir_7f2e168896bc22155d1dd7adee44c1a1&#45;&gt;dir_cae27912e177176a90175eee3a6288a5 -->
<g id="edge3" class="edge">
<title>dir_7f2e168896bc22155d1dd7adee44c1a1&#45;&gt;dir_cae27912e177176a90175eee3a6288a5</title>
<g id="a_edge3"><a xlink:href="dir_000000_000009.html" target="_top">
<path fill="none" stroke="#63b8ff" d="M258.22,-111.24C298.17,-101.96 367.52,-85.84 412.32,-75.42"/>
<polygon fill="#63b8ff" stroke="#63b8ff" points="413.36,-78.77 422.31,-73.1 411.78,-71.95 413.36,-78.77"/>
</a>
</g>
<g id="a_edge3&#45;headlabel"><a xlink:href="dir_000000_000009.html" target="_top" xlink:title="2">
<text text-anchor="middle" x="410.51" y="-79.85" font-family="Helvetica,sans-Serif" font-size="10.00" fill="#63b8ff">2</text>
</a>
</g>
</g>
<!-- dir_8191da59a86a0171f81cc89dfc74e538 -->
<g id="node2" class="node">
<title>dir_8191da59a86a0171f81cc89dfc74e538</title>
<g id="a_node2"><a xlink:href="dir_8191da59a86a0171f81cc89dfc74e538.html" target="_top" xlink:title="AInterface">
<polygon fill="#a2b4d6" stroke="#404040" points="177.5,-129 110.5,-129 110.5,-110 177.5,-110 177.5,-129"/>
<text text-anchor="middle" x="144" y="-117" font-family="Helvetica,sans-Serif" font-size="10.00">AInterface</text>
</a>
</g>
</g>
<!-- dir_4be8bbbeedc4eae9ceabbe6bf6abf4c3 -->
<g id="node4" class="node">
<title>dir_4be8bbbeedc4eae9ceabbe6bf6abf4c3</title>
<g id="a_node4"><a xlink:href="dir_4be8bbbeedc4eae9ceabbe6bf6abf4c3.html" target="_top" xlink:title="ARenderer">
<polygon fill="#a2b4d6" stroke="#404040" points="218,-74 150,-74 150,-55 218,-55 218,-74"/>
<text text-anchor="middle" x="184" y="-62" font-family="Helvetica,sans-Serif" font-size="10.00">ARenderer</text>
</a>
</g>
</g>
<!-- dir_8191da59a86a0171f81cc89dfc74e538&#45;&gt;dir_4be8bbbeedc4eae9ceabbe6bf6abf4c3 -->
<g id="edge4" class="edge">
<title>dir_8191da59a86a0171f81cc89dfc74e538&#45;&gt;dir_4be8bbbeedc4eae9ceabbe6bf6abf4c3</title>
<g id="a_edge4"><a xlink:href="dir_000001_000003.html" target="_top">
<path fill="none" stroke="#63b8ff" d="M150.61,-109.75C156.26,-102.26 164.54,-91.28 171.45,-82.13"/>
<polygon fill="#63b8ff" stroke="#63b8ff" points="174.29,-84.18 177.52,-74.09 168.7,-79.96 174.29,-84.18"/>
</a>
</g>
<g id="a_edge4&#45;headlabel"><a xlink:href="dir_000001_000003.html" target="_top" xlink:title="1">
<text text-anchor="middle" x="174.39" y="-86.26" font-family="Helvetica,sans-Serif" font-size="10.00" fill="#63b8ff">1</text>
</a>
</g>
</g>
<!-- dir_70e5c5bebc3dd8cdb69e9d74d4e90ef3 -->
<g id="node3" class="node">
<title>dir_70e5c5bebc3dd8cdb69e9d74d4e90ef3</title>
<g id="a_node3"><a xlink:href="dir_70e5c5bebc3dd8cdb69e9d74d4e90ef3.html" target="_top" xlink:title="APrimitive">
<polygon fill="#a2b4d6" stroke="#404040" points="92,-129 24,-129 24,-110 92,-110 92,-129"/>
<text text-anchor="middle" x="58" y="-117" font-family="Helvetica,sans-Serif" font-size="10.00">APrimitive</text>
</a>
</g>
</g>
<!-- dir_4be8bbbeedc4eae9ceabbe6bf6abf4c3&#45;&gt;dir_a7363e98f9e0bdd87618633653859815 -->
<g id="edge5" class="edge">
<title>dir_4be8bbbeedc4eae9ceabbe6bf6abf4c3&#45;&gt;dir_a7363e98f9e0bdd87618633653859815</title>
<g id="a_edge5"><a xlink:href="dir_000003_000028.html" target="_top">
<path fill="none" stroke="#63b8ff" d="M204.08,-54.98C224.61,-46.28 256.71,-32.67 280,-22.8"/>
<polygon fill="#63b8ff" stroke="#63b8ff" points="281.54,-25.95 289.38,-18.82 278.81,-19.5 281.54,-25.95"/>
</a>
</g>
<g id="a_edge5&#45;headlabel"><a xlink:href="dir_000003_000028.html" target="_top" xlink:title="1">
<text text-anchor="middle" x="279.34" y="-27.46" font-family="Helvetica,sans-Serif" font-size="10.00" fill="#63b8ff">1</text>
</a>
</g>
</g>
</g>
</svg>
