<?xml version="1.0" encoding="UTF-8" standalone="no"?>
<!DOCTYPE svg PUBLIC "-//W3C//DTD SVG 1.1//EN"
 "http://www.w3.org/Graphics/SVG/1.1/DTD/svg11.dtd">
<!-- Generated by graphviz version 2.43.0 (0)
 -->
<!-- Title: src/Objects/Plugins Pages: 1 -->
<!--zoomable 141 -->

<svg id="main" version="1.1" xmlns="http://www.w3.org/2000/svg" xmlns:xlink="http://www.w3.org/1999/xlink" xml:space="preserve" onload="init(evt)">
<style type="text/css"><![CDATA[
.node, .edge {opacity: 0.7;}
.node.selected, .edge.selected {opacity: 1;}
.edge:hover path { stroke: red; }
.edge:hover polygon { stroke: red; fill: red; }
]]></style>

<defs>
  <circle id="rim" cx="0" cy="0" r="7"/>
  <circle id="rim2" cx="0" cy="0" r="3.5"/>
  <g id="zoomPlus">
    <use xlink:href="#rim" fill="#404040"><set attributeName="fill" to="#808080" begin="zoomplus.mouseover" end="zoomplus.mouseout"/></use>
    <path d="M-4,0h8M0,-4v8" fill="none" stroke="white" stroke-width="1.5" pointer-events="none"/>
  </g>
  <g id="zoomMin">
    <use xlink:href="#rim" fill="#404040"><set attributeName="fill" to="#808080" begin="zoomminus.mouseover" end="zoomminus.mouseout"/></use>
    <path d="M-4,0h8" fill="none" stroke="white" stroke-width="1.5" pointer-events="none"/>
  </g>
  <g id="arrowUp" transform="translate(30 24)">
    <use xlink:href="#rim"/>
    <path pointer-events="none" fill="none" stroke="white" stroke-width="1.5" d="M0,-3.0v7 M-2.5,-0.5L0,-3.0L2.5,-0.5"/>
  </g>
  <g id="arrowRight" transform="rotate(90) translate(36 -43)">
    <use xlink:href="#rim"/>
    <path pointer-events="none" fill="none" stroke="white" stroke-width="1.5" d="M0,-3.0v7 M-2.5,-0.5L0,-3.0L2.5,-0.5"/>
  </g>
  <g id="arrowDown" transform="rotate(180) translate(-30 -48)">
    <use xlink:href="#rim"/>
    <path pointer-events="none" fill="none" stroke="white" stroke-width="1.5" d="M0,-3.0v7 M-2.5,-0.5L0,-3.0L2.5,-0.5"/>
  </g>
  <g id="arrowLeft" transform="rotate(270) translate(-36 17)">
    <use xlink:href="#rim"/>
    <path pointer-events="none" fill="none" stroke="white" stroke-width="1.5" d="M0,-3.0v7 M-2.5,-0.5L0,-3.0L2.5,-0.5"/>
  </g>
  <g id="resetDef">
    <use xlink:href="#rim2" fill="#404040"><set attributeName="fill" to="#808080" begin="reset.mouseover" end="reset.mouseout"/></use>
  </g>
</defs>
<script type="application/ecmascript">
var viewWidth = 533;
var viewHeight = 141;
var sectionId = 'dynsection-0';
</script>
<script type="application/ecmascript" xlink:href="svg.min.js"/>
<svg id="graph" class="graph">
<g id="viewport">
<title>src/Objects/Plugins</title>
<g id="clust1" class="cluster">
<title>clusterdir_55b41fb77a5097913bc464fb6a145e9c</title>
<g id="a_clust1"><a xlink:href="dir_55b41fb77a5097913bc464fb6a145e9c.html" target="_top" xlink:title="Scene objects, primitives and materials.">
<polygon fill="#edf0f7" stroke="#7f7f7f" stroke-dasharray="5,2" points="8,-8 8,-125 293,-125 293,-8 8,-8"/>
<text text-anchor="middle" x="150.5" y="-113" font-family="Helvetica,sans-Serif" font-size="10.00">Objects</text>
</a>
</g>
</g>
<g id="clust2" class="cluster">
<title>clusterdir_86cf0aee3ebd28cdfb001e081edcf295</title>
<g id="a_clust2"><a xlink:href="dir_86cf0aee3ebd28cdfb001e081edcf295.html" target="_top" xlink:title="Plugin modules and their implementations.">
<polygon fill="#edf0f7" stroke="#404040" stroke-width="2" points="16,-63 16,-98 285,-98 285,-63 16,-63"/>
</a>
</g>
</g>
<!-- dir_7f2e168896bc22155d1dd7adee44c1a1 -->
<g id="node1" class="node">
<title>dir_7f2e168896bc22155d1dd7adee44c1a1</title>
<g id="a_node1"><a xlink:href="dir_7f2e168896bc22155d1dd7adee44c1a1.html" target="_top" xlink:title="Abstract base classes and plugin&#45;facing interfaces.">
<polygon fill="#a2b4d6" stroke="red" points="90,-35 28,-35 28,-16 90,-16 90,-35"/>
<text text-anchor="middle" x="59" y="-23" font-family="Helvetica,sans-Serif" font-size="10.00">Abstracts</text>
</a>
</g>
</g>
<!-- dir_86cf0aee3ebd28cdfb001e081edcf295 -->
<g id="node2" class="node">
<title>dir_86cf0aee3ebd28cdfb001e081edcf295</title>
<text text-anchor="middle" x="251" y="-78" font-family="Helvetica,sans-Serif" font-size="10.00">Plugins</text>
</g>
<!-- dir_bcb78dd210b4a6eed89bcede11e18332 -->
<g id="node3" class="node">
<title>dir_bcb78dd210b4a6eed89bcede11e18332</title>
<g id="a_node3"><a xlink:href="dir_bcb78dd210b4a6eed89bcede11e18332.html" target="_top" xlink:title="Built&#45;in plugin providing the camera renderer and core initializers.">
<polygon fill="#a2b4d6" stroke="#404040" points="93.5,-90 24.5,-90 24.5,-71 93.5,-71 93.5,-90"/>
<text text-anchor="middle" x="59" y="-78" font-family="Helvetica,sans-Serif" font-size="10.00">CorePlugin</text>
</a>
</g>
</g>
<!-- dir_bcb78dd210b4a6eed89bcede11e18332&#45;&gt;dir_7f2e168896bc22155d1dd7adee44c1a1 -->
<g id="edge2" class="edge">
<title>dir_bcb78dd210b4a6eed89bcede11e18332&#45;&gt;dir_7f2e168896bc22155d1dd7adee44c1a1</title>
<g id="a_edge2"><a xlink:href="dir_000010_000001.html" target="_top">
<path fill="none" stroke="#63b8ff" d="M59,-70.75C59,-63.8 59,-53.85 59,-45.13"/>
<polygon fill="#63b8ff" stroke="#63b8ff" points="62.5,-45.09 59,-35.09 55.5,-45.09 62.5,-45.09"/>
</a>
</g>
<g id="a_edge2&#45;headlabel"><a xlink:href="dir_000010_000001.html" target="_top" xlink:title="15">
<text text-anchor="middle" x="65.34" y="-46.18" font-family="Helvetica,sans-Serif" font-size="10.00" fill="#63b8ff">15</text>
</a>
</g>
</g>
<!-- dir_49f80dbd7683ed98b39c0cd73917c2a0 -->
<g id="node5" class="node">
<title>dir_49f80dbd7683ed98b39c0cd73917c2a0</title>
<g id="a_node5"><a xlink:href="dir_49f80dbd7683ed98b39c0cd73917c2a0.html" target="_top" xlink:title="Scene orchestration, loading and BVH preparation.">
<polygon fill="#edf0f7" stroke="red" stroke-dasharray="5,2" points="467.5,-35 384.5,-35 384.5,-16 467.5,-16 467.5,-35"/>
<text text-anchor="middle" x="426" y="-23" font-family="Helvetica,sans-Serif" font-size="10.00">SceneSystem</text>
</a>
</g>
</g>
<!-- dir_bcb78dd210b4a6eed89bcede11e18332&#45;&gt;dir_49f80dbd7683ed98b39c0cd73917c2a0 -->
<g id="edge1" class="edge">
<title>dir_bcb78dd210b4a6eed89bcede11e18332&#45;&gt;dir_49f80dbd7683ed98b39c0cd73917c2a0</title>
<g id="a_edge1"><a xlink:href="dir_000010_000043.html" target="_top">
<path fill="none" stroke="#63b8ff" d="M77.92,-71C85.3,-68.01 93.91,-64.93 102,-63 217.93,-35.35 252.87,-50.63 374.24,-35.13"/>
<polygon fill="#63b8ff" stroke="#63b8ff" points="374.83,-38.58 384.29,-33.8 373.92,-31.64 374.83,-38.58"/>
</a>
</g>
<g id="a_edge1&#45;headlabel"><a xlink:href="dir_000010_000043.html" target="_top" xlink:title="3">
<text text-anchor="middle" x="371.64" y="-39.37" font-family="Helvetica,sans-Serif" font-size="10.00" fill="#63b8ff">3</text>
</a>
</g>
</g>
<!-- dir_a7363e98f9e0bdd87618633653859815 -->
<g id="node6" class="node">
<title>dir_a7363e98f9e0bdd87618633653859815</title>
<g id="a_node6"><a xlink:href="dir_a7363e98f9e0bdd87618633653859815.html" target="_top" xlink:title="Utility helpers used across the project.">
<polygon fill="#edf0f7" stroke="#7f7f7f" points="524.5,-35 485.5,-35 485.5,-16 524.5,-16 524.5,-35"/>
<text text-anchor="middle" x="505" y="-23" font-family="Helvetica,sans-Serif" font-size="10.00">Utils</text>
</a>
</g>
</g>
<!-- dir_bcb78dd210b4a6eed89bcede11e18332&#45;&gt;dir_a7363e98f9e0bdd87618633653859815 -->
<g id="edge3" class="edge">
<title>dir_bcb78dd210b4a6eed89bcede11e18332&#45;&gt;dir_a7363e98f9e0bdd87618633653859815</title>
<g id="a_edge3"><a xlink:href="dir_000010_000048.html" target="_top">
<path fill="none" stroke="#63b8ff" d="M77.89,-70.88C85.27,-67.88 93.89,-64.82 102,-63 261.9,-27.17 310.81,-64.18 475.28,-34.91"/>
<polygon fill="#63b8ff" stroke="#63b8ff" points="476.04,-38.33 485.25,-33.08 474.78,-31.45 476.04,-38.33"/>
</a>
</g>
<g id="a_edge3&#45;headlabel"><a xlink:href="dir_000010_000048.html" target="_top" xlink:title="4">
<text text-anchor="middle" x="473.02" y="-39.27" font-family="Helvetica,sans-Serif" font-size="10.00" fill="#63b8ff">4</text>
</a>
</g>
</g>
<!-- dir_cae27912e177176a90175eee3a6288a5 -->
<g id="node7" class="node">
<title>dir_cae27912e177176a90175eee3a6288a5</title>
<g id="a_node7"><a xlink:href="dir_cae27912e177176a90175eee3a6288a5.html" target="_top" xlink:title="Geometry primitives, vectors and math utilities.">
<polygon fill="#edf0f7" stroke="red" stroke-dasharray="5,2" points="366.5,-35 301.5,-35 301.5,-16 366.5,-16 366.5,-35"/>
<text text-anchor="middle" x="334" y="-23" font-family="Helvetica,sans-Serif" font-size="10.00">Geometry</text>
</a>
</g>
</g>
<!-- dir_bcb78dd210b4a6eed89bcede11e18332&#45;&gt;dir_cae27912e177176a90175eee3a6288a5 -->
<g id="edge4" class="edge">
<title>dir_bcb78dd210b4a6eed89bcede11e18332&#45;&gt;dir_cae27912e177176a90175eee3a6288a5</title>
<g id="a_edge4"><a xlink:href="dir_000010_000016.html" target="_top">
<path fill="none" stroke="#63b8ff" d="M78.82,-70.83C86.01,-67.97 94.26,-65.01 102,-63 183.51,-41.8 209,-50.32 291.3,-35.97"/>
<polygon fill="#63b8ff" stroke="#63b8ff" points="292.13,-39.38 301.35,-34.16 290.88,-32.49 292.13,-39.38"/>
</a>
</g>
<g id="a_edge4&#45;headlabel"><a xlink:href="dir_000010_000016.html" target="_top" xlink:title="11">
<text text-anchor="middle" x="289.09" y="-40.31" font-family="Helvetica,sans-Serif" font-size="10.00" fill="#63b8ff">11</text>
</a>
</g>
</g>
<!-- dir_a59d98741bd4255aa4724bdc86d0f6a0 -->
<g id="node4" class="node">
<title>dir_a59d98741bd4255aa4724bdc86d0f6a0</title>
<g id="a_node4"><a xlink:href="dir_a59d98741bd4255aa4724bdc86d0f6a0.html" target="_top" xlink:title="LivescenePlugin">
<polygon fill="#a2b4d6" stroke="#404040" points="206.5,-90 111.5,-90 111.5,-71 206.5,-71 206.5,-90"/>
<text text-anchor="middle" x="159" y="-78" font-family="Helvetica,sans-Serif" font-size="10.00">LivescenePlugin</text>
</a>
</g>
</g>
<!-- dir_a59d98741bd4255aa4724bdc86d0f6a0&#45;&gt;dir_49f80dbd7683ed98b39c0cd73917c2a0 -->
<g id="edge5" class="edge">
<title>dir_a59d98741bd4255aa4724bdc86d0f6a0&#45;&gt;dir_49f80dbd7683ed98b39c0cd73917c2a0</title>
<g id="a_edge5"><a xlink:href="dir_000024_000043.html" target="_top">
<path fill="none" stroke="#63b8ff" d="M186.09,-71C195.5,-68.22 206.16,-65.27 216,-63 223.69,-61.22 314.42,-45.6 374.08,-35.38"/>
<polygon fill="#63b8ff" stroke="#63b8ff" points="374.83,-38.8 384.1,-33.66 373.65,-31.9 374.83,-38.8"/>
</a>
</g>
<g id="a_edge5&#45;headlabel"><a xlink:href="dir_000024_000043.html" target="_top" xlink:title="1">
<text text-anchor="middle" x="371.77" y="-39.7" font-family="Helvetica,sans-Serif" font-size="10.00" fill="#63b8ff">1</text>
</a>
</g>
</g>
<!-- dir_a59d98741bd4255aa4724bdc86d0f6a0&#45;&gt;dir_a7363e98f9e0bdd87618633653859815 -->
<g id="edge6" class="edge">
<title>dir_a59d98741bd4255aa4724bdc86d0f6a0&#45;&gt;dir_a7363e98f9e0bdd87618633653859815</title>
<g id="a_edge6"><a xlink:href="dir_000024_000048.html" target="_top">
<path fill="none" stroke="#63b8ff" d="M184.87,-70.97C194.55,-68.06 205.69,-65.03 216,-63 327.34,-41.09 360.86,-57.33 475.38,-34.98"/>
<polygon fill="#63b8ff" stroke="#63b8ff" points="476.12,-38.4 485.23,-33 474.74,-31.54 476.12,-38.4"/>
</a>
</g>
<g id="a_edge6&#45;headlabel"><a xlink:href="dir_000024_000048.html" target="_top" xlink:title="1">
<text text-anchor="middle" x="473.15" y="-39.39" font-family="Helvetica,sans-Serif" font-size="10.00" fill="#63b8ff">1</text>
</a>
</g>
</g>
</g>
</svg>

<g id="navigator" transform="translate(0 0)" fill="#404254">
  <rect fill="#f2f5e9" fill-opacity="0.5" stroke="#606060" stroke-width=".5" x="0" y="0" width="60" height="60"/>
  <use id="zoomplus" xlink:href="#zoomPlus" x="17" y="9" onmousedown="handleZoom(evt,'in')"/>
  <use id="zoomminus" xlink:href="#zoomMin" x="42" y="9" onmousedown="handleZoom(evt,'out')"/>
  <use id="reset" xlink:href="#resetDef" x="30" y="36" onmousedown="handleReset()"/>
   <use id="arrowup" xlink:href="#arrowUp" x="0" y="0" onmousedown="handlePan(0,-1)"/>
  <use id="arrowright" xlink:href="#arrowRight" x="0" y="0" onmousedown="handlePan(1,0)"/>
  <use id="arrowdown" xlink:href="#arrowDown" x="0" y="0" onmousedown="handlePan(0,1)"/>
  <use id="arrowleft" xlink:href="#arrowLeft" x="0" y="0" onmousedown="handlePan(-1,0)"/>
</g>
<svg viewBox="0 0 15 15" width="100%" height="30px" preserveAspectRatio="xMaxYMin meet">
 <g id="arrow_out" transform="scale(0.3 0.3)">
  <a xlink:href="dir_86cf0aee3ebd28cdfb001e081edcf295_dep_org.svg" target="_base">
   <rect id="button" ry="5" rx="5" y="6" x="6" height="38" width="38"
        fill="#f2f5e9" fill-opacity="0.5" stroke="#606060" stroke-width="1.0"/>
   <path id="arrow"
     d="M 11.500037,31.436501 C 11.940474,20.09759 22.043105,11.32322 32.158766,21.979434 L 37.068811,17.246167 C 37.068811,17.246167 37.088388,32 37.088388,32 L 22.160133,31.978069 C 22.160133,31.978069 26.997745,27.140456 26.997745,27.140456 C 18.528582,18.264221 13.291696,25.230495 11.500037,31.436501 z"
     style="fill:#404040;"/>
  </a>
 </g>
</svg>

<style type='text/css'>
<![CDATA[
[data-mouse-over-selected='false'] { opacity: 0.7; }
[data-mouse-over-selected='true']  { opacity: 1.0; }
]]>
</style>
<script type="application/ecmascript"><![CDATA[
document.addEventListener('DOMContentLoaded', (event) => {
  highlightEdges();
  highlightAdjacentNodes();
});
]]></script>
</svg>
