<?xml version="1.0" encoding="UTF-8" standalone="no"?>
<!DOCTYPE svg PUBLIC "-//W3C//DTD SVG 1.1//EN"
 "http://www.w3.org/Graphics/SVG/1.1/DTD/svg11.dtd">
<!-- Generated by graphviz version 2.43.0 (0)
 -->
<!-- Title: src/Objects/Plugins/CorePlugin/Lights/DirectionalLight/DirectionalLight.cpp Pages: 1 -->
<!--zoomable 478 -->

<svg id="main" version="1.1" xmlns="http://www.w3.org/2000/svg" xmlns:xlink="http://www.w3.org/1999/xlink" xml:space="preserve" onload="init(evt)">
<style type="text/css"><![CDATA[
.node, .edge {opacity: 0.7;}
.node.selected, .edge.selected {opacity: 1;}
.edge:hover path { stroke: red; }
.edge:hover polygon { stroke: red; fill: red; }
]]></style>

<defs>
  <circle id="rim" cx="0" cy="0" r="7"/>
  <circle id="rim2" cx="0" cy="0" r="3.5"/>
  <g id="zoomPlus">
    <use xlink:href="#rim" fill="#404040"><set attributeName="fill" to="#808080" begin="zoomplus.mouseover" end="zoomplus.mouseout"/></use>
    <path d="M-4,0h8M0,-4v8" fill="none" stroke="white" stroke-width="1.5" pointer-events="none"/>
  </g>
  <g id="zoomMin">
    <use xlink:href="#rim" fill="#404040"><set attributeName="fill" to="#808080" begin="zoomminus.mouseover" end="zoomminus.mouseout"/></use>
    <path d="M-4,0h8" fill="none" stroke="white" stroke-width="1.5" pointer-events="none"/>
  </g>
  <g id="arrowUp" transform="translate(30 24)">
    <use xlink:href="#rim"/>
    <path pointer-events="none" fill="none" stroke="white" stroke-width="1.5" d="M0,-3.0v7 M-2.5,-0.5L0,-3.0L2.5,-0.5"/>
  </g>
  <g id="arrowRight" transform="rotate(90) translate(36 -43)">
    <use xlink:href="#rim"/>
    <path pointer-events="none" fill="none" stroke="white" stroke-width="1.5" d="M0,-3.0v7 M-2.5,-0.5L0,-3.0L2.5,-0.5"/>
  </g>
  <g id="arrowDown" transform="rotate(180) translate(-30 -48)">
    <use xlink:href="#rim"/>
    <path pointer-events="none" fill="none" stroke="white" stroke-width="1.5" d="M0,-3.0v7 M-2.5,-0.5L0,-3.0L2.5,-0.5"/>
  </g>
  <g id="arrowLeft" transform="rotate(270) translate(-36 17)">
    <use xlink:href="#rim"/>
    <path pointer-events="none" fill="none" stroke="white" stroke-width="1.5" d="M0,-3.0v7 M-2.5,-0.5L0,-3.0L2.5,-0.5"/>
  </g>
  <g id="resetDef">
    <use xlink:href="#rim2" fill="#404040"><set attributeName="fill" to="#808080" begin="reset.mouseover" end="reset.mouseout"/></use>
  </g>
</defs>
<script type="application/ecmascript">
var viewWidth = 535;
var viewHeight = 478;
var sectionId = 'dynsection-0';
</script>
<script type="application/ecmascript" xlink:href="svg.min.js"/>
<svg id="graph" class="graph">
<g id="viewport">
<title>src/Objects/Plugins/CorePlugin/Lights/DirectionalLight/DirectionalLight.cpp</title>
<!-- Node1 -->
<g id="Node000001" class="node">
<title>Node1</title>
<g id="a_Node000001"><a xlink:title=" ">
<polygon fill="#999999" stroke="#666666" points="311.87,-470 150.87,-470 150.87,-429 311.87,-429 311.87,-470"/>
<text text-anchor="start" x="158.87" y="-458" font-family="Helvetica,sans-Serif" font-size="10.00">src/Objects/Plugins</text>
<text text-anchor="start" x="158.87" y="-447" font-family="Helvetica,sans-Serif" font-size="10.00">/CorePlugin/Lights/Directional</text>
<text text-anchor="middle" x="231.37" y="-436" font-family="Helvetica,sans-Serif" font-size="10.00">Light/DirectionalLight.cpp</text>
</a>
</g>
</g>
<!-- Node2 -->
<g id="Node000002" class="node">
<title>Node2</title>
<g id="a_Node000002"><a xlink:href="DirectionalLight_8hpp.html" target="_top" xlink:title=" ">
<polygon fill="white" stroke="#666666" points="288.87,-382 173.87,-382 173.87,-363 288.87,-363 288.87,-382"/>
<text text-anchor="middle" x="231.37" y="-370" font-family="Helvetica,sans-Serif" font-size="10.00">DirectionalLight.hpp</text>
</a>
</g>
</g>
<!-- Node1&#45;&gt;Node2 -->
<g id="edge1_Node000001_Node000002" class="edge">
<title>Node1&#45;&gt;Node2</title>
<g id="a_edge1_Node000001_Node000002"><a xlink:title=" ">
<path fill="none" stroke="#63b8ff" d="M231.37,-428.79C231.37,-417.59 231.37,-403.61 231.37,-392.52"/>
<polygon fill="#63b8ff" stroke="#63b8ff" points="234.87,-392.24 231.37,-382.24 227.87,-392.24 234.87,-392.24"/>
</a>
</g>
</g>
<!-- Node4 -->
<g id="Node000004" class="node">
<title>Node4</title>
<g id="a_Node000004"><a xlink:href="HitRecord_8hpp.html" target="_top" xlink:title=" ">
<polygon fill="white" stroke="#666666" points="212.37,-195 78.37,-195 78.37,-165 212.37,-165 212.37,-195"/>
<text text-anchor="start" x="86.37" y="-183" font-family="Helvetica,sans-Serif" font-size="10.00">../../Geometry/HitRecord</text>
<text text-anchor="middle" x="145.37" y="-172" font-family="Helvetica,sans-Serif" font-size="10.00">/HitRecord.hpp</text>
</a>
</g>
</g>
<!-- Node1&#45;&gt;Node4 -->
<g id="edge15_Node000001_Node000004" class="edge">
<title>Node1&#45;&gt;Node4</title>
<g id="a_edge15_Node000001_Node000004"><a xlink:title=" ">
<path fill="none" stroke="#63b8ff" d="M198.58,-428.91C186.04,-419.66 172.95,-407.45 165.37,-393 133.22,-331.66 137.42,-246.58 141.98,-205.34"/>
<polygon fill="#63b8ff" stroke="#63b8ff" points="145.48,-205.51 143.22,-195.16 138.54,-204.66 145.48,-205.51"/>
</a>
</g>
</g>
<!-- Node9 -->
<g id="Node000009" class="node">
<title>Node9</title>
<g id="a_Node000009"><a xlink:title=" ">
<polygon fill="#e0e0e0" stroke="#999999" points="437.37,-129 373.37,-129 373.37,-110 437.37,-110 437.37,-129"/>
<text text-anchor="middle" x="405.37" y="-117" font-family="Helvetica,sans-Serif" font-size="10.00">algorithm</text>
</a>
</g>
</g>
<!-- Node1&#45;&gt;Node9 -->
<g id="edge24_Node000001_Node000009" class="edge">
<title>Node1&#45;&gt;Node9</title>
<g id="a_edge24_Node000001_Node000009"><a xlink:title=" ">
<path fill="none" stroke="#63b8ff" d="M312.26,-443.87C399.9,-433.97 527.37,-403.13 527.37,-307.5 527.37,-307.5 527.37,-307.5 527.37,-245 527.37,-205.25 515.01,-193.58 487.37,-165 474.04,-151.21 455.5,-140.66 439.42,-133.3"/>
<polygon fill="#63b8ff" stroke="#63b8ff" points="440.36,-129.89 429.79,-129.12 437.57,-136.31 440.36,-129.89"/>
</a>
</g>
</g>
<!-- Node12 -->
<g id="Node000012" class="node">
<title>Node12</title>
<g id="a_Node000012"><a xlink:href="Ray_8hpp.html" target="_top" xlink:title=" ">
<polygon fill="white" stroke="#666666" points="111.37,-261 1.37,-261 1.37,-231 111.37,-231 111.37,-261"/>
<text text-anchor="start" x="9.37" y="-249" font-family="Helvetica,sans-Serif" font-size="10.00">../../../../../Geometry</text>
<text text-anchor="middle" x="56.37" y="-238" font-family="Helvetica,sans-Serif" font-size="10.00">/Ray/Ray.hpp</text>
</a>
</g>
</g>
<!-- Node1&#45;&gt;Node12 -->
<g id="edge12_Node000001_Node000012" class="edge">
<title>Node1&#45;&gt;Node12</title>
<g id="a_edge12_Node000001_Node000012"><a xlink:title=" ">
<path fill="none" stroke="#63b8ff" d="M183.18,-428.98C165.31,-420 145.88,-407.98 131.37,-393 96.64,-357.14 74.32,-301.98 63.69,-270.74"/>
<polygon fill="#63b8ff" stroke="#63b8ff" points="66.98,-269.53 60.54,-261.12 60.33,-271.71 66.98,-269.53"/>
</a>
</g>
</g>
<!-- Node13 -->
<g id="Node000013" class="node">
<title>Node13</title>
<g id="a_Node000013"><a xlink:href="APrimitive_8hpp.html" target="_top" xlink:title=" ">
<polygon fill="white" stroke="#666666" points="425.87,-393 306.87,-393 306.87,-352 425.87,-352 425.87,-393"/>
<text text-anchor="start" x="314.87" y="-381" font-family="Helvetica,sans-Serif" font-size="10.00">../../../../../Objects</text>
<text text-anchor="start" x="314.87" y="-370" font-family="Helvetica,sans-Serif" font-size="10.00">/Abstracts/APrimitive</text>
<text text-anchor="middle" x="366.37" y="-359" font-family="Helvetica,sans-Serif" font-size="10.00">/APrimitive.hpp</text>
</a>
</g>
</g>
<!-- Node1&#45;&gt;Node13 -->
<g id="edge16_Node000001_Node000013" class="edge">
<title>Node1&#45;&gt;Node13</title>
<g id="a_edge16_Node000001_Node000013"><a xlink:title=" ">
<path fill="none" stroke="#63b8ff" d="M266.49,-428.99C283.39,-419.6 303.84,-408.24 321.82,-398.25"/>
<polygon fill="#63b8ff" stroke="#63b8ff" points="323.92,-401.09 330.96,-393.17 320.52,-394.97 323.92,-401.09"/>
</a>
</g>
</g>
<!-- Node3 -->
<g id="Node000003" class="node">
<title>Node3</title>
<g id="a_Node000003"><a xlink:href="ILight_8hpp.html" target="_top" xlink:title=" ">
<polygon fill="white" stroke="#666666" points="311.37,-261 195.37,-261 195.37,-231 311.37,-231 311.37,-261"/>
<text text-anchor="start" x="203.37" y="-249" font-family="Helvetica,sans-Serif" font-size="10.00">../../../../../Objects</text>
<text text-anchor="middle" x="253.37" y="-238" font-family="Helvetica,sans-Serif" font-size="10.00">/Abstracts/ILight.hpp</text>
</a>
</g>
</g>
<!-- Node2&#45;&gt;Node3 -->
<g id="edge2_Node000002_Node000003" class="edge">
<title>Node2&#45;&gt;Node3</title>
<g id="a_edge2_Node000002_Node000003"><a xlink:title=" ">
<path fill="none" stroke="#63b8ff" d="M232.89,-362.94C236.19,-344.24 244.16,-299.13 249.13,-271.01"/>
<polygon fill="#63b8ff" stroke="#63b8ff" points="252.58,-271.62 250.87,-261.16 245.69,-270.4 252.58,-271.62"/>
</a>
</g>
</g>
<!-- Node3&#45;&gt;Node4 -->
<g id="edge3_Node000003_Node000004" class="edge">
<title>Node3&#45;&gt;Node4</title>
<g id="a_edge3_Node000003_Node000004"><a xlink:title=" ">
<path fill="none" stroke="#63b8ff" d="M229.67,-230.95C214.48,-221.95 194.56,-210.14 177.89,-200.27"/>
<polygon fill="#63b8ff" stroke="#63b8ff" points="179.41,-197.1 169.02,-195.01 175.84,-203.12 179.41,-197.1"/>
</a>
</g>
</g>
<!-- Node8 -->
<g id="Node000008" class="node">
<title>Node8</title>
<g id="a_Node000008"><a xlink:href="Color_8hpp.html" target="_top" xlink:title=" ">
<polygon fill="white" stroke="#666666" points="336.37,-189.5 230.37,-189.5 230.37,-170.5 336.37,-170.5 336.37,-189.5"/>
<text text-anchor="middle" x="283.37" y="-177.5" font-family="Helvetica,sans-Serif" font-size="10.00">../../Utils/Color.hpp</text>
</a>
</g>
</g>
<!-- Node3&#45;&gt;Node8 -->
<g id="edge8_Node000003_Node000008" class="edge">
<title>Node3&#45;&gt;Node8</title>
<g id="a_edge8_Node000003_Node000008"><a xlink:title=" ">
<path fill="none" stroke="#63b8ff" d="M260.03,-230.8C264.43,-221.41 270.24,-209.02 274.96,-198.95"/>
<polygon fill="#63b8ff" stroke="#63b8ff" points="278.15,-200.38 279.23,-189.84 271.82,-197.41 278.15,-200.38"/>
</a>
</g>
</g>
<!-- Node10 -->
<g id="Node000010" class="node">
<title>Node10</title>
<g id="a_Node000010"><a xlink:title=" ">
<polygon fill="#e0e0e0" stroke="#999999" points="401.87,-189.5 354.87,-189.5 354.87,-170.5 401.87,-170.5 401.87,-189.5"/>
<text text-anchor="middle" x="378.37" y="-177.5" font-family="Helvetica,sans-Serif" font-size="10.00">vector</text>
</a>
</g>
</g>
<!-- Node3&#45;&gt;Node10 -->
<g id="edge10_Node000003_Node000010" class="edge">
<title>Node3&#45;&gt;Node10</title>
<g id="a_edge10_Node000003_Node000010"><a xlink:title=" ">
<path fill="none" stroke="#63b8ff" d="M280.81,-230.95C302.25,-219.98 331.82,-204.83 352.78,-194.11"/>
<polygon fill="#63b8ff" stroke="#63b8ff" points="354.43,-197.19 361.74,-189.52 351.24,-190.96 354.43,-197.19"/>
</a>
</g>
</g>
<!-- Node11 -->
<g id="Node000011" class="node">
<title>Node11</title>
<g id="a_Node000011"><a xlink:title=" ">
<polygon fill="#e0e0e0" stroke="#999999" points="478.37,-189.5 420.37,-189.5 420.37,-170.5 478.37,-170.5 478.37,-189.5"/>
<text text-anchor="middle" x="449.37" y="-177.5" font-family="Helvetica,sans-Serif" font-size="10.00">memory</text>
</a>
</g>
</g>
<!-- Node3&#45;&gt;Node11 -->
<g id="edge11_Node000003_Node000011" class="edge">
<title>Node3&#45;&gt;Node11</title>
<g id="a_edge11_Node000003_Node000011"><a xlink:title=" ">
<path fill="none" stroke="#63b8ff" d="M299.88,-230.91C331.45,-221.19 374.08,-207.76 411.37,-195 413.22,-194.37 415.11,-193.71 417.02,-193.04"/>
<polygon fill="#63b8ff" stroke="#63b8ff" points="418.31,-196.29 426.53,-189.61 415.93,-189.71 418.31,-196.29"/>
</a>
</g>
</g>
<!-- Node5 -->
<g id="Node000005" class="node">
<title>Node5</title>
<g id="a_Node000005"><a xlink:href="Point3D_8hpp.html" target="_top" xlink:title=" ">
<polygon fill="white" stroke="#666666" points="142.37,-129 16.37,-129 16.37,-110 142.37,-110 142.37,-129"/>
<text text-anchor="middle" x="79.37" y="-117" font-family="Helvetica,sans-Serif" font-size="10.00">../Point3D/Point3D.hpp</text>
</a>
</g>
</g>
<!-- Node4&#45;&gt;Node5 -->
<g id="edge4_Node000004_Node000005" class="edge">
<title>Node4&#45;&gt;Node5</title>
<g id="a_edge4_Node000004_Node000005"><a xlink:title=" ">
<path fill="none" stroke="#63b8ff" d="M129.4,-164.84C119.62,-156.17 107.1,-145.08 97.03,-136.15"/>
<polygon fill="#63b8ff" stroke="#63b8ff" points="99.07,-133.28 89.26,-129.27 94.43,-138.52 99.07,-133.28"/>
</a>
</g>
</g>
<!-- Node6 -->
<g id="Node000006" class="node">
<title>Node6</title>
<g id="a_Node000006"><a xlink:href="Vector3D_8hpp.html" target="_top" xlink:title=" ">
<polygon fill="white" stroke="#666666" points="148.37,-74 10.37,-74 10.37,-55 148.37,-55 148.37,-74"/>
<text text-anchor="middle" x="79.37" y="-62" font-family="Helvetica,sans-Serif" font-size="10.00">../Vector3D/Vector3D.hpp</text>
</a>
</g>
</g>
<!-- Node4&#45;&gt;Node6 -->
<g id="edge7_Node000004_Node000006" class="edge">
<title>Node4&#45;&gt;Node6</title>
<g id="a_edge7_Node000004_Node000006"><a xlink:title=" ">
<path fill="none" stroke="#63b8ff" d="M151.04,-164.8C155.94,-150.13 160.86,-127.01 151.37,-110 143.33,-95.58 128.48,-85.24 114.34,-78.18"/>
<polygon fill="#63b8ff" stroke="#63b8ff" points="115.78,-74.99 105.23,-74.01 112.86,-81.36 115.78,-74.99"/>
</a>
</g>
</g>
<!-- Node5&#45;&gt;Node6 -->
<g id="edge5_Node000005_Node000006" class="edge">
<title>Node5&#45;&gt;Node6</title>
<g id="a_edge5_Node000005_Node000006"><a xlink:title=" ">
<path fill="none" stroke="#63b8ff" d="M79.37,-109.75C79.37,-102.8 79.37,-92.85 79.37,-84.13"/>
<polygon fill="#63b8ff" stroke="#63b8ff" points="82.87,-84.09 79.37,-74.09 75.87,-84.09 82.87,-84.09"/>
</a>
</g>
</g>
<!-- Node7 -->
<g id="Node000007" class="node">
<title>Node7</title>
<g id="a_Node000007"><a xlink:title=" ">
<polygon fill="#e0e0e0" stroke="#999999" points="104.87,-19 53.87,-19 53.87,0 104.87,0 104.87,-19"/>
<text text-anchor="middle" x="79.37" y="-7" font-family="Helvetica,sans-Serif" font-size="10.00">math.h</text>
</a>
</g>
</g>
<!-- Node6&#45;&gt;Node7 -->
<g id="edge6_Node000006_Node000007" class="edge">
<title>Node6&#45;&gt;Node7</title>
<g id="a_edge6_Node000006_Node000007"><a xlink:title=" ">
<path fill="none" stroke="#63b8ff" d="M79.37,-54.75C79.37,-47.8 79.37,-37.85 79.37,-29.13"/>
<polygon fill="#63b8ff" stroke="#63b8ff" points="82.87,-29.09 79.37,-19.09 75.87,-29.09 82.87,-29.09"/>
</a>
</g>
</g>
<!-- Node8&#45;&gt;Node9 -->
<g id="edge9_Node000008_Node000009" class="edge">
<title>Node8&#45;&gt;Node9</title>
<g id="a_edge9_Node000008_Node000009"><a xlink:title=" ">
<path fill="none" stroke="#63b8ff" d="M301.11,-170.49C321.44,-160.75 354.98,-144.66 378.52,-133.38"/>
<polygon fill="#63b8ff" stroke="#63b8ff" points="380.11,-136.5 387.61,-129.02 377.08,-130.18 380.11,-136.5"/>
</a>
</g>
</g>
<!-- Node12&#45;&gt;Node5 -->
<g id="edge13_Node000012_Node000005" class="edge">
<title>Node12&#45;&gt;Node5</title>
<g id="a_edge13_Node000012_Node000005"><a xlink:title=" ">
<path fill="none" stroke="#63b8ff" d="M58.42,-230.79C60.79,-214.76 64.94,-187.93 69.37,-165 71.01,-156.55 73.06,-147.24 74.88,-139.34"/>
<polygon fill="#63b8ff" stroke="#63b8ff" points="78.35,-139.87 77.23,-129.33 71.53,-138.27 78.35,-139.87"/>
</a>
</g>
</g>
<!-- Node12&#45;&gt;Node6 -->
<g id="edge14_Node000012_Node000006" class="edge">
<title>Node12&#45;&gt;Node6</title>
<g id="a_edge14_Node000012_Node000006"><a xlink:title=" ">
<path fill="none" stroke="#63b8ff" d="M43.68,-230.96C22.47,-205.7 -15.69,-151.38 7.37,-110 15.42,-95.58 30.27,-85.24 44.41,-78.18"/>
<polygon fill="#63b8ff" stroke="#63b8ff" points="45.89,-81.36 53.52,-74.01 42.97,-74.99 45.89,-81.36"/>
</a>
</g>
</g>
<!-- Node13&#45;&gt;Node11 -->
<g id="edge21_Node000013_Node000011" class="edge">
<title>Node13&#45;&gt;Node11</title>
<g id="a_edge21_Node000013_Node000011"><a xlink:title=" ">
<path fill="none" stroke="#63b8ff" d="M377.8,-351.76C383.67,-341.29 390.75,-328.12 396.37,-316 415.31,-275.24 433.61,-225.69 442.95,-199.42"/>
<polygon fill="#63b8ff" stroke="#63b8ff" points="446.36,-200.28 446.38,-189.68 439.76,-197.95 446.36,-200.28"/>
</a>
</g>
</g>
<!-- Node13&#45;&gt;Node12 -->
<g id="edge23_Node000013_Node000012" class="edge">
<title>Node13&#45;&gt;Node12</title>
<g id="a_edge23_Node000013_Node000012"><a xlink:title=" ">
<path fill="none" stroke="#63b8ff" d="M317.6,-351.91C258.12,-328.02 158.44,-287.99 100.94,-264.9"/>
<polygon fill="#63b8ff" stroke="#63b8ff" points="101.98,-261.55 91.4,-261.07 99.37,-268.04 101.98,-261.55"/>
</a>
</g>
</g>
<!-- Node14 -->
<g id="Node000014" class="node">
<title>Node14</title>
<g id="a_Node000014"><a xlink:href="IMaterial_8hpp.html" target="_top" xlink:title=" ">
<polygon fill="white" stroke="#666666" points="387.37,-316 297.37,-316 297.37,-297 387.37,-297 387.37,-316"/>
<text text-anchor="middle" x="342.37" y="-304" font-family="Helvetica,sans-Serif" font-size="10.00">../IMaterial.hpp</text>
</a>
</g>
</g>
<!-- Node13&#45;&gt;Node14 -->
<g id="edge17_Node000013_Node000014" class="edge">
<title>Node13&#45;&gt;Node14</title>
<g id="a_edge17_Node000013_Node000014"><a xlink:title=" ">
<path fill="none" stroke="#63b8ff" d="M359.04,-351.95C355.9,-343.58 352.26,-333.85 349.18,-325.64"/>
<polygon fill="#63b8ff" stroke="#63b8ff" points="352.45,-324.39 345.66,-316.26 345.89,-326.85 352.45,-324.39"/>
</a>
</g>
</g>
<!-- Node15 -->
<g id="Node000015" class="node">
<title>Node15</title>
<g id="a_Node000015"><a xlink:title=" ">
<polygon fill="#e0e0e0" stroke="#999999" points="499.37,-316 443.37,-316 443.37,-297 499.37,-297 499.37,-316"/>
<text text-anchor="middle" x="471.37" y="-304" font-family="Helvetica,sans-Serif" font-size="10.00">optional</text>
</a>
</g>
</g>
<!-- Node13&#45;&gt;Node15 -->
<g id="edge22_Node000013_Node000015" class="edge">
<title>Node13&#45;&gt;Node15</title>
<g id="a_edge22_Node000013_Node000015"><a xlink:title=" ">
<path fill="none" stroke="#63b8ff" d="M398.45,-351.95C414.58,-342.12 433.75,-330.43 448.39,-321.51"/>
<polygon fill="#63b8ff" stroke="#63b8ff" points="450.56,-324.29 457.28,-316.09 446.92,-318.31 450.56,-324.29"/>
</a>
</g>
</g>
<!-- Node14&#45;&gt;Node3 -->
<g id="edge19_Node000014_Node000003" class="edge">
<title>Node14&#45;&gt;Node3</title>
<g id="a_edge19_Node000014_Node000003"><a xlink:title=" ">
<path fill="none" stroke="#63b8ff" d="M329.24,-296.87C317.28,-289 299.16,-277.09 283.63,-266.89"/>
<polygon fill="#63b8ff" stroke="#63b8ff" points="285.13,-263.68 274.85,-261.11 281.28,-269.53 285.13,-263.68"/>
</a>
</g>
</g>
<!-- Node14&#45;&gt;Node8 -->
<g id="edge18_Node000014_Node000008" class="edge">
<title>Node14&#45;&gt;Node8</title>
<g id="a_edge18_Node000014_Node000008"><a xlink:title=" ">
<path fill="none" stroke="#63b8ff" d="M340.85,-296.87C338.1,-282.61 331.56,-253.45 320.37,-231 314.33,-218.86 305.31,-206.6 297.69,-197.26"/>
<polygon fill="#63b8ff" stroke="#63b8ff" points="300.34,-194.97 291.22,-189.59 294.99,-199.49 300.34,-194.97"/>
</a>
</g>
</g>
<!-- Node14&#45;&gt;Node10 -->
<g id="edge20_Node000014_Node000010" class="edge">
<title>Node14&#45;&gt;Node10</title>
<g id="a_edge20_Node000014_Node000010"><a xlink:title=" ">
<path fill="none" stroke="#63b8ff" d="M344.85,-296.94C350.63,-276.95 365.13,-226.82 373.03,-199.48"/>
<polygon fill="#63b8ff" stroke="#63b8ff" points="376.47,-200.2 375.88,-189.62 369.74,-198.25 376.47,-200.2"/>
</a>
</g>
</g>
</g>
</svg>

<g id="navigator" transform="translate(0 0)" fill="#404254">
  <rect fill="#f2f5e9" fill-opacity="0.5" stroke="#606060" stroke-width=".5" x="0" y="0" width="60" height="60"/>
  <use id="zoomplus" xlink:href="#zoomPlus" x="17" y="9" onmousedown="handleZoom(evt,'in')"/>
  <use id="zoomminus" xlink:href="#zoomMin" x="42" y="9" onmousedown="handleZoom(evt,'out')"/>
  <use id="reset" xlink:href="#resetDef" x="30" y="36" onmousedown="handleReset()"/>
   <use id="arrowup" xlink:href="#arrowUp" x="0" y="0" onmousedown="handlePan(0,-1)"/>
  <use id="arrowright" xlink:href="#arrowRight" x="0" y="0" onmousedown="handlePan(1,0)"/>
  <use id="arrowdown" xlink:href="#arrowDown" x="0" y="0" onmousedown="handlePan(0,1)"/>
  <use id="arrowleft" xlink:href="#arrowLeft" x="0" y="0" onmousedown="handlePan(-1,0)"/>
</g>
<svg viewBox="0 0 15 15" width="100%" height="30px" preserveAspectRatio="xMaxYMin meet">
 <g id="arrow_out" transform="scale(0.3 0.3)">
  <a xlink:href="DirectionalLight_8cpp__incl_org.svg" target="_base">
   <rect id="button" ry="5" rx="5" y="6" x="6" height="38" width="38"
        fill="#f2f5e9" fill-opacity="0.5" stroke="#606060" stroke-width="1.0"/>
   <path id="arrow"
     d="M 11.500037,31.436501 C 11.940474,20.09759 22.043105,11.32322 32.158766,21.979434 L 37.068811,17.246167 C 37.068811,17.246167 37.088388,32 37.088388,32 L 22.160133,31.978069 C 22.160133,31.978069 26.997745,27.140456 26.997745,27.140456 C 18.528582,18.264221 13.291696,25.230495 11.500037,31.436501 z"
     style="fill:#404040;"/>
  </a>
 </g>
</svg>

<style type='text/css'>
<![CDATA[
[data-mouse-over-selected='false'] { opacity: 0.7; }
[data-mouse-over-selected='true']  { opacity: 1.0; }
]]>
</style>
<script type="application/ecmascript"><![CDATA[
document.addEventListener('DOMContentLoaded', (event) => {
  highlightEdges();
  highlightAdjacentNodes();
});
]]></script>
</svg>
