<?xml version="1.0" encoding="UTF-8" standalone="no"?>
<!DOCTYPE svg PUBLIC "-//W3C//DTD SVG 1.1//EN"
 "http://www.w3.org/Graphics/SVG/1.1/DTD/svg11.dtd">
<!-- Generated by graphviz version 2.43.0 (0)
 -->
<!-- Title: src/Objects/Plugins/CorePlugin/Lights/DirectionalLight/DirectionalLight.cpp Pages: 1 -->
<!--zoomable 478 -->

<svg id="main" version="1.1" xmlns="http://www.w3.org/2000/svg" xmlns:xlink="http://www.w3.org/1999/xlink" xml:space="preserve" onload="init(evt)">
<style type="text/css"><![CDATA[
.node, .edge {opacity: 0.7;}
.node.selected, .edge.selected {opacity: 1;}
.edge:hover path { stroke: red; }
.edge:hover polygon { stroke: red; fill: red; }
]]></style>

<defs>
  <circle id="rim" cx="0" cy="0" r="7"/>
  <circle id="rim2" cx="0" cy="0" r="3.5"/>
  <g id="zoomPlus">
    <use xlink:href="#rim" fill="#404040"><set attributeName="fill" to="#808080" begin="zoomplus.mouseover" end="zoomplus.mouseout"/></use>
    <path d="M-4,0h8M0,-4v8" fill="none" stroke="white" stroke-width="1.5" pointer-events="none"/>
  </g>
  <g id="zoomMin">
    <use xlink:href="#rim" fill="#404040"><set attributeName="fill" to="#808080" begin="zoomminus.mouseover" end="zoomminus.mouseout"/></use>
    <path d="M-4,0h8" fill="none" stroke="white" stroke-width="1.5" pointer-events="none"/>
  </g>
  <g id="arrowUp" transform="translate(30 24)">
    <use xlink:href="#rim"/>
    <path pointer-events="none" fill="none" stroke="white" stroke-width="1.5" d="M0,-3.0v7 M-2.5,-0.5L0,-3.0L2.5,-0.5"/>
  </g>
  <g id="arrowRight" transform="rotate(90) translate(36 -43)">
    <use xlink:href="#rim"/>
    <path pointer-events="none" fill="none" stroke="white" stroke-width="1.5" d="M0,-3.0v7 M-2.5,-0.5L0,-3.0L2.5,-0.5"/>
  </g>
  <g id="arrowDown" transform="rotate(180) translate(-30 -48)">
    <use xlink:href="#rim"/>
    <path pointer-events="none" fill="none" stroke="white" stroke-width="1.5" d="M0,-3.0v7 M-2.5,-0.5L0,-3.0L2.5,-0.5"/>
  </g>
  <g id="arrowLeft" transform="rotate(270) translate(-36 17)">
    <use xlink:href="#rim"/>
    <path pointer-events="none" fill="none" stroke="white" stroke-width="1.5" d="M0,-3.0v7 M-2.5,-0.5L0,-3.0L2.5,-0.5"/>
  </g>
  <g id="resetDef">
    <use xlink:href="#rim2" fill="#404040"><set attributeName="fill" to="#808080" begin="reset.mouseover" end="reset.mouseout"/></use>
  </g>
</defs>
<script type="application/ecmascript">
var viewWidth = 770;
var viewHeight = 478;
var sectionId = 'dynsection-0';
</script>
<script type="application/ecmascript" xlink:href="svg.min.js"/>
<svg id="graph" class="graph">
<g id="viewport">
<title>src/Objects/Plugins/CorePlugin/Lights/DirectionalLight/DirectionalLight.cpp</title>
<!-- Node1 -->
<g id="Node000001" class="node">
<title>Node1</title>
<g id="a_Node000001"><a xlink:title=" ">
<polygon fill="#999999" stroke="#666666" points="607.5,-470 446.5,-470 446.5,-429 607.5,-429 607.5,-470"/>
<text text-anchor="start" x="454.5" y="-458" font-family="Helvetica,sans-Serif" font-size="10.00">src/Objects/Plugins</text>
<text text-anchor="start" x="454.5" y="-447" font-family="Helvetica,sans-Serif" font-size="10.00">/CorePlugin/Lights/Directional</text>
<text text-anchor="middle" x="527" y="-436" font-family="Helvetica,sans-Serif" font-size="10.00">Light/DirectionalLight.cpp</text>
</a>
</g>
</g>
<!-- Node2 -->
<g id="Node000002" class="node">
<title>Node2</title>
<g id="a_Node000002"><a xlink:href="DirectionalLight_8hpp.html" target="_top" xlink:title=" ">
<polygon fill="white" stroke="#666666" points="584.5,-382 469.5,-382 469.5,-363 584.5,-363 584.5,-382"/>
<text text-anchor="middle" x="527" y="-370" font-family="Helvetica,sans-Serif" font-size="10.00">DirectionalLight.hpp</text>
</a>
</g>
</g>
<!-- Node1&#45;&gt;Node2 -->
<g id="edge1_Node000001_Node000002" class="edge">
<title>Node1&#45;&gt;Node2</title>
<g id="a_edge1_Node000001_Node000002"><a xlink:title=" ">
<path fill="none" stroke="#63b8ff" d="M527,-428.79C527,-417.59 527,-403.61 527,-392.52"/>
<polygon fill="#63b8ff" stroke="#63b8ff" points="530.5,-392.24 527,-382.24 523.5,-392.24 530.5,-392.24"/>
</a>
</g>
</g>
<!-- Node4 -->
<g id="Node000004" class="node">
<title>Node4</title>
<g id="a_Node000004"><a xlink:href="HitRecord_8hpp.html" target="_top" xlink:title=" ">
<polygon fill="white" stroke="#666666" points="732,-195 598,-195 598,-165 732,-165 732,-195"/>
<text text-anchor="start" x="606" y="-183" font-family="Helvetica,sans-Serif" font-size="10.00">../../Geometry/HitRecord</text>
<text text-anchor="middle" x="665" y="-172" font-family="Helvetica,sans-Serif" font-size="10.00">/HitRecord.hpp</text>
</a>
</g>
</g>
<!-- Node1&#45;&gt;Node4 -->
<g id="edge15_Node000001_Node000004" class="edge">
<title>Node1&#45;&gt;Node4</title>
<g id="a_edge15_Node000001_Node000004"><a xlink:title=" ">
<path fill="none" stroke="#63b8ff" d="M556.84,-428.97C569.48,-419.42 583.45,-406.97 593,-393 634.27,-332.61 653.77,-246.45 661.21,-205.04"/>
<polygon fill="#63b8ff" stroke="#63b8ff" points="664.68,-205.5 662.92,-195.06 657.78,-204.32 664.68,-205.5"/>
</a>
</g>
</g>
<!-- Node9 -->
<g id="Node000009" class="node">
<title>Node9</title>
<g id="a_Node000009"><a xlink:title=" ">
<polygon fill="#e0e0e0" stroke="#999999" points="559,-129 495,-129 495,-110 559,-110 559,-129"/>
<text text-anchor="middle" x="527" y="-117" font-family="Helvetica,sans-Serif" font-size="10.00">algorithm</text>
</a>
</g>
</g>
<!-- Node1&#45;&gt;Node9 -->
<g id="edge30_Node000001_Node000009" class="edge">
<title>Node1&#45;&gt;Node9</title>
<g id="a_edge30_Node000001_Node000009"><a xlink:title=" ">
<path fill="none" stroke="#63b8ff" d="M607.51,-434.11C674.86,-416.9 760,-380.67 760,-307.5 760,-307.5 760,-307.5 760,-245 760,-208.46 767.2,-190.47 741,-165 717.04,-141.7 624.73,-129.4 569.48,-123.99"/>
<polygon fill="#63b8ff" stroke="#63b8ff" points="569.57,-120.48 559.29,-123.03 568.91,-127.45 569.57,-120.48"/>
</a>
</g>
</g>
<!-- Node12 -->
<g id="Node000012" class="node">
<title>Node12</title>
<g id="a_Node000012"><a xlink:href="Ray_8hpp.html" target="_top" xlink:title="Ray primitive used to represent a parametric line (origin + direction).">
<polygon fill="white" stroke="#666666" points="110,-195 0,-195 0,-165 110,-165 110,-195"/>
<text text-anchor="start" x="8" y="-183" font-family="Helvetica,sans-Serif" font-size="10.00">../../../../../Geometry</text>
<text text-anchor="middle" x="55" y="-172" font-family="Helvetica,sans-Serif" font-size="10.00">/Ray/Ray.hpp</text>
</a>
</g>
</g>
<!-- Node1&#45;&gt;Node12 -->
<g id="edge12_Node000001_Node000012" class="edge">
<title>Node1&#45;&gt;Node12</title>
<g id="a_edge12_Node000001_Node000012"><a xlink:title=" ">
<path fill="none" stroke="#63b8ff" d="M446.3,-442.43C392.32,-435.8 321,-421.94 264,-393 174.11,-347.36 99.86,-248.19 69.61,-203.56"/>
<polygon fill="#63b8ff" stroke="#63b8ff" points="72.46,-201.52 63.99,-195.15 66.63,-205.41 72.46,-201.52"/>
</a>
</g>
</g>
<!-- Node13 -->
<g id="Node000013" class="node">
<title>Node13</title>
<g id="a_Node000013"><a xlink:href="APrimitive_8hpp.html" target="_top" xlink:title=" ">
<polygon fill="white" stroke="#666666" points="392.5,-393 273.5,-393 273.5,-352 392.5,-352 392.5,-393"/>
<text text-anchor="start" x="281.5" y="-381" font-family="Helvetica,sans-Serif" font-size="10.00">../../../../../Objects</text>
<text text-anchor="start" x="281.5" y="-370" font-family="Helvetica,sans-Serif" font-size="10.00">/Abstracts/APrimitive</text>
<text text-anchor="middle" x="333" y="-359" font-family="Helvetica,sans-Serif" font-size="10.00">/APrimitive.hpp</text>
</a>
</g>
</g>
<!-- Node1&#45;&gt;Node13 -->
<g id="edge16_Node000001_Node000013" class="edge">
<title>Node1&#45;&gt;Node13</title>
<g id="a_edge16_Node000001_Node000013"><a xlink:title=" ">
<path fill="none" stroke="#63b8ff" d="M476.54,-428.99C451.04,-419.13 419.92,-407.1 393.18,-396.77"/>
<polygon fill="#63b8ff" stroke="#63b8ff" points="394.14,-393.38 383.55,-393.04 391.61,-399.91 394.14,-393.38"/>
</a>
</g>
</g>
<!-- Node3 -->
<g id="Node000003" class="node">
<title>Node3</title>
<g id="a_Node000003"><a xlink:href="ILight_8hpp.html" target="_top" xlink:title=" ">
<polygon fill="white" stroke="#666666" points="585,-261 469,-261 469,-231 585,-231 585,-261"/>
<text text-anchor="start" x="477" y="-249" font-family="Helvetica,sans-Serif" font-size="10.00">../../../../../Objects</text>
<text text-anchor="middle" x="527" y="-238" font-family="Helvetica,sans-Serif" font-size="10.00">/Abstracts/ILight.hpp</text>
</a>
</g>
</g>
<!-- Node2&#45;&gt;Node3 -->
<g id="edge2_Node000002_Node000003" class="edge">
<title>Node2&#45;&gt;Node3</title>
<g id="a_edge2_Node000002_Node000003"><a xlink:title=" ">
<path fill="none" stroke="#63b8ff" d="M527,-362.94C527,-344.32 527,-299.53 527,-271.39"/>
<polygon fill="#63b8ff" stroke="#63b8ff" points="530.5,-271.16 527,-261.16 523.5,-271.16 530.5,-271.16"/>
</a>
</g>
</g>
<!-- Node3&#45;&gt;Node4 -->
<g id="edge3_Node000003_Node000004" class="edge">
<title>Node3&#45;&gt;Node4</title>
<g id="a_edge3_Node000003_Node000004"><a xlink:title=" ">
<path fill="none" stroke="#63b8ff" d="M557.28,-230.95C577.33,-221.66 603.81,-209.38 625.51,-199.32"/>
<polygon fill="#63b8ff" stroke="#63b8ff" points="627.19,-202.39 634.79,-195.01 624.24,-196.04 627.19,-202.39"/>
</a>
</g>
</g>
<!-- Node8 -->
<g id="Node000008" class="node">
<title>Node8</title>
<g id="a_Node000008"><a xlink:href="Color_8hpp.html" target="_top" xlink:title=" ">
<polygon fill="white" stroke="#666666" points="580,-189.5 474,-189.5 474,-170.5 580,-170.5 580,-189.5"/>
<text text-anchor="middle" x="527" y="-177.5" font-family="Helvetica,sans-Serif" font-size="10.00">../../Utils/Color.hpp</text>
</a>
</g>
</g>
<!-- Node3&#45;&gt;Node8 -->
<g id="edge8_Node000003_Node000008" class="edge">
<title>Node3&#45;&gt;Node8</title>
<g id="a_edge8_Node000003_Node000008"><a xlink:title=" ">
<path fill="none" stroke="#63b8ff" d="M527,-230.8C527,-221.7 527,-209.79 527,-199.9"/>
<polygon fill="#63b8ff" stroke="#63b8ff" points="530.5,-199.84 527,-189.84 523.5,-199.84 530.5,-199.84"/>
</a>
</g>
</g>
<!-- Node10 -->
<g id="Node000010" class="node">
<title>Node10</title>
<g id="a_Node000010"><a xlink:title=" ">
<polygon fill="#e0e0e0" stroke="#999999" points="455.5,-189.5 408.5,-189.5 408.5,-170.5 455.5,-170.5 455.5,-189.5"/>
<text text-anchor="middle" x="432" y="-177.5" font-family="Helvetica,sans-Serif" font-size="10.00">vector</text>
</a>
</g>
</g>
<!-- Node3&#45;&gt;Node10 -->
<g id="edge10_Node000003_Node000010" class="edge">
<title>Node3&#45;&gt;Node10</title>
<g id="a_edge10_Node000003_Node000010"><a xlink:title=" ">
<path fill="none" stroke="#63b8ff" d="M505.92,-230.8C490.29,-220.27 469.07,-205.97 453.37,-195.4"/>
<polygon fill="#63b8ff" stroke="#63b8ff" points="455.1,-192.34 444.85,-189.66 451.19,-198.15 455.1,-192.34"/>
</a>
</g>
</g>
<!-- Node11 -->
<g id="Node000011" class="node">
<title>Node11</title>
<g id="a_Node000011"><a xlink:title=" ">
<polygon fill="#e0e0e0" stroke="#999999" points="390,-189.5 332,-189.5 332,-170.5 390,-170.5 390,-189.5"/>
<text text-anchor="middle" x="361" y="-177.5" font-family="Helvetica,sans-Serif" font-size="10.00">memory</text>
</a>
</g>
</g>
<!-- Node3&#45;&gt;Node11 -->
<g id="edge11_Node000003_Node000011" class="edge">
<title>Node3&#45;&gt;Node11</title>
<g id="a_edge11_Node000003_Node000011"><a xlink:title=" ">
<path fill="none" stroke="#63b8ff" d="M490.57,-230.95C461.33,-219.68 420.69,-204.01 392.76,-193.25"/>
<polygon fill="#63b8ff" stroke="#63b8ff" points="393.68,-189.85 383.09,-189.52 391.16,-196.38 393.68,-189.85"/>
</a>
</g>
</g>
<!-- Node5 -->
<g id="Node000005" class="node">
<title>Node5</title>
<g id="a_Node000005"><a xlink:href="Point3D_8hpp.html" target="_top" xlink:title=" ">
<polygon fill="white" stroke="#666666" points="209,-129 83,-129 83,-110 209,-110 209,-129"/>
<text text-anchor="middle" x="146" y="-117" font-family="Helvetica,sans-Serif" font-size="10.00">../Point3D/Point3D.hpp</text>
</a>
</g>
</g>
<!-- Node4&#45;&gt;Node5 -->
<g id="edge4_Node000004_Node000005" class="edge">
<title>Node4&#45;&gt;Node5</title>
<g id="a_edge4_Node000004_Node000005"><a xlink:title=" ">
<path fill="none" stroke="#63b8ff" d="M597.91,-166.33C594.9,-165.86 591.92,-165.42 589,-165 459.44,-146.59 307.5,-133.07 219.44,-126.02"/>
<polygon fill="#63b8ff" stroke="#63b8ff" points="219.53,-122.52 209.29,-125.21 218.98,-129.5 219.53,-122.52"/>
</a>
</g>
</g>
<!-- Node6 -->
<g id="Node000006" class="node">
<title>Node6</title>
<g id="a_Node000006"><a xlink:href="Vector3D_8hpp.html" target="_top" xlink:title=" ">
<polygon fill="white" stroke="#666666" points="215,-74 77,-74 77,-55 215,-55 215,-74"/>
<text text-anchor="middle" x="146" y="-62" font-family="Helvetica,sans-Serif" font-size="10.00">../Vector3D/Vector3D.hpp</text>
</a>
</g>
</g>
<!-- Node4&#45;&gt;Node6 -->
<g id="edge7_Node000004_Node000006" class="edge">
<title>Node4&#45;&gt;Node6</title>
<g id="a_edge7_Node000004_Node000006"><a xlink:title=" ">
<path fill="none" stroke="#63b8ff" d="M650.32,-164.79C632.48,-148.47 600.67,-122.36 568,-110 507.23,-87.01 329.88,-74.58 225.44,-69.07"/>
<polygon fill="#63b8ff" stroke="#63b8ff" points="225.42,-65.56 215.26,-68.54 225.06,-72.55 225.42,-65.56"/>
</a>
</g>
</g>
<!-- Node5&#45;&gt;Node6 -->
<g id="edge5_Node000005_Node000006" class="edge">
<title>Node5&#45;&gt;Node6</title>
<g id="a_edge5_Node000005_Node000006"><a xlink:title=" ">
<path fill="none" stroke="#63b8ff" d="M146,-109.75C146,-102.8 146,-92.85 146,-84.13"/>
<polygon fill="#63b8ff" stroke="#63b8ff" points="149.5,-84.09 146,-74.09 142.5,-84.09 149.5,-84.09"/>
</a>
</g>
</g>
<!-- Node7 -->
<g id="Node000007" class="node">
<title>Node7</title>
<g id="a_Node000007"><a xlink:title=" ">
<polygon fill="#e0e0e0" stroke="#999999" points="171.5,-19 120.5,-19 120.5,0 171.5,0 171.5,-19"/>
<text text-anchor="middle" x="146" y="-7" font-family="Helvetica,sans-Serif" font-size="10.00">math.h</text>
</a>
</g>
</g>
<!-- Node6&#45;&gt;Node7 -->
<g id="edge6_Node000006_Node000007" class="edge">
<title>Node6&#45;&gt;Node7</title>
<g id="a_edge6_Node000006_Node000007"><a xlink:title=" ">
<path fill="none" stroke="#63b8ff" d="M146,-54.75C146,-47.8 146,-37.85 146,-29.13"/>
<polygon fill="#63b8ff" stroke="#63b8ff" points="149.5,-29.09 146,-19.09 142.5,-29.09 149.5,-29.09"/>
</a>
</g>
</g>
<!-- Node8&#45;&gt;Node9 -->
<g id="edge9_Node000008_Node000009" class="edge">
<title>Node8&#45;&gt;Node9</title>
<g id="a_edge9_Node000008_Node000009"><a xlink:title=" ">
<path fill="none" stroke="#63b8ff" d="M527,-170.37C527,-162.25 527,-149.81 527,-139.39"/>
<polygon fill="#63b8ff" stroke="#63b8ff" points="530.5,-139.17 527,-129.17 523.5,-139.17 530.5,-139.17"/>
</a>
</g>
</g>
<!-- Node12&#45;&gt;Node5 -->
<g id="edge13_Node000012_Node000005" class="edge">
<title>Node12&#45;&gt;Node5</title>
<g id="a_edge13_Node000012_Node000005"><a xlink:title=" ">
<path fill="none" stroke="#63b8ff" d="M77.03,-164.84C91.27,-155.68 109.73,-143.82 123.97,-134.66"/>
<polygon fill="#63b8ff" stroke="#63b8ff" points="126.11,-137.45 132.63,-129.09 122.33,-131.56 126.11,-137.45"/>
</a>
</g>
</g>
<!-- Node12&#45;&gt;Node6 -->
<g id="edge14_Node000012_Node000006" class="edge">
<title>Node12&#45;&gt;Node6</title>
<g id="a_edge14_Node000012_Node000006"><a xlink:title=" ">
<path fill="none" stroke="#63b8ff" d="M55.86,-164.99C57.42,-150.04 61.78,-126.31 74,-110 84.34,-96.2 100.32,-85.71 114.6,-78.38"/>
<polygon fill="#63b8ff" stroke="#63b8ff" points="116.17,-81.51 123.66,-74.03 113.13,-75.2 116.17,-81.51"/>
</a>
</g>
</g>
<!-- Node13&#45;&gt;Node11 -->
<g id="edge21_Node000013_Node000011" class="edge">
<title>Node13&#45;&gt;Node11</title>
<g id="a_edge21_Node000013_Node000011"><a xlink:title=" ">
<path fill="none" stroke="#63b8ff" d="M336.27,-352C338.02,-341.36 340.19,-327.97 342,-316 348.3,-274.41 355.01,-225.51 358.52,-199.49"/>
<polygon fill="#63b8ff" stroke="#63b8ff" points="362,-199.92 359.86,-189.54 355.06,-198.98 362,-199.92"/>
</a>
</g>
</g>
<!-- Node13&#45;&gt;Node12 -->
<g id="edge29_Node000013_Node000012" class="edge">
<title>Node13&#45;&gt;Node12</title>
<g id="a_edge29_Node000013_Node000012"><a xlink:title=" ">
<path fill="none" stroke="#63b8ff" d="M300.83,-351.84C265.91,-330.27 208.75,-294.29 161,-261 132.95,-241.45 101.82,-217.7 80.6,-201.18"/>
<polygon fill="#63b8ff" stroke="#63b8ff" points="82.74,-198.41 72.7,-195.01 78.43,-203.92 82.74,-198.41"/>
</a>
</g>
</g>
<!-- Node14 -->
<g id="Node000014" class="node">
<title>Node14</title>
<g id="a_Node000014"><a xlink:href="IMaterial_8hpp.html" target="_top" xlink:title=" ">
<polygon fill="white" stroke="#666666" points="483,-316 393,-316 393,-297 483,-297 483,-316"/>
<text text-anchor="middle" x="438" y="-304" font-family="Helvetica,sans-Serif" font-size="10.00">../IMaterial.hpp</text>
</a>
</g>
</g>
<!-- Node13&#45;&gt;Node14 -->
<g id="edge17_Node000013_Node000014" class="edge">
<title>Node13&#45;&gt;Node14</title>
<g id="a_edge17_Node000013_Node000014"><a xlink:title=" ">
<path fill="none" stroke="#63b8ff" d="M365.07,-351.95C381.2,-342.12 400.38,-330.43 415.02,-321.51"/>
<polygon fill="#63b8ff" stroke="#63b8ff" points="417.19,-324.29 423.9,-316.09 413.54,-318.31 417.19,-324.29"/>
</a>
</g>
</g>
<!-- Node15 -->
<g id="Node000015" class="node">
<title>Node15</title>
<g id="a_Node000015"><a xlink:title=" ">
<polygon fill="#e0e0e0" stroke="#999999" points="333,-316 277,-316 277,-297 333,-297 333,-316"/>
<text text-anchor="middle" x="305" y="-304" font-family="Helvetica,sans-Serif" font-size="10.00">optional</text>
</a>
</g>
</g>
<!-- Node13&#45;&gt;Node15 -->
<g id="edge22_Node000013_Node000015" class="edge">
<title>Node13&#45;&gt;Node15</title>
<g id="a_edge22_Node000013_Node000015"><a xlink:title=" ">
<path fill="none" stroke="#63b8ff" d="M324.45,-351.95C320.78,-343.58 316.53,-333.85 312.94,-325.64"/>
<polygon fill="#63b8ff" stroke="#63b8ff" points="316.05,-324.02 308.83,-316.26 309.63,-326.83 316.05,-324.02"/>
</a>
</g>
</g>
<!-- Node16 -->
<g id="Node000016" class="node">
<title>Node16</title>
<g id="a_Node000016"><a xlink:href="AABB_8hpp.html" target="_top" xlink:title=" ">
<polygon fill="white" stroke="#666666" points="292,-261 170,-261 170,-231 292,-231 292,-261"/>
<text text-anchor="start" x="178" y="-249" font-family="Helvetica,sans-Serif" font-size="10.00">../../../Geometry/AABB</text>
<text text-anchor="middle" x="231" y="-238" font-family="Helvetica,sans-Serif" font-size="10.00">/AABB.hpp</text>
</a>
</g>
</g>
<!-- Node13&#45;&gt;Node16 -->
<g id="edge23_Node000013_Node000016" class="edge">
<title>Node13&#45;&gt;Node16</title>
<g id="a_edge23_Node000013_Node000016"><a xlink:title=" ">
<path fill="none" stroke="#63b8ff" d="M305.63,-351.89C293.16,-342.06 278.8,-329.4 268,-316 256.88,-302.2 247.49,-284.56 240.96,-270.58"/>
<polygon fill="#63b8ff" stroke="#63b8ff" points="244.01,-268.83 236.71,-261.14 237.62,-271.7 244.01,-268.83"/>
</a>
</g>
</g>
<!-- Node14&#45;&gt;Node3 -->
<g id="edge19_Node000014_Node000003" class="edge">
<title>Node14&#45;&gt;Node3</title>
<g id="a_edge19_Node000014_Node000003"><a xlink:title=" ">
<path fill="none" stroke="#63b8ff" d="M451.13,-296.87C463.1,-289 481.22,-277.09 496.75,-266.89"/>
<polygon fill="#63b8ff" stroke="#63b8ff" points="499.09,-269.53 505.53,-261.11 495.25,-263.68 499.09,-269.53"/>
</a>
</g>
</g>
<!-- Node14&#45;&gt;Node8 -->
<g id="edge18_Node000014_Node000008" class="edge">
<title>Node14&#45;&gt;Node8</title>
<g id="a_edge18_Node000014_Node000008"><a xlink:title=" ">
<path fill="none" stroke="#63b8ff" d="M438.76,-296.93C440.44,-282.23 445.51,-251.8 460,-231 470.55,-215.86 487.15,-203.42 501.18,-194.74"/>
<polygon fill="#63b8ff" stroke="#63b8ff" points="503.1,-197.67 509.95,-189.59 499.55,-191.64 503.1,-197.67"/>
</a>
</g>
</g>
<!-- Node14&#45;&gt;Node10 -->
<g id="edge20_Node000014_Node000010" class="edge">
<title>Node14&#45;&gt;Node10</title>
<g id="a_edge20_Node000014_Node000010"><a xlink:title=" ">
<path fill="none" stroke="#63b8ff" d="M435.17,-296.75C432.45,-287.86 428.54,-273.64 427,-261 424.48,-240.32 426.62,-216.48 428.83,-200.24"/>
<polygon fill="#63b8ff" stroke="#63b8ff" points="432.35,-200.32 430.38,-189.91 425.43,-199.28 432.35,-200.32"/>
</a>
</g>
</g>
<!-- Node16&#45;&gt;Node5 -->
<g id="edge27_Node000016_Node000005" class="edge">
<title>Node16&#45;&gt;Node5</title>
<g id="a_edge27_Node000016_Node000005"><a xlink:title=" ">
<path fill="none" stroke="#63b8ff" d="M198.92,-230.99C183.79,-222.72 166.91,-210.75 157,-195 146.47,-178.26 144.54,-155.29 144.73,-139.3"/>
<polygon fill="#63b8ff" stroke="#63b8ff" points="148.24,-139.21 145.15,-129.07 141.24,-138.92 148.24,-139.21"/>
</a>
</g>
</g>
<!-- Node16&#45;&gt;Node9 -->
<g id="edge24_Node000016_Node000009" class="edge">
<title>Node16&#45;&gt;Node9</title>
<g id="a_edge24_Node000016_Node000009"><a xlink:title=" ">
<path fill="none" stroke="#63b8ff" d="M231.36,-230.73C232.64,-212.57 237.73,-181.56 257,-165 290.43,-136.27 417.27,-125.81 484.53,-122.23"/>
<polygon fill="#63b8ff" stroke="#63b8ff" points="484.98,-125.71 494.79,-121.71 484.63,-118.72 484.98,-125.71"/>
</a>
</g>
</g>
<!-- Node16&#45;&gt;Node12 -->
<g id="edge28_Node000016_Node000012" class="edge">
<title>Node16&#45;&gt;Node12</title>
<g id="a_edge28_Node000016_Node000012"><a xlink:title=" ">
<path fill="none" stroke="#63b8ff" d="M192.38,-230.95C166.13,-221.41 131.21,-208.71 103.15,-198.51"/>
<polygon fill="#63b8ff" stroke="#63b8ff" points="104.13,-195.14 93.53,-195.01 101.74,-201.72 104.13,-195.14"/>
</a>
</g>
</g>
<!-- Node17 -->
<g id="Node000017" class="node">
<title>Node17</title>
<g id="a_Node000017"><a xlink:title=" ">
<polygon fill="#e0e0e0" stroke="#999999" points="313.5,-189.5 266.5,-189.5 266.5,-170.5 313.5,-170.5 313.5,-189.5"/>
<text text-anchor="middle" x="290" y="-177.5" font-family="Helvetica,sans-Serif" font-size="10.00">cmath</text>
</a>
</g>
</g>
<!-- Node16&#45;&gt;Node17 -->
<g id="edge25_Node000016_Node000017" class="edge">
<title>Node16&#45;&gt;Node17</title>
<g id="a_edge25_Node000016_Node000017"><a xlink:title=" ">
<path fill="none" stroke="#63b8ff" d="M244.09,-230.8C253.2,-220.92 265.37,-207.72 274.89,-197.39"/>
<polygon fill="#63b8ff" stroke="#63b8ff" points="277.64,-199.57 281.85,-189.84 272.5,-194.82 277.64,-199.57"/>
</a>
</g>
</g>
<!-- Node18 -->
<g id="Node000018" class="node">
<title>Node18</title>
<g id="a_Node000018"><a xlink:title=" ">
<polygon fill="#e0e0e0" stroke="#999999" points="210,-189.5 166,-189.5 166,-170.5 210,-170.5 210,-189.5"/>
<text text-anchor="middle" x="188" y="-177.5" font-family="Helvetica,sans-Serif" font-size="10.00">limits</text>
</a>
</g>
</g>
<!-- Node16&#45;&gt;Node18 -->
<g id="edge26_Node000016_Node000018" class="edge">
<title>Node16&#45;&gt;Node18</title>
<g id="a_edge26_Node000016_Node000018"><a xlink:title=" ">
<path fill="none" stroke="#63b8ff" d="M221.46,-230.8C215.02,-221.21 206.48,-208.5 199.64,-198.32"/>
<polygon fill="#63b8ff" stroke="#63b8ff" points="202.42,-196.19 193.94,-189.84 196.61,-200.1 202.42,-196.19"/>
</a>
</g>
</g>
</g>
</svg>

<g id="navigator" transform="translate(0 0)" fill="#404254">
  <rect fill="#f2f5e9" fill-opacity="0.5" stroke="#606060" stroke-width=".5" x="0" y="0" width="60" height="60"/>
  <use id="zoomplus" xlink:href="#zoomPlus" x="17" y="9" onmousedown="handleZoom(evt,'in')"/>
  <use id="zoomminus" xlink:href="#zoomMin" x="42" y="9" onmousedown="handleZoom(evt,'out')"/>
  <use id="reset" xlink:href="#resetDef" x="30" y="36" onmousedown="handleReset()"/>
   <use id="arrowup" xlink:href="#arrowUp" x="0" y="0" onmousedown="handlePan(0,-1)"/>
  <use id="arrowright" xlink:href="#arrowRight" x="0" y="0" onmousedown="handlePan(1,0)"/>
  <use id="arrowdown" xlink:href="#arrowDown" x="0" y="0" onmousedown="handlePan(0,1)"/>
  <use id="arrowleft" xlink:href="#arrowLeft" x="0" y="0" onmousedown="handlePan(-1,0)"/>
</g>
<svg viewBox="0 0 15 15" width="100%" height="30px" preserveAspectRatio="xMaxYMin meet">
 <g id="arrow_out" transform="scale(0.3 0.3)">
  <a xlink:href="DirectionalLight_8cpp__incl_org.svg" target="_base">
   <rect id="button" ry="5" rx="5" y="6" x="6" height="38" width="38"
        fill="#f2f5e9" fill-opacity="0.5" stroke="#606060" stroke-width="1.0"/>
   <path id="arrow"
     d="M 11.500037,31.436501 C 11.940474,20.09759 22.043105,11.32322 32.158766,21.979434 L 37.068811,17.246167 C 37.068811,17.246167 37.088388,32 37.088388,32 L 22.160133,31.978069 C 22.160133,31.978069 26.997745,27.140456 26.997745,27.140456 C 18.528582,18.264221 13.291696,25.230495 11.500037,31.436501 z"
     style="fill:#404040;"/>
  </a>
 </g>
</svg>

<style type='text/css'>
<![CDATA[
[data-mouse-over-selected='false'] { opacity: 0.7; }
[data-mouse-over-selected='true']  { opacity: 1.0; }
]]>
</style>
<script type="application/ecmascript"><![CDATA[
document.addEventListener('DOMContentLoaded', (event) => {
  highlightEdges();
  highlightAdjacentNodes();
});
]]></script>
</svg>
