<?xml version="1.0" encoding="UTF-8" standalone="no"?>
<!DOCTYPE svg PUBLIC "-//W3C//DTD SVG 1.1//EN"
 "http://www.w3.org/Graphics/SVG/1.1/DTD/svg11.dtd">
<!-- Generated by graphviz version 2.43.0 (0)
 -->
<!-- Title: src/Objects/Plugins/Materials/FlatColor.hpp Pages: 1 -->
<svg width="454pt" height="280pt"
 viewBox="0.00 0.00 454.21 280.00" xmlns="http://www.w3.org/2000/svg" xmlns:xlink="http://www.w3.org/1999/xlink">
<g id="graph0" class="graph" transform="scale(1 1) rotate(0) translate(4 276)">
<title>src/Objects/Plugins/Materials/FlatColor.hpp</title>
<!-- Node1 -->
<g id="Node000001" class="node">
<title>Node1</title>
<g id="a_Node000001"><a xlink:title=" ">
<polygon fill="#999999" stroke="#666666" points="305.21,-272 172.21,-272 172.21,-242 305.21,-242 305.21,-272"/>
<text text-anchor="start" x="180.21" y="-260" font-family="Helvetica,sans-Serif" font-size="10.00">src/Objects/Plugins</text>
<text text-anchor="middle" x="238.71" y="-249" font-family="Helvetica,sans-Serif" font-size="10.00">/Materials/FlatColor.hpp</text>
</a>
</g>
</g>
<!-- Node2 -->
<g id="Node000002" class="node">
<title>Node2</title>
<g id="a_Node000002"><a xlink:href="HitRecord_8hpp.html" target="_top" xlink:title=" ">
<polygon fill="white" stroke="#666666" points="145.21,-206 2.21,-206 2.21,-176 145.21,-176 145.21,-206"/>
<text text-anchor="start" x="10.21" y="-194" font-family="Helvetica,sans-Serif" font-size="10.00">../../../Geometry/HitRecord</text>
<text text-anchor="middle" x="73.71" y="-183" font-family="Helvetica,sans-Serif" font-size="10.00">/HitRecord.hpp</text>
</a>
</g>
</g>
<!-- Node1&#45;&gt;Node2 -->
<g id="edge1_Node000001_Node000002" class="edge">
<title>Node1&#45;&gt;Node2</title>
<g id="a_edge1_Node000001_Node000002"><a xlink:title=" ">
<path fill="none" stroke="#63b8ff" d="M202.5,-241.95C178,-232.45 145.44,-219.82 119.19,-209.64"/>
<polygon fill="#63b8ff" stroke="#63b8ff" points="120.42,-206.37 109.84,-206.01 117.89,-212.89 120.42,-206.37"/>
</a>
</g>
</g>
<!-- Node7 -->
<g id="Node000007" class="node">
<title>Node7</title>
<g id="a_Node000007"><a xlink:href="Rectangle3D_8hpp.html" target="_top" xlink:title=" ">
<polygon fill="white" stroke="#666666" points="313.71,-206 163.71,-206 163.71,-176 313.71,-176 313.71,-206"/>
<text text-anchor="start" x="171.71" y="-194" font-family="Helvetica,sans-Serif" font-size="10.00">../../../Geometry/Rectangle3</text>
<text text-anchor="middle" x="238.71" y="-183" font-family="Helvetica,sans-Serif" font-size="10.00">D/Rectangle3D.hpp</text>
</a>
</g>
</g>
<!-- Node1&#45;&gt;Node7 -->
<g id="edge7_Node000001_Node000007" class="edge">
<title>Node1&#45;&gt;Node7</title>
<g id="a_edge7_Node000001_Node000007"><a xlink:title=" ">
<path fill="none" stroke="#63b8ff" d="M238.71,-241.8C238.71,-234.34 238.71,-224.99 238.71,-216.41"/>
<polygon fill="#63b8ff" stroke="#63b8ff" points="242.21,-216.16 238.71,-206.16 235.21,-216.16 242.21,-216.16"/>
</a>
</g>
</g>
<!-- Node8 -->
<g id="Node000008" class="node">
<title>Node8</title>
<g id="a_Node000008"><a xlink:href="Color_8hpp.html" target="_top" xlink:title=" ">
<polygon fill="white" stroke="#666666" points="446.21,-200.5 331.21,-200.5 331.21,-181.5 446.21,-181.5 446.21,-200.5"/>
<text text-anchor="middle" x="388.71" y="-188.5" font-family="Helvetica,sans-Serif" font-size="10.00">../../../Utils/Color.hpp</text>
</a>
</g>
</g>
<!-- Node1&#45;&gt;Node8 -->
<g id="edge10_Node000001_Node000008" class="edge">
<title>Node1&#45;&gt;Node8</title>
<g id="a_edge10_Node000001_Node000008"><a xlink:title=" ">
<path fill="none" stroke="#63b8ff" d="M271.63,-241.95C297.82,-230.78 334.13,-215.29 359.34,-204.53"/>
<polygon fill="#63b8ff" stroke="#63b8ff" points="360.92,-207.66 368.75,-200.52 358.18,-201.22 360.92,-207.66"/>
</a>
</g>
</g>
<!-- Node3 -->
<g id="Node000003" class="node">
<title>Node3</title>
<g id="a_Node000003"><a xlink:href="Point3D_8hpp.html" target="_top" xlink:title=" ">
<polygon fill="white" stroke="#666666" points="276.71,-134.5 150.71,-134.5 150.71,-115.5 276.71,-115.5 276.71,-134.5"/>
<text text-anchor="middle" x="213.71" y="-122.5" font-family="Helvetica,sans-Serif" font-size="10.00">../Point3D/Point3D.hpp</text>
</a>
</g>
</g>
<!-- Node2&#45;&gt;Node3 -->
<g id="edge2_Node000002_Node000003" class="edge">
<title>Node2&#45;&gt;Node3</title>
<g id="a_edge2_Node000002_Node000003"><a xlink:title=" ">
<path fill="none" stroke="#63b8ff" d="M104.43,-175.95C128.66,-164.88 162.17,-149.56 185.67,-138.82"/>
<polygon fill="#63b8ff" stroke="#63b8ff" points="187.44,-141.86 195.08,-134.52 184.53,-135.49 187.44,-141.86"/>
</a>
</g>
</g>
<!-- Node4 -->
<g id="Node000004" class="node">
<title>Node4</title>
<g id="a_Node000004"><a xlink:href="Vector3D_8hpp.html" target="_top" xlink:title=" ">
<polygon fill="white" stroke="#666666" points="282.71,-74 144.71,-74 144.71,-55 282.71,-55 282.71,-74"/>
<text text-anchor="middle" x="213.71" y="-62" font-family="Helvetica,sans-Serif" font-size="10.00">../Vector3D/Vector3D.hpp</text>
</a>
</g>
</g>
<!-- Node2&#45;&gt;Node4 -->
<g id="edge5_Node000002_Node000004" class="edge">
<title>Node2&#45;&gt;Node4</title>
<g id="a_edge5_Node000002_Node000004"><a xlink:title=" ">
<path fill="none" stroke="#63b8ff" d="M46.87,-175.73C20.51,-159.86 -13.2,-133.39 5.71,-110 21.98,-89.88 82.78,-78.45 134.48,-72.23"/>
<polygon fill="#63b8ff" stroke="#63b8ff" points="135.15,-75.67 144.68,-71.05 134.34,-68.72 135.15,-75.67"/>
</a>
</g>
</g>
<!-- Node6 -->
<g id="Node000006" class="node">
<title>Node6</title>
<g id="a_Node000006"><a xlink:title=" ">
<polygon fill="#e0e0e0" stroke="#999999" points="132.71,-140 14.71,-140 14.71,-110 132.71,-110 132.71,-140"/>
<text text-anchor="start" x="22.71" y="-128" font-family="Helvetica,sans-Serif" font-size="10.00">../../Objects/Interface</text>
<text text-anchor="middle" x="73.71" y="-117" font-family="Helvetica,sans-Serif" font-size="10.00">/IMaterial.hpp</text>
</a>
</g>
</g>
<!-- Node2&#45;&gt;Node6 -->
<g id="edge6_Node000002_Node000006" class="edge">
<title>Node2&#45;&gt;Node6</title>
<g id="a_edge6_Node000002_Node000006"><a xlink:title=" ">
<path fill="none" stroke="#63b8ff" d="M73.71,-175.8C73.71,-168.34 73.71,-158.99 73.71,-150.41"/>
<polygon fill="#63b8ff" stroke="#63b8ff" points="77.21,-150.16 73.71,-140.16 70.21,-150.16 77.21,-150.16"/>
</a>
</g>
</g>
<!-- Node3&#45;&gt;Node4 -->
<g id="edge3_Node000003_Node000004" class="edge">
<title>Node3&#45;&gt;Node4</title>
<g id="a_edge3_Node000003_Node000004"><a xlink:title=" ">
<path fill="none" stroke="#63b8ff" d="M213.71,-115.37C213.71,-107.25 213.71,-94.81 213.71,-84.39"/>
<polygon fill="#63b8ff" stroke="#63b8ff" points="217.21,-84.17 213.71,-74.17 210.21,-84.17 217.21,-84.17"/>
</a>
</g>
</g>
<!-- Node5 -->
<g id="Node000005" class="node">
<title>Node5</title>
<g id="a_Node000005"><a xlink:title=" ">
<polygon fill="#e0e0e0" stroke="#999999" points="239.21,-19 188.21,-19 188.21,0 239.21,0 239.21,-19"/>
<text text-anchor="middle" x="213.71" y="-7" font-family="Helvetica,sans-Serif" font-size="10.00">math.h</text>
</a>
</g>
</g>
<!-- Node4&#45;&gt;Node5 -->
<g id="edge4_Node000004_Node000005" class="edge">
<title>Node4&#45;&gt;Node5</title>
<g id="a_edge4_Node000004_Node000005"><a xlink:title=" ">
<path fill="none" stroke="#63b8ff" d="M213.71,-54.75C213.71,-47.8 213.71,-37.85 213.71,-29.13"/>
<polygon fill="#63b8ff" stroke="#63b8ff" points="217.21,-29.09 213.71,-19.09 210.21,-29.09 217.21,-29.09"/>
</a>
</g>
</g>
<!-- Node7&#45;&gt;Node3 -->
<g id="edge8_Node000007_Node000003" class="edge">
<title>Node7&#45;&gt;Node3</title>
<g id="a_edge8_Node000007_Node000003"><a xlink:title=" ">
<path fill="none" stroke="#63b8ff" d="M233.16,-175.8C229.53,-166.5 224.76,-154.27 220.84,-144.26"/>
<polygon fill="#63b8ff" stroke="#63b8ff" points="224.06,-142.89 217.17,-134.84 217.54,-145.43 224.06,-142.89"/>
</a>
</g>
</g>
<!-- Node7&#45;&gt;Node4 -->
<g id="edge9_Node000007_Node000004" class="edge">
<title>Node7&#45;&gt;Node4</title>
<g id="a_edge9_Node000007_Node000004"><a xlink:title=" ">
<path fill="none" stroke="#63b8ff" d="M256.88,-175.95C275.1,-160.06 298.73,-133.36 285.71,-110 277.67,-95.58 262.81,-85.24 248.67,-78.18"/>
<polygon fill="#63b8ff" stroke="#63b8ff" points="250.11,-74.99 239.56,-74.01 247.2,-81.36 250.11,-74.99"/>
</a>
</g>
</g>
<!-- Node9 -->
<g id="Node000009" class="node">
<title>Node9</title>
<g id="a_Node000009"><a xlink:title=" ">
<polygon fill="#e0e0e0" stroke="#999999" points="420.71,-134.5 356.71,-134.5 356.71,-115.5 420.71,-115.5 420.71,-134.5"/>
<text text-anchor="middle" x="388.71" y="-122.5" font-family="Helvetica,sans-Serif" font-size="10.00">algorithm</text>
</a>
</g>
</g>
<!-- Node8&#45;&gt;Node9 -->
<g id="edge11_Node000008_Node000009" class="edge">
<title>Node8&#45;&gt;Node9</title>
<g id="a_edge11_Node000008_Node000009"><a xlink:title=" ">
<path fill="none" stroke="#63b8ff" d="M388.71,-181.37C388.71,-172.16 388.71,-157.29 388.71,-145.27"/>
<polygon fill="#63b8ff" stroke="#63b8ff" points="392.21,-144.91 388.71,-134.91 385.21,-144.91 392.21,-144.91"/>
</a>
</g>
</g>
</g>
</svg>
