<?xml version="1.0" encoding="UTF-8" standalone="no"?>
<!DOCTYPE svg PUBLIC "-//W3C//DTD SVG 1.1//EN"
 "http://www.w3.org/Graphics/SVG/1.1/DTD/svg11.dtd">
<!-- Generated by graphviz version 2.43.0 (0)
 -->
<!-- Title: src/Geometry/HitRecord/HitRecord.hpp Pages: 1 -->
<svg width="499pt" height="313pt"
 viewBox="0.00 0.00 498.50 313.00" xmlns="http://www.w3.org/2000/svg" xmlns:xlink="http://www.w3.org/1999/xlink">

<svg id="main" version="1.1" xmlns="http://www.w3.org/2000/svg" xmlns:xlink="http://www.w3.org/1999/xlink" xml:space="preserve" onload="init(evt)">
<style type="text/css"><![CDATA[
.node, .edge {opacity: 0.7;}
.node.selected, .edge.selected {opacity: 1;}
.edge:hover path { stroke: red; }
.edge:hover polygon { stroke: red; fill: red; }
]]></style>
<script type="application/ecmascript" xlink:href="svg.min.js"/>
<svg id="graph" class="graph">
<g id="graph0" class="graph" transform="scale(1 1) rotate(0) translate(4 309)">
<title>src/Geometry/HitRecord/HitRecord.hpp</title>
<!-- Node1 -->
<g id="Node000001" class="node">
<title>Node1</title>
<g id="a_Node000001"><a xlink:title=" ">
<polygon fill="#999999" stroke="#666666" points="167.5,-305 33.5,-305 33.5,-275 167.5,-275 167.5,-305"/>
<text text-anchor="start" x="41.5" y="-293" font-family="Helvetica,sans-Serif" font-size="10.00">src/Geometry/HitRecord</text>
<text text-anchor="middle" x="100.5" y="-282" font-family="Helvetica,sans-Serif" font-size="10.00">/HitRecord.hpp</text>
</a>
</g>
</g>
<!-- Node2 -->
<g id="Node000002" class="node">
<title>Node2</title>
<g id="a_Node000002"><a xlink:href="ILight_8hpp.html" target="_top" xlink:title=" ">
<polygon fill="white" stroke="#666666" points="163,-101.5 44,-101.5 44,-71.5 163,-71.5 163,-101.5"/>
<text text-anchor="start" x="52" y="-89.5" font-family="Helvetica,sans-Serif" font-size="10.00">src/Objects/Abstracts</text>
<text text-anchor="middle" x="103.5" y="-78.5" font-family="Helvetica,sans-Serif" font-size="10.00">/ILight.hpp</text>
</a>
</g>
</g>
<!-- Node1&#45;&gt;Node2 -->
<g id="edge1_Node000001_Node000002" class="edge">
<title>Node1&#45;&gt;Node2</title>
<g id="a_edge1_Node000001_Node000002"><a xlink:title=" ">
<path fill="none" stroke="#63b8ff" d="M84.6,-266.36C79.72,-258.13 74.98,-248.51 72.5,-239 59.49,-189.12 83.43,-128.84 96.22,-101.82"/>
<polygon fill="#63b8ff" stroke="#63b8ff" points="81.75,-268.4 90.06,-274.97 87.66,-264.65 81.75,-268.4"/>
</a>
</g>
</g>
<!-- Node3 -->
<g id="Node000003" class="node">
<title>Node3</title>
<g id="a_Node000003"><a xlink:href="IMaterial_8hpp.html" target="_top" xlink:title=" ">
<polygon fill="white" stroke="#666666" points="119,-30 0,-30 0,0 119,0 119,-30"/>
<text text-anchor="start" x="8" y="-18" font-family="Helvetica,sans-Serif" font-size="10.00">src/Objects/Abstracts</text>
<text text-anchor="middle" x="59.5" y="-7" font-family="Helvetica,sans-Serif" font-size="10.00">/IMaterial.hpp</text>
</a>
</g>
</g>
<!-- Node1&#45;&gt;Node3 -->
<g id="edge3_Node000001_Node000003" class="edge">
<title>Node1&#45;&gt;Node3</title>
<g id="a_edge3_Node000001_Node000003"><a xlink:title=" ">
<path fill="none" stroke="#63b8ff" d="M82.07,-266.57C76.05,-258.31 69.8,-248.62 65.5,-239 40.89,-183.99 41.43,-166.86 34.5,-107 32.4,-88.9 30.31,-83.73 34.5,-66 37.53,-53.15 44.4,-39.85 50.17,-30.19"/>
<polygon fill="#63b8ff" stroke="#63b8ff" points="79.34,-268.75 88.18,-274.59 84.9,-264.51 79.34,-268.75"/>
</a>
</g>
</g>
<!-- Node4 -->
<g id="Node000004" class="node">
<title>Node4</title>
<g id="a_Node000004"><a xlink:href="FlatColor_8hpp.html" target="_top" xlink:title=" ">
<polygon fill="white" stroke="#666666" points="215,-239 82,-239 82,-209 215,-209 215,-239"/>
<text text-anchor="start" x="90" y="-227" font-family="Helvetica,sans-Serif" font-size="10.00">src/Objects/Plugins</text>
<text text-anchor="middle" x="148.5" y="-216" font-family="Helvetica,sans-Serif" font-size="10.00">/Materials/FlatColor.hpp</text>
</a>
</g>
</g>
<!-- Node1&#45;&gt;Node4 -->
<g id="edge4_Node000001_Node000004" class="edge">
<title>Node1&#45;&gt;Node4</title>
<g id="a_edge4_Node000001_Node000004"><a xlink:title=" ">
<path fill="none" stroke="#63b8ff" d="M117.36,-266.53C124.18,-257.43 131.85,-247.19 137.88,-239.16"/>
<polygon fill="#63b8ff" stroke="#63b8ff" points="114.35,-264.7 111.15,-274.8 119.95,-268.9 114.35,-264.7"/>
</a>
</g>
</g>
<!-- Node5 -->
<g id="Node000005" class="node">
<title>Node5</title>
<g id="a_Node000005"><a xlink:href="SceneSystem_2Camera_2Camera_8hpp.html" target="_top" xlink:title=" ">
<polygon fill="white" stroke="#666666" points="374,-239 233,-239 233,-209 374,-209 374,-239"/>
<text text-anchor="start" x="241" y="-227" font-family="Helvetica,sans-Serif" font-size="10.00">src/SceneSystem/Camera</text>
<text text-anchor="middle" x="303.5" y="-216" font-family="Helvetica,sans-Serif" font-size="10.00">/Camera.hpp</text>
</a>
</g>
</g>
<!-- Node1&#45;&gt;Node5 -->
<g id="edge5_Node000001_Node000005" class="edge">
<title>Node1&#45;&gt;Node5</title>
<g id="a_edge5_Node000001_Node000005"><a xlink:title=" ">
<path fill="none" stroke="#63b8ff" d="M154.88,-271.86C187.47,-261.58 228.4,-248.68 259.05,-239.01"/>
<polygon fill="#63b8ff" stroke="#63b8ff" points="153.53,-268.61 145.05,-274.95 155.64,-275.29 153.53,-268.61"/>
</a>
</g>
</g>
<!-- Node2&#45;&gt;Node3 -->
<g id="edge2_Node000002_Node000003" class="edge">
<title>Node2&#45;&gt;Node3</title>
<g id="a_edge2_Node000002_Node000003"><a xlink:title=" ">
<path fill="none" stroke="#63b8ff" d="M89.18,-62.88C82.33,-52.07 74.35,-39.46 68.39,-30.04"/>
<polygon fill="#63b8ff" stroke="#63b8ff" points="86.29,-64.86 94.6,-71.44 92.2,-61.11 86.29,-64.86"/>
</a>
</g>
</g>
<!-- Node6 -->
<g id="Node000006" class="node">
<title>Node6</title>
<g id="a_Node000006"><a xlink:href="Scene_8hpp.html" target="_top" xlink:title=" ">
<polygon fill="white" stroke="#666666" points="354.5,-173 222.5,-173 222.5,-143 354.5,-143 354.5,-173"/>
<text text-anchor="start" x="230.5" y="-161" font-family="Helvetica,sans-Serif" font-size="10.00">src/SceneSystem/Scene</text>
<text text-anchor="middle" x="288.5" y="-150" font-family="Helvetica,sans-Serif" font-size="10.00">/Scene.hpp</text>
</a>
</g>
</g>
<!-- Node5&#45;&gt;Node6 -->
<g id="edge6_Node000005_Node000006" class="edge">
<title>Node5&#45;&gt;Node6</title>
<g id="a_edge6_Node000005_Node000006"><a xlink:title=" ">
<path fill="none" stroke="#63b8ff" d="M297.83,-198.83C295.81,-190.17 293.59,-180.7 291.82,-173.16"/>
<polygon fill="#63b8ff" stroke="#63b8ff" points="294.48,-199.86 300.17,-208.8 301.3,-198.26 294.48,-199.86"/>
</a>
</g>
</g>
<!-- Node6&#45;&gt;Node2 -->
<g id="edge7_Node000006_Node000002" class="edge">
<title>Node6&#45;&gt;Node2</title>
<g id="a_edge7_Node000006_Node000002"><a xlink:title=" ">
<path fill="none" stroke="#63b8ff" d="M241.69,-139.42C210.46,-127.68 169.95,-112.47 140.88,-101.54"/>
<polygon fill="#63b8ff" stroke="#63b8ff" points="240.47,-142.7 251.06,-142.94 242.93,-136.14 240.47,-142.7"/>
</a>
</g>
</g>
<!-- Node7 -->
<g id="Node000007" class="node">
<title>Node7</title>
<g id="a_Node000007"><a xlink:href="SceneWriter_8cpp.html" target="_top" xlink:title=" ">
<polygon fill="white" stroke="#666666" points="340,-107 209,-107 209,-66 340,-66 340,-107"/>
<text text-anchor="start" x="217" y="-95" font-family="Helvetica,sans-Serif" font-size="10.00">src/Objects/Plugins</text>
<text text-anchor="start" x="217" y="-84" font-family="Helvetica,sans-Serif" font-size="10.00">/Interfaces/SceneWriter</text>
<text text-anchor="middle" x="274.5" y="-73" font-family="Helvetica,sans-Serif" font-size="10.00">/SceneWriter.cpp</text>
</a>
</g>
</g>
<!-- Node6&#45;&gt;Node7 -->
<g id="edge8_Node000006_Node000007" class="edge">
<title>Node6&#45;&gt;Node7</title>
<g id="a_edge8_Node000006_Node000007"><a xlink:title=" ">
<path fill="none" stroke="#63b8ff" d="M283.65,-132.91C281.95,-124.47 280.06,-115.1 278.44,-107.07"/>
<polygon fill="#63b8ff" stroke="#63b8ff" points="280.26,-133.82 285.67,-142.94 287.12,-132.44 280.26,-133.82"/>
</a>
</g>
</g>
<!-- Node8 -->
<g id="Node000008" class="node">
<title>Node8</title>
<g id="a_Node000008"><a xlink:href="Scene_8cpp.html" target="_top" xlink:title=" ">
<polygon fill="white" stroke="#666666" points="490.5,-101.5 358.5,-101.5 358.5,-71.5 490.5,-71.5 490.5,-101.5"/>
<text text-anchor="start" x="366.5" y="-89.5" font-family="Helvetica,sans-Serif" font-size="10.00">src/SceneSystem/Scene</text>
<text text-anchor="middle" x="424.5" y="-78.5" font-family="Helvetica,sans-Serif" font-size="10.00">/Scene.cpp</text>
</a>
</g>
</g>
<!-- Node6&#45;&gt;Node8 -->
<g id="edge9_Node000006_Node000008" class="edge">
<title>Node6&#45;&gt;Node8</title>
<g id="a_edge9_Node000006_Node000008"><a xlink:title=" ">
<path fill="none" stroke="#63b8ff" d="M325.01,-138.34C347.66,-126.77 376.29,-112.14 397.02,-101.54"/>
<polygon fill="#63b8ff" stroke="#63b8ff" points="323.33,-135.27 316.02,-142.94 326.52,-141.5 323.33,-135.27"/>
</a>
</g>
</g>
</g>
</svg>
</svg>

<style type='text/css'>
<![CDATA[
[data-mouse-over-selected='false'] { opacity: 0.7; }
[data-mouse-over-selected='true']  { opacity: 1.0; }
]]>
</style>
<script type="application/ecmascript"><![CDATA[
document.addEventListener('DOMContentLoaded', (event) => {
  highlightEdges();
  highlightAdjacentNodes();
});
]]></script>
</svg>
