<?xml version="1.0" encoding="UTF-8" standalone="no"?>
<!DOCTYPE svg PUBLIC "-//W3C//DTD SVG 1.1//EN"
 "http://www.w3.org/Graphics/SVG/1.1/DTD/svg11.dtd">
<!-- Generated by graphviz version 2.43.0 (0)
 -->
<!-- Title: src/Geometry/HitRecord/HitRecord.hpp Pages: 1 -->
<svg width="674pt" height="302pt"
 viewBox="0.00 0.00 674.00 302.00" xmlns="http://www.w3.org/2000/svg" xmlns:xlink="http://www.w3.org/1999/xlink">
<g id="graph0" class="graph" transform="scale(1 1) rotate(0) translate(4 298)">
<title>src/Geometry/HitRecord/HitRecord.hpp</title>
<!-- Node1 -->
<g id="Node000001" class="node">
<title>Node1</title>
<g id="a_Node000001"><a xlink:title=" ">
<polygon fill="#999999" stroke="#666666" points="378,-294 244,-294 244,-264 378,-264 378,-294"/>
<text text-anchor="start" x="252" y="-282" font-family="Helvetica,sans-Serif" font-size="10.00">src/Geometry/HitRecord</text>
<text text-anchor="middle" x="311" y="-271" font-family="Helvetica,sans-Serif" font-size="10.00">/HitRecord.hpp</text>
</a>
</g>
</g>
<!-- Node2 -->
<g id="Node000002" class="node">
<title>Node2</title>
<g id="a_Node000002"><a xlink:href="AMaterial_8hpp.html" target="_top" xlink:title=" ">
<polygon fill="white" stroke="#666666" points="138,-228 0,-228 0,-198 138,-198 138,-228"/>
<text text-anchor="start" x="8" y="-216" font-family="Helvetica,sans-Serif" font-size="10.00">src/Objects/Abstract</text>
<text text-anchor="middle" x="69" y="-205" font-family="Helvetica,sans-Serif" font-size="10.00">/AMaterial/AMaterial.hpp</text>
</a>
</g>
</g>
<!-- Node1&#45;&gt;Node2 -->
<g id="edge1_Node000001_Node000002" class="edge">
<title>Node1&#45;&gt;Node2</title>
<g id="a_edge1_Node000001_Node000002"><a xlink:title=" ">
<path fill="none" stroke="#63b8ff" d="M248.18,-261.39C209,-251.03 159.15,-237.84 121.98,-228.01"/>
<polygon fill="#63b8ff" stroke="#63b8ff" points="247.33,-264.78 257.89,-263.95 249.12,-258.01 247.33,-264.78"/>
</a>
</g>
</g>
<!-- Node3 -->
<g id="Node000003" class="node">
<title>Node3</title>
<g id="a_Node000003"><a xlink:href="ILight_8hpp.html" target="_top" xlink:title=" ">
<polygon fill="white" stroke="#666666" points="510.5,-228 393.5,-228 393.5,-198 510.5,-198 510.5,-228"/>
<text text-anchor="start" x="401.5" y="-216" font-family="Helvetica,sans-Serif" font-size="10.00">src/Objects/Interface</text>
<text text-anchor="middle" x="452" y="-205" font-family="Helvetica,sans-Serif" font-size="10.00">/ILight.hpp</text>
</a>
</g>
</g>
<!-- Node1&#45;&gt;Node3 -->
<g id="edge2_Node000001_Node000003" class="edge">
<title>Node1&#45;&gt;Node3</title>
<g id="a_edge2_Node000001_Node000003"><a xlink:title=" ">
<path fill="none" stroke="#63b8ff" d="M351.13,-259.78C373.36,-249.69 400.57,-237.34 421.13,-228.01"/>
<polygon fill="#63b8ff" stroke="#63b8ff" points="349.6,-256.63 341.94,-263.95 352.5,-263.01 349.6,-256.63"/>
</a>
</g>
</g>
<!-- Node4 -->
<g id="Node000004" class="node">
<title>Node4</title>
<g id="a_Node000004"><a xlink:href="IMaterial_8hpp.html" target="_top" xlink:title=" ">
<polygon fill="white" stroke="#666666" points="367.5,-162 250.5,-162 250.5,-132 367.5,-132 367.5,-162"/>
<text text-anchor="start" x="258.5" y="-150" font-family="Helvetica,sans-Serif" font-size="10.00">src/Objects/Interface</text>
<text text-anchor="middle" x="309" y="-139" font-family="Helvetica,sans-Serif" font-size="10.00">/IMaterial.hpp</text>
</a>
</g>
</g>
<!-- Node1&#45;&gt;Node4 -->
<g id="edge16_Node000001_Node000004" class="edge">
<title>Node1&#45;&gt;Node4</title>
<g id="a_edge16_Node000001_Node000004"><a xlink:title=" ">
<path fill="none" stroke="#63b8ff" d="M305.22,-253.68C302.72,-226.7 302.4,-184.11 304.82,-162.14"/>
<polygon fill="#63b8ff" stroke="#63b8ff" points="301.77,-254.3 306.38,-263.84 308.73,-253.51 301.77,-254.3"/>
</a>
</g>
</g>
<!-- Node13 -->
<g id="Node000013" class="node">
<title>Node13</title>
<g id="a_Node000013"><a xlink:href="IPrimitive_8hpp.html" target="_top" xlink:title=" ">
<polygon fill="white" stroke="#666666" points="273.5,-228 156.5,-228 156.5,-198 273.5,-198 273.5,-228"/>
<text text-anchor="start" x="164.5" y="-216" font-family="Helvetica,sans-Serif" font-size="10.00">src/Objects/Interface</text>
<text text-anchor="middle" x="215" y="-205" font-family="Helvetica,sans-Serif" font-size="10.00">/IPrimitive.hpp</text>
</a>
</g>
</g>
<!-- Node1&#45;&gt;Node13 -->
<g id="edge17_Node000001_Node000013" class="edge">
<title>Node1&#45;&gt;Node13</title>
<g id="a_edge17_Node000001_Node000013"><a xlink:title=" ">
<path fill="none" stroke="#63b8ff" d="M281.04,-258.03C266.51,-248.34 249.41,-236.94 236.25,-228.16"/>
<polygon fill="#63b8ff" stroke="#63b8ff" points="279.43,-261.16 289.69,-263.8 283.32,-255.34 279.43,-261.16"/>
</a>
</g>
</g>
<!-- Node3&#45;&gt;Node4 -->
<g id="edge3_Node000003_Node000004" class="edge">
<title>Node3&#45;&gt;Node4</title>
<g id="a_edge3_Node000003_Node000004"><a xlink:title=" ">
<path fill="none" stroke="#63b8ff" d="M411.3,-193.78C388.75,-183.69 361.16,-171.34 340.31,-162.01"/>
<polygon fill="#63b8ff" stroke="#63b8ff" points="410.06,-197.06 420.62,-197.95 412.92,-190.68 410.06,-197.06"/>
</a>
</g>
</g>
<!-- Node9 -->
<g id="Node000009" class="node">
<title>Node9</title>
<g id="a_Node000009"><a xlink:href="Renderer_8hpp.html" target="_top" xlink:title=" ">
<polygon fill="white" stroke="#666666" points="666,-90.5 520,-90.5 520,-71.5 666,-71.5 666,-90.5"/>
<text text-anchor="middle" x="593" y="-78.5" font-family="Helvetica,sans-Serif" font-size="10.00">src/Renderer/Renderer.hpp</text>
</a>
</g>
</g>
<!-- Node3&#45;&gt;Node9 -->
<g id="edge11_Node000003_Node000009" class="edge">
<title>Node3&#45;&gt;Node9</title>
<g id="a_edge11_Node000003_Node000009"><a xlink:title=" ">
<path fill="none" stroke="#63b8ff" d="M485.53,-192.61C499.07,-184.05 514.42,-173.36 527,-162 552.39,-139.07 576.45,-106.11 587.16,-90.64"/>
<polygon fill="#63b8ff" stroke="#63b8ff" points="483.62,-189.68 476.95,-197.92 487.3,-195.64 483.62,-189.68"/>
</a>
</g>
</g>
<!-- Node11 -->
<g id="Node000011" class="node">
<title>Node11</title>
<g id="a_Node000011"><a xlink:href="Scene_8hpp.html" target="_top" xlink:title=" ">
<polygon fill="white" stroke="#666666" points="518,-162 386,-162 386,-132 518,-132 518,-162"/>
<text text-anchor="start" x="394" y="-150" font-family="Helvetica,sans-Serif" font-size="10.00">src/SceneSystem/Scene</text>
<text text-anchor="middle" x="452" y="-139" font-family="Helvetica,sans-Serif" font-size="10.00">/Scene.hpp</text>
</a>
</g>
</g>
<!-- Node3&#45;&gt;Node11 -->
<g id="edge12_Node000003_Node000011" class="edge">
<title>Node3&#45;&gt;Node11</title>
<g id="a_edge12_Node000003_Node000011"><a xlink:title=" ">
<path fill="none" stroke="#63b8ff" d="M445.43,-187.83C445.02,-179.17 445.31,-169.7 446.29,-162.16"/>
<polygon fill="#63b8ff" stroke="#63b8ff" points="441.95,-188.13 446.28,-197.8 448.92,-187.54 441.95,-188.13"/>
</a>
</g>
</g>
<!-- Node4&#45;&gt;Node1 -->
<g id="edge4_Node000004_Node000001" class="edge">
<title>Node4&#45;&gt;Node1</title>
<g id="a_edge4_Node000004_Node000001"><a xlink:title=" ">
<path fill="none" stroke="#63b8ff" d="M314.77,-172.3C317.28,-199.27 317.6,-241.86 315.18,-263.84"/>
<polygon fill="#63b8ff" stroke="#63b8ff" points="318.23,-171.68 313.62,-162.14 311.27,-172.47 318.23,-171.68"/>
</a>
</g>
</g>
<!-- Node5 -->
<g id="Node000005" class="node">
<title>Node5</title>
<g id="a_Node000005"><a xlink:href="APrimitive_8hpp.html" target="_top" xlink:title=" ">
<polygon fill="white" stroke="#666666" points="352,-96 206,-96 206,-66 352,-66 352,-96"/>
<text text-anchor="start" x="214" y="-84" font-family="Helvetica,sans-Serif" font-size="10.00">src/Objects/Abstract</text>
<text text-anchor="middle" x="279" y="-73" font-family="Helvetica,sans-Serif" font-size="10.00">/APrimitive/APrimitive.hpp</text>
</a>
</g>
</g>
<!-- Node4&#45;&gt;Node5 -->
<g id="edge5_Node000004_Node000005" class="edge">
<title>Node4&#45;&gt;Node5</title>
<g id="a_edge5_Node000004_Node000005"><a xlink:title=" ">
<path fill="none" stroke="#63b8ff" d="M298.07,-122.68C293.9,-113.79 289.29,-103.95 285.64,-96.16"/>
<polygon fill="#63b8ff" stroke="#63b8ff" points="294.93,-124.23 302.34,-131.8 301.27,-121.26 294.93,-124.23"/>
</a>
</g>
</g>
<!-- Node7 -->
<g id="Node000007" class="node">
<title>Node7</title>
<g id="a_Node000007"><a xlink:href="Plane_8hpp.html" target="_top" xlink:title=" ">
<polygon fill="white" stroke="#666666" points="187.5,-96 64.5,-96 64.5,-66 187.5,-66 187.5,-96"/>
<text text-anchor="start" x="72.5" y="-84" font-family="Helvetica,sans-Serif" font-size="10.00">src/Objects/Primitives</text>
<text text-anchor="middle" x="126" y="-73" font-family="Helvetica,sans-Serif" font-size="10.00">/Plane/Plane.hpp</text>
</a>
</g>
</g>
<!-- Node4&#45;&gt;Node7 -->
<g id="edge7_Node000004_Node000007" class="edge">
<title>Node4&#45;&gt;Node7</title>
<g id="a_edge7_Node000004_Node000007"><a xlink:title=" ">
<path fill="none" stroke="#63b8ff" d="M259.22,-128.59C229.96,-118.36 193.46,-105.59 166.07,-96.01"/>
<polygon fill="#63b8ff" stroke="#63b8ff" points="258.25,-131.96 268.84,-131.95 260.56,-125.35 258.25,-131.96"/>
</a>
</g>
</g>
<!-- Node4&#45;&gt;Node9 -->
<g id="edge9_Node000004_Node000009" class="edge">
<title>Node4&#45;&gt;Node9</title>
<g id="a_edge9_Node000004_Node000009"><a xlink:title=" ">
<path fill="none" stroke="#63b8ff" d="M377.3,-130.61C433,-118.06 509.63,-100.79 554.98,-90.57"/>
<polygon fill="#63b8ff" stroke="#63b8ff" points="376.49,-127.2 367.5,-132.82 378.03,-134.03 376.49,-127.2"/>
</a>
</g>
</g>
<!-- Node6 -->
<g id="Node000006" class="node">
<title>Node6</title>
<g id="a_Node000006"><a xlink:href="APrimitive_8cpp.html" target="_top" xlink:title=" ">
<polygon fill="white" stroke="#666666" points="351.5,-30 206.5,-30 206.5,0 351.5,0 351.5,-30"/>
<text text-anchor="start" x="214.5" y="-18" font-family="Helvetica,sans-Serif" font-size="10.00">src/Objects/Abstract</text>
<text text-anchor="middle" x="279" y="-7" font-family="Helvetica,sans-Serif" font-size="10.00">/APrimitive/APrimitive.cpp</text>
</a>
</g>
</g>
<!-- Node5&#45;&gt;Node6 -->
<g id="edge6_Node000005_Node000006" class="edge">
<title>Node5&#45;&gt;Node6</title>
<g id="a_edge6_Node000005_Node000006"><a xlink:title=" ">
<path fill="none" stroke="#63b8ff" d="M279,-55.54C279,-46.96 279,-37.61 279,-30.16"/>
<polygon fill="#63b8ff" stroke="#63b8ff" points="275.5,-55.8 279,-65.8 282.5,-55.8 275.5,-55.8"/>
</a>
</g>
</g>
<!-- Node8 -->
<g id="Node000008" class="node">
<title>Node8</title>
<g id="a_Node000008"><a xlink:href="Plane_8cpp.html" target="_top" xlink:title=" ">
<polygon fill="white" stroke="#666666" points="187.5,-30 64.5,-30 64.5,0 187.5,0 187.5,-30"/>
<text text-anchor="start" x="72.5" y="-18" font-family="Helvetica,sans-Serif" font-size="10.00">src/Objects/Primitives</text>
<text text-anchor="middle" x="126" y="-7" font-family="Helvetica,sans-Serif" font-size="10.00">/Plane/Plane.cpp</text>
</a>
</g>
</g>
<!-- Node7&#45;&gt;Node8 -->
<g id="edge8_Node000007_Node000008" class="edge">
<title>Node7&#45;&gt;Node8</title>
<g id="a_edge8_Node000007_Node000008"><a xlink:title=" ">
<path fill="none" stroke="#63b8ff" d="M126,-55.54C126,-46.96 126,-37.61 126,-30.16"/>
<polygon fill="#63b8ff" stroke="#63b8ff" points="122.5,-55.8 126,-65.8 129.5,-55.8 122.5,-55.8"/>
</a>
</g>
</g>
<!-- Node10 -->
<g id="Node000010" class="node">
<title>Node10</title>
<g id="a_Node000010"><a xlink:href="Renderer_8cpp.html" target="_top" xlink:title=" ">
<polygon fill="white" stroke="#666666" points="665.5,-24.5 520.5,-24.5 520.5,-5.5 665.5,-5.5 665.5,-24.5"/>
<text text-anchor="middle" x="593" y="-12.5" font-family="Helvetica,sans-Serif" font-size="10.00">src/Renderer/Renderer.cpp</text>
</a>
</g>
</g>
<!-- Node9&#45;&gt;Node10 -->
<g id="edge10_Node000009_Node000010" class="edge">
<title>Node9&#45;&gt;Node10</title>
<g id="a_edge10_Node000009_Node000010"><a xlink:title=" ">
<path fill="none" stroke="#63b8ff" d="M593,-61.08C593,-49.13 593,-34.22 593,-24.91"/>
<polygon fill="#63b8ff" stroke="#63b8ff" points="589.5,-61.37 593,-71.37 596.5,-61.37 589.5,-61.37"/>
</a>
</g>
</g>
<!-- Node11&#45;&gt;Node3 -->
<g id="edge13_Node000011_Node000003" class="edge">
<title>Node11&#45;&gt;Node3</title>
<g id="a_edge13_Node000011_Node000003"><a xlink:title=" ">
<path fill="none" stroke="#63b8ff" d="M458.57,-172.13C458.98,-180.78 458.7,-190.26 457.72,-197.8"/>
<polygon fill="#63b8ff" stroke="#63b8ff" points="462.05,-171.83 457.71,-162.16 455.08,-172.43 462.05,-171.83"/>
</a>
</g>
</g>
<!-- Node11&#45;&gt;Node9 -->
<g id="edge14_Node000011_Node000009" class="edge">
<title>Node11&#45;&gt;Node9</title>
<g id="a_edge14_Node000011_Node000009"><a xlink:title=" ">
<path fill="none" stroke="#63b8ff" d="M492.14,-127.78C519.1,-115.54 553.38,-99.98 574.24,-90.52"/>
<polygon fill="#63b8ff" stroke="#63b8ff" points="490.6,-124.63 482.94,-131.95 493.5,-131.01 490.6,-124.63"/>
</a>
</g>
</g>
<!-- Node12 -->
<g id="Node000012" class="node">
<title>Node12</title>
<g id="a_Node000012"><a xlink:href="Scene_8cpp.html" target="_top" xlink:title=" ">
<polygon fill="white" stroke="#666666" points="502,-96 370,-96 370,-66 502,-66 502,-96"/>
<text text-anchor="start" x="378" y="-84" font-family="Helvetica,sans-Serif" font-size="10.00">src/SceneSystem/Scene</text>
<text text-anchor="middle" x="436" y="-73" font-family="Helvetica,sans-Serif" font-size="10.00">/Scene.cpp</text>
</a>
</g>
</g>
<!-- Node11&#45;&gt;Node12 -->
<g id="edge15_Node000011_Node000012" class="edge">
<title>Node11&#45;&gt;Node12</title>
<g id="a_edge15_Node000011_Node000012"><a xlink:title=" ">
<path fill="none" stroke="#63b8ff" d="M445.96,-121.83C443.79,-113.17 441.42,-103.7 439.54,-96.16"/>
<polygon fill="#63b8ff" stroke="#63b8ff" points="442.63,-122.94 448.45,-131.8 449.42,-121.25 442.63,-122.94"/>
</a>
</g>
</g>
<!-- Node13&#45;&gt;Node5 -->
<g id="edge18_Node000013_Node000005" class="edge">
<title>Node13&#45;&gt;Node5</title>
<g id="a_edge18_Node000013_Node000005"><a xlink:title=" ">
<path fill="none" stroke="#63b8ff" d="M220.54,-187.99C224.85,-171.65 231.67,-149.83 241,-132 247.77,-119.05 257.87,-105.96 265.95,-96.42"/>
<polygon fill="#63b8ff" stroke="#63b8ff" points="217.11,-187.29 218.07,-197.85 223.9,-189 217.11,-187.29"/>
</a>
</g>
</g>
<!-- Node13&#45;&gt;Node7 -->
<g id="edge19_Node000013_Node000007" class="edge">
<title>Node13&#45;&gt;Node7</title>
<g id="a_edge19_Node000013_Node000007"><a xlink:title=" ">
<path fill="none" stroke="#63b8ff" d="M199.56,-189.45C181.19,-162.61 151.06,-118.6 135.68,-96.14"/>
<polygon fill="#63b8ff" stroke="#63b8ff" points="196.77,-191.57 205.31,-197.84 202.54,-187.61 196.77,-191.57"/>
</a>
</g>
</g>
<!-- Node13&#45;&gt;Node11 -->
<g id="edge20_Node000013_Node000011" class="edge">
<title>Node13&#45;&gt;Node11</title>
<g id="a_edge20_Node000013_Node000011"><a xlink:title=" ">
<path fill="none" stroke="#63b8ff" d="M277.01,-195.25C315.3,-184.91 363.86,-171.8 400.11,-162.01"/>
<polygon fill="#63b8ff" stroke="#63b8ff" points="275.75,-191.97 267.01,-197.95 277.58,-198.73 275.75,-191.97"/>
</a>
</g>
</g>
</g>
</svg>
