<?xml version="1.0" encoding="UTF-8" standalone="no"?>
<!DOCTYPE svg PUBLIC "-//W3C//DTD SVG 1.1//EN"
 "http://www.w3.org/Graphics/SVG/1.1/DTD/svg11.dtd">
<!-- Generated by graphviz version 2.43.0 (0)
 -->
<!-- Title: src/Geometry/HitRecord/HitRecord.hpp Pages: 1 -->
<svg width="560pt" height="522pt"
 viewBox="0.00 0.00 560.00 522.00" xmlns="http://www.w3.org/2000/svg" xmlns:xlink="http://www.w3.org/1999/xlink">
<g id="graph0" class="graph" transform="scale(1 1) rotate(0) translate(4 518)">
<title>src/Geometry/HitRecord/HitRecord.hpp</title>
<!-- Node1 -->
<g id="Node000001" class="node">
<title>Node1</title>
<g id="a_Node000001"><a xlink:title=" ">
<polygon fill="#999999" stroke="#666666" points="211,-514 77,-514 77,-484 211,-484 211,-514"/>
<text text-anchor="start" x="85" y="-502" font-family="Helvetica,sans-Serif" font-size="10.00">src/Geometry/HitRecord</text>
<text text-anchor="middle" x="144" y="-491" font-family="Helvetica,sans-Serif" font-size="10.00">/HitRecord.hpp</text>
</a>
</g>
</g>
<!-- Node2 -->
<g id="Node000002" class="node">
<title>Node2</title>
<g id="a_Node000002"><a xlink:href="Point3D_8hpp.html" target="_top" xlink:title=" ">
<polygon fill="white" stroke="#666666" points="339,-129 213,-129 213,-110 339,-110 339,-129"/>
<text text-anchor="middle" x="276" y="-117" font-family="Helvetica,sans-Serif" font-size="10.00">../Point3D/Point3D.hpp</text>
</a>
</g>
</g>
<!-- Node1&#45;&gt;Node2 -->
<g id="edge1_Node000001_Node000002" class="edge">
<title>Node1&#45;&gt;Node2</title>
<g id="a_edge1_Node000001_Node000002"><a xlink:title=" ">
<path fill="none" stroke="#63b8ff" d="M119.68,-483.93C88.39,-463.8 38,-423.6 38,-373.5 38,-373.5 38,-373.5 38,-245 38,-208.46 30.74,-190.41 57,-165 77.6,-145.06 147.41,-133.31 202.75,-126.94"/>
<polygon fill="#63b8ff" stroke="#63b8ff" points="203.34,-130.4 212.9,-125.82 202.57,-123.44 203.34,-130.4"/>
</a>
</g>
</g>
<!-- Node3 -->
<g id="Node000003" class="node">
<title>Node3</title>
<g id="a_Node000003"><a xlink:href="Vector3D_8hpp.html" target="_top" xlink:title=" ">
<polygon fill="white" stroke="#666666" points="345,-74 207,-74 207,-55 345,-55 345,-74"/>
<text text-anchor="middle" x="276" y="-62" font-family="Helvetica,sans-Serif" font-size="10.00">../Vector3D/Vector3D.hpp</text>
</a>
</g>
</g>
<!-- Node1&#45;&gt;Node3 -->
<g id="edge4_Node000001_Node000003" class="edge">
<title>Node1&#45;&gt;Node3</title>
<g id="a_edge4_Node000001_Node000003"><a xlink:title=" ">
<path fill="none" stroke="#63b8ff" d="M105.41,-483.99C62.76,-465.72 0,-429.35 0,-373.5 0,-373.5 0,-373.5 0,-179 0,-93.42 114.91,-71.02 196.44,-65.91"/>
<polygon fill="#63b8ff" stroke="#63b8ff" points="196.92,-69.39 206.71,-65.34 196.53,-62.4 196.92,-69.39"/>
</a>
</g>
</g>
<!-- Node5 -->
<g id="Node000005" class="node">
<title>Node5</title>
<g id="a_Node000005"><a xlink:href="IMaterial_8hpp.html" target="_top" xlink:title=" ">
<polygon fill="white" stroke="#666666" points="309,-448 191,-448 191,-418 309,-418 309,-448"/>
<text text-anchor="start" x="199" y="-436" font-family="Helvetica,sans-Serif" font-size="10.00">../../Objects/Interface</text>
<text text-anchor="middle" x="250" y="-425" font-family="Helvetica,sans-Serif" font-size="10.00">/IMaterial.hpp</text>
</a>
</g>
</g>
<!-- Node1&#45;&gt;Node5 -->
<g id="edge5_Node000001_Node000005" class="edge">
<title>Node1&#45;&gt;Node5</title>
<g id="a_edge5_Node000001_Node000005"><a xlink:title=" ">
<path fill="none" stroke="#63b8ff" d="M161.8,-483.8C175.59,-474.76 194.97,-462.96 212.11,-453.11"/>
<polygon fill="#63b8ff" stroke="#63b8ff" points="213.86,-456.14 220.83,-448.16 210.4,-450.06 213.86,-456.14"/>
</a>
</g>
</g>
<!-- Node2&#45;&gt;Node3 -->
<g id="edge2_Node000002_Node000003" class="edge">
<title>Node2&#45;&gt;Node3</title>
<g id="a_edge2_Node000002_Node000003"><a xlink:title=" ">
<path fill="none" stroke="#63b8ff" d="M276,-109.75C276,-102.8 276,-92.85 276,-84.13"/>
<polygon fill="#63b8ff" stroke="#63b8ff" points="279.5,-84.09 276,-74.09 272.5,-84.09 279.5,-84.09"/>
</a>
</g>
</g>
<!-- Node4 -->
<g id="Node000004" class="node">
<title>Node4</title>
<g id="a_Node000004"><a xlink:title=" ">
<polygon fill="#e0e0e0" stroke="#999999" points="301.5,-19 250.5,-19 250.5,0 301.5,0 301.5,-19"/>
<text text-anchor="middle" x="276" y="-7" font-family="Helvetica,sans-Serif" font-size="10.00">math.h</text>
</a>
</g>
</g>
<!-- Node3&#45;&gt;Node4 -->
<g id="edge3_Node000003_Node000004" class="edge">
<title>Node3&#45;&gt;Node4</title>
<g id="a_edge3_Node000003_Node000004"><a xlink:title=" ">
<path fill="none" stroke="#63b8ff" d="M276,-54.75C276,-47.8 276,-37.85 276,-29.13"/>
<polygon fill="#63b8ff" stroke="#63b8ff" points="279.5,-29.09 276,-19.09 272.5,-29.09 279.5,-29.09"/>
</a>
</g>
</g>
<!-- Node5&#45;&gt;Node1 -->
<g id="edge6_Node000005_Node000001" class="edge">
<title>Node5&#45;&gt;Node1</title>
<g id="a_edge6_Node000005_Node000001"><a xlink:title=" ">
<path fill="none" stroke="#63b8ff" d="M232.49,-448.01C218.65,-457.09 199.05,-469.03 181.75,-478.97"/>
<polygon fill="#63b8ff" stroke="#63b8ff" points="179.93,-475.98 172.96,-483.95 183.39,-482.07 179.93,-475.98"/>
</a>
</g>
</g>
<!-- Node6 -->
<g id="Node000006" class="node">
<title>Node6</title>
<g id="a_Node000006"><a xlink:href="Color_8hpp.html" target="_top" xlink:title=" ">
<polygon fill="white" stroke="#666666" points="469,-321.5 363,-321.5 363,-302.5 469,-302.5 469,-321.5"/>
<text text-anchor="middle" x="416" y="-309.5" font-family="Helvetica,sans-Serif" font-size="10.00">../../Utils/Color.hpp</text>
</a>
</g>
</g>
<!-- Node5&#45;&gt;Node6 -->
<g id="edge7_Node000005_Node000006" class="edge">
<title>Node5&#45;&gt;Node6</title>
<g id="a_edge7_Node000005_Node000006"><a xlink:title=" ">
<path fill="none" stroke="#63b8ff" d="M284.61,-417.95C304.39,-409.1 329.14,-396.6 349,-382 369.92,-366.62 390.14,-344.47 402.8,-329.45"/>
<polygon fill="#63b8ff" stroke="#63b8ff" points="405.66,-331.47 409.32,-321.53 400.26,-327.02 405.66,-331.47"/>
</a>
</g>
</g>
<!-- Node8 -->
<g id="Node000008" class="node">
<title>Node8</title>
<g id="a_Node000008"><a xlink:href="ILight_8hpp.html" target="_top" xlink:title=" ">
<polygon fill="white" stroke="#666666" points="272.5,-382 207.5,-382 207.5,-363 272.5,-363 272.5,-382"/>
<text text-anchor="middle" x="240" y="-370" font-family="Helvetica,sans-Serif" font-size="10.00">ILight.hpp</text>
</a>
</g>
</g>
<!-- Node5&#45;&gt;Node8 -->
<g id="edge9_Node000005_Node000008" class="edge">
<title>Node5&#45;&gt;Node8</title>
<g id="a_edge9_Node000005_Node000008"><a xlink:title=" ">
<path fill="none" stroke="#63b8ff" d="M247.58,-417.84C246.26,-410.13 244.61,-400.49 243.19,-392.17"/>
<polygon fill="#63b8ff" stroke="#63b8ff" points="246.63,-391.53 241.5,-382.27 239.73,-392.71 246.63,-391.53"/>
</a>
</g>
</g>
<!-- Node15 -->
<g id="Node000015" class="node">
<title>Node15</title>
<g id="a_Node000015"><a xlink:title=" ">
<polygon fill="#e0e0e0" stroke="#999999" points="469.5,-255.5 422.5,-255.5 422.5,-236.5 469.5,-236.5 469.5,-255.5"/>
<text text-anchor="middle" x="446" y="-243.5" font-family="Helvetica,sans-Serif" font-size="10.00">vector</text>
</a>
</g>
</g>
<!-- Node5&#45;&gt;Node15 -->
<g id="edge29_Node000005_Node000015" class="edge">
<title>Node5&#45;&gt;Node15</title>
<g id="a_edge29_Node000005_Node000015"><a xlink:title=" ">
<path fill="none" stroke="#63b8ff" d="M259.84,-417.74C281.18,-387.08 331.6,-316.1 354,-297 364.7,-287.88 396.06,-271.52 419.2,-260.01"/>
<polygon fill="#63b8ff" stroke="#63b8ff" points="420.81,-263.12 428.23,-255.56 417.71,-256.84 420.81,-263.12"/>
</a>
</g>
</g>
<!-- Node7 -->
<g id="Node000007" class="node">
<title>Node7</title>
<g id="a_Node000007"><a xlink:title=" ">
<polygon fill="#e0e0e0" stroke="#999999" points="552,-255.5 488,-255.5 488,-236.5 552,-236.5 552,-255.5"/>
<text text-anchor="middle" x="520" y="-243.5" font-family="Helvetica,sans-Serif" font-size="10.00">algorithm</text>
</a>
</g>
</g>
<!-- Node6&#45;&gt;Node7 -->
<g id="edge8_Node000006_Node000007" class="edge">
<title>Node6&#45;&gt;Node7</title>
<g id="a_edge8_Node000006_Node000007"><a xlink:title=" ">
<path fill="none" stroke="#63b8ff" d="M430.03,-302.37C447.24,-291.78 476.66,-273.67 497.15,-261.06"/>
<polygon fill="#63b8ff" stroke="#63b8ff" points="499.18,-263.92 505.86,-255.7 495.51,-257.96 499.18,-263.92"/>
</a>
</g>
</g>
<!-- Node8&#45;&gt;Node1 -->
<g id="edge10_Node000008_Node000001" class="edge">
<title>Node8&#45;&gt;Node1</title>
<g id="a_edge10_Node000008_Node000001"><a xlink:title=" ">
<path fill="none" stroke="#63b8ff" d="M225.07,-382.14C212.3,-390.12 194.13,-403 182,-418 168.39,-434.83 158.26,-457.35 151.89,-474.2"/>
<polygon fill="#63b8ff" stroke="#63b8ff" points="148.51,-473.27 148.42,-483.86 155.1,-475.64 148.51,-473.27"/>
</a>
</g>
</g>
<!-- Node8&#45;&gt;Node6 -->
<g id="edge11_Node000008_Node000006" class="edge">
<title>Node8&#45;&gt;Node6</title>
<g id="a_edge11_Node000008_Node000006"><a xlink:title=" ">
<path fill="none" stroke="#63b8ff" d="M265.59,-362.99C295.96,-352.9 346.76,-336.01 380.82,-324.69"/>
<polygon fill="#63b8ff" stroke="#63b8ff" points="381.99,-327.99 390.38,-321.52 379.78,-321.35 381.99,-327.99"/>
</a>
</g>
</g>
<!-- Node9 -->
<g id="Node000009" class="node">
<title>Node9</title>
<g id="a_Node000009"><a xlink:href="Scene_8hpp.html" target="_top" xlink:title=" ">
<polygon fill="white" stroke="#666666" points="306.5,-327 173.5,-327 173.5,-297 306.5,-297 306.5,-327"/>
<text text-anchor="start" x="181.5" y="-315" font-family="Helvetica,sans-Serif" font-size="10.00">../../SceneSystem/Scene</text>
<text text-anchor="middle" x="240" y="-304" font-family="Helvetica,sans-Serif" font-size="10.00">/Scene.hpp</text>
</a>
</g>
</g>
<!-- Node8&#45;&gt;Node9 -->
<g id="edge12_Node000008_Node000009" class="edge">
<title>Node8&#45;&gt;Node9</title>
<g id="a_edge12_Node000008_Node000009"><a xlink:title=" ">
<path fill="none" stroke="#63b8ff" d="M235.04,-362.87C233.58,-356.11 233.01,-346.35 233.34,-337.26"/>
<polygon fill="#63b8ff" stroke="#63b8ff" points="236.84,-337.36 234.13,-327.11 229.86,-336.81 236.84,-337.36"/>
</a>
</g>
</g>
<!-- Node9&#45;&gt;Node8 -->
<g id="edge26_Node000009_Node000008" class="edge">
<title>Node9&#45;&gt;Node8</title>
<g id="a_edge26_Node000009_Node000008"><a xlink:title=" ">
<path fill="none" stroke="#63b8ff" d="M245.87,-327.11C246.86,-334.87 247.01,-344.58 246.33,-352.93"/>
<polygon fill="#63b8ff" stroke="#63b8ff" points="242.86,-352.48 244.96,-362.87 249.8,-353.44 242.86,-352.48"/>
</a>
</g>
</g>
<!-- Node10 -->
<g id="Node000010" class="node">
<title>Node10</title>
<g id="a_Node000010"><a xlink:href="Camera_8hpp.html" target="_top" xlink:title=" ">
<polygon fill="white" stroke="#666666" points="404,-255.5 278,-255.5 278,-236.5 404,-236.5 404,-255.5"/>
<text text-anchor="middle" x="341" y="-243.5" font-family="Helvetica,sans-Serif" font-size="10.00">../Camera/Camera.hpp</text>
</a>
</g>
</g>
<!-- Node9&#45;&gt;Node10 -->
<g id="edge13_Node000009_Node000010" class="edge">
<title>Node9&#45;&gt;Node10</title>
<g id="a_edge13_Node000009_Node000010"><a xlink:title=" ">
<path fill="none" stroke="#63b8ff" d="M262.42,-296.8C279.19,-286.17 302.01,-271.7 318.75,-261.1"/>
<polygon fill="#63b8ff" stroke="#63b8ff" points="320.76,-263.97 327.34,-255.66 317.02,-258.05 320.76,-263.97"/>
</a>
</g>
</g>
<!-- Node13 -->
<g id="Node000013" class="node">
<title>Node13</title>
<g id="a_Node000013"><a xlink:href="IPrimitive_8hpp.html" target="_top" xlink:title=" ">
<polygon fill="white" stroke="#666666" points="184,-261 66,-261 66,-231 184,-231 184,-261"/>
<text text-anchor="start" x="74" y="-249" font-family="Helvetica,sans-Serif" font-size="10.00">../../Objects/Interface</text>
<text text-anchor="middle" x="125" y="-238" font-family="Helvetica,sans-Serif" font-size="10.00">/IPrimitive.hpp</text>
</a>
</g>
</g>
<!-- Node9&#45;&gt;Node13 -->
<g id="edge22_Node000009_Node000013" class="edge">
<title>Node9&#45;&gt;Node13</title>
<g id="a_edge22_Node000009_Node000013"><a xlink:title=" ">
<path fill="none" stroke="#63b8ff" d="M214.76,-296.95C198.43,-287.87 176.98,-275.93 159.13,-266"/>
<polygon fill="#63b8ff" stroke="#63b8ff" points="160.62,-262.82 150.18,-261.01 157.21,-268.93 160.62,-262.82"/>
</a>
</g>
</g>
<!-- Node9&#45;&gt;Node15 -->
<g id="edge27_Node000009_Node000015" class="edge">
<title>Node9&#45;&gt;Node15</title>
<g id="a_edge27_Node000009_Node000015"><a xlink:title=" ">
<path fill="none" stroke="#63b8ff" d="M294.69,-297C328.99,-287.77 373.96,-274.86 413,-261 414.43,-260.49 415.89,-259.95 417.35,-259.4"/>
<polygon fill="#63b8ff" stroke="#63b8ff" points="418.98,-262.51 426.96,-255.54 416.37,-256.02 418.98,-262.51"/>
</a>
</g>
</g>
<!-- Node16 -->
<g id="Node000016" class="node">
<title>Node16</title>
<g id="a_Node000016"><a xlink:title=" ">
<polygon fill="#e0e0e0" stroke="#999999" points="260,-255.5 202,-255.5 202,-236.5 260,-236.5 260,-255.5"/>
<text text-anchor="middle" x="231" y="-243.5" font-family="Helvetica,sans-Serif" font-size="10.00">memory</text>
</a>
</g>
</g>
<!-- Node9&#45;&gt;Node16 -->
<g id="edge28_Node000009_Node000016" class="edge">
<title>Node9&#45;&gt;Node16</title>
<g id="a_edge28_Node000009_Node000016"><a xlink:title=" ">
<path fill="none" stroke="#63b8ff" d="M238,-296.8C236.72,-287.7 235.05,-275.79 233.66,-265.9"/>
<polygon fill="#63b8ff" stroke="#63b8ff" points="237.1,-265.26 232.24,-255.84 230.17,-266.23 237.1,-265.26"/>
</a>
</g>
</g>
<!-- Node10&#45;&gt;Node2 -->
<g id="edge14_Node000010_Node000002" class="edge">
<title>Node10&#45;&gt;Node2</title>
<g id="a_edge14_Node000010_Node000002"><a xlink:title=" ">
<path fill="none" stroke="#63b8ff" d="M329.95,-236.25C319.16,-227.11 303.07,-211.77 294,-195 284.53,-177.48 279.98,-154.98 277.83,-139.31"/>
<polygon fill="#63b8ff" stroke="#63b8ff" points="281.3,-138.81 276.66,-129.28 274.35,-139.62 281.3,-138.81"/>
</a>
</g>
</g>
<!-- Node10&#45;&gt;Node3 -->
<g id="edge15_Node000010_Node000003" class="edge">
<title>Node10&#45;&gt;Node3</title>
<g id="a_edge15_Node000010_Node000003"><a xlink:title=" ">
<path fill="none" stroke="#63b8ff" d="M388.16,-236.5C411.9,-229.58 438.63,-217.15 453,-195 460.26,-183.81 459.4,-176.7 453,-165 426.46,-116.52 366.04,-90.1 323.19,-76.91"/>
<polygon fill="#63b8ff" stroke="#63b8ff" points="324.1,-73.53 313.52,-74.06 322.12,-80.24 324.1,-73.53"/>
</a>
</g>
</g>
<!-- Node11 -->
<g id="Node000011" class="node">
<title>Node11</title>
<g id="a_Node000011"><a xlink:href="Rectangle3D_8hpp.html" target="_top" xlink:title=" ">
<polygon fill="white" stroke="#666666" points="443.5,-195 302.5,-195 302.5,-165 443.5,-165 443.5,-195"/>
<text text-anchor="start" x="310.5" y="-183" font-family="Helvetica,sans-Serif" font-size="10.00">../../Geometry/Rectangle3</text>
<text text-anchor="middle" x="373" y="-172" font-family="Helvetica,sans-Serif" font-size="10.00">D/Rectangle3D.hpp</text>
</a>
</g>
</g>
<!-- Node10&#45;&gt;Node11 -->
<g id="edge16_Node000010_Node000011" class="edge">
<title>Node10&#45;&gt;Node11</title>
<g id="a_edge16_Node000010_Node000011"><a xlink:title=" ">
<path fill="none" stroke="#63b8ff" d="M345.32,-236.37C349.38,-228.24 355.65,-215.69 361.2,-204.59"/>
<polygon fill="#63b8ff" stroke="#63b8ff" points="364.48,-205.87 365.82,-195.36 358.22,-202.74 364.48,-205.87"/>
</a>
</g>
</g>
<!-- Node12 -->
<g id="Node000012" class="node">
<title>Node12</title>
<g id="a_Node000012"><a xlink:href="Ray_8hpp.html" target="_top" xlink:title=" ">
<polygon fill="white" stroke="#666666" points="245.5,-195 140.5,-195 140.5,-165 245.5,-165 245.5,-195"/>
<text text-anchor="start" x="148.5" y="-183" font-family="Helvetica,sans-Serif" font-size="10.00">../../Geometry/Ray</text>
<text text-anchor="middle" x="193" y="-172" font-family="Helvetica,sans-Serif" font-size="10.00">/Ray.hpp</text>
</a>
</g>
</g>
<!-- Node10&#45;&gt;Node12 -->
<g id="edge19_Node000010_Node000012" class="edge">
<title>Node10&#45;&gt;Node12</title>
<g id="a_edge19_Node000010_Node000012"><a xlink:title=" ">
<path fill="none" stroke="#63b8ff" d="M321.04,-236.37C299.06,-226.87 263.11,-211.32 234.89,-199.11"/>
<polygon fill="#63b8ff" stroke="#63b8ff" points="236.21,-195.87 225.64,-195.12 233.43,-202.3 236.21,-195.87"/>
</a>
</g>
</g>
<!-- Node11&#45;&gt;Node2 -->
<g id="edge17_Node000011_Node000002" class="edge">
<title>Node11&#45;&gt;Node2</title>
<g id="a_edge17_Node000011_Node000002"><a xlink:title=" ">
<path fill="none" stroke="#63b8ff" d="M349.52,-164.84C334.2,-155.6 314.29,-143.59 299.05,-134.4"/>
<polygon fill="#63b8ff" stroke="#63b8ff" points="300.62,-131.26 290.25,-129.09 297.01,-137.26 300.62,-131.26"/>
</a>
</g>
</g>
<!-- Node11&#45;&gt;Node3 -->
<g id="edge18_Node000011_Node000003" class="edge">
<title>Node11&#45;&gt;Node3</title>
<g id="a_edge18_Node000011_Node000003"><a xlink:title=" ">
<path fill="none" stroke="#63b8ff" d="M370.74,-164.95C367.73,-149.97 361.18,-126.22 348,-110 336.98,-96.44 320.65,-85.87 306.34,-78.44"/>
<polygon fill="#63b8ff" stroke="#63b8ff" points="307.81,-75.27 297.29,-74.02 304.73,-81.56 307.81,-75.27"/>
</a>
</g>
</g>
<!-- Node12&#45;&gt;Node2 -->
<g id="edge20_Node000012_Node000002" class="edge">
<title>Node12&#45;&gt;Node2</title>
<g id="a_edge20_Node000012_Node000002"><a xlink:title=" ">
<path fill="none" stroke="#63b8ff" d="M213.09,-164.84C225.88,-155.83 242.4,-144.18 255.3,-135.09"/>
<polygon fill="#63b8ff" stroke="#63b8ff" points="257.41,-137.89 263.56,-129.27 253.37,-132.17 257.41,-137.89"/>
</a>
</g>
</g>
<!-- Node12&#45;&gt;Node3 -->
<g id="edge21_Node000012_Node000003" class="edge">
<title>Node12&#45;&gt;Node3</title>
<g id="a_edge21_Node000012_Node000003"><a xlink:title=" ">
<path fill="none" stroke="#63b8ff" d="M191.96,-164.81C191.58,-149.93 193.04,-126.46 204,-110 213.36,-95.95 228.81,-85.56 243,-78.36"/>
<polygon fill="#63b8ff" stroke="#63b8ff" points="244.52,-81.51 252.07,-74.08 241.54,-75.18 244.52,-81.51"/>
</a>
</g>
</g>
<!-- Node13&#45;&gt;Node1 -->
<g id="edge25_Node000013_Node000001" class="edge">
<title>Node13&#45;&gt;Node1</title>
<g id="a_edge25_Node000013_Node000001"><a xlink:title=" ">
<path fill="none" stroke="#63b8ff" d="M126.06,-261.06C129.16,-302.02 138.22,-421.63 142.15,-473.52"/>
<polygon fill="#63b8ff" stroke="#63b8ff" points="138.68,-474.08 142.92,-483.79 145.66,-473.55 138.68,-474.08"/>
</a>
</g>
</g>
<!-- Node13&#45;&gt;Node12 -->
<g id="edge24_Node000013_Node000012" class="edge">
<title>Node13&#45;&gt;Node12</title>
<g id="a_edge24_Node000013_Node000012"><a xlink:title=" ">
<path fill="none" stroke="#63b8ff" d="M140.09,-230.8C149.07,-222.34 160.63,-211.46 170.65,-202.03"/>
<polygon fill="#63b8ff" stroke="#63b8ff" points="173.07,-204.57 177.95,-195.16 168.27,-199.47 173.07,-204.57"/>
</a>
</g>
</g>
<!-- Node14 -->
<g id="Node000014" class="node">
<title>Node14</title>
<g id="a_Node000014"><a xlink:title=" ">
<polygon fill="#e0e0e0" stroke="#999999" points="122,-189.5 66,-189.5 66,-170.5 122,-170.5 122,-189.5"/>
<text text-anchor="middle" x="94" y="-177.5" font-family="Helvetica,sans-Serif" font-size="10.00">optional</text>
</a>
</g>
</g>
<!-- Node13&#45;&gt;Node14 -->
<g id="edge23_Node000013_Node000014" class="edge">
<title>Node13&#45;&gt;Node14</title>
<g id="a_edge23_Node000013_Node000014"><a xlink:title=" ">
<path fill="none" stroke="#63b8ff" d="M118.12,-230.8C113.57,-221.41 107.57,-209.02 102.69,-198.95"/>
<polygon fill="#63b8ff" stroke="#63b8ff" points="105.79,-197.32 98.28,-189.84 99.49,-200.37 105.79,-197.32"/>
</a>
</g>
</g>
</g>
</svg>
