<?xml version="1.0" encoding="UTF-8" standalone="no"?>
<!DOCTYPE svg PUBLIC "-//W3C//DTD SVG 1.1//EN"
 "http://www.w3.org/Graphics/SVG/1.1/DTD/svg11.dtd">
<!-- Generated by graphviz version 2.43.0 (0)
 -->
<!-- Title: src/Geometry/HitRecord/HitRecord.hpp Pages: 1 -->
<svg width="903pt" height="522pt"
 viewBox="0.00 0.00 903.00 522.00" xmlns="http://www.w3.org/2000/svg" xmlns:xlink="http://www.w3.org/1999/xlink">
<g id="graph0" class="graph" transform="scale(1 1) rotate(0) translate(4 518)">
<title>src/Geometry/HitRecord/HitRecord.hpp</title>
<!-- Node1 -->
<g id="Node000001" class="node">
<title>Node1</title>
<g id="a_Node000001"><a xlink:title=" ">
<polygon fill="#999999" stroke="#666666" points="518,-514 384,-514 384,-484 518,-484 518,-514"/>
<text text-anchor="start" x="392" y="-502" font-family="Helvetica,sans-Serif" font-size="10.00">src/Geometry/HitRecord</text>
<text text-anchor="middle" x="451" y="-491" font-family="Helvetica,sans-Serif" font-size="10.00">/HitRecord.hpp</text>
</a>
</g>
</g>
<!-- Node2 -->
<g id="Node000002" class="node">
<title>Node2</title>
<g id="a_Node000002"><a xlink:href="Point3D_8hpp.html" target="_top" xlink:title=" ">
<polygon fill="white" stroke="#666666" points="747,-129 621,-129 621,-110 747,-110 747,-129"/>
<text text-anchor="middle" x="684" y="-117" font-family="Helvetica,sans-Serif" font-size="10.00">../Point3D/Point3D.hpp</text>
</a>
</g>
</g>
<!-- Node1&#45;&gt;Node2 -->
<g id="edge1_Node000001_Node000002" class="edge">
<title>Node1&#45;&gt;Node2</title>
<g id="a_edge1_Node000001_Node000002"><a xlink:title=" ">
<path fill="none" stroke="#63b8ff" d="M518.31,-491.12C588.07,-479.83 687,-450.28 687,-373.5 687,-373.5 687,-373.5 687,-245 687,-207.48 685.62,-163.63 684.73,-139.26"/>
<polygon fill="#63b8ff" stroke="#63b8ff" points="688.23,-139.11 684.36,-129.25 681.24,-139.38 688.23,-139.11"/>
</a>
</g>
</g>
<!-- Node3 -->
<g id="Node000003" class="node">
<title>Node3</title>
<g id="a_Node000003"><a xlink:href="Vector3D_8hpp.html" target="_top" xlink:title=" ">
<polygon fill="white" stroke="#666666" points="844,-74 706,-74 706,-55 844,-55 844,-74"/>
<text text-anchor="middle" x="775" y="-62" font-family="Helvetica,sans-Serif" font-size="10.00">../Vector3D/Vector3D.hpp</text>
</a>
</g>
</g>
<!-- Node1&#45;&gt;Node3 -->
<g id="edge4_Node000001_Node000003" class="edge">
<title>Node1&#45;&gt;Node3</title>
<g id="a_edge4_Node000001_Node000003"><a xlink:title=" ">
<path fill="none" stroke="#63b8ff" d="M518.43,-493.13C642.64,-482.29 895,-450.75 895,-373.5 895,-373.5 895,-373.5 895,-179 895,-129.98 841.5,-95.82 805.95,-78.53"/>
<polygon fill="#63b8ff" stroke="#63b8ff" points="807,-75.16 796.45,-74.1 804.04,-81.5 807,-75.16"/>
</a>
</g>
</g>
<!-- Node5 -->
<g id="Node000005" class="node">
<title>Node5</title>
<g id="a_Node000005"><a xlink:href="IMaterial_8hpp.html" target="_top" xlink:title=" ">
<polygon fill="white" stroke="#666666" points="404,-448 284,-448 284,-418 404,-418 404,-448"/>
<text text-anchor="start" x="292" y="-436" font-family="Helvetica,sans-Serif" font-size="10.00">../../Objects/Abstracts</text>
<text text-anchor="middle" x="344" y="-425" font-family="Helvetica,sans-Serif" font-size="10.00">/IMaterial.hpp</text>
</a>
</g>
</g>
<!-- Node1&#45;&gt;Node5 -->
<g id="edge5_Node000001_Node000005" class="edge">
<title>Node1&#45;&gt;Node5</title>
<g id="a_edge5_Node000001_Node000005"><a xlink:title=" ">
<path fill="none" stroke="#63b8ff" d="M421.82,-483.95C405.73,-475.03 386.03,-463.36 370.4,-453.54"/>
<polygon fill="#63b8ff" stroke="#63b8ff" points="372.04,-450.44 361.73,-448.01 368.28,-456.34 372.04,-450.44"/>
</a>
</g>
</g>
<!-- Node2&#45;&gt;Node3 -->
<g id="edge2_Node000002_Node000003" class="edge">
<title>Node2&#45;&gt;Node3</title>
<g id="a_edge2_Node000002_Node000003"><a xlink:title=" ">
<path fill="none" stroke="#63b8ff" d="M698.62,-109.98C712.86,-101.69 734.75,-88.94 751.45,-79.22"/>
<polygon fill="#63b8ff" stroke="#63b8ff" points="753.23,-82.23 760.11,-74.17 749.71,-76.18 753.23,-82.23"/>
</a>
</g>
</g>
<!-- Node4 -->
<g id="Node000004" class="node">
<title>Node4</title>
<g id="a_Node000004"><a xlink:title=" ">
<polygon fill="#e0e0e0" stroke="#999999" points="800.5,-19 749.5,-19 749.5,0 800.5,0 800.5,-19"/>
<text text-anchor="middle" x="775" y="-7" font-family="Helvetica,sans-Serif" font-size="10.00">math.h</text>
</a>
</g>
</g>
<!-- Node3&#45;&gt;Node4 -->
<g id="edge3_Node000003_Node000004" class="edge">
<title>Node3&#45;&gt;Node4</title>
<g id="a_edge3_Node000003_Node000004"><a xlink:title=" ">
<path fill="none" stroke="#63b8ff" d="M775,-54.75C775,-47.8 775,-37.85 775,-29.13"/>
<polygon fill="#63b8ff" stroke="#63b8ff" points="778.5,-29.09 775,-19.09 771.5,-29.09 778.5,-29.09"/>
</a>
</g>
</g>
<!-- Node5&#45;&gt;Node1 -->
<g id="edge6_Node000005_Node000001" class="edge">
<title>Node5&#45;&gt;Node1</title>
<g id="a_edge6_Node000005_Node000001"><a xlink:title=" ">
<path fill="none" stroke="#63b8ff" d="M373.4,-448.16C389.36,-457.02 408.84,-468.56 424.35,-478.3"/>
<polygon fill="#63b8ff" stroke="#63b8ff" points="422.66,-481.37 432.97,-483.8 426.42,-475.47 422.66,-481.37"/>
</a>
</g>
</g>
<!-- Node6 -->
<g id="Node000006" class="node">
<title>Node6</title>
<g id="a_Node000006"><a xlink:href="Color_8hpp.html" target="_top" xlink:title=" ">
<polygon fill="white" stroke="#666666" points="106,-129 0,-129 0,-110 106,-110 106,-129"/>
<text text-anchor="middle" x="53" y="-117" font-family="Helvetica,sans-Serif" font-size="10.00">../../Utils/Color.hpp</text>
</a>
</g>
</g>
<!-- Node5&#45;&gt;Node6 -->
<g id="edge7_Node000005_Node000006" class="edge">
<title>Node5&#45;&gt;Node6</title>
<g id="a_edge7_Node000005_Node000006"><a xlink:title=" ">
<path fill="none" stroke="#63b8ff" d="M283.66,-422.84C188.68,-406.71 15,-369.49 15,-313 15,-313 15,-313 15,-245 15,-205.63 32.6,-162.18 43.84,-138.45"/>
<polygon fill="#63b8ff" stroke="#63b8ff" points="47.08,-139.8 48.34,-129.28 40.79,-136.71 47.08,-139.8"/>
</a>
</g>
</g>
<!-- Node8 -->
<g id="Node000008" class="node">
<title>Node8</title>
<g id="a_Node000008"><a xlink:href="ILight_8hpp.html" target="_top" xlink:title=" ">
<polygon fill="white" stroke="#666666" points="268.5,-382 203.5,-382 203.5,-363 268.5,-363 268.5,-382"/>
<text text-anchor="middle" x="236" y="-370" font-family="Helvetica,sans-Serif" font-size="10.00">ILight.hpp</text>
</a>
</g>
</g>
<!-- Node5&#45;&gt;Node8 -->
<g id="edge9_Node000005_Node000008" class="edge">
<title>Node5&#45;&gt;Node8</title>
<g id="a_edge9_Node000005_Node000008"><a xlink:title=" ">
<path fill="none" stroke="#63b8ff" d="M318.13,-417.99C300.76,-408.58 277.99,-396.24 260.83,-386.95"/>
<polygon fill="#63b8ff" stroke="#63b8ff" points="262.41,-383.82 251.95,-382.14 259.08,-389.98 262.41,-383.82"/>
</a>
</g>
</g>
<!-- Node12 -->
<g id="Node000012" class="node">
<title>Node12</title>
<g id="a_Node000012"><a xlink:title=" ">
<polygon fill="#e0e0e0" stroke="#999999" points="228.5,-129 181.5,-129 181.5,-110 228.5,-110 228.5,-129"/>
<text text-anchor="middle" x="205" y="-117" font-family="Helvetica,sans-Serif" font-size="10.00">vector</text>
</a>
</g>
</g>
<!-- Node5&#45;&gt;Node12 -->
<g id="edge32_Node000005_Node000012" class="edge">
<title>Node5&#45;&gt;Node12</title>
<g id="a_edge32_Node000005_Node000012"><a xlink:title=" ">
<path fill="none" stroke="#63b8ff" d="M349.85,-417.79C363.47,-382.2 392.99,-288 350,-231 314.93,-184.5 264.59,-236.77 224,-195 209.64,-180.22 205.69,-156.18 204.82,-139.41"/>
<polygon fill="#63b8ff" stroke="#63b8ff" points="208.31,-139.1 204.61,-129.18 201.31,-139.24 208.31,-139.1"/>
</a>
</g>
</g>
<!-- Node7 -->
<g id="Node000007" class="node">
<title>Node7</title>
<g id="a_Node000007"><a xlink:title=" ">
<polygon fill="#e0e0e0" stroke="#999999" points="85,-74 21,-74 21,-55 85,-55 85,-74"/>
<text text-anchor="middle" x="53" y="-62" font-family="Helvetica,sans-Serif" font-size="10.00">algorithm</text>
</a>
</g>
</g>
<!-- Node6&#45;&gt;Node7 -->
<g id="edge8_Node000006_Node000007" class="edge">
<title>Node6&#45;&gt;Node7</title>
<g id="a_edge8_Node000006_Node000007"><a xlink:title=" ">
<path fill="none" stroke="#63b8ff" d="M53,-109.75C53,-102.8 53,-92.85 53,-84.13"/>
<polygon fill="#63b8ff" stroke="#63b8ff" points="56.5,-84.09 53,-74.09 49.5,-84.09 56.5,-84.09"/>
</a>
</g>
</g>
<!-- Node8&#45;&gt;Node1 -->
<g id="edge10_Node000008_Node000001" class="edge">
<title>Node8&#45;&gt;Node1</title>
<g id="a_edge10_Node000008_Node000001"><a xlink:title=" ">
<path fill="none" stroke="#63b8ff" d="M238.15,-382.31C242.42,-397.94 253.48,-430.5 275,-448 302.81,-470.61 340.29,-483 373.52,-489.79"/>
<polygon fill="#63b8ff" stroke="#63b8ff" points="373.2,-493.29 383.68,-491.72 374.51,-486.42 373.2,-493.29"/>
</a>
</g>
</g>
<!-- Node8&#45;&gt;Node6 -->
<g id="edge11_Node000008_Node000006" class="edge">
<title>Node8&#45;&gt;Node6</title>
<g id="a_edge11_Node000008_Node000006"><a xlink:title=" ">
<path fill="none" stroke="#63b8ff" d="M211.36,-362.89C173.94,-348.37 103.81,-315.18 72,-261 49.33,-222.38 49.28,-167.69 51.16,-139.28"/>
<polygon fill="#63b8ff" stroke="#63b8ff" points="54.66,-139.39 51.99,-129.14 47.68,-138.82 54.66,-139.39"/>
</a>
</g>
</g>
<!-- Node9 -->
<g id="Node000009" class="node">
<title>Node9</title>
<g id="a_Node000009"><a xlink:href="Scene_8hpp.html" target="_top" xlink:title=" ">
<polygon fill="white" stroke="#666666" points="302.5,-327 169.5,-327 169.5,-297 302.5,-297 302.5,-327"/>
<text text-anchor="start" x="177.5" y="-315" font-family="Helvetica,sans-Serif" font-size="10.00">../../SceneSystem/Scene</text>
<text text-anchor="middle" x="236" y="-304" font-family="Helvetica,sans-Serif" font-size="10.00">/Scene.hpp</text>
</a>
</g>
</g>
<!-- Node8&#45;&gt;Node9 -->
<g id="edge12_Node000008_Node000009" class="edge">
<title>Node8&#45;&gt;Node9</title>
<g id="a_edge12_Node000008_Node000009"><a xlink:title=" ">
<path fill="none" stroke="#63b8ff" d="M231.04,-362.87C229.58,-356.11 229.01,-346.35 229.34,-337.26"/>
<polygon fill="#63b8ff" stroke="#63b8ff" points="232.84,-337.36 230.13,-327.11 225.86,-336.81 232.84,-337.36"/>
</a>
</g>
</g>
<!-- Node9&#45;&gt;Node8 -->
<g id="edge29_Node000009_Node000008" class="edge">
<title>Node9&#45;&gt;Node8</title>
<g id="a_edge29_Node000009_Node000008"><a xlink:title=" ">
<path fill="none" stroke="#63b8ff" d="M241.87,-327.11C242.86,-334.87 243.01,-344.58 242.33,-352.93"/>
<polygon fill="#63b8ff" stroke="#63b8ff" points="238.86,-352.48 240.96,-362.87 245.8,-353.44 238.86,-352.48"/>
</a>
</g>
</g>
<!-- Node10 -->
<g id="Node000010" class="node">
<title>Node10</title>
<g id="a_Node000010"><a xlink:href="Camera_8hpp.html" target="_top" xlink:title=" ">
<polygon fill="white" stroke="#666666" points="589,-261 449,-261 449,-231 589,-231 589,-261"/>
<text text-anchor="start" x="457" y="-249" font-family="Helvetica,sans-Serif" font-size="10.00">../../CorePlugin/Renderers</text>
<text text-anchor="middle" x="519" y="-238" font-family="Helvetica,sans-Serif" font-size="10.00">/Camera/Camera.hpp</text>
</a>
</g>
</g>
<!-- Node9&#45;&gt;Node10 -->
<g id="edge13_Node000009_Node000010" class="edge">
<title>Node9&#45;&gt;Node10</title>
<g id="a_edge13_Node000009_Node000010"><a xlink:title=" ">
<path fill="none" stroke="#63b8ff" d="M298.11,-296.95C342.06,-287.01 401.14,-273.65 447.14,-263.25"/>
<polygon fill="#63b8ff" stroke="#63b8ff" points="448.06,-266.63 457.04,-261.01 446.51,-259.8 448.06,-266.63"/>
</a>
</g>
</g>
<!-- Node9&#45;&gt;Node12 -->
<g id="edge30_Node000009_Node000012" class="edge">
<title>Node9&#45;&gt;Node12</title>
<g id="a_edge30_Node000009_Node000012"><a xlink:title=" ">
<path fill="none" stroke="#63b8ff" d="M215.51,-296.89C204.51,-288.02 192.01,-275.52 186,-261 168.87,-219.64 185.67,-166.14 196.83,-138.62"/>
<polygon fill="#63b8ff" stroke="#63b8ff" points="200.18,-139.7 200.89,-129.12 193.74,-136.95 200.18,-139.7"/>
</a>
</g>
</g>
<!-- Node16 -->
<g id="Node000016" class="node">
<title>Node16</title>
<g id="a_Node000016"><a xlink:href="APrimitive_8hpp.html" target="_top" xlink:title=" ">
<polygon fill="white" stroke="#666666" points="341,-261 195,-261 195,-231 341,-231 341,-261"/>
<text text-anchor="start" x="203" y="-249" font-family="Helvetica,sans-Serif" font-size="10.00">../../Objects/Abstracts</text>
<text text-anchor="middle" x="268" y="-238" font-family="Helvetica,sans-Serif" font-size="10.00">/APrimitive/APrimitive.hpp</text>
</a>
</g>
</g>
<!-- Node9&#45;&gt;Node16 -->
<g id="edge27_Node000009_Node000016" class="edge">
<title>Node9&#45;&gt;Node16</title>
<g id="a_edge27_Node000009_Node000016"><a xlink:title=" ">
<path fill="none" stroke="#63b8ff" d="M243.1,-296.8C247,-289.01 251.92,-279.16 256.36,-270.28"/>
<polygon fill="#63b8ff" stroke="#63b8ff" points="259.58,-271.67 260.92,-261.16 253.32,-268.54 259.58,-271.67"/>
</a>
</g>
</g>
<!-- Node17 -->
<g id="Node000017" class="node">
<title>Node17</title>
<g id="a_Node000017"><a xlink:title=" ">
<polygon fill="#e0e0e0" stroke="#999999" points="139,-255.5 81,-255.5 81,-236.5 139,-236.5 139,-255.5"/>
<text text-anchor="middle" x="110" y="-243.5" font-family="Helvetica,sans-Serif" font-size="10.00">memory</text>
</a>
</g>
</g>
<!-- Node9&#45;&gt;Node17 -->
<g id="edge31_Node000009_Node000017" class="edge">
<title>Node9&#45;&gt;Node17</title>
<g id="a_edge31_Node000009_Node000017"><a xlink:title=" ">
<path fill="none" stroke="#63b8ff" d="M208.35,-296.95C186.74,-285.98 156.92,-270.83 135.8,-260.11"/>
<polygon fill="#63b8ff" stroke="#63b8ff" points="137.27,-256.93 126.77,-255.52 134.1,-263.17 137.27,-256.93"/>
</a>
</g>
</g>
<!-- Node10&#45;&gt;Node1 -->
<g id="edge25_Node000010_Node000001" class="edge">
<title>Node10&#45;&gt;Node1</title>
<g id="a_edge25_Node000010_Node000001"><a xlink:title=" ">
<path fill="none" stroke="#63b8ff" d="M515.19,-261.06C504.07,-302.1 471.55,-422.13 457.54,-473.84"/>
<polygon fill="#63b8ff" stroke="#63b8ff" points="454.09,-473.22 454.85,-483.79 460.84,-475.05 454.09,-473.22"/>
</a>
</g>
</g>
<!-- Node10&#45;&gt;Node2 -->
<g id="edge17_Node000010_Node000002" class="edge">
<title>Node10&#45;&gt;Node2</title>
<g id="a_edge17_Node000010_Node000002"><a xlink:title=" ">
<path fill="none" stroke="#63b8ff" d="M563.86,-230.91C585.35,-222.7 610.58,-210.81 630,-195 649.28,-179.3 665.09,-155.14 674.51,-138.62"/>
<polygon fill="#63b8ff" stroke="#63b8ff" points="677.79,-139.91 679.52,-129.46 671.65,-136.55 677.79,-139.91"/>
</a>
</g>
</g>
<!-- Node10&#45;&gt;Node3 -->
<g id="edge18_Node000010_Node000003" class="edge">
<title>Node10&#45;&gt;Node3</title>
<g id="a_edge18_Node000010_Node000003"><a xlink:title=" ">
<path fill="none" stroke="#63b8ff" d="M589.01,-244.23C673.04,-241.64 806.62,-231.69 838,-195 868.32,-159.55 820.98,-106.98 793.07,-81.08"/>
<polygon fill="#63b8ff" stroke="#63b8ff" points="795.24,-78.33 785.47,-74.23 790.56,-83.53 795.24,-78.33"/>
</a>
</g>
</g>
<!-- Node11 -->
<g id="Node000011" class="node">
<title>Node11</title>
<g id="a_Node000011"><a xlink:href="ARenderer_8hpp.html" target="_top" xlink:title=" ">
<polygon fill="white" stroke="#666666" points="378.5,-195 233.5,-195 233.5,-165 378.5,-165 378.5,-195"/>
<text text-anchor="start" x="241.5" y="-183" font-family="Helvetica,sans-Serif" font-size="10.00">../../../Objects/Abstracts</text>
<text text-anchor="middle" x="306" y="-172" font-family="Helvetica,sans-Serif" font-size="10.00">/ARenderer/ARenderer.hpp</text>
</a>
</g>
</g>
<!-- Node10&#45;&gt;Node11 -->
<g id="edge14_Node000010_Node000011" class="edge">
<title>Node10&#45;&gt;Node11</title>
<g id="a_edge14_Node000010_Node000011"><a xlink:title=" ">
<path fill="none" stroke="#63b8ff" d="M472.26,-230.95C439.93,-221.24 396.75,-208.27 362.5,-197.98"/>
<polygon fill="#63b8ff" stroke="#63b8ff" points="363.22,-194.54 352.63,-195.01 361.2,-201.24 363.22,-194.54"/>
</a>
</g>
</g>
<!-- Node13 -->
<g id="Node000013" class="node">
<title>Node13</title>
<g id="a_Node000013"><a xlink:href="Rectangle3D_8hpp.html" target="_top" xlink:title=" ">
<polygon fill="white" stroke="#666666" points="621,-195 471,-195 471,-165 621,-165 621,-195"/>
<text text-anchor="start" x="479" y="-183" font-family="Helvetica,sans-Serif" font-size="10.00">../../../Geometry/Rectangle3</text>
<text text-anchor="middle" x="546" y="-172" font-family="Helvetica,sans-Serif" font-size="10.00">D/Rectangle3D.hpp</text>
</a>
</g>
</g>
<!-- Node10&#45;&gt;Node13 -->
<g id="edge19_Node000010_Node000013" class="edge">
<title>Node10&#45;&gt;Node13</title>
<g id="a_edge19_Node000010_Node000013"><a xlink:title=" ">
<path fill="none" stroke="#63b8ff" d="M524.99,-230.8C528.24,-223.09 532.35,-213.37 536.06,-204.56"/>
<polygon fill="#63b8ff" stroke="#63b8ff" points="539.36,-205.74 540.02,-195.16 532.91,-203.02 539.36,-205.74"/>
</a>
</g>
</g>
<!-- Node14 -->
<g id="Node000014" class="node">
<title>Node14</title>
<g id="a_Node000014"><a xlink:href="Ray_8hpp.html" target="_top" xlink:title=" ">
<polygon fill="white" stroke="#666666" points="829,-195 715,-195 715,-165 829,-165 829,-195"/>
<text text-anchor="start" x="723" y="-183" font-family="Helvetica,sans-Serif" font-size="10.00">../../../Geometry/Ray</text>
<text text-anchor="middle" x="772" y="-172" font-family="Helvetica,sans-Serif" font-size="10.00">/Ray.hpp</text>
</a>
</g>
</g>
<!-- Node10&#45;&gt;Node14 -->
<g id="edge22_Node000010_Node000014" class="edge">
<title>Node10&#45;&gt;Node14</title>
<g id="a_edge22_Node000010_Node000014"><a xlink:title=" ">
<path fill="none" stroke="#63b8ff" d="M574.52,-230.95C613.49,-221.1 665.75,-207.88 706.72,-197.51"/>
<polygon fill="#63b8ff" stroke="#63b8ff" points="707.77,-200.86 716.61,-195.01 706.05,-194.07 707.77,-200.86"/>
</a>
</g>
</g>
<!-- Node15 -->
<g id="Node000015" class="node">
<title>Node15</title>
<g id="a_Node000015"><a xlink:title=" ">
<polygon fill="#e0e0e0" stroke="#999999" points="453,-189.5 397,-189.5 397,-170.5 453,-170.5 453,-189.5"/>
<text text-anchor="middle" x="425" y="-177.5" font-family="Helvetica,sans-Serif" font-size="10.00">optional</text>
</a>
</g>
</g>
<!-- Node10&#45;&gt;Node15 -->
<g id="edge26_Node000010_Node000015" class="edge">
<title>Node10&#45;&gt;Node15</title>
<g id="a_edge26_Node000010_Node000015"><a xlink:title=" ">
<path fill="none" stroke="#63b8ff" d="M498.14,-230.8C482.68,-220.27 461.68,-205.97 446.15,-195.4"/>
<polygon fill="#63b8ff" stroke="#63b8ff" points="447.95,-192.39 437.72,-189.66 444.01,-198.18 447.95,-192.39"/>
</a>
</g>
</g>
<!-- Node11&#45;&gt;Node6 -->
<g id="edge15_Node000011_Node000006" class="edge">
<title>Node11&#45;&gt;Node6</title>
<g id="a_edge15_Node000011_Node000006"><a xlink:title=" ">
<path fill="none" stroke="#63b8ff" d="M245.4,-164.99C200.7,-154.65 140.76,-140.79 99.74,-131.31"/>
<polygon fill="#63b8ff" stroke="#63b8ff" points="100.52,-127.9 89.99,-129.05 98.95,-134.72 100.52,-127.9"/>
</a>
</g>
</g>
<!-- Node11&#45;&gt;Node12 -->
<g id="edge16_Node000011_Node000012" class="edge">
<title>Node11&#45;&gt;Node12</title>
<g id="a_edge16_Node000011_Node000012"><a xlink:title=" ">
<path fill="none" stroke="#63b8ff" d="M281.81,-164.99C265.71,-155.66 244.66,-143.47 228.67,-134.21"/>
<polygon fill="#63b8ff" stroke="#63b8ff" points="230.32,-131.12 219.92,-129.14 226.81,-137.18 230.32,-131.12"/>
</a>
</g>
</g>
<!-- Node13&#45;&gt;Node2 -->
<g id="edge20_Node000013_Node000002" class="edge">
<title>Node13&#45;&gt;Node2</title>
<g id="a_edge20_Node000013_Node000002"><a xlink:title=" ">
<path fill="none" stroke="#63b8ff" d="M579.05,-164.99C601.98,-155.27 632.24,-142.44 654.38,-133.06"/>
<polygon fill="#63b8ff" stroke="#63b8ff" points="655.78,-136.26 663.62,-129.14 653.05,-129.82 655.78,-136.26"/>
</a>
</g>
</g>
<!-- Node13&#45;&gt;Node3 -->
<g id="edge21_Node000013_Node000003" class="edge">
<title>Node13&#45;&gt;Node3</title>
<g id="a_edge21_Node000013_Node000003"><a xlink:title=" ">
<path fill="none" stroke="#63b8ff" d="M555.76,-164.92C567.37,-149.21 588.21,-124.16 612,-110 639.97,-93.35 674.31,-82.77 704.25,-76.13"/>
<polygon fill="#63b8ff" stroke="#63b8ff" points="705.16,-79.52 714.22,-74.03 703.71,-72.67 705.16,-79.52"/>
</a>
</g>
</g>
<!-- Node14&#45;&gt;Node2 -->
<g id="edge23_Node000014_Node000002" class="edge">
<title>Node14&#45;&gt;Node2</title>
<g id="a_edge23_Node000014_Node000002"><a xlink:title=" ">
<path fill="none" stroke="#63b8ff" d="M750.7,-164.84C736.93,-155.68 719.07,-143.82 705.3,-134.66"/>
<polygon fill="#63b8ff" stroke="#63b8ff" points="707.19,-131.72 696.93,-129.09 703.32,-137.55 707.19,-131.72"/>
</a>
</g>
</g>
<!-- Node14&#45;&gt;Node3 -->
<g id="edge24_Node000014_Node000003" class="edge">
<title>Node14&#45;&gt;Node3</title>
<g id="a_edge24_Node000014_Node000003"><a xlink:title=" ">
<path fill="none" stroke="#63b8ff" d="M772.38,-164.63C772.92,-144.21 773.91,-106.81 774.5,-84.24"/>
<polygon fill="#63b8ff" stroke="#63b8ff" points="778,-84.32 774.77,-74.23 771.01,-84.13 778,-84.32"/>
</a>
</g>
</g>
<!-- Node16&#45;&gt;Node5 -->
<g id="edge28_Node000016_Node000005" class="edge">
<title>Node16&#45;&gt;Node5</title>
<g id="a_edge28_Node000016_Node000005"><a xlink:title=" ">
<path fill="none" stroke="#63b8ff" d="M283.63,-261.37C292.87,-270.69 304.09,-283.56 311,-297 329.51,-332.99 337.93,-379.77 341.54,-407.76"/>
<polygon fill="#63b8ff" stroke="#63b8ff" points="338.08,-408.32 342.73,-417.84 345.03,-407.49 338.08,-408.32"/>
</a>
</g>
</g>
</g>
</svg>
