<?xml version="1.0" encoding="UTF-8" standalone="no"?>
<!DOCTYPE svg PUBLIC "-//W3C//DTD SVG 1.1//EN"
 "http://www.w3.org/Graphics/SVG/1.1/DTD/svg11.dtd">
<!-- Generated by graphviz version 2.43.0 (0)
 -->
<!-- Title: src/Objects/Abstracts/ILight.hpp Pages: 1 -->
<!--zoomable 412 -->

<svg id="main" version="1.1" xmlns="http://www.w3.org/2000/svg" xmlns:xlink="http://www.w3.org/1999/xlink" xml:space="preserve" onload="init(evt)">
<style type="text/css"><![CDATA[
.node, .edge {opacity: 0.7;}
.node.selected, .edge.selected {opacity: 1;}
.edge:hover path { stroke: red; }
.edge:hover polygon { stroke: red; fill: red; }
]]></style>

<defs>
  <circle id="rim" cx="0" cy="0" r="7"/>
  <circle id="rim2" cx="0" cy="0" r="3.5"/>
  <g id="zoomPlus">
    <use xlink:href="#rim" fill="#404040"><set attributeName="fill" to="#808080" begin="zoomplus.mouseover" end="zoomplus.mouseout"/></use>
    <path d="M-4,0h8M0,-4v8" fill="none" stroke="white" stroke-width="1.5" pointer-events="none"/>
  </g>
  <g id="zoomMin">
    <use xlink:href="#rim" fill="#404040"><set attributeName="fill" to="#808080" begin="zoomminus.mouseover" end="zoomminus.mouseout"/></use>
    <path d="M-4,0h8" fill="none" stroke="white" stroke-width="1.5" pointer-events="none"/>
  </g>
  <g id="arrowUp" transform="translate(30 24)">
    <use xlink:href="#rim"/>
    <path pointer-events="none" fill="none" stroke="white" stroke-width="1.5" d="M0,-3.0v7 M-2.5,-0.5L0,-3.0L2.5,-0.5"/>
  </g>
  <g id="arrowRight" transform="rotate(90) translate(36 -43)">
    <use xlink:href="#rim"/>
    <path pointer-events="none" fill="none" stroke="white" stroke-width="1.5" d="M0,-3.0v7 M-2.5,-0.5L0,-3.0L2.5,-0.5"/>
  </g>
  <g id="arrowDown" transform="rotate(180) translate(-30 -48)">
    <use xlink:href="#rim"/>
    <path pointer-events="none" fill="none" stroke="white" stroke-width="1.5" d="M0,-3.0v7 M-2.5,-0.5L0,-3.0L2.5,-0.5"/>
  </g>
  <g id="arrowLeft" transform="rotate(270) translate(-36 17)">
    <use xlink:href="#rim"/>
    <path pointer-events="none" fill="none" stroke="white" stroke-width="1.5" d="M0,-3.0v7 M-2.5,-0.5L0,-3.0L2.5,-0.5"/>
  </g>
  <g id="resetDef">
    <use xlink:href="#rim2" fill="#404040"><set attributeName="fill" to="#808080" begin="reset.mouseover" end="reset.mouseout"/></use>
  </g>
</defs>
<script type="application/ecmascript">
var viewWidth = 866;
var viewHeight = 412;
var sectionId = 'dynsection-0';
</script>
<script type="application/ecmascript" xlink:href="svg.min.js"/>
<svg id="graph" class="graph">
<g id="viewport">
<title>src/Objects/Abstracts/ILight.hpp</title>
<!-- Node1 -->
<g id="Node000001" class="node">
<title>Node1</title>
<g id="a_Node000001"><a xlink:title=" ">
<polygon fill="#999999" stroke="#666666" points="459.5,-404 340.5,-404 340.5,-374 459.5,-374 459.5,-404"/>
<text text-anchor="start" x="348.5" y="-392" font-family="Helvetica,sans-Serif" font-size="10.00">src/Objects/Abstracts</text>
<text text-anchor="middle" x="400" y="-381" font-family="Helvetica,sans-Serif" font-size="10.00">/ILight.hpp</text>
</a>
</g>
</g>
<!-- Node2 -->
<g id="Node000002" class="node">
<title>Node2</title>
<g id="a_Node000002"><a xlink:href="HitRecord_8hpp.html" target="_top" xlink:title=" ">
<polygon fill="white" stroke="#666666" points="858,-206 724,-206 724,-176 858,-176 858,-206"/>
<text text-anchor="start" x="732" y="-194" font-family="Helvetica,sans-Serif" font-size="10.00">../../Geometry/HitRecord</text>
<text text-anchor="middle" x="791" y="-183" font-family="Helvetica,sans-Serif" font-size="10.00">/HitRecord.hpp</text>
</a>
</g>
</g>
<!-- Node1&#45;&gt;Node2 -->
<g id="edge1_Node000001_Node000002" class="edge">
<title>Node1&#45;&gt;Node2</title>
<g id="a_edge1_Node000001_Node000002"><a xlink:title=" ">
<path fill="none" stroke="#63b8ff" d="M459.63,-380.81C533.5,-369.23 659.87,-340.37 744,-272 762.08,-257.31 774.73,-233.69 782.32,-215.91"/>
<polygon fill="#63b8ff" stroke="#63b8ff" points="785.73,-216.82 786.2,-206.23 779.23,-214.21 785.73,-216.82"/>
</a>
</g>
</g>
<!-- Node7 -->
<g id="Node000007" class="node">
<title>Node7</title>
<g id="a_Node000007"><a xlink:href="Color_8hpp.html" target="_top" xlink:title=" ">
<polygon fill="white" stroke="#666666" points="106,-134.5 0,-134.5 0,-115.5 106,-115.5 106,-134.5"/>
<text text-anchor="middle" x="53" y="-122.5" font-family="Helvetica,sans-Serif" font-size="10.00">../../Utils/Color.hpp</text>
</a>
</g>
</g>
<!-- Node1&#45;&gt;Node7 -->
<g id="edge7_Node000001_Node000007" class="edge">
<title>Node1&#45;&gt;Node7</title>
<g id="a_edge7_Node000001_Node000007"><a xlink:title=" ">
<path fill="none" stroke="#63b8ff" d="M340.29,-388.48C257.58,-385.51 110.59,-366.32 42,-272 14.17,-233.73 32.63,-173.93 44.77,-144.13"/>
<polygon fill="#63b8ff" stroke="#63b8ff" points="48.13,-145.18 48.86,-134.61 41.7,-142.42 48.13,-145.18"/>
</a>
</g>
</g>
<!-- Node9 -->
<g id="Node000009" class="node">
<title>Node9</title>
<g id="a_Node000009"><a xlink:href="Scene_8hpp.html" target="_top" xlink:title=" ">
<polygon fill="white" stroke="#666666" points="466.5,-338 333.5,-338 333.5,-308 466.5,-308 466.5,-338"/>
<text text-anchor="start" x="341.5" y="-326" font-family="Helvetica,sans-Serif" font-size="10.00">../../SceneSystem/Scene</text>
<text text-anchor="middle" x="400" y="-315" font-family="Helvetica,sans-Serif" font-size="10.00">/Scene.hpp</text>
</a>
</g>
</g>
<!-- Node1&#45;&gt;Node9 -->
<g id="edge9_Node000001_Node000009" class="edge">
<title>Node1&#45;&gt;Node9</title>
<g id="a_edge9_Node000001_Node000009"><a xlink:title=" ">
<path fill="none" stroke="#63b8ff" d="M400,-373.8C400,-366.34 400,-356.99 400,-348.41"/>
<polygon fill="#63b8ff" stroke="#63b8ff" points="403.5,-348.16 400,-338.16 396.5,-348.16 403.5,-348.16"/>
</a>
</g>
</g>
<!-- Node3 -->
<g id="Node000003" class="node">
<title>Node3</title>
<g id="a_Node000003"><a xlink:href="Point3D_8hpp.html" target="_top" xlink:title=" ">
<polygon fill="white" stroke="#666666" points="622,-134.5 496,-134.5 496,-115.5 622,-115.5 622,-134.5"/>
<text text-anchor="middle" x="559" y="-122.5" font-family="Helvetica,sans-Serif" font-size="10.00">../Point3D/Point3D.hpp</text>
</a>
</g>
</g>
<!-- Node2&#45;&gt;Node3 -->
<g id="edge2_Node000002_Node000003" class="edge">
<title>Node2&#45;&gt;Node3</title>
<g id="a_edge2_Node000002_Node000003"><a xlink:title=" ">
<path fill="none" stroke="#63b8ff" d="M740.09,-175.95C697.97,-164.34 638.92,-148.05 599.85,-137.27"/>
<polygon fill="#63b8ff" stroke="#63b8ff" points="600.45,-133.8 589.88,-134.52 598.58,-140.55 600.45,-133.8"/>
</a>
</g>
</g>
<!-- Node4 -->
<g id="Node000004" class="node">
<title>Node4</title>
<g id="a_Node000004"><a xlink:href="Vector3D_8hpp.html" target="_top" xlink:title=" ">
<polygon fill="white" stroke="#666666" points="537,-74 399,-74 399,-55 537,-55 537,-74"/>
<text text-anchor="middle" x="468" y="-62" font-family="Helvetica,sans-Serif" font-size="10.00">../Vector3D/Vector3D.hpp</text>
</a>
</g>
</g>
<!-- Node2&#45;&gt;Node4 -->
<g id="edge5_Node000002_Node000004" class="edge">
<title>Node2&#45;&gt;Node4</title>
<g id="a_edge5_Node000002_Node000004"><a xlink:title=" ">
<path fill="none" stroke="#63b8ff" d="M766.74,-175.97C735.97,-158.63 680.9,-129.07 631,-110 593.88,-95.81 550.39,-84.18 517.68,-76.37"/>
<polygon fill="#63b8ff" stroke="#63b8ff" points="518.43,-72.95 507.89,-74.07 516.82,-79.76 518.43,-72.95"/>
</a>
</g>
</g>
<!-- Node6 -->
<g id="Node000006" class="node">
<title>Node6</title>
<g id="a_Node000006"><a xlink:title=" ">
<polygon fill="#e0e0e0" stroke="#999999" points="850,-140 732,-140 732,-110 850,-110 850,-140"/>
<text text-anchor="start" x="740" y="-128" font-family="Helvetica,sans-Serif" font-size="10.00">../../Objects/Interface</text>
<text text-anchor="middle" x="791" y="-117" font-family="Helvetica,sans-Serif" font-size="10.00">/IMaterial.hpp</text>
</a>
</g>
</g>
<!-- Node2&#45;&gt;Node6 -->
<g id="edge6_Node000002_Node000006" class="edge">
<title>Node2&#45;&gt;Node6</title>
<g id="a_edge6_Node000002_Node000006"><a xlink:title=" ">
<path fill="none" stroke="#63b8ff" d="M791,-175.8C791,-168.34 791,-158.99 791,-150.41"/>
<polygon fill="#63b8ff" stroke="#63b8ff" points="794.5,-150.16 791,-140.16 787.5,-150.16 794.5,-150.16"/>
</a>
</g>
</g>
<!-- Node3&#45;&gt;Node4 -->
<g id="edge3_Node000003_Node000004" class="edge">
<title>Node3&#45;&gt;Node4</title>
<g id="a_edge3_Node000003_Node000004"><a xlink:title=" ">
<path fill="none" stroke="#63b8ff" d="M545.57,-115.37C530.92,-105.95 507.24,-90.73 489.9,-79.58"/>
<polygon fill="#63b8ff" stroke="#63b8ff" points="491.79,-76.63 481.48,-74.17 488,-82.52 491.79,-76.63"/>
</a>
</g>
</g>
<!-- Node5 -->
<g id="Node000005" class="node">
<title>Node5</title>
<g id="a_Node000005"><a xlink:title=" ">
<polygon fill="#e0e0e0" stroke="#999999" points="493.5,-19 442.5,-19 442.5,0 493.5,0 493.5,-19"/>
<text text-anchor="middle" x="468" y="-7" font-family="Helvetica,sans-Serif" font-size="10.00">math.h</text>
</a>
</g>
</g>
<!-- Node4&#45;&gt;Node5 -->
<g id="edge4_Node000004_Node000005" class="edge">
<title>Node4&#45;&gt;Node5</title>
<g id="a_edge4_Node000004_Node000005"><a xlink:title=" ">
<path fill="none" stroke="#63b8ff" d="M468,-54.75C468,-47.8 468,-37.85 468,-29.13"/>
<polygon fill="#63b8ff" stroke="#63b8ff" points="471.5,-29.09 468,-19.09 464.5,-29.09 471.5,-29.09"/>
</a>
</g>
</g>
<!-- Node8 -->
<g id="Node000008" class="node">
<title>Node8</title>
<g id="a_Node000008"><a xlink:title=" ">
<polygon fill="#e0e0e0" stroke="#999999" points="85,-74 21,-74 21,-55 85,-55 85,-74"/>
<text text-anchor="middle" x="53" y="-62" font-family="Helvetica,sans-Serif" font-size="10.00">algorithm</text>
</a>
</g>
</g>
<!-- Node7&#45;&gt;Node8 -->
<g id="edge8_Node000007_Node000008" class="edge">
<title>Node7&#45;&gt;Node8</title>
<g id="a_edge8_Node000007_Node000008"><a xlink:title=" ">
<path fill="none" stroke="#63b8ff" d="M53,-115.37C53,-107.25 53,-94.81 53,-84.39"/>
<polygon fill="#63b8ff" stroke="#63b8ff" points="56.5,-84.17 53,-74.17 49.5,-84.17 56.5,-84.17"/>
</a>
</g>
</g>
<!-- Node10 -->
<g id="Node000010" class="node">
<title>Node10</title>
<g id="a_Node000010"><a xlink:href="SceneSystem_2Camera_2Camera_8hpp.html" target="_top" xlink:title=" ">
<polygon fill="white" stroke="#666666" points="463,-266.5 337,-266.5 337,-247.5 463,-247.5 463,-266.5"/>
<text text-anchor="middle" x="400" y="-254.5" font-family="Helvetica,sans-Serif" font-size="10.00">../Camera/Camera.hpp</text>
</a>
</g>
</g>
<!-- Node9&#45;&gt;Node10 -->
<g id="edge10_Node000009_Node000010" class="edge">
<title>Node9&#45;&gt;Node10</title>
<g id="a_edge10_Node000009_Node000010"><a xlink:title=" ">
<path fill="none" stroke="#63b8ff" d="M400,-307.8C400,-298.7 400,-286.79 400,-276.9"/>
<polygon fill="#63b8ff" stroke="#63b8ff" points="403.5,-276.84 400,-266.84 396.5,-276.84 403.5,-276.84"/>
</a>
</g>
</g>
<!-- Node12 -->
<g id="Node000012" class="node">
<title>Node12</title>
<g id="a_Node000012"><a xlink:title=" ">
<polygon fill="#e0e0e0" stroke="#999999" points="193.5,-134.5 146.5,-134.5 146.5,-115.5 193.5,-115.5 193.5,-134.5"/>
<text text-anchor="middle" x="170" y="-122.5" font-family="Helvetica,sans-Serif" font-size="10.00">vector</text>
</a>
</g>
</g>
<!-- Node9&#45;&gt;Node12 -->
<g id="edge26_Node000009_Node000012" class="edge">
<title>Node9&#45;&gt;Node12</title>
<g id="a_edge26_Node000009_Node000012"><a xlink:title=" ">
<path fill="none" stroke="#63b8ff" d="M333.48,-315.43C266.29,-304.86 165.81,-277.36 118,-206 102.85,-183.38 128.58,-156.83 148.95,-140.72"/>
<polygon fill="#63b8ff" stroke="#63b8ff" points="151.07,-143.51 156.95,-134.69 146.85,-137.92 151.07,-143.51"/>
</a>
</g>
</g>
<!-- Node16 -->
<g id="Node000016" class="node">
<title>Node16</title>
<g id="a_Node000016"><a xlink:title=" ">
<polygon fill="#e0e0e0" stroke="#999999" points="599,-272 481,-272 481,-242 599,-242 599,-272"/>
<text text-anchor="start" x="489" y="-260" font-family="Helvetica,sans-Serif" font-size="10.00">../../Objects/Interface</text>
<text text-anchor="middle" x="540" y="-249" font-family="Helvetica,sans-Serif" font-size="10.00">/IPrimitive.hpp</text>
</a>
</g>
</g>
<!-- Node9&#45;&gt;Node16 -->
<g id="edge24_Node000009_Node000016" class="edge">
<title>Node9&#45;&gt;Node16</title>
<g id="a_edge24_Node000009_Node000016"><a xlink:title=" ">
<path fill="none" stroke="#63b8ff" d="M430.72,-307.95C451.15,-298.62 478.17,-286.27 500.23,-276.18"/>
<polygon fill="#63b8ff" stroke="#63b8ff" points="501.71,-279.35 509.35,-272.01 498.8,-272.99 501.71,-279.35"/>
</a>
</g>
</g>
<!-- Node17 -->
<g id="Node000017" class="node">
<title>Node17</title>
<g id="a_Node000017"><a xlink:title=" ">
<polygon fill="#e0e0e0" stroke="#999999" points="735,-272 617,-272 617,-242 735,-242 735,-272"/>
<text text-anchor="start" x="625" y="-260" font-family="Helvetica,sans-Serif" font-size="10.00">../../Objects/Interface</text>
<text text-anchor="middle" x="676" y="-249" font-family="Helvetica,sans-Serif" font-size="10.00">/ILight.hpp</text>
</a>
</g>
</g>
<!-- Node9&#45;&gt;Node17 -->
<g id="edge25_Node000009_Node000017" class="edge">
<title>Node9&#45;&gt;Node17</title>
<g id="a_edge25_Node000009_Node000017"><a xlink:title=" ">
<path fill="none" stroke="#63b8ff" d="M460.57,-307.95C503.79,-297.93 562,-284.43 607.02,-274"/>
<polygon fill="#63b8ff" stroke="#63b8ff" points="608.04,-277.35 616.99,-271.68 606.46,-270.53 608.04,-277.35"/>
</a>
</g>
</g>
<!-- Node18 -->
<g id="Node000018" class="node">
<title>Node18</title>
<g id="a_Node000018"><a xlink:title=" ">
<polygon fill="#e0e0e0" stroke="#999999" points="109,-266.5 51,-266.5 51,-247.5 109,-247.5 109,-266.5"/>
<text text-anchor="middle" x="80" y="-254.5" font-family="Helvetica,sans-Serif" font-size="10.00">memory</text>
</a>
</g>
</g>
<!-- Node9&#45;&gt;Node18 -->
<g id="edge27_Node000009_Node000018" class="edge">
<title>Node9&#45;&gt;Node18</title>
<g id="a_edge27_Node000009_Node000018"><a xlink:title=" ">
<path fill="none" stroke="#63b8ff" d="M333.42,-312.59C276.97,-303.99 194.08,-289.9 123,-272 120.05,-271.26 117.01,-270.42 113.97,-269.53"/>
<polygon fill="#63b8ff" stroke="#63b8ff" points="114.98,-266.18 104.39,-266.58 112.92,-272.87 114.98,-266.18"/>
</a>
</g>
</g>
<!-- Node10&#45;&gt;Node2 -->
<g id="edge22_Node000010_Node000002" class="edge">
<title>Node10&#45;&gt;Node2</title>
<g id="a_edge22_Node000010_Node000002"><a xlink:title=" ">
<path fill="none" stroke="#63b8ff" d="M442.21,-247.49C451.97,-245.6 462.34,-243.67 472,-242 577.42,-223.79 604.4,-223.11 710,-206 711.27,-205.79 712.55,-205.59 713.83,-205.38"/>
<polygon fill="#63b8ff" stroke="#63b8ff" points="714.54,-208.81 723.83,-203.72 713.4,-201.9 714.54,-208.81"/>
</a>
</g>
</g>
<!-- Node10&#45;&gt;Node3 -->
<g id="edge14_Node000010_Node000003" class="edge">
<title>Node10&#45;&gt;Node3</title>
<g id="a_edge14_Node000010_Node000003"><a xlink:title=" ">
<path fill="none" stroke="#63b8ff" d="M443.38,-247.43C452.81,-245.61 462.73,-243.71 472,-242 517.48,-233.59 647.26,-241.42 677,-206 703.19,-174.81 646.96,-150.66 603.44,-137.39"/>
<polygon fill="#63b8ff" stroke="#63b8ff" points="604.41,-134.03 593.82,-134.57 602.43,-140.74 604.41,-134.03"/>
</a>
</g>
</g>
<!-- Node10&#45;&gt;Node4 -->
<g id="edge15_Node000010_Node000004" class="edge">
<title>Node10&#45;&gt;Node4</title>
<g id="a_edge15_Node000010_Node000004"><a xlink:title=" ">
<path fill="none" stroke="#63b8ff" d="M373.64,-247.35C354.99,-239.69 331.35,-226.49 320,-206 313.54,-194.34 314.02,-187.92 320,-176 344.3,-127.53 401.08,-94.88 436.82,-78.3"/>
<polygon fill="#63b8ff" stroke="#63b8ff" points="438.6,-81.33 446.3,-74.05 435.74,-74.94 438.6,-81.33"/>
</a>
</g>
</g>
<!-- Node11 -->
<g id="Node000011" class="node">
<title>Node11</title>
<g id="a_Node000011"><a xlink:href="ARenderer_8hpp.html" target="_top" xlink:title=" ">
<polygon fill="white" stroke="#666666" points="272.5,-206 127.5,-206 127.5,-176 272.5,-176 272.5,-206"/>
<text text-anchor="start" x="135.5" y="-194" font-family="Helvetica,sans-Serif" font-size="10.00">../../Objects/Abstracts</text>
<text text-anchor="middle" x="200" y="-183" font-family="Helvetica,sans-Serif" font-size="10.00">/ARenderer/ARenderer.hpp</text>
</a>
</g>
</g>
<!-- Node10&#45;&gt;Node11 -->
<g id="edge11_Node000010_Node000011" class="edge">
<title>Node10&#45;&gt;Node11</title>
<g id="a_edge11_Node000010_Node000011"><a xlink:title=" ">
<path fill="none" stroke="#63b8ff" d="M373.03,-247.37C342.56,-237.62 292.19,-221.5 253.64,-209.16"/>
<polygon fill="#63b8ff" stroke="#63b8ff" points="254.7,-205.83 244.11,-206.12 252.57,-212.5 254.7,-205.83"/>
</a>
</g>
</g>
<!-- Node13 -->
<g id="Node000013" class="node">
<title>Node13</title>
<g id="a_Node000013"><a xlink:href="Rectangle3D_8hpp.html" target="_top" xlink:title=" ">
<polygon fill="white" stroke="#666666" points="470.5,-206 329.5,-206 329.5,-176 470.5,-176 470.5,-206"/>
<text text-anchor="start" x="337.5" y="-194" font-family="Helvetica,sans-Serif" font-size="10.00">../../Geometry/Rectangle3</text>
<text text-anchor="middle" x="400" y="-183" font-family="Helvetica,sans-Serif" font-size="10.00">D/Rectangle3D.hpp</text>
</a>
</g>
</g>
<!-- Node10&#45;&gt;Node13 -->
<g id="edge16_Node000010_Node000013" class="edge">
<title>Node10&#45;&gt;Node13</title>
<g id="a_edge16_Node000010_Node000013"><a xlink:title=" ">
<path fill="none" stroke="#63b8ff" d="M400,-247.37C400,-239.49 400,-227.45 400,-216.6"/>
<polygon fill="#63b8ff" stroke="#63b8ff" points="403.5,-216.36 400,-206.36 396.5,-216.36 403.5,-216.36"/>
</a>
</g>
</g>
<!-- Node14 -->
<g id="Node000014" class="node">
<title>Node14</title>
<g id="a_Node000014"><a xlink:href="Ray_8hpp.html" target="_top" xlink:title=" ">
<polygon fill="white" stroke="#666666" points="593.5,-206 488.5,-206 488.5,-176 593.5,-176 593.5,-206"/>
<text text-anchor="start" x="496.5" y="-194" font-family="Helvetica,sans-Serif" font-size="10.00">../../Geometry/Ray</text>
<text text-anchor="middle" x="541" y="-183" font-family="Helvetica,sans-Serif" font-size="10.00">/Ray.hpp</text>
</a>
</g>
</g>
<!-- Node10&#45;&gt;Node14 -->
<g id="edge19_Node000010_Node000014" class="edge">
<title>Node10&#45;&gt;Node14</title>
<g id="a_edge19_Node000010_Node000014"><a xlink:title=" ">
<path fill="none" stroke="#63b8ff" d="M419.02,-247.37C439.86,-237.91 473.91,-222.45 500.74,-210.27"/>
<polygon fill="#63b8ff" stroke="#63b8ff" points="502.24,-213.44 509.9,-206.12 499.35,-207.06 502.24,-213.44"/>
</a>
</g>
</g>
<!-- Node15 -->
<g id="Node000015" class="node">
<title>Node15</title>
<g id="a_Node000015"><a xlink:title=" ">
<polygon fill="#e0e0e0" stroke="#999999" points="668,-200.5 612,-200.5 612,-181.5 668,-181.5 668,-200.5"/>
<text text-anchor="middle" x="640" y="-188.5" font-family="Helvetica,sans-Serif" font-size="10.00">optional</text>
</a>
</g>
</g>
<!-- Node10&#45;&gt;Node15 -->
<g id="edge23_Node000010_Node000015" class="edge">
<title>Node10&#45;&gt;Node15</title>
<g id="a_edge23_Node000010_Node000015"><a xlink:title=" ">
<path fill="none" stroke="#63b8ff" d="M440.84,-247.46C482.11,-238.47 547.55,-223.25 603,-206 604.92,-205.4 606.88,-204.76 608.85,-204.09"/>
<polygon fill="#63b8ff" stroke="#63b8ff" points="610.4,-207.25 618.63,-200.58 608.04,-200.66 610.4,-207.25"/>
</a>
</g>
</g>
<!-- Node11&#45;&gt;Node7 -->
<g id="edge12_Node000011_Node000007" class="edge">
<title>Node11&#45;&gt;Node7</title>
<g id="a_edge12_Node000011_Node000007"><a xlink:title=" ">
<path fill="none" stroke="#63b8ff" d="M167.74,-175.95C142.07,-164.78 106.49,-149.29 81.78,-138.53"/>
<polygon fill="#63b8ff" stroke="#63b8ff" points="83.13,-135.3 72.56,-134.52 80.33,-141.72 83.13,-135.3"/>
</a>
</g>
</g>
<!-- Node11&#45;&gt;Node12 -->
<g id="edge13_Node000011_Node000012" class="edge">
<title>Node11&#45;&gt;Node12</title>
<g id="a_edge13_Node000011_Node000012"><a xlink:title=" ">
<path fill="none" stroke="#63b8ff" d="M193.34,-175.8C188.94,-166.41 183.13,-154.02 178.41,-143.95"/>
<polygon fill="#63b8ff" stroke="#63b8ff" points="181.56,-142.41 174.15,-134.84 175.22,-145.38 181.56,-142.41"/>
</a>
</g>
</g>
<!-- Node13&#45;&gt;Node3 -->
<g id="edge17_Node000013_Node000003" class="edge">
<title>Node13&#45;&gt;Node3</title>
<g id="a_edge17_Node000013_Node000003"><a xlink:title=" ">
<path fill="none" stroke="#63b8ff" d="M434.89,-175.95C462.78,-164.73 501.49,-149.15 528.23,-138.39"/>
<polygon fill="#63b8ff" stroke="#63b8ff" points="529.87,-141.5 537.84,-134.52 527.26,-135 529.87,-141.5"/>
</a>
</g>
</g>
<!-- Node13&#45;&gt;Node4 -->
<g id="edge18_Node000013_Node000004" class="edge">
<title>Node13&#45;&gt;Node4</title>
<g id="a_edge18_Node000013_Node000004"><a xlink:title=" ">
<path fill="none" stroke="#63b8ff" d="M407.8,-175.72C420.31,-152.81 444.83,-107.93 458.39,-83.09"/>
<polygon fill="#63b8ff" stroke="#63b8ff" points="461.6,-84.52 463.32,-74.07 455.45,-81.17 461.6,-84.52"/>
</a>
</g>
</g>
<!-- Node14&#45;&gt;Node3 -->
<g id="edge20_Node000014_Node000003" class="edge">
<title>Node14&#45;&gt;Node3</title>
<g id="a_edge20_Node000014_Node000003"><a xlink:title=" ">
<path fill="none" stroke="#63b8ff" d="M544.99,-175.8C547.58,-166.6 550.98,-154.53 553.77,-144.58"/>
<polygon fill="#63b8ff" stroke="#63b8ff" points="557.17,-145.42 556.51,-134.84 550.44,-143.52 557.17,-145.42"/>
</a>
</g>
</g>
<!-- Node14&#45;&gt;Node4 -->
<g id="edge21_Node000014_Node000004" class="edge">
<title>Node14&#45;&gt;Node4</title>
<g id="a_edge21_Node000014_Node000004"><a xlink:title=" ">
<path fill="none" stroke="#63b8ff" d="M520.81,-175.96C509.29,-166.94 495.49,-154.27 487,-140 476.78,-122.83 472.02,-100.27 469.82,-84.49"/>
<polygon fill="#63b8ff" stroke="#63b8ff" points="473.28,-83.9 468.64,-74.38 466.33,-84.72 473.28,-83.9"/>
</a>
</g>
</g>
</g>
</svg>

<g id="navigator" transform="translate(0 0)" fill="#404254">
  <rect fill="#f2f5e9" fill-opacity="0.5" stroke="#606060" stroke-width=".5" x="0" y="0" width="60" height="60"/>
  <use id="zoomplus" xlink:href="#zoomPlus" x="17" y="9" onmousedown="handleZoom(evt,'in')"/>
  <use id="zoomminus" xlink:href="#zoomMin" x="42" y="9" onmousedown="handleZoom(evt,'out')"/>
  <use id="reset" xlink:href="#resetDef" x="30" y="36" onmousedown="handleReset()"/>
   <use id="arrowup" xlink:href="#arrowUp" x="0" y="0" onmousedown="handlePan(0,-1)"/>
  <use id="arrowright" xlink:href="#arrowRight" x="0" y="0" onmousedown="handlePan(1,0)"/>
  <use id="arrowdown" xlink:href="#arrowDown" x="0" y="0" onmousedown="handlePan(0,1)"/>
  <use id="arrowleft" xlink:href="#arrowLeft" x="0" y="0" onmousedown="handlePan(-1,0)"/>
</g>
<svg viewBox="0 0 15 15" width="100%" height="30px" preserveAspectRatio="xMaxYMin meet">
 <g id="arrow_out" transform="scale(0.3 0.3)">
  <a xlink:href="ILight_8hpp__incl_org.svg" target="_base">
   <rect id="button" ry="5" rx="5" y="6" x="6" height="38" width="38"
        fill="#f2f5e9" fill-opacity="0.5" stroke="#606060" stroke-width="1.0"/>
   <path id="arrow"
     d="M 11.500037,31.436501 C 11.940474,20.09759 22.043105,11.32322 32.158766,21.979434 L 37.068811,17.246167 C 37.068811,17.246167 37.088388,32 37.088388,32 L 22.160133,31.978069 C 22.160133,31.978069 26.997745,27.140456 26.997745,27.140456 C 18.528582,18.264221 13.291696,25.230495 11.500037,31.436501 z"
     style="fill:#404040;"/>
  </a>
 </g>
</svg>

<style type='text/css'>
<![CDATA[
[data-mouse-over-selected='false'] { opacity: 0.7; }
[data-mouse-over-selected='true']  { opacity: 1.0; }
]]>
</style>
<script type="application/ecmascript"><![CDATA[
document.addEventListener('DOMContentLoaded', (event) => {
  highlightEdges();
  highlightAdjacentNodes();
});
]]></script>
</svg>
