<?xml version="1.0" encoding="UTF-8" standalone="no"?>
<!DOCTYPE svg PUBLIC "-//W3C//DTD SVG 1.1//EN"
 "http://www.w3.org/Graphics/SVG/1.1/DTD/svg11.dtd">
<!-- Generated by graphviz version 2.43.0 (0)
 -->
<!-- Title: src/Objects/Abstracts/ILight.hpp Pages: 1 -->
<svg width="1962pt" height="555pt"
 viewBox="0.00 0.00 1962.05 555.00" xmlns="http://www.w3.org/2000/svg" xmlns:xlink="http://www.w3.org/1999/xlink">
<g id="graph0" class="graph" transform="scale(1 1) rotate(0) translate(4 551)">
<title>src/Objects/Abstracts/ILight.hpp</title>
<!-- Node1 -->
<g id="Node000001" class="node">
<title>Node1</title>
<g id="a_Node000001"><a xlink:title=" ">
<polygon fill="#999999" stroke="#666666" points="1538.69,-547 1419.69,-547 1419.69,-517 1538.69,-517 1538.69,-547"/>
<text text-anchor="start" x="1427.69" y="-535" font-family="Helvetica,sans-Serif" font-size="10.00">src/Objects/Abstracts</text>
<text text-anchor="middle" x="1479.19" y="-524" font-family="Helvetica,sans-Serif" font-size="10.00">/ILight.hpp</text>
</a>
</g>
</g>
<!-- Node2 -->
<g id="Node000002" class="node">
<title>Node2</title>
<g id="a_Node000002"><a xlink:href="IMaterial_8hpp.html" target="_top" xlink:title=" ">
<polygon fill="white" stroke="#666666" points="1217.69,-475.5 1098.69,-475.5 1098.69,-445.5 1217.69,-445.5 1217.69,-475.5"/>
<text text-anchor="start" x="1106.69" y="-463.5" font-family="Helvetica,sans-Serif" font-size="10.00">src/Objects/Abstracts</text>
<text text-anchor="middle" x="1158.19" y="-452.5" font-family="Helvetica,sans-Serif" font-size="10.00">/IMaterial.hpp</text>
</a>
</g>
</g>
<!-- Node1&#45;&gt;Node2 -->
<g id="edge1_Node000001_Node000002" class="edge">
<title>Node1&#45;&gt;Node2</title>
<g id="a_edge1_Node000001_Node000002"><a xlink:title=" ">
<path fill="none" stroke="#63b8ff" d="M1409.51,-515.91C1352.27,-503.52 1272.05,-486.15 1217.76,-474.4"/>
<polygon fill="#63b8ff" stroke="#63b8ff" points="1409.05,-519.4 1419.56,-518.09 1410.53,-512.55 1409.05,-519.4"/>
</a>
</g>
</g>
<!-- Node5 -->
<g id="Node000005" class="node">
<title>Node5</title>
<g id="a_Node000005"><a xlink:href="Plugin_8hpp.html" target="_top" xlink:title=" ">
<polygon fill="white" stroke="#666666" points="666.69,-316 541.69,-316 541.69,-297 666.69,-297 666.69,-316"/>
<text text-anchor="middle" x="604.19" y="-304" font-family="Helvetica,sans-Serif" font-size="10.00">src/Objects/Plugin.hpp</text>
</a>
</g>
</g>
<!-- Node1&#45;&gt;Node5 -->
<g id="edge41_Node000001_Node000005" class="edge">
<title>Node1&#45;&gt;Node5</title>
<g id="a_edge41_Node000001_Node000005"><a xlink:title=" ">
<path fill="none" stroke="#63b8ff" d="M1409.29,-527.87C1279.1,-520.03 992.49,-493.23 770.19,-404 708.62,-379.29 642.46,-334.68 616.05,-316.05"/>
<polygon fill="#63b8ff" stroke="#63b8ff" points="1409.33,-531.38 1419.52,-528.47 1409.74,-524.39 1409.33,-531.38"/>
</a>
</g>
</g>
<!-- Node28 -->
<g id="Node000028" class="node">
<title>Node28</title>
<g id="a_Node000028"><a xlink:href="AmbientLight_8hpp.html" target="_top" xlink:title=" ">
<polygon fill="white" stroke="#666666" points="1726.69,-481 1577.69,-481 1577.69,-440 1726.69,-440 1726.69,-481"/>
<text text-anchor="start" x="1585.69" y="-469" font-family="Helvetica,sans-Serif" font-size="10.00">src/Objects/Plugins</text>
<text text-anchor="start" x="1585.69" y="-458" font-family="Helvetica,sans-Serif" font-size="10.00">/CorePlugin/Lights/Ambient</text>
<text text-anchor="middle" x="1652.19" y="-447" font-family="Helvetica,sans-Serif" font-size="10.00">Light/AmbientLight.hpp</text>
</a>
</g>
</g>
<!-- Node1&#45;&gt;Node28 -->
<g id="edge42_Node000001_Node000028" class="edge">
<title>Node1&#45;&gt;Node28</title>
<g id="a_edge42_Node000001_Node000028"><a xlink:title=" ">
<path fill="none" stroke="#63b8ff" d="M1523.58,-513.16C1548.02,-503.35 1578.38,-491.15 1603.46,-481.07"/>
<polygon fill="#63b8ff" stroke="#63b8ff" points="1522.17,-509.96 1514.19,-516.94 1524.78,-516.46 1522.17,-509.96"/>
</a>
</g>
</g>
<!-- Node30 -->
<g id="Node000030" class="node">
<title>Node30</title>
<g id="a_Node000030"><a xlink:href="DirectionalLight_8hpp.html" target="_top" xlink:title=" ">
<polygon fill="white" stroke="#666666" points="1559.69,-404 1398.69,-404 1398.69,-363 1559.69,-363 1559.69,-404"/>
<text text-anchor="start" x="1406.69" y="-392" font-family="Helvetica,sans-Serif" font-size="10.00">src/Objects/Plugins</text>
<text text-anchor="start" x="1406.69" y="-381" font-family="Helvetica,sans-Serif" font-size="10.00">/CorePlugin/Lights/Directional</text>
<text text-anchor="middle" x="1479.19" y="-370" font-family="Helvetica,sans-Serif" font-size="10.00">Light/DirectionalLight.hpp</text>
</a>
</g>
</g>
<!-- Node1&#45;&gt;Node30 -->
<g id="edge45_Node000001_Node000030" class="edge">
<title>Node1&#45;&gt;Node30</title>
<g id="a_edge45_Node000001_Node000030"><a xlink:title=" ">
<path fill="none" stroke="#63b8ff" d="M1479.19,-506.58C1479.19,-477.88 1479.19,-430.8 1479.19,-404.27"/>
<polygon fill="#63b8ff" stroke="#63b8ff" points="1475.69,-506.95 1479.19,-516.95 1482.69,-506.95 1475.69,-506.95"/>
</a>
</g>
</g>
<!-- Node31 -->
<g id="Node000031" class="node">
<title>Node31</title>
<g id="a_Node000031"><a xlink:href="PointLight_8hpp.html" target="_top" xlink:title=" ">
<polygon fill="white" stroke="#666666" points="1938.19,-481 1782.19,-481 1782.19,-440 1938.19,-440 1938.19,-481"/>
<text text-anchor="start" x="1790.19" y="-469" font-family="Helvetica,sans-Serif" font-size="10.00">src/Objects/Plugins</text>
<text text-anchor="start" x="1790.19" y="-458" font-family="Helvetica,sans-Serif" font-size="10.00">/CorePlugin/Lights/PointLight</text>
<text text-anchor="middle" x="1860.19" y="-447" font-family="Helvetica,sans-Serif" font-size="10.00">/PointLight.hpp</text>
</a>
</g>
</g>
<!-- Node1&#45;&gt;Node31 -->
<g id="edge48_Node000001_Node000031" class="edge">
<title>Node1&#45;&gt;Node31</title>
<g id="a_edge48_Node000001_Node000031"><a xlink:title=" ">
<path fill="none" stroke="#63b8ff" d="M1548.59,-518.34C1614.45,-506.33 1713.3,-488.29 1781.93,-475.77"/>
<polygon fill="#63b8ff" stroke="#63b8ff" points="1547.93,-514.9 1538.72,-520.14 1549.18,-521.79 1547.93,-514.9"/>
</a>
</g>
</g>
<!-- Node3 -->
<g id="Node000003" class="node">
<title>Node3</title>
<g id="a_Node000003"><a xlink:href="APrimitive_8hpp.html" target="_top" xlink:title=" ">
<polygon fill="white" stroke="#666666" points="1062.19,-398.5 916.19,-398.5 916.19,-368.5 1062.19,-368.5 1062.19,-398.5"/>
<text text-anchor="start" x="924.19" y="-386.5" font-family="Helvetica,sans-Serif" font-size="10.00">src/Objects/Abstracts</text>
<text text-anchor="middle" x="989.19" y="-375.5" font-family="Helvetica,sans-Serif" font-size="10.00">/APrimitive/APrimitive.hpp</text>
</a>
</g>
</g>
<!-- Node2&#45;&gt;Node3 -->
<g id="edge2_Node000002_Node000003" class="edge">
<title>Node2&#45;&gt;Node3</title>
<g id="a_edge2_Node000002_Node000003"><a xlink:title=" ">
<path fill="none" stroke="#63b8ff" d="M1117.15,-441.29C1087.5,-428.13 1048.05,-410.62 1020.83,-398.54"/>
<polygon fill="#63b8ff" stroke="#63b8ff" points="1115.84,-444.54 1126.4,-445.39 1118.68,-438.14 1115.84,-444.54"/>
</a>
</g>
</g>
<!-- Node2&#45;&gt;Node5 -->
<g id="edge35_Node000002_Node000005" class="edge">
<title>Node2&#45;&gt;Node5</title>
<g id="a_edge35_Node000002_Node000005"><a xlink:title=" ">
<path fill="none" stroke="#63b8ff" d="M1088.63,-445.89C1038.01,-435.55 967.99,-420.37 907.19,-404 802.17,-375.73 679.35,-333.82 628.31,-316.01"/>
<polygon fill="#63b8ff" stroke="#63b8ff" points="1087.98,-449.33 1098.48,-447.89 1089.38,-442.47 1087.98,-449.33"/>
</a>
</g>
</g>
<!-- Node20 -->
<g id="Node000020" class="node">
<title>Node20</title>
<g id="a_Node000020"><a xlink:href="Cylinder_8hpp.html" target="_top" xlink:title=" ">
<polygon fill="white" stroke="#666666" points="1297.69,-327 1172.69,-327 1172.69,-286 1297.69,-286 1297.69,-327"/>
<text text-anchor="start" x="1180.69" y="-315" font-family="Helvetica,sans-Serif" font-size="10.00">src/Objects/Plugins</text>
<text text-anchor="start" x="1180.69" y="-304" font-family="Helvetica,sans-Serif" font-size="10.00">/CorePlugin/Primitives</text>
<text text-anchor="middle" x="1235.19" y="-293" font-family="Helvetica,sans-Serif" font-size="10.00">/Cylinder/Cylinder.hpp</text>
</a>
</g>
</g>
<!-- Node2&#45;&gt;Node20 -->
<g id="edge39_Node000002_Node000020" class="edge">
<title>Node2&#45;&gt;Node20</title>
<g id="a_edge39_Node000002_Node000020"><a xlink:title=" ">
<path fill="none" stroke="#63b8ff" d="M1169.97,-436.24C1185.08,-406.4 1211.04,-355.17 1225.22,-327.18"/>
<polygon fill="#63b8ff" stroke="#63b8ff" points="1166.69,-434.97 1165.29,-445.47 1172.93,-438.13 1166.69,-434.97"/>
</a>
</g>
</g>
<!-- Node22 -->
<g id="Node000022" class="node">
<title>Node22</title>
<g id="a_Node000022"><a xlink:href="Plane_8hpp.html" target="_top" xlink:title=" ">
<polygon fill="white" stroke="#666666" points="1154.69,-327 1029.69,-327 1029.69,-286 1154.69,-286 1154.69,-327"/>
<text text-anchor="start" x="1037.69" y="-315" font-family="Helvetica,sans-Serif" font-size="10.00">src/Objects/Plugins</text>
<text text-anchor="start" x="1037.69" y="-304" font-family="Helvetica,sans-Serif" font-size="10.00">/CorePlugin/Primitives</text>
<text text-anchor="middle" x="1092.19" y="-293" font-family="Helvetica,sans-Serif" font-size="10.00">/Plane/Plane.hpp</text>
</a>
</g>
</g>
<!-- Node2&#45;&gt;Node22 -->
<g id="edge40_Node000002_Node000022" class="edge">
<title>Node2&#45;&gt;Node22</title>
<g id="a_edge40_Node000002_Node000022"><a xlink:title=" ">
<path fill="none" stroke="#63b8ff" d="M1148.08,-436.24C1135.13,-406.4 1112.88,-355.17 1100.73,-327.18"/>
<polygon fill="#63b8ff" stroke="#63b8ff" points="1144.9,-437.69 1152.09,-445.47 1151.32,-434.91 1144.9,-437.69"/>
</a>
</g>
</g>
<!-- Node26 -->
<g id="Node000026" class="node">
<title>Node26</title>
<g id="a_Node000026"><a xlink:href="Lambertian_8hpp.html" target="_top" xlink:title=" ">
<polygon fill="white" stroke="#666666" points="1380.69,-404 1225.69,-404 1225.69,-363 1380.69,-363 1380.69,-404"/>
<text text-anchor="start" x="1233.69" y="-392" font-family="Helvetica,sans-Serif" font-size="10.00">src/Objects/Plugins</text>
<text text-anchor="start" x="1233.69" y="-381" font-family="Helvetica,sans-Serif" font-size="10.00">/CorePlugin/Materials</text>
<text text-anchor="middle" x="1303.19" y="-370" font-family="Helvetica,sans-Serif" font-size="10.00">/Lambertian/Lambertian.hpp</text>
</a>
</g>
</g>
<!-- Node2&#45;&gt;Node26 -->
<g id="edge36_Node000002_Node000026" class="edge">
<title>Node2&#45;&gt;Node26</title>
<g id="a_edge36_Node000002_Node000026"><a xlink:title=" ">
<path fill="none" stroke="#63b8ff" d="M1194.34,-440.8C1215.98,-429.61 1243.44,-415.4 1265.36,-404.06"/>
<polygon fill="#63b8ff" stroke="#63b8ff" points="1192.73,-437.69 1185.46,-445.39 1195.95,-443.91 1192.73,-437.69"/>
</a>
</g>
</g>
<!-- Node4 -->
<g id="Node000004" class="node">
<title>Node4</title>
<g id="a_Node000004"><a xlink:href="APrimitive_8cpp.html" target="_top" xlink:title=" ">
<polygon fill="white" stroke="#666666" points="868.69,-321.5 723.69,-321.5 723.69,-291.5 868.69,-291.5 868.69,-321.5"/>
<text text-anchor="start" x="731.69" y="-309.5" font-family="Helvetica,sans-Serif" font-size="10.00">src/Objects/Abstracts</text>
<text text-anchor="middle" x="796.19" y="-298.5" font-family="Helvetica,sans-Serif" font-size="10.00">/APrimitive/APrimitive.cpp</text>
</a>
</g>
</g>
<!-- Node3&#45;&gt;Node4 -->
<g id="edge3_Node000003_Node000004" class="edge">
<title>Node3&#45;&gt;Node4</title>
<g id="a_edge3_Node000003_Node000004"><a xlink:title=" ">
<path fill="none" stroke="#63b8ff" d="M943.19,-364.63C909.24,-351.43 863.68,-333.73 832.32,-321.54"/>
<polygon fill="#63b8ff" stroke="#63b8ff" points="942.29,-368.03 952.88,-368.39 944.83,-361.51 942.29,-368.03"/>
</a>
</g>
</g>
<!-- Node3&#45;&gt;Node5 -->
<g id="edge4_Node000003_Node000005" class="edge">
<title>Node3&#45;&gt;Node5</title>
<g id="a_edge4_Node000003_Node000005"><a xlink:title=" ">
<path fill="none" stroke="#63b8ff" d="M905.95,-369.12C843.8,-358.73 756.89,-343.39 681.19,-327 666.22,-323.76 649.76,-319.67 635.91,-316.06"/>
<polygon fill="#63b8ff" stroke="#63b8ff" points="905.65,-372.62 916.09,-370.81 906.8,-365.71 905.65,-372.62"/>
</a>
</g>
</g>
<!-- Node17 -->
<g id="Node000017" class="node">
<title>Node17</title>
<g id="a_Node000017"><a xlink:href="Camera_8cpp.html" target="_top" xlink:title=" ">
<polygon fill="white" stroke="#666666" points="749.69,-107 624.69,-107 624.69,-66 749.69,-66 749.69,-107"/>
<text text-anchor="start" x="632.69" y="-95" font-family="Helvetica,sans-Serif" font-size="10.00">src/Objects/Plugins</text>
<text text-anchor="start" x="632.69" y="-84" font-family="Helvetica,sans-Serif" font-size="10.00">/CorePlugin/Renderers</text>
<text text-anchor="middle" x="687.19" y="-73" font-family="Helvetica,sans-Serif" font-size="10.00">/Camera/Camera.cpp</text>
</a>
</g>
</g>
<!-- Node3&#45;&gt;Node17 -->
<g id="edge34_Node000003_Node000017" class="edge">
<title>Node3&#45;&gt;Node17</title>
<g id="a_edge34_Node000003_Node000017"><a xlink:title=" ">
<path fill="none" stroke="#63b8ff" d="M906.07,-368.33C827.42,-354.52 720.43,-334.55 714.19,-327 662.05,-263.99 729.8,-222.86 712.19,-143 709.43,-130.51 703.7,-117.43 698.41,-107.11"/>
<polygon fill="#63b8ff" stroke="#63b8ff" points="905.54,-371.79 916,-370.07 906.75,-364.9 905.54,-371.79"/>
</a>
</g>
</g>
<!-- Node19 -->
<g id="Node000019" class="node">
<title>Node19</title>
<g id="a_Node000019"><a xlink:href="DirectionalLight_8cpp.html" target="_top" xlink:title=" ">
<polygon fill="white" stroke="#666666" points="1515.69,-327 1354.69,-327 1354.69,-286 1515.69,-286 1515.69,-327"/>
<text text-anchor="start" x="1362.69" y="-315" font-family="Helvetica,sans-Serif" font-size="10.00">src/Objects/Plugins</text>
<text text-anchor="start" x="1362.69" y="-304" font-family="Helvetica,sans-Serif" font-size="10.00">/CorePlugin/Lights/Directional</text>
<text text-anchor="middle" x="1435.19" y="-293" font-family="Helvetica,sans-Serif" font-size="10.00">Light/DirectionalLight.cpp</text>
</a>
</g>
</g>
<!-- Node3&#45;&gt;Node19 -->
<g id="edge25_Node000003_Node000019" class="edge">
<title>Node3&#45;&gt;Node19</title>
<g id="a_edge25_Node000003_Node000019"><a xlink:title=" ">
<path fill="none" stroke="#63b8ff" d="M1072.45,-368.5C1153.12,-354.93 1274.65,-334.5 1354.45,-321.08"/>
<polygon fill="#63b8ff" stroke="#63b8ff" points="1071.61,-365.09 1062.33,-370.2 1072.78,-371.99 1071.61,-365.09"/>
</a>
</g>
</g>
<!-- Node3&#45;&gt;Node20 -->
<g id="edge26_Node000003_Node000020" class="edge">
<title>Node3&#45;&gt;Node20</title>
<g id="a_edge26_Node000003_Node000020"><a xlink:title=" ">
<path fill="none" stroke="#63b8ff" d="M1045.01,-365.48C1082.87,-353.94 1132.98,-338.66 1172.26,-326.68"/>
<polygon fill="#63b8ff" stroke="#63b8ff" points="1043.71,-362.22 1035.17,-368.48 1045.75,-368.91 1043.71,-362.22"/>
</a>
</g>
</g>
<!-- Node3&#45;&gt;Node22 -->
<g id="edge28_Node000003_Node000022" class="edge">
<title>Node3&#45;&gt;Node22</title>
<g id="a_edge28_Node000003_Node000022"><a xlink:title=" ">
<path fill="none" stroke="#63b8ff" d="M1016.92,-362.31C1031.88,-351.41 1050.27,-338.02 1065.13,-327.2"/>
<polygon fill="#63b8ff" stroke="#63b8ff" points="1014.58,-359.68 1008.56,-368.39 1018.7,-365.34 1014.58,-359.68"/>
</a>
</g>
</g>
<!-- Node24 -->
<g id="Node000024" class="node">
<title>Node24</title>
<g id="a_Node000024"><a xlink:href="Sphere_8hpp.html" target="_top" xlink:title=" ">
<polygon fill="white" stroke="#666666" points="1011.69,-327 886.69,-327 886.69,-286 1011.69,-286 1011.69,-327"/>
<text text-anchor="start" x="894.69" y="-315" font-family="Helvetica,sans-Serif" font-size="10.00">src/Objects/Plugins</text>
<text text-anchor="start" x="894.69" y="-304" font-family="Helvetica,sans-Serif" font-size="10.00">/CorePlugin/Primitives</text>
<text text-anchor="middle" x="949.19" y="-293" font-family="Helvetica,sans-Serif" font-size="10.00">/Sphere/Sphere.hpp</text>
</a>
</g>
</g>
<!-- Node3&#45;&gt;Node24 -->
<g id="edge31_Node000003_Node000024" class="edge">
<title>Node3&#45;&gt;Node24</title>
<g id="a_edge31_Node000003_Node000024"><a xlink:title=" ">
<path fill="none" stroke="#63b8ff" d="M976.92,-359.51C971.41,-349.18 964.98,-337.11 959.69,-327.2"/>
<polygon fill="#63b8ff" stroke="#63b8ff" points="973.87,-361.22 981.66,-368.39 980.04,-357.92 973.87,-361.22"/>
</a>
</g>
</g>
<!-- Node6 -->
<g id="Node000006" class="node">
<title>Node6</title>
<g id="a_Node000006"><a xlink:href="CorePlugin_8cpp.html" target="_top" xlink:title=" ">
<polygon fill="white" stroke="#666666" points="1237.19,-173 1089.19,-173 1089.19,-143 1237.19,-143 1237.19,-173"/>
<text text-anchor="start" x="1097.19" y="-161" font-family="Helvetica,sans-Serif" font-size="10.00">src/Objects/Plugins</text>
<text text-anchor="middle" x="1163.19" y="-150" font-family="Helvetica,sans-Serif" font-size="10.00">/CorePlugin/CorePlugin.cpp</text>
</a>
</g>
</g>
<!-- Node5&#45;&gt;Node6 -->
<g id="edge5_Node000005_Node000006" class="edge">
<title>Node5&#45;&gt;Node6</title>
<g id="a_edge5_Node000005_Node000006"><a xlink:title=" ">
<path fill="none" stroke="#63b8ff" d="M628.85,-292.2C669,-271.15 751.53,-230.36 826.19,-209 914.61,-183.7 1019.95,-170.69 1089.04,-164.37"/>
<polygon fill="#63b8ff" stroke="#63b8ff" points="627.01,-289.22 619.81,-296.99 630.28,-295.4 627.01,-289.22"/>
</a>
</g>
</g>
<!-- Node7 -->
<g id="Node000007" class="node">
<title>Node7</title>
<g id="a_Node000007"><a xlink:href="SceneWriter_8hpp.html" target="_top" xlink:title=" ">
<polygon fill="white" stroke="#666666" points="197.69,-250 36.69,-250 36.69,-209 197.69,-209 197.69,-250"/>
<text text-anchor="start" x="44.69" y="-238" font-family="Helvetica,sans-Serif" font-size="10.00">src/Objects/Plugins</text>
<text text-anchor="start" x="44.69" y="-227" font-family="Helvetica,sans-Serif" font-size="10.00">/CorePlugin/Interfaces</text>
<text text-anchor="middle" x="117.19" y="-216" font-family="Helvetica,sans-Serif" font-size="10.00">/SceneWriter/SceneWriter.hpp</text>
</a>
</g>
</g>
<!-- Node5&#45;&gt;Node7 -->
<g id="edge6_Node000005_Node000007" class="edge">
<title>Node5&#45;&gt;Node7</title>
<g id="a_edge6_Node000005_Node000007"><a xlink:title=" ">
<path fill="none" stroke="#63b8ff" d="M535.53,-295.48C461.39,-284.58 339.85,-266.52 235.19,-250 223.08,-248.09 210.29,-246.02 197.77,-243.98"/>
<polygon fill="#63b8ff" stroke="#63b8ff" points="535.27,-298.98 545.67,-296.97 536.28,-292.05 535.27,-298.98"/>
</a>
</g>
</g>
<!-- Node10 -->
<g id="Node000010" class="node">
<title>Node10</title>
<g id="a_Node000010"><a xlink:href="Parser_8hpp.html" target="_top" xlink:title=" ">
<polygon fill="white" stroke="#666666" points="686.19,-244.5 522.19,-244.5 522.19,-214.5 686.19,-214.5 686.19,-244.5"/>
<text text-anchor="start" x="530.19" y="-232.5" font-family="Helvetica,sans-Serif" font-size="10.00">src/SceneSystem/ConfigParser</text>
<text text-anchor="middle" x="604.19" y="-221.5" font-family="Helvetica,sans-Serif" font-size="10.00">/Parser.hpp</text>
</a>
</g>
</g>
<!-- Node5&#45;&gt;Node10 -->
<g id="edge10_Node000005_Node000010" class="edge">
<title>Node5&#45;&gt;Node10</title>
<g id="a_edge10_Node000005_Node000010"><a xlink:title=" ">
<path fill="none" stroke="#63b8ff" d="M604.19,-286.7C604.19,-273.64 604.19,-256.51 604.19,-244.61"/>
<polygon fill="#63b8ff" stroke="#63b8ff" points="600.69,-286.9 604.19,-296.9 607.69,-286.9 600.69,-286.9"/>
</a>
</g>
</g>
<!-- Node14 -->
<g id="Node000014" class="node">
<title>Node14</title>
<g id="a_Node000014"><a xlink:href="PluginManager_8hpp.html" target="_top" xlink:title="Plugin manager for loading and managing plugins.">
<polygon fill="white" stroke="#666666" points="465.19,-244.5 289.19,-244.5 289.19,-214.5 465.19,-214.5 465.19,-244.5"/>
<text text-anchor="start" x="297.19" y="-232.5" font-family="Helvetica,sans-Serif" font-size="10.00">src/SceneSystem/PluginManager</text>
<text text-anchor="middle" x="377.19" y="-221.5" font-family="Helvetica,sans-Serif" font-size="10.00">/PluginManager.hpp</text>
</a>
</g>
</g>
<!-- Node5&#45;&gt;Node14 -->
<g id="edge15_Node000005_Node000014" class="edge">
<title>Node5&#45;&gt;Node14</title>
<g id="a_edge15_Node000005_Node000014"><a xlink:title=" ">
<path fill="none" stroke="#63b8ff" d="M568.48,-293.7C528.23,-280.41 462.82,-258.79 419.9,-244.61"/>
<polygon fill="#63b8ff" stroke="#63b8ff" points="567.55,-297.08 578.15,-296.9 569.75,-290.44 567.55,-297.08"/>
</a>
</g>
</g>
<!-- Node16 -->
<g id="Node000016" class="node">
<title>Node16</title>
<g id="a_Node000016"><a xlink:href="Scene_8hpp.html" target="_top" xlink:title=" ">
<polygon fill="white" stroke="#666666" points="272.19,-173 140.19,-173 140.19,-143 272.19,-143 272.19,-173"/>
<text text-anchor="start" x="148.19" y="-161" font-family="Helvetica,sans-Serif" font-size="10.00">src/SceneSystem/Scene</text>
<text text-anchor="middle" x="206.19" y="-150" font-family="Helvetica,sans-Serif" font-size="10.00">/Scene.hpp</text>
</a>
</g>
</g>
<!-- Node5&#45;&gt;Node16 -->
<g id="edge24_Node000005_Node000016" class="edge">
<title>Node5&#45;&gt;Node16</title>
<g id="a_edge24_Node000005_Node000016"><a xlink:title=" ">
<path fill="none" stroke="#63b8ff" d="M531.37,-299.01C449.25,-290.67 321.75,-274.29 280.19,-250 248.36,-231.4 224.55,-193.61 213.32,-173.07"/>
<polygon fill="#63b8ff" stroke="#63b8ff" points="531.1,-302.51 541.4,-300.02 531.79,-295.54 531.1,-302.51"/>
</a>
</g>
</g>
<!-- Node7&#45;&gt;Node6 -->
<g id="edge7_Node000007_Node000006" class="edge">
<title>Node7&#45;&gt;Node6</title>
<g id="a_edge7_Node000007_Node000006"><a xlink:title=" ">
<path fill="none" stroke="#63b8ff" d="M207.88,-216.63C231.39,-213.83 256.71,-211.07 280.19,-209 579.4,-182.66 936.94,-167.38 1088.94,-161.64"/>
<polygon fill="#63b8ff" stroke="#63b8ff" points="207.43,-213.16 197.92,-217.83 208.26,-220.11 207.43,-213.16"/>
</a>
</g>
</g>
<!-- Node8 -->
<g id="Node000008" class="node">
<title>Node8</title>
<g id="a_Node000008"><a xlink:href="SceneWriter_8cpp.html" target="_top" xlink:title=" ">
<polygon fill="white" stroke="#666666" points="181.69,-107 20.69,-107 20.69,-66 181.69,-66 181.69,-107"/>
<text text-anchor="start" x="28.69" y="-95" font-family="Helvetica,sans-Serif" font-size="10.00">src/Objects/Plugins</text>
<text text-anchor="start" x="28.69" y="-84" font-family="Helvetica,sans-Serif" font-size="10.00">/CorePlugin/Interfaces</text>
<text text-anchor="middle" x="101.19" y="-73" font-family="Helvetica,sans-Serif" font-size="10.00">/SceneWriter/SceneWriter.cpp</text>
</a>
</g>
</g>
<!-- Node7&#45;&gt;Node8 -->
<g id="edge8_Node000007_Node000008" class="edge">
<title>Node7&#45;&gt;Node8</title>
<g id="a_edge8_Node000007_Node000008"><a xlink:title=" ">
<path fill="none" stroke="#63b8ff" d="M113.8,-198.68C110.68,-171.2 106.14,-131.17 103.44,-107.39"/>
<polygon fill="#63b8ff" stroke="#63b8ff" points="110.36,-199.35 114.96,-208.89 117.31,-198.56 110.36,-199.35"/>
</a>
</g>
</g>
<!-- Node9 -->
<g id="Node000009" class="node">
<title>Node9</title>
<g id="a_Node000009"><a xlink:href="main_8cpp.html" target="_top" xlink:title=" ">
<polygon fill="white" stroke="#666666" points="249.69,-24.5 170.69,-24.5 170.69,-5.5 249.69,-5.5 249.69,-24.5"/>
<text text-anchor="middle" x="210.19" y="-12.5" font-family="Helvetica,sans-Serif" font-size="10.00">src/main.cpp</text>
</a>
</g>
</g>
<!-- Node7&#45;&gt;Node9 -->
<g id="edge9_Node000007_Node000009" class="edge">
<title>Node7&#45;&gt;Node9</title>
<g id="a_edge9_Node000007_Node000009"><a xlink:title=" ">
<path fill="none" stroke="#63b8ff" d="M79.58,-202.74C36.26,-169.91 -24.62,-111.91 11.19,-66 30.57,-41.14 118.28,-26.75 170.57,-20.24"/>
<polygon fill="#63b8ff" stroke="#63b8ff" points="77.59,-205.62 87.7,-208.77 81.75,-200 77.59,-205.62"/>
</a>
</g>
</g>
<!-- Node11 -->
<g id="Node000011" class="node">
<title>Node11</title>
<g id="a_Node000011"><a xlink:href="Parser_8cpp.html" target="_top" xlink:title=" ">
<polygon fill="white" stroke="#666666" points="686.19,-173 522.19,-173 522.19,-143 686.19,-143 686.19,-173"/>
<text text-anchor="start" x="530.19" y="-161" font-family="Helvetica,sans-Serif" font-size="10.00">src/SceneSystem/ConfigParser</text>
<text text-anchor="middle" x="604.19" y="-150" font-family="Helvetica,sans-Serif" font-size="10.00">/Parser.cpp</text>
</a>
</g>
</g>
<!-- Node10&#45;&gt;Node11 -->
<g id="edge11_Node000010_Node000011" class="edge">
<title>Node10&#45;&gt;Node11</title>
<g id="a_edge11_Node000010_Node000011"><a xlink:title=" ">
<path fill="none" stroke="#63b8ff" d="M604.19,-204.25C604.19,-193.81 604.19,-181.99 604.19,-173.04"/>
<polygon fill="#63b8ff" stroke="#63b8ff" points="600.69,-204.44 604.19,-214.44 607.69,-204.44 600.69,-204.44"/>
</a>
</g>
</g>
<!-- Node12 -->
<g id="Node000012" class="node">
<title>Node12</title>
<g id="a_Node000012"><a xlink:href="SceneLoader_8hpp.html" target="_top" xlink:title=" ">
<polygon fill="white" stroke="#666666" points="553.69,-101.5 388.69,-101.5 388.69,-71.5 553.69,-71.5 553.69,-101.5"/>
<text text-anchor="start" x="396.69" y="-89.5" font-family="Helvetica,sans-Serif" font-size="10.00">src/SceneSystem/SceneLoader</text>
<text text-anchor="middle" x="471.19" y="-78.5" font-family="Helvetica,sans-Serif" font-size="10.00">/SceneLoader.hpp</text>
</a>
</g>
</g>
<!-- Node10&#45;&gt;Node12 -->
<g id="edge12_Node000010_Node000012" class="edge">
<title>Node10&#45;&gt;Node12</title>
<g id="a_edge12_Node000010_Node000012"><a xlink:title=" ">
<path fill="none" stroke="#63b8ff" d="M648.26,-209.89C680.46,-193.62 715.25,-168.64 695.19,-143 677.59,-120.52 610.18,-105.87 553.86,-97.3"/>
<polygon fill="#63b8ff" stroke="#63b8ff" points="646.33,-206.94 638.86,-214.45 649.39,-213.24 646.33,-206.94"/>
</a>
</g>
</g>
<!-- Node12&#45;&gt;Node9 -->
<g id="edge14_Node000012_Node000009" class="edge">
<title>Node12&#45;&gt;Node9</title>
<g id="a_edge14_Node000012_Node000009"><a xlink:title=" ">
<path fill="none" stroke="#63b8ff" d="M408.51,-68.81C356.16,-54.87 283.64,-35.56 242.36,-24.57"/>
<polygon fill="#63b8ff" stroke="#63b8ff" points="407.8,-72.24 418.37,-71.44 409.61,-65.48 407.8,-72.24"/>
</a>
</g>
</g>
<!-- Node13 -->
<g id="Node000013" class="node">
<title>Node13</title>
<g id="a_Node000013"><a xlink:href="SceneLoader_8cpp.html" target="_top" xlink:title=" ">
<polygon fill="white" stroke="#666666" points="553.69,-30 388.69,-30 388.69,0 553.69,0 553.69,-30"/>
<text text-anchor="start" x="396.69" y="-18" font-family="Helvetica,sans-Serif" font-size="10.00">src/SceneSystem/SceneLoader</text>
<text text-anchor="middle" x="471.19" y="-7" font-family="Helvetica,sans-Serif" font-size="10.00">/SceneLoader.cpp</text>
</a>
</g>
</g>
<!-- Node12&#45;&gt;Node13 -->
<g id="edge13_Node000012_Node000013" class="edge">
<title>Node12&#45;&gt;Node13</title>
<g id="a_edge13_Node000012_Node000013"><a xlink:title=" ">
<path fill="none" stroke="#63b8ff" d="M471.19,-61.25C471.19,-50.81 471.19,-38.99 471.19,-30.04"/>
<polygon fill="#63b8ff" stroke="#63b8ff" points="467.69,-61.44 471.19,-71.44 474.69,-61.44 467.69,-61.44"/>
</a>
</g>
</g>
<!-- Node14&#45;&gt;Node12 -->
<g id="edge23_Node000014_Node000012" class="edge">
<title>Node14&#45;&gt;Node12</title>
<g id="a_edge23_Node000014_Node000012"><a xlink:title=" ">
<path fill="none" stroke="#63b8ff" d="M347.97,-208.26C326.55,-190.87 303.69,-165.16 319.19,-143 330.42,-126.94 374.54,-111.91 412.38,-101.54"/>
<polygon fill="#63b8ff" stroke="#63b8ff" points="345.98,-211.14 356.03,-214.5 350.26,-205.61 345.98,-211.14"/>
</a>
</g>
</g>
<!-- Node15 -->
<g id="Node000015" class="node">
<title>Node15</title>
<g id="a_Node000015"><a xlink:href="PluginManager_8cpp.html" target="_top" xlink:title=" ">
<polygon fill="white" stroke="#666666" points="504.19,-173 328.19,-173 328.19,-143 504.19,-143 504.19,-173"/>
<text text-anchor="start" x="336.19" y="-161" font-family="Helvetica,sans-Serif" font-size="10.00">src/SceneSystem/PluginManager</text>
<text text-anchor="middle" x="416.19" y="-150" font-family="Helvetica,sans-Serif" font-size="10.00">/PluginManager.cpp</text>
</a>
</g>
</g>
<!-- Node14&#45;&gt;Node15 -->
<g id="edge16_Node000014_Node000015" class="edge">
<title>Node14&#45;&gt;Node15</title>
<g id="a_edge16_Node000014_Node000015"><a xlink:title=" ">
<path fill="none" stroke="#63b8ff" d="M390.06,-205.56C396.09,-194.82 403.07,-182.36 408.3,-173.04"/>
<polygon fill="#63b8ff" stroke="#63b8ff" points="386.92,-204 385.08,-214.44 393.02,-207.43 386.92,-204"/>
</a>
</g>
</g>
<!-- Node14&#45;&gt;Node16 -->
<g id="edge17_Node000014_Node000016" class="edge">
<title>Node14&#45;&gt;Node16</title>
<g id="a_edge17_Node000014_Node000016"><a xlink:title=" ">
<path fill="none" stroke="#63b8ff" d="M333.17,-210.61C304.41,-198.92 267.38,-183.87 240.74,-173.04"/>
<polygon fill="#63b8ff" stroke="#63b8ff" points="332,-213.91 342.58,-214.44 334.63,-207.43 332,-213.91"/>
</a>
</g>
</g>
<!-- Node16&#45;&gt;Node8 -->
<g id="edge18_Node000016_Node000008" class="edge">
<title>Node16&#45;&gt;Node8</title>
<g id="a_edge18_Node000016_Node000008"><a xlink:title=" ">
<path fill="none" stroke="#63b8ff" d="M176.44,-137.31C162.14,-127.84 145.04,-116.53 130.76,-107.07"/>
<polygon fill="#63b8ff" stroke="#63b8ff" points="174.67,-140.33 184.94,-142.94 178.53,-134.5 174.67,-140.33"/>
</a>
</g>
</g>
<!-- Node16&#45;&gt;Node9 -->
<g id="edge22_Node000016_Node000009" class="edge">
<title>Node16&#45;&gt;Node9</title>
<g id="a_edge22_Node000016_Node000009"><a xlink:title=" ">
<path fill="none" stroke="#63b8ff" d="M206.88,-132.66C207.79,-100.6 209.34,-45.79 209.94,-24.66"/>
<polygon fill="#63b8ff" stroke="#63b8ff" points="203.37,-132.87 206.58,-142.96 210.37,-133.07 203.37,-132.87"/>
</a>
</g>
</g>
<!-- Node16&#45;&gt;Node12 -->
<g id="edge21_Node000016_Node000012" class="edge">
<title>Node16&#45;&gt;Node12</title>
<g id="a_edge21_Node000016_Node000012"><a xlink:title=" ">
<path fill="none" stroke="#63b8ff" d="M269.51,-140.39C314.7,-128.54 374.83,-112.77 417.64,-101.54"/>
<polygon fill="#63b8ff" stroke="#63b8ff" points="268.6,-137.01 259.81,-142.94 270.37,-143.78 268.6,-137.01"/>
</a>
</g>
</g>
<!-- Node16&#45;&gt;Node17 -->
<g id="edge19_Node000016_Node000017" class="edge">
<title>Node16&#45;&gt;Node17</title>
<g id="a_edge19_Node000016_Node000017"><a xlink:title=" ">
<path fill="none" stroke="#63b8ff" d="M282.41,-146.64C354.52,-136.75 465.78,-121.29 562.19,-107 582.5,-103.99 604.65,-100.58 624.58,-97.46"/>
<polygon fill="#63b8ff" stroke="#63b8ff" points="281.93,-143.17 272.5,-147.99 282.88,-150.1 281.93,-143.17"/>
</a>
</g>
</g>
<!-- Node18 -->
<g id="Node000018" class="node">
<title>Node18</title>
<g id="a_Node000018"><a xlink:href="Scene_8cpp.html" target="_top" xlink:title=" ">
<polygon fill="white" stroke="#666666" points="370.19,-101.5 238.19,-101.5 238.19,-71.5 370.19,-71.5 370.19,-101.5"/>
<text text-anchor="start" x="246.19" y="-89.5" font-family="Helvetica,sans-Serif" font-size="10.00">src/SceneSystem/Scene</text>
<text text-anchor="middle" x="304.19" y="-78.5" font-family="Helvetica,sans-Serif" font-size="10.00">/Scene.cpp</text>
</a>
</g>
</g>
<!-- Node16&#45;&gt;Node18 -->
<g id="edge20_Node000016_Node000018" class="edge">
<title>Node16&#45;&gt;Node18</title>
<g id="a_edge20_Node000016_Node000018"><a xlink:title=" ">
<path fill="none" stroke="#63b8ff" d="M234.47,-136.94C250.46,-125.6 270.04,-111.71 284.38,-101.54"/>
<polygon fill="#63b8ff" stroke="#63b8ff" points="232.15,-134.3 226.02,-142.94 236.2,-140.01 232.15,-134.3"/>
</a>
</g>
</g>
<!-- Node21 -->
<g id="Node000021" class="node">
<title>Node21</title>
<g id="a_Node000021"><a xlink:href="Cylinder_8cpp.html" target="_top" xlink:title=" ">
<polygon fill="white" stroke="#666666" points="1297.69,-250 1172.69,-250 1172.69,-209 1297.69,-209 1297.69,-250"/>
<text text-anchor="start" x="1180.69" y="-238" font-family="Helvetica,sans-Serif" font-size="10.00">src/Objects/Plugins</text>
<text text-anchor="start" x="1180.69" y="-227" font-family="Helvetica,sans-Serif" font-size="10.00">/CorePlugin/Primitives</text>
<text text-anchor="middle" x="1235.19" y="-216" font-family="Helvetica,sans-Serif" font-size="10.00">/Cylinder/Cylinder.cpp</text>
</a>
</g>
</g>
<!-- Node20&#45;&gt;Node21 -->
<g id="edge27_Node000020_Node000021" class="edge">
<title>Node20&#45;&gt;Node21</title>
<g id="a_edge27_Node000020_Node000021"><a xlink:title=" ">
<path fill="none" stroke="#63b8ff" d="M1235.19,-275.69C1235.19,-267.08 1235.19,-257.9 1235.19,-250.07"/>
<polygon fill="#63b8ff" stroke="#63b8ff" points="1231.69,-275.79 1235.19,-285.79 1238.69,-275.79 1231.69,-275.79"/>
</a>
</g>
</g>
<!-- Node22&#45;&gt;Node6 -->
<g id="edge29_Node000022_Node000006" class="edge">
<title>Node22&#45;&gt;Node6</title>
<g id="a_edge29_Node000022_Node000006"><a xlink:title=" ">
<path fill="none" stroke="#63b8ff" d="M1045.85,-279.78C1035.53,-271.69 1025.96,-261.73 1020.19,-250 1012.14,-233.65 1009.64,-223.86 1020.19,-209 1036.09,-186.59 1062.84,-174.14 1088.93,-167.26"/>
<polygon fill="#63b8ff" stroke="#63b8ff" points="1044.07,-282.82 1054.22,-285.87 1048.19,-277.16 1044.07,-282.82"/>
</a>
</g>
</g>
<!-- Node23 -->
<g id="Node000023" class="node">
<title>Node23</title>
<g id="a_Node000023"><a xlink:href="Plane_8cpp.html" target="_top" xlink:title=" ">
<polygon fill="white" stroke="#666666" points="1154.69,-250 1029.69,-250 1029.69,-209 1154.69,-209 1154.69,-250"/>
<text text-anchor="start" x="1037.69" y="-238" font-family="Helvetica,sans-Serif" font-size="10.00">src/Objects/Plugins</text>
<text text-anchor="start" x="1037.69" y="-227" font-family="Helvetica,sans-Serif" font-size="10.00">/CorePlugin/Primitives</text>
<text text-anchor="middle" x="1092.19" y="-216" font-family="Helvetica,sans-Serif" font-size="10.00">/Plane/Plane.cpp</text>
</a>
</g>
</g>
<!-- Node22&#45;&gt;Node23 -->
<g id="edge30_Node000022_Node000023" class="edge">
<title>Node22&#45;&gt;Node23</title>
<g id="a_edge30_Node000022_Node000023"><a xlink:title=" ">
<path fill="none" stroke="#63b8ff" d="M1092.19,-275.69C1092.19,-267.08 1092.19,-257.9 1092.19,-250.07"/>
<polygon fill="#63b8ff" stroke="#63b8ff" points="1088.69,-275.79 1092.19,-285.79 1095.69,-275.79 1088.69,-275.79"/>
</a>
</g>
</g>
<!-- Node24&#45;&gt;Node6 -->
<g id="edge32_Node000024_Node000006" class="edge">
<title>Node24&#45;&gt;Node6</title>
<g id="a_edge32_Node000024_Node000006"><a xlink:title=" ">
<path fill="none" stroke="#63b8ff" d="M877.4,-283.99C861.87,-275.88 847.37,-264.86 838.19,-250 828.61,-234.5 826.32,-222.83 838.19,-209 869.83,-172.12 1003.12,-162.18 1088.87,-159.66"/>
<polygon fill="#63b8ff" stroke="#63b8ff" points="876.1,-287.25 886.63,-288.44 879.14,-280.94 876.1,-287.25"/>
</a>
</g>
</g>
<!-- Node25 -->
<g id="Node000025" class="node">
<title>Node25</title>
<g id="a_Node000025"><a xlink:href="Sphere_8cpp.html" target="_top" xlink:title=" ">
<polygon fill="white" stroke="#666666" points="972.69,-250 847.69,-250 847.69,-209 972.69,-209 972.69,-250"/>
<text text-anchor="start" x="855.69" y="-238" font-family="Helvetica,sans-Serif" font-size="10.00">src/Objects/Plugins</text>
<text text-anchor="start" x="855.69" y="-227" font-family="Helvetica,sans-Serif" font-size="10.00">/CorePlugin/Primitives</text>
<text text-anchor="middle" x="910.19" y="-216" font-family="Helvetica,sans-Serif" font-size="10.00">/Sphere/Sphere.cpp</text>
</a>
</g>
</g>
<!-- Node24&#45;&gt;Node25 -->
<g id="edge33_Node000024_Node000025" class="edge">
<title>Node24&#45;&gt;Node25</title>
<g id="a_edge33_Node000024_Node000025"><a xlink:title=" ">
<path fill="none" stroke="#63b8ff" d="M934.28,-276.83C929.63,-267.89 924.61,-258.24 920.36,-250.07"/>
<polygon fill="#63b8ff" stroke="#63b8ff" points="931.22,-278.54 938.94,-285.79 937.43,-275.31 931.22,-278.54"/>
</a>
</g>
</g>
<!-- Node26&#45;&gt;Node6 -->
<g id="edge37_Node000026_Node000006" class="edge">
<title>Node26&#45;&gt;Node6</title>
<g id="a_edge37_Node000026_Node000006"><a xlink:title=" ">
<path fill="none" stroke="#63b8ff" d="M1313.4,-353.15C1324.35,-315.95 1336.39,-251.55 1306.19,-209 1290.28,-186.59 1263.53,-174.14 1237.44,-167.26"/>
<polygon fill="#63b8ff" stroke="#63b8ff" points="1310,-352.3 1310.38,-362.88 1316.69,-354.37 1310,-352.3"/>
</a>
</g>
</g>
<!-- Node27 -->
<g id="Node000027" class="node">
<title>Node27</title>
<g id="a_Node000027"><a xlink:href="Lambertian_8cpp.html" target="_top" xlink:title=" ">
<polygon fill="white" stroke="#666666" points="1688.19,-327 1534.19,-327 1534.19,-286 1688.19,-286 1688.19,-327"/>
<text text-anchor="start" x="1542.19" y="-315" font-family="Helvetica,sans-Serif" font-size="10.00">src/Objects/Plugins</text>
<text text-anchor="start" x="1542.19" y="-304" font-family="Helvetica,sans-Serif" font-size="10.00">/CorePlugin/Materials</text>
<text text-anchor="middle" x="1611.19" y="-293" font-family="Helvetica,sans-Serif" font-size="10.00">/Lambertian/Lambertian.cpp</text>
</a>
</g>
</g>
<!-- Node26&#45;&gt;Node27 -->
<g id="edge38_Node000026_Node000027" class="edge">
<title>Node26&#45;&gt;Node27</title>
<g id="a_edge38_Node000026_Node000027"><a xlink:title=" ">
<path fill="none" stroke="#63b8ff" d="M1390.69,-361.19C1435.85,-350.2 1490.45,-336.9 1534.02,-326.29"/>
<polygon fill="#63b8ff" stroke="#63b8ff" points="1389.79,-357.81 1380.91,-363.57 1391.45,-364.61 1389.79,-357.81"/>
</a>
</g>
</g>
<!-- Node28&#45;&gt;Node6 -->
<g id="edge43_Node000028_Node000006" class="edge">
<title>Node28&#45;&gt;Node6</title>
<g id="a_edge43_Node000028_Node000006"><a xlink:title=" ">
<path fill="none" stroke="#63b8ff" d="M1707.11,-434.47C1718.75,-426.47 1729.52,-416.39 1736.19,-404 1744.82,-387.95 1738.6,-381.06 1736.19,-363 1731.48,-327.84 1735.95,-314.76 1715.19,-286 1678.95,-235.84 1657.31,-230.22 1599.19,-209 1534.51,-185.38 1343.81,-170.19 1237.29,-163.3"/>
<polygon fill="#63b8ff" stroke="#63b8ff" points="1705.08,-431.62 1698.52,-439.94 1708.84,-437.52 1705.08,-431.62"/>
</a>
</g>
</g>
<!-- Node29 -->
<g id="Node000029" class="node">
<title>Node29</title>
<g id="a_Node000029"><a xlink:href="AmbientLight_8cpp.html" target="_top" xlink:title=" ">
<polygon fill="white" stroke="#666666" points="1726.69,-404 1577.69,-404 1577.69,-363 1726.69,-363 1726.69,-404"/>
<text text-anchor="start" x="1585.69" y="-392" font-family="Helvetica,sans-Serif" font-size="10.00">src/Objects/Plugins</text>
<text text-anchor="start" x="1585.69" y="-381" font-family="Helvetica,sans-Serif" font-size="10.00">/CorePlugin/Lights/Ambient</text>
<text text-anchor="middle" x="1652.19" y="-370" font-family="Helvetica,sans-Serif" font-size="10.00">Light/AmbientLight.cpp</text>
</a>
</g>
</g>
<!-- Node28&#45;&gt;Node29 -->
<g id="edge44_Node000028_Node000029" class="edge">
<title>Node28&#45;&gt;Node29</title>
<g id="a_edge44_Node000028_Node000029"><a xlink:title=" ">
<path fill="none" stroke="#63b8ff" d="M1652.19,-429.69C1652.19,-421.08 1652.19,-411.9 1652.19,-404.07"/>
<polygon fill="#63b8ff" stroke="#63b8ff" points="1648.69,-429.79 1652.19,-439.79 1655.69,-429.79 1648.69,-429.79"/>
</a>
</g>
</g>
<!-- Node30&#45;&gt;Node6 -->
<g id="edge46_Node000030_Node000006" class="edge">
<title>Node30&#45;&gt;Node6</title>
<g id="a_edge46_Node000030_Node000006"><a xlink:title=" ">
<path fill="none" stroke="#63b8ff" d="M1569.85,-362.07C1627.84,-348.58 1692.98,-332.41 1697.19,-327 1708.37,-312.61 1708.48,-300.3 1697.19,-286 1640.66,-214.45 1370.22,-178.9 1237.29,-165.52"/>
<polygon fill="#63b8ff" stroke="#63b8ff" points="1568.82,-358.72 1559.87,-364.39 1570.4,-365.54 1568.82,-358.72"/>
</a>
</g>
</g>
<!-- Node30&#45;&gt;Node19 -->
<g id="edge47_Node000030_Node000019" class="edge">
<title>Node30&#45;&gt;Node19</title>
<g id="a_edge47_Node000030_Node000019"><a xlink:title=" ">
<path fill="none" stroke="#63b8ff" d="M1462.53,-354.11C1457.24,-345.09 1451.51,-335.33 1446.67,-327.07"/>
<polygon fill="#63b8ff" stroke="#63b8ff" points="1459.55,-355.94 1467.62,-362.79 1465.58,-352.4 1459.55,-355.94"/>
</a>
</g>
</g>
<!-- Node31&#45;&gt;Node6 -->
<g id="edge49_Node000031_Node000006" class="edge">
<title>Node31&#45;&gt;Node6</title>
<g id="a_edge49_Node000031_Node000006"><a xlink:title=" ">
<path fill="none" stroke="#63b8ff" d="M1917.75,-434.35C1929.53,-426.41 1940.39,-416.39 1947.19,-404 1955.95,-388.02 1956.61,-378.6 1947.19,-363 1871.12,-237.08 1795.04,-251.45 1654.19,-209 1578.2,-186.1 1355.07,-170.16 1237.55,-163.1"/>
<polygon fill="#63b8ff" stroke="#63b8ff" points="1915.69,-431.51 1909.05,-439.77 1919.39,-437.45 1915.69,-431.51"/>
</a>
</g>
</g>
<!-- Node32 -->
<g id="Node000032" class="node">
<title>Node32</title>
<g id="a_Node000032"><a xlink:href="PointLight_8cpp.html" target="_top" xlink:title=" ">
<polygon fill="white" stroke="#666666" points="1938.19,-404 1782.19,-404 1782.19,-363 1938.19,-363 1938.19,-404"/>
<text text-anchor="start" x="1790.19" y="-392" font-family="Helvetica,sans-Serif" font-size="10.00">src/Objects/Plugins</text>
<text text-anchor="start" x="1790.19" y="-381" font-family="Helvetica,sans-Serif" font-size="10.00">/CorePlugin/Lights/PointLight</text>
<text text-anchor="middle" x="1860.19" y="-370" font-family="Helvetica,sans-Serif" font-size="10.00">/PointLight.cpp</text>
</a>
</g>
</g>
<!-- Node31&#45;&gt;Node32 -->
<g id="edge50_Node000031_Node000032" class="edge">
<title>Node31&#45;&gt;Node32</title>
<g id="a_edge50_Node000031_Node000032"><a xlink:title=" ">
<path fill="none" stroke="#63b8ff" d="M1860.19,-429.69C1860.19,-421.08 1860.19,-411.9 1860.19,-404.07"/>
<polygon fill="#63b8ff" stroke="#63b8ff" points="1856.69,-429.79 1860.19,-439.79 1863.69,-429.79 1856.69,-429.79"/>
</a>
</g>
</g>
</g>
</svg>
