<?xml version="1.0" encoding="UTF-8" standalone="no"?>
<!DOCTYPE svg PUBLIC "-//W3C//DTD SVG 1.1//EN"
 "http://www.w3.org/Graphics/SVG/1.1/DTD/svg11.dtd">
<!-- Generated by graphviz version 2.43.0 (0)
 -->
<!-- Title: src/Objects/Abstracts/IMaterial.hpp Pages: 1 -->
<svg width="1239pt" height="467pt"
 viewBox="0.00 0.00 1239.00 467.00" xmlns="http://www.w3.org/2000/svg" xmlns:xlink="http://www.w3.org/1999/xlink">
<g id="graph0" class="graph" transform="scale(1 1) rotate(0) translate(4 463)">
<title>src/Objects/Abstracts/IMaterial.hpp</title>
<!-- Node1 -->
<g id="Node000001" class="node">
<title>Node1</title>
<g id="a_Node000001"><a xlink:title=" ">
<polygon fill="#999999" stroke="#666666" points="610.5,-459 491.5,-459 491.5,-429 610.5,-429 610.5,-459"/>
<text text-anchor="start" x="499.5" y="-447" font-family="Helvetica,sans-Serif" font-size="10.00">src/Objects/Abstracts</text>
<text text-anchor="middle" x="551" y="-436" font-family="Helvetica,sans-Serif" font-size="10.00">/IMaterial.hpp</text>
</a>
</g>
</g>
<!-- Node2 -->
<g id="Node000002" class="node">
<title>Node2</title>
<g id="a_Node000002"><a xlink:href="HitRecord_8hpp.html" target="_top" xlink:title=" ">
<polygon fill="white" stroke="#666666" points="134,-206 0,-206 0,-176 134,-176 134,-206"/>
<text text-anchor="start" x="8" y="-194" font-family="Helvetica,sans-Serif" font-size="10.00">../../Geometry/HitRecord</text>
<text text-anchor="middle" x="67" y="-183" font-family="Helvetica,sans-Serif" font-size="10.00">/HitRecord.hpp</text>
</a>
</g>
</g>
<!-- Node1&#45;&gt;Node2 -->
<g id="edge1_Node000001_Node000002" class="edge">
<title>Node1&#45;&gt;Node2</title>
<g id="a_edge1_Node000001_Node000002"><a xlink:title=" ">
<path fill="none" stroke="#63b8ff" d="M520.46,-428.84C459.59,-400.42 319.06,-333.85 204,-272 167.38,-252.32 126.32,-228.03 98.78,-211.42"/>
<polygon fill="#63b8ff" stroke="#63b8ff" points="100.35,-208.28 89.99,-206.09 96.73,-214.27 100.35,-208.28"/>
</a>
</g>
</g>
<!-- Node7 -->
<g id="Node000007" class="node">
<title>Node7</title>
<g id="a_Node000007"><a xlink:href="Color_8hpp.html" target="_top" xlink:title=" ">
<polygon fill="white" stroke="#666666" points="617,-134.5 511,-134.5 511,-115.5 617,-115.5 617,-134.5"/>
<text text-anchor="middle" x="564" y="-122.5" font-family="Helvetica,sans-Serif" font-size="10.00">../../Utils/Color.hpp</text>
</a>
</g>
</g>
<!-- Node1&#45;&gt;Node7 -->
<g id="edge7_Node000001_Node000007" class="edge">
<title>Node1&#45;&gt;Node7</title>
<g id="a_edge7_Node000001_Node000007"><a xlink:title=" ">
<path fill="none" stroke="#63b8ff" d="M544.93,-428.64C536.16,-406.56 521,-362.78 521,-324 521,-324 521,-324 521,-256 521,-213.98 541.5,-168.02 554.19,-143.58"/>
<polygon fill="#63b8ff" stroke="#63b8ff" points="557.42,-144.97 559.07,-134.5 551.25,-141.65 557.42,-144.97"/>
</a>
</g>
</g>
<!-- Node9 -->
<g id="Node000009" class="node">
<title>Node9</title>
<g id="a_Node000009"><a xlink:href="ILight_8hpp.html" target="_top" xlink:title=" ">
<polygon fill="white" stroke="#666666" points="614.5,-393 549.5,-393 549.5,-374 614.5,-374 614.5,-393"/>
<text text-anchor="middle" x="582" y="-381" font-family="Helvetica,sans-Serif" font-size="10.00">ILight.hpp</text>
</a>
</g>
</g>
<!-- Node1&#45;&gt;Node9 -->
<g id="edge9_Node000001_Node000009" class="edge">
<title>Node1&#45;&gt;Node9</title>
<g id="a_edge9_Node000001_Node000009"><a xlink:title=" ">
<path fill="none" stroke="#63b8ff" d="M558.5,-428.84C562.73,-420.87 568.04,-410.84 572.55,-402.33"/>
<polygon fill="#63b8ff" stroke="#63b8ff" points="575.77,-403.74 577.35,-393.27 569.58,-400.46 575.77,-403.74"/>
</a>
</g>
</g>
<!-- Node13 -->
<g id="Node000013" class="node">
<title>Node13</title>
<g id="a_Node000013"><a xlink:title=" ">
<polygon fill="#e0e0e0" stroke="#999999" points="858.5,-134.5 811.5,-134.5 811.5,-115.5 858.5,-115.5 858.5,-134.5"/>
<text text-anchor="middle" x="835" y="-122.5" font-family="Helvetica,sans-Serif" font-size="10.00">vector</text>
</a>
</g>
</g>
<!-- Node1&#45;&gt;Node13 -->
<g id="edge31_Node000001_Node000013" class="edge">
<title>Node1&#45;&gt;Node13</title>
<g id="a_edge31_Node000001_Node000013"><a xlink:title=" ">
<path fill="none" stroke="#63b8ff" d="M610.54,-443.23C693.81,-440.08 835,-420.49 835,-324 835,-324 835,-324 835,-256 835,-216.45 835,-170.13 835,-144.84"/>
<polygon fill="#63b8ff" stroke="#63b8ff" points="838.5,-144.52 835,-134.52 831.5,-144.52 838.5,-144.52"/>
</a>
</g>
</g>
<!-- Node3 -->
<g id="Node000003" class="node">
<title>Node3</title>
<g id="a_Node000003"><a xlink:href="Point3D_8hpp.html" target="_top" xlink:title=" ">
<polygon fill="white" stroke="#666666" points="324,-134.5 198,-134.5 198,-115.5 324,-115.5 324,-134.5"/>
<text text-anchor="middle" x="261" y="-122.5" font-family="Helvetica,sans-Serif" font-size="10.00">../Point3D/Point3D.hpp</text>
</a>
</g>
</g>
<!-- Node2&#45;&gt;Node3 -->
<g id="edge2_Node000002_Node000003" class="edge">
<title>Node2&#45;&gt;Node3</title>
<g id="a_edge2_Node000002_Node000003"><a xlink:title=" ">
<path fill="none" stroke="#63b8ff" d="M109.57,-175.95C144.35,-164.48 192.91,-148.46 225.59,-137.68"/>
<polygon fill="#63b8ff" stroke="#63b8ff" points="226.78,-140.97 235.18,-134.52 224.59,-134.33 226.78,-140.97"/>
</a>
</g>
</g>
<!-- Node4 -->
<g id="Node000004" class="node">
<title>Node4</title>
<g id="a_Node000004"><a xlink:href="Vector3D_8hpp.html" target="_top" xlink:title=" ">
<polygon fill="white" stroke="#666666" points="421,-74 283,-74 283,-55 421,-55 421,-74"/>
<text text-anchor="middle" x="352" y="-62" font-family="Helvetica,sans-Serif" font-size="10.00">../Vector3D/Vector3D.hpp</text>
</a>
</g>
</g>
<!-- Node2&#45;&gt;Node4 -->
<g id="edge5_Node000002_Node000004" class="edge">
<title>Node2&#45;&gt;Node4</title>
<g id="a_edge5_Node000002_Node000004"><a xlink:title=" ">
<path fill="none" stroke="#63b8ff" d="M58.35,-175.75C48.93,-158.17 37.16,-128.37 53,-110 80.84,-77.71 193.75,-68.48 272.56,-66.05"/>
<polygon fill="#63b8ff" stroke="#63b8ff" points="273.06,-69.54 282.96,-65.76 272.86,-62.54 273.06,-69.54"/>
</a>
</g>
</g>
<!-- Node6 -->
<g id="Node000006" class="node">
<title>Node6</title>
<g id="a_Node000006"><a xlink:title=" ">
<polygon fill="#e0e0e0" stroke="#999999" points="180,-140 62,-140 62,-110 180,-110 180,-140"/>
<text text-anchor="start" x="70" y="-128" font-family="Helvetica,sans-Serif" font-size="10.00">../../Objects/Interface</text>
<text text-anchor="middle" x="121" y="-117" font-family="Helvetica,sans-Serif" font-size="10.00">/IMaterial.hpp</text>
</a>
</g>
</g>
<!-- Node2&#45;&gt;Node6 -->
<g id="edge6_Node000002_Node000006" class="edge">
<title>Node2&#45;&gt;Node6</title>
<g id="a_edge6_Node000002_Node000006"><a xlink:title=" ">
<path fill="none" stroke="#63b8ff" d="M78.98,-175.8C85.91,-167.59 94.76,-157.1 102.55,-147.87"/>
<polygon fill="#63b8ff" stroke="#63b8ff" points="105.28,-150.06 109.05,-140.16 99.93,-145.55 105.28,-150.06"/>
</a>
</g>
</g>
<!-- Node3&#45;&gt;Node4 -->
<g id="edge3_Node000003_Node000004" class="edge">
<title>Node3&#45;&gt;Node4</title>
<g id="a_edge3_Node000003_Node000004"><a xlink:title=" ">
<path fill="none" stroke="#63b8ff" d="M274.43,-115.37C289.08,-105.95 312.76,-90.73 330.1,-79.58"/>
<polygon fill="#63b8ff" stroke="#63b8ff" points="332,-82.52 338.52,-74.17 328.21,-76.63 332,-82.52"/>
</a>
</g>
</g>
<!-- Node5 -->
<g id="Node000005" class="node">
<title>Node5</title>
<g id="a_Node000005"><a xlink:title=" ">
<polygon fill="#e0e0e0" stroke="#999999" points="377.5,-19 326.5,-19 326.5,0 377.5,0 377.5,-19"/>
<text text-anchor="middle" x="352" y="-7" font-family="Helvetica,sans-Serif" font-size="10.00">math.h</text>
</a>
</g>
</g>
<!-- Node4&#45;&gt;Node5 -->
<g id="edge4_Node000004_Node000005" class="edge">
<title>Node4&#45;&gt;Node5</title>
<g id="a_edge4_Node000004_Node000005"><a xlink:title=" ">
<path fill="none" stroke="#63b8ff" d="M352,-54.75C352,-47.8 352,-37.85 352,-29.13"/>
<polygon fill="#63b8ff" stroke="#63b8ff" points="355.5,-29.09 352,-19.09 348.5,-29.09 355.5,-29.09"/>
</a>
</g>
</g>
<!-- Node8 -->
<g id="Node000008" class="node">
<title>Node8</title>
<g id="a_Node000008"><a xlink:title=" ">
<polygon fill="#e0e0e0" stroke="#999999" points="596,-74 532,-74 532,-55 596,-55 596,-74"/>
<text text-anchor="middle" x="564" y="-62" font-family="Helvetica,sans-Serif" font-size="10.00">algorithm</text>
</a>
</g>
</g>
<!-- Node7&#45;&gt;Node8 -->
<g id="edge8_Node000007_Node000008" class="edge">
<title>Node7&#45;&gt;Node8</title>
<g id="a_edge8_Node000007_Node000008"><a xlink:title=" ">
<path fill="none" stroke="#63b8ff" d="M564,-115.37C564,-107.25 564,-94.81 564,-84.39"/>
<polygon fill="#63b8ff" stroke="#63b8ff" points="567.5,-84.17 564,-74.17 560.5,-84.17 567.5,-84.17"/>
</a>
</g>
</g>
<!-- Node9&#45;&gt;Node2 -->
<g id="edge10_Node000009_Node000002" class="edge">
<title>Node9&#45;&gt;Node2</title>
<g id="a_edge10_Node000009_Node000002"><a xlink:title=" ">
<path fill="none" stroke="#63b8ff" d="M558.87,-373.94C480.2,-344.84 221.9,-249.3 114.5,-209.57"/>
<polygon fill="#63b8ff" stroke="#63b8ff" points="115.48,-206.2 104.89,-206.02 113.06,-212.77 115.48,-206.2"/>
</a>
</g>
</g>
<!-- Node9&#45;&gt;Node7 -->
<g id="edge11_Node000009_Node000007" class="edge">
<title>Node9&#45;&gt;Node7</title>
<g id="a_edge11_Node000009_Node000007"><a xlink:title=" ">
<path fill="none" stroke="#63b8ff" d="M581.4,-373.97C578.86,-337.76 568.94,-196.33 565.32,-144.86"/>
<polygon fill="#63b8ff" stroke="#63b8ff" points="568.79,-144.3 564.6,-134.57 561.81,-144.79 568.79,-144.3"/>
</a>
</g>
</g>
<!-- Node10 -->
<g id="Node000010" class="node">
<title>Node10</title>
<g id="a_Node000010"><a xlink:href="Scene_8hpp.html" target="_top" xlink:title=" ">
<polygon fill="white" stroke="#666666" points="1011.5,-338 878.5,-338 878.5,-308 1011.5,-308 1011.5,-338"/>
<text text-anchor="start" x="886.5" y="-326" font-family="Helvetica,sans-Serif" font-size="10.00">../../SceneSystem/Scene</text>
<text text-anchor="middle" x="945" y="-315" font-family="Helvetica,sans-Serif" font-size="10.00">/Scene.hpp</text>
</a>
</g>
</g>
<!-- Node9&#45;&gt;Node10 -->
<g id="edge12_Node000009_Node000010" class="edge">
<title>Node9&#45;&gt;Node10</title>
<g id="a_edge12_Node000009_Node000010"><a xlink:title=" ">
<path fill="none" stroke="#63b8ff" d="M614.53,-377.26C671.16,-368.13 789.28,-349.09 867.87,-336.43"/>
<polygon fill="#63b8ff" stroke="#63b8ff" points="868.89,-339.81 878.21,-334.76 867.78,-332.9 868.89,-339.81"/>
</a>
</g>
</g>
<!-- Node11 -->
<g id="Node000011" class="node">
<title>Node11</title>
<g id="a_Node000011"><a xlink:href="SceneSystem_2Camera_2Camera_8hpp.html" target="_top" xlink:title=" ">
<polygon fill="white" stroke="#666666" points="479,-266.5 353,-266.5 353,-247.5 479,-247.5 479,-266.5"/>
<text text-anchor="middle" x="416" y="-254.5" font-family="Helvetica,sans-Serif" font-size="10.00">../Camera/Camera.hpp</text>
</a>
</g>
</g>
<!-- Node10&#45;&gt;Node11 -->
<g id="edge13_Node000010_Node000011" class="edge">
<title>Node10&#45;&gt;Node11</title>
<g id="a_edge13_Node000010_Node000011"><a xlink:title=" ">
<path fill="none" stroke="#63b8ff" d="M878.27,-313.93C778.81,-301.89 592.37,-279.34 489.25,-266.86"/>
<polygon fill="#63b8ff" stroke="#63b8ff" points="489.58,-263.38 479.23,-265.65 488.74,-270.33 489.58,-263.38"/>
</a>
</g>
</g>
<!-- Node10&#45;&gt;Node13 -->
<g id="edge29_Node000010_Node000013" class="edge">
<title>Node10&#45;&gt;Node13</title>
<g id="a_edge29_Node000010_Node000013"><a xlink:title=" ">
<path fill="none" stroke="#63b8ff" d="M926.31,-307.92C915.14,-298.7 901.34,-285.84 892,-272 877.31,-250.22 852.35,-178.23 840.97,-144.17"/>
<polygon fill="#63b8ff" stroke="#63b8ff" points="844.25,-142.94 837.78,-134.55 837.61,-145.14 844.25,-142.94"/>
</a>
</g>
</g>
<!-- Node17 -->
<g id="Node000017" class="node">
<title>Node17</title>
<g id="a_Node000017"><a xlink:title=" ">
<polygon fill="#e0e0e0" stroke="#999999" points="1019,-272 901,-272 901,-242 1019,-242 1019,-272"/>
<text text-anchor="start" x="909" y="-260" font-family="Helvetica,sans-Serif" font-size="10.00">../../Objects/Interface</text>
<text text-anchor="middle" x="960" y="-249" font-family="Helvetica,sans-Serif" font-size="10.00">/IPrimitive.hpp</text>
</a>
</g>
</g>
<!-- Node10&#45;&gt;Node17 -->
<g id="edge27_Node000010_Node000017" class="edge">
<title>Node10&#45;&gt;Node17</title>
<g id="a_edge27_Node000010_Node000017"><a xlink:title=" ">
<path fill="none" stroke="#63b8ff" d="M948.33,-307.8C950.1,-300.26 952.32,-290.78 954.34,-282.13"/>
<polygon fill="#63b8ff" stroke="#63b8ff" points="957.81,-282.7 956.68,-272.16 950.99,-281.1 957.81,-282.7"/>
</a>
</g>
</g>
<!-- Node18 -->
<g id="Node000018" class="node">
<title>Node18</title>
<g id="a_Node000018"><a xlink:title=" ">
<polygon fill="#e0e0e0" stroke="#999999" points="1155,-272 1037,-272 1037,-242 1155,-242 1155,-272"/>
<text text-anchor="start" x="1045" y="-260" font-family="Helvetica,sans-Serif" font-size="10.00">../../Objects/Interface</text>
<text text-anchor="middle" x="1096" y="-249" font-family="Helvetica,sans-Serif" font-size="10.00">/ILight.hpp</text>
</a>
</g>
</g>
<!-- Node10&#45;&gt;Node18 -->
<g id="edge28_Node000010_Node000018" class="edge">
<title>Node10&#45;&gt;Node18</title>
<g id="a_edge28_Node000010_Node000018"><a xlink:title=" ">
<path fill="none" stroke="#63b8ff" d="M978.14,-307.95C1000.27,-298.58 1029.57,-286.16 1053.42,-276.05"/>
<polygon fill="#63b8ff" stroke="#63b8ff" points="1055.1,-279.14 1062.94,-272.01 1052.37,-272.69 1055.1,-279.14"/>
</a>
</g>
</g>
<!-- Node19 -->
<g id="Node000019" class="node">
<title>Node19</title>
<g id="a_Node000019"><a xlink:title=" ">
<polygon fill="#e0e0e0" stroke="#999999" points="1231,-266.5 1173,-266.5 1173,-247.5 1231,-247.5 1231,-266.5"/>
<text text-anchor="middle" x="1202" y="-254.5" font-family="Helvetica,sans-Serif" font-size="10.00">memory</text>
</a>
</g>
</g>
<!-- Node10&#45;&gt;Node19 -->
<g id="edge30_Node000010_Node000019" class="edge">
<title>Node10&#45;&gt;Node19</title>
<g id="a_edge30_Node000010_Node000019"><a xlink:title=" ">
<path fill="none" stroke="#63b8ff" d="M1011.7,-309.1C1055.39,-300.08 1113.53,-286.99 1164,-272 1166.14,-271.37 1168.32,-270.67 1170.52,-269.95"/>
<polygon fill="#63b8ff" stroke="#63b8ff" points="1171.76,-273.22 1180.06,-266.63 1169.46,-266.61 1171.76,-273.22"/>
</a>
</g>
</g>
<!-- Node11&#45;&gt;Node2 -->
<g id="edge25_Node000011_Node000002" class="edge">
<title>Node11&#45;&gt;Node2</title>
<g id="a_edge25_Node000011_Node000002"><a xlink:title=" ">
<path fill="none" stroke="#63b8ff" d="M369.29,-247.44C311.67,-236.87 212.89,-218.75 143.98,-206.12"/>
<polygon fill="#63b8ff" stroke="#63b8ff" points="144.51,-202.66 134.04,-204.29 143.25,-209.54 144.51,-202.66"/>
</a>
</g>
</g>
<!-- Node11&#45;&gt;Node3 -->
<g id="edge17_Node000011_Node000003" class="edge">
<title>Node11&#45;&gt;Node3</title>
<g id="a_edge17_Node000011_Node000003"><a xlink:title=" ">
<path fill="none" stroke="#63b8ff" d="M352.81,-251.35C290.72,-245.31 202.26,-232.26 181,-206 160.28,-180.41 201.01,-154.02 231.59,-138.86"/>
<polygon fill="#63b8ff" stroke="#63b8ff" points="233.16,-141.99 240.68,-134.53 230.14,-135.67 233.16,-141.99"/>
</a>
</g>
</g>
<!-- Node11&#45;&gt;Node4 -->
<g id="edge18_Node000011_Node000004" class="edge">
<title>Node11&#45;&gt;Node4</title>
<g id="a_edge18_Node000011_Node000004"><a xlink:title=" ">
<path fill="none" stroke="#63b8ff" d="M428.34,-247.32C439.79,-238.44 456.07,-223.5 463,-206 467.91,-193.6 468.12,-188.31 463,-176 445.19,-133.14 401.78,-98.3 374.82,-79.85"/>
<polygon fill="#63b8ff" stroke="#63b8ff" points="376.64,-76.86 366.38,-74.23 372.77,-82.69 376.64,-76.86"/>
</a>
</g>
</g>
<!-- Node12 -->
<g id="Node000012" class="node">
<title>Node12</title>
<g id="a_Node000012"><a xlink:href="ARenderer_8hpp.html" target="_top" xlink:title=" ">
<polygon fill="white" stroke="#666666" points="732.5,-206 587.5,-206 587.5,-176 732.5,-176 732.5,-206"/>
<text text-anchor="start" x="595.5" y="-194" font-family="Helvetica,sans-Serif" font-size="10.00">../../Objects/Abstracts</text>
<text text-anchor="middle" x="660" y="-183" font-family="Helvetica,sans-Serif" font-size="10.00">/ARenderer/ARenderer.hpp</text>
</a>
</g>
</g>
<!-- Node11&#45;&gt;Node12 -->
<g id="edge14_Node000011_Node000012" class="edge">
<title>Node11&#45;&gt;Node12</title>
<g id="a_edge14_Node000011_Node000012"><a xlink:title=" ">
<path fill="none" stroke="#63b8ff" d="M448.65,-247.44C486.36,-237.55 549.27,-221.05 596.67,-208.61"/>
<polygon fill="#63b8ff" stroke="#63b8ff" points="597.75,-211.95 606.53,-206.02 595.97,-205.18 597.75,-211.95"/>
</a>
</g>
</g>
<!-- Node14 -->
<g id="Node000014" class="node">
<title>Node14</title>
<g id="a_Node000014"><a xlink:href="Rectangle3D_8hpp.html" target="_top" xlink:title=" ">
<polygon fill="white" stroke="#666666" points="331.5,-206 190.5,-206 190.5,-176 331.5,-176 331.5,-206"/>
<text text-anchor="start" x="198.5" y="-194" font-family="Helvetica,sans-Serif" font-size="10.00">../../Geometry/Rectangle3</text>
<text text-anchor="middle" x="261" y="-183" font-family="Helvetica,sans-Serif" font-size="10.00">D/Rectangle3D.hpp</text>
</a>
</g>
</g>
<!-- Node11&#45;&gt;Node14 -->
<g id="edge19_Node000011_Node000014" class="edge">
<title>Node11&#45;&gt;Node14</title>
<g id="a_edge19_Node000011_Node000014"><a xlink:title=" ">
<path fill="none" stroke="#63b8ff" d="M395.1,-247.37C371.98,-237.82 334.1,-222.18 304.48,-209.95"/>
<polygon fill="#63b8ff" stroke="#63b8ff" points="305.77,-206.7 295.19,-206.12 303.09,-213.17 305.77,-206.7"/>
</a>
</g>
</g>
<!-- Node15 -->
<g id="Node000015" class="node">
<title>Node15</title>
<g id="a_Node000015"><a xlink:href="Ray_8hpp.html" target="_top" xlink:title=" ">
<polygon fill="white" stroke="#666666" points="454.5,-206 349.5,-206 349.5,-176 454.5,-176 454.5,-206"/>
<text text-anchor="start" x="357.5" y="-194" font-family="Helvetica,sans-Serif" font-size="10.00">../../Geometry/Ray</text>
<text text-anchor="middle" x="402" y="-183" font-family="Helvetica,sans-Serif" font-size="10.00">/Ray.hpp</text>
</a>
</g>
</g>
<!-- Node11&#45;&gt;Node15 -->
<g id="edge22_Node000011_Node000015" class="edge">
<title>Node11&#45;&gt;Node15</title>
<g id="a_edge22_Node000011_Node000015"><a xlink:title=" ">
<path fill="none" stroke="#63b8ff" d="M414.11,-247.37C412.37,-239.4 409.7,-227.2 407.31,-216.27"/>
<polygon fill="#63b8ff" stroke="#63b8ff" points="410.7,-215.38 405.14,-206.36 403.86,-216.88 410.7,-215.38"/>
</a>
</g>
</g>
<!-- Node16 -->
<g id="Node000016" class="node">
<title>Node16</title>
<g id="a_Node000016"><a xlink:title=" ">
<polygon fill="#e0e0e0" stroke="#999999" points="807,-200.5 751,-200.5 751,-181.5 807,-181.5 807,-200.5"/>
<text text-anchor="middle" x="779" y="-188.5" font-family="Helvetica,sans-Serif" font-size="10.00">optional</text>
</a>
</g>
</g>
<!-- Node11&#45;&gt;Node16 -->
<g id="edge26_Node000011_Node000016" class="edge">
<title>Node11&#45;&gt;Node16</title>
<g id="a_edge26_Node000011_Node000016"><a xlink:title=" ">
<path fill="none" stroke="#63b8ff" d="M479.29,-250.26C545.57,-243.33 652.29,-229.57 742,-206 744.3,-205.4 746.65,-204.7 749,-203.95"/>
<polygon fill="#63b8ff" stroke="#63b8ff" points="750.22,-207.23 758.51,-200.63 747.91,-200.62 750.22,-207.23"/>
</a>
</g>
</g>
<!-- Node12&#45;&gt;Node7 -->
<g id="edge15_Node000012_Node000007" class="edge">
<title>Node12&#45;&gt;Node7</title>
<g id="a_edge15_Node000012_Node000007"><a xlink:title=" ">
<path fill="none" stroke="#63b8ff" d="M638.69,-175.8C622.9,-165.27 601.46,-150.97 585.6,-140.4"/>
<polygon fill="#63b8ff" stroke="#63b8ff" points="587.25,-137.29 576.99,-134.66 583.37,-143.12 587.25,-137.29"/>
</a>
</g>
</g>
<!-- Node12&#45;&gt;Node13 -->
<g id="edge16_Node000012_Node000013" class="edge">
<title>Node12&#45;&gt;Node13</title>
<g id="a_edge16_Node000012_Node000013"><a xlink:title=" ">
<path fill="none" stroke="#63b8ff" d="M698.4,-175.95C729.5,-164.58 772.83,-148.74 802.29,-137.96"/>
<polygon fill="#63b8ff" stroke="#63b8ff" points="803.52,-141.24 811.71,-134.52 801.12,-134.66 803.52,-141.24"/>
</a>
</g>
</g>
<!-- Node14&#45;&gt;Node3 -->
<g id="edge20_Node000014_Node000003" class="edge">
<title>Node14&#45;&gt;Node3</title>
<g id="a_edge20_Node000014_Node000003"><a xlink:title=" ">
<path fill="none" stroke="#63b8ff" d="M261,-175.8C261,-166.7 261,-154.79 261,-144.9"/>
<polygon fill="#63b8ff" stroke="#63b8ff" points="264.5,-144.84 261,-134.84 257.5,-144.84 264.5,-144.84"/>
</a>
</g>
</g>
<!-- Node14&#45;&gt;Node4 -->
<g id="edge21_Node000014_Node000004" class="edge">
<title>Node14&#45;&gt;Node4</title>
<g id="a_edge21_Node000014_Node000004"><a xlink:title=" ">
<path fill="none" stroke="#63b8ff" d="M290.47,-175.99C305.29,-167.52 322.33,-155.38 333,-140 344.51,-123.41 349.06,-100.41 350.84,-84.37"/>
<polygon fill="#63b8ff" stroke="#63b8ff" points="354.36,-84.37 351.72,-74.11 347.38,-83.78 354.36,-84.37"/>
</a>
</g>
</g>
<!-- Node15&#45;&gt;Node3 -->
<g id="edge23_Node000015_Node000003" class="edge">
<title>Node15&#45;&gt;Node3</title>
<g id="a_edge23_Node000015_Node000003"><a xlink:title=" ">
<path fill="none" stroke="#63b8ff" d="M371.06,-175.95C346.55,-164.83 312.61,-149.42 288.92,-138.67"/>
<polygon fill="#63b8ff" stroke="#63b8ff" points="290.32,-135.46 279.76,-134.52 287.42,-141.84 290.32,-135.46"/>
</a>
</g>
</g>
<!-- Node15&#45;&gt;Node4 -->
<g id="edge24_Node000015_Node000004" class="edge">
<title>Node15&#45;&gt;Node4</title>
<g id="a_edge24_Node000015_Node000004"><a xlink:title=" ">
<path fill="none" stroke="#63b8ff" d="M396.26,-175.72C387.11,-152.92 369.2,-108.33 359.2,-83.42"/>
<polygon fill="#63b8ff" stroke="#63b8ff" points="362.42,-82.04 355.44,-74.07 355.92,-84.65 362.42,-82.04"/>
</a>
</g>
</g>
</g>
</svg>
