<?xml version="1.0" encoding="UTF-8" standalone="no"?>
<!DOCTYPE svg PUBLIC "-//W3C//DTD SVG 1.1//EN"
 "http://www.w3.org/Graphics/SVG/1.1/DTD/svg11.dtd">
<!-- Generated by graphviz version 2.43.0 (0)
 -->
<!-- Title: src/Objects/Abstracts/IMaterial.hpp Pages: 1 -->
<!--zoomable 478 -->

<svg id="main" version="1.1" xmlns="http://www.w3.org/2000/svg" xmlns:xlink="http://www.w3.org/1999/xlink" xml:space="preserve" onload="init(evt)">
<style type="text/css"><![CDATA[
.node, .edge {opacity: 0.7;}
.node.selected, .edge.selected {opacity: 1;}
.edge:hover path { stroke: red; }
.edge:hover polygon { stroke: red; fill: red; }
]]></style>

<defs>
  <circle id="rim" cx="0" cy="0" r="7"/>
  <circle id="rim2" cx="0" cy="0" r="3.5"/>
  <g id="zoomPlus">
    <use xlink:href="#rim" fill="#404040"><set attributeName="fill" to="#808080" begin="zoomplus.mouseover" end="zoomplus.mouseout"/></use>
    <path d="M-4,0h8M0,-4v8" fill="none" stroke="white" stroke-width="1.5" pointer-events="none"/>
  </g>
  <g id="zoomMin">
    <use xlink:href="#rim" fill="#404040"><set attributeName="fill" to="#808080" begin="zoomminus.mouseover" end="zoomminus.mouseout"/></use>
    <path d="M-4,0h8" fill="none" stroke="white" stroke-width="1.5" pointer-events="none"/>
  </g>
  <g id="arrowUp" transform="translate(30 24)">
    <use xlink:href="#rim"/>
    <path pointer-events="none" fill="none" stroke="white" stroke-width="1.5" d="M0,-3.0v7 M-2.5,-0.5L0,-3.0L2.5,-0.5"/>
  </g>
  <g id="arrowRight" transform="rotate(90) translate(36 -43)">
    <use xlink:href="#rim"/>
    <path pointer-events="none" fill="none" stroke="white" stroke-width="1.5" d="M0,-3.0v7 M-2.5,-0.5L0,-3.0L2.5,-0.5"/>
  </g>
  <g id="arrowDown" transform="rotate(180) translate(-30 -48)">
    <use xlink:href="#rim"/>
    <path pointer-events="none" fill="none" stroke="white" stroke-width="1.5" d="M0,-3.0v7 M-2.5,-0.5L0,-3.0L2.5,-0.5"/>
  </g>
  <g id="arrowLeft" transform="rotate(270) translate(-36 17)">
    <use xlink:href="#rim"/>
    <path pointer-events="none" fill="none" stroke="white" stroke-width="1.5" d="M0,-3.0v7 M-2.5,-0.5L0,-3.0L2.5,-0.5"/>
  </g>
  <g id="resetDef">
    <use xlink:href="#rim2" fill="#404040"><set attributeName="fill" to="#808080" begin="reset.mouseover" end="reset.mouseout"/></use>
  </g>
</defs>
<script type="application/ecmascript">
var viewWidth = 1518;
var viewHeight = 478;
var sectionId = 'dynsection-1';
</script>
<script type="application/ecmascript" xlink:href="svg.min.js"/>
<svg id="graph" class="graph">
<g id="viewport">
<title>src/Objects/Abstracts/IMaterial.hpp</title>
<!-- Node1 -->
<g id="Node000001" class="node">
<title>Node1</title>
<g id="a_Node000001"><a xlink:title=" ">
<polygon fill="#999999" stroke="#666666" points="809,-470 690,-470 690,-440 809,-440 809,-470"/>
<text text-anchor="start" x="698" y="-458" font-family="Helvetica,sans-Serif" font-size="10.00">src/Objects/Abstracts</text>
<text text-anchor="middle" x="749.5" y="-447" font-family="Helvetica,sans-Serif" font-size="10.00">/IMaterial.hpp</text>
</a>
</g>
</g>
<!-- Node2 -->
<g id="Node000002" class="node">
<title>Node2</title>
<g id="a_Node000002"><a xlink:href="AMaterial_8hpp.html" target="_top" xlink:title=" ">
<polygon fill="white" stroke="#666666" points="302.5,-332.5 164.5,-332.5 164.5,-302.5 302.5,-302.5 302.5,-332.5"/>
<text text-anchor="start" x="172.5" y="-320.5" font-family="Helvetica,sans-Serif" font-size="10.00">src/Objects/Abstracts</text>
<text text-anchor="middle" x="233.5" y="-309.5" font-family="Helvetica,sans-Serif" font-size="10.00">/AMaterial/AMaterial.hpp</text>
</a>
</g>
</g>
<!-- Node1&#45;&gt;Node2 -->
<g id="edge1_Node000001_Node000002" class="edge">
<title>Node1&#45;&gt;Node2</title>
<g id="a_edge1_Node000001_Node000002"><a xlink:title=" ">
<path fill="none" stroke="#63b8ff" d="M685.82,-437.28C583.17,-410.32 382.98,-357.75 287.14,-332.59"/>
<polygon fill="#63b8ff" stroke="#63b8ff" points="685.18,-440.73 695.74,-439.88 686.96,-433.96 685.18,-440.73"/>
</a>
</g>
</g>
<!-- Node8 -->
<g id="Node000008" class="node">
<title>Node8</title>
<g id="a_Node000008"><a xlink:href="APrimitive_8hpp.html" target="_top" xlink:title=" ">
<polygon fill="white" stroke="#666666" points="975.5,-404 829.5,-404 829.5,-374 975.5,-374 975.5,-404"/>
<text text-anchor="start" x="837.5" y="-392" font-family="Helvetica,sans-Serif" font-size="10.00">src/Objects/Abstracts</text>
<text text-anchor="middle" x="902.5" y="-381" font-family="Helvetica,sans-Serif" font-size="10.00">/APrimitive/APrimitive.hpp</text>
</a>
</g>
</g>
<!-- Node1&#45;&gt;Node8 -->
<g id="edge8_Node000001_Node000008" class="edge">
<title>Node1&#45;&gt;Node8</title>
<g id="a_edge8_Node000001_Node000008"><a xlink:title=" ">
<path fill="none" stroke="#63b8ff" d="M792.4,-436.05C816.64,-425.91 846.5,-413.43 869,-404.01"/>
<polygon fill="#63b8ff" stroke="#63b8ff" points="790.95,-432.87 783.08,-439.95 793.65,-439.32 790.95,-432.87"/>
</a>
</g>
</g>
<!-- Node10 -->
<g id="Node000010" class="node">
<title>Node10</title>
<g id="a_Node000010"><a xlink:href="Plugin_8hpp.html" target="_top" xlink:title=" ">
<polygon fill="white" stroke="#666666" points="812,-327 687,-327 687,-308 812,-308 812,-327"/>
<text text-anchor="middle" x="749.5" y="-315" font-family="Helvetica,sans-Serif" font-size="10.00">src/Objects/Plugin.hpp</text>
</a>
</g>
</g>
<!-- Node1&#45;&gt;Node10 -->
<g id="edge43_Node000001_Node000010" class="edge">
<title>Node1&#45;&gt;Node10</title>
<g id="a_edge43_Node000001_Node000010"><a xlink:title=" ">
<path fill="none" stroke="#63b8ff" d="M749.5,-429.41C749.5,-398.55 749.5,-347.23 749.5,-327.03"/>
<polygon fill="#63b8ff" stroke="#63b8ff" points="746,-429.76 749.5,-439.76 753,-429.76 746,-429.76"/>
</a>
</g>
</g>
<!-- Node25 -->
<g id="Node000025" class="node">
<title>Node25</title>
<g id="a_Node000025"><a xlink:href="Cylinder_8hpp.html" target="_top" xlink:title=" ">
<polygon fill="white" stroke="#666666" points="1510,-338 1385,-338 1385,-297 1510,-297 1510,-338"/>
<text text-anchor="start" x="1393" y="-326" font-family="Helvetica,sans-Serif" font-size="10.00">src/Objects/Plugins</text>
<text text-anchor="start" x="1393" y="-315" font-family="Helvetica,sans-Serif" font-size="10.00">/CorePlugin/Primitives</text>
<text text-anchor="middle" x="1447.5" y="-304" font-family="Helvetica,sans-Serif" font-size="10.00">/Cylinder/Cylinder.hpp</text>
</a>
</g>
</g>
<!-- Node1&#45;&gt;Node25 -->
<g id="edge44_Node000001_Node000025" class="edge">
<title>Node1&#45;&gt;Node25</title>
<g id="a_edge44_Node000001_Node000025"><a xlink:title=" ">
<path fill="none" stroke="#63b8ff" d="M819.37,-442.44C934.62,-423.03 1171.63,-381.71 1370.5,-338 1375.21,-336.96 1380.08,-335.85 1384.96,-334.69"/>
<polygon fill="#63b8ff" stroke="#63b8ff" points="818.55,-439.02 809.27,-444.13 819.71,-445.93 818.55,-439.02"/>
</a>
</g>
</g>
<!-- Node27 -->
<g id="Node000027" class="node">
<title>Node27</title>
<g id="a_Node000027"><a xlink:href="Plane_8hpp.html" target="_top" xlink:title=" ">
<polygon fill="white" stroke="#666666" points="526,-338 401,-338 401,-297 526,-297 526,-338"/>
<text text-anchor="start" x="409" y="-326" font-family="Helvetica,sans-Serif" font-size="10.00">src/Objects/Plugins</text>
<text text-anchor="start" x="409" y="-315" font-family="Helvetica,sans-Serif" font-size="10.00">/CorePlugin/Primitives</text>
<text text-anchor="middle" x="463.5" y="-304" font-family="Helvetica,sans-Serif" font-size="10.00">/Plane/Plane.hpp</text>
</a>
</g>
</g>
<!-- Node1&#45;&gt;Node27 -->
<g id="edge45_Node000001_Node000027" class="edge">
<title>Node1&#45;&gt;Node27</title>
<g id="a_edge45_Node000001_Node000027"><a xlink:title=" ">
<path fill="none" stroke="#63b8ff" d="M710.47,-435.51C656.56,-409.97 559.74,-364.1 504.7,-338.02"/>
<polygon fill="#63b8ff" stroke="#63b8ff" points="709.17,-438.76 719.7,-439.88 712.16,-432.44 709.17,-438.76"/>
</a>
</g>
</g>
<!-- Node3 -->
<g id="Node000003" class="node">
<title>Node3</title>
<g id="a_Node000003"><a xlink:href="Lambertian_8hpp.html" target="_top" xlink:title=" ">
<polygon fill="white" stroke="#666666" points="155,-261 0,-261 0,-220 155,-220 155,-261"/>
<text text-anchor="start" x="8" y="-249" font-family="Helvetica,sans-Serif" font-size="10.00">src/Objects/Plugins</text>
<text text-anchor="start" x="8" y="-238" font-family="Helvetica,sans-Serif" font-size="10.00">/CorePlugin/Materials</text>
<text text-anchor="middle" x="77.5" y="-227" font-family="Helvetica,sans-Serif" font-size="10.00">/Lambertian/Lambertian.hpp</text>
</a>
</g>
</g>
<!-- Node2&#45;&gt;Node3 -->
<g id="edge2_Node000002_Node000003" class="edge">
<title>Node2&#45;&gt;Node3</title>
<g id="a_edge2_Node000002_Node000003"><a xlink:title=" ">
<path fill="none" stroke="#63b8ff" d="M194.91,-297.95C171.59,-286.73 141.88,-272.45 118.19,-261.06"/>
<polygon fill="#63b8ff" stroke="#63b8ff" points="193.63,-301.21 204.16,-302.39 196.66,-294.91 193.63,-301.21"/>
</a>
</g>
</g>
<!-- Node6 -->
<g id="Node000006" class="node">
<title>Node6</title>
<g id="a_Node000006"><a xlink:href="Phong_8hpp.html" target="_top" xlink:title=" ">
<polygon fill="white" stroke="#666666" points="294,-261 173,-261 173,-220 294,-220 294,-261"/>
<text text-anchor="start" x="181" y="-249" font-family="Helvetica,sans-Serif" font-size="10.00">src/Objects/Plugins</text>
<text text-anchor="start" x="181" y="-238" font-family="Helvetica,sans-Serif" font-size="10.00">/CorePlugin/Materials</text>
<text text-anchor="middle" x="233.5" y="-227" font-family="Helvetica,sans-Serif" font-size="10.00">/Phong/Phong.hpp</text>
</a>
</g>
</g>
<!-- Node2&#45;&gt;Node6 -->
<g id="edge5_Node000002_Node000006" class="edge">
<title>Node2&#45;&gt;Node6</title>
<g id="a_edge5_Node000002_Node000006"><a xlink:title=" ">
<path fill="none" stroke="#63b8ff" d="M233.5,-292.23C233.5,-282.2 233.5,-270.71 233.5,-261.2"/>
<polygon fill="#63b8ff" stroke="#63b8ff" points="230,-292.39 233.5,-302.39 237,-292.39 230,-292.39"/>
</a>
</g>
</g>
<!-- Node4 -->
<g id="Node000004" class="node">
<title>Node4</title>
<g id="a_Node000004"><a xlink:href="CorePlugin_8cpp.html" target="_top" xlink:title=" ">
<polygon fill="white" stroke="#666666" points="577.5,-178.5 429.5,-178.5 429.5,-148.5 577.5,-148.5 577.5,-178.5"/>
<text text-anchor="start" x="437.5" y="-166.5" font-family="Helvetica,sans-Serif" font-size="10.00">src/Objects/Plugins</text>
<text text-anchor="middle" x="503.5" y="-155.5" font-family="Helvetica,sans-Serif" font-size="10.00">/CorePlugin/CorePlugin.cpp</text>
</a>
</g>
</g>
<!-- Node3&#45;&gt;Node4 -->
<g id="edge3_Node000003_Node000004" class="edge">
<title>Node3&#45;&gt;Node4</title>
<g id="a_edge3_Node000003_Node000004"><a xlink:title=" ">
<path fill="none" stroke="#63b8ff" d="M165.19,-219.72C261.62,-201.15 362.57,-185.27 429.32,-175.27"/>
<polygon fill="#63b8ff" stroke="#63b8ff" points="164.42,-216.3 155.27,-221.64 165.75,-223.17 164.42,-216.3"/>
</a>
</g>
</g>
<!-- Node5 -->
<g id="Node000005" class="node">
<title>Node5</title>
<g id="a_Node000005"><a xlink:href="Lambertian_8cpp.html" target="_top" xlink:title=" ">
<polygon fill="white" stroke="#666666" points="154.5,-184 0.5,-184 0.5,-143 154.5,-143 154.5,-184"/>
<text text-anchor="start" x="8.5" y="-172" font-family="Helvetica,sans-Serif" font-size="10.00">src/Objects/Plugins</text>
<text text-anchor="start" x="8.5" y="-161" font-family="Helvetica,sans-Serif" font-size="10.00">/CorePlugin/Materials</text>
<text text-anchor="middle" x="77.5" y="-150" font-family="Helvetica,sans-Serif" font-size="10.00">/Lambertian/Lambertian.cpp</text>
</a>
</g>
</g>
<!-- Node3&#45;&gt;Node5 -->
<g id="edge4_Node000003_Node000005" class="edge">
<title>Node3&#45;&gt;Node5</title>
<g id="a_edge4_Node000003_Node000005"><a xlink:title=" ">
<path fill="none" stroke="#63b8ff" d="M77.5,-209.69C77.5,-201.08 77.5,-191.9 77.5,-184.07"/>
<polygon fill="#63b8ff" stroke="#63b8ff" points="74,-209.79 77.5,-219.79 81,-209.79 74,-209.79"/>
</a>
</g>
</g>
<!-- Node6&#45;&gt;Node4 -->
<g id="edge6_Node000006_Node000004" class="edge">
<title>Node6&#45;&gt;Node4</title>
<g id="a_edge6_Node000006_Node000004"><a xlink:title=" ">
<path fill="none" stroke="#63b8ff" d="M303.8,-219.64C359.72,-204.04 413.85,-189.12 452.26,-178.56"/>
<polygon fill="#63b8ff" stroke="#63b8ff" points="302.77,-216.3 294.08,-222.36 304.65,-223.04 302.77,-216.3"/>
</a>
</g>
</g>
<!-- Node7 -->
<g id="Node000007" class="node">
<title>Node7</title>
<g id="a_Node000007"><a xlink:href="Phong_8cpp.html" target="_top" xlink:title=" ">
<polygon fill="white" stroke="#666666" points="294,-184 173,-184 173,-143 294,-143 294,-184"/>
<text text-anchor="start" x="181" y="-172" font-family="Helvetica,sans-Serif" font-size="10.00">src/Objects/Plugins</text>
<text text-anchor="start" x="181" y="-161" font-family="Helvetica,sans-Serif" font-size="10.00">/CorePlugin/Materials</text>
<text text-anchor="middle" x="233.5" y="-150" font-family="Helvetica,sans-Serif" font-size="10.00">/Phong/Phong.cpp</text>
</a>
</g>
</g>
<!-- Node6&#45;&gt;Node7 -->
<g id="edge7_Node000006_Node000007" class="edge">
<title>Node6&#45;&gt;Node7</title>
<g id="a_edge7_Node000006_Node000007"><a xlink:title=" ">
<path fill="none" stroke="#63b8ff" d="M233.5,-209.69C233.5,-201.08 233.5,-191.9 233.5,-184.07"/>
<polygon fill="#63b8ff" stroke="#63b8ff" points="230,-209.79 233.5,-219.79 237,-209.79 230,-209.79"/>
</a>
</g>
</g>
<!-- Node9 -->
<g id="Node000009" class="node">
<title>Node9</title>
<g id="a_Node000009"><a xlink:href="APrimitive_8cpp.html" target="_top" xlink:title=" ">
<polygon fill="white" stroke="#666666" points="975,-332.5 830,-332.5 830,-302.5 975,-302.5 975,-332.5"/>
<text text-anchor="start" x="838" y="-320.5" font-family="Helvetica,sans-Serif" font-size="10.00">src/Objects/Abstracts</text>
<text text-anchor="middle" x="902.5" y="-309.5" font-family="Helvetica,sans-Serif" font-size="10.00">/APrimitive/APrimitive.cpp</text>
</a>
</g>
</g>
<!-- Node8&#45;&gt;Node9 -->
<g id="edge9_Node000008_Node000009" class="edge">
<title>Node8&#45;&gt;Node9</title>
<g id="a_edge9_Node000008_Node000009"><a xlink:title=" ">
<path fill="none" stroke="#63b8ff" d="M902.5,-363.75C902.5,-353.31 902.5,-341.49 902.5,-332.54"/>
<polygon fill="#63b8ff" stroke="#63b8ff" points="899,-363.94 902.5,-373.94 906,-363.94 899,-363.94"/>
</a>
</g>
</g>
<!-- Node8&#45;&gt;Node10 -->
<g id="edge10_Node000008_Node000010" class="edge">
<title>Node8&#45;&gt;Node10</title>
<g id="a_edge10_Node000008_Node000010"><a xlink:title=" ">
<path fill="none" stroke="#63b8ff" d="M862.07,-369.63C831.74,-355.86 791.61,-337.63 768.36,-327.07"/>
<polygon fill="#63b8ff" stroke="#63b8ff" points="860.99,-372.99 871.54,-373.94 863.88,-366.61 860.99,-372.99"/>
</a>
</g>
</g>
<!-- Node21 -->
<g id="Node000021" class="node">
<title>Node21</title>
<g id="a_Node000021"><a xlink:href="Camera_8cpp.html" target="_top" xlink:title=" ">
<polygon fill="white" stroke="#666666" points="1292,-107 1167,-107 1167,-66 1292,-66 1292,-107"/>
<text text-anchor="start" x="1175" y="-95" font-family="Helvetica,sans-Serif" font-size="10.00">src/Objects/Plugins</text>
<text text-anchor="start" x="1175" y="-84" font-family="Helvetica,sans-Serif" font-size="10.00">/CorePlugin/Renderers</text>
<text text-anchor="middle" x="1229.5" y="-73" font-family="Helvetica,sans-Serif" font-size="10.00">/Camera/Camera.cpp</text>
</a>
</g>
</g>
<!-- Node8&#45;&gt;Node21 -->
<g id="edge42_Node000008_Node000021" class="edge">
<title>Node8&#45;&gt;Node21</title>
<g id="a_edge42_Node000008_Node000021"><a xlink:title=" ">
<path fill="none" stroke="#63b8ff" d="M985.83,-379.82C1110.5,-367.4 1331.7,-344.51 1337.5,-338 1395.18,-273.31 1382.66,-216.97 1337.5,-143 1327.18,-126.09 1309.87,-114.11 1292.11,-105.73"/>
<polygon fill="#63b8ff" stroke="#63b8ff" points="985.15,-376.37 975.55,-380.85 985.85,-383.34 985.15,-376.37"/>
</a>
</g>
</g>
<!-- Node23 -->
<g id="Node000023" class="node">
<title>Node23</title>
<g id="a_Node000023"><a xlink:href="DirectionalLight_8cpp.html" target="_top" xlink:title=" ">
<polygon fill="white" stroke="#666666" points="1154,-338 993,-338 993,-297 1154,-297 1154,-338"/>
<text text-anchor="start" x="1001" y="-326" font-family="Helvetica,sans-Serif" font-size="10.00">src/Objects/Plugins</text>
<text text-anchor="start" x="1001" y="-315" font-family="Helvetica,sans-Serif" font-size="10.00">/CorePlugin/Lights/Directional</text>
<text text-anchor="middle" x="1073.5" y="-304" font-family="Helvetica,sans-Serif" font-size="10.00">Light/DirectionalLight.cpp</text>
</a>
</g>
</g>
<!-- Node8&#45;&gt;Node23 -->
<g id="edge31_Node000008_Node000023" class="edge">
<title>Node8&#45;&gt;Node23</title>
<g id="a_edge31_Node000008_Node000023"><a xlink:title=" ">
<path fill="none" stroke="#63b8ff" d="M946.39,-370.16C970.54,-360.35 1000.55,-348.15 1025.34,-338.07"/>
<polygon fill="#63b8ff" stroke="#63b8ff" points="945.05,-366.93 937.1,-373.94 947.69,-373.41 945.05,-366.93"/>
</a>
</g>
</g>
<!-- Node24 -->
<g id="Node000024" class="node">
<title>Node24</title>
<g id="a_Node000024"><a xlink:href="PointLight_8cpp.html" target="_top" xlink:title=" ">
<polygon fill="white" stroke="#666666" points="1328.5,-338 1172.5,-338 1172.5,-297 1328.5,-297 1328.5,-338"/>
<text text-anchor="start" x="1180.5" y="-326" font-family="Helvetica,sans-Serif" font-size="10.00">src/Objects/Plugins</text>
<text text-anchor="start" x="1180.5" y="-315" font-family="Helvetica,sans-Serif" font-size="10.00">/CorePlugin/Lights/PointLight</text>
<text text-anchor="middle" x="1250.5" y="-304" font-family="Helvetica,sans-Serif" font-size="10.00">/PointLight.cpp</text>
</a>
</g>
</g>
<!-- Node8&#45;&gt;Node24 -->
<g id="edge32_Node000008_Node000024" class="edge">
<title>Node8&#45;&gt;Node24</title>
<g id="a_edge32_Node000008_Node000024"><a xlink:title=" ">
<path fill="none" stroke="#63b8ff" d="M985.74,-372.61C1036.82,-363.01 1103.53,-350.2 1162.5,-338 1165.72,-337.33 1169,-336.65 1172.31,-335.94"/>
<polygon fill="#63b8ff" stroke="#63b8ff" points="984.92,-369.2 975.74,-374.48 986.21,-376.08 984.92,-369.2"/>
</a>
</g>
</g>
<!-- Node8&#45;&gt;Node25 -->
<g id="edge33_Node000008_Node000025" class="edge">
<title>Node8&#45;&gt;Node25</title>
<g id="a_edge33_Node000008_Node000025"><a xlink:title=" ">
<path fill="none" stroke="#63b8ff" d="M985.52,-382.7C1079.47,-375.87 1236.83,-361.94 1370.5,-338 1375.12,-337.17 1379.86,-336.22 1384.63,-335.19"/>
<polygon fill="#63b8ff" stroke="#63b8ff" points="985.23,-379.21 975.51,-383.42 985.73,-386.19 985.23,-379.21"/>
</a>
</g>
</g>
<!-- Node8&#45;&gt;Node27 -->
<g id="edge36_Node000008_Node000027" class="edge">
<title>Node8&#45;&gt;Node27</title>
<g id="a_edge36_Node000008_Node000027"><a xlink:title=" ">
<path fill="none" stroke="#63b8ff" d="M819.08,-379.87C744.15,-371.8 631.33,-357.78 534.5,-338 531.74,-337.44 528.94,-336.83 526.11,-336.18"/>
<polygon fill="#63b8ff" stroke="#63b8ff" points="819.09,-383.39 829.4,-380.97 819.83,-376.43 819.09,-383.39"/>
</a>
</g>
</g>
<!-- Node29 -->
<g id="Node000029" class="node">
<title>Node29</title>
<g id="a_Node000029"><a xlink:href="Sphere_8hpp.html" target="_top" xlink:title=" ">
<polygon fill="white" stroke="#666666" points="669,-338 544,-338 544,-297 669,-297 669,-338"/>
<text text-anchor="start" x="552" y="-326" font-family="Helvetica,sans-Serif" font-size="10.00">src/Objects/Plugins</text>
<text text-anchor="start" x="552" y="-315" font-family="Helvetica,sans-Serif" font-size="10.00">/CorePlugin/Primitives</text>
<text text-anchor="middle" x="606.5" y="-304" font-family="Helvetica,sans-Serif" font-size="10.00">/Sphere/Sphere.hpp</text>
</a>
</g>
</g>
<!-- Node8&#45;&gt;Node29 -->
<g id="edge39_Node000008_Node000029" class="edge">
<title>Node8&#45;&gt;Node29</title>
<g id="a_edge39_Node000008_Node000029"><a xlink:title=" ">
<path fill="none" stroke="#63b8ff" d="M825.4,-371.85C781.86,-362.48 726.5,-350.17 677.5,-338 674.77,-337.32 671.99,-336.62 669.18,-335.89"/>
<polygon fill="#63b8ff" stroke="#63b8ff" points="824.84,-375.31 835.35,-373.98 826.31,-368.47 824.84,-375.31"/>
</a>
</g>
</g>
<!-- Node10&#45;&gt;Node4 -->
<g id="edge11_Node000010_Node000004" class="edge">
<title>Node10&#45;&gt;Node4</title>
<g id="a_edge11_Node000010_Node000004"><a xlink:title=" ">
<path fill="none" stroke="#63b8ff" d="M736.61,-299.67C717.53,-275.15 682.24,-231.26 665.5,-220 636.52,-200.5 600.01,-187.21 569,-178.53"/>
<polygon fill="#63b8ff" stroke="#63b8ff" points="733.95,-301.96 742.84,-307.74 739.49,-297.69 733.95,-301.96"/>
</a>
</g>
</g>
<!-- Node11 -->
<g id="Node000011" class="node">
<title>Node11</title>
<g id="a_Node000011"><a xlink:href="SceneWriter_8hpp.html" target="_top" xlink:title=" ">
<polygon fill="white" stroke="#666666" points="913,-261 752,-261 752,-220 913,-220 913,-261"/>
<text text-anchor="start" x="760" y="-249" font-family="Helvetica,sans-Serif" font-size="10.00">src/Objects/Plugins</text>
<text text-anchor="start" x="760" y="-238" font-family="Helvetica,sans-Serif" font-size="10.00">/CorePlugin/Interfaces</text>
<text text-anchor="middle" x="832.5" y="-227" font-family="Helvetica,sans-Serif" font-size="10.00">/SceneWriter/SceneWriter.hpp</text>
</a>
</g>
</g>
<!-- Node10&#45;&gt;Node11 -->
<g id="edge12_Node000010_Node000011" class="edge">
<title>Node10&#45;&gt;Node11</title>
<g id="a_edge12_Node000010_Node000011"><a xlink:title=" ">
<path fill="none" stroke="#63b8ff" d="M766.63,-301.02C779.4,-289.48 796.92,-273.65 810.69,-261.21"/>
<polygon fill="#63b8ff" stroke="#63b8ff" points="764.09,-298.6 759.02,-307.9 768.79,-303.79 764.09,-298.6"/>
</a>
</g>
</g>
<!-- Node14 -->
<g id="Node000014" class="node">
<title>Node14</title>
<g id="a_Node000014"><a xlink:href="Parser_8hpp.html" target="_top" xlink:title=" ">
<polygon fill="white" stroke="#666666" points="1328.5,-255.5 1164.5,-255.5 1164.5,-225.5 1328.5,-225.5 1328.5,-255.5"/>
<text text-anchor="start" x="1172.5" y="-243.5" font-family="Helvetica,sans-Serif" font-size="10.00">src/SceneSystem/ConfigParser</text>
<text text-anchor="middle" x="1246.5" y="-232.5" font-family="Helvetica,sans-Serif" font-size="10.00">/Parser.hpp</text>
</a>
</g>
</g>
<!-- Node10&#45;&gt;Node14 -->
<g id="edge16_Node000010_Node000014" class="edge">
<title>Node10&#45;&gt;Node14</title>
<g id="a_edge16_Node000010_Node000014"><a xlink:title=" ">
<path fill="none" stroke="#63b8ff" d="M786.24,-305.21C797.18,-302.18 809.25,-299.15 820.5,-297 964.99,-269.43 1004.14,-283.52 1149.5,-261 1159.68,-259.42 1170.42,-257.51 1180.9,-255.51"/>
<polygon fill="#63b8ff" stroke="#63b8ff" points="785.23,-301.86 776.57,-307.98 787.15,-308.59 785.23,-301.86"/>
</a>
</g>
</g>
<!-- Node18 -->
<g id="Node000018" class="node">
<title>Node18</title>
<g id="a_Node000018"><a xlink:href="PluginManager_8hpp.html" target="_top" xlink:title="Plugin manager for loading and managing plugins.">
<polygon fill="white" stroke="#666666" points="1107.5,-255.5 931.5,-255.5 931.5,-225.5 1107.5,-225.5 1107.5,-255.5"/>
<text text-anchor="start" x="939.5" y="-243.5" font-family="Helvetica,sans-Serif" font-size="10.00">src/SceneSystem/PluginManager</text>
<text text-anchor="middle" x="1019.5" y="-232.5" font-family="Helvetica,sans-Serif" font-size="10.00">/PluginManager.hpp</text>
</a>
</g>
</g>
<!-- Node10&#45;&gt;Node18 -->
<g id="edge21_Node000010_Node000018" class="edge">
<title>Node10&#45;&gt;Node18</title>
<g id="a_edge21_Node000010_Node000018"><a xlink:title=" ">
<path fill="none" stroke="#63b8ff" d="M789.9,-305.28C837.7,-292 917.3,-269.89 969.08,-255.5"/>
<polygon fill="#63b8ff" stroke="#63b8ff" points="788.91,-301.92 780.21,-307.97 790.78,-308.67 788.91,-301.92"/>
</a>
</g>
</g>
<!-- Node20 -->
<g id="Node000020" class="node">
<title>Node20</title>
<g id="a_Node000020"><a xlink:href="Scene_8hpp.html" target="_top" xlink:title=" ">
<polygon fill="white" stroke="#666666" points="1146.5,-178.5 1014.5,-178.5 1014.5,-148.5 1146.5,-148.5 1146.5,-178.5"/>
<text text-anchor="start" x="1022.5" y="-166.5" font-family="Helvetica,sans-Serif" font-size="10.00">src/SceneSystem/Scene</text>
<text text-anchor="middle" x="1080.5" y="-155.5" font-family="Helvetica,sans-Serif" font-size="10.00">/Scene.hpp</text>
</a>
</g>
</g>
<!-- Node10&#45;&gt;Node20 -->
<g id="edge30_Node000010_Node000020" class="edge">
<title>Node10&#45;&gt;Node20</title>
<g id="a_edge30_Node000010_Node000020"><a xlink:title=" ">
<path fill="none" stroke="#63b8ff" d="M786.87,-305.13C797.65,-302.15 809.48,-299.17 820.5,-297 885.51,-284.19 1072.56,-310.6 1116.5,-261 1137.84,-236.91 1111.37,-198.99 1093.78,-178.59"/>
<polygon fill="#63b8ff" stroke="#63b8ff" points="785.59,-301.86 776.92,-307.95 787.5,-308.59 785.59,-301.86"/>
</a>
</g>
</g>
<!-- Node11&#45;&gt;Node4 -->
<g id="edge13_Node000011_Node000004" class="edge">
<title>Node11&#45;&gt;Node4</title>
<g id="a_edge13_Node000011_Node000004"><a xlink:title=" ">
<path fill="none" stroke="#63b8ff" d="M741.63,-218.78C685.38,-205.96 614.66,-189.84 564.95,-178.51"/>
<polygon fill="#63b8ff" stroke="#63b8ff" points="741.07,-222.25 751.6,-221.06 742.62,-215.42 741.07,-222.25"/>
</a>
</g>
</g>
<!-- Node12 -->
<g id="Node000012" class="node">
<title>Node12</title>
<g id="a_Node000012"><a xlink:href="SceneWriter_8cpp.html" target="_top" xlink:title=" ">
<polygon fill="white" stroke="#666666" points="951,-107 790,-107 790,-66 951,-66 951,-107"/>
<text text-anchor="start" x="798" y="-95" font-family="Helvetica,sans-Serif" font-size="10.00">src/Objects/Plugins</text>
<text text-anchor="start" x="798" y="-84" font-family="Helvetica,sans-Serif" font-size="10.00">/CorePlugin/Interfaces</text>
<text text-anchor="middle" x="870.5" y="-73" font-family="Helvetica,sans-Serif" font-size="10.00">/SceneWriter/SceneWriter.cpp</text>
</a>
</g>
</g>
<!-- Node11&#45;&gt;Node12 -->
<g id="edge14_Node000011_Node000012" class="edge">
<title>Node11&#45;&gt;Node12</title>
<g id="a_edge14_Node000011_Node000012"><a xlink:title=" ">
<path fill="none" stroke="#63b8ff" d="M817.2,-210.62C808.92,-190.96 802.13,-164.68 811.5,-143 817.64,-128.8 829.39,-116.56 840.81,-107.21"/>
<polygon fill="#63b8ff" stroke="#63b8ff" points="814.12,-212.31 821.45,-219.96 820.49,-209.41 814.12,-212.31"/>
</a>
</g>
</g>
<!-- Node13 -->
<g id="Node000013" class="node">
<title>Node13</title>
<g id="a_Node000013"><a xlink:href="main_8cpp.html" target="_top" xlink:title=" ">
<polygon fill="white" stroke="#666666" points="1026,-24.5 947,-24.5 947,-5.5 1026,-5.5 1026,-24.5"/>
<text text-anchor="middle" x="986.5" y="-12.5" font-family="Helvetica,sans-Serif" font-size="10.00">src/main.cpp</text>
</a>
</g>
</g>
<!-- Node11&#45;&gt;Node13 -->
<g id="edge15_Node000011_Node000013" class="edge">
<title>Node11&#45;&gt;Node13</title>
<g id="a_edge15_Node000011_Node000013"><a xlink:title=" ">
<path fill="none" stroke="#63b8ff" d="M810.16,-211.65C783.46,-174.78 746.4,-109.37 780.5,-66 800.8,-40.18 892.95,-26.06 946.87,-19.87"/>
<polygon fill="#63b8ff" stroke="#63b8ff" points="807.56,-214.02 816.34,-219.94 813.17,-209.83 807.56,-214.02"/>
</a>
</g>
</g>
<!-- Node15 -->
<g id="Node000015" class="node">
<title>Node15</title>
<g id="a_Node000015"><a xlink:href="Parser_8cpp.html" target="_top" xlink:title=" ">
<polygon fill="white" stroke="#666666" points="1328.5,-178.5 1164.5,-178.5 1164.5,-148.5 1328.5,-148.5 1328.5,-178.5"/>
<text text-anchor="start" x="1172.5" y="-166.5" font-family="Helvetica,sans-Serif" font-size="10.00">src/SceneSystem/ConfigParser</text>
<text text-anchor="middle" x="1246.5" y="-155.5" font-family="Helvetica,sans-Serif" font-size="10.00">/Parser.cpp</text>
</a>
</g>
</g>
<!-- Node14&#45;&gt;Node15 -->
<g id="edge17_Node000014_Node000015" class="edge">
<title>Node14&#45;&gt;Node15</title>
<g id="a_edge17_Node000014_Node000015"><a xlink:title=" ">
<path fill="none" stroke="#63b8ff" d="M1246.5,-215.04C1246.5,-202.95 1246.5,-188.79 1246.5,-178.54"/>
<polygon fill="#63b8ff" stroke="#63b8ff" points="1243,-215.39 1246.5,-225.39 1250,-215.39 1243,-215.39"/>
</a>
</g>
</g>
<!-- Node16 -->
<g id="Node000016" class="node">
<title>Node16</title>
<g id="a_Node000016"><a xlink:href="SceneLoader_8hpp.html" target="_top" xlink:title=" ">
<polygon fill="white" stroke="#666666" points="1476,-101.5 1311,-101.5 1311,-71.5 1476,-71.5 1476,-101.5"/>
<text text-anchor="start" x="1319" y="-89.5" font-family="Helvetica,sans-Serif" font-size="10.00">src/SceneSystem/SceneLoader</text>
<text text-anchor="middle" x="1393.5" y="-78.5" font-family="Helvetica,sans-Serif" font-size="10.00">/SceneLoader.hpp</text>
</a>
</g>
</g>
<!-- Node14&#45;&gt;Node16 -->
<g id="edge18_Node000014_Node000016" class="edge">
<title>Node14&#45;&gt;Node16</title>
<g id="a_edge18_Node000014_Node000016"><a xlink:title=" ">
<path fill="none" stroke="#63b8ff" d="M1338.77,-228.49C1365.62,-220.51 1392.11,-206.94 1408.5,-184 1426.14,-159.31 1411.78,-121.97 1401.54,-101.74"/>
<polygon fill="#63b8ff" stroke="#63b8ff" points="1337.61,-225.18 1328.88,-231.18 1339.45,-231.93 1337.61,-225.18"/>
</a>
</g>
</g>
<!-- Node16&#45;&gt;Node13 -->
<g id="edge20_Node000016_Node000013" class="edge">
<title>Node16&#45;&gt;Node13</title>
<g id="a_edge20_Node000016_Node000013"><a xlink:title=" ">
<path fill="none" stroke="#63b8ff" d="M1318.38,-69.42C1312.34,-68.23 1306.32,-67.07 1300.5,-66 1202.24,-47.89 1085.96,-30.39 1026.26,-21.7"/>
<polygon fill="#63b8ff" stroke="#63b8ff" points="1318.05,-72.92 1328.54,-71.46 1319.42,-66.06 1318.05,-72.92"/>
</a>
</g>
</g>
<!-- Node17 -->
<g id="Node000017" class="node">
<title>Node17</title>
<g id="a_Node000017"><a xlink:href="SceneLoader_8cpp.html" target="_top" xlink:title=" ">
<polygon fill="white" stroke="#666666" points="1476,-30 1311,-30 1311,0 1476,0 1476,-30"/>
<text text-anchor="start" x="1319" y="-18" font-family="Helvetica,sans-Serif" font-size="10.00">src/SceneSystem/SceneLoader</text>
<text text-anchor="middle" x="1393.5" y="-7" font-family="Helvetica,sans-Serif" font-size="10.00">/SceneLoader.cpp</text>
</a>
</g>
</g>
<!-- Node16&#45;&gt;Node17 -->
<g id="edge19_Node000016_Node000017" class="edge">
<title>Node16&#45;&gt;Node17</title>
<g id="a_edge19_Node000016_Node000017"><a xlink:title=" ">
<path fill="none" stroke="#63b8ff" d="M1393.5,-61.25C1393.5,-50.81 1393.5,-38.99 1393.5,-30.04"/>
<polygon fill="#63b8ff" stroke="#63b8ff" points="1390,-61.44 1393.5,-71.44 1397,-61.44 1390,-61.44"/>
</a>
</g>
</g>
<!-- Node18&#45;&gt;Node16 -->
<g id="edge29_Node000018_Node000016" class="edge">
<title>Node18&#45;&gt;Node16</title>
<g id="a_edge29_Node000018_Node000016"><a xlink:title=" ">
<path fill="none" stroke="#63b8ff" d="M1117.87,-224.39C1207.85,-210.25 1328.36,-190.37 1337.5,-184 1366.58,-163.73 1382.7,-123.13 1389.53,-101.62"/>
<polygon fill="#63b8ff" stroke="#63b8ff" points="1117.22,-220.95 1107.88,-225.95 1118.31,-227.86 1117.22,-220.95"/>
</a>
</g>
</g>
<!-- Node19 -->
<g id="Node000019" class="node">
<title>Node19</title>
<g id="a_Node000019"><a xlink:href="PluginManager_8cpp.html" target="_top" xlink:title=" ">
<polygon fill="white" stroke="#666666" points="996.5,-178.5 820.5,-178.5 820.5,-148.5 996.5,-148.5 996.5,-178.5"/>
<text text-anchor="start" x="828.5" y="-166.5" font-family="Helvetica,sans-Serif" font-size="10.00">src/SceneSystem/PluginManager</text>
<text text-anchor="middle" x="908.5" y="-155.5" font-family="Helvetica,sans-Serif" font-size="10.00">/PluginManager.cpp</text>
</a>
</g>
</g>
<!-- Node18&#45;&gt;Node19 -->
<g id="edge22_Node000018_Node000019" class="edge">
<title>Node18&#45;&gt;Node19</title>
<g id="a_edge22_Node000018_Node000019"><a xlink:title=" ">
<path fill="none" stroke="#63b8ff" d="M990.24,-219.73C971.07,-206.78 946.47,-190.15 929.28,-178.54"/>
<polygon fill="#63b8ff" stroke="#63b8ff" points="988.38,-222.69 998.62,-225.39 992.3,-216.89 988.38,-222.69"/>
</a>
</g>
</g>
<!-- Node18&#45;&gt;Node20 -->
<g id="edge23_Node000018_Node000020" class="edge">
<title>Node18&#45;&gt;Node20</title>
<g id="a_edge23_Node000018_Node000020"><a xlink:title=" ">
<path fill="none" stroke="#63b8ff" d="M1037.31,-217.6C1047.57,-204.99 1060.15,-189.53 1069.08,-178.54"/>
<polygon fill="#63b8ff" stroke="#63b8ff" points="1034.57,-215.43 1030.97,-225.39 1040,-219.84 1034.57,-215.43"/>
</a>
</g>
</g>
<!-- Node20&#45;&gt;Node12 -->
<g id="edge24_Node000020_Node000012" class="edge">
<title>Node20&#45;&gt;Node12</title>
<g id="a_edge24_Node000020_Node000012"><a xlink:title=" ">
<path fill="none" stroke="#63b8ff" d="M1031.46,-144.99C999.65,-133.63 958.16,-118.81 925.27,-107.06"/>
<polygon fill="#63b8ff" stroke="#63b8ff" points="1030.41,-148.33 1041,-148.39 1032.76,-141.73 1030.41,-148.33"/>
</a>
</g>
</g>
<!-- Node20&#45;&gt;Node13 -->
<g id="edge28_Node000020_Node000013" class="edge">
<title>Node20&#45;&gt;Node13</title>
<g id="a_edge28_Node000020_Node000013"><a xlink:title=" ">
<path fill="none" stroke="#63b8ff" d="M1043.61,-142.98C1029.67,-133.83 1014.91,-121.68 1005.5,-107 988.52,-80.5 986.39,-41.57 986.33,-24.52"/>
<polygon fill="#63b8ff" stroke="#63b8ff" points="1041.79,-145.97 1052.13,-148.29 1045.49,-140.03 1041.79,-145.97"/>
</a>
</g>
</g>
<!-- Node20&#45;&gt;Node16 -->
<g id="edge27_Node000020_Node000016" class="edge">
<title>Node20&#45;&gt;Node16</title>
<g id="a_edge27_Node000020_Node000016"><a xlink:title=" ">
<path fill="none" stroke="#63b8ff" d="M1143.68,-145.95C1147.68,-144.94 1151.64,-143.95 1155.5,-143 1215.03,-128.32 1283.18,-112.53 1331.26,-101.56"/>
<polygon fill="#63b8ff" stroke="#63b8ff" points="1142.55,-142.63 1133.72,-148.49 1144.28,-149.41 1142.55,-142.63"/>
</a>
</g>
</g>
<!-- Node20&#45;&gt;Node21 -->
<g id="edge25_Node000020_Node000021" class="edge">
<title>Node20&#45;&gt;Node21</title>
<g id="a_edge25_Node000020_Node000021"><a xlink:title=" ">
<path fill="none" stroke="#63b8ff" d="M1117.65,-143.8C1139.89,-132.61 1168.11,-118.4 1190.64,-107.06"/>
<polygon fill="#63b8ff" stroke="#63b8ff" points="1115.88,-140.77 1108.53,-148.39 1119.03,-147.02 1115.88,-140.77"/>
</a>
</g>
</g>
<!-- Node22 -->
<g id="Node000022" class="node">
<title>Node22</title>
<g id="a_Node000022"><a xlink:href="Scene_8cpp.html" target="_top" xlink:title=" ">
<polygon fill="white" stroke="#666666" points="1146.5,-101.5 1014.5,-101.5 1014.5,-71.5 1146.5,-71.5 1146.5,-101.5"/>
<text text-anchor="start" x="1022.5" y="-89.5" font-family="Helvetica,sans-Serif" font-size="10.00">src/SceneSystem/Scene</text>
<text text-anchor="middle" x="1080.5" y="-78.5" font-family="Helvetica,sans-Serif" font-size="10.00">/Scene.cpp</text>
</a>
</g>
</g>
<!-- Node20&#45;&gt;Node22 -->
<g id="edge26_Node000020_Node000022" class="edge">
<title>Node20&#45;&gt;Node22</title>
<g id="a_edge26_Node000020_Node000022"><a xlink:title=" ">
<path fill="none" stroke="#63b8ff" d="M1080.5,-138.04C1080.5,-125.95 1080.5,-111.79 1080.5,-101.54"/>
<polygon fill="#63b8ff" stroke="#63b8ff" points="1077,-138.39 1080.5,-148.39 1084,-138.39 1077,-138.39"/>
</a>
</g>
</g>
<!-- Node25&#45;&gt;Node4 -->
<g id="edge34_Node000025_Node000004" class="edge">
<title>Node25&#45;&gt;Node4</title>
<g id="a_edge34_Node000025_Node000004"><a xlink:title=" ">
<path fill="none" stroke="#63b8ff" d="M1374.97,-302.43C1362.51,-300.36 1349.66,-298.44 1337.5,-297 1205.96,-281.41 863.93,-313.92 742.5,-261 718.29,-250.45 722.43,-233.09 699.5,-220 662.03,-198.61 615.76,-185 577.59,-176.62"/>
<polygon fill="#63b8ff" stroke="#63b8ff" points="1374.42,-305.88 1384.86,-304.11 1375.59,-298.98 1374.42,-305.88"/>
</a>
</g>
</g>
<!-- Node26 -->
<g id="Node000026" class="node">
<title>Node26</title>
<g id="a_Node000026"><a xlink:href="Cylinder_8cpp.html" target="_top" xlink:title=" ">
<polygon fill="white" stroke="#666666" points="1510,-261 1385,-261 1385,-220 1510,-220 1510,-261"/>
<text text-anchor="start" x="1393" y="-249" font-family="Helvetica,sans-Serif" font-size="10.00">src/Objects/Plugins</text>
<text text-anchor="start" x="1393" y="-238" font-family="Helvetica,sans-Serif" font-size="10.00">/CorePlugin/Primitives</text>
<text text-anchor="middle" x="1447.5" y="-227" font-family="Helvetica,sans-Serif" font-size="10.00">/Cylinder/Cylinder.cpp</text>
</a>
</g>
</g>
<!-- Node25&#45;&gt;Node26 -->
<g id="edge35_Node000025_Node000026" class="edge">
<title>Node25&#45;&gt;Node26</title>
<g id="a_edge35_Node000025_Node000026"><a xlink:title=" ">
<path fill="none" stroke="#63b8ff" d="M1447.5,-286.69C1447.5,-278.08 1447.5,-268.9 1447.5,-261.07"/>
<polygon fill="#63b8ff" stroke="#63b8ff" points="1444,-286.79 1447.5,-296.79 1451,-286.79 1444,-286.79"/>
</a>
</g>
</g>
<!-- Node27&#45;&gt;Node4 -->
<g id="edge37_Node000027_Node000004" class="edge">
<title>Node27&#45;&gt;Node4</title>
<g id="a_edge37_Node000027_Node000004"><a xlink:title=" ">
<path fill="none" stroke="#63b8ff" d="M471.25,-287.06C479.84,-254.42 493.33,-203.15 499.8,-178.57"/>
<polygon fill="#63b8ff" stroke="#63b8ff" points="467.81,-286.38 468.65,-296.94 474.58,-288.16 467.81,-286.38"/>
</a>
</g>
</g>
<!-- Node28 -->
<g id="Node000028" class="node">
<title>Node28</title>
<g id="a_Node000028"><a xlink:href="Plane_8cpp.html" target="_top" xlink:title=" ">
<polygon fill="white" stroke="#666666" points="437,-261 312,-261 312,-220 437,-220 437,-261"/>
<text text-anchor="start" x="320" y="-249" font-family="Helvetica,sans-Serif" font-size="10.00">src/Objects/Plugins</text>
<text text-anchor="start" x="320" y="-238" font-family="Helvetica,sans-Serif" font-size="10.00">/CorePlugin/Primitives</text>
<text text-anchor="middle" x="374.5" y="-227" font-family="Helvetica,sans-Serif" font-size="10.00">/Plane/Plane.cpp</text>
</a>
</g>
</g>
<!-- Node27&#45;&gt;Node28 -->
<g id="edge38_Node000027_Node000028" class="edge">
<title>Node27&#45;&gt;Node28</title>
<g id="a_edge38_Node000027_Node000028"><a xlink:title=" ">
<path fill="none" stroke="#63b8ff" d="M432.47,-290.35C421.05,-280.73 408.34,-270.01 397.73,-261.07"/>
<polygon fill="#63b8ff" stroke="#63b8ff" points="430.21,-293.03 440.12,-296.79 434.72,-287.67 430.21,-293.03"/>
</a>
</g>
</g>
<!-- Node29&#45;&gt;Node4 -->
<g id="edge40_Node000029_Node000004" class="edge">
<title>Node29&#45;&gt;Node4</title>
<g id="a_edge40_Node000029_Node000004"><a xlink:title=" ">
<path fill="none" stroke="#63b8ff" d="M554.28,-291.19C542.22,-283.09 530.57,-273.03 522.5,-261 505.48,-235.61 502.97,-198.55 503,-178.55"/>
<polygon fill="#63b8ff" stroke="#63b8ff" points="552.77,-294.38 563.1,-296.75 556.5,-288.45 552.77,-294.38"/>
</a>
</g>
</g>
<!-- Node30 -->
<g id="Node000030" class="node">
<title>Node30</title>
<g id="a_Node000030"><a xlink:href="Sphere_8cpp.html" target="_top" xlink:title=" ">
<polygon fill="white" stroke="#666666" points="657,-261 532,-261 532,-220 657,-220 657,-261"/>
<text text-anchor="start" x="540" y="-249" font-family="Helvetica,sans-Serif" font-size="10.00">src/Objects/Plugins</text>
<text text-anchor="start" x="540" y="-238" font-family="Helvetica,sans-Serif" font-size="10.00">/CorePlugin/Primitives</text>
<text text-anchor="middle" x="594.5" y="-227" font-family="Helvetica,sans-Serif" font-size="10.00">/Sphere/Sphere.cpp</text>
</a>
</g>
</g>
<!-- Node29&#45;&gt;Node30 -->
<g id="edge41_Node000029_Node000030" class="edge">
<title>Node29&#45;&gt;Node30</title>
<g id="a_edge41_Node000029_Node000030"><a xlink:title=" ">
<path fill="none" stroke="#63b8ff" d="M601.73,-286.69C600.35,-278.08 598.88,-268.9 597.63,-261.07"/>
<polygon fill="#63b8ff" stroke="#63b8ff" points="598.31,-287.47 603.35,-296.79 605.22,-286.37 598.31,-287.47"/>
</a>
</g>
</g>
</g>
</svg>

<g id="navigator" transform="translate(0 0)" fill="#404254">
  <rect fill="#f2f5e9" fill-opacity="0.5" stroke="#606060" stroke-width=".5" x="0" y="0" width="60" height="60"/>
  <use id="zoomplus" xlink:href="#zoomPlus" x="17" y="9" onmousedown="handleZoom(evt,'in')"/>
  <use id="zoomminus" xlink:href="#zoomMin" x="42" y="9" onmousedown="handleZoom(evt,'out')"/>
  <use id="reset" xlink:href="#resetDef" x="30" y="36" onmousedown="handleReset()"/>
   <use id="arrowup" xlink:href="#arrowUp" x="0" y="0" onmousedown="handlePan(0,-1)"/>
  <use id="arrowright" xlink:href="#arrowRight" x="0" y="0" onmousedown="handlePan(1,0)"/>
  <use id="arrowdown" xlink:href="#arrowDown" x="0" y="0" onmousedown="handlePan(0,1)"/>
  <use id="arrowleft" xlink:href="#arrowLeft" x="0" y="0" onmousedown="handlePan(-1,0)"/>
</g>
<svg viewBox="0 0 15 15" width="100%" height="30px" preserveAspectRatio="xMaxYMin meet">
 <g id="arrow_out" transform="scale(0.3 0.3)">
  <a xlink:href="IMaterial_8hpp__dep__incl_org.svg" target="_base">
   <rect id="button" ry="5" rx="5" y="6" x="6" height="38" width="38"
        fill="#f2f5e9" fill-opacity="0.5" stroke="#606060" stroke-width="1.0"/>
   <path id="arrow"
     d="M 11.500037,31.436501 C 11.940474,20.09759 22.043105,11.32322 32.158766,21.979434 L 37.068811,17.246167 C 37.068811,17.246167 37.088388,32 37.088388,32 L 22.160133,31.978069 C 22.160133,31.978069 26.997745,27.140456 26.997745,27.140456 C 18.528582,18.264221 13.291696,25.230495 11.500037,31.436501 z"
     style="fill:#404040;"/>
  </a>
 </g>
</svg>

<style type='text/css'>
<![CDATA[
[data-mouse-over-selected='false'] { opacity: 0.7; }
[data-mouse-over-selected='true']  { opacity: 1.0; }
]]>
</style>
<script type="application/ecmascript"><![CDATA[
document.addEventListener('DOMContentLoaded', (event) => {
  highlightEdges();
  highlightAdjacentNodes();
});
]]></script>
</svg>
