<?xml version="1.0" encoding="UTF-8" standalone="no"?>
<!DOCTYPE svg PUBLIC "-//W3C//DTD SVG 1.1//EN"
 "http://www.w3.org/Graphics/SVG/1.1/DTD/svg11.dtd">
<!-- Generated by graphviz version 2.43.0 (0)
 -->
<!-- Title: Graphical Class Hierarchy Pages: 1 -->
<svg width="439pt" height="76pt"
 viewBox="0.00 0.00 439.00 75.50" xmlns="http://www.w3.org/2000/svg" xmlns:xlink="http://www.w3.org/1999/xlink">
<g id="graph0" class="graph" transform="scale(1 1) rotate(0) translate(4 71.5)">
<title>Graphical Class Hierarchy</title>
<!-- Node0 -->
<g id="Node000000" class="node">
<title>Node0</title>
<g id="a_Node000000"><a xlink:title=" ">
<polygon fill="#e0e0e0" stroke="#999999" points="86,-40 0,-40 0,-21 86,-21 86,-40"/>
<text text-anchor="middle" x="43" y="-28" font-family="Helvetica,sans-Serif" font-size="10.00">std::exception</text>
</a>
</g>
</g>
<!-- Node1 -->
<g id="Node000001" class="node">
<title>Node1</title>
<g id="a_Node000001"><a xlink:href="classRayTracer_1_1Exception.html" target="_top" xlink:title=" ">
<polygon fill="white" stroke="#666666" points="241,-40 122,-40 122,-21 241,-21 241,-40"/>
<text text-anchor="middle" x="181.5" y="-28" font-family="Helvetica,sans-Serif" font-size="10.00">RayTracer::Exception</text>
</a>
</g>
</g>
<!-- Node0&#45;&gt;Node1 -->
<g id="edge13_Node000000_Node000001" class="edge">
<title>Node0&#45;&gt;Node1</title>
<g id="a_edge13_Node000000_Node000001"><a xlink:title=" ">
<path fill="none" stroke="#63b8ff" d="M96.1,-30.5C104.49,-30.5 113.22,-30.5 121.76,-30.5"/>
<polygon fill="#63b8ff" stroke="#63b8ff" points="96.07,-27 86.07,-30.5 96.07,-34 96.07,-27"/>
</a>
</g>
</g>
<!-- Node2 -->
<g id="Node000002" class="node">
<title>Node2</title>
<g id="a_Node000002"><a xlink:href="classRayTracer_1_1DivisionByZeroException.html" target="_top" xlink:title=" ">
<polygon fill="white" stroke="#666666" points="427,-67.5 281,-67.5 281,-37.5 427,-37.5 427,-67.5"/>
<text text-anchor="start" x="289" y="-55.5" font-family="Helvetica,sans-Serif" font-size="10.00">RayTracer::DivisionByZero</text>
<text text-anchor="middle" x="354" y="-44.5" font-family="Helvetica,sans-Serif" font-size="10.00">Exception</text>
</a>
</g>
</g>
<!-- Node1&#45;&gt;Node2 -->
<g id="edge14_Node000001_Node000002" class="edge">
<title>Node1&#45;&gt;Node2</title>
<g id="a_edge14_Node000001_Node000002"><a xlink:title=" ">
<path fill="none" stroke="#63b8ff" d="M251.24,-39.37C261.02,-40.63 271.11,-41.93 280.95,-43.2"/>
<polygon fill="#63b8ff" stroke="#63b8ff" points="251.54,-35.88 241.18,-38.07 250.65,-42.82 251.54,-35.88"/>
</a>
</g>
</g>
<!-- Node3 -->
<g id="Node000003" class="node">
<title>Node3</title>
<g id="a_Node000003"><a xlink:href="classRayTracer_1_1ParsingException.html" target="_top" xlink:title=" ">
<polygon fill="white" stroke="#666666" points="431,-19 277,-19 277,0 431,0 431,-19"/>
<text text-anchor="middle" x="354" y="-7" font-family="Helvetica,sans-Serif" font-size="10.00">RayTracer::ParsingException</text>
</a>
</g>
</g>
<!-- Node1&#45;&gt;Node3 -->
<g id="edge15_Node000001_Node000003" class="edge">
<title>Node1&#45;&gt;Node3</title>
<g id="a_edge15_Node000001_Node000003"><a xlink:title=" ">
<path fill="none" stroke="#63b8ff" d="M251.27,-22.03C259.66,-21 268.27,-19.94 276.75,-18.89"/>
<polygon fill="#63b8ff" stroke="#63b8ff" points="250.67,-18.58 241.18,-23.27 251.53,-25.52 250.67,-18.58"/>
</a>
</g>
</g>
</g>
</svg>
