<?xml version="1.0" encoding="UTF-8" standalone="no"?>
<!DOCTYPE svg PUBLIC "-//W3C//DTD SVG 1.1//EN"
 "http://www.w3.org/Graphics/SVG/1.1/DTD/svg11.dtd">
<!-- Generated by graphviz version 2.43.0 (0)
 -->
<!-- Title: Graphical Class Hierarchy Pages: 1 -->
<svg width="438pt" height="101pt"
 viewBox="0.00 0.00 438.00 101.00" xmlns="http://www.w3.org/2000/svg" xmlns:xlink="http://www.w3.org/1999/xlink">
<g id="graph0" class="graph" transform="scale(1 1) rotate(0) translate(4 97)">
<title>Graphical Class Hierarchy</title>
<!-- Node0 -->
<g id="Node000000" class="node">
<title>Node0</title>
<g id="a_Node000000"><a xlink:href="classRayTracer_1_1IMaterial.html" target="_top" xlink:title="Interface for physically&#45;based surface materials.">
<polygon fill="white" stroke="#666666" points="114,-56 0,-56 0,-37 114,-37 114,-56"/>
<text text-anchor="middle" x="57" y="-44" font-family="Helvetica,sans-Serif" font-size="10.00">RayTracer::IMaterial</text>
</a>
</g>
</g>
<!-- Node1 -->
<g id="Node000001" class="node">
<title>Node1</title>
<g id="a_Node000001"><a xlink:href="classRayTracer_1_1AMaterial.html" target="_top" xlink:title="Abstract base class for all materials. Defines the interface for evaluating the BRDF,...">
<polygon fill="white" stroke="#666666" points="268,-56 150,-56 150,-37 268,-37 268,-56"/>
<text text-anchor="middle" x="209" y="-44" font-family="Helvetica,sans-Serif" font-size="10.00">RayTracer::AMaterial</text>
</a>
</g>
</g>
<!-- Node0&#45;&gt;Node1 -->
<g id="edge12_Node000000_Node000001" class="edge">
<title>Node0&#45;&gt;Node1</title>
<g id="a_edge12_Node000000_Node000001"><a xlink:title=" ">
<path fill="none" stroke="#63b8ff" d="M124.51,-46.5C132.97,-46.5 141.58,-46.5 149.9,-46.5"/>
<polygon fill="#63b8ff" stroke="#63b8ff" points="124.28,-43 114.28,-46.5 124.28,-50 124.28,-43"/>
</a>
</g>
</g>
<!-- Node2 -->
<g id="Node000002" class="node">
<title>Node2</title>
<g id="a_Node000002"><a xlink:href="classRayTracer_1_1Glass.html" target="_top" xlink:title=" ">
<polygon fill="white" stroke="#666666" points="416,-93 318,-93 318,-74 416,-74 416,-93"/>
<text text-anchor="middle" x="367" y="-81" font-family="Helvetica,sans-Serif" font-size="10.00">RayTracer::Glass</text>
</a>
</g>
</g>
<!-- Node1&#45;&gt;Node2 -->
<g id="edge13_Node000001_Node000002" class="edge">
<title>Node1&#45;&gt;Node2</title>
<g id="a_edge13_Node000001_Node000002"><a xlink:title=" ">
<path fill="none" stroke="#63b8ff" d="M259.99,-58.36C281.22,-63.39 305.64,-69.18 325.69,-73.94"/>
<polygon fill="#63b8ff" stroke="#63b8ff" points="260.71,-54.93 250.17,-56.03 259.1,-61.74 260.71,-54.93"/>
</a>
</g>
</g>
<!-- Node3 -->
<g id="Node000003" class="node">
<title>Node3</title>
<g id="a_Node000003"><a xlink:href="classRayTracer_1_1Lambertian.html" target="_top" xlink:title=" ">
<polygon fill="white" stroke="#666666" points="430,-56 304,-56 304,-37 430,-37 430,-56"/>
<text text-anchor="middle" x="367" y="-44" font-family="Helvetica,sans-Serif" font-size="10.00">RayTracer::Lambertian</text>
</a>
</g>
</g>
<!-- Node1&#45;&gt;Node3 -->
<g id="edge14_Node000001_Node000003" class="edge">
<title>Node1&#45;&gt;Node3</title>
<g id="a_edge14_Node000001_Node000003"><a xlink:title=" ">
<path fill="none" stroke="#63b8ff" d="M278.36,-46.5C286.87,-46.5 295.54,-46.5 303.94,-46.5"/>
<polygon fill="#63b8ff" stroke="#63b8ff" points="278.09,-43 268.09,-46.5 278.09,-50 278.09,-43"/>
</a>
</g>
</g>
<!-- Node4 -->
<g id="Node000004" class="node">
<title>Node4</title>
<g id="a_Node000004"><a xlink:href="classRayTracer_1_1Phong.html" target="_top" xlink:title=" ">
<polygon fill="white" stroke="#666666" points="417.5,-19 316.5,-19 316.5,0 417.5,0 417.5,-19"/>
<text text-anchor="middle" x="367" y="-7" font-family="Helvetica,sans-Serif" font-size="10.00">RayTracer::Phong</text>
</a>
</g>
</g>
<!-- Node1&#45;&gt;Node4 -->
<g id="edge15_Node000001_Node000004" class="edge">
<title>Node1&#45;&gt;Node4</title>
<g id="a_edge15_Node000001_Node000004"><a xlink:title=" ">
<path fill="none" stroke="#63b8ff" d="M259.99,-34.64C281.22,-29.61 305.64,-23.82 325.69,-19.06"/>
<polygon fill="#63b8ff" stroke="#63b8ff" points="259.1,-31.26 250.17,-36.97 260.71,-38.07 259.1,-31.26"/>
</a>
</g>
</g>
</g>
</svg>
