<?xml version="1.0" encoding="UTF-8" standalone="no"?>
<!DOCTYPE svg PUBLIC "-//W3C//DTD SVG 1.1//EN"
 "http://www.w3.org/Graphics/SVG/1.1/DTD/svg11.dtd">
<!-- Generated by graphviz version 2.43.0 (0)
 -->
<!-- Title: Graphical Class Hierarchy Pages: 1 -->
<svg width="277pt" height="101pt"
 viewBox="0.00 0.00 277.00 101.00" xmlns="http://www.w3.org/2000/svg" xmlns:xlink="http://www.w3.org/1999/xlink">
<g id="graph0" class="graph" transform="scale(1 1) rotate(0) translate(4 97)">
<title>Graphical Class Hierarchy</title>
<!-- Node0 -->
<g id="Node000000" class="node">
<title>Node0</title>
<g id="a_Node000000"><a xlink:href="classRayTracer_1_1APrimitive.html" target="_top" xlink:title="Abstract base class for all primitives (renderable objects). Primitives have geometry and a material.">
<polygon fill="white" stroke="#666666" points="122,-56 0,-56 0,-37 122,-37 122,-56"/>
<text text-anchor="middle" x="61" y="-44" font-family="Helvetica,sans-Serif" font-size="10.00">RayTracer::APrimitive</text>
</a>
</g>
</g>
<!-- Node1 -->
<g id="Node000001" class="node">
<title>Node1</title>
<g id="a_Node000001"><a xlink:href="classRayTracer_1_1Cylinder.html" target="_top" xlink:title=" ">
<polygon fill="white" stroke="#666666" points="269,-93 158,-93 158,-74 269,-74 269,-93"/>
<text text-anchor="middle" x="213.5" y="-81" font-family="Helvetica,sans-Serif" font-size="10.00">RayTracer::Cylinder</text>
</a>
</g>
</g>
<!-- Node0&#45;&gt;Node1 -->
<g id="edge4_Node000000_Node000001" class="edge">
<title>Node0&#45;&gt;Node1</title>
<g id="a_edge4_Node000000_Node000001"><a xlink:title=" ">
<path fill="none" stroke="#63b8ff" d="M110.51,-58.43C130.92,-63.44 154.36,-69.21 173.61,-73.94"/>
<polygon fill="#63b8ff" stroke="#63b8ff" points="111.3,-55.02 100.76,-56.03 109.63,-61.81 111.3,-55.02"/>
</a>
</g>
</g>
<!-- Node2 -->
<g id="Node000002" class="node">
<title>Node2</title>
<g id="a_Node000002"><a xlink:href="classRayTracer_1_1Plane.html" target="_top" xlink:title=" ">
<polygon fill="white" stroke="#666666" points="262.5,-56 164.5,-56 164.5,-37 262.5,-37 262.5,-56"/>
<text text-anchor="middle" x="213.5" y="-44" font-family="Helvetica,sans-Serif" font-size="10.00">RayTracer::Plane</text>
</a>
</g>
</g>
<!-- Node0&#45;&gt;Node2 -->
<g id="edge5_Node000000_Node000002" class="edge">
<title>Node0&#45;&gt;Node2</title>
<g id="a_edge5_Node000000_Node000002"><a xlink:title=" ">
<path fill="none" stroke="#63b8ff" d="M132.54,-46.5C143.25,-46.5 154.08,-46.5 164.17,-46.5"/>
<polygon fill="#63b8ff" stroke="#63b8ff" points="132.35,-43 122.35,-46.5 132.35,-50 132.35,-43"/>
</a>
</g>
</g>
<!-- Node3 -->
<g id="Node000003" class="node">
<title>Node3</title>
<g id="a_Node000003"><a xlink:href="classRayTracer_1_1Sphere.html" target="_top" xlink:title=" ">
<polygon fill="white" stroke="#666666" points="265.5,-19 161.5,-19 161.5,0 265.5,0 265.5,-19"/>
<text text-anchor="middle" x="213.5" y="-7" font-family="Helvetica,sans-Serif" font-size="10.00">RayTracer::Sphere</text>
</a>
</g>
</g>
<!-- Node0&#45;&gt;Node3 -->
<g id="edge6_Node000000_Node000003" class="edge">
<title>Node0&#45;&gt;Node3</title>
<g id="a_edge6_Node000000_Node000003"><a xlink:title=" ">
<path fill="none" stroke="#63b8ff" d="M110.51,-34.57C130.92,-29.56 154.36,-23.79 173.61,-19.06"/>
<polygon fill="#63b8ff" stroke="#63b8ff" points="109.63,-31.19 100.76,-36.97 111.3,-37.98 109.63,-31.19"/>
</a>
</g>
</g>
</g>
</svg>
