<?xml version="1.0" encoding="UTF-8" standalone="no"?>
<!DOCTYPE svg PUBLIC "-//W3C//DTD SVG 1.1//EN"
 "http://www.w3.org/Graphics/SVG/1.1/DTD/svg11.dtd">
<!-- Generated by graphviz version 2.43.0 (0)
 -->
<!-- Title: Graphical Class Hierarchy Pages: 1 -->
<svg width="284pt" height="64pt"
 viewBox="0.00 0.00 284.00 64.00" xmlns="http://www.w3.org/2000/svg" xmlns:xlink="http://www.w3.org/1999/xlink">
<g id="graph0" class="graph" transform="scale(1 1) rotate(0) translate(4 60)">
<title>Graphical Class Hierarchy</title>
<!-- Node0 -->
<g id="Node000000" class="node">
<title>Node0</title>
<g id="a_Node000000"><a xlink:href="classRayTracer_1_1IPrimitive.html" target="_top" xlink:title=" ">
<polygon fill="white" stroke="#666666" points="118,-37 0,-37 0,-18 118,-18 118,-37"/>
<text text-anchor="middle" x="59" y="-25" font-family="Helvetica,sans-Serif" font-size="10.00">RayTracer::IPrimitive</text>
</a>
</g>
</g>
<!-- Node1 -->
<g id="Node000001" class="node">
<title>Node1</title>
<g id="a_Node000001"><a xlink:href="classRayTracer_1_1APrimitive.html" target="_top" xlink:title=" ">
<polygon fill="white" stroke="#666666" points="276,-56 154,-56 154,-37 276,-37 276,-56"/>
<text text-anchor="middle" x="215" y="-44" font-family="Helvetica,sans-Serif" font-size="10.00">RayTracer::APrimitive</text>
</a>
</g>
</g>
<!-- Node0&#45;&gt;Node1 -->
<g id="edge1_Node000000_Node000001" class="edge">
<title>Node0&#45;&gt;Node1</title>
<g id="a_edge1_Node000000_Node000001"><a xlink:title=" ">
<path fill="none" stroke="#63b8ff" d="M128.19,-35.91C136.75,-36.97 145.47,-38.05 153.9,-39.09"/>
<polygon fill="#63b8ff" stroke="#63b8ff" points="128.57,-32.43 118.22,-34.68 127.72,-39.38 128.57,-32.43"/>
</a>
</g>
</g>
<!-- Node2 -->
<g id="Node000002" class="node">
<title>Node2</title>
<g id="a_Node000002"><a xlink:href="classRayTracer_1_1Plane.html" target="_top" xlink:title=" ">
<polygon fill="white" stroke="#666666" points="264,-19 166,-19 166,0 264,0 264,-19"/>
<text text-anchor="middle" x="215" y="-7" font-family="Helvetica,sans-Serif" font-size="10.00">RayTracer::Plane</text>
</a>
</g>
</g>
<!-- Node0&#45;&gt;Node2 -->
<g id="edge2_Node000000_Node000002" class="edge">
<title>Node0&#45;&gt;Node2</title>
<g id="a_edge2_Node000000_Node000002"><a xlink:title=" ">
<path fill="none" stroke="#63b8ff" d="M128.26,-19.52C140.9,-18.04 153.85,-16.53 165.74,-15.14"/>
<polygon fill="#63b8ff" stroke="#63b8ff" points="127.75,-16.06 118.22,-20.69 128.56,-23.01 127.75,-16.06"/>
</a>
</g>
</g>
</g>
</svg>
