<?xml version="1.0" encoding="UTF-8" standalone="no"?>
<!DOCTYPE svg PUBLIC "-//W3C//DTD SVG 1.1//EN"
 "http://www.w3.org/Graphics/SVG/1.1/DTD/svg11.dtd">
<!-- Generated by graphviz version 2.43.0 (0)
 -->
<!-- Title: Graphical Class Hierarchy Pages: 1 -->
<svg width="290pt" height="101pt"
 viewBox="0.00 0.00 290.00 101.00" xmlns="http://www.w3.org/2000/svg" xmlns:xlink="http://www.w3.org/1999/xlink">
<g id="graph0" class="graph" transform="scale(1 1) rotate(0) translate(4 97)">
<title>Graphical Class Hierarchy</title>
<!-- Node0 -->
<g id="Node000000" class="node">
<title>Node0</title>
<g id="a_Node000000"><a xlink:href="classRayTracer_1_1ILight.html" target="_top" xlink:title=" ">
<polygon fill="white" stroke="#666666" points="98,-56 0,-56 0,-37 98,-37 98,-56"/>
<text text-anchor="middle" x="49" y="-44" font-family="Helvetica,sans-Serif" font-size="10.00">RayTracer::ILight</text>
</a>
</g>
</g>
<!-- Node1 -->
<g id="Node000001" class="node">
<title>Node1</title>
<g id="a_Node000001"><a xlink:href="classRayTracer_1_1AmbientLight.html" target="_top" xlink:title=" ">
<polygon fill="white" stroke="#666666" points="276,-93 140,-93 140,-74 276,-74 276,-93"/>
<text text-anchor="middle" x="208" y="-81" font-family="Helvetica,sans-Serif" font-size="10.00">RayTracer::AmbientLight</text>
</a>
</g>
</g>
<!-- Node0&#45;&gt;Node1 -->
<g id="edge6_Node000000_Node000001" class="edge">
<title>Node0&#45;&gt;Node1</title>
<g id="a_edge6_Node000000_Node000001"><a xlink:title=" ">
<path fill="none" stroke="#63b8ff" d="M100.31,-58.36C121.68,-63.39 146.26,-69.18 166.43,-73.94"/>
<polygon fill="#63b8ff" stroke="#63b8ff" points="100.97,-54.92 90.43,-56.03 99.36,-61.73 100.97,-54.92"/>
</a>
</g>
</g>
<!-- Node2 -->
<g id="Node000002" class="node">
<title>Node2</title>
<g id="a_Node000002"><a xlink:href="classRayTracer_1_1DirectionalLight.html" target="_top" xlink:title="Directional light — no position, only a direction (simulates sunlight).">
<polygon fill="white" stroke="#666666" points="282,-56 134,-56 134,-37 282,-37 282,-56"/>
<text text-anchor="middle" x="208" y="-44" font-family="Helvetica,sans-Serif" font-size="10.00">RayTracer::DirectionalLight</text>
</a>
</g>
</g>
<!-- Node0&#45;&gt;Node2 -->
<g id="edge7_Node000000_Node000002" class="edge">
<title>Node0&#45;&gt;Node2</title>
<g id="a_edge7_Node000000_Node000002"><a xlink:title=" ">
<path fill="none" stroke="#63b8ff" d="M108.64,-46.5C116.9,-46.5 125.47,-46.5 133.95,-46.5"/>
<polygon fill="#63b8ff" stroke="#63b8ff" points="108.39,-43 98.39,-46.5 108.39,-50 108.39,-43"/>
</a>
</g>
</g>
<!-- Node3 -->
<g id="Node000003" class="node">
<title>Node3</title>
<g id="a_Node000003"><a xlink:href="classRayTracer_1_1PointLight.html" target="_top" xlink:title="A punctual light source emitting equally in all directions.">
<polygon fill="white" stroke="#666666" points="267.5,-19 148.5,-19 148.5,0 267.5,0 267.5,-19"/>
<text text-anchor="middle" x="208" y="-7" font-family="Helvetica,sans-Serif" font-size="10.00">RayTracer::PointLight</text>
</a>
</g>
</g>
<!-- Node0&#45;&gt;Node3 -->
<g id="edge8_Node000000_Node000003" class="edge">
<title>Node0&#45;&gt;Node3</title>
<g id="a_edge8_Node000000_Node000003"><a xlink:title=" ">
<path fill="none" stroke="#63b8ff" d="M100.31,-34.64C121.68,-29.61 146.26,-23.82 166.43,-19.06"/>
<polygon fill="#63b8ff" stroke="#63b8ff" points="99.36,-31.27 90.43,-36.97 100.97,-38.08 99.36,-31.27"/>
</a>
</g>
</g>
</g>
</svg>
