<?xml version="1.0" encoding="UTF-8" standalone="no"?>
<!DOCTYPE svg PUBLIC "-//W3C//DTD SVG 1.1//EN"
 "http://www.w3.org/Graphics/SVG/1.1/DTD/svg11.dtd">
<!-- Generated by graphviz version 2.43.0 (0)
 -->
<!-- Title: Graphical Class Hierarchy Pages: 1 -->
<svg width="438pt" height="64pt"
 viewBox="0.00 0.00 438.00 64.00" xmlns="http://www.w3.org/2000/svg" xmlns:xlink="http://www.w3.org/1999/xlink">
<g id="graph0" class="graph" transform="scale(1 1) rotate(0) translate(4 60)">
<title>Graphical Class Hierarchy</title>
<!-- Node0 -->
<g id="Node000000" class="node">
<title>Node0</title>
<g id="a_Node000000"><a xlink:href="classRayTracer_1_1IMaterial.html" target="_top" xlink:title="Interface for physically&#45;based surface materials.">
<polygon fill="white" stroke="#666666" points="114,-37 0,-37 0,-18 114,-18 114,-37"/>
<text text-anchor="middle" x="57" y="-25" font-family="Helvetica,sans-Serif" font-size="10.00">RayTracer::IMaterial</text>
</a>
</g>
</g>
<!-- Node1 -->
<g id="Node000001" class="node">
<title>Node1</title>
<g id="a_Node000001"><a xlink:href="classRayTracer_1_1AMaterial.html" target="_top" xlink:title="Abstract base class for all materials. Defines the interface for evaluating the BRDF,...">
<polygon fill="white" stroke="#666666" points="268,-37 150,-37 150,-18 268,-18 268,-37"/>
<text text-anchor="middle" x="209" y="-25" font-family="Helvetica,sans-Serif" font-size="10.00">RayTracer::AMaterial</text>
</a>
</g>
</g>
<!-- Node0&#45;&gt;Node1 -->
<g id="edge10_Node000000_Node000001" class="edge">
<title>Node0&#45;&gt;Node1</title>
<g id="a_edge10_Node000000_Node000001"><a xlink:title=" ">
<path fill="none" stroke="#63b8ff" d="M124.51,-27.5C132.97,-27.5 141.58,-27.5 149.9,-27.5"/>
<polygon fill="#63b8ff" stroke="#63b8ff" points="124.28,-24 114.28,-27.5 124.28,-31 124.28,-24"/>
</a>
</g>
</g>
<!-- Node2 -->
<g id="Node000002" class="node">
<title>Node2</title>
<g id="a_Node000002"><a xlink:href="classRayTracer_1_1Lambertian.html" target="_top" xlink:title=" ">
<polygon fill="white" stroke="#666666" points="430,-56 304,-56 304,-37 430,-37 430,-56"/>
<text text-anchor="middle" x="367" y="-44" font-family="Helvetica,sans-Serif" font-size="10.00">RayTracer::Lambertian</text>
</a>
</g>
</g>
<!-- Node1&#45;&gt;Node2 -->
<g id="edge11_Node000001_Node000002" class="edge">
<title>Node1&#45;&gt;Node2</title>
<g id="a_edge11_Node000001_Node000002"><a xlink:title=" ">
<path fill="none" stroke="#63b8ff" d="M278.08,-35.79C286.68,-36.84 295.44,-37.91 303.94,-38.94"/>
<polygon fill="#63b8ff" stroke="#63b8ff" points="278.44,-32.31 268.09,-34.57 277.59,-39.26 278.44,-32.31"/>
</a>
</g>
</g>
<!-- Node3 -->
<g id="Node000003" class="node">
<title>Node3</title>
<g id="a_Node000003"><a xlink:href="classRayTracer_1_1Phong.html" target="_top" xlink:title=" ">
<polygon fill="white" stroke="#666666" points="417.5,-19 316.5,-19 316.5,0 417.5,0 417.5,-19"/>
<text text-anchor="middle" x="367" y="-7" font-family="Helvetica,sans-Serif" font-size="10.00">RayTracer::Phong</text>
</a>
</g>
</g>
<!-- Node1&#45;&gt;Node3 -->
<g id="edge12_Node000001_Node000003" class="edge">
<title>Node1&#45;&gt;Node3</title>
<g id="a_edge12_Node000001_Node000003"><a xlink:title=" ">
<path fill="none" stroke="#63b8ff" d="M278.25,-19.62C291.05,-18.15 304.21,-16.63 316.31,-15.23"/>
<polygon fill="#63b8ff" stroke="#63b8ff" points="277.62,-16.17 268.09,-20.8 278.42,-23.13 277.62,-16.17"/>
</a>
</g>
</g>
</g>
</svg>
