<?xml version="1.0" encoding="UTF-8" standalone="no"?>
<!DOCTYPE svg PUBLIC "-//W3C//DTD SVG 1.1//EN"
 "http://www.w3.org/Graphics/SVG/1.1/DTD/svg11.dtd">
<!-- Generated by graphviz version 2.43.0 (0)
 -->
<!-- Title: src/Objects/IPlugin.hpp Pages: 1 -->
<!--zoomable 566 -->

<svg id="main" version="1.1" xmlns="http://www.w3.org/2000/svg" xmlns:xlink="http://www.w3.org/1999/xlink" xml:space="preserve" onload="init(evt)">
<style type="text/css"><![CDATA[
.node, .edge {opacity: 0.7;}
.node.selected, .edge.selected {opacity: 1;}
.edge:hover path { stroke: red; }
.edge:hover polygon { stroke: red; fill: red; }
]]></style>

<defs>
  <circle id="rim" cx="0" cy="0" r="7"/>
  <circle id="rim2" cx="0" cy="0" r="3.5"/>
  <g id="zoomPlus">
    <use xlink:href="#rim" fill="#404040"><set attributeName="fill" to="#808080" begin="zoomplus.mouseover" end="zoomplus.mouseout"/></use>
    <path d="M-4,0h8M0,-4v8" fill="none" stroke="white" stroke-width="1.5" pointer-events="none"/>
  </g>
  <g id="zoomMin">
    <use xlink:href="#rim" fill="#404040"><set attributeName="fill" to="#808080" begin="zoomminus.mouseover" end="zoomminus.mouseout"/></use>
    <path d="M-4,0h8" fill="none" stroke="white" stroke-width="1.5" pointer-events="none"/>
  </g>
  <g id="arrowUp" transform="translate(30 24)">
    <use xlink:href="#rim"/>
    <path pointer-events="none" fill="none" stroke="white" stroke-width="1.5" d="M0,-3.0v7 M-2.5,-0.5L0,-3.0L2.5,-0.5"/>
  </g>
  <g id="arrowRight" transform="rotate(90) translate(36 -43)">
    <use xlink:href="#rim"/>
    <path pointer-events="none" fill="none" stroke="white" stroke-width="1.5" d="M0,-3.0v7 M-2.5,-0.5L0,-3.0L2.5,-0.5"/>
  </g>
  <g id="arrowDown" transform="rotate(180) translate(-30 -48)">
    <use xlink:href="#rim"/>
    <path pointer-events="none" fill="none" stroke="white" stroke-width="1.5" d="M0,-3.0v7 M-2.5,-0.5L0,-3.0L2.5,-0.5"/>
  </g>
  <g id="arrowLeft" transform="rotate(270) translate(-36 17)">
    <use xlink:href="#rim"/>
    <path pointer-events="none" fill="none" stroke="white" stroke-width="1.5" d="M0,-3.0v7 M-2.5,-0.5L0,-3.0L2.5,-0.5"/>
  </g>
  <g id="resetDef">
    <use xlink:href="#rim2" fill="#404040"><set attributeName="fill" to="#808080" begin="reset.mouseover" end="reset.mouseout"/></use>
  </g>
</defs>
<script type="application/ecmascript">
var viewWidth = 1247;
var viewHeight = 566;
var sectionId = 'dynsection-0';
</script>
<script type="application/ecmascript" xlink:href="svg.min.js"/>
<svg id="graph" class="graph">
<g id="viewport">
<title>src/Objects/IPlugin.hpp</title>
<!-- Node1 -->
<g id="Node000001" class="node">
<title>Node1</title>
<g id="a_Node000001"><a xlink:title=" ">
<polygon fill="#999999" stroke="#666666" points="527.5,-558 399.5,-558 399.5,-539 527.5,-539 527.5,-558"/>
<text text-anchor="middle" x="463.5" y="-546" font-family="Helvetica,sans-Serif" font-size="10.00">src/Objects/IPlugin.hpp</text>
</a>
</g>
</g>
<!-- Node2 -->
<g id="Node000002" class="node">
<title>Node2</title>
<g id="a_Node000002"><a xlink:title=" ">
<polygon fill="#e0e0e0" stroke="#999999" points="65,-497.5 0,-497.5 0,-478.5 65,-478.5 65,-497.5"/>
<text text-anchor="middle" x="32.5" y="-485.5" font-family="Helvetica,sans-Serif" font-size="10.00">functional</text>
</a>
</g>
</g>
<!-- Node1&#45;&gt;Node2 -->
<g id="edge1_Node000001_Node000002" class="edge">
<title>Node1&#45;&gt;Node2</title>
<g id="a_edge1_Node000001_Node000002"><a xlink:title=" ">
<path fill="none" stroke="#63b8ff" d="M399.3,-544.42C321.42,-539.71 186.52,-528.43 73.5,-503 70.51,-502.33 67.44,-501.52 64.39,-500.63"/>
<polygon fill="#63b8ff" stroke="#63b8ff" points="65.4,-497.27 54.81,-497.59 63.28,-503.95 65.4,-497.27"/>
</a>
</g>
</g>
<!-- Node3 -->
<g id="Node000003" class="node">
<title>Node3</title>
<g id="a_Node000003"><a xlink:title=" ">
<polygon fill="#e0e0e0" stroke="#999999" points="134,-497.5 83,-497.5 83,-478.5 134,-478.5 134,-497.5"/>
<text text-anchor="middle" x="108.5" y="-485.5" font-family="Helvetica,sans-Serif" font-size="10.00">variant</text>
</a>
</g>
</g>
<!-- Node1&#45;&gt;Node3 -->
<g id="edge2_Node000001_Node000003" class="edge">
<title>Node1&#45;&gt;Node3</title>
<g id="a_edge2_Node000001_Node000003"><a xlink:title=" ">
<path fill="none" stroke="#63b8ff" d="M399.21,-543.39C333.71,-538.08 229.67,-526.58 142.5,-503 140.56,-502.47 138.58,-501.87 136.6,-501.2"/>
<polygon fill="#63b8ff" stroke="#63b8ff" points="137.5,-497.8 126.91,-497.57 135.05,-504.36 137.5,-497.8"/>
</a>
</g>
</g>
<!-- Node4 -->
<g id="Node000004" class="node">
<title>Node4</title>
<g id="a_Node000004"><a xlink:href="RaytracerException_8hpp.html" target="_top" xlink:title=" ">
<polygon fill="white" stroke="#666666" points="329,-503 152,-503 152,-473 329,-473 329,-503"/>
<text text-anchor="start" x="160" y="-491" font-family="Helvetica,sans-Serif" font-size="10.00">../Exceptions/RaytracerException</text>
<text text-anchor="middle" x="240.5" y="-480" font-family="Helvetica,sans-Serif" font-size="10.00">/RaytracerException.hpp</text>
</a>
</g>
</g>
<!-- Node1&#45;&gt;Node4 -->
<g id="edge3_Node000001_Node000004" class="edge">
<title>Node1&#45;&gt;Node4</title>
<g id="a_edge3_Node000001_Node000004"><a xlink:title=" ">
<path fill="none" stroke="#63b8ff" d="M431.07,-538.99C397.86,-530.28 345.36,-516.51 303.86,-505.62"/>
<polygon fill="#63b8ff" stroke="#63b8ff" points="304.67,-502.22 294.11,-503.06 302.9,-508.99 304.67,-502.22"/>
</a>
</g>
</g>
<!-- Node9 -->
<g id="Node000009" class="node">
<title>Node9</title>
<g id="a_Node000009"><a xlink:title=" ">
<polygon fill="#e0e0e0" stroke="#999999" points="484,-497.5 347,-497.5 347,-478.5 484,-478.5 484,-497.5"/>
<text text-anchor="middle" x="415.5" y="-485.5" font-family="Helvetica,sans-Serif" font-size="10.00">Abstracts/AInterface.hpp</text>
</a>
</g>
</g>
<!-- Node1&#45;&gt;Node9 -->
<g id="edge8_Node000001_Node000009" class="edge">
<title>Node1&#45;&gt;Node9</title>
<g id="a_edge8_Node000001_Node000009"><a xlink:title=" ">
<path fill="none" stroke="#63b8ff" d="M456.42,-538.87C449.26,-530.14 438.01,-516.43 429.11,-505.59"/>
<polygon fill="#63b8ff" stroke="#63b8ff" points="431.66,-503.18 422.61,-497.67 426.25,-507.62 431.66,-503.18"/>
</a>
</g>
</g>
<!-- Node10 -->
<g id="Node000010" class="node">
<title>Node10</title>
<g id="a_Node000010"><a xlink:href="APrimitive_8hpp.html" target="_top" xlink:title=" ">
<polygon fill="white" stroke="#666666" points="656.5,-503 540.5,-503 540.5,-473 656.5,-473 656.5,-503"/>
<text text-anchor="start" x="548.5" y="-491" font-family="Helvetica,sans-Serif" font-size="10.00">Abstracts/APrimitive</text>
<text text-anchor="middle" x="598.5" y="-480" font-family="Helvetica,sans-Serif" font-size="10.00">/APrimitive.hpp</text>
</a>
</g>
</g>
<!-- Node1&#45;&gt;Node10 -->
<g id="edge9_Node000001_Node000010" class="edge">
<title>Node1&#45;&gt;Node10</title>
<g id="a_edge9_Node000001_Node000010"><a xlink:title=" ">
<path fill="none" stroke="#63b8ff" d="M483.13,-538.99C502.3,-530.68 532.1,-517.78 556.6,-507.16"/>
<polygon fill="#63b8ff" stroke="#63b8ff" points="558.26,-510.25 566.04,-503.06 555.48,-503.83 558.26,-510.25"/>
</a>
</g>
</g>
<!-- Node11 -->
<g id="Node000011" class="node">
<title>Node11</title>
<g id="a_Node000011"><a xlink:href="IMaterial_8hpp.html" target="_top" xlink:title=" ">
<polygon fill="white" stroke="#666666" points="719.5,-437 629.5,-437 629.5,-418 719.5,-418 719.5,-437"/>
<text text-anchor="middle" x="674.5" y="-425" font-family="Helvetica,sans-Serif" font-size="10.00">../IMaterial.hpp</text>
</a>
</g>
</g>
<!-- Node1&#45;&gt;Node11 -->
<g id="edge44_Node000001_Node000011" class="edge">
<title>Node1&#45;&gt;Node11</title>
<g id="a_edge44_Node000001_Node000011"><a xlink:title=" ">
<path fill="none" stroke="#63b8ff" d="M527.6,-541.41C579.61,-535.07 647.19,-523.17 665.5,-503 679.02,-488.11 679.51,-464.09 677.76,-447.36"/>
<polygon fill="#63b8ff" stroke="#63b8ff" points="681.19,-446.57 676.33,-437.15 674.25,-447.54 681.19,-446.57"/>
</a>
</g>
</g>
<!-- Node18 -->
<g id="Node000018" class="node">
<title>Node18</title>
<g id="a_Node000018"><a xlink:href="ILight_8hpp.html" target="_top" xlink:title=" ">
<polygon fill="white" stroke="#666666" points="729,-382 664,-382 664,-363 729,-363 729,-382"/>
<text text-anchor="middle" x="696.5" y="-370" font-family="Helvetica,sans-Serif" font-size="10.00">ILight.hpp</text>
</a>
</g>
</g>
<!-- Node1&#45;&gt;Node18 -->
<g id="edge43_Node000001_Node000018" class="edge">
<title>Node1&#45;&gt;Node18</title>
<g id="a_edge43_Node000001_Node000018"><a xlink:title=" ">
<path fill="none" stroke="#63b8ff" d="M527.58,-540.24C583.73,-532.88 660.2,-520.15 685.5,-503 720.55,-479.25 741.48,-458.3 728.5,-418 725.16,-407.62 718.4,-397.62 711.95,-389.74"/>
<polygon fill="#63b8ff" stroke="#63b8ff" points="714.47,-387.31 705.25,-382.1 709.21,-391.92 714.47,-387.31"/>
</a>
</g>
</g>
<!-- Node21 -->
<g id="Node000021" class="node">
<title>Node21</title>
<g id="a_Node000021"><a xlink:href="ARenderer_8hpp.html" target="_top" xlink:title=" ">
<polygon fill="white" stroke="#666666" points="560,-195 415,-195 415,-165 560,-165 560,-195"/>
<text text-anchor="start" x="423" y="-183" font-family="Helvetica,sans-Serif" font-size="10.00">../../../Objects/Abstracts</text>
<text text-anchor="middle" x="487.5" y="-172" font-family="Helvetica,sans-Serif" font-size="10.00">/ARenderer/ARenderer.hpp</text>
</a>
</g>
</g>
<!-- Node1&#45;&gt;Node21 -->
<g id="edge42_Node000001_Node000021" class="edge">
<title>Node1&#45;&gt;Node21</title>
<g id="a_edge42_Node000001_Node000021"><a xlink:title=" ">
<path fill="none" stroke="#63b8ff" d="M470.38,-538.78C476.91,-530.14 486.56,-516.3 492.5,-503 506.48,-471.69 512.5,-462.78 512.5,-428.5 512.5,-428.5 512.5,-428.5 512.5,-311 512.5,-273.43 502.31,-230.83 494.94,-204.95"/>
<polygon fill="#63b8ff" stroke="#63b8ff" points="498.27,-203.86 492.09,-195.26 491.55,-205.84 498.27,-203.86"/>
</a>
</g>
</g>
<!-- Node5 -->
<g id="Node000005" class="node">
<title>Node5</title>
<g id="a_Node000005"><a xlink:title=" ">
<polygon fill="#e0e0e0" stroke="#999999" points="157,-437 92,-437 92,-418 157,-418 157,-437"/>
<text text-anchor="middle" x="124.5" y="-425" font-family="Helvetica,sans-Serif" font-size="10.00">exception</text>
</a>
</g>
</g>
<!-- Node4&#45;&gt;Node5 -->
<g id="edge4_Node000004_Node000005" class="edge">
<title>Node4&#45;&gt;Node5</title>
<g id="a_edge4_Node000004_Node000005"><a xlink:title=" ">
<path fill="none" stroke="#63b8ff" d="M212.72,-472.99C193.88,-463.49 169.15,-451.02 150.66,-441.69"/>
<polygon fill="#63b8ff" stroke="#63b8ff" points="152.14,-438.52 141.63,-437.14 148.98,-444.77 152.14,-438.52"/>
</a>
</g>
</g>
<!-- Node6 -->
<g id="Node000006" class="node">
<title>Node6</title>
<g id="a_Node000006"><a xlink:title=" ">
<polygon fill="#e0e0e0" stroke="#999999" points="235.5,-437 175.5,-437 175.5,-418 235.5,-418 235.5,-437"/>
<text text-anchor="middle" x="205.5" y="-425" font-family="Helvetica,sans-Serif" font-size="10.00">iostream</text>
</a>
</g>
</g>
<!-- Node4&#45;&gt;Node6 -->
<g id="edge5_Node000004_Node000006" class="edge">
<title>Node4&#45;&gt;Node6</title>
<g id="a_edge5_Node000004_Node000006"><a xlink:title=" ">
<path fill="none" stroke="#63b8ff" d="M232.03,-472.84C227.21,-464.78 221.13,-454.62 216,-446.06"/>
<polygon fill="#63b8ff" stroke="#63b8ff" points="218.88,-444.05 210.74,-437.27 212.88,-447.64 218.88,-444.05"/>
</a>
</g>
</g>
<!-- Node7 -->
<g id="Node000007" class="node">
<title>Node7</title>
<g id="a_Node000007"><a xlink:title=" ">
<polygon fill="#e0e0e0" stroke="#999999" points="297.5,-437 253.5,-437 253.5,-418 297.5,-418 297.5,-437"/>
<text text-anchor="middle" x="275.5" y="-425" font-family="Helvetica,sans-Serif" font-size="10.00">string</text>
</a>
</g>
</g>
<!-- Node4&#45;&gt;Node7 -->
<g id="edge6_Node000004_Node000007" class="edge">
<title>Node4&#45;&gt;Node7</title>
<g id="a_edge6_Node000004_Node000007"><a xlink:title=" ">
<path fill="none" stroke="#63b8ff" d="M248.97,-472.84C253.79,-464.78 259.87,-454.62 265,-446.06"/>
<polygon fill="#63b8ff" stroke="#63b8ff" points="268.12,-447.64 270.26,-437.27 262.12,-444.05 268.12,-447.64"/>
</a>
</g>
</g>
<!-- Node8 -->
<g id="Node000008" class="node">
<title>Node8</title>
<g id="a_Node000008"><a xlink:title=" ">
<polygon fill="#e0e0e0" stroke="#999999" points="409,-437 316,-437 316,-418 409,-418 409,-437"/>
<text text-anchor="middle" x="362.5" y="-425" font-family="Helvetica,sans-Serif" font-size="10.00">source_location</text>
</a>
</g>
</g>
<!-- Node4&#45;&gt;Node8 -->
<g id="edge7_Node000004_Node000008" class="edge">
<title>Node4&#45;&gt;Node8</title>
<g id="a_edge7_Node000004_Node000008"><a xlink:title=" ">
<path fill="none" stroke="#63b8ff" d="M269.72,-472.99C289.62,-463.45 315.78,-450.9 335.25,-441.57"/>
<polygon fill="#63b8ff" stroke="#63b8ff" points="336.98,-444.62 344.48,-437.14 333.95,-438.31 336.98,-444.62"/>
</a>
</g>
</g>
<!-- Node10&#45;&gt;Node11 -->
<g id="edge10_Node000010_Node000011" class="edge">
<title>Node10&#45;&gt;Node11</title>
<g id="a_edge10_Node000010_Node000011"><a xlink:title=" ">
<path fill="none" stroke="#63b8ff" d="M616.9,-472.84C628.38,-464 643.15,-452.63 654.86,-443.62"/>
<polygon fill="#63b8ff" stroke="#63b8ff" points="657.32,-446.14 663.11,-437.27 653.05,-440.59 657.32,-446.14"/>
</a>
</g>
</g>
<!-- Node12 -->
<g id="Node000012" class="node">
<title>Node12</title>
<g id="a_Node000012"><a xlink:href="HitRecord_8hpp.html" target="_top" xlink:title=" ">
<polygon fill="white" stroke="#666666" points="1238.5,-195 1104.5,-195 1104.5,-165 1238.5,-165 1238.5,-195"/>
<text text-anchor="start" x="1112.5" y="-183" font-family="Helvetica,sans-Serif" font-size="10.00">../../Geometry/HitRecord</text>
<text text-anchor="middle" x="1171.5" y="-172" font-family="Helvetica,sans-Serif" font-size="10.00">/HitRecord.hpp</text>
</a>
</g>
</g>
<!-- Node11&#45;&gt;Node12 -->
<g id="edge11_Node000011_Node000012" class="edge">
<title>Node11&#45;&gt;Node12</title>
<g id="a_edge11_Node000011_Node000012"><a xlink:title=" ">
<path fill="none" stroke="#63b8ff" d="M688.94,-418C736.22,-394.05 888.27,-323.71 1012.5,-261 1052.67,-240.72 1098.19,-216.23 1130.34,-199.73"/>
<polygon fill="#63b8ff" stroke="#63b8ff" points="1132.14,-202.74 1139.46,-195.08 1128.96,-196.5 1132.14,-202.74"/>
</a>
</g>
</g>
<!-- Node16 -->
<g id="Node000016" class="node">
<title>Node16</title>
<g id="a_Node000016"><a xlink:href="Color_8hpp.html" target="_top" xlink:title=" ">
<polygon fill="white" stroke="#666666" points="439.5,-129 333.5,-129 333.5,-110 439.5,-110 439.5,-129"/>
<text text-anchor="middle" x="386.5" y="-117" font-family="Helvetica,sans-Serif" font-size="10.00">../../Utils/Color.hpp</text>
</a>
</g>
</g>
<!-- Node11&#45;&gt;Node16 -->
<g id="edge17_Node000011_Node000016" class="edge">
<title>Node11&#45;&gt;Node16</title>
<g id="a_edge17_Node000011_Node000016"><a xlink:title=" ">
<path fill="none" stroke="#63b8ff" d="M629.17,-420.4C539.6,-407.06 348.5,-371.73 348.5,-313 348.5,-313 348.5,-313 348.5,-245 348.5,-205.63 366.1,-162.18 377.34,-138.45"/>
<polygon fill="#63b8ff" stroke="#63b8ff" points="380.58,-139.8 381.84,-129.28 374.29,-136.71 380.58,-139.8"/>
</a>
</g>
</g>
<!-- Node11&#45;&gt;Node18 -->
<g id="edge19_Node000011_Node000018" class="edge">
<title>Node11&#45;&gt;Node18</title>
<g id="a_edge19_Node000011_Node000018"><a xlink:title=" ">
<path fill="none" stroke="#63b8ff" d="M678.13,-417.75C681.08,-410.65 685.33,-400.4 689.01,-391.56"/>
<polygon fill="#63b8ff" stroke="#63b8ff" points="692.33,-392.67 692.93,-382.09 685.87,-389.98 692.33,-392.67"/>
</a>
</g>
</g>
<!-- Node22 -->
<g id="Node000022" class="node">
<title>Node22</title>
<g id="a_Node000022"><a xlink:title=" ">
<polygon fill="#e0e0e0" stroke="#999999" points="612,-129 565,-129 565,-110 612,-110 612,-129"/>
<text text-anchor="middle" x="588.5" y="-117" font-family="Helvetica,sans-Serif" font-size="10.00">vector</text>
</a>
</g>
</g>
<!-- Node11&#45;&gt;Node22 -->
<g id="edge41_Node000011_Node000022" class="edge">
<title>Node11&#45;&gt;Node22</title>
<g id="a_edge41_Node000011_Node000022"><a xlink:title=" ">
<path fill="none" stroke="#63b8ff" d="M668.64,-417.89C657.54,-401.18 633.52,-362.81 621.5,-327 599.18,-260.54 591.76,-176.85 589.46,-139.74"/>
<polygon fill="#63b8ff" stroke="#63b8ff" points="592.93,-139.19 588.88,-129.4 585.94,-139.58 592.93,-139.19"/>
</a>
</g>
</g>
<!-- Node12&#45;&gt;Node11 -->
<g id="edge16_Node000012_Node000011" class="edge">
<title>Node12&#45;&gt;Node11</title>
<g id="a_edge16_Node000012_Node000011"><a xlink:title=" ">
<path fill="none" stroke="#63b8ff" d="M1152.17,-195.23C1124.93,-211.51 1074.5,-238.79 1030.5,-261 912.58,-320.53 769.59,-386.93 706.62,-414"/>
<polygon fill="#63b8ff" stroke="#63b8ff" points="705.05,-410.86 697.21,-418 707.79,-417.31 705.05,-410.86"/>
</a>
</g>
</g>
<!-- Node13 -->
<g id="Node000013" class="node">
<title>Node13</title>
<g id="a_Node000013"><a xlink:href="Point3D_8hpp.html" target="_top" xlink:title=" ">
<polygon fill="white" stroke="#666666" points="1063.5,-129 937.5,-129 937.5,-110 1063.5,-110 1063.5,-129"/>
<text text-anchor="middle" x="1000.5" y="-117" font-family="Helvetica,sans-Serif" font-size="10.00">../Point3D/Point3D.hpp</text>
</a>
</g>
</g>
<!-- Node12&#45;&gt;Node13 -->
<g id="edge12_Node000012_Node000013" class="edge">
<title>Node12&#45;&gt;Node13</title>
<g id="a_edge12_Node000012_Node000013"><a xlink:title=" ">
<path fill="none" stroke="#63b8ff" d="M1130.54,-164.99C1101.5,-155.05 1062.95,-141.86 1035.38,-132.43"/>
<polygon fill="#63b8ff" stroke="#63b8ff" points="1036.35,-129.06 1025.75,-129.14 1034.08,-135.69 1036.35,-129.06"/>
</a>
</g>
</g>
<!-- Node14 -->
<g id="Node000014" class="node">
<title>Node14</title>
<g id="a_Node000014"><a xlink:href="Vector3D_8hpp.html" target="_top" xlink:title=" ">
<polygon fill="white" stroke="#666666" points="978.5,-74 840.5,-74 840.5,-55 978.5,-55 978.5,-74"/>
<text text-anchor="middle" x="909.5" y="-62" font-family="Helvetica,sans-Serif" font-size="10.00">../Vector3D/Vector3D.hpp</text>
</a>
</g>
</g>
<!-- Node12&#45;&gt;Node14 -->
<g id="edge15_Node000012_Node000014" class="edge">
<title>Node12&#45;&gt;Node14</title>
<g id="a_edge15_Node000012_Node000014"><a xlink:title=" ">
<path fill="none" stroke="#63b8ff" d="M1155.08,-164.88C1136.28,-149.37 1104,-124.74 1072.5,-110 1039.17,-94.41 999.38,-83.41 967.45,-76.25"/>
<polygon fill="#63b8ff" stroke="#63b8ff" points="967.89,-72.77 957.38,-74.06 966.4,-79.61 967.89,-72.77"/>
</a>
</g>
</g>
<!-- Node13&#45;&gt;Node14 -->
<g id="edge13_Node000013_Node000014" class="edge">
<title>Node13&#45;&gt;Node14</title>
<g id="a_edge13_Node000013_Node000014"><a xlink:title=" ">
<path fill="none" stroke="#63b8ff" d="M985.88,-109.98C971.64,-101.69 949.75,-88.94 933.05,-79.22"/>
<polygon fill="#63b8ff" stroke="#63b8ff" points="934.79,-76.18 924.39,-74.17 931.27,-82.23 934.79,-76.18"/>
</a>
</g>
</g>
<!-- Node15 -->
<g id="Node000015" class="node">
<title>Node15</title>
<g id="a_Node000015"><a xlink:title=" ">
<polygon fill="#e0e0e0" stroke="#999999" points="935,-19 884,-19 884,0 935,0 935,-19"/>
<text text-anchor="middle" x="909.5" y="-7" font-family="Helvetica,sans-Serif" font-size="10.00">math.h</text>
</a>
</g>
</g>
<!-- Node14&#45;&gt;Node15 -->
<g id="edge14_Node000014_Node000015" class="edge">
<title>Node14&#45;&gt;Node15</title>
<g id="a_edge14_Node000014_Node000015"><a xlink:title=" ">
<path fill="none" stroke="#63b8ff" d="M909.5,-54.75C909.5,-47.8 909.5,-37.85 909.5,-29.13"/>
<polygon fill="#63b8ff" stroke="#63b8ff" points="913,-29.09 909.5,-19.09 906,-29.09 913,-29.09"/>
</a>
</g>
</g>
<!-- Node17 -->
<g id="Node000017" class="node">
<title>Node17</title>
<g id="a_Node000017"><a xlink:title=" ">
<polygon fill="#e0e0e0" stroke="#999999" points="418.5,-74 354.5,-74 354.5,-55 418.5,-55 418.5,-74"/>
<text text-anchor="middle" x="386.5" y="-62" font-family="Helvetica,sans-Serif" font-size="10.00">algorithm</text>
</a>
</g>
</g>
<!-- Node16&#45;&gt;Node17 -->
<g id="edge18_Node000016_Node000017" class="edge">
<title>Node16&#45;&gt;Node17</title>
<g id="a_edge18_Node000016_Node000017"><a xlink:title=" ">
<path fill="none" stroke="#63b8ff" d="M386.5,-109.75C386.5,-102.8 386.5,-92.85 386.5,-84.13"/>
<polygon fill="#63b8ff" stroke="#63b8ff" points="390,-84.09 386.5,-74.09 383,-84.09 390,-84.09"/>
</a>
</g>
</g>
<!-- Node18&#45;&gt;Node12 -->
<g id="edge20_Node000018_Node000012" class="edge">
<title>Node18&#45;&gt;Node12</title>
<g id="a_edge20_Node000018_Node000012"><a xlink:title=" ">
<path fill="none" stroke="#63b8ff" d="M717.83,-362.94C790.25,-333.9 1027.67,-238.68 1127.09,-198.81"/>
<polygon fill="#63b8ff" stroke="#63b8ff" points="1128.57,-201.99 1136.55,-195.02 1125.97,-195.49 1128.57,-201.99"/>
</a>
</g>
</g>
<!-- Node18&#45;&gt;Node16 -->
<g id="edge21_Node000018_Node000016" class="edge">
<title>Node18&#45;&gt;Node16</title>
<g id="a_edge21_Node000018_Node000016"><a xlink:title=" ">
<path fill="none" stroke="#63b8ff" d="M669.16,-362.92C611.07,-343.23 474.99,-289.12 405.5,-195 393.51,-178.75 389.05,-155.69 387.42,-139.54"/>
<polygon fill="#63b8ff" stroke="#63b8ff" points="390.88,-138.92 386.65,-129.2 383.9,-139.43 390.88,-138.92"/>
</a>
</g>
</g>
<!-- Node19 -->
<g id="Node000019" class="node">
<title>Node19</title>
<g id="a_Node000019"><a xlink:href="Scene_8hpp.html" target="_top" xlink:title=" ">
<polygon fill="white" stroke="#666666" points="763,-327 630,-327 630,-297 763,-297 763,-327"/>
<text text-anchor="start" x="638" y="-315" font-family="Helvetica,sans-Serif" font-size="10.00">../../SceneSystem/Scene</text>
<text text-anchor="middle" x="696.5" y="-304" font-family="Helvetica,sans-Serif" font-size="10.00">/Scene.hpp</text>
</a>
</g>
</g>
<!-- Node18&#45;&gt;Node19 -->
<g id="edge22_Node000018_Node000019" class="edge">
<title>Node18&#45;&gt;Node19</title>
<g id="a_edge22_Node000018_Node000019"><a xlink:title=" ">
<path fill="none" stroke="#63b8ff" d="M691.54,-362.87C690.08,-356.11 689.51,-346.35 689.84,-337.26"/>
<polygon fill="#63b8ff" stroke="#63b8ff" points="693.34,-337.36 690.63,-327.11 686.36,-336.81 693.34,-337.36"/>
</a>
</g>
</g>
<!-- Node19&#45;&gt;Node10 -->
<g id="edge37_Node000019_Node000010" class="edge">
<title>Node19&#45;&gt;Node10</title>
<g id="a_edge37_Node000019_Node000010"><a xlink:title=" ">
<path fill="none" stroke="#63b8ff" d="M683.5,-327.17C666.58,-346.36 637.19,-382.33 620.5,-418 613.77,-432.38 608.33,-449.36 604.54,-462.87"/>
<polygon fill="#63b8ff" stroke="#63b8ff" points="601.07,-462.29 601.86,-472.85 607.83,-464.1 601.07,-462.29"/>
</a>
</g>
</g>
<!-- Node19&#45;&gt;Node18 -->
<g id="edge38_Node000019_Node000018" class="edge">
<title>Node19&#45;&gt;Node18</title>
<g id="a_edge38_Node000019_Node000018"><a xlink:title=" ">
<path fill="none" stroke="#63b8ff" d="M702.37,-327.11C703.36,-334.87 703.51,-344.58 702.83,-352.93"/>
<polygon fill="#63b8ff" stroke="#63b8ff" points="699.36,-352.48 701.46,-362.87 706.3,-353.44 699.36,-352.48"/>
</a>
</g>
</g>
<!-- Node20 -->
<g id="Node000020" class="node">
<title>Node20</title>
<g id="a_Node000020"><a xlink:href="Camera_8hpp.html" target="_top" xlink:title=" ">
<polygon fill="white" stroke="#666666" points="889.5,-261 749.5,-261 749.5,-231 889.5,-231 889.5,-261"/>
<text text-anchor="start" x="757.5" y="-249" font-family="Helvetica,sans-Serif" font-size="10.00">../../CorePlugin/Renderers</text>
<text text-anchor="middle" x="819.5" y="-238" font-family="Helvetica,sans-Serif" font-size="10.00">/Camera/Camera.hpp</text>
</a>
</g>
</g>
<!-- Node19&#45;&gt;Node20 -->
<g id="edge23_Node000019_Node000020" class="edge">
<title>Node19&#45;&gt;Node20</title>
<g id="a_edge23_Node000019_Node000020"><a xlink:title=" ">
<path fill="none" stroke="#63b8ff" d="M723.49,-296.95C741.12,-287.78 764.33,-275.71 783.52,-265.72"/>
<polygon fill="#63b8ff" stroke="#63b8ff" points="785.31,-268.73 792.57,-261.01 782.08,-262.52 785.31,-268.73"/>
</a>
</g>
</g>
<!-- Node19&#45;&gt;Node22 -->
<g id="edge39_Node000019_Node000022" class="edge">
<title>Node19&#45;&gt;Node22</title>
<g id="a_edge39_Node000019_Node000022"><a xlink:title=" ">
<path fill="none" stroke="#63b8ff" d="M684.44,-296.64C676.56,-286.92 666.33,-273.59 658.5,-261 632.34,-218.91 608.02,-165.71 596.13,-138.44"/>
<polygon fill="#63b8ff" stroke="#63b8ff" points="599.25,-136.83 592.08,-129.03 592.82,-139.6 599.25,-136.83"/>
</a>
</g>
</g>
<!-- Node26 -->
<g id="Node000026" class="node">
<title>Node26</title>
<g id="a_Node000026"><a xlink:title=" ">
<polygon fill="#e0e0e0" stroke="#999999" points="725.5,-255.5 667.5,-255.5 667.5,-236.5 725.5,-236.5 725.5,-255.5"/>
<text text-anchor="middle" x="696.5" y="-243.5" font-family="Helvetica,sans-Serif" font-size="10.00">memory</text>
</a>
</g>
</g>
<!-- Node19&#45;&gt;Node26 -->
<g id="edge40_Node000019_Node000026" class="edge">
<title>Node19&#45;&gt;Node26</title>
<g id="a_edge40_Node000019_Node000026"><a xlink:title=" ">
<path fill="none" stroke="#63b8ff" d="M696.5,-296.8C696.5,-287.7 696.5,-275.79 696.5,-265.9"/>
<polygon fill="#63b8ff" stroke="#63b8ff" points="700,-265.84 696.5,-255.84 693,-265.84 700,-265.84"/>
</a>
</g>
</g>
<!-- Node20&#45;&gt;Node12 -->
<g id="edge35_Node000020_Node000012" class="edge">
<title>Node20&#45;&gt;Node12</title>
<g id="a_edge35_Node000020_Node000012"><a xlink:title=" ">
<path fill="none" stroke="#63b8ff" d="M889.89,-232.2C948.99,-221.46 1033.31,-206.12 1094.27,-195.04"/>
<polygon fill="#63b8ff" stroke="#63b8ff" points="1095.01,-198.46 1104.22,-193.23 1093.76,-191.58 1095.01,-198.46"/>
</a>
</g>
</g>
<!-- Node20&#45;&gt;Node13 -->
<g id="edge27_Node000020_Node000013" class="edge">
<title>Node20&#45;&gt;Node13</title>
<g id="a_edge27_Node000020_Node000013"><a xlink:title=" ">
<path fill="none" stroke="#63b8ff" d="M889.69,-234.81C955.98,-224.47 1046.82,-208.15 1057.5,-195 1065.9,-184.65 1063.35,-176.98 1057.5,-165 1051.2,-152.09 1039.15,-141.83 1027.74,-134.43"/>
<polygon fill="#63b8ff" stroke="#63b8ff" points="1029.23,-131.25 1018.85,-129.12 1025.64,-137.25 1029.23,-131.25"/>
</a>
</g>
</g>
<!-- Node20&#45;&gt;Node14 -->
<g id="edge28_Node000020_Node000014" class="edge">
<title>Node20&#45;&gt;Node14</title>
<g id="a_edge28_Node000020_Node000014"><a xlink:title=" ">
<path fill="none" stroke="#63b8ff" d="M749.97,-230.92C706.42,-218.63 662.25,-197.58 683.5,-165 717.33,-113.14 784.93,-88.12 837.43,-76.17"/>
<polygon fill="#63b8ff" stroke="#63b8ff" points="838.34,-79.55 847.37,-74.02 836.86,-72.71 838.34,-79.55"/>
</a>
</g>
</g>
<!-- Node20&#45;&gt;Node21 -->
<g id="edge24_Node000020_Node000021" class="edge">
<title>Node20&#45;&gt;Node21</title>
<g id="a_edge24_Node000020_Node000021"><a xlink:title=" ">
<path fill="none" stroke="#63b8ff" d="M749.5,-231.51C697.2,-221.42 625.54,-207.61 570.38,-196.98"/>
<polygon fill="#63b8ff" stroke="#63b8ff" points="570.76,-193.49 560.28,-195.03 569.44,-200.36 570.76,-193.49"/>
</a>
</g>
</g>
<!-- Node23 -->
<g id="Node000023" class="node">
<title>Node23</title>
<g id="a_Node000023"><a xlink:href="Rectangle3D_8hpp.html" target="_top" xlink:title=" ">
<polygon fill="white" stroke="#666666" points="1048.5,-195 898.5,-195 898.5,-165 1048.5,-165 1048.5,-195"/>
<text text-anchor="start" x="906.5" y="-183" font-family="Helvetica,sans-Serif" font-size="10.00">../../../Geometry/Rectangle3</text>
<text text-anchor="middle" x="973.5" y="-172" font-family="Helvetica,sans-Serif" font-size="10.00">D/Rectangle3D.hpp</text>
</a>
</g>
</g>
<!-- Node20&#45;&gt;Node23 -->
<g id="edge29_Node000020_Node000023" class="edge">
<title>Node20&#45;&gt;Node23</title>
<g id="a_edge29_Node000020_Node000023"><a xlink:title=" ">
<path fill="none" stroke="#63b8ff" d="M853.3,-230.95C875.96,-221.53 906.02,-209.04 930.4,-198.91"/>
<polygon fill="#63b8ff" stroke="#63b8ff" points="931.89,-202.08 939.78,-195.01 929.21,-195.62 931.89,-202.08"/>
</a>
</g>
</g>
<!-- Node24 -->
<g id="Node000024" class="node">
<title>Node24</title>
<g id="a_Node000024"><a xlink:href="Ray_8hpp.html" target="_top" xlink:title=" ">
<polygon fill="white" stroke="#666666" points="880.5,-195 766.5,-195 766.5,-165 880.5,-165 880.5,-195"/>
<text text-anchor="start" x="774.5" y="-183" font-family="Helvetica,sans-Serif" font-size="10.00">../../../Geometry/Ray</text>
<text text-anchor="middle" x="823.5" y="-172" font-family="Helvetica,sans-Serif" font-size="10.00">/Ray.hpp</text>
</a>
</g>
</g>
<!-- Node20&#45;&gt;Node24 -->
<g id="edge32_Node000020_Node000024" class="edge">
<title>Node20&#45;&gt;Node24</title>
<g id="a_edge32_Node000020_Node000024"><a xlink:title=" ">
<path fill="none" stroke="#63b8ff" d="M820.39,-230.8C820.85,-223.34 821.44,-213.99 821.97,-205.41"/>
<polygon fill="#63b8ff" stroke="#63b8ff" points="825.48,-205.36 822.61,-195.16 818.5,-204.93 825.48,-205.36"/>
</a>
</g>
</g>
<!-- Node25 -->
<g id="Node000025" class="node">
<title>Node25</title>
<g id="a_Node000025"><a xlink:title=" ">
<polygon fill="#e0e0e0" stroke="#999999" points="748.5,-189.5 692.5,-189.5 692.5,-170.5 748.5,-170.5 748.5,-189.5"/>
<text text-anchor="middle" x="720.5" y="-177.5" font-family="Helvetica,sans-Serif" font-size="10.00">optional</text>
</a>
</g>
</g>
<!-- Node20&#45;&gt;Node25 -->
<g id="edge36_Node000020_Node000025" class="edge">
<title>Node20&#45;&gt;Node25</title>
<g id="a_edge36_Node000020_Node000025"><a xlink:title=" ">
<path fill="none" stroke="#63b8ff" d="M797.53,-230.8C781.09,-220.17 758.71,-205.7 742.31,-195.1"/>
<polygon fill="#63b8ff" stroke="#63b8ff" points="744.19,-192.15 733.89,-189.66 740.39,-198.03 744.19,-192.15"/>
</a>
</g>
</g>
<!-- Node21&#45;&gt;Node16 -->
<g id="edge25_Node000021_Node000016" class="edge">
<title>Node21&#45;&gt;Node16</title>
<g id="a_edge25_Node000021_Node000016"><a xlink:title=" ">
<path fill="none" stroke="#63b8ff" d="M463.31,-164.99C447.21,-155.66 426.16,-143.47 410.17,-134.21"/>
<polygon fill="#63b8ff" stroke="#63b8ff" points="411.82,-131.12 401.42,-129.14 408.31,-137.18 411.82,-131.12"/>
</a>
</g>
</g>
<!-- Node21&#45;&gt;Node22 -->
<g id="edge26_Node000021_Node000022" class="edge">
<title>Node21&#45;&gt;Node22</title>
<g id="a_edge26_Node000021_Node000022"><a xlink:title=" ">
<path fill="none" stroke="#63b8ff" d="M511.69,-164.99C527.79,-155.66 548.84,-143.47 564.83,-134.21"/>
<polygon fill="#63b8ff" stroke="#63b8ff" points="566.69,-137.18 573.58,-129.14 563.18,-131.12 566.69,-137.18"/>
</a>
</g>
</g>
<!-- Node23&#45;&gt;Node13 -->
<g id="edge30_Node000023_Node000013" class="edge">
<title>Node23&#45;&gt;Node13</title>
<g id="a_edge30_Node000023_Node000013"><a xlink:title=" ">
<path fill="none" stroke="#63b8ff" d="M980.04,-164.84C983.68,-156.95 988.24,-147.05 992.14,-138.61"/>
<polygon fill="#63b8ff" stroke="#63b8ff" points="995.44,-139.81 996.45,-129.27 989.09,-136.88 995.44,-139.81"/>
</a>
</g>
</g>
<!-- Node23&#45;&gt;Node14 -->
<g id="edge31_Node000023_Node000014" class="edge">
<title>Node23&#45;&gt;Node14</title>
<g id="a_edge31_Node000023_Node000014"><a xlink:title=" ">
<path fill="none" stroke="#63b8ff" d="M957.37,-164.63C947.78,-155.31 936.05,-142.44 928.5,-129 920.65,-115.03 915.72,-97.48 912.86,-84.37"/>
<polygon fill="#63b8ff" stroke="#63b8ff" points="916.22,-83.32 910.85,-74.19 909.35,-84.68 916.22,-83.32"/>
</a>
</g>
</g>
<!-- Node24&#45;&gt;Node13 -->
<g id="edge33_Node000024_Node000013" class="edge">
<title>Node24&#45;&gt;Node13</title>
<g id="a_edge33_Node000024_Node000013"><a xlink:title=" ">
<path fill="none" stroke="#63b8ff" d="M865.9,-164.99C896.18,-154.98 936.45,-141.67 965.03,-132.22"/>
<polygon fill="#63b8ff" stroke="#63b8ff" points="966.22,-135.52 974.62,-129.05 964.03,-128.87 966.22,-135.52"/>
</a>
</g>
</g>
<!-- Node24&#45;&gt;Node14 -->
<g id="edge34_Node000024_Node000014" class="edge">
<title>Node24&#45;&gt;Node14</title>
<g id="a_edge34_Node000024_Node000014"><a xlink:title=" ">
<path fill="none" stroke="#63b8ff" d="M834.39,-164.63C850.28,-143.65 879.76,-104.75 896.68,-82.42"/>
<polygon fill="#63b8ff" stroke="#63b8ff" points="899.64,-84.31 902.89,-74.23 894.06,-80.09 899.64,-84.31"/>
</a>
</g>
</g>
</g>
</svg>

<g id="navigator" transform="translate(0 0)" fill="#404254">
  <rect fill="#f2f5e9" fill-opacity="0.5" stroke="#606060" stroke-width=".5" x="0" y="0" width="60" height="60"/>
  <use id="zoomplus" xlink:href="#zoomPlus" x="17" y="9" onmousedown="handleZoom(evt,'in')"/>
  <use id="zoomminus" xlink:href="#zoomMin" x="42" y="9" onmousedown="handleZoom(evt,'out')"/>
  <use id="reset" xlink:href="#resetDef" x="30" y="36" onmousedown="handleReset()"/>
   <use id="arrowup" xlink:href="#arrowUp" x="0" y="0" onmousedown="handlePan(0,-1)"/>
  <use id="arrowright" xlink:href="#arrowRight" x="0" y="0" onmousedown="handlePan(1,0)"/>
  <use id="arrowdown" xlink:href="#arrowDown" x="0" y="0" onmousedown="handlePan(0,1)"/>
  <use id="arrowleft" xlink:href="#arrowLeft" x="0" y="0" onmousedown="handlePan(-1,0)"/>
</g>
<svg viewBox="0 0 15 15" width="100%" height="30px" preserveAspectRatio="xMaxYMin meet">
 <g id="arrow_out" transform="scale(0.3 0.3)">
  <a xlink:href="IPlugin_8hpp__incl_org.svg" target="_base">
   <rect id="button" ry="5" rx="5" y="6" x="6" height="38" width="38"
        fill="#f2f5e9" fill-opacity="0.5" stroke="#606060" stroke-width="1.0"/>
   <path id="arrow"
     d="M 11.500037,31.436501 C 11.940474,20.09759 22.043105,11.32322 32.158766,21.979434 L 37.068811,17.246167 C 37.068811,17.246167 37.088388,32 37.088388,32 L 22.160133,31.978069 C 22.160133,31.978069 26.997745,27.140456 26.997745,27.140456 C 18.528582,18.264221 13.291696,25.230495 11.500037,31.436501 z"
     style="fill:#404040;"/>
  </a>
 </g>
</svg>

<style type='text/css'>
<![CDATA[
[data-mouse-over-selected='false'] { opacity: 0.7; }
[data-mouse-over-selected='true']  { opacity: 1.0; }
]]>
</style>
<script type="application/ecmascript"><![CDATA[
document.addEventListener('DOMContentLoaded', (event) => {
  highlightEdges();
  highlightAdjacentNodes();
});
]]></script>
</svg>
