<?xml version="1.0" encoding="UTF-8" standalone="no"?>
<!DOCTYPE svg PUBLIC "-//W3C//DTD SVG 1.1//EN"
 "http://www.w3.org/Graphics/SVG/1.1/DTD/svg11.dtd">
<!-- Generated by graphviz version 2.43.0 (0)
 -->
<!-- Title: src/Objects/Interface/IPrimitive.hpp Pages: 1 -->
<!--zoomable 368 -->

<svg id="main" version="1.1" xmlns="http://www.w3.org/2000/svg" xmlns:xlink="http://www.w3.org/1999/xlink" xml:space="preserve" onload="init(evt)">
<style type="text/css"><![CDATA[
.node, .edge {opacity: 0.7;}
.node.selected, .edge.selected {opacity: 1;}
.edge:hover path { stroke: red; }
.edge:hover polygon { stroke: red; fill: red; }
]]></style>

<defs>
  <circle id="rim" cx="0" cy="0" r="7"/>
  <circle id="rim2" cx="0" cy="0" r="3.5"/>
  <g id="zoomPlus">
    <use xlink:href="#rim" fill="#404040"><set attributeName="fill" to="#808080" begin="zoomplus.mouseover" end="zoomplus.mouseout"/></use>
    <path d="M-4,0h8M0,-4v8" fill="none" stroke="white" stroke-width="1.5" pointer-events="none"/>
  </g>
  <g id="zoomMin">
    <use xlink:href="#rim" fill="#404040"><set attributeName="fill" to="#808080" begin="zoomminus.mouseover" end="zoomminus.mouseout"/></use>
    <path d="M-4,0h8" fill="none" stroke="white" stroke-width="1.5" pointer-events="none"/>
  </g>
  <g id="arrowUp" transform="translate(30 24)">
    <use xlink:href="#rim"/>
    <path pointer-events="none" fill="none" stroke="white" stroke-width="1.5" d="M0,-3.0v7 M-2.5,-0.5L0,-3.0L2.5,-0.5"/>
  </g>
  <g id="arrowRight" transform="rotate(90) translate(36 -43)">
    <use xlink:href="#rim"/>
    <path pointer-events="none" fill="none" stroke="white" stroke-width="1.5" d="M0,-3.0v7 M-2.5,-0.5L0,-3.0L2.5,-0.5"/>
  </g>
  <g id="arrowDown" transform="rotate(180) translate(-30 -48)">
    <use xlink:href="#rim"/>
    <path pointer-events="none" fill="none" stroke="white" stroke-width="1.5" d="M0,-3.0v7 M-2.5,-0.5L0,-3.0L2.5,-0.5"/>
  </g>
  <g id="arrowLeft" transform="rotate(270) translate(-36 17)">
    <use xlink:href="#rim"/>
    <path pointer-events="none" fill="none" stroke="white" stroke-width="1.5" d="M0,-3.0v7 M-2.5,-0.5L0,-3.0L2.5,-0.5"/>
  </g>
  <g id="resetDef">
    <use xlink:href="#rim2" fill="#404040"><set attributeName="fill" to="#808080" begin="reset.mouseover" end="reset.mouseout"/></use>
  </g>
</defs>
<script type="application/ecmascript">
var viewWidth = 615;
var viewHeight = 368;
var sectionId = 'dynsection-1';
</script>
<script type="application/ecmascript" xlink:href="svg.min.js"/>
<svg id="graph" class="graph">
<g id="viewport">
<title>src/Objects/Interface/IPrimitive.hpp</title>
<!-- Node1 -->
<g id="Node000001" class="node">
<title>Node1</title>
<g id="a_Node000001"><a xlink:title=" ">
<polygon fill="#999999" stroke="#666666" points="262.5,-360 145.5,-360 145.5,-330 262.5,-330 262.5,-360"/>
<text text-anchor="start" x="153.5" y="-348" font-family="Helvetica,sans-Serif" font-size="10.00">src/Objects/Interface</text>
<text text-anchor="middle" x="204" y="-337" font-family="Helvetica,sans-Serif" font-size="10.00">/IPrimitive.hpp</text>
</a>
</g>
</g>
<!-- Node2 -->
<g id="Node000002" class="node">
<title>Node2</title>
<g id="a_Node000002"><a xlink:href="APrimitive_8hpp.html" target="_top" xlink:title=" ">
<polygon fill="white" stroke="#666666" points="146,-96 0,-96 0,-66 146,-66 146,-96"/>
<text text-anchor="start" x="8" y="-84" font-family="Helvetica,sans-Serif" font-size="10.00">src/Objects/Abstract</text>
<text text-anchor="middle" x="73" y="-73" font-family="Helvetica,sans-Serif" font-size="10.00">/APrimitive/APrimitive.hpp</text>
</a>
</g>
</g>
<!-- Node1&#45;&gt;Node2 -->
<g id="edge1_Node000001_Node000002" class="edge">
<title>Node1&#45;&gt;Node2</title>
<g id="a_edge1_Node000001_Node000002"><a xlink:title=" ">
<path fill="none" stroke="#63b8ff" d="M192.48,-320.96C166.02,-268.04 101.54,-139.08 80.08,-96.16"/>
<polygon fill="#63b8ff" stroke="#63b8ff" points="189.35,-322.53 196.96,-329.91 195.62,-319.4 189.35,-322.53"/>
</a>
</g>
</g>
<!-- Node4 -->
<g id="Node000004" class="node">
<title>Node4</title>
<g id="a_Node000004"><a xlink:href="Plane_8hpp.html" target="_top" xlink:title=" ">
<polygon fill="white" stroke="#666666" points="287.5,-96 164.5,-96 164.5,-66 287.5,-66 287.5,-96"/>
<text text-anchor="start" x="172.5" y="-84" font-family="Helvetica,sans-Serif" font-size="10.00">src/Objects/Primitives</text>
<text text-anchor="middle" x="226" y="-73" font-family="Helvetica,sans-Serif" font-size="10.00">/Plane/Plane.hpp</text>
</a>
</g>
</g>
<!-- Node1&#45;&gt;Node4 -->
<g id="edge3_Node000001_Node000004" class="edge">
<title>Node1&#45;&gt;Node4</title>
<g id="a_edge3_Node000001_Node000004"><a xlink:title=" ">
<path fill="none" stroke="#63b8ff" d="M202.22,-319.96C199.8,-280.4 197.06,-199.26 209,-132 211.21,-119.54 215.98,-105.99 219.9,-96.14"/>
<polygon fill="#63b8ff" stroke="#63b8ff" points="198.72,-320.22 202.87,-329.96 205.71,-319.76 198.72,-320.22"/>
</a>
</g>
</g>
<!-- Node6 -->
<g id="Node000006" class="node">
<title>Node6</title>
<g id="a_Node000006"><a xlink:href="Scene_8hpp.html" target="_top" xlink:title=" ">
<polygon fill="white" stroke="#666666" points="526,-294 394,-294 394,-264 526,-264 526,-294"/>
<text text-anchor="start" x="402" y="-282" font-family="Helvetica,sans-Serif" font-size="10.00">src/SceneSystem/Scene</text>
<text text-anchor="middle" x="460" y="-271" font-family="Helvetica,sans-Serif" font-size="10.00">/Scene.hpp</text>
</a>
</g>
</g>
<!-- Node1&#45;&gt;Node6 -->
<g id="edge5_Node000001_Node000006" class="edge">
<title>Node1&#45;&gt;Node6</title>
<g id="a_edge5_Node000001_Node000006"><a xlink:title=" ">
<path fill="none" stroke="#63b8ff" d="M269.93,-327.52C311.45,-317.14 364.47,-303.88 403.95,-294.01"/>
<polygon fill="#63b8ff" stroke="#63b8ff" points="269.03,-324.13 260.18,-329.95 270.73,-330.92 269.03,-324.13"/>
</a>
</g>
</g>
<!-- Node3 -->
<g id="Node000003" class="node">
<title>Node3</title>
<g id="a_Node000003"><a xlink:href="APrimitive_8cpp.html" target="_top" xlink:title=" ">
<polygon fill="white" stroke="#666666" points="145.5,-30 0.5,-30 0.5,0 145.5,0 145.5,-30"/>
<text text-anchor="start" x="8.5" y="-18" font-family="Helvetica,sans-Serif" font-size="10.00">src/Objects/Abstract</text>
<text text-anchor="middle" x="73" y="-7" font-family="Helvetica,sans-Serif" font-size="10.00">/APrimitive/APrimitive.cpp</text>
</a>
</g>
</g>
<!-- Node2&#45;&gt;Node3 -->
<g id="edge2_Node000002_Node000003" class="edge">
<title>Node2&#45;&gt;Node3</title>
<g id="a_edge2_Node000002_Node000003"><a xlink:title=" ">
<path fill="none" stroke="#63b8ff" d="M73,-55.54C73,-46.96 73,-37.61 73,-30.16"/>
<polygon fill="#63b8ff" stroke="#63b8ff" points="69.5,-55.8 73,-65.8 76.5,-55.8 69.5,-55.8"/>
</a>
</g>
</g>
<!-- Node5 -->
<g id="Node000005" class="node">
<title>Node5</title>
<g id="a_Node000005"><a xlink:href="Plane_8cpp.html" target="_top" xlink:title=" ">
<polygon fill="white" stroke="#666666" points="286.5,-30 163.5,-30 163.5,0 286.5,0 286.5,-30"/>
<text text-anchor="start" x="171.5" y="-18" font-family="Helvetica,sans-Serif" font-size="10.00">src/Objects/Primitives</text>
<text text-anchor="middle" x="225" y="-7" font-family="Helvetica,sans-Serif" font-size="10.00">/Plane/Plane.cpp</text>
</a>
</g>
</g>
<!-- Node4&#45;&gt;Node5 -->
<g id="edge4_Node000004_Node000005" class="edge">
<title>Node4&#45;&gt;Node5</title>
<g id="a_edge4_Node000004_Node000005"><a xlink:title=" ">
<path fill="none" stroke="#63b8ff" d="M225.62,-55.54C225.48,-46.96 225.34,-37.61 225.22,-30.16"/>
<polygon fill="#63b8ff" stroke="#63b8ff" points="222.12,-55.85 225.78,-65.8 229.12,-55.74 222.12,-55.85"/>
</a>
</g>
</g>
<!-- Node7 -->
<g id="Node000007" class="node">
<title>Node7</title>
<g id="a_Node000007"><a xlink:href="ILight_8hpp.html" target="_top" xlink:title=" ">
<polygon fill="white" stroke="#666666" points="518.5,-228 401.5,-228 401.5,-198 518.5,-198 518.5,-228"/>
<text text-anchor="start" x="409.5" y="-216" font-family="Helvetica,sans-Serif" font-size="10.00">src/Objects/Interface</text>
<text text-anchor="middle" x="460" y="-205" font-family="Helvetica,sans-Serif" font-size="10.00">/ILight.hpp</text>
</a>
</g>
</g>
<!-- Node6&#45;&gt;Node7 -->
<g id="edge6_Node000006_Node000007" class="edge">
<title>Node6&#45;&gt;Node7</title>
<g id="a_edge6_Node000006_Node000007"><a xlink:title=" ">
<path fill="none" stroke="#63b8ff" d="M453.43,-253.83C453.02,-245.17 453.31,-235.7 454.29,-228.16"/>
<polygon fill="#63b8ff" stroke="#63b8ff" points="449.95,-254.13 454.28,-263.8 456.92,-253.54 449.95,-254.13"/>
</a>
</g>
</g>
<!-- Node11 -->
<g id="Node000011" class="node">
<title>Node11</title>
<g id="a_Node000011"><a xlink:href="Renderer_8hpp.html" target="_top" xlink:title=" ">
<polygon fill="white" stroke="#666666" points="606,-90.5 460,-90.5 460,-71.5 606,-71.5 606,-90.5"/>
<text text-anchor="middle" x="533" y="-78.5" font-family="Helvetica,sans-Serif" font-size="10.00">src/Renderer/Renderer.hpp</text>
</a>
</g>
</g>
<!-- Node6&#45;&gt;Node11 -->
<g id="edge19_Node000006_Node000011" class="edge">
<title>Node6&#45;&gt;Node11</title>
<g id="a_edge19_Node000006_Node000011"><a xlink:title=" ">
<path fill="none" stroke="#63b8ff" d="M498.93,-258.31C510.32,-250.5 521.46,-240.39 528,-228 552.62,-181.34 540.53,-114.12 535.13,-90.55"/>
<polygon fill="#63b8ff" stroke="#63b8ff" points="496.8,-255.51 490.24,-263.83 500.55,-261.42 496.8,-255.51"/>
</a>
</g>
</g>
<!-- Node13 -->
<g id="Node000013" class="node">
<title>Node13</title>
<g id="a_Node000013"><a xlink:href="Scene_8cpp.html" target="_top" xlink:title=" ">
<polygon fill="white" stroke="#666666" points="383,-228 251,-228 251,-198 383,-198 383,-228"/>
<text text-anchor="start" x="259" y="-216" font-family="Helvetica,sans-Serif" font-size="10.00">src/SceneSystem/Scene</text>
<text text-anchor="middle" x="317" y="-205" font-family="Helvetica,sans-Serif" font-size="10.00">/Scene.cpp</text>
</a>
</g>
</g>
<!-- Node6&#45;&gt;Node13 -->
<g id="edge20_Node000006_Node000013" class="edge">
<title>Node6&#45;&gt;Node13</title>
<g id="a_edge20_Node000006_Node000013"><a xlink:title=" ">
<path fill="none" stroke="#63b8ff" d="M419.3,-259.78C396.75,-249.69 369.16,-237.34 348.31,-228.01"/>
<polygon fill="#63b8ff" stroke="#63b8ff" points="418.06,-263.06 428.62,-263.95 420.92,-256.68 418.06,-263.06"/>
</a>
</g>
</g>
<!-- Node7&#45;&gt;Node6 -->
<g id="edge18_Node000007_Node000006" class="edge">
<title>Node7&#45;&gt;Node6</title>
<g id="a_edge18_Node000007_Node000006"><a xlink:title=" ">
<path fill="none" stroke="#63b8ff" d="M466.57,-238.13C466.98,-246.78 466.7,-256.26 465.72,-263.8"/>
<polygon fill="#63b8ff" stroke="#63b8ff" points="470.05,-237.83 465.71,-228.16 463.08,-238.43 470.05,-237.83"/>
</a>
</g>
</g>
<!-- Node8 -->
<g id="Node000008" class="node">
<title>Node8</title>
<g id="a_Node000008"><a xlink:href="IMaterial_8hpp.html" target="_top" xlink:title=" ">
<polygon fill="white" stroke="#666666" points="431.5,-162 314.5,-162 314.5,-132 431.5,-132 431.5,-162"/>
<text text-anchor="start" x="322.5" y="-150" font-family="Helvetica,sans-Serif" font-size="10.00">src/Objects/Interface</text>
<text text-anchor="middle" x="373" y="-139" font-family="Helvetica,sans-Serif" font-size="10.00">/IMaterial.hpp</text>
</a>
</g>
</g>
<!-- Node7&#45;&gt;Node8 -->
<g id="edge7_Node000007_Node000008" class="edge">
<title>Node7&#45;&gt;Node8</title>
<g id="a_edge7_Node000007_Node000008"><a xlink:title=" ">
<path fill="none" stroke="#63b8ff" d="M432.48,-191.75C419.39,-182.13 404.07,-170.86 392.25,-162.16"/>
<polygon fill="#63b8ff" stroke="#63b8ff" points="430.56,-194.69 440.69,-197.8 434.71,-189.05 430.56,-194.69"/>
</a>
</g>
</g>
<!-- Node7&#45;&gt;Node11 -->
<g id="edge17_Node000007_Node000011" class="edge">
<title>Node7&#45;&gt;Node11</title>
<g id="a_edge17_Node000007_Node000011"><a xlink:title=" ">
<path fill="none" stroke="#63b8ff" d="M472.85,-189.11C489.28,-159.86 516.91,-110.65 528.09,-90.75"/>
<polygon fill="#63b8ff" stroke="#63b8ff" points="469.8,-187.41 467.95,-197.84 475.9,-190.83 469.8,-187.41"/>
</a>
</g>
</g>
<!-- Node8&#45;&gt;Node2 -->
<g id="edge13_Node000008_Node000002" class="edge">
<title>Node8&#45;&gt;Node2</title>
<g id="a_edge13_Node000008_Node000002"><a xlink:title=" ">
<path fill="none" stroke="#63b8ff" d="M304.42,-131.37C254.67,-120.76 187.78,-106.49 138.71,-96.02"/>
<polygon fill="#63b8ff" stroke="#63b8ff" points="303.93,-134.84 314.44,-133.51 305.4,-128 303.93,-134.84"/>
</a>
</g>
</g>
<!-- Node8&#45;&gt;Node4 -->
<g id="edge14_Node000008_Node000004" class="edge">
<title>Node8&#45;&gt;Node4</title>
<g id="a_edge14_Node000008_Node000004"><a xlink:title=" ">
<path fill="none" stroke="#63b8ff" d="M331.47,-127.92C308.24,-117.8 279.71,-105.38 258.18,-96.01"/>
<polygon fill="#63b8ff" stroke="#63b8ff" points="330.17,-131.17 340.74,-131.95 332.97,-124.75 330.17,-131.17"/>
</a>
</g>
</g>
<!-- Node9 -->
<g id="Node000009" class="node">
<title>Node9</title>
<g id="a_Node000009"><a xlink:href="HitRecord_8hpp.html" target="_top" xlink:title=" ">
<polygon fill="white" stroke="#666666" points="440,-96 306,-96 306,-66 440,-66 440,-96"/>
<text text-anchor="start" x="314" y="-84" font-family="Helvetica,sans-Serif" font-size="10.00">src/Geometry/HitRecord</text>
<text text-anchor="middle" x="373" y="-73" font-family="Helvetica,sans-Serif" font-size="10.00">/HitRecord.hpp</text>
</a>
</g>
</g>
<!-- Node8&#45;&gt;Node9 -->
<g id="edge8_Node000008_Node000009" class="edge">
<title>Node8&#45;&gt;Node9</title>
<g id="a_edge8_Node000008_Node000009"><a xlink:title=" ">
<path fill="none" stroke="#63b8ff" d="M366.43,-121.83C366.02,-113.17 366.31,-103.7 367.29,-96.16"/>
<polygon fill="#63b8ff" stroke="#63b8ff" points="362.95,-122.13 367.28,-131.8 369.92,-121.54 362.95,-122.13"/>
</a>
</g>
</g>
<!-- Node8&#45;&gt;Node11 -->
<g id="edge15_Node000008_Node000011" class="edge">
<title>Node8&#45;&gt;Node11</title>
<g id="a_edge15_Node000008_Node000011"><a xlink:title=" ">
<path fill="none" stroke="#63b8ff" d="M417.75,-128.1C448.46,-115.82 487.84,-100.06 511.71,-90.52"/>
<polygon fill="#63b8ff" stroke="#63b8ff" points="416.1,-124.99 408.11,-131.95 418.7,-131.49 416.1,-124.99"/>
</a>
</g>
</g>
<!-- Node9&#45;&gt;Node1 -->
<g id="edge12_Node000009_Node000001" class="edge">
<title>Node9&#45;&gt;Node1</title>
<g id="a_edge12_Node000009_Node000001"><a xlink:title=" ">
<path fill="none" stroke="#63b8ff" d="M340.33,-101.58C309.74,-121.75 265.35,-156.1 242,-198 217.39,-242.16 208.29,-302.72 205.3,-329.85"/>
<polygon fill="#63b8ff" stroke="#63b8ff" points="342.43,-104.39 348.95,-96.03 338.64,-98.5 342.43,-104.39"/>
</a>
</g>
</g>
<!-- Node9&#45;&gt;Node7 -->
<g id="edge10_Node000009_Node000007" class="edge">
<title>Node9&#45;&gt;Node7</title>
<g id="a_edge10_Node000009_Node000007"><a xlink:title=" ">
<path fill="none" stroke="#63b8ff" d="M409.04,-101.52C420.82,-109.53 432.93,-119.81 441,-132 454.4,-152.23 458.38,-180.87 459.54,-197.83"/>
<polygon fill="#63b8ff" stroke="#63b8ff" points="410.9,-98.55 400.59,-96.09 407.11,-104.44 410.9,-98.55"/>
</a>
</g>
</g>
<!-- Node9&#45;&gt;Node8 -->
<g id="edge11_Node000009_Node000008" class="edge">
<title>Node9&#45;&gt;Node8</title>
<g id="a_edge11_Node000009_Node000008"><a xlink:title=" ">
<path fill="none" stroke="#63b8ff" d="M379.57,-106.13C379.98,-114.78 379.7,-124.26 378.72,-131.8"/>
<polygon fill="#63b8ff" stroke="#63b8ff" points="383.05,-105.83 378.71,-96.16 376.08,-106.43 383.05,-105.83"/>
</a>
</g>
</g>
<!-- Node10 -->
<g id="Node000010" class="node">
<title>Node10</title>
<g id="a_Node000010"><a xlink:href="AMaterial_8hpp.html" target="_top" xlink:title=" ">
<polygon fill="white" stroke="#666666" points="443,-30 305,-30 305,0 443,0 443,-30"/>
<text text-anchor="start" x="313" y="-18" font-family="Helvetica,sans-Serif" font-size="10.00">src/Objects/Abstract</text>
<text text-anchor="middle" x="374" y="-7" font-family="Helvetica,sans-Serif" font-size="10.00">/AMaterial/AMaterial.hpp</text>
</a>
</g>
</g>
<!-- Node9&#45;&gt;Node10 -->
<g id="edge9_Node000009_Node000010" class="edge">
<title>Node9&#45;&gt;Node10</title>
<g id="a_edge9_Node000009_Node000010"><a xlink:title=" ">
<path fill="none" stroke="#63b8ff" d="M373.38,-55.54C373.52,-46.96 373.66,-37.61 373.78,-30.16"/>
<polygon fill="#63b8ff" stroke="#63b8ff" points="369.88,-55.74 373.22,-65.8 376.88,-55.85 369.88,-55.74"/>
</a>
</g>
</g>
<!-- Node12 -->
<g id="Node000012" class="node">
<title>Node12</title>
<g id="a_Node000012"><a xlink:href="Renderer_8cpp.html" target="_top" xlink:title=" ">
<polygon fill="white" stroke="#666666" points="606.5,-24.5 461.5,-24.5 461.5,-5.5 606.5,-5.5 606.5,-24.5"/>
<text text-anchor="middle" x="534" y="-12.5" font-family="Helvetica,sans-Serif" font-size="10.00">src/Renderer/Renderer.cpp</text>
</a>
</g>
</g>
<!-- Node11&#45;&gt;Node12 -->
<g id="edge16_Node000011_Node000012" class="edge">
<title>Node11&#45;&gt;Node12</title>
<g id="a_edge16_Node000011_Node000012"><a xlink:title=" ">
<path fill="none" stroke="#63b8ff" d="M533.3,-61.08C533.48,-49.13 533.72,-34.22 533.86,-24.91"/>
<polygon fill="#63b8ff" stroke="#63b8ff" points="529.79,-61.32 533.13,-71.37 536.79,-61.42 529.79,-61.32"/>
</a>
</g>
</g>
</g>
</svg>

<g id="navigator" transform="translate(0 0)" fill="#404254">
  <rect fill="#f2f5e9" fill-opacity="0.5" stroke="#606060" stroke-width=".5" x="0" y="0" width="60" height="60"/>
  <use id="zoomplus" xlink:href="#zoomPlus" x="17" y="9" onmousedown="handleZoom(evt,'in')"/>
  <use id="zoomminus" xlink:href="#zoomMin" x="42" y="9" onmousedown="handleZoom(evt,'out')"/>
  <use id="reset" xlink:href="#resetDef" x="30" y="36" onmousedown="handleReset()"/>
   <use id="arrowup" xlink:href="#arrowUp" x="0" y="0" onmousedown="handlePan(0,-1)"/>
  <use id="arrowright" xlink:href="#arrowRight" x="0" y="0" onmousedown="handlePan(1,0)"/>
  <use id="arrowdown" xlink:href="#arrowDown" x="0" y="0" onmousedown="handlePan(0,1)"/>
  <use id="arrowleft" xlink:href="#arrowLeft" x="0" y="0" onmousedown="handlePan(-1,0)"/>
</g>
<svg viewBox="0 0 15 15" width="100%" height="30px" preserveAspectRatio="xMaxYMin meet">
 <g id="arrow_out" transform="scale(0.3 0.3)">
  <a xlink:href="IPrimitive_8hpp__dep__incl_org.svg" target="_base">
   <rect id="button" ry="5" rx="5" y="6" x="6" height="38" width="38"
        fill="#f2f5e9" fill-opacity="0.5" stroke="#606060" stroke-width="1.0"/>
   <path id="arrow"
     d="M 11.500037,31.436501 C 11.940474,20.09759 22.043105,11.32322 32.158766,21.979434 L 37.068811,17.246167 C 37.068811,17.246167 37.088388,32 37.088388,32 L 22.160133,31.978069 C 22.160133,31.978069 26.997745,27.140456 26.997745,27.140456 C 18.528582,18.264221 13.291696,25.230495 11.500037,31.436501 z"
     style="fill:#404040;"/>
  </a>
 </g>
</svg>

<style type='text/css'>
<![CDATA[
[data-mouse-over-selected='false'] { opacity: 0.7; }
[data-mouse-over-selected='true']  { opacity: 1.0; }
]]>
</style>
<script type="application/ecmascript"><![CDATA[
document.addEventListener('DOMContentLoaded', (event) => {
  highlightEdges();
  highlightAdjacentNodes();
});
]]></script>
</svg>
