<?xml version="1.0" encoding="UTF-8" standalone="no"?>
<!DOCTYPE svg PUBLIC "-//W3C//DTD SVG 1.1//EN"
 "http://www.w3.org/Graphics/SVG/1.1/DTD/svg11.dtd">
<!-- Generated by graphviz version 2.43.0 (0)
 -->
<!-- Title: src/Objects/Plugins/CorePlugin/Materials/Lambertian/Lambertian.hpp Pages: 1 -->
<svg width="328pt" height="126pt"
 viewBox="0.00 0.00 328.00 126.00" xmlns="http://www.w3.org/2000/svg" xmlns:xlink="http://www.w3.org/1999/xlink">
<g id="graph0" class="graph" transform="scale(1 1) rotate(0) translate(4 122)">
<title>src/Objects/Plugins/CorePlugin/Materials/Lambertian/Lambertian.hpp</title>
<!-- Node1 -->
<g id="Node000001" class="node">
<title>Node1</title>
<g id="a_Node000001"><a xlink:title=" ">
<polygon fill="#999999" stroke="#666666" points="235.5,-118 80.5,-118 80.5,-77 235.5,-77 235.5,-118"/>
<text text-anchor="start" x="88.5" y="-106" font-family="Helvetica,sans-Serif" font-size="10.00">src/Objects/Plugins</text>
<text text-anchor="start" x="88.5" y="-95" font-family="Helvetica,sans-Serif" font-size="10.00">/CorePlugin/Materials</text>
<text text-anchor="middle" x="158" y="-84" font-family="Helvetica,sans-Serif" font-size="10.00">/Lambertian/Lambertian.hpp</text>
</a>
</g>
</g>
<!-- Node2 -->
<g id="Node000002" class="node">
<title>Node2</title>
<g id="a_Node000002"><a xlink:href="CorePlugin_8cpp.html" target="_top" xlink:title="Core plugin implementation that provides primitives, materials and the camera.">
<polygon fill="white" stroke="#666666" points="148,-35.5 0,-35.5 0,-5.5 148,-5.5 148,-35.5"/>
<text text-anchor="start" x="8" y="-23.5" font-family="Helvetica,sans-Serif" font-size="10.00">src/Objects/Plugins</text>
<text text-anchor="middle" x="74" y="-12.5" font-family="Helvetica,sans-Serif" font-size="10.00">/CorePlugin/CorePlugin.cpp</text>
</a>
</g>
</g>
<!-- Node1&#45;&gt;Node2 -->
<g id="edge1_Node000001_Node000002" class="edge">
<title>Node1&#45;&gt;Node2</title>
<g id="a_edge1_Node000001_Node000002"><a xlink:title=" ">
<path fill="none" stroke="#63b8ff" d="M128.15,-69.84C115.21,-58.3 100.6,-45.25 89.82,-35.63"/>
<polygon fill="#63b8ff" stroke="#63b8ff" points="126.14,-72.75 135.93,-76.79 130.8,-67.52 126.14,-72.75"/>
</a>
</g>
</g>
<!-- Node3 -->
<g id="Node000003" class="node">
<title>Node3</title>
<g id="a_Node000003"><a xlink:href="Lambertian_8cpp.html" target="_top" xlink:title=" ">
<polygon fill="white" stroke="#666666" points="320,-41 166,-41 166,0 320,0 320,-41"/>
<text text-anchor="start" x="174" y="-29" font-family="Helvetica,sans-Serif" font-size="10.00">src/Objects/Plugins</text>
<text text-anchor="start" x="174" y="-18" font-family="Helvetica,sans-Serif" font-size="10.00">/CorePlugin/Materials</text>
<text text-anchor="middle" x="243" y="-7" font-family="Helvetica,sans-Serif" font-size="10.00">/Lambertian/Lambertian.cpp</text>
</a>
</g>
</g>
<!-- Node1&#45;&gt;Node3 -->
<g id="edge2_Node000001_Node000003" class="edge">
<title>Node1&#45;&gt;Node3</title>
<g id="a_edge2_Node000001_Node000003"><a xlink:title=" ">
<path fill="none" stroke="#63b8ff" d="M187.95,-70.07C198.77,-60.52 210.78,-49.93 220.82,-41.07"/>
<polygon fill="#63b8ff" stroke="#63b8ff" points="185.52,-67.55 180.33,-76.79 190.15,-72.8 185.52,-67.55"/>
</a>
</g>
</g>
</g>
</svg>
