<?xml version="1.0" encoding="UTF-8" standalone="no"?>
<!DOCTYPE svg PUBLIC "-//W3C//DTD SVG 1.1//EN"
 "http://www.w3.org/Graphics/SVG/1.1/DTD/svg11.dtd">
<!-- Generated by graphviz version 2.43.0 (0)
 -->
<!-- Title: src/Objects/Plugins/CorePlugin/Materials/Lambertian/Lambertian.cpp Pages: 1 -->
<svg width="386pt" height="511pt"
 viewBox="0.00 0.00 385.50 511.00" xmlns="http://www.w3.org/2000/svg" xmlns:xlink="http://www.w3.org/1999/xlink">
<g id="graph0" class="graph" transform="scale(1 1) rotate(0) translate(4 507)">
<title>src/Objects/Plugins/CorePlugin/Materials/Lambertian/Lambertian.cpp</title>
<!-- Node1 -->
<g id="Node000001" class="node">
<title>Node1</title>
<g id="a_Node000001"><a xlink:title=" ">
<polygon fill="#999999" stroke="#666666" points="180,-503 26,-503 26,-462 180,-462 180,-503"/>
<text text-anchor="start" x="34" y="-491" font-family="Helvetica,sans-Serif" font-size="10.00">src/Objects/Plugins</text>
<text text-anchor="start" x="34" y="-480" font-family="Helvetica,sans-Serif" font-size="10.00">/CorePlugin/Materials</text>
<text text-anchor="middle" x="103" y="-469" font-family="Helvetica,sans-Serif" font-size="10.00">/Lambertian/Lambertian.cpp</text>
</a>
</g>
</g>
<!-- Node2 -->
<g id="Node000002" class="node">
<title>Node2</title>
<g id="a_Node000002"><a xlink:href="Lambertian_8hpp.html" target="_top" xlink:title=" ">
<polygon fill="white" stroke="#666666" points="149.5,-426 56.5,-426 56.5,-407 149.5,-407 149.5,-426"/>
<text text-anchor="middle" x="103" y="-414" font-family="Helvetica,sans-Serif" font-size="10.00">Lambertian.hpp</text>
</a>
</g>
</g>
<!-- Node1&#45;&gt;Node2 -->
<g id="edge1_Node000001_Node000002" class="edge">
<title>Node1&#45;&gt;Node2</title>
<g id="a_edge1_Node000001_Node000002"><a xlink:title=" ">
<path fill="none" stroke="#63b8ff" d="M103,-461.95C103,-453.85 103,-444.5 103,-436.47"/>
<polygon fill="#63b8ff" stroke="#63b8ff" points="106.5,-436.26 103,-426.26 99.5,-436.26 106.5,-436.26"/>
</a>
</g>
</g>
<!-- Node3 -->
<g id="Node000003" class="node">
<title>Node3</title>
<g id="a_Node000003"><a xlink:href="Color_8hpp.html" target="_top" xlink:title=" ">
<polygon fill="white" stroke="#666666" points="84,-195 0,-195 0,-165 84,-165 84,-195"/>
<text text-anchor="start" x="8" y="-183" font-family="Helvetica,sans-Serif" font-size="10.00">../../../../../Utils</text>
<text text-anchor="middle" x="42" y="-172" font-family="Helvetica,sans-Serif" font-size="10.00">/Color.hpp</text>
</a>
</g>
</g>
<!-- Node2&#45;&gt;Node3 -->
<g id="edge2_Node000002_Node000003" class="edge">
<title>Node2&#45;&gt;Node3</title>
<g id="a_edge2_Node000002_Node000003"><a xlink:title=" ">
<path fill="none" stroke="#63b8ff" d="M92.41,-406.82C83.22,-398.63 70.41,-385.46 64,-371 39.48,-315.71 38.71,-242.9 40.31,-205.5"/>
<polygon fill="#63b8ff" stroke="#63b8ff" points="43.83,-205.26 40.86,-195.09 36.84,-204.89 43.83,-205.26"/>
</a>
</g>
</g>
<!-- Node5 -->
<g id="Node000005" class="node">
<title>Node5</title>
<g id="a_Node000005"><a xlink:href="AMaterial_8hpp.html" target="_top" xlink:title=" ">
<polygon fill="white" stroke="#666666" points="260.5,-371 73.5,-371 73.5,-341 260.5,-341 260.5,-371"/>
<text text-anchor="start" x="81.5" y="-359" font-family="Helvetica,sans-Serif" font-size="10.00">../../../../../Objects</text>
<text text-anchor="middle" x="167" y="-348" font-family="Helvetica,sans-Serif" font-size="10.00">/Abstracts/AMaterial/AMaterial.hpp</text>
</a>
</g>
</g>
<!-- Node2&#45;&gt;Node5 -->
<g id="edge4_Node000002_Node000005" class="edge">
<title>Node2&#45;&gt;Node5</title>
<g id="a_edge4_Node000002_Node000005"><a xlink:title=" ">
<path fill="none" stroke="#63b8ff" d="M112.44,-406.87C120.73,-399.3 133.11,-387.98 143.99,-378.04"/>
<polygon fill="#63b8ff" stroke="#63b8ff" points="146.54,-380.44 151.56,-371.11 141.82,-375.28 146.54,-380.44"/>
</a>
</g>
</g>
<!-- Node4 -->
<g id="Node000004" class="node">
<title>Node4</title>
<g id="a_Node000004"><a xlink:title=" ">
<polygon fill="#e0e0e0" stroke="#999999" points="74,-129 10,-129 10,-110 74,-110 74,-129"/>
<text text-anchor="middle" x="42" y="-117" font-family="Helvetica,sans-Serif" font-size="10.00">algorithm</text>
</a>
</g>
</g>
<!-- Node3&#45;&gt;Node4 -->
<g id="edge3_Node000003_Node000004" class="edge">
<title>Node3&#45;&gt;Node4</title>
<g id="a_edge3_Node000003_Node000004"><a xlink:title=" ">
<path fill="none" stroke="#63b8ff" d="M42,-164.84C42,-157.21 42,-147.7 42,-139.45"/>
<polygon fill="#63b8ff" stroke="#63b8ff" points="45.5,-139.27 42,-129.27 38.5,-139.27 45.5,-139.27"/>
</a>
</g>
</g>
<!-- Node6 -->
<g id="Node000006" class="node">
<title>Node6</title>
<g id="a_Node000006"><a xlink:href="IMaterial_8hpp.html" target="_top" xlink:title=" ">
<polygon fill="white" stroke="#666666" points="213,-305 123,-305 123,-286 213,-286 213,-305"/>
<text text-anchor="middle" x="168" y="-293" font-family="Helvetica,sans-Serif" font-size="10.00">../IMaterial.hpp</text>
</a>
</g>
</g>
<!-- Node5&#45;&gt;Node6 -->
<g id="edge5_Node000005_Node000006" class="edge">
<title>Node5&#45;&gt;Node6</title>
<g id="a_edge5_Node000005_Node000006"><a xlink:title=" ">
<path fill="none" stroke="#63b8ff" d="M167.24,-340.84C167.37,-333.21 167.53,-323.7 167.68,-315.45"/>
<polygon fill="#63b8ff" stroke="#63b8ff" points="171.18,-315.32 167.85,-305.27 164.18,-315.2 171.18,-315.32"/>
</a>
</g>
</g>
<!-- Node6&#45;&gt;Node3 -->
<g id="edge6_Node000006_Node000003" class="edge">
<title>Node6&#45;&gt;Node3</title>
<g id="a_edge6_Node000006_Node000003"><a xlink:title=" ">
<path fill="none" stroke="#63b8ff" d="M158.53,-285.97C138.94,-268.33 93.48,-227.37 65.48,-202.15"/>
<polygon fill="#63b8ff" stroke="#63b8ff" points="67.52,-199.27 57.74,-195.18 62.83,-204.47 67.52,-199.27"/>
</a>
</g>
</g>
<!-- Node7 -->
<g id="Node000007" class="node">
<title>Node7</title>
<g id="a_Node000007"><a xlink:href="ILight_8hpp.html" target="_top" xlink:title=" ">
<polygon fill="white" stroke="#666666" points="201.5,-250 136.5,-250 136.5,-231 201.5,-231 201.5,-250"/>
<text text-anchor="middle" x="169" y="-238" font-family="Helvetica,sans-Serif" font-size="10.00">ILight.hpp</text>
</a>
</g>
</g>
<!-- Node6&#45;&gt;Node7 -->
<g id="edge7_Node000006_Node000007" class="edge">
<title>Node6&#45;&gt;Node7</title>
<g id="a_edge7_Node000006_Node000007"><a xlink:title=" ">
<path fill="none" stroke="#63b8ff" d="M168.17,-285.75C168.3,-278.8 168.48,-268.85 168.65,-260.13"/>
<polygon fill="#63b8ff" stroke="#63b8ff" points="172.15,-260.15 168.84,-250.09 165.15,-260.02 172.15,-260.15"/>
</a>
</g>
</g>
<!-- Node12 -->
<g id="Node000012" class="node">
<title>Node12</title>
<g id="a_Node000012"><a xlink:title=" ">
<polygon fill="#e0e0e0" stroke="#999999" points="377.5,-189.5 330.5,-189.5 330.5,-170.5 377.5,-170.5 377.5,-189.5"/>
<text text-anchor="middle" x="354" y="-177.5" font-family="Helvetica,sans-Serif" font-size="10.00">vector</text>
</a>
</g>
</g>
<!-- Node6&#45;&gt;Node12 -->
<g id="edge16_Node000006_Node000012" class="edge">
<title>Node6&#45;&gt;Node12</title>
<g id="a_edge16_Node000006_Node000012"><a xlink:title=" ">
<path fill="none" stroke="#63b8ff" d="M181.98,-285.97C213.89,-266.5 292.34,-218.63 331.29,-194.86"/>
<polygon fill="#63b8ff" stroke="#63b8ff" points="333.14,-197.83 339.86,-189.63 329.5,-191.85 333.14,-197.83"/>
</a>
</g>
</g>
<!-- Node7&#45;&gt;Node3 -->
<g id="edge13_Node000007_Node000003" class="edge">
<title>Node7&#45;&gt;Node3</title>
<g id="a_edge13_Node000007_Node000003"><a xlink:title=" ">
<path fill="none" stroke="#63b8ff" d="M150.53,-230.99C132.64,-222.75 104.9,-209.98 81.95,-199.4"/>
<polygon fill="#63b8ff" stroke="#63b8ff" points="83.33,-196.18 72.78,-195.18 80.4,-202.54 83.33,-196.18"/>
</a>
</g>
</g>
<!-- Node8 -->
<g id="Node000008" class="node">
<title>Node8</title>
<g id="a_Node000008"><a xlink:href="HitRecord_8hpp.html" target="_top" xlink:title=" ">
<polygon fill="white" stroke="#666666" points="236,-195 102,-195 102,-165 236,-165 236,-195"/>
<text text-anchor="start" x="110" y="-183" font-family="Helvetica,sans-Serif" font-size="10.00">../../Geometry/HitRecord</text>
<text text-anchor="middle" x="169" y="-172" font-family="Helvetica,sans-Serif" font-size="10.00">/HitRecord.hpp</text>
</a>
</g>
</g>
<!-- Node7&#45;&gt;Node8 -->
<g id="edge8_Node000007_Node000008" class="edge">
<title>Node7&#45;&gt;Node8</title>
<g id="a_edge8_Node000007_Node000008"><a xlink:title=" ">
<path fill="none" stroke="#63b8ff" d="M169,-230.87C169,-224.11 169,-214.35 169,-205.26"/>
<polygon fill="#63b8ff" stroke="#63b8ff" points="172.5,-205.11 169,-195.11 165.5,-205.11 172.5,-205.11"/>
</a>
</g>
</g>
<!-- Node7&#45;&gt;Node12 -->
<g id="edge14_Node000007_Node000012" class="edge">
<title>Node7&#45;&gt;Node12</title>
<g id="a_edge14_Node000007_Node000012"><a xlink:title=" ">
<path fill="none" stroke="#63b8ff" d="M201.67,-231.12C232.69,-222.88 280.47,-209.47 321,-195 322.43,-194.49 323.88,-193.95 325.35,-193.39"/>
<polygon fill="#63b8ff" stroke="#63b8ff" points="326.98,-196.51 334.95,-189.53 324.37,-190.01 326.98,-196.51"/>
</a>
</g>
</g>
<!-- Node13 -->
<g id="Node000013" class="node">
<title>Node13</title>
<g id="a_Node000013"><a xlink:title=" ">
<polygon fill="#e0e0e0" stroke="#999999" points="312,-189.5 254,-189.5 254,-170.5 312,-170.5 312,-189.5"/>
<text text-anchor="middle" x="283" y="-177.5" font-family="Helvetica,sans-Serif" font-size="10.00">memory</text>
</a>
</g>
</g>
<!-- Node7&#45;&gt;Node13 -->
<g id="edge15_Node000007_Node000013" class="edge">
<title>Node7&#45;&gt;Node13</title>
<g id="a_edge15_Node000007_Node000013"><a xlink:title=" ">
<path fill="none" stroke="#63b8ff" d="M185.82,-230.87C204.6,-221.23 235.2,-205.53 257.05,-194.31"/>
<polygon fill="#63b8ff" stroke="#63b8ff" points="258.81,-197.35 266.11,-189.67 255.61,-191.12 258.81,-197.35"/>
</a>
</g>
</g>
<!-- Node9 -->
<g id="Node000009" class="node">
<title>Node9</title>
<g id="a_Node000009"><a xlink:href="Point3D_8hpp.html" target="_top" xlink:title=" ">
<polygon fill="white" stroke="#666666" points="225,-129 99,-129 99,-110 225,-110 225,-129"/>
<text text-anchor="middle" x="162" y="-117" font-family="Helvetica,sans-Serif" font-size="10.00">../Point3D/Point3D.hpp</text>
</a>
</g>
</g>
<!-- Node8&#45;&gt;Node9 -->
<g id="edge9_Node000008_Node000009" class="edge">
<title>Node8&#45;&gt;Node9</title>
<g id="a_edge9_Node000008_Node000009"><a xlink:title=" ">
<path fill="none" stroke="#63b8ff" d="M167.31,-164.84C166.39,-157.21 165.26,-147.7 164.27,-139.45"/>
<polygon fill="#63b8ff" stroke="#63b8ff" points="167.71,-138.78 163.05,-129.27 160.76,-139.61 167.71,-138.78"/>
</a>
</g>
</g>
<!-- Node10 -->
<g id="Node000010" class="node">
<title>Node10</title>
<g id="a_Node000010"><a xlink:href="Vector3D_8hpp.html" target="_top" xlink:title=" ">
<polygon fill="white" stroke="#666666" points="276,-74 138,-74 138,-55 276,-55 276,-74"/>
<text text-anchor="middle" x="207" y="-62" font-family="Helvetica,sans-Serif" font-size="10.00">../Vector3D/Vector3D.hpp</text>
</a>
</g>
</g>
<!-- Node8&#45;&gt;Node10 -->
<g id="edge12_Node000008_Node000010" class="edge">
<title>Node8&#45;&gt;Node10</title>
<g id="a_edge12_Node000008_Node000010"><a xlink:title=" ">
<path fill="none" stroke="#63b8ff" d="M197.81,-164.84C211.45,-156.47 226.39,-144.45 234,-129 241.65,-113.46 232.04,-95.21 222.23,-82.27"/>
<polygon fill="#63b8ff" stroke="#63b8ff" points="224.68,-79.75 215.62,-74.26 219.29,-84.2 224.68,-79.75"/>
</a>
</g>
</g>
<!-- Node9&#45;&gt;Node10 -->
<g id="edge10_Node000009_Node000010" class="edge">
<title>Node9&#45;&gt;Node10</title>
<g id="a_edge10_Node000009_Node000010"><a xlink:title=" ">
<path fill="none" stroke="#63b8ff" d="M169.43,-109.75C175.85,-102.18 185.31,-91.05 193.12,-81.84"/>
<polygon fill="#63b8ff" stroke="#63b8ff" points="195.9,-83.98 199.71,-74.09 190.57,-79.45 195.9,-83.98"/>
</a>
</g>
</g>
<!-- Node11 -->
<g id="Node000011" class="node">
<title>Node11</title>
<g id="a_Node000011"><a xlink:title=" ">
<polygon fill="#e0e0e0" stroke="#999999" points="232.5,-19 181.5,-19 181.5,0 232.5,0 232.5,-19"/>
<text text-anchor="middle" x="207" y="-7" font-family="Helvetica,sans-Serif" font-size="10.00">math.h</text>
</a>
</g>
</g>
<!-- Node10&#45;&gt;Node11 -->
<g id="edge11_Node000010_Node000011" class="edge">
<title>Node10&#45;&gt;Node11</title>
<g id="a_edge11_Node000010_Node000011"><a xlink:title=" ">
<path fill="none" stroke="#63b8ff" d="M207,-54.75C207,-47.8 207,-37.85 207,-29.13"/>
<polygon fill="#63b8ff" stroke="#63b8ff" points="210.5,-29.09 207,-19.09 203.5,-29.09 210.5,-29.09"/>
</a>
</g>
</g>
</g>
</svg>
