<?xml version="1.0" encoding="UTF-8" standalone="no"?>
<!DOCTYPE svg PUBLIC "-//W3C//DTD SVG 1.1//EN"
 "http://www.w3.org/Graphics/SVG/1.1/DTD/svg11.dtd">
<!-- Generated by graphviz version 2.43.0 (0)
 -->
<!-- Title: src/Objects/Plugins/LivescenePlugin/Interfaces/Livescene/Livescene.hpp Pages: 1 -->
<svg width="1112pt" height="533pt"
 viewBox="0.00 0.00 1111.50 533.00" xmlns="http://www.w3.org/2000/svg" xmlns:xlink="http://www.w3.org/1999/xlink">
<g id="graph0" class="graph" transform="scale(1 1) rotate(0) translate(4 529)">
<title>src/Objects/Plugins/LivescenePlugin/Interfaces/Livescene/Livescene.hpp</title>
<!-- Node1 -->
<g id="Node000001" class="node">
<title>Node1</title>
<g id="a_Node000001"><a xlink:title=" ">
<polygon fill="#999999" stroke="#666666" points="647.5,-525 497.5,-525 497.5,-484 647.5,-484 647.5,-525"/>
<text text-anchor="start" x="505.5" y="-513" font-family="Helvetica,sans-Serif" font-size="10.00">src/Objects/Plugins</text>
<text text-anchor="start" x="505.5" y="-502" font-family="Helvetica,sans-Serif" font-size="10.00">/LivescenePlugin/Interfaces</text>
<text text-anchor="middle" x="572.5" y="-491" font-family="Helvetica,sans-Serif" font-size="10.00">/Livescene/Livescene.hpp</text>
</a>
</g>
</g>
<!-- Node2 -->
<g id="Node000002" class="node">
<title>Node2</title>
<g id="a_Node000002"><a xlink:href="Plugin_8hpp.html" target="_top" xlink:title=" ">
<polygon fill="white" stroke="#666666" points="496.5,-448 392.5,-448 392.5,-429 496.5,-429 496.5,-448"/>
<text text-anchor="middle" x="444.5" y="-436" font-family="Helvetica,sans-Serif" font-size="10.00">../../../../Plugin.hpp</text>
</a>
</g>
</g>
<!-- Node1&#45;&gt;Node2 -->
<g id="edge1_Node000001_Node000002" class="edge">
<title>Node1&#45;&gt;Node2</title>
<g id="a_edge1_Node000001_Node000002"><a xlink:title=" ">
<path fill="none" stroke="#63b8ff" d="M533.4,-483.95C513.18,-473.84 489.03,-461.76 471,-452.75"/>
<polygon fill="#63b8ff" stroke="#63b8ff" points="472.19,-449.43 461.68,-448.09 469.06,-455.69 472.19,-449.43"/>
</a>
</g>
</g>
<!-- Node30 -->
<g id="Node000030" class="node">
<title>Node30</title>
<g id="a_Node000030"><a xlink:title=" ">
<polygon fill="#e0e0e0" stroke="#999999" points="564.5,-448 514.5,-448 514.5,-429 564.5,-429 564.5,-448"/>
<text text-anchor="middle" x="539.5" y="-436" font-family="Helvetica,sans-Serif" font-size="10.00">atomic</text>
</a>
</g>
</g>
<!-- Node1&#45;&gt;Node30 -->
<g id="edge44_Node000001_Node000030" class="edge">
<title>Node1&#45;&gt;Node30</title>
<g id="a_edge44_Node000001_Node000030"><a xlink:title=" ">
<path fill="none" stroke="#63b8ff" d="M562.42,-483.95C558.05,-475.48 552.98,-465.64 548.71,-457.37"/>
<polygon fill="#63b8ff" stroke="#63b8ff" points="551.71,-455.54 544.02,-448.26 545.49,-458.75 551.71,-455.54"/>
</a>
</g>
</g>
<!-- Node31 -->
<g id="Node000031" class="node">
<title>Node31</title>
<g id="a_Node000031"><a xlink:title=" ">
<polygon fill="#e0e0e0" stroke="#999999" points="630.5,-448 582.5,-448 582.5,-429 630.5,-429 630.5,-448"/>
<text text-anchor="middle" x="606.5" y="-436" font-family="Helvetica,sans-Serif" font-size="10.00">thread</text>
</a>
</g>
</g>
<!-- Node1&#45;&gt;Node31 -->
<g id="edge45_Node000001_Node000031" class="edge">
<title>Node1&#45;&gt;Node31</title>
<g id="a_edge45_Node000001_Node000031"><a xlink:title=" ">
<path fill="none" stroke="#63b8ff" d="M582.89,-483.95C587.43,-475.39 592.73,-465.42 597.15,-457.1"/>
<polygon fill="#63b8ff" stroke="#63b8ff" points="600.25,-458.73 601.85,-448.26 594.06,-455.45 600.25,-458.73"/>
</a>
</g>
</g>
<!-- Node32 -->
<g id="Node000032" class="node">
<title>Node32</title>
<g id="a_Node000032"><a xlink:title=" ">
<polygon fill="#e0e0e0" stroke="#999999" points="758.5,-448 648.5,-448 648.5,-429 758.5,-429 758.5,-448"/>
<text text-anchor="middle" x="703.5" y="-436" font-family="Helvetica,sans-Serif" font-size="10.00">SFML/Graphics.hpp</text>
</a>
</g>
</g>
<!-- Node1&#45;&gt;Node32 -->
<g id="edge46_Node000001_Node000032" class="edge">
<title>Node1&#45;&gt;Node32</title>
<g id="a_edge46_Node000001_Node000032"><a xlink:title=" ">
<path fill="none" stroke="#63b8ff" d="M612.52,-483.95C633.4,-473.75 658.39,-461.54 676.89,-452.5"/>
<polygon fill="#63b8ff" stroke="#63b8ff" points="678.46,-455.63 685.91,-448.09 675.39,-449.34 678.46,-455.63"/>
</a>
</g>
</g>
<!-- Node3 -->
<g id="Node000003" class="node">
<title>Node3</title>
<g id="a_Node000003"><a xlink:title=" ">
<polygon fill="#e0e0e0" stroke="#999999" points="65,-387.5 0,-387.5 0,-368.5 65,-368.5 65,-387.5"/>
<text text-anchor="middle" x="32.5" y="-375.5" font-family="Helvetica,sans-Serif" font-size="10.00">functional</text>
</a>
</g>
</g>
<!-- Node2&#45;&gt;Node3 -->
<g id="edge2_Node000002_Node000003" class="edge">
<title>Node2&#45;&gt;Node3</title>
<g id="a_edge2_Node000002_Node000003"><a xlink:title=" ">
<path fill="none" stroke="#63b8ff" d="M392.3,-434.7C319.95,-430.03 185.45,-418.53 73.5,-393 70.52,-392.32 67.45,-391.5 64.39,-390.61"/>
<polygon fill="#63b8ff" stroke="#63b8ff" points="65.4,-387.26 54.81,-387.56 63.28,-393.93 65.4,-387.26"/>
</a>
</g>
</g>
<!-- Node4 -->
<g id="Node000004" class="node">
<title>Node4</title>
<g id="a_Node000004"><a xlink:title=" ">
<polygon fill="#e0e0e0" stroke="#999999" points="643.5,-189.5 585.5,-189.5 585.5,-170.5 643.5,-170.5 643.5,-189.5"/>
<text text-anchor="middle" x="614.5" y="-177.5" font-family="Helvetica,sans-Serif" font-size="10.00">memory</text>
</a>
</g>
</g>
<!-- Node2&#45;&gt;Node4 -->
<g id="edge3_Node000002_Node000004" class="edge">
<title>Node2&#45;&gt;Node4</title>
<g id="a_edge3_Node000002_Node000004"><a xlink:title=" ">
<path fill="none" stroke="#63b8ff" d="M490.57,-428.99C528.88,-420.99 579.34,-408.03 593.5,-393 644.04,-339.36 628.62,-240.78 619.31,-199.72"/>
<polygon fill="#63b8ff" stroke="#63b8ff" points="622.65,-198.65 616.9,-189.75 615.85,-200.29 622.65,-198.65"/>
</a>
</g>
</g>
<!-- Node5 -->
<g id="Node000005" class="node">
<title>Node5</title>
<g id="a_Node000005"><a xlink:title=" ">
<polygon fill="#e0e0e0" stroke="#999999" points="317,-387.5 266,-387.5 266,-368.5 317,-368.5 317,-387.5"/>
<text text-anchor="middle" x="291.5" y="-375.5" font-family="Helvetica,sans-Serif" font-size="10.00">variant</text>
</a>
</g>
</g>
<!-- Node2&#45;&gt;Node5 -->
<g id="edge4_Node000002_Node000005" class="edge">
<title>Node2&#45;&gt;Node5</title>
<g id="a_edge4_Node000002_Node000005"><a xlink:title=" ">
<path fill="none" stroke="#63b8ff" d="M421.39,-428.94C397.56,-420.08 359.36,-405.77 326.5,-393 325.09,-392.45 323.65,-391.89 322.19,-391.32"/>
<polygon fill="#63b8ff" stroke="#63b8ff" points="323.16,-387.94 312.57,-387.51 320.58,-394.44 323.16,-387.94"/>
</a>
</g>
</g>
<!-- Node6 -->
<g id="Node000006" class="node">
<title>Node6</title>
<g id="a_Node000006"><a xlink:title=" ">
<polygon fill="#e0e0e0" stroke="#999999" points="373.5,-387.5 335.5,-387.5 335.5,-368.5 373.5,-368.5 373.5,-387.5"/>
<text text-anchor="middle" x="354.5" y="-375.5" font-family="Helvetica,sans-Serif" font-size="10.00">map</text>
</a>
</g>
</g>
<!-- Node2&#45;&gt;Node6 -->
<g id="edge5_Node000002_Node000006" class="edge">
<title>Node2&#45;&gt;Node6</title>
<g id="a_edge5_Node000002_Node000006"><a xlink:title=" ">
<path fill="none" stroke="#63b8ff" d="M431.22,-428.87C416.86,-419.54 393.74,-404.51 376.63,-393.38"/>
<polygon fill="#63b8ff" stroke="#63b8ff" points="378.13,-390.18 367.83,-387.67 374.31,-396.05 378.13,-390.18"/>
</a>
</g>
</g>
<!-- Node7 -->
<g id="Node000007" class="node">
<title>Node7</title>
<g id="a_Node000007"><a xlink:href="ParsingException_8hpp.html" target="_top" xlink:title=" ">
<polygon fill="white" stroke="#666666" points="248,-393 83,-393 83,-363 248,-363 248,-393"/>
<text text-anchor="start" x="91" y="-381" font-family="Helvetica,sans-Serif" font-size="10.00">../Exceptions/ParsingException</text>
<text text-anchor="middle" x="165.5" y="-370" font-family="Helvetica,sans-Serif" font-size="10.00">/ParsingException.hpp</text>
</a>
</g>
</g>
<!-- Node2&#45;&gt;Node7 -->
<g id="edge6_Node000002_Node000007" class="edge">
<title>Node2&#45;&gt;Node7</title>
<g id="a_edge6_Node000002_Node000007"><a xlink:title=" ">
<path fill="none" stroke="#63b8ff" d="M403.93,-428.99C361.69,-420.14 294.52,-406.05 242.22,-395.09"/>
<polygon fill="#63b8ff" stroke="#63b8ff" points="242.81,-391.63 232.31,-393.01 241.37,-398.49 242.81,-391.63"/>
</a>
</g>
</g>
<!-- Node13 -->
<g id="Node000013" class="node">
<title>Node13</title>
<g id="a_Node000013"><a xlink:href="AInterface_8hpp.html" target="_top" xlink:title=" ">
<polygon fill="white" stroke="#666666" points="545.5,-393 429.5,-393 429.5,-363 545.5,-363 545.5,-393"/>
<text text-anchor="start" x="437.5" y="-381" font-family="Helvetica,sans-Serif" font-size="10.00">Abstracts/AInterface</text>
<text text-anchor="middle" x="487.5" y="-370" font-family="Helvetica,sans-Serif" font-size="10.00">/AInterface.hpp</text>
</a>
</g>
</g>
<!-- Node2&#45;&gt;Node13 -->
<g id="edge12_Node000002_Node000013" class="edge">
<title>Node2&#45;&gt;Node13</title>
<g id="a_edge12_Node000002_Node000013"><a xlink:title=" ">
<path fill="none" stroke="#63b8ff" d="M450.84,-428.87C456.19,-421.59 464.09,-410.85 471.18,-401.2"/>
<polygon fill="#63b8ff" stroke="#63b8ff" points="474.02,-403.25 477.13,-393.11 468.38,-399.1 474.02,-403.25"/>
</a>
</g>
</g>
<!-- Node14 -->
<g id="Node000014" class="node">
<title>Node14</title>
<g id="a_Node000014"><a xlink:href="ARenderer_8hpp.html" target="_top" xlink:title=" ">
<polygon fill="white" stroke="#666666" points="476,-321.5 325,-321.5 325,-302.5 476,-302.5 476,-321.5"/>
<text text-anchor="middle" x="400.5" y="-309.5" font-family="Helvetica,sans-Serif" font-size="10.00">../ARenderer/ARenderer.hpp</text>
</a>
</g>
</g>
<!-- Node2&#45;&gt;Node14 -->
<g id="edge41_Node000002_Node000014" class="edge">
<title>Node2&#45;&gt;Node14</title>
<g id="a_edge41_Node000002_Node000014"><a xlink:title=" ">
<path fill="none" stroke="#63b8ff" d="M439.05,-428.94C433.68,-420.2 425.58,-406.09 420.5,-393 412.6,-372.61 407,-348.07 403.78,-331.59"/>
<polygon fill="#63b8ff" stroke="#63b8ff" points="407.19,-330.81 401.92,-321.62 400.31,-332.09 407.19,-330.81"/>
</a>
</g>
</g>
<!-- Node18 -->
<g id="Node000018" class="node">
<title>Node18</title>
<g id="a_Node000018"><a xlink:href="APrimitive_8hpp.html" target="_top" xlink:title=" ">
<polygon fill="white" stroke="#666666" points="798.5,-393 682.5,-393 682.5,-363 798.5,-363 798.5,-393"/>
<text text-anchor="start" x="690.5" y="-381" font-family="Helvetica,sans-Serif" font-size="10.00">Abstracts/APrimitive</text>
<text text-anchor="middle" x="740.5" y="-370" font-family="Helvetica,sans-Serif" font-size="10.00">/APrimitive.hpp</text>
</a>
</g>
</g>
<!-- Node2&#45;&gt;Node18 -->
<g id="edge17_Node000002_Node000018" class="edge">
<title>Node2&#45;&gt;Node18</title>
<g id="a_edge17_Node000002_Node000018"><a xlink:title=" ">
<path fill="none" stroke="#63b8ff" d="M487.54,-428.99C536.02,-419.41 615.45,-403.71 672.38,-392.46"/>
<polygon fill="#63b8ff" stroke="#63b8ff" points="673.24,-395.86 682.38,-390.49 671.89,-388.99 673.24,-395.86"/>
</a>
</g>
</g>
<!-- Node19 -->
<g id="Node000019" class="node">
<title>Node19</title>
<g id="a_Node000019"><a xlink:href="IMaterial_8hpp.html" target="_top" xlink:title=" ">
<polygon fill="white" stroke="#666666" points="584.5,-321.5 494.5,-321.5 494.5,-302.5 584.5,-302.5 584.5,-321.5"/>
<text text-anchor="middle" x="539.5" y="-309.5" font-family="Helvetica,sans-Serif" font-size="10.00">../IMaterial.hpp</text>
</a>
</g>
</g>
<!-- Node2&#45;&gt;Node19 -->
<g id="edge43_Node000002_Node000019" class="edge">
<title>Node2&#45;&gt;Node19</title>
<g id="a_edge43_Node000002_Node000019"><a xlink:title=" ">
<path fill="none" stroke="#63b8ff" d="M496.66,-429.51C518.33,-423.33 541.43,-412.39 554.5,-393 567.11,-374.29 558.16,-347.8 549.63,-330.51"/>
<polygon fill="#63b8ff" stroke="#63b8ff" points="552.63,-328.69 544.83,-321.53 546.46,-331.99 552.63,-328.69"/>
</a>
</g>
</g>
<!-- Node20 -->
<g id="Node000020" class="node">
<title>Node20</title>
<g id="a_Node000020"><a xlink:href="ILight_8hpp.html" target="_top" xlink:title=" ">
<polygon fill="white" stroke="#666666" points="615,-255.5 550,-255.5 550,-236.5 615,-236.5 615,-255.5"/>
<text text-anchor="middle" x="582.5" y="-243.5" font-family="Helvetica,sans-Serif" font-size="10.00">ILight.hpp</text>
</a>
</g>
</g>
<!-- Node2&#45;&gt;Node20 -->
<g id="edge42_Node000002_Node000020" class="edge">
<title>Node2&#45;&gt;Node20</title>
<g id="a_edge42_Node000002_Node000020"><a xlink:title=" ">
<path fill="none" stroke="#63b8ff" d="M496.66,-430.23C522.21,-424.18 551.66,-413.14 571.5,-393 604.86,-359.13 595.35,-296.82 587.8,-265.71"/>
<polygon fill="#63b8ff" stroke="#63b8ff" points="591.11,-264.55 585.19,-255.76 584.34,-266.32 591.11,-264.55"/>
</a>
</g>
</g>
<!-- Node8 -->
<g id="Node000008" class="node">
<title>Node8</title>
<g id="a_Node000008"><a xlink:href="RaytracerException_8hpp.html" target="_top" xlink:title=" ">
<polygon fill="white" stroke="#666666" points="233.5,-327 97.5,-327 97.5,-297 233.5,-297 233.5,-327"/>
<text text-anchor="start" x="105.5" y="-315" font-family="Helvetica,sans-Serif" font-size="10.00">../RaytracerException</text>
<text text-anchor="middle" x="165.5" y="-304" font-family="Helvetica,sans-Serif" font-size="10.00">/RaytracerException.hpp</text>
</a>
</g>
</g>
<!-- Node7&#45;&gt;Node8 -->
<g id="edge7_Node000007_Node000008" class="edge">
<title>Node7&#45;&gt;Node8</title>
<g id="a_edge7_Node000007_Node000008"><a xlink:title=" ">
<path fill="none" stroke="#63b8ff" d="M165.5,-362.8C165.5,-355.34 165.5,-345.99 165.5,-337.41"/>
<polygon fill="#63b8ff" stroke="#63b8ff" points="169,-337.16 165.5,-327.16 162,-337.16 169,-337.16"/>
</a>
</g>
</g>
<!-- Node9 -->
<g id="Node000009" class="node">
<title>Node9</title>
<g id="a_Node000009"><a xlink:title=" ">
<polygon fill="#e0e0e0" stroke="#999999" points="334,-255.5 269,-255.5 269,-236.5 334,-236.5 334,-255.5"/>
<text text-anchor="middle" x="301.5" y="-243.5" font-family="Helvetica,sans-Serif" font-size="10.00">exception</text>
</a>
</g>
</g>
<!-- Node8&#45;&gt;Node9 -->
<g id="edge8_Node000008_Node000009" class="edge">
<title>Node8&#45;&gt;Node9</title>
<g id="a_edge8_Node000008_Node000009"><a xlink:title=" ">
<path fill="none" stroke="#63b8ff" d="M195.35,-296.95C218.88,-285.88 251.43,-270.56 274.27,-259.82"/>
<polygon fill="#63b8ff" stroke="#63b8ff" points="275.84,-262.94 283.4,-255.52 272.86,-256.61 275.84,-262.94"/>
</a>
</g>
</g>
<!-- Node10 -->
<g id="Node000010" class="node">
<title>Node10</title>
<g id="a_Node000010"><a xlink:title=" ">
<polygon fill="#e0e0e0" stroke="#999999" points="77.5,-255.5 17.5,-255.5 17.5,-236.5 77.5,-236.5 77.5,-255.5"/>
<text text-anchor="middle" x="47.5" y="-243.5" font-family="Helvetica,sans-Serif" font-size="10.00">iostream</text>
</a>
</g>
</g>
<!-- Node8&#45;&gt;Node10 -->
<g id="edge9_Node000008_Node000010" class="edge">
<title>Node8&#45;&gt;Node10</title>
<g id="a_edge9_Node000008_Node000010"><a xlink:title=" ">
<path fill="none" stroke="#63b8ff" d="M139.6,-296.95C119.55,-286.08 91.95,-271.11 72.2,-260.4"/>
<polygon fill="#63b8ff" stroke="#63b8ff" points="73.66,-257.21 63.2,-255.52 70.33,-263.36 73.66,-257.21"/>
</a>
</g>
</g>
<!-- Node11 -->
<g id="Node000011" class="node">
<title>Node11</title>
<g id="a_Node000011"><a xlink:title=" ">
<polygon fill="#e0e0e0" stroke="#999999" points="139.5,-255.5 95.5,-255.5 95.5,-236.5 139.5,-236.5 139.5,-255.5"/>
<text text-anchor="middle" x="117.5" y="-243.5" font-family="Helvetica,sans-Serif" font-size="10.00">string</text>
</a>
</g>
</g>
<!-- Node8&#45;&gt;Node11 -->
<g id="edge10_Node000008_Node000011" class="edge">
<title>Node8&#45;&gt;Node11</title>
<g id="a_edge10_Node000008_Node000011"><a xlink:title=" ">
<path fill="none" stroke="#63b8ff" d="M154.85,-296.8C147.58,-287.11 137.93,-274.24 130.26,-264.01"/>
<polygon fill="#63b8ff" stroke="#63b8ff" points="132.93,-261.74 124.13,-255.84 127.33,-265.94 132.93,-261.74"/>
</a>
</g>
</g>
<!-- Node12 -->
<g id="Node000012" class="node">
<title>Node12</title>
<g id="a_Node000012"><a xlink:title=" ">
<polygon fill="#e0e0e0" stroke="#999999" points="251,-255.5 158,-255.5 158,-236.5 251,-236.5 251,-255.5"/>
<text text-anchor="middle" x="204.5" y="-243.5" font-family="Helvetica,sans-Serif" font-size="10.00">source_location</text>
</a>
</g>
</g>
<!-- Node8&#45;&gt;Node12 -->
<g id="edge11_Node000008_Node000012" class="edge">
<title>Node8&#45;&gt;Node12</title>
<g id="a_edge11_Node000008_Node000012"><a xlink:title=" ">
<path fill="none" stroke="#63b8ff" d="M174.16,-296.8C179.94,-287.31 187.58,-274.76 193.76,-264.63"/>
<polygon fill="#63b8ff" stroke="#63b8ff" points="196.9,-266.21 199.11,-255.84 190.92,-262.56 196.9,-266.21"/>
</a>
</g>
</g>
<!-- Node13&#45;&gt;Node14 -->
<g id="edge13_Node000013_Node000014" class="edge">
<title>Node13&#45;&gt;Node14</title>
<g id="a_edge13_Node000013_Node000014"><a xlink:title=" ">
<path fill="none" stroke="#63b8ff" d="M468.19,-362.8C454.01,-352.37 434.81,-338.24 420.48,-327.69"/>
<polygon fill="#63b8ff" stroke="#63b8ff" points="422.4,-324.76 412.27,-321.66 418.25,-330.4 422.4,-324.76"/>
</a>
</g>
</g>
<!-- Node15 -->
<g id="Node000015" class="node">
<title>Node15</title>
<g id="a_Node000015"><a xlink:href="Color_8hpp.html" target="_top" xlink:title=" ">
<polygon fill="white" stroke="#666666" points="567,-189.5 452,-189.5 452,-170.5 567,-170.5 567,-189.5"/>
<text text-anchor="middle" x="509.5" y="-177.5" font-family="Helvetica,sans-Serif" font-size="10.00">../../../Utils/Color.hpp</text>
</a>
</g>
</g>
<!-- Node14&#45;&gt;Node15 -->
<g id="edge14_Node000014_Node000015" class="edge">
<title>Node14&#45;&gt;Node15</title>
<g id="a_edge14_Node000014_Node000015"><a xlink:title=" ">
<path fill="none" stroke="#63b8ff" d="M407.65,-302.47C425.51,-281.17 472.29,-225.38 495.72,-197.44"/>
<polygon fill="#63b8ff" stroke="#63b8ff" points="498.44,-199.64 502.18,-189.73 493.07,-195.15 498.44,-199.64"/>
</a>
</g>
</g>
<!-- Node17 -->
<g id="Node000017" class="node">
<title>Node17</title>
<g id="a_Node000017"><a xlink:title=" ">
<polygon fill="#e0e0e0" stroke="#999999" points="434,-189.5 387,-189.5 387,-170.5 434,-170.5 434,-189.5"/>
<text text-anchor="middle" x="410.5" y="-177.5" font-family="Helvetica,sans-Serif" font-size="10.00">vector</text>
</a>
</g>
</g>
<!-- Node14&#45;&gt;Node17 -->
<g id="edge16_Node000014_Node000017" class="edge">
<title>Node14&#45;&gt;Node17</title>
<g id="a_edge16_Node000014_Node000017"><a xlink:title=" ">
<path fill="none" stroke="#63b8ff" d="M401.16,-302.47C402.74,-281.82 406.83,-228.72 409.04,-200.04"/>
<polygon fill="#63b8ff" stroke="#63b8ff" points="412.55,-199.97 409.83,-189.73 405.57,-199.43 412.55,-199.97"/>
</a>
</g>
</g>
<!-- Node16 -->
<g id="Node000016" class="node">
<title>Node16</title>
<g id="a_Node000016"><a xlink:title=" ">
<polygon fill="#e0e0e0" stroke="#999999" points="622.5,-129 558.5,-129 558.5,-110 622.5,-110 622.5,-129"/>
<text text-anchor="middle" x="590.5" y="-117" font-family="Helvetica,sans-Serif" font-size="10.00">algorithm</text>
</a>
</g>
</g>
<!-- Node15&#45;&gt;Node16 -->
<g id="edge15_Node000015_Node000016" class="edge">
<title>Node15&#45;&gt;Node16</title>
<g id="a_edge15_Node000015_Node000016"><a xlink:title=" ">
<path fill="none" stroke="#63b8ff" d="M521.45,-170.37C534.25,-161.12 554.8,-146.28 570.15,-135.19"/>
<polygon fill="#63b8ff" stroke="#63b8ff" points="572.44,-137.86 578.5,-129.17 568.34,-132.18 572.44,-137.86"/>
</a>
</g>
</g>
<!-- Node18&#45;&gt;Node4 -->
<g id="edge30_Node000018_Node000004" class="edge">
<title>Node18&#45;&gt;Node4</title>
<g id="a_edge30_Node000018_Node000004"><a xlink:title=" ">
<path fill="none" stroke="#63b8ff" d="M730.33,-362.94C723.46,-353.13 714.41,-339.58 707.5,-327 684.99,-286.02 691.02,-269.5 664.5,-231 655.6,-218.08 643.12,-205.59 632.86,-196.33"/>
<polygon fill="#63b8ff" stroke="#63b8ff" points="635.04,-193.6 625.21,-189.65 630.44,-198.87 635.04,-193.6"/>
</a>
</g>
</g>
<!-- Node18&#45;&gt;Node19 -->
<g id="edge18_Node000018_Node000019" class="edge">
<title>Node18&#45;&gt;Node19</title>
<g id="a_edge18_Node000018_Node000019"><a xlink:title=" ">
<path fill="none" stroke="#63b8ff" d="M696.39,-362.95C660.36,-351.48 610.04,-335.46 576.19,-324.68"/>
<polygon fill="#63b8ff" stroke="#63b8ff" points="576.84,-321.22 566.25,-321.52 574.72,-327.89 576.84,-321.22"/>
</a>
</g>
</g>
<!-- Node25 -->
<g id="Node000025" class="node">
<title>Node25</title>
<g id="a_Node000025"><a xlink:title=" ">
<polygon fill="#e0e0e0" stroke="#999999" points="772.5,-321.5 716.5,-321.5 716.5,-302.5 772.5,-302.5 772.5,-321.5"/>
<text text-anchor="middle" x="744.5" y="-309.5" font-family="Helvetica,sans-Serif" font-size="10.00">optional</text>
</a>
</g>
</g>
<!-- Node18&#45;&gt;Node25 -->
<g id="edge31_Node000018_Node000025" class="edge">
<title>Node18&#45;&gt;Node25</title>
<g id="a_edge31_Node000018_Node000025"><a xlink:title=" ">
<path fill="none" stroke="#63b8ff" d="M741.39,-362.8C741.96,-353.7 742.7,-341.79 743.32,-331.9"/>
<polygon fill="#63b8ff" stroke="#63b8ff" points="746.82,-332.04 743.95,-321.84 739.83,-331.61 746.82,-332.04"/>
</a>
</g>
</g>
<!-- Node26 -->
<g id="Node000026" class="node">
<title>Node26</title>
<g id="a_Node000026"><a xlink:href="AABB_8hpp.html" target="_top" xlink:title=" ">
<polygon fill="white" stroke="#666666" points="959.5,-261 837.5,-261 837.5,-231 959.5,-231 959.5,-261"/>
<text text-anchor="start" x="845.5" y="-249" font-family="Helvetica,sans-Serif" font-size="10.00">../../../Geometry/AABB</text>
<text text-anchor="middle" x="898.5" y="-238" font-family="Helvetica,sans-Serif" font-size="10.00">/AABB.hpp</text>
</a>
</g>
</g>
<!-- Node18&#45;&gt;Node26 -->
<g id="edge32_Node000018_Node000026" class="edge">
<title>Node18&#45;&gt;Node26</title>
<g id="a_edge32_Node000018_Node000026"><a xlink:title=" ">
<path fill="none" stroke="#63b8ff" d="M757.71,-362.84C785.61,-339.88 840.84,-294.44 873.22,-267.8"/>
<polygon fill="#63b8ff" stroke="#63b8ff" points="875.81,-270.2 881.31,-261.14 871.37,-264.79 875.81,-270.2"/>
</a>
</g>
</g>
<!-- Node29 -->
<g id="Node000029" class="node">
<title>Node29</title>
<g id="a_Node000029"><a xlink:href="Ray_8hpp.html" target="_top" xlink:title="Ray primitive used to represent a parametric line (origin + direction).">
<polygon fill="white" stroke="#666666" points="1103.5,-189.5 1017.5,-189.5 1017.5,-170.5 1103.5,-170.5 1103.5,-189.5"/>
<text text-anchor="middle" x="1060.5" y="-177.5" font-family="Helvetica,sans-Serif" font-size="10.00">../Ray/Ray.hpp</text>
</a>
</g>
</g>
<!-- Node18&#45;&gt;Node29 -->
<g id="edge40_Node000018_Node000029" class="edge">
<title>Node18&#45;&gt;Node29</title>
<g id="a_edge40_Node000018_Node000029"><a xlink:title=" ">
<path fill="none" stroke="#63b8ff" d="M774.39,-362.9C820.23,-343.14 903.69,-304.7 968.5,-261 997.42,-241.5 1027.22,-213.97 1044.79,-196.81"/>
<polygon fill="#63b8ff" stroke="#63b8ff" points="1047.31,-199.25 1051.96,-189.73 1042.39,-194.27 1047.31,-199.25"/>
</a>
</g>
</g>
<!-- Node19&#45;&gt;Node15 -->
<g id="edge19_Node000019_Node000015" class="edge">
<title>Node19&#45;&gt;Node15</title>
<g id="a_edge19_Node000019_Node000015"><a xlink:title=" ">
<path fill="none" stroke="#63b8ff" d="M537.53,-302.47C532.74,-281.73 520.4,-228.24 513.81,-199.66"/>
<polygon fill="#63b8ff" stroke="#63b8ff" points="517.17,-198.69 511.51,-189.73 510.35,-200.26 517.17,-198.69"/>
</a>
</g>
</g>
<!-- Node19&#45;&gt;Node17 -->
<g id="edge29_Node000019_Node000017" class="edge">
<title>Node19&#45;&gt;Node17</title>
<g id="a_edge29_Node000019_Node000017"><a xlink:title=" ">
<path fill="none" stroke="#63b8ff" d="M531.04,-302.47C509.81,-281.08 454.06,-224.9 426.46,-197.08"/>
<polygon fill="#63b8ff" stroke="#63b8ff" points="428.69,-194.36 419.16,-189.73 423.72,-199.3 428.69,-194.36"/>
</a>
</g>
</g>
<!-- Node19&#45;&gt;Node20 -->
<g id="edge20_Node000019_Node000020" class="edge">
<title>Node19&#45;&gt;Node20</title>
<g id="a_edge20_Node000019_Node000020"><a xlink:title=" ">
<path fill="none" stroke="#63b8ff" d="M545.3,-302.37C551.8,-292.69 562.52,-276.74 570.78,-264.44"/>
<polygon fill="#63b8ff" stroke="#63b8ff" points="573.85,-266.16 576.52,-255.91 568.03,-262.25 573.85,-266.16"/>
</a>
</g>
</g>
<!-- Node20&#45;&gt;Node4 -->
<g id="edge28_Node000020_Node000004" class="edge">
<title>Node20&#45;&gt;Node4</title>
<g id="a_edge28_Node000020_Node000004"><a xlink:title=" ">
<path fill="none" stroke="#63b8ff" d="M586.82,-236.37C591.56,-226.88 599.32,-211.36 605.42,-199.16"/>
<polygon fill="#63b8ff" stroke="#63b8ff" points="608.71,-200.41 610.05,-189.91 602.44,-197.28 608.71,-200.41"/>
</a>
</g>
</g>
<!-- Node20&#45;&gt;Node15 -->
<g id="edge26_Node000020_Node000015" class="edge">
<title>Node20&#45;&gt;Node15</title>
<g id="a_edge26_Node000020_Node000015"><a xlink:title=" ">
<path fill="none" stroke="#63b8ff" d="M572.65,-236.37C561.07,-226.21 541.62,-209.16 527.36,-196.65"/>
<polygon fill="#63b8ff" stroke="#63b8ff" points="529.48,-193.87 519.66,-189.91 524.87,-199.13 529.48,-193.87"/>
</a>
</g>
</g>
<!-- Node20&#45;&gt;Node17 -->
<g id="edge27_Node000020_Node000017" class="edge">
<title>Node20&#45;&gt;Node17</title>
<g id="a_edge27_Node000020_Node000017"><a xlink:title=" ">
<path fill="none" stroke="#63b8ff" d="M557.49,-236.47C529.54,-226.84 483.02,-210.48 443.5,-195 442.29,-194.53 441.07,-194.04 439.83,-193.54"/>
<polygon fill="#63b8ff" stroke="#63b8ff" points="440.9,-190.2 430.32,-189.62 438.23,-196.67 440.9,-190.2"/>
</a>
</g>
</g>
<!-- Node21 -->
<g id="Node000021" class="node">
<title>Node21</title>
<g id="a_Node000021"><a xlink:href="HitRecord_8hpp.html" target="_top" xlink:title=" ">
<polygon fill="white" stroke="#666666" points="833.5,-195 699.5,-195 699.5,-165 833.5,-165 833.5,-195"/>
<text text-anchor="start" x="707.5" y="-183" font-family="Helvetica,sans-Serif" font-size="10.00">../../Geometry/HitRecord</text>
<text text-anchor="middle" x="766.5" y="-172" font-family="Helvetica,sans-Serif" font-size="10.00">/HitRecord.hpp</text>
</a>
</g>
</g>
<!-- Node20&#45;&gt;Node21 -->
<g id="edge21_Node000020_Node000021" class="edge">
<title>Node20&#45;&gt;Node21</title>
<g id="a_edge21_Node000020_Node000021"><a xlink:title=" ">
<path fill="none" stroke="#63b8ff" d="M607.32,-236.37C635.11,-226.7 680.9,-210.77 716.25,-198.48"/>
<polygon fill="#63b8ff" stroke="#63b8ff" points="717.62,-201.71 725.92,-195.12 715.32,-195.1 717.62,-201.71"/>
</a>
</g>
</g>
<!-- Node22 -->
<g id="Node000022" class="node">
<title>Node22</title>
<g id="a_Node000022"><a xlink:href="Point3D_8hpp.html" target="_top" xlink:title=" ">
<polygon fill="white" stroke="#666666" points="986.5,-129 860.5,-129 860.5,-110 986.5,-110 986.5,-129"/>
<text text-anchor="middle" x="923.5" y="-117" font-family="Helvetica,sans-Serif" font-size="10.00">../Point3D/Point3D.hpp</text>
</a>
</g>
</g>
<!-- Node21&#45;&gt;Node22 -->
<g id="edge22_Node000021_Node000022" class="edge">
<title>Node21&#45;&gt;Node22</title>
<g id="a_edge22_Node000021_Node000022"><a xlink:title=" ">
<path fill="none" stroke="#63b8ff" d="M804.11,-164.99C830.53,-155.14 865.54,-142.1 890.81,-132.68"/>
<polygon fill="#63b8ff" stroke="#63b8ff" points="892.17,-135.91 900.31,-129.14 889.72,-129.35 892.17,-135.91"/>
</a>
</g>
</g>
<!-- Node23 -->
<g id="Node000023" class="node">
<title>Node23</title>
<g id="a_Node000023"><a xlink:href="Vector3D_8hpp.html" target="_top" xlink:title=" ">
<polygon fill="white" stroke="#666666" points="992.5,-74 854.5,-74 854.5,-55 992.5,-55 992.5,-74"/>
<text text-anchor="middle" x="923.5" y="-62" font-family="Helvetica,sans-Serif" font-size="10.00">../Vector3D/Vector3D.hpp</text>
</a>
</g>
</g>
<!-- Node21&#45;&gt;Node23 -->
<g id="edge25_Node000021_Node000023" class="edge">
<title>Node21&#45;&gt;Node23</title>
<g id="a_edge25_Node000021_Node000023"><a xlink:title=" ">
<path fill="none" stroke="#63b8ff" d="M782.62,-164.87C799.37,-150.45 826.55,-127.72 851.5,-110 867.03,-98.97 885.29,-87.7 899.53,-79.26"/>
<polygon fill="#63b8ff" stroke="#63b8ff" points="901.39,-82.23 908.25,-74.16 897.85,-76.19 901.39,-82.23"/>
</a>
</g>
</g>
<!-- Node22&#45;&gt;Node23 -->
<g id="edge23_Node000022_Node000023" class="edge">
<title>Node22&#45;&gt;Node23</title>
<g id="a_edge23_Node000022_Node000023"><a xlink:title=" ">
<path fill="none" stroke="#63b8ff" d="M923.5,-109.75C923.5,-102.8 923.5,-92.85 923.5,-84.13"/>
<polygon fill="#63b8ff" stroke="#63b8ff" points="927,-84.09 923.5,-74.09 920,-84.09 927,-84.09"/>
</a>
</g>
</g>
<!-- Node24 -->
<g id="Node000024" class="node">
<title>Node24</title>
<g id="a_Node000024"><a xlink:title=" ">
<polygon fill="#e0e0e0" stroke="#999999" points="949,-19 898,-19 898,0 949,0 949,-19"/>
<text text-anchor="middle" x="923.5" y="-7" font-family="Helvetica,sans-Serif" font-size="10.00">math.h</text>
</a>
</g>
</g>
<!-- Node23&#45;&gt;Node24 -->
<g id="edge24_Node000023_Node000024" class="edge">
<title>Node23&#45;&gt;Node24</title>
<g id="a_edge24_Node000023_Node000024"><a xlink:title=" ">
<path fill="none" stroke="#63b8ff" d="M923.5,-54.75C923.5,-47.8 923.5,-37.85 923.5,-29.13"/>
<polygon fill="#63b8ff" stroke="#63b8ff" points="927,-29.09 923.5,-19.09 920,-29.09 927,-29.09"/>
</a>
</g>
</g>
<!-- Node26&#45;&gt;Node16 -->
<g id="edge33_Node000026_Node000016" class="edge">
<title>Node26&#45;&gt;Node16</title>
<g id="a_edge33_Node000026_Node000016"><a xlink:title=" ">
<path fill="none" stroke="#63b8ff" d="M837.43,-237.42C794.68,-230.45 737.1,-217.63 690.5,-195 671.14,-185.6 669.69,-177.94 652.5,-165 639,-154.84 623.57,-143.76 611.48,-135.2"/>
<polygon fill="#63b8ff" stroke="#63b8ff" points="613.16,-132.1 602.97,-129.2 609.13,-137.82 613.16,-132.1"/>
</a>
</g>
</g>
<!-- Node26&#45;&gt;Node22 -->
<g id="edge36_Node000026_Node000022" class="edge">
<title>Node26&#45;&gt;Node22</title>
<g id="a_edge36_Node000026_Node000022"><a xlink:title=" ">
<path fill="none" stroke="#63b8ff" d="M901.37,-230.72C905.91,-208.12 914.74,-164.12 919.77,-139.09"/>
<polygon fill="#63b8ff" stroke="#63b8ff" points="923.24,-139.56 921.78,-129.07 916.38,-138.18 923.24,-139.56"/>
</a>
</g>
</g>
<!-- Node27 -->
<g id="Node000027" class="node">
<title>Node27</title>
<g id="a_Node000027"><a xlink:title=" ">
<polygon fill="#e0e0e0" stroke="#999999" points="999,-189.5 952,-189.5 952,-170.5 999,-170.5 999,-189.5"/>
<text text-anchor="middle" x="975.5" y="-177.5" font-family="Helvetica,sans-Serif" font-size="10.00">cmath</text>
</a>
</g>
</g>
<!-- Node26&#45;&gt;Node27 -->
<g id="edge34_Node000026_Node000027" class="edge">
<title>Node26&#45;&gt;Node27</title>
<g id="a_edge34_Node000026_Node000027"><a xlink:title=" ">
<path fill="none" stroke="#63b8ff" d="M915.59,-230.8C927.83,-220.62 944.3,-206.93 956.88,-196.48"/>
<polygon fill="#63b8ff" stroke="#63b8ff" points="959.41,-198.93 964.86,-189.84 954.93,-193.54 959.41,-198.93"/>
</a>
</g>
</g>
<!-- Node28 -->
<g id="Node000028" class="node">
<title>Node28</title>
<g id="a_Node000028"><a xlink:title=" ">
<polygon fill="#e0e0e0" stroke="#999999" points="895.5,-189.5 851.5,-189.5 851.5,-170.5 895.5,-170.5 895.5,-189.5"/>
<text text-anchor="middle" x="873.5" y="-177.5" font-family="Helvetica,sans-Serif" font-size="10.00">limits</text>
</a>
</g>
</g>
<!-- Node26&#45;&gt;Node28 -->
<g id="edge35_Node000026_Node000028" class="edge">
<title>Node26&#45;&gt;Node28</title>
<g id="a_edge35_Node000026_Node000028"><a xlink:title=" ">
<path fill="none" stroke="#63b8ff" d="M892.95,-230.8C889.32,-221.5 884.54,-209.27 880.63,-199.26"/>
<polygon fill="#63b8ff" stroke="#63b8ff" points="883.85,-197.89 876.95,-189.84 877.33,-200.43 883.85,-197.89"/>
</a>
</g>
</g>
<!-- Node26&#45;&gt;Node29 -->
<g id="edge37_Node000026_Node000029" class="edge">
<title>Node26&#45;&gt;Node29</title>
<g id="a_edge37_Node000026_Node000029"><a xlink:title=" ">
<path fill="none" stroke="#63b8ff" d="M934.05,-230.95C962.59,-219.68 1002.25,-204.01 1029.5,-193.25"/>
<polygon fill="#63b8ff" stroke="#63b8ff" points="1030.93,-196.45 1038.94,-189.52 1028.35,-189.94 1030.93,-196.45"/>
</a>
</g>
</g>
<!-- Node29&#45;&gt;Node22 -->
<g id="edge38_Node000029_Node000022" class="edge">
<title>Node29&#45;&gt;Node22</title>
<g id="a_edge38_Node000029_Node000022"><a xlink:title=" ">
<path fill="none" stroke="#63b8ff" d="M1040.58,-170.49C1017.55,-160.66 979.42,-144.38 952.96,-133.08"/>
<polygon fill="#63b8ff" stroke="#63b8ff" points="954.02,-129.72 943.45,-129.02 951.27,-136.16 954.02,-129.72"/>
</a>
</g>
</g>
<!-- Node29&#45;&gt;Node23 -->
<g id="edge39_Node000029_Node000023" class="edge">
<title>Node29&#45;&gt;Node23</title>
<g id="a_edge39_Node000029_Node000023"><a xlink:title=" ">
<path fill="none" stroke="#63b8ff" d="M1053.53,-170.24C1042.28,-156.41 1018.96,-129.14 995.5,-110 981.02,-98.19 963.17,-87.13 948.86,-78.99"/>
<polygon fill="#63b8ff" stroke="#63b8ff" points="950.48,-75.89 940.04,-74.09 947.08,-82.01 950.48,-75.89"/>
</a>
</g>
</g>
</g>
</svg>
