<?xml version="1.0" encoding="UTF-8" standalone="no"?>
<!DOCTYPE svg PUBLIC "-//W3C//DTD SVG 1.1//EN"
 "http://www.w3.org/Graphics/SVG/1.1/DTD/svg11.dtd">
<!-- Generated by graphviz version 2.43.0 (0)
 -->
<!-- Title: src/Objects/Plugins/LivescenePlugin/Interfaces/Livescene/Livescene.cpp Pages: 1 -->
<svg width="1598pt" height="643pt"
 viewBox="0.00 0.00 1598.00 643.00" xmlns="http://www.w3.org/2000/svg" xmlns:xlink="http://www.w3.org/1999/xlink">
<g id="graph0" class="graph" transform="scale(1 1) rotate(0) translate(4 639)">
<title>src/Objects/Plugins/LivescenePlugin/Interfaces/Livescene/Livescene.cpp</title>
<!-- Node1 -->
<g id="Node000001" class="node">
<title>Node1</title>
<g id="a_Node000001"><a xlink:title=" ">
<polygon fill="#999999" stroke="#666666" points="413,-635 263,-635 263,-594 413,-594 413,-635"/>
<text text-anchor="start" x="271" y="-623" font-family="Helvetica,sans-Serif" font-size="10.00">src/Objects/Plugins</text>
<text text-anchor="start" x="271" y="-612" font-family="Helvetica,sans-Serif" font-size="10.00">/LivescenePlugin/Interfaces</text>
<text text-anchor="middle" x="338" y="-601" font-family="Helvetica,sans-Serif" font-size="10.00">/Livescene/Livescene.cpp</text>
</a>
</g>
</g>
<!-- Node2 -->
<g id="Node000002" class="node">
<title>Node2</title>
<g id="a_Node000002"><a xlink:href="Livescene_8hpp.html" target="_top" xlink:title=" ">
<polygon fill="white" stroke="#666666" points="310,-552.5 224,-552.5 224,-533.5 310,-533.5 310,-552.5"/>
<text text-anchor="middle" x="267" y="-540.5" font-family="Helvetica,sans-Serif" font-size="10.00">Livescene.hpp</text>
</a>
</g>
</g>
<!-- Node1&#45;&gt;Node2 -->
<g id="edge1_Node000001_Node000002" class="edge">
<title>Node1&#45;&gt;Node2</title>
<g id="a_edge1_Node000001_Node000002"><a xlink:title=" ">
<path fill="none" stroke="#63b8ff" d="M317.84,-593.77C306.87,-583.02 293.47,-569.91 283.18,-559.84"/>
<polygon fill="#63b8ff" stroke="#63b8ff" points="285.6,-557.31 276.01,-552.82 280.71,-562.32 285.6,-557.31"/>
</a>
</g>
</g>
<!-- Node16 -->
<g id="Node000016" class="node">
<title>Node16</title>
<g id="a_Node000016"><a xlink:href="Color_8hpp.html" target="_top" xlink:title=" ">
<polygon fill="white" stroke="#666666" points="798.5,-189.5 683.5,-189.5 683.5,-170.5 798.5,-170.5 798.5,-189.5"/>
<text text-anchor="middle" x="741" y="-177.5" font-family="Helvetica,sans-Serif" font-size="10.00">../../../Utils/Color.hpp</text>
</a>
</g>
</g>
<!-- Node1&#45;&gt;Node16 -->
<g id="edge69_Node000001_Node000016" class="edge">
<title>Node1&#45;&gt;Node16</title>
<g id="a_edge69_Node000001_Node000016"><a xlink:title=" ">
<path fill="none" stroke="#63b8ff" d="M262.75,-607.36C169.19,-595.86 25.4,-563.36 57,-473 104.39,-337.47 138.52,-286.34 271,-231 436.93,-161.69 496.13,-221.44 674,-195 680.4,-194.05 687.11,-192.87 693.71,-191.6"/>
<polygon fill="#63b8ff" stroke="#63b8ff" points="694.81,-194.95 703.93,-189.55 693.44,-188.09 694.81,-194.95"/>
</a>
</g>
</g>
<!-- Node17 -->
<g id="Node000017" class="node">
<title>Node17</title>
<g id="a_Node000017"><a xlink:title=" ">
<polygon fill="#e0e0e0" stroke="#999999" points="315,-129 251,-129 251,-110 315,-110 315,-129"/>
<text text-anchor="middle" x="283" y="-117" font-family="Helvetica,sans-Serif" font-size="10.00">algorithm</text>
</a>
</g>
</g>
<!-- Node1&#45;&gt;Node17 -->
<g id="edge70_Node000001_Node000017" class="edge">
<title>Node1&#45;&gt;Node17</title>
<g id="a_edge70_Node000001_Node000017"><a xlink:title=" ">
<path fill="none" stroke="#63b8ff" d="M262.97,-612.7C203.41,-608.9 120.12,-596.3 58,-558 22.28,-535.98 0,-525.46 0,-483.5 0,-483.5 0,-483.5 0,-239.5 0,-136.33 161.78,-121.15 240.7,-119.87"/>
<polygon fill="#63b8ff" stroke="#63b8ff" points="240.84,-123.37 250.81,-119.78 240.78,-116.37 240.84,-123.37"/>
</a>
</g>
</g>
<!-- Node26 -->
<g id="Node000026" class="node">
<title>Node26</title>
<g id="a_Node000026"><a xlink:title=" ">
<polygon fill="#e0e0e0" stroke="#999999" points="271,-310.5 215,-310.5 215,-291.5 271,-291.5 271,-310.5"/>
<text text-anchor="middle" x="243" y="-298.5" font-family="Helvetica,sans-Serif" font-size="10.00">optional</text>
</a>
</g>
</g>
<!-- Node1&#45;&gt;Node26 -->
<g id="edge73_Node000001_Node000026" class="edge">
<title>Node1&#45;&gt;Node26</title>
<g id="a_edge73_Node000001_Node000026"><a xlink:title=" ">
<path fill="none" stroke="#63b8ff" d="M337.7,-593.88C336.76,-566.21 333.06,-514.5 319,-473 304.05,-428.88 285.37,-424.81 267,-382 258.27,-361.65 251.41,-337.1 247.3,-320.61"/>
<polygon fill="#63b8ff" stroke="#63b8ff" points="250.64,-319.54 244.91,-310.63 243.84,-321.17 250.64,-319.54"/>
</a>
</g>
</g>
<!-- Node34 -->
<g id="Node000034" class="node">
<title>Node34</title>
<g id="a_Node000034"><a xlink:href="Scene_8hpp.html" target="_top" xlink:title="Scene container and ray query interface used by renderers.">
<polygon fill="white" stroke="#666666" points="554,-558 426,-558 426,-528 554,-528 554,-558"/>
<text text-anchor="start" x="434" y="-546" font-family="Helvetica,sans-Serif" font-size="10.00">../../../../../SceneSystem</text>
<text text-anchor="middle" x="490" y="-535" font-family="Helvetica,sans-Serif" font-size="10.00">/Scene/Scene.hpp</text>
</a>
</g>
</g>
<!-- Node1&#45;&gt;Node34 -->
<g id="edge48_Node000001_Node000034" class="edge">
<title>Node1&#45;&gt;Node34</title>
<g id="a_edge48_Node000001_Node000034"><a xlink:title=" ">
<path fill="none" stroke="#63b8ff" d="M380.74,-593.96C402.47,-584.02 428.71,-572.03 450.02,-562.28"/>
<polygon fill="#63b8ff" stroke="#63b8ff" points="451.5,-565.45 459.13,-558.11 448.58,-559.09 451.5,-565.45"/>
</a>
</g>
</g>
<!-- Node39 -->
<g id="Node000039" class="node">
<title>Node39</title>
<g id="a_Node000039"><a xlink:title=" ">
<polygon fill="#e0e0e0" stroke="#999999" points="622,-552.5 572,-552.5 572,-533.5 622,-533.5 622,-552.5"/>
<text text-anchor="middle" x="597" y="-540.5" font-family="Helvetica,sans-Serif" font-size="10.00">chrono</text>
</a>
</g>
</g>
<!-- Node1&#45;&gt;Node39 -->
<g id="edge71_Node000001_Node000039" class="edge">
<title>Node1&#45;&gt;Node39</title>
<g id="a_edge71_Node000001_Node000039"><a xlink:title=" ">
<path fill="none" stroke="#63b8ff" d="M413.02,-597.93C457.15,-588.05 513.77,-574.11 563,-558 564.67,-557.45 566.37,-556.86 568.08,-556.25"/>
<polygon fill="#63b8ff" stroke="#63b8ff" points="569.7,-559.37 577.77,-552.5 567.18,-552.84 569.7,-559.37"/>
</a>
</g>
</g>
<!-- Node40 -->
<g id="Node000040" class="node">
<title>Node40</title>
<g id="a_Node000040"><a xlink:title=" ">
<polygon fill="#e0e0e0" stroke="#999999" points="690,-552.5 640,-552.5 640,-533.5 690,-533.5 690,-552.5"/>
<text text-anchor="middle" x="665" y="-540.5" font-family="Helvetica,sans-Serif" font-size="10.00">cstdint</text>
</a>
</g>
</g>
<!-- Node1&#45;&gt;Node40 -->
<g id="edge72_Node000001_Node000040" class="edge">
<title>Node1&#45;&gt;Node40</title>
<g id="a_edge72_Node000001_Node000040"><a xlink:title=" ">
<path fill="none" stroke="#63b8ff" d="M413.06,-603.58C472.85,-594.66 558.3,-579.61 631,-558 632.88,-557.44 634.8,-556.81 636.72,-556.14"/>
<polygon fill="#63b8ff" stroke="#63b8ff" points="638.08,-559.37 646.18,-552.54 635.59,-552.83 638.08,-559.37"/>
</a>
</g>
</g>
<!-- Node3 -->
<g id="Node000003" class="node">
<title>Node3</title>
<g id="a_Node000003"><a xlink:href="Plugin_8hpp.html" target="_top" xlink:title=" ">
<polygon fill="white" stroke="#666666" points="962,-437 858,-437 858,-418 962,-418 962,-437"/>
<text text-anchor="middle" x="910" y="-425" font-family="Helvetica,sans-Serif" font-size="10.00">../../../../Plugin.hpp</text>
</a>
</g>
</g>
<!-- Node2&#45;&gt;Node3 -->
<g id="edge2_Node000002_Node000003" class="edge">
<title>Node2&#45;&gt;Node3</title>
<g id="a_edge2_Node000002_Node000003"><a xlink:title=" ">
<path fill="none" stroke="#63b8ff" d="M310.19,-534.38C422.59,-514.54 724.33,-461.27 851.85,-438.77"/>
<polygon fill="#63b8ff" stroke="#63b8ff" points="852.58,-442.19 861.81,-437.01 851.36,-435.3 852.58,-442.19"/>
</a>
</g>
</g>
<!-- Node31 -->
<g id="Node000031" class="node">
<title>Node31</title>
<g id="a_Node000031"><a xlink:title=" ">
<polygon fill="#e0e0e0" stroke="#999999" points="244,-492 194,-492 194,-473 244,-473 244,-492"/>
<text text-anchor="middle" x="219" y="-480" font-family="Helvetica,sans-Serif" font-size="10.00">atomic</text>
</a>
</g>
</g>
<!-- Node2&#45;&gt;Node31 -->
<g id="edge45_Node000002_Node000031" class="edge">
<title>Node2&#45;&gt;Node31</title>
<g id="a_edge45_Node000002_Node000031"><a xlink:title=" ">
<path fill="none" stroke="#63b8ff" d="M259.92,-533.37C252.76,-524.64 241.51,-510.93 232.61,-500.09"/>
<polygon fill="#63b8ff" stroke="#63b8ff" points="235.16,-497.68 226.11,-492.17 229.75,-502.12 235.16,-497.68"/>
</a>
</g>
</g>
<!-- Node32 -->
<g id="Node000032" class="node">
<title>Node32</title>
<g id="a_Node000032"><a xlink:title=" ">
<polygon fill="#e0e0e0" stroke="#999999" points="310,-492 262,-492 262,-473 310,-473 310,-492"/>
<text text-anchor="middle" x="286" y="-480" font-family="Helvetica,sans-Serif" font-size="10.00">thread</text>
</a>
</g>
</g>
<!-- Node2&#45;&gt;Node32 -->
<g id="edge46_Node000002_Node000032" class="edge">
<title>Node2&#45;&gt;Node32</title>
<g id="a_edge46_Node000002_Node000032"><a xlink:title=" ">
<path fill="none" stroke="#63b8ff" d="M269.8,-533.37C272.5,-525.07 276.65,-512.28 280.08,-501.72"/>
<polygon fill="#63b8ff" stroke="#63b8ff" points="283.42,-502.76 283.18,-492.17 276.77,-500.6 283.42,-502.76"/>
</a>
</g>
</g>
<!-- Node33 -->
<g id="Node000033" class="node">
<title>Node33</title>
<g id="a_Node000033"><a xlink:title=" ">
<polygon fill="#e0e0e0" stroke="#999999" points="176,-492 66,-492 66,-473 176,-473 176,-492"/>
<text text-anchor="middle" x="121" y="-480" font-family="Helvetica,sans-Serif" font-size="10.00">SFML/Graphics.hpp</text>
</a>
</g>
</g>
<!-- Node2&#45;&gt;Node33 -->
<g id="edge47_Node000002_Node000033" class="edge">
<title>Node2&#45;&gt;Node33</title>
<g id="a_edge47_Node000002_Node000033"><a xlink:title=" ">
<path fill="none" stroke="#63b8ff" d="M245.77,-533.49C221.01,-523.57 179.88,-507.09 151.65,-495.78"/>
<polygon fill="#63b8ff" stroke="#63b8ff" points="152.84,-492.49 142.26,-492.02 150.24,-498.99 152.84,-492.49"/>
</a>
</g>
</g>
<!-- Node4 -->
<g id="Node000004" class="node">
<title>Node4</title>
<g id="a_Node000004"><a xlink:title=" ">
<polygon fill="#e0e0e0" stroke="#999999" points="767.5,-376.5 702.5,-376.5 702.5,-357.5 767.5,-357.5 767.5,-376.5"/>
<text text-anchor="middle" x="735" y="-364.5" font-family="Helvetica,sans-Serif" font-size="10.00">functional</text>
</a>
</g>
</g>
<!-- Node3&#45;&gt;Node4 -->
<g id="edge3_Node000003_Node000004" class="edge">
<title>Node3&#45;&gt;Node4</title>
<g id="a_edge3_Node000003_Node000004"><a xlink:title=" ">
<path fill="none" stroke="#63b8ff" d="M884.55,-417.99C854.36,-407.9 803.84,-391.01 769.98,-379.69"/>
<polygon fill="#63b8ff" stroke="#63b8ff" points="771.07,-376.37 760.48,-376.52 768.85,-383.01 771.07,-376.37"/>
</a>
</g>
</g>
<!-- Node5 -->
<g id="Node000005" class="node">
<title>Node5</title>
<g id="a_Node000005"><a xlink:title=" ">
<polygon fill="#e0e0e0" stroke="#999999" points="665,-189.5 607,-189.5 607,-170.5 665,-170.5 665,-189.5"/>
<text text-anchor="middle" x="636" y="-177.5" font-family="Helvetica,sans-Serif" font-size="10.00">memory</text>
</a>
</g>
</g>
<!-- Node3&#45;&gt;Node5 -->
<g id="edge4_Node000003_Node000005" class="edge">
<title>Node3&#45;&gt;Node5</title>
<g id="a_edge4_Node000003_Node000005"><a xlink:title=" ">
<path fill="none" stroke="#63b8ff" d="M896.21,-417.97C882.02,-409.13 859.31,-394.84 840,-382 797.19,-353.54 781.05,-352.65 745,-316 713.1,-283.57 717.23,-265.85 688,-231 677.59,-218.58 664.41,-205.94 653.93,-196.48"/>
<polygon fill="#63b8ff" stroke="#63b8ff" points="656.01,-193.65 646.21,-189.63 651.37,-198.88 656.01,-193.65"/>
</a>
</g>
</g>
<!-- Node6 -->
<g id="Node000006" class="node">
<title>Node6</title>
<g id="a_Node000006"><a xlink:title=" ">
<polygon fill="#e0e0e0" stroke="#999999" points="1123.5,-376.5 1072.5,-376.5 1072.5,-357.5 1123.5,-357.5 1123.5,-376.5"/>
<text text-anchor="middle" x="1098" y="-364.5" font-family="Helvetica,sans-Serif" font-size="10.00">variant</text>
</a>
</g>
</g>
<!-- Node3&#45;&gt;Node6 -->
<g id="edge5_Node000003_Node000006" class="edge">
<title>Node3&#45;&gt;Node6</title>
<g id="a_edge5_Node000003_Node000006"><a xlink:title=" ">
<path fill="none" stroke="#63b8ff" d="M942.82,-417.95C974,-409.59 1022.07,-396.1 1063,-382 1064.62,-381.44 1066.27,-380.85 1067.93,-380.25"/>
<polygon fill="#63b8ff" stroke="#63b8ff" points="1069.3,-383.47 1077.4,-376.63 1066.81,-376.93 1069.3,-383.47"/>
</a>
</g>
</g>
<!-- Node7 -->
<g id="Node000007" class="node">
<title>Node7</title>
<g id="a_Node000007"><a xlink:title=" ">
<polygon fill="#e0e0e0" stroke="#999999" points="1180,-376.5 1142,-376.5 1142,-357.5 1180,-357.5 1180,-376.5"/>
<text text-anchor="middle" x="1161" y="-364.5" font-family="Helvetica,sans-Serif" font-size="10.00">map</text>
</a>
</g>
</g>
<!-- Node3&#45;&gt;Node7 -->
<g id="edge6_Node000003_Node000007" class="edge">
<title>Node3&#45;&gt;Node7</title>
<g id="a_edge6_Node000003_Node000007"><a xlink:title=" ">
<path fill="none" stroke="#63b8ff" d="M962.4,-420.07C1008.26,-413.5 1076.24,-401.46 1133,-382 1134.05,-381.64 1135.12,-381.25 1136.19,-380.83"/>
<polygon fill="#63b8ff" stroke="#63b8ff" points="1137.92,-383.89 1145.62,-376.61 1135.06,-377.5 1137.92,-383.89"/>
</a>
</g>
</g>
<!-- Node8 -->
<g id="Node000008" class="node">
<title>Node8</title>
<g id="a_Node000008"><a xlink:href="ParsingException_8hpp.html" target="_top" xlink:title=" ">
<polygon fill="white" stroke="#666666" points="1401.5,-382 1236.5,-382 1236.5,-352 1401.5,-352 1401.5,-382"/>
<text text-anchor="start" x="1244.5" y="-370" font-family="Helvetica,sans-Serif" font-size="10.00">../Exceptions/ParsingException</text>
<text text-anchor="middle" x="1319" y="-359" font-family="Helvetica,sans-Serif" font-size="10.00">/ParsingException.hpp</text>
</a>
</g>
</g>
<!-- Node3&#45;&gt;Node8 -->
<g id="edge7_Node000003_Node000008" class="edge">
<title>Node3&#45;&gt;Node8</title>
<g id="a_edge7_Node000003_Node000008"><a xlink:title=" ">
<path fill="none" stroke="#63b8ff" d="M962.17,-419.09C1024.13,-410.27 1130.6,-395.11 1222,-382 1223.47,-381.79 1224.96,-381.58 1226.46,-381.36"/>
<polygon fill="#63b8ff" stroke="#63b8ff" points="1227.05,-384.81 1236.45,-379.92 1226.05,-377.88 1227.05,-384.81"/>
</a>
</g>
</g>
<!-- Node14 -->
<g id="Node000014" class="node">
<title>Node14</title>
<g id="a_Node000014"><a xlink:href="AInterface_8hpp.html" target="_top" xlink:title=" ">
<polygon fill="white" stroke="#666666" points="1054,-382 938,-382 938,-352 1054,-352 1054,-382"/>
<text text-anchor="start" x="946" y="-370" font-family="Helvetica,sans-Serif" font-size="10.00">Abstracts/AInterface</text>
<text text-anchor="middle" x="996" y="-359" font-family="Helvetica,sans-Serif" font-size="10.00">/AInterface.hpp</text>
</a>
</g>
</g>
<!-- Node3&#45;&gt;Node14 -->
<g id="edge13_Node000003_Node000014" class="edge">
<title>Node3&#45;&gt;Node14</title>
<g id="a_edge13_Node000003_Node000014"><a xlink:title=" ">
<path fill="none" stroke="#63b8ff" d="M922.69,-417.87C934.25,-410 951.76,-398.09 966.77,-387.89"/>
<polygon fill="#63b8ff" stroke="#63b8ff" points="968.95,-390.63 975.25,-382.11 965.01,-384.85 968.95,-390.63"/>
</a>
</g>
</g>
<!-- Node15 -->
<g id="Node000015" class="node">
<title>Node15</title>
<g id="a_Node000015"><a xlink:href="ARenderer_8hpp.html" target="_top" xlink:title=" ">
<polygon fill="white" stroke="#666666" points="1089.5,-310.5 938.5,-310.5 938.5,-291.5 1089.5,-291.5 1089.5,-310.5"/>
<text text-anchor="middle" x="1014" y="-298.5" font-family="Helvetica,sans-Serif" font-size="10.00">../ARenderer/ARenderer.hpp</text>
</a>
</g>
</g>
<!-- Node3&#45;&gt;Node15 -->
<g id="edge42_Node000003_Node000015" class="edge">
<title>Node3&#45;&gt;Node15</title>
<g id="a_edge42_Node000003_Node000015"><a xlink:title=" ">
<path fill="none" stroke="#63b8ff" d="M962.2,-425.93C1034.76,-423.89 1160.43,-415.49 1189,-382 1221.45,-343.96 1156.14,-323.06 1096.29,-312.25"/>
<polygon fill="#63b8ff" stroke="#63b8ff" points="1096.81,-308.79 1086.36,-310.54 1095.62,-315.69 1096.81,-308.79"/>
</a>
</g>
</g>
<!-- Node19 -->
<g id="Node000019" class="node">
<title>Node19</title>
<g id="a_Node000019"><a xlink:href="APrimitive_8hpp.html" target="_top" xlink:title=" ">
<polygon fill="white" stroke="#666666" points="608,-382 492,-382 492,-352 608,-352 608,-382"/>
<text text-anchor="start" x="500" y="-370" font-family="Helvetica,sans-Serif" font-size="10.00">Abstracts/APrimitive</text>
<text text-anchor="middle" x="550" y="-359" font-family="Helvetica,sans-Serif" font-size="10.00">/APrimitive.hpp</text>
</a>
</g>
</g>
<!-- Node3&#45;&gt;Node19 -->
<g id="edge18_Node000003_Node000019" class="edge">
<title>Node3&#45;&gt;Node19</title>
<g id="a_edge18_Node000003_Node000019"><a xlink:title=" ">
<path fill="none" stroke="#63b8ff" d="M857.65,-417.99C794.36,-407.71 687.7,-390.38 618.07,-379.06"/>
<polygon fill="#63b8ff" stroke="#63b8ff" points="618.51,-375.59 608.08,-377.44 617.39,-382.5 618.51,-375.59"/>
</a>
</g>
</g>
<!-- Node20 -->
<g id="Node000020" class="node">
<title>Node20</title>
<g id="a_Node000020"><a xlink:href="IMaterial_8hpp.html" target="_top" xlink:title=" ">
<polygon fill="white" stroke="#666666" points="844,-310.5 754,-310.5 754,-291.5 844,-291.5 844,-310.5"/>
<text text-anchor="middle" x="799" y="-298.5" font-family="Helvetica,sans-Serif" font-size="10.00">../IMaterial.hpp</text>
</a>
</g>
</g>
<!-- Node3&#45;&gt;Node20 -->
<g id="edge44_Node000003_Node000020" class="edge">
<title>Node3&#45;&gt;Node20</title>
<g id="a_edge44_Node000003_Node000020"><a xlink:title=" ">
<path fill="none" stroke="#63b8ff" d="M902.37,-417.94C884.07,-397.42 837.45,-345.12 813.57,-318.34"/>
<polygon fill="#63b8ff" stroke="#63b8ff" points="815.95,-315.75 806.68,-310.62 810.73,-320.41 815.95,-315.75"/>
</a>
</g>
</g>
<!-- Node21 -->
<g id="Node000021" class="node">
<title>Node21</title>
<g id="a_Node000021"><a xlink:href="ILight_8hpp.html" target="_top" xlink:title=" ">
<polygon fill="white" stroke="#666666" points="847.5,-250 782.5,-250 782.5,-231 847.5,-231 847.5,-250"/>
<text text-anchor="middle" x="815" y="-238" font-family="Helvetica,sans-Serif" font-size="10.00">ILight.hpp</text>
</a>
</g>
</g>
<!-- Node3&#45;&gt;Node21 -->
<g id="edge43_Node000003_Node000021" class="edge">
<title>Node3&#45;&gt;Node21</title>
<g id="a_edge43_Node000003_Node000021"><a xlink:title=" ">
<path fill="none" stroke="#63b8ff" d="M907.55,-417.82C900.91,-395.08 881.16,-332.34 853,-286 846.75,-275.71 838.14,-265.41 830.7,-257.32"/>
<polygon fill="#63b8ff" stroke="#63b8ff" points="833.21,-254.87 823.78,-250.04 828.13,-259.7 833.21,-254.87"/>
</a>
</g>
</g>
<!-- Node9 -->
<g id="Node000009" class="node">
<title>Node9</title>
<g id="a_Node000009"><a xlink:href="RaytracerException_8hpp.html" target="_top" xlink:title=" ">
<polygon fill="white" stroke="#666666" points="1387,-316 1251,-316 1251,-286 1387,-286 1387,-316"/>
<text text-anchor="start" x="1259" y="-304" font-family="Helvetica,sans-Serif" font-size="10.00">../RaytracerException</text>
<text text-anchor="middle" x="1319" y="-293" font-family="Helvetica,sans-Serif" font-size="10.00">/RaytracerException.hpp</text>
</a>
</g>
</g>
<!-- Node8&#45;&gt;Node9 -->
<g id="edge8_Node000008_Node000009" class="edge">
<title>Node8&#45;&gt;Node9</title>
<g id="a_edge8_Node000008_Node000009"><a xlink:title=" ">
<path fill="none" stroke="#63b8ff" d="M1319,-351.8C1319,-344.34 1319,-334.99 1319,-326.41"/>
<polygon fill="#63b8ff" stroke="#63b8ff" points="1322.5,-326.16 1319,-316.16 1315.5,-326.16 1322.5,-326.16"/>
</a>
</g>
</g>
<!-- Node10 -->
<g id="Node000010" class="node">
<title>Node10</title>
<g id="a_Node000010"><a xlink:title=" ">
<polygon fill="#e0e0e0" stroke="#999999" points="1199.5,-250 1134.5,-250 1134.5,-231 1199.5,-231 1199.5,-250"/>
<text text-anchor="middle" x="1167" y="-238" font-family="Helvetica,sans-Serif" font-size="10.00">exception</text>
</a>
</g>
</g>
<!-- Node9&#45;&gt;Node10 -->
<g id="edge9_Node000009_Node000010" class="edge">
<title>Node9&#45;&gt;Node10</title>
<g id="a_edge9_Node000009_Node000010"><a xlink:title=" ">
<path fill="none" stroke="#63b8ff" d="M1282.59,-285.99C1257.12,-276.18 1223.41,-263.21 1198.97,-253.81"/>
<polygon fill="#63b8ff" stroke="#63b8ff" points="1200.04,-250.46 1189.45,-250.14 1197.52,-257 1200.04,-250.46"/>
</a>
</g>
</g>
<!-- Node11 -->
<g id="Node000011" class="node">
<title>Node11</title>
<g id="a_Node000011"><a xlink:title=" ">
<polygon fill="#e0e0e0" stroke="#999999" points="1452,-250 1392,-250 1392,-231 1452,-231 1452,-250"/>
<text text-anchor="middle" x="1422" y="-238" font-family="Helvetica,sans-Serif" font-size="10.00">iostream</text>
</a>
</g>
</g>
<!-- Node9&#45;&gt;Node11 -->
<g id="edge10_Node000009_Node000011" class="edge">
<title>Node9&#45;&gt;Node11</title>
<g id="a_edge10_Node000009_Node000011"><a xlink:title=" ">
<path fill="none" stroke="#63b8ff" d="M1343.67,-285.99C1360.09,-276.66 1381.55,-264.47 1397.86,-255.21"/>
<polygon fill="#63b8ff" stroke="#63b8ff" points="1399.82,-258.12 1406.79,-250.14 1396.37,-252.03 1399.82,-258.12"/>
</a>
</g>
</g>
<!-- Node12 -->
<g id="Node000012" class="node">
<title>Node12</title>
<g id="a_Node000012"><a xlink:title=" ">
<polygon fill="#e0e0e0" stroke="#999999" points="1262,-250 1218,-250 1218,-231 1262,-231 1262,-250"/>
<text text-anchor="middle" x="1240" y="-238" font-family="Helvetica,sans-Serif" font-size="10.00">string</text>
</a>
</g>
</g>
<!-- Node9&#45;&gt;Node12 -->
<g id="edge11_Node000009_Node000012" class="edge">
<title>Node9&#45;&gt;Node12</title>
<g id="a_edge11_Node000009_Node000012"><a xlink:title=" ">
<path fill="none" stroke="#63b8ff" d="M1299.88,-285.84C1287.82,-276.91 1272.29,-265.41 1260.06,-256.35"/>
<polygon fill="#63b8ff" stroke="#63b8ff" points="1261.96,-253.4 1251.84,-250.27 1257.79,-259.03 1261.96,-253.4"/>
</a>
</g>
</g>
<!-- Node13 -->
<g id="Node000013" class="node">
<title>Node13</title>
<g id="a_Node000013"><a xlink:title=" ">
<polygon fill="#e0e0e0" stroke="#999999" points="1373.5,-250 1280.5,-250 1280.5,-231 1373.5,-231 1373.5,-250"/>
<text text-anchor="middle" x="1327" y="-238" font-family="Helvetica,sans-Serif" font-size="10.00">source_location</text>
</a>
</g>
</g>
<!-- Node9&#45;&gt;Node13 -->
<g id="edge12_Node000009_Node000013" class="edge">
<title>Node9&#45;&gt;Node13</title>
<g id="a_edge12_Node000009_Node000013"><a xlink:title=" ">
<path fill="none" stroke="#63b8ff" d="M1320.94,-285.84C1321.98,-278.21 1323.28,-268.7 1324.41,-260.45"/>
<polygon fill="#63b8ff" stroke="#63b8ff" points="1327.91,-260.65 1325.8,-250.27 1320.98,-259.7 1327.91,-260.65"/>
</a>
</g>
</g>
<!-- Node14&#45;&gt;Node15 -->
<g id="edge14_Node000014_Node000015" class="edge">
<title>Node14&#45;&gt;Node15</title>
<g id="a_edge14_Node000014_Node000015"><a xlink:title=" ">
<path fill="none" stroke="#63b8ff" d="M999.99,-351.8C1002.58,-342.6 1005.98,-330.53 1008.77,-320.58"/>
<polygon fill="#63b8ff" stroke="#63b8ff" points="1012.17,-321.42 1011.51,-310.84 1005.44,-319.52 1012.17,-321.42"/>
</a>
</g>
</g>
<!-- Node15&#45;&gt;Node16 -->
<g id="edge15_Node000015_Node000016" class="edge">
<title>Node15&#45;&gt;Node16</title>
<g id="a_edge15_Node000015_Node000016"><a xlink:title=" ">
<path fill="none" stroke="#63b8ff" d="M994.68,-291.46C965.08,-278.38 906.68,-252.63 857,-231 827.62,-218.21 793.98,-203.73 770.53,-193.66"/>
<polygon fill="#63b8ff" stroke="#63b8ff" points="771.71,-190.36 761.14,-189.63 768.95,-196.79 771.71,-190.36"/>
</a>
</g>
</g>
<!-- Node18 -->
<g id="Node000018" class="node">
<title>Node18</title>
<g id="a_Node000018"><a xlink:title=" ">
<polygon fill="#e0e0e0" stroke="#999999" points="1021.5,-189.5 974.5,-189.5 974.5,-170.5 1021.5,-170.5 1021.5,-189.5"/>
<text text-anchor="middle" x="998" y="-177.5" font-family="Helvetica,sans-Serif" font-size="10.00">vector</text>
</a>
</g>
</g>
<!-- Node15&#45;&gt;Node18 -->
<g id="edge17_Node000015_Node000018" class="edge">
<title>Node15&#45;&gt;Node18</title>
<g id="a_edge17_Node000015_Node000018"><a xlink:title=" ">
<path fill="none" stroke="#63b8ff" d="M1012.85,-291.44C1010.29,-272.41 1004.08,-226.19 1000.55,-199.97"/>
<polygon fill="#63b8ff" stroke="#63b8ff" points="1003.98,-199.25 999.18,-189.8 997.05,-200.18 1003.98,-199.25"/>
</a>
</g>
</g>
<!-- Node16&#45;&gt;Node17 -->
<g id="edge16_Node000016_Node000017" class="edge">
<title>Node16&#45;&gt;Node17</title>
<g id="a_edge16_Node000016_Node000017"><a xlink:title=" ">
<path fill="none" stroke="#63b8ff" d="M703.2,-170.46C693.7,-168.49 683.5,-166.53 674,-165 547.67,-144.66 396.91,-130.26 325.08,-124"/>
<polygon fill="#63b8ff" stroke="#63b8ff" points="325.33,-120.51 315.07,-123.14 324.73,-127.48 325.33,-120.51"/>
</a>
</g>
</g>
<!-- Node19&#45;&gt;Node5 -->
<g id="edge31_Node000019_Node000005" class="edge">
<title>Node19&#45;&gt;Node5</title>
<g id="a_edge31_Node000019_Node000005"><a xlink:title=" ">
<path fill="none" stroke="#63b8ff" d="M556.61,-351.79C572.07,-318.52 610.6,-235.63 627.66,-198.95"/>
<polygon fill="#63b8ff" stroke="#63b8ff" points="630.99,-200.07 632.04,-189.53 624.65,-197.12 630.99,-200.07"/>
</a>
</g>
</g>
<!-- Node19&#45;&gt;Node20 -->
<g id="edge19_Node000019_Node000020" class="edge">
<title>Node19&#45;&gt;Node20</title>
<g id="a_edge19_Node000019_Node000020"><a xlink:title=" ">
<path fill="none" stroke="#63b8ff" d="M604.64,-351.95C650.14,-340.26 714.04,-323.84 755.96,-313.06"/>
<polygon fill="#63b8ff" stroke="#63b8ff" points="757.05,-316.4 765.86,-310.52 755.31,-309.62 757.05,-316.4"/>
</a>
</g>
</g>
<!-- Node19&#45;&gt;Node26 -->
<g id="edge32_Node000019_Node000026" class="edge">
<title>Node19&#45;&gt;Node26</title>
<g id="a_edge32_Node000019_Node000026"><a xlink:title=" ">
<path fill="none" stroke="#63b8ff" d="M491.89,-353.89C430.13,-341.01 334.22,-321.02 281.31,-309.99"/>
<polygon fill="#63b8ff" stroke="#63b8ff" points="281.83,-306.52 271.32,-307.9 280.4,-313.37 281.83,-306.52"/>
</a>
</g>
</g>
<!-- Node27 -->
<g id="Node000027" class="node">
<title>Node27</title>
<g id="a_Node000027"><a xlink:href="AABB_8hpp.html" target="_top" xlink:title=" ">
<polygon fill="white" stroke="#666666" points="487,-316 365,-316 365,-286 487,-286 487,-316"/>
<text text-anchor="start" x="373" y="-304" font-family="Helvetica,sans-Serif" font-size="10.00">../../../Geometry/AABB</text>
<text text-anchor="middle" x="426" y="-293" font-family="Helvetica,sans-Serif" font-size="10.00">/AABB.hpp</text>
</a>
</g>
</g>
<!-- Node19&#45;&gt;Node27 -->
<g id="edge33_Node000019_Node000027" class="edge">
<title>Node19&#45;&gt;Node27</title>
<g id="a_edge33_Node000019_Node000027"><a xlink:title=" ">
<path fill="none" stroke="#63b8ff" d="M522.79,-351.95C505.02,-342.78 481.62,-330.71 462.28,-320.72"/>
<polygon fill="#63b8ff" stroke="#63b8ff" points="463.64,-317.49 453.15,-316.01 460.43,-323.71 463.64,-317.49"/>
</a>
</g>
</g>
<!-- Node30 -->
<g id="Node000030" class="node">
<title>Node30</title>
<g id="a_Node000030"><a xlink:href="Ray_8hpp.html" target="_top" xlink:title="Ray primitive used to represent a parametric line (origin + direction).">
<polygon fill="white" stroke="#666666" points="570,-250 484,-250 484,-231 570,-231 570,-250"/>
<text text-anchor="middle" x="527" y="-238" font-family="Helvetica,sans-Serif" font-size="10.00">../Ray/Ray.hpp</text>
</a>
</g>
</g>
<!-- Node19&#45;&gt;Node30 -->
<g id="edge41_Node000019_Node000030" class="edge">
<title>Node19&#45;&gt;Node30</title>
<g id="a_edge41_Node000019_Node000030"><a xlink:title=" ">
<path fill="none" stroke="#63b8ff" d="M547.36,-351.72C543.19,-329.12 535.06,-285.12 530.43,-260.09"/>
<polygon fill="#63b8ff" stroke="#63b8ff" points="533.84,-259.27 528.58,-250.07 526.96,-260.54 533.84,-259.27"/>
</a>
</g>
</g>
<!-- Node20&#45;&gt;Node16 -->
<g id="edge20_Node000020_Node000016" class="edge">
<title>Node20&#45;&gt;Node16</title>
<g id="a_edge20_Node000020_Node000016"><a xlink:title=" ">
<path fill="none" stroke="#63b8ff" d="M794.53,-291.17C789.49,-281.2 781.08,-264.47 774,-250 765.54,-232.7 756.07,-212.86 749.46,-198.9"/>
<polygon fill="#63b8ff" stroke="#63b8ff" points="752.46,-197.06 745.02,-189.52 746.13,-200.06 752.46,-197.06"/>
</a>
</g>
</g>
<!-- Node20&#45;&gt;Node18 -->
<g id="edge30_Node000020_Node000018" class="edge">
<title>Node20&#45;&gt;Node18</title>
<g id="a_edge30_Node000020_Node000018"><a xlink:title=" ">
<path fill="none" stroke="#63b8ff" d="M813.31,-291.44C847.36,-271.08 933.45,-219.6 974.94,-194.79"/>
<polygon fill="#63b8ff" stroke="#63b8ff" points="976.76,-197.78 983.55,-189.64 973.17,-191.77 976.76,-197.78"/>
</a>
</g>
</g>
<!-- Node20&#45;&gt;Node21 -->
<g id="edge21_Node000020_Node000021" class="edge">
<title>Node20&#45;&gt;Node21</title>
<g id="a_edge21_Node000020_Node000021"><a xlink:title=" ">
<path fill="none" stroke="#63b8ff" d="M801.36,-291.37C803.61,-283.16 807.06,-270.54 809.93,-260.05"/>
<polygon fill="#63b8ff" stroke="#63b8ff" points="813.37,-260.74 812.63,-250.17 806.62,-258.89 813.37,-260.74"/>
</a>
</g>
</g>
<!-- Node21&#45;&gt;Node5 -->
<g id="edge29_Node000021_Node000005" class="edge">
<title>Node21&#45;&gt;Node5</title>
<g id="a_edge29_Node000021_Node000005"><a xlink:title=" ">
<path fill="none" stroke="#63b8ff" d="M787.01,-230.94C758.68,-222.19 713.65,-208.08 675,-195 673.11,-194.36 671.17,-193.69 669.21,-193.02"/>
<polygon fill="#63b8ff" stroke="#63b8ff" points="670.06,-189.6 659.46,-189.58 667.73,-196.2 670.06,-189.6"/>
</a>
</g>
</g>
<!-- Node21&#45;&gt;Node16 -->
<g id="edge27_Node000021_Node000016" class="edge">
<title>Node21&#45;&gt;Node16</title>
<g id="a_edge27_Node000021_Node000016"><a xlink:title=" ">
<path fill="none" stroke="#63b8ff" d="M804.08,-230.87C792.49,-221.71 773.97,-207.06 759.98,-196.01"/>
<polygon fill="#63b8ff" stroke="#63b8ff" points="761.98,-193.12 751.96,-189.67 757.64,-198.61 761.98,-193.12"/>
</a>
</g>
</g>
<!-- Node21&#45;&gt;Node18 -->
<g id="edge28_Node000021_Node000018" class="edge">
<title>Node21&#45;&gt;Node18</title>
<g id="a_edge28_Node000021_Node000018"><a xlink:title=" ">
<path fill="none" stroke="#63b8ff" d="M844.59,-230.94C874,-222.31 920.33,-208.38 960,-195 961.85,-194.38 963.74,-193.72 965.65,-193.05"/>
<polygon fill="#63b8ff" stroke="#63b8ff" points="966.93,-196.31 975.16,-189.65 964.57,-189.72 966.93,-196.31"/>
</a>
</g>
</g>
<!-- Node22 -->
<g id="Node000022" class="node">
<title>Node22</title>
<g id="a_Node000022"><a xlink:href="HitRecord_8hpp.html" target="_top" xlink:title=" ">
<polygon fill="white" stroke="#666666" points="951,-195 817,-195 817,-165 951,-165 951,-195"/>
<text text-anchor="start" x="825" y="-183" font-family="Helvetica,sans-Serif" font-size="10.00">../../Geometry/HitRecord</text>
<text text-anchor="middle" x="884" y="-172" font-family="Helvetica,sans-Serif" font-size="10.00">/HitRecord.hpp</text>
</a>
</g>
</g>
<!-- Node21&#45;&gt;Node22 -->
<g id="edge22_Node000021_Node000022" class="edge">
<title>Node21&#45;&gt;Node22</title>
<g id="a_edge22_Node000021_Node000022"><a xlink:title=" ">
<path fill="none" stroke="#63b8ff" d="M825.18,-230.87C834.2,-223.22 847.72,-211.76 859.53,-201.75"/>
<polygon fill="#63b8ff" stroke="#63b8ff" points="861.99,-204.25 867.35,-195.11 857.46,-198.91 861.99,-204.25"/>
</a>
</g>
</g>
<!-- Node23 -->
<g id="Node000023" class="node">
<title>Node23</title>
<g id="a_Node000023"><a xlink:href="Point3D_8hpp.html" target="_top" xlink:title=" ">
<polygon fill="white" stroke="#666666" points="590,-129 464,-129 464,-110 590,-110 590,-129"/>
<text text-anchor="middle" x="527" y="-117" font-family="Helvetica,sans-Serif" font-size="10.00">../Point3D/Point3D.hpp</text>
</a>
</g>
</g>
<!-- Node22&#45;&gt;Node23 -->
<g id="edge23_Node000022_Node000023" class="edge">
<title>Node22&#45;&gt;Node23</title>
<g id="a_edge23_Node000022_Node000023"><a xlink:title=" ">
<path fill="none" stroke="#63b8ff" d="M816.88,-166.54C813.88,-166.01 810.91,-165.5 808,-165 734.75,-152.45 650.53,-139.28 593.54,-130.56"/>
<polygon fill="#63b8ff" stroke="#63b8ff" points="594,-127.08 583.58,-129.03 592.94,-134 594,-127.08"/>
</a>
</g>
</g>
<!-- Node24 -->
<g id="Node000024" class="node">
<title>Node24</title>
<g id="a_Node000024"><a xlink:href="Vector3D_8hpp.html" target="_top" xlink:title=" ">
<polygon fill="white" stroke="#666666" points="596,-74 458,-74 458,-55 596,-55 596,-74"/>
<text text-anchor="middle" x="527" y="-62" font-family="Helvetica,sans-Serif" font-size="10.00">../Vector3D/Vector3D.hpp</text>
</a>
</g>
</g>
<!-- Node22&#45;&gt;Node24 -->
<g id="edge26_Node000022_Node000024" class="edge">
<title>Node22&#45;&gt;Node24</title>
<g id="a_edge26_Node000022_Node000024"><a xlink:title=" ">
<path fill="none" stroke="#63b8ff" d="M839.87,-164.97C768.71,-142.35 629.94,-98.23 563.79,-77.2"/>
<polygon fill="#63b8ff" stroke="#63b8ff" points="564.78,-73.84 554.19,-74.14 562.66,-80.51 564.78,-73.84"/>
</a>
</g>
</g>
<!-- Node23&#45;&gt;Node24 -->
<g id="edge24_Node000023_Node000024" class="edge">
<title>Node23&#45;&gt;Node24</title>
<g id="a_edge24_Node000023_Node000024"><a xlink:title=" ">
<path fill="none" stroke="#63b8ff" d="M527,-109.75C527,-102.8 527,-92.85 527,-84.13"/>
<polygon fill="#63b8ff" stroke="#63b8ff" points="530.5,-84.09 527,-74.09 523.5,-84.09 530.5,-84.09"/>
</a>
</g>
</g>
<!-- Node25 -->
<g id="Node000025" class="node">
<title>Node25</title>
<g id="a_Node000025"><a xlink:title=" ">
<polygon fill="#e0e0e0" stroke="#999999" points="552.5,-19 501.5,-19 501.5,0 552.5,0 552.5,-19"/>
<text text-anchor="middle" x="527" y="-7" font-family="Helvetica,sans-Serif" font-size="10.00">math.h</text>
</a>
</g>
</g>
<!-- Node24&#45;&gt;Node25 -->
<g id="edge25_Node000024_Node000025" class="edge">
<title>Node24&#45;&gt;Node25</title>
<g id="a_edge25_Node000024_Node000025"><a xlink:title=" ">
<path fill="none" stroke="#63b8ff" d="M527,-54.75C527,-47.8 527,-37.85 527,-29.13"/>
<polygon fill="#63b8ff" stroke="#63b8ff" points="530.5,-29.09 527,-19.09 523.5,-29.09 530.5,-29.09"/>
</a>
</g>
</g>
<!-- Node27&#45;&gt;Node17 -->
<g id="edge34_Node000027_Node000017" class="edge">
<title>Node27&#45;&gt;Node17</title>
<g id="a_edge34_Node000027_Node000017"><a xlink:title=" ">
<path fill="none" stroke="#63b8ff" d="M408.53,-285.58C397.47,-276.04 383.2,-262.95 372,-250 339.72,-212.67 308.62,-163.44 293.15,-137.76"/>
<polygon fill="#63b8ff" stroke="#63b8ff" points="296.15,-135.95 288.02,-129.15 290.13,-139.53 296.15,-135.95"/>
</a>
</g>
</g>
<!-- Node27&#45;&gt;Node23 -->
<g id="edge37_Node000027_Node000023" class="edge">
<title>Node27&#45;&gt;Node23</title>
<g id="a_edge37_Node000027_Node000023"><a xlink:title=" ">
<path fill="none" stroke="#63b8ff" d="M433.93,-285.91C452.2,-253.43 497.27,-173.34 517.22,-137.88"/>
<polygon fill="#63b8ff" stroke="#63b8ff" points="520.29,-139.57 522.14,-129.13 514.19,-136.13 520.29,-139.57"/>
</a>
</g>
</g>
<!-- Node28 -->
<g id="Node000028" class="node">
<title>Node28</title>
<g id="a_Node000028"><a xlink:title=" ">
<polygon fill="#e0e0e0" stroke="#999999" points="427.5,-250 380.5,-250 380.5,-231 427.5,-231 427.5,-250"/>
<text text-anchor="middle" x="404" y="-238" font-family="Helvetica,sans-Serif" font-size="10.00">cmath</text>
</a>
</g>
</g>
<!-- Node27&#45;&gt;Node28 -->
<g id="edge35_Node000027_Node000028" class="edge">
<title>Node27&#45;&gt;Node28</title>
<g id="a_edge35_Node000027_Node000028"><a xlink:title=" ">
<path fill="none" stroke="#63b8ff" d="M420.67,-285.84C417.74,-278.04 414.07,-268.27 410.92,-259.89"/>
<polygon fill="#63b8ff" stroke="#63b8ff" points="414.09,-258.39 407.3,-250.27 407.54,-260.86 414.09,-258.39"/>
</a>
</g>
</g>
<!-- Node29 -->
<g id="Node000029" class="node">
<title>Node29</title>
<g id="a_Node000029"><a xlink:title=" ">
<polygon fill="#e0e0e0" stroke="#999999" points="324,-250 280,-250 280,-231 324,-231 324,-250"/>
<text text-anchor="middle" x="302" y="-238" font-family="Helvetica,sans-Serif" font-size="10.00">limits</text>
</a>
</g>
</g>
<!-- Node27&#45;&gt;Node29 -->
<g id="edge36_Node000027_Node000029" class="edge">
<title>Node27&#45;&gt;Node29</title>
<g id="a_edge36_Node000027_Node000029"><a xlink:title=" ">
<path fill="none" stroke="#63b8ff" d="M396.3,-285.99C375.98,-276.4 349.24,-263.79 329.42,-254.44"/>
<polygon fill="#63b8ff" stroke="#63b8ff" points="330.85,-251.24 320.31,-250.14 327.86,-257.57 330.85,-251.24"/>
</a>
</g>
</g>
<!-- Node27&#45;&gt;Node30 -->
<g id="edge38_Node000027_Node000030" class="edge">
<title>Node27&#45;&gt;Node30</title>
<g id="a_edge38_Node000027_Node000030"><a xlink:title=" ">
<path fill="none" stroke="#63b8ff" d="M450.19,-285.99C466.29,-276.66 487.34,-264.47 503.33,-255.21"/>
<polygon fill="#63b8ff" stroke="#63b8ff" points="505.19,-258.18 512.08,-250.14 501.68,-252.12 505.19,-258.18"/>
</a>
</g>
</g>
<!-- Node30&#45;&gt;Node23 -->
<g id="edge39_Node000030_Node000023" class="edge">
<title>Node30&#45;&gt;Node23</title>
<g id="a_edge39_Node000030_Node000023"><a xlink:title=" ">
<path fill="none" stroke="#63b8ff" d="M527,-230.94C527,-211.91 527,-165.69 527,-139.47"/>
<polygon fill="#63b8ff" stroke="#63b8ff" points="530.5,-139.3 527,-129.3 523.5,-139.3 530.5,-139.3"/>
</a>
</g>
</g>
<!-- Node30&#45;&gt;Node24 -->
<g id="edge40_Node000030_Node000024" class="edge">
<title>Node30&#45;&gt;Node24</title>
<g id="a_edge40_Node000030_Node000024"><a xlink:title=" ">
<path fill="none" stroke="#63b8ff" d="M518.85,-230.96C502.83,-213.51 467.71,-171.8 455,-129 452.6,-120.91 450.89,-117.38 455,-110 463.04,-95.58 477.9,-85.24 492.04,-78.18"/>
<polygon fill="#63b8ff" stroke="#63b8ff" points="493.51,-81.36 501.15,-74.01 490.6,-74.99 493.51,-81.36"/>
</a>
</g>
</g>
<!-- Node34&#45;&gt;Node3 -->
<g id="edge49_Node000034_Node000003" class="edge">
<title>Node34&#45;&gt;Node3</title>
<g id="a_edge49_Node000034_Node000003"><a xlink:title=" ">
<path fill="none" stroke="#63b8ff" d="M554.25,-529.52C621.45,-516.38 719.58,-496.93 737,-492 788.42,-477.45 846.38,-454.86 880.46,-440.91"/>
<polygon fill="#63b8ff" stroke="#63b8ff" points="881.91,-444.1 889.83,-437.05 879.25,-437.62 881.91,-444.1"/>
</a>
</g>
</g>
<!-- Node34&#45;&gt;Node4 -->
<g id="edge68_Node000034_Node000004" class="edge">
<title>Node34&#45;&gt;Node4</title>
<g id="a_edge68_Node000034_Node000004"><a xlink:title=" ">
<path fill="none" stroke="#63b8ff" d="M554.14,-528.89C608,-517.38 677.79,-501.1 688,-492 718.98,-464.39 729.63,-414.19 733.23,-386.89"/>
<polygon fill="#63b8ff" stroke="#63b8ff" points="736.73,-387.06 734.37,-376.73 729.77,-386.28 736.73,-387.06"/>
</a>
</g>
</g>
<!-- Node34&#45;&gt;Node5 -->
<g id="edge66_Node000034_Node000005" class="edge">
<title>Node34&#45;&gt;Node5</title>
<g id="a_edge66_Node000034_Node000005"><a xlink:title=" ">
<path fill="none" stroke="#63b8ff" d="M554.1,-529.9C607.2,-515.73 674,-486.39 674,-428.5 674,-428.5 674,-428.5 674,-300 674,-268.71 669.96,-260.66 660,-231 656.26,-219.87 650.64,-208 645.78,-198.62"/>
<polygon fill="#63b8ff" stroke="#63b8ff" points="648.74,-196.73 640.93,-189.58 642.57,-200.04 648.74,-196.73"/>
</a>
</g>
</g>
<!-- Node34&#45;&gt;Node18 -->
<g id="edge65_Node000034_Node000018" class="edge">
<title>Node34&#45;&gt;Node18</title>
<g id="a_edge65_Node000034_Node000018"><a xlink:title=" ">
<path fill="none" stroke="#63b8ff" d="M554.01,-529.16C557.04,-528.73 560.05,-528.34 563,-528 667.29,-516.08 1408.24,-527.56 1507,-492 1550.7,-476.27 1590,-474.95 1590,-428.5 1590,-428.5 1590,-428.5 1590,-300 1590,-185.27 1157.27,-179.74 1031.75,-180.54"/>
<polygon fill="#63b8ff" stroke="#63b8ff" points="1031.54,-177.05 1021.57,-180.63 1031.6,-184.04 1031.54,-177.05"/>
</a>
</g>
</g>
<!-- Node34&#45;&gt;Node26 -->
<g id="edge67_Node000034_Node000026" class="edge">
<title>Node34&#45;&gt;Node26</title>
<g id="a_edge67_Node000034_Node000026"><a xlink:title=" ">
<path fill="none" stroke="#63b8ff" d="M468.37,-527.83C430.09,-502.03 349.23,-444.28 294,-382 276.8,-362.61 261.48,-336.83 252.22,-319.85"/>
<polygon fill="#63b8ff" stroke="#63b8ff" points="255.06,-317.73 247.28,-310.54 248.88,-321.01 255.06,-317.73"/>
</a>
</g>
</g>
<!-- Node34&#45;&gt;Node30 -->
<g id="edge64_Node000034_Node000030" class="edge">
<title>Node34&#45;&gt;Node30</title>
<g id="a_edge64_Node000034_Node000030"><a xlink:title=" ">
<path fill="none" stroke="#63b8ff" d="M487.27,-527.53C481.72,-495.54 470.63,-416.51 483,-352 484.81,-342.56 507.25,-288.43 519.36,-259.59"/>
<polygon fill="#63b8ff" stroke="#63b8ff" points="522.65,-260.81 523.3,-250.23 516.19,-258.09 522.65,-260.81"/>
</a>
</g>
</g>
<!-- Node35 -->
<g id="Node000035" class="node">
<title>Node35</title>
<g id="a_Node000035"><a xlink:href="PluginManager_8hpp.html" target="_top" xlink:title="Plugin loader interface for dynamic plugins.">
<polygon fill="white" stroke="#666666" points="1498,-492 1304,-492 1304,-473 1498,-473 1498,-492"/>
<text text-anchor="middle" x="1401" y="-480" font-family="Helvetica,sans-Serif" font-size="10.00">../PluginManager/PluginManager.hpp</text>
</a>
</g>
</g>
<!-- Node34&#45;&gt;Node35 -->
<g id="edge50_Node000034_Node000035" class="edge">
<title>Node34&#45;&gt;Node35</title>
<g id="a_edge50_Node000034_Node000035"><a xlink:title=" ">
<path fill="none" stroke="#63b8ff" d="M554.02,-529.21C557.05,-528.77 560.05,-528.36 563,-528 824.09,-496.18 1133.7,-487.11 1293.54,-484.53"/>
<polygon fill="#63b8ff" stroke="#63b8ff" points="1293.9,-488.02 1303.85,-484.37 1293.8,-481.02 1293.9,-488.02"/>
</a>
</g>
</g>
<!-- Node38 -->
<g id="Node000038" class="node">
<title>Node38</title>
<g id="a_Node000038"><a xlink:href="BVH_8hpp.html" target="_top" xlink:title=" ">
<polygon fill="white" stroke="#666666" points="462,-437 370,-437 370,-418 462,-418 462,-437"/>
<text text-anchor="middle" x="416" y="-425" font-family="Helvetica,sans-Serif" font-size="10.00">../BVH/BVH.hpp</text>
</a>
</g>
</g>
<!-- Node34&#45;&gt;Node38 -->
<g id="edge56_Node000034_Node000038" class="edge">
<title>Node34&#45;&gt;Node38</title>
<g id="a_edge56_Node000034_Node000038"><a xlink:title=" ">
<path fill="none" stroke="#63b8ff" d="M480.63,-527.63C467.02,-506.75 441.81,-468.09 427.23,-445.72"/>
<polygon fill="#63b8ff" stroke="#63b8ff" points="430.08,-443.69 421.69,-437.23 424.22,-447.52 430.08,-443.69"/>
</a>
</g>
</g>
<!-- Node35&#45;&gt;Node3 -->
<g id="edge55_Node000035_Node000003" class="edge">
<title>Node35&#45;&gt;Node3</title>
<g id="a_edge55_Node000035_Node000003"><a xlink:title=" ">
<path fill="none" stroke="#63b8ff" d="M1322.11,-472.98C1224.75,-462.48 1061.19,-444.82 972.22,-435.22"/>
<polygon fill="#63b8ff" stroke="#63b8ff" points="972.59,-431.74 962.27,-434.14 971.84,-438.7 972.59,-431.74"/>
</a>
</g>
</g>
<!-- Node35&#45;&gt;Node11 -->
<g id="edge53_Node000035_Node000011" class="edge">
<title>Node35&#45;&gt;Node11</title>
<g id="a_edge53_Node000035_Node000011"><a xlink:title=" ">
<path fill="none" stroke="#63b8ff" d="M1397.96,-472.77C1394.1,-460.43 1388.46,-437.25 1393,-418 1397.11,-400.59 1406.21,-399.24 1411,-382 1422.74,-339.71 1423.43,-287.71 1422.79,-260.36"/>
<polygon fill="#63b8ff" stroke="#63b8ff" points="1426.28,-260.13 1422.46,-250.25 1419.29,-260.36 1426.28,-260.13"/>
</a>
</g>
</g>
<!-- Node35&#45;&gt;Node18 -->
<g id="edge54_Node000035_Node000018" class="edge">
<title>Node35&#45;&gt;Node18</title>
<g id="a_edge54_Node000035_Node000018"><a xlink:title=" ">
<path fill="none" stroke="#63b8ff" d="M1418.23,-472.88C1431.79,-465.23 1450.15,-452.83 1461,-437 1478.98,-410.76 1480,-399.81 1480,-368 1480,-368 1480,-368 1480,-300 1480,-268.19 1485.23,-251.61 1461,-231 1428.43,-203.3 1133.54,-187.24 1032.09,-182.49"/>
<polygon fill="#63b8ff" stroke="#63b8ff" points="1031.95,-178.98 1021.8,-182.02 1031.63,-185.98 1031.95,-178.98"/>
</a>
</g>
</g>
<!-- Node36 -->
<g id="Node000036" class="node">
<title>Node36</title>
<g id="a_Node000036"><a xlink:title=" ">
<polygon fill="#e0e0e0" stroke="#999999" points="1452,-437 1402,-437 1402,-418 1452,-418 1452,-437"/>
<text text-anchor="middle" x="1427" y="-425" font-family="Helvetica,sans-Serif" font-size="10.00">dlfcn.h</text>
</a>
</g>
</g>
<!-- Node35&#45;&gt;Node36 -->
<g id="edge51_Node000035_Node000036" class="edge">
<title>Node35&#45;&gt;Node36</title>
<g id="a_edge51_Node000035_Node000036"><a xlink:title=" ">
<path fill="none" stroke="#63b8ff" d="M1405.29,-472.75C1408.81,-465.57 1413.91,-455.18 1418.28,-446.27"/>
<polygon fill="#63b8ff" stroke="#63b8ff" points="1421.52,-447.61 1422.79,-437.09 1415.24,-444.53 1421.52,-447.61"/>
</a>
</g>
</g>
<!-- Node37 -->
<g id="Node000037" class="node">
<title>Node37</title>
<g id="a_Node000037"><a xlink:title=" ">
<polygon fill="#e0e0e0" stroke="#999999" points="1562,-437 1508,-437 1508,-418 1562,-418 1562,-437"/>
<text text-anchor="middle" x="1535" y="-425" font-family="Helvetica,sans-Serif" font-size="10.00">dirent.h</text>
</a>
</g>
</g>
<!-- Node35&#45;&gt;Node37 -->
<g id="edge52_Node000035_Node000037" class="edge">
<title>Node35&#45;&gt;Node37</title>
<g id="a_edge52_Node000035_Node000037"><a xlink:title=" ">
<path fill="none" stroke="#63b8ff" d="M1422.53,-472.98C1444.47,-464.3 1478.74,-450.75 1503.69,-440.88"/>
<polygon fill="#63b8ff" stroke="#63b8ff" points="1505.07,-444.1 1513.08,-437.17 1502.49,-437.59 1505.07,-444.1"/>
</a>
</g>
</g>
<!-- Node38&#45;&gt;Node5 -->
<g id="edge59_Node000038_Node000005" class="edge">
<title>Node38&#45;&gt;Node5</title>
<g id="a_edge59_Node000038_Node000005"><a xlink:title=" ">
<path fill="none" stroke="#63b8ff" d="M462,-422.52C514.85,-416.92 596.89,-404.77 617,-382 662.83,-330.12 649.26,-238.65 640.66,-199.56"/>
<polygon fill="#63b8ff" stroke="#63b8ff" points="644.01,-198.54 638.32,-189.6 637.2,-200.14 644.01,-198.54"/>
</a>
</g>
</g>
<!-- Node38&#45;&gt;Node17 -->
<g id="edge57_Node000038_Node000017" class="edge">
<title>Node38&#45;&gt;Node17</title>
<g id="a_edge57_Node000038_Node000017"><a xlink:title=" ">
<path fill="none" stroke="#63b8ff" d="M404.46,-417.82C374.76,-394.63 296.26,-327.69 271,-250 258.65,-212.03 269.09,-164.73 276.72,-139.1"/>
<polygon fill="#63b8ff" stroke="#63b8ff" points="280.16,-139.84 279.85,-129.25 273.49,-137.72 280.16,-139.84"/>
</a>
</g>
</g>
<!-- Node38&#45;&gt;Node18 -->
<g id="edge61_Node000038_Node000018" class="edge">
<title>Node38&#45;&gt;Node18</title>
<g id="a_edge61_Node000038_Node000018"><a xlink:title=" ">
<path fill="none" stroke="#63b8ff" d="M462.02,-424.17C546.25,-419.36 721.62,-406.66 777,-382 872.82,-339.34 955.18,-238.63 985.53,-198.22"/>
<polygon fill="#63b8ff" stroke="#63b8ff" points="988.53,-200.05 991.66,-189.93 982.9,-195.89 988.53,-200.05"/>
</a>
</g>
</g>
<!-- Node38&#45;&gt;Node19 -->
<g id="edge63_Node000038_Node000019" class="edge">
<title>Node38&#45;&gt;Node19</title>
<g id="a_edge63_Node000038_Node000019"><a xlink:title=" ">
<path fill="none" stroke="#63b8ff" d="M435.48,-417.99C454.52,-409.68 484.09,-396.78 508.41,-386.16"/>
<polygon fill="#63b8ff" stroke="#63b8ff" points="510.02,-389.27 517.78,-382.06 507.22,-382.86 510.02,-389.27"/>
</a>
</g>
</g>
<!-- Node38&#45;&gt;Node26 -->
<g id="edge60_Node000038_Node000026" class="edge">
<title>Node38&#45;&gt;Node26</title>
<g id="a_edge60_Node000038_Node000026"><a xlink:title=" ">
<path fill="none" stroke="#63b8ff" d="M398.22,-417.93C381.59,-409.61 356.34,-396.18 336,-382 307.22,-361.93 276.96,-334.55 259.05,-317.59"/>
<polygon fill="#63b8ff" stroke="#63b8ff" points="261.38,-314.98 251.74,-310.59 256.54,-320.04 261.38,-314.98"/>
</a>
</g>
</g>
<!-- Node38&#45;&gt;Node27 -->
<g id="edge62_Node000038_Node000027" class="edge">
<title>Node38&#45;&gt;Node27</title>
<g id="a_edge62_Node000038_Node000027"><a xlink:title=" ">
<path fill="none" stroke="#63b8ff" d="M416.69,-417.94C418.18,-399.32 421.78,-354.53 424.04,-326.39"/>
<polygon fill="#63b8ff" stroke="#63b8ff" points="427.55,-326.41 424.86,-316.16 420.57,-325.85 427.55,-326.41"/>
</a>
</g>
</g>
<!-- Node38&#45;&gt;Node29 -->
<g id="edge58_Node000038_Node000029" class="edge">
<title>Node38&#45;&gt;Node29</title>
<g id="a_edge58_Node000038_Node000029"><a xlink:title=" ">
<path fill="none" stroke="#63b8ff" d="M410.5,-417.58C392.71,-388.7 336.47,-297.43 312.73,-258.92"/>
<polygon fill="#63b8ff" stroke="#63b8ff" points="315.67,-257.01 307.44,-250.33 309.71,-260.68 315.67,-257.01"/>
</a>
</g>
</g>
</g>
</svg>
