<?xml version="1.0" encoding="UTF-8" standalone="no"?>
<!DOCTYPE svg PUBLIC "-//W3C//DTD SVG 1.1//EN"
 "http://www.w3.org/Graphics/SVG/1.1/DTD/svg11.dtd">
<!-- Generated by graphviz version 2.43.0 (0)
 -->
<!-- Title: main Pages: 1 -->
<svg width="373pt" height="86pt"
 viewBox="0.00 0.00 373.00 86.00" xmlns="http://www.w3.org/2000/svg" xmlns:xlink="http://www.w3.org/1999/xlink">
<g id="graph0" class="graph" transform="scale(1 1) rotate(0) translate(4 82)">
<title>main</title>
<!-- Node1 -->
<g id="Node000001" class="node">
<title>Node1</title>
<g id="a_Node000001"><a xlink:title=" ">
<polygon fill="#999999" stroke="#666666" points="41,-48.5 0,-48.5 0,-29.5 41,-29.5 41,-48.5"/>
<text text-anchor="middle" x="20.5" y="-36.5" font-family="Helvetica,sans-Serif" font-size="10.00">main</text>
</a>
</g>
</g>
<!-- Node2 -->
<g id="Node000002" class="node">
<title>Node2</title>
<g id="a_Node000002"><a xlink:href="classRayTracer_1_1SceneWriter.html#a148f4441944d104f0248d7723b5fbc54" target="_top" xlink:title="Render the scene and write the framebuffer to a PPM file.">
<polygon fill="white" stroke="#666666" points="207,-78 77,-78 77,-48 207,-48 207,-78"/>
<text text-anchor="start" x="85" y="-66" font-family="Helvetica,sans-Serif" font-size="10.00">RayTracer::SceneWriter</text>
<text text-anchor="middle" x="142" y="-55" font-family="Helvetica,sans-Serif" font-size="10.00">::execute</text>
</a>
</g>
</g>
<!-- Node1&#45;&gt;Node2 -->
<g id="edge1_Node000001_Node000002" class="edge">
<title>Node1&#45;&gt;Node2</title>
<g id="a_edge1_Node000001_Node000002"><a xlink:title=" ">
<path fill="none" stroke="#63b8ff" d="M41.23,-42.96C48.61,-44.45 57.5,-46.23 66.89,-48.12"/>
<polygon fill="#63b8ff" stroke="#63b8ff" points="66.32,-51.57 76.82,-50.11 67.7,-44.71 66.32,-51.57"/>
</a>
</g>
</g>
<!-- Node4 -->
<g id="Node000004" class="node">
<title>Node4</title>
<g id="a_Node000004"><a xlink:href="classRayTracer_1_1Exception.html#a174d44d7e2d2b77ab9eefe9fb25c5647" target="_top" xlink:title=" ">
<polygon fill="white" stroke="#666666" points="201.5,-30 82.5,-30 82.5,0 201.5,0 201.5,-30"/>
<text text-anchor="start" x="90.5" y="-18" font-family="Helvetica,sans-Serif" font-size="10.00">RayTracer::Exception</text>
<text text-anchor="middle" x="142" y="-7" font-family="Helvetica,sans-Serif" font-size="10.00">::what</text>
</a>
</g>
</g>
<!-- Node1&#45;&gt;Node4 -->
<g id="edge3_Node000001_Node000004" class="edge">
<title>Node1&#45;&gt;Node4</title>
<g id="a_edge3_Node000001_Node000004"><a xlink:title=" ">
<path fill="none" stroke="#63b8ff" d="M41.23,-35.04C50,-33.28 60.9,-31.09 72.23,-28.81"/>
<polygon fill="#63b8ff" stroke="#63b8ff" points="73.16,-32.2 82.27,-26.8 71.78,-25.33 73.16,-32.2"/>
</a>
</g>
</g>
<!-- Node3 -->
<g id="Node000003" class="node">
<title>Node3</title>
<g id="a_Node000003"><a xlink:href="classRayTracer_1_1ARenderer.html#ad1e1ffbb9c94875192cfdfac41d57271" target="_top" xlink:title="Render a scene and produce a framebuffer.">
<polygon fill="white" stroke="#666666" points="365,-78 243,-78 243,-48 365,-48 365,-78"/>
<text text-anchor="start" x="251" y="-66" font-family="Helvetica,sans-Serif" font-size="10.00">RayTracer::ARenderer</text>
<text text-anchor="middle" x="304" y="-55" font-family="Helvetica,sans-Serif" font-size="10.00">::render</text>
</a>
</g>
</g>
<!-- Node2&#45;&gt;Node3 -->
<g id="edge2_Node000002_Node000003" class="edge">
<title>Node2&#45;&gt;Node3</title>
<g id="a_edge2_Node000002_Node000003"><a xlink:title=" ">
<path fill="none" stroke="#63b8ff" d="M207.16,-63C215.56,-63 224.21,-63 232.71,-63"/>
<polygon fill="#63b8ff" stroke="#63b8ff" points="232.98,-66.5 242.98,-63 232.98,-59.5 232.98,-66.5"/>
</a>
</g>
</g>
</g>
</svg>
