<?xml version="1.0" encoding="UTF-8" standalone="no"?>
<!DOCTYPE svg PUBLIC "-//W3C//DTD SVG 1.1//EN"
 "http://www.w3.org/Graphics/SVG/1.1/DTD/svg11.dtd">
<!-- Generated by graphviz version 2.43.0 (0)
 -->
<!-- Title: main Pages: 1 -->
<svg width="206pt" height="86pt"
 viewBox="0.00 0.00 206.00 86.00" xmlns="http://www.w3.org/2000/svg" xmlns:xlink="http://www.w3.org/1999/xlink">
<g id="graph0" class="graph" transform="scale(1 1) rotate(0) translate(4 82)">
<title>main</title>
<!-- Node1 -->
<g id="Node000001" class="node">
<title>Node1</title>
<g id="a_Node000001"><a xlink:title=" ">
<polygon fill="#999999" stroke="#666666" points="41,-48.5 0,-48.5 0,-29.5 41,-29.5 41,-48.5"/>
<text text-anchor="middle" x="20.5" y="-36.5" font-family="Helvetica,sans-Serif" font-size="10.00">main</text>
</a>
</g>
</g>
<!-- Node2 -->
<g id="Node000002" class="node">
<title>Node2</title>
<g id="a_Node000002"><a xlink:href="classRayTracer_1_1AInterface.html#adbecc4c827299afb611ce7d6caba4f0c" target="_top" xlink:title="Execute the interface&#39;s main behavior (e.g., render and output a scene).">
<polygon fill="white" stroke="#666666" points="198,-78 77,-78 77,-48 198,-48 198,-78"/>
<text text-anchor="start" x="85" y="-66" font-family="Helvetica,sans-Serif" font-size="10.00">RayTracer::AInterface</text>
<text text-anchor="middle" x="137.5" y="-55" font-family="Helvetica,sans-Serif" font-size="10.00">::execute</text>
</a>
</g>
</g>
<!-- Node1&#45;&gt;Node2 -->
<g id="edge1_Node000001_Node000002" class="edge">
<title>Node1&#45;&gt;Node2</title>
<g id="a_edge1_Node000001_Node000002"><a xlink:title=" ">
<path fill="none" stroke="#63b8ff" d="M41.01,-43.07C48.43,-44.62 57.37,-46.49 66.78,-48.45"/>
<polygon fill="#63b8ff" stroke="#63b8ff" points="66.2,-51.9 76.7,-50.52 67.63,-45.05 66.2,-51.9"/>
</a>
</g>
</g>
<!-- Node3 -->
<g id="Node000003" class="node">
<title>Node3</title>
<g id="a_Node000003"><a xlink:href="classRayTracer_1_1AInterface.html#a5a886f9377ffbcfe0654e3ff472130f2" target="_top" xlink:title="Attach the renderer used by the interface.">
<polygon fill="white" stroke="#666666" points="198,-30 77,-30 77,0 198,0 198,-30"/>
<text text-anchor="start" x="85" y="-18" font-family="Helvetica,sans-Serif" font-size="10.00">RayTracer::AInterface</text>
<text text-anchor="middle" x="137.5" y="-7" font-family="Helvetica,sans-Serif" font-size="10.00">::setRenderer</text>
</a>
</g>
</g>
<!-- Node1&#45;&gt;Node3 -->
<g id="edge2_Node000001_Node000003" class="edge">
<title>Node1&#45;&gt;Node3</title>
<g id="a_edge2_Node000001_Node000003"><a xlink:title=" ">
<path fill="none" stroke="#63b8ff" d="M41.01,-34.93C48.43,-33.38 57.37,-31.51 66.78,-29.55"/>
<polygon fill="#63b8ff" stroke="#63b8ff" points="67.63,-32.95 76.7,-27.48 66.2,-26.1 67.63,-32.95"/>
</a>
</g>
</g>
</g>
</svg>
