<?xml version="1.0" encoding="UTF-8" standalone="no"?>
<!DOCTYPE svg PUBLIC "-//W3C//DTD SVG 1.1//EN"
 "http://www.w3.org/Graphics/SVG/1.1/DTD/svg11.dtd">
<!-- Generated by graphviz version 2.43.0 (0)
 -->
<!-- Title: src/main.cpp Pages: 1 -->
<svg width="1241pt" height="687pt"
 viewBox="0.00 0.00 1240.50 687.00" xmlns="http://www.w3.org/2000/svg" xmlns:xlink="http://www.w3.org/1999/xlink">
<g id="graph0" class="graph" transform="scale(1 1) rotate(0) translate(4 683)">
<title>src/main.cpp</title>
<!-- Node1 -->
<g id="Node000001" class="node">
<title>Node1</title>
<g id="a_Node000001"><a xlink:title=" ">
<polygon fill="#999999" stroke="#666666" points="436,-679 357,-679 357,-660 436,-660 436,-679"/>
<text text-anchor="middle" x="396.5" y="-667" font-family="Helvetica,sans-Serif" font-size="10.00">src/main.cpp</text>
</a>
</g>
</g>
<!-- Node2 -->
<g id="Node000002" class="node">
<title>Node2</title>
<g id="a_Node000002"><a xlink:href="Scene_8hpp.html" target="_top" xlink:title=" ">
<polygon fill="white" stroke="#666666" points="618.5,-547 450.5,-547 450.5,-528 618.5,-528 618.5,-547"/>
<text text-anchor="middle" x="534.5" y="-535" font-family="Helvetica,sans-Serif" font-size="10.00">SceneSystem/Scene/Scene.hpp</text>
</a>
</g>
</g>
<!-- Node1&#45;&gt;Node2 -->
<g id="edge1_Node000001_Node000002" class="edge">
<title>Node1&#45;&gt;Node2</title>
<g id="a_edge1_Node000001_Node000002"><a xlink:title=" ">
<path fill="none" stroke="#63b8ff" d="M419.59,-659.88C437.43,-652.39 461.96,-640.2 479.5,-624 500.72,-604.4 517.29,-574.91 526.48,-556.19"/>
<polygon fill="#63b8ff" stroke="#63b8ff" points="529.7,-557.56 530.81,-547.03 523.37,-554.57 529.7,-557.56"/>
</a>
</g>
</g>
<!-- Node8 -->
<g id="Node000008" class="node">
<title>Node8</title>
<g id="a_Node000008"><a xlink:href="RaytracerException_8hpp.html" target="_top" xlink:title=" ">
<polygon fill="white" stroke="#666666" points="227,-371 50,-371 50,-341 227,-341 227,-371"/>
<text text-anchor="start" x="58" y="-359" font-family="Helvetica,sans-Serif" font-size="10.00">../Exceptions/RaytracerException</text>
<text text-anchor="middle" x="138.5" y="-348" font-family="Helvetica,sans-Serif" font-size="10.00">/RaytracerException.hpp</text>
</a>
</g>
</g>
<!-- Node1&#45;&gt;Node8 -->
<g id="edge55_Node000001_Node000008" class="edge">
<title>Node1&#45;&gt;Node8</title>
<g id="a_edge55_Node000001_Node000008"><a xlink:title=" ">
<path fill="none" stroke="#63b8ff" d="M356.68,-667.68C318.01,-664.93 259.58,-655.36 220.5,-624 187.33,-597.38 177.5,-581.04 177.5,-538.5 177.5,-538.5 177.5,-538.5 177.5,-470.5 177.5,-437.83 162.87,-402.6 151.53,-380.2"/>
<polygon fill="#63b8ff" stroke="#63b8ff" points="154.52,-378.38 146.77,-371.15 148.33,-381.63 154.52,-378.38"/>
</a>
</g>
</g>
<!-- Node10 -->
<g id="Node000010" class="node">
<title>Node10</title>
<g id="a_Node000010"><a xlink:title=" ">
<polygon fill="#e0e0e0" stroke="#999999" points="317.5,-305 257.5,-305 257.5,-286 317.5,-286 317.5,-305"/>
<text text-anchor="middle" x="287.5" y="-293" font-family="Helvetica,sans-Serif" font-size="10.00">iostream</text>
</a>
</g>
</g>
<!-- Node1&#45;&gt;Node10 -->
<g id="edge58_Node000001_Node000010" class="edge">
<title>Node1&#45;&gt;Node10</title>
<g id="a_edge58_Node000001_Node000010"><a xlink:title=" ">
<path fill="none" stroke="#63b8ff" d="M367.54,-659.96C320.94,-644.22 234.5,-605.93 234.5,-538.5 234.5,-538.5 234.5,-538.5 234.5,-470.5 234.5,-411.2 263.01,-345.28 278.21,-314.35"/>
<polygon fill="#63b8ff" stroke="#63b8ff" points="281.42,-315.77 282.8,-305.27 275.17,-312.62 281.42,-315.77"/>
</a>
</g>
</g>
<!-- Node30 -->
<g id="Node000030" class="node">
<title>Node30</title>
<g id="a_Node000030"><a xlink:href="SceneLoader_8hpp.html" target="_top" xlink:title=" ">
<polygon fill="white" stroke="#666666" points="470.5,-624 322.5,-624 322.5,-594 470.5,-594 470.5,-624"/>
<text text-anchor="start" x="330.5" y="-612" font-family="Helvetica,sans-Serif" font-size="10.00">SceneSystem/SceneLoader</text>
<text text-anchor="middle" x="396.5" y="-601" font-family="Helvetica,sans-Serif" font-size="10.00">/SceneLoader.hpp</text>
</a>
</g>
</g>
<!-- Node1&#45;&gt;Node30 -->
<g id="edge44_Node000001_Node000030" class="edge">
<title>Node1&#45;&gt;Node30</title>
<g id="a_edge44_Node000001_Node000030"><a xlink:title=" ">
<path fill="none" stroke="#63b8ff" d="M396.5,-659.87C396.5,-653.11 396.5,-643.35 396.5,-634.26"/>
<polygon fill="#63b8ff" stroke="#63b8ff" points="400,-634.11 396.5,-624.11 393,-634.11 400,-634.11"/>
</a>
</g>
</g>
<!-- Node33 -->
<g id="Node000033" class="node">
<title>Node33</title>
<g id="a_Node000033"><a xlink:href="SceneWriter_8hpp.html" target="_top" xlink:title=" ">
<polygon fill="white" stroke="#666666" points="1070,-558 923,-558 923,-517 1070,-517 1070,-558"/>
<text text-anchor="start" x="931" y="-546" font-family="Helvetica,sans-Serif" font-size="10.00">Objects/Plugins/CorePlugin</text>
<text text-anchor="start" x="931" y="-535" font-family="Helvetica,sans-Serif" font-size="10.00">/Interfaces/SceneWriter</text>
<text text-anchor="middle" x="996.5" y="-524" font-family="Helvetica,sans-Serif" font-size="10.00">/SceneWriter.hpp</text>
</a>
</g>
</g>
<!-- Node1&#45;&gt;Node33 -->
<g id="edge56_Node000001_Node000033" class="edge">
<title>Node1&#45;&gt;Node33</title>
<g id="a_edge56_Node000001_Node000033"><a xlink:title=" ">
<path fill="none" stroke="#63b8ff" d="M435.87,-659.97C532.23,-639.09 781.64,-585.05 912.91,-556.61"/>
<polygon fill="#63b8ff" stroke="#63b8ff" points="913.89,-559.98 922.92,-554.44 912.4,-553.14 913.89,-559.98"/>
</a>
</g>
</g>
<!-- Node3 -->
<g id="Node000003" class="node">
<title>Node3</title>
<g id="a_Node000003"><a xlink:href="Plugin_8hpp.html" target="_top" xlink:title=" ">
<polygon fill="white" stroke="#666666" points="858,-426 733,-426 733,-407 858,-407 858,-426"/>
<text text-anchor="middle" x="795.5" y="-414" font-family="Helvetica,sans-Serif" font-size="10.00">../../Objects/Plugin.hpp</text>
</a>
</g>
</g>
<!-- Node2&#45;&gt;Node3 -->
<g id="edge2_Node000002_Node000003" class="edge">
<title>Node2&#45;&gt;Node3</title>
<g id="a_edge2_Node000002_Node000003"><a xlink:title=" ">
<path fill="none" stroke="#63b8ff" d="M613.62,-528C655.49,-520.59 706.23,-506.76 745.5,-481 763.04,-469.5 777.15,-449.77 785.85,-435.35"/>
<polygon fill="#63b8ff" stroke="#63b8ff" points="789.05,-436.8 790.98,-426.38 782.98,-433.32 789.05,-436.8"/>
</a>
</g>
</g>
<!-- Node5 -->
<g id="Node000005" class="node">
<title>Node5</title>
<g id="a_Node000005"><a xlink:title=" ">
<polygon fill="#e0e0e0" stroke="#999999" points="612.5,-189.5 554.5,-189.5 554.5,-170.5 612.5,-170.5 612.5,-189.5"/>
<text text-anchor="middle" x="583.5" y="-177.5" font-family="Helvetica,sans-Serif" font-size="10.00">memory</text>
</a>
</g>
</g>
<!-- Node2&#45;&gt;Node5 -->
<g id="edge43_Node000002_Node000005" class="edge">
<title>Node2&#45;&gt;Node5</title>
<g id="a_edge43_Node000002_Node000005"><a xlink:title=" ">
<path fill="none" stroke="#63b8ff" d="M530.58,-527.74C519.45,-502.07 488.5,-424.56 488.5,-357 488.5,-357 488.5,-357 488.5,-294.5 488.5,-250.21 531.56,-214.11 559.7,-195.25"/>
<polygon fill="#63b8ff" stroke="#63b8ff" points="561.73,-198.1 568.24,-189.74 557.94,-192.22 561.73,-198.1"/>
</a>
</g>
</g>
<!-- Node17 -->
<g id="Node000017" class="node">
<title>Node17</title>
<g id="a_Node000017"><a xlink:title=" ">
<polygon fill="#e0e0e0" stroke="#999999" points="1128,-189.5 1081,-189.5 1081,-170.5 1128,-170.5 1128,-189.5"/>
<text text-anchor="middle" x="1104.5" y="-177.5" font-family="Helvetica,sans-Serif" font-size="10.00">vector</text>
</a>
</g>
</g>
<!-- Node2&#45;&gt;Node17 -->
<g id="edge42_Node000002_Node000017" class="edge">
<title>Node2&#45;&gt;Node17</title>
<g id="a_edge42_Node000002_Node000017"><a xlink:title=" ">
<path fill="none" stroke="#63b8ff" d="M618.7,-530.83C804.34,-517.21 1232.5,-479.12 1232.5,-417.5 1232.5,-417.5 1232.5,-417.5 1232.5,-294.5 1232.5,-243.93 1175.87,-210.41 1137.94,-193.64"/>
<polygon fill="#63b8ff" stroke="#63b8ff" points="1138.85,-190.23 1128.28,-189.55 1136.12,-196.67 1138.85,-190.23"/>
</a>
</g>
</g>
<!-- Node27 -->
<g id="Node000027" class="node">
<title>Node27</title>
<g id="a_Node000027"><a xlink:href="PluginManager_8hpp.html" target="_top" xlink:title="Plugin manager for loading and managing plugins.">
<polygon fill="white" stroke="#666666" points="494.5,-481 300.5,-481 300.5,-462 494.5,-462 494.5,-481"/>
<text text-anchor="middle" x="397.5" y="-469" font-family="Helvetica,sans-Serif" font-size="10.00">../PluginManager/PluginManager.hpp</text>
</a>
</g>
</g>
<!-- Node2&#45;&gt;Node27 -->
<g id="edge37_Node000002_Node000027" class="edge">
<title>Node2&#45;&gt;Node27</title>
<g id="a_edge37_Node000002_Node000027"><a xlink:title=" ">
<path fill="none" stroke="#63b8ff" d="M516.02,-527.87C492.74,-516.99 452.49,-498.19 425.44,-485.55"/>
<polygon fill="#63b8ff" stroke="#63b8ff" points="426.66,-482.26 416.12,-481.2 423.7,-488.6 426.66,-482.26"/>
</a>
</g>
</g>
<!-- Node4 -->
<g id="Node000004" class="node">
<title>Node4</title>
<g id="a_Node000004"><a xlink:title=" ">
<polygon fill="#e0e0e0" stroke="#999999" points="822,-365.5 757,-365.5 757,-346.5 822,-346.5 822,-365.5"/>
<text text-anchor="middle" x="789.5" y="-353.5" font-family="Helvetica,sans-Serif" font-size="10.00">functional</text>
</a>
</g>
</g>
<!-- Node3&#45;&gt;Node4 -->
<g id="edge3_Node000003_Node000004" class="edge">
<title>Node3&#45;&gt;Node4</title>
<g id="a_edge3_Node000003_Node000004"><a xlink:title=" ">
<path fill="none" stroke="#63b8ff" d="M794.61,-406.87C793.78,-398.75 792.51,-386.31 791.44,-375.89"/>
<polygon fill="#63b8ff" stroke="#63b8ff" points="794.89,-375.26 790.39,-365.67 787.93,-375.97 794.89,-375.26"/>
</a>
</g>
</g>
<!-- Node3&#45;&gt;Node5 -->
<g id="edge4_Node000003_Node000005" class="edge">
<title>Node3&#45;&gt;Node5</title>
<g id="a_edge4_Node000003_Node000005"><a xlink:title=" ">
<path fill="none" stroke="#63b8ff" d="M783.31,-406.98C771.54,-398.49 753.48,-384.76 739.5,-371 680.27,-312.71 620.9,-233.19 595.86,-198.44"/>
<polygon fill="#63b8ff" stroke="#63b8ff" points="598.41,-195.98 589.74,-189.88 592.71,-200.05 598.41,-195.98"/>
</a>
</g>
</g>
<!-- Node6 -->
<g id="Node000006" class="node">
<title>Node6</title>
<g id="a_Node000006"><a xlink:title=" ">
<polygon fill="#e0e0e0" stroke="#999999" points="606,-365.5 555,-365.5 555,-346.5 606,-346.5 606,-365.5"/>
<text text-anchor="middle" x="580.5" y="-353.5" font-family="Helvetica,sans-Serif" font-size="10.00">variant</text>
</a>
</g>
</g>
<!-- Node3&#45;&gt;Node6 -->
<g id="edge5_Node000003_Node000006" class="edge">
<title>Node3&#45;&gt;Node6</title>
<g id="a_edge5_Node000003_Node000006"><a xlink:title=" ">
<path fill="none" stroke="#63b8ff" d="M753.94,-406.94C717.16,-398.95 662.23,-386.04 615.5,-371 613.83,-370.46 612.13,-369.88 610.41,-369.28"/>
<polygon fill="#63b8ff" stroke="#63b8ff" points="611.28,-365.86 600.68,-365.62 608.82,-372.42 611.28,-365.86"/>
</a>
</g>
</g>
<!-- Node7 -->
<g id="Node000007" class="node">
<title>Node7</title>
<g id="a_Node000007"><a xlink:title=" ">
<polygon fill="#e0e0e0" stroke="#999999" points="662.5,-365.5 624.5,-365.5 624.5,-346.5 662.5,-346.5 662.5,-365.5"/>
<text text-anchor="middle" x="643.5" y="-353.5" font-family="Helvetica,sans-Serif" font-size="10.00">map</text>
</a>
</g>
</g>
<!-- Node3&#45;&gt;Node7 -->
<g id="edge6_Node000003_Node000007" class="edge">
<title>Node3&#45;&gt;Node7</title>
<g id="a_edge6_Node000003_Node000007"><a xlink:title=" ">
<path fill="none" stroke="#63b8ff" d="M771.68,-406.94C747.57,-398.19 709.28,-384.08 676.5,-371 675.09,-370.44 673.65,-369.86 672.2,-369.26"/>
<polygon fill="#63b8ff" stroke="#63b8ff" points="673.21,-365.89 662.64,-365.28 670.52,-372.36 673.21,-365.89"/>
</a>
</g>
</g>
<!-- Node3&#45;&gt;Node8 -->
<g id="edge7_Node000003_Node000008" class="edge">
<title>Node3&#45;&gt;Node8</title>
<g id="a_edge7_Node000003_Node000008"><a xlink:title=" ">
<path fill="none" stroke="#63b8ff" d="M732.8,-409.92C618.2,-399.71 374.11,-377.98 237.08,-365.78"/>
<polygon fill="#63b8ff" stroke="#63b8ff" points="237.27,-362.28 227,-364.88 236.65,-369.25 237.27,-362.28"/>
</a>
</g>
</g>
<!-- Node13 -->
<g id="Node000013" class="node">
<title>Node13</title>
<g id="a_Node000013"><a xlink:href="AInterface_8hpp.html" target="_top" xlink:title=" ">
<polygon fill="white" stroke="#666666" points="1128.5,-371 1012.5,-371 1012.5,-341 1128.5,-341 1128.5,-371"/>
<text text-anchor="start" x="1020.5" y="-359" font-family="Helvetica,sans-Serif" font-size="10.00">Abstracts/AInterface</text>
<text text-anchor="middle" x="1070.5" y="-348" font-family="Helvetica,sans-Serif" font-size="10.00">/AInterface.hpp</text>
</a>
</g>
</g>
<!-- Node3&#45;&gt;Node13 -->
<g id="edge12_Node000003_Node000013" class="edge">
<title>Node3&#45;&gt;Node13</title>
<g id="a_edge12_Node000003_Node000013"><a xlink:title=" ">
<path fill="none" stroke="#63b8ff" d="M835.49,-406.99C879.22,-397.69 950.07,-382.62 1002.56,-371.45"/>
<polygon fill="#63b8ff" stroke="#63b8ff" points="1003.41,-374.85 1012.47,-369.35 1001.96,-368 1003.41,-374.85"/>
</a>
</g>
</g>
<!-- Node14 -->
<g id="Node000014" class="node">
<title>Node14</title>
<g id="a_Node000014"><a xlink:href="ARenderer_8hpp.html" target="_top" xlink:title=" ">
<polygon fill="white" stroke="#666666" points="1166,-250 1015,-250 1015,-231 1166,-231 1166,-250"/>
<text text-anchor="middle" x="1090.5" y="-238" font-family="Helvetica,sans-Serif" font-size="10.00">../ARenderer/ARenderer.hpp</text>
</a>
</g>
</g>
<!-- Node3&#45;&gt;Node14 -->
<g id="edge34_Node000003_Node000014" class="edge">
<title>Node3&#45;&gt;Node14</title>
<g id="a_edge34_Node000003_Node000014"><a xlink:title=" ">
<path fill="none" stroke="#63b8ff" d="M858.27,-411.75C951.97,-405.52 1119.4,-391.61 1137.5,-371 1166.84,-337.6 1128.79,-284.43 1105.75,-257.81"/>
<polygon fill="#63b8ff" stroke="#63b8ff" points="1108.18,-255.27 1098.9,-250.15 1102.96,-259.94 1108.18,-255.27"/>
</a>
</g>
</g>
<!-- Node18 -->
<g id="Node000018" class="node">
<title>Node18</title>
<g id="a_Node000018"><a xlink:href="APrimitive_8hpp.html" target="_top" xlink:title=" ">
<polygon fill="white" stroke="#666666" points="956.5,-371 840.5,-371 840.5,-341 956.5,-341 956.5,-371"/>
<text text-anchor="start" x="848.5" y="-359" font-family="Helvetica,sans-Serif" font-size="10.00">Abstracts/APrimitive</text>
<text text-anchor="middle" x="898.5" y="-348" font-family="Helvetica,sans-Serif" font-size="10.00">/APrimitive.hpp</text>
</a>
</g>
</g>
<!-- Node3&#45;&gt;Node18 -->
<g id="edge17_Node000003_Node000018" class="edge">
<title>Node3&#45;&gt;Node18</title>
<g id="a_edge17_Node000003_Node000018"><a xlink:title=" ">
<path fill="none" stroke="#63b8ff" d="M810.7,-406.87C824.8,-398.86 846.3,-386.65 864.49,-376.31"/>
<polygon fill="#63b8ff" stroke="#63b8ff" points="866.68,-379.1 873.65,-371.11 863.22,-373.01 866.68,-379.1"/>
</a>
</g>
</g>
<!-- Node19 -->
<g id="Node000019" class="node">
<title>Node19</title>
<g id="a_Node000019"><a xlink:href="IMaterial_8hpp.html" target="_top" xlink:title=" ">
<polygon fill="white" stroke="#666666" points="1011.5,-305 921.5,-305 921.5,-286 1011.5,-286 1011.5,-305"/>
<text text-anchor="middle" x="966.5" y="-293" font-family="Helvetica,sans-Serif" font-size="10.00">../IMaterial.hpp</text>
</a>
</g>
</g>
<!-- Node3&#45;&gt;Node19 -->
<g id="edge36_Node000003_Node000019" class="edge">
<title>Node3&#45;&gt;Node19</title>
<g id="a_edge36_Node000003_Node000019"><a xlink:title=" ">
<path fill="none" stroke="#63b8ff" d="M858.22,-407.11C900.95,-399.97 952.1,-388.12 965.5,-371 977.68,-355.44 975.68,-331.93 972.09,-315.49"/>
<polygon fill="#63b8ff" stroke="#63b8ff" points="975.38,-314.24 969.5,-305.42 968.6,-315.98 975.38,-314.24"/>
</a>
</g>
</g>
<!-- Node20 -->
<g id="Node000020" class="node">
<title>Node20</title>
<g id="a_Node000020"><a xlink:href="ILight_8hpp.html" target="_top" xlink:title=" ">
<polygon fill="white" stroke="#666666" points="908,-250 843,-250 843,-231 908,-231 908,-250"/>
<text text-anchor="middle" x="875.5" y="-238" font-family="Helvetica,sans-Serif" font-size="10.00">ILight.hpp</text>
</a>
</g>
</g>
<!-- Node3&#45;&gt;Node20 -->
<g id="edge35_Node000003_Node000020" class="edge">
<title>Node3&#45;&gt;Node20</title>
<g id="a_edge35_Node000003_Node000020"><a xlink:title=" ">
<path fill="none" stroke="#63b8ff" d="M781.13,-406.96C769.63,-399.21 754.32,-386.62 747.5,-371 742.17,-358.78 741.64,-352.98 747.5,-341 767.9,-299.3 815.15,-270.03 846.18,-254.48"/>
<polygon fill="#63b8ff" stroke="#63b8ff" points="847.76,-257.61 855.24,-250.1 844.71,-251.3 847.76,-257.61"/>
</a>
</g>
</g>
<!-- Node9 -->
<g id="Node000009" class="node">
<title>Node9</title>
<g id="a_Node000009"><a xlink:title=" ">
<polygon fill="#e0e0e0" stroke="#999999" points="65,-305 0,-305 0,-286 65,-286 65,-305"/>
<text text-anchor="middle" x="32.5" y="-293" font-family="Helvetica,sans-Serif" font-size="10.00">exception</text>
</a>
</g>
</g>
<!-- Node8&#45;&gt;Node9 -->
<g id="edge8_Node000008_Node000009" class="edge">
<title>Node8&#45;&gt;Node9</title>
<g id="a_edge8_Node000008_Node000009"><a xlink:title=" ">
<path fill="none" stroke="#63b8ff" d="M113.11,-340.99C96.21,-331.66 74.12,-319.47 57.34,-310.21"/>
<polygon fill="#63b8ff" stroke="#63b8ff" points="58.6,-306.91 48.15,-305.14 55.22,-313.04 58.6,-306.91"/>
</a>
</g>
</g>
<!-- Node8&#45;&gt;Node10 -->
<g id="edge9_Node000008_Node000010" class="edge">
<title>Node8&#45;&gt;Node10</title>
<g id="a_edge9_Node000008_Node000010"><a xlink:title=" ">
<path fill="none" stroke="#63b8ff" d="M174.19,-340.99C199.16,-331.18 232.2,-318.21 256.16,-308.81"/>
<polygon fill="#63b8ff" stroke="#63b8ff" points="257.47,-312.05 265.5,-305.14 254.91,-305.54 257.47,-312.05"/>
</a>
</g>
</g>
<!-- Node11 -->
<g id="Node000011" class="node">
<title>Node11</title>
<g id="a_Node000011"><a xlink:title=" ">
<polygon fill="#e0e0e0" stroke="#999999" points="127.5,-305 83.5,-305 83.5,-286 127.5,-286 127.5,-305"/>
<text text-anchor="middle" x="105.5" y="-293" font-family="Helvetica,sans-Serif" font-size="10.00">string</text>
</a>
</g>
</g>
<!-- Node8&#45;&gt;Node11 -->
<g id="edge10_Node000008_Node000011" class="edge">
<title>Node8&#45;&gt;Node11</title>
<g id="a_edge10_Node000008_Node000011"><a xlink:title=" ">
<path fill="none" stroke="#63b8ff" d="M130.51,-340.84C125.97,-332.78 120.23,-322.62 115.4,-314.06"/>
<polygon fill="#63b8ff" stroke="#63b8ff" points="118.41,-312.26 110.44,-305.27 112.31,-315.7 118.41,-312.26"/>
</a>
</g>
</g>
<!-- Node12 -->
<g id="Node000012" class="node">
<title>Node12</title>
<g id="a_Node000012"><a xlink:title=" ">
<polygon fill="#e0e0e0" stroke="#999999" points="239,-305 146,-305 146,-286 239,-286 239,-305"/>
<text text-anchor="middle" x="192.5" y="-293" font-family="Helvetica,sans-Serif" font-size="10.00">source_location</text>
</a>
</g>
</g>
<!-- Node8&#45;&gt;Node12 -->
<g id="edge11_Node000008_Node000012" class="edge">
<title>Node8&#45;&gt;Node12</title>
<g id="a_edge11_Node000008_Node000012"><a xlink:title=" ">
<path fill="none" stroke="#63b8ff" d="M151.57,-340.84C159.41,-332.35 169.41,-321.52 177.56,-312.69"/>
<polygon fill="#63b8ff" stroke="#63b8ff" points="180.2,-314.99 184.41,-305.27 175.05,-310.24 180.2,-314.99"/>
</a>
</g>
</g>
<!-- Node13&#45;&gt;Node14 -->
<g id="edge13_Node000013_Node000014" class="edge">
<title>Node13&#45;&gt;Node14</title>
<g id="a_edge13_Node000013_Node000014"><a xlink:title=" ">
<path fill="none" stroke="#63b8ff" d="M1073.03,-340.63C1076.63,-320.21 1083.22,-282.81 1087.2,-260.24"/>
<polygon fill="#63b8ff" stroke="#63b8ff" points="1090.67,-260.69 1088.96,-250.23 1083.78,-259.47 1090.67,-260.69"/>
</a>
</g>
</g>
<!-- Node15 -->
<g id="Node000015" class="node">
<title>Node15</title>
<g id="a_Node000015"><a xlink:href="Color_8hpp.html" target="_top" xlink:title=" ">
<polygon fill="white" stroke="#666666" points="1063,-189.5 948,-189.5 948,-170.5 1063,-170.5 1063,-189.5"/>
<text text-anchor="middle" x="1005.5" y="-177.5" font-family="Helvetica,sans-Serif" font-size="10.00">../../../Utils/Color.hpp</text>
</a>
</g>
</g>
<!-- Node14&#45;&gt;Node15 -->
<g id="edge14_Node000014_Node000015" class="edge">
<title>Node14&#45;&gt;Node15</title>
<g id="a_edge14_Node000014_Node000015"><a xlink:title=" ">
<path fill="none" stroke="#63b8ff" d="M1077.96,-230.87C1064.4,-221.54 1042.56,-206.51 1026.4,-195.38"/>
<polygon fill="#63b8ff" stroke="#63b8ff" points="1028.32,-192.45 1018.09,-189.67 1024.35,-198.22 1028.32,-192.45"/>
</a>
</g>
</g>
<!-- Node14&#45;&gt;Node17 -->
<g id="edge16_Node000014_Node000017" class="edge">
<title>Node14&#45;&gt;Node17</title>
<g id="a_edge16_Node000014_Node000017"><a xlink:title=" ">
<path fill="none" stroke="#63b8ff" d="M1092.57,-230.87C1094.53,-222.66 1097.55,-210.04 1100.06,-199.55"/>
<polygon fill="#63b8ff" stroke="#63b8ff" points="1103.5,-200.21 1102.43,-189.67 1096.69,-198.58 1103.5,-200.21"/>
</a>
</g>
</g>
<!-- Node16 -->
<g id="Node000016" class="node">
<title>Node16</title>
<g id="a_Node000016"><a xlink:title=" ">
<polygon fill="#e0e0e0" stroke="#999999" points="1037.5,-129 973.5,-129 973.5,-110 1037.5,-110 1037.5,-129"/>
<text text-anchor="middle" x="1005.5" y="-117" font-family="Helvetica,sans-Serif" font-size="10.00">algorithm</text>
</a>
</g>
</g>
<!-- Node15&#45;&gt;Node16 -->
<g id="edge15_Node000015_Node000016" class="edge">
<title>Node15&#45;&gt;Node16</title>
<g id="a_edge15_Node000015_Node000016"><a xlink:title=" ">
<path fill="none" stroke="#63b8ff" d="M1005.5,-170.37C1005.5,-162.25 1005.5,-149.81 1005.5,-139.39"/>
<polygon fill="#63b8ff" stroke="#63b8ff" points="1009,-139.17 1005.5,-129.17 1002,-139.17 1009,-139.17"/>
</a>
</g>
</g>
<!-- Node18&#45;&gt;Node19 -->
<g id="edge18_Node000018_Node000019" class="edge">
<title>Node18&#45;&gt;Node19</title>
<g id="a_edge18_Node000018_Node000019"><a xlink:title=" ">
<path fill="none" stroke="#63b8ff" d="M914.96,-340.84C925.13,-332.09 938.19,-320.85 948.62,-311.88"/>
<polygon fill="#63b8ff" stroke="#63b8ff" points="951.01,-314.44 956.31,-305.27 946.45,-309.13 951.01,-314.44"/>
</a>
</g>
</g>
<!-- Node25 -->
<g id="Node000025" class="node">
<title>Node25</title>
<g id="a_Node000025"><a xlink:title=" ">
<polygon fill="#e0e0e0" stroke="#999999" points="903.5,-305 847.5,-305 847.5,-286 903.5,-286 903.5,-305"/>
<text text-anchor="middle" x="875.5" y="-293" font-family="Helvetica,sans-Serif" font-size="10.00">optional</text>
</a>
</g>
</g>
<!-- Node18&#45;&gt;Node25 -->
<g id="edge30_Node000018_Node000025" class="edge">
<title>Node18&#45;&gt;Node25</title>
<g id="a_edge30_Node000018_Node000025"><a xlink:title=" ">
<path fill="none" stroke="#63b8ff" d="M892.93,-340.84C889.83,-332.95 885.94,-323.05 882.62,-314.61"/>
<polygon fill="#63b8ff" stroke="#63b8ff" points="885.86,-313.29 878.95,-305.27 879.35,-315.85 885.86,-313.29"/>
</a>
</g>
</g>
<!-- Node26 -->
<g id="Node000026" class="node">
<title>Node26</title>
<g id="a_Node000026"><a xlink:href="Ray_8hpp.html" target="_top" xlink:title=" ">
<polygon fill="white" stroke="#666666" points="777.5,-195 663.5,-195 663.5,-165 777.5,-165 777.5,-195"/>
<text text-anchor="start" x="671.5" y="-183" font-family="Helvetica,sans-Serif" font-size="10.00">../../../Geometry/Ray</text>
<text text-anchor="middle" x="720.5" y="-172" font-family="Helvetica,sans-Serif" font-size="10.00">/Ray.hpp</text>
</a>
</g>
</g>
<!-- Node18&#45;&gt;Node26 -->
<g id="edge31_Node000018_Node000026" class="edge">
<title>Node18&#45;&gt;Node26</title>
<g id="a_edge31_Node000018_Node000026"><a xlink:title=" ">
<path fill="none" stroke="#63b8ff" d="M880.45,-340.86C868.29,-331.12 852.06,-317.7 838.5,-305 802.09,-270.91 762.7,-228.22 739.89,-202.86"/>
<polygon fill="#63b8ff" stroke="#63b8ff" points="742.37,-200.38 733.09,-195.27 737.16,-205.05 742.37,-200.38"/>
</a>
</g>
</g>
<!-- Node19&#45;&gt;Node15 -->
<g id="edge19_Node000019_Node000015" class="edge">
<title>Node19&#45;&gt;Node15</title>
<g id="a_edge19_Node000019_Node000015"><a xlink:title=" ">
<path fill="none" stroke="#63b8ff" d="M966.01,-285.58C965.61,-273.03 965.95,-249.59 972.5,-231 976.74,-218.96 984.51,-206.97 991.44,-197.75"/>
<polygon fill="#63b8ff" stroke="#63b8ff" points="994.23,-199.86 997.68,-189.85 988.74,-195.52 994.23,-199.86"/>
</a>
</g>
</g>
<!-- Node19&#45;&gt;Node17 -->
<g id="edge29_Node000019_Node000017" class="edge">
<title>Node19&#45;&gt;Node17</title>
<g id="a_edge29_Node000019_Node000017"><a xlink:title=" ">
<path fill="none" stroke="#63b8ff" d="M970.21,-285.66C976.16,-272.34 988.99,-246.99 1006.5,-231 1017.33,-221.11 1050.45,-205.08 1075.21,-193.85"/>
<polygon fill="#63b8ff" stroke="#63b8ff" points="1076.86,-196.94 1084.55,-189.65 1074,-190.56 1076.86,-196.94"/>
</a>
</g>
</g>
<!-- Node19&#45;&gt;Node20 -->
<g id="edge20_Node000019_Node000020" class="edge">
<title>Node19&#45;&gt;Node20</title>
<g id="a_edge20_Node000019_Node000020"><a xlink:title=" ">
<path fill="none" stroke="#63b8ff" d="M951.88,-285.98C937.64,-277.69 915.75,-264.94 899.05,-255.22"/>
<polygon fill="#63b8ff" stroke="#63b8ff" points="900.79,-252.18 890.39,-250.17 897.27,-258.23 900.79,-252.18"/>
</a>
</g>
</g>
<!-- Node20&#45;&gt;Node5 -->
<g id="edge28_Node000020_Node000005" class="edge">
<title>Node20&#45;&gt;Node5</title>
<g id="a_edge28_Node000020_Node000005"><a xlink:title=" ">
<path fill="none" stroke="#63b8ff" d="M842.85,-232.96C788.8,-222.13 680.93,-200.52 622.79,-188.87"/>
<polygon fill="#63b8ff" stroke="#63b8ff" points="623.37,-185.42 612.88,-186.89 622,-192.28 623.37,-185.42"/>
</a>
</g>
</g>
<!-- Node20&#45;&gt;Node15 -->
<g id="edge26_Node000020_Node000015" class="edge">
<title>Node20&#45;&gt;Node15</title>
<g id="a_edge26_Node000020_Node000015"><a xlink:title=" ">
<path fill="none" stroke="#63b8ff" d="M894.4,-230.99C916.16,-221.2 952.12,-205.02 977.21,-193.73"/>
<polygon fill="#63b8ff" stroke="#63b8ff" points="978.89,-196.81 986.57,-189.52 976.02,-190.43 978.89,-196.81"/>
</a>
</g>
</g>
<!-- Node20&#45;&gt;Node17 -->
<g id="edge27_Node000020_Node000017" class="edge">
<title>Node20&#45;&gt;Node17</title>
<g id="a_edge27_Node000020_Node000017"><a xlink:title=" ">
<path fill="none" stroke="#63b8ff" d="M908.09,-234.1C947.58,-227.12 1015.87,-213.6 1072.5,-195 1073.94,-194.53 1075.4,-194.01 1076.87,-193.47"/>
<polygon fill="#63b8ff" stroke="#63b8ff" points="1078.49,-196.59 1086.46,-189.61 1075.87,-190.1 1078.49,-196.59"/>
</a>
</g>
</g>
<!-- Node21 -->
<g id="Node000021" class="node">
<title>Node21</title>
<g id="a_Node000021"><a xlink:href="HitRecord_8hpp.html" target="_top" xlink:title=" ">
<polygon fill="white" stroke="#666666" points="929.5,-195 795.5,-195 795.5,-165 929.5,-165 929.5,-195"/>
<text text-anchor="start" x="803.5" y="-183" font-family="Helvetica,sans-Serif" font-size="10.00">../../Geometry/HitRecord</text>
<text text-anchor="middle" x="862.5" y="-172" font-family="Helvetica,sans-Serif" font-size="10.00">/HitRecord.hpp</text>
</a>
</g>
</g>
<!-- Node20&#45;&gt;Node21 -->
<g id="edge21_Node000020_Node000021" class="edge">
<title>Node20&#45;&gt;Node21</title>
<g id="a_edge21_Node000020_Node000021"><a xlink:title=" ">
<path fill="none" stroke="#63b8ff" d="M873.58,-230.87C872.06,-224.03 869.86,-214.14 867.83,-204.97"/>
<polygon fill="#63b8ff" stroke="#63b8ff" points="871.22,-204.12 865.64,-195.11 864.39,-205.64 871.22,-204.12"/>
</a>
</g>
</g>
<!-- Node22 -->
<g id="Node000022" class="node">
<title>Node22</title>
<g id="a_Node000022"><a xlink:href="Point3D_8hpp.html" target="_top" xlink:title=" ">
<polygon fill="white" stroke="#666666" points="854.5,-129 728.5,-129 728.5,-110 854.5,-110 854.5,-129"/>
<text text-anchor="middle" x="791.5" y="-117" font-family="Helvetica,sans-Serif" font-size="10.00">../Point3D/Point3D.hpp</text>
</a>
</g>
</g>
<!-- Node21&#45;&gt;Node22 -->
<g id="edge22_Node000021_Node000022" class="edge">
<title>Node21&#45;&gt;Node22</title>
<g id="a_edge22_Node000021_Node000022"><a xlink:title=" ">
<path fill="none" stroke="#63b8ff" d="M845.31,-164.84C834.69,-156.09 821.06,-144.85 810.17,-135.88"/>
<polygon fill="#63b8ff" stroke="#63b8ff" points="812.08,-132.92 802.14,-129.27 807.63,-138.33 812.08,-132.92"/>
</a>
</g>
</g>
<!-- Node23 -->
<g id="Node000023" class="node">
<title>Node23</title>
<g id="a_Node000023"><a xlink:href="Vector3D_8hpp.html" target="_top" xlink:title=" ">
<polygon fill="white" stroke="#666666" points="860.5,-74 722.5,-74 722.5,-55 860.5,-55 860.5,-74"/>
<text text-anchor="middle" x="791.5" y="-62" font-family="Helvetica,sans-Serif" font-size="10.00">../Vector3D/Vector3D.hpp</text>
</a>
</g>
</g>
<!-- Node21&#45;&gt;Node23 -->
<g id="edge25_Node000021_Node000023" class="edge">
<title>Node21&#45;&gt;Node23</title>
<g id="a_edge25_Node000021_Node000023"><a xlink:title=" ">
<path fill="none" stroke="#63b8ff" d="M866.63,-164.78C870.04,-150.08 872.95,-126.95 863.5,-110 855.46,-95.58 840.6,-85.24 826.46,-78.18"/>
<polygon fill="#63b8ff" stroke="#63b8ff" points="827.9,-74.99 817.35,-74.01 824.99,-81.36 827.9,-74.99"/>
</a>
</g>
</g>
<!-- Node22&#45;&gt;Node23 -->
<g id="edge23_Node000022_Node000023" class="edge">
<title>Node22&#45;&gt;Node23</title>
<g id="a_edge23_Node000022_Node000023"><a xlink:title=" ">
<path fill="none" stroke="#63b8ff" d="M791.5,-109.75C791.5,-102.8 791.5,-92.85 791.5,-84.13"/>
<polygon fill="#63b8ff" stroke="#63b8ff" points="795,-84.09 791.5,-74.09 788,-84.09 795,-84.09"/>
</a>
</g>
</g>
<!-- Node24 -->
<g id="Node000024" class="node">
<title>Node24</title>
<g id="a_Node000024"><a xlink:title=" ">
<polygon fill="#e0e0e0" stroke="#999999" points="817,-19 766,-19 766,0 817,0 817,-19"/>
<text text-anchor="middle" x="791.5" y="-7" font-family="Helvetica,sans-Serif" font-size="10.00">math.h</text>
</a>
</g>
</g>
<!-- Node23&#45;&gt;Node24 -->
<g id="edge24_Node000023_Node000024" class="edge">
<title>Node23&#45;&gt;Node24</title>
<g id="a_edge24_Node000023_Node000024"><a xlink:title=" ">
<path fill="none" stroke="#63b8ff" d="M791.5,-54.75C791.5,-47.8 791.5,-37.85 791.5,-29.13"/>
<polygon fill="#63b8ff" stroke="#63b8ff" points="795,-29.09 791.5,-19.09 788,-29.09 795,-29.09"/>
</a>
</g>
</g>
<!-- Node26&#45;&gt;Node22 -->
<g id="edge32_Node000026_Node000022" class="edge">
<title>Node26&#45;&gt;Node22</title>
<g id="a_edge32_Node000026_Node000022"><a xlink:title=" ">
<path fill="none" stroke="#63b8ff" d="M737.69,-164.84C748.31,-156.09 761.94,-144.85 772.83,-135.88"/>
<polygon fill="#63b8ff" stroke="#63b8ff" points="775.37,-138.33 780.86,-129.27 770.92,-132.92 775.37,-138.33"/>
</a>
</g>
</g>
<!-- Node26&#45;&gt;Node23 -->
<g id="edge33_Node000026_Node000023" class="edge">
<title>Node26&#45;&gt;Node23</title>
<g id="a_edge33_Node000026_Node000023"><a xlink:title=" ">
<path fill="none" stroke="#63b8ff" d="M716.37,-164.78C712.96,-150.08 710.05,-126.95 719.5,-110 727.54,-95.58 742.4,-85.24 756.54,-78.18"/>
<polygon fill="#63b8ff" stroke="#63b8ff" points="758.01,-81.36 765.65,-74.01 755.1,-74.99 758.01,-81.36"/>
</a>
</g>
</g>
<!-- Node27&#45;&gt;Node3 -->
<g id="edge41_Node000027_Node000003" class="edge">
<title>Node27&#45;&gt;Node3</title>
<g id="a_edge41_Node000027_Node000003"><a xlink:title=" ">
<path fill="none" stroke="#63b8ff" d="M461.45,-461.98C532.7,-452.5 647.68,-437.18 722.43,-427.23"/>
<polygon fill="#63b8ff" stroke="#63b8ff" points="723.25,-430.65 732.7,-425.86 722.32,-423.71 723.25,-430.65"/>
</a>
</g>
</g>
<!-- Node27&#45;&gt;Node10 -->
<g id="edge40_Node000027_Node000010" class="edge">
<title>Node27&#45;&gt;Node10</title>
<g id="a_edge40_Node000027_Node000010"><a xlink:title=" ">
<path fill="none" stroke="#63b8ff" d="M407.79,-461.97C421.06,-449.87 441.34,-426.96 431.5,-407 407.87,-359.08 352.37,-326.16 317.58,-309.4"/>
<polygon fill="#63b8ff" stroke="#63b8ff" points="318.91,-306.15 308.37,-305.1 315.95,-312.5 318.91,-306.15"/>
</a>
</g>
</g>
<!-- Node28 -->
<g id="Node000028" class="node">
<title>Node28</title>
<g id="a_Node000028"><a xlink:title=" ">
<polygon fill="#e0e0e0" stroke="#999999" points="350.5,-426 300.5,-426 300.5,-407 350.5,-407 350.5,-426"/>
<text text-anchor="middle" x="325.5" y="-414" font-family="Helvetica,sans-Serif" font-size="10.00">dlfcn.h</text>
</a>
</g>
</g>
<!-- Node27&#45;&gt;Node28 -->
<g id="edge38_Node000027_Node000028" class="edge">
<title>Node27&#45;&gt;Node28</title>
<g id="a_edge38_Node000027_Node000028"><a xlink:title=" ">
<path fill="none" stroke="#63b8ff" d="M385.93,-461.98C375.08,-454 358.62,-441.88 345.62,-432.31"/>
<polygon fill="#63b8ff" stroke="#63b8ff" points="347.41,-429.28 337.28,-426.17 343.26,-434.92 347.41,-429.28"/>
</a>
</g>
</g>
<!-- Node29 -->
<g id="Node000029" class="node">
<title>Node29</title>
<g id="a_Node000029"><a xlink:title=" ">
<polygon fill="#e0e0e0" stroke="#999999" points="422.5,-426 368.5,-426 368.5,-407 422.5,-407 422.5,-426"/>
<text text-anchor="middle" x="395.5" y="-414" font-family="Helvetica,sans-Serif" font-size="10.00">dirent.h</text>
</a>
</g>
</g>
<!-- Node27&#45;&gt;Node29 -->
<g id="edge39_Node000027_Node000029" class="edge">
<title>Node27&#45;&gt;Node29</title>
<g id="a_edge39_Node000027_Node000029"><a xlink:title=" ">
<path fill="none" stroke="#63b8ff" d="M397.17,-461.75C396.91,-454.8 396.53,-444.85 396.2,-436.13"/>
<polygon fill="#63b8ff" stroke="#63b8ff" points="399.7,-435.95 395.82,-426.09 392.7,-436.21 399.7,-435.95"/>
</a>
</g>
</g>
<!-- Node30&#45;&gt;Node2 -->
<g id="edge53_Node000030_Node000002" class="edge">
<title>Node30&#45;&gt;Node2</title>
<g id="a_edge53_Node000030_Node000002"><a xlink:title=" ">
<path fill="none" stroke="#63b8ff" d="M424.43,-593.94C448.93,-581.59 484.3,-563.78 508.28,-551.7"/>
<polygon fill="#63b8ff" stroke="#63b8ff" points="510.13,-554.69 517.49,-547.07 506.98,-548.44 510.13,-554.69"/>
</a>
</g>
</g>
<!-- Node30&#45;&gt;Node8 -->
<g id="edge54_Node000030_Node000008" class="edge">
<title>Node30&#45;&gt;Node8</title>
<g id="a_edge54_Node000030_Node000008"><a xlink:title=" ">
<path fill="none" stroke="#63b8ff" d="M382.18,-593.77C348.9,-560.75 263.71,-476.45 191.5,-407 181.67,-397.55 170.72,-387.19 161.34,-378.36"/>
<polygon fill="#63b8ff" stroke="#63b8ff" points="163.57,-375.66 153.88,-371.36 158.78,-380.76 163.57,-375.66"/>
</a>
</g>
</g>
<!-- Node30&#45;&gt;Node27 -->
<g id="edge45_Node000030_Node000027" class="edge">
<title>Node30&#45;&gt;Node27</title>
<g id="a_edge45_Node000030_Node000027"><a xlink:title=" ">
<path fill="none" stroke="#63b8ff" d="M396.61,-593.76C396.79,-569.14 397.16,-518.66 397.36,-491.23"/>
<polygon fill="#63b8ff" stroke="#63b8ff" points="400.86,-491.06 397.44,-481.03 393.86,-491.01 400.86,-491.06"/>
</a>
</g>
</g>
<!-- Node31 -->
<g id="Node000031" class="node">
<title>Node31</title>
<g id="a_Node000031"><a xlink:href="Parser_8hpp.html" target="_top" xlink:title=" ">
<polygon fill="white" stroke="#666666" points="736.5,-481 596.5,-481 596.5,-462 736.5,-462 736.5,-481"/>
<text text-anchor="middle" x="666.5" y="-469" font-family="Helvetica,sans-Serif" font-size="10.00">../ConfigParser/Parser.hpp</text>
</a>
</g>
</g>
<!-- Node30&#45;&gt;Node31 -->
<g id="edge46_Node000030_Node000031" class="edge">
<title>Node30&#45;&gt;Node31</title>
<g id="a_edge46_Node000030_Node000031"><a xlink:title=" ">
<path fill="none" stroke="#63b8ff" d="M399.38,-593.8C404.3,-573.44 416.31,-536.29 441.5,-517 464.01,-499.77 531.09,-487.94 586.19,-480.83"/>
<polygon fill="#63b8ff" stroke="#63b8ff" points="586.84,-484.28 596.32,-479.56 585.97,-477.33 586.84,-484.28"/>
</a>
</g>
</g>
<!-- Node31&#45;&gt;Node3 -->
<g id="edge52_Node000031_Node000003" class="edge">
<title>Node31&#45;&gt;Node3</title>
<g id="a_edge52_Node000031_Node000003"><a xlink:title=" ">
<path fill="none" stroke="#63b8ff" d="M687.23,-461.98C708.26,-453.34 741.05,-439.87 765.04,-430.02"/>
<polygon fill="#63b8ff" stroke="#63b8ff" points="766.48,-433.21 774.4,-426.17 763.82,-426.73 766.48,-433.21"/>
</a>
</g>
</g>
<!-- Node31&#45;&gt;Node5 -->
<g id="edge51_Node000031_Node000005" class="edge">
<title>Node31&#45;&gt;Node5</title>
<g id="a_edge51_Node000031_Node000005"><a xlink:title=" ">
<path fill="none" stroke="#63b8ff" d="M612.06,-461.95C588.66,-455.66 562.77,-444.78 545.5,-426 523.97,-402.59 526.5,-388.81 526.5,-357 526.5,-357 526.5,-357 526.5,-294.5 526.5,-256.68 552.08,-218.6 568.97,-197.57"/>
<polygon fill="#63b8ff" stroke="#63b8ff" points="571.85,-199.58 575.57,-189.66 566.48,-195.09 571.85,-199.58"/>
</a>
</g>
</g>
<!-- Node31&#45;&gt;Node6 -->
<g id="edge48_Node000031_Node000006" class="edge">
<title>Node31&#45;&gt;Node6</title>
<g id="a_edge48_Node000031_Node000006"><a xlink:title=" ">
<path fill="none" stroke="#63b8ff" d="M665.49,-461.96C663.61,-449.04 658.62,-424.2 646.5,-407 635.9,-391.96 619.41,-379.46 605.56,-370.73"/>
<polygon fill="#63b8ff" stroke="#63b8ff" points="607.31,-367.69 596.93,-365.54 603.7,-373.69 607.31,-367.69"/>
</a>
</g>
</g>
<!-- Node31&#45;&gt;Node7 -->
<g id="edge49_Node000031_Node000007" class="edge">
<title>Node31&#45;&gt;Node7</title>
<g id="a_edge49_Node000031_Node000007"><a xlink:title=" ">
<path fill="none" stroke="#63b8ff" d="M671.36,-461.72C677.57,-449.33 686.79,-426.08 680.5,-407 676.31,-394.28 667.49,-382.15 659.52,-373.02"/>
<polygon fill="#63b8ff" stroke="#63b8ff" points="661.95,-370.5 652.59,-365.55 656.82,-375.26 661.95,-370.5"/>
</a>
</g>
</g>
<!-- Node31&#45;&gt;Node17 -->
<g id="edge50_Node000031_Node000017" class="edge">
<title>Node31&#45;&gt;Node17</title>
<g id="a_edge50_Node000031_Node000017"><a xlink:title=" ">
<path fill="none" stroke="#63b8ff" d="M736.61,-469.93C880.24,-466.87 1194.5,-449.59 1194.5,-357 1194.5,-357 1194.5,-357 1194.5,-294.5 1194.5,-265.04 1192.71,-254.91 1175.5,-231 1164.27,-215.4 1146.6,-202.93 1131.71,-194.35"/>
<polygon fill="#63b8ff" stroke="#63b8ff" points="1133.32,-191.24 1122.87,-189.51 1129.96,-197.38 1133.32,-191.24"/>
</a>
</g>
</g>
<!-- Node32 -->
<g id="Node000032" class="node">
<title>Node32</title>
<g id="a_Node000032"><a xlink:title=" ">
<polygon fill="#e0e0e0" stroke="#999999" points="638,-426 555,-426 555,-407 638,-407 638,-426"/>
<text text-anchor="middle" x="596.5" y="-414" font-family="Helvetica,sans-Serif" font-size="10.00">libconfig.h++</text>
</a>
</g>
</g>
<!-- Node31&#45;&gt;Node32 -->
<g id="edge47_Node000031_Node000032" class="edge">
<title>Node31&#45;&gt;Node32</title>
<g id="a_edge47_Node000031_Node000032"><a xlink:title=" ">
<path fill="none" stroke="#63b8ff" d="M655.25,-461.98C644.7,-454 628.7,-441.88 616.06,-432.31"/>
<polygon fill="#63b8ff" stroke="#63b8ff" points="618.04,-429.42 607.95,-426.17 613.81,-435 618.04,-429.42"/>
</a>
</g>
</g>
<!-- Node33&#45;&gt;Node3 -->
<g id="edge57_Node000033_Node000003" class="edge">
<title>Node33&#45;&gt;Node3</title>
<g id="a_edge57_Node000033_Node000003"><a xlink:title=" ">
<path fill="none" stroke="#63b8ff" d="M963.31,-516.85C922.57,-492.73 854.53,-452.45 818.89,-431.35"/>
<polygon fill="#63b8ff" stroke="#63b8ff" points="820.54,-428.26 810.15,-426.18 816.97,-434.28 820.54,-428.26"/>
</a>
</g>
</g>
</g>
</svg>
