<?xml version="1.0" encoding="UTF-8" standalone="no"?>
<!DOCTYPE svg PUBLIC "-//W3C//DTD SVG 1.1//EN"
 "http://www.w3.org/Graphics/SVG/1.1/DTD/svg11.dtd">
<!-- Generated by graphviz version 2.43.0 (0)
 -->
<!-- Title: src/Geometry/Matrix/Matrix.hpp Pages: 1 -->
<svg width="395pt" height="258pt"
 viewBox="0.00 0.00 394.50 258.00" xmlns="http://www.w3.org/2000/svg" xmlns:xlink="http://www.w3.org/1999/xlink">
<g id="graph0" class="graph" transform="scale(1 1) rotate(0) translate(4 254)">
<title>src/Geometry/Matrix/Matrix.hpp</title>
<!-- Node1 -->
<g id="Node000001" class="node">
<title>Node1</title>
<g id="a_Node000001"><a xlink:title="Fixed&#45;size generic matrix template used across geometry types.">
<polygon fill="#999999" stroke="#666666" points="223.5,-250 106.5,-250 106.5,-220 223.5,-220 223.5,-250"/>
<text text-anchor="start" x="114.5" y="-238" font-family="Helvetica,sans-Serif" font-size="10.00">src/Geometry/Matrix</text>
<text text-anchor="middle" x="165" y="-227" font-family="Helvetica,sans-Serif" font-size="10.00">/Matrix.hpp</text>
</a>
</g>
</g>
<!-- Node2 -->
<g id="Node000002" class="node">
<title>Node2</title>
<g id="a_Node000002"><a xlink:href="TransformMatrix_8hpp.html" target="_top" xlink:title=" ">
<polygon fill="white" stroke="#666666" points="248,-184 82,-184 82,-154 248,-154 248,-184"/>
<text text-anchor="start" x="90" y="-172" font-family="Helvetica,sans-Serif" font-size="10.00">src/Geometry/TransformMatrix</text>
<text text-anchor="middle" x="165" y="-161" font-family="Helvetica,sans-Serif" font-size="10.00">/TransformMatrix.hpp</text>
</a>
</g>
</g>
<!-- Node1&#45;&gt;Node2 -->
<g id="edge1_Node000001_Node000002" class="edge">
<title>Node1&#45;&gt;Node2</title>
<g id="a_edge1_Node000001_Node000002"><a xlink:title=" ">
<path fill="none" stroke="#63b8ff" d="M165,-209.54C165,-200.96 165,-191.61 165,-184.16"/>
<polygon fill="#63b8ff" stroke="#63b8ff" points="161.5,-209.8 165,-219.8 168.5,-209.8 161.5,-209.8"/>
</a>
</g>
</g>
<!-- Node3 -->
<g id="Node000003" class="node">
<title>Node3</title>
<g id="a_Node000003"><a xlink:href="TransformMatrix_8cpp.html" target="_top" xlink:title=" ">
<polygon fill="white" stroke="#666666" points="166,-112.5 0,-112.5 0,-82.5 166,-82.5 166,-112.5"/>
<text text-anchor="start" x="8" y="-100.5" font-family="Helvetica,sans-Serif" font-size="10.00">src/Geometry/TransformMatrix</text>
<text text-anchor="middle" x="83" y="-89.5" font-family="Helvetica,sans-Serif" font-size="10.00">/TransformMatrix.cpp</text>
</a>
</g>
</g>
<!-- Node2&#45;&gt;Node3 -->
<g id="edge2_Node000002_Node000003" class="edge">
<title>Node2&#45;&gt;Node3</title>
<g id="a_edge2_Node000002_Node000003"><a xlink:title=" ">
<path fill="none" stroke="#63b8ff" d="M140.59,-147.31C127.35,-136.09 111.34,-122.52 99.57,-112.54"/>
<polygon fill="#63b8ff" stroke="#63b8ff" points="138.51,-150.14 148.41,-153.94 143.04,-144.8 138.51,-150.14"/>
</a>
</g>
</g>
<!-- Node4 -->
<g id="Node000004" class="node">
<title>Node4</title>
<g id="a_Node000004"><a xlink:href="Camera_8hpp.html" target="_top" xlink:title=" ">
<polygon fill="white" stroke="#666666" points="309.5,-118 184.5,-118 184.5,-77 309.5,-77 309.5,-118"/>
<text text-anchor="start" x="192.5" y="-106" font-family="Helvetica,sans-Serif" font-size="10.00">src/Objects/Plugins</text>
<text text-anchor="start" x="192.5" y="-95" font-family="Helvetica,sans-Serif" font-size="10.00">/CorePlugin/Renderers</text>
<text text-anchor="middle" x="247" y="-84" font-family="Helvetica,sans-Serif" font-size="10.00">/Camera/Camera.hpp</text>
</a>
</g>
</g>
<!-- Node2&#45;&gt;Node4 -->
<g id="edge3_Node000002_Node000004" class="edge">
<title>Node2&#45;&gt;Node4</title>
<g id="a_edge3_Node000002_Node000004"><a xlink:title=" ">
<path fill="none" stroke="#63b8ff" d="M189.5,-147.23C200.4,-137.99 213.17,-127.17 223.91,-118.07"/>
<polygon fill="#63b8ff" stroke="#63b8ff" points="186.96,-144.8 181.59,-153.94 191.49,-150.14 186.96,-144.8"/>
</a>
</g>
</g>
<!-- Node5 -->
<g id="Node000005" class="node">
<title>Node5</title>
<g id="a_Node000005"><a xlink:href="CorePlugin_8cpp.html" target="_top" xlink:title=" ">
<polygon fill="white" stroke="#666666" points="243,-35.5 95,-35.5 95,-5.5 243,-5.5 243,-35.5"/>
<text text-anchor="start" x="103" y="-23.5" font-family="Helvetica,sans-Serif" font-size="10.00">src/Objects/Plugins</text>
<text text-anchor="middle" x="169" y="-12.5" font-family="Helvetica,sans-Serif" font-size="10.00">/CorePlugin/CorePlugin.cpp</text>
</a>
</g>
</g>
<!-- Node4&#45;&gt;Node5 -->
<g id="edge4_Node000004_Node000005" class="edge">
<title>Node4&#45;&gt;Node5</title>
<g id="a_edge4_Node000004_Node000005"><a xlink:title=" ">
<path fill="none" stroke="#63b8ff" d="M218.99,-69.57C207.15,-58.18 193.84,-45.39 183.94,-35.86"/>
<polygon fill="#63b8ff" stroke="#63b8ff" points="216.87,-72.39 226.51,-76.79 221.72,-67.34 216.87,-72.39"/>
</a>
</g>
</g>
<!-- Node6 -->
<g id="Node000006" class="node">
<title>Node6</title>
<g id="a_Node000006"><a xlink:href="Camera_8cpp.html" target="_top" xlink:title=" ">
<polygon fill="white" stroke="#666666" points="386.5,-41 261.5,-41 261.5,0 386.5,0 386.5,-41"/>
<text text-anchor="start" x="269.5" y="-29" font-family="Helvetica,sans-Serif" font-size="10.00">src/Objects/Plugins</text>
<text text-anchor="start" x="269.5" y="-18" font-family="Helvetica,sans-Serif" font-size="10.00">/CorePlugin/Renderers</text>
<text text-anchor="middle" x="324" y="-7" font-family="Helvetica,sans-Serif" font-size="10.00">/Camera/Camera.cpp</text>
</a>
</g>
</g>
<!-- Node4&#45;&gt;Node6 -->
<g id="edge5_Node000004_Node000006" class="edge">
<title>Node4&#45;&gt;Node6</title>
<g id="a_edge5_Node000004_Node000006"><a xlink:title=" ">
<path fill="none" stroke="#63b8ff" d="M274.42,-69.79C284.15,-60.32 294.9,-49.84 303.9,-41.07"/>
<polygon fill="#63b8ff" stroke="#63b8ff" points="271.95,-67.31 267.23,-76.79 276.84,-72.32 271.95,-67.31"/>
</a>
</g>
</g>
</g>
</svg>
