<?xml version="1.0" encoding="UTF-8" standalone="no"?>
<!DOCTYPE svg PUBLIC "-//W3C//DTD SVG 1.1//EN"
 "http://www.w3.org/Graphics/SVG/1.1/DTD/svg11.dtd">
<!-- Generated by graphviz version 2.43.0 (0)
 -->
<!-- Title: src/Geometry/Matrix/Matrix.hpp Pages: 1 -->
<!--zoomable 258 -->

<svg id="main" version="1.1" xmlns="http://www.w3.org/2000/svg" xmlns:xlink="http://www.w3.org/1999/xlink" xml:space="preserve" onload="init(evt)">
<style type="text/css"><![CDATA[
.node, .edge {opacity: 0.7;}
.node.selected, .edge.selected {opacity: 1;}
.edge:hover path { stroke: red; }
.edge:hover polygon { stroke: red; fill: red; }
]]></style>

<defs>
  <circle id="rim" cx="0" cy="0" r="7"/>
  <circle id="rim2" cx="0" cy="0" r="3.5"/>
  <g id="zoomPlus">
    <use xlink:href="#rim" fill="#404040"><set attributeName="fill" to="#808080" begin="zoomplus.mouseover" end="zoomplus.mouseout"/></use>
    <path d="M-4,0h8M0,-4v8" fill="none" stroke="white" stroke-width="1.5" pointer-events="none"/>
  </g>
  <g id="zoomMin">
    <use xlink:href="#rim" fill="#404040"><set attributeName="fill" to="#808080" begin="zoomminus.mouseover" end="zoomminus.mouseout"/></use>
    <path d="M-4,0h8" fill="none" stroke="white" stroke-width="1.5" pointer-events="none"/>
  </g>
  <g id="arrowUp" transform="translate(30 24)">
    <use xlink:href="#rim"/>
    <path pointer-events="none" fill="none" stroke="white" stroke-width="1.5" d="M0,-3.0v7 M-2.5,-0.5L0,-3.0L2.5,-0.5"/>
  </g>
  <g id="arrowRight" transform="rotate(90) translate(36 -43)">
    <use xlink:href="#rim"/>
    <path pointer-events="none" fill="none" stroke="white" stroke-width="1.5" d="M0,-3.0v7 M-2.5,-0.5L0,-3.0L2.5,-0.5"/>
  </g>
  <g id="arrowDown" transform="rotate(180) translate(-30 -48)">
    <use xlink:href="#rim"/>
    <path pointer-events="none" fill="none" stroke="white" stroke-width="1.5" d="M0,-3.0v7 M-2.5,-0.5L0,-3.0L2.5,-0.5"/>
  </g>
  <g id="arrowLeft" transform="rotate(270) translate(-36 17)">
    <use xlink:href="#rim"/>
    <path pointer-events="none" fill="none" stroke="white" stroke-width="1.5" d="M0,-3.0v7 M-2.5,-0.5L0,-3.0L2.5,-0.5"/>
  </g>
  <g id="resetDef">
    <use xlink:href="#rim2" fill="#404040"><set attributeName="fill" to="#808080" begin="reset.mouseover" end="reset.mouseout"/></use>
  </g>
</defs>
<script type="application/ecmascript">
var viewWidth = 747;
var viewHeight = 258;
var sectionId = 'dynsection-0';
</script>
<script type="application/ecmascript" xlink:href="svg.min.js"/>
<svg id="graph" class="graph">
<g id="viewport">
<title>src/Geometry/Matrix/Matrix.hpp</title>
<!-- Node1 -->
<g id="Node000001" class="node">
<title>Node1</title>
<g id="a_Node000001"><a xlink:title="Fixed&#45;size generic matrix template used across geometry types.">
<polygon fill="#999999" stroke="#666666" points="403.5,-250 286.5,-250 286.5,-220 403.5,-220 403.5,-250"/>
<text text-anchor="start" x="294.5" y="-238" font-family="Helvetica,sans-Serif" font-size="10.00">src/Geometry/Matrix</text>
<text text-anchor="middle" x="345" y="-227" font-family="Helvetica,sans-Serif" font-size="10.00">/Matrix.hpp</text>
</a>
</g>
</g>
<!-- Node2 -->
<g id="Node000002" class="node">
<title>Node2</title>
<g id="a_Node000002"><a xlink:href="TransformMatrix_8hpp.html" target="_top" xlink:title="Affine transform matrix utilities used for camera and object transforms.">
<polygon fill="white" stroke="#666666" points="428,-184 262,-184 262,-154 428,-154 428,-184"/>
<text text-anchor="start" x="270" y="-172" font-family="Helvetica,sans-Serif" font-size="10.00">src/Geometry/TransformMatrix</text>
<text text-anchor="middle" x="345" y="-161" font-family="Helvetica,sans-Serif" font-size="10.00">/TransformMatrix.hpp</text>
</a>
</g>
</g>
<!-- Node1&#45;&gt;Node2 -->
<g id="edge1_Node000001_Node000002" class="edge">
<title>Node1&#45;&gt;Node2</title>
<g id="a_edge1_Node000001_Node000002"><a xlink:title=" ">
<path fill="none" stroke="#63b8ff" d="M345,-209.54C345,-200.96 345,-191.61 345,-184.16"/>
<polygon fill="#63b8ff" stroke="#63b8ff" points="341.5,-209.8 345,-219.8 348.5,-209.8 341.5,-209.8"/>
</a>
</g>
</g>
<!-- Node3 -->
<g id="Node000003" class="node">
<title>Node3</title>
<g id="a_Node000003"><a xlink:href="TransformMatrix_8cpp.html" target="_top" xlink:title="Implementation of affine transform helpers used across geometry.">
<polygon fill="white" stroke="#666666" points="166,-112.5 0,-112.5 0,-82.5 166,-82.5 166,-112.5"/>
<text text-anchor="start" x="8" y="-100.5" font-family="Helvetica,sans-Serif" font-size="10.00">src/Geometry/TransformMatrix</text>
<text text-anchor="middle" x="83" y="-89.5" font-family="Helvetica,sans-Serif" font-size="10.00">/TransformMatrix.cpp</text>
</a>
</g>
</g>
<!-- Node2&#45;&gt;Node3 -->
<g id="edge2_Node000002_Node000003" class="edge">
<title>Node2&#45;&gt;Node3</title>
<g id="a_edge2_Node000002_Node000003"><a xlink:title=" ">
<path fill="none" stroke="#63b8ff" d="M282.11,-151.32C237.46,-139.47 178.18,-123.75 135.94,-112.54"/>
<polygon fill="#63b8ff" stroke="#63b8ff" points="281.42,-154.75 291.98,-153.94 283.21,-147.99 281.42,-154.75"/>
</a>
</g>
</g>
<!-- Node4 -->
<g id="Node000004" class="node">
<title>Node4</title>
<g id="a_Node000004"><a xlink:href="BVHCam_8hpp.html" target="_top" xlink:title=" ">
<polygon fill="white" stroke="#666666" points="330,-118 184,-118 184,-77 330,-77 330,-118"/>
<text text-anchor="start" x="192" y="-106" font-family="Helvetica,sans-Serif" font-size="10.00">src/Objects/Plugins</text>
<text text-anchor="start" x="192" y="-95" font-family="Helvetica,sans-Serif" font-size="10.00">/BVHCamPlugin/Renderers</text>
<text text-anchor="middle" x="257" y="-84" font-family="Helvetica,sans-Serif" font-size="10.00">/BVHCam.hpp</text>
</a>
</g>
</g>
<!-- Node2&#45;&gt;Node4 -->
<g id="edge3_Node000002_Node000004" class="edge">
<title>Node2&#45;&gt;Node4</title>
<g id="a_edge3_Node000002_Node000004"><a xlink:title=" ">
<path fill="none" stroke="#63b8ff" d="M319.05,-147.5C307.27,-138.21 293.41,-127.26 281.78,-118.07"/>
<polygon fill="#63b8ff" stroke="#63b8ff" points="317.17,-150.48 327.19,-153.94 321.51,-144.99 317.17,-150.48"/>
</a>
</g>
</g>
<!-- Node7 -->
<g id="Node000007" class="node">
<title>Node7</title>
<g id="a_Node000007"><a xlink:href="Camera_8hpp.html" target="_top" xlink:title="Declaration for the camera&#45;based renderer used by the raytracer.">
<polygon fill="white" stroke="#666666" points="661.5,-118 536.5,-118 536.5,-77 661.5,-77 661.5,-118"/>
<text text-anchor="start" x="544.5" y="-106" font-family="Helvetica,sans-Serif" font-size="10.00">src/Objects/Plugins</text>
<text text-anchor="start" x="544.5" y="-95" font-family="Helvetica,sans-Serif" font-size="10.00">/CorePlugin/Renderers</text>
<text text-anchor="middle" x="599" y="-84" font-family="Helvetica,sans-Serif" font-size="10.00">/Camera/Camera.hpp</text>
</a>
</g>
</g>
<!-- Node2&#45;&gt;Node7 -->
<g id="edge6_Node000002_Node000007" class="edge">
<title>Node2&#45;&gt;Node7</title>
<g id="a_edge6_Node000002_Node000007"><a xlink:title=" ">
<path fill="none" stroke="#63b8ff" d="M406.16,-151.27C445.59,-140.48 496.74,-126.48 536.44,-115.62"/>
<polygon fill="#63b8ff" stroke="#63b8ff" points="405.12,-147.92 396.4,-153.94 406.97,-154.67 405.12,-147.92"/>
</a>
</g>
</g>
<!-- Node10 -->
<g id="Node000010" class="node">
<title>Node10</title>
<g id="a_Node000010"><a xlink:href="SceneNodeHelpers_8hpp.html" target="_top" xlink:title=" ">
<polygon fill="white" stroke="#666666" points="518,-112.5 348,-112.5 348,-82.5 518,-82.5 518,-112.5"/>
<text text-anchor="start" x="356" y="-100.5" font-family="Helvetica,sans-Serif" font-size="10.00">src/SceneSystem/SceneNode</text>
<text text-anchor="middle" x="433" y="-89.5" font-family="Helvetica,sans-Serif" font-size="10.00">Helpers/SceneNodeHelpers.hpp</text>
</a>
</g>
</g>
<!-- Node2&#45;&gt;Node10 -->
<g id="edge9_Node000002_Node000010" class="edge">
<title>Node2&#45;&gt;Node10</title>
<g id="a_edge9_Node000002_Node000010"><a xlink:title=" ">
<path fill="none" stroke="#63b8ff" d="M370.8,-147.63C385.08,-136.35 402.46,-122.62 415.22,-112.54"/>
<polygon fill="#63b8ff" stroke="#63b8ff" points="368.49,-144.99 362.81,-153.94 372.83,-150.48 368.49,-144.99"/>
</a>
</g>
</g>
<!-- Node5 -->
<g id="Node000005" class="node">
<title>Node5</title>
<g id="a_Node000005"><a xlink:href="BVHCamPlugin_8cpp.html" target="_top" xlink:title=" ">
<polygon fill="white" stroke="#666666" points="429,-35.5 239,-35.5 239,-5.5 429,-5.5 429,-35.5"/>
<text text-anchor="start" x="247" y="-23.5" font-family="Helvetica,sans-Serif" font-size="10.00">src/Objects/Plugins</text>
<text text-anchor="middle" x="334" y="-12.5" font-family="Helvetica,sans-Serif" font-size="10.00">/BVHCamPlugin/BVHCamPlugin.cpp</text>
</a>
</g>
</g>
<!-- Node4&#45;&gt;Node5 -->
<g id="edge4_Node000004_Node000005" class="edge">
<title>Node4&#45;&gt;Node5</title>
<g id="a_edge4_Node000004_Node000005"><a xlink:title=" ">
<path fill="none" stroke="#63b8ff" d="M284.65,-69.57C296.34,-58.18 309.48,-45.39 319.26,-35.86"/>
<polygon fill="#63b8ff" stroke="#63b8ff" points="281.95,-67.31 277.23,-76.79 286.84,-72.32 281.95,-67.31"/>
</a>
</g>
</g>
<!-- Node6 -->
<g id="Node000006" class="node">
<title>Node6</title>
<g id="a_Node000006"><a xlink:href="BVHCam_8cpp.html" target="_top" xlink:title=" ">
<polygon fill="white" stroke="#666666" points="221,-41 75,-41 75,0 221,0 221,-41"/>
<text text-anchor="start" x="83" y="-29" font-family="Helvetica,sans-Serif" font-size="10.00">src/Objects/Plugins</text>
<text text-anchor="start" x="83" y="-18" font-family="Helvetica,sans-Serif" font-size="10.00">/BVHCamPlugin/Renderers</text>
<text text-anchor="middle" x="148" y="-7" font-family="Helvetica,sans-Serif" font-size="10.00">/BVHCam.cpp</text>
</a>
</g>
</g>
<!-- Node4&#45;&gt;Node6 -->
<g id="edge5_Node000004_Node000006" class="edge">
<title>Node4&#45;&gt;Node6</title>
<g id="a_edge5_Node000004_Node000006"><a xlink:title=" ">
<path fill="none" stroke="#63b8ff" d="M220.07,-71.09C205.87,-61.32 189.89,-50.32 176.59,-41.17"/>
<polygon fill="#63b8ff" stroke="#63b8ff" points="218.42,-74.21 228.65,-76.99 222.39,-68.44 218.42,-74.21"/>
</a>
</g>
</g>
<!-- Node8 -->
<g id="Node000008" class="node">
<title>Node8</title>
<g id="a_Node000008"><a xlink:href="CorePlugin_8cpp.html" target="_top" xlink:title="Core plugin implementation that provides primitives, materials and the camera.">
<polygon fill="white" stroke="#666666" points="595,-35.5 447,-35.5 447,-5.5 595,-5.5 595,-35.5"/>
<text text-anchor="start" x="455" y="-23.5" font-family="Helvetica,sans-Serif" font-size="10.00">src/Objects/Plugins</text>
<text text-anchor="middle" x="521" y="-12.5" font-family="Helvetica,sans-Serif" font-size="10.00">/CorePlugin/CorePlugin.cpp</text>
</a>
</g>
</g>
<!-- Node7&#45;&gt;Node8 -->
<g id="edge7_Node000007_Node000008" class="edge">
<title>Node7&#45;&gt;Node8</title>
<g id="a_edge7_Node000007_Node000008"><a xlink:title=" ">
<path fill="none" stroke="#63b8ff" d="M570.99,-69.57C559.15,-58.18 545.84,-45.39 535.94,-35.86"/>
<polygon fill="#63b8ff" stroke="#63b8ff" points="568.87,-72.39 578.51,-76.79 573.72,-67.34 568.87,-72.39"/>
</a>
</g>
</g>
<!-- Node9 -->
<g id="Node000009" class="node">
<title>Node9</title>
<g id="a_Node000009"><a xlink:href="Camera_8cpp.html" target="_top" xlink:title="Implementation of the RayTracer::BVHCam renderer.">
<polygon fill="white" stroke="#666666" points="738.5,-41 613.5,-41 613.5,0 738.5,0 738.5,-41"/>
<text text-anchor="start" x="621.5" y="-29" font-family="Helvetica,sans-Serif" font-size="10.00">src/Objects/Plugins</text>
<text text-anchor="start" x="621.5" y="-18" font-family="Helvetica,sans-Serif" font-size="10.00">/CorePlugin/Renderers</text>
<text text-anchor="middle" x="676" y="-7" font-family="Helvetica,sans-Serif" font-size="10.00">/Camera/Camera.cpp</text>
</a>
</g>
</g>
<!-- Node7&#45;&gt;Node9 -->
<g id="edge8_Node000007_Node000009" class="edge">
<title>Node7&#45;&gt;Node9</title>
<g id="a_edge8_Node000007_Node000009"><a xlink:title=" ">
<path fill="none" stroke="#63b8ff" d="M626.42,-69.79C636.15,-60.32 646.9,-49.84 655.9,-41.07"/>
<polygon fill="#63b8ff" stroke="#63b8ff" points="623.95,-67.31 619.23,-76.79 628.84,-72.32 623.95,-67.31"/>
</a>
</g>
</g>
<!-- Node10&#45;&gt;Node5 -->
<g id="edge10_Node000010_Node000005" class="edge">
<title>Node10&#45;&gt;Node5</title>
<g id="a_edge10_Node000010_Node000005"><a xlink:title=" ">
<path fill="none" stroke="#63b8ff" d="M405.97,-76.03C389.01,-63.18 367.59,-46.94 352.54,-35.54"/>
<polygon fill="#63b8ff" stroke="#63b8ff" points="404.29,-79.14 414.38,-82.39 408.52,-73.56 404.29,-79.14"/>
</a>
</g>
</g>
<!-- Node10&#45;&gt;Node8 -->
<g id="edge11_Node000010_Node000008" class="edge">
<title>Node10&#45;&gt;Node8</title>
<g id="a_edge11_Node000010_Node000008"><a xlink:title=" ">
<path fill="none" stroke="#63b8ff" d="M457.44,-75.67C472.45,-62.88 491.27,-46.84 504.52,-35.54"/>
<polygon fill="#63b8ff" stroke="#63b8ff" points="454.89,-73.24 449.55,-82.39 459.43,-78.57 454.89,-73.24"/>
</a>
</g>
</g>
</g>
</svg>

<g id="navigator" transform="translate(0 0)" fill="#404254">
  <rect fill="#f2f5e9" fill-opacity="0.5" stroke="#606060" stroke-width=".5" x="0" y="0" width="60" height="60"/>
  <use id="zoomplus" xlink:href="#zoomPlus" x="17" y="9" onmousedown="handleZoom(evt,'in')"/>
  <use id="zoomminus" xlink:href="#zoomMin" x="42" y="9" onmousedown="handleZoom(evt,'out')"/>
  <use id="reset" xlink:href="#resetDef" x="30" y="36" onmousedown="handleReset()"/>
   <use id="arrowup" xlink:href="#arrowUp" x="0" y="0" onmousedown="handlePan(0,-1)"/>
  <use id="arrowright" xlink:href="#arrowRight" x="0" y="0" onmousedown="handlePan(1,0)"/>
  <use id="arrowdown" xlink:href="#arrowDown" x="0" y="0" onmousedown="handlePan(0,1)"/>
  <use id="arrowleft" xlink:href="#arrowLeft" x="0" y="0" onmousedown="handlePan(-1,0)"/>
</g>
<svg viewBox="0 0 15 15" width="100%" height="30px" preserveAspectRatio="xMaxYMin meet">
 <g id="arrow_out" transform="scale(0.3 0.3)">
  <a xlink:href="Matrix_8hpp__dep__incl_org.svg" target="_base">
   <rect id="button" ry="5" rx="5" y="6" x="6" height="38" width="38"
        fill="#f2f5e9" fill-opacity="0.5" stroke="#606060" stroke-width="1.0"/>
   <path id="arrow"
     d="M 11.500037,31.436501 C 11.940474,20.09759 22.043105,11.32322 32.158766,21.979434 L 37.068811,17.246167 C 37.068811,17.246167 37.088388,32 37.088388,32 L 22.160133,31.978069 C 22.160133,31.978069 26.997745,27.140456 26.997745,27.140456 C 18.528582,18.264221 13.291696,25.230495 11.500037,31.436501 z"
     style="fill:#404040;"/>
  </a>
 </g>
</svg>

<style type='text/css'>
<![CDATA[
[data-mouse-over-selected='false'] { opacity: 0.7; }
[data-mouse-over-selected='true']  { opacity: 1.0; }
]]>
</style>
<script type="application/ecmascript"><![CDATA[
document.addEventListener('DOMContentLoaded', (event) => {
  highlightEdges();
  highlightAdjacentNodes();
});
]]></script>
</svg>
