<?xml version="1.0" encoding="UTF-8" standalone="no"?>
<!DOCTYPE svg PUBLIC "-//W3C//DTD SVG 1.1//EN"
 "http://www.w3.org/Graphics/SVG/1.1/DTD/svg11.dtd">
<!-- Generated by graphviz version 2.43.0 (0)
 -->
<!-- Title: Raytracer::fromNode&lt; Geometry::TransformMatrix &gt; Pages: 1 -->
<svg width="550pt" height="316pt"
 viewBox="0.00 0.00 550.00 316.00" xmlns="http://www.w3.org/2000/svg" xmlns:xlink="http://www.w3.org/1999/xlink">
<g id="graph0" class="graph" transform="scale(1 1) rotate(0) translate(4 312)">
<title>Raytracer::fromNode&lt; Geometry::TransformMatrix &gt;</title>
<!-- Node1 -->
<g id="Node000001" class="node">
<title>Node1</title>
<g id="a_Node000001"><a xlink:title=" ">
<polygon fill="#999999" stroke="#666666" points="173,-174 0,-174 0,-144 173,-144 173,-174"/>
<text text-anchor="start" x="8" y="-162" font-family="Helvetica,sans-Serif" font-size="10.00">Raytracer::fromNode</text>
<text text-anchor="middle" x="86.5" y="-151" font-family="Helvetica,sans-Serif" font-size="10.00">&lt; Geometry::TransformMatrix &gt;</text>
</a>
</g>
</g>
<!-- Node2 -->
<g id="Node000002" class="node">
<title>Node2</title>
<g id="a_Node000002"><a xlink:href="namespaceRaytracer_1_1Detail.html#af79c6a33c6a410a927b7b3246b97ad2e" target="_top" xlink:title=" ">
<polygon fill="white" stroke="#666666" points="337,-308 232,-308 232,-278 337,-278 337,-308"/>
<text text-anchor="start" x="240" y="-296" font-family="Helvetica,sans-Serif" font-size="10.00">Raytracer::Detail::</text>
<text text-anchor="middle" x="284.5" y="-285" font-family="Helvetica,sans-Serif" font-size="10.00">asObject</text>
</a>
</g>
</g>
<!-- Node1&#45;&gt;Node2 -->
<g id="edge1_Node000001_Node000002" class="edge">
<title>Node1&#45;&gt;Node2</title>
<g id="a_edge1_Node000001_Node000002"><a xlink:title=" ">
<path fill="none" stroke="#63b8ff" d="M100.5,-174.38C121.2,-197.94 163.91,-242.96 209,-269 213.19,-271.42 217.66,-273.63 222.25,-275.65"/>
<polygon fill="#63b8ff" stroke="#63b8ff" points="221.19,-279 231.77,-279.51 223.82,-272.51 221.19,-279"/>
</a>
</g>
</g>
<!-- Node3 -->
<g id="Node000003" class="node">
<title>Node3</title>
<g id="a_Node000003"><a xlink:href="namespaceRaytracer_1_1Detail.html#aaf5eb8709fdbf8c9ada29f363df14edc" target="_top" xlink:title=" ">
<polygon fill="white" stroke="#666666" points="337,-260 232,-260 232,-230 337,-230 337,-260"/>
<text text-anchor="start" x="240" y="-248" font-family="Helvetica,sans-Serif" font-size="10.00">Raytracer::Detail::</text>
<text text-anchor="middle" x="284.5" y="-237" font-family="Helvetica,sans-Serif" font-size="10.00">field</text>
</a>
</g>
</g>
<!-- Node1&#45;&gt;Node3 -->
<g id="edge2_Node000001_Node000003" class="edge">
<title>Node1&#45;&gt;Node3</title>
<g id="a_edge2_Node000001_Node000003"><a xlink:title=" ">
<path fill="none" stroke="#63b8ff" d="M113.94,-174.05C138.17,-187.47 175.29,-207.08 209,-221 213.67,-222.93 218.55,-224.8 223.49,-226.6"/>
<polygon fill="#63b8ff" stroke="#63b8ff" points="222.41,-229.93 233.01,-229.95 224.74,-223.33 222.41,-229.93"/>
</a>
</g>
</g>
<!-- Node4 -->
<g id="Node000004" class="node">
<title>Node4</title>
<g id="a_Node000004"><a xlink:href="namespaceRaytracer.html#adde05dcb8eb3b70ba2b7803aeb10a72f" target="_top" xlink:title=" ">
<polygon fill="white" stroke="#666666" points="344,-211.5 225,-211.5 225,-192.5 344,-192.5 344,-211.5"/>
<text text-anchor="middle" x="284.5" y="-199.5" font-family="Helvetica,sans-Serif" font-size="10.00">Raytracer::fromNode</text>
</a>
</g>
</g>
<!-- Node1&#45;&gt;Node4 -->
<g id="edge3_Node000001_Node000004" class="edge">
<title>Node1&#45;&gt;Node4</title>
<g id="a_edge3_Node000001_Node000004"><a xlink:title=" ">
<path fill="none" stroke="#63b8ff" d="M156.05,-174.04C180.38,-179.38 207.38,-185.3 230.24,-190.32"/>
<polygon fill="#63b8ff" stroke="#63b8ff" points="229.58,-193.75 240.1,-192.48 231.08,-186.92 229.58,-193.75"/>
</a>
</g>
</g>
<!-- Node5 -->
<g id="Node000005" class="node">
<title>Node5</title>
<g id="a_Node000005"><a xlink:href="classGeometry_1_1TransformMatrix.html#acff8638f8a3e9f4ed6e462c1b39c4083" target="_top" xlink:title=" ">
<polygon fill="white" stroke="#666666" points="360,-174 209,-174 209,-144 360,-144 360,-174"/>
<text text-anchor="start" x="217" y="-162" font-family="Helvetica,sans-Serif" font-size="10.00">Geometry::TransformMatrix</text>
<text text-anchor="middle" x="284.5" y="-151" font-family="Helvetica,sans-Serif" font-size="10.00">::rotationX</text>
</a>
</g>
</g>
<!-- Node1&#45;&gt;Node5 -->
<g id="edge4_Node000001_Node000005" class="edge">
<title>Node1&#45;&gt;Node5</title>
<g id="a_edge4_Node000001_Node000005"><a xlink:title=" ">
<path fill="none" stroke="#63b8ff" d="M173.18,-159C181.61,-159 190.15,-159 198.56,-159"/>
<polygon fill="#63b8ff" stroke="#63b8ff" points="198.75,-162.5 208.75,-159 198.75,-155.5 198.75,-162.5"/>
</a>
</g>
</g>
<!-- Node7 -->
<g id="Node000007" class="node">
<title>Node7</title>
<g id="a_Node000007"><a xlink:href="classGeometry_1_1TransformMatrix.html#a75fbc44956cff1212e332c49862f6b09" target="_top" xlink:title=" ">
<polygon fill="white" stroke="#666666" points="360,-126 209,-126 209,-96 360,-96 360,-126"/>
<text text-anchor="start" x="217" y="-114" font-family="Helvetica,sans-Serif" font-size="10.00">Geometry::TransformMatrix</text>
<text text-anchor="middle" x="284.5" y="-103" font-family="Helvetica,sans-Serif" font-size="10.00">::rotationY</text>
</a>
</g>
</g>
<!-- Node1&#45;&gt;Node7 -->
<g id="edge6_Node000001_Node000007" class="edge">
<title>Node1&#45;&gt;Node7</title>
<g id="a_edge6_Node000001_Node000007"><a xlink:title=" ">
<path fill="none" stroke="#63b8ff" d="M148.98,-143.94C169.14,-139.01 191.7,-133.48 212.51,-128.39"/>
<polygon fill="#63b8ff" stroke="#63b8ff" points="213.36,-131.78 222.24,-126 211.69,-124.98 213.36,-131.78"/>
</a>
</g>
</g>
<!-- Node8 -->
<g id="Node000008" class="node">
<title>Node8</title>
<g id="a_Node000008"><a xlink:href="classGeometry_1_1TransformMatrix.html#aea39d6665c49e892c46f10c545622ec5" target="_top" xlink:title=" ">
<polygon fill="white" stroke="#666666" points="360,-78 209,-78 209,-48 360,-48 360,-78"/>
<text text-anchor="start" x="217" y="-66" font-family="Helvetica,sans-Serif" font-size="10.00">Geometry::TransformMatrix</text>
<text text-anchor="middle" x="284.5" y="-55" font-family="Helvetica,sans-Serif" font-size="10.00">::rotationZ</text>
</a>
</g>
</g>
<!-- Node1&#45;&gt;Node8 -->
<g id="edge8_Node000001_Node000008" class="edge">
<title>Node1&#45;&gt;Node8</title>
<g id="a_edge8_Node000001_Node000008"><a xlink:title=" ">
<path fill="none" stroke="#63b8ff" d="M109.53,-143.9C133.27,-128.12 172.56,-103.42 209,-87 213.15,-85.13 217.5,-83.34 221.91,-81.63"/>
<polygon fill="#63b8ff" stroke="#63b8ff" points="223.46,-84.79 231.64,-78.05 221.04,-78.22 223.46,-84.79"/>
</a>
</g>
</g>
<!-- Node9 -->
<g id="Node000009" class="node">
<title>Node9</title>
<g id="a_Node000009"><a xlink:href="classGeometry_1_1TransformMatrix.html#a02574645df377db5928c2dbaf0bf7315" target="_top" xlink:title=" ">
<polygon fill="white" stroke="#666666" points="360,-30 209,-30 209,0 360,0 360,-30"/>
<text text-anchor="start" x="217" y="-18" font-family="Helvetica,sans-Serif" font-size="10.00">Geometry::TransformMatrix</text>
<text text-anchor="middle" x="284.5" y="-7" font-family="Helvetica,sans-Serif" font-size="10.00">::translation</text>
</a>
</g>
</g>
<!-- Node1&#45;&gt;Node9 -->
<g id="edge10_Node000001_Node000009" class="edge">
<title>Node1&#45;&gt;Node9</title>
<g id="a_edge10_Node000001_Node000009"><a xlink:title=" ">
<path fill="none" stroke="#63b8ff" d="M98.89,-143.81C118.62,-118.53 161.6,-67.76 209,-39 211.79,-37.31 214.71,-35.72 217.71,-34.24"/>
<polygon fill="#63b8ff" stroke="#63b8ff" points="219.24,-37.39 226.92,-30.08 216.36,-31.01 219.24,-37.39"/>
</a>
</g>
</g>
<!-- Node6 -->
<g id="Node000006" class="node">
<title>Node6</title>
<g id="a_Node000006"><a xlink:href="classGeometry_1_1Matrix.html#abd9223e4aa03cc11a3e03dc17872a198" target="_top" xlink:title="Create an identity matrix.">
<polygon fill="white" stroke="#666666" points="542,-96.5 396,-96.5 396,-77.5 542,-77.5 542,-96.5"/>
<text text-anchor="middle" x="469" y="-84.5" font-family="Helvetica,sans-Serif" font-size="10.00">Geometry::Matrix::identity</text>
</a>
</g>
</g>
<!-- Node5&#45;&gt;Node6 -->
<g id="edge5_Node000005_Node000006" class="edge">
<title>Node5&#45;&gt;Node6</title>
<g id="a_edge5_Node000005_Node000006"><a xlink:title=" ">
<path fill="none" stroke="#63b8ff" d="M334.65,-143.99C343.16,-141.16 351.88,-138.1 360,-135 387.09,-124.65 417.19,-111.09 438.72,-101.03"/>
<polygon fill="#63b8ff" stroke="#63b8ff" points="440.41,-104.1 447.97,-96.68 437.43,-97.77 440.41,-104.1"/>
</a>
</g>
</g>
<!-- Node7&#45;&gt;Node6 -->
<g id="edge7_Node000007_Node000006" class="edge">
<title>Node7&#45;&gt;Node6</title>
<g id="a_edge7_Node000007_Node000006"><a xlink:title=" ">
<path fill="none" stroke="#63b8ff" d="M360.26,-101.17C368.68,-100.06 377.29,-98.93 385.8,-97.81"/>
<polygon fill="#63b8ff" stroke="#63b8ff" points="386.26,-101.28 395.72,-96.51 385.35,-94.34 386.26,-101.28"/>
</a>
</g>
</g>
<!-- Node8&#45;&gt;Node6 -->
<g id="edge9_Node000008_Node000006" class="edge">
<title>Node8&#45;&gt;Node6</title>
<g id="a_edge9_Node000008_Node000006"><a xlink:title=" ">
<path fill="none" stroke="#63b8ff" d="M360.26,-72.83C368.68,-73.94 377.29,-75.07 385.8,-76.19"/>
<polygon fill="#63b8ff" stroke="#63b8ff" points="385.35,-79.66 395.72,-77.49 386.26,-72.72 385.35,-79.66"/>
</a>
</g>
</g>
<!-- Node9&#45;&gt;Node6 -->
<g id="edge11_Node000009_Node000006" class="edge">
<title>Node9&#45;&gt;Node6</title>
<g id="a_edge11_Node000009_Node000006"><a xlink:title=" ">
<path fill="none" stroke="#63b8ff" d="M334.65,-30.01C343.16,-32.84 351.88,-35.9 360,-39 387.09,-49.35 417.19,-62.91 438.72,-72.97"/>
<polygon fill="#63b8ff" stroke="#63b8ff" points="437.43,-76.23 447.97,-77.32 440.41,-69.9 437.43,-76.23"/>
</a>
</g>
</g>
</g>
</svg>
