<?xml version="1.0" encoding="UTF-8" standalone="no"?>
<!DOCTYPE svg PUBLIC "-//W3C//DTD SVG 1.1//EN"
 "http://www.w3.org/Graphics/SVG/1.1/DTD/svg11.dtd">
<!-- Generated by graphviz version 2.43.0 (0)
 -->
<!-- Title: Raytracer::fromNode&lt; RayTracer::Color &gt; Pages: 1 -->
<svg width="291pt" height="161pt"
 viewBox="0.00 0.00 291.00 161.00" xmlns="http://www.w3.org/2000/svg" xmlns:xlink="http://www.w3.org/1999/xlink">
<g id="graph0" class="graph" transform="scale(1 1) rotate(0) translate(4 157)">
<title>Raytracer::fromNode&lt; RayTracer::Color &gt;</title>
<!-- Node1 -->
<g id="Node000001" class="node">
<title>Node1</title>
<g id="a_Node000001"><a xlink:title=" ">
<polygon fill="#999999" stroke="#666666" points="119,-91.5 0,-91.5 0,-61.5 119,-61.5 119,-91.5"/>
<text text-anchor="start" x="8" y="-79.5" font-family="Helvetica,sans-Serif" font-size="10.00">Raytracer::fromNode</text>
<text text-anchor="middle" x="59.5" y="-68.5" font-family="Helvetica,sans-Serif" font-size="10.00">&lt; RayTracer::Color &gt;</text>
</a>
</g>
</g>
<!-- Node2 -->
<g id="Node000002" class="node">
<title>Node2</title>
<g id="a_Node000002"><a xlink:href="structRayTracer_1_1Color.html#a01b4a4dad8204eed80f8d38d3d004e4d" target="_top" xlink:title=" ">
<polygon fill="white" stroke="#666666" points="283,-153 155,-153 155,-134 283,-134 283,-153"/>
<text text-anchor="middle" x="219" y="-141" font-family="Helvetica,sans-Serif" font-size="10.00">RayTracer::Color::Color</text>
</a>
</g>
</g>
<!-- Node1&#45;&gt;Node2 -->
<g id="edge1_Node000001_Node000002" class="edge">
<title>Node1&#45;&gt;Node2</title>
<g id="a_edge1_Node000001_Node000002"><a xlink:title=" ">
<path fill="none" stroke="#63b8ff" d="M87.2,-91.67C105.81,-101.84 131.43,-115.05 155,-124.5 160.57,-126.73 166.51,-128.85 172.43,-130.81"/>
<polygon fill="#63b8ff" stroke="#63b8ff" points="171.71,-134.25 182.3,-133.93 173.82,-127.58 171.71,-134.25"/>
</a>
</g>
</g>
<!-- Node3 -->
<g id="Node000003" class="node">
<title>Node3</title>
<g id="a_Node000003"><a xlink:href="namespaceRaytracer_1_1Detail.html#af79c6a33c6a410a927b7b3246b97ad2e" target="_top" xlink:title=" ">
<polygon fill="white" stroke="#666666" points="271.5,-115.5 166.5,-115.5 166.5,-85.5 271.5,-85.5 271.5,-115.5"/>
<text text-anchor="start" x="174.5" y="-103.5" font-family="Helvetica,sans-Serif" font-size="10.00">Raytracer::Detail::</text>
<text text-anchor="middle" x="219" y="-92.5" font-family="Helvetica,sans-Serif" font-size="10.00">asObject</text>
</a>
</g>
</g>
<!-- Node1&#45;&gt;Node3 -->
<g id="edge2_Node000001_Node000003" class="edge">
<title>Node1&#45;&gt;Node3</title>
<g id="a_edge2_Node000001_Node000003"><a xlink:title=" ">
<path fill="none" stroke="#63b8ff" d="M119.15,-85.44C131.24,-87.28 144.01,-89.23 156.21,-91.09"/>
<polygon fill="#63b8ff" stroke="#63b8ff" points="155.89,-94.58 166.3,-92.62 156.94,-87.66 155.89,-94.58"/>
</a>
</g>
</g>
<!-- Node4 -->
<g id="Node000004" class="node">
<title>Node4</title>
<g id="a_Node000004"><a xlink:href="namespaceRaytracer_1_1Detail.html#aaf5eb8709fdbf8c9ada29f363df14edc" target="_top" xlink:title=" ">
<polygon fill="white" stroke="#666666" points="271.5,-67.5 166.5,-67.5 166.5,-37.5 271.5,-37.5 271.5,-67.5"/>
<text text-anchor="start" x="174.5" y="-55.5" font-family="Helvetica,sans-Serif" font-size="10.00">Raytracer::Detail::</text>
<text text-anchor="middle" x="219" y="-44.5" font-family="Helvetica,sans-Serif" font-size="10.00">field</text>
</a>
</g>
</g>
<!-- Node1&#45;&gt;Node4 -->
<g id="edge3_Node000001_Node000004" class="edge">
<title>Node1&#45;&gt;Node4</title>
<g id="a_edge3_Node000001_Node000004"><a xlink:title=" ">
<path fill="none" stroke="#63b8ff" d="M119.15,-67.56C131.24,-65.72 144.01,-63.77 156.21,-61.91"/>
<polygon fill="#63b8ff" stroke="#63b8ff" points="156.94,-65.34 166.3,-60.38 155.89,-58.42 156.94,-65.34"/>
</a>
</g>
</g>
<!-- Node5 -->
<g id="Node000005" class="node">
<title>Node5</title>
<g id="a_Node000005"><a xlink:href="namespaceRaytracer.html#adde05dcb8eb3b70ba2b7803aeb10a72f" target="_top" xlink:title=" ">
<polygon fill="white" stroke="#666666" points="278.5,-19 159.5,-19 159.5,0 278.5,0 278.5,-19"/>
<text text-anchor="middle" x="219" y="-7" font-family="Helvetica,sans-Serif" font-size="10.00">Raytracer::fromNode</text>
</a>
</g>
</g>
<!-- Node1&#45;&gt;Node5 -->
<g id="edge4_Node000001_Node000005" class="edge">
<title>Node1&#45;&gt;Node5</title>
<g id="a_edge4_Node000001_Node000005"><a xlink:title=" ">
<path fill="none" stroke="#63b8ff" d="M87.2,-61.33C105.81,-51.16 131.43,-37.95 155,-28.5 160.57,-26.27 166.51,-24.15 172.43,-22.19"/>
<polygon fill="#63b8ff" stroke="#63b8ff" points="173.82,-25.42 182.3,-19.07 171.71,-18.75 173.82,-25.42"/>
</a>
</g>
</g>
</g>
</svg>
