<?xml version="1.0" encoding="UTF-8" standalone="no"?>
<!DOCTYPE svg PUBLIC "-//W3C//DTD SVG 1.1//EN"
 "http://www.w3.org/Graphics/SVG/1.1/DTD/svg11.dtd">
<!-- Generated by graphviz version 2.43.0 (0)
 -->
<!-- Title: Raytracer::fromNode Pages: 1 -->
<svg width="300pt" height="268pt"
 viewBox="0.00 0.00 300.00 267.50" xmlns="http://www.w3.org/2000/svg" xmlns:xlink="http://www.w3.org/1999/xlink">
<g id="graph0" class="graph" transform="scale(1 1) rotate(0) translate(4 263.5)">
<title>Raytracer::fromNode</title>
<!-- Node1 -->
<g id="Node000001" class="node">
<title>Node1</title>
<g id="a_Node000001"><a xlink:title=" ">
<polygon fill="#999999" stroke="#666666" points="292,-134 173,-134 173,-115 292,-115 292,-134"/>
<text text-anchor="middle" x="232.5" y="-122" font-family="Helvetica,sans-Serif" font-size="10.00">Raytracer::fromNode</text>
</a>
</g>
</g>
<!-- Node2 -->
<g id="Node000002" class="node">
<title>Node2</title>
<g id="a_Node000002"><a xlink:href="namespaceRaytracer.html#a8d927671ee9422b82e3589e7e10a05a3" target="_top" xlink:title=" ">
<polygon fill="white" stroke="#666666" points="128,-259.5 9,-259.5 9,-229.5 128,-229.5 128,-259.5"/>
<text text-anchor="start" x="17" y="-247.5" font-family="Helvetica,sans-Serif" font-size="10.00">Raytracer::fromNode</text>
<text text-anchor="middle" x="68.5" y="-236.5" font-family="Helvetica,sans-Serif" font-size="10.00">&lt; float &gt;</text>
</a>
</g>
</g>
<!-- Node1&#45;&gt;Node2 -->
<g id="edge1_Node000001_Node000002" class="edge">
<title>Node1&#45;&gt;Node2</title>
<g id="a_edge1_Node000001_Node000002"><a xlink:title=" ">
<path fill="none" stroke="#63b8ff" d="M218.21,-142.25C201.42,-163.55 170.65,-199.05 137,-220.5 131.76,-223.84 125.99,-226.79 120.09,-229.38"/>
<polygon fill="#63b8ff" stroke="#63b8ff" points="221.18,-144.14 224.51,-134.08 215.63,-139.86 221.18,-144.14"/>
</a>
</g>
</g>
<!-- Node3 -->
<g id="Node000003" class="node">
<title>Node3</title>
<g id="a_Node000003"><a xlink:href="namespaceRaytracer.html#a4804feabf04b641269bc1db2afd57459" target="_top" xlink:title=" ">
<polygon fill="white" stroke="#666666" points="134,-211.5 3,-211.5 3,-181.5 134,-181.5 134,-211.5"/>
<text text-anchor="start" x="11" y="-199.5" font-family="Helvetica,sans-Serif" font-size="10.00">Raytracer::fromNode</text>
<text text-anchor="middle" x="68.5" y="-188.5" font-family="Helvetica,sans-Serif" font-size="10.00">&lt; Geometry::Point3D &gt;</text>
</a>
</g>
</g>
<!-- Node1&#45;&gt;Node3 -->
<g id="edge2_Node000001_Node000003" class="edge">
<title>Node1&#45;&gt;Node3</title>
<g id="a_edge2_Node000001_Node000003"><a xlink:title=" ">
<path fill="none" stroke="#63b8ff" d="M205.57,-138.81C186.82,-148.87 160.72,-162.31 137,-172.5 129.8,-175.59 122.06,-178.62 114.47,-181.42"/>
<polygon fill="#63b8ff" stroke="#63b8ff" points="207.27,-141.87 214.4,-134.03 203.94,-135.71 207.27,-141.87"/>
</a>
</g>
</g>
<!-- Node4 -->
<g id="Node000004" class="node">
<title>Node4</title>
<g id="a_Node000004"><a xlink:href="namespaceRaytracer.html#af4800ab171090b01c2b9dcf5ab91894e" target="_top" xlink:title=" ">
<polygon fill="white" stroke="#666666" points="137,-163.5 0,-163.5 0,-133.5 137,-133.5 137,-163.5"/>
<text text-anchor="start" x="8" y="-151.5" font-family="Helvetica,sans-Serif" font-size="10.00">Raytracer::fromNode</text>
<text text-anchor="middle" x="68.5" y="-140.5" font-family="Helvetica,sans-Serif" font-size="10.00">&lt; Geometry::Vector3D &gt;</text>
</a>
</g>
</g>
<!-- Node1&#45;&gt;Node4 -->
<g id="edge3_Node000001_Node000004" class="edge">
<title>Node1&#45;&gt;Node4</title>
<g id="a_edge3_Node000001_Node000004"><a xlink:title=" ">
<path fill="none" stroke="#63b8ff" d="M162.46,-134.73C154.09,-135.97 145.54,-137.23 137.19,-138.47"/>
<polygon fill="#63b8ff" stroke="#63b8ff" points="163.18,-138.16 172.56,-133.23 162.15,-131.24 163.18,-138.16"/>
</a>
</g>
</g>
<!-- Node5 -->
<g id="Node000005" class="node">
<title>Node5</title>
<g id="a_Node000005"><a xlink:href="namespaceRaytracer.html#a366eadd2dc045d3245ec531ed7142c3e" target="_top" xlink:title=" ">
<polygon fill="white" stroke="#666666" points="128,-115.5 9,-115.5 9,-85.5 128,-85.5 128,-115.5"/>
<text text-anchor="start" x="17" y="-103.5" font-family="Helvetica,sans-Serif" font-size="10.00">Raytracer::fromNode</text>
<text text-anchor="middle" x="68.5" y="-92.5" font-family="Helvetica,sans-Serif" font-size="10.00">&lt; int &gt;</text>
</a>
</g>
</g>
<!-- Node1&#45;&gt;Node5 -->
<g id="edge4_Node000001_Node000005" class="edge">
<title>Node1&#45;&gt;Node5</title>
<g id="a_edge4_Node000001_Node000005"><a xlink:title=" ">
<path fill="none" stroke="#63b8ff" d="M162.58,-114.29C151.11,-112.59 139.31,-110.84 128.13,-109.19"/>
<polygon fill="#63b8ff" stroke="#63b8ff" points="162.15,-117.76 172.56,-115.77 163.18,-110.84 162.15,-117.76"/>
</a>
</g>
</g>
<!-- Node6 -->
<g id="Node000006" class="node">
<title>Node6</title>
<g id="a_Node000006"><a xlink:href="namespaceRaytracer.html#a5c5b3d136a2f89527b6a5c31d3500ca8" target="_top" xlink:title=" ">
<polygon fill="white" stroke="#666666" points="128,-67.5 9,-67.5 9,-37.5 128,-37.5 128,-67.5"/>
<text text-anchor="start" x="17" y="-55.5" font-family="Helvetica,sans-Serif" font-size="10.00">Raytracer::fromNode</text>
<text text-anchor="middle" x="68.5" y="-44.5" font-family="Helvetica,sans-Serif" font-size="10.00">&lt; RayTracer::Color &gt;</text>
</a>
</g>
</g>
<!-- Node1&#45;&gt;Node6 -->
<g id="edge5_Node000001_Node000006" class="edge">
<title>Node1&#45;&gt;Node6</title>
<g id="a_edge5_Node000001_Node000006"><a xlink:title=" ">
<path fill="none" stroke="#63b8ff" d="M205.57,-110.19C186.82,-100.13 160.72,-86.69 137,-76.5 129.8,-73.41 122.06,-70.38 114.47,-67.58"/>
<polygon fill="#63b8ff" stroke="#63b8ff" points="203.94,-113.29 214.4,-114.97 207.27,-107.13 203.94,-113.29"/>
</a>
</g>
</g>
<!-- Node7 -->
<g id="Node000007" class="node">
<title>Node7</title>
<g id="a_Node000007"><a xlink:href="CorePlugin_8cpp.html#a0e14e2166e2799c71d21f343a3d543f3" target="_top" xlink:title=" ">
<polygon fill="white" stroke="#666666" points="110,-19 27,-19 27,0 110,0 110,-19"/>
<text text-anchor="middle" x="68.5" y="-7" font-family="Helvetica,sans-Serif" font-size="10.00">getInitializers</text>
</a>
</g>
</g>
<!-- Node1&#45;&gt;Node7 -->
<g id="edge6_Node000001_Node000007" class="edge">
<title>Node1&#45;&gt;Node7</title>
<g id="a_edge6_Node000001_Node000007"><a xlink:title=" ">
<path fill="none" stroke="#63b8ff" d="M218.69,-106.7C202.2,-85.06 171.53,-48.91 137,-28.5 128.83,-23.67 119.37,-20.02 110.16,-17.28"/>
<polygon fill="#63b8ff" stroke="#63b8ff" points="216.09,-109.06 224.86,-115 221.71,-104.88 216.09,-109.06"/>
</a>
</g>
</g>
</g>
</svg>
