<?xml version="1.0" encoding="UTF-8" standalone="no"?>
<!DOCTYPE svg PUBLIC "-//W3C//DTD SVG 1.1//EN"
 "http://www.w3.org/Graphics/SVG/1.1/DTD/svg11.dtd">
<!-- Generated by graphviz version 2.43.0 (0)
 -->
<!-- Title: src/Exceptions/ParsingException/ParsingException.hpp Pages: 1 -->
<svg width="937pt" height="379pt"
 viewBox="0.00 0.00 937.05 379.00" xmlns="http://www.w3.org/2000/svg" xmlns:xlink="http://www.w3.org/1999/xlink">
<g id="graph0" class="graph" transform="scale(1 1) rotate(0) translate(4 375)">
<title>src/Exceptions/ParsingException/ParsingException.hpp</title>
<!-- Node1 -->
<g id="Node000001" class="node">
<title>Node1</title>
<g id="a_Node000001"><a xlink:title=" ">
<polygon fill="#999999" stroke="#666666" points="481.74,-371 308.74,-371 308.74,-341 481.74,-341 481.74,-371"/>
<text text-anchor="start" x="316.74" y="-359" font-family="Helvetica,sans-Serif" font-size="10.00">src/Exceptions/ParsingException</text>
<text text-anchor="middle" x="395.24" y="-348" font-family="Helvetica,sans-Serif" font-size="10.00">/ParsingException.hpp</text>
</a>
</g>
</g>
<!-- Node2 -->
<g id="Node000002" class="node">
<title>Node2</title>
<g id="a_Node000002"><a xlink:href="Plugin_8hpp.html" target="_top" xlink:title=" ">
<polygon fill="white" stroke="#666666" points="457.74,-305 332.74,-305 332.74,-286 457.74,-286 457.74,-305"/>
<text text-anchor="middle" x="395.24" y="-293" font-family="Helvetica,sans-Serif" font-size="10.00">src/Objects/Plugin.hpp</text>
</a>
</g>
</g>
<!-- Node1&#45;&gt;Node2 -->
<g id="edge1_Node000001_Node000002" class="edge">
<title>Node1&#45;&gt;Node2</title>
<g id="a_edge1_Node000001_Node000002"><a xlink:title=" ">
<path fill="none" stroke="#63b8ff" d="M395.24,-330.75C395.24,-321.72 395.24,-312.03 395.24,-305.27"/>
<polygon fill="#63b8ff" stroke="#63b8ff" points="391.74,-330.84 395.24,-340.84 398.74,-330.84 391.74,-330.84"/>
</a>
</g>
</g>
<!-- Node3 -->
<g id="Node000003" class="node">
<title>Node3</title>
<g id="a_Node000003"><a xlink:href="CorePlugin_8cpp.html" target="_top" xlink:title=" ">
<polygon fill="white" stroke="#666666" points="176.24,-173 28.24,-173 28.24,-143 176.24,-143 176.24,-173"/>
<text text-anchor="start" x="36.24" y="-161" font-family="Helvetica,sans-Serif" font-size="10.00">src/Objects/Plugins</text>
<text text-anchor="middle" x="102.24" y="-150" font-family="Helvetica,sans-Serif" font-size="10.00">/CorePlugin/CorePlugin.cpp</text>
</a>
</g>
</g>
<!-- Node2&#45;&gt;Node3 -->
<g id="edge2_Node000002_Node000003" class="edge">
<title>Node2&#45;&gt;Node3</title>
<g id="a_edge2_Node000002_Node000003"><a xlink:title=" ">
<path fill="none" stroke="#63b8ff" d="M322.7,-291.29C216.43,-285.82 28.76,-273.01 8.24,-250 -3.89,-236.4 -1.15,-224.62 8.24,-209 18.33,-192.2 36.18,-180.75 53.63,-173.08"/>
<polygon fill="#63b8ff" stroke="#63b8ff" points="322.56,-294.78 332.72,-291.79 322.91,-287.79 322.56,-294.78"/>
</a>
</g>
</g>
<!-- Node4 -->
<g id="Node000004" class="node">
<title>Node4</title>
<g id="a_Node000004"><a xlink:href="SceneWriter_8hpp.html" target="_top" xlink:title=" ">
<polygon fill="white" stroke="#666666" points="366.74,-250 205.74,-250 205.74,-209 366.74,-209 366.74,-250"/>
<text text-anchor="start" x="213.74" y="-238" font-family="Helvetica,sans-Serif" font-size="10.00">src/Objects/Plugins</text>
<text text-anchor="start" x="213.74" y="-227" font-family="Helvetica,sans-Serif" font-size="10.00">/CorePlugin/Interfaces</text>
<text text-anchor="middle" x="286.24" y="-216" font-family="Helvetica,sans-Serif" font-size="10.00">/SceneWriter/SceneWriter.hpp</text>
</a>
</g>
</g>
<!-- Node2&#45;&gt;Node4 -->
<g id="edge3_Node000002_Node000004" class="edge">
<title>Node2&#45;&gt;Node4</title>
<g id="a_edge3_Node000002_Node000004"><a xlink:title=" ">
<path fill="none" stroke="#63b8ff" d="M371.74,-280.7C356.47,-271.74 336.35,-259.92 319.46,-250.01"/>
<polygon fill="#63b8ff" stroke="#63b8ff" points="370.14,-283.82 380.54,-285.87 373.69,-277.79 370.14,-283.82"/>
</a>
</g>
</g>
<!-- Node6 -->
<g id="Node000006" class="node">
<title>Node6</title>
<g id="a_Node000006"><a xlink:href="Parser_8hpp.html" target="_top" xlink:title=" ">
<polygon fill="white" stroke="#666666" points="803.24,-244.5 639.24,-244.5 639.24,-214.5 803.24,-214.5 803.24,-244.5"/>
<text text-anchor="start" x="647.24" y="-232.5" font-family="Helvetica,sans-Serif" font-size="10.00">src/SceneSystem/ConfigParser</text>
<text text-anchor="middle" x="721.24" y="-221.5" font-family="Helvetica,sans-Serif" font-size="10.00">/Parser.hpp</text>
</a>
</g>
</g>
<!-- Node2&#45;&gt;Node6 -->
<g id="edge6_Node000002_Node000006" class="edge">
<title>Node2&#45;&gt;Node6</title>
<g id="a_edge6_Node000002_Node000006"><a xlink:title=" ">
<path fill="none" stroke="#63b8ff" d="M448.73,-284C503.58,-273.23 589.19,-256.42 649.8,-244.52"/>
<polygon fill="#63b8ff" stroke="#63b8ff" points="448,-280.57 438.87,-285.94 449.35,-287.44 448,-280.57"/>
</a>
</g>
</g>
<!-- Node10 -->
<g id="Node000010" class="node">
<title>Node10</title>
<g id="a_Node000010"><a xlink:href="main_8cpp.html" target="_top" xlink:title=" ">
<polygon fill="white" stroke="#666666" points="830.74,-24.5 751.74,-24.5 751.74,-5.5 830.74,-5.5 830.74,-24.5"/>
<text text-anchor="middle" x="791.24" y="-12.5" font-family="Helvetica,sans-Serif" font-size="10.00">src/main.cpp</text>
</a>
</g>
</g>
<!-- Node2&#45;&gt;Node10 -->
<g id="edge23_Node000002_Node000010" class="edge">
<title>Node2&#45;&gt;Node10</title>
<g id="a_edge23_Node000002_Node000010"><a xlink:title=" ">
<path fill="none" stroke="#63b8ff" d="M468.16,-291.1C570.49,-285.59 751.02,-272.94 812.24,-250 868.12,-229.06 894.68,-225.93 922.24,-173 955.85,-108.45 851.62,-46.61 808.77,-24.53"/>
<polygon fill="#63b8ff" stroke="#63b8ff" points="467.7,-287.62 457.9,-291.65 468.07,-294.61 467.7,-287.62"/>
</a>
</g>
</g>
<!-- Node11 -->
<g id="Node000011" class="node">
<title>Node11</title>
<g id="a_Node000011"><a xlink:href="PluginManager_8hpp.html" target="_top" xlink:title="Plugin manager for loading and managing plugins.">
<polygon fill="white" stroke="#666666" points="599.24,-244.5 423.24,-244.5 423.24,-214.5 599.24,-214.5 599.24,-244.5"/>
<text text-anchor="start" x="431.24" y="-232.5" font-family="Helvetica,sans-Serif" font-size="10.00">src/SceneSystem/PluginManager</text>
<text text-anchor="middle" x="511.24" y="-221.5" font-family="Helvetica,sans-Serif" font-size="10.00">/PluginManager.hpp</text>
</a>
</g>
</g>
<!-- Node2&#45;&gt;Node11 -->
<g id="edge11_Node000002_Node000011" class="edge">
<title>Node2&#45;&gt;Node11</title>
<g id="a_edge11_Node000002_Node000011"><a xlink:title=" ">
<path fill="none" stroke="#63b8ff" d="M419.71,-281C439.07,-270.32 466.01,-255.45 485.65,-244.62"/>
<polygon fill="#63b8ff" stroke="#63b8ff" points="417.95,-277.97 410.88,-285.87 421.33,-284.1 417.95,-277.97"/>
</a>
</g>
</g>
<!-- Node13 -->
<g id="Node000013" class="node">
<title>Node13</title>
<g id="a_Node000013"><a xlink:href="Scene_8hpp.html" target="_top" xlink:title=" ">
<polygon fill="white" stroke="#666666" points="461.24,-173 329.24,-173 329.24,-143 461.24,-143 461.24,-173"/>
<text text-anchor="start" x="337.24" y="-161" font-family="Helvetica,sans-Serif" font-size="10.00">src/SceneSystem/Scene</text>
<text text-anchor="middle" x="395.24" y="-150" font-family="Helvetica,sans-Serif" font-size="10.00">/Scene.hpp</text>
</a>
</g>
</g>
<!-- Node2&#45;&gt;Node13 -->
<g id="edge20_Node000002_Node000013" class="edge">
<title>Node2&#45;&gt;Node13</title>
<g id="a_edge20_Node000002_Node000013"><a xlink:title=" ">
<path fill="none" stroke="#63b8ff" d="M395.24,-275.34C395.24,-247.81 395.24,-197.71 395.24,-173.23"/>
<polygon fill="#63b8ff" stroke="#63b8ff" points="391.74,-275.61 395.24,-285.61 398.74,-275.61 391.74,-275.61"/>
</a>
</g>
</g>
<!-- Node16 -->
<g id="Node000016" class="node">
<title>Node16</title>
<g id="a_Node000016"><a xlink:href="SceneNodeHelpers_8hpp.html" target="_top" xlink:title=" ">
<polygon fill="white" stroke="#666666" points="187.24,-244.5 17.24,-244.5 17.24,-214.5 187.24,-214.5 187.24,-244.5"/>
<text text-anchor="start" x="25.24" y="-232.5" font-family="Helvetica,sans-Serif" font-size="10.00">src/SceneSystem/SceneNode</text>
<text text-anchor="middle" x="102.24" y="-221.5" font-family="Helvetica,sans-Serif" font-size="10.00">Helpers/SceneNodeHelpers.hpp</text>
</a>
</g>
</g>
<!-- Node2&#45;&gt;Node16 -->
<g id="edge21_Node000002_Node000016" class="edge">
<title>Node2&#45;&gt;Node16</title>
<g id="a_edge21_Node000002_Node000016"><a xlink:title=" ">
<path fill="none" stroke="#63b8ff" d="M346.23,-283.8C296.91,-273.02 220.58,-256.35 166.45,-244.52"/>
<polygon fill="#63b8ff" stroke="#63b8ff" points="345.51,-287.22 356.03,-285.94 347,-280.38 345.51,-287.22"/>
</a>
</g>
</g>
<!-- Node4&#45;&gt;Node3 -->
<g id="edge4_Node000004_Node000003" class="edge">
<title>Node4&#45;&gt;Node3</title>
<g id="a_edge4_Node000004_Node000003"><a xlink:title=" ">
<path fill="none" stroke="#63b8ff" d="M225.06,-205.39C196.68,-194.67 163.88,-182.28 139.31,-173"/>
<polygon fill="#63b8ff" stroke="#63b8ff" points="223.9,-208.7 234.49,-208.96 226.38,-202.15 223.9,-208.7"/>
</a>
</g>
</g>
<!-- Node5 -->
<g id="Node000005" class="node">
<title>Node5</title>
<g id="a_Node000005"><a xlink:href="SceneWriter_8cpp.html" target="_top" xlink:title=" ">
<polygon fill="white" stroke="#666666" points="288.74,-107 127.74,-107 127.74,-66 288.74,-66 288.74,-107"/>
<text text-anchor="start" x="135.74" y="-95" font-family="Helvetica,sans-Serif" font-size="10.00">src/Objects/Plugins</text>
<text text-anchor="start" x="135.74" y="-84" font-family="Helvetica,sans-Serif" font-size="10.00">/CorePlugin/Interfaces</text>
<text text-anchor="middle" x="208.24" y="-73" font-family="Helvetica,sans-Serif" font-size="10.00">/SceneWriter/SceneWriter.cpp</text>
</a>
</g>
</g>
<!-- Node4&#45;&gt;Node5 -->
<g id="edge5_Node000004_Node000005" class="edge">
<title>Node4&#45;&gt;Node5</title>
<g id="a_edge5_Node000004_Node000005"><a xlink:title=" ">
<path fill="none" stroke="#63b8ff" d="M270.54,-200.13C255.32,-172.62 232.63,-131.59 219.24,-107.39"/>
<polygon fill="#63b8ff" stroke="#63b8ff" points="267.49,-201.84 275.39,-208.89 273.61,-198.45 267.49,-201.84"/>
</a>
</g>
</g>
<!-- Node7 -->
<g id="Node000007" class="node">
<title>Node7</title>
<g id="a_Node000007"><a xlink:href="Parser_8cpp.html" target="_top" xlink:title=" ">
<polygon fill="white" stroke="#666666" points="913.24,-173 749.24,-173 749.24,-143 913.24,-143 913.24,-173"/>
<text text-anchor="start" x="757.24" y="-161" font-family="Helvetica,sans-Serif" font-size="10.00">src/SceneSystem/ConfigParser</text>
<text text-anchor="middle" x="831.24" y="-150" font-family="Helvetica,sans-Serif" font-size="10.00">/Parser.cpp</text>
</a>
</g>
</g>
<!-- Node6&#45;&gt;Node7 -->
<g id="edge7_Node000006_Node000007" class="edge">
<title>Node6&#45;&gt;Node7</title>
<g id="a_edge7_Node000006_Node000007"><a xlink:title=" ">
<path fill="none" stroke="#63b8ff" d="M751.99,-209.07C770.11,-197.62 792.62,-183.4 809.01,-173.04"/>
<polygon fill="#63b8ff" stroke="#63b8ff" points="750.08,-206.14 743.5,-214.44 753.82,-212.05 750.08,-206.14"/>
</a>
</g>
</g>
<!-- Node8 -->
<g id="Node000008" class="node">
<title>Node8</title>
<g id="a_Node000008"><a xlink:href="SceneLoader_8hpp.html" target="_top" xlink:title=" ">
<polygon fill="white" stroke="#666666" points="803.74,-101.5 638.74,-101.5 638.74,-71.5 803.74,-71.5 803.74,-101.5"/>
<text text-anchor="start" x="646.74" y="-89.5" font-family="Helvetica,sans-Serif" font-size="10.00">src/SceneSystem/SceneLoader</text>
<text text-anchor="middle" x="721.24" y="-78.5" font-family="Helvetica,sans-Serif" font-size="10.00">/SceneLoader.hpp</text>
</a>
</g>
</g>
<!-- Node6&#45;&gt;Node8 -->
<g id="edge8_Node000006_Node000008" class="edge">
<title>Node6&#45;&gt;Node8</title>
<g id="a_edge8_Node000006_Node000008"><a xlink:title=" ">
<path fill="none" stroke="#63b8ff" d="M721.24,-204.2C721.24,-174.72 721.24,-125.99 721.24,-101.9"/>
<polygon fill="#63b8ff" stroke="#63b8ff" points="717.74,-204.46 721.24,-214.46 724.74,-204.46 717.74,-204.46"/>
</a>
</g>
</g>
<!-- Node9 -->
<g id="Node000009" class="node">
<title>Node9</title>
<g id="a_Node000009"><a xlink:href="SceneLoader_8cpp.html" target="_top" xlink:title=" ">
<polygon fill="white" stroke="#666666" points="733.74,-30 568.74,-30 568.74,0 733.74,0 733.74,-30"/>
<text text-anchor="start" x="576.74" y="-18" font-family="Helvetica,sans-Serif" font-size="10.00">src/SceneSystem/SceneLoader</text>
<text text-anchor="middle" x="651.24" y="-7" font-family="Helvetica,sans-Serif" font-size="10.00">/SceneLoader.cpp</text>
</a>
</g>
</g>
<!-- Node8&#45;&gt;Node9 -->
<g id="edge9_Node000008_Node000009" class="edge">
<title>Node8&#45;&gt;Node9</title>
<g id="a_edge9_Node000008_Node000009"><a xlink:title=" ">
<path fill="none" stroke="#63b8ff" d="M699.76,-64.17C688.59,-53.08 675.25,-39.84 665.38,-30.04"/>
<polygon fill="#63b8ff" stroke="#63b8ff" points="697.51,-66.87 707.07,-71.44 702.44,-61.91 697.51,-66.87"/>
</a>
</g>
</g>
<!-- Node8&#45;&gt;Node10 -->
<g id="edge10_Node000008_Node000010" class="edge">
<title>Node8&#45;&gt;Node10</title>
<g id="a_edge10_Node000008_Node000010"><a xlink:title=" ">
<path fill="none" stroke="#63b8ff" d="M742.82,-64.07C756.14,-50.84 772.52,-34.58 782.41,-24.77"/>
<polygon fill="#63b8ff" stroke="#63b8ff" points="740.03,-61.91 735.4,-71.44 744.97,-66.87 740.03,-61.91"/>
</a>
</g>
</g>
<!-- Node11&#45;&gt;Node8 -->
<g id="edge19_Node000011_Node000008" class="edge">
<title>Node11&#45;&gt;Node8</title>
<g id="a_edge19_Node000011_Node000008"><a xlink:title=" ">
<path fill="none" stroke="#63b8ff" d="M502.81,-204.58C497.86,-185.89 494.89,-160.27 508.24,-143 513.02,-136.81 598.83,-115.83 660.06,-101.52"/>
<polygon fill="#63b8ff" stroke="#63b8ff" points="499.53,-205.84 505.75,-214.41 506.23,-203.83 499.53,-205.84"/>
</a>
</g>
</g>
<!-- Node12 -->
<g id="Node000012" class="node">
<title>Node12</title>
<g id="a_Node000012"><a xlink:href="PluginManager_8cpp.html" target="_top" xlink:title=" ">
<polygon fill="white" stroke="#666666" points="693.24,-173 517.24,-173 517.24,-143 693.24,-143 693.24,-173"/>
<text text-anchor="start" x="525.24" y="-161" font-family="Helvetica,sans-Serif" font-size="10.00">src/SceneSystem/PluginManager</text>
<text text-anchor="middle" x="605.24" y="-150" font-family="Helvetica,sans-Serif" font-size="10.00">/PluginManager.cpp</text>
</a>
</g>
</g>
<!-- Node11&#45;&gt;Node12 -->
<g id="edge12_Node000011_Node000012" class="edge">
<title>Node11&#45;&gt;Node12</title>
<g id="a_edge12_Node000011_Node000012"><a xlink:title=" ">
<path fill="none" stroke="#63b8ff" d="M538.37,-208.44C553.7,-197.1 572.49,-183.21 586.24,-173.04"/>
<polygon fill="#63b8ff" stroke="#63b8ff" points="536.22,-205.68 530.26,-214.44 540.38,-211.3 536.22,-205.68"/>
</a>
</g>
</g>
<!-- Node11&#45;&gt;Node13 -->
<g id="edge13_Node000011_Node000013" class="edge">
<title>Node11&#45;&gt;Node13</title>
<g id="a_edge13_Node000011_Node000013"><a xlink:title=" ">
<path fill="none" stroke="#63b8ff" d="M479.06,-209.22C459.91,-197.75 436.04,-183.45 418.68,-173.04"/>
<polygon fill="#63b8ff" stroke="#63b8ff" points="477.39,-212.3 487.76,-214.44 480.98,-206.29 477.39,-212.3"/>
</a>
</g>
</g>
<!-- Node13&#45;&gt;Node5 -->
<g id="edge14_Node000013_Node000005" class="edge">
<title>Node13&#45;&gt;Node5</title>
<g id="a_edge14_Node000013_Node000005"><a xlink:title=" ">
<path fill="none" stroke="#63b8ff" d="M347.94,-139.42C321.42,-129.56 288.26,-117.24 260.9,-107.07"/>
<polygon fill="#63b8ff" stroke="#63b8ff" points="346.8,-142.73 357.4,-142.94 349.24,-136.17 346.8,-142.73"/>
</a>
</g>
</g>
<!-- Node13&#45;&gt;Node8 -->
<g id="edge17_Node000013_Node000008" class="edge">
<title>Node13&#45;&gt;Node8</title>
<g id="a_edge17_Node000013_Node000008"><a xlink:title=" ">
<path fill="none" stroke="#63b8ff" d="M471.24,-140.86C517.26,-131.08 577.13,-118.34 630.24,-107 638.45,-105.25 647.09,-103.4 655.63,-101.57"/>
<polygon fill="#63b8ff" stroke="#63b8ff" points="470.39,-137.46 461.34,-142.96 471.85,-144.31 470.39,-137.46"/>
</a>
</g>
</g>
<!-- Node13&#45;&gt;Node10 -->
<g id="edge18_Node000013_Node000010" class="edge">
<title>Node13&#45;&gt;Node10</title>
<g id="a_edge18_Node000013_Node000010"><a xlink:title=" ">
<path fill="none" stroke="#63b8ff" d="M418.24,-135.81C427.65,-127.01 438.57,-116.62 448.24,-107 466.06,-89.25 464.87,-77.5 487.24,-66 589.41,-13.45 630.91,-54.15 743.24,-30 750.2,-28.5 757.62,-26.53 764.5,-24.54"/>
<polygon fill="#63b8ff" stroke="#63b8ff" points="415.69,-133.4 410.75,-142.78 420.46,-138.53 415.69,-133.4"/>
</a>
</g>
</g>
<!-- Node14 -->
<g id="Node000014" class="node">
<title>Node14</title>
<g id="a_Node000014"><a xlink:href="Camera_8cpp.html" target="_top" xlink:title=" ">
<polygon fill="white" stroke="#666666" points="620.74,-107 495.74,-107 495.74,-66 620.74,-66 620.74,-107"/>
<text text-anchor="start" x="503.74" y="-95" font-family="Helvetica,sans-Serif" font-size="10.00">src/Objects/Plugins</text>
<text text-anchor="start" x="503.74" y="-84" font-family="Helvetica,sans-Serif" font-size="10.00">/CorePlugin/Renderers</text>
<text text-anchor="middle" x="558.24" y="-73" font-family="Helvetica,sans-Serif" font-size="10.00">/Camera/Camera.cpp</text>
</a>
</g>
</g>
<!-- Node13&#45;&gt;Node14 -->
<g id="edge15_Node000013_Node000014" class="edge">
<title>Node13&#45;&gt;Node14</title>
<g id="a_edge15_Node000013_Node000014"><a xlink:title=" ">
<path fill="none" stroke="#63b8ff" d="M437.68,-138.9C460.6,-129.13 488.91,-117.06 512.33,-107.07"/>
<polygon fill="#63b8ff" stroke="#63b8ff" points="436.05,-135.79 428.22,-142.94 438.79,-142.23 436.05,-135.79"/>
</a>
</g>
</g>
<!-- Node15 -->
<g id="Node000015" class="node">
<title>Node15</title>
<g id="a_Node000015"><a xlink:href="Scene_8cpp.html" target="_top" xlink:title=" ">
<polygon fill="white" stroke="#666666" points="439.24,-101.5 307.24,-101.5 307.24,-71.5 439.24,-71.5 439.24,-101.5"/>
<text text-anchor="start" x="315.24" y="-89.5" font-family="Helvetica,sans-Serif" font-size="10.00">src/SceneSystem/Scene</text>
<text text-anchor="middle" x="373.24" y="-78.5" font-family="Helvetica,sans-Serif" font-size="10.00">/Scene.cpp</text>
</a>
</g>
</g>
<!-- Node13&#45;&gt;Node15 -->
<g id="edge16_Node000013_Node000015" class="edge">
<title>Node13&#45;&gt;Node15</title>
<g id="a_edge16_Node000013_Node000015"><a xlink:title=" ">
<path fill="none" stroke="#63b8ff" d="M387.66,-133.08C384.34,-122.56 380.54,-110.58 377.68,-101.54"/>
<polygon fill="#63b8ff" stroke="#63b8ff" points="384.43,-134.46 390.79,-142.94 391.1,-132.35 384.43,-134.46"/>
</a>
</g>
</g>
<!-- Node16&#45;&gt;Node3 -->
<g id="edge22_Node000016_Node000003" class="edge">
<title>Node16&#45;&gt;Node3</title>
<g id="a_edge22_Node000016_Node000003"><a xlink:title=" ">
<path fill="none" stroke="#63b8ff" d="M102.24,-204.25C102.24,-193.81 102.24,-181.99 102.24,-173.04"/>
<polygon fill="#63b8ff" stroke="#63b8ff" points="98.74,-204.44 102.24,-214.44 105.74,-204.44 98.74,-204.44"/>
</a>
</g>
</g>
</g>
</svg>
