<?xml version="1.0" encoding="UTF-8" standalone="no"?>
<!DOCTYPE svg PUBLIC "-//W3C//DTD SVG 1.1//EN"
 "http://www.w3.org/Graphics/SVG/1.1/DTD/svg11.dtd">
<!-- Generated by graphviz version 2.43.0 (0)
 -->
<!-- Title: src/Exceptions/ParsingException/ParsingException.hpp Pages: 1 -->
<svg width="1283pt" height="390pt"
 viewBox="0.00 0.00 1282.50 390.00" xmlns="http://www.w3.org/2000/svg" xmlns:xlink="http://www.w3.org/1999/xlink">
<g id="graph0" class="graph" transform="scale(1 1) rotate(0) translate(4 386)">
<title>src/Exceptions/ParsingException/ParsingException.hpp</title>
<!-- Node1 -->
<g id="Node000001" class="node">
<title>Node1</title>
<g id="a_Node000001"><a xlink:title=" ">
<polygon fill="#999999" stroke="#666666" points="721.5,-382 548.5,-382 548.5,-352 721.5,-352 721.5,-382"/>
<text text-anchor="start" x="556.5" y="-370" font-family="Helvetica,sans-Serif" font-size="10.00">src/Exceptions/ParsingException</text>
<text text-anchor="middle" x="635" y="-359" font-family="Helvetica,sans-Serif" font-size="10.00">/ParsingException.hpp</text>
</a>
</g>
</g>
<!-- Node2 -->
<g id="Node000002" class="node">
<title>Node2</title>
<g id="a_Node000002"><a xlink:href="Plugin_8hpp.html" target="_top" xlink:title=" ">
<polygon fill="white" stroke="#666666" points="697.5,-316 572.5,-316 572.5,-297 697.5,-297 697.5,-316"/>
<text text-anchor="middle" x="635" y="-304" font-family="Helvetica,sans-Serif" font-size="10.00">src/Objects/Plugin.hpp</text>
</a>
</g>
</g>
<!-- Node1&#45;&gt;Node2 -->
<g id="edge1_Node000001_Node000002" class="edge">
<title>Node1&#45;&gt;Node2</title>
<g id="a_edge1_Node000001_Node000002"><a xlink:title=" ">
<path fill="none" stroke="#63b8ff" d="M635,-341.75C635,-332.72 635,-323.03 635,-316.27"/>
<polygon fill="#63b8ff" stroke="#63b8ff" points="631.5,-341.84 635,-351.84 638.5,-341.84 631.5,-341.84"/>
</a>
</g>
</g>
<!-- Node3 -->
<g id="Node000003" class="node">
<title>Node3</title>
<g id="a_Node000003"><a xlink:href="BVHCamPlugin_8cpp.html" target="_top" xlink:title=" ">
<polygon fill="white" stroke="#666666" points="190,-178.5 0,-178.5 0,-148.5 190,-148.5 190,-178.5"/>
<text text-anchor="start" x="8" y="-166.5" font-family="Helvetica,sans-Serif" font-size="10.00">src/Objects/Plugins</text>
<text text-anchor="middle" x="95" y="-155.5" font-family="Helvetica,sans-Serif" font-size="10.00">/BVHCamPlugin/BVHCamPlugin.cpp</text>
</a>
</g>
</g>
<!-- Node2&#45;&gt;Node3 -->
<g id="edge2_Node000002_Node000003" class="edge">
<title>Node2&#45;&gt;Node3</title>
<g id="a_edge2_Node000002_Node000003"><a xlink:title=" ">
<path fill="none" stroke="#63b8ff" d="M562.25,-304.87C421.97,-302.9 125.09,-294.75 94,-261 73.45,-238.7 82.46,-199.69 89.5,-178.75"/>
<polygon fill="#63b8ff" stroke="#63b8ff" points="562.44,-308.38 572.48,-305.01 562.53,-301.38 562.44,-308.38"/>
</a>
</g>
</g>
<!-- Node4 -->
<g id="Node000004" class="node">
<title>Node4</title>
<g id="a_Node000004"><a xlink:href="CorePlugin_8cpp.html" target="_top" xlink:title="Core plugin implementation that provides primitives, materials and the camera.">
<polygon fill="white" stroke="#666666" points="375,-178.5 227,-178.5 227,-148.5 375,-148.5 375,-178.5"/>
<text text-anchor="start" x="235" y="-166.5" font-family="Helvetica,sans-Serif" font-size="10.00">src/Objects/Plugins</text>
<text text-anchor="middle" x="301" y="-155.5" font-family="Helvetica,sans-Serif" font-size="10.00">/CorePlugin/CorePlugin.cpp</text>
</a>
</g>
</g>
<!-- Node2&#45;&gt;Node4 -->
<g id="edge3_Node000002_Node000004" class="edge">
<title>Node2&#45;&gt;Node4</title>
<g id="a_edge3_Node000002_Node000004"><a xlink:title=" ">
<path fill="none" stroke="#63b8ff" d="M562.26,-304.69C480.24,-302.2 353.87,-293.09 320,-261 297.44,-239.63 297.35,-199.87 299.19,-178.67"/>
<polygon fill="#63b8ff" stroke="#63b8ff" points="562.18,-308.19 572.28,-304.97 562.38,-301.2 562.18,-308.19"/>
</a>
</g>
</g>
<!-- Node5 -->
<g id="Node000005" class="node">
<title>Node5</title>
<g id="a_Node000005"><a xlink:href="SceneWriter_8hpp.html" target="_top" xlink:title=" ">
<polygon fill="white" stroke="#666666" points="490.5,-261 329.5,-261 329.5,-220 490.5,-220 490.5,-261"/>
<text text-anchor="start" x="337.5" y="-249" font-family="Helvetica,sans-Serif" font-size="10.00">src/Objects/Plugins</text>
<text text-anchor="start" x="337.5" y="-238" font-family="Helvetica,sans-Serif" font-size="10.00">/CorePlugin/Interfaces</text>
<text text-anchor="middle" x="410" y="-227" font-family="Helvetica,sans-Serif" font-size="10.00">/SceneWriter/SceneWriter.hpp</text>
</a>
</g>
</g>
<!-- Node2&#45;&gt;Node5 -->
<g id="edge4_Node000002_Node000005" class="edge">
<title>Node2&#45;&gt;Node5</title>
<g id="a_edge4_Node000002_Node000005"><a xlink:title=" ">
<path fill="none" stroke="#63b8ff" d="M594.7,-294.04C562.48,-284.87 516.57,-271.81 478.59,-261.01"/>
<polygon fill="#63b8ff" stroke="#63b8ff" points="594.08,-297.5 604.66,-296.87 595.99,-290.77 594.08,-297.5"/>
</a>
</g>
</g>
<!-- Node7 -->
<g id="Node000007" class="node">
<title>Node7</title>
<g id="a_Node000007"><a xlink:href="Livescene_8hpp.html" target="_top" xlink:title=" ">
<polygon fill="white" stroke="#666666" points="659,-261 509,-261 509,-220 659,-220 659,-261"/>
<text text-anchor="start" x="517" y="-249" font-family="Helvetica,sans-Serif" font-size="10.00">src/Objects/Plugins</text>
<text text-anchor="start" x="517" y="-238" font-family="Helvetica,sans-Serif" font-size="10.00">/LivescenePlugin/Interfaces</text>
<text text-anchor="middle" x="584" y="-227" font-family="Helvetica,sans-Serif" font-size="10.00">/Livescene/Livescene.hpp</text>
</a>
</g>
</g>
<!-- Node2&#45;&gt;Node7 -->
<g id="edge7_Node000002_Node000007" class="edge">
<title>Node2&#45;&gt;Node7</title>
<g id="a_edge7_Node000002_Node000007"><a xlink:title=" ">
<path fill="none" stroke="#63b8ff" d="M621.71,-288.82C614.92,-280.31 606.63,-269.9 599.55,-261.01"/>
<polygon fill="#63b8ff" stroke="#63b8ff" points="619.15,-291.23 628.12,-296.87 624.63,-286.87 619.15,-291.23"/>
</a>
</g>
</g>
<!-- Node9 -->
<g id="Node000009" class="node">
<title>Node9</title>
<g id="a_Node000009"><a xlink:href="LivescenePlugin_8cpp.html" target="_top" xlink:title=" ">
<polygon fill="white" stroke="#666666" points="650,-184 500,-184 500,-143 650,-143 650,-184"/>
<text text-anchor="start" x="508" y="-172" font-family="Helvetica,sans-Serif" font-size="10.00">src/Objects/Plugins</text>
<text text-anchor="start" x="508" y="-161" font-family="Helvetica,sans-Serif" font-size="10.00">/LivescenePlugin/Livescene</text>
<text text-anchor="middle" x="575" y="-150" font-family="Helvetica,sans-Serif" font-size="10.00">Plugin.cpp</text>
</a>
</g>
</g>
<!-- Node2&#45;&gt;Node9 -->
<g id="edge10_Node000002_Node000009" class="edge">
<title>Node2&#45;&gt;Node9</title>
<g id="a_edge10_Node000002_Node000009"><a xlink:title=" ">
<path fill="none" stroke="#63b8ff" d="M650.92,-289.34C657.57,-281.47 664.54,-271.46 668,-261 673.72,-243.7 677,-235.85 668,-220 659.09,-204.3 643.78,-192.57 628.13,-184.04"/>
<polygon fill="#63b8ff" stroke="#63b8ff" points="648.14,-287.2 644.02,-296.96 653.33,-291.9 648.14,-287.2"/>
</a>
</g>
</g>
<!-- Node10 -->
<g id="Node000010" class="node">
<title>Node10</title>
<g id="a_Node000010"><a xlink:href="Parser_8hpp.html" target="_top" xlink:title=" ">
<polygon fill="white" stroke="#666666" points="1142,-255.5 978,-255.5 978,-225.5 1142,-225.5 1142,-255.5"/>
<text text-anchor="start" x="986" y="-243.5" font-family="Helvetica,sans-Serif" font-size="10.00">src/SceneSystem/ConfigParser</text>
<text text-anchor="middle" x="1060" y="-232.5" font-family="Helvetica,sans-Serif" font-size="10.00">/Parser.hpp</text>
</a>
</g>
</g>
<!-- Node2&#45;&gt;Node10 -->
<g id="edge11_Node000002_Node000010" class="edge">
<title>Node2&#45;&gt;Node10</title>
<g id="a_edge11_Node000002_Node000010"><a xlink:title=" ">
<path fill="none" stroke="#63b8ff" d="M707.9,-296.56C773.47,-288.25 872.37,-275.07 958,-261 968.14,-259.33 978.82,-257.44 989.3,-255.51"/>
<polygon fill="#63b8ff" stroke="#63b8ff" points="707.15,-293.12 697.67,-297.85 708.03,-300.07 707.15,-293.12"/>
</a>
</g>
</g>
<!-- Node14 -->
<g id="Node000014" class="node">
<title>Node14</title>
<g id="a_Node000014"><a xlink:href="main_8cpp.html" target="_top" xlink:title="Entry point and CLI for the raytracer application.">
<polygon fill="white" stroke="#666666" points="1091.5,-24.5 1012.5,-24.5 1012.5,-5.5 1091.5,-5.5 1091.5,-24.5"/>
<text text-anchor="middle" x="1052" y="-12.5" font-family="Helvetica,sans-Serif" font-size="10.00">src/main.cpp</text>
</a>
</g>
</g>
<!-- Node2&#45;&gt;Node14 -->
<g id="edge31_Node000002_Node000014" class="edge">
<title>Node2&#45;&gt;Node14</title>
<g id="a_edge31_Node000002_Node000014"><a xlink:title=" ">
<path fill="none" stroke="#63b8ff" d="M707.66,-303.87C829.98,-300.35 1071.47,-289.89 1151,-261 1207.09,-240.63 1233.44,-236.93 1261,-184 1288.26,-131.63 1248.28,-99.98 1200,-66 1189.96,-58.94 1120.14,-36.87 1080.08,-24.54"/>
<polygon fill="#63b8ff" stroke="#63b8ff" points="707.53,-300.37 697.63,-304.15 707.72,-307.37 707.53,-300.37"/>
</a>
</g>
</g>
<!-- Node15 -->
<g id="Node000015" class="node">
<title>Node15</title>
<g id="a_Node000015"><a xlink:href="PluginManager_8hpp.html" target="_top" xlink:title="Plugin loader interface for dynamic plugins.">
<polygon fill="white" stroke="#666666" points="949,-255.5 773,-255.5 773,-225.5 949,-225.5 949,-255.5"/>
<text text-anchor="start" x="781" y="-243.5" font-family="Helvetica,sans-Serif" font-size="10.00">src/SceneSystem/PluginManager</text>
<text text-anchor="middle" x="861" y="-232.5" font-family="Helvetica,sans-Serif" font-size="10.00">/PluginManager.hpp</text>
</a>
</g>
</g>
<!-- Node2&#45;&gt;Node15 -->
<g id="edge16_Node000002_Node000015" class="edge">
<title>Node2&#45;&gt;Node15</title>
<g id="a_edge16_Node000002_Node000015"><a xlink:title=" ">
<path fill="none" stroke="#63b8ff" d="M675.18,-294.12C713.17,-283.36 770.28,-267.19 811.15,-255.62"/>
<polygon fill="#63b8ff" stroke="#63b8ff" points="674.15,-290.78 665.48,-296.87 676.05,-297.51 674.15,-290.78"/>
</a>
</g>
</g>
<!-- Node17 -->
<g id="Node000017" class="node">
<title>Node17</title>
<g id="a_Node000017"><a xlink:href="Scene_8hpp.html" target="_top" xlink:title="Scene container and ray query interface used by renderers.">
<polygon fill="white" stroke="#666666" points="800,-178.5 668,-178.5 668,-148.5 800,-148.5 800,-178.5"/>
<text text-anchor="start" x="676" y="-166.5" font-family="Helvetica,sans-Serif" font-size="10.00">src/SceneSystem/Scene</text>
<text text-anchor="middle" x="734" y="-155.5" font-family="Helvetica,sans-Serif" font-size="10.00">/Scene.hpp</text>
</a>
</g>
</g>
<!-- Node2&#45;&gt;Node17 -->
<g id="edge27_Node000002_Node000017" class="edge">
<title>Node2&#45;&gt;Node17</title>
<g id="a_edge27_Node000002_Node000017"><a xlink:title=" ">
<path fill="none" stroke="#63b8ff" d="M655.35,-290.34C665.14,-282.36 676.55,-271.96 685,-261 705.42,-234.51 721.13,-198.2 728.81,-178.54"/>
<polygon fill="#63b8ff" stroke="#63b8ff" points="652.98,-287.75 647.28,-296.69 657.31,-293.25 652.98,-287.75"/>
</a>
</g>
</g>
<!-- Node21 -->
<g id="Node000021" class="node">
<title>Node21</title>
<g id="a_Node000021"><a xlink:href="SceneNodeHelpers_8hpp.html" target="_top" xlink:title=" ">
<polygon fill="white" stroke="#666666" points="273,-255.5 103,-255.5 103,-225.5 273,-225.5 273,-255.5"/>
<text text-anchor="start" x="111" y="-243.5" font-family="Helvetica,sans-Serif" font-size="10.00">src/SceneSystem/SceneNode</text>
<text text-anchor="middle" x="188" y="-232.5" font-family="Helvetica,sans-Serif" font-size="10.00">Helpers/SceneNodeHelpers.hpp</text>
</a>
</g>
</g>
<!-- Node2&#45;&gt;Node21 -->
<g id="edge28_Node000002_Node000021" class="edge">
<title>Node2&#45;&gt;Node21</title>
<g id="a_edge28_Node000002_Node000021"><a xlink:title=" ">
<path fill="none" stroke="#63b8ff" d="M562.15,-297.63C491.6,-289.67 381.7,-276.36 287,-261 276.97,-259.37 266.4,-257.48 256.06,-255.53"/>
<polygon fill="#63b8ff" stroke="#63b8ff" points="561.94,-301.13 572.27,-298.76 562.72,-294.17 561.94,-301.13"/>
</a>
</g>
</g>
<!-- Node5&#45;&gt;Node4 -->
<g id="edge5_Node000005_Node000004" class="edge">
<title>Node5&#45;&gt;Node4</title>
<g id="a_edge5_Node000005_Node000004"><a xlink:title=" ">
<path fill="none" stroke="#63b8ff" d="M372.96,-214.01C355.81,-202.22 336.09,-188.65 321.64,-178.7"/>
<polygon fill="#63b8ff" stroke="#63b8ff" points="371.42,-217.21 381.65,-219.99 375.39,-211.44 371.42,-217.21"/>
</a>
</g>
</g>
<!-- Node6 -->
<g id="Node000006" class="node">
<title>Node6</title>
<g id="a_Node000006"><a xlink:href="SceneWriter_8cpp.html" target="_top" xlink:title=" ">
<polygon fill="white" stroke="#666666" points="342.5,-107 181.5,-107 181.5,-66 342.5,-66 342.5,-107"/>
<text text-anchor="start" x="189.5" y="-95" font-family="Helvetica,sans-Serif" font-size="10.00">src/Objects/Plugins</text>
<text text-anchor="start" x="189.5" y="-84" font-family="Helvetica,sans-Serif" font-size="10.00">/CorePlugin/Interfaces</text>
<text text-anchor="middle" x="262" y="-73" font-family="Helvetica,sans-Serif" font-size="10.00">/SceneWriter/SceneWriter.cpp</text>
</a>
</g>
</g>
<!-- Node5&#45;&gt;Node6 -->
<g id="edge6_Node000005_Node000006" class="edge">
<title>Node5&#45;&gt;Node6</title>
<g id="a_edge6_Node000005_Node000006"><a xlink:title=" ">
<path fill="none" stroke="#63b8ff" d="M408.53,-209.65C406.06,-188.84 399.77,-161.59 384,-143 370.45,-127.03 351.35,-115.43 332.28,-107.1"/>
<polygon fill="#63b8ff" stroke="#63b8ff" points="405.07,-210.24 409.5,-219.86 412.04,-209.58 405.07,-210.24"/>
</a>
</g>
</g>
<!-- Node8 -->
<g id="Node000008" class="node">
<title>Node8</title>
<g id="a_Node000008"><a xlink:href="Livescene_8cpp.html" target="_top" xlink:title=" ">
<polygon fill="white" stroke="#666666" points="511,-107 361,-107 361,-66 511,-66 511,-107"/>
<text text-anchor="start" x="369" y="-95" font-family="Helvetica,sans-Serif" font-size="10.00">src/Objects/Plugins</text>
<text text-anchor="start" x="369" y="-84" font-family="Helvetica,sans-Serif" font-size="10.00">/LivescenePlugin/Interfaces</text>
<text text-anchor="middle" x="436" y="-73" font-family="Helvetica,sans-Serif" font-size="10.00">/Livescene/Livescene.cpp</text>
</a>
</g>
</g>
<!-- Node7&#45;&gt;Node8 -->
<g id="edge8_Node000007_Node000008" class="edge">
<title>Node7&#45;&gt;Node8</title>
<g id="a_edge8_Node000007_Node000008"><a xlink:title=" ">
<path fill="none" stroke="#63b8ff" d="M532.07,-214.84C517.67,-206.4 502.77,-196.01 491,-184 468.86,-161.42 452.52,-128.16 443.63,-107.18"/>
<polygon fill="#63b8ff" stroke="#63b8ff" points="530.51,-217.98 540.94,-219.84 533.95,-211.88 530.51,-217.98"/>
</a>
</g>
</g>
<!-- Node7&#45;&gt;Node9 -->
<g id="edge9_Node000007_Node000009" class="edge">
<title>Node7&#45;&gt;Node9</title>
<g id="a_edge9_Node000007_Node000009"><a xlink:title=" ">
<path fill="none" stroke="#63b8ff" d="M580.42,-209.69C579.39,-201.08 578.29,-191.9 577.35,-184.07"/>
<polygon fill="#63b8ff" stroke="#63b8ff" points="576.97,-210.28 581.64,-219.79 583.92,-209.45 576.97,-210.28"/>
</a>
</g>
</g>
<!-- Node11 -->
<g id="Node000011" class="node">
<title>Node11</title>
<g id="a_Node000011"><a xlink:href="Parser_8cpp.html" target="_top" xlink:title=" ">
<polygon fill="white" stroke="#666666" points="1252,-178.5 1088,-178.5 1088,-148.5 1252,-148.5 1252,-178.5"/>
<text text-anchor="start" x="1096" y="-166.5" font-family="Helvetica,sans-Serif" font-size="10.00">src/SceneSystem/ConfigParser</text>
<text text-anchor="middle" x="1170" y="-155.5" font-family="Helvetica,sans-Serif" font-size="10.00">/Parser.cpp</text>
</a>
</g>
</g>
<!-- Node10&#45;&gt;Node11 -->
<g id="edge12_Node000010_Node000011" class="edge">
<title>Node10&#45;&gt;Node11</title>
<g id="a_edge12_Node000010_Node000011"><a xlink:title=" ">
<path fill="none" stroke="#63b8ff" d="M1089,-219.73C1108,-206.78 1132.37,-190.15 1149.4,-178.54"/>
<polygon fill="#63b8ff" stroke="#63b8ff" points="1086.98,-216.87 1080.69,-225.39 1090.92,-222.65 1086.98,-216.87"/>
</a>
</g>
</g>
<!-- Node12 -->
<g id="Node000012" class="node">
<title>Node12</title>
<g id="a_Node000012"><a xlink:href="SceneLoader_8hpp.html" target="_top" xlink:title="Loads scene graphs from parsed configuration nodes.">
<polygon fill="white" stroke="#666666" points="1190.5,-101.5 1025.5,-101.5 1025.5,-71.5 1190.5,-71.5 1190.5,-101.5"/>
<text text-anchor="start" x="1033.5" y="-89.5" font-family="Helvetica,sans-Serif" font-size="10.00">src/SceneSystem/SceneLoader</text>
<text text-anchor="middle" x="1108" y="-78.5" font-family="Helvetica,sans-Serif" font-size="10.00">/SceneLoader.hpp</text>
</a>
</g>
</g>
<!-- Node10&#45;&gt;Node12 -->
<g id="edge13_Node000010_Node000012" class="edge">
<title>Node10&#45;&gt;Node12</title>
<g id="a_edge13_Node000010_Node000012"><a xlink:title=" ">
<path fill="none" stroke="#63b8ff" d="M1062.79,-215.4C1065.55,-195.56 1070.59,-166.92 1079,-143 1084.19,-128.23 1092.72,-112.52 1099.19,-101.59"/>
<polygon fill="#63b8ff" stroke="#63b8ff" points="1059.3,-215.06 1061.49,-225.42 1066.25,-215.96 1059.3,-215.06"/>
</a>
</g>
</g>
<!-- Node13 -->
<g id="Node000013" class="node">
<title>Node13</title>
<g id="a_Node000013"><a xlink:href="SceneLoader_8cpp.html" target="_top" xlink:title="Scene parsing and construction from configuration nodes.">
<polygon fill="white" stroke="#666666" points="1274.5,-30 1109.5,-30 1109.5,0 1274.5,0 1274.5,-30"/>
<text text-anchor="start" x="1117.5" y="-18" font-family="Helvetica,sans-Serif" font-size="10.00">src/SceneSystem/SceneLoader</text>
<text text-anchor="middle" x="1192" y="-7" font-family="Helvetica,sans-Serif" font-size="10.00">/SceneLoader.cpp</text>
</a>
</g>
</g>
<!-- Node12&#45;&gt;Node13 -->
<g id="edge14_Node000012_Node000013" class="edge">
<title>Node12&#45;&gt;Node13</title>
<g id="a_edge14_Node000012_Node000013"><a xlink:title=" ">
<path fill="none" stroke="#63b8ff" d="M1133.01,-64.81C1146.57,-53.59 1162.96,-40.02 1175.03,-30.04"/>
<polygon fill="#63b8ff" stroke="#63b8ff" points="1130.47,-62.36 1125,-71.44 1134.93,-67.76 1130.47,-62.36"/>
</a>
</g>
</g>
<!-- Node12&#45;&gt;Node14 -->
<g id="edge15_Node000012_Node000014" class="edge">
<title>Node12&#45;&gt;Node14</title>
<g id="a_edge15_Node000012_Node000014"><a xlink:title=" ">
<path fill="none" stroke="#63b8ff" d="M1090.13,-63.33C1079.59,-50.24 1066.82,-34.4 1059.06,-24.77"/>
<polygon fill="#63b8ff" stroke="#63b8ff" points="1087.67,-65.84 1096.67,-71.44 1093.12,-61.45 1087.67,-65.84"/>
</a>
</g>
</g>
<!-- Node15&#45;&gt;Node12 -->
<g id="edge26_Node000015_Node000012" class="edge">
<title>Node15&#45;&gt;Node12</title>
<g id="a_edge26_Node000015_Node000012"><a xlink:title=" ">
<path fill="none" stroke="#63b8ff" d="M919.35,-222.18C945.96,-212.93 977.2,-200.1 1003,-184 1040.81,-160.41 1077.36,-122.28 1095.73,-101.73"/>
<polygon fill="#63b8ff" stroke="#63b8ff" points="918.13,-218.9 909.78,-225.42 920.38,-225.53 918.13,-218.9"/>
</a>
</g>
</g>
<!-- Node16 -->
<g id="Node000016" class="node">
<title>Node16</title>
<g id="a_Node000016"><a xlink:href="PluginManager_8cpp.html" target="_top" xlink:title="Runtime plugin loader and initializer registry implementation.">
<polygon fill="white" stroke="#666666" points="994,-178.5 818,-178.5 818,-148.5 994,-148.5 994,-178.5"/>
<text text-anchor="start" x="826" y="-166.5" font-family="Helvetica,sans-Serif" font-size="10.00">src/SceneSystem/PluginManager</text>
<text text-anchor="middle" x="906" y="-155.5" font-family="Helvetica,sans-Serif" font-size="10.00">/PluginManager.cpp</text>
</a>
</g>
</g>
<!-- Node15&#45;&gt;Node16 -->
<g id="edge17_Node000015_Node000016" class="edge">
<title>Node15&#45;&gt;Node16</title>
<g id="a_edge17_Node000015_Node000016"><a xlink:title=" ">
<path fill="none" stroke="#63b8ff" d="M874.79,-216.51C882.23,-204.11 891.17,-189.21 897.57,-178.54"/>
<polygon fill="#63b8ff" stroke="#63b8ff" points="871.61,-215.02 869.46,-225.39 877.61,-218.62 871.61,-215.02"/>
</a>
</g>
</g>
<!-- Node15&#45;&gt;Node17 -->
<g id="edge18_Node000015_Node000017" class="edge">
<title>Node15&#45;&gt;Node17</title>
<g id="a_edge18_Node000015_Node000017"><a xlink:title=" ">
<path fill="none" stroke="#63b8ff" d="M828.41,-220.25C806.35,-207.23 777.71,-190.31 757.78,-178.54"/>
<polygon fill="#63b8ff" stroke="#63b8ff" points="826.72,-223.32 837.11,-225.39 830.28,-217.29 826.72,-223.32"/>
</a>
</g>
</g>
<!-- Node17&#45;&gt;Node6 -->
<g id="edge20_Node000017_Node000006" class="edge">
<title>Node17&#45;&gt;Node6</title>
<g id="a_edge20_Node000017_Node000006"><a xlink:title=" ">
<path fill="none" stroke="#63b8ff" d="M673.67,-146.05C668.72,-144.93 663.79,-143.9 659,-143 523.98,-117.66 487.51,-129.57 352,-107 349,-106.5 345.96,-105.97 342.88,-105.41"/>
<polygon fill="#63b8ff" stroke="#63b8ff" points="673.25,-149.55 683.79,-148.43 674.85,-142.73 673.25,-149.55"/>
</a>
</g>
</g>
<!-- Node17&#45;&gt;Node8 -->
<g id="edge22_Node000017_Node000008" class="edge">
<title>Node17&#45;&gt;Node8</title>
<g id="a_edge22_Node000017_Node000008"><a xlink:title=" ">
<path fill="none" stroke="#63b8ff" d="M670.58,-145.96C666.66,-144.96 662.78,-143.96 659,-143 609.8,-130.48 554.41,-116.7 511.15,-105.99"/>
<polygon fill="#63b8ff" stroke="#63b8ff" points="669.79,-149.37 680.35,-148.48 671.54,-142.59 669.79,-149.37"/>
</a>
</g>
</g>
<!-- Node17&#45;&gt;Node12 -->
<g id="edge24_Node000017_Node000012" class="edge">
<title>Node17&#45;&gt;Node12</title>
<g id="a_edge24_Node000017_Node000012"><a xlink:title=" ">
<path fill="none" stroke="#63b8ff" d="M795.73,-146.04C800.21,-144.97 804.67,-143.95 809,-143 898.09,-123.51 921.4,-123.99 1011,-107 1020.11,-105.27 1029.7,-103.41 1039.15,-101.54"/>
<polygon fill="#63b8ff" stroke="#63b8ff" points="794.8,-142.67 785.92,-148.44 796.47,-149.47 794.8,-142.67"/>
</a>
</g>
</g>
<!-- Node17&#45;&gt;Node14 -->
<g id="edge25_Node000017_Node000014" class="edge">
<title>Node17&#45;&gt;Node14</title>
<g id="a_edge25_Node000017_Node000014"><a xlink:title=" ">
<path fill="none" stroke="#63b8ff" d="M796.59,-146.01C800.78,-144.97 804.95,-143.96 809,-143 883.74,-125.33 912.49,-147.07 978,-107 995.63,-96.22 1031.83,-45.31 1046.07,-24.7"/>
<polygon fill="#63b8ff" stroke="#63b8ff" points="795.63,-142.64 786.78,-148.46 797.34,-149.43 795.63,-142.64"/>
</a>
</g>
</g>
<!-- Node18 -->
<g id="Node000018" class="node">
<title>Node18</title>
<g id="a_Node000018"><a xlink:href="BVHCam_8cpp.html" target="_top" xlink:title=" ">
<polygon fill="white" stroke="#666666" points="675,-107 529,-107 529,-66 675,-66 675,-107"/>
<text text-anchor="start" x="537" y="-95" font-family="Helvetica,sans-Serif" font-size="10.00">src/Objects/Plugins</text>
<text text-anchor="start" x="537" y="-84" font-family="Helvetica,sans-Serif" font-size="10.00">/BVHCamPlugin/Renderers</text>
<text text-anchor="middle" x="602" y="-73" font-family="Helvetica,sans-Serif" font-size="10.00">/BVHCam.cpp</text>
</a>
</g>
</g>
<!-- Node17&#45;&gt;Node18 -->
<g id="edge19_Node000017_Node000018" class="edge">
<title>Node17&#45;&gt;Node18</title>
<g id="a_edge19_Node000017_Node000018"><a xlink:title=" ">
<path fill="none" stroke="#63b8ff" d="M700.32,-143.37C680.83,-132.29 656.34,-118.38 636.68,-107.2"/>
<polygon fill="#63b8ff" stroke="#63b8ff" points="698.75,-146.5 709.17,-148.39 702.21,-140.41 698.75,-146.5"/>
</a>
</g>
</g>
<!-- Node19 -->
<g id="Node000019" class="node">
<title>Node19</title>
<g id="a_Node000019"><a xlink:href="Camera_8cpp.html" target="_top" xlink:title="Implementation of the RayTracer::BVHCam renderer.">
<polygon fill="white" stroke="#666666" points="818.5,-107 693.5,-107 693.5,-66 818.5,-66 818.5,-107"/>
<text text-anchor="start" x="701.5" y="-95" font-family="Helvetica,sans-Serif" font-size="10.00">src/Objects/Plugins</text>
<text text-anchor="start" x="701.5" y="-84" font-family="Helvetica,sans-Serif" font-size="10.00">/CorePlugin/Renderers</text>
<text text-anchor="middle" x="756" y="-73" font-family="Helvetica,sans-Serif" font-size="10.00">/Camera/Camera.cpp</text>
</a>
</g>
</g>
<!-- Node17&#45;&gt;Node19 -->
<g id="edge21_Node000017_Node000019" class="edge">
<title>Node17&#45;&gt;Node19</title>
<g id="a_edge21_Node000017_Node000019"><a xlink:title=" ">
<path fill="none" stroke="#63b8ff" d="M741.02,-138.55C743.99,-128.44 747.4,-116.81 750.22,-107.2"/>
<polygon fill="#63b8ff" stroke="#63b8ff" points="737.59,-137.81 738.14,-148.39 744.31,-139.78 737.59,-137.81"/>
</a>
</g>
</g>
<!-- Node20 -->
<g id="Node000020" class="node">
<title>Node20</title>
<g id="a_Node000020"><a xlink:href="Scene_8cpp.html" target="_top" xlink:title="Implementation of the RayTracer::Scene container and utilities.">
<polygon fill="white" stroke="#666666" points="969,-101.5 837,-101.5 837,-71.5 969,-71.5 969,-101.5"/>
<text text-anchor="start" x="845" y="-89.5" font-family="Helvetica,sans-Serif" font-size="10.00">src/SceneSystem/Scene</text>
<text text-anchor="middle" x="903" y="-78.5" font-family="Helvetica,sans-Serif" font-size="10.00">/Scene.cpp</text>
</a>
</g>
</g>
<!-- Node17&#45;&gt;Node20 -->
<g id="edge23_Node000017_Node000020" class="edge">
<title>Node17&#45;&gt;Node20</title>
<g id="a_edge23_Node000017_Node000020"><a xlink:title=" ">
<path fill="none" stroke="#63b8ff" d="M775.04,-144.29C804.68,-131.13 844.13,-113.62 871.35,-101.54"/>
<polygon fill="#63b8ff" stroke="#63b8ff" points="773.51,-141.14 765.79,-148.39 776.35,-147.54 773.51,-141.14"/>
</a>
</g>
</g>
<!-- Node21&#45;&gt;Node3 -->
<g id="edge29_Node000021_Node000003" class="edge">
<title>Node21&#45;&gt;Node3</title>
<g id="a_edge29_Node000021_Node000003"><a xlink:title=" ">
<path fill="none" stroke="#63b8ff" d="M162.61,-219.03C146.68,-206.18 126.55,-189.94 112.41,-178.54"/>
<polygon fill="#63b8ff" stroke="#63b8ff" points="160.53,-221.84 170.51,-225.39 164.92,-216.39 160.53,-221.84"/>
</a>
</g>
</g>
<!-- Node21&#45;&gt;Node4 -->
<g id="edge30_Node000021_Node000004" class="edge">
<title>Node21&#45;&gt;Node4</title>
<g id="a_edge30_Node000021_Node000004"><a xlink:title=" ">
<path fill="none" stroke="#63b8ff" d="M217.79,-219.73C237.31,-206.78 262.35,-190.15 279.84,-178.54"/>
<polygon fill="#63b8ff" stroke="#63b8ff" points="215.65,-216.95 209.25,-225.39 219.52,-222.78 215.65,-216.95"/>
</a>
</g>
</g>
</g>
</svg>
