<?xml version="1.0" encoding="UTF-8" standalone="no"?>
<!DOCTYPE svg PUBLIC "-//W3C//DTD SVG 1.1//EN"
 "http://www.w3.org/Graphics/SVG/1.1/DTD/svg11.dtd">
<!-- Generated by graphviz version 2.43.0 (0)
 -->
<!-- Title: src/SceneSystem/ConfigParser/Parser.hpp Pages: 1 -->
<svg width="1014pt" height="522pt"
 viewBox="0.00 0.00 1014.00 522.00" xmlns="http://www.w3.org/2000/svg" xmlns:xlink="http://www.w3.org/1999/xlink">
<g id="graph0" class="graph" transform="scale(1 1) rotate(0) translate(4 518)">
<title>src/SceneSystem/ConfigParser/Parser.hpp</title>
<!-- Node1 -->
<g id="Node000001" class="node">
<title>Node1</title>
<g id="a_Node000001"><a xlink:title=" ">
<polygon fill="#999999" stroke="#666666" points="291,-514 127,-514 127,-484 291,-484 291,-514"/>
<text text-anchor="start" x="135" y="-502" font-family="Helvetica,sans-Serif" font-size="10.00">src/SceneSystem/ConfigParser</text>
<text text-anchor="middle" x="209" y="-491" font-family="Helvetica,sans-Serif" font-size="10.00">/Parser.hpp</text>
</a>
</g>
</g>
<!-- Node2 -->
<g id="Node000002" class="node">
<title>Node2</title>
<g id="a_Node000002"><a xlink:title=" ">
<polygon fill="#e0e0e0" stroke="#999999" points="95.5,-448 12.5,-448 12.5,-429 95.5,-429 95.5,-448"/>
<text text-anchor="middle" x="54" y="-436" font-family="Helvetica,sans-Serif" font-size="10.00">libconfig.h++</text>
</a>
</g>
</g>
<!-- Node1&#45;&gt;Node2 -->
<g id="edge1_Node000001_Node000002" class="edge">
<title>Node1&#45;&gt;Node2</title>
<g id="a_edge1_Node000001_Node000002"><a xlink:title=" ">
<path fill="none" stroke="#63b8ff" d="M171.87,-483.99C145.78,-474.14 111.22,-461.1 86.27,-451.68"/>
<polygon fill="#63b8ff" stroke="#63b8ff" points="87.48,-448.4 76.89,-448.14 85.01,-454.94 87.48,-448.4"/>
</a>
</g>
</g>
<!-- Node3 -->
<g id="Node000003" class="node">
<title>Node3</title>
<g id="a_Node000003"><a xlink:title=" ">
<polygon fill="#e0e0e0" stroke="#999999" points="203.5,-387.5 152.5,-387.5 152.5,-368.5 203.5,-368.5 203.5,-387.5"/>
<text text-anchor="middle" x="178" y="-375.5" font-family="Helvetica,sans-Serif" font-size="10.00">variant</text>
</a>
</g>
</g>
<!-- Node1&#45;&gt;Node3 -->
<g id="edge2_Node000001_Node000003" class="edge">
<title>Node1&#45;&gt;Node3</title>
<g id="a_edge2_Node000001_Node000003"><a xlink:title=" ">
<path fill="none" stroke="#63b8ff" d="M205.32,-483.88C199.73,-462.41 189.08,-421.52 182.85,-397.64"/>
<polygon fill="#63b8ff" stroke="#63b8ff" points="186.18,-396.51 180.27,-387.71 179.4,-398.27 186.18,-396.51"/>
</a>
</g>
</g>
<!-- Node4 -->
<g id="Node000004" class="node">
<title>Node4</title>
<g id="a_Node000004"><a xlink:title=" ">
<polygon fill="#e0e0e0" stroke="#999999" points="260,-387.5 222,-387.5 222,-368.5 260,-368.5 260,-387.5"/>
<text text-anchor="middle" x="241" y="-375.5" font-family="Helvetica,sans-Serif" font-size="10.00">map</text>
</a>
</g>
</g>
<!-- Node1&#45;&gt;Node4 -->
<g id="edge3_Node000001_Node000004" class="edge">
<title>Node1&#45;&gt;Node4</title>
<g id="a_edge3_Node000001_Node000004"><a xlink:title=" ">
<path fill="none" stroke="#63b8ff" d="M212.8,-483.88C218.57,-462.41 229.56,-421.52 235.99,-397.64"/>
<polygon fill="#63b8ff" stroke="#63b8ff" points="239.44,-398.28 238.66,-387.71 232.68,-396.46 239.44,-398.28"/>
</a>
</g>
</g>
<!-- Node5 -->
<g id="Node000005" class="node">
<title>Node5</title>
<g id="a_Node000005"><a xlink:title=" ">
<polygon fill="#e0e0e0" stroke="#999999" points="850.5,-189.5 803.5,-189.5 803.5,-170.5 850.5,-170.5 850.5,-189.5"/>
<text text-anchor="middle" x="827" y="-177.5" font-family="Helvetica,sans-Serif" font-size="10.00">vector</text>
</a>
</g>
</g>
<!-- Node1&#45;&gt;Node5 -->
<g id="edge4_Node000001_Node000005" class="edge">
<title>Node1&#45;&gt;Node5</title>
<g id="a_edge4_Node000001_Node000005"><a xlink:title=" ">
<path fill="none" stroke="#63b8ff" d="M291.29,-494.25C494.92,-483.88 1006,-450.7 1006,-379 1006,-379 1006,-379 1006,-311 1006,-269.99 991.26,-257.56 960,-231 931.37,-206.67 889.73,-193.6 860.7,-186.99"/>
<polygon fill="#63b8ff" stroke="#63b8ff" points="861.13,-183.51 850.62,-184.84 859.67,-190.35 861.13,-183.51"/>
</a>
</g>
</g>
<!-- Node6 -->
<g id="Node000006" class="node">
<title>Node6</title>
<g id="a_Node000006"><a xlink:title=" ">
<polygon fill="#e0e0e0" stroke="#999999" points="366,-189.5 308,-189.5 308,-170.5 366,-170.5 366,-189.5"/>
<text text-anchor="middle" x="337" y="-177.5" font-family="Helvetica,sans-Serif" font-size="10.00">memory</text>
</a>
</g>
</g>
<!-- Node1&#45;&gt;Node6 -->
<g id="edge5_Node000001_Node000006" class="edge">
<title>Node1&#45;&gt;Node6</title>
<g id="a_edge5_Node000001_Node000006"><a xlink:title=" ">
<path fill="none" stroke="#63b8ff" d="M193.35,-484C168.17,-459.69 123.38,-407.95 143,-363 169.67,-301.89 204.41,-306.66 253,-261 276.46,-238.96 303.37,-213.25 320.28,-197.05"/>
<polygon fill="#63b8ff" stroke="#63b8ff" points="322.92,-199.37 327.72,-189.92 318.08,-194.31 322.92,-199.37"/>
</a>
</g>
</g>
<!-- Node7 -->
<g id="Node000007" class="node">
<title>Node7</title>
<g id="a_Node000007"><a xlink:href="Plugin_8hpp.html" target="_top" xlink:title=" ">
<polygon fill="white" stroke="#666666" points="522.5,-448 397.5,-448 397.5,-429 522.5,-429 522.5,-448"/>
<text text-anchor="middle" x="460" y="-436" font-family="Helvetica,sans-Serif" font-size="10.00">../../Objects/Plugin.hpp</text>
</a>
</g>
</g>
<!-- Node1&#45;&gt;Node7 -->
<g id="edge6_Node000001_Node000007" class="edge">
<title>Node1&#45;&gt;Node7</title>
<g id="a_edge6_Node000001_Node000007"><a xlink:title=" ">
<path fill="none" stroke="#63b8ff" d="M269.12,-483.99C313.38,-473.67 372.68,-459.85 413.37,-450.37"/>
<polygon fill="#63b8ff" stroke="#63b8ff" points="414.36,-453.73 423.3,-448.05 412.77,-446.91 414.36,-453.73"/>
</a>
</g>
</g>
<!-- Node7&#45;&gt;Node3 -->
<g id="edge9_Node000007_Node000003" class="edge">
<title>Node7&#45;&gt;Node3</title>
<g id="a_edge9_Node000007_Node000003"><a xlink:title=" ">
<path fill="none" stroke="#63b8ff" d="M397.28,-429.77C346.87,-422.71 274.57,-410.66 213,-393 211.07,-392.45 209.09,-391.82 207.11,-391.15"/>
<polygon fill="#63b8ff" stroke="#63b8ff" points="207.97,-387.74 197.38,-387.56 205.55,-394.31 207.97,-387.74"/>
</a>
</g>
</g>
<!-- Node7&#45;&gt;Node4 -->
<g id="edge10_Node000007_Node000004" class="edge">
<title>Node7&#45;&gt;Node4</title>
<g id="a_edge10_Node000007_Node000004"><a xlink:title=" ">
<path fill="none" stroke="#63b8ff" d="M408.8,-428.96C369.79,-421.64 315.12,-409.64 269,-393 267.95,-392.62 266.89,-392.21 265.83,-391.79"/>
<polygon fill="#63b8ff" stroke="#63b8ff" points="266.96,-388.46 256.41,-387.51 264.07,-394.83 266.96,-388.46"/>
</a>
</g>
</g>
<!-- Node7&#45;&gt;Node6 -->
<g id="edge8_Node000007_Node000006" class="edge">
<title>Node7&#45;&gt;Node6</title>
<g id="a_edge8_Node000007_Node000006"><a xlink:title=" ">
<path fill="none" stroke="#63b8ff" d="M456.92,-428.77C448.93,-406.44 426.54,-345.56 403,-297 385.48,-260.86 361.43,-220.47 347.72,-198.16"/>
<polygon fill="#63b8ff" stroke="#63b8ff" points="350.61,-196.18 342.37,-189.52 344.65,-199.87 350.61,-196.18"/>
</a>
</g>
</g>
<!-- Node8 -->
<g id="Node000008" class="node">
<title>Node8</title>
<g id="a_Node000008"><a xlink:title=" ">
<polygon fill="#e0e0e0" stroke="#999999" points="813.5,-387.5 748.5,-387.5 748.5,-368.5 813.5,-368.5 813.5,-387.5"/>
<text text-anchor="middle" x="781" y="-375.5" font-family="Helvetica,sans-Serif" font-size="10.00">functional</text>
</a>
</g>
</g>
<!-- Node7&#45;&gt;Node8 -->
<g id="edge7_Node000007_Node000008" class="edge">
<title>Node7&#45;&gt;Node8</title>
<g id="a_edge7_Node000007_Node000008"><a xlink:title=" ">
<path fill="none" stroke="#63b8ff" d="M522.74,-429.65C578.57,-422.11 662.25,-409.44 734,-393 737.42,-392.22 740.96,-391.32 744.49,-390.37"/>
<polygon fill="#63b8ff" stroke="#63b8ff" points="745.64,-393.68 754.31,-387.6 743.74,-386.95 745.64,-393.68"/>
</a>
</g>
</g>
<!-- Node9 -->
<g id="Node000009" class="node">
<title>Node9</title>
<g id="a_Node000009"><a xlink:href="ParsingException_8hpp.html" target="_top" xlink:title=" ">
<polygon fill="white" stroke="#666666" points="691.5,-393 526.5,-393 526.5,-363 691.5,-363 691.5,-393"/>
<text text-anchor="start" x="534.5" y="-381" font-family="Helvetica,sans-Serif" font-size="10.00">../Exceptions/ParsingException</text>
<text text-anchor="middle" x="609" y="-370" font-family="Helvetica,sans-Serif" font-size="10.00">/ParsingException.hpp</text>
</a>
</g>
</g>
<!-- Node7&#45;&gt;Node9 -->
<g id="edge11_Node000007_Node000009" class="edge">
<title>Node7&#45;&gt;Node9</title>
<g id="a_edge11_Node000007_Node000009"><a xlink:title=" ">
<path fill="none" stroke="#63b8ff" d="M481.67,-428.99C503.11,-420.57 536.58,-407.43 563.83,-396.73"/>
<polygon fill="#63b8ff" stroke="#63b8ff" points="565.15,-399.98 573.18,-393.06 562.59,-393.46 565.15,-399.98"/>
</a>
</g>
</g>
<!-- Node15 -->
<g id="Node000015" class="node">
<title>Node15</title>
<g id="a_Node000015"><a xlink:href="AInterface_8hpp.html" target="_top" xlink:title=" ">
<polygon fill="white" stroke="#666666" points="951,-393 835,-393 835,-363 951,-363 951,-393"/>
<text text-anchor="start" x="843" y="-381" font-family="Helvetica,sans-Serif" font-size="10.00">Abstracts/AInterface</text>
<text text-anchor="middle" x="893" y="-370" font-family="Helvetica,sans-Serif" font-size="10.00">/AInterface.hpp</text>
</a>
</g>
</g>
<!-- Node7&#45;&gt;Node15 -->
<g id="edge17_Node000007_Node000015" class="edge">
<title>Node7&#45;&gt;Node15</title>
<g id="a_edge17_Node000007_Node000015"><a xlink:title=" ">
<path fill="none" stroke="#63b8ff" d="M522.51,-431.29C595,-423.74 718,-409.91 823,-393 823.47,-392.92 823.95,-392.85 824.43,-392.77"/>
<polygon fill="#63b8ff" stroke="#63b8ff" points="825.36,-396.16 834.62,-391.02 824.17,-389.26 825.36,-396.16"/>
</a>
</g>
</g>
<!-- Node16 -->
<g id="Node000016" class="node">
<title>Node16</title>
<g id="a_Node000016"><a xlink:href="ARenderer_8hpp.html" target="_top" xlink:title=" ">
<polygon fill="white" stroke="#666666" points="970.5,-321.5 819.5,-321.5 819.5,-302.5 970.5,-302.5 970.5,-321.5"/>
<text text-anchor="middle" x="895" y="-309.5" font-family="Helvetica,sans-Serif" font-size="10.00">../ARenderer/ARenderer.hpp</text>
</a>
</g>
</g>
<!-- Node7&#45;&gt;Node16 -->
<g id="edge46_Node000007_Node000016" class="edge">
<title>Node7&#45;&gt;Node16</title>
<g id="a_edge46_Node000007_Node000016"><a xlink:title=" ">
<path fill="none" stroke="#63b8ff" d="M522.54,-434.04C572.64,-429.39 643.77,-418.5 701,-393 720.98,-384.1 720.64,-373.17 740,-363 773.76,-345.26 814.98,-332.33 846.43,-324.07"/>
<polygon fill="#63b8ff" stroke="#63b8ff" points="847.45,-327.42 856.27,-321.55 845.72,-320.64 847.45,-327.42"/>
</a>
</g>
</g>
<!-- Node19 -->
<g id="Node000019" class="node">
<title>Node19</title>
<g id="a_Node000019"><a xlink:href="APrimitive_8hpp.html" target="_top" xlink:title=" ">
<polygon fill="white" stroke="#666666" points="394,-393 278,-393 278,-363 394,-363 394,-393"/>
<text text-anchor="start" x="286" y="-381" font-family="Helvetica,sans-Serif" font-size="10.00">Abstracts/APrimitive</text>
<text text-anchor="middle" x="336" y="-370" font-family="Helvetica,sans-Serif" font-size="10.00">/APrimitive.hpp</text>
</a>
</g>
</g>
<!-- Node7&#45;&gt;Node19 -->
<g id="edge22_Node000007_Node000019" class="edge">
<title>Node7&#45;&gt;Node19</title>
<g id="a_edge22_Node000007_Node000019"><a xlink:title=" ">
<path fill="none" stroke="#63b8ff" d="M441.97,-428.99C424.57,-420.79 397.66,-408.09 375.31,-397.55"/>
<polygon fill="#63b8ff" stroke="#63b8ff" points="376.59,-394.28 366.05,-393.18 373.6,-400.61 376.59,-394.28"/>
</a>
</g>
</g>
<!-- Node20 -->
<g id="Node000020" class="node">
<title>Node20</title>
<g id="a_Node000020"><a xlink:href="IMaterial_8hpp.html" target="_top" xlink:title=" ">
<polygon fill="white" stroke="#666666" points="578,-321.5 488,-321.5 488,-302.5 578,-302.5 578,-321.5"/>
<text text-anchor="middle" x="533" y="-309.5" font-family="Helvetica,sans-Serif" font-size="10.00">../IMaterial.hpp</text>
</a>
</g>
</g>
<!-- Node7&#45;&gt;Node20 -->
<g id="edge48_Node000007_Node000020" class="edge">
<title>Node7&#45;&gt;Node20</title>
<g id="a_edge48_Node000007_Node000020"><a xlink:title=" ">
<path fill="none" stroke="#63b8ff" d="M465.02,-428.94C476.89,-408.69 506.92,-357.47 522.8,-330.4"/>
<polygon fill="#63b8ff" stroke="#63b8ff" points="525.91,-332.01 527.95,-321.62 519.87,-328.47 525.91,-332.01"/>
</a>
</g>
</g>
<!-- Node21 -->
<g id="Node000021" class="node">
<title>Node21</title>
<g id="a_Node000021"><a xlink:href="ILight_8hpp.html" target="_top" xlink:title=" ">
<polygon fill="white" stroke="#666666" points="490.5,-255.5 425.5,-255.5 425.5,-236.5 490.5,-236.5 490.5,-255.5"/>
<text text-anchor="middle" x="458" y="-243.5" font-family="Helvetica,sans-Serif" font-size="10.00">ILight.hpp</text>
</a>
</g>
</g>
<!-- Node7&#45;&gt;Node21 -->
<g id="edge47_Node000007_Node000021" class="edge">
<title>Node7&#45;&gt;Node21</title>
<g id="a_edge47_Node000007_Node000021"><a xlink:title=" ">
<path fill="none" stroke="#63b8ff" d="M459.91,-428.82C459.6,-399.87 458.62,-306.2 458.2,-265.82"/>
<polygon fill="#63b8ff" stroke="#63b8ff" points="461.7,-265.69 458.09,-255.73 454.7,-265.77 461.7,-265.69"/>
</a>
</g>
</g>
<!-- Node10 -->
<g id="Node000010" class="node">
<title>Node10</title>
<g id="a_Node000010"><a xlink:href="RaytracerException_8hpp.html" target="_top" xlink:title=" ">
<polygon fill="white" stroke="#666666" points="762,-327 626,-327 626,-297 762,-297 762,-327"/>
<text text-anchor="start" x="634" y="-315" font-family="Helvetica,sans-Serif" font-size="10.00">../RaytracerException</text>
<text text-anchor="middle" x="694" y="-304" font-family="Helvetica,sans-Serif" font-size="10.00">/RaytracerException.hpp</text>
</a>
</g>
</g>
<!-- Node9&#45;&gt;Node10 -->
<g id="edge12_Node000009_Node000010" class="edge">
<title>Node9&#45;&gt;Node10</title>
<g id="a_edge12_Node000009_Node000010"><a xlink:title=" ">
<path fill="none" stroke="#63b8ff" d="M627.86,-362.8C639.42,-354.1 654.39,-342.82 667.17,-333.2"/>
<polygon fill="#63b8ff" stroke="#63b8ff" points="669.31,-335.98 675.19,-327.16 665.09,-330.38 669.31,-335.98"/>
</a>
</g>
</g>
<!-- Node11 -->
<g id="Node000011" class="node">
<title>Node11</title>
<g id="a_Node000011"><a xlink:title=" ">
<polygon fill="#e0e0e0" stroke="#999999" points="823.5,-255.5 758.5,-255.5 758.5,-236.5 823.5,-236.5 823.5,-255.5"/>
<text text-anchor="middle" x="791" y="-243.5" font-family="Helvetica,sans-Serif" font-size="10.00">exception</text>
</a>
</g>
</g>
<!-- Node10&#45;&gt;Node11 -->
<g id="edge13_Node000010_Node000011" class="edge">
<title>Node10&#45;&gt;Node11</title>
<g id="a_edge13_Node000010_Node000011"><a xlink:title=" ">
<path fill="none" stroke="#63b8ff" d="M715.53,-296.8C731.48,-286.27 753.15,-271.97 769.18,-261.4"/>
<polygon fill="#63b8ff" stroke="#63b8ff" points="771.46,-264.09 777.88,-255.66 767.6,-258.24 771.46,-264.09"/>
</a>
</g>
</g>
<!-- Node12 -->
<g id="Node000012" class="node">
<title>Node12</title>
<g id="a_Node000012"><a xlink:title=" ">
<polygon fill="#e0e0e0" stroke="#999999" points="902,-255.5 842,-255.5 842,-236.5 902,-236.5 902,-255.5"/>
<text text-anchor="middle" x="872" y="-243.5" font-family="Helvetica,sans-Serif" font-size="10.00">iostream</text>
</a>
</g>
</g>
<!-- Node10&#45;&gt;Node12 -->
<g id="edge14_Node000010_Node000012" class="edge">
<title>Node10&#45;&gt;Node12</title>
<g id="a_edge14_Node000010_Node000012"><a xlink:title=" ">
<path fill="none" stroke="#63b8ff" d="M733.06,-296.95C764.69,-285.58 808.76,-269.74 838.73,-258.96"/>
<polygon fill="#63b8ff" stroke="#63b8ff" points="840.09,-262.19 848.31,-255.52 837.72,-255.61 840.09,-262.19"/>
</a>
</g>
</g>
<!-- Node13 -->
<g id="Node000013" class="node">
<title>Node13</title>
<g id="a_Node000013"><a xlink:title=" ">
<polygon fill="#e0e0e0" stroke="#999999" points="629,-255.5 585,-255.5 585,-236.5 629,-236.5 629,-255.5"/>
<text text-anchor="middle" x="607" y="-243.5" font-family="Helvetica,sans-Serif" font-size="10.00">string</text>
</a>
</g>
</g>
<!-- Node10&#45;&gt;Node13 -->
<g id="edge15_Node000010_Node000013" class="edge">
<title>Node10&#45;&gt;Node13</title>
<g id="a_edge15_Node000010_Node000013"><a xlink:title=" ">
<path fill="none" stroke="#63b8ff" d="M674.69,-296.8C660.51,-286.37 641.31,-272.24 626.98,-261.69"/>
<polygon fill="#63b8ff" stroke="#63b8ff" points="628.9,-258.76 618.77,-255.66 624.75,-264.4 628.9,-258.76"/>
</a>
</g>
</g>
<!-- Node14 -->
<g id="Node000014" class="node">
<title>Node14</title>
<g id="a_Node000014"><a xlink:title=" ">
<polygon fill="#e0e0e0" stroke="#999999" points="740.5,-255.5 647.5,-255.5 647.5,-236.5 740.5,-236.5 740.5,-255.5"/>
<text text-anchor="middle" x="694" y="-243.5" font-family="Helvetica,sans-Serif" font-size="10.00">source_location</text>
</a>
</g>
</g>
<!-- Node10&#45;&gt;Node14 -->
<g id="edge16_Node000010_Node000014" class="edge">
<title>Node10&#45;&gt;Node14</title>
<g id="a_edge16_Node000010_Node000014"><a xlink:title=" ">
<path fill="none" stroke="#63b8ff" d="M694,-296.8C694,-287.7 694,-275.79 694,-265.9"/>
<polygon fill="#63b8ff" stroke="#63b8ff" points="697.5,-265.84 694,-255.84 690.5,-265.84 697.5,-265.84"/>
</a>
</g>
</g>
<!-- Node15&#45;&gt;Node16 -->
<g id="edge18_Node000015_Node000016" class="edge">
<title>Node15&#45;&gt;Node16</title>
<g id="a_edge18_Node000015_Node000016"><a xlink:title=" ">
<path fill="none" stroke="#63b8ff" d="M893.44,-362.8C893.73,-353.7 894.1,-341.79 894.41,-331.9"/>
<polygon fill="#63b8ff" stroke="#63b8ff" points="897.91,-331.95 894.72,-321.84 890.91,-331.73 897.91,-331.95"/>
</a>
</g>
</g>
<!-- Node16&#45;&gt;Node5 -->
<g id="edge21_Node000016_Node000005" class="edge">
<title>Node16&#45;&gt;Node5</title>
<g id="a_edge21_Node000016_Node000005"><a xlink:title=" ">
<path fill="none" stroke="#63b8ff" d="M907.11,-302.47C926.54,-287.72 960.87,-256.55 944,-231 925.66,-203.21 888.35,-190.81 860.77,-185.31"/>
<polygon fill="#63b8ff" stroke="#63b8ff" points="861.19,-181.83 850.74,-183.53 859.97,-188.73 861.19,-181.83"/>
</a>
</g>
</g>
<!-- Node17 -->
<g id="Node000017" class="node">
<title>Node17</title>
<g id="a_Node000017"><a xlink:href="Color_8hpp.html" target="_top" xlink:title=" ">
<polygon fill="white" stroke="#666666" points="651.5,-189.5 536.5,-189.5 536.5,-170.5 651.5,-170.5 651.5,-189.5"/>
<text text-anchor="middle" x="594" y="-177.5" font-family="Helvetica,sans-Serif" font-size="10.00">../../../Utils/Color.hpp</text>
</a>
</g>
</g>
<!-- Node16&#45;&gt;Node17 -->
<g id="edge19_Node000016_Node000017" class="edge">
<title>Node16&#45;&gt;Node17</title>
<g id="a_edge19_Node000016_Node000017"><a xlink:title=" ">
<path fill="none" stroke="#63b8ff" d="M900.81,-302.38C910.83,-286.34 928.67,-251.67 911,-231 895.01,-212.28 749.98,-195.58 661.73,-187.03"/>
<polygon fill="#63b8ff" stroke="#63b8ff" points="661.81,-183.52 651.52,-186.05 661.14,-190.49 661.81,-183.52"/>
</a>
</g>
</g>
<!-- Node18 -->
<g id="Node000018" class="node">
<title>Node18</title>
<g id="a_Node000018"><a xlink:title=" ">
<polygon fill="#e0e0e0" stroke="#999999" points="555,-129 491,-129 491,-110 555,-110 555,-129"/>
<text text-anchor="middle" x="523" y="-117" font-family="Helvetica,sans-Serif" font-size="10.00">algorithm</text>
</a>
</g>
</g>
<!-- Node17&#45;&gt;Node18 -->
<g id="edge20_Node000017_Node000018" class="edge">
<title>Node17&#45;&gt;Node18</title>
<g id="a_edge20_Node000017_Node000018"><a xlink:title=" ">
<path fill="none" stroke="#63b8ff" d="M583.52,-170.37C572.51,-161.3 554.96,-146.84 541.59,-135.82"/>
<polygon fill="#63b8ff" stroke="#63b8ff" points="543.46,-132.83 533.52,-129.17 539.01,-138.23 543.46,-132.83"/>
</a>
</g>
</g>
<!-- Node19&#45;&gt;Node6 -->
<g id="edge35_Node000019_Node000006" class="edge">
<title>Node19&#45;&gt;Node6</title>
<g id="a_edge35_Node000019_Node000006"><a xlink:title=" ">
<path fill="none" stroke="#63b8ff" d="M333.45,-362.61C331.81,-352.65 329.84,-339.07 329,-327 325.82,-281.35 331.08,-227.61 334.48,-199.79"/>
<polygon fill="#63b8ff" stroke="#63b8ff" points="337.99,-199.93 335.79,-189.56 331.05,-199.04 337.99,-199.93"/>
</a>
</g>
</g>
<!-- Node19&#45;&gt;Node20 -->
<g id="edge23_Node000019_Node000020" class="edge">
<title>Node19&#45;&gt;Node20</title>
<g id="a_edge23_Node000019_Node000020"><a xlink:title=" ">
<path fill="none" stroke="#63b8ff" d="M379.23,-362.95C414.54,-351.48 463.86,-335.46 497.04,-324.68"/>
<polygon fill="#63b8ff" stroke="#63b8ff" points="498.35,-327.94 506.78,-321.52 496.19,-321.28 498.35,-327.94"/>
</a>
</g>
</g>
<!-- Node26 -->
<g id="Node000026" class="node">
<title>Node26</title>
<g id="a_Node000026"><a xlink:title=" ">
<polygon fill="#e0e0e0" stroke="#999999" points="394,-321.5 338,-321.5 338,-302.5 394,-302.5 394,-321.5"/>
<text text-anchor="middle" x="366" y="-309.5" font-family="Helvetica,sans-Serif" font-size="10.00">optional</text>
</a>
</g>
</g>
<!-- Node19&#45;&gt;Node26 -->
<g id="edge36_Node000019_Node000026" class="edge">
<title>Node19&#45;&gt;Node26</title>
<g id="a_edge36_Node000019_Node000026"><a xlink:title=" ">
<path fill="none" stroke="#63b8ff" d="M342.66,-362.8C347.06,-353.41 352.87,-341.02 357.59,-330.95"/>
<polygon fill="#63b8ff" stroke="#63b8ff" points="360.78,-332.38 361.85,-321.84 354.44,-329.41 360.78,-332.38"/>
</a>
</g>
</g>
<!-- Node27 -->
<g id="Node000027" class="node">
<title>Node27</title>
<g id="a_Node000027"><a xlink:href="AABB_8hpp.html" target="_top" xlink:title=" ">
<polygon fill="white" stroke="#666666" points="244,-261 122,-261 122,-231 244,-231 244,-261"/>
<text text-anchor="start" x="130" y="-249" font-family="Helvetica,sans-Serif" font-size="10.00">../../../Geometry/AABB</text>
<text text-anchor="middle" x="183" y="-238" font-family="Helvetica,sans-Serif" font-size="10.00">/AABB.hpp</text>
</a>
</g>
</g>
<!-- Node19&#45;&gt;Node27 -->
<g id="edge37_Node000019_Node000027" class="edge">
<title>Node19&#45;&gt;Node27</title>
<g id="a_edge37_Node000019_Node000027"><a xlink:title=" ">
<path fill="none" stroke="#63b8ff" d="M319.34,-362.84C292.32,-339.88 238.83,-294.44 207.48,-267.8"/>
<polygon fill="#63b8ff" stroke="#63b8ff" points="209.53,-264.95 199.64,-261.14 205,-270.28 209.53,-264.95"/>
</a>
</g>
</g>
<!-- Node30 -->
<g id="Node000030" class="node">
<title>Node30</title>
<g id="a_Node000030"><a xlink:href="Ray_8hpp.html" target="_top" xlink:title=" ">
<polygon fill="white" stroke="#666666" points="86,-189.5 0,-189.5 0,-170.5 86,-170.5 86,-189.5"/>
<text text-anchor="middle" x="43" y="-177.5" font-family="Helvetica,sans-Serif" font-size="10.00">../Ray/Ray.hpp</text>
</a>
</g>
</g>
<!-- Node19&#45;&gt;Node30 -->
<g id="edge45_Node000019_Node000030" class="edge">
<title>Node19&#45;&gt;Node30</title>
<g id="a_edge45_Node000019_Node000030"><a xlink:title=" ">
<path fill="none" stroke="#63b8ff" d="M299.2,-362.87C252.87,-344 172.2,-307.5 113,-261 89.61,-242.63 67.93,-215.68 55.07,-198.24"/>
<polygon fill="#63b8ff" stroke="#63b8ff" points="57.57,-195.71 48.89,-189.64 51.89,-199.8 57.57,-195.71"/>
</a>
</g>
</g>
<!-- Node20&#45;&gt;Node5 -->
<g id="edge34_Node000020_Node000005" class="edge">
<title>Node20&#45;&gt;Node5</title>
<g id="a_edge34_Node000020_Node000005"><a xlink:title=" ">
<path fill="none" stroke="#63b8ff" d="M535.02,-302.4C539.4,-285.76 551.41,-249.2 576,-231 610.11,-205.75 733.08,-190.34 793.3,-184.15"/>
<polygon fill="#63b8ff" stroke="#63b8ff" points="793.83,-187.61 803.43,-183.13 793.13,-180.65 793.83,-187.61"/>
</a>
</g>
</g>
<!-- Node20&#45;&gt;Node17 -->
<g id="edge24_Node000020_Node000017" class="edge">
<title>Node20&#45;&gt;Node17</title>
<g id="a_edge24_Node000020_Node000017"><a xlink:title=" ">
<path fill="none" stroke="#63b8ff" d="M532.27,-302.06C531.4,-286.67 531.32,-254.58 543,-231 549.86,-217.15 562.13,-204.93 572.92,-196.04"/>
<polygon fill="#63b8ff" stroke="#63b8ff" points="575.38,-198.56 581.12,-189.65 571.08,-193.03 575.38,-198.56"/>
</a>
</g>
</g>
<!-- Node20&#45;&gt;Node21 -->
<g id="edge25_Node000020_Node000021" class="edge">
<title>Node20&#45;&gt;Node21</title>
<g id="a_edge25_Node000020_Node000021"><a xlink:title=" ">
<path fill="none" stroke="#63b8ff" d="M522.89,-302.37C510.99,-292.21 491,-275.16 476.35,-262.65"/>
<polygon fill="#63b8ff" stroke="#63b8ff" points="478.31,-259.73 468.44,-255.91 473.77,-265.06 478.31,-259.73"/>
</a>
</g>
</g>
<!-- Node21&#45;&gt;Node5 -->
<g id="edge32_Node000021_Node000005" class="edge">
<title>Node21&#45;&gt;Node5</title>
<g id="a_edge32_Node000021_Node000005"><a xlink:title=" ">
<path fill="none" stroke="#63b8ff" d="M490.75,-239.32C560.37,-227.24 722.51,-199.12 793.12,-186.88"/>
<polygon fill="#63b8ff" stroke="#63b8ff" points="793.99,-190.28 803.25,-185.12 792.8,-183.38 793.99,-190.28"/>
</a>
</g>
</g>
<!-- Node21&#45;&gt;Node6 -->
<g id="edge33_Node000021_Node000006" class="edge">
<title>Node21&#45;&gt;Node6</title>
<g id="a_edge33_Node000021_Node000006"><a xlink:title=" ">
<path fill="none" stroke="#63b8ff" d="M441.68,-236.37C421.29,-225.59 386.19,-207.02 362.3,-194.38"/>
<polygon fill="#63b8ff" stroke="#63b8ff" points="363.92,-191.28 353.45,-189.7 360.65,-197.47 363.92,-191.28"/>
</a>
</g>
</g>
<!-- Node21&#45;&gt;Node17 -->
<g id="edge31_Node000021_Node000017" class="edge">
<title>Node21&#45;&gt;Node17</title>
<g id="a_edge31_Node000021_Node000017"><a xlink:title=" ">
<path fill="none" stroke="#63b8ff" d="M476.34,-236.37C499.46,-225.49 539.41,-206.69 566.27,-194.05"/>
<polygon fill="#63b8ff" stroke="#63b8ff" points="567.96,-197.12 575.51,-189.7 564.98,-190.79 567.96,-197.12"/>
</a>
</g>
</g>
<!-- Node22 -->
<g id="Node000022" class="node">
<title>Node22</title>
<g id="a_Node000022"><a xlink:href="HitRecord_8hpp.html" target="_top" xlink:title=" ">
<polygon fill="white" stroke="#666666" points="518,-195 384,-195 384,-165 518,-165 518,-195"/>
<text text-anchor="start" x="392" y="-183" font-family="Helvetica,sans-Serif" font-size="10.00">../../Geometry/HitRecord</text>
<text text-anchor="middle" x="451" y="-172" font-family="Helvetica,sans-Serif" font-size="10.00">/HitRecord.hpp</text>
</a>
</g>
</g>
<!-- Node21&#45;&gt;Node22 -->
<g id="edge26_Node000021_Node000022" class="edge">
<title>Node21&#45;&gt;Node22</title>
<g id="a_edge26_Node000021_Node000022"><a xlink:title=" ">
<path fill="none" stroke="#63b8ff" d="M457.06,-236.37C456.19,-228.49 454.88,-216.45 453.69,-205.6"/>
<polygon fill="#63b8ff" stroke="#63b8ff" points="457.14,-204.92 452.57,-195.36 450.18,-205.68 457.14,-204.92"/>
</a>
</g>
</g>
<!-- Node23 -->
<g id="Node000023" class="node">
<title>Node23</title>
<g id="a_Node000023"><a xlink:href="Point3D_8hpp.html" target="_top" xlink:title=" ">
<polygon fill="white" stroke="#666666" points="305,-129 179,-129 179,-110 305,-110 305,-129"/>
<text text-anchor="middle" x="242" y="-117" font-family="Helvetica,sans-Serif" font-size="10.00">../Point3D/Point3D.hpp</text>
</a>
</g>
</g>
<!-- Node22&#45;&gt;Node23 -->
<g id="edge27_Node000022_Node000023" class="edge">
<title>Node22&#45;&gt;Node23</title>
<g id="a_edge27_Node000022_Node000023"><a xlink:title=" ">
<path fill="none" stroke="#63b8ff" d="M400.94,-164.99C364.71,-154.85 316.38,-141.32 282.56,-131.85"/>
<polygon fill="#63b8ff" stroke="#63b8ff" points="283.13,-128.38 272.56,-129.05 281.25,-135.12 283.13,-128.38"/>
</a>
</g>
</g>
<!-- Node24 -->
<g id="Node000024" class="node">
<title>Node24</title>
<g id="a_Node000024"><a xlink:href="Vector3D_8hpp.html" target="_top" xlink:title=" ">
<polygon fill="white" stroke="#666666" points="311,-74 173,-74 173,-55 311,-55 311,-74"/>
<text text-anchor="middle" x="242" y="-62" font-family="Helvetica,sans-Serif" font-size="10.00">../Vector3D/Vector3D.hpp</text>
</a>
</g>
</g>
<!-- Node22&#45;&gt;Node24 -->
<g id="edge30_Node000022_Node000024" class="edge">
<title>Node22&#45;&gt;Node24</title>
<g id="a_edge30_Node000022_Node000024"><a xlink:title=" ">
<path fill="none" stroke="#63b8ff" d="M424.95,-164.85C384.33,-142.79 306.43,-100.49 266.67,-78.9"/>
<polygon fill="#63b8ff" stroke="#63b8ff" points="268.34,-75.82 257.88,-74.12 265,-81.97 268.34,-75.82"/>
</a>
</g>
</g>
<!-- Node23&#45;&gt;Node24 -->
<g id="edge28_Node000023_Node000024" class="edge">
<title>Node23&#45;&gt;Node24</title>
<g id="a_edge28_Node000023_Node000024"><a xlink:title=" ">
<path fill="none" stroke="#63b8ff" d="M242,-109.75C242,-102.8 242,-92.85 242,-84.13"/>
<polygon fill="#63b8ff" stroke="#63b8ff" points="245.5,-84.09 242,-74.09 238.5,-84.09 245.5,-84.09"/>
</a>
</g>
</g>
<!-- Node25 -->
<g id="Node000025" class="node">
<title>Node25</title>
<g id="a_Node000025"><a xlink:title=" ">
<polygon fill="#e0e0e0" stroke="#999999" points="267.5,-19 216.5,-19 216.5,0 267.5,0 267.5,-19"/>
<text text-anchor="middle" x="242" y="-7" font-family="Helvetica,sans-Serif" font-size="10.00">math.h</text>
</a>
</g>
</g>
<!-- Node24&#45;&gt;Node25 -->
<g id="edge29_Node000024_Node000025" class="edge">
<title>Node24&#45;&gt;Node25</title>
<g id="a_edge29_Node000024_Node000025"><a xlink:title=" ">
<path fill="none" stroke="#63b8ff" d="M242,-54.75C242,-47.8 242,-37.85 242,-29.13"/>
<polygon fill="#63b8ff" stroke="#63b8ff" points="245.5,-29.09 242,-19.09 238.5,-29.09 245.5,-29.09"/>
</a>
</g>
</g>
<!-- Node27&#45;&gt;Node18 -->
<g id="edge38_Node000027_Node000018" class="edge">
<title>Node27&#45;&gt;Node18</title>
<g id="a_edge38_Node000027_Node000018"><a xlink:title=" ">
<path fill="none" stroke="#63b8ff" d="M199.01,-230.74C220.29,-212.58 259.79,-181.57 299,-165 359.1,-139.6 434.49,-128.47 480.68,-123.75"/>
<polygon fill="#63b8ff" stroke="#63b8ff" points="481.02,-127.24 490.64,-122.79 480.35,-120.27 481.02,-127.24"/>
</a>
</g>
</g>
<!-- Node27&#45;&gt;Node23 -->
<g id="edge41_Node000027_Node000023" class="edge">
<title>Node27&#45;&gt;Node23</title>
<g id="a_edge41_Node000027_Node000023"><a xlink:title=" ">
<path fill="none" stroke="#63b8ff" d="M197.07,-230.84C205.71,-221.41 216.36,-208.33 223,-195 231.91,-177.12 236.9,-154.68 239.5,-139.13"/>
<polygon fill="#63b8ff" stroke="#63b8ff" points="242.97,-139.59 241,-129.18 236.05,-138.55 242.97,-139.59"/>
</a>
</g>
</g>
<!-- Node28 -->
<g id="Node000028" class="node">
<title>Node28</title>
<g id="a_Node000028"><a xlink:title=" ">
<polygon fill="#e0e0e0" stroke="#999999" points="151.5,-189.5 104.5,-189.5 104.5,-170.5 151.5,-170.5 151.5,-189.5"/>
<text text-anchor="middle" x="128" y="-177.5" font-family="Helvetica,sans-Serif" font-size="10.00">cmath</text>
</a>
</g>
</g>
<!-- Node27&#45;&gt;Node28 -->
<g id="edge39_Node000027_Node000028" class="edge">
<title>Node27&#45;&gt;Node28</title>
<g id="a_edge39_Node000027_Node000028"><a xlink:title=" ">
<path fill="none" stroke="#63b8ff" d="M170.79,-230.8C162.39,-221.01 151.19,-207.98 142.35,-197.7"/>
<polygon fill="#63b8ff" stroke="#63b8ff" points="144.77,-195.15 135.6,-189.84 139.46,-199.71 144.77,-195.15"/>
</a>
</g>
</g>
<!-- Node29 -->
<g id="Node000029" class="node">
<title>Node29</title>
<g id="a_Node000029"><a xlink:title=" ">
<polygon fill="#e0e0e0" stroke="#999999" points="214,-189.5 170,-189.5 170,-170.5 214,-170.5 214,-189.5"/>
<text text-anchor="middle" x="192" y="-177.5" font-family="Helvetica,sans-Serif" font-size="10.00">limits</text>
</a>
</g>
</g>
<!-- Node27&#45;&gt;Node29 -->
<g id="edge40_Node000027_Node000029" class="edge">
<title>Node27&#45;&gt;Node29</title>
<g id="a_edge40_Node000027_Node000029"><a xlink:title=" ">
<path fill="none" stroke="#63b8ff" d="M185,-230.8C186.28,-221.7 187.95,-209.79 189.34,-199.9"/>
<polygon fill="#63b8ff" stroke="#63b8ff" points="192.83,-200.23 190.76,-189.84 185.9,-199.26 192.83,-200.23"/>
</a>
</g>
</g>
<!-- Node27&#45;&gt;Node30 -->
<g id="edge42_Node000027_Node000030" class="edge">
<title>Node27&#45;&gt;Node30</title>
<g id="a_edge42_Node000027_Node000030"><a xlink:title=" ">
<path fill="none" stroke="#63b8ff" d="M152.28,-230.95C128.05,-219.88 94.54,-204.56 71.04,-193.82"/>
<polygon fill="#63b8ff" stroke="#63b8ff" points="72.18,-190.49 61.63,-189.52 69.27,-196.86 72.18,-190.49"/>
</a>
</g>
</g>
<!-- Node30&#45;&gt;Node23 -->
<g id="edge43_Node000030_Node000023" class="edge">
<title>Node30&#45;&gt;Node23</title>
<g id="a_edge43_Node000030_Node000023"><a xlink:title=" ">
<path fill="none" stroke="#63b8ff" d="M71.94,-170.49C106.57,-160.31 164.7,-143.22 203.21,-131.9"/>
<polygon fill="#63b8ff" stroke="#63b8ff" points="204.42,-135.2 213.03,-129.02 202.45,-128.48 204.42,-135.2"/>
</a>
</g>
</g>
<!-- Node30&#45;&gt;Node24 -->
<g id="edge44_Node000030_Node000024" class="edge">
<title>Node30&#45;&gt;Node24</title>
<g id="a_edge44_Node000030_Node000024"><a xlink:title=" ">
<path fill="none" stroke="#63b8ff" d="M57.96,-170.47C92.17,-150.96 176.39,-102.92 217.97,-79.21"/>
<polygon fill="#63b8ff" stroke="#63b8ff" points="219.92,-82.12 226.87,-74.13 216.45,-76.04 219.92,-82.12"/>
</a>
</g>
</g>
</g>
</svg>
