<?xml version="1.0" encoding="UTF-8" standalone="no"?>
<!DOCTYPE svg PUBLIC "-//W3C//DTD SVG 1.1//EN"
 "http://www.w3.org/Graphics/SVG/1.1/DTD/svg11.dtd">
<!-- Generated by graphviz version 2.43.0 (0)
 -->
<!-- Title: src/SceneSystem/ConfigParser/Parser.hpp Pages: 1 -->
<!--zoomable 500 -->

<svg id="main" version="1.1" xmlns="http://www.w3.org/2000/svg" xmlns:xlink="http://www.w3.org/1999/xlink" xml:space="preserve" onload="init(evt)">
<style type="text/css"><![CDATA[
.node, .edge {opacity: 0.7;}
.node.selected, .edge.selected {opacity: 1;}
.edge:hover path { stroke: red; }
.edge:hover polygon { stroke: red; fill: red; }
]]></style>

<defs>
  <circle id="rim" cx="0" cy="0" r="7"/>
  <circle id="rim2" cx="0" cy="0" r="3.5"/>
  <g id="zoomPlus">
    <use xlink:href="#rim" fill="#404040"><set attributeName="fill" to="#808080" begin="zoomplus.mouseover" end="zoomplus.mouseout"/></use>
    <path d="M-4,0h8M0,-4v8" fill="none" stroke="white" stroke-width="1.5" pointer-events="none"/>
  </g>
  <g id="zoomMin">
    <use xlink:href="#rim" fill="#404040"><set attributeName="fill" to="#808080" begin="zoomminus.mouseover" end="zoomminus.mouseout"/></use>
    <path d="M-4,0h8" fill="none" stroke="white" stroke-width="1.5" pointer-events="none"/>
  </g>
  <g id="arrowUp" transform="translate(30 24)">
    <use xlink:href="#rim"/>
    <path pointer-events="none" fill="none" stroke="white" stroke-width="1.5" d="M0,-3.0v7 M-2.5,-0.5L0,-3.0L2.5,-0.5"/>
  </g>
  <g id="arrowRight" transform="rotate(90) translate(36 -43)">
    <use xlink:href="#rim"/>
    <path pointer-events="none" fill="none" stroke="white" stroke-width="1.5" d="M0,-3.0v7 M-2.5,-0.5L0,-3.0L2.5,-0.5"/>
  </g>
  <g id="arrowDown" transform="rotate(180) translate(-30 -48)">
    <use xlink:href="#rim"/>
    <path pointer-events="none" fill="none" stroke="white" stroke-width="1.5" d="M0,-3.0v7 M-2.5,-0.5L0,-3.0L2.5,-0.5"/>
  </g>
  <g id="arrowLeft" transform="rotate(270) translate(-36 17)">
    <use xlink:href="#rim"/>
    <path pointer-events="none" fill="none" stroke="white" stroke-width="1.5" d="M0,-3.0v7 M-2.5,-0.5L0,-3.0L2.5,-0.5"/>
  </g>
  <g id="resetDef">
    <use xlink:href="#rim2" fill="#404040"><set attributeName="fill" to="#808080" begin="reset.mouseover" end="reset.mouseout"/></use>
  </g>
</defs>
<script type="application/ecmascript">
var viewWidth = 1039;
var viewHeight = 500;
var sectionId = 'dynsection-0';
</script>
<script type="application/ecmascript" xlink:href="svg.min.js"/>
<svg id="graph" class="graph">
<g id="viewport">
<title>src/SceneSystem/ConfigParser/Parser.hpp</title>
<!-- Node1 -->
<g id="Node000001" class="node">
<title>Node1</title>
<g id="a_Node000001"><a xlink:title=" ">
<polygon fill="#999999" stroke="#666666" points="278.5,-492 114.5,-492 114.5,-462 278.5,-462 278.5,-492"/>
<text text-anchor="start" x="122.5" y="-480" font-family="Helvetica,sans-Serif" font-size="10.00">src/SceneSystem/ConfigParser</text>
<text text-anchor="middle" x="196.5" y="-469" font-family="Helvetica,sans-Serif" font-size="10.00">/Parser.hpp</text>
</a>
</g>
</g>
<!-- Node2 -->
<g id="Node000002" class="node">
<title>Node2</title>
<g id="a_Node000002"><a xlink:title=" ">
<polygon fill="#e0e0e0" stroke="#999999" points="83,-426 0,-426 0,-407 83,-407 83,-426"/>
<text text-anchor="middle" x="41.5" y="-414" font-family="Helvetica,sans-Serif" font-size="10.00">libconfig.h++</text>
</a>
</g>
</g>
<!-- Node1&#45;&gt;Node2 -->
<g id="edge1_Node000001_Node000002" class="edge">
<title>Node1&#45;&gt;Node2</title>
<g id="a_edge1_Node000001_Node000002"><a xlink:title=" ">
<path fill="none" stroke="#63b8ff" d="M159.37,-461.99C133.28,-452.14 98.72,-439.1 73.77,-429.68"/>
<polygon fill="#63b8ff" stroke="#63b8ff" points="74.98,-426.4 64.39,-426.14 72.51,-432.94 74.98,-426.4"/>
</a>
</g>
</g>
<!-- Node3 -->
<g id="Node000003" class="node">
<title>Node3</title>
<g id="a_Node000003"><a xlink:title=" ">
<polygon fill="#e0e0e0" stroke="#999999" points="191,-365.5 140,-365.5 140,-346.5 191,-346.5 191,-365.5"/>
<text text-anchor="middle" x="165.5" y="-353.5" font-family="Helvetica,sans-Serif" font-size="10.00">variant</text>
</a>
</g>
</g>
<!-- Node1&#45;&gt;Node3 -->
<g id="edge2_Node000001_Node000003" class="edge">
<title>Node1&#45;&gt;Node3</title>
<g id="a_edge2_Node000001_Node000003"><a xlink:title=" ">
<path fill="none" stroke="#63b8ff" d="M192.82,-461.88C187.23,-440.41 176.58,-399.52 170.35,-375.64"/>
<polygon fill="#63b8ff" stroke="#63b8ff" points="173.68,-374.51 167.77,-365.71 166.9,-376.27 173.68,-374.51"/>
</a>
</g>
</g>
<!-- Node4 -->
<g id="Node000004" class="node">
<title>Node4</title>
<g id="a_Node000004"><a xlink:title=" ">
<polygon fill="#e0e0e0" stroke="#999999" points="247.5,-365.5 209.5,-365.5 209.5,-346.5 247.5,-346.5 247.5,-365.5"/>
<text text-anchor="middle" x="228.5" y="-353.5" font-family="Helvetica,sans-Serif" font-size="10.00">map</text>
</a>
</g>
</g>
<!-- Node1&#45;&gt;Node4 -->
<g id="edge3_Node000001_Node000004" class="edge">
<title>Node1&#45;&gt;Node4</title>
<g id="a_edge3_Node000001_Node000004"><a xlink:title=" ">
<path fill="none" stroke="#63b8ff" d="M200.3,-461.88C206.07,-440.41 217.06,-399.52 223.49,-375.64"/>
<polygon fill="#63b8ff" stroke="#63b8ff" points="226.94,-376.28 226.16,-365.71 220.18,-374.46 226.94,-376.28"/>
</a>
</g>
</g>
<!-- Node5 -->
<g id="Node000005" class="node">
<title>Node5</title>
<g id="a_Node000005"><a xlink:title=" ">
<polygon fill="#e0e0e0" stroke="#999999" points="278,-189.5 231,-189.5 231,-170.5 278,-170.5 278,-189.5"/>
<text text-anchor="middle" x="254.5" y="-177.5" font-family="Helvetica,sans-Serif" font-size="10.00">vector</text>
</a>
</g>
</g>
<!-- Node1&#45;&gt;Node5 -->
<g id="edge4_Node000001_Node000005" class="edge">
<title>Node1&#45;&gt;Node5</title>
<g id="a_edge4_Node000001_Node000005"><a xlink:title=" ">
<path fill="none" stroke="#63b8ff" d="M177.21,-461.84C152.13,-441.62 111.5,-401.94 111.5,-357 111.5,-357 111.5,-357 111.5,-294.5 111.5,-238.75 179.01,-206.03 221.26,-191.01"/>
<polygon fill="#63b8ff" stroke="#63b8ff" points="222.55,-194.27 230.89,-187.73 220.29,-187.64 222.55,-194.27"/>
</a>
</g>
</g>
<!-- Node6 -->
<g id="Node000006" class="node">
<title>Node6</title>
<g id="a_Node000006"><a xlink:title=" ">
<polygon fill="#e0e0e0" stroke="#999999" points="771.5,-189.5 713.5,-189.5 713.5,-170.5 771.5,-170.5 771.5,-189.5"/>
<text text-anchor="middle" x="742.5" y="-177.5" font-family="Helvetica,sans-Serif" font-size="10.00">memory</text>
</a>
</g>
</g>
<!-- Node1&#45;&gt;Node6 -->
<g id="edge5_Node000001_Node000006" class="edge">
<title>Node1&#45;&gt;Node6</title>
<g id="a_edge5_Node000001_Node000006"><a xlink:title=" ">
<path fill="none" stroke="#63b8ff" d="M278.75,-472.81C489.16,-463.55 1030.5,-432.41 1030.5,-357 1030.5,-357 1030.5,-357 1030.5,-294.5 1030.5,-241.65 860.52,-203.02 781.74,-187.95"/>
<polygon fill="#63b8ff" stroke="#63b8ff" points="782.17,-184.47 771.7,-186.06 780.88,-191.35 782.17,-184.47"/>
</a>
</g>
</g>
<!-- Node7 -->
<g id="Node000007" class="node">
<title>Node7</title>
<g id="a_Node000007"><a xlink:href="Plugin_8hpp.html" target="_top" xlink:title=" ">
<polygon fill="white" stroke="#666666" points="510,-426 385,-426 385,-407 510,-407 510,-426"/>
<text text-anchor="middle" x="447.5" y="-414" font-family="Helvetica,sans-Serif" font-size="10.00">../../Objects/Plugin.hpp</text>
</a>
</g>
</g>
<!-- Node1&#45;&gt;Node7 -->
<g id="edge6_Node000001_Node000007" class="edge">
<title>Node1&#45;&gt;Node7</title>
<g id="a_edge6_Node000001_Node000007"><a xlink:title=" ">
<path fill="none" stroke="#63b8ff" d="M256.62,-461.99C300.88,-451.67 360.18,-437.85 400.87,-428.37"/>
<polygon fill="#63b8ff" stroke="#63b8ff" points="401.86,-431.73 410.8,-426.05 400.27,-424.91 401.86,-431.73"/>
</a>
</g>
</g>
<!-- Node7&#45;&gt;Node3 -->
<g id="edge9_Node000007_Node000003" class="edge">
<title>Node7&#45;&gt;Node3</title>
<g id="a_edge9_Node000007_Node000003"><a xlink:title=" ">
<path fill="none" stroke="#63b8ff" d="M384.78,-407.77C334.37,-400.71 262.07,-388.66 200.5,-371 198.57,-370.45 196.59,-369.82 194.61,-369.15"/>
<polygon fill="#63b8ff" stroke="#63b8ff" points="195.47,-365.74 184.88,-365.56 193.05,-372.31 195.47,-365.74"/>
</a>
</g>
</g>
<!-- Node7&#45;&gt;Node4 -->
<g id="edge10_Node000007_Node000004" class="edge">
<title>Node7&#45;&gt;Node4</title>
<g id="a_edge10_Node000007_Node000004"><a xlink:title=" ">
<path fill="none" stroke="#63b8ff" d="M402.57,-406.94C364.53,-399.17 308.81,-386.57 261.5,-371 259.87,-370.46 258.22,-369.88 256.55,-369.27"/>
<polygon fill="#63b8ff" stroke="#63b8ff" points="257.73,-365.97 247.14,-365.55 255.15,-372.48 257.73,-365.97"/>
</a>
</g>
</g>
<!-- Node7&#45;&gt;Node6 -->
<g id="edge8_Node000007_Node000006" class="edge">
<title>Node7&#45;&gt;Node6</title>
<g id="a_edge8_Node000007_Node000006"><a xlink:title=" ">
<path fill="none" stroke="#63b8ff" d="M510.06,-414.79C550.72,-411.26 602.65,-400.57 638.5,-371 670.42,-344.67 657,-322.5 676.5,-286 693.58,-254.03 716.74,-218.7 730.59,-198.26"/>
<polygon fill="#63b8ff" stroke="#63b8ff" points="733.66,-199.97 736.41,-189.74 727.88,-196.02 733.66,-199.97"/>
</a>
</g>
</g>
<!-- Node8 -->
<g id="Node000008" class="node">
<title>Node8</title>
<g id="a_Node000008"><a xlink:title=" ">
<polygon fill="#e0e0e0" stroke="#999999" points="751,-365.5 686,-365.5 686,-346.5 751,-346.5 751,-365.5"/>
<text text-anchor="middle" x="718.5" y="-353.5" font-family="Helvetica,sans-Serif" font-size="10.00">functional</text>
</a>
</g>
</g>
<!-- Node7&#45;&gt;Node8 -->
<g id="edge7_Node000007_Node000008" class="edge">
<title>Node7&#45;&gt;Node8</title>
<g id="a_edge7_Node000007_Node000008"><a xlink:title=" ">
<path fill="none" stroke="#63b8ff" d="M497.62,-406.93C543.21,-398.8 612.23,-385.68 671.5,-371 674.72,-370.2 678.05,-369.32 681.39,-368.4"/>
<polygon fill="#63b8ff" stroke="#63b8ff" points="682.63,-371.69 691.28,-365.58 680.7,-364.96 682.63,-371.69"/>
</a>
</g>
</g>
<!-- Node9 -->
<g id="Node000009" class="node">
<title>Node9</title>
<g id="a_Node000009"><a xlink:href="RaytracerException_8hpp.html" target="_top" xlink:title=" ">
<polygon fill="white" stroke="#666666" points="946,-371 769,-371 769,-341 946,-341 946,-371"/>
<text text-anchor="start" x="777" y="-359" font-family="Helvetica,sans-Serif" font-size="10.00">../Exceptions/RaytracerException</text>
<text text-anchor="middle" x="857.5" y="-348" font-family="Helvetica,sans-Serif" font-size="10.00">/RaytracerException.hpp</text>
</a>
</g>
</g>
<!-- Node7&#45;&gt;Node9 -->
<g id="edge11_Node000007_Node000009" class="edge">
<title>Node7&#45;&gt;Node9</title>
<g id="a_edge11_Node000007_Node000009"><a xlink:title=" ">
<path fill="none" stroke="#63b8ff" d="M507.31,-406.97C567.97,-398.32 664.85,-384.51 758.86,-371.09"/>
<polygon fill="#63b8ff" stroke="#63b8ff" points="759.42,-374.55 768.83,-369.67 758.43,-367.62 759.42,-374.55"/>
</a>
</g>
</g>
<!-- Node14 -->
<g id="Node000014" class="node">
<title>Node14</title>
<g id="a_Node000014"><a xlink:href="AInterface_8hpp.html" target="_top" xlink:title=" ">
<polygon fill="white" stroke="#666666" points="419.5,-371 303.5,-371 303.5,-341 419.5,-341 419.5,-371"/>
<text text-anchor="start" x="311.5" y="-359" font-family="Helvetica,sans-Serif" font-size="10.00">Abstracts/AInterface</text>
<text text-anchor="middle" x="361.5" y="-348" font-family="Helvetica,sans-Serif" font-size="10.00">/AInterface.hpp</text>
</a>
</g>
</g>
<!-- Node7&#45;&gt;Node14 -->
<g id="edge16_Node000007_Node000014" class="edge">
<title>Node7&#45;&gt;Node14</title>
<g id="a_edge16_Node000007_Node000014"><a xlink:title=" ">
<path fill="none" stroke="#63b8ff" d="M434.81,-406.87C423.25,-399 405.74,-387.09 390.73,-376.89"/>
<polygon fill="#63b8ff" stroke="#63b8ff" points="392.49,-373.85 382.25,-371.11 388.55,-379.63 392.49,-373.85"/>
</a>
</g>
</g>
<!-- Node15 -->
<g id="Node000015" class="node">
<title>Node15</title>
<g id="a_Node000015"><a xlink:href="ARenderer_8hpp.html" target="_top" xlink:title=" ">
<polygon fill="white" stroke="#666666" points="348,-250 197,-250 197,-231 348,-231 348,-250"/>
<text text-anchor="middle" x="272.5" y="-238" font-family="Helvetica,sans-Serif" font-size="10.00">../ARenderer/ARenderer.hpp</text>
</a>
</g>
</g>
<!-- Node7&#45;&gt;Node15 -->
<g id="edge38_Node000007_Node000015" class="edge">
<title>Node7&#45;&gt;Node15</title>
<g id="a_edge38_Node000007_Node000015"><a xlink:title=" ">
<path fill="none" stroke="#63b8ff" d="M384.85,-412.51C353.34,-407.67 317.14,-396.4 294.5,-371 267.02,-340.17 267.41,-288.14 269.99,-260.34"/>
<polygon fill="#63b8ff" stroke="#63b8ff" points="273.51,-260.37 271.16,-250.04 266.55,-259.59 273.51,-260.37"/>
</a>
</g>
</g>
<!-- Node18 -->
<g id="Node000018" class="node">
<title>Node18</title>
<g id="a_Node000018"><a xlink:href="APrimitive_8hpp.html" target="_top" xlink:title=" ">
<polygon fill="white" stroke="#666666" points="629.5,-371 513.5,-371 513.5,-341 629.5,-341 629.5,-371"/>
<text text-anchor="start" x="521.5" y="-359" font-family="Helvetica,sans-Serif" font-size="10.00">Abstracts/APrimitive</text>
<text text-anchor="middle" x="571.5" y="-348" font-family="Helvetica,sans-Serif" font-size="10.00">/APrimitive.hpp</text>
</a>
</g>
</g>
<!-- Node7&#45;&gt;Node18 -->
<g id="edge21_Node000007_Node000018" class="edge">
<title>Node7&#45;&gt;Node18</title>
<g id="a_edge21_Node000007_Node000018"><a xlink:title=" ">
<path fill="none" stroke="#63b8ff" d="M465.53,-406.99C482.93,-398.79 509.84,-386.09 532.19,-375.55"/>
<polygon fill="#63b8ff" stroke="#63b8ff" points="533.9,-378.61 541.45,-371.18 530.91,-372.28 533.9,-378.61"/>
</a>
</g>
</g>
<!-- Node19 -->
<g id="Node000019" class="node">
<title>Node19</title>
<g id="a_Node000019"><a xlink:href="IMaterial_8hpp.html" target="_top" xlink:title=" ">
<polygon fill="white" stroke="#666666" points="457.5,-305 367.5,-305 367.5,-286 457.5,-286 457.5,-305"/>
<text text-anchor="middle" x="412.5" y="-293" font-family="Helvetica,sans-Serif" font-size="10.00">../IMaterial.hpp</text>
</a>
</g>
</g>
<!-- Node7&#45;&gt;Node19 -->
<g id="edge40_Node000007_Node000019" class="edge">
<title>Node7&#45;&gt;Node19</title>
<g id="a_edge40_Node000007_Node000019"><a xlink:title=" ">
<path fill="none" stroke="#63b8ff" d="M445.54,-406.71C442.36,-392.7 435.7,-364.48 428.5,-341 425.82,-332.27 422.45,-322.72 419.49,-314.72"/>
<polygon fill="#63b8ff" stroke="#63b8ff" points="422.74,-313.41 415.94,-305.28 416.19,-315.87 422.74,-313.41"/>
</a>
</g>
</g>
<!-- Node20 -->
<g id="Node000020" class="node">
<title>Node20</title>
<g id="a_Node000020"><a xlink:href="ILight_8hpp.html" target="_top" xlink:title=" ">
<polygon fill="white" stroke="#666666" points="514,-250 449,-250 449,-231 514,-231 514,-250"/>
<text text-anchor="middle" x="481.5" y="-238" font-family="Helvetica,sans-Serif" font-size="10.00">ILight.hpp</text>
</a>
</g>
</g>
<!-- Node7&#45;&gt;Node20 -->
<g id="edge39_Node000007_Node000020" class="edge">
<title>Node7&#45;&gt;Node20</title>
<g id="a_edge39_Node000007_Node000020"><a xlink:title=" ">
<path fill="none" stroke="#63b8ff" d="M449.23,-406.63C454.53,-379.52 470.59,-297.32 477.86,-260.13"/>
<polygon fill="#63b8ff" stroke="#63b8ff" points="481.33,-260.63 479.81,-250.14 474.46,-259.29 481.33,-260.63"/>
</a>
</g>
</g>
<!-- Node10 -->
<g id="Node000010" class="node">
<title>Node10</title>
<g id="a_Node000010"><a xlink:title=" ">
<polygon fill="#e0e0e0" stroke="#999999" points="1002,-305 937,-305 937,-286 1002,-286 1002,-305"/>
<text text-anchor="middle" x="969.5" y="-293" font-family="Helvetica,sans-Serif" font-size="10.00">exception</text>
</a>
</g>
</g>
<!-- Node9&#45;&gt;Node10 -->
<g id="edge12_Node000009_Node000010" class="edge">
<title>Node9&#45;&gt;Node10</title>
<g id="a_edge12_Node000009_Node000010"><a xlink:title=" ">
<path fill="none" stroke="#63b8ff" d="M884.33,-340.99C902.35,-331.58 925.96,-319.24 943.75,-309.95"/>
<polygon fill="#63b8ff" stroke="#63b8ff" points="945.72,-312.87 952.96,-305.14 942.48,-306.67 945.72,-312.87"/>
</a>
</g>
</g>
<!-- Node11 -->
<g id="Node000011" class="node">
<title>Node11</title>
<g id="a_Node000011"><a xlink:title=" ">
<polygon fill="#e0e0e0" stroke="#999999" points="745.5,-305 685.5,-305 685.5,-286 745.5,-286 745.5,-305"/>
<text text-anchor="middle" x="715.5" y="-293" font-family="Helvetica,sans-Serif" font-size="10.00">iostream</text>
</a>
</g>
</g>
<!-- Node9&#45;&gt;Node11 -->
<g id="edge13_Node000009_Node000011" class="edge">
<title>Node9&#45;&gt;Node11</title>
<g id="a_edge13_Node000009_Node000011"><a xlink:title=" ">
<path fill="none" stroke="#63b8ff" d="M823.49,-340.99C799.9,-331.27 768.76,-318.44 745.98,-309.06"/>
<polygon fill="#63b8ff" stroke="#63b8ff" points="747.05,-305.71 736.47,-305.14 744.38,-312.18 747.05,-305.71"/>
</a>
</g>
</g>
<!-- Node12 -->
<g id="Node000012" class="node">
<title>Node12</title>
<g id="a_Node000012"><a xlink:title=" ">
<polygon fill="#e0e0e0" stroke="#999999" points="807.5,-305 763.5,-305 763.5,-286 807.5,-286 807.5,-305"/>
<text text-anchor="middle" x="785.5" y="-293" font-family="Helvetica,sans-Serif" font-size="10.00">string</text>
</a>
</g>
</g>
<!-- Node9&#45;&gt;Node12 -->
<g id="edge14_Node000009_Node000012" class="edge">
<title>Node9&#45;&gt;Node12</title>
<g id="a_edge14_Node000009_Node000012"><a xlink:title=" ">
<path fill="none" stroke="#63b8ff" d="M840.07,-340.84C829.19,-332 815.2,-320.63 804.11,-311.62"/>
<polygon fill="#63b8ff" stroke="#63b8ff" points="806.26,-308.86 796.29,-305.27 801.84,-314.29 806.26,-308.86"/>
</a>
</g>
</g>
<!-- Node13 -->
<g id="Node000013" class="node">
<title>Node13</title>
<g id="a_Node000013"><a xlink:title=" ">
<polygon fill="#e0e0e0" stroke="#999999" points="919,-305 826,-305 826,-286 919,-286 919,-305"/>
<text text-anchor="middle" x="872.5" y="-293" font-family="Helvetica,sans-Serif" font-size="10.00">source_location</text>
</a>
</g>
</g>
<!-- Node9&#45;&gt;Node13 -->
<g id="edge15_Node000009_Node000013" class="edge">
<title>Node9&#45;&gt;Node13</title>
<g id="a_edge15_Node000009_Node000013"><a xlink:title=" ">
<path fill="none" stroke="#63b8ff" d="M861.13,-340.84C863.11,-333.13 865.58,-323.49 867.71,-315.17"/>
<polygon fill="#63b8ff" stroke="#63b8ff" points="871.16,-315.82 870.25,-305.27 864.38,-314.08 871.16,-315.82"/>
</a>
</g>
</g>
<!-- Node14&#45;&gt;Node15 -->
<g id="edge17_Node000014_Node000015" class="edge">
<title>Node14&#45;&gt;Node15</title>
<g id="a_edge17_Node000014_Node000015"><a xlink:title=" ">
<path fill="none" stroke="#63b8ff" d="M350.23,-340.63C333.71,-319.56 303,-280.4 285.54,-258.13"/>
<polygon fill="#63b8ff" stroke="#63b8ff" points="288.27,-255.94 279.35,-250.23 282.76,-260.26 288.27,-255.94"/>
</a>
</g>
</g>
<!-- Node15&#45;&gt;Node5 -->
<g id="edge20_Node000015_Node000005" class="edge">
<title>Node15&#45;&gt;Node5</title>
<g id="a_edge20_Node000015_Node000005"><a xlink:title=" ">
<path fill="none" stroke="#63b8ff" d="M269.84,-230.87C267.32,-222.66 263.44,-210.04 260.21,-199.55"/>
<polygon fill="#63b8ff" stroke="#63b8ff" points="263.45,-198.2 257.17,-189.67 256.76,-200.25 263.45,-198.2"/>
</a>
</g>
</g>
<!-- Node16 -->
<g id="Node000016" class="node">
<title>Node16</title>
<g id="a_Node000016"><a xlink:href="Color_8hpp.html" target="_top" xlink:title=" ">
<polygon fill="white" stroke="#666666" points="411,-189.5 296,-189.5 296,-170.5 411,-170.5 411,-189.5"/>
<text text-anchor="middle" x="353.5" y="-177.5" font-family="Helvetica,sans-Serif" font-size="10.00">../../../Utils/Color.hpp</text>
</a>
</g>
</g>
<!-- Node15&#45;&gt;Node16 -->
<g id="edge18_Node000015_Node000016" class="edge">
<title>Node15&#45;&gt;Node16</title>
<g id="a_edge18_Node000015_Node000016"><a xlink:title=" ">
<path fill="none" stroke="#63b8ff" d="M284.45,-230.87C297.25,-221.62 317.8,-206.78 333.15,-195.69"/>
<polygon fill="#63b8ff" stroke="#63b8ff" points="335.44,-198.36 341.5,-189.67 331.34,-192.68 335.44,-198.36"/>
</a>
</g>
</g>
<!-- Node17 -->
<g id="Node000017" class="node">
<title>Node17</title>
<g id="a_Node000017"><a xlink:title=" ">
<polygon fill="#e0e0e0" stroke="#999999" points="385.5,-129 321.5,-129 321.5,-110 385.5,-110 385.5,-129"/>
<text text-anchor="middle" x="353.5" y="-117" font-family="Helvetica,sans-Serif" font-size="10.00">algorithm</text>
</a>
</g>
</g>
<!-- Node16&#45;&gt;Node17 -->
<g id="edge19_Node000016_Node000017" class="edge">
<title>Node16&#45;&gt;Node17</title>
<g id="a_edge19_Node000016_Node000017"><a xlink:title=" ">
<path fill="none" stroke="#63b8ff" d="M353.5,-170.37C353.5,-162.25 353.5,-149.81 353.5,-139.39"/>
<polygon fill="#63b8ff" stroke="#63b8ff" points="357,-139.17 353.5,-129.17 350,-139.17 357,-139.17"/>
</a>
</g>
</g>
<!-- Node18&#45;&gt;Node19 -->
<g id="edge22_Node000018_Node000019" class="edge">
<title>Node18&#45;&gt;Node19</title>
<g id="a_edge22_Node000018_Node000019"><a xlink:title=" ">
<path fill="none" stroke="#63b8ff" d="M533.42,-340.99C506.65,-331.14 471.2,-318.1 445.61,-308.68"/>
<polygon fill="#63b8ff" stroke="#63b8ff" points="446.57,-305.31 435.98,-305.14 444.16,-311.88 446.57,-305.31"/>
</a>
</g>
</g>
<!-- Node25 -->
<g id="Node000025" class="node">
<title>Node25</title>
<g id="a_Node000025"><a xlink:title=" ">
<polygon fill="#e0e0e0" stroke="#999999" points="591.5,-305 535.5,-305 535.5,-286 591.5,-286 591.5,-305"/>
<text text-anchor="middle" x="563.5" y="-293" font-family="Helvetica,sans-Serif" font-size="10.00">optional</text>
</a>
</g>
</g>
<!-- Node18&#45;&gt;Node25 -->
<g id="edge34_Node000018_Node000025" class="edge">
<title>Node18&#45;&gt;Node25</title>
<g id="a_edge34_Node000018_Node000025"><a xlink:title=" ">
<path fill="none" stroke="#63b8ff" d="M569.56,-340.84C568.52,-333.21 567.22,-323.7 566.09,-315.45"/>
<polygon fill="#63b8ff" stroke="#63b8ff" points="569.52,-314.7 564.7,-305.27 562.59,-315.65 569.52,-314.7"/>
</a>
</g>
</g>
<!-- Node26 -->
<g id="Node000026" class="node">
<title>Node26</title>
<g id="a_Node000026"><a xlink:href="Ray_8hpp.html" target="_top" xlink:title=" ">
<polygon fill="white" stroke="#666666" points="695.5,-195 581.5,-195 581.5,-165 695.5,-165 695.5,-195"/>
<text text-anchor="start" x="589.5" y="-183" font-family="Helvetica,sans-Serif" font-size="10.00">../../../Geometry/Ray</text>
<text text-anchor="middle" x="638.5" y="-172" font-family="Helvetica,sans-Serif" font-size="10.00">/Ray.hpp</text>
</a>
</g>
</g>
<!-- Node18&#45;&gt;Node26 -->
<g id="edge35_Node000018_Node000026" class="edge">
<title>Node18&#45;&gt;Node26</title>
<g id="a_edge35_Node000018_Node000026"><a xlink:title=" ">
<path fill="none" stroke="#63b8ff" d="M581.04,-340.59C587.2,-330.84 595.04,-317.51 600.5,-305 615.16,-271.41 626.54,-230.42 632.88,-205"/>
<polygon fill="#63b8ff" stroke="#63b8ff" points="636.32,-205.68 635.29,-195.13 629.52,-204.02 636.32,-205.68"/>
</a>
</g>
</g>
<!-- Node19&#45;&gt;Node5 -->
<g id="edge33_Node000019_Node000005" class="edge">
<title>Node19&#45;&gt;Node5</title>
<g id="a_edge33_Node000019_Node000005"><a xlink:title=" ">
<path fill="none" stroke="#63b8ff" d="M406.5,-285.72C397.1,-272.48 377.77,-247.23 356.5,-231 344.27,-221.66 309.04,-205.13 283.4,-193.64"/>
<polygon fill="#63b8ff" stroke="#63b8ff" points="284.68,-190.38 274.12,-189.51 281.83,-196.77 284.68,-190.38"/>
</a>
</g>
</g>
<!-- Node19&#45;&gt;Node16 -->
<g id="edge23_Node000019_Node000016" class="edge">
<title>Node19&#45;&gt;Node16</title>
<g id="a_edge23_Node000019_Node000016"><a xlink:title=" ">
<path fill="none" stroke="#63b8ff" d="M410.42,-285.94C407.19,-273.42 400.3,-249.58 390.5,-231 384.18,-219.01 375.15,-206.75 367.6,-197.37"/>
<polygon fill="#63b8ff" stroke="#63b8ff" points="370.28,-195.12 361.2,-189.66 364.9,-199.59 370.28,-195.12"/>
</a>
</g>
</g>
<!-- Node19&#45;&gt;Node20 -->
<g id="edge24_Node000019_Node000020" class="edge">
<title>Node19&#45;&gt;Node20</title>
<g id="a_edge24_Node000019_Node000020"><a xlink:title=" ">
<path fill="none" stroke="#63b8ff" d="M423.59,-285.98C433.99,-278 449.76,-265.88 462.22,-256.31"/>
<polygon fill="#63b8ff" stroke="#63b8ff" points="464.41,-259.04 470.21,-250.17 460.15,-253.49 464.41,-259.04"/>
</a>
</g>
</g>
<!-- Node20&#45;&gt;Node5 -->
<g id="edge31_Node000020_Node000005" class="edge">
<title>Node20&#45;&gt;Node5</title>
<g id="a_edge31_Node000020_Node000005"><a xlink:title=" ">
<path fill="none" stroke="#63b8ff" d="M448.9,-234C409.76,-226.96 342.4,-213.42 286.5,-195 285.06,-194.53 283.6,-194.01 282.13,-193.47"/>
<polygon fill="#63b8ff" stroke="#63b8ff" points="283.13,-190.1 272.55,-189.6 280.51,-196.59 283.13,-190.1"/>
</a>
</g>
</g>
<!-- Node20&#45;&gt;Node6 -->
<g id="edge32_Node000020_Node000006" class="edge">
<title>Node20&#45;&gt;Node6</title>
<g id="a_edge32_Node000020_Node000006"><a xlink:title=" ">
<path fill="none" stroke="#63b8ff" d="M514,-234.65C557.76,-227.75 637.82,-213.81 704.5,-195 706.78,-194.36 709.13,-193.64 711.47,-192.88"/>
<polygon fill="#63b8ff" stroke="#63b8ff" points="712.68,-196.16 720.99,-189.59 710.39,-189.55 712.68,-196.16"/>
</a>
</g>
</g>
<!-- Node20&#45;&gt;Node16 -->
<g id="edge30_Node000020_Node000016" class="edge">
<title>Node20&#45;&gt;Node16</title>
<g id="a_edge30_Node000020_Node000016"><a xlink:title=" ">
<path fill="none" stroke="#63b8ff" d="M462.89,-230.99C441.46,-221.2 406.06,-205.02 381.35,-193.73"/>
<polygon fill="#63b8ff" stroke="#63b8ff" points="382.68,-190.49 372.13,-189.52 379.78,-196.86 382.68,-190.49"/>
</a>
</g>
</g>
<!-- Node21 -->
<g id="Node000021" class="node">
<title>Node21</title>
<g id="a_Node000021"><a xlink:href="HitRecord_8hpp.html" target="_top" xlink:title=" ">
<polygon fill="white" stroke="#666666" points="563.5,-195 429.5,-195 429.5,-165 563.5,-165 563.5,-195"/>
<text text-anchor="start" x="437.5" y="-183" font-family="Helvetica,sans-Serif" font-size="10.00">../../Geometry/HitRecord</text>
<text text-anchor="middle" x="496.5" y="-172" font-family="Helvetica,sans-Serif" font-size="10.00">/HitRecord.hpp</text>
</a>
</g>
</g>
<!-- Node20&#45;&gt;Node21 -->
<g id="edge25_Node000020_Node000021" class="edge">
<title>Node20&#45;&gt;Node21</title>
<g id="a_edge25_Node000020_Node000021"><a xlink:title=" ">
<path fill="none" stroke="#63b8ff" d="M483.71,-230.87C485.47,-224.03 488,-214.14 490.35,-204.97"/>
<polygon fill="#63b8ff" stroke="#63b8ff" points="493.79,-205.67 492.88,-195.11 487.01,-203.93 493.79,-205.67"/>
</a>
</g>
</g>
<!-- Node22 -->
<g id="Node000022" class="node">
<title>Node22</title>
<g id="a_Node000022"><a xlink:href="Point3D_8hpp.html" target="_top" xlink:title=" ">
<polygon fill="white" stroke="#666666" points="630.5,-129 504.5,-129 504.5,-110 630.5,-110 630.5,-129"/>
<text text-anchor="middle" x="567.5" y="-117" font-family="Helvetica,sans-Serif" font-size="10.00">../Point3D/Point3D.hpp</text>
</a>
</g>
</g>
<!-- Node21&#45;&gt;Node22 -->
<g id="edge26_Node000021_Node000022" class="edge">
<title>Node21&#45;&gt;Node22</title>
<g id="a_edge26_Node000021_Node000022"><a xlink:title=" ">
<path fill="none" stroke="#63b8ff" d="M513.69,-164.84C524.31,-156.09 537.94,-144.85 548.83,-135.88"/>
<polygon fill="#63b8ff" stroke="#63b8ff" points="551.37,-138.33 556.86,-129.27 546.92,-132.92 551.37,-138.33"/>
</a>
</g>
</g>
<!-- Node23 -->
<g id="Node000023" class="node">
<title>Node23</title>
<g id="a_Node000023"><a xlink:href="Vector3D_8hpp.html" target="_top" xlink:title=" ">
<polygon fill="white" stroke="#666666" points="636.5,-74 498.5,-74 498.5,-55 636.5,-55 636.5,-74"/>
<text text-anchor="middle" x="567.5" y="-62" font-family="Helvetica,sans-Serif" font-size="10.00">../Vector3D/Vector3D.hpp</text>
</a>
</g>
</g>
<!-- Node21&#45;&gt;Node23 -->
<g id="edge29_Node000021_Node000023" class="edge">
<title>Node21&#45;&gt;Node23</title>
<g id="a_edge29_Node000021_Node000023"><a xlink:title=" ">
<path fill="none" stroke="#63b8ff" d="M492.37,-164.78C488.96,-150.08 486.05,-126.95 495.5,-110 503.54,-95.58 518.4,-85.24 532.54,-78.18"/>
<polygon fill="#63b8ff" stroke="#63b8ff" points="534.01,-81.36 541.65,-74.01 531.1,-74.99 534.01,-81.36"/>
</a>
</g>
</g>
<!-- Node22&#45;&gt;Node23 -->
<g id="edge27_Node000022_Node000023" class="edge">
<title>Node22&#45;&gt;Node23</title>
<g id="a_edge27_Node000022_Node000023"><a xlink:title=" ">
<path fill="none" stroke="#63b8ff" d="M567.5,-109.75C567.5,-102.8 567.5,-92.85 567.5,-84.13"/>
<polygon fill="#63b8ff" stroke="#63b8ff" points="571,-84.09 567.5,-74.09 564,-84.09 571,-84.09"/>
</a>
</g>
</g>
<!-- Node24 -->
<g id="Node000024" class="node">
<title>Node24</title>
<g id="a_Node000024"><a xlink:title=" ">
<polygon fill="#e0e0e0" stroke="#999999" points="593,-19 542,-19 542,0 593,0 593,-19"/>
<text text-anchor="middle" x="567.5" y="-7" font-family="Helvetica,sans-Serif" font-size="10.00">math.h</text>
</a>
</g>
</g>
<!-- Node23&#45;&gt;Node24 -->
<g id="edge28_Node000023_Node000024" class="edge">
<title>Node23&#45;&gt;Node24</title>
<g id="a_edge28_Node000023_Node000024"><a xlink:title=" ">
<path fill="none" stroke="#63b8ff" d="M567.5,-54.75C567.5,-47.8 567.5,-37.85 567.5,-29.13"/>
<polygon fill="#63b8ff" stroke="#63b8ff" points="571,-29.09 567.5,-19.09 564,-29.09 571,-29.09"/>
</a>
</g>
</g>
<!-- Node26&#45;&gt;Node22 -->
<g id="edge36_Node000026_Node000022" class="edge">
<title>Node26&#45;&gt;Node22</title>
<g id="a_edge36_Node000026_Node000022"><a xlink:title=" ">
<path fill="none" stroke="#63b8ff" d="M621.31,-164.84C610.69,-156.09 597.06,-144.85 586.17,-135.88"/>
<polygon fill="#63b8ff" stroke="#63b8ff" points="588.08,-132.92 578.14,-129.27 583.63,-138.33 588.08,-132.92"/>
</a>
</g>
</g>
<!-- Node26&#45;&gt;Node23 -->
<g id="edge37_Node000026_Node000023" class="edge">
<title>Node26&#45;&gt;Node23</title>
<g id="a_edge37_Node000026_Node000023"><a xlink:title=" ">
<path fill="none" stroke="#63b8ff" d="M642.63,-164.78C646.04,-150.08 648.95,-126.95 639.5,-110 631.46,-95.58 616.6,-85.24 602.46,-78.18"/>
<polygon fill="#63b8ff" stroke="#63b8ff" points="603.9,-74.99 593.35,-74.01 600.99,-81.36 603.9,-74.99"/>
</a>
</g>
</g>
</g>
</svg>

<g id="navigator" transform="translate(0 0)" fill="#404254">
  <rect fill="#f2f5e9" fill-opacity="0.5" stroke="#606060" stroke-width=".5" x="0" y="0" width="60" height="60"/>
  <use id="zoomplus" xlink:href="#zoomPlus" x="17" y="9" onmousedown="handleZoom(evt,'in')"/>
  <use id="zoomminus" xlink:href="#zoomMin" x="42" y="9" onmousedown="handleZoom(evt,'out')"/>
  <use id="reset" xlink:href="#resetDef" x="30" y="36" onmousedown="handleReset()"/>
   <use id="arrowup" xlink:href="#arrowUp" x="0" y="0" onmousedown="handlePan(0,-1)"/>
  <use id="arrowright" xlink:href="#arrowRight" x="0" y="0" onmousedown="handlePan(1,0)"/>
  <use id="arrowdown" xlink:href="#arrowDown" x="0" y="0" onmousedown="handlePan(0,1)"/>
  <use id="arrowleft" xlink:href="#arrowLeft" x="0" y="0" onmousedown="handlePan(-1,0)"/>
</g>
<svg viewBox="0 0 15 15" width="100%" height="30px" preserveAspectRatio="xMaxYMin meet">
 <g id="arrow_out" transform="scale(0.3 0.3)">
  <a xlink:href="Parser_8hpp__incl_org.svg" target="_base">
   <rect id="button" ry="5" rx="5" y="6" x="6" height="38" width="38"
        fill="#f2f5e9" fill-opacity="0.5" stroke="#606060" stroke-width="1.0"/>
   <path id="arrow"
     d="M 11.500037,31.436501 C 11.940474,20.09759 22.043105,11.32322 32.158766,21.979434 L 37.068811,17.246167 C 37.068811,17.246167 37.088388,32 37.088388,32 L 22.160133,31.978069 C 22.160133,31.978069 26.997745,27.140456 26.997745,27.140456 C 18.528582,18.264221 13.291696,25.230495 11.500037,31.436501 z"
     style="fill:#404040;"/>
  </a>
 </g>
</svg>

<style type='text/css'>
<![CDATA[
[data-mouse-over-selected='false'] { opacity: 0.7; }
[data-mouse-over-selected='true']  { opacity: 1.0; }
]]>
</style>
<script type="application/ecmascript"><![CDATA[
document.addEventListener('DOMContentLoaded', (event) => {
  highlightEdges();
  highlightAdjacentNodes();
});
]]></script>
</svg>
