<?xml version="1.0" encoding="UTF-8" standalone="no"?>
<!DOCTYPE svg PUBLIC "-//W3C//DTD SVG 1.1//EN"
 "http://www.w3.org/Graphics/SVG/1.1/DTD/svg11.dtd">
<!-- Generated by graphviz version 2.43.0 (0)
 -->
<!-- Title: src/Objects/Primitives/Plane/Plane.hpp Pages: 1 -->
<svg width="523pt" height="643pt"
 viewBox="0.00 0.00 522.50 643.00" xmlns="http://www.w3.org/2000/svg" xmlns:xlink="http://www.w3.org/1999/xlink">
<g id="graph0" class="graph" transform="scale(1 1) rotate(0) translate(4 639)">
<title>src/Objects/Primitives/Plane/Plane.hpp</title>
<!-- Node1 -->
<g id="Node000001" class="node">
<title>Node1</title>
<g id="a_Node000001"><a xlink:title=" ">
<polygon fill="#999999" stroke="#666666" points="435.5,-635 312.5,-635 312.5,-605 435.5,-605 435.5,-635"/>
<text text-anchor="start" x="320.5" y="-623" font-family="Helvetica,sans-Serif" font-size="10.00">src/Objects/Primitives</text>
<text text-anchor="middle" x="374" y="-612" font-family="Helvetica,sans-Serif" font-size="10.00">/Plane/Plane.hpp</text>
</a>
</g>
</g>
<!-- Node2 -->
<g id="Node000002" class="node">
<title>Node2</title>
<g id="a_Node000002"><a xlink:href="IPrimitive_8hpp.html" target="_top" xlink:title=" ">
<polygon fill="white" stroke="#666666" points="382.5,-569 233.5,-569 233.5,-550 382.5,-550 382.5,-569"/>
<text text-anchor="middle" x="308" y="-557" font-family="Helvetica,sans-Serif" font-size="10.00">../../Interface/IPrimitive.hpp</text>
</a>
</g>
</g>
<!-- Node1&#45;&gt;Node2 -->
<g id="edge1_Node000001_Node000002" class="edge">
<title>Node1&#45;&gt;Node2</title>
<g id="a_edge1_Node000001_Node000002"><a xlink:title=" ">
<path fill="none" stroke="#63b8ff" d="M358.02,-604.84C348.25,-596.17 335.73,-585.08 325.66,-576.15"/>
<polygon fill="#63b8ff" stroke="#63b8ff" points="327.69,-573.28 317.89,-569.27 323.05,-578.52 327.69,-573.28"/>
</a>
</g>
</g>
<!-- Node9 -->
<g id="Node000009" class="node">
<title>Node9</title>
<g id="a_Node000009"><a xlink:href="IMaterial_8hpp.html" target="_top" xlink:title=" ">
<polygon fill="white" stroke="#666666" points="401,-448 283,-448 283,-418 401,-418 401,-448"/>
<text text-anchor="start" x="291" y="-436" font-family="Helvetica,sans-Serif" font-size="10.00">../../Objects/Interface</text>
<text text-anchor="middle" x="342" y="-425" font-family="Helvetica,sans-Serif" font-size="10.00">/IMaterial.hpp</text>
</a>
</g>
</g>
<!-- Node1&#45;&gt;Node9 -->
<g id="edge31_Node000001_Node000009" class="edge">
<title>Node1&#45;&gt;Node9</title>
<g id="a_edge31_Node000001_Node000009"><a xlink:title=" ">
<path fill="none" stroke="#63b8ff" d="M380.19,-604.88C384.16,-595.04 388.94,-581.48 391,-569 395.06,-544.43 387.97,-493.32 384,-484 379.56,-473.56 372.18,-463.65 364.83,-455.44"/>
<polygon fill="#63b8ff" stroke="#63b8ff" points="367.32,-452.98 357.89,-448.14 362.24,-457.8 367.32,-452.98"/>
</a>
</g>
</g>
<!-- Node3 -->
<g id="Node000003" class="node">
<title>Node3</title>
<g id="a_Node000003"><a xlink:title=" ">
<polygon fill="#e0e0e0" stroke="#999999" points="223,-508.5 167,-508.5 167,-489.5 223,-489.5 223,-508.5"/>
<text text-anchor="middle" x="195" y="-496.5" font-family="Helvetica,sans-Serif" font-size="10.00">optional</text>
</a>
</g>
</g>
<!-- Node2&#45;&gt;Node3 -->
<g id="edge2_Node000002_Node000003" class="edge">
<title>Node2&#45;&gt;Node3</title>
<g id="a_edge2_Node000002_Node000003"><a xlink:title=" ">
<path fill="none" stroke="#63b8ff" d="M291.33,-549.87C272.72,-540.23 242.38,-524.53 220.72,-513.31"/>
<polygon fill="#63b8ff" stroke="#63b8ff" points="222.23,-510.16 211.74,-508.67 219.01,-516.37 222.23,-510.16"/>
</a>
</g>
</g>
<!-- Node4 -->
<g id="Node000004" class="node">
<title>Node4</title>
<g id="a_Node000004"><a xlink:href="Ray_8hpp.html" target="_top" xlink:title=" ">
<polygon fill="white" stroke="#666666" points="171.5,-206 66.5,-206 66.5,-176 171.5,-176 171.5,-206"/>
<text text-anchor="start" x="74.5" y="-194" font-family="Helvetica,sans-Serif" font-size="10.00">../../Geometry/Ray</text>
<text text-anchor="middle" x="119" y="-183" font-family="Helvetica,sans-Serif" font-size="10.00">/Ray.hpp</text>
</a>
</g>
</g>
<!-- Node2&#45;&gt;Node4 -->
<g id="edge3_Node000002_Node000004" class="edge">
<title>Node2&#45;&gt;Node4</title>
<g id="a_edge3_Node000002_Node000004"><a xlink:title=" ">
<path fill="none" stroke="#63b8ff" d="M262.55,-549.97C176.88,-532.6 0,-489.95 0,-434 0,-434 0,-434 0,-311 0,-265.14 44.74,-230.78 79.36,-211.06"/>
<polygon fill="#63b8ff" stroke="#63b8ff" points="81.27,-214 88.35,-206.12 77.9,-207.86 81.27,-214"/>
</a>
</g>
</g>
<!-- Node8 -->
<g id="Node000008" class="node">
<title>Node8</title>
<g id="a_Node000008"><a xlink:href="HitRecord_8hpp.html" target="_top" xlink:title=" ">
<polygon fill="white" stroke="#666666" points="375,-514 241,-514 241,-484 375,-484 375,-514"/>
<text text-anchor="start" x="249" y="-502" font-family="Helvetica,sans-Serif" font-size="10.00">../../Geometry/HitRecord</text>
<text text-anchor="middle" x="308" y="-491" font-family="Helvetica,sans-Serif" font-size="10.00">/HitRecord.hpp</text>
</a>
</g>
</g>
<!-- Node2&#45;&gt;Node8 -->
<g id="edge8_Node000002_Node000008" class="edge">
<title>Node2&#45;&gt;Node8</title>
<g id="a_edge8_Node000002_Node000008"><a xlink:title=" ">
<path fill="none" stroke="#63b8ff" d="M308,-549.87C308,-543.11 308,-533.35 308,-524.26"/>
<polygon fill="#63b8ff" stroke="#63b8ff" points="311.5,-524.11 308,-514.11 304.5,-524.11 311.5,-524.11"/>
</a>
</g>
</g>
<!-- Node5 -->
<g id="Node000005" class="node">
<title>Node5</title>
<g id="a_Node000005"><a xlink:href="Point3D_8hpp.html" target="_top" xlink:title=" ">
<polygon fill="white" stroke="#666666" points="291.5,-140 166.5,-140 166.5,-110 291.5,-110 291.5,-140"/>
<text text-anchor="start" x="174.5" y="-128" font-family="Helvetica,sans-Serif" font-size="10.00">../../Geometry/Point3D</text>
<text text-anchor="middle" x="229" y="-117" font-family="Helvetica,sans-Serif" font-size="10.00">/Point3D.hpp</text>
</a>
</g>
</g>
<!-- Node4&#45;&gt;Node5 -->
<g id="edge4_Node000004_Node000005" class="edge">
<title>Node4&#45;&gt;Node5</title>
<g id="a_edge4_Node000004_Node000005"><a xlink:title=" ">
<path fill="none" stroke="#63b8ff" d="M143.14,-175.95C158.61,-166.95 178.91,-155.14 195.88,-145.27"/>
<polygon fill="#63b8ff" stroke="#63b8ff" points="198.03,-148.07 204.92,-140.01 194.51,-142.02 198.03,-148.07"/>
</a>
</g>
</g>
<!-- Node6 -->
<g id="Node000006" class="node">
<title>Node6</title>
<g id="a_Node000006"><a xlink:href="Vector3D_8hpp.html" target="_top" xlink:title=" ">
<polygon fill="white" stroke="#666666" points="298,-74 160,-74 160,-55 298,-55 298,-74"/>
<text text-anchor="middle" x="229" y="-62" font-family="Helvetica,sans-Serif" font-size="10.00">../Vector3D/Vector3D.hpp</text>
</a>
</g>
</g>
<!-- Node4&#45;&gt;Node6 -->
<g id="edge7_Node000004_Node000006" class="edge">
<title>Node4&#45;&gt;Node6</title>
<g id="a_edge7_Node000004_Node000006"><a xlink:title=" ">
<path fill="none" stroke="#63b8ff" d="M122.98,-175.88C128.4,-158.7 139.46,-129.59 157,-110 168.82,-96.8 185.48,-86.16 199.8,-78.6"/>
<polygon fill="#63b8ff" stroke="#63b8ff" points="201.43,-81.7 208.79,-74.08 198.29,-75.44 201.43,-81.7"/>
</a>
</g>
</g>
<!-- Node5&#45;&gt;Node6 -->
<g id="edge5_Node000005_Node000006" class="edge">
<title>Node5&#45;&gt;Node6</title>
<g id="a_edge5_Node000005_Node000006"><a xlink:title=" ">
<path fill="none" stroke="#63b8ff" d="M229,-109.84C229,-102.21 229,-92.7 229,-84.45"/>
<polygon fill="#63b8ff" stroke="#63b8ff" points="232.5,-84.27 229,-74.27 225.5,-84.27 232.5,-84.27"/>
</a>
</g>
</g>
<!-- Node7 -->
<g id="Node000007" class="node">
<title>Node7</title>
<g id="a_Node000007"><a xlink:title=" ">
<polygon fill="#e0e0e0" stroke="#999999" points="254.5,-19 203.5,-19 203.5,0 254.5,0 254.5,-19"/>
<text text-anchor="middle" x="229" y="-7" font-family="Helvetica,sans-Serif" font-size="10.00">math.h</text>
</a>
</g>
</g>
<!-- Node6&#45;&gt;Node7 -->
<g id="edge6_Node000006_Node000007" class="edge">
<title>Node6&#45;&gt;Node7</title>
<g id="a_edge6_Node000006_Node000007"><a xlink:title=" ">
<path fill="none" stroke="#63b8ff" d="M229,-54.75C229,-47.8 229,-37.85 229,-29.13"/>
<polygon fill="#63b8ff" stroke="#63b8ff" points="232.5,-29.09 229,-19.09 225.5,-29.09 232.5,-29.09"/>
</a>
</g>
</g>
<!-- Node8&#45;&gt;Node5 -->
<g id="edge9_Node000008_Node000005" class="edge">
<title>Node8&#45;&gt;Node5</title>
<g id="a_edge9_Node000008_Node000005"><a xlink:title=" ">
<path fill="none" stroke="#63b8ff" d="M255.3,-483.87C205.06,-466.83 137,-432.81 137,-373.5 137,-373.5 137,-373.5 137,-311 137,-279.19 142.79,-270.93 156,-242 163.99,-224.51 169.64,-222.2 180,-206 192.17,-186.96 205.55,-165.05 215.24,-148.98"/>
<polygon fill="#63b8ff" stroke="#63b8ff" points="218.33,-150.64 220.49,-140.26 212.33,-147.03 218.33,-150.64"/>
</a>
</g>
</g>
<!-- Node8&#45;&gt;Node6 -->
<g id="edge10_Node000008_Node000006" class="edge">
<title>Node8&#45;&gt;Node6</title>
<g id="a_edge10_Node000008_Node000006"><a xlink:title=" ">
<path fill="none" stroke="#63b8ff" d="M251.07,-483.97C171.85,-462.75 38,-420.02 38,-373.5 38,-373.5 38,-373.5 38,-190 38,-124.47 117.88,-91.63 174.33,-76.6"/>
<polygon fill="#63b8ff" stroke="#63b8ff" points="175.39,-79.94 184.22,-74.08 173.66,-73.16 175.39,-79.94"/>
</a>
</g>
</g>
<!-- Node8&#45;&gt;Node9 -->
<g id="edge11_Node000008_Node000009" class="edge">
<title>Node8&#45;&gt;Node9</title>
<g id="a_edge11_Node000008_Node000009"><a xlink:title=" ">
<path fill="none" stroke="#63b8ff" d="M309.83,-483.8C313.02,-475.84 318.13,-465.74 323.44,-456.71"/>
<polygon fill="#63b8ff" stroke="#63b8ff" points="326.45,-458.5 328.76,-448.16 320.51,-454.81 326.45,-458.5"/>
</a>
</g>
</g>
<!-- Node9&#45;&gt;Node8 -->
<g id="edge12_Node000009_Node000008" class="edge">
<title>Node9&#45;&gt;Node8</title>
<g id="a_edge12_Node000009_Node000008"><a xlink:title=" ">
<path fill="none" stroke="#63b8ff" d="M340.19,-448.16C337,-456.11 331.89,-466.21 326.58,-475.24"/>
<polygon fill="#63b8ff" stroke="#63b8ff" points="323.57,-473.46 321.27,-483.8 329.52,-477.15 323.57,-473.46"/>
</a>
</g>
</g>
<!-- Node10 -->
<g id="Node000010" class="node">
<title>Node10</title>
<g id="a_Node000010"><a xlink:href="Color_8hpp.html" target="_top" xlink:title=" ">
<polygon fill="white" stroke="#666666" points="271,-321.5 165,-321.5 165,-302.5 271,-302.5 271,-321.5"/>
<text text-anchor="middle" x="218" y="-309.5" font-family="Helvetica,sans-Serif" font-size="10.00">../../Utils/Color.hpp</text>
</a>
</g>
</g>
<!-- Node9&#45;&gt;Node10 -->
<g id="edge13_Node000009_Node000010" class="edge">
<title>Node9&#45;&gt;Node10</title>
<g id="a_edge13_Node000009_Node000010"><a xlink:title=" ">
<path fill="none" stroke="#63b8ff" d="M327.29,-417.88C304,-395.54 258.81,-352.16 234.47,-328.81"/>
<polygon fill="#63b8ff" stroke="#63b8ff" points="236.72,-326.11 227.08,-321.71 231.87,-331.16 236.72,-326.11"/>
</a>
</g>
</g>
<!-- Node12 -->
<g id="Node000012" class="node">
<title>Node12</title>
<g id="a_Node000012"><a xlink:href="ILight_8hpp.html" target="_top" xlink:title=" ">
<polygon fill="white" stroke="#666666" points="368.5,-382 303.5,-382 303.5,-363 368.5,-363 368.5,-382"/>
<text text-anchor="middle" x="336" y="-370" font-family="Helvetica,sans-Serif" font-size="10.00">ILight.hpp</text>
</a>
</g>
</g>
<!-- Node9&#45;&gt;Node12 -->
<g id="edge15_Node000009_Node000012" class="edge">
<title>Node9&#45;&gt;Node12</title>
<g id="a_edge15_Node000009_Node000012"><a xlink:title=" ">
<path fill="none" stroke="#63b8ff" d="M340.55,-417.84C339.77,-410.21 338.79,-400.7 337.94,-392.45"/>
<polygon fill="#63b8ff" stroke="#63b8ff" points="341.4,-391.86 336.9,-382.27 334.44,-392.57 341.4,-391.86"/>
</a>
</g>
</g>
<!-- Node16 -->
<g id="Node000016" class="node">
<title>Node16</title>
<g id="a_Node000016"><a xlink:title=" ">
<polygon fill="#e0e0e0" stroke="#999999" points="514.5,-261 467.5,-261 467.5,-242 514.5,-242 514.5,-261"/>
<text text-anchor="middle" x="491" y="-249" font-family="Helvetica,sans-Serif" font-size="10.00">vector</text>
</a>
</g>
</g>
<!-- Node9&#45;&gt;Node16 -->
<g id="edge30_Node000009_Node000016" class="edge">
<title>Node9&#45;&gt;Node16</title>
<g id="a_edge30_Node000009_Node000016"><a xlink:title=" ">
<path fill="none" stroke="#63b8ff" d="M354.21,-417.83C371.46,-397.75 403.91,-359.79 431,-327 447.27,-307.31 465.65,-284.39 477.73,-269.22"/>
<polygon fill="#63b8ff" stroke="#63b8ff" points="480.56,-271.28 484.05,-261.27 475.09,-266.92 480.56,-271.28"/>
</a>
</g>
</g>
<!-- Node11 -->
<g id="Node000011" class="node">
<title>Node11</title>
<g id="a_Node000011"><a xlink:title=" ">
<polygon fill="#e0e0e0" stroke="#999999" points="229,-261 165,-261 165,-242 229,-242 229,-261"/>
<text text-anchor="middle" x="197" y="-249" font-family="Helvetica,sans-Serif" font-size="10.00">algorithm</text>
</a>
</g>
</g>
<!-- Node10&#45;&gt;Node11 -->
<g id="edge14_Node000010_Node000011" class="edge">
<title>Node10&#45;&gt;Node11</title>
<g id="a_edge14_Node000010_Node000011"><a xlink:title=" ">
<path fill="none" stroke="#63b8ff" d="M214.9,-302.37C211.92,-294.07 207.33,-281.28 203.54,-270.72"/>
<polygon fill="#63b8ff" stroke="#63b8ff" points="206.78,-269.4 200.11,-261.17 200.2,-271.76 206.78,-269.4"/>
</a>
</g>
</g>
<!-- Node12&#45;&gt;Node8 -->
<g id="edge16_Node000012_Node000008" class="edge">
<title>Node12&#45;&gt;Node8</title>
<g id="a_edge16_Node000012_Node000008"><a xlink:title=" ">
<path fill="none" stroke="#63b8ff" d="M315.48,-382C300.98,-389.23 282.65,-401.14 274,-418 264.2,-437.09 275.78,-459.66 288.01,-475.95"/>
<polygon fill="#63b8ff" stroke="#63b8ff" points="285.36,-478.24 294.36,-483.85 290.82,-473.86 285.36,-478.24"/>
</a>
</g>
</g>
<!-- Node12&#45;&gt;Node10 -->
<g id="edge17_Node000012_Node000010" class="edge">
<title>Node12&#45;&gt;Node10</title>
<g id="a_edge17_Node000012_Node000010"><a xlink:title=" ">
<path fill="none" stroke="#63b8ff" d="M318.84,-362.99C299.27,-353.29 267.03,-337.31 244.28,-326.03"/>
<polygon fill="#63b8ff" stroke="#63b8ff" points="245.69,-322.82 235.18,-321.52 242.58,-329.09 245.69,-322.82"/>
</a>
</g>
</g>
<!-- Node13 -->
<g id="Node000013" class="node">
<title>Node13</title>
<g id="a_Node000013"><a xlink:href="Scene_8hpp.html" target="_top" xlink:title=" ">
<polygon fill="white" stroke="#666666" points="422.5,-327 289.5,-327 289.5,-297 422.5,-297 422.5,-327"/>
<text text-anchor="start" x="297.5" y="-315" font-family="Helvetica,sans-Serif" font-size="10.00">../../SceneSystem/Scene</text>
<text text-anchor="middle" x="356" y="-304" font-family="Helvetica,sans-Serif" font-size="10.00">/Scene.hpp</text>
</a>
</g>
</g>
<!-- Node12&#45;&gt;Node13 -->
<g id="edge18_Node000012_Node000013" class="edge">
<title>Node12&#45;&gt;Node13</title>
<g id="a_edge18_Node000012_Node000013"><a xlink:title=" ">
<path fill="none" stroke="#63b8ff" d="M334,-362.87C334.87,-355.89 337.79,-345.71 341.38,-336.38"/>
<polygon fill="#63b8ff" stroke="#63b8ff" points="344.63,-337.69 345.3,-327.11 338.18,-334.96 344.63,-337.69"/>
</a>
</g>
</g>
<!-- Node13&#45;&gt;Node2 -->
<g id="edge26_Node000013_Node000002" class="edge">
<title>Node13&#45;&gt;Node2</title>
<g id="a_edge26_Node000013_Node000002"><a xlink:title=" ">
<path fill="none" stroke="#63b8ff" d="M367.57,-327.03C385.93,-350.97 418.81,-401.62 410,-448 404.12,-478.97 404.51,-490.05 384,-514 372.33,-527.62 355.4,-538.1 340.48,-545.46"/>
<polygon fill="#63b8ff" stroke="#63b8ff" points="338.63,-542.46 331.04,-549.85 341.58,-548.81 338.63,-542.46"/>
</a>
</g>
</g>
<!-- Node13&#45;&gt;Node12 -->
<g id="edge27_Node000013_Node000012" class="edge">
<title>Node13&#45;&gt;Node12</title>
<g id="a_edge27_Node000013_Node000012"><a xlink:title=" ">
<path fill="none" stroke="#63b8ff" d="M357.05,-327.11C355.33,-335.13 352,-345.23 348.32,-353.78"/>
<polygon fill="#63b8ff" stroke="#63b8ff" points="345.13,-352.34 343.91,-362.87 351.42,-355.4 345.13,-352.34"/>
</a>
</g>
</g>
<!-- Node14 -->
<g id="Node000014" class="node">
<title>Node14</title>
<g id="a_Node000014"><a xlink:href="Camera_8hpp.html" target="_top" xlink:title=" ">
<polygon fill="white" stroke="#666666" points="449,-261 323,-261 323,-242 449,-242 449,-261"/>
<text text-anchor="middle" x="386" y="-249" font-family="Helvetica,sans-Serif" font-size="10.00">../Camera/Camera.hpp</text>
</a>
</g>
</g>
<!-- Node13&#45;&gt;Node14 -->
<g id="edge19_Node000013_Node000014" class="edge">
<title>Node13&#45;&gt;Node14</title>
<g id="a_edge19_Node000013_Node000014"><a xlink:title=" ">
<path fill="none" stroke="#63b8ff" d="M363.26,-296.84C367.35,-288.87 372.49,-278.84 376.86,-270.33"/>
<polygon fill="#63b8ff" stroke="#63b8ff" points="380.06,-271.76 381.5,-261.27 373.83,-268.57 380.06,-271.76"/>
</a>
</g>
</g>
<!-- Node13&#45;&gt;Node16 -->
<g id="edge28_Node000013_Node000016" class="edge">
<title>Node13&#45;&gt;Node16</title>
<g id="a_edge28_Node000013_Node000016"><a xlink:title=" ">
<path fill="none" stroke="#63b8ff" d="M388.34,-296.99C410.66,-287.31 440.1,-274.56 461.73,-265.18"/>
<polygon fill="#63b8ff" stroke="#63b8ff" points="463.28,-268.33 471.06,-261.14 460.5,-261.9 463.28,-268.33"/>
</a>
</g>
</g>
<!-- Node17 -->
<g id="Node000017" class="node">
<title>Node17</title>
<g id="a_Node000017"><a xlink:title=" ">
<polygon fill="#e0e0e0" stroke="#999999" points="305,-261 247,-261 247,-242 305,-242 305,-261"/>
<text text-anchor="middle" x="276" y="-249" font-family="Helvetica,sans-Serif" font-size="10.00">memory</text>
</a>
</g>
</g>
<!-- Node13&#45;&gt;Node17 -->
<g id="edge29_Node000013_Node000017" class="edge">
<title>Node13&#45;&gt;Node17</title>
<g id="a_edge29_Node000013_Node000017"><a xlink:title=" ">
<path fill="none" stroke="#63b8ff" d="M336.63,-296.84C324.43,-287.91 308.69,-276.41 296.31,-267.35"/>
<polygon fill="#63b8ff" stroke="#63b8ff" points="298.13,-264.34 287.99,-261.27 293.99,-269.99 298.13,-264.34"/>
</a>
</g>
</g>
<!-- Node14&#45;&gt;Node4 -->
<g id="edge25_Node000014_Node000004" class="edge">
<title>Node14&#45;&gt;Node4</title>
<g id="a_edge25_Node000014_Node000004"><a xlink:title=" ">
<path fill="none" stroke="#63b8ff" d="M347.18,-241.99C303.79,-232.49 232.91,-216.96 181.65,-205.73"/>
<polygon fill="#63b8ff" stroke="#63b8ff" points="182.19,-202.26 171.67,-203.54 180.69,-209.1 182.19,-202.26"/>
</a>
</g>
</g>
<!-- Node14&#45;&gt;Node5 -->
<g id="edge20_Node000014_Node000005" class="edge">
<title>Node14&#45;&gt;Node5</title>
<g id="a_edge20_Node000014_Node000005"><a xlink:title=" ">
<path fill="none" stroke="#63b8ff" d="M327.65,-241.95C303.09,-235.67 275.89,-224.8 257,-206 242.06,-191.13 235.07,-167.85 231.82,-150.23"/>
<polygon fill="#63b8ff" stroke="#63b8ff" points="235.24,-149.45 230.23,-140.11 228.32,-150.53 235.24,-149.45"/>
</a>
</g>
</g>
<!-- Node14&#45;&gt;Node6 -->
<g id="edge21_Node000014_Node000006" class="edge">
<title>Node14&#45;&gt;Node6</title>
<g id="a_edge21_Node000014_Node000006"><a xlink:title=" ">
<path fill="none" stroke="#63b8ff" d="M394.56,-241.55C407.09,-227.33 427.72,-198.82 416,-176 387.92,-121.3 319.76,-91.46 273.96,-76.99"/>
<polygon fill="#63b8ff" stroke="#63b8ff" points="274.85,-73.61 264.27,-74.05 272.82,-80.3 274.85,-73.61"/>
</a>
</g>
</g>
<!-- Node15 -->
<g id="Node000015" class="node">
<title>Node15</title>
<g id="a_Node000015"><a xlink:href="Rectangle3D_8hpp.html" target="_top" xlink:title=" ">
<polygon fill="white" stroke="#666666" points="407.5,-206 266.5,-206 266.5,-176 407.5,-176 407.5,-206"/>
<text text-anchor="start" x="274.5" y="-194" font-family="Helvetica,sans-Serif" font-size="10.00">../../Geometry/Rectangle3</text>
<text text-anchor="middle" x="337" y="-183" font-family="Helvetica,sans-Serif" font-size="10.00">D/Rectangle3D.hpp</text>
</a>
</g>
</g>
<!-- Node14&#45;&gt;Node15 -->
<g id="edge22_Node000014_Node000015" class="edge">
<title>Node14&#45;&gt;Node15</title>
<g id="a_edge22_Node000014_Node000015"><a xlink:title=" ">
<path fill="none" stroke="#63b8ff" d="M378.77,-241.87C372.61,-234.52 363.5,-223.63 355.35,-213.91"/>
<polygon fill="#63b8ff" stroke="#63b8ff" points="357.93,-211.53 348.82,-206.11 352.56,-216.03 357.93,-211.53"/>
</a>
</g>
</g>
<!-- Node15&#45;&gt;Node5 -->
<g id="edge23_Node000015_Node000005" class="edge">
<title>Node15&#45;&gt;Node5</title>
<g id="a_edge23_Node000015_Node000005"><a xlink:title=" ">
<path fill="none" stroke="#63b8ff" d="M313.3,-175.95C298.11,-166.95 278.18,-155.14 261.52,-145.27"/>
<polygon fill="#63b8ff" stroke="#63b8ff" points="263.03,-142.1 252.65,-140.01 259.46,-148.12 263.03,-142.1"/>
</a>
</g>
</g>
<!-- Node15&#45;&gt;Node6 -->
<g id="edge24_Node000015_Node000006" class="edge">
<title>Node15&#45;&gt;Node6</title>
<g id="a_edge24_Node000015_Node000006"><a xlink:title=" ">
<path fill="none" stroke="#63b8ff" d="M333.19,-175.89C327.99,-158.73 317.29,-129.64 300,-110 288.52,-96.96 272.29,-86.4 258.25,-78.85"/>
<polygon fill="#63b8ff" stroke="#63b8ff" points="259.46,-75.54 248.97,-74.1 256.28,-81.77 259.46,-75.54"/>
</a>
</g>
</g>
</g>
</svg>
