<?xml version="1.0" encoding="UTF-8" standalone="no"?>
<!DOCTYPE svg PUBLIC "-//W3C//DTD SVG 1.1//EN"
 "http://www.w3.org/Graphics/SVG/1.1/DTD/svg11.dtd">
<!-- Generated by graphviz version 2.43.0 (0)
 -->
<!-- Title: src/SceneSystem/PluginManager/PluginManager.cpp Pages: 1 -->
<svg width="1004pt" height="555pt"
 viewBox="0.00 0.00 1004.00 555.00" xmlns="http://www.w3.org/2000/svg" xmlns:xlink="http://www.w3.org/1999/xlink">
<g id="graph0" class="graph" transform="scale(1 1) rotate(0) translate(4 551)">
<title>src/SceneSystem/PluginManager/PluginManager.cpp</title>
<!-- Node1 -->
<g id="Node000001" class="node">
<title>Node1</title>
<g id="a_Node000001"><a xlink:title=" ">
<polygon fill="#999999" stroke="#666666" points="210,-547 34,-547 34,-517 210,-517 210,-547"/>
<text text-anchor="start" x="42" y="-535" font-family="Helvetica,sans-Serif" font-size="10.00">src/SceneSystem/PluginManager</text>
<text text-anchor="middle" x="122" y="-524" font-family="Helvetica,sans-Serif" font-size="10.00">/PluginManager.cpp</text>
</a>
</g>
</g>
<!-- Node2 -->
<g id="Node000002" class="node">
<title>Node2</title>
<g id="a_Node000002"><a xlink:href="PluginManager_8hpp.html" target="_top" xlink:title="Plugin manager for loading and managing plugins.">
<polygon fill="white" stroke="#666666" points="177,-481 67,-481 67,-462 177,-462 177,-481"/>
<text text-anchor="middle" x="122" y="-469" font-family="Helvetica,sans-Serif" font-size="10.00">PluginManager.hpp</text>
</a>
</g>
</g>
<!-- Node1&#45;&gt;Node2 -->
<g id="edge1_Node000001_Node000002" class="edge">
<title>Node1&#45;&gt;Node2</title>
<g id="a_edge1_Node000001_Node000002"><a xlink:title=" ">
<path fill="none" stroke="#63b8ff" d="M122,-516.84C122,-509.21 122,-499.7 122,-491.45"/>
<polygon fill="#63b8ff" stroke="#63b8ff" points="125.5,-491.27 122,-481.27 118.5,-491.27 125.5,-491.27"/>
</a>
</g>
</g>
<!-- Node3 -->
<g id="Node000003" class="node">
<title>Node3</title>
<g id="a_Node000003"><a xlink:title=" ">
<polygon fill="#e0e0e0" stroke="#999999" points="50,-426 0,-426 0,-407 50,-407 50,-426"/>
<text text-anchor="middle" x="25" y="-414" font-family="Helvetica,sans-Serif" font-size="10.00">dlfcn.h</text>
</a>
</g>
</g>
<!-- Node2&#45;&gt;Node3 -->
<g id="edge2_Node000002_Node000003" class="edge">
<title>Node2&#45;&gt;Node3</title>
<g id="a_edge2_Node000002_Node000003"><a xlink:title=" ">
<path fill="none" stroke="#63b8ff" d="M106.42,-461.98C91.23,-453.69 67.9,-440.94 50.1,-431.22"/>
<polygon fill="#63b8ff" stroke="#63b8ff" points="51.32,-427.89 40.87,-426.17 47.97,-434.04 51.32,-427.89"/>
</a>
</g>
</g>
<!-- Node4 -->
<g id="Node000004" class="node">
<title>Node4</title>
<g id="a_Node000004"><a xlink:title=" ">
<polygon fill="#e0e0e0" stroke="#999999" points="122,-426 68,-426 68,-407 122,-407 122,-426"/>
<text text-anchor="middle" x="95" y="-414" font-family="Helvetica,sans-Serif" font-size="10.00">dirent.h</text>
</a>
</g>
</g>
<!-- Node2&#45;&gt;Node4 -->
<g id="edge3_Node000002_Node000004" class="edge">
<title>Node2&#45;&gt;Node4</title>
<g id="a_edge3_Node000002_Node000004"><a xlink:title=" ">
<path fill="none" stroke="#63b8ff" d="M117.54,-461.75C113.88,-454.57 108.59,-444.18 104.05,-435.27"/>
<polygon fill="#63b8ff" stroke="#63b8ff" points="107.03,-433.41 99.38,-426.09 100.8,-436.59 107.03,-433.41"/>
</a>
</g>
</g>
<!-- Node5 -->
<g id="Node000005" class="node">
<title>Node5</title>
<g id="a_Node000005"><a xlink:title=" ">
<polygon fill="#e0e0e0" stroke="#999999" points="180,-305 120,-305 120,-286 180,-286 180,-305"/>
<text text-anchor="middle" x="150" y="-293" font-family="Helvetica,sans-Serif" font-size="10.00">iostream</text>
</a>
</g>
</g>
<!-- Node2&#45;&gt;Node5 -->
<g id="edge4_Node000002_Node000005" class="edge">
<title>Node2&#45;&gt;Node5</title>
<g id="a_edge4_Node000002_Node000005"><a xlink:title=" ">
<path fill="none" stroke="#63b8ff" d="M123.86,-461.99C125.79,-453.06 128.81,-438.58 131,-426 137.87,-386.59 144.28,-340.15 147.61,-314.98"/>
<polygon fill="#63b8ff" stroke="#63b8ff" points="151.08,-315.38 148.91,-305.01 144.14,-314.47 151.08,-315.38"/>
</a>
</g>
</g>
<!-- Node6 -->
<g id="Node000006" class="node">
<title>Node6</title>
<g id="a_Node000006"><a xlink:href="Plugin_8hpp.html" target="_top" xlink:title=" ">
<polygon fill="white" stroke="#666666" points="616.5,-426 491.5,-426 491.5,-407 616.5,-407 616.5,-426"/>
<text text-anchor="middle" x="554" y="-414" font-family="Helvetica,sans-Serif" font-size="10.00">../../Objects/Plugin.hpp</text>
</a>
</g>
</g>
<!-- Node2&#45;&gt;Node6 -->
<g id="edge5_Node000002_Node000006" class="edge">
<title>Node2&#45;&gt;Node6</title>
<g id="a_edge5_Node000002_Node000006"><a xlink:title=" ">
<path fill="none" stroke="#63b8ff" d="M177.15,-463.73C254.61,-454.23 395.72,-436.92 481.56,-426.39"/>
<polygon fill="#63b8ff" stroke="#63b8ff" points="481.99,-429.86 491.49,-425.17 481.14,-422.91 481.99,-429.86"/>
</a>
</g>
</g>
<!-- Node7 -->
<g id="Node000007" class="node">
<title>Node7</title>
<g id="a_Node000007"><a xlink:title=" ">
<polygon fill="#e0e0e0" stroke="#999999" points="437.5,-365.5 372.5,-365.5 372.5,-346.5 437.5,-346.5 437.5,-365.5"/>
<text text-anchor="middle" x="405" y="-353.5" font-family="Helvetica,sans-Serif" font-size="10.00">functional</text>
</a>
</g>
</g>
<!-- Node6&#45;&gt;Node7 -->
<g id="edge6_Node000006_Node000007" class="edge">
<title>Node6&#45;&gt;Node7</title>
<g id="a_edge6_Node000006_Node000007"><a xlink:title=" ">
<path fill="none" stroke="#63b8ff" d="M532.33,-406.99C507.06,-397.07 465.09,-380.59 436.28,-369.28"/>
<polygon fill="#63b8ff" stroke="#63b8ff" points="437.28,-365.91 426.69,-365.52 434.72,-372.43 437.28,-365.91"/>
</a>
</g>
</g>
<!-- Node8 -->
<g id="Node000008" class="node">
<title>Node8</title>
<g id="a_Node000008"><a xlink:title=" ">
<polygon fill="#e0e0e0" stroke="#999999" points="454,-189.5 396,-189.5 396,-170.5 454,-170.5 454,-189.5"/>
<text text-anchor="middle" x="425" y="-177.5" font-family="Helvetica,sans-Serif" font-size="10.00">memory</text>
</a>
</g>
</g>
<!-- Node6&#45;&gt;Node8 -->
<g id="edge7_Node000006_Node000008" class="edge">
<title>Node6&#45;&gt;Node8</title>
<g id="a_edge7_Node000006_Node000008"><a xlink:title=" ">
<path fill="none" stroke="#63b8ff" d="M549.18,-406.98C544.12,-398.04 535.96,-383.55 529,-371 493.96,-307.82 452.94,-232.46 434.65,-198.78"/>
<polygon fill="#63b8ff" stroke="#63b8ff" points="437.58,-196.85 429.73,-189.73 431.43,-200.19 437.58,-196.85"/>
</a>
</g>
</g>
<!-- Node9 -->
<g id="Node000009" class="node">
<title>Node9</title>
<g id="a_Node000009"><a xlink:title=" ">
<polygon fill="#e0e0e0" stroke="#999999" points="939.5,-365.5 888.5,-365.5 888.5,-346.5 939.5,-346.5 939.5,-365.5"/>
<text text-anchor="middle" x="914" y="-353.5" font-family="Helvetica,sans-Serif" font-size="10.00">variant</text>
</a>
</g>
</g>
<!-- Node6&#45;&gt;Node9 -->
<g id="edge8_Node000006_Node000009" class="edge">
<title>Node6&#45;&gt;Node9</title>
<g id="a_edge8_Node000006_Node000009"><a xlink:title=" ">
<path fill="none" stroke="#63b8ff" d="M616.59,-411.49C682.69,-406.2 789.53,-394.64 879,-371 881.16,-370.43 883.36,-369.76 885.57,-369.03"/>
<polygon fill="#63b8ff" stroke="#63b8ff" points="886.85,-372.29 895.03,-365.57 884.44,-365.72 886.85,-372.29"/>
</a>
</g>
</g>
<!-- Node10 -->
<g id="Node000010" class="node">
<title>Node10</title>
<g id="a_Node000010"><a xlink:title=" ">
<polygon fill="#e0e0e0" stroke="#999999" points="996,-365.5 958,-365.5 958,-346.5 996,-346.5 996,-365.5"/>
<text text-anchor="middle" x="977" y="-353.5" font-family="Helvetica,sans-Serif" font-size="10.00">map</text>
</a>
</g>
</g>
<!-- Node6&#45;&gt;Node10 -->
<g id="edge9_Node000006_Node000010" class="edge">
<title>Node6&#45;&gt;Node10</title>
<g id="a_edge9_Node000006_Node000010"><a xlink:title=" ">
<path fill="none" stroke="#63b8ff" d="M616.57,-415.17C695.6,-413.23 835.02,-404.75 949,-371 950.26,-370.63 951.53,-370.2 952.8,-369.73"/>
<polygon fill="#63b8ff" stroke="#63b8ff" points="954.54,-372.79 962.29,-365.57 951.72,-366.38 954.54,-372.79"/>
</a>
</g>
</g>
<!-- Node11 -->
<g id="Node000011" class="node">
<title>Node11</title>
<g id="a_Node000011"><a xlink:href="RaytracerException_8hpp.html" target="_top" xlink:title=" ">
<polygon fill="white" stroke="#666666" points="354.5,-371 177.5,-371 177.5,-341 354.5,-341 354.5,-371"/>
<text text-anchor="start" x="185.5" y="-359" font-family="Helvetica,sans-Serif" font-size="10.00">../Exceptions/RaytracerException</text>
<text text-anchor="middle" x="266" y="-348" font-family="Helvetica,sans-Serif" font-size="10.00">/RaytracerException.hpp</text>
</a>
</g>
</g>
<!-- Node6&#45;&gt;Node11 -->
<g id="edge10_Node000006_Node000011" class="edge">
<title>Node6&#45;&gt;Node11</title>
<g id="a_edge10_Node000006_Node000011"><a xlink:title=" ">
<path fill="none" stroke="#63b8ff" d="M512.12,-406.99C468.43,-398.12 398.89,-383.99 344.86,-373.02"/>
<polygon fill="#63b8ff" stroke="#63b8ff" points="345.46,-369.57 334.96,-371.01 344.06,-376.43 345.46,-369.57"/>
</a>
</g>
</g>
<!-- Node15 -->
<g id="Node000015" class="node">
<title>Node15</title>
<g id="a_Node000015"><a xlink:href="AInterface_8hpp.html" target="_top" xlink:title=" ">
<polygon fill="white" stroke="#666666" points="698,-371 582,-371 582,-341 698,-341 698,-371"/>
<text text-anchor="start" x="590" y="-359" font-family="Helvetica,sans-Serif" font-size="10.00">Abstracts/AInterface</text>
<text text-anchor="middle" x="640" y="-348" font-family="Helvetica,sans-Serif" font-size="10.00">/AInterface.hpp</text>
</a>
</g>
</g>
<!-- Node6&#45;&gt;Node15 -->
<g id="edge15_Node000006_Node000015" class="edge">
<title>Node6&#45;&gt;Node15</title>
<g id="a_edge15_Node000006_Node000015"><a xlink:title=" ">
<path fill="none" stroke="#63b8ff" d="M566.69,-406.87C578.25,-399 595.76,-387.09 610.77,-376.89"/>
<polygon fill="#63b8ff" stroke="#63b8ff" points="612.95,-379.63 619.25,-371.11 609.01,-373.85 612.95,-379.63"/>
</a>
</g>
</g>
<!-- Node16 -->
<g id="Node000016" class="node">
<title>Node16</title>
<g id="a_Node000016"><a xlink:href="ARenderer_8hpp.html" target="_top" xlink:title=" ">
<polygon fill="white" stroke="#666666" points="717.5,-250 566.5,-250 566.5,-231 717.5,-231 717.5,-250"/>
<text text-anchor="middle" x="642" y="-238" font-family="Helvetica,sans-Serif" font-size="10.00">../ARenderer/ARenderer.hpp</text>
</a>
</g>
</g>
<!-- Node6&#45;&gt;Node16 -->
<g id="edge37_Node000006_Node000016" class="edge">
<title>Node6&#45;&gt;Node16</title>
<g id="a_edge37_Node000006_Node000016"><a xlink:title=" ">
<path fill="none" stroke="#63b8ff" d="M555.17,-406.9C557.33,-392.68 562.69,-363.59 573,-341 587.46,-309.3 612.12,-276.94 627.71,-258.06"/>
<polygon fill="#63b8ff" stroke="#63b8ff" points="630.6,-260.07 634.36,-250.16 625.24,-255.56 630.6,-260.07"/>
</a>
</g>
</g>
<!-- Node20 -->
<g id="Node000020" class="node">
<title>Node20</title>
<g id="a_Node000020"><a xlink:href="APrimitive_8hpp.html" target="_top" xlink:title=" ">
<polygon fill="white" stroke="#666666" points="870,-371 754,-371 754,-341 870,-341 870,-371"/>
<text text-anchor="start" x="762" y="-359" font-family="Helvetica,sans-Serif" font-size="10.00">Abstracts/APrimitive</text>
<text text-anchor="middle" x="812" y="-348" font-family="Helvetica,sans-Serif" font-size="10.00">/APrimitive.hpp</text>
</a>
</g>
</g>
<!-- Node6&#45;&gt;Node20 -->
<g id="edge20_Node000006_Node000020" class="edge">
<title>Node6&#45;&gt;Node20</title>
<g id="a_edge20_Node000006_Node000020"><a xlink:title=" ">
<path fill="none" stroke="#63b8ff" d="M591.52,-406.99C631.39,-397.95 695.3,-383.46 744.07,-372.4"/>
<polygon fill="#63b8ff" stroke="#63b8ff" points="744.95,-375.79 753.93,-370.17 743.4,-368.97 744.95,-375.79"/>
</a>
</g>
</g>
<!-- Node21 -->
<g id="Node000021" class="node">
<title>Node21</title>
<g id="a_Node000021"><a xlink:href="IMaterial_8hpp.html" target="_top" xlink:title=" ">
<polygon fill="white" stroke="#666666" points="772,-305 682,-305 682,-286 772,-286 772,-305"/>
<text text-anchor="middle" x="727" y="-293" font-family="Helvetica,sans-Serif" font-size="10.00">../IMaterial.hpp</text>
</a>
</g>
</g>
<!-- Node6&#45;&gt;Node21 -->
<g id="edge39_Node000006_Node000021" class="edge">
<title>Node6&#45;&gt;Node21</title>
<g id="a_edge39_Node000006_Node000021"><a xlink:title=" ">
<path fill="none" stroke="#63b8ff" d="M616.85,-411.44C647.82,-406.26 683.48,-395.01 707,-371 721.47,-356.23 725.76,-332.18 726.89,-315.42"/>
<polygon fill="#63b8ff" stroke="#63b8ff" points="730.39,-315.29 727.25,-305.18 723.4,-315.05 730.39,-315.29"/>
</a>
</g>
</g>
<!-- Node22 -->
<g id="Node000022" class="node">
<title>Node22</title>
<g id="a_Node000022"><a xlink:href="ILight_8hpp.html" target="_top" xlink:title=" ">
<polygon fill="white" stroke="#666666" points="548.5,-250 483.5,-250 483.5,-231 548.5,-231 548.5,-250"/>
<text text-anchor="middle" x="516" y="-238" font-family="Helvetica,sans-Serif" font-size="10.00">ILight.hpp</text>
</a>
</g>
</g>
<!-- Node6&#45;&gt;Node22 -->
<g id="edge38_Node000006_Node000022" class="edge">
<title>Node6&#45;&gt;Node22</title>
<g id="a_edge38_Node000006_Node000022"><a xlink:title=" ">
<path fill="none" stroke="#63b8ff" d="M550.89,-406.72C547.82,-397.81 543.13,-383.57 540,-371 530.27,-331.94 522.58,-285.36 518.72,-260.08"/>
<polygon fill="#63b8ff" stroke="#63b8ff" points="522.16,-259.43 517.22,-250.06 515.23,-260.47 522.16,-259.43"/>
</a>
</g>
</g>
<!-- Node11&#45;&gt;Node5 -->
<g id="edge12_Node000011_Node000005" class="edge">
<title>Node11&#45;&gt;Node5</title>
<g id="a_edge12_Node000011_Node000005"><a xlink:title=" ">
<path fill="none" stroke="#63b8ff" d="M238.22,-340.99C219.38,-331.49 194.65,-319.02 176.16,-309.69"/>
<polygon fill="#63b8ff" stroke="#63b8ff" points="177.64,-306.52 167.13,-305.14 174.48,-312.77 177.64,-306.52"/>
</a>
</g>
</g>
<!-- Node12 -->
<g id="Node000012" class="node">
<title>Node12</title>
<g id="a_Node000012"><a xlink:title=" ">
<polygon fill="#e0e0e0" stroke="#999999" points="263.5,-305 198.5,-305 198.5,-286 263.5,-286 263.5,-305"/>
<text text-anchor="middle" x="231" y="-293" font-family="Helvetica,sans-Serif" font-size="10.00">exception</text>
</a>
</g>
</g>
<!-- Node11&#45;&gt;Node12 -->
<g id="edge11_Node000011_Node000012" class="edge">
<title>Node11&#45;&gt;Node12</title>
<g id="a_edge11_Node000011_Node000012"><a xlink:title=" ">
<path fill="none" stroke="#63b8ff" d="M257.53,-340.84C252.71,-332.78 246.63,-322.62 241.5,-314.06"/>
<polygon fill="#63b8ff" stroke="#63b8ff" points="244.38,-312.05 236.24,-305.27 238.38,-315.64 244.38,-312.05"/>
</a>
</g>
</g>
<!-- Node13 -->
<g id="Node000013" class="node">
<title>Node13</title>
<g id="a_Node000013"><a xlink:title=" ">
<polygon fill="#e0e0e0" stroke="#999999" points="326,-305 282,-305 282,-286 326,-286 326,-305"/>
<text text-anchor="middle" x="304" y="-293" font-family="Helvetica,sans-Serif" font-size="10.00">string</text>
</a>
</g>
</g>
<!-- Node11&#45;&gt;Node13 -->
<g id="edge13_Node000011_Node000013" class="edge">
<title>Node11&#45;&gt;Node13</title>
<g id="a_edge13_Node000011_Node000013"><a xlink:title=" ">
<path fill="none" stroke="#63b8ff" d="M275.2,-340.84C280.49,-332.69 287.18,-322.4 292.78,-313.78"/>
<polygon fill="#63b8ff" stroke="#63b8ff" points="295.79,-315.56 298.31,-305.27 289.92,-311.75 295.79,-315.56"/>
</a>
</g>
</g>
<!-- Node14 -->
<g id="Node000014" class="node">
<title>Node14</title>
<g id="a_Node000014"><a xlink:title=" ">
<polygon fill="#e0e0e0" stroke="#999999" points="437.5,-305 344.5,-305 344.5,-286 437.5,-286 437.5,-305"/>
<text text-anchor="middle" x="391" y="-293" font-family="Helvetica,sans-Serif" font-size="10.00">source_location</text>
</a>
</g>
</g>
<!-- Node11&#45;&gt;Node14 -->
<g id="edge14_Node000011_Node000014" class="edge">
<title>Node11&#45;&gt;Node14</title>
<g id="a_edge14_Node000011_Node000014"><a xlink:title=" ">
<path fill="none" stroke="#63b8ff" d="M295.94,-340.99C316.42,-331.4 343.38,-318.79 363.35,-309.44"/>
<polygon fill="#63b8ff" stroke="#63b8ff" points="364.97,-312.55 372.54,-305.14 362,-306.21 364.97,-312.55"/>
</a>
</g>
</g>
<!-- Node15&#45;&gt;Node16 -->
<g id="edge16_Node000015_Node000016" class="edge">
<title>Node15&#45;&gt;Node16</title>
<g id="a_edge16_Node000015_Node000016"><a xlink:title=" ">
<path fill="none" stroke="#63b8ff" d="M640.25,-340.63C640.61,-320.21 641.27,-282.81 641.67,-260.24"/>
<polygon fill="#63b8ff" stroke="#63b8ff" points="645.17,-260.29 641.85,-250.23 638.17,-260.17 645.17,-260.29"/>
</a>
</g>
</g>
<!-- Node17 -->
<g id="Node000017" class="node">
<title>Node17</title>
<g id="a_Node000017"><a xlink:href="Color_8hpp.html" target="_top" xlink:title=" ">
<polygon fill="white" stroke="#666666" points="587.5,-189.5 472.5,-189.5 472.5,-170.5 587.5,-170.5 587.5,-189.5"/>
<text text-anchor="middle" x="530" y="-177.5" font-family="Helvetica,sans-Serif" font-size="10.00">../../../Utils/Color.hpp</text>
</a>
</g>
</g>
<!-- Node16&#45;&gt;Node17 -->
<g id="edge17_Node000016_Node000017" class="edge">
<title>Node16&#45;&gt;Node17</title>
<g id="a_edge17_Node000016_Node000017"><a xlink:title=" ">
<path fill="none" stroke="#63b8ff" d="M625.47,-230.87C607.03,-221.23 576.96,-205.53 555.49,-194.31"/>
<polygon fill="#63b8ff" stroke="#63b8ff" points="557.08,-191.19 546.59,-189.67 553.84,-197.4 557.08,-191.19"/>
</a>
</g>
</g>
<!-- Node19 -->
<g id="Node000019" class="node">
<title>Node19</title>
<g id="a_Node000019"><a xlink:title=" ">
<polygon fill="#e0e0e0" stroke="#999999" points="805.5,-189.5 758.5,-189.5 758.5,-170.5 805.5,-170.5 805.5,-189.5"/>
<text text-anchor="middle" x="782" y="-177.5" font-family="Helvetica,sans-Serif" font-size="10.00">vector</text>
</a>
</g>
</g>
<!-- Node16&#45;&gt;Node19 -->
<g id="edge19_Node000016_Node000019" class="edge">
<title>Node16&#45;&gt;Node19</title>
<g id="a_edge19_Node000016_Node000019"><a xlink:title=" ">
<path fill="none" stroke="#63b8ff" d="M662.93,-230.85C684.51,-221.91 719.14,-207.54 749,-195 750.16,-194.51 751.35,-194.01 752.54,-193.51"/>
<polygon fill="#63b8ff" stroke="#63b8ff" points="753.92,-196.73 761.77,-189.61 751.19,-190.28 753.92,-196.73"/>
</a>
</g>
</g>
<!-- Node18 -->
<g id="Node000018" class="node">
<title>Node18</title>
<g id="a_Node000018"><a xlink:title=" ">
<polygon fill="#e0e0e0" stroke="#999999" points="562,-129 498,-129 498,-110 562,-110 562,-129"/>
<text text-anchor="middle" x="530" y="-117" font-family="Helvetica,sans-Serif" font-size="10.00">algorithm</text>
</a>
</g>
</g>
<!-- Node17&#45;&gt;Node18 -->
<g id="edge18_Node000017_Node000018" class="edge">
<title>Node17&#45;&gt;Node18</title>
<g id="a_edge18_Node000017_Node000018"><a xlink:title=" ">
<path fill="none" stroke="#63b8ff" d="M530,-170.37C530,-162.25 530,-149.81 530,-139.39"/>
<polygon fill="#63b8ff" stroke="#63b8ff" points="533.5,-139.17 530,-129.17 526.5,-139.17 533.5,-139.17"/>
</a>
</g>
</g>
<!-- Node20&#45;&gt;Node21 -->
<g id="edge21_Node000020_Node000021" class="edge">
<title>Node20&#45;&gt;Node21</title>
<g id="a_edge21_Node000020_Node000021"><a xlink:title=" ">
<path fill="none" stroke="#63b8ff" d="M791.42,-340.84C778.33,-331.83 761.41,-320.18 748.2,-311.09"/>
<polygon fill="#63b8ff" stroke="#63b8ff" points="749.96,-308.05 739.74,-305.27 745.99,-313.82 749.96,-308.05"/>
</a>
</g>
</g>
<!-- Node27 -->
<g id="Node000027" class="node">
<title>Node27</title>
<g id="a_Node000027"><a xlink:title=" ">
<polygon fill="#e0e0e0" stroke="#999999" points="846,-305 790,-305 790,-286 846,-286 846,-305"/>
<text text-anchor="middle" x="818" y="-293" font-family="Helvetica,sans-Serif" font-size="10.00">optional</text>
</a>
</g>
</g>
<!-- Node20&#45;&gt;Node27 -->
<g id="edge33_Node000020_Node000027" class="edge">
<title>Node20&#45;&gt;Node27</title>
<g id="a_edge33_Node000020_Node000027"><a xlink:title=" ">
<path fill="none" stroke="#63b8ff" d="M813.45,-340.84C814.23,-333.21 815.21,-323.7 816.06,-315.45"/>
<polygon fill="#63b8ff" stroke="#63b8ff" points="819.56,-315.57 817.1,-305.27 812.6,-314.86 819.56,-315.57"/>
</a>
</g>
</g>
<!-- Node28 -->
<g id="Node000028" class="node">
<title>Node28</title>
<g id="a_Node000028"><a xlink:href="Ray_8hpp.html" target="_top" xlink:title=" ">
<polygon fill="white" stroke="#666666" points="938,-195 824,-195 824,-165 938,-165 938,-195"/>
<text text-anchor="start" x="832" y="-183" font-family="Helvetica,sans-Serif" font-size="10.00">../../../Geometry/Ray</text>
<text text-anchor="middle" x="881" y="-172" font-family="Helvetica,sans-Serif" font-size="10.00">/Ray.hpp</text>
</a>
</g>
</g>
<!-- Node20&#45;&gt;Node28 -->
<g id="edge34_Node000020_Node000028" class="edge">
<title>Node20&#45;&gt;Node28</title>
<g id="a_edge34_Node000020_Node000028"><a xlink:title=" ">
<path fill="none" stroke="#63b8ff" d="M827.78,-340.71C837.09,-331.42 848.31,-318.55 855,-305 870.93,-272.73 877.12,-231.05 879.51,-205.18"/>
<polygon fill="#63b8ff" stroke="#63b8ff" points="883,-205.38 880.32,-195.13 876.03,-204.82 883,-205.38"/>
</a>
</g>
</g>
<!-- Node21&#45;&gt;Node17 -->
<g id="edge22_Node000021_Node000017" class="edge">
<title>Node21&#45;&gt;Node17</title>
<g id="a_edge22_Node000021_Node000017"><a xlink:title=" ">
<path fill="none" stroke="#63b8ff" d="M730.09,-285.62C734.12,-272.25 739.32,-246.84 727,-231 722.35,-225.02 635.33,-204.57 578.51,-191.75"/>
<polygon fill="#63b8ff" stroke="#63b8ff" points="579.15,-188.31 568.63,-189.53 577.62,-195.14 579.15,-188.31"/>
</a>
</g>
</g>
<!-- Node21&#45;&gt;Node19 -->
<g id="edge32_Node000021_Node000019" class="edge">
<title>Node21&#45;&gt;Node19</title>
<g id="a_edge32_Node000021_Node000019"><a xlink:title=" ">
<path fill="none" stroke="#63b8ff" d="M734.76,-285.88C742.13,-277.31 753.07,-263.53 760,-250 768.23,-233.93 774.15,-214.18 777.76,-199.93"/>
<polygon fill="#63b8ff" stroke="#63b8ff" points="781.25,-200.4 780.16,-189.86 774.44,-198.77 781.25,-200.4"/>
</a>
</g>
</g>
<!-- Node21&#45;&gt;Node22 -->
<g id="edge23_Node000021_Node000022" class="edge">
<title>Node21&#45;&gt;Node22</title>
<g id="a_edge23_Node000021_Node000022"><a xlink:title=" ">
<path fill="none" stroke="#63b8ff" d="M693.1,-285.98C656.56,-276.81 598.31,-262.18 558.68,-252.22"/>
<polygon fill="#63b8ff" stroke="#63b8ff" points="559.33,-248.77 548.78,-249.73 557.62,-255.56 559.33,-248.77"/>
</a>
</g>
</g>
<!-- Node22&#45;&gt;Node8 -->
<g id="edge31_Node000022_Node000008" class="edge">
<title>Node22&#45;&gt;Node8</title>
<g id="a_edge31_Node000022_Node000008"><a xlink:title=" ">
<path fill="none" stroke="#63b8ff" d="M502.57,-230.87C487.92,-221.45 464.24,-206.23 446.9,-195.08"/>
<polygon fill="#63b8ff" stroke="#63b8ff" points="448.79,-192.13 438.48,-189.67 445,-198.02 448.79,-192.13"/>
</a>
</g>
</g>
<!-- Node22&#45;&gt;Node17 -->
<g id="edge29_Node000022_Node000017" class="edge">
<title>Node22&#45;&gt;Node17</title>
<g id="a_edge29_Node000022_Node000017"><a xlink:title=" ">
<path fill="none" stroke="#63b8ff" d="M518.07,-230.87C520.03,-222.66 523.05,-210.04 525.56,-199.55"/>
<polygon fill="#63b8ff" stroke="#63b8ff" points="529,-200.21 527.93,-189.67 522.19,-198.58 529,-200.21"/>
</a>
</g>
</g>
<!-- Node22&#45;&gt;Node19 -->
<g id="edge30_Node000022_Node000019" class="edge">
<title>Node22&#45;&gt;Node19</title>
<g id="a_edge30_Node000022_Node000019"><a xlink:title=" ">
<path fill="none" stroke="#63b8ff" d="M548.55,-232.87C551.74,-232.23 554.93,-231.6 558,-231 642.78,-214.43 666.32,-220.01 749,-195 750.68,-194.49 752.39,-193.93 754.1,-193.32"/>
<polygon fill="#63b8ff" stroke="#63b8ff" points="755.71,-196.45 763.76,-189.56 753.17,-189.93 755.71,-196.45"/>
</a>
</g>
</g>
<!-- Node23 -->
<g id="Node000023" class="node">
<title>Node23</title>
<g id="a_Node000023"><a xlink:href="HitRecord_8hpp.html" target="_top" xlink:title=" ">
<polygon fill="white" stroke="#666666" points="740,-195 606,-195 606,-165 740,-165 740,-195"/>
<text text-anchor="start" x="614" y="-183" font-family="Helvetica,sans-Serif" font-size="10.00">../../Geometry/HitRecord</text>
<text text-anchor="middle" x="673" y="-172" font-family="Helvetica,sans-Serif" font-size="10.00">/HitRecord.hpp</text>
</a>
</g>
</g>
<!-- Node22&#45;&gt;Node23 -->
<g id="edge24_Node000022_Node000023" class="edge">
<title>Node22&#45;&gt;Node23</title>
<g id="a_edge24_Node000022_Node000023"><a xlink:title=" ">
<path fill="none" stroke="#63b8ff" d="M538.83,-230.99C561.52,-222.54 597,-209.32 625.78,-198.59"/>
<polygon fill="#63b8ff" stroke="#63b8ff" points="627.11,-201.84 635.25,-195.06 624.66,-195.28 627.11,-201.84"/>
</a>
</g>
</g>
<!-- Node24 -->
<g id="Node000024" class="node">
<title>Node24</title>
<g id="a_Node000024"><a xlink:href="Point3D_8hpp.html" target="_top" xlink:title=" ">
<polygon fill="white" stroke="#666666" points="843,-129 717,-129 717,-110 843,-110 843,-129"/>
<text text-anchor="middle" x="780" y="-117" font-family="Helvetica,sans-Serif" font-size="10.00">../Point3D/Point3D.hpp</text>
</a>
</g>
</g>
<!-- Node23&#45;&gt;Node24 -->
<g id="edge25_Node000023_Node000024" class="edge">
<title>Node23&#45;&gt;Node24</title>
<g id="a_edge25_Node000023_Node000024"><a xlink:title=" ">
<path fill="none" stroke="#63b8ff" d="M698.63,-164.99C715.84,-155.58 738.4,-143.24 755.4,-133.95"/>
<polygon fill="#63b8ff" stroke="#63b8ff" points="757.1,-137.01 764.2,-129.14 753.75,-130.87 757.1,-137.01"/>
</a>
</g>
</g>
<!-- Node25 -->
<g id="Node000025" class="node">
<title>Node25</title>
<g id="a_Node000025"><a xlink:href="Vector3D_8hpp.html" target="_top" xlink:title=" ">
<polygon fill="white" stroke="#666666" points="849,-74 711,-74 711,-55 849,-55 849,-74"/>
<text text-anchor="middle" x="780" y="-62" font-family="Helvetica,sans-Serif" font-size="10.00">../Vector3D/Vector3D.hpp</text>
</a>
</g>
</g>
<!-- Node23&#45;&gt;Node25 -->
<g id="edge28_Node000023_Node000025" class="edge">
<title>Node23&#45;&gt;Node25</title>
<g id="a_edge28_Node000023_Node000025"><a xlink:title=" ">
<path fill="none" stroke="#63b8ff" d="M677.54,-164.95C682.92,-149.97 693.09,-126.22 708,-110 720.07,-96.87 736.89,-86.18 751.23,-78.58"/>
<polygon fill="#63b8ff" stroke="#63b8ff" points="752.88,-81.66 760.23,-74.03 749.72,-75.42 752.88,-81.66"/>
</a>
</g>
</g>
<!-- Node24&#45;&gt;Node25 -->
<g id="edge26_Node000024_Node000025" class="edge">
<title>Node24&#45;&gt;Node25</title>
<g id="a_edge26_Node000024_Node000025"><a xlink:title=" ">
<path fill="none" stroke="#63b8ff" d="M780,-109.75C780,-102.8 780,-92.85 780,-84.13"/>
<polygon fill="#63b8ff" stroke="#63b8ff" points="783.5,-84.09 780,-74.09 776.5,-84.09 783.5,-84.09"/>
</a>
</g>
</g>
<!-- Node26 -->
<g id="Node000026" class="node">
<title>Node26</title>
<g id="a_Node000026"><a xlink:title=" ">
<polygon fill="#e0e0e0" stroke="#999999" points="805.5,-19 754.5,-19 754.5,0 805.5,0 805.5,-19"/>
<text text-anchor="middle" x="780" y="-7" font-family="Helvetica,sans-Serif" font-size="10.00">math.h</text>
</a>
</g>
</g>
<!-- Node25&#45;&gt;Node26 -->
<g id="edge27_Node000025_Node000026" class="edge">
<title>Node25&#45;&gt;Node26</title>
<g id="a_edge27_Node000025_Node000026"><a xlink:title=" ">
<path fill="none" stroke="#63b8ff" d="M780,-54.75C780,-47.8 780,-37.85 780,-29.13"/>
<polygon fill="#63b8ff" stroke="#63b8ff" points="783.5,-29.09 780,-19.09 776.5,-29.09 783.5,-29.09"/>
</a>
</g>
</g>
<!-- Node28&#45;&gt;Node24 -->
<g id="edge35_Node000028_Node000024" class="edge">
<title>Node28&#45;&gt;Node24</title>
<g id="a_edge35_Node000028_Node000024"><a xlink:title=" ">
<path fill="none" stroke="#63b8ff" d="M856.81,-164.99C840.71,-155.66 819.66,-143.47 803.67,-134.21"/>
<polygon fill="#63b8ff" stroke="#63b8ff" points="805.32,-131.12 794.92,-129.14 801.81,-137.18 805.32,-131.12"/>
</a>
</g>
</g>
<!-- Node28&#45;&gt;Node25 -->
<g id="edge36_Node000028_Node000025" class="edge">
<title>Node28&#45;&gt;Node25</title>
<g id="a_edge36_Node000028_Node000025"><a xlink:title=" ">
<path fill="none" stroke="#63b8ff" d="M877.82,-164.95C873.86,-149.96 865.85,-126.2 852,-110 840.56,-96.63 824.07,-86.03 809.75,-78.53"/>
<polygon fill="#63b8ff" stroke="#63b8ff" points="811.25,-75.37 800.73,-74.06 808.13,-81.64 811.25,-75.37"/>
</a>
</g>
</g>
</g>
</svg>
