<?xml version="1.0" encoding="UTF-8" standalone="no"?>
<!DOCTYPE svg PUBLIC "-//W3C//DTD SVG 1.1//EN"
 "http://www.w3.org/Graphics/SVG/1.1/DTD/svg11.dtd">
<!-- Generated by graphviz version 2.43.0 (0)
 -->
<!-- Title: src/SceneSystem/PluginManager/PluginManager.cpp Pages: 1 -->
<!--zoomable 577 -->

<svg id="main" version="1.1" xmlns="http://www.w3.org/2000/svg" xmlns:xlink="http://www.w3.org/1999/xlink" xml:space="preserve" onload="init(evt)">
<style type="text/css"><![CDATA[
.node, .edge {opacity: 0.7;}
.node.selected, .edge.selected {opacity: 1;}
.edge:hover path { stroke: red; }
.edge:hover polygon { stroke: red; fill: red; }
]]></style>

<defs>
  <circle id="rim" cx="0" cy="0" r="7"/>
  <circle id="rim2" cx="0" cy="0" r="3.5"/>
  <g id="zoomPlus">
    <use xlink:href="#rim" fill="#404040"><set attributeName="fill" to="#808080" begin="zoomplus.mouseover" end="zoomplus.mouseout"/></use>
    <path d="M-4,0h8M0,-4v8" fill="none" stroke="white" stroke-width="1.5" pointer-events="none"/>
  </g>
  <g id="zoomMin">
    <use xlink:href="#rim" fill="#404040"><set attributeName="fill" to="#808080" begin="zoomminus.mouseover" end="zoomminus.mouseout"/></use>
    <path d="M-4,0h8" fill="none" stroke="white" stroke-width="1.5" pointer-events="none"/>
  </g>
  <g id="arrowUp" transform="translate(30 24)">
    <use xlink:href="#rim"/>
    <path pointer-events="none" fill="none" stroke="white" stroke-width="1.5" d="M0,-3.0v7 M-2.5,-0.5L0,-3.0L2.5,-0.5"/>
  </g>
  <g id="arrowRight" transform="rotate(90) translate(36 -43)">
    <use xlink:href="#rim"/>
    <path pointer-events="none" fill="none" stroke="white" stroke-width="1.5" d="M0,-3.0v7 M-2.5,-0.5L0,-3.0L2.5,-0.5"/>
  </g>
  <g id="arrowDown" transform="rotate(180) translate(-30 -48)">
    <use xlink:href="#rim"/>
    <path pointer-events="none" fill="none" stroke="white" stroke-width="1.5" d="M0,-3.0v7 M-2.5,-0.5L0,-3.0L2.5,-0.5"/>
  </g>
  <g id="arrowLeft" transform="rotate(270) translate(-36 17)">
    <use xlink:href="#rim"/>
    <path pointer-events="none" fill="none" stroke="white" stroke-width="1.5" d="M0,-3.0v7 M-2.5,-0.5L0,-3.0L2.5,-0.5"/>
  </g>
  <g id="resetDef">
    <use xlink:href="#rim2" fill="#404040"><set attributeName="fill" to="#808080" begin="reset.mouseover" end="reset.mouseout"/></use>
  </g>
</defs>
<script type="application/ecmascript">
var viewWidth = 1028;
var viewHeight = 577;
var sectionId = 'dynsection-0';
</script>
<script type="application/ecmascript" xlink:href="svg.min.js"/>
<svg id="graph" class="graph">
<g id="viewport">
<title>src/SceneSystem/PluginManager/PluginManager.cpp</title>
<!-- Node1 -->
<g id="Node000001" class="node">
<title>Node1</title>
<g id="a_Node000001"><a xlink:title=" ">
<polygon fill="#999999" stroke="#666666" points="379.5,-569 203.5,-569 203.5,-539 379.5,-539 379.5,-569"/>
<text text-anchor="start" x="211.5" y="-557" font-family="Helvetica,sans-Serif" font-size="10.00">src/SceneSystem/PluginManager</text>
<text text-anchor="middle" x="291.5" y="-546" font-family="Helvetica,sans-Serif" font-size="10.00">/PluginManager.cpp</text>
</a>
</g>
</g>
<!-- Node2 -->
<g id="Node000002" class="node">
<title>Node2</title>
<g id="a_Node000002"><a xlink:href="PluginManager_8hpp.html" target="_top" xlink:title="Plugin manager for loading and managing plugins.">
<polygon fill="white" stroke="#666666" points="346.5,-503 236.5,-503 236.5,-484 346.5,-484 346.5,-503"/>
<text text-anchor="middle" x="291.5" y="-491" font-family="Helvetica,sans-Serif" font-size="10.00">PluginManager.hpp</text>
</a>
</g>
</g>
<!-- Node1&#45;&gt;Node2 -->
<g id="edge1_Node000001_Node000002" class="edge">
<title>Node1&#45;&gt;Node2</title>
<g id="a_edge1_Node000001_Node000002"><a xlink:title=" ">
<path fill="none" stroke="#63b8ff" d="M291.5,-538.84C291.5,-531.21 291.5,-521.7 291.5,-513.45"/>
<polygon fill="#63b8ff" stroke="#63b8ff" points="295,-513.27 291.5,-503.27 288,-513.27 295,-513.27"/>
</a>
</g>
</g>
<!-- Node3 -->
<g id="Node000003" class="node">
<title>Node3</title>
<g id="a_Node000003"><a xlink:title=" ">
<polygon fill="#e0e0e0" stroke="#999999" points="192.5,-448 142.5,-448 142.5,-429 192.5,-429 192.5,-448"/>
<text text-anchor="middle" x="167.5" y="-436" font-family="Helvetica,sans-Serif" font-size="10.00">dlfcn.h</text>
</a>
</g>
</g>
<!-- Node2&#45;&gt;Node3 -->
<g id="edge2_Node000002_Node000003" class="edge">
<title>Node2&#45;&gt;Node3</title>
<g id="a_edge2_Node000002_Node000003"><a xlink:title=" ">
<path fill="none" stroke="#63b8ff" d="M271.58,-483.98C251.45,-475.38 220.12,-461.99 197.09,-452.15"/>
<polygon fill="#63b8ff" stroke="#63b8ff" points="198.36,-448.88 187.79,-448.17 195.6,-455.32 198.36,-448.88"/>
</a>
</g>
</g>
<!-- Node4 -->
<g id="Node000004" class="node">
<title>Node4</title>
<g id="a_Node000004"><a xlink:title=" ">
<polygon fill="#e0e0e0" stroke="#999999" points="264.5,-448 210.5,-448 210.5,-429 264.5,-429 264.5,-448"/>
<text text-anchor="middle" x="237.5" y="-436" font-family="Helvetica,sans-Serif" font-size="10.00">dirent.h</text>
</a>
</g>
</g>
<!-- Node2&#45;&gt;Node4 -->
<g id="edge3_Node000002_Node000004" class="edge">
<title>Node2&#45;&gt;Node4</title>
<g id="a_edge3_Node000002_Node000004"><a xlink:title=" ">
<path fill="none" stroke="#63b8ff" d="M282.58,-483.75C274.72,-476.03 263.07,-464.6 253.58,-455.28"/>
<polygon fill="#63b8ff" stroke="#63b8ff" points="255.84,-452.6 246.25,-448.09 250.94,-457.59 255.84,-452.6"/>
</a>
</g>
</g>
<!-- Node5 -->
<g id="Node000005" class="node">
<title>Node5</title>
<g id="a_Node000005"><a xlink:title=" ">
<polygon fill="#e0e0e0" stroke="#999999" points="1019.5,-255.5 959.5,-255.5 959.5,-236.5 1019.5,-236.5 1019.5,-255.5"/>
<text text-anchor="middle" x="989.5" y="-243.5" font-family="Helvetica,sans-Serif" font-size="10.00">iostream</text>
</a>
</g>
</g>
<!-- Node2&#45;&gt;Node5 -->
<g id="edge4_Node000002_Node000005" class="edge">
<title>Node2&#45;&gt;Node5</title>
<g id="a_edge4_Node000002_Node000005"><a xlink:title=" ">
<path fill="none" stroke="#63b8ff" d="M346.89,-486.98C469.88,-474.03 761.71,-439.27 848.5,-393 907.96,-361.3 957.26,-295.5 978.41,-264.23"/>
<polygon fill="#63b8ff" stroke="#63b8ff" points="981.44,-265.98 984.04,-255.71 975.61,-262.11 981.44,-265.98"/>
</a>
</g>
</g>
<!-- Node6 -->
<g id="Node000006" class="node">
<title>Node6</title>
<g id="a_Node000006"><a xlink:href="Plugin_8hpp.html" target="_top" xlink:title=" ">
<polygon fill="white" stroke="#666666" points="408,-448 283,-448 283,-429 408,-429 408,-448"/>
<text text-anchor="middle" x="345.5" y="-436" font-family="Helvetica,sans-Serif" font-size="10.00">../../Objects/Plugin.hpp</text>
</a>
</g>
</g>
<!-- Node2&#45;&gt;Node6 -->
<g id="edge5_Node000002_Node000006" class="edge">
<title>Node2&#45;&gt;Node6</title>
<g id="a_edge5_Node000002_Node000006"><a xlink:title=" ">
<path fill="none" stroke="#63b8ff" d="M300.42,-483.75C308.28,-476.03 319.93,-464.6 329.42,-455.28"/>
<polygon fill="#63b8ff" stroke="#63b8ff" points="332.06,-457.59 336.75,-448.09 327.16,-452.6 332.06,-457.59"/>
</a>
</g>
</g>
<!-- Node7 -->
<g id="Node000007" class="node">
<title>Node7</title>
<g id="a_Node000007"><a xlink:title=" ">
<polygon fill="#e0e0e0" stroke="#999999" points="477,-387.5 412,-387.5 412,-368.5 477,-368.5 477,-387.5"/>
<text text-anchor="middle" x="444.5" y="-375.5" font-family="Helvetica,sans-Serif" font-size="10.00">functional</text>
</a>
</g>
</g>
<!-- Node6&#45;&gt;Node7 -->
<g id="edge6_Node000006_Node000007" class="edge">
<title>Node6&#45;&gt;Node7</title>
<g id="a_edge6_Node000006_Node000007"><a xlink:title=" ">
<path fill="none" stroke="#63b8ff" d="M360.11,-428.87C376.19,-419.36 402.28,-403.95 421.2,-392.77"/>
<polygon fill="#63b8ff" stroke="#63b8ff" points="423,-395.77 429.83,-387.67 419.44,-389.74 423,-395.77"/>
</a>
</g>
</g>
<!-- Node8 -->
<g id="Node000008" class="node">
<title>Node8</title>
<g id="a_Node000008"><a xlink:title=" ">
<polygon fill="#e0e0e0" stroke="#999999" points="366.5,-189.5 308.5,-189.5 308.5,-170.5 366.5,-170.5 366.5,-189.5"/>
<text text-anchor="middle" x="337.5" y="-177.5" font-family="Helvetica,sans-Serif" font-size="10.00">memory</text>
</a>
</g>
</g>
<!-- Node6&#45;&gt;Node8 -->
<g id="edge7_Node000006_Node000008" class="edge">
<title>Node6&#45;&gt;Node8</title>
<g id="a_edge7_Node000006_Node000008"><a xlink:title=" ">
<path fill="none" stroke="#63b8ff" d="M348.15,-428.7C356.42,-399.88 380.19,-305.92 362.5,-231 359.79,-219.5 354,-207.64 348.68,-198.35"/>
<polygon fill="#63b8ff" stroke="#63b8ff" points="351.63,-196.46 343.45,-189.73 345.64,-200.09 351.63,-196.46"/>
</a>
</g>
</g>
<!-- Node9 -->
<g id="Node000009" class="node">
<title>Node9</title>
<g id="a_Node000009"><a xlink:title=" ">
<polygon fill="#e0e0e0" stroke="#999999" points="51,-387.5 0,-387.5 0,-368.5 51,-368.5 51,-387.5"/>
<text text-anchor="middle" x="25.5" y="-375.5" font-family="Helvetica,sans-Serif" font-size="10.00">variant</text>
</a>
</g>
</g>
<!-- Node6&#45;&gt;Node9 -->
<g id="edge8_Node000006_Node000009" class="edge">
<title>Node6&#45;&gt;Node9</title>
<g id="a_edge8_Node000006_Node000009"><a xlink:title=" ">
<path fill="none" stroke="#63b8ff" d="M282.95,-429.41C212.11,-419.95 101.25,-404.18 60.5,-393 58.56,-392.47 56.58,-391.86 54.6,-391.21"/>
<polygon fill="#63b8ff" stroke="#63b8ff" points="55.45,-387.79 44.85,-387.64 53.04,-394.36 55.45,-387.79"/>
</a>
</g>
</g>
<!-- Node10 -->
<g id="Node000010" class="node">
<title>Node10</title>
<g id="a_Node000010"><a xlink:title=" ">
<polygon fill="#e0e0e0" stroke="#999999" points="107.5,-387.5 69.5,-387.5 69.5,-368.5 107.5,-368.5 107.5,-387.5"/>
<text text-anchor="middle" x="88.5" y="-375.5" font-family="Helvetica,sans-Serif" font-size="10.00">map</text>
</a>
</g>
</g>
<!-- Node6&#45;&gt;Node10 -->
<g id="edge9_Node000006_Node000010" class="edge">
<title>Node6&#45;&gt;Node10</title>
<g id="a_edge9_Node000006_Node000010"><a xlink:title=" ">
<path fill="none" stroke="#63b8ff" d="M285.25,-428.97C239.68,-421.7 175.88,-409.74 121.5,-393 119.82,-392.48 118.12,-391.91 116.4,-391.3"/>
<polygon fill="#63b8ff" stroke="#63b8ff" points="117.34,-387.91 106.75,-387.53 114.79,-394.43 117.34,-387.91"/>
</a>
</g>
</g>
<!-- Node11 -->
<g id="Node000011" class="node">
<title>Node11</title>
<g id="a_Node000011"><a xlink:href="ParsingException_8hpp.html" target="_top" xlink:title=" ">
<polygon fill="white" stroke="#666666" points="839,-393 674,-393 674,-363 839,-363 839,-393"/>
<text text-anchor="start" x="682" y="-381" font-family="Helvetica,sans-Serif" font-size="10.00">../Exceptions/ParsingException</text>
<text text-anchor="middle" x="756.5" y="-370" font-family="Helvetica,sans-Serif" font-size="10.00">/ParsingException.hpp</text>
</a>
</g>
</g>
<!-- Node6&#45;&gt;Node11 -->
<g id="edge10_Node000006_Node000011" class="edge">
<title>Node6&#45;&gt;Node11</title>
<g id="a_edge10_Node000006_Node000011"><a xlink:title=" ">
<path fill="none" stroke="#63b8ff" d="M405.26,-428.99C473.16,-419.33 584.78,-403.44 663.95,-392.17"/>
<polygon fill="#63b8ff" stroke="#63b8ff" points="664.52,-395.63 673.93,-390.75 663.53,-388.7 664.52,-395.63"/>
</a>
</g>
</g>
<!-- Node16 -->
<g id="Node000016" class="node">
<title>Node16</title>
<g id="a_Node000016"><a xlink:href="AInterface_8hpp.html" target="_top" xlink:title=" ">
<polygon fill="white" stroke="#666666" points="279.5,-393 163.5,-393 163.5,-363 279.5,-363 279.5,-393"/>
<text text-anchor="start" x="171.5" y="-381" font-family="Helvetica,sans-Serif" font-size="10.00">Abstracts/AInterface</text>
<text text-anchor="middle" x="221.5" y="-370" font-family="Helvetica,sans-Serif" font-size="10.00">/AInterface.hpp</text>
</a>
</g>
</g>
<!-- Node6&#45;&gt;Node16 -->
<g id="edge16_Node000006_Node000016" class="edge">
<title>Node6&#45;&gt;Node16</title>
<g id="a_edge16_Node000006_Node000016"><a xlink:title=" ">
<path fill="none" stroke="#63b8ff" d="M327.47,-428.99C310.07,-420.79 283.16,-408.09 260.81,-397.55"/>
<polygon fill="#63b8ff" stroke="#63b8ff" points="262.09,-394.28 251.55,-393.18 259.1,-400.61 262.09,-394.28"/>
</a>
</g>
</g>
<!-- Node17 -->
<g id="Node000017" class="node">
<title>Node17</title>
<g id="a_Node000017"><a xlink:href="ARenderer_8hpp.html" target="_top" xlink:title=" ">
<polygon fill="white" stroke="#666666" points="209,-321.5 58,-321.5 58,-302.5 209,-302.5 209,-321.5"/>
<text text-anchor="middle" x="133.5" y="-309.5" font-family="Helvetica,sans-Serif" font-size="10.00">../ARenderer/ARenderer.hpp</text>
</a>
</g>
</g>
<!-- Node6&#45;&gt;Node17 -->
<g id="edge45_Node000006_Node000017" class="edge">
<title>Node6&#45;&gt;Node17</title>
<g id="a_edge45_Node000006_Node000017"><a xlink:title=" ">
<path fill="none" stroke="#63b8ff" d="M282.82,-429.95C234.4,-422.86 172.68,-410.69 154.5,-393 138.13,-377.08 134,-350.08 133.21,-331.9"/>
<polygon fill="#63b8ff" stroke="#63b8ff" points="136.71,-331.85 133.08,-321.9 129.71,-331.94 136.71,-331.85"/>
</a>
</g>
</g>
<!-- Node21 -->
<g id="Node000021" class="node">
<title>Node21</title>
<g id="a_Node000021"><a xlink:href="APrimitive_8hpp.html" target="_top" xlink:title=" ">
<polygon fill="white" stroke="#666666" points="611.5,-393 495.5,-393 495.5,-363 611.5,-363 611.5,-393"/>
<text text-anchor="start" x="503.5" y="-381" font-family="Helvetica,sans-Serif" font-size="10.00">Abstracts/APrimitive</text>
<text text-anchor="middle" x="553.5" y="-370" font-family="Helvetica,sans-Serif" font-size="10.00">/APrimitive.hpp</text>
</a>
</g>
</g>
<!-- Node6&#45;&gt;Node21 -->
<g id="edge21_Node000006_Node000021" class="edge">
<title>Node6&#45;&gt;Node21</title>
<g id="a_edge21_Node000006_Node000021"><a xlink:title=" ">
<path fill="none" stroke="#63b8ff" d="M375.74,-428.99C406.46,-420.35 454.87,-406.74 493.42,-395.9"/>
<polygon fill="#63b8ff" stroke="#63b8ff" points="494.81,-399.14 503.49,-393.06 492.92,-392.4 494.81,-399.14"/>
</a>
</g>
</g>
<!-- Node22 -->
<g id="Node000022" class="node">
<title>Node22</title>
<g id="a_Node000022"><a xlink:href="IMaterial_8hpp.html" target="_top" xlink:title=" ">
<polygon fill="white" stroke="#666666" points="317.5,-321.5 227.5,-321.5 227.5,-302.5 317.5,-302.5 317.5,-321.5"/>
<text text-anchor="middle" x="272.5" y="-309.5" font-family="Helvetica,sans-Serif" font-size="10.00">../IMaterial.hpp</text>
</a>
</g>
</g>
<!-- Node6&#45;&gt;Node22 -->
<g id="edge47_Node000006_Node000022" class="edge">
<title>Node6&#45;&gt;Node22</title>
<g id="a_edge47_Node000006_Node000022"><a xlink:title=" ">
<path fill="none" stroke="#63b8ff" d="M340.48,-428.94C328.61,-408.69 298.58,-357.47 282.7,-330.4"/>
<polygon fill="#63b8ff" stroke="#63b8ff" points="285.63,-328.47 277.55,-321.62 279.59,-332.01 285.63,-328.47"/>
</a>
</g>
</g>
<!-- Node23 -->
<g id="Node000023" class="node">
<title>Node23</title>
<g id="a_Node000023"><a xlink:href="ILight_8hpp.html" target="_top" xlink:title=" ">
<polygon fill="white" stroke="#666666" points="354,-255.5 289,-255.5 289,-236.5 354,-236.5 354,-255.5"/>
<text text-anchor="middle" x="321.5" y="-243.5" font-family="Helvetica,sans-Serif" font-size="10.00">ILight.hpp</text>
</a>
</g>
</g>
<!-- Node6&#45;&gt;Node23 -->
<g id="edge46_Node000006_Node000023" class="edge">
<title>Node6&#45;&gt;Node23</title>
<g id="a_edge46_Node000006_Node000023"><a xlink:title=" ">
<path fill="none" stroke="#63b8ff" d="M344.41,-428.82C340.76,-399.87 328.96,-306.2 323.87,-265.82"/>
<polygon fill="#63b8ff" stroke="#63b8ff" points="327.32,-265.22 322.6,-255.73 320.38,-266.09 327.32,-265.22"/>
</a>
</g>
</g>
<!-- Node12 -->
<g id="Node000012" class="node">
<title>Node12</title>
<g id="a_Node000012"><a xlink:href="RaytracerException_8hpp.html" target="_top" xlink:title=" ">
<polygon fill="white" stroke="#666666" points="875.5,-327 739.5,-327 739.5,-297 875.5,-297 875.5,-327"/>
<text text-anchor="start" x="747.5" y="-315" font-family="Helvetica,sans-Serif" font-size="10.00">../RaytracerException</text>
<text text-anchor="middle" x="807.5" y="-304" font-family="Helvetica,sans-Serif" font-size="10.00">/RaytracerException.hpp</text>
</a>
</g>
</g>
<!-- Node11&#45;&gt;Node12 -->
<g id="edge11_Node000011_Node000012" class="edge">
<title>Node11&#45;&gt;Node12</title>
<g id="a_edge11_Node000011_Node000012"><a xlink:title=" ">
<path fill="none" stroke="#63b8ff" d="M767.82,-362.8C774.29,-354.68 782.55,-344.31 789.85,-335.15"/>
<polygon fill="#63b8ff" stroke="#63b8ff" points="792.72,-337.17 796.21,-327.16 787.24,-332.8 792.72,-337.17"/>
</a>
</g>
</g>
<!-- Node12&#45;&gt;Node5 -->
<g id="edge13_Node000012_Node000005" class="edge">
<title>Node12&#45;&gt;Node5</title>
<g id="a_edge13_Node000012_Node000005"><a xlink:title=" ">
<path fill="none" stroke="#63b8ff" d="M847.9,-296.97C876.56,-287 915.92,-273.25 950.5,-261 952.33,-260.35 954.21,-259.68 956.1,-259.01"/>
<polygon fill="#63b8ff" stroke="#63b8ff" points="957.35,-262.28 965.59,-255.62 954.99,-255.69 957.35,-262.28"/>
</a>
</g>
</g>
<!-- Node13 -->
<g id="Node000013" class="node">
<title>Node13</title>
<g id="a_Node000013"><a xlink:title=" ">
<polygon fill="#e0e0e0" stroke="#999999" points="767,-255.5 702,-255.5 702,-236.5 767,-236.5 767,-255.5"/>
<text text-anchor="middle" x="734.5" y="-243.5" font-family="Helvetica,sans-Serif" font-size="10.00">exception</text>
</a>
</g>
</g>
<!-- Node12&#45;&gt;Node13 -->
<g id="edge12_Node000012_Node000013" class="edge">
<title>Node12&#45;&gt;Node13</title>
<g id="a_edge12_Node000012_Node000013"><a xlink:title=" ">
<path fill="none" stroke="#63b8ff" d="M791.3,-296.8C779.7,-286.62 764.08,-272.93 752.16,-262.48"/>
<polygon fill="#63b8ff" stroke="#63b8ff" points="754.41,-259.8 744.59,-255.84 749.8,-265.07 754.41,-259.8"/>
</a>
</g>
</g>
<!-- Node14 -->
<g id="Node000014" class="node">
<title>Node14</title>
<g id="a_Node000014"><a xlink:title=" ">
<polygon fill="#e0e0e0" stroke="#999999" points="829.5,-255.5 785.5,-255.5 785.5,-236.5 829.5,-236.5 829.5,-255.5"/>
<text text-anchor="middle" x="807.5" y="-243.5" font-family="Helvetica,sans-Serif" font-size="10.00">string</text>
</a>
</g>
</g>
<!-- Node12&#45;&gt;Node14 -->
<g id="edge14_Node000012_Node000014" class="edge">
<title>Node12&#45;&gt;Node14</title>
<g id="a_edge14_Node000012_Node000014"><a xlink:title=" ">
<path fill="none" stroke="#63b8ff" d="M807.5,-296.8C807.5,-287.7 807.5,-275.79 807.5,-265.9"/>
<polygon fill="#63b8ff" stroke="#63b8ff" points="811,-265.84 807.5,-255.84 804,-265.84 811,-265.84"/>
</a>
</g>
</g>
<!-- Node15 -->
<g id="Node000015" class="node">
<title>Node15</title>
<g id="a_Node000015"><a xlink:title=" ">
<polygon fill="#e0e0e0" stroke="#999999" points="941,-255.5 848,-255.5 848,-236.5 941,-236.5 941,-255.5"/>
<text text-anchor="middle" x="894.5" y="-243.5" font-family="Helvetica,sans-Serif" font-size="10.00">source_location</text>
</a>
</g>
</g>
<!-- Node12&#45;&gt;Node15 -->
<g id="edge15_Node000012_Node000015" class="edge">
<title>Node12&#45;&gt;Node15</title>
<g id="a_edge15_Node000012_Node000015"><a xlink:title=" ">
<path fill="none" stroke="#63b8ff" d="M826.81,-296.8C840.99,-286.37 860.19,-272.24 874.52,-261.69"/>
<polygon fill="#63b8ff" stroke="#63b8ff" points="876.75,-264.4 882.73,-255.66 872.6,-258.76 876.75,-264.4"/>
</a>
</g>
</g>
<!-- Node16&#45;&gt;Node17 -->
<g id="edge17_Node000016_Node000017" class="edge">
<title>Node16&#45;&gt;Node17</title>
<g id="a_edge17_Node000016_Node000017"><a xlink:title=" ">
<path fill="none" stroke="#63b8ff" d="M201.97,-362.8C187.63,-352.37 168.2,-338.24 153.71,-327.69"/>
<polygon fill="#63b8ff" stroke="#63b8ff" points="155.55,-324.71 145.41,-321.66 151.43,-330.37 155.55,-324.71"/>
</a>
</g>
</g>
<!-- Node18 -->
<g id="Node000018" class="node">
<title>Node18</title>
<g id="a_Node000018"><a xlink:href="Color_8hpp.html" target="_top" xlink:title=" ">
<polygon fill="white" stroke="#666666" points="290,-189.5 175,-189.5 175,-170.5 290,-170.5 290,-189.5"/>
<text text-anchor="middle" x="232.5" y="-177.5" font-family="Helvetica,sans-Serif" font-size="10.00">../../../Utils/Color.hpp</text>
</a>
</g>
</g>
<!-- Node17&#45;&gt;Node18 -->
<g id="edge18_Node000017_Node000018" class="edge">
<title>Node17&#45;&gt;Node18</title>
<g id="a_edge18_Node000017_Node000018"><a xlink:title=" ">
<path fill="none" stroke="#63b8ff" d="M140,-302.47C156.14,-281.27 198.34,-225.86 219.7,-197.8"/>
<polygon fill="#63b8ff" stroke="#63b8ff" points="222.58,-199.81 225.85,-189.73 217.01,-195.57 222.58,-199.81"/>
</a>
</g>
</g>
<!-- Node20 -->
<g id="Node000020" class="node">
<title>Node20</title>
<g id="a_Node000020"><a xlink:title=" ">
<polygon fill="#e0e0e0" stroke="#999999" points="157,-189.5 110,-189.5 110,-170.5 157,-170.5 157,-189.5"/>
<text text-anchor="middle" x="133.5" y="-177.5" font-family="Helvetica,sans-Serif" font-size="10.00">vector</text>
</a>
</g>
</g>
<!-- Node17&#45;&gt;Node20 -->
<g id="edge20_Node000017_Node000020" class="edge">
<title>Node17&#45;&gt;Node20</title>
<g id="a_edge20_Node000017_Node000020"><a xlink:title=" ">
<path fill="none" stroke="#63b8ff" d="M133.5,-302.47C133.5,-281.82 133.5,-228.72 133.5,-200.04"/>
<polygon fill="#63b8ff" stroke="#63b8ff" points="137,-199.73 133.5,-189.73 130,-199.73 137,-199.73"/>
</a>
</g>
</g>
<!-- Node19 -->
<g id="Node000019" class="node">
<title>Node19</title>
<g id="a_Node000019"><a xlink:title=" ">
<polygon fill="#e0e0e0" stroke="#999999" points="345.5,-129 281.5,-129 281.5,-110 345.5,-110 345.5,-129"/>
<text text-anchor="middle" x="313.5" y="-117" font-family="Helvetica,sans-Serif" font-size="10.00">algorithm</text>
</a>
</g>
</g>
<!-- Node18&#45;&gt;Node19 -->
<g id="edge19_Node000018_Node000019" class="edge">
<title>Node18&#45;&gt;Node19</title>
<g id="a_edge19_Node000018_Node000019"><a xlink:title=" ">
<path fill="none" stroke="#63b8ff" d="M244.45,-170.37C257.25,-161.12 277.8,-146.28 293.15,-135.19"/>
<polygon fill="#63b8ff" stroke="#63b8ff" points="295.44,-137.86 301.5,-129.17 291.34,-132.18 295.44,-137.86"/>
</a>
</g>
</g>
<!-- Node21&#45;&gt;Node8 -->
<g id="edge34_Node000021_Node000008" class="edge">
<title>Node21&#45;&gt;Node8</title>
<g id="a_edge34_Node000021_Node000008"><a xlink:title=" ">
<path fill="none" stroke="#63b8ff" d="M540.86,-362.97C525.95,-346.63 500.19,-319.08 476.5,-297 443.03,-265.81 432.63,-260.31 397.5,-231 383.59,-219.4 367.86,-206.29 356,-196.41"/>
<polygon fill="#63b8ff" stroke="#63b8ff" points="358.05,-193.56 348.12,-189.85 353.57,-198.94 358.05,-193.56"/>
</a>
</g>
</g>
<!-- Node21&#45;&gt;Node22 -->
<g id="edge22_Node000021_Node000022" class="edge">
<title>Node21&#45;&gt;Node22</title>
<g id="a_edge22_Node000021_Node000022"><a xlink:title=" ">
<path fill="none" stroke="#63b8ff" d="M495.28,-363.74C443.35,-351.91 368.27,-334.81 319.92,-323.8"/>
<polygon fill="#63b8ff" stroke="#63b8ff" points="320.56,-320.36 310.03,-321.55 319,-327.18 320.56,-320.36"/>
</a>
</g>
</g>
<!-- Node28 -->
<g id="Node000028" class="node">
<title>Node28</title>
<g id="a_Node000028"><a xlink:title=" ">
<polygon fill="#e0e0e0" stroke="#999999" points="467.5,-321.5 411.5,-321.5 411.5,-302.5 467.5,-302.5 467.5,-321.5"/>
<text text-anchor="middle" x="439.5" y="-309.5" font-family="Helvetica,sans-Serif" font-size="10.00">optional</text>
</a>
</g>
</g>
<!-- Node21&#45;&gt;Node28 -->
<g id="edge35_Node000021_Node000028" class="edge">
<title>Node21&#45;&gt;Node28</title>
<g id="a_edge35_Node000021_Node000028"><a xlink:title=" ">
<path fill="none" stroke="#63b8ff" d="M528.48,-362.95C509.19,-352.13 482.68,-337.24 463.62,-326.54"/>
<polygon fill="#63b8ff" stroke="#63b8ff" points="465.1,-323.36 454.67,-321.52 461.68,-329.46 465.1,-323.36"/>
</a>
</g>
</g>
<!-- Node29 -->
<g id="Node000029" class="node">
<title>Node29</title>
<g id="a_Node000029"><a xlink:href="AABB_8hpp.html" target="_top" xlink:title=" ">
<polygon fill="white" stroke="#666666" points="645.5,-261 523.5,-261 523.5,-231 645.5,-231 645.5,-261"/>
<text text-anchor="start" x="531.5" y="-249" font-family="Helvetica,sans-Serif" font-size="10.00">../../../Geometry/AABB</text>
<text text-anchor="middle" x="584.5" y="-238" font-family="Helvetica,sans-Serif" font-size="10.00">/AABB.hpp</text>
</a>
</g>
</g>
<!-- Node21&#45;&gt;Node29 -->
<g id="edge36_Node000021_Node000029" class="edge">
<title>Node21&#45;&gt;Node29</title>
<g id="a_edge36_Node000021_Node000029"><a xlink:title=" ">
<path fill="none" stroke="#63b8ff" d="M556.88,-362.84C562.14,-340.76 572.37,-297.89 578.79,-270.94"/>
<polygon fill="#63b8ff" stroke="#63b8ff" points="582.21,-271.68 581.13,-261.14 575.4,-270.06 582.21,-271.68"/>
</a>
</g>
</g>
<!-- Node32 -->
<g id="Node000032" class="node">
<title>Node32</title>
<g id="a_Node000032"><a xlink:href="Ray_8hpp.html" target="_top" xlink:title=" ">
<polygon fill="white" stroke="#666666" points="826.5,-189.5 740.5,-189.5 740.5,-170.5 826.5,-170.5 826.5,-189.5"/>
<text text-anchor="middle" x="783.5" y="-177.5" font-family="Helvetica,sans-Serif" font-size="10.00">../Ray/Ray.hpp</text>
</a>
</g>
</g>
<!-- Node21&#45;&gt;Node32 -->
<g id="edge44_Node000021_Node000032" class="edge">
<title>Node21&#45;&gt;Node32</title>
<g id="a_edge44_Node000021_Node000032"><a xlink:title=" ">
<path fill="none" stroke="#63b8ff" d="M564.66,-362.78C586.97,-334.99 639.54,-272.59 693.5,-231 712.67,-216.22 736.74,-203.09 755.16,-194"/>
<polygon fill="#63b8ff" stroke="#63b8ff" points="756.74,-197.12 764.22,-189.62 753.7,-190.82 756.74,-197.12"/>
</a>
</g>
</g>
<!-- Node22&#45;&gt;Node18 -->
<g id="edge23_Node000022_Node000018" class="edge">
<title>Node22&#45;&gt;Node18</title>
<g id="a_edge23_Node000022_Node000018"><a xlink:title=" ">
<path fill="none" stroke="#63b8ff" d="M269.88,-302.47C263.49,-281.73 247.04,-228.24 238.24,-199.66"/>
<polygon fill="#63b8ff" stroke="#63b8ff" points="241.47,-198.26 235.19,-189.73 234.78,-200.32 241.47,-198.26"/>
</a>
</g>
</g>
<!-- Node22&#45;&gt;Node20 -->
<g id="edge33_Node000022_Node000020" class="edge">
<title>Node22&#45;&gt;Node20</title>
<g id="a_edge33_Node000022_Node000020"><a xlink:title=" ">
<path fill="none" stroke="#63b8ff" d="M263.38,-302.47C240.41,-280.99 179.92,-224.42 150.31,-196.72"/>
<polygon fill="#63b8ff" stroke="#63b8ff" points="152.53,-194.01 142.84,-189.73 147.75,-199.12 152.53,-194.01"/>
</a>
</g>
</g>
<!-- Node22&#45;&gt;Node23 -->
<g id="edge24_Node000022_Node000023" class="edge">
<title>Node22&#45;&gt;Node23</title>
<g id="a_edge24_Node000022_Node000023"><a xlink:title=" ">
<path fill="none" stroke="#63b8ff" d="M279.11,-302.37C286.59,-292.59 298.97,-276.42 308.43,-264.08"/>
<polygon fill="#63b8ff" stroke="#63b8ff" points="311.38,-265.97 314.68,-255.91 305.82,-261.72 311.38,-265.97"/>
</a>
</g>
</g>
<!-- Node23&#45;&gt;Node8 -->
<g id="edge32_Node000023_Node000008" class="edge">
<title>Node23&#45;&gt;Node8</title>
<g id="a_edge32_Node000023_Node000008"><a xlink:title=" ">
<path fill="none" stroke="#63b8ff" d="M323.66,-236.37C325.98,-227.07 329.76,-211.98 332.78,-199.9"/>
<polygon fill="#63b8ff" stroke="#63b8ff" points="336.24,-200.46 335.27,-189.91 329.45,-198.76 336.24,-200.46"/>
</a>
</g>
</g>
<!-- Node23&#45;&gt;Node18 -->
<g id="edge30_Node000023_Node000018" class="edge">
<title>Node23&#45;&gt;Node18</title>
<g id="a_edge30_Node000023_Node000018"><a xlink:title=" ">
<path fill="none" stroke="#63b8ff" d="M309.5,-236.37C295.03,-225.97 270.49,-208.32 253.01,-195.75"/>
<polygon fill="#63b8ff" stroke="#63b8ff" points="254.76,-192.7 244.6,-189.7 250.67,-198.38 254.76,-192.7"/>
</a>
</g>
</g>
<!-- Node23&#45;&gt;Node20 -->
<g id="edge31_Node000023_Node000020" class="edge">
<title>Node23&#45;&gt;Node20</title>
<g id="a_edge31_Node000023_Node000020"><a xlink:title=" ">
<path fill="none" stroke="#63b8ff" d="M291.86,-236.49C260.25,-227.18 208.87,-211.39 165.5,-195 164.29,-194.54 163.05,-194.06 161.81,-193.57"/>
<polygon fill="#63b8ff" stroke="#63b8ff" points="162.9,-190.23 152.32,-189.61 160.21,-196.69 162.9,-190.23"/>
</a>
</g>
</g>
<!-- Node24 -->
<g id="Node000024" class="node">
<title>Node24</title>
<g id="a_Node000024"><a xlink:href="HitRecord_8hpp.html" target="_top" xlink:title=" ">
<polygon fill="white" stroke="#666666" points="556.5,-195 422.5,-195 422.5,-165 556.5,-165 556.5,-195"/>
<text text-anchor="start" x="430.5" y="-183" font-family="Helvetica,sans-Serif" font-size="10.00">../../Geometry/HitRecord</text>
<text text-anchor="middle" x="489.5" y="-172" font-family="Helvetica,sans-Serif" font-size="10.00">/HitRecord.hpp</text>
</a>
</g>
</g>
<!-- Node23&#45;&gt;Node24 -->
<g id="edge25_Node000023_Node000024" class="edge">
<title>Node23&#45;&gt;Node24</title>
<g id="a_edge25_Node000023_Node000024"><a xlink:title=" ">
<path fill="none" stroke="#63b8ff" d="M344.16,-236.37C369.32,-226.78 410.63,-211.05 442.79,-198.8"/>
<polygon fill="#63b8ff" stroke="#63b8ff" points="444.35,-201.95 452.45,-195.12 441.86,-195.4 444.35,-201.95"/>
</a>
</g>
</g>
<!-- Node25 -->
<g id="Node000025" class="node">
<title>Node25</title>
<g id="a_Node000025"><a xlink:href="Point3D_8hpp.html" target="_top" xlink:title=" ">
<polygon fill="white" stroke="#666666" points="647.5,-129 521.5,-129 521.5,-110 647.5,-110 647.5,-129"/>
<text text-anchor="middle" x="584.5" y="-117" font-family="Helvetica,sans-Serif" font-size="10.00">../Point3D/Point3D.hpp</text>
</a>
</g>
</g>
<!-- Node24&#45;&gt;Node25 -->
<g id="edge26_Node000024_Node000025" class="edge">
<title>Node24&#45;&gt;Node25</title>
<g id="a_edge26_Node000024_Node000025"><a xlink:title=" ">
<path fill="none" stroke="#63b8ff" d="M512.5,-164.84C527.5,-155.6 547,-143.59 561.93,-134.4"/>
<polygon fill="#63b8ff" stroke="#63b8ff" points="563.86,-137.32 570.54,-129.09 560.19,-131.36 563.86,-137.32"/>
</a>
</g>
</g>
<!-- Node26 -->
<g id="Node000026" class="node">
<title>Node26</title>
<g id="a_Node000026"><a xlink:href="Vector3D_8hpp.html" target="_top" xlink:title=" ">
<polygon fill="white" stroke="#666666" points="653.5,-74 515.5,-74 515.5,-55 653.5,-55 653.5,-74"/>
<text text-anchor="middle" x="584.5" y="-62" font-family="Helvetica,sans-Serif" font-size="10.00">../Vector3D/Vector3D.hpp</text>
</a>
</g>
</g>
<!-- Node24&#45;&gt;Node26 -->
<g id="edge29_Node000024_Node000026" class="edge">
<title>Node24&#45;&gt;Node26</title>
<g id="a_edge29_Node000024_Node000026"><a xlink:title=" ">
<path fill="none" stroke="#63b8ff" d="M491.3,-164.96C493.82,-149.99 499.65,-126.24 512.5,-110 523.27,-96.39 539.43,-85.86 553.72,-78.48"/>
<polygon fill="#63b8ff" stroke="#63b8ff" points="555.3,-81.6 562.76,-74.07 552.23,-75.3 555.3,-81.6"/>
</a>
</g>
</g>
<!-- Node25&#45;&gt;Node26 -->
<g id="edge27_Node000025_Node000026" class="edge">
<title>Node25&#45;&gt;Node26</title>
<g id="a_edge27_Node000025_Node000026"><a xlink:title=" ">
<path fill="none" stroke="#63b8ff" d="M584.5,-109.75C584.5,-102.8 584.5,-92.85 584.5,-84.13"/>
<polygon fill="#63b8ff" stroke="#63b8ff" points="588,-84.09 584.5,-74.09 581,-84.09 588,-84.09"/>
</a>
</g>
</g>
<!-- Node27 -->
<g id="Node000027" class="node">
<title>Node27</title>
<g id="a_Node000027"><a xlink:title=" ">
<polygon fill="#e0e0e0" stroke="#999999" points="610,-19 559,-19 559,0 610,0 610,-19"/>
<text text-anchor="middle" x="584.5" y="-7" font-family="Helvetica,sans-Serif" font-size="10.00">math.h</text>
</a>
</g>
</g>
<!-- Node26&#45;&gt;Node27 -->
<g id="edge28_Node000026_Node000027" class="edge">
<title>Node26&#45;&gt;Node27</title>
<g id="a_edge28_Node000026_Node000027"><a xlink:title=" ">
<path fill="none" stroke="#63b8ff" d="M584.5,-54.75C584.5,-47.8 584.5,-37.85 584.5,-29.13"/>
<polygon fill="#63b8ff" stroke="#63b8ff" points="588,-29.09 584.5,-19.09 581,-29.09 588,-29.09"/>
</a>
</g>
</g>
<!-- Node29&#45;&gt;Node19 -->
<g id="edge37_Node000029_Node000019" class="edge">
<title>Node29&#45;&gt;Node19</title>
<g id="a_edge37_Node000029_Node000019"><a xlink:title=" ">
<path fill="none" stroke="#63b8ff" d="M523.39,-233.14C489.77,-225.16 448,-212.8 413.5,-195 394.38,-185.13 392.69,-177.94 375.5,-165 362,-154.84 346.57,-143.76 334.48,-135.2"/>
<polygon fill="#63b8ff" stroke="#63b8ff" points="336.16,-132.1 325.97,-129.2 332.13,-137.82 336.16,-132.1"/>
</a>
</g>
</g>
<!-- Node29&#45;&gt;Node25 -->
<g id="edge40_Node000029_Node000025" class="edge">
<title>Node29&#45;&gt;Node25</title>
<g id="a_edge40_Node000029_Node000025"><a xlink:title=" ">
<path fill="none" stroke="#63b8ff" d="M584.5,-230.72C584.5,-208.12 584.5,-164.12 584.5,-139.09"/>
<polygon fill="#63b8ff" stroke="#63b8ff" points="588,-139.07 584.5,-129.07 581,-139.07 588,-139.07"/>
</a>
</g>
</g>
<!-- Node30 -->
<g id="Node000030" class="node">
<title>Node30</title>
<g id="a_Node000030"><a xlink:title=" ">
<polygon fill="#e0e0e0" stroke="#999999" points="722,-189.5 675,-189.5 675,-170.5 722,-170.5 722,-189.5"/>
<text text-anchor="middle" x="698.5" y="-177.5" font-family="Helvetica,sans-Serif" font-size="10.00">cmath</text>
</a>
</g>
</g>
<!-- Node29&#45;&gt;Node30 -->
<g id="edge38_Node000029_Node000030" class="edge">
<title>Node29&#45;&gt;Node30</title>
<g id="a_edge38_Node000029_Node000030"><a xlink:title=" ">
<path fill="none" stroke="#63b8ff" d="M609.52,-230.95C628.81,-220.13 655.32,-205.24 674.38,-194.54"/>
<polygon fill="#63b8ff" stroke="#63b8ff" points="676.32,-197.46 683.33,-189.52 672.9,-191.36 676.32,-197.46"/>
</a>
</g>
</g>
<!-- Node31 -->
<g id="Node000031" class="node">
<title>Node31</title>
<g id="a_Node000031"><a xlink:title=" ">
<polygon fill="#e0e0e0" stroke="#999999" points="656.5,-189.5 612.5,-189.5 612.5,-170.5 656.5,-170.5 656.5,-189.5"/>
<text text-anchor="middle" x="634.5" y="-177.5" font-family="Helvetica,sans-Serif" font-size="10.00">limits</text>
</a>
</g>
</g>
<!-- Node29&#45;&gt;Node31 -->
<g id="edge39_Node000029_Node000031" class="edge">
<title>Node29&#45;&gt;Node31</title>
<g id="a_edge39_Node000029_Node000031"><a xlink:title=" ">
<path fill="none" stroke="#63b8ff" d="M595.6,-230.8C603.16,-221.11 613.22,-208.24 621.21,-198.01"/>
<polygon fill="#63b8ff" stroke="#63b8ff" points="624.19,-199.88 627.59,-189.84 618.68,-195.57 624.19,-199.88"/>
</a>
</g>
</g>
<!-- Node29&#45;&gt;Node32 -->
<g id="edge41_Node000029_Node000032" class="edge">
<title>Node29&#45;&gt;Node32</title>
<g id="a_edge41_Node000029_Node000032"><a xlink:title=" ">
<path fill="none" stroke="#63b8ff" d="M628.17,-230.95C663.84,-219.48 713.66,-203.46 747.17,-192.68"/>
<polygon fill="#63b8ff" stroke="#63b8ff" points="748.57,-195.91 757.02,-189.52 746.43,-189.25 748.57,-195.91"/>
</a>
</g>
</g>
<!-- Node32&#45;&gt;Node25 -->
<g id="edge42_Node000032_Node000025" class="edge">
<title>Node32&#45;&gt;Node25</title>
<g id="a_edge42_Node000032_Node000025"><a xlink:title=" ">
<path fill="none" stroke="#63b8ff" d="M754.56,-170.49C719.93,-160.31 661.8,-143.22 623.29,-131.9"/>
<polygon fill="#63b8ff" stroke="#63b8ff" points="624.05,-128.48 613.47,-129.02 622.08,-135.2 624.05,-128.48"/>
</a>
</g>
</g>
<!-- Node32&#45;&gt;Node26 -->
<g id="edge43_Node000032_Node000026" class="edge">
<title>Node32&#45;&gt;Node26</title>
<g id="a_edge43_Node000032_Node000026"><a xlink:title=" ">
<path fill="none" stroke="#63b8ff" d="M768.54,-170.47C734.33,-150.96 650.11,-102.92 608.53,-79.21"/>
<polygon fill="#63b8ff" stroke="#63b8ff" points="610.05,-76.04 599.63,-74.13 606.58,-82.12 610.05,-76.04"/>
</a>
</g>
</g>
</g>
</svg>

<g id="navigator" transform="translate(0 0)" fill="#404254">
  <rect fill="#f2f5e9" fill-opacity="0.5" stroke="#606060" stroke-width=".5" x="0" y="0" width="60" height="60"/>
  <use id="zoomplus" xlink:href="#zoomPlus" x="17" y="9" onmousedown="handleZoom(evt,'in')"/>
  <use id="zoomminus" xlink:href="#zoomMin" x="42" y="9" onmousedown="handleZoom(evt,'out')"/>
  <use id="reset" xlink:href="#resetDef" x="30" y="36" onmousedown="handleReset()"/>
   <use id="arrowup" xlink:href="#arrowUp" x="0" y="0" onmousedown="handlePan(0,-1)"/>
  <use id="arrowright" xlink:href="#arrowRight" x="0" y="0" onmousedown="handlePan(1,0)"/>
  <use id="arrowdown" xlink:href="#arrowDown" x="0" y="0" onmousedown="handlePan(0,1)"/>
  <use id="arrowleft" xlink:href="#arrowLeft" x="0" y="0" onmousedown="handlePan(-1,0)"/>
</g>
<svg viewBox="0 0 15 15" width="100%" height="30px" preserveAspectRatio="xMaxYMin meet">
 <g id="arrow_out" transform="scale(0.3 0.3)">
  <a xlink:href="PluginManager_8cpp__incl_org.svg" target="_base">
   <rect id="button" ry="5" rx="5" y="6" x="6" height="38" width="38"
        fill="#f2f5e9" fill-opacity="0.5" stroke="#606060" stroke-width="1.0"/>
   <path id="arrow"
     d="M 11.500037,31.436501 C 11.940474,20.09759 22.043105,11.32322 32.158766,21.979434 L 37.068811,17.246167 C 37.068811,17.246167 37.088388,32 37.088388,32 L 22.160133,31.978069 C 22.160133,31.978069 26.997745,27.140456 26.997745,27.140456 C 18.528582,18.264221 13.291696,25.230495 11.500037,31.436501 z"
     style="fill:#404040;"/>
  </a>
 </g>
</svg>

<style type='text/css'>
<![CDATA[
[data-mouse-over-selected='false'] { opacity: 0.7; }
[data-mouse-over-selected='true']  { opacity: 1.0; }
]]>
</style>
<script type="application/ecmascript"><![CDATA[
document.addEventListener('DOMContentLoaded', (event) => {
  highlightEdges();
  highlightAdjacentNodes();
});
]]></script>
</svg>
