<?xml version="1.0" encoding="UTF-8" standalone="no"?>
<!DOCTYPE svg PUBLIC "-//W3C//DTD SVG 1.1//EN"
 "http://www.w3.org/Graphics/SVG/1.1/DTD/svg11.dtd">
<!-- Generated by graphviz version 2.43.0 (0)
 -->
<!-- Title: src/SceneSystem/PluginManager/PluginManager.hpp Pages: 1 -->
<svg width="1020pt" height="511pt"
 viewBox="0.00 0.00 1020.00 511.00" xmlns="http://www.w3.org/2000/svg" xmlns:xlink="http://www.w3.org/1999/xlink">
<g id="graph0" class="graph" transform="scale(1 1) rotate(0) translate(4 507)">
<title>src/SceneSystem/PluginManager/PluginManager.hpp</title>
<!-- Node1 -->
<g id="Node000001" class="node">
<title>Node1</title>
<g id="a_Node000001"><a xlink:title="Plugin manager for loading and managing plugins.">
<polygon fill="#999999" stroke="#666666" points="210,-503 34,-503 34,-473 210,-473 210,-503"/>
<text text-anchor="start" x="42" y="-491" font-family="Helvetica,sans-Serif" font-size="10.00">src/SceneSystem/PluginManager</text>
<text text-anchor="middle" x="122" y="-480" font-family="Helvetica,sans-Serif" font-size="10.00">/PluginManager.hpp</text>
</a>
</g>
</g>
<!-- Node2 -->
<g id="Node000002" class="node">
<title>Node2</title>
<g id="a_Node000002"><a xlink:title=" ">
<polygon fill="#e0e0e0" stroke="#999999" points="50,-437 0,-437 0,-418 50,-418 50,-437"/>
<text text-anchor="middle" x="25" y="-425" font-family="Helvetica,sans-Serif" font-size="10.00">dlfcn.h</text>
</a>
</g>
</g>
<!-- Node1&#45;&gt;Node2 -->
<g id="edge1_Node000001_Node000002" class="edge">
<title>Node1&#45;&gt;Node2</title>
<g id="a_edge1_Node000001_Node000002"><a xlink:title=" ">
<path fill="none" stroke="#63b8ff" d="M98.52,-472.84C83.2,-463.6 63.29,-451.59 48.05,-442.4"/>
<polygon fill="#63b8ff" stroke="#63b8ff" points="49.62,-439.26 39.25,-437.09 46.01,-445.26 49.62,-439.26"/>
</a>
</g>
</g>
<!-- Node3 -->
<g id="Node000003" class="node">
<title>Node3</title>
<g id="a_Node000003"><a xlink:title=" ">
<polygon fill="#e0e0e0" stroke="#999999" points="122,-437 68,-437 68,-418 122,-418 122,-437"/>
<text text-anchor="middle" x="95" y="-425" font-family="Helvetica,sans-Serif" font-size="10.00">dirent.h</text>
</a>
</g>
</g>
<!-- Node1&#45;&gt;Node3 -->
<g id="edge2_Node000001_Node000003" class="edge">
<title>Node1&#45;&gt;Node3</title>
<g id="a_edge2_Node000001_Node000003"><a xlink:title=" ">
<path fill="none" stroke="#63b8ff" d="M115.46,-472.84C111.82,-464.95 107.26,-455.05 103.36,-446.61"/>
<polygon fill="#63b8ff" stroke="#63b8ff" points="106.41,-444.88 99.05,-437.27 100.06,-447.81 106.41,-444.88"/>
</a>
</g>
</g>
<!-- Node4 -->
<g id="Node000004" class="node">
<title>Node4</title>
<g id="a_Node000004"><a xlink:title=" ">
<polygon fill="#e0e0e0" stroke="#999999" points="180,-250 120,-250 120,-231 180,-231 180,-250"/>
<text text-anchor="middle" x="150" y="-238" font-family="Helvetica,sans-Serif" font-size="10.00">iostream</text>
</a>
</g>
</g>
<!-- Node1&#45;&gt;Node4 -->
<g id="edge3_Node000001_Node000004" class="edge">
<title>Node1&#45;&gt;Node4</title>
<g id="a_edge3_Node000001_Node000004"><a xlink:title=" ">
<path fill="none" stroke="#63b8ff" d="M124.91,-472.61C126.85,-462.64 129.33,-449.06 131,-437 139.94,-372.36 146.13,-295.11 148.69,-260.23"/>
<polygon fill="#63b8ff" stroke="#63b8ff" points="152.19,-260.33 149.41,-250.1 145.21,-259.83 152.19,-260.33"/>
</a>
</g>
</g>
<!-- Node5 -->
<g id="Node000005" class="node">
<title>Node5</title>
<g id="a_Node000005"><a xlink:href="Plugin_8hpp.html" target="_top" xlink:title=" ">
<polygon fill="white" stroke="#666666" points="693.5,-437 568.5,-437 568.5,-418 693.5,-418 693.5,-437"/>
<text text-anchor="middle" x="631" y="-425" font-family="Helvetica,sans-Serif" font-size="10.00">../../Objects/Plugin.hpp</text>
</a>
</g>
</g>
<!-- Node1&#45;&gt;Node5 -->
<g id="edge4_Node000001_Node000005" class="edge">
<title>Node1&#45;&gt;Node5</title>
<g id="a_edge4_Node000001_Node000005"><a xlink:title=" ">
<path fill="none" stroke="#63b8ff" d="M210.08,-476.88C308.67,-465.55 466.61,-447.39 558.4,-436.84"/>
<polygon fill="#63b8ff" stroke="#63b8ff" points="558.91,-440.31 568.44,-435.69 558.11,-433.35 558.91,-440.31"/>
</a>
</g>
</g>
<!-- Node6 -->
<g id="Node000006" class="node">
<title>Node6</title>
<g id="a_Node000006"><a xlink:title=" ">
<polygon fill="#e0e0e0" stroke="#999999" points="972.5,-376.5 907.5,-376.5 907.5,-357.5 972.5,-357.5 972.5,-376.5"/>
<text text-anchor="middle" x="940" y="-364.5" font-family="Helvetica,sans-Serif" font-size="10.00">functional</text>
</a>
</g>
</g>
<!-- Node5&#45;&gt;Node6 -->
<g id="edge5_Node000005_Node000006" class="edge">
<title>Node5&#45;&gt;Node6</title>
<g id="a_edge5_Node000005_Node000006"><a xlink:title=" ">
<path fill="none" stroke="#63b8ff" d="M693.61,-418.89C748.08,-411.6 828.9,-399.16 898,-382 900.96,-381.26 904.02,-380.42 907.06,-379.52"/>
<polygon fill="#63b8ff" stroke="#63b8ff" points="908.15,-382.84 916.64,-376.51 906.05,-376.17 908.15,-382.84"/>
</a>
</g>
</g>
<!-- Node7 -->
<g id="Node000007" class="node">
<title>Node7</title>
<g id="a_Node000007"><a xlink:title=" ">
<polygon fill="#e0e0e0" stroke="#999999" points="880,-189.5 822,-189.5 822,-170.5 880,-170.5 880,-189.5"/>
<text text-anchor="middle" x="851" y="-177.5" font-family="Helvetica,sans-Serif" font-size="10.00">memory</text>
</a>
</g>
</g>
<!-- Node5&#45;&gt;Node7 -->
<g id="edge6_Node000005_Node000007" class="edge">
<title>Node5&#45;&gt;Node7</title>
<g id="a_edge6_Node000005_Node000007"><a xlink:title=" ">
<path fill="none" stroke="#63b8ff" d="M641.98,-417.75C652.61,-409.09 668.99,-395.25 682,-382 698.62,-365.07 799.92,-242.82 837.22,-197.68"/>
<polygon fill="#63b8ff" stroke="#63b8ff" points="840.12,-199.68 843.79,-189.74 834.72,-195.22 840.12,-199.68"/>
</a>
</g>
</g>
<!-- Node8 -->
<g id="Node000008" class="node">
<title>Node8</title>
<g id="a_Node000008"><a xlink:title=" ">
<polygon fill="#e0e0e0" stroke="#999999" points="412.5,-376.5 361.5,-376.5 361.5,-357.5 412.5,-357.5 412.5,-376.5"/>
<text text-anchor="middle" x="387" y="-364.5" font-family="Helvetica,sans-Serif" font-size="10.00">variant</text>
</a>
</g>
</g>
<!-- Node5&#45;&gt;Node8 -->
<g id="edge7_Node000005_Node000008" class="edge">
<title>Node5&#45;&gt;Node8</title>
<g id="a_edge7_Node000005_Node000008"><a xlink:title=" ">
<path fill="none" stroke="#63b8ff" d="M578.84,-417.95C536.18,-410.35 474.53,-397.97 422,-382 420.12,-381.43 418.2,-380.8 416.28,-380.13"/>
<polygon fill="#63b8ff" stroke="#63b8ff" points="417.37,-376.81 406.78,-376.59 414.93,-383.36 417.37,-376.81"/>
</a>
</g>
</g>
<!-- Node9 -->
<g id="Node000009" class="node">
<title>Node9</title>
<g id="a_Node000009"><a xlink:title=" ">
<polygon fill="#e0e0e0" stroke="#999999" points="469,-376.5 431,-376.5 431,-357.5 469,-357.5 469,-376.5"/>
<text text-anchor="middle" x="450" y="-364.5" font-family="Helvetica,sans-Serif" font-size="10.00">map</text>
</a>
</g>
</g>
<!-- Node5&#45;&gt;Node9 -->
<g id="edge8_Node000005_Node000009" class="edge">
<title>Node5&#45;&gt;Node9</title>
<g id="a_edge8_Node000005_Node000009"><a xlink:title=" ">
<path fill="none" stroke="#63b8ff" d="M594.84,-417.95C563.44,-410.06 517.02,-397.29 478,-382 476.99,-381.6 475.96,-381.18 474.93,-380.75"/>
<polygon fill="#63b8ff" stroke="#63b8ff" points="476.31,-377.53 465.77,-376.5 473.37,-383.88 476.31,-377.53"/>
</a>
</g>
</g>
<!-- Node10 -->
<g id="Node000010" class="node">
<title>Node10</title>
<g id="a_Node000010"><a xlink:href="ParsingException_8hpp.html" target="_top" xlink:title=" ">
<polygon fill="white" stroke="#666666" points="343.5,-382 178.5,-382 178.5,-352 343.5,-352 343.5,-382"/>
<text text-anchor="start" x="186.5" y="-370" font-family="Helvetica,sans-Serif" font-size="10.00">../Exceptions/ParsingException</text>
<text text-anchor="middle" x="261" y="-359" font-family="Helvetica,sans-Serif" font-size="10.00">/ParsingException.hpp</text>
</a>
</g>
</g>
<!-- Node5&#45;&gt;Node10 -->
<g id="edge9_Node000005_Node000010" class="edge">
<title>Node5&#45;&gt;Node10</title>
<g id="a_edge9_Node000005_Node000010"><a xlink:title=" ">
<path fill="none" stroke="#63b8ff" d="M577.2,-417.99C518.74,-408.75 424.28,-393.82 353.8,-382.67"/>
<polygon fill="#63b8ff" stroke="#63b8ff" points="354.01,-379.16 343.59,-381.06 352.92,-386.08 354.01,-379.16"/>
</a>
</g>
</g>
<!-- Node15 -->
<g id="Node000015" class="node">
<title>Node15</title>
<g id="a_Node000015"><a xlink:href="AInterface_8hpp.html" target="_top" xlink:title=" ">
<polygon fill="white" stroke="#666666" points="603,-382 487,-382 487,-352 603,-352 603,-382"/>
<text text-anchor="start" x="495" y="-370" font-family="Helvetica,sans-Serif" font-size="10.00">Abstracts/AInterface</text>
<text text-anchor="middle" x="545" y="-359" font-family="Helvetica,sans-Serif" font-size="10.00">/AInterface.hpp</text>
</a>
</g>
</g>
<!-- Node5&#45;&gt;Node15 -->
<g id="edge15_Node000005_Node000015" class="edge">
<title>Node5&#45;&gt;Node15</title>
<g id="a_edge15_Node000005_Node000015"><a xlink:title=" ">
<path fill="none" stroke="#63b8ff" d="M618.31,-417.87C606.75,-410 589.24,-398.09 574.23,-387.89"/>
<polygon fill="#63b8ff" stroke="#63b8ff" points="575.99,-384.85 565.75,-382.11 572.05,-390.63 575.99,-384.85"/>
</a>
</g>
</g>
<!-- Node16 -->
<g id="Node000016" class="node">
<title>Node16</title>
<g id="a_Node000016"><a xlink:href="ARenderer_8hpp.html" target="_top" xlink:title=" ">
<polygon fill="white" stroke="#666666" points="570.5,-310.5 419.5,-310.5 419.5,-291.5 570.5,-291.5 570.5,-310.5"/>
<text text-anchor="middle" x="495" y="-298.5" font-family="Helvetica,sans-Serif" font-size="10.00">../ARenderer/ARenderer.hpp</text>
</a>
</g>
</g>
<!-- Node5&#45;&gt;Node16 -->
<g id="edge38_Node000005_Node000016" class="edge">
<title>Node5&#45;&gt;Node16</title>
<g id="a_edge38_Node000005_Node000016"><a xlink:title=" ">
<path fill="none" stroke="#63b8ff" d="M631.15,-417.56C630.92,-402.3 628.33,-371.06 612,-352 595.73,-333 570.96,-321.03 548.39,-313.58"/>
<polygon fill="#63b8ff" stroke="#63b8ff" points="549.14,-310.15 538.55,-310.56 547.09,-316.84 549.14,-310.15"/>
</a>
</g>
</g>
<!-- Node20 -->
<g id="Node000020" class="node">
<title>Node20</title>
<g id="a_Node000020"><a xlink:href="APrimitive_8hpp.html" target="_top" xlink:title=" ">
<polygon fill="white" stroke="#666666" points="889,-382 773,-382 773,-352 889,-352 889,-382"/>
<text text-anchor="start" x="781" y="-370" font-family="Helvetica,sans-Serif" font-size="10.00">Abstracts/APrimitive</text>
<text text-anchor="middle" x="831" y="-359" font-family="Helvetica,sans-Serif" font-size="10.00">/APrimitive.hpp</text>
</a>
</g>
</g>
<!-- Node5&#45;&gt;Node20 -->
<g id="edge20_Node000005_Node000020" class="edge">
<title>Node5&#45;&gt;Node20</title>
<g id="a_edge20_Node000005_Node000020"><a xlink:title=" ">
<path fill="none" stroke="#63b8ff" d="M660.08,-417.99C689.62,-409.35 736.16,-395.74 773.23,-384.9"/>
<polygon fill="#63b8ff" stroke="#63b8ff" points="774.3,-388.23 782.92,-382.06 772.34,-381.51 774.3,-388.23"/>
</a>
</g>
</g>
<!-- Node21 -->
<g id="Node000021" class="node">
<title>Node21</title>
<g id="a_Node000021"><a xlink:href="IMaterial_8hpp.html" target="_top" xlink:title=" ">
<polygon fill="white" stroke="#666666" points="679,-310.5 589,-310.5 589,-291.5 679,-291.5 679,-310.5"/>
<text text-anchor="middle" x="634" y="-298.5" font-family="Helvetica,sans-Serif" font-size="10.00">../IMaterial.hpp</text>
</a>
</g>
</g>
<!-- Node5&#45;&gt;Node21 -->
<g id="edge40_Node000005_Node000021" class="edge">
<title>Node5&#45;&gt;Node21</title>
<g id="a_edge40_Node000005_Node000021"><a xlink:title=" ">
<path fill="none" stroke="#63b8ff" d="M634.6,-417.82C638.06,-408.99 643.03,-394.81 645,-382 648.22,-361.06 643.8,-336.96 639.65,-320.73"/>
<polygon fill="#63b8ff" stroke="#63b8ff" points="642.96,-319.59 636.91,-310.89 636.22,-321.46 642.96,-319.59"/>
</a>
</g>
</g>
<!-- Node22 -->
<g id="Node000022" class="node">
<title>Node22</title>
<g id="a_Node000022"><a xlink:href="ILight_8hpp.html" target="_top" xlink:title=" ">
<polygon fill="white" stroke="#666666" points="714.5,-250 649.5,-250 649.5,-231 714.5,-231 714.5,-250"/>
<text text-anchor="middle" x="682" y="-238" font-family="Helvetica,sans-Serif" font-size="10.00">ILight.hpp</text>
</a>
</g>
</g>
<!-- Node5&#45;&gt;Node22 -->
<g id="edge39_Node000005_Node000022" class="edge">
<title>Node5&#45;&gt;Node22</title>
<g id="a_edge39_Node000005_Node000022"><a xlink:title=" ">
<path fill="none" stroke="#63b8ff" d="M637.49,-417.96C650.51,-400.18 679.3,-357.41 688,-316 691.91,-297.38 689.37,-275.65 686.49,-260.48"/>
<polygon fill="#63b8ff" stroke="#63b8ff" points="689.83,-259.37 684.32,-250.32 682.99,-260.83 689.83,-259.37"/>
</a>
</g>
</g>
<!-- Node11 -->
<g id="Node000011" class="node">
<title>Node11</title>
<g id="a_Node000011"><a xlink:href="RaytracerException_8hpp.html" target="_top" xlink:title=" ">
<polygon fill="white" stroke="#666666" points="329,-316 193,-316 193,-286 329,-286 329,-316"/>
<text text-anchor="start" x="201" y="-304" font-family="Helvetica,sans-Serif" font-size="10.00">../RaytracerException</text>
<text text-anchor="middle" x="261" y="-293" font-family="Helvetica,sans-Serif" font-size="10.00">/RaytracerException.hpp</text>
</a>
</g>
</g>
<!-- Node10&#45;&gt;Node11 -->
<g id="edge10_Node000010_Node000011" class="edge">
<title>Node10&#45;&gt;Node11</title>
<g id="a_edge10_Node000010_Node000011"><a xlink:title=" ">
<path fill="none" stroke="#63b8ff" d="M261,-351.8C261,-344.34 261,-334.99 261,-326.41"/>
<polygon fill="#63b8ff" stroke="#63b8ff" points="264.5,-326.16 261,-316.16 257.5,-326.16 264.5,-326.16"/>
</a>
</g>
</g>
<!-- Node11&#45;&gt;Node4 -->
<g id="edge12_Node000011_Node000004" class="edge">
<title>Node11&#45;&gt;Node4</title>
<g id="a_edge12_Node000011_Node000004"><a xlink:title=" ">
<path fill="none" stroke="#63b8ff" d="M234.41,-285.99C216.55,-276.58 193.16,-264.24 175.52,-254.95"/>
<polygon fill="#63b8ff" stroke="#63b8ff" points="176.87,-251.71 166.39,-250.14 173.61,-257.9 176.87,-251.71"/>
</a>
</g>
</g>
<!-- Node12 -->
<g id="Node000012" class="node">
<title>Node12</title>
<g id="a_Node000012"><a xlink:title=" ">
<polygon fill="#e0e0e0" stroke="#999999" points="263.5,-250 198.5,-250 198.5,-231 263.5,-231 263.5,-250"/>
<text text-anchor="middle" x="231" y="-238" font-family="Helvetica,sans-Serif" font-size="10.00">exception</text>
</a>
</g>
</g>
<!-- Node11&#45;&gt;Node12 -->
<g id="edge11_Node000011_Node000012" class="edge">
<title>Node11&#45;&gt;Node12</title>
<g id="a_edge11_Node000011_Node000012"><a xlink:title=" ">
<path fill="none" stroke="#63b8ff" d="M253.74,-285.84C249.65,-277.87 244.51,-267.84 240.14,-259.33"/>
<polygon fill="#63b8ff" stroke="#63b8ff" points="243.17,-257.57 235.5,-250.27 236.94,-260.76 243.17,-257.57"/>
</a>
</g>
</g>
<!-- Node13 -->
<g id="Node000013" class="node">
<title>Node13</title>
<g id="a_Node000013"><a xlink:title=" ">
<polygon fill="#e0e0e0" stroke="#999999" points="326,-250 282,-250 282,-231 326,-231 326,-250"/>
<text text-anchor="middle" x="304" y="-238" font-family="Helvetica,sans-Serif" font-size="10.00">string</text>
</a>
</g>
</g>
<!-- Node11&#45;&gt;Node13 -->
<g id="edge13_Node000011_Node000013" class="edge">
<title>Node11&#45;&gt;Node13</title>
<g id="a_edge13_Node000011_Node000013"><a xlink:title=" ">
<path fill="none" stroke="#63b8ff" d="M271.41,-285.84C277.46,-277.61 285.12,-267.18 291.5,-258.51"/>
<polygon fill="#63b8ff" stroke="#63b8ff" points="294.45,-260.4 297.56,-250.27 288.81,-256.25 294.45,-260.4"/>
</a>
</g>
</g>
<!-- Node14 -->
<g id="Node000014" class="node">
<title>Node14</title>
<g id="a_Node000014"><a xlink:title=" ">
<polygon fill="#e0e0e0" stroke="#999999" points="437.5,-250 344.5,-250 344.5,-231 437.5,-231 437.5,-250"/>
<text text-anchor="middle" x="391" y="-238" font-family="Helvetica,sans-Serif" font-size="10.00">source_location</text>
</a>
</g>
</g>
<!-- Node11&#45;&gt;Node14 -->
<g id="edge14_Node000011_Node000014" class="edge">
<title>Node11&#45;&gt;Node14</title>
<g id="a_edge14_Node000011_Node000014"><a xlink:title=" ">
<path fill="none" stroke="#63b8ff" d="M292.14,-285.99C313.54,-276.36 341.73,-263.67 362.53,-254.31"/>
<polygon fill="#63b8ff" stroke="#63b8ff" points="364.12,-257.43 371.8,-250.14 361.25,-251.05 364.12,-257.43"/>
</a>
</g>
</g>
<!-- Node15&#45;&gt;Node16 -->
<g id="edge16_Node000015_Node000016" class="edge">
<title>Node15&#45;&gt;Node16</title>
<g id="a_edge16_Node000015_Node000016"><a xlink:title=" ">
<path fill="none" stroke="#63b8ff" d="M533.9,-351.8C526.34,-342.11 516.28,-329.24 508.29,-319.01"/>
<polygon fill="#63b8ff" stroke="#63b8ff" points="510.82,-316.57 501.91,-310.84 505.31,-320.88 510.82,-316.57"/>
</a>
</g>
</g>
<!-- Node17 -->
<g id="Node000017" class="node">
<title>Node17</title>
<g id="a_Node000017"><a xlink:href="Color_8hpp.html" target="_top" xlink:title=" ">
<polygon fill="white" stroke="#666666" points="651.5,-189.5 536.5,-189.5 536.5,-170.5 651.5,-170.5 651.5,-189.5"/>
<text text-anchor="middle" x="594" y="-177.5" font-family="Helvetica,sans-Serif" font-size="10.00">../../../Utils/Color.hpp</text>
</a>
</g>
</g>
<!-- Node16&#45;&gt;Node17 -->
<g id="edge17_Node000016_Node000017" class="edge">
<title>Node16&#45;&gt;Node17</title>
<g id="a_edge17_Node000016_Node000017"><a xlink:title=" ">
<path fill="none" stroke="#63b8ff" d="M502.12,-291.44C518.45,-271.81 558.84,-223.26 580.22,-197.57"/>
<polygon fill="#63b8ff" stroke="#63b8ff" points="582.97,-199.73 586.68,-189.8 577.59,-195.25 582.97,-199.73"/>
</a>
</g>
</g>
<!-- Node19 -->
<g id="Node000019" class="node">
<title>Node19</title>
<g id="a_Node000019"><a xlink:title=" ">
<polygon fill="#e0e0e0" stroke="#999999" points="518.5,-189.5 471.5,-189.5 471.5,-170.5 518.5,-170.5 518.5,-189.5"/>
<text text-anchor="middle" x="495" y="-177.5" font-family="Helvetica,sans-Serif" font-size="10.00">vector</text>
</a>
</g>
</g>
<!-- Node16&#45;&gt;Node19 -->
<g id="edge19_Node000016_Node000019" class="edge">
<title>Node16&#45;&gt;Node19</title>
<g id="a_edge19_Node000016_Node000019"><a xlink:title=" ">
<path fill="none" stroke="#63b8ff" d="M495,-291.44C495,-272.41 495,-226.19 495,-199.97"/>
<polygon fill="#63b8ff" stroke="#63b8ff" points="498.5,-199.8 495,-189.8 491.5,-199.8 498.5,-199.8"/>
</a>
</g>
</g>
<!-- Node18 -->
<g id="Node000018" class="node">
<title>Node18</title>
<g id="a_Node000018"><a xlink:title=" ">
<polygon fill="#e0e0e0" stroke="#999999" points="626,-129 562,-129 562,-110 626,-110 626,-129"/>
<text text-anchor="middle" x="594" y="-117" font-family="Helvetica,sans-Serif" font-size="10.00">algorithm</text>
</a>
</g>
</g>
<!-- Node17&#45;&gt;Node18 -->
<g id="edge18_Node000017_Node000018" class="edge">
<title>Node17&#45;&gt;Node18</title>
<g id="a_edge18_Node000017_Node000018"><a xlink:title=" ">
<path fill="none" stroke="#63b8ff" d="M594,-170.37C594,-162.25 594,-149.81 594,-139.39"/>
<polygon fill="#63b8ff" stroke="#63b8ff" points="597.5,-139.17 594,-129.17 590.5,-139.17 597.5,-139.17"/>
</a>
</g>
</g>
<!-- Node20&#45;&gt;Node7 -->
<g id="edge33_Node000020_Node000007" class="edge">
<title>Node20&#45;&gt;Node7</title>
<g id="a_edge33_Node000020_Node000007"><a xlink:title=" ">
<path fill="none" stroke="#63b8ff" d="M833.19,-351.58C834.66,-341.6 836.58,-328.01 838,-316 842.89,-274.63 847.23,-225.97 849.44,-199.85"/>
<polygon fill="#63b8ff" stroke="#63b8ff" points="852.96,-199.8 850.31,-189.54 845.98,-199.22 852.96,-199.8"/>
</a>
</g>
</g>
<!-- Node20&#45;&gt;Node21 -->
<g id="edge21_Node000020_Node000021" class="edge">
<title>Node20&#45;&gt;Node21</title>
<g id="a_edge21_Node000020_Node000021"><a xlink:title=" ">
<path fill="none" stroke="#63b8ff" d="M787.77,-351.95C752.46,-340.48 703.14,-324.46 669.96,-313.68"/>
<polygon fill="#63b8ff" stroke="#63b8ff" points="670.81,-310.28 660.22,-310.52 668.65,-316.94 670.81,-310.28"/>
</a>
</g>
</g>
<!-- Node27 -->
<g id="Node000027" class="node">
<title>Node27</title>
<g id="a_Node000027"><a xlink:title=" ">
<polygon fill="#e0e0e0" stroke="#999999" points="829,-310.5 773,-310.5 773,-291.5 829,-291.5 829,-310.5"/>
<text text-anchor="middle" x="801" y="-298.5" font-family="Helvetica,sans-Serif" font-size="10.00">optional</text>
</a>
</g>
</g>
<!-- Node20&#45;&gt;Node27 -->
<g id="edge34_Node000020_Node000027" class="edge">
<title>Node20&#45;&gt;Node27</title>
<g id="a_edge34_Node000020_Node000027"><a xlink:title=" ">
<path fill="none" stroke="#63b8ff" d="M824.34,-351.8C819.94,-342.41 814.13,-330.02 809.41,-319.95"/>
<polygon fill="#63b8ff" stroke="#63b8ff" points="812.56,-318.41 805.15,-310.84 806.22,-321.38 812.56,-318.41"/>
</a>
</g>
</g>
<!-- Node28 -->
<g id="Node000028" class="node">
<title>Node28</title>
<g id="a_Node000028"><a xlink:href="Ray_8hpp.html" target="_top" xlink:title=" ">
<polygon fill="white" stroke="#666666" points="1012,-195 898,-195 898,-165 1012,-165 1012,-195"/>
<text text-anchor="start" x="906" y="-183" font-family="Helvetica,sans-Serif" font-size="10.00">../../../Geometry/Ray</text>
<text text-anchor="middle" x="955" y="-172" font-family="Helvetica,sans-Serif" font-size="10.00">/Ray.hpp</text>
</a>
</g>
</g>
<!-- Node20&#45;&gt;Node28 -->
<g id="edge35_Node000020_Node000028" class="edge">
<title>Node20&#45;&gt;Node28</title>
<g id="a_edge35_Node000020_Node000028"><a xlink:title=" ">
<path fill="none" stroke="#63b8ff" d="M840.52,-351.79C861.95,-319.83 914.06,-242.07 939.93,-203.49"/>
<polygon fill="#63b8ff" stroke="#63b8ff" points="942.95,-205.26 945.61,-195 937.14,-201.36 942.95,-205.26"/>
</a>
</g>
</g>
<!-- Node21&#45;&gt;Node17 -->
<g id="edge22_Node000021_Node000017" class="edge">
<title>Node21&#45;&gt;Node17</title>
<g id="a_edge22_Node000021_Node000017"><a xlink:title=" ">
<path fill="none" stroke="#63b8ff" d="M631.12,-291.44C624.7,-272.32 609.05,-225.77 600.26,-199.62"/>
<polygon fill="#63b8ff" stroke="#63b8ff" points="603.46,-198.17 596.96,-189.8 596.83,-200.4 603.46,-198.17"/>
</a>
</g>
</g>
<!-- Node21&#45;&gt;Node19 -->
<g id="edge32_Node000021_Node000019" class="edge">
<title>Node21&#45;&gt;Node19</title>
<g id="a_edge32_Node000021_Node000019"><a xlink:title=" ">
<path fill="none" stroke="#63b8ff" d="M624,-291.44C600.77,-271.56 542.88,-221.99 513.19,-196.57"/>
<polygon fill="#63b8ff" stroke="#63b8ff" points="515.15,-193.65 505.28,-189.8 510.6,-198.96 515.15,-193.65"/>
</a>
</g>
</g>
<!-- Node21&#45;&gt;Node22 -->
<g id="edge23_Node000021_Node000022" class="edge">
<title>Node21&#45;&gt;Node22</title>
<g id="a_edge23_Node000021_Node000022"><a xlink:title=" ">
<path fill="none" stroke="#63b8ff" d="M641.08,-291.37C648.24,-282.64 659.49,-268.93 668.39,-258.09"/>
<polygon fill="#63b8ff" stroke="#63b8ff" points="671.25,-260.12 674.89,-250.17 665.84,-255.68 671.25,-260.12"/>
</a>
</g>
</g>
<!-- Node22&#45;&gt;Node7 -->
<g id="edge31_Node000022_Node000007" class="edge">
<title>Node22&#45;&gt;Node7</title>
<g id="a_edge31_Node000022_Node000007"><a xlink:title=" ">
<path fill="none" stroke="#63b8ff" d="M707.67,-231C734.13,-222.18 776.55,-207.9 813,-195 814.84,-194.35 816.73,-193.67 818.63,-192.99"/>
<polygon fill="#63b8ff" stroke="#63b8ff" points="819.93,-196.24 828.13,-189.53 817.53,-189.66 819.93,-196.24"/>
</a>
</g>
</g>
<!-- Node22&#45;&gt;Node17 -->
<g id="edge29_Node000022_Node000017" class="edge">
<title>Node22&#45;&gt;Node17</title>
<g id="a_edge29_Node000022_Node000017"><a xlink:title=" ">
<path fill="none" stroke="#63b8ff" d="M669.02,-230.87C654.98,-221.54 632.37,-206.51 615.64,-195.38"/>
<polygon fill="#63b8ff" stroke="#63b8ff" points="617.3,-192.29 607.04,-189.67 613.43,-198.12 617.3,-192.29"/>
</a>
</g>
</g>
<!-- Node22&#45;&gt;Node19 -->
<g id="edge30_Node000022_Node000019" class="edge">
<title>Node22&#45;&gt;Node19</title>
<g id="a_edge30_Node000022_Node000019"><a xlink:title=" ">
<path fill="none" stroke="#63b8ff" d="M649.49,-231.32C618.08,-223.13 569.3,-209.67 528,-195 526.57,-194.49 525.11,-193.95 523.65,-193.4"/>
<polygon fill="#63b8ff" stroke="#63b8ff" points="524.63,-190.02 514.04,-189.54 522.02,-196.51 524.63,-190.02"/>
</a>
</g>
</g>
<!-- Node23 -->
<g id="Node000023" class="node">
<title>Node23</title>
<g id="a_Node000023"><a xlink:href="HitRecord_8hpp.html" target="_top" xlink:title=" ">
<polygon fill="white" stroke="#666666" points="804,-195 670,-195 670,-165 804,-165 804,-195"/>
<text text-anchor="start" x="678" y="-183" font-family="Helvetica,sans-Serif" font-size="10.00">../../Geometry/HitRecord</text>
<text text-anchor="middle" x="737" y="-172" font-family="Helvetica,sans-Serif" font-size="10.00">/HitRecord.hpp</text>
</a>
</g>
</g>
<!-- Node22&#45;&gt;Node23 -->
<g id="edge24_Node000022_Node000023" class="edge">
<title>Node22&#45;&gt;Node23</title>
<g id="a_edge24_Node000022_Node000023"><a xlink:title=" ">
<path fill="none" stroke="#63b8ff" d="M690.12,-230.87C697.09,-223.44 707.46,-212.42 716.68,-202.62"/>
<polygon fill="#63b8ff" stroke="#63b8ff" points="719.43,-204.8 723.73,-195.11 714.33,-200 719.43,-204.8"/>
</a>
</g>
</g>
<!-- Node24 -->
<g id="Node000024" class="node">
<title>Node24</title>
<g id="a_Node000024"><a xlink:href="Point3D_8hpp.html" target="_top" xlink:title=" ">
<polygon fill="white" stroke="#666666" points="913,-129 787,-129 787,-110 913,-110 913,-129"/>
<text text-anchor="middle" x="850" y="-117" font-family="Helvetica,sans-Serif" font-size="10.00">../Point3D/Point3D.hpp</text>
</a>
</g>
</g>
<!-- Node23&#45;&gt;Node24 -->
<g id="edge25_Node000023_Node000024" class="edge">
<title>Node23&#45;&gt;Node24</title>
<g id="a_edge25_Node000023_Node000024"><a xlink:title=" ">
<path fill="none" stroke="#63b8ff" d="M764.07,-164.99C782.25,-155.58 806.07,-143.24 824.02,-133.95"/>
<polygon fill="#63b8ff" stroke="#63b8ff" points="826.04,-136.84 833.31,-129.14 822.82,-130.63 826.04,-136.84"/>
</a>
</g>
</g>
<!-- Node25 -->
<g id="Node000025" class="node">
<title>Node25</title>
<g id="a_Node000025"><a xlink:href="Vector3D_8hpp.html" target="_top" xlink:title=" ">
<polygon fill="white" stroke="#666666" points="919,-74 781,-74 781,-55 919,-55 919,-74"/>
<text text-anchor="middle" x="850" y="-62" font-family="Helvetica,sans-Serif" font-size="10.00">../Vector3D/Vector3D.hpp</text>
</a>
</g>
</g>
<!-- Node23&#45;&gt;Node25 -->
<g id="edge28_Node000023_Node000025" class="edge">
<title>Node23&#45;&gt;Node25</title>
<g id="a_edge28_Node000023_Node000025"><a xlink:title=" ">
<path fill="none" stroke="#63b8ff" d="M742.87,-164.99C749.66,-150.03 761.98,-126.3 778,-110 790.59,-97.19 807.57,-86.47 821.88,-78.76"/>
<polygon fill="#63b8ff" stroke="#63b8ff" points="823.55,-81.84 830.82,-74.14 820.33,-75.62 823.55,-81.84"/>
</a>
</g>
</g>
<!-- Node24&#45;&gt;Node25 -->
<g id="edge26_Node000024_Node000025" class="edge">
<title>Node24&#45;&gt;Node25</title>
<g id="a_edge26_Node000024_Node000025"><a xlink:title=" ">
<path fill="none" stroke="#63b8ff" d="M850,-109.75C850,-102.8 850,-92.85 850,-84.13"/>
<polygon fill="#63b8ff" stroke="#63b8ff" points="853.5,-84.09 850,-74.09 846.5,-84.09 853.5,-84.09"/>
</a>
</g>
</g>
<!-- Node26 -->
<g id="Node000026" class="node">
<title>Node26</title>
<g id="a_Node000026"><a xlink:title=" ">
<polygon fill="#e0e0e0" stroke="#999999" points="875.5,-19 824.5,-19 824.5,0 875.5,0 875.5,-19"/>
<text text-anchor="middle" x="850" y="-7" font-family="Helvetica,sans-Serif" font-size="10.00">math.h</text>
</a>
</g>
</g>
<!-- Node25&#45;&gt;Node26 -->
<g id="edge27_Node000025_Node000026" class="edge">
<title>Node25&#45;&gt;Node26</title>
<g id="a_edge27_Node000025_Node000026"><a xlink:title=" ">
<path fill="none" stroke="#63b8ff" d="M850,-54.75C850,-47.8 850,-37.85 850,-29.13"/>
<polygon fill="#63b8ff" stroke="#63b8ff" points="853.5,-29.09 850,-19.09 846.5,-29.09 853.5,-29.09"/>
</a>
</g>
</g>
<!-- Node28&#45;&gt;Node24 -->
<g id="edge36_Node000028_Node000024" class="edge">
<title>Node28&#45;&gt;Node24</title>
<g id="a_edge36_Node000028_Node000024"><a xlink:title=" ">
<path fill="none" stroke="#63b8ff" d="M929.85,-164.99C913.11,-155.66 891.23,-143.47 874.61,-134.21"/>
<polygon fill="#63b8ff" stroke="#63b8ff" points="875.95,-130.95 865.51,-129.14 872.54,-137.06 875.95,-130.95"/>
</a>
</g>
</g>
<!-- Node28&#45;&gt;Node25 -->
<g id="edge37_Node000028_Node000025" class="edge">
<title>Node28&#45;&gt;Node25</title>
<g id="a_edge37_Node000028_Node000025"><a xlink:title=" ">
<path fill="none" stroke="#63b8ff" d="M950.91,-164.95C946,-149.96 936.55,-126.2 922,-110 910.16,-96.82 893.5,-86.18 879.19,-78.61"/>
<polygon fill="#63b8ff" stroke="#63b8ff" points="880.7,-75.46 870.19,-74.09 877.56,-81.71 880.7,-75.46"/>
</a>
</g>
</g>
</g>
</svg>
