<?xml version="1.0" encoding="UTF-8" standalone="no"?>
<!DOCTYPE svg PUBLIC "-//W3C//DTD SVG 1.1//EN"
 "http://www.w3.org/Graphics/SVG/1.1/DTD/svg11.dtd">
<!-- Generated by graphviz version 2.43.0 (0)
 -->
<!-- Title: src/Geometry/Point3D/Point3D.hpp Pages: 1 -->
<svg width="716pt" height="621pt"
 viewBox="0.00 0.00 716.00 621.00" xmlns="http://www.w3.org/2000/svg" xmlns:xlink="http://www.w3.org/1999/xlink">
<g id="graph0" class="graph" transform="scale(1 1) rotate(0) translate(4 617)">
<title>src/Geometry/Point3D/Point3D.hpp</title>
<!-- Node1 -->
<g id="Node000001" class="node">
<title>Node1</title>
<g id="a_Node000001"><a xlink:title=" ">
<polygon fill="#999999" stroke="#666666" points="516,-613 392,-613 392,-583 516,-583 516,-613"/>
<text text-anchor="start" x="400" y="-601" font-family="Helvetica,sans-Serif" font-size="10.00">src/Geometry/Point3D</text>
<text text-anchor="middle" x="454" y="-590" font-family="Helvetica,sans-Serif" font-size="10.00">/Point3D.hpp</text>
</a>
</g>
</g>
<!-- Node2 -->
<g id="Node000002" class="node">
<title>Node2</title>
<g id="a_Node000002"><a xlink:href="Camera_8hpp.html" target="_top" xlink:title=" ">
<polygon fill="white" stroke="#666666" points="361.5,-481 222.5,-481 222.5,-451 361.5,-451 361.5,-481"/>
<text text-anchor="start" x="230.5" y="-469" font-family="Helvetica,sans-Serif" font-size="10.00">src/CorePlugin/Renderers</text>
<text text-anchor="middle" x="292" y="-458" font-family="Helvetica,sans-Serif" font-size="10.00">/Camera/Camera.hpp</text>
</a>
</g>
</g>
<!-- Node1&#45;&gt;Node2 -->
<g id="edge1_Node000001_Node000002" class="edge">
<title>Node1&#45;&gt;Node2</title>
<g id="a_edge1_Node000001_Node000002"><a xlink:title=" ">
<path fill="none" stroke="#63b8ff" d="M417.71,-577.77C402.69,-569.15 385.45,-558.38 371,-547 344.93,-526.47 318.65,-497.93 303.93,-481.07"/>
<polygon fill="#63b8ff" stroke="#63b8ff" points="416.29,-580.99 426.73,-582.84 419.72,-574.89 416.29,-580.99"/>
</a>
</g>
</g>
<!-- Node9 -->
<g id="Node000009" class="node">
<title>Node9</title>
<g id="a_Node000009"><a xlink:href="HitRecord_8hpp.html" target="_top" xlink:title=" ">
<polygon fill="white" stroke="#666666" points="600,-217 466,-217 466,-187 600,-187 600,-217"/>
<text text-anchor="start" x="474" y="-205" font-family="Helvetica,sans-Serif" font-size="10.00">src/Geometry/HitRecord</text>
<text text-anchor="middle" x="533" y="-194" font-family="Helvetica,sans-Serif" font-size="10.00">/HitRecord.hpp</text>
</a>
</g>
</g>
<!-- Node1&#45;&gt;Node9 -->
<g id="edge23_Node000001_Node000009" class="edge">
<title>Node1&#45;&gt;Node9</title>
<g id="a_edge23_Node000001_Node000009"><a xlink:title=" ">
<path fill="none" stroke="#63b8ff" d="M499.59,-578.1C513.43,-570.33 527.48,-560.04 537,-547 558.56,-517.49 556,-503.54 556,-467 556,-467 556,-467 556,-333 556,-290.37 543.86,-241.06 537.22,-217.28"/>
<polygon fill="#63b8ff" stroke="#63b8ff" points="497.79,-575.09 490.57,-582.84 501.05,-581.28 497.79,-575.09"/>
</a>
</g>
</g>
<!-- Node16 -->
<g id="Node000016" class="node">
<title>Node16</title>
<g id="a_Node000016"><a xlink:href="Point3D_8cpp.html" target="_top" xlink:title=" ">
<polygon fill="white" stroke="#666666" points="708,-547 584,-547 584,-517 708,-517 708,-547"/>
<text text-anchor="start" x="592" y="-535" font-family="Helvetica,sans-Serif" font-size="10.00">src/Geometry/Point3D</text>
<text text-anchor="middle" x="646" y="-524" font-family="Helvetica,sans-Serif" font-size="10.00">/Point3D.cpp</text>
</a>
</g>
</g>
<!-- Node1&#45;&gt;Node16 -->
<g id="edge24_Node000001_Node000016" class="edge">
<title>Node1&#45;&gt;Node16</title>
<g id="a_edge24_Node000001_Node000016"><a xlink:title=" ">
<path fill="none" stroke="#63b8ff" d="M505.83,-579.72C536.59,-569.47 575.1,-556.63 603.96,-547.01"/>
<polygon fill="#63b8ff" stroke="#63b8ff" points="504.52,-576.47 496.14,-582.95 506.73,-583.11 504.52,-576.47"/>
</a>
</g>
</g>
<!-- Node17 -->
<g id="Node000017" class="node">
<title>Node17</title>
<g id="a_Node000017"><a xlink:href="Ray_8hpp.html" target="_top" xlink:title=" ">
<polygon fill="white" stroke="#666666" points="324,-541.5 178,-541.5 178,-522.5 324,-522.5 324,-541.5"/>
<text text-anchor="middle" x="251" y="-529.5" font-family="Helvetica,sans-Serif" font-size="10.00">src/Geometry/Ray/Ray.hpp</text>
</a>
</g>
</g>
<!-- Node1&#45;&gt;Node17 -->
<g id="edge25_Node000001_Node000017" class="edge">
<title>Node1&#45;&gt;Node17</title>
<g id="a_edge25_Node000001_Node000017"><a xlink:title=" ">
<path fill="none" stroke="#63b8ff" d="M399.74,-579.89C360.43,-567.5 308.95,-551.27 278.02,-541.52"/>
<polygon fill="#63b8ff" stroke="#63b8ff" points="398.86,-583.29 409.45,-582.95 400.97,-576.61 398.86,-583.29"/>
</a>
</g>
</g>
<!-- Node19 -->
<g id="Node000019" class="node">
<title>Node19</title>
<g id="a_Node000019"><a xlink:href="Rectangle3D_8hpp.html" target="_top" xlink:title=" ">
<polygon fill="white" stroke="#666666" points="528,-547 380,-547 380,-517 528,-517 528,-547"/>
<text text-anchor="start" x="388" y="-535" font-family="Helvetica,sans-Serif" font-size="10.00">src/Geometry/Rectangle3D</text>
<text text-anchor="middle" x="454" y="-524" font-family="Helvetica,sans-Serif" font-size="10.00">/Rectangle3D.hpp</text>
</a>
</g>
</g>
<!-- Node1&#45;&gt;Node19 -->
<g id="edge28_Node000001_Node000019" class="edge">
<title>Node1&#45;&gt;Node19</title>
<g id="a_edge28_Node000001_Node000019"><a xlink:title=" ">
<path fill="none" stroke="#63b8ff" d="M454,-572.54C454,-563.96 454,-554.61 454,-547.16"/>
<polygon fill="#63b8ff" stroke="#63b8ff" points="450.5,-572.8 454,-582.8 457.5,-572.8 450.5,-572.8"/>
</a>
</g>
</g>
<!-- Node3 -->
<g id="Node000003" class="node">
<title>Node3</title>
<g id="a_Node000003"><a xlink:href="Camera_8cpp.html" target="_top" xlink:title=" ">
<polygon fill="white" stroke="#666666" points="424.5,-415 285.5,-415 285.5,-385 424.5,-385 424.5,-415"/>
<text text-anchor="start" x="293.5" y="-403" font-family="Helvetica,sans-Serif" font-size="10.00">src/CorePlugin/Renderers</text>
<text text-anchor="middle" x="355" y="-392" font-family="Helvetica,sans-Serif" font-size="10.00">/Camera/Camera.cpp</text>
</a>
</g>
</g>
<!-- Node2&#45;&gt;Node3 -->
<g id="edge2_Node000002_Node000003" class="edge">
<title>Node2&#45;&gt;Node3</title>
<g id="a_edge2_Node000002_Node000003"><a xlink:title=" ">
<path fill="none" stroke="#63b8ff" d="M313.02,-443.65C322.25,-434.27 332.83,-423.53 341.06,-415.16"/>
<polygon fill="#63b8ff" stroke="#63b8ff" points="310.5,-441.21 305.98,-450.8 315.49,-446.13 310.5,-441.21"/>
</a>
</g>
</g>
<!-- Node4 -->
<g id="Node000004" class="node">
<title>Node4</title>
<g id="a_Node000004"><a xlink:href="Scene_8hpp.html" target="_top" xlink:title=" ">
<polygon fill="white" stroke="#666666" points="267,-415 135,-415 135,-385 267,-385 267,-415"/>
<text text-anchor="start" x="143" y="-403" font-family="Helvetica,sans-Serif" font-size="10.00">src/SceneSystem/Scene</text>
<text text-anchor="middle" x="201" y="-392" font-family="Helvetica,sans-Serif" font-size="10.00">/Scene.hpp</text>
</a>
</g>
</g>
<!-- Node2&#45;&gt;Node4 -->
<g id="edge3_Node000002_Node000004" class="edge">
<title>Node2&#45;&gt;Node4</title>
<g id="a_edge3_Node000002_Node000004"><a xlink:title=" ">
<path fill="none" stroke="#63b8ff" d="M263.6,-445.03C249.83,-435.34 233.62,-423.94 221.14,-415.16"/>
<polygon fill="#63b8ff" stroke="#63b8ff" points="261.61,-447.91 271.8,-450.8 265.64,-442.18 261.61,-447.91"/>
</a>
</g>
</g>
<!-- Node5 -->
<g id="Node000005" class="node">
<title>Node5</title>
<g id="a_Node000005"><a xlink:href="ILight_8hpp.html" target="_top" xlink:title=" ">
<polygon fill="white" stroke="#666666" points="307.5,-349 188.5,-349 188.5,-319 307.5,-319 307.5,-349"/>
<text text-anchor="start" x="196.5" y="-337" font-family="Helvetica,sans-Serif" font-size="10.00">src/Objects/Abstracts</text>
<text text-anchor="middle" x="248" y="-326" font-family="Helvetica,sans-Serif" font-size="10.00">/ILight.hpp</text>
</a>
</g>
</g>
<!-- Node4&#45;&gt;Node5 -->
<g id="edge4_Node000004_Node000005" class="edge">
<title>Node4&#45;&gt;Node5</title>
<g id="a_edge4_Node000004_Node000005"><a xlink:title=" ">
<path fill="none" stroke="#63b8ff" d="M211.22,-376.24C217.33,-367.21 225.01,-357.11 231.88,-349.16"/>
<polygon fill="#63b8ff" stroke="#63b8ff" points="208.18,-374.49 205.71,-384.8 214.07,-378.28 208.18,-374.49"/>
</a>
</g>
</g>
<!-- Node15 -->
<g id="Node000015" class="node">
<title>Node15</title>
<g id="a_Node000015"><a xlink:href="Scene_8cpp.html" target="_top" xlink:title=" ">
<polygon fill="white" stroke="#666666" points="132,-349 0,-349 0,-319 132,-319 132,-349"/>
<text text-anchor="start" x="8" y="-337" font-family="Helvetica,sans-Serif" font-size="10.00">src/SceneSystem/Scene</text>
<text text-anchor="middle" x="66" y="-326" font-family="Helvetica,sans-Serif" font-size="10.00">/Scene.cpp</text>
</a>
</g>
</g>
<!-- Node4&#45;&gt;Node15 -->
<g id="edge22_Node000004_Node000015" class="edge">
<title>Node4&#45;&gt;Node15</title>
<g id="a_edge22_Node000004_Node000015"><a xlink:title=" ">
<path fill="none" stroke="#63b8ff" d="M162.29,-380.65C141.06,-370.58 115.15,-358.3 95.56,-349.01"/>
<polygon fill="#63b8ff" stroke="#63b8ff" points="160.84,-383.83 171.37,-384.95 163.84,-377.51 160.84,-383.83"/>
</a>
</g>
</g>
<!-- Node5&#45;&gt;Node4 -->
<g id="edge21_Node000005_Node000004" class="edge">
<title>Node5&#45;&gt;Node4</title>
<g id="a_edge21_Node000005_Node000004"><a xlink:title=" ">
<path fill="none" stroke="#63b8ff" d="M237.81,-357.71C231.7,-366.74 224.02,-376.84 217.15,-384.8"/>
<polygon fill="#63b8ff" stroke="#63b8ff" points="240.84,-359.47 243.31,-349.16 234.96,-355.68 240.84,-359.47"/>
</a>
</g>
</g>
<!-- Node6 -->
<g id="Node000006" class="node">
<title>Node6</title>
<g id="a_Node000006"><a xlink:href="IMaterial_8hpp.html" target="_top" xlink:title=" ">
<polygon fill="white" stroke="#666666" points="400.5,-283 281.5,-283 281.5,-253 400.5,-253 400.5,-283"/>
<text text-anchor="start" x="289.5" y="-271" font-family="Helvetica,sans-Serif" font-size="10.00">src/Objects/Abstracts</text>
<text text-anchor="middle" x="341" y="-260" font-family="Helvetica,sans-Serif" font-size="10.00">/IMaterial.hpp</text>
</a>
</g>
</g>
<!-- Node5&#45;&gt;Node6 -->
<g id="edge5_Node000005_Node000006" class="edge">
<title>Node5&#45;&gt;Node6</title>
<g id="a_edge5_Node000005_Node000006"><a xlink:title=" ">
<path fill="none" stroke="#63b8ff" d="M277.02,-313.03C291.09,-303.34 307.67,-291.94 320.42,-283.16"/>
<polygon fill="#63b8ff" stroke="#63b8ff" points="274.89,-310.24 268.64,-318.8 278.86,-316.01 274.89,-310.24"/>
</a>
</g>
</g>
<!-- Node12 -->
<g id="Node000012" class="node">
<title>Node12</title>
<g id="a_Node000012"><a xlink:href="IPlugin_8hpp.html" target="_top" xlink:title=" ">
<polygon fill="white" stroke="#666666" points="254,-145.5 126,-145.5 126,-126.5 254,-126.5 254,-145.5"/>
<text text-anchor="middle" x="190" y="-133.5" font-family="Helvetica,sans-Serif" font-size="10.00">src/Objects/IPlugin.hpp</text>
</a>
</g>
</g>
<!-- Node5&#45;&gt;Node12 -->
<g id="edge20_Node000005_Node000012" class="edge">
<title>Node5&#45;&gt;Node12</title>
<g id="a_edge20_Node000005_Node000012"><a xlink:title=" ">
<path fill="none" stroke="#63b8ff" d="M240.93,-309.11C227.98,-265.36 201.02,-174.24 192.58,-145.73"/>
<polygon fill="#63b8ff" stroke="#63b8ff" points="237.64,-310.31 243.83,-318.9 244.35,-308.32 237.64,-310.31"/>
</a>
</g>
</g>
<!-- Node7 -->
<g id="Node000007" class="node">
<title>Node7</title>
<g id="a_Node000007"><a xlink:href="Plane_8hpp.html" target="_top" xlink:title=" ">
<polygon fill="white" stroke="#666666" points="574.5,-151 435.5,-151 435.5,-121 574.5,-121 574.5,-151"/>
<text text-anchor="start" x="443.5" y="-139" font-family="Helvetica,sans-Serif" font-size="10.00">src/CorePlugin/Primitives</text>
<text text-anchor="middle" x="505" y="-128" font-family="Helvetica,sans-Serif" font-size="10.00">/Plane/Plane.hpp</text>
</a>
</g>
</g>
<!-- Node6&#45;&gt;Node7 -->
<g id="edge6_Node000006_Node000007" class="edge">
<title>Node6&#45;&gt;Node7</title>
<g id="a_edge6_Node000006_Node000007"><a xlink:title=" ">
<path fill="none" stroke="#63b8ff" d="M374.24,-247.52C388.43,-238.74 404.92,-227.92 419,-217 446.23,-195.88 474.99,-167.78 491.39,-151.12"/>
<polygon fill="#63b8ff" stroke="#63b8ff" points="372.02,-244.77 365.3,-252.97 375.66,-250.75 372.02,-244.77"/>
</a>
</g>
</g>
<!-- Node6&#45;&gt;Node9 -->
<g id="edge8_Node000006_Node000009" class="edge">
<title>Node6&#45;&gt;Node9</title>
<g id="a_edge8_Node000006_Node000009"><a xlink:title=" ">
<path fill="none" stroke="#63b8ff" d="M387.15,-249.59C416.84,-239.36 455.27,-226.59 485.27,-217.01"/>
<polygon fill="#63b8ff" stroke="#63b8ff" points="385.74,-246.37 377.44,-252.95 388.03,-252.99 385.74,-246.37"/>
</a>
</g>
</g>
<!-- Node10 -->
<g id="Node000010" class="node">
<title>Node10</title>
<g id="a_Node000010"><a xlink:href="APrimitive_8hpp.html" target="_top" xlink:title=" ">
<polygon fill="white" stroke="#666666" points="410,-217 264,-217 264,-187 410,-187 410,-217"/>
<text text-anchor="start" x="272" y="-205" font-family="Helvetica,sans-Serif" font-size="10.00">src/Objects/Abstracts</text>
<text text-anchor="middle" x="337" y="-194" font-family="Helvetica,sans-Serif" font-size="10.00">/APrimitive/APrimitive.hpp</text>
</a>
</g>
</g>
<!-- Node6&#45;&gt;Node10 -->
<g id="edge12_Node000006_Node000010" class="edge">
<title>Node6&#45;&gt;Node10</title>
<g id="a_edge12_Node000006_Node000010"><a xlink:title=" ">
<path fill="none" stroke="#63b8ff" d="M339.47,-242.54C338.94,-233.96 338.35,-224.61 337.89,-217.16"/>
<polygon fill="#63b8ff" stroke="#63b8ff" points="336,-243.03 340.11,-252.8 342.98,-242.6 336,-243.03"/>
</a>
</g>
</g>
<!-- Node6&#45;&gt;Node12 -->
<g id="edge19_Node000006_Node000012" class="edge">
<title>Node6&#45;&gt;Node12</title>
<g id="a_edge19_Node000006_Node000012"><a xlink:title=" ">
<path fill="none" stroke="#63b8ff" d="M302.15,-248.31C286.64,-239.88 269.15,-229.11 255,-217 229.02,-194.78 205.63,-161.19 195.42,-145.56"/>
<polygon fill="#63b8ff" stroke="#63b8ff" points="300.53,-251.41 311,-252.98 303.8,-245.22 300.53,-251.41"/>
</a>
</g>
</g>
<!-- Node8 -->
<g id="Node000008" class="node">
<title>Node8</title>
<g id="a_Node000008"><a xlink:href="Plane_8cpp.html" target="_top" xlink:title=" ">
<polygon fill="white" stroke="#666666" points="574.5,-85 435.5,-85 435.5,-55 574.5,-55 574.5,-85"/>
<text text-anchor="start" x="443.5" y="-73" font-family="Helvetica,sans-Serif" font-size="10.00">src/CorePlugin/Primitives</text>
<text text-anchor="middle" x="505" y="-62" font-family="Helvetica,sans-Serif" font-size="10.00">/Plane/Plane.cpp</text>
</a>
</g>
</g>
<!-- Node7&#45;&gt;Node8 -->
<g id="edge7_Node000007_Node000008" class="edge">
<title>Node7&#45;&gt;Node8</title>
<g id="a_edge7_Node000007_Node000008"><a xlink:title=" ">
<path fill="none" stroke="#63b8ff" d="M505,-110.54C505,-101.96 505,-92.61 505,-85.16"/>
<polygon fill="#63b8ff" stroke="#63b8ff" points="501.5,-110.8 505,-120.8 508.5,-110.8 501.5,-110.8"/>
</a>
</g>
</g>
<!-- Node9&#45;&gt;Node2 -->
<g id="edge9_Node000009_Node000002" class="edge">
<title>Node9&#45;&gt;Node2</title>
<g id="a_edge9_Node000009_Node000002"><a xlink:title=" ">
<path fill="none" stroke="#63b8ff" d="M528.19,-227.1C518.26,-270.7 491.44,-362.95 434,-415 413.95,-433.16 386.91,-444.81 361.8,-452.25"/>
<polygon fill="#63b8ff" stroke="#63b8ff" points="531.65,-227.64 530.36,-217.12 524.81,-226.15 531.65,-227.64"/>
</a>
</g>
</g>
<!-- Node9&#45;&gt;Node5 -->
<g id="edge10_Node000009_Node000005" class="edge">
<title>Node9&#45;&gt;Node5</title>
<g id="a_edge10_Node000009_Node000005"><a xlink:title=" ">
<path fill="none" stroke="#63b8ff" d="M506.27,-223.31C481.96,-241.01 444.56,-266.39 409,-283 376.25,-298.3 337.63,-310.47 306.42,-318.98"/>
<polygon fill="#63b8ff" stroke="#63b8ff" points="508.63,-225.91 514.6,-217.16 504.48,-220.28 508.63,-225.91"/>
</a>
</g>
</g>
<!-- Node9&#45;&gt;Node6 -->
<g id="edge11_Node000009_Node000006" class="edge">
<title>Node9&#45;&gt;Node6</title>
<g id="a_edge11_Node000009_Node000006"><a xlink:title=" ">
<path fill="none" stroke="#63b8ff" d="M486.95,-220.37C457.28,-230.6 418.86,-243.37 388.83,-252.95"/>
<polygon fill="#63b8ff" stroke="#63b8ff" points="488.36,-223.59 496.66,-217.01 486.06,-216.98 488.36,-223.59"/>
</a>
</g>
</g>
<!-- Node10&#45;&gt;Node4 -->
<g id="edge18_Node000010_Node000004" class="edge">
<title>Node10&#45;&gt;Node4</title>
<g id="a_edge18_Node000010_Node000004"><a xlink:title=" ">
<path fill="none" stroke="#63b8ff" d="M292.64,-221.49C254.7,-239.98 202.6,-272.4 179,-319 168.07,-340.59 180.96,-368.3 191.11,-384.79"/>
<polygon fill="#63b8ff" stroke="#63b8ff" points="294.41,-224.52 301.95,-217.09 291.42,-218.19 294.41,-224.52"/>
</a>
</g>
</g>
<!-- Node10&#45;&gt;Node7 -->
<g id="edge13_Node000010_Node000007" class="edge">
<title>Node10&#45;&gt;Node7</title>
<g id="a_edge13_Node000010_Node000007"><a xlink:title=" ">
<path fill="none" stroke="#63b8ff" d="M383.4,-183.32C410.14,-173.14 443.29,-160.51 468.22,-151.01"/>
<polygon fill="#63b8ff" stroke="#63b8ff" points="381.97,-180.12 373.87,-186.95 384.46,-186.67 381.97,-180.12"/>
</a>
</g>
</g>
<!-- Node11 -->
<g id="Node000011" class="node">
<title>Node11</title>
<g id="a_Node000011"><a xlink:href="APrimitive_8cpp.html" target="_top" xlink:title=" ">
<polygon fill="white" stroke="#666666" points="417.5,-151 272.5,-151 272.5,-121 417.5,-121 417.5,-151"/>
<text text-anchor="start" x="280.5" y="-139" font-family="Helvetica,sans-Serif" font-size="10.00">src/Objects/Abstracts</text>
<text text-anchor="middle" x="345" y="-128" font-family="Helvetica,sans-Serif" font-size="10.00">/APrimitive/APrimitive.cpp</text>
</a>
</g>
</g>
<!-- Node10&#45;&gt;Node11 -->
<g id="edge14_Node000010_Node000011" class="edge">
<title>Node10&#45;&gt;Node11</title>
<g id="a_edge14_Node000010_Node000011"><a xlink:title=" ">
<path fill="none" stroke="#63b8ff" d="M340.02,-176.83C341.1,-168.17 342.29,-158.7 343.23,-151.16"/>
<polygon fill="#63b8ff" stroke="#63b8ff" points="336.54,-176.44 338.78,-186.8 343.49,-177.31 336.54,-176.44"/>
</a>
</g>
</g>
<!-- Node10&#45;&gt;Node12 -->
<g id="edge15_Node000010_Node000012" class="edge">
<title>Node10&#45;&gt;Node12</title>
<g id="a_edge15_Node000010_Node000012"><a xlink:title=" ">
<path fill="none" stroke="#63b8ff" d="M295.52,-182.94C267.36,-170.68 231.4,-155.02 209.56,-145.52"/>
<polygon fill="#63b8ff" stroke="#63b8ff" points="294.17,-186.17 304.74,-186.95 296.97,-179.75 294.17,-186.17"/>
</a>
</g>
</g>
<!-- Node13 -->
<g id="Node000013" class="node">
<title>Node13</title>
<g id="a_Node000013"><a xlink:href="CorePlugin_8hpp.html" target="_top" xlink:title=" ">
<polygon fill="white" stroke="#666666" points="271.5,-79.5 108.5,-79.5 108.5,-60.5 271.5,-60.5 271.5,-79.5"/>
<text text-anchor="middle" x="190" y="-67.5" font-family="Helvetica,sans-Serif" font-size="10.00">src/CorePlugin/CorePlugin.hpp</text>
</a>
</g>
</g>
<!-- Node12&#45;&gt;Node13 -->
<g id="edge16_Node000012_Node000013" class="edge">
<title>Node12&#45;&gt;Node13</title>
<g id="a_edge16_Node000012_Node000013"><a xlink:title=" ">
<path fill="none" stroke="#63b8ff" d="M190,-116.08C190,-104.13 190,-89.22 190,-79.91"/>
<polygon fill="#63b8ff" stroke="#63b8ff" points="186.5,-116.37 190,-126.37 193.5,-116.37 186.5,-116.37"/>
</a>
</g>
</g>
<!-- Node14 -->
<g id="Node000014" class="node">
<title>Node14</title>
<g id="a_Node000014"><a xlink:href="CorePlugin_8cpp.html" target="_top" xlink:title=" ">
<polygon fill="white" stroke="#666666" points="271,-19 109,-19 109,0 271,0 271,-19"/>
<text text-anchor="middle" x="190" y="-7" font-family="Helvetica,sans-Serif" font-size="10.00">src/CorePlugin/CorePlugin.cpp</text>
</a>
</g>
</g>
<!-- Node13&#45;&gt;Node14 -->
<g id="edge17_Node000013_Node000014" class="edge">
<title>Node13&#45;&gt;Node14</title>
<g id="a_edge17_Node000013_Node000014"><a xlink:title=" ">
<path fill="none" stroke="#63b8ff" d="M190,-50.16C190,-39.74 190,-27.3 190,-19.17"/>
<polygon fill="#63b8ff" stroke="#63b8ff" points="186.5,-50.37 190,-60.37 193.5,-50.37 186.5,-50.37"/>
</a>
</g>
</g>
<!-- Node17&#45;&gt;Node2 -->
<g id="edge26_Node000017_Node000002" class="edge">
<title>Node17&#45;&gt;Node2</title>
<g id="a_edge26_Node000017_Node000002"><a xlink:title=" ">
<path fill="none" stroke="#63b8ff" d="M261.94,-513.92C268.45,-503.76 276.62,-491.01 282.8,-481.36"/>
<polygon fill="#63b8ff" stroke="#63b8ff" points="258.98,-512.06 256.53,-522.37 264.87,-515.84 258.98,-512.06"/>
</a>
</g>
</g>
<!-- Node18 -->
<g id="Node000018" class="node">
<title>Node18</title>
<g id="a_Node000018"><a xlink:href="Ray_8cpp.html" target="_top" xlink:title=" ">
<polygon fill="white" stroke="#666666" points="204.5,-475.5 59.5,-475.5 59.5,-456.5 204.5,-456.5 204.5,-475.5"/>
<text text-anchor="middle" x="132" y="-463.5" font-family="Helvetica,sans-Serif" font-size="10.00">src/Geometry/Ray/Ray.cpp</text>
</a>
</g>
</g>
<!-- Node17&#45;&gt;Node18 -->
<g id="edge27_Node000017_Node000018" class="edge">
<title>Node17&#45;&gt;Node18</title>
<g id="a_edge27_Node000017_Node000018"><a xlink:title=" ">
<path fill="none" stroke="#63b8ff" d="M225.95,-517.53C202.51,-504.92 168.2,-486.47 148.17,-475.7"/>
<polygon fill="#63b8ff" stroke="#63b8ff" points="224.49,-520.71 234.95,-522.37 227.8,-514.55 224.49,-520.71"/>
</a>
</g>
</g>
<!-- Node19&#45;&gt;Node2 -->
<g id="edge29_Node000019_Node000002" class="edge">
<title>Node19&#45;&gt;Node2</title>
<g id="a_edge29_Node000019_Node000002"><a xlink:title=" ">
<path fill="none" stroke="#63b8ff" d="M408.91,-513.19C383.19,-503.02 351.4,-490.47 327.47,-481.01"/>
<polygon fill="#63b8ff" stroke="#63b8ff" points="407.86,-516.54 418.45,-516.95 410.43,-510.03 407.86,-516.54"/>
</a>
</g>
</g>
<!-- Node20 -->
<g id="Node000020" class="node">
<title>Node20</title>
<g id="a_Node000020"><a xlink:href="Rectangle3D_8cpp.html" target="_top" xlink:title=" ">
<polygon fill="white" stroke="#666666" points="528,-481 380,-481 380,-451 528,-451 528,-481"/>
<text text-anchor="start" x="388" y="-469" font-family="Helvetica,sans-Serif" font-size="10.00">src/Geometry/Rectangle3D</text>
<text text-anchor="middle" x="454" y="-458" font-family="Helvetica,sans-Serif" font-size="10.00">/Rectangle3D.cpp</text>
</a>
</g>
</g>
<!-- Node19&#45;&gt;Node20 -->
<g id="edge30_Node000019_Node000020" class="edge">
<title>Node19&#45;&gt;Node20</title>
<g id="a_edge30_Node000019_Node000020"><a xlink:title=" ">
<path fill="none" stroke="#63b8ff" d="M454,-506.54C454,-497.96 454,-488.61 454,-481.16"/>
<polygon fill="#63b8ff" stroke="#63b8ff" points="450.5,-506.8 454,-516.8 457.5,-506.8 450.5,-506.8"/>
</a>
</g>
</g>
</g>
</svg>
