<?xml version="1.0" encoding="UTF-8" standalone="no"?>
<!DOCTYPE svg PUBLIC "-//W3C//DTD SVG 1.1//EN"
 "http://www.w3.org/Graphics/SVG/1.1/DTD/svg11.dtd">
<!-- Generated by graphviz version 2.43.0 (0)
 -->
<!-- Title: src/Geometry/Point3D/Point3D.hpp Pages: 1 -->
<!--zoomable 489 -->

<svg id="main" version="1.1" xmlns="http://www.w3.org/2000/svg" xmlns:xlink="http://www.w3.org/1999/xlink" xml:space="preserve" onload="init(evt)">
<style type="text/css"><![CDATA[
.node, .edge {opacity: 0.7;}
.node.selected, .edge.selected {opacity: 1;}
.edge:hover path { stroke: red; }
.edge:hover polygon { stroke: red; fill: red; }
]]></style>

<defs>
  <circle id="rim" cx="0" cy="0" r="7"/>
  <circle id="rim2" cx="0" cy="0" r="3.5"/>
  <g id="zoomPlus">
    <use xlink:href="#rim" fill="#404040"><set attributeName="fill" to="#808080" begin="zoomplus.mouseover" end="zoomplus.mouseout"/></use>
    <path d="M-4,0h8M0,-4v8" fill="none" stroke="white" stroke-width="1.5" pointer-events="none"/>
  </g>
  <g id="zoomMin">
    <use xlink:href="#rim" fill="#404040"><set attributeName="fill" to="#808080" begin="zoomminus.mouseover" end="zoomminus.mouseout"/></use>
    <path d="M-4,0h8" fill="none" stroke="white" stroke-width="1.5" pointer-events="none"/>
  </g>
  <g id="arrowUp" transform="translate(30 24)">
    <use xlink:href="#rim"/>
    <path pointer-events="none" fill="none" stroke="white" stroke-width="1.5" d="M0,-3.0v7 M-2.5,-0.5L0,-3.0L2.5,-0.5"/>
  </g>
  <g id="arrowRight" transform="rotate(90) translate(36 -43)">
    <use xlink:href="#rim"/>
    <path pointer-events="none" fill="none" stroke="white" stroke-width="1.5" d="M0,-3.0v7 M-2.5,-0.5L0,-3.0L2.5,-0.5"/>
  </g>
  <g id="arrowDown" transform="rotate(180) translate(-30 -48)">
    <use xlink:href="#rim"/>
    <path pointer-events="none" fill="none" stroke="white" stroke-width="1.5" d="M0,-3.0v7 M-2.5,-0.5L0,-3.0L2.5,-0.5"/>
  </g>
  <g id="arrowLeft" transform="rotate(270) translate(-36 17)">
    <use xlink:href="#rim"/>
    <path pointer-events="none" fill="none" stroke="white" stroke-width="1.5" d="M0,-3.0v7 M-2.5,-0.5L0,-3.0L2.5,-0.5"/>
  </g>
  <g id="resetDef">
    <use xlink:href="#rim2" fill="#404040"><set attributeName="fill" to="#808080" begin="reset.mouseover" end="reset.mouseout"/></use>
  </g>
</defs>
<script type="application/ecmascript">
var viewWidth = 881;
var viewHeight = 489;
var sectionId = 'dynsection-1';
</script>
<script type="application/ecmascript" xlink:href="svg.min.js"/>
<svg id="graph" class="graph">
<g id="viewport">
<title>src/Geometry/Point3D/Point3D.hpp</title>
<!-- Node1 -->
<g id="Node000001" class="node">
<title>Node1</title>
<g id="a_Node000001"><a xlink:title=" ">
<polygon fill="#999999" stroke="#666666" points="619,-481 495,-481 495,-451 619,-451 619,-481"/>
<text text-anchor="start" x="503" y="-469" font-family="Helvetica,sans-Serif" font-size="10.00">src/Geometry/Point3D</text>
<text text-anchor="middle" x="557" y="-458" font-family="Helvetica,sans-Serif" font-size="10.00">/Point3D.hpp</text>
</a>
</g>
</g>
<!-- Node2 -->
<g id="Node000002" class="node">
<title>Node2</title>
<g id="a_Node000002"><a xlink:href="HitRecord_8hpp.html" target="_top" xlink:title=" ">
<polygon fill="white" stroke="#666666" points="401,-415 267,-415 267,-385 401,-385 401,-415"/>
<text text-anchor="start" x="275" y="-403" font-family="Helvetica,sans-Serif" font-size="10.00">src/Geometry/HitRecord</text>
<text text-anchor="middle" x="334" y="-392" font-family="Helvetica,sans-Serif" font-size="10.00">/HitRecord.hpp</text>
</a>
</g>
</g>
<!-- Node1&#45;&gt;Node2 -->
<g id="edge1_Node000001_Node000002" class="edge">
<title>Node1&#45;&gt;Node2</title>
<g id="a_edge1_Node000001_Node000002"><a xlink:title=" ">
<path fill="none" stroke="#63b8ff" d="M498.19,-448.12C462.23,-437.8 416.78,-424.76 382.82,-415.01"/>
<polygon fill="#63b8ff" stroke="#63b8ff" points="497.48,-451.56 508.06,-450.95 499.42,-444.83 497.48,-451.56"/>
</a>
</g>
</g>
<!-- Node12 -->
<g id="Node000012" class="node">
<title>Node12</title>
<g id="a_Node000012"><a xlink:href="Point3D_8cpp.html" target="_top" xlink:title=" ">
<polygon fill="white" stroke="#666666" points="543,-415 419,-415 419,-385 543,-385 543,-415"/>
<text text-anchor="start" x="427" y="-403" font-family="Helvetica,sans-Serif" font-size="10.00">src/Geometry/Point3D</text>
<text text-anchor="middle" x="481" y="-392" font-family="Helvetica,sans-Serif" font-size="10.00">/Point3D.cpp</text>
</a>
</g>
</g>
<!-- Node1&#45;&gt;Node12 -->
<g id="edge16_Node000001_Node000012" class="edge">
<title>Node1&#45;&gt;Node12</title>
<g id="a_edge16_Node000001_Node000012"><a xlink:title=" ">
<path fill="none" stroke="#63b8ff" d="M532.3,-444.2C521.02,-434.7 507.95,-423.69 497.82,-415.16"/>
<polygon fill="#63b8ff" stroke="#63b8ff" points="530.23,-447.03 540.13,-450.8 534.74,-441.68 530.23,-447.03"/>
</a>
</g>
</g>
<!-- Node13 -->
<g id="Node000013" class="node">
<title>Node13</title>
<g id="a_Node000013"><a xlink:href="Ray_8hpp.html" target="_top" xlink:title=" ">
<polygon fill="white" stroke="#666666" points="707,-409.5 561,-409.5 561,-390.5 707,-390.5 707,-409.5"/>
<text text-anchor="middle" x="634" y="-397.5" font-family="Helvetica,sans-Serif" font-size="10.00">src/Geometry/Ray/Ray.hpp</text>
</a>
</g>
</g>
<!-- Node1&#45;&gt;Node13 -->
<g id="edge17_Node000001_Node000013" class="edge">
<title>Node1&#45;&gt;Node13</title>
<g id="a_edge17_Node000001_Node000013"><a xlink:title=" ">
<path fill="none" stroke="#63b8ff" d="M581.95,-444.26C595.96,-432.61 612.72,-418.69 623.36,-409.84"/>
<polygon fill="#63b8ff" stroke="#63b8ff" points="579.54,-441.71 574.09,-450.8 584.02,-447.1 579.54,-441.71"/>
</a>
</g>
</g>
<!-- Node15 -->
<g id="Node000015" class="node">
<title>Node15</title>
<g id="a_Node000015"><a xlink:href="Rectangle3D_8hpp.html" target="_top" xlink:title=" ">
<polygon fill="white" stroke="#666666" points="873,-415 725,-415 725,-385 873,-385 873,-415"/>
<text text-anchor="start" x="733" y="-403" font-family="Helvetica,sans-Serif" font-size="10.00">src/Geometry/Rectangle3D</text>
<text text-anchor="middle" x="799" y="-392" font-family="Helvetica,sans-Serif" font-size="10.00">/Rectangle3D.hpp</text>
</a>
</g>
</g>
<!-- Node1&#45;&gt;Node15 -->
<g id="edge19_Node000001_Node000015" class="edge">
<title>Node1&#45;&gt;Node15</title>
<g id="a_edge19_Node000001_Node000015"><a xlink:title=" ">
<path fill="none" stroke="#63b8ff" d="M619.82,-448.39C659,-438.03 708.85,-424.84 746.02,-415.01"/>
<polygon fill="#63b8ff" stroke="#63b8ff" points="618.88,-445.01 610.11,-450.95 620.67,-451.78 618.88,-445.01"/>
</a>
</g>
</g>
<!-- Node3 -->
<g id="Node000003" class="node">
<title>Node3</title>
<g id="a_Node000003"><a xlink:href="ILight_8hpp.html" target="_top" xlink:title=" ">
<polygon fill="white" stroke="#666666" points="349.5,-349 230.5,-349 230.5,-319 349.5,-319 349.5,-349"/>
<text text-anchor="start" x="238.5" y="-337" font-family="Helvetica,sans-Serif" font-size="10.00">src/Objects/Abstracts</text>
<text text-anchor="middle" x="290" y="-326" font-family="Helvetica,sans-Serif" font-size="10.00">/ILight.hpp</text>
</a>
</g>
</g>
<!-- Node2&#45;&gt;Node3 -->
<g id="edge2_Node000002_Node000003" class="edge">
<title>Node2&#45;&gt;Node3</title>
<g id="a_edge2_Node000002_Node000003"><a xlink:title=" ">
<path fill="none" stroke="#63b8ff" d="M318.55,-376.53C312.29,-367.43 305.26,-357.19 299.74,-349.16"/>
<polygon fill="#63b8ff" stroke="#63b8ff" points="315.69,-378.54 324.23,-384.8 321.45,-374.57 315.69,-378.54"/>
</a>
</g>
</g>
<!-- Node4 -->
<g id="Node000004" class="node">
<title>Node4</title>
<g id="a_Node000004"><a xlink:href="IMaterial_8hpp.html" target="_top" xlink:title=" ">
<polygon fill="white" stroke="#666666" points="437.5,-283 318.5,-283 318.5,-253 437.5,-253 437.5,-283"/>
<text text-anchor="start" x="326.5" y="-271" font-family="Helvetica,sans-Serif" font-size="10.00">src/Objects/Abstracts</text>
<text text-anchor="middle" x="378" y="-260" font-family="Helvetica,sans-Serif" font-size="10.00">/IMaterial.hpp</text>
</a>
</g>
</g>
<!-- Node2&#45;&gt;Node4 -->
<g id="edge15_Node000002_Node000004" class="edge">
<title>Node2&#45;&gt;Node4</title>
<g id="a_edge15_Node000002_Node000004"><a xlink:title=" ">
<path fill="none" stroke="#63b8ff" d="M346.33,-375.81C350.43,-367.51 354.76,-357.98 358,-349 366.11,-326.51 372.15,-299.32 375.37,-283.13"/>
<polygon fill="#63b8ff" stroke="#63b8ff" points="343.13,-374.39 341.72,-384.89 349.37,-377.56 343.13,-374.39"/>
</a>
</g>
</g>
<!-- Node3&#45;&gt;Node4 -->
<g id="edge3_Node000003_Node000004" class="edge">
<title>Node3&#45;&gt;Node4</title>
<g id="a_edge3_Node000003_Node000004"><a xlink:title=" ">
<path fill="none" stroke="#63b8ff" d="M317.84,-312.75C331.07,-303.13 346.57,-291.86 358.52,-283.16"/>
<polygon fill="#63b8ff" stroke="#63b8ff" points="315.56,-310.08 309.53,-318.8 319.68,-315.75 315.56,-310.08"/>
</a>
</g>
</g>
<!-- Node7 -->
<g id="Node000007" class="node">
<title>Node7</title>
<g id="a_Node000007"><a xlink:href="IPlugin_8hpp.html" target="_top" xlink:title=" ">
<polygon fill="white" stroke="#666666" points="442,-145.5 314,-145.5 314,-126.5 442,-126.5 442,-145.5"/>
<text text-anchor="middle" x="378" y="-133.5" font-family="Helvetica,sans-Serif" font-size="10.00">src/Objects/IPlugin.hpp</text>
</a>
</g>
</g>
<!-- Node3&#45;&gt;Node7 -->
<g id="edge13_Node000003_Node000007" class="edge">
<title>Node3&#45;&gt;Node7</title>
<g id="a_edge13_Node000003_Node000007"><a xlink:title=" ">
<path fill="none" stroke="#63b8ff" d="M293.83,-308.49C296.83,-292.35 301.73,-270.95 309,-253 326.42,-210 358.17,-164.12 371.66,-145.54"/>
<polygon fill="#63b8ff" stroke="#63b8ff" points="290.31,-308.28 292.05,-318.73 297.21,-309.47 290.31,-308.28"/>
</a>
</g>
</g>
<!-- Node10 -->
<g id="Node000010" class="node">
<title>Node10</title>
<g id="a_Node000010"><a xlink:href="Scene_8hpp.html" target="_top" xlink:title=" ">
<polygon fill="white" stroke="#666666" points="132,-151 0,-151 0,-121 132,-121 132,-151"/>
<text text-anchor="start" x="8" y="-139" font-family="Helvetica,sans-Serif" font-size="10.00">src/SceneSystem/Scene</text>
<text text-anchor="middle" x="66" y="-128" font-family="Helvetica,sans-Serif" font-size="10.00">/Scene.hpp</text>
</a>
</g>
</g>
<!-- Node3&#45;&gt;Node10 -->
<g id="edge14_Node000003_Node000010" class="edge">
<title>Node3&#45;&gt;Node10</title>
<g id="a_edge14_Node000003_Node000010"><a xlink:title=" ">
<path fill="none" stroke="#63b8ff" d="M241.59,-314.68C199.13,-295.22 138.31,-261.17 98,-217 80.01,-197.29 67.76,-168.21 64.29,-151.08"/>
<polygon fill="#63b8ff" stroke="#63b8ff" points="240.34,-317.95 250.9,-318.84 243.2,-311.56 240.34,-317.95"/>
</a>
</g>
</g>
<!-- Node5 -->
<g id="Node000005" class="node">
<title>Node5</title>
<g id="a_Node000005"><a xlink:href="APrimitive_8hpp.html" target="_top" xlink:title=" ">
<polygon fill="white" stroke="#666666" points="262,-217 116,-217 116,-187 262,-187 262,-217"/>
<text text-anchor="start" x="124" y="-205" font-family="Helvetica,sans-Serif" font-size="10.00">src/Objects/Abstracts</text>
<text text-anchor="middle" x="189" y="-194" font-family="Helvetica,sans-Serif" font-size="10.00">/APrimitive/APrimitive.hpp</text>
</a>
</g>
</g>
<!-- Node4&#45;&gt;Node5 -->
<g id="edge4_Node000004_Node000005" class="edge">
<title>Node4&#45;&gt;Node5</title>
<g id="a_edge4_Node000004_Node000005"><a xlink:title=" ">
<path fill="none" stroke="#63b8ff" d="M326.98,-249.72C296.7,-239.47 258.79,-226.63 230.38,-217.01"/>
<polygon fill="#63b8ff" stroke="#63b8ff" points="325.93,-253.06 336.52,-252.95 328.17,-246.43 325.93,-253.06"/>
</a>
</g>
</g>
<!-- Node4&#45;&gt;Node7 -->
<g id="edge12_Node000004_Node000007" class="edge">
<title>Node4&#45;&gt;Node7</title>
<g id="a_edge12_Node000004_Node000007"><a xlink:title=" ">
<path fill="none" stroke="#63b8ff" d="M378,-242.57C378,-213.17 378,-165.31 378,-145.75"/>
<polygon fill="#63b8ff" stroke="#63b8ff" points="374.5,-242.84 378,-252.84 381.5,-242.84 374.5,-242.84"/>
</a>
</g>
</g>
<!-- Node6 -->
<g id="Node000006" class="node">
<title>Node6</title>
<g id="a_Node000006"><a xlink:href="APrimitive_8cpp.html" target="_top" xlink:title=" ">
<polygon fill="white" stroke="#666666" points="295.5,-151 150.5,-151 150.5,-121 295.5,-121 295.5,-151"/>
<text text-anchor="start" x="158.5" y="-139" font-family="Helvetica,sans-Serif" font-size="10.00">src/Objects/Abstracts</text>
<text text-anchor="middle" x="223" y="-128" font-family="Helvetica,sans-Serif" font-size="10.00">/APrimitive/APrimitive.cpp</text>
</a>
</g>
</g>
<!-- Node5&#45;&gt;Node6 -->
<g id="edge5_Node000005_Node000006" class="edge">
<title>Node5&#45;&gt;Node6</title>
<g id="a_edge5_Node000005_Node000006"><a xlink:title=" ">
<path fill="none" stroke="#63b8ff" d="M201.24,-177.96C206,-169 211.3,-159.03 215.48,-151.16"/>
<polygon fill="#63b8ff" stroke="#63b8ff" points="198.15,-176.32 196.55,-186.8 204.33,-179.61 198.15,-176.32"/>
</a>
</g>
</g>
<!-- Node5&#45;&gt;Node7 -->
<g id="edge6_Node000005_Node000007" class="edge">
<title>Node5&#45;&gt;Node7</title>
<g id="a_edge6_Node000005_Node000007"><a xlink:title=" ">
<path fill="none" stroke="#63b8ff" d="M239.98,-183.74C276.52,-171.36 324.16,-155.23 352.85,-145.52"/>
<polygon fill="#63b8ff" stroke="#63b8ff" points="238.83,-180.43 230.48,-186.95 241.07,-187.06 238.83,-180.43"/>
</a>
</g>
</g>
<!-- Node5&#45;&gt;Node10 -->
<g id="edge9_Node000005_Node000010" class="edge">
<title>Node5&#45;&gt;Node10</title>
<g id="a_edge9_Node000005_Node000010"><a xlink:title=" ">
<path fill="none" stroke="#63b8ff" d="M152.95,-182.24C133.75,-172.25 110.54,-160.18 92.93,-151.01"/>
<polygon fill="#63b8ff" stroke="#63b8ff" points="151.52,-185.44 162.01,-186.95 154.75,-179.23 151.52,-185.44"/>
</a>
</g>
</g>
<!-- Node8 -->
<g id="Node000008" class="node">
<title>Node8</title>
<g id="a_Node000008"><a xlink:href="CorePlugin_8hpp.html" target="_top" xlink:title=" ">
<polygon fill="white" stroke="#666666" points="459.5,-79.5 296.5,-79.5 296.5,-60.5 459.5,-60.5 459.5,-79.5"/>
<text text-anchor="middle" x="378" y="-67.5" font-family="Helvetica,sans-Serif" font-size="10.00">src/CorePlugin/CorePlugin.hpp</text>
</a>
</g>
</g>
<!-- Node7&#45;&gt;Node8 -->
<g id="edge7_Node000007_Node000008" class="edge">
<title>Node7&#45;&gt;Node8</title>
<g id="a_edge7_Node000007_Node000008"><a xlink:title=" ">
<path fill="none" stroke="#63b8ff" d="M378,-116.08C378,-104.13 378,-89.22 378,-79.91"/>
<polygon fill="#63b8ff" stroke="#63b8ff" points="374.5,-116.37 378,-126.37 381.5,-116.37 374.5,-116.37"/>
</a>
</g>
</g>
<!-- Node9 -->
<g id="Node000009" class="node">
<title>Node9</title>
<g id="a_Node000009"><a xlink:href="CorePlugin_8cpp.html" target="_top" xlink:title=" ">
<polygon fill="white" stroke="#666666" points="459,-19 297,-19 297,0 459,0 459,-19"/>
<text text-anchor="middle" x="378" y="-7" font-family="Helvetica,sans-Serif" font-size="10.00">src/CorePlugin/CorePlugin.cpp</text>
</a>
</g>
</g>
<!-- Node8&#45;&gt;Node9 -->
<g id="edge8_Node000008_Node000009" class="edge">
<title>Node8&#45;&gt;Node9</title>
<g id="a_edge8_Node000008_Node000009"><a xlink:title=" ">
<path fill="none" stroke="#63b8ff" d="M378,-50.16C378,-39.74 378,-27.3 378,-19.17"/>
<polygon fill="#63b8ff" stroke="#63b8ff" points="374.5,-50.37 378,-60.37 381.5,-50.37 374.5,-50.37"/>
</a>
</g>
</g>
<!-- Node10&#45;&gt;Node3 -->
<g id="edge10_Node000010_Node000003" class="edge">
<title>Node10&#45;&gt;Node3</title>
<g id="a_edge10_Node000010_Node000003"><a xlink:title=" ">
<path fill="none" stroke="#63b8ff" d="M81.56,-160.38C89.93,-177.5 100.96,-200.52 116,-217 159.36,-264.51 226.44,-300.31 263.53,-318.84"/>
<polygon fill="#63b8ff" stroke="#63b8ff" points="84.52,-158.47 76.93,-151.08 78.25,-161.59 84.52,-158.47"/>
</a>
</g>
</g>
<!-- Node11 -->
<g id="Node000011" class="node">
<title>Node11</title>
<g id="a_Node000011"><a xlink:href="Scene_8cpp.html" target="_top" xlink:title=" ">
<polygon fill="white" stroke="#666666" points="132,-85 0,-85 0,-55 132,-55 132,-85"/>
<text text-anchor="start" x="8" y="-73" font-family="Helvetica,sans-Serif" font-size="10.00">src/SceneSystem/Scene</text>
<text text-anchor="middle" x="66" y="-62" font-family="Helvetica,sans-Serif" font-size="10.00">/Scene.cpp</text>
</a>
</g>
</g>
<!-- Node10&#45;&gt;Node11 -->
<g id="edge11_Node000010_Node000011" class="edge">
<title>Node10&#45;&gt;Node11</title>
<g id="a_edge11_Node000010_Node000011"><a xlink:title=" ">
<path fill="none" stroke="#63b8ff" d="M66,-110.54C66,-101.96 66,-92.61 66,-85.16"/>
<polygon fill="#63b8ff" stroke="#63b8ff" points="62.5,-110.8 66,-120.8 69.5,-110.8 62.5,-110.8"/>
</a>
</g>
</g>
<!-- Node14 -->
<g id="Node000014" class="node">
<title>Node14</title>
<g id="a_Node000014"><a xlink:href="Ray_8cpp.html" target="_top" xlink:title=" ">
<polygon fill="white" stroke="#666666" points="706.5,-343.5 561.5,-343.5 561.5,-324.5 706.5,-324.5 706.5,-343.5"/>
<text text-anchor="middle" x="634" y="-331.5" font-family="Helvetica,sans-Serif" font-size="10.00">src/Geometry/Ray/Ray.cpp</text>
</a>
</g>
</g>
<!-- Node13&#45;&gt;Node14 -->
<g id="edge18_Node000013_Node000014" class="edge">
<title>Node13&#45;&gt;Node14</title>
<g id="a_edge18_Node000013_Node000014"><a xlink:title=" ">
<path fill="none" stroke="#63b8ff" d="M634,-380.08C634,-368.13 634,-353.22 634,-343.91"/>
<polygon fill="#63b8ff" stroke="#63b8ff" points="630.5,-380.37 634,-390.37 637.5,-380.37 630.5,-380.37"/>
</a>
</g>
</g>
<!-- Node16 -->
<g id="Node000016" class="node">
<title>Node16</title>
<g id="a_Node000016"><a xlink:href="Rectangle3D_8cpp.html" target="_top" xlink:title=" ">
<polygon fill="white" stroke="#666666" points="873,-349 725,-349 725,-319 873,-319 873,-349"/>
<text text-anchor="start" x="733" y="-337" font-family="Helvetica,sans-Serif" font-size="10.00">src/Geometry/Rectangle3D</text>
<text text-anchor="middle" x="799" y="-326" font-family="Helvetica,sans-Serif" font-size="10.00">/Rectangle3D.cpp</text>
</a>
</g>
</g>
<!-- Node15&#45;&gt;Node16 -->
<g id="edge20_Node000015_Node000016" class="edge">
<title>Node15&#45;&gt;Node16</title>
<g id="a_edge20_Node000015_Node000016"><a xlink:title=" ">
<path fill="none" stroke="#63b8ff" d="M799,-374.54C799,-365.96 799,-356.61 799,-349.16"/>
<polygon fill="#63b8ff" stroke="#63b8ff" points="795.5,-374.8 799,-384.8 802.5,-374.8 795.5,-374.8"/>
</a>
</g>
</g>
</g>
</svg>

<g id="navigator" transform="translate(0 0)" fill="#404254">
  <rect fill="#f2f5e9" fill-opacity="0.5" stroke="#606060" stroke-width=".5" x="0" y="0" width="60" height="60"/>
  <use id="zoomplus" xlink:href="#zoomPlus" x="17" y="9" onmousedown="handleZoom(evt,'in')"/>
  <use id="zoomminus" xlink:href="#zoomMin" x="42" y="9" onmousedown="handleZoom(evt,'out')"/>
  <use id="reset" xlink:href="#resetDef" x="30" y="36" onmousedown="handleReset()"/>
   <use id="arrowup" xlink:href="#arrowUp" x="0" y="0" onmousedown="handlePan(0,-1)"/>
  <use id="arrowright" xlink:href="#arrowRight" x="0" y="0" onmousedown="handlePan(1,0)"/>
  <use id="arrowdown" xlink:href="#arrowDown" x="0" y="0" onmousedown="handlePan(0,1)"/>
  <use id="arrowleft" xlink:href="#arrowLeft" x="0" y="0" onmousedown="handlePan(-1,0)"/>
</g>
<svg viewBox="0 0 15 15" width="100%" height="30px" preserveAspectRatio="xMaxYMin meet">
 <g id="arrow_out" transform="scale(0.3 0.3)">
  <a xlink:href="Point3D_8hpp__dep__incl_org.svg" target="_base">
   <rect id="button" ry="5" rx="5" y="6" x="6" height="38" width="38"
        fill="#f2f5e9" fill-opacity="0.5" stroke="#606060" stroke-width="1.0"/>
   <path id="arrow"
     d="M 11.500037,31.436501 C 11.940474,20.09759 22.043105,11.32322 32.158766,21.979434 L 37.068811,17.246167 C 37.068811,17.246167 37.088388,32 37.088388,32 L 22.160133,31.978069 C 22.160133,31.978069 26.997745,27.140456 26.997745,27.140456 C 18.528582,18.264221 13.291696,25.230495 11.500037,31.436501 z"
     style="fill:#404040;"/>
  </a>
 </g>
</svg>

<style type='text/css'>
<![CDATA[
[data-mouse-over-selected='false'] { opacity: 0.7; }
[data-mouse-over-selected='true']  { opacity: 1.0; }
]]>
</style>
<script type="application/ecmascript"><![CDATA[
document.addEventListener('DOMContentLoaded', (event) => {
  highlightEdges();
  highlightAdjacentNodes();
});
]]></script>
</svg>
