<?xml version="1.0" encoding="UTF-8" standalone="no"?>
<!DOCTYPE svg PUBLIC "-//W3C//DTD SVG 1.1//EN"
 "http://www.w3.org/Graphics/SVG/1.1/DTD/svg11.dtd">
<!-- Generated by graphviz version 2.43.0 (0)
 -->
<!-- Title: src/Objects/Plugins/CorePlugin/Lights/PointLight/PointLight.cpp Pages: 1 -->
<svg width="555pt" height="401pt"
 viewBox="0.00 0.00 555.00 401.00" xmlns="http://www.w3.org/2000/svg" xmlns:xlink="http://www.w3.org/1999/xlink">
<g id="graph0" class="graph" transform="scale(1 1) rotate(0) translate(4 397)">
<title>src/Objects/Plugins/CorePlugin/Lights/PointLight/PointLight.cpp</title>
<!-- Node1 -->
<g id="Node000001" class="node">
<title>Node1</title>
<g id="a_Node000001"><a xlink:title=" ">
<polygon fill="#999999" stroke="#666666" points="417,-393 261,-393 261,-352 417,-352 417,-393"/>
<text text-anchor="start" x="269" y="-381" font-family="Helvetica,sans-Serif" font-size="10.00">src/Objects/Plugins</text>
<text text-anchor="start" x="269" y="-370" font-family="Helvetica,sans-Serif" font-size="10.00">/CorePlugin/Lights/PointLight</text>
<text text-anchor="middle" x="339" y="-359" font-family="Helvetica,sans-Serif" font-size="10.00">/PointLight.cpp</text>
</a>
</g>
</g>
<!-- Node2 -->
<g id="Node000002" class="node">
<title>Node2</title>
<g id="a_Node000002"><a xlink:href="PointLight_8hpp.html" target="_top" xlink:title=" ">
<polygon fill="white" stroke="#666666" points="382,-316 296,-316 296,-297 382,-297 382,-316"/>
<text text-anchor="middle" x="339" y="-304" font-family="Helvetica,sans-Serif" font-size="10.00">PointLight.hpp</text>
</a>
</g>
</g>
<!-- Node1&#45;&gt;Node2 -->
<g id="edge1_Node000001_Node000002" class="edge">
<title>Node1&#45;&gt;Node2</title>
<g id="a_edge1_Node000001_Node000002"><a xlink:title=" ">
<path fill="none" stroke="#63b8ff" d="M339,-351.95C339,-343.85 339,-334.5 339,-326.47"/>
<polygon fill="#63b8ff" stroke="#63b8ff" points="342.5,-326.26 339,-316.26 335.5,-326.26 342.5,-326.26"/>
</a>
</g>
</g>
<!-- Node9 -->
<g id="Node000009" class="node">
<title>Node9</title>
<g id="a_Node000009"><a xlink:title=" ">
<polygon fill="#e0e0e0" stroke="#999999" points="547,-129 483,-129 483,-110 547,-110 547,-129"/>
<text text-anchor="middle" x="515" y="-117" font-family="Helvetica,sans-Serif" font-size="10.00">algorithm</text>
</a>
</g>
</g>
<!-- Node1&#45;&gt;Node9 -->
<g id="edge15_Node000001_Node000009" class="edge">
<title>Node1&#45;&gt;Node9</title>
<g id="a_edge15_Node000001_Node000009"><a xlink:title=" ">
<path fill="none" stroke="#63b8ff" d="M375.62,-352C423.16,-324.33 503.94,-268.75 537,-195 545.5,-176.04 535.8,-152.93 526.73,-137.52"/>
<polygon fill="#63b8ff" stroke="#63b8ff" points="529.66,-135.59 521.34,-129.03 523.75,-139.35 529.66,-135.59"/>
</a>
</g>
</g>
<!-- Node12 -->
<g id="Node000012" class="node">
<title>Node12</title>
<g id="a_Node000012"><a xlink:href="Ray_8hpp.html" target="_top" xlink:title=" ">
<polygon fill="white" stroke="#666666" points="110,-195 0,-195 0,-165 110,-165 110,-195"/>
<text text-anchor="start" x="8" y="-183" font-family="Helvetica,sans-Serif" font-size="10.00">../../../../../Geometry</text>
<text text-anchor="middle" x="55" y="-172" font-family="Helvetica,sans-Serif" font-size="10.00">/Ray/Ray.hpp</text>
</a>
</g>
</g>
<!-- Node1&#45;&gt;Node12 -->
<g id="edge12_Node000001_Node000012" class="edge">
<title>Node1&#45;&gt;Node12</title>
<g id="a_edge12_Node000001_Node000012"><a xlink:title=" ">
<path fill="none" stroke="#63b8ff" d="M309.68,-351.83C255.31,-315.36 139.43,-237.63 84.74,-200.95"/>
<polygon fill="#63b8ff" stroke="#63b8ff" points="86.45,-197.88 76.2,-195.22 82.55,-203.7 86.45,-197.88"/>
</a>
</g>
</g>
<!-- Node3 -->
<g id="Node000003" class="node">
<title>Node3</title>
<g id="a_Node000003"><a xlink:href="ILight_8hpp.html" target="_top" xlink:title=" ">
<polygon fill="white" stroke="#666666" points="397,-261 281,-261 281,-231 397,-231 397,-261"/>
<text text-anchor="start" x="289" y="-249" font-family="Helvetica,sans-Serif" font-size="10.00">../../../../../Objects</text>
<text text-anchor="middle" x="339" y="-238" font-family="Helvetica,sans-Serif" font-size="10.00">/Abstracts/ILight.hpp</text>
</a>
</g>
</g>
<!-- Node2&#45;&gt;Node3 -->
<g id="edge2_Node000002_Node000003" class="edge">
<title>Node2&#45;&gt;Node3</title>
<g id="a_edge2_Node000002_Node000003"><a xlink:title=" ">
<path fill="none" stroke="#63b8ff" d="M339,-296.87C339,-290.11 339,-280.35 339,-271.26"/>
<polygon fill="#63b8ff" stroke="#63b8ff" points="342.5,-271.11 339,-261.11 335.5,-271.11 342.5,-271.11"/>
</a>
</g>
</g>
<!-- Node4 -->
<g id="Node000004" class="node">
<title>Node4</title>
<g id="a_Node000004"><a xlink:href="HitRecord_8hpp.html" target="_top" xlink:title=" ">
<polygon fill="white" stroke="#666666" points="262,-195 128,-195 128,-165 262,-165 262,-195"/>
<text text-anchor="start" x="136" y="-183" font-family="Helvetica,sans-Serif" font-size="10.00">../../Geometry/HitRecord</text>
<text text-anchor="middle" x="195" y="-172" font-family="Helvetica,sans-Serif" font-size="10.00">/HitRecord.hpp</text>
</a>
</g>
</g>
<!-- Node3&#45;&gt;Node4 -->
<g id="edge3_Node000003_Node000004" class="edge">
<title>Node3&#45;&gt;Node4</title>
<g id="a_edge3_Node000003_Node000004"><a xlink:title=" ">
<path fill="none" stroke="#63b8ff" d="M307.4,-230.95C286.39,-221.62 258.6,-209.27 235.91,-199.18"/>
<polygon fill="#63b8ff" stroke="#63b8ff" points="237.09,-195.88 226.53,-195.01 234.24,-202.27 237.09,-195.88"/>
</a>
</g>
</g>
<!-- Node8 -->
<g id="Node000008" class="node">
<title>Node8</title>
<g id="a_Node000008"><a xlink:href="Color_8hpp.html" target="_top" xlink:title=" ">
<polygon fill="white" stroke="#666666" points="528,-189.5 422,-189.5 422,-170.5 528,-170.5 528,-189.5"/>
<text text-anchor="middle" x="475" y="-177.5" font-family="Helvetica,sans-Serif" font-size="10.00">../../Utils/Color.hpp</text>
</a>
</g>
</g>
<!-- Node3&#45;&gt;Node8 -->
<g id="edge8_Node000003_Node000008" class="edge">
<title>Node3&#45;&gt;Node8</title>
<g id="a_edge8_Node000003_Node000008"><a xlink:title=" ">
<path fill="none" stroke="#63b8ff" d="M368.85,-230.95C392.38,-219.88 424.93,-204.56 447.77,-193.82"/>
<polygon fill="#63b8ff" stroke="#63b8ff" points="449.34,-196.94 456.9,-189.52 446.36,-190.61 449.34,-196.94"/>
</a>
</g>
</g>
<!-- Node10 -->
<g id="Node000010" class="node">
<title>Node10</title>
<g id="a_Node000010"><a xlink:title=" ">
<polygon fill="#e0e0e0" stroke="#999999" points="327.5,-189.5 280.5,-189.5 280.5,-170.5 327.5,-170.5 327.5,-189.5"/>
<text text-anchor="middle" x="304" y="-177.5" font-family="Helvetica,sans-Serif" font-size="10.00">vector</text>
</a>
</g>
</g>
<!-- Node3&#45;&gt;Node10 -->
<g id="edge10_Node000003_Node000010" class="edge">
<title>Node3&#45;&gt;Node10</title>
<g id="a_edge10_Node000003_Node000010"><a xlink:title=" ">
<path fill="none" stroke="#63b8ff" d="M331.23,-230.8C326.04,-221.31 319.18,-208.76 313.64,-198.63"/>
<polygon fill="#63b8ff" stroke="#63b8ff" points="316.71,-196.94 308.84,-189.84 310.56,-200.3 316.71,-196.94"/>
</a>
</g>
</g>
<!-- Node11 -->
<g id="Node000011" class="node">
<title>Node11</title>
<g id="a_Node000011"><a xlink:title=" ">
<polygon fill="#e0e0e0" stroke="#999999" points="404,-189.5 346,-189.5 346,-170.5 404,-170.5 404,-189.5"/>
<text text-anchor="middle" x="375" y="-177.5" font-family="Helvetica,sans-Serif" font-size="10.00">memory</text>
</a>
</g>
</g>
<!-- Node3&#45;&gt;Node11 -->
<g id="edge11_Node000003_Node000011" class="edge">
<title>Node3&#45;&gt;Node11</title>
<g id="a_edge11_Node000003_Node000011"><a xlink:title=" ">
<path fill="none" stroke="#63b8ff" d="M346.99,-230.8C352.33,-221.31 359.39,-208.76 365.08,-198.63"/>
<polygon fill="#63b8ff" stroke="#63b8ff" points="368.17,-200.28 370.03,-189.84 362.07,-196.84 368.17,-200.28"/>
</a>
</g>
</g>
<!-- Node5 -->
<g id="Node000005" class="node">
<title>Node5</title>
<g id="a_Node000005"><a xlink:href="Point3D_8hpp.html" target="_top" xlink:title=" ">
<polygon fill="white" stroke="#666666" points="188,-129 62,-129 62,-110 188,-110 188,-129"/>
<text text-anchor="middle" x="125" y="-117" font-family="Helvetica,sans-Serif" font-size="10.00">../Point3D/Point3D.hpp</text>
</a>
</g>
</g>
<!-- Node4&#45;&gt;Node5 -->
<g id="edge4_Node000004_Node000005" class="edge">
<title>Node4&#45;&gt;Node5</title>
<g id="a_edge4_Node000004_Node000005"><a xlink:title=" ">
<path fill="none" stroke="#63b8ff" d="M178.05,-164.84C167.58,-156.09 154.14,-144.85 143.41,-135.88"/>
<polygon fill="#63b8ff" stroke="#63b8ff" points="145.41,-132.99 135.49,-129.27 140.92,-138.36 145.41,-132.99"/>
</a>
</g>
</g>
<!-- Node6 -->
<g id="Node000006" class="node">
<title>Node6</title>
<g id="a_Node000006"><a xlink:href="Vector3D_8hpp.html" target="_top" xlink:title=" ">
<polygon fill="white" stroke="#666666" points="194,-74 56,-74 56,-55 194,-55 194,-74"/>
<text text-anchor="middle" x="125" y="-62" font-family="Helvetica,sans-Serif" font-size="10.00">../Vector3D/Vector3D.hpp</text>
</a>
</g>
</g>
<!-- Node4&#45;&gt;Node6 -->
<g id="edge7_Node000004_Node000006" class="edge">
<title>Node4&#45;&gt;Node6</title>
<g id="a_edge7_Node000004_Node000006"><a xlink:title=" ">
<path fill="none" stroke="#63b8ff" d="M199.43,-164.78C203.14,-150.08 206.45,-126.96 197,-110 188.96,-95.58 174.1,-85.24 159.96,-78.18"/>
<polygon fill="#63b8ff" stroke="#63b8ff" points="161.4,-74.99 150.85,-74.01 158.49,-81.36 161.4,-74.99"/>
</a>
</g>
</g>
<!-- Node5&#45;&gt;Node6 -->
<g id="edge5_Node000005_Node000006" class="edge">
<title>Node5&#45;&gt;Node6</title>
<g id="a_edge5_Node000005_Node000006"><a xlink:title=" ">
<path fill="none" stroke="#63b8ff" d="M125,-109.75C125,-102.8 125,-92.85 125,-84.13"/>
<polygon fill="#63b8ff" stroke="#63b8ff" points="128.5,-84.09 125,-74.09 121.5,-84.09 128.5,-84.09"/>
</a>
</g>
</g>
<!-- Node7 -->
<g id="Node000007" class="node">
<title>Node7</title>
<g id="a_Node000007"><a xlink:title=" ">
<polygon fill="#e0e0e0" stroke="#999999" points="150.5,-19 99.5,-19 99.5,0 150.5,0 150.5,-19"/>
<text text-anchor="middle" x="125" y="-7" font-family="Helvetica,sans-Serif" font-size="10.00">math.h</text>
</a>
</g>
</g>
<!-- Node6&#45;&gt;Node7 -->
<g id="edge6_Node000006_Node000007" class="edge">
<title>Node6&#45;&gt;Node7</title>
<g id="a_edge6_Node000006_Node000007"><a xlink:title=" ">
<path fill="none" stroke="#63b8ff" d="M125,-54.75C125,-47.8 125,-37.85 125,-29.13"/>
<polygon fill="#63b8ff" stroke="#63b8ff" points="128.5,-29.09 125,-19.09 121.5,-29.09 128.5,-29.09"/>
</a>
</g>
</g>
<!-- Node8&#45;&gt;Node9 -->
<g id="edge9_Node000008_Node000009" class="edge">
<title>Node8&#45;&gt;Node9</title>
<g id="a_edge9_Node000008_Node000009"><a xlink:title=" ">
<path fill="none" stroke="#63b8ff" d="M480.9,-170.37C486.75,-161.81 495.87,-148.47 503.21,-137.74"/>
<polygon fill="#63b8ff" stroke="#63b8ff" points="506.32,-139.4 509.07,-129.17 500.54,-135.45 506.32,-139.4"/>
</a>
</g>
</g>
<!-- Node12&#45;&gt;Node5 -->
<g id="edge13_Node000012_Node000005" class="edge">
<title>Node12&#45;&gt;Node5</title>
<g id="a_edge13_Node000012_Node000005"><a xlink:title=" ">
<path fill="none" stroke="#63b8ff" d="M71.95,-164.84C82.42,-156.09 95.86,-144.85 106.59,-135.88"/>
<polygon fill="#63b8ff" stroke="#63b8ff" points="109.08,-138.36 114.51,-129.27 104.59,-132.99 109.08,-138.36"/>
</a>
</g>
</g>
<!-- Node12&#45;&gt;Node6 -->
<g id="edge14_Node000012_Node000006" class="edge">
<title>Node12&#45;&gt;Node6</title>
<g id="a_edge14_Node000012_Node000006"><a xlink:title=" ">
<path fill="none" stroke="#63b8ff" d="M50.57,-164.78C46.86,-150.08 43.55,-126.96 53,-110 61.04,-95.58 75.9,-85.24 90.04,-78.18"/>
<polygon fill="#63b8ff" stroke="#63b8ff" points="91.51,-81.36 99.15,-74.01 88.6,-74.99 91.51,-81.36"/>
</a>
</g>
</g>
</g>
</svg>
