<?xml version="1.0" encoding="UTF-8" standalone="no"?>
<!DOCTYPE svg PUBLIC "-//W3C//DTD SVG 1.1//EN"
 "http://www.w3.org/Graphics/SVG/1.1/DTD/svg11.dtd">
<!-- Generated by graphviz version 2.43.0 (0)
 -->
<!-- Title: src/Geometry/Point3D/Point3D.hpp Pages: 1 -->
<!--zoomable 368 -->

<svg id="main" version="1.1" xmlns="http://www.w3.org/2000/svg" xmlns:xlink="http://www.w3.org/1999/xlink" xml:space="preserve" onload="init(evt)">
<style type="text/css"><![CDATA[
.node, .edge {opacity: 0.7;}
.node.selected, .edge.selected {opacity: 1;}
.edge:hover path { stroke: red; }
.edge:hover polygon { stroke: red; fill: red; }
]]></style>

<defs>
  <circle id="rim" cx="0" cy="0" r="7"/>
  <circle id="rim2" cx="0" cy="0" r="3.5"/>
  <g id="zoomPlus">
    <use xlink:href="#rim" fill="#404040"><set attributeName="fill" to="#808080" begin="zoomplus.mouseover" end="zoomplus.mouseout"/></use>
    <path d="M-4,0h8M0,-4v8" fill="none" stroke="white" stroke-width="1.5" pointer-events="none"/>
  </g>
  <g id="zoomMin">
    <use xlink:href="#rim" fill="#404040"><set attributeName="fill" to="#808080" begin="zoomminus.mouseover" end="zoomminus.mouseout"/></use>
    <path d="M-4,0h8" fill="none" stroke="white" stroke-width="1.5" pointer-events="none"/>
  </g>
  <g id="arrowUp" transform="translate(30 24)">
    <use xlink:href="#rim"/>
    <path pointer-events="none" fill="none" stroke="white" stroke-width="1.5" d="M0,-3.0v7 M-2.5,-0.5L0,-3.0L2.5,-0.5"/>
  </g>
  <g id="arrowRight" transform="rotate(90) translate(36 -43)">
    <use xlink:href="#rim"/>
    <path pointer-events="none" fill="none" stroke="white" stroke-width="1.5" d="M0,-3.0v7 M-2.5,-0.5L0,-3.0L2.5,-0.5"/>
  </g>
  <g id="arrowDown" transform="rotate(180) translate(-30 -48)">
    <use xlink:href="#rim"/>
    <path pointer-events="none" fill="none" stroke="white" stroke-width="1.5" d="M0,-3.0v7 M-2.5,-0.5L0,-3.0L2.5,-0.5"/>
  </g>
  <g id="arrowLeft" transform="rotate(270) translate(-36 17)">
    <use xlink:href="#rim"/>
    <path pointer-events="none" fill="none" stroke="white" stroke-width="1.5" d="M0,-3.0v7 M-2.5,-0.5L0,-3.0L2.5,-0.5"/>
  </g>
  <g id="resetDef">
    <use xlink:href="#rim2" fill="#404040"><set attributeName="fill" to="#808080" begin="reset.mouseover" end="reset.mouseout"/></use>
  </g>
</defs>
<script type="application/ecmascript">
var viewWidth = 1094;
var viewHeight = 368;
var sectionId = 'dynsection-1';
</script>
<script type="application/ecmascript" xlink:href="svg.min.js"/>
<svg id="graph" class="graph">
<g id="viewport">
<title>src/Geometry/Point3D/Point3D.hpp</title>
<!-- Node1 -->
<g id="Node000001" class="node">
<title>Node1</title>
<g id="a_Node000001"><a xlink:title=" ">
<polygon fill="#999999" stroke="#666666" points="708,-360 584,-360 584,-330 708,-330 708,-360"/>
<text text-anchor="start" x="592" y="-348" font-family="Helvetica,sans-Serif" font-size="10.00">src/Geometry/Point3D</text>
<text text-anchor="middle" x="646" y="-337" font-family="Helvetica,sans-Serif" font-size="10.00">/Point3D.hpp</text>
</a>
</g>
</g>
<!-- Node2 -->
<g id="Node000002" class="node">
<title>Node2</title>
<g id="a_Node000002"><a xlink:href="HitRecord_8hpp.html" target="_top" xlink:title=" ">
<polygon fill="white" stroke="#666666" points="344,-294 210,-294 210,-264 344,-264 344,-294"/>
<text text-anchor="start" x="218" y="-282" font-family="Helvetica,sans-Serif" font-size="10.00">src/Geometry/HitRecord</text>
<text text-anchor="middle" x="277" y="-271" font-family="Helvetica,sans-Serif" font-size="10.00">/HitRecord.hpp</text>
</a>
</g>
</g>
<!-- Node1&#45;&gt;Node2 -->
<g id="edge1_Node000001_Node000002" class="edge">
<title>Node1&#45;&gt;Node2</title>
<g id="a_edge1_Node000001_Node000002"><a xlink:title=" ">
<path fill="none" stroke="#63b8ff" d="M573.82,-331.48C507.21,-319.93 409.07,-302.91 344.12,-291.64"/>
<polygon fill="#63b8ff" stroke="#63b8ff" points="573.37,-334.96 583.82,-333.22 574.57,-328.06 573.37,-334.96"/>
</a>
</g>
</g>
<!-- Node15 -->
<g id="Node000015" class="node">
<title>Node15</title>
<g id="a_Node000015"><a xlink:href="Point3D_8cpp.html" target="_top" xlink:title=" ">
<polygon fill="white" stroke="#666666" points="555,-294 431,-294 431,-264 555,-264 555,-294"/>
<text text-anchor="start" x="439" y="-282" font-family="Helvetica,sans-Serif" font-size="10.00">src/Geometry/Point3D</text>
<text text-anchor="middle" x="493" y="-271" font-family="Helvetica,sans-Serif" font-size="10.00">/Point3D.cpp</text>
</a>
</g>
</g>
<!-- Node1&#45;&gt;Node15 -->
<g id="edge22_Node000001_Node000015" class="edge">
<title>Node1&#45;&gt;Node15</title>
<g id="a_edge22_Node000001_Node000015"><a xlink:title=" ">
<path fill="none" stroke="#63b8ff" d="M603.1,-326.05C578.86,-315.91 549,-303.43 526.5,-294.01"/>
<polygon fill="#63b8ff" stroke="#63b8ff" points="601.85,-329.32 612.42,-329.95 604.55,-322.87 601.85,-329.32"/>
</a>
</g>
</g>
<!-- Node16 -->
<g id="Node000016" class="node">
<title>Node16</title>
<g id="a_Node000016"><a xlink:href="Ray_8hpp.html" target="_top" xlink:title=" ">
<polygon fill="white" stroke="#666666" points="719,-288.5 573,-288.5 573,-269.5 719,-269.5 719,-288.5"/>
<text text-anchor="middle" x="646" y="-276.5" font-family="Helvetica,sans-Serif" font-size="10.00">src/Geometry/Ray/Ray.hpp</text>
</a>
</g>
</g>
<!-- Node1&#45;&gt;Node16 -->
<g id="edge23_Node000001_Node000016" class="edge">
<title>Node1&#45;&gt;Node16</title>
<g id="a_edge23_Node000001_Node000016"><a xlink:title=" ">
<path fill="none" stroke="#63b8ff" d="M646,-319.6C646,-308.8 646,-296.78 646,-288.84"/>
<polygon fill="#63b8ff" stroke="#63b8ff" points="642.5,-319.8 646,-329.8 649.5,-319.8 642.5,-319.8"/>
</a>
</g>
</g>
<!-- Node18 -->
<g id="Node000018" class="node">
<title>Node18</title>
<g id="a_Node000018"><a xlink:href="Camera_8hpp.html" target="_top" xlink:title=" ">
<polygon fill="white" stroke="#666666" points="919.5,-228 778.5,-228 778.5,-198 919.5,-198 919.5,-228"/>
<text text-anchor="start" x="786.5" y="-216" font-family="Helvetica,sans-Serif" font-size="10.00">src/SceneSystem/Camera</text>
<text text-anchor="middle" x="849" y="-205" font-family="Helvetica,sans-Serif" font-size="10.00">/Camera.hpp</text>
</a>
</g>
</g>
<!-- Node1&#45;&gt;Node18 -->
<g id="edge34_Node000001_Node000018" class="edge">
<title>Node1&#45;&gt;Node18</title>
<g id="a_edge34_Node000001_Node000018"><a xlink:title=" ">
<path fill="none" stroke="#63b8ff" d="M679.85,-324.61C694.86,-315.69 712.59,-304.73 728,-294 745.66,-281.71 748.3,-276.24 766,-264 784.81,-250.98 807.06,-237.69 823.79,-228.08"/>
<polygon fill="#63b8ff" stroke="#63b8ff" points="677.74,-321.79 670.89,-329.88 681.29,-327.82 677.74,-321.79"/>
</a>
</g>
</g>
<!-- Node20 -->
<g id="Node000020" class="node">
<title>Node20</title>
<g id="a_Node000020"><a xlink:href="Rectangle3D_8hpp.html" target="_top" xlink:title=" ">
<polygon fill="white" stroke="#666666" points="923,-294 775,-294 775,-264 923,-264 923,-294"/>
<text text-anchor="start" x="783" y="-282" font-family="Helvetica,sans-Serif" font-size="10.00">src/Geometry/Rectangle3D</text>
<text text-anchor="middle" x="849" y="-271" font-family="Helvetica,sans-Serif" font-size="10.00">/Rectangle3D.hpp</text>
</a>
</g>
</g>
<!-- Node1&#45;&gt;Node20 -->
<g id="edge30_Node000001_Node000020" class="edge">
<title>Node1&#45;&gt;Node20</title>
<g id="a_edge30_Node000001_Node000020"><a xlink:title=" ">
<path fill="none" stroke="#63b8ff" d="M700.38,-326.86C732.97,-316.58 773.9,-303.68 804.55,-294.01"/>
<polygon fill="#63b8ff" stroke="#63b8ff" points="699.03,-323.61 690.55,-329.95 701.14,-330.29 699.03,-323.61"/>
</a>
</g>
</g>
<!-- Node3 -->
<g id="Node000003" class="node">
<title>Node3</title>
<g id="a_Node000003"><a xlink:href="AMaterial_8hpp.html" target="_top" xlink:title=" ">
<polygon fill="white" stroke="#666666" points="559,-228 421,-228 421,-198 559,-198 559,-228"/>
<text text-anchor="start" x="429" y="-216" font-family="Helvetica,sans-Serif" font-size="10.00">src/Objects/Abstract</text>
<text text-anchor="middle" x="490" y="-205" font-family="Helvetica,sans-Serif" font-size="10.00">/AMaterial/AMaterial.hpp</text>
</a>
</g>
</g>
<!-- Node2&#45;&gt;Node3 -->
<g id="edge2_Node000002_Node000003" class="edge">
<title>Node2&#45;&gt;Node3</title>
<g id="a_edge2_Node000002_Node000003"><a xlink:title=" ">
<path fill="none" stroke="#63b8ff" d="M333.61,-260.99C367.89,-250.69 411.07,-237.72 443.37,-228.01"/>
<polygon fill="#63b8ff" stroke="#63b8ff" points="332.31,-257.73 323.74,-263.95 334.33,-264.43 332.31,-257.73"/>
</a>
</g>
</g>
<!-- Node4 -->
<g id="Node000004" class="node">
<title>Node4</title>
<g id="a_Node000004"><a xlink:href="ILight_8hpp.html" target="_top" xlink:title=" ">
<polygon fill="white" stroke="#666666" points="267.5,-228 150.5,-228 150.5,-198 267.5,-198 267.5,-228"/>
<text text-anchor="start" x="158.5" y="-216" font-family="Helvetica,sans-Serif" font-size="10.00">src/Objects/Interface</text>
<text text-anchor="middle" x="209" y="-205" font-family="Helvetica,sans-Serif" font-size="10.00">/ILight.hpp</text>
</a>
</g>
</g>
<!-- Node2&#45;&gt;Node4 -->
<g id="edge3_Node000002_Node000004" class="edge">
<title>Node2&#45;&gt;Node4</title>
<g id="a_edge3_Node000002_Node000004"><a xlink:title=" ">
<path fill="none" stroke="#63b8ff" d="M254.61,-256.92C244.58,-247.49 233.02,-236.61 224.05,-228.16"/>
<polygon fill="#63b8ff" stroke="#63b8ff" points="252.23,-259.49 261.91,-263.8 257.03,-254.39 252.23,-259.49"/>
</a>
</g>
</g>
<!-- Node5 -->
<g id="Node000005" class="node">
<title>Node5</title>
<g id="a_Node000005"><a xlink:href="IMaterial_8hpp.html" target="_top" xlink:title=" ">
<polygon fill="white" stroke="#666666" points="175.5,-162 58.5,-162 58.5,-132 175.5,-132 175.5,-162"/>
<text text-anchor="start" x="66.5" y="-150" font-family="Helvetica,sans-Serif" font-size="10.00">src/Objects/Interface</text>
<text text-anchor="middle" x="117" y="-139" font-family="Helvetica,sans-Serif" font-size="10.00">/IMaterial.hpp</text>
</a>
</g>
</g>
<!-- Node2&#45;&gt;Node5 -->
<g id="edge17_Node000002_Node000005" class="edge">
<title>Node2&#45;&gt;Node5</title>
<g id="a_edge17_Node000002_Node000005"><a xlink:title=" ">
<path fill="none" stroke="#63b8ff" d="M200.15,-266.05C175.38,-258.72 149.81,-246.92 132,-228 114.81,-209.73 109.89,-179.62 111.29,-162.01"/>
<polygon fill="#63b8ff" stroke="#63b8ff" points="199.38,-269.47 209.95,-268.74 201.24,-262.72 199.38,-269.47"/>
</a>
</g>
</g>
<!-- Node14 -->
<g id="Node000014" class="node">
<title>Node14</title>
<g id="a_Node000014"><a xlink:href="IPrimitive_8hpp.html" target="_top" xlink:title=" ">
<polygon fill="white" stroke="#666666" points="402.5,-228 285.5,-228 285.5,-198 402.5,-198 402.5,-228"/>
<text text-anchor="start" x="293.5" y="-216" font-family="Helvetica,sans-Serif" font-size="10.00">src/Objects/Interface</text>
<text text-anchor="middle" x="344" y="-205" font-family="Helvetica,sans-Serif" font-size="10.00">/IPrimitive.hpp</text>
</a>
</g>
</g>
<!-- Node2&#45;&gt;Node14 -->
<g id="edge18_Node000002_Node000014" class="edge">
<title>Node2&#45;&gt;Node14</title>
<g id="a_edge18_Node000002_Node000014"><a xlink:title=" ">
<path fill="none" stroke="#63b8ff" d="M299.35,-256.65C309.17,-247.27 320.42,-236.53 329.17,-228.16"/>
<polygon fill="#63b8ff" stroke="#63b8ff" points="296.68,-254.36 291.87,-263.8 301.52,-259.42 296.68,-254.36"/>
</a>
</g>
</g>
<!-- Node4&#45;&gt;Node5 -->
<g id="edge4_Node000004_Node000005" class="edge">
<title>Node4&#45;&gt;Node5</title>
<g id="a_edge4_Node000004_Node000005"><a xlink:title=" ">
<path fill="none" stroke="#63b8ff" d="M180.29,-192.03C166.37,-182.34 149.97,-170.94 137.36,-162.16"/>
<polygon fill="#63b8ff" stroke="#63b8ff" points="178.37,-194.96 188.58,-197.8 182.37,-189.21 178.37,-194.96"/>
</a>
</g>
</g>
<!-- Node10 -->
<g id="Node000010" class="node">
<title>Node10</title>
<g id="a_Node000010"><a xlink:href="Renderer_8hpp.html" target="_top" xlink:title=" ">
<polygon fill="white" stroke="#666666" points="452,-90.5 306,-90.5 306,-71.5 452,-71.5 452,-90.5"/>
<text text-anchor="middle" x="379" y="-78.5" font-family="Helvetica,sans-Serif" font-size="10.00">src/Renderer/Renderer.hpp</text>
</a>
</g>
</g>
<!-- Node4&#45;&gt;Node10 -->
<g id="edge12_Node000004_Node000010" class="edge">
<title>Node4&#45;&gt;Node10</title>
<g id="a_edge12_Node000004_Node000010"><a xlink:title=" ">
<path fill="none" stroke="#63b8ff" d="M232.22,-191.19C251.09,-174.58 278.65,-151.03 304,-132 324.65,-116.5 349.84,-100.21 365.13,-90.59"/>
<polygon fill="#63b8ff" stroke="#63b8ff" points="229.86,-188.6 224.69,-197.85 234.5,-193.84 229.86,-188.6"/>
</a>
</g>
</g>
<!-- Node12 -->
<g id="Node000012" class="node">
<title>Node12</title>
<g id="a_Node000012"><a xlink:href="Scene_8hpp.html" target="_top" xlink:title=" ">
<polygon fill="white" stroke="#666666" points="445,-162 313,-162 313,-132 445,-132 445,-162"/>
<text text-anchor="start" x="321" y="-150" font-family="Helvetica,sans-Serif" font-size="10.00">src/SceneSystem/Scene</text>
<text text-anchor="middle" x="379" y="-139" font-family="Helvetica,sans-Serif" font-size="10.00">/Scene.hpp</text>
</a>
</g>
</g>
<!-- Node4&#45;&gt;Node12 -->
<g id="edge13_Node000004_Node000012" class="edge">
<title>Node4&#45;&gt;Node12</title>
<g id="a_edge13_Node000004_Node000012"><a xlink:title=" ">
<path fill="none" stroke="#63b8ff" d="M250.19,-194.19C276.23,-184.02 309.72,-171.47 336.08,-162.01"/>
<polygon fill="#63b8ff" stroke="#63b8ff" points="248.63,-191.04 240.61,-197.95 251.2,-197.55 248.63,-191.04"/>
</a>
</g>
</g>
<!-- Node5&#45;&gt;Node2 -->
<g id="edge5_Node000005_Node000002" class="edge">
<title>Node5&#45;&gt;Node2</title>
<g id="a_edge5_Node000005_Node000002"><a xlink:title=" ">
<path fill="none" stroke="#63b8ff" d="M126,-172.08C129.95,-189.62 135.76,-212.87 150,-228 166.2,-245.22 188.85,-256.54 210.57,-263.96"/>
<polygon fill="#63b8ff" stroke="#63b8ff" points="129.35,-171 123.73,-162.01 122.52,-172.54 129.35,-171"/>
</a>
</g>
</g>
<!-- Node6 -->
<g id="Node000006" class="node">
<title>Node6</title>
<g id="a_Node000006"><a xlink:href="APrimitive_8hpp.html" target="_top" xlink:title=" ">
<polygon fill="white" stroke="#666666" points="146,-96 0,-96 0,-66 146,-66 146,-96"/>
<text text-anchor="start" x="8" y="-84" font-family="Helvetica,sans-Serif" font-size="10.00">src/Objects/Abstract</text>
<text text-anchor="middle" x="73" y="-73" font-family="Helvetica,sans-Serif" font-size="10.00">/APrimitive/APrimitive.hpp</text>
</a>
</g>
</g>
<!-- Node5&#45;&gt;Node6 -->
<g id="edge6_Node000005_Node000006" class="edge">
<title>Node5&#45;&gt;Node6</title>
<g id="a_edge6_Node000005_Node000006"><a xlink:title=" ">
<path fill="none" stroke="#63b8ff" d="M101.55,-123.53C95.29,-114.43 88.26,-104.19 82.74,-96.16"/>
<polygon fill="#63b8ff" stroke="#63b8ff" points="98.69,-125.54 107.23,-131.8 104.45,-121.57 98.69,-125.54"/>
</a>
</g>
</g>
<!-- Node8 -->
<g id="Node000008" class="node">
<title>Node8</title>
<g id="a_Node000008"><a xlink:href="Plane_8hpp.html" target="_top" xlink:title=" ">
<polygon fill="white" stroke="#666666" points="287.5,-96 164.5,-96 164.5,-66 287.5,-66 287.5,-96"/>
<text text-anchor="start" x="172.5" y="-84" font-family="Helvetica,sans-Serif" font-size="10.00">src/Objects/Primitives</text>
<text text-anchor="middle" x="226" y="-73" font-family="Helvetica,sans-Serif" font-size="10.00">/Plane/Plane.hpp</text>
</a>
</g>
</g>
<!-- Node5&#45;&gt;Node8 -->
<g id="edge8_Node000005_Node000008" class="edge">
<title>Node5&#45;&gt;Node8</title>
<g id="a_edge8_Node000005_Node000008"><a xlink:title=" ">
<path fill="none" stroke="#63b8ff" d="M149.88,-126.69C166.71,-116.82 186.81,-105.01 202.14,-96.01"/>
<polygon fill="#63b8ff" stroke="#63b8ff" points="147.77,-123.87 140.92,-131.95 151.32,-129.91 147.77,-123.87"/>
</a>
</g>
</g>
<!-- Node5&#45;&gt;Node10 -->
<g id="edge10_Node000005_Node000010" class="edge">
<title>Node5&#45;&gt;Node10</title>
<g id="a_edge10_Node000005_Node000010"><a xlink:title=" ">
<path fill="none" stroke="#63b8ff" d="M184.47,-129.52C235.51,-117.05 303.53,-100.44 344.13,-90.52"/>
<polygon fill="#63b8ff" stroke="#63b8ff" points="183.38,-126.18 174.5,-131.95 185.04,-132.98 183.38,-126.18"/>
</a>
</g>
</g>
<!-- Node7 -->
<g id="Node000007" class="node">
<title>Node7</title>
<g id="a_Node000007"><a xlink:href="APrimitive_8cpp.html" target="_top" xlink:title=" ">
<polygon fill="white" stroke="#666666" points="145.5,-30 0.5,-30 0.5,0 145.5,0 145.5,-30"/>
<text text-anchor="start" x="8.5" y="-18" font-family="Helvetica,sans-Serif" font-size="10.00">src/Objects/Abstract</text>
<text text-anchor="middle" x="73" y="-7" font-family="Helvetica,sans-Serif" font-size="10.00">/APrimitive/APrimitive.cpp</text>
</a>
</g>
</g>
<!-- Node6&#45;&gt;Node7 -->
<g id="edge7_Node000006_Node000007" class="edge">
<title>Node6&#45;&gt;Node7</title>
<g id="a_edge7_Node000006_Node000007"><a xlink:title=" ">
<path fill="none" stroke="#63b8ff" d="M73,-55.54C73,-46.96 73,-37.61 73,-30.16"/>
<polygon fill="#63b8ff" stroke="#63b8ff" points="69.5,-55.8 73,-65.8 76.5,-55.8 69.5,-55.8"/>
</a>
</g>
</g>
<!-- Node9 -->
<g id="Node000009" class="node">
<title>Node9</title>
<g id="a_Node000009"><a xlink:href="Plane_8cpp.html" target="_top" xlink:title=" ">
<polygon fill="white" stroke="#666666" points="287.5,-30 164.5,-30 164.5,0 287.5,0 287.5,-30"/>
<text text-anchor="start" x="172.5" y="-18" font-family="Helvetica,sans-Serif" font-size="10.00">src/Objects/Primitives</text>
<text text-anchor="middle" x="226" y="-7" font-family="Helvetica,sans-Serif" font-size="10.00">/Plane/Plane.cpp</text>
</a>
</g>
</g>
<!-- Node8&#45;&gt;Node9 -->
<g id="edge9_Node000008_Node000009" class="edge">
<title>Node8&#45;&gt;Node9</title>
<g id="a_edge9_Node000008_Node000009"><a xlink:title=" ">
<path fill="none" stroke="#63b8ff" d="M226,-55.54C226,-46.96 226,-37.61 226,-30.16"/>
<polygon fill="#63b8ff" stroke="#63b8ff" points="222.5,-55.8 226,-65.8 229.5,-55.8 222.5,-55.8"/>
</a>
</g>
</g>
<!-- Node11 -->
<g id="Node000011" class="node">
<title>Node11</title>
<g id="a_Node000011"><a xlink:href="Renderer_8cpp.html" target="_top" xlink:title=" ">
<polygon fill="white" stroke="#666666" points="451.5,-24.5 306.5,-24.5 306.5,-5.5 451.5,-5.5 451.5,-24.5"/>
<text text-anchor="middle" x="379" y="-12.5" font-family="Helvetica,sans-Serif" font-size="10.00">src/Renderer/Renderer.cpp</text>
</a>
</g>
</g>
<!-- Node10&#45;&gt;Node11 -->
<g id="edge11_Node000010_Node000011" class="edge">
<title>Node10&#45;&gt;Node11</title>
<g id="a_edge11_Node000010_Node000011"><a xlink:title=" ">
<path fill="none" stroke="#63b8ff" d="M379,-61.08C379,-49.13 379,-34.22 379,-24.91"/>
<polygon fill="#63b8ff" stroke="#63b8ff" points="375.5,-61.37 379,-71.37 382.5,-61.37 375.5,-61.37"/>
</a>
</g>
</g>
<!-- Node12&#45;&gt;Node4 -->
<g id="edge14_Node000012_Node000004" class="edge">
<title>Node12&#45;&gt;Node4</title>
<g id="a_edge14_Node000012_Node000004"><a xlink:title=" ">
<path fill="none" stroke="#63b8ff" d="M337.9,-165.78C311.88,-175.93 278.38,-188.49 252.01,-197.95"/>
<polygon fill="#63b8ff" stroke="#63b8ff" points="339.45,-168.93 347.47,-162.01 336.89,-162.41 339.45,-168.93"/>
</a>
</g>
</g>
<!-- Node12&#45;&gt;Node10 -->
<g id="edge15_Node000012_Node000010" class="edge">
<title>Node12&#45;&gt;Node10</title>
<g id="a_edge15_Node000012_Node000010"><a xlink:title=" ">
<path fill="none" stroke="#63b8ff" d="M379,-121.6C379,-110.8 379,-98.78 379,-90.84"/>
<polygon fill="#63b8ff" stroke="#63b8ff" points="375.5,-121.8 379,-131.8 382.5,-121.8 375.5,-121.8"/>
</a>
</g>
</g>
<!-- Node13 -->
<g id="Node000013" class="node">
<title>Node13</title>
<g id="a_Node000013"><a xlink:href="Scene_8cpp.html" target="_top" xlink:title=" ">
<polygon fill="white" stroke="#666666" points="602,-96 470,-96 470,-66 602,-66 602,-96"/>
<text text-anchor="start" x="478" y="-84" font-family="Helvetica,sans-Serif" font-size="10.00">src/SceneSystem/Scene</text>
<text text-anchor="middle" x="536" y="-73" font-family="Helvetica,sans-Serif" font-size="10.00">/Scene.cpp</text>
</a>
</g>
</g>
<!-- Node12&#45;&gt;Node13 -->
<g id="edge16_Node000012_Node000013" class="edge">
<title>Node12&#45;&gt;Node13</title>
<g id="a_edge16_Node000012_Node000013"><a xlink:title=" ">
<path fill="none" stroke="#63b8ff" d="M423.02,-128.05C447.9,-117.91 478.53,-105.43 501.63,-96.01"/>
<polygon fill="#63b8ff" stroke="#63b8ff" points="421.39,-124.94 413.45,-131.95 424.04,-131.42 421.39,-124.94"/>
</a>
</g>
</g>
<!-- Node14&#45;&gt;Node6 -->
<g id="edge19_Node000014_Node000006" class="edge">
<title>Node14&#45;&gt;Node6</title>
<g id="a_edge19_Node000014_Node000006"><a xlink:title=" ">
<path fill="none" stroke="#63b8ff" d="M307.64,-193.29C275.34,-176.8 226.77,-152.31 184,-132 157.65,-119.49 127.46,-105.93 105.22,-96.1"/>
<polygon fill="#63b8ff" stroke="#63b8ff" points="306.21,-196.49 316.7,-197.93 309.39,-190.26 306.21,-196.49"/>
</a>
</g>
</g>
<!-- Node14&#45;&gt;Node8 -->
<g id="edge20_Node000014_Node000008" class="edge">
<title>Node14&#45;&gt;Node8</title>
<g id="a_edge20_Node000014_Node000008"><a xlink:title=" ">
<path fill="none" stroke="#63b8ff" d="M324.16,-190.15C299.86,-163.38 259.4,-118.79 238.84,-96.14"/>
<polygon fill="#63b8ff" stroke="#63b8ff" points="321.83,-192.79 331.15,-197.84 327.02,-188.08 321.83,-192.79"/>
</a>
</g>
</g>
<!-- Node14&#45;&gt;Node12 -->
<g id="edge21_Node000014_Node000012" class="edge">
<title>Node14&#45;&gt;Node12</title>
<g id="a_edge21_Node000014_Node000012"><a xlink:title=" ">
<path fill="none" stroke="#63b8ff" d="M356.6,-188.96C361.5,-180 366.95,-170.03 371.25,-162.16"/>
<polygon fill="#63b8ff" stroke="#63b8ff" points="353.5,-187.34 351.77,-197.8 359.64,-190.7 353.5,-187.34"/>
</a>
</g>
</g>
<!-- Node16&#45;&gt;Node10 -->
<g id="edge26_Node000016_Node000010" class="edge">
<title>Node16&#45;&gt;Node10</title>
<g id="a_edge26_Node000016_Node000010"><a xlink:title=" ">
<path fill="none" stroke="#63b8ff" d="M632.05,-261.43C617.2,-244.38 592.52,-217.59 568,-198 509.2,-151.01 429.99,-108.14 395.83,-90.5"/>
<polygon fill="#63b8ff" stroke="#63b8ff" points="629.69,-264.07 638.86,-269.38 635.01,-259.51 629.69,-264.07"/>
</a>
</g>
</g>
<!-- Node16&#45;&gt;Node14 -->
<g id="edge25_Node000016_Node000014" class="edge">
<title>Node16&#45;&gt;Node14</title>
<g id="a_edge25_Node000016_Node000014"><a xlink:title=" ">
<path fill="none" stroke="#63b8ff" d="M595.7,-267.34C542.51,-256.07 458.69,-238.31 402.57,-226.41"/>
<polygon fill="#63b8ff" stroke="#63b8ff" points="595.08,-270.79 605.58,-269.44 596.53,-263.94 595.08,-270.79"/>
</a>
</g>
</g>
<!-- Node17 -->
<g id="Node000017" class="node">
<title>Node17</title>
<g id="a_Node000017"><a xlink:href="Ray_8cpp.html" target="_top" xlink:title=" ">
<polygon fill="white" stroke="#666666" points="760.5,-222.5 615.5,-222.5 615.5,-203.5 760.5,-203.5 760.5,-222.5"/>
<text text-anchor="middle" x="688" y="-210.5" font-family="Helvetica,sans-Serif" font-size="10.00">src/Geometry/Ray/Ray.cpp</text>
</a>
</g>
</g>
<!-- Node16&#45;&gt;Node17 -->
<g id="edge24_Node000016_Node000017" class="edge">
<title>Node16&#45;&gt;Node17</title>
<g id="a_edge24_Node000016_Node000017"><a xlink:title=" ">
<path fill="none" stroke="#63b8ff" d="M657.22,-260.91C665.24,-248.68 675.73,-232.7 682.16,-222.91"/>
<polygon fill="#63b8ff" stroke="#63b8ff" points="654.22,-259.09 651.66,-269.37 660.08,-262.93 654.22,-259.09"/>
</a>
</g>
</g>
<!-- Node16&#45;&gt;Node18 -->
<g id="edge27_Node000016_Node000018" class="edge">
<title>Node16&#45;&gt;Node18</title>
<g id="a_edge27_Node000016_Node000018"><a xlink:title=" ">
<path fill="none" stroke="#63b8ff" d="M682.97,-266.35C717.08,-255.59 767.83,-239.59 804.23,-228.12"/>
<polygon fill="#63b8ff" stroke="#63b8ff" points="681.86,-263.02 673.38,-269.37 683.97,-269.7 681.86,-263.02"/>
</a>
</g>
</g>
<!-- Node18&#45;&gt;Node12 -->
<g id="edge29_Node000018_Node000012" class="edge">
<title>Node18&#45;&gt;Node12</title>
<g id="a_edge29_Node000018_Node000012"><a xlink:title=" ">
<path fill="none" stroke="#63b8ff" d="M768.34,-197.79C648.94,-179.77 520.95,-164.26 445.2,-155.48"/>
<polygon fill="#63b8ff" stroke="#63b8ff" points="767.98,-201.27 778.39,-199.31 769.03,-194.35 767.98,-201.27"/>
</a>
</g>
</g>
<!-- Node19 -->
<g id="Node000019" class="node">
<title>Node19</title>
<g id="a_Node000019"><a xlink:href="Camera_8cpp.html" target="_top" xlink:title=" ">
<polygon fill="white" stroke="#666666" points="919.5,-162 778.5,-162 778.5,-132 919.5,-132 919.5,-162"/>
<text text-anchor="start" x="786.5" y="-150" font-family="Helvetica,sans-Serif" font-size="10.00">src/SceneSystem/Camera</text>
<text text-anchor="middle" x="849" y="-139" font-family="Helvetica,sans-Serif" font-size="10.00">/Camera.cpp</text>
</a>
</g>
</g>
<!-- Node18&#45;&gt;Node19 -->
<g id="edge28_Node000018_Node000019" class="edge">
<title>Node18&#45;&gt;Node19</title>
<g id="a_edge28_Node000018_Node000019"><a xlink:title=" ">
<path fill="none" stroke="#63b8ff" d="M849,-187.54C849,-178.96 849,-169.61 849,-162.16"/>
<polygon fill="#63b8ff" stroke="#63b8ff" points="845.5,-187.8 849,-197.8 852.5,-187.8 845.5,-187.8"/>
</a>
</g>
</g>
<!-- Node20&#45;&gt;Node3 -->
<g id="edge32_Node000020_Node000003" class="edge">
<title>Node20&#45;&gt;Node3</title>
<g id="a_edge32_Node000020_Node000003"><a xlink:title=" ">
<path fill="none" stroke="#63b8ff" d="M764.76,-262.98C702.15,-251.82 617.78,-236.78 559.12,-226.32"/>
<polygon fill="#63b8ff" stroke="#63b8ff" points="764.16,-266.43 774.61,-264.74 765.38,-259.54 764.16,-266.43"/>
</a>
</g>
</g>
<!-- Node20&#45;&gt;Node18 -->
<g id="edge33_Node000020_Node000018" class="edge">
<title>Node20&#45;&gt;Node18</title>
<g id="a_edge33_Node000020_Node000018"><a xlink:title=" ">
<path fill="none" stroke="#63b8ff" d="M849,-253.54C849,-244.96 849,-235.61 849,-228.16"/>
<polygon fill="#63b8ff" stroke="#63b8ff" points="845.5,-253.8 849,-263.8 852.5,-253.8 845.5,-253.8"/>
</a>
</g>
</g>
<!-- Node21 -->
<g id="Node000021" class="node">
<title>Node21</title>
<g id="a_Node000021"><a xlink:href="Rectangle3D_8cpp.html" target="_top" xlink:title=" ">
<polygon fill="white" stroke="#666666" points="1086,-228 938,-228 938,-198 1086,-198 1086,-228"/>
<text text-anchor="start" x="946" y="-216" font-family="Helvetica,sans-Serif" font-size="10.00">src/Geometry/Rectangle3D</text>
<text text-anchor="middle" x="1012" y="-205" font-family="Helvetica,sans-Serif" font-size="10.00">/Rectangle3D.cpp</text>
</a>
</g>
</g>
<!-- Node20&#45;&gt;Node21 -->
<g id="edge31_Node000020_Node000021" class="edge">
<title>Node20&#45;&gt;Node21</title>
<g id="a_edge31_Node000020_Node000021"><a xlink:title=" ">
<path fill="none" stroke="#63b8ff" d="M894.36,-260.19C920.25,-250.02 952.23,-237.47 976.31,-228.01"/>
<polygon fill="#63b8ff" stroke="#63b8ff" points="892.8,-257.04 884.77,-263.95 895.36,-263.56 892.8,-257.04"/>
</a>
</g>
</g>
</g>
</svg>

<g id="navigator" transform="translate(0 0)" fill="#404254">
  <rect fill="#f2f5e9" fill-opacity="0.5" stroke="#606060" stroke-width=".5" x="0" y="0" width="60" height="60"/>
  <use id="zoomplus" xlink:href="#zoomPlus" x="17" y="9" onmousedown="handleZoom(evt,'in')"/>
  <use id="zoomminus" xlink:href="#zoomMin" x="42" y="9" onmousedown="handleZoom(evt,'out')"/>
  <use id="reset" xlink:href="#resetDef" x="30" y="36" onmousedown="handleReset()"/>
   <use id="arrowup" xlink:href="#arrowUp" x="0" y="0" onmousedown="handlePan(0,-1)"/>
  <use id="arrowright" xlink:href="#arrowRight" x="0" y="0" onmousedown="handlePan(1,0)"/>
  <use id="arrowdown" xlink:href="#arrowDown" x="0" y="0" onmousedown="handlePan(0,1)"/>
  <use id="arrowleft" xlink:href="#arrowLeft" x="0" y="0" onmousedown="handlePan(-1,0)"/>
</g>
<svg viewBox="0 0 15 15" width="100%" height="30px" preserveAspectRatio="xMaxYMin meet">
 <g id="arrow_out" transform="scale(0.3 0.3)">
  <a xlink:href="Point3D_8hpp__dep__incl_org.svg" target="_base">
   <rect id="button" ry="5" rx="5" y="6" x="6" height="38" width="38"
        fill="#f2f5e9" fill-opacity="0.5" stroke="#606060" stroke-width="1.0"/>
   <path id="arrow"
     d="M 11.500037,31.436501 C 11.940474,20.09759 22.043105,11.32322 32.158766,21.979434 L 37.068811,17.246167 C 37.068811,17.246167 37.088388,32 37.088388,32 L 22.160133,31.978069 C 22.160133,31.978069 26.997745,27.140456 26.997745,27.140456 C 18.528582,18.264221 13.291696,25.230495 11.500037,31.436501 z"
     style="fill:#404040;"/>
  </a>
 </g>
</svg>

<style type='text/css'>
<![CDATA[
[data-mouse-over-selected='false'] { opacity: 0.7; }
[data-mouse-over-selected='true']  { opacity: 1.0; }
]]>
</style>
<script type="application/ecmascript"><![CDATA[
document.addEventListener('DOMContentLoaded', (event) => {
  highlightEdges();
  highlightAdjacentNodes();
});
]]></script>
</svg>
