<?xml version="1.0" encoding="UTF-8" standalone="no"?>
<!DOCTYPE svg PUBLIC "-//W3C//DTD SVG 1.1//EN"
 "http://www.w3.org/Graphics/SVG/1.1/DTD/svg11.dtd">
<!-- Generated by graphviz version 2.43.0 (0)
 -->
<!-- Title: src/Geometry/Ray/Ray.hpp Pages: 1 -->
<!--zoomable 467 -->

<svg id="main" version="1.1" xmlns="http://www.w3.org/2000/svg" xmlns:xlink="http://www.w3.org/1999/xlink" xml:space="preserve" onload="init(evt)">
<style type="text/css"><![CDATA[
.node, .edge {opacity: 0.7;}
.node.selected, .edge.selected {opacity: 1;}
.edge:hover path { stroke: red; }
.edge:hover polygon { stroke: red; fill: red; }
]]></style>

<defs>
  <circle id="rim" cx="0" cy="0" r="7"/>
  <circle id="rim2" cx="0" cy="0" r="3.5"/>
  <g id="zoomPlus">
    <use xlink:href="#rim" fill="#404040"><set attributeName="fill" to="#808080" begin="zoomplus.mouseover" end="zoomplus.mouseout"/></use>
    <path d="M-4,0h8M0,-4v8" fill="none" stroke="white" stroke-width="1.5" pointer-events="none"/>
  </g>
  <g id="zoomMin">
    <use xlink:href="#rim" fill="#404040"><set attributeName="fill" to="#808080" begin="zoomminus.mouseover" end="zoomminus.mouseout"/></use>
    <path d="M-4,0h8" fill="none" stroke="white" stroke-width="1.5" pointer-events="none"/>
  </g>
  <g id="arrowUp" transform="translate(30 24)">
    <use xlink:href="#rim"/>
    <path pointer-events="none" fill="none" stroke="white" stroke-width="1.5" d="M0,-3.0v7 M-2.5,-0.5L0,-3.0L2.5,-0.5"/>
  </g>
  <g id="arrowRight" transform="rotate(90) translate(36 -43)">
    <use xlink:href="#rim"/>
    <path pointer-events="none" fill="none" stroke="white" stroke-width="1.5" d="M0,-3.0v7 M-2.5,-0.5L0,-3.0L2.5,-0.5"/>
  </g>
  <g id="arrowDown" transform="rotate(180) translate(-30 -48)">
    <use xlink:href="#rim"/>
    <path pointer-events="none" fill="none" stroke="white" stroke-width="1.5" d="M0,-3.0v7 M-2.5,-0.5L0,-3.0L2.5,-0.5"/>
  </g>
  <g id="arrowLeft" transform="rotate(270) translate(-36 17)">
    <use xlink:href="#rim"/>
    <path pointer-events="none" fill="none" stroke="white" stroke-width="1.5" d="M0,-3.0v7 M-2.5,-0.5L0,-3.0L2.5,-0.5"/>
  </g>
  <g id="resetDef">
    <use xlink:href="#rim2" fill="#404040"><set attributeName="fill" to="#808080" begin="reset.mouseover" end="reset.mouseout"/></use>
  </g>
</defs>
<script type="application/ecmascript">
var viewWidth = 1369;
var viewHeight = 467;
var sectionId = 'dynsection-1';
</script>
<script type="application/ecmascript" xlink:href="svg.min.js"/>
<svg id="graph" class="graph">
<g id="viewport">
<title>src/Geometry/Ray/Ray.hpp</title>
<!-- Node1 -->
<g id="Node000001" class="node">
<title>Node1</title>
<g id="a_Node000001"><a xlink:title=" ">
<polygon fill="#999999" stroke="#666666" points="595.5,-459 449.5,-459 449.5,-440 595.5,-440 595.5,-459"/>
<text text-anchor="middle" x="522.5" y="-447" font-family="Helvetica,sans-Serif" font-size="10.00">src/Geometry/Ray/Ray.hpp</text>
</a>
</g>
</g>
<!-- Node2 -->
<g id="Node000002" class="node">
<title>Node2</title>
<g id="a_Node000002"><a xlink:href="Ray_8cpp.html" target="_top" xlink:title=" ">
<polygon fill="white" stroke="#666666" points="145,-393 0,-393 0,-374 145,-374 145,-393"/>
<text text-anchor="middle" x="72.5" y="-381" font-family="Helvetica,sans-Serif" font-size="10.00">src/Geometry/Ray/Ray.cpp</text>
</a>
</g>
</g>
<!-- Node1&#45;&gt;Node2 -->
<g id="edge1_Node000001_Node000002" class="edge">
<title>Node1&#45;&gt;Node2</title>
<g id="a_edge1_Node000001_Node000002"><a xlink:title=" ">
<path fill="none" stroke="#63b8ff" d="M439.02,-440.63C365.22,-433.11 254.81,-420.48 159.5,-404 142.11,-400.99 122.96,-396.8 107.06,-393.07"/>
<polygon fill="#63b8ff" stroke="#63b8ff" points="438.88,-444.13 449.18,-441.65 439.59,-437.17 438.88,-444.13"/>
</a>
</g>
</g>
<!-- Node3 -->
<g id="Node000003" class="node">
<title>Node3</title>
<g id="a_Node000003"><a xlink:href="APrimitive_8hpp.html" target="_top" xlink:title=" ">
<polygon fill="white" stroke="#666666" points="595.5,-398.5 449.5,-398.5 449.5,-368.5 595.5,-368.5 595.5,-398.5"/>
<text text-anchor="start" x="457.5" y="-386.5" font-family="Helvetica,sans-Serif" font-size="10.00">src/Objects/Abstracts</text>
<text text-anchor="middle" x="522.5" y="-375.5" font-family="Helvetica,sans-Serif" font-size="10.00">/APrimitive/APrimitive.hpp</text>
</a>
</g>
</g>
<!-- Node1&#45;&gt;Node3 -->
<g id="edge2_Node000001_Node000003" class="edge">
<title>Node1&#45;&gt;Node3</title>
<g id="a_edge2_Node000001_Node000003"><a xlink:title=" ">
<path fill="none" stroke="#63b8ff" d="M522.5,-429.85C522.5,-419.97 522.5,-408.01 522.5,-398.86"/>
<polygon fill="#63b8ff" stroke="#63b8ff" points="519,-429.87 522.5,-439.87 526,-429.87 519,-429.87"/>
</a>
</g>
</g>
<!-- Node19 -->
<g id="Node000019" class="node">
<title>Node19</title>
<g id="a_Node000019"><a xlink:href="DirectionalLight_8cpp.html" target="_top" xlink:title=" ">
<polygon fill="white" stroke="#666666" points="994,-327 833,-327 833,-286 994,-286 994,-327"/>
<text text-anchor="start" x="841" y="-315" font-family="Helvetica,sans-Serif" font-size="10.00">src/Objects/Plugins</text>
<text text-anchor="start" x="841" y="-304" font-family="Helvetica,sans-Serif" font-size="10.00">/CorePlugin/Lights/Directional</text>
<text text-anchor="middle" x="913.5" y="-293" font-family="Helvetica,sans-Serif" font-size="10.00">Light/DirectionalLight.cpp</text>
</a>
</g>
</g>
<!-- Node1&#45;&gt;Node19 -->
<g id="edge35_Node000001_Node000019" class="edge">
<title>Node1&#45;&gt;Node19</title>
<g id="a_edge35_Node000001_Node000019"><a xlink:title=" ">
<path fill="none" stroke="#63b8ff" d="M550.65,-435.54C567,-427.46 587.64,-416.27 604.5,-404 625.85,-388.46 624.1,-375.23 647.5,-363 718.26,-326.01 745.37,-343.45 823.5,-327 826.47,-326.37 829.5,-325.73 832.56,-325.08"/>
<polygon fill="#63b8ff" stroke="#63b8ff" points="549.06,-432.43 541.58,-439.93 552.1,-438.73 549.06,-432.43"/>
</a>
</g>
</g>
<!-- Node20 -->
<g id="Node000020" class="node">
<title>Node20</title>
<g id="a_Node000020"><a xlink:href="Cylinder_8hpp.html" target="_top" xlink:title=" ">
<polygon fill="white" stroke="#666666" points="1137,-327 1012,-327 1012,-286 1137,-286 1137,-327"/>
<text text-anchor="start" x="1020" y="-315" font-family="Helvetica,sans-Serif" font-size="10.00">src/Objects/Plugins</text>
<text text-anchor="start" x="1020" y="-304" font-family="Helvetica,sans-Serif" font-size="10.00">/CorePlugin/Primitives</text>
<text text-anchor="middle" x="1074.5" y="-293" font-family="Helvetica,sans-Serif" font-size="10.00">/Cylinder/Cylinder.hpp</text>
</a>
</g>
</g>
<!-- Node1&#45;&gt;Node20 -->
<g id="edge37_Node000001_Node000020" class="edge">
<title>Node1&#45;&gt;Node20</title>
<g id="a_edge37_Node000001_Node000020"><a xlink:title=" ">
<path fill="none" stroke="#63b8ff" d="M566.25,-437.03C589.47,-429.73 617.81,-418.84 640.5,-404 661.81,-390.07 657.63,-374.18 680.5,-363 809.88,-299.78 861.03,-353.9 1002.5,-327 1005.55,-326.42 1008.67,-325.78 1011.8,-325.09"/>
<polygon fill="#63b8ff" stroke="#63b8ff" points="565.2,-433.69 556.64,-439.93 567.23,-440.39 565.2,-433.69"/>
</a>
</g>
</g>
<!-- Node22 -->
<g id="Node000022" class="node">
<title>Node22</title>
<g id="a_Node000022"><a xlink:href="Plane_8hpp.html" target="_top" xlink:title=" ">
<polygon fill="white" stroke="#666666" points="327,-327 202,-327 202,-286 327,-286 327,-327"/>
<text text-anchor="start" x="210" y="-315" font-family="Helvetica,sans-Serif" font-size="10.00">src/Objects/Plugins</text>
<text text-anchor="start" x="210" y="-304" font-family="Helvetica,sans-Serif" font-size="10.00">/CorePlugin/Primitives</text>
<text text-anchor="middle" x="264.5" y="-293" font-family="Helvetica,sans-Serif" font-size="10.00">/Plane/Plane.hpp</text>
</a>
</g>
</g>
<!-- Node1&#45;&gt;Node22 -->
<g id="edge38_Node000001_Node000022" class="edge">
<title>Node1&#45;&gt;Node22</title>
<g id="a_edge38_Node000001_Node000022"><a xlink:title=" ">
<path fill="none" stroke="#63b8ff" d="M497.88,-435.17C481.59,-426.35 459.76,-414.5 440.5,-404 391.86,-377.47 335.75,-346.67 300.21,-327.14"/>
<polygon fill="#63b8ff" stroke="#63b8ff" points="496.31,-438.3 506.77,-439.99 499.64,-432.15 496.31,-438.3"/>
</a>
</g>
</g>
<!-- Node26 -->
<g id="Node000026" class="node">
<title>Node26</title>
<g id="a_Node000026"><a xlink:href="PointLight_8cpp.html" target="_top" xlink:title=" ">
<polygon fill="white" stroke="#666666" points="845.5,-404 689.5,-404 689.5,-363 845.5,-363 845.5,-404"/>
<text text-anchor="start" x="697.5" y="-392" font-family="Helvetica,sans-Serif" font-size="10.00">src/Objects/Plugins</text>
<text text-anchor="start" x="697.5" y="-381" font-family="Helvetica,sans-Serif" font-size="10.00">/CorePlugin/Lights/PointLight</text>
<text text-anchor="middle" x="767.5" y="-370" font-family="Helvetica,sans-Serif" font-size="10.00">/PointLight.cpp</text>
</a>
</g>
</g>
<!-- Node1&#45;&gt;Node26 -->
<g id="edge36_Node000001_Node000026" class="edge">
<title>Node1&#45;&gt;Node26</title>
<g id="a_edge36_Node000001_Node000026"><a xlink:title=" ">
<path fill="none" stroke="#63b8ff" d="M565.21,-437.34C600.3,-428.18 650.86,-414.97 692.66,-404.05"/>
<polygon fill="#63b8ff" stroke="#63b8ff" points="564.08,-434.02 555.29,-439.94 565.85,-440.79 564.08,-434.02"/>
</a>
</g>
</g>
<!-- Node27 -->
<g id="Node000027" class="node">
<title>Node27</title>
<g id="a_Node000027"><a xlink:href="Camera_8hpp.html" target="_top" xlink:title=" ">
<polygon fill="white" stroke="#666666" points="146,-250 21,-250 21,-209 146,-209 146,-250"/>
<text text-anchor="start" x="29" y="-238" font-family="Helvetica,sans-Serif" font-size="10.00">src/Objects/Plugins</text>
<text text-anchor="start" x="29" y="-227" font-family="Helvetica,sans-Serif" font-size="10.00">/CorePlugin/Renderers</text>
<text text-anchor="middle" x="83.5" y="-216" font-family="Helvetica,sans-Serif" font-size="10.00">/Camera/Camera.hpp</text>
</a>
</g>
</g>
<!-- Node1&#45;&gt;Node27 -->
<g id="edge39_Node000001_Node000027" class="edge">
<title>Node1&#45;&gt;Node27</title>
<g id="a_edge39_Node000001_Node000027"><a xlink:title=" ">
<path fill="none" stroke="#63b8ff" d="M473.2,-437.57C405.86,-421.1 283.15,-385.46 192.5,-327 157.67,-304.54 122.73,-271.25 102.12,-250.23"/>
<polygon fill="#63b8ff" stroke="#63b8ff" points="472.58,-441.02 483.12,-439.96 474.21,-434.22 472.58,-441.02"/>
</a>
</g>
</g>
<!-- Node4 -->
<g id="Node000004" class="node">
<title>Node4</title>
<g id="a_Node000004"><a xlink:href="APrimitive_8cpp.html" target="_top" xlink:title=" ">
<polygon fill="white" stroke="#666666" points="672,-321.5 527,-321.5 527,-291.5 672,-291.5 672,-321.5"/>
<text text-anchor="start" x="535" y="-309.5" font-family="Helvetica,sans-Serif" font-size="10.00">src/Objects/Abstracts</text>
<text text-anchor="middle" x="599.5" y="-298.5" font-family="Helvetica,sans-Serif" font-size="10.00">/APrimitive/APrimitive.cpp</text>
</a>
</g>
</g>
<!-- Node3&#45;&gt;Node4 -->
<g id="edge3_Node000003_Node000004" class="edge">
<title>Node3&#45;&gt;Node4</title>
<g id="a_edge3_Node000003_Node000004"><a xlink:title=" ">
<path fill="none" stroke="#63b8ff" d="M544.25,-361.32C557.32,-348.58 573.59,-332.74 585.08,-321.54"/>
<polygon fill="#63b8ff" stroke="#63b8ff" points="541.7,-358.91 536.98,-368.39 546.59,-363.92 541.7,-358.91"/>
</a>
</g>
</g>
<!-- Node5 -->
<g id="Node000005" class="node">
<title>Node5</title>
<g id="a_Node000005"><a xlink:href="Plugin_8hpp.html" target="_top" xlink:title=" ">
<polygon fill="white" stroke="#666666" points="815,-316 690,-316 690,-297 815,-297 815,-316"/>
<text text-anchor="middle" x="752.5" y="-304" font-family="Helvetica,sans-Serif" font-size="10.00">src/Objects/Plugin.hpp</text>
</a>
</g>
</g>
<!-- Node3&#45;&gt;Node5 -->
<g id="edge4_Node000003_Node000005" class="edge">
<title>Node3&#45;&gt;Node5</title>
<g id="a_edge4_Node000003_Node000005"><a xlink:title=" ">
<path fill="none" stroke="#63b8ff" d="M575.23,-365.3C622.4,-349.92 689.57,-328.02 726.2,-316.08"/>
<polygon fill="#63b8ff" stroke="#63b8ff" points="573.91,-362.05 565.49,-368.48 576.08,-368.71 573.91,-362.05"/>
</a>
</g>
</g>
<!-- Node17 -->
<g id="Node000017" class="node">
<title>Node17</title>
<g id="a_Node000017"><a xlink:href="Camera_8cpp.html" target="_top" xlink:title=" ">
<polygon fill="white" stroke="#666666" points="418,-107 293,-107 293,-66 418,-66 418,-107"/>
<text text-anchor="start" x="301" y="-95" font-family="Helvetica,sans-Serif" font-size="10.00">src/Objects/Plugins</text>
<text text-anchor="start" x="301" y="-84" font-family="Helvetica,sans-Serif" font-size="10.00">/CorePlugin/Renderers</text>
<text text-anchor="middle" x="355.5" y="-73" font-family="Helvetica,sans-Serif" font-size="10.00">/Camera/Camera.cpp</text>
</a>
</g>
</g>
<!-- Node3&#45;&gt;Node17 -->
<g id="edge34_Node000003_Node000017" class="edge">
<title>Node3&#45;&gt;Node17</title>
<g id="a_edge34_Node000003_Node000017"><a xlink:title=" ">
<path fill="none" stroke="#63b8ff" d="M439.39,-369.05C414.79,-360.93 390.24,-347.9 374.5,-327 324.31,-260.37 340.94,-151.67 350.62,-107.3"/>
<polygon fill="#63b8ff" stroke="#63b8ff" points="438.59,-372.47 449.18,-372.03 440.63,-365.77 438.59,-372.47"/>
</a>
</g>
</g>
<!-- Node3&#45;&gt;Node19 -->
<g id="edge25_Node000003_Node000019" class="edge">
<title>Node3&#45;&gt;Node19</title>
<g id="a_edge25_Node000003_Node000019"><a xlink:title=" ">
<path fill="none" stroke="#63b8ff" d="M593.18,-366.32C598.69,-365.16 604.18,-364.04 609.5,-363 704.15,-344.45 728.79,-345.22 823.5,-327 826.48,-326.43 829.52,-325.83 832.58,-325.22"/>
<polygon fill="#63b8ff" stroke="#63b8ff" points="592.3,-362.93 583.26,-368.44 593.77,-369.78 592.3,-362.93"/>
</a>
</g>
</g>
<!-- Node3&#45;&gt;Node20 -->
<g id="edge26_Node000003_Node000020" class="edge">
<title>Node3&#45;&gt;Node20</title>
<g id="a_edge26_Node000003_Node000020"><a xlink:title=" ">
<path fill="none" stroke="#63b8ff" d="M605.81,-368.87C619.72,-366.77 634,-364.74 647.5,-363 804.79,-342.77 846.55,-355.82 1002.5,-327 1005.56,-326.44 1008.67,-325.8 1011.81,-325.13"/>
<polygon fill="#63b8ff" stroke="#63b8ff" points="605.13,-365.43 595.77,-370.4 606.19,-372.35 605.13,-365.43"/>
</a>
</g>
</g>
<!-- Node3&#45;&gt;Node22 -->
<g id="edge28_Node000003_Node000022" class="edge">
<title>Node3&#45;&gt;Node22</title>
<g id="a_edge28_Node000003_Node000022"><a xlink:title=" ">
<path fill="none" stroke="#63b8ff" d="M464.47,-365.63C423.61,-353.75 368.97,-337.87 327.13,-325.71"/>
<polygon fill="#63b8ff" stroke="#63b8ff" points="463.7,-369.05 474.27,-368.48 465.65,-362.33 463.7,-369.05"/>
</a>
</g>
</g>
<!-- Node24 -->
<g id="Node000024" class="node">
<title>Node24</title>
<g id="a_Node000024"><a xlink:href="Sphere_8hpp.html" target="_top" xlink:title=" ">
<polygon fill="white" stroke="#666666" points="509,-327 384,-327 384,-286 509,-286 509,-327"/>
<text text-anchor="start" x="392" y="-315" font-family="Helvetica,sans-Serif" font-size="10.00">src/Objects/Plugins</text>
<text text-anchor="start" x="392" y="-304" font-family="Helvetica,sans-Serif" font-size="10.00">/CorePlugin/Primitives</text>
<text text-anchor="middle" x="446.5" y="-293" font-family="Helvetica,sans-Serif" font-size="10.00">/Sphere/Sphere.hpp</text>
</a>
</g>
</g>
<!-- Node3&#45;&gt;Node24 -->
<g id="edge31_Node000003_Node000024" class="edge">
<title>Node3&#45;&gt;Node24</title>
<g id="a_edge31_Node000003_Node000024"><a xlink:title=" ">
<path fill="none" stroke="#63b8ff" d="M500.79,-361.07C489.99,-350.41 477.02,-337.62 466.47,-327.2"/>
<polygon fill="#63b8ff" stroke="#63b8ff" points="498.63,-363.86 508.2,-368.39 503.55,-358.88 498.63,-363.86"/>
</a>
</g>
</g>
<!-- Node6 -->
<g id="Node000006" class="node">
<title>Node6</title>
<g id="a_Node000006"><a xlink:href="CorePlugin_8cpp.html" target="_top" xlink:title=" ">
<polygon fill="white" stroke="#666666" points="531.5,-173 383.5,-173 383.5,-143 531.5,-143 531.5,-173"/>
<text text-anchor="start" x="391.5" y="-161" font-family="Helvetica,sans-Serif" font-size="10.00">src/Objects/Plugins</text>
<text text-anchor="middle" x="457.5" y="-150" font-family="Helvetica,sans-Serif" font-size="10.00">/CorePlugin/CorePlugin.cpp</text>
</a>
</g>
</g>
<!-- Node5&#45;&gt;Node6 -->
<g id="edge5_Node000005_Node000006" class="edge">
<title>Node5&#45;&gt;Node6</title>
<g id="a_edge5_Node000005_Node000006"><a xlink:title=" ">
<path fill="none" stroke="#63b8ff" d="M713.44,-294.08C673.47,-282 614.47,-262.92 594.5,-250 573.38,-236.34 575.66,-224.04 555.5,-209 535.91,-194.38 511.41,-181.88 491.8,-173.03"/>
<polygon fill="#63b8ff" stroke="#63b8ff" points="712.57,-297.48 723.15,-297 714.58,-290.77 712.57,-297.48"/>
</a>
</g>
</g>
<!-- Node7 -->
<g id="Node000007" class="node">
<title>Node7</title>
<g id="a_Node000007"><a xlink:href="SceneWriter_8hpp.html" target="_top" xlink:title=" ">
<polygon fill="white" stroke="#666666" points="765,-250 604,-250 604,-209 765,-209 765,-250"/>
<text text-anchor="start" x="612" y="-238" font-family="Helvetica,sans-Serif" font-size="10.00">src/Objects/Plugins</text>
<text text-anchor="start" x="612" y="-227" font-family="Helvetica,sans-Serif" font-size="10.00">/CorePlugin/Interfaces</text>
<text text-anchor="middle" x="684.5" y="-216" font-family="Helvetica,sans-Serif" font-size="10.00">/SceneWriter/SceneWriter.hpp</text>
</a>
</g>
</g>
<!-- Node5&#45;&gt;Node7 -->
<g id="edge6_Node000005_Node000007" class="edge">
<title>Node5&#45;&gt;Node7</title>
<g id="a_edge6_Node000005_Node000007"><a xlink:title=" ">
<path fill="none" stroke="#63b8ff" d="M737.86,-289.35C727.46,-277.88 713.43,-262.41 702.37,-250.21"/>
<polygon fill="#63b8ff" stroke="#63b8ff" points="735.39,-291.84 744.7,-296.9 740.58,-287.14 735.39,-291.84"/>
</a>
</g>
</g>
<!-- Node10 -->
<g id="Node000010" class="node">
<title>Node10</title>
<g id="a_Node000010"><a xlink:href="Parser_8hpp.html" target="_top" xlink:title=" ">
<polygon fill="white" stroke="#666666" points="1217.5,-244.5 1053.5,-244.5 1053.5,-214.5 1217.5,-214.5 1217.5,-244.5"/>
<text text-anchor="start" x="1061.5" y="-232.5" font-family="Helvetica,sans-Serif" font-size="10.00">src/SceneSystem/ConfigParser</text>
<text text-anchor="middle" x="1135.5" y="-221.5" font-family="Helvetica,sans-Serif" font-size="10.00">/Parser.hpp</text>
</a>
</g>
</g>
<!-- Node5&#45;&gt;Node10 -->
<g id="edge10_Node000005_Node000010" class="edge">
<title>Node5&#45;&gt;Node10</title>
<g id="a_edge10_Node000005_Node000010"><a xlink:title=" ">
<path fill="none" stroke="#63b8ff" d="M791.08,-294.21C801.55,-291.34 812.92,-288.39 823.5,-286 866.16,-276.37 976.19,-257.29 1053.44,-244.22"/>
<polygon fill="#63b8ff" stroke="#63b8ff" points="790.06,-290.86 781.37,-296.92 791.94,-297.6 790.06,-290.86"/>
</a>
</g>
</g>
<!-- Node14 -->
<g id="Node000014" class="node">
<title>Node14</title>
<g id="a_Node000014"><a xlink:href="PluginManager_8hpp.html" target="_top" xlink:title="Plugin manager for loading and managing plugins.">
<polygon fill="white" stroke="#666666" points="1007.5,-244.5 831.5,-244.5 831.5,-214.5 1007.5,-214.5 1007.5,-244.5"/>
<text text-anchor="start" x="839.5" y="-232.5" font-family="Helvetica,sans-Serif" font-size="10.00">src/SceneSystem/PluginManager</text>
<text text-anchor="middle" x="919.5" y="-221.5" font-family="Helvetica,sans-Serif" font-size="10.00">/PluginManager.hpp</text>
</a>
</g>
</g>
<!-- Node5&#45;&gt;Node14 -->
<g id="edge15_Node000005_Node000014" class="edge">
<title>Node5&#45;&gt;Node14</title>
<g id="a_edge15_Node000005_Node000014"><a xlink:title=" ">
<path fill="none" stroke="#63b8ff" d="M781.06,-292.67C810.81,-279.31 857.3,-258.43 888.08,-244.61"/>
<polygon fill="#63b8ff" stroke="#63b8ff" points="779.35,-289.61 771.66,-296.9 782.21,-295.99 779.35,-289.61"/>
</a>
</g>
</g>
<!-- Node16 -->
<g id="Node000016" class="node">
<title>Node16</title>
<g id="a_Node000016"><a xlink:href="Scene_8hpp.html" target="_top" xlink:title=" ">
<polygon fill="white" stroke="#666666" points="822.5,-173 690.5,-173 690.5,-143 822.5,-143 822.5,-173"/>
<text text-anchor="start" x="698.5" y="-161" font-family="Helvetica,sans-Serif" font-size="10.00">src/SceneSystem/Scene</text>
<text text-anchor="middle" x="756.5" y="-150" font-family="Helvetica,sans-Serif" font-size="10.00">/Scene.hpp</text>
</a>
</g>
</g>
<!-- Node5&#45;&gt;Node16 -->
<g id="edge24_Node000005_Node000016" class="edge">
<title>Node5&#45;&gt;Node16</title>
<g id="a_edge24_Node000005_Node000016"><a xlink:title=" ">
<path fill="none" stroke="#63b8ff" d="M761.28,-287.35C765.92,-276.74 771.14,-262.92 773.5,-250 776.78,-232.08 776.47,-226.98 773.5,-209 771.44,-196.52 766.66,-182.96 762.69,-173.12"/>
<polygon fill="#63b8ff" stroke="#63b8ff" points="757.95,-286.2 756.95,-296.75 764.31,-289.13 757.95,-286.2"/>
</a>
</g>
</g>
<!-- Node7&#45;&gt;Node6 -->
<g id="edge7_Node000007_Node000006" class="edge">
<title>Node7&#45;&gt;Node6</title>
<g id="a_edge7_Node000007_Node000006"><a xlink:title=" ">
<path fill="none" stroke="#63b8ff" d="M610.84,-205.95C575.42,-195.1 534.07,-182.44 503.24,-173"/>
<polygon fill="#63b8ff" stroke="#63b8ff" points="610.08,-209.37 620.66,-208.96 612.13,-202.68 610.08,-209.37"/>
</a>
</g>
</g>
<!-- Node8 -->
<g id="Node000008" class="node">
<title>Node8</title>
<g id="a_Node000008"><a xlink:href="SceneWriter_8cpp.html" target="_top" xlink:title=" ">
<polygon fill="white" stroke="#666666" points="749,-107 588,-107 588,-66 749,-66 749,-107"/>
<text text-anchor="start" x="596" y="-95" font-family="Helvetica,sans-Serif" font-size="10.00">src/Objects/Plugins</text>
<text text-anchor="start" x="596" y="-84" font-family="Helvetica,sans-Serif" font-size="10.00">/CorePlugin/Interfaces</text>
<text text-anchor="middle" x="668.5" y="-73" font-family="Helvetica,sans-Serif" font-size="10.00">/SceneWriter/SceneWriter.cpp</text>
</a>
</g>
</g>
<!-- Node7&#45;&gt;Node8 -->
<g id="edge8_Node000007_Node000008" class="edge">
<title>Node7&#45;&gt;Node8</title>
<g id="a_edge8_Node000007_Node000008"><a xlink:title=" ">
<path fill="none" stroke="#63b8ff" d="M681.12,-198.68C678,-171.2 673.46,-131.17 670.76,-107.39"/>
<polygon fill="#63b8ff" stroke="#63b8ff" points="677.67,-199.35 682.28,-208.89 684.63,-198.56 677.67,-199.35"/>
</a>
</g>
</g>
<!-- Node9 -->
<g id="Node000009" class="node">
<title>Node9</title>
<g id="a_Node000009"><a xlink:href="main_8cpp.html" target="_top" xlink:title=" ">
<polygon fill="white" stroke="#666666" points="955,-24.5 876,-24.5 876,-5.5 955,-5.5 955,-24.5"/>
<text text-anchor="middle" x="915.5" y="-12.5" font-family="Helvetica,sans-Serif" font-size="10.00">src/main.cpp</text>
</a>
</g>
</g>
<!-- Node7&#45;&gt;Node9 -->
<g id="edge9_Node000007_Node000009" class="edge">
<title>Node7&#45;&gt;Node9</title>
<g id="a_edge9_Node000007_Node000009"><a xlink:title=" ">
<path fill="none" stroke="#63b8ff" d="M646.9,-202.71C602.8,-169.37 540.26,-110.33 578.5,-66 616.5,-21.94 795.15,-16.07 875.81,-15.71"/>
<polygon fill="#63b8ff" stroke="#63b8ff" points="645.05,-205.69 655.17,-208.82 649.21,-200.06 645.05,-205.69"/>
</a>
</g>
</g>
<!-- Node11 -->
<g id="Node000011" class="node">
<title>Node11</title>
<g id="a_Node000011"><a xlink:href="Parser_8cpp.html" target="_top" xlink:title=" ">
<polygon fill="white" stroke="#666666" points="1236.5,-173 1072.5,-173 1072.5,-143 1236.5,-143 1236.5,-173"/>
<text text-anchor="start" x="1080.5" y="-161" font-family="Helvetica,sans-Serif" font-size="10.00">src/SceneSystem/ConfigParser</text>
<text text-anchor="middle" x="1154.5" y="-150" font-family="Helvetica,sans-Serif" font-size="10.00">/Parser.cpp</text>
</a>
</g>
</g>
<!-- Node10&#45;&gt;Node11 -->
<g id="edge11_Node000010_Node000011" class="edge">
<title>Node10&#45;&gt;Node11</title>
<g id="a_edge11_Node000010_Node000011"><a xlink:title=" ">
<path fill="none" stroke="#63b8ff" d="M1142.04,-204.58C1144.91,-194.06 1148.19,-182.08 1150.66,-173.04"/>
<polygon fill="#63b8ff" stroke="#63b8ff" points="1138.61,-203.87 1139.34,-214.44 1145.36,-205.71 1138.61,-203.87"/>
</a>
</g>
</g>
<!-- Node12 -->
<g id="Node000012" class="node">
<title>Node12</title>
<g id="a_Node000012"><a xlink:href="SceneLoader_8hpp.html" target="_top" xlink:title=" ">
<polygon fill="white" stroke="#666666" points="1127,-101.5 962,-101.5 962,-71.5 1127,-71.5 1127,-101.5"/>
<text text-anchor="start" x="970" y="-89.5" font-family="Helvetica,sans-Serif" font-size="10.00">src/SceneSystem/SceneLoader</text>
<text text-anchor="middle" x="1044.5" y="-78.5" font-family="Helvetica,sans-Serif" font-size="10.00">/SceneLoader.hpp</text>
</a>
</g>
</g>
<!-- Node10&#45;&gt;Node12 -->
<g id="edge12_Node000010_Node000012" class="edge">
<title>Node10&#45;&gt;Node12</title>
<g id="a_edge12_Node000010_Node000012"><a xlink:title=" ">
<path fill="none" stroke="#63b8ff" d="M1189.67,-210.74C1227.3,-195.45 1267.11,-171.39 1245.5,-143 1230.73,-123.59 1175.82,-109.24 1127.11,-100"/>
<polygon fill="#63b8ff" stroke="#63b8ff" points="1188.24,-207.54 1180.19,-214.44 1190.78,-214.07 1188.24,-207.54"/>
</a>
</g>
</g>
<!-- Node12&#45;&gt;Node9 -->
<g id="edge14_Node000012_Node000009" class="edge">
<title>Node12&#45;&gt;Node9</title>
<g id="a_edge14_Node000012_Node000009"><a xlink:title=" ">
<path fill="none" stroke="#63b8ff" d="M1009.41,-66.6C983.96,-52.89 950.75,-34.99 931.4,-24.57"/>
<polygon fill="#63b8ff" stroke="#63b8ff" points="1007.93,-69.77 1018.39,-71.44 1011.25,-63.61 1007.93,-69.77"/>
</a>
</g>
</g>
<!-- Node13 -->
<g id="Node000013" class="node">
<title>Node13</title>
<g id="a_Node000013"><a xlink:href="SceneLoader_8cpp.html" target="_top" xlink:title=" ">
<polygon fill="white" stroke="#666666" points="1138,-30 973,-30 973,0 1138,0 1138,-30"/>
<text text-anchor="start" x="981" y="-18" font-family="Helvetica,sans-Serif" font-size="10.00">src/SceneSystem/SceneLoader</text>
<text text-anchor="middle" x="1055.5" y="-7" font-family="Helvetica,sans-Serif" font-size="10.00">/SceneLoader.cpp</text>
</a>
</g>
</g>
<!-- Node12&#45;&gt;Node13 -->
<g id="edge13_Node000012_Node000013" class="edge">
<title>Node12&#45;&gt;Node13</title>
<g id="a_edge13_Node000012_Node000013"><a xlink:title=" ">
<path fill="none" stroke="#63b8ff" d="M1048.34,-61.25C1049.99,-50.81 1051.86,-38.99 1053.28,-30.04"/>
<polygon fill="#63b8ff" stroke="#63b8ff" points="1044.83,-61.01 1046.73,-71.44 1051.75,-62.11 1044.83,-61.01"/>
</a>
</g>
</g>
<!-- Node14&#45;&gt;Node12 -->
<g id="edge23_Node000014_Node000012" class="edge">
<title>Node14&#45;&gt;Node12</title>
<g id="a_edge23_Node000014_Node000012"><a xlink:title=" ">
<path fill="none" stroke="#63b8ff" d="M975.02,-210.4C993.57,-201.8 1012.75,-189.65 1025.5,-173 1041.59,-151.99 1044.58,-120.04 1044.85,-101.73"/>
<polygon fill="#63b8ff" stroke="#63b8ff" points="973.47,-207.26 965.71,-214.47 976.27,-213.68 973.47,-207.26"/>
</a>
</g>
</g>
<!-- Node15 -->
<g id="Node000015" class="node">
<title>Node15</title>
<g id="a_Node000015"><a xlink:href="PluginManager_8cpp.html" target="_top" xlink:title=" ">
<polygon fill="white" stroke="#666666" points="1016.5,-173 840.5,-173 840.5,-143 1016.5,-143 1016.5,-173"/>
<text text-anchor="start" x="848.5" y="-161" font-family="Helvetica,sans-Serif" font-size="10.00">src/SceneSystem/PluginManager</text>
<text text-anchor="middle" x="928.5" y="-150" font-family="Helvetica,sans-Serif" font-size="10.00">/PluginManager.cpp</text>
</a>
</g>
</g>
<!-- Node14&#45;&gt;Node15 -->
<g id="edge16_Node000014_Node000015" class="edge">
<title>Node14&#45;&gt;Node15</title>
<g id="a_edge16_Node000014_Node000015"><a xlink:title=" ">
<path fill="none" stroke="#63b8ff" d="M922.64,-204.25C923.99,-193.81 925.52,-181.99 926.68,-173.04"/>
<polygon fill="#63b8ff" stroke="#63b8ff" points="919.13,-204.07 921.32,-214.44 926.08,-204.97 919.13,-204.07"/>
</a>
</g>
</g>
<!-- Node14&#45;&gt;Node16 -->
<g id="edge17_Node000014_Node000016" class="edge">
<title>Node14&#45;&gt;Node16</title>
<g id="a_edge17_Node000014_Node000016"><a xlink:title=" ">
<path fill="none" stroke="#63b8ff" d="M877.19,-210.46C849.82,-198.79 814.72,-183.82 789.44,-173.04"/>
<polygon fill="#63b8ff" stroke="#63b8ff" points="875.94,-213.73 886.51,-214.44 878.69,-207.29 875.94,-213.73"/>
</a>
</g>
</g>
<!-- Node16&#45;&gt;Node8 -->
<g id="edge18_Node000016_Node000008" class="edge">
<title>Node16&#45;&gt;Node8</title>
<g id="a_edge18_Node000016_Node000008"><a xlink:title=" ">
<path fill="none" stroke="#63b8ff" d="M730.55,-136.5C718.77,-127.21 704.91,-116.26 693.28,-107.07"/>
<polygon fill="#63b8ff" stroke="#63b8ff" points="728.67,-139.48 738.69,-142.94 733.01,-133.99 728.67,-139.48"/>
</a>
</g>
</g>
<!-- Node16&#45;&gt;Node9 -->
<g id="edge22_Node000016_Node000009" class="edge">
<title>Node16&#45;&gt;Node9</title>
<g id="a_edge22_Node000016_Node000009"><a xlink:title=" ">
<path fill="none" stroke="#63b8ff" d="M832.31,-140.39C865.12,-131.59 898.36,-119.93 908.5,-107 927.66,-82.56 921.59,-42.2 917.68,-24.63"/>
<polygon fill="#63b8ff" stroke="#63b8ff" points="831.42,-137.01 822.62,-142.91 833.18,-143.78 831.42,-137.01"/>
</a>
</g>
</g>
<!-- Node16&#45;&gt;Node12 -->
<g id="edge21_Node000016_Node000012" class="edge">
<title>Node16&#45;&gt;Node12</title>
<g id="a_edge21_Node000016_Node000012"><a xlink:title=" ">
<path fill="none" stroke="#63b8ff" d="M824.7,-140.54C873.89,-128.67 939.58,-112.82 986.31,-101.54"/>
<polygon fill="#63b8ff" stroke="#63b8ff" points="823.68,-137.19 814.78,-142.94 825.32,-143.99 823.68,-137.19"/>
</a>
</g>
</g>
<!-- Node16&#45;&gt;Node17 -->
<g id="edge19_Node000016_Node000017" class="edge">
<title>Node16&#45;&gt;Node17</title>
<g id="a_edge19_Node000016_Node000017"><a xlink:title=" ">
<path fill="none" stroke="#63b8ff" d="M680.29,-143.79C604.32,-130.62 489.02,-110.64 418.18,-98.36"/>
<polygon fill="#63b8ff" stroke="#63b8ff" points="679.83,-147.26 690.28,-145.52 681.03,-140.37 679.83,-147.26"/>
</a>
</g>
</g>
<!-- Node18 -->
<g id="Node000018" class="node">
<title>Node18</title>
<g id="a_Node000018"><a xlink:href="Scene_8cpp.html" target="_top" xlink:title=" ">
<polygon fill="white" stroke="#666666" points="899.5,-101.5 767.5,-101.5 767.5,-71.5 899.5,-71.5 899.5,-101.5"/>
<text text-anchor="start" x="775.5" y="-89.5" font-family="Helvetica,sans-Serif" font-size="10.00">src/SceneSystem/Scene</text>
<text text-anchor="middle" x="833.5" y="-78.5" font-family="Helvetica,sans-Serif" font-size="10.00">/Scene.cpp</text>
</a>
</g>
</g>
<!-- Node16&#45;&gt;Node18 -->
<g id="edge20_Node000016_Node000018" class="edge">
<title>Node16&#45;&gt;Node18</title>
<g id="a_edge20_Node000016_Node000018"><a xlink:title=" ">
<path fill="none" stroke="#63b8ff" d="M779.78,-135.99C792.14,-124.84 806.99,-111.43 817.94,-101.54"/>
<polygon fill="#63b8ff" stroke="#63b8ff" points="777.16,-133.64 772.08,-142.94 781.85,-138.83 777.16,-133.64"/>
</a>
</g>
</g>
<!-- Node21 -->
<g id="Node000021" class="node">
<title>Node21</title>
<g id="a_Node000021"><a xlink:href="Cylinder_8cpp.html" target="_top" xlink:title=" ">
<polygon fill="white" stroke="#666666" points="1361,-250 1236,-250 1236,-209 1361,-209 1361,-250"/>
<text text-anchor="start" x="1244" y="-238" font-family="Helvetica,sans-Serif" font-size="10.00">src/Objects/Plugins</text>
<text text-anchor="start" x="1244" y="-227" font-family="Helvetica,sans-Serif" font-size="10.00">/CorePlugin/Primitives</text>
<text text-anchor="middle" x="1298.5" y="-216" font-family="Helvetica,sans-Serif" font-size="10.00">/Cylinder/Cylinder.cpp</text>
</a>
</g>
</g>
<!-- Node20&#45;&gt;Node21 -->
<g id="edge27_Node000020_Node000021" class="edge">
<title>Node20&#45;&gt;Node21</title>
<g id="a_edge27_Node000020_Node000021"><a xlink:title=" ">
<path fill="none" stroke="#63b8ff" d="M1142.27,-282.81C1173.48,-272.36 1210.16,-260.08 1240.13,-250.04"/>
<polygon fill="#63b8ff" stroke="#63b8ff" points="1141.14,-279.5 1132.77,-285.99 1143.36,-286.13 1141.14,-279.5"/>
</a>
</g>
</g>
<!-- Node22&#45;&gt;Node6 -->
<g id="edge29_Node000022_Node000006" class="edge">
<title>Node22&#45;&gt;Node6</title>
<g id="a_edge29_Node000022_Node000006"><a xlink:title=" ">
<path fill="none" stroke="#63b8ff" d="M298.58,-279.63C339.44,-248.62 406.44,-197.76 438.82,-173.18"/>
<polygon fill="#63b8ff" stroke="#63b8ff" points="296.38,-276.91 290.53,-285.74 300.61,-282.48 296.38,-276.91"/>
</a>
</g>
</g>
<!-- Node23 -->
<g id="Node000023" class="node">
<title>Node23</title>
<g id="a_Node000023"><a xlink:href="Plane_8cpp.html" target="_top" xlink:title=" ">
<polygon fill="white" stroke="#666666" points="289,-250 164,-250 164,-209 289,-209 289,-250"/>
<text text-anchor="start" x="172" y="-238" font-family="Helvetica,sans-Serif" font-size="10.00">src/Objects/Plugins</text>
<text text-anchor="start" x="172" y="-227" font-family="Helvetica,sans-Serif" font-size="10.00">/CorePlugin/Primitives</text>
<text text-anchor="middle" x="226.5" y="-216" font-family="Helvetica,sans-Serif" font-size="10.00">/Plane/Plane.cpp</text>
</a>
</g>
</g>
<!-- Node22&#45;&gt;Node23 -->
<g id="edge30_Node000022_Node000023" class="edge">
<title>Node22&#45;&gt;Node23</title>
<g id="a_edge30_Node000022_Node000023"><a xlink:title=" ">
<path fill="none" stroke="#63b8ff" d="M249.97,-276.83C245.44,-267.89 240.55,-258.24 236.42,-250.07"/>
<polygon fill="#63b8ff" stroke="#63b8ff" points="246.87,-278.46 254.52,-285.79 253.12,-275.29 246.87,-278.46"/>
</a>
</g>
</g>
<!-- Node24&#45;&gt;Node6 -->
<g id="edge32_Node000024_Node000006" class="edge">
<title>Node24&#45;&gt;Node6</title>
<g id="a_edge32_Node000024_Node000006"><a xlink:title=" ">
<path fill="none" stroke="#63b8ff" d="M425.17,-277.36C419.99,-268.99 415.18,-259.5 412.5,-250 407.55,-232.46 405.97,-226.01 412.5,-209 417.94,-194.83 429.46,-182.15 439.48,-173.11"/>
<polygon fill="#63b8ff" stroke="#63b8ff" points="422.41,-279.53 430.85,-285.95 428.25,-275.67 422.41,-279.53"/>
</a>
</g>
</g>
<!-- Node25 -->
<g id="Node000025" class="node">
<title>Node25</title>
<g id="a_Node000025"><a xlink:href="Sphere_8cpp.html" target="_top" xlink:title=" ">
<polygon fill="white" stroke="#666666" points="547,-250 422,-250 422,-209 547,-209 547,-250"/>
<text text-anchor="start" x="430" y="-238" font-family="Helvetica,sans-Serif" font-size="10.00">src/Objects/Plugins</text>
<text text-anchor="start" x="430" y="-227" font-family="Helvetica,sans-Serif" font-size="10.00">/CorePlugin/Primitives</text>
<text text-anchor="middle" x="484.5" y="-216" font-family="Helvetica,sans-Serif" font-size="10.00">/Sphere/Sphere.cpp</text>
</a>
</g>
</g>
<!-- Node24&#45;&gt;Node25 -->
<g id="edge33_Node000024_Node000025" class="edge">
<title>Node24&#45;&gt;Node25</title>
<g id="a_edge33_Node000024_Node000025"><a xlink:title=" ">
<path fill="none" stroke="#63b8ff" d="M461.03,-276.83C465.56,-267.89 470.45,-258.24 474.58,-250.07"/>
<polygon fill="#63b8ff" stroke="#63b8ff" points="457.88,-275.29 456.48,-285.79 464.13,-278.46 457.88,-275.29"/>
</a>
</g>
</g>
<!-- Node27&#45;&gt;Node6 -->
<g id="edge40_Node000027_Node000006" class="edge">
<title>Node27&#45;&gt;Node6</title>
<g id="a_edge40_Node000027_Node000006"><a xlink:title=" ">
<path fill="none" stroke="#63b8ff" d="M155.95,-208.78C238.76,-190.95 324.06,-177.55 383.31,-169.03"/>
<polygon fill="#63b8ff" stroke="#63b8ff" points="155.16,-205.37 146.13,-210.92 156.65,-212.21 155.16,-205.37"/>
</a>
</g>
</g>
<!-- Node27&#45;&gt;Node17 -->
<g id="edge41_Node000027_Node000017" class="edge">
<title>Node27&#45;&gt;Node17</title>
<g id="a_edge41_Node000027_Node000017"><a xlink:title=" ">
<path fill="none" stroke="#63b8ff" d="M130.5,-204.13C183.49,-176.67 268.62,-132.54 317.56,-107.17"/>
<polygon fill="#63b8ff" stroke="#63b8ff" points="128.59,-201.18 121.32,-208.89 131.81,-207.4 128.59,-201.18"/>
</a>
</g>
</g>
</g>
</svg>

<g id="navigator" transform="translate(0 0)" fill="#404254">
  <rect fill="#f2f5e9" fill-opacity="0.5" stroke="#606060" stroke-width=".5" x="0" y="0" width="60" height="60"/>
  <use id="zoomplus" xlink:href="#zoomPlus" x="17" y="9" onmousedown="handleZoom(evt,'in')"/>
  <use id="zoomminus" xlink:href="#zoomMin" x="42" y="9" onmousedown="handleZoom(evt,'out')"/>
  <use id="reset" xlink:href="#resetDef" x="30" y="36" onmousedown="handleReset()"/>
   <use id="arrowup" xlink:href="#arrowUp" x="0" y="0" onmousedown="handlePan(0,-1)"/>
  <use id="arrowright" xlink:href="#arrowRight" x="0" y="0" onmousedown="handlePan(1,0)"/>
  <use id="arrowdown" xlink:href="#arrowDown" x="0" y="0" onmousedown="handlePan(0,1)"/>
  <use id="arrowleft" xlink:href="#arrowLeft" x="0" y="0" onmousedown="handlePan(-1,0)"/>
</g>
<svg viewBox="0 0 15 15" width="100%" height="30px" preserveAspectRatio="xMaxYMin meet">
 <g id="arrow_out" transform="scale(0.3 0.3)">
  <a xlink:href="Ray_8hpp__dep__incl_org.svg" target="_base">
   <rect id="button" ry="5" rx="5" y="6" x="6" height="38" width="38"
        fill="#f2f5e9" fill-opacity="0.5" stroke="#606060" stroke-width="1.0"/>
   <path id="arrow"
     d="M 11.500037,31.436501 C 11.940474,20.09759 22.043105,11.32322 32.158766,21.979434 L 37.068811,17.246167 C 37.068811,17.246167 37.088388,32 37.088388,32 L 22.160133,31.978069 C 22.160133,31.978069 26.997745,27.140456 26.997745,27.140456 C 18.528582,18.264221 13.291696,25.230495 11.500037,31.436501 z"
     style="fill:#404040;"/>
  </a>
 </g>
</svg>

<style type='text/css'>
<![CDATA[
[data-mouse-over-selected='false'] { opacity: 0.7; }
[data-mouse-over-selected='true']  { opacity: 1.0; }
]]>
</style>
<script type="application/ecmascript"><![CDATA[
document.addEventListener('DOMContentLoaded', (event) => {
  highlightEdges();
  highlightAdjacentNodes();
});
]]></script>
</svg>
