<?xml version="1.0" encoding="UTF-8" standalone="no"?>
<!DOCTYPE svg PUBLIC "-//W3C//DTD SVG 1.1//EN"
 "http://www.w3.org/Graphics/SVG/1.1/DTD/svg11.dtd">
<!-- Generated by graphviz version 2.43.0 (0)
 -->
<!-- Title: src/Geometry/Ray/Ray.hpp Pages: 1 -->
<!--zoomable 511 -->

<svg id="main" version="1.1" xmlns="http://www.w3.org/2000/svg" xmlns:xlink="http://www.w3.org/1999/xlink" xml:space="preserve" onload="init(evt)">
<style type="text/css"><![CDATA[
.node, .edge {opacity: 0.7;}
.node.selected, .edge.selected {opacity: 1;}
.edge:hover path { stroke: red; }
.edge:hover polygon { stroke: red; fill: red; }
]]></style>

<defs>
  <circle id="rim" cx="0" cy="0" r="7"/>
  <circle id="rim2" cx="0" cy="0" r="3.5"/>
  <g id="zoomPlus">
    <use xlink:href="#rim" fill="#404040"><set attributeName="fill" to="#808080" begin="zoomplus.mouseover" end="zoomplus.mouseout"/></use>
    <path d="M-4,0h8M0,-4v8" fill="none" stroke="white" stroke-width="1.5" pointer-events="none"/>
  </g>
  <g id="zoomMin">
    <use xlink:href="#rim" fill="#404040"><set attributeName="fill" to="#808080" begin="zoomminus.mouseover" end="zoomminus.mouseout"/></use>
    <path d="M-4,0h8" fill="none" stroke="white" stroke-width="1.5" pointer-events="none"/>
  </g>
  <g id="arrowUp" transform="translate(30 24)">
    <use xlink:href="#rim"/>
    <path pointer-events="none" fill="none" stroke="white" stroke-width="1.5" d="M0,-3.0v7 M-2.5,-0.5L0,-3.0L2.5,-0.5"/>
  </g>
  <g id="arrowRight" transform="rotate(90) translate(36 -43)">
    <use xlink:href="#rim"/>
    <path pointer-events="none" fill="none" stroke="white" stroke-width="1.5" d="M0,-3.0v7 M-2.5,-0.5L0,-3.0L2.5,-0.5"/>
  </g>
  <g id="arrowDown" transform="rotate(180) translate(-30 -48)">
    <use xlink:href="#rim"/>
    <path pointer-events="none" fill="none" stroke="white" stroke-width="1.5" d="M0,-3.0v7 M-2.5,-0.5L0,-3.0L2.5,-0.5"/>
  </g>
  <g id="arrowLeft" transform="rotate(270) translate(-36 17)">
    <use xlink:href="#rim"/>
    <path pointer-events="none" fill="none" stroke="white" stroke-width="1.5" d="M0,-3.0v7 M-2.5,-0.5L0,-3.0L2.5,-0.5"/>
  </g>
  <g id="resetDef">
    <use xlink:href="#rim2" fill="#404040"><set attributeName="fill" to="#808080" begin="reset.mouseover" end="reset.mouseout"/></use>
  </g>
</defs>
<script type="application/ecmascript">
var viewWidth = 1640;
var viewHeight = 511;
var sectionId = 'dynsection-1';
</script>
<script type="application/ecmascript" xlink:href="svg.min.js"/>
<svg id="graph" class="graph">
<g id="viewport">
<title>src/Geometry/Ray/Ray.hpp</title>
<!-- Node1 -->
<g id="Node000001" class="node">
<title>Node1</title>
<g id="a_Node000001"><a xlink:title=" ">
<polygon fill="#999999" stroke="#666666" points="843.38,-503 697.38,-503 697.38,-484 843.38,-484 843.38,-503"/>
<text text-anchor="middle" x="770.38" y="-491" font-family="Helvetica,sans-Serif" font-size="10.00">src/Geometry/Ray/Ray.hpp</text>
</a>
</g>
</g>
<!-- Node2 -->
<g id="Node000002" class="node">
<title>Node2</title>
<g id="a_Node000002"><a xlink:href="AABB_8hpp.html" target="_top" xlink:title=" ">
<polygon fill="white" stroke="#666666" points="962.38,-448 798.38,-448 798.38,-429 962.38,-429 962.38,-448"/>
<text text-anchor="middle" x="880.38" y="-436" font-family="Helvetica,sans-Serif" font-size="10.00">src/Geometry/AABB/AABB.hpp</text>
</a>
</g>
</g>
<!-- Node1&#45;&gt;Node2 -->
<g id="edge1_Node000001_Node000002" class="edge">
<title>Node1&#45;&gt;Node2</title>
<g id="a_edge1_Node000001_Node000002"><a xlink:title=" ">
<path fill="none" stroke="#63b8ff" d="M797.09,-479.63C817.35,-469.87 844.65,-456.71 862.39,-448.17"/>
<polygon fill="#63b8ff" stroke="#63b8ff" points="795.54,-476.49 788.06,-483.98 798.58,-482.8 795.54,-476.49"/>
</a>
</g>
</g>
<!-- Node3 -->
<g id="Node000003" class="node">
<title>Node3</title>
<g id="a_Node000003"><a xlink:href="APrimitive_8hpp.html" target="_top" xlink:title=" ">
<polygon fill="white" stroke="#666666" points="742.38,-393 596.38,-393 596.38,-363 742.38,-363 742.38,-393"/>
<text text-anchor="start" x="604.38" y="-381" font-family="Helvetica,sans-Serif" font-size="10.00">src/Objects/Abstracts</text>
<text text-anchor="middle" x="669.38" y="-370" font-family="Helvetica,sans-Serif" font-size="10.00">/APrimitive/APrimitive.hpp</text>
</a>
</g>
</g>
<!-- Node1&#45;&gt;Node3 -->
<g id="edge43_Node000001_Node000003" class="edge">
<title>Node1&#45;&gt;Node3</title>
<g id="a_edge43_Node000001_Node000003"><a xlink:title=" ">
<path fill="none" stroke="#63b8ff" d="M756.03,-476.37C736.23,-454.12 700.84,-414.36 682,-393.18"/>
<polygon fill="#63b8ff" stroke="#63b8ff" points="753.53,-478.83 762.79,-483.97 758.76,-474.17 753.53,-478.83"/>
</a>
</g>
</g>
<!-- Node16 -->
<g id="Node000016" class="node">
<title>Node16</title>
<g id="a_Node000016"><a xlink:href="Scene_8hpp.html" target="_top" xlink:title=" ">
<polygon fill="white" stroke="#666666" points="1268.38,-173 1136.38,-173 1136.38,-143 1268.38,-143 1268.38,-173"/>
<text text-anchor="start" x="1144.38" y="-161" font-family="Helvetica,sans-Serif" font-size="10.00">src/SceneSystem/Scene</text>
<text text-anchor="middle" x="1202.38" y="-150" font-family="Helvetica,sans-Serif" font-size="10.00">/Scene.hpp</text>
</a>
</g>
</g>
<!-- Node1&#45;&gt;Node16 -->
<g id="edge51_Node000001_Node000016" class="edge">
<title>Node1&#45;&gt;Node16</title>
<g id="a_edge51_Node000001_Node000016"><a xlink:title=" ">
<path fill="none" stroke="#63b8ff" d="M853.95,-491.54C1002.33,-487.57 1296.38,-468.41 1296.38,-379 1296.38,-379 1296.38,-379 1296.38,-305.5 1296.38,-249.29 1246.76,-197.42 1219.62,-173.26"/>
<polygon fill="#63b8ff" stroke="#63b8ff" points="853.43,-488.06 843.52,-491.81 853.6,-495.05 853.43,-488.06"/>
</a>
</g>
</g>
<!-- Node20 -->
<g id="Node000020" class="node">
<title>Node20</title>
<g id="a_Node000020"><a xlink:href="DirectionalLight_8cpp.html" target="_top" xlink:title=" ">
<polygon fill="white" stroke="#666666" points="177.88,-327 16.88,-327 16.88,-286 177.88,-286 177.88,-327"/>
<text text-anchor="start" x="24.88" y="-315" font-family="Helvetica,sans-Serif" font-size="10.00">src/Objects/Plugins</text>
<text text-anchor="start" x="24.88" y="-304" font-family="Helvetica,sans-Serif" font-size="10.00">/CorePlugin/Lights/Directional</text>
<text text-anchor="middle" x="97.38" y="-293" font-family="Helvetica,sans-Serif" font-size="10.00">Light/DirectionalLight.cpp</text>
</a>
</g>
</g>
<!-- Node1&#45;&gt;Node20 -->
<g id="edge44_Node000001_Node000020" class="edge">
<title>Node1&#45;&gt;Node20</title>
<g id="a_edge44_Node000001_Node000020"><a xlink:title=" ">
<path fill="none" stroke="#63b8ff" d="M729.44,-481.24C618.15,-450.65 309.06,-365.69 168.55,-327.06"/>
<polygon fill="#63b8ff" stroke="#63b8ff" points="728.7,-484.67 739.27,-483.95 730.56,-477.92 728.7,-484.67"/>
</a>
</g>
</g>
<!-- Node21 -->
<g id="Node000021" class="node">
<title>Node21</title>
<g id="a_Node000021"><a xlink:href="PointLight_8cpp.html" target="_top" xlink:title=" ">
<polygon fill="white" stroke="#666666" points="1268.38,-327 1112.38,-327 1112.38,-286 1268.38,-286 1268.38,-327"/>
<text text-anchor="start" x="1120.38" y="-315" font-family="Helvetica,sans-Serif" font-size="10.00">src/Objects/Plugins</text>
<text text-anchor="start" x="1120.38" y="-304" font-family="Helvetica,sans-Serif" font-size="10.00">/CorePlugin/Lights/PointLight</text>
<text text-anchor="middle" x="1190.38" y="-293" font-family="Helvetica,sans-Serif" font-size="10.00">/PointLight.cpp</text>
</a>
</g>
</g>
<!-- Node1&#45;&gt;Node21 -->
<g id="edge45_Node000001_Node000021" class="edge">
<title>Node1&#45;&gt;Node21</title>
<g id="a_edge45_Node000001_Node000021"><a xlink:title=" ">
<path fill="none" stroke="#63b8ff" d="M846.08,-482.23C884.59,-475.41 931.55,-464.57 971.38,-448 1011.11,-431.48 1112.98,-361.74 1162.51,-327.14"/>
<polygon fill="#63b8ff" stroke="#63b8ff" points="845.23,-478.83 835.97,-483.97 846.42,-485.73 845.23,-478.83"/>
</a>
</g>
</g>
<!-- Node22 -->
<g id="Node000022" class="node">
<title>Node22</title>
<g id="a_Node000022"><a xlink:href="Cylinder_8hpp.html" target="_top" xlink:title=" ">
<polygon fill="white" stroke="#666666" points="951.88,-327 826.88,-327 826.88,-286 951.88,-286 951.88,-327"/>
<text text-anchor="start" x="834.88" y="-315" font-family="Helvetica,sans-Serif" font-size="10.00">src/Objects/Plugins</text>
<text text-anchor="start" x="834.88" y="-304" font-family="Helvetica,sans-Serif" font-size="10.00">/CorePlugin/Primitives</text>
<text text-anchor="middle" x="889.38" y="-293" font-family="Helvetica,sans-Serif" font-size="10.00">/Cylinder/Cylinder.hpp</text>
</a>
</g>
</g>
<!-- Node1&#45;&gt;Node22 -->
<g id="edge46_Node000001_Node000022" class="edge">
<title>Node1&#45;&gt;Node22</title>
<g id="a_edge46_Node000001_Node000022"><a xlink:title=" ">
<path fill="none" stroke="#63b8ff" d="M773.93,-473.74C776.89,-460.68 781.85,-443.14 789.38,-429 810.71,-388.98 846.43,-349.77 868.9,-327.15"/>
<polygon fill="#63b8ff" stroke="#63b8ff" points="770.44,-473.36 771.84,-483.87 777.29,-474.78 770.44,-473.36"/>
</a>
</g>
</g>
<!-- Node24 -->
<g id="Node000024" class="node">
<title>Node24</title>
<g id="a_Node000024"><a xlink:href="Plane_8hpp.html" target="_top" xlink:title=" ">
<polygon fill="white" stroke="#666666" points="359.88,-327 234.88,-327 234.88,-286 359.88,-286 359.88,-327"/>
<text text-anchor="start" x="242.88" y="-315" font-family="Helvetica,sans-Serif" font-size="10.00">src/Objects/Plugins</text>
<text text-anchor="start" x="242.88" y="-304" font-family="Helvetica,sans-Serif" font-size="10.00">/CorePlugin/Primitives</text>
<text text-anchor="middle" x="297.38" y="-293" font-family="Helvetica,sans-Serif" font-size="10.00">/Plane/Plane.hpp</text>
</a>
</g>
</g>
<!-- Node1&#45;&gt;Node24 -->
<g id="edge47_Node000001_Node000024" class="edge">
<title>Node1&#45;&gt;Node24</title>
<g id="a_edge47_Node000001_Node000024"><a xlink:title=" ">
<path fill="none" stroke="#63b8ff" d="M738.96,-480.21C658.66,-448.8 445.35,-365.37 347.59,-327.14"/>
<polygon fill="#63b8ff" stroke="#63b8ff" points="737.93,-483.57 748.52,-483.95 740.48,-477.05 737.93,-483.57"/>
</a>
</g>
</g>
<!-- Node29 -->
<g id="Node000029" class="node">
<title>Node29</title>
<g id="a_Node000029"><a xlink:href="Ray_8cpp.html" target="_top" xlink:title=" ">
<polygon fill="white" stroke="#666666" points="1163.88,-448 1018.88,-448 1018.88,-429 1163.88,-429 1163.88,-448"/>
<text text-anchor="middle" x="1091.38" y="-436" font-family="Helvetica,sans-Serif" font-size="10.00">src/Geometry/Ray/Ray.cpp</text>
</a>
</g>
</g>
<!-- Node1&#45;&gt;Node29 -->
<g id="edge42_Node000001_Node000029" class="edge">
<title>Node1&#45;&gt;Node29</title>
<g id="a_edge42_Node000001_Node000029"><a xlink:title=" ">
<path fill="none" stroke="#63b8ff" d="M832.1,-482.31C892.38,-472.36 983.07,-457.38 1039.67,-448.04"/>
<polygon fill="#63b8ff" stroke="#63b8ff" points="831.25,-478.9 821.96,-483.98 832.39,-485.81 831.25,-478.9"/>
</a>
</g>
</g>
<!-- Node30 -->
<g id="Node000030" class="node">
<title>Node30</title>
<g id="a_Node000030"><a xlink:href="Camera_8hpp.html" target="_top" xlink:title=" ">
<polygon fill="white" stroke="#666666" points="135.88,-250 10.88,-250 10.88,-209 135.88,-209 135.88,-250"/>
<text text-anchor="start" x="18.88" y="-238" font-family="Helvetica,sans-Serif" font-size="10.00">src/Objects/Plugins</text>
<text text-anchor="start" x="18.88" y="-227" font-family="Helvetica,sans-Serif" font-size="10.00">/CorePlugin/Renderers</text>
<text text-anchor="middle" x="73.38" y="-216" font-family="Helvetica,sans-Serif" font-size="10.00">/Camera/Camera.hpp</text>
</a>
</g>
</g>
<!-- Node1&#45;&gt;Node30 -->
<g id="edge48_Node000001_Node000030" class="edge">
<title>Node1&#45;&gt;Node30</title>
<g id="a_edge48_Node000001_Node000030"><a xlink:title=" ">
<path fill="none" stroke="#63b8ff" d="M686.97,-487.26C507.01,-474.02 91.7,-432.48 7.38,-327 -4,-312.77 -0.31,-302.52 7.38,-286 14.21,-271.34 27.02,-259.17 39.55,-250"/>
<polygon fill="#63b8ff" stroke="#63b8ff" points="686.95,-490.77 697.18,-488 687.46,-483.78 686.95,-490.77"/>
</a>
</g>
</g>
<!-- Node2&#45;&gt;Node3 -->
<g id="edge2_Node000002_Node000003" class="edge">
<title>Node2&#45;&gt;Node3</title>
<g id="a_edge2_Node000002_Node000003"><a xlink:title=" ">
<path fill="none" stroke="#63b8ff" d="M840.06,-426.32C805.95,-416.86 756.89,-403.26 720.11,-393.06"/>
<polygon fill="#63b8ff" stroke="#63b8ff" points="839.13,-429.69 849.7,-428.99 841,-422.95 839.13,-429.69"/>
</a>
</g>
</g>
<!-- Node28 -->
<g id="Node000028" class="node">
<title>Node28</title>
<g id="a_Node000028"><a xlink:href="BVH_8hpp.html" target="_top" xlink:title=" ">
<polygon fill="white" stroke="#666666" points="1094.38,-321.5 970.38,-321.5 970.38,-291.5 1094.38,-291.5 1094.38,-321.5"/>
<text text-anchor="start" x="978.38" y="-309.5" font-family="Helvetica,sans-Serif" font-size="10.00">src/SceneSystem/BVH</text>
<text text-anchor="middle" x="1032.38" y="-298.5" font-family="Helvetica,sans-Serif" font-size="10.00">/BVH.hpp</text>
</a>
</g>
</g>
<!-- Node2&#45;&gt;Node28 -->
<g id="edge41_Node000002_Node000028" class="edge">
<title>Node2&#45;&gt;Node28</title>
<g id="a_edge41_Node000002_Node000028"><a xlink:title=" ">
<path fill="none" stroke="#63b8ff" d="M898.24,-422.23C927.97,-396.8 987.17,-346.17 1015.93,-321.57"/>
<polygon fill="#63b8ff" stroke="#63b8ff" points="895.68,-419.81 890.35,-428.97 900.23,-425.13 895.68,-419.81"/>
</a>
</g>
</g>
<!-- Node4 -->
<g id="Node000004" class="node">
<title>Node4</title>
<g id="a_Node000004"><a xlink:href="APrimitive_8cpp.html" target="_top" xlink:title=" ">
<polygon fill="white" stroke="#666666" points="665.88,-321.5 520.88,-321.5 520.88,-291.5 665.88,-291.5 665.88,-321.5"/>
<text text-anchor="start" x="528.88" y="-309.5" font-family="Helvetica,sans-Serif" font-size="10.00">src/Objects/Abstracts</text>
<text text-anchor="middle" x="593.38" y="-298.5" font-family="Helvetica,sans-Serif" font-size="10.00">/APrimitive/APrimitive.cpp</text>
</a>
</g>
</g>
<!-- Node3&#45;&gt;Node4 -->
<g id="edge3_Node000003_Node000004" class="edge">
<title>Node3&#45;&gt;Node4</title>
<g id="a_edge3_Node000003_Node000004"><a xlink:title=" ">
<path fill="none" stroke="#63b8ff" d="M646.41,-355.99C634.21,-344.84 619.55,-331.43 608.74,-321.54"/>
<polygon fill="#63b8ff" stroke="#63b8ff" points="644.26,-358.77 654,-362.94 648.98,-353.6 644.26,-358.77"/>
</a>
</g>
</g>
<!-- Node5 -->
<g id="Node000005" class="node">
<title>Node5</title>
<g id="a_Node000005"><a xlink:href="Plugin_8hpp.html" target="_top" xlink:title=" ">
<polygon fill="white" stroke="#666666" points="808.88,-316 683.88,-316 683.88,-297 808.88,-297 808.88,-316"/>
<text text-anchor="middle" x="746.38" y="-304" font-family="Helvetica,sans-Serif" font-size="10.00">src/Objects/Plugin.hpp</text>
</a>
</g>
</g>
<!-- Node3&#45;&gt;Node5 -->
<g id="edge4_Node000003_Node000005" class="edge">
<title>Node3&#45;&gt;Node5</title>
<g id="a_edge4_Node000003_Node000005"><a xlink:title=" ">
<path fill="none" stroke="#63b8ff" d="M692.71,-355.94C707.44,-342.65 725.69,-326.17 736.67,-316.27"/>
<polygon fill="#63b8ff" stroke="#63b8ff" points="690.04,-353.64 684.96,-362.94 694.73,-358.83 690.04,-353.64"/>
</a>
</g>
</g>
<!-- Node17 -->
<g id="Node000017" class="node">
<title>Node17</title>
<g id="a_Node000017"><a xlink:href="Camera_8cpp.html" target="_top" xlink:title=" ">
<polygon fill="white" stroke="#666666" points="226.88,-107 101.88,-107 101.88,-66 226.88,-66 226.88,-107"/>
<text text-anchor="start" x="109.88" y="-95" font-family="Helvetica,sans-Serif" font-size="10.00">src/Objects/Plugins</text>
<text text-anchor="start" x="109.88" y="-84" font-family="Helvetica,sans-Serif" font-size="10.00">/CorePlugin/Renderers</text>
<text text-anchor="middle" x="164.38" y="-73" font-family="Helvetica,sans-Serif" font-size="10.00">/Camera/Camera.cpp</text>
</a>
</g>
</g>
<!-- Node3&#45;&gt;Node17 -->
<g id="edge38_Node000003_Node000017" class="edge">
<title>Node3&#45;&gt;Node17</title>
<g id="a_edge38_Node000003_Node000017"><a xlink:title=" ">
<path fill="none" stroke="#63b8ff" d="M585.81,-371.74C465.47,-363.55 254.59,-346.63 225.38,-327 152.74,-278.17 157.13,-155.08 161.92,-107.09"/>
<polygon fill="#63b8ff" stroke="#63b8ff" points="585.88,-375.26 596.09,-372.44 586.35,-368.27 585.88,-375.26"/>
</a>
</g>
</g>
<!-- Node3&#45;&gt;Node20 -->
<g id="edge27_Node000003_Node000020" class="edge">
<title>Node3&#45;&gt;Node20</title>
<g id="a_edge27_Node000003_Node000020"><a xlink:title=" ">
<path fill="none" stroke="#63b8ff" d="M586.2,-370.77C490.76,-363.04 329.74,-348.24 192.38,-327 187.72,-326.28 182.95,-325.48 178.13,-324.64"/>
<polygon fill="#63b8ff" stroke="#63b8ff" points="586.12,-374.27 596.36,-371.58 586.68,-367.29 586.12,-374.27"/>
</a>
</g>
</g>
<!-- Node3&#45;&gt;Node21 -->
<g id="edge28_Node000003_Node000021" class="edge">
<title>Node3&#45;&gt;Node21</title>
<g id="a_edge28_Node000003_Node000021"><a xlink:title=" ">
<path fill="none" stroke="#63b8ff" d="M752.82,-370.03C840.47,-362.09 982.17,-347.51 1103.38,-327 1106.28,-326.51 1109.23,-325.98 1112.2,-325.43"/>
<polygon fill="#63b8ff" stroke="#63b8ff" points="752.31,-366.56 742.67,-370.94 752.94,-373.53 752.31,-366.56"/>
</a>
</g>
</g>
<!-- Node3&#45;&gt;Node22 -->
<g id="edge29_Node000003_Node000022" class="edge">
<title>Node3&#45;&gt;Node22</title>
<g id="a_edge29_Node000003_Node000022"><a xlink:title=" ">
<path fill="none" stroke="#63b8ff" d="M723.79,-359.81C755.2,-349.89 794.82,-337.37 827.42,-327.07"/>
<polygon fill="#63b8ff" stroke="#63b8ff" points="722.38,-356.59 713.9,-362.94 724.49,-363.26 722.38,-356.59"/>
</a>
</g>
</g>
<!-- Node3&#45;&gt;Node24 -->
<g id="edge32_Node000003_Node000024" class="edge">
<title>Node3&#45;&gt;Node24</title>
<g id="a_edge32_Node000003_Node000024"><a xlink:title=" ">
<path fill="none" stroke="#63b8ff" d="M586.38,-365.57C525.69,-356.64 441.53,-343.08 368.38,-327 365.64,-326.4 362.84,-325.75 360.01,-325.08"/>
<polygon fill="#63b8ff" stroke="#63b8ff" points="585.9,-369.04 596.3,-367.02 586.91,-362.11 585.9,-369.04"/>
</a>
</g>
</g>
<!-- Node26 -->
<g id="Node000026" class="node">
<title>Node26</title>
<g id="a_Node000026"><a xlink:href="Sphere_8hpp.html" target="_top" xlink:title=" ">
<polygon fill="white" stroke="#666666" points="502.88,-327 377.88,-327 377.88,-286 502.88,-286 502.88,-327"/>
<text text-anchor="start" x="385.88" y="-315" font-family="Helvetica,sans-Serif" font-size="10.00">src/Objects/Plugins</text>
<text text-anchor="start" x="385.88" y="-304" font-family="Helvetica,sans-Serif" font-size="10.00">/CorePlugin/Primitives</text>
<text text-anchor="middle" x="440.38" y="-293" font-family="Helvetica,sans-Serif" font-size="10.00">/Sphere/Sphere.hpp</text>
</a>
</g>
</g>
<!-- Node3&#45;&gt;Node26 -->
<g id="edge35_Node000003_Node000026" class="edge">
<title>Node3&#45;&gt;Node26</title>
<g id="a_edge35_Node000003_Node000026"><a xlink:title=" ">
<path fill="none" stroke="#63b8ff" d="M613.44,-360.02C580.08,-349.9 537.65,-337.02 503.15,-326.55"/>
<polygon fill="#63b8ff" stroke="#63b8ff" points="612.45,-363.38 623.04,-362.94 614.49,-356.68 612.45,-363.38"/>
</a>
</g>
</g>
<!-- Node3&#45;&gt;Node28 -->
<g id="edge39_Node000003_Node000028" class="edge">
<title>Node3&#45;&gt;Node28</title>
<g id="a_edge39_Node000003_Node000028"><a xlink:title=" ">
<path fill="none" stroke="#63b8ff" d="M752.32,-364.88C810.77,-355.82 890.71,-342.39 960.38,-327 967.72,-325.38 975.42,-323.49 982.96,-321.54"/>
<polygon fill="#63b8ff" stroke="#63b8ff" points="751.75,-361.43 742.4,-366.41 752.82,-368.35 751.75,-361.43"/>
</a>
</g>
</g>
<!-- Node6 -->
<g id="Node000006" class="node">
<title>Node6</title>
<g id="a_Node000006"><a xlink:href="CorePlugin_8cpp.html" target="_top" xlink:title=" ">
<polygon fill="white" stroke="#666666" points="715.38,-173 567.38,-173 567.38,-143 715.38,-143 715.38,-173"/>
<text text-anchor="start" x="575.38" y="-161" font-family="Helvetica,sans-Serif" font-size="10.00">src/Objects/Plugins</text>
<text text-anchor="middle" x="641.38" y="-150" font-family="Helvetica,sans-Serif" font-size="10.00">/CorePlugin/CorePlugin.cpp</text>
</a>
</g>
</g>
<!-- Node5&#45;&gt;Node6 -->
<g id="edge5_Node000005_Node000006" class="edge">
<title>Node5&#45;&gt;Node6</title>
<g id="a_edge5_Node000005_Node000006"><a xlink:title=" ">
<path fill="none" stroke="#63b8ff" d="M749.09,-286.77C751.08,-265.93 751.15,-232.17 735.38,-209 724.04,-192.35 705.32,-180.81 687.55,-173.05"/>
<polygon fill="#63b8ff" stroke="#63b8ff" points="745.6,-286.51 747.88,-296.86 752.55,-287.35 745.6,-286.51"/>
</a>
</g>
</g>
<!-- Node7 -->
<g id="Node000007" class="node">
<title>Node7</title>
<g id="a_Node000007"><a xlink:href="SceneWriter_8hpp.html" target="_top" xlink:title=" ">
<polygon fill="white" stroke="#666666" points="981.88,-250 820.88,-250 820.88,-209 981.88,-209 981.88,-250"/>
<text text-anchor="start" x="828.88" y="-238" font-family="Helvetica,sans-Serif" font-size="10.00">src/Objects/Plugins</text>
<text text-anchor="start" x="828.88" y="-227" font-family="Helvetica,sans-Serif" font-size="10.00">/CorePlugin/Interfaces</text>
<text text-anchor="middle" x="901.38" y="-216" font-family="Helvetica,sans-Serif" font-size="10.00">/SceneWriter/SceneWriter.hpp</text>
</a>
</g>
</g>
<!-- Node5&#45;&gt;Node7 -->
<g id="edge6_Node000005_Node000007" class="edge">
<title>Node5&#45;&gt;Node7</title>
<g id="a_edge6_Node000005_Node000007"><a xlink:title=" ">
<path fill="none" stroke="#63b8ff" d="M773.45,-292.4C797.63,-280.7 833.4,-263.4 860.97,-250.05"/>
<polygon fill="#63b8ff" stroke="#63b8ff" points="771.64,-289.39 764.16,-296.9 774.69,-295.69 771.64,-289.39"/>
</a>
</g>
</g>
<!-- Node10 -->
<g id="Node000010" class="node">
<title>Node10</title>
<g id="a_Node000010"><a xlink:href="Parser_8hpp.html" target="_top" xlink:title=" ">
<polygon fill="white" stroke="#666666" points="1488.38,-244.5 1324.38,-244.5 1324.38,-214.5 1488.38,-214.5 1488.38,-244.5"/>
<text text-anchor="start" x="1332.38" y="-232.5" font-family="Helvetica,sans-Serif" font-size="10.00">src/SceneSystem/ConfigParser</text>
<text text-anchor="middle" x="1406.38" y="-221.5" font-family="Helvetica,sans-Serif" font-size="10.00">/Parser.hpp</text>
</a>
</g>
</g>
<!-- Node5&#45;&gt;Node10 -->
<g id="edge10_Node000005_Node000010" class="edge">
<title>Node5&#45;&gt;Node10</title>
<g id="a_edge10_Node000005_Node000010"><a xlink:title=" ">
<path fill="none" stroke="#63b8ff" d="M782.82,-294.15C793.83,-291.09 806.02,-288.05 817.38,-286 993.47,-254.18 1040.27,-267.23 1218.38,-250 1253,-246.65 1291.19,-242.73 1324.04,-239.29"/>
<polygon fill="#63b8ff" stroke="#63b8ff" points="781.74,-290.82 773.09,-296.95 783.67,-297.55 781.74,-290.82"/>
</a>
</g>
</g>
<!-- Node14 -->
<g id="Node000014" class="node">
<title>Node14</title>
<g id="a_Node000014"><a xlink:href="PluginManager_8hpp.html" target="_top" xlink:title="Plugin manager for loading and managing plugins.">
<polygon fill="white" stroke="#666666" points="1176.38,-244.5 1000.38,-244.5 1000.38,-214.5 1176.38,-214.5 1176.38,-244.5"/>
<text text-anchor="start" x="1008.38" y="-232.5" font-family="Helvetica,sans-Serif" font-size="10.00">src/SceneSystem/PluginManager</text>
<text text-anchor="middle" x="1088.38" y="-221.5" font-family="Helvetica,sans-Serif" font-size="10.00">/PluginManager.hpp</text>
</a>
</g>
</g>
<!-- Node5&#45;&gt;Node14 -->
<g id="edge15_Node000005_Node000014" class="edge">
<title>Node5&#45;&gt;Node14</title>
<g id="a_edge15_Node000005_Node000014"><a xlink:title=" ">
<path fill="none" stroke="#63b8ff" d="M785.28,-294.32C795.67,-291.47 806.92,-288.5 817.38,-286 836.76,-281.36 944.96,-259.4 1018.64,-244.53"/>
<polygon fill="#63b8ff" stroke="#63b8ff" points="784.33,-290.95 775.63,-297 786.2,-297.69 784.33,-290.95"/>
</a>
</g>
</g>
<!-- Node5&#45;&gt;Node16 -->
<g id="edge24_Node000005_Node000016" class="edge">
<title>Node5&#45;&gt;Node16</title>
<g id="a_edge24_Node000005_Node000016"><a xlink:title=" ">
<path fill="none" stroke="#63b8ff" d="M782.83,-294.21C793.84,-291.15 806.03,-288.1 817.38,-286 898.18,-271.07 1124.8,-305.51 1185.38,-250 1206.71,-230.45 1206.45,-193.41 1204.42,-173.13"/>
<polygon fill="#63b8ff" stroke="#63b8ff" points="781.75,-290.88 773.1,-297 783.68,-297.61 781.75,-290.88"/>
</a>
</g>
</g>
<!-- Node19 -->
<g id="Node000019" class="node">
<title>Node19</title>
<g id="a_Node000019"><a xlink:href="SceneNodeHelpers_8hpp.html" target="_top" xlink:title=" ">
<polygon fill="white" stroke="#666666" points="726.38,-244.5 556.38,-244.5 556.38,-214.5 726.38,-214.5 726.38,-244.5"/>
<text text-anchor="start" x="564.38" y="-232.5" font-family="Helvetica,sans-Serif" font-size="10.00">src/SceneSystem/SceneNode</text>
<text text-anchor="middle" x="641.38" y="-221.5" font-family="Helvetica,sans-Serif" font-size="10.00">Helpers/SceneNodeHelpers.hpp</text>
</a>
</g>
</g>
<!-- Node5&#45;&gt;Node19 -->
<g id="edge25_Node000005_Node000019" class="edge">
<title>Node5&#45;&gt;Node19</title>
<g id="a_edge25_Node000005_Node000019"><a xlink:title=" ">
<path fill="none" stroke="#63b8ff" d="M726.18,-291.07C707.45,-277.69 679.73,-257.89 661.14,-244.61"/>
<polygon fill="#63b8ff" stroke="#63b8ff" points="724.17,-293.93 734.34,-296.9 728.23,-288.24 724.17,-293.93"/>
</a>
</g>
</g>
<!-- Node7&#45;&gt;Node6 -->
<g id="edge7_Node000007_Node000006" class="edge">
<title>Node7&#45;&gt;Node6</title>
<g id="a_edge7_Node000007_Node000006"><a xlink:title=" ">
<path fill="none" stroke="#63b8ff" d="M818.57,-206.37C777.66,-195.43 729.54,-182.56 693.77,-173"/>
<polygon fill="#63b8ff" stroke="#63b8ff" points="817.7,-209.75 828.27,-208.96 819.51,-202.99 817.7,-209.75"/>
</a>
</g>
</g>
<!-- Node8 -->
<g id="Node000008" class="node">
<title>Node8</title>
<g id="a_Node000008"><a xlink:href="SceneWriter_8cpp.html" target="_top" xlink:title=" ">
<polygon fill="white" stroke="#666666" points="1040.88,-107 879.88,-107 879.88,-66 1040.88,-66 1040.88,-107"/>
<text text-anchor="start" x="887.88" y="-95" font-family="Helvetica,sans-Serif" font-size="10.00">src/Objects/Plugins</text>
<text text-anchor="start" x="887.88" y="-84" font-family="Helvetica,sans-Serif" font-size="10.00">/CorePlugin/Interfaces</text>
<text text-anchor="middle" x="960.38" y="-73" font-family="Helvetica,sans-Serif" font-size="10.00">/SceneWriter/SceneWriter.cpp</text>
</a>
</g>
</g>
<!-- Node7&#45;&gt;Node8 -->
<g id="edge8_Node000007_Node000008" class="edge">
<title>Node7&#45;&gt;Node8</title>
<g id="a_edge8_Node000007_Node000008"><a xlink:title=" ">
<path fill="none" stroke="#63b8ff" d="M911.56,-199.22C917.54,-182.58 925.46,-161.45 933.38,-143 938.58,-130.89 945.02,-117.6 950.3,-107.07"/>
<polygon fill="#63b8ff" stroke="#63b8ff" points="908.16,-198.34 908.11,-208.94 914.76,-200.69 908.16,-198.34"/>
</a>
</g>
</g>
<!-- Node9 -->
<g id="Node000009" class="node">
<title>Node9</title>
<g id="a_Node000009"><a xlink:href="main_8cpp.html" target="_top" xlink:title=" ">
<polygon fill="white" stroke="#666666" points="1243.88,-24.5 1164.88,-24.5 1164.88,-5.5 1243.88,-5.5 1243.88,-24.5"/>
<text text-anchor="middle" x="1204.38" y="-12.5" font-family="Helvetica,sans-Serif" font-size="10.00">src/main.cpp</text>
</a>
</g>
</g>
<!-- Node7&#45;&gt;Node9 -->
<g id="edge9_Node000007_Node000009" class="edge">
<title>Node7&#45;&gt;Node9</title>
<g id="a_edge9_Node000007_Node000009"><a xlink:title=" ">
<path fill="none" stroke="#63b8ff" d="M883.35,-199.94C863.39,-164.32 838.03,-103.55 870.38,-66 907.98,-22.35 1084.64,-16.25 1164.73,-15.77"/>
<polygon fill="#63b8ff" stroke="#63b8ff" points="880.47,-201.96 888.52,-208.85 886.53,-198.45 880.47,-201.96"/>
</a>
</g>
</g>
<!-- Node11 -->
<g id="Node000011" class="node">
<title>Node11</title>
<g id="a_Node000011"><a xlink:href="Parser_8cpp.html" target="_top" xlink:title=" ">
<polygon fill="white" stroke="#666666" points="1488.38,-173 1324.38,-173 1324.38,-143 1488.38,-143 1488.38,-173"/>
<text text-anchor="start" x="1332.38" y="-161" font-family="Helvetica,sans-Serif" font-size="10.00">src/SceneSystem/ConfigParser</text>
<text text-anchor="middle" x="1406.38" y="-150" font-family="Helvetica,sans-Serif" font-size="10.00">/Parser.cpp</text>
</a>
</g>
</g>
<!-- Node10&#45;&gt;Node11 -->
<g id="edge11_Node000010_Node000011" class="edge">
<title>Node10&#45;&gt;Node11</title>
<g id="a_edge11_Node000010_Node000011"><a xlink:title=" ">
<path fill="none" stroke="#63b8ff" d="M1406.38,-204.25C1406.38,-193.81 1406.38,-181.99 1406.38,-173.04"/>
<polygon fill="#63b8ff" stroke="#63b8ff" points="1402.88,-204.44 1406.38,-214.44 1409.88,-204.44 1402.88,-204.44"/>
</a>
</g>
</g>
<!-- Node12 -->
<g id="Node000012" class="node">
<title>Node12</title>
<g id="a_Node000012"><a xlink:href="SceneLoader_8hpp.html" target="_top" xlink:title=" ">
<polygon fill="white" stroke="#666666" points="1412.88,-101.5 1247.88,-101.5 1247.88,-71.5 1412.88,-71.5 1412.88,-101.5"/>
<text text-anchor="start" x="1255.88" y="-89.5" font-family="Helvetica,sans-Serif" font-size="10.00">src/SceneSystem/SceneLoader</text>
<text text-anchor="middle" x="1330.38" y="-78.5" font-family="Helvetica,sans-Serif" font-size="10.00">/SceneLoader.hpp</text>
</a>
</g>
</g>
<!-- Node10&#45;&gt;Node12 -->
<g id="edge12_Node000010_Node000012" class="edge">
<title>Node10&#45;&gt;Node12</title>
<g id="a_edge12_Node000010_Node000012"><a xlink:title=" ">
<path fill="none" stroke="#63b8ff" d="M1450.52,-209.99C1482.23,-193.95 1516.31,-169.24 1497.38,-143 1477.9,-115.99 1444.73,-101.92 1413.06,-94.67"/>
<polygon fill="#63b8ff" stroke="#63b8ff" points="1448.73,-206.97 1441.25,-214.48 1451.78,-213.27 1448.73,-206.97"/>
</a>
</g>
</g>
<!-- Node12&#45;&gt;Node9 -->
<g id="edge14_Node000012_Node000009" class="edge">
<title>Node12&#45;&gt;Node9</title>
<g id="a_edge14_Node000012_Node000009"><a xlink:title=" ">
<path fill="none" stroke="#63b8ff" d="M1296.11,-66.6C1271.25,-52.89 1238.81,-34.99 1219.91,-24.57"/>
<polygon fill="#63b8ff" stroke="#63b8ff" points="1294.44,-69.67 1304.88,-71.44 1297.82,-63.54 1294.44,-69.67"/>
</a>
</g>
</g>
<!-- Node13 -->
<g id="Node000013" class="node">
<title>Node13</title>
<g id="a_Node000013"><a xlink:href="SceneLoader_8cpp.html" target="_top" xlink:title=" ">
<polygon fill="white" stroke="#666666" points="1426.88,-30 1261.88,-30 1261.88,0 1426.88,0 1426.88,-30"/>
<text text-anchor="start" x="1269.88" y="-18" font-family="Helvetica,sans-Serif" font-size="10.00">src/SceneSystem/SceneLoader</text>
<text text-anchor="middle" x="1344.38" y="-7" font-family="Helvetica,sans-Serif" font-size="10.00">/SceneLoader.cpp</text>
</a>
</g>
</g>
<!-- Node12&#45;&gt;Node13 -->
<g id="edge13_Node000012_Node000013" class="edge">
<title>Node12&#45;&gt;Node13</title>
<g id="a_edge13_Node000012_Node000013"><a xlink:title=" ">
<path fill="none" stroke="#63b8ff" d="M1335.2,-61.58C1337.32,-51.06 1339.73,-39.08 1341.55,-30.04"/>
<polygon fill="#63b8ff" stroke="#63b8ff" points="1331.76,-60.94 1333.21,-71.44 1338.62,-62.32 1331.76,-60.94"/>
</a>
</g>
</g>
<!-- Node14&#45;&gt;Node12 -->
<g id="edge23_Node000014_Node000012" class="edge">
<title>Node14&#45;&gt;Node12</title>
<g id="a_edge23_Node000014_Node000012"><a xlink:title=" ">
<path fill="none" stroke="#63b8ff" d="M1186.87,-213.89C1218.08,-205.69 1251.23,-192.91 1277.38,-173 1301.98,-154.27 1317.9,-120.57 1325.38,-101.55"/>
<polygon fill="#63b8ff" stroke="#63b8ff" points="1185.68,-210.58 1176.82,-216.4 1187.37,-217.38 1185.68,-210.58"/>
</a>
</g>
</g>
<!-- Node15 -->
<g id="Node000015" class="node">
<title>Node15</title>
<g id="a_Node000015"><a xlink:href="PluginManager_8cpp.html" target="_top" xlink:title=" ">
<polygon fill="white" stroke="#666666" points="1118.38,-173 942.38,-173 942.38,-143 1118.38,-143 1118.38,-173"/>
<text text-anchor="start" x="950.38" y="-161" font-family="Helvetica,sans-Serif" font-size="10.00">src/SceneSystem/PluginManager</text>
<text text-anchor="middle" x="1030.38" y="-150" font-family="Helvetica,sans-Serif" font-size="10.00">/PluginManager.cpp</text>
</a>
</g>
</g>
<!-- Node14&#45;&gt;Node15 -->
<g id="edge16_Node000014_Node000015" class="edge">
<title>Node14&#45;&gt;Node15</title>
<g id="a_edge16_Node000014_Node000015"><a xlink:title=" ">
<path fill="none" stroke="#63b8ff" d="M1070.05,-206.53C1060.9,-195.57 1050.12,-182.65 1042.1,-173.04"/>
<polygon fill="#63b8ff" stroke="#63b8ff" points="1067.55,-209 1076.64,-214.44 1072.92,-204.52 1067.55,-209"/>
</a>
</g>
</g>
<!-- Node14&#45;&gt;Node16 -->
<g id="edge17_Node000014_Node000016" class="edge">
<title>Node14&#45;&gt;Node16</title>
<g id="a_edge17_Node000014_Node000016"><a xlink:title=" ">
<path fill="none" stroke="#63b8ff" d="M1120,-209.22C1138.82,-197.75 1162.28,-183.45 1179.35,-173.04"/>
<polygon fill="#63b8ff" stroke="#63b8ff" points="1118.17,-206.24 1111.45,-214.44 1121.81,-212.22 1118.17,-206.24"/>
</a>
</g>
</g>
<!-- Node16&#45;&gt;Node8 -->
<g id="edge18_Node000016_Node000008" class="edge">
<title>Node16&#45;&gt;Node8</title>
<g id="a_edge18_Node000016_Node000008"><a xlink:title=" ">
<path fill="none" stroke="#63b8ff" d="M1143.43,-140.07C1108.73,-130.11 1064.71,-117.46 1028.54,-107.07"/>
<polygon fill="#63b8ff" stroke="#63b8ff" points="1142.83,-143.54 1153.41,-142.94 1144.76,-136.81 1142.83,-143.54"/>
</a>
</g>
</g>
<!-- Node16&#45;&gt;Node9 -->
<g id="edge22_Node000016_Node000009" class="edge">
<title>Node16&#45;&gt;Node9</title>
<g id="a_edge22_Node000016_Node000009"><a xlink:title=" ">
<path fill="none" stroke="#63b8ff" d="M1202.73,-132.66C1203.18,-100.6 1203.96,-45.79 1204.26,-24.66"/>
<polygon fill="#63b8ff" stroke="#63b8ff" points="1199.22,-132.92 1202.58,-142.96 1206.22,-133.02 1199.22,-132.92"/>
</a>
</g>
</g>
<!-- Node16&#45;&gt;Node12 -->
<g id="edge21_Node000016_Node000012" class="edge">
<title>Node16&#45;&gt;Node12</title>
<g id="a_edge21_Node000016_Node000012"><a xlink:title=" ">
<path fill="none" stroke="#63b8ff" d="M1237.31,-138.03C1258.54,-126.51 1285.18,-112.04 1304.52,-101.54"/>
<polygon fill="#63b8ff" stroke="#63b8ff" points="1235.4,-135.09 1228.28,-142.94 1238.74,-141.24 1235.4,-135.09"/>
</a>
</g>
</g>
<!-- Node16&#45;&gt;Node17 -->
<g id="edge19_Node000016_Node000017" class="edge">
<title>Node16&#45;&gt;Node17</title>
<g id="a_edge19_Node000016_Node000017"><a xlink:title=" ">
<path fill="none" stroke="#63b8ff" d="M1126.02,-142.94C781.55,-101.69 379.61,-91.05 227.16,-88.36"/>
<polygon fill="#63b8ff" stroke="#63b8ff" points="1125.85,-146.45 1136.2,-144.17 1126.69,-139.5 1125.85,-146.45"/>
</a>
</g>
</g>
<!-- Node18 -->
<g id="Node000018" class="node">
<title>Node18</title>
<g id="a_Node000018"><a xlink:href="Scene_8cpp.html" target="_top" xlink:title=" ">
<polygon fill="white" stroke="#666666" points="1191.38,-101.5 1059.38,-101.5 1059.38,-71.5 1191.38,-71.5 1191.38,-101.5"/>
<text text-anchor="start" x="1067.38" y="-89.5" font-family="Helvetica,sans-Serif" font-size="10.00">src/SceneSystem/Scene</text>
<text text-anchor="middle" x="1125.38" y="-78.5" font-family="Helvetica,sans-Serif" font-size="10.00">/Scene.cpp</text>
</a>
</g>
</g>
<!-- Node16&#45;&gt;Node18 -->
<g id="edge20_Node000016_Node000018" class="edge">
<title>Node16&#45;&gt;Node18</title>
<g id="a_edge20_Node000016_Node000018"><a xlink:title=" ">
<path fill="none" stroke="#63b8ff" d="M1179.1,-135.99C1166.75,-124.84 1151.89,-111.43 1140.94,-101.54"/>
<polygon fill="#63b8ff" stroke="#63b8ff" points="1177.03,-138.83 1186.8,-142.94 1181.72,-133.64 1177.03,-138.83"/>
</a>
</g>
</g>
<!-- Node19&#45;&gt;Node6 -->
<g id="edge26_Node000019_Node000006" class="edge">
<title>Node19&#45;&gt;Node6</title>
<g id="a_edge26_Node000019_Node000006"><a xlink:title=" ">
<path fill="none" stroke="#63b8ff" d="M641.38,-204.25C641.38,-193.81 641.38,-181.99 641.38,-173.04"/>
<polygon fill="#63b8ff" stroke="#63b8ff" points="637.88,-204.44 641.38,-214.44 644.88,-204.44 637.88,-204.44"/>
</a>
</g>
</g>
<!-- Node22&#45;&gt;Node6 -->
<g id="edge30_Node000022_Node000006" class="edge">
<title>Node22&#45;&gt;Node6</title>
<g id="a_edge30_Node000022_Node000006"><a xlink:title=" ">
<path fill="none" stroke="#63b8ff" d="M853.11,-279.94C839.92,-270.58 824.94,-259.87 811.38,-250 786.74,-232.05 782.76,-224.29 756.38,-209 731.9,-194.81 702.62,-182.13 679.74,-173.1"/>
<polygon fill="#63b8ff" stroke="#63b8ff" points="851.29,-282.95 861.48,-285.87 855.34,-277.23 851.29,-282.95"/>
</a>
</g>
</g>
<!-- Node23 -->
<g id="Node000023" class="node">
<title>Node23</title>
<g id="a_Node000023"><a xlink:href="Cylinder_8cpp.html" target="_top" xlink:title=" ">
<polygon fill="white" stroke="#666666" points="1631.88,-250 1506.88,-250 1506.88,-209 1631.88,-209 1631.88,-250"/>
<text text-anchor="start" x="1514.88" y="-238" font-family="Helvetica,sans-Serif" font-size="10.00">src/Objects/Plugins</text>
<text text-anchor="start" x="1514.88" y="-227" font-family="Helvetica,sans-Serif" font-size="10.00">/CorePlugin/Primitives</text>
<text text-anchor="middle" x="1569.38" y="-216" font-family="Helvetica,sans-Serif" font-size="10.00">/Cylinder/Cylinder.cpp</text>
</a>
</g>
</g>
<!-- Node22&#45;&gt;Node23 -->
<g id="edge31_Node000022_Node000023" class="edge">
<title>Node22&#45;&gt;Node23</title>
<g id="a_edge31_Node000022_Node000023"><a xlink:title=" ">
<path fill="none" stroke="#63b8ff" d="M961.99,-286.1C1198.68,-247.76 1265.12,-288.86 1497.38,-250 1500.45,-249.49 1503.57,-248.9 1506.71,-248.25"/>
<polygon fill="#63b8ff" stroke="#63b8ff" points="961.35,-282.66 952.05,-287.75 962.49,-289.57 961.35,-282.66"/>
</a>
</g>
</g>
<!-- Node24&#45;&gt;Node6 -->
<g id="edge33_Node000024_Node000006" class="edge">
<title>Node24&#45;&gt;Node6</title>
<g id="a_edge33_Node000024_Node000006"><a xlink:title=" ">
<path fill="none" stroke="#63b8ff" d="M314.01,-277.13C329.39,-251.88 351.84,-217.64 365.38,-209 398.12,-188.11 497.2,-173.84 567.25,-166.05"/>
<polygon fill="#63b8ff" stroke="#63b8ff" points="310.86,-275.59 308.7,-285.96 316.85,-279.2 310.86,-275.59"/>
</a>
</g>
</g>
<!-- Node25 -->
<g id="Node000025" class="node">
<title>Node25</title>
<g id="a_Node000025"><a xlink:href="Plane_8cpp.html" target="_top" xlink:title=" ">
<polygon fill="white" stroke="#666666" points="317.88,-250 192.88,-250 192.88,-209 317.88,-209 317.88,-250"/>
<text text-anchor="start" x="200.88" y="-238" font-family="Helvetica,sans-Serif" font-size="10.00">src/Objects/Plugins</text>
<text text-anchor="start" x="200.88" y="-227" font-family="Helvetica,sans-Serif" font-size="10.00">/CorePlugin/Primitives</text>
<text text-anchor="middle" x="255.38" y="-216" font-family="Helvetica,sans-Serif" font-size="10.00">/Plane/Plane.cpp</text>
</a>
</g>
</g>
<!-- Node24&#45;&gt;Node25 -->
<g id="edge34_Node000024_Node000025" class="edge">
<title>Node24&#45;&gt;Node25</title>
<g id="a_edge34_Node000024_Node000025"><a xlink:title=" ">
<path fill="none" stroke="#63b8ff" d="M281.33,-276.83C276.32,-267.89 270.92,-258.24 266.34,-250.07"/>
<polygon fill="#63b8ff" stroke="#63b8ff" points="278.41,-278.78 286.35,-285.79 284.51,-275.36 278.41,-278.78"/>
</a>
</g>
</g>
<!-- Node26&#45;&gt;Node6 -->
<g id="edge36_Node000026_Node000006" class="edge">
<title>Node26&#45;&gt;Node6</title>
<g id="a_edge36_Node000026_Node000006"><a xlink:title=" ">
<path fill="none" stroke="#63b8ff" d="M473.82,-279.6C485.06,-270.53 497.5,-260.09 508.38,-250 526.83,-232.9 527.36,-224.21 547.38,-209 566.37,-194.58 590.09,-181.99 608.95,-173.06"/>
<polygon fill="#63b8ff" stroke="#63b8ff" points="471.52,-276.96 465.89,-285.93 475.88,-282.43 471.52,-276.96"/>
</a>
</g>
</g>
<!-- Node27 -->
<g id="Node000027" class="node">
<title>Node27</title>
<g id="a_Node000027"><a xlink:href="Sphere_8cpp.html" target="_top" xlink:title=" ">
<polygon fill="white" stroke="#666666" points="499.88,-250 374.88,-250 374.88,-209 499.88,-209 499.88,-250"/>
<text text-anchor="start" x="382.88" y="-238" font-family="Helvetica,sans-Serif" font-size="10.00">src/Objects/Plugins</text>
<text text-anchor="start" x="382.88" y="-227" font-family="Helvetica,sans-Serif" font-size="10.00">/CorePlugin/Primitives</text>
<text text-anchor="middle" x="437.38" y="-216" font-family="Helvetica,sans-Serif" font-size="10.00">/Sphere/Sphere.cpp</text>
</a>
</g>
</g>
<!-- Node26&#45;&gt;Node27 -->
<g id="edge37_Node000026_Node000027" class="edge">
<title>Node26&#45;&gt;Node27</title>
<g id="a_edge37_Node000026_Node000027"><a xlink:title=" ">
<path fill="none" stroke="#63b8ff" d="M439.19,-275.69C438.84,-267.08 438.48,-257.9 438.16,-250.07"/>
<polygon fill="#63b8ff" stroke="#63b8ff" points="435.7,-275.94 439.59,-285.79 442.69,-275.66 435.7,-275.94"/>
</a>
</g>
</g>
<!-- Node28&#45;&gt;Node16 -->
<g id="edge40_Node000028_Node000016" class="edge">
<title>Node28&#45;&gt;Node16</title>
<g id="a_edge40_Node000028_Node000016"><a xlink:title=" ">
<path fill="none" stroke="#63b8ff" d="M1091.77,-288.68C1145.45,-273.35 1216.39,-252.68 1218.38,-250 1235.35,-227.23 1221.2,-192.45 1210.86,-173.15"/>
<polygon fill="#63b8ff" stroke="#63b8ff" points="1090.63,-285.37 1081.97,-291.48 1092.55,-292.1 1090.63,-285.37"/>
</a>
</g>
</g>
<!-- Node30&#45;&gt;Node6 -->
<g id="edge49_Node000030_Node000006" class="edge">
<title>Node30&#45;&gt;Node6</title>
<g id="a_edge49_Node000030_Node000006"><a xlink:title=" ">
<path fill="none" stroke="#63b8ff" d="M145.98,-214.92C158.43,-212.8 171.26,-210.73 183.38,-209 318.19,-189.72 476.25,-173.97 567.02,-165.58"/>
<polygon fill="#63b8ff" stroke="#63b8ff" points="145.35,-211.48 136.09,-216.64 146.54,-218.38 145.35,-211.48"/>
</a>
</g>
</g>
<!-- Node30&#45;&gt;Node17 -->
<g id="edge50_Node000030_Node000017" class="edge">
<title>Node30&#45;&gt;Node17</title>
<g id="a_edge50_Node000030_Node000017"><a xlink:title=" ">
<path fill="none" stroke="#63b8ff" d="M91.46,-200.49C109.22,-172.97 135.86,-131.7 151.54,-107.39"/>
<polygon fill="#63b8ff" stroke="#63b8ff" points="88.52,-198.59 86.03,-208.89 94.4,-202.39 88.52,-198.59"/>
</a>
</g>
</g>
</g>
</svg>

<g id="navigator" transform="translate(0 0)" fill="#404254">
  <rect fill="#f2f5e9" fill-opacity="0.5" stroke="#606060" stroke-width=".5" x="0" y="0" width="60" height="60"/>
  <use id="zoomplus" xlink:href="#zoomPlus" x="17" y="9" onmousedown="handleZoom(evt,'in')"/>
  <use id="zoomminus" xlink:href="#zoomMin" x="42" y="9" onmousedown="handleZoom(evt,'out')"/>
  <use id="reset" xlink:href="#resetDef" x="30" y="36" onmousedown="handleReset()"/>
   <use id="arrowup" xlink:href="#arrowUp" x="0" y="0" onmousedown="handlePan(0,-1)"/>
  <use id="arrowright" xlink:href="#arrowRight" x="0" y="0" onmousedown="handlePan(1,0)"/>
  <use id="arrowdown" xlink:href="#arrowDown" x="0" y="0" onmousedown="handlePan(0,1)"/>
  <use id="arrowleft" xlink:href="#arrowLeft" x="0" y="0" onmousedown="handlePan(-1,0)"/>
</g>
<svg viewBox="0 0 15 15" width="100%" height="30px" preserveAspectRatio="xMaxYMin meet">
 <g id="arrow_out" transform="scale(0.3 0.3)">
  <a xlink:href="Ray_8hpp__dep__incl_org.svg" target="_base">
   <rect id="button" ry="5" rx="5" y="6" x="6" height="38" width="38"
        fill="#f2f5e9" fill-opacity="0.5" stroke="#606060" stroke-width="1.0"/>
   <path id="arrow"
     d="M 11.500037,31.436501 C 11.940474,20.09759 22.043105,11.32322 32.158766,21.979434 L 37.068811,17.246167 C 37.068811,17.246167 37.088388,32 37.088388,32 L 22.160133,31.978069 C 22.160133,31.978069 26.997745,27.140456 26.997745,27.140456 C 18.528582,18.264221 13.291696,25.230495 11.500037,31.436501 z"
     style="fill:#404040;"/>
  </a>
 </g>
</svg>

<style type='text/css'>
<![CDATA[
[data-mouse-over-selected='false'] { opacity: 0.7; }
[data-mouse-over-selected='true']  { opacity: 1.0; }
]]>
</style>
<script type="application/ecmascript"><![CDATA[
document.addEventListener('DOMContentLoaded', (event) => {
  highlightEdges();
  highlightAdjacentNodes();
});
]]></script>
</svg>
