<?xml version="1.0" encoding="UTF-8" standalone="no"?>
<!DOCTYPE svg PUBLIC "-//W3C//DTD SVG 1.1//EN"
 "http://www.w3.org/Graphics/SVG/1.1/DTD/svg11.dtd">
<!-- Generated by graphviz version 2.43.0 (0)
 -->
<!-- Title: src/Exceptions/RaytracerException/RaytracerException.hpp Pages: 1 -->
<svg width="1707pt" height="456pt"
 viewBox="0.00 0.00 1706.50 456.00" xmlns="http://www.w3.org/2000/svg" xmlns:xlink="http://www.w3.org/1999/xlink">
<g id="graph0" class="graph" transform="scale(1 1) rotate(0) translate(4 452)">
<title>src/Exceptions/RaytracerException/RaytracerException.hpp</title>
<!-- Node1 -->
<g id="Node000001" class="node">
<title>Node1</title>
<g id="a_Node000001"><a xlink:title=" ">
<polygon fill="#999999" stroke="#666666" points="1109,-448 925,-448 925,-418 1109,-418 1109,-448"/>
<text text-anchor="start" x="933" y="-436" font-family="Helvetica,sans-Serif" font-size="10.00">src/Exceptions/Raytracer</text>
<text text-anchor="middle" x="1017" y="-425" font-family="Helvetica,sans-Serif" font-size="10.00">Exception/RaytracerException.hpp</text>
</a>
</g>
</g>
<!-- Node2 -->
<g id="Node000002" class="node">
<title>Node2</title>
<g id="a_Node000002"><a xlink:href="DivisionByZeroException_8hpp.html" target="_top" xlink:title=" ">
<polygon fill="white" stroke="#666666" points="234,-382 0,-382 0,-352 234,-352 234,-382"/>
<text text-anchor="start" x="8" y="-370" font-family="Helvetica,sans-Serif" font-size="10.00">src/Exceptions/DivisionBy</text>
<text text-anchor="middle" x="117" y="-359" font-family="Helvetica,sans-Serif" font-size="10.00">ZeroException/DivisionByZeroException.hpp</text>
</a>
</g>
</g>
<!-- Node1&#45;&gt;Node2 -->
<g id="edge1_Node000001_Node000002" class="edge">
<title>Node1&#45;&gt;Node2</title>
<g id="a_edge1_Node000001_Node000002"><a xlink:title=" ">
<path fill="none" stroke="#63b8ff" d="M914.48,-426.69C766.98,-418.75 486.38,-402.48 248,-382 243.44,-381.61 238.8,-381.19 234.11,-380.76"/>
<polygon fill="#63b8ff" stroke="#63b8ff" points="914.7,-430.21 924.87,-427.25 915.07,-423.22 914.7,-430.21"/>
</a>
</g>
</g>
<!-- Node3 -->
<g id="Node000003" class="node">
<title>Node3</title>
<g id="a_Node000003"><a xlink:href="ParsingException_8hpp.html" target="_top" xlink:title=" ">
<polygon fill="white" stroke="#666666" points="1103.5,-382 930.5,-382 930.5,-352 1103.5,-352 1103.5,-382"/>
<text text-anchor="start" x="938.5" y="-370" font-family="Helvetica,sans-Serif" font-size="10.00">src/Exceptions/ParsingException</text>
<text text-anchor="middle" x="1017" y="-359" font-family="Helvetica,sans-Serif" font-size="10.00">/ParsingException.hpp</text>
</a>
</g>
</g>
<!-- Node1&#45;&gt;Node3 -->
<g id="edge2_Node000001_Node000003" class="edge">
<title>Node1&#45;&gt;Node3</title>
<g id="a_edge2_Node000001_Node000003"><a xlink:title=" ">
<path fill="none" stroke="#63b8ff" d="M1017,-407.54C1017,-398.96 1017,-389.61 1017,-382.16"/>
<polygon fill="#63b8ff" stroke="#63b8ff" points="1013.5,-407.8 1017,-417.8 1020.5,-407.8 1013.5,-407.8"/>
</a>
</g>
</g>
<!-- Node13 -->
<g id="Node000013" class="node">
<title>Node13</title>
<g id="a_Node000013"><a xlink:href="SceneLoader_8hpp.html" target="_top" xlink:title="Loads scene graphs from parsed configuration nodes.">
<polygon fill="white" stroke="#666666" points="535.5,-101.5 370.5,-101.5 370.5,-71.5 535.5,-71.5 535.5,-101.5"/>
<text text-anchor="start" x="378.5" y="-89.5" font-family="Helvetica,sans-Serif" font-size="10.00">src/SceneSystem/SceneLoader</text>
<text text-anchor="middle" x="453" y="-78.5" font-family="Helvetica,sans-Serif" font-size="10.00">/SceneLoader.hpp</text>
</a>
</g>
</g>
<!-- Node1&#45;&gt;Node13 -->
<g id="edge32_Node000001_Node000013" class="edge">
<title>Node1&#45;&gt;Node13</title>
<g id="a_edge32_Node000001_Node000013"><a xlink:title=" ">
<path fill="none" stroke="#63b8ff" d="M914.56,-425.59C708.2,-411.31 262,-372.86 262,-307.5 262,-307.5 262,-307.5 262,-239.5 262,-191.99 273.1,-175.24 308,-143 329.68,-122.97 359.34,-109.92 386.19,-101.55"/>
<polygon fill="#63b8ff" stroke="#63b8ff" points="914.58,-429.1 924.8,-426.29 915.06,-422.12 914.58,-429.1"/>
</a>
</g>
</g>
<!-- Node15 -->
<g id="Node000015" class="node">
<title>Node15</title>
<g id="a_Node000015"><a xlink:href="main_8cpp.html" target="_top" xlink:title="Entry point and CLI for the raytracer application.">
<polygon fill="white" stroke="#666666" points="1014.5,-24.5 935.5,-24.5 935.5,-5.5 1014.5,-5.5 1014.5,-24.5"/>
<text text-anchor="middle" x="975" y="-12.5" font-family="Helvetica,sans-Serif" font-size="10.00">src/main.cpp</text>
</a>
</g>
</g>
<!-- Node1&#45;&gt;Node15 -->
<g id="edge33_Node000001_Node000015" class="edge">
<title>Node1&#45;&gt;Node15</title>
<g id="a_edge33_Node000001_Node000015"><a xlink:title=" ">
<path fill="none" stroke="#63b8ff" d="M1119.22,-425.47C1257.48,-413.78 1487,-383.01 1487,-307.5 1487,-307.5 1487,-307.5 1487,-162.5 1487,-64.38 1135.05,-28.26 1014.75,-18.78"/>
<polygon fill="#63b8ff" stroke="#63b8ff" points="1118.69,-422 1109.02,-426.31 1119.27,-428.98 1118.69,-422"/>
</a>
</g>
</g>
<!-- Node22 -->
<g id="Node000022" class="node">
<title>Node22</title>
<g id="a_Node000022"><a xlink:href="RaytracerException_8cpp.html" target="_top" xlink:title=" ">
<polygon fill="white" stroke="#666666" points="1698.5,-382 1515.5,-382 1515.5,-352 1698.5,-352 1698.5,-382"/>
<text text-anchor="start" x="1523.5" y="-370" font-family="Helvetica,sans-Serif" font-size="10.00">src/Exceptions/Raytracer</text>
<text text-anchor="middle" x="1607" y="-359" font-family="Helvetica,sans-Serif" font-size="10.00">Exception/RaytracerException.cpp</text>
</a>
</g>
</g>
<!-- Node1&#45;&gt;Node22 -->
<g id="edge31_Node000001_Node000022" class="edge">
<title>Node1&#45;&gt;Node22</title>
<g id="a_edge31_Node000001_Node000022"><a xlink:title=" ">
<path fill="none" stroke="#63b8ff" d="M1119.62,-422.25C1217.66,-412.74 1369.53,-397.47 1501,-382 1505.7,-381.45 1510.52,-380.86 1515.38,-380.27"/>
<polygon fill="#63b8ff" stroke="#63b8ff" points="1119.04,-418.79 1109.42,-423.24 1119.71,-425.76 1119.04,-418.79"/>
</a>
</g>
</g>
<!-- Node4 -->
<g id="Node000004" class="node">
<title>Node4</title>
<g id="a_Node000004"><a xlink:href="Plugin_8hpp.html" target="_top" xlink:title=" ">
<polygon fill="white" stroke="#666666" points="1079.5,-316 954.5,-316 954.5,-297 1079.5,-297 1079.5,-316"/>
<text text-anchor="middle" x="1017" y="-304" font-family="Helvetica,sans-Serif" font-size="10.00">src/Objects/Plugin.hpp</text>
</a>
</g>
</g>
<!-- Node3&#45;&gt;Node4 -->
<g id="edge3_Node000003_Node000004" class="edge">
<title>Node3&#45;&gt;Node4</title>
<g id="a_edge3_Node000003_Node000004"><a xlink:title=" ">
<path fill="none" stroke="#63b8ff" d="M1017,-341.75C1017,-332.72 1017,-323.03 1017,-316.27"/>
<polygon fill="#63b8ff" stroke="#63b8ff" points="1013.5,-341.84 1017,-351.84 1020.5,-341.84 1013.5,-341.84"/>
</a>
</g>
</g>
<!-- Node5 -->
<g id="Node000005" class="node">
<title>Node5</title>
<g id="a_Node000005"><a xlink:href="CorePlugin_8cpp.html" target="_top" xlink:title="Core plugin implementation that provides primitives, materials and the camera.">
<polygon fill="white" stroke="#666666" points="1091,-178.5 943,-178.5 943,-148.5 1091,-148.5 1091,-178.5"/>
<text text-anchor="start" x="951" y="-166.5" font-family="Helvetica,sans-Serif" font-size="10.00">src/Objects/Plugins</text>
<text text-anchor="middle" x="1017" y="-155.5" font-family="Helvetica,sans-Serif" font-size="10.00">/CorePlugin/CorePlugin.cpp</text>
</a>
</g>
</g>
<!-- Node4&#45;&gt;Node5 -->
<g id="edge4_Node000004_Node000005" class="edge">
<title>Node4&#45;&gt;Node5</title>
<g id="a_edge4_Node000004_Node000005"><a xlink:title=" ">
<path fill="none" stroke="#63b8ff" d="M1017,-286.35C1017,-257.61 1017,-203.96 1017,-178.54"/>
<polygon fill="#63b8ff" stroke="#63b8ff" points="1013.5,-286.68 1017,-296.68 1020.5,-286.68 1013.5,-286.68"/>
</a>
</g>
</g>
<!-- Node6 -->
<g id="Node000006" class="node">
<title>Node6</title>
<g id="a_Node000006"><a xlink:href="SceneWriter_8hpp.html" target="_top" xlink:title=" ">
<polygon fill="white" stroke="#666666" points="988.5,-261 827.5,-261 827.5,-220 988.5,-220 988.5,-261"/>
<text text-anchor="start" x="835.5" y="-249" font-family="Helvetica,sans-Serif" font-size="10.00">src/Objects/Plugins</text>
<text text-anchor="start" x="835.5" y="-238" font-family="Helvetica,sans-Serif" font-size="10.00">/CorePlugin/Interfaces</text>
<text text-anchor="middle" x="908" y="-227" font-family="Helvetica,sans-Serif" font-size="10.00">/SceneWriter/SceneWriter.hpp</text>
</a>
</g>
</g>
<!-- Node4&#45;&gt;Node6 -->
<g id="edge5_Node000004_Node000006" class="edge">
<title>Node4&#45;&gt;Node6</title>
<g id="a_edge5_Node000004_Node000006"><a xlink:title=" ">
<path fill="none" stroke="#63b8ff" d="M993.5,-291.7C978.24,-282.74 958.11,-270.92 941.23,-261.01"/>
<polygon fill="#63b8ff" stroke="#63b8ff" points="991.9,-294.82 1002.3,-296.87 995.45,-288.79 991.9,-294.82"/>
</a>
</g>
</g>
<!-- Node8 -->
<g id="Node000008" class="node">
<title>Node8</title>
<g id="a_Node000008"><a xlink:href="Livescene_8hpp.html" target="_top" xlink:title=" ">
<polygon fill="white" stroke="#666666" points="1421,-261 1271,-261 1271,-220 1421,-220 1421,-261"/>
<text text-anchor="start" x="1279" y="-249" font-family="Helvetica,sans-Serif" font-size="10.00">src/Objects/Plugins</text>
<text text-anchor="start" x="1279" y="-238" font-family="Helvetica,sans-Serif" font-size="10.00">/LivescenePlugin/Interfaces</text>
<text text-anchor="middle" x="1346" y="-227" font-family="Helvetica,sans-Serif" font-size="10.00">/Livescene/Livescene.hpp</text>
</a>
</g>
</g>
<!-- Node4&#45;&gt;Node8 -->
<g id="edge8_Node000004_Node000008" class="edge">
<title>Node4&#45;&gt;Node8</title>
<g id="a_edge8_Node000004_Node000008"><a xlink:title=" ">
<path fill="none" stroke="#63b8ff" d="M1075.85,-295.14C1124.5,-286.44 1195.34,-273.47 1257,-261 1261.5,-260.09 1266.12,-259.14 1270.77,-258.16"/>
<polygon fill="#63b8ff" stroke="#63b8ff" points="1075.04,-291.72 1065.81,-296.93 1076.27,-298.62 1075.04,-291.72"/>
</a>
</g>
</g>
<!-- Node10 -->
<g id="Node000010" class="node">
<title>Node10</title>
<g id="a_Node000010"><a xlink:href="LivescenePlugin_8cpp.html" target="_top" xlink:title=" ">
<polygon fill="white" stroke="#666666" points="1459,-184 1309,-184 1309,-143 1459,-143 1459,-184"/>
<text text-anchor="start" x="1317" y="-172" font-family="Helvetica,sans-Serif" font-size="10.00">src/Objects/Plugins</text>
<text text-anchor="start" x="1317" y="-161" font-family="Helvetica,sans-Serif" font-size="10.00">/LivescenePlugin/Livescene</text>
<text text-anchor="middle" x="1384" y="-150" font-family="Helvetica,sans-Serif" font-size="10.00">Plugin.cpp</text>
</a>
</g>
</g>
<!-- Node4&#45;&gt;Node10 -->
<g id="edge11_Node000004_Node000010" class="edge">
<title>Node4&#45;&gt;Node10</title>
<g id="a_edge11_Node000004_Node000010"><a xlink:title=" ">
<path fill="none" stroke="#63b8ff" d="M1090.03,-302.84C1202.55,-297.97 1407.75,-285.78 1430,-261 1450.34,-238.35 1425.74,-205.12 1405.43,-184.16"/>
<polygon fill="#63b8ff" stroke="#63b8ff" points="1089.61,-299.35 1079.77,-303.27 1089.91,-306.34 1089.61,-299.35"/>
</a>
</g>
</g>
<!-- Node11 -->
<g id="Node000011" class="node">
<title>Node11</title>
<g id="a_Node000011"><a xlink:href="Parser_8hpp.html" target="_top" xlink:title=" ">
<polygon fill="white" stroke="#666666" points="492,-255.5 328,-255.5 328,-225.5 492,-225.5 492,-255.5"/>
<text text-anchor="start" x="336" y="-243.5" font-family="Helvetica,sans-Serif" font-size="10.00">src/SceneSystem/ConfigParser</text>
<text text-anchor="middle" x="410" y="-232.5" font-family="Helvetica,sans-Serif" font-size="10.00">/Parser.hpp</text>
</a>
</g>
</g>
<!-- Node4&#45;&gt;Node11 -->
<g id="edge12_Node000004_Node000011" class="edge">
<title>Node4&#45;&gt;Node11</title>
<g id="a_edge12_Node000004_Node000011"><a xlink:title=" ">
<path fill="none" stroke="#63b8ff" d="M944.02,-298.13C858.29,-289.44 711.78,-274.46 586,-261 555.43,-257.73 521.89,-254.04 492.36,-250.75"/>
<polygon fill="#63b8ff" stroke="#63b8ff" points="943.87,-301.64 954.17,-299.16 944.58,-294.67 943.87,-301.64"/>
</a>
</g>
</g>
<!-- Node4&#45;&gt;Node15 -->
<g id="edge30_Node000004_Node000015" class="edge">
<title>Node4&#45;&gt;Node15</title>
<g id="a_edge30_Node000004_Node000015"><a xlink:title=" ">
<path fill="none" stroke="#63b8ff" d="M1089.63,-299.46C1142.31,-293.39 1207.15,-281.85 1224,-261 1278.46,-193.58 1278.92,-133.04 1224,-66 1197.98,-34.24 1078.02,-22.23 1014.59,-18.04"/>
<polygon fill="#63b8ff" stroke="#63b8ff" points="1089.17,-295.98 1079.62,-300.56 1089.94,-302.94 1089.17,-295.98"/>
</a>
</g>
</g>
<!-- Node16 -->
<g id="Node000016" class="node">
<title>Node16</title>
<g id="a_Node000016"><a xlink:href="PluginManager_8hpp.html" target="_top" xlink:title="Plugin loader interface for dynamic plugins.">
<polygon fill="white" stroke="#666666" points="771,-255.5 595,-255.5 595,-225.5 771,-225.5 771,-255.5"/>
<text text-anchor="start" x="603" y="-243.5" font-family="Helvetica,sans-Serif" font-size="10.00">src/SceneSystem/PluginManager</text>
<text text-anchor="middle" x="683" y="-232.5" font-family="Helvetica,sans-Serif" font-size="10.00">/PluginManager.hpp</text>
</a>
</g>
</g>
<!-- Node4&#45;&gt;Node16 -->
<g id="edge17_Node000004_Node000016" class="edge">
<title>Node4&#45;&gt;Node16</title>
<g id="a_edge17_Node000004_Node000016"><a xlink:title=" ">
<path fill="none" stroke="#63b8ff" d="M962.19,-295C906,-284.23 818.29,-267.42 756.19,-255.52"/>
<polygon fill="#63b8ff" stroke="#63b8ff" points="961.82,-298.49 972.3,-296.94 963.14,-291.62 961.82,-298.49"/>
</a>
</g>
</g>
<!-- Node18 -->
<g id="Node000018" class="node">
<title>Node18</title>
<g id="a_Node000018"><a xlink:href="Scene_8hpp.html" target="_top" xlink:title="Scene container and ray query interface used by renderers.">
<polygon fill="white" stroke="#666666" points="874,-178.5 742,-178.5 742,-148.5 874,-148.5 874,-178.5"/>
<text text-anchor="start" x="750" y="-166.5" font-family="Helvetica,sans-Serif" font-size="10.00">src/SceneSystem/Scene</text>
<text text-anchor="middle" x="808" y="-155.5" font-family="Helvetica,sans-Serif" font-size="10.00">/Scene.hpp</text>
</a>
</g>
</g>
<!-- Node4&#45;&gt;Node18 -->
<g id="edge27_Node000004_Node000018" class="edge">
<title>Node4&#45;&gt;Node18</title>
<g id="a_edge27_Node000004_Node000018"><a xlink:title=" ">
<path fill="none" stroke="#63b8ff" d="M944.33,-297.99C894.97,-291.3 835.74,-279.64 819,-261 798.61,-238.29 801.55,-199.45 805.03,-178.65"/>
<polygon fill="#63b8ff" stroke="#63b8ff" points="944.01,-301.48 954.37,-299.3 944.91,-294.53 944.01,-301.48"/>
</a>
</g>
</g>
<!-- Node21 -->
<g id="Node000021" class="node">
<title>Node21</title>
<g id="a_Node000021"><a xlink:href="SceneNodeHelpers_8hpp.html" target="_top" xlink:title=" ">
<polygon fill="white" stroke="#666666" points="1215,-255.5 1045,-255.5 1045,-225.5 1215,-225.5 1215,-255.5"/>
<text text-anchor="start" x="1053" y="-243.5" font-family="Helvetica,sans-Serif" font-size="10.00">src/SceneSystem/SceneNode</text>
<text text-anchor="middle" x="1130" y="-232.5" font-family="Helvetica,sans-Serif" font-size="10.00">Helpers/SceneNodeHelpers.hpp</text>
</a>
</g>
</g>
<!-- Node4&#45;&gt;Node21 -->
<g id="edge28_Node000004_Node000021" class="edge">
<title>Node4&#45;&gt;Node21</title>
<g id="a_edge28_Node000004_Node000021"><a xlink:title=" ">
<path fill="none" stroke="#63b8ff" d="M1041.1,-291.85C1059.93,-281.18 1086.03,-266.4 1105.08,-255.62"/>
<polygon fill="#63b8ff" stroke="#63b8ff" points="1039.22,-288.89 1032.24,-296.87 1042.67,-294.99 1039.22,-288.89"/>
</a>
</g>
</g>
<!-- Node6&#45;&gt;Node5 -->
<g id="edge6_Node000006_Node000005" class="edge">
<title>Node6&#45;&gt;Node5</title>
<g id="a_edge6_Node000006_Node000005"><a xlink:title=" ">
<path fill="none" stroke="#63b8ff" d="M945.04,-214.01C962.19,-202.22 981.91,-188.65 996.36,-178.7"/>
<polygon fill="#63b8ff" stroke="#63b8ff" points="942.61,-211.44 936.35,-219.99 946.58,-217.21 942.61,-211.44"/>
</a>
</g>
</g>
<!-- Node7 -->
<g id="Node000007" class="node">
<title>Node7</title>
<g id="a_Node000007"><a xlink:href="SceneWriter_8cpp.html" target="_top" xlink:title=" ">
<polygon fill="white" stroke="#666666" points="1046.5,-107 885.5,-107 885.5,-66 1046.5,-66 1046.5,-107"/>
<text text-anchor="start" x="893.5" y="-95" font-family="Helvetica,sans-Serif" font-size="10.00">src/Objects/Plugins</text>
<text text-anchor="start" x="893.5" y="-84" font-family="Helvetica,sans-Serif" font-size="10.00">/CorePlugin/Interfaces</text>
<text text-anchor="middle" x="966" y="-73" font-family="Helvetica,sans-Serif" font-size="10.00">/SceneWriter/SceneWriter.cpp</text>
</a>
</g>
</g>
<!-- Node6&#45;&gt;Node7 -->
<g id="edge7_Node000006_Node000007" class="edge">
<title>Node6&#45;&gt;Node7</title>
<g id="a_edge7_Node000006_Node000007"><a xlink:title=" ">
<path fill="none" stroke="#63b8ff" d="M913.86,-209.97C918.23,-190.53 924.99,-164.74 934,-143 939.16,-130.57 946.59,-117.49 952.99,-107.15"/>
<polygon fill="#63b8ff" stroke="#63b8ff" points="910.43,-209.27 911.74,-219.79 917.27,-210.75 910.43,-209.27"/>
</a>
</g>
</g>
<!-- Node9 -->
<g id="Node000009" class="node">
<title>Node9</title>
<g id="a_Node000009"><a xlink:href="Livescene_8cpp.html" target="_top" xlink:title=" ">
<polygon fill="white" stroke="#666666" points="1215,-107 1065,-107 1065,-66 1215,-66 1215,-107"/>
<text text-anchor="start" x="1073" y="-95" font-family="Helvetica,sans-Serif" font-size="10.00">src/Objects/Plugins</text>
<text text-anchor="start" x="1073" y="-84" font-family="Helvetica,sans-Serif" font-size="10.00">/LivescenePlugin/Interfaces</text>
<text text-anchor="middle" x="1140" y="-73" font-family="Helvetica,sans-Serif" font-size="10.00">/Livescene/Livescene.cpp</text>
</a>
</g>
</g>
<!-- Node8&#45;&gt;Node9 -->
<g id="edge9_Node000008_Node000009" class="edge">
<title>Node8&#45;&gt;Node9</title>
<g id="a_edge9_Node000008_Node000009"><a xlink:title=" ">
<path fill="none" stroke="#63b8ff" d="M1311.2,-213.82C1270.4,-183.72 1203.68,-134.49 1166.73,-107.23"/>
<polygon fill="#63b8ff" stroke="#63b8ff" points="1309.37,-216.82 1319.49,-219.94 1313.52,-211.19 1309.37,-216.82"/>
</a>
</g>
</g>
<!-- Node8&#45;&gt;Node10 -->
<g id="edge10_Node000008_Node000010" class="edge">
<title>Node8&#45;&gt;Node10</title>
<g id="a_edge10_Node000008_Node000010"><a xlink:title=" ">
<path fill="none" stroke="#63b8ff" d="M1360.53,-210.83C1365.06,-201.89 1369.95,-192.24 1374.08,-184.07"/>
<polygon fill="#63b8ff" stroke="#63b8ff" points="1357.38,-209.29 1355.98,-219.79 1363.63,-212.46 1357.38,-209.29"/>
</a>
</g>
</g>
<!-- Node12 -->
<g id="Node000012" class="node">
<title>Node12</title>
<g id="a_Node000012"><a xlink:href="Parser_8cpp.html" target="_top" xlink:title=" ">
<polygon fill="white" stroke="#666666" points="492,-178.5 328,-178.5 328,-148.5 492,-148.5 492,-178.5"/>
<text text-anchor="start" x="336" y="-166.5" font-family="Helvetica,sans-Serif" font-size="10.00">src/SceneSystem/ConfigParser</text>
<text text-anchor="middle" x="410" y="-155.5" font-family="Helvetica,sans-Serif" font-size="10.00">/Parser.cpp</text>
</a>
</g>
</g>
<!-- Node11&#45;&gt;Node12 -->
<g id="edge13_Node000011_Node000012" class="edge">
<title>Node11&#45;&gt;Node12</title>
<g id="a_edge13_Node000011_Node000012"><a xlink:title=" ">
<path fill="none" stroke="#63b8ff" d="M410,-215.04C410,-202.95 410,-188.79 410,-178.54"/>
<polygon fill="#63b8ff" stroke="#63b8ff" points="406.5,-215.39 410,-225.39 413.5,-215.39 406.5,-215.39"/>
</a>
</g>
</g>
<!-- Node11&#45;&gt;Node13 -->
<g id="edge14_Node000011_Node000013" class="edge">
<title>Node11&#45;&gt;Node13</title>
<g id="a_edge14_Node000011_Node000013"><a xlink:title=" ">
<path fill="none" stroke="#63b8ff" d="M359.65,-220.63C343.76,-212.01 328.01,-200.05 319,-184 310.08,-168.11 308.88,-158.15 319,-143 332.64,-122.59 355.33,-109.67 378.19,-101.51"/>
<polygon fill="#63b8ff" stroke="#63b8ff" points="358.47,-223.95 368.97,-225.33 361.62,-217.7 358.47,-223.95"/>
</a>
</g>
</g>
<!-- Node14 -->
<g id="Node000014" class="node">
<title>Node14</title>
<g id="a_Node000014"><a xlink:href="SceneLoader_8cpp.html" target="_top" xlink:title="Scene parsing and construction from configuration nodes.">
<polygon fill="white" stroke="#666666" points="535.5,-30 370.5,-30 370.5,0 535.5,0 535.5,-30"/>
<text text-anchor="start" x="378.5" y="-18" font-family="Helvetica,sans-Serif" font-size="10.00">src/SceneSystem/SceneLoader</text>
<text text-anchor="middle" x="453" y="-7" font-family="Helvetica,sans-Serif" font-size="10.00">/SceneLoader.cpp</text>
</a>
</g>
</g>
<!-- Node13&#45;&gt;Node14 -->
<g id="edge15_Node000013_Node000014" class="edge">
<title>Node13&#45;&gt;Node14</title>
<g id="a_edge15_Node000013_Node000014"><a xlink:title=" ">
<path fill="none" stroke="#63b8ff" d="M453,-61.25C453,-50.81 453,-38.99 453,-30.04"/>
<polygon fill="#63b8ff" stroke="#63b8ff" points="449.5,-61.44 453,-71.44 456.5,-61.44 449.5,-61.44"/>
</a>
</g>
</g>
<!-- Node13&#45;&gt;Node15 -->
<g id="edge16_Node000013_Node000015" class="edge">
<title>Node13&#45;&gt;Node15</title>
<g id="a_edge16_Node000013_Node000015"><a xlink:title=" ">
<path fill="none" stroke="#63b8ff" d="M524.72,-69.46C531.22,-68.21 537.72,-67.03 544,-66 687.26,-42.4 859.13,-25.99 935.31,-19.33"/>
<polygon fill="#63b8ff" stroke="#63b8ff" points="523.66,-66.11 514.53,-71.48 525.02,-72.97 523.66,-66.11"/>
</a>
</g>
</g>
<!-- Node16&#45;&gt;Node13 -->
<g id="edge26_Node000016_Node000013" class="edge">
<title>Node16&#45;&gt;Node13</title>
<g id="a_edge26_Node000016_Node000013"><a xlink:title=" ">
<path fill="none" stroke="#63b8ff" d="M694.68,-216.01C703.43,-194.68 711.35,-163.52 695,-143 692.19,-139.47 589.45,-116.8 518.76,-101.55"/>
<polygon fill="#63b8ff" stroke="#63b8ff" points="691.4,-214.76 690.55,-225.32 697.8,-217.6 691.4,-214.76"/>
</a>
</g>
</g>
<!-- Node17 -->
<g id="Node000017" class="node">
<title>Node17</title>
<g id="a_Node000017"><a xlink:href="PluginManager_8cpp.html" target="_top" xlink:title="Runtime plugin loader and initializer registry implementation.">
<polygon fill="white" stroke="#666666" points="686,-178.5 510,-178.5 510,-148.5 686,-148.5 686,-178.5"/>
<text text-anchor="start" x="518" y="-166.5" font-family="Helvetica,sans-Serif" font-size="10.00">src/SceneSystem/PluginManager</text>
<text text-anchor="middle" x="598" y="-155.5" font-family="Helvetica,sans-Serif" font-size="10.00">/PluginManager.cpp</text>
</a>
</g>
</g>
<!-- Node16&#45;&gt;Node17 -->
<g id="edge18_Node000016_Node000017" class="edge">
<title>Node16&#45;&gt;Node17</title>
<g id="a_edge18_Node000016_Node000017"><a xlink:title=" ">
<path fill="none" stroke="#63b8ff" d="M659.39,-218.67C644.9,-205.88 626.72,-189.84 613.92,-178.54"/>
<polygon fill="#63b8ff" stroke="#63b8ff" points="657.2,-221.4 667.01,-225.39 661.83,-216.15 657.2,-221.4"/>
</a>
</g>
</g>
<!-- Node16&#45;&gt;Node18 -->
<g id="edge19_Node000016_Node000018" class="edge">
<title>Node16&#45;&gt;Node18</title>
<g id="a_edge19_Node000016_Node000018"><a xlink:title=" ">
<path fill="none" stroke="#63b8ff" d="M715.37,-220.08C737.04,-207.08 765.07,-190.26 784.59,-178.54"/>
<polygon fill="#63b8ff" stroke="#63b8ff" points="713.29,-217.25 706.51,-225.39 716.89,-223.25 713.29,-217.25"/>
</a>
</g>
</g>
<!-- Node18&#45;&gt;Node7 -->
<g id="edge20_Node000018_Node000007" class="edge">
<title>Node18&#45;&gt;Node7</title>
<g id="a_edge20_Node000018_Node000007"><a xlink:title=" ">
<path fill="none" stroke="#63b8ff" d="M846.77,-144.1C870.44,-132.86 900.68,-118.5 924.79,-107.06"/>
<polygon fill="#63b8ff" stroke="#63b8ff" points="845.25,-140.94 837.72,-148.39 848.25,-147.27 845.25,-140.94"/>
</a>
</g>
</g>
<!-- Node18&#45;&gt;Node9 -->
<g id="edge22_Node000018_Node000009" class="edge">
<title>Node18&#45;&gt;Node9</title>
<g id="a_edge22_Node000018_Node000009"><a xlink:title=" ">
<path fill="none" stroke="#63b8ff" d="M881.19,-146.28C930.59,-135.3 997.24,-120.39 1056,-107 1058.92,-106.33 1061.9,-105.65 1064.9,-104.96"/>
<polygon fill="#63b8ff" stroke="#63b8ff" points="880.23,-142.91 871.23,-148.5 881.75,-149.74 880.23,-142.91"/>
</a>
</g>
</g>
<!-- Node18&#45;&gt;Node13 -->
<g id="edge24_Node000018_Node000013" class="edge">
<title>Node18&#45;&gt;Node13</title>
<g id="a_edge24_Node000018_Node000013"><a xlink:title=" ">
<path fill="none" stroke="#63b8ff" d="M741.61,-146.07C737.01,-145.01 732.44,-143.97 728,-143 646.61,-125.13 625.63,-123.73 544,-107 535.61,-105.28 526.8,-103.44 518.09,-101.6"/>
<polygon fill="#63b8ff" stroke="#63b8ff" points="741.16,-149.56 751.69,-148.43 742.76,-142.74 741.16,-149.56"/>
</a>
</g>
</g>
<!-- Node18&#45;&gt;Node15 -->
<g id="edge25_Node000018_Node000015" class="edge">
<title>Node18&#45;&gt;Node15</title>
<g id="a_edge25_Node000018_Node000015"><a xlink:title=" ">
<path fill="none" stroke="#63b8ff" d="M763.9,-143.4C749.11,-134.61 734.27,-122.59 726,-107 717.46,-90.9 714.45,-80.1 726,-66 752.02,-34.24 871.98,-22.23 935.41,-18.04"/>
<polygon fill="#63b8ff" stroke="#63b8ff" points="762.6,-146.69 773.05,-148.47 766,-140.56 762.6,-146.69"/>
</a>
</g>
</g>
<!-- Node19 -->
<g id="Node000019" class="node">
<title>Node19</title>
<g id="a_Node000019"><a xlink:href="Camera_8cpp.html" target="_top" xlink:title="Implementation of the RayTracer::Camera renderer.">
<polygon fill="white" stroke="#666666" points="678.5,-107 553.5,-107 553.5,-66 678.5,-66 678.5,-107"/>
<text text-anchor="start" x="561.5" y="-95" font-family="Helvetica,sans-Serif" font-size="10.00">src/Objects/Plugins</text>
<text text-anchor="start" x="561.5" y="-84" font-family="Helvetica,sans-Serif" font-size="10.00">/CorePlugin/Renderers</text>
<text text-anchor="middle" x="616" y="-73" font-family="Helvetica,sans-Serif" font-size="10.00">/Camera/Camera.cpp</text>
</a>
</g>
</g>
<!-- Node18&#45;&gt;Node19 -->
<g id="edge21_Node000018_Node000019" class="edge">
<title>Node18&#45;&gt;Node19</title>
<g id="a_edge21_Node000018_Node000019"><a xlink:title=" ">
<path fill="none" stroke="#63b8ff" d="M762.41,-144.69C733.43,-133.37 695.89,-118.71 666.08,-107.06"/>
<polygon fill="#63b8ff" stroke="#63b8ff" points="761.3,-148.01 771.89,-148.39 763.85,-141.49 761.3,-148.01"/>
</a>
</g>
</g>
<!-- Node20 -->
<g id="Node000020" class="node">
<title>Node20</title>
<g id="a_Node000020"><a xlink:href="Scene_8cpp.html" target="_top" xlink:title="Implementation of the RayTracer::Scene container and utilities.">
<polygon fill="white" stroke="#666666" points="867,-101.5 735,-101.5 735,-71.5 867,-71.5 867,-101.5"/>
<text text-anchor="start" x="743" y="-89.5" font-family="Helvetica,sans-Serif" font-size="10.00">src/SceneSystem/Scene</text>
<text text-anchor="middle" x="801" y="-78.5" font-family="Helvetica,sans-Serif" font-size="10.00">/Scene.cpp</text>
</a>
</g>
</g>
<!-- Node18&#45;&gt;Node20 -->
<g id="edge23_Node000018_Node000020" class="edge">
<title>Node18&#45;&gt;Node20</title>
<g id="a_edge23_Node000018_Node000020"><a xlink:title=" ">
<path fill="none" stroke="#63b8ff" d="M805.75,-138.41C804.62,-126.24 803.28,-111.9 802.31,-101.54"/>
<polygon fill="#63b8ff" stroke="#63b8ff" points="802.27,-138.76 806.68,-148.39 809.24,-138.11 802.27,-138.76"/>
</a>
</g>
</g>
<!-- Node21&#45;&gt;Node5 -->
<g id="edge29_Node000021_Node000005" class="edge">
<title>Node21&#45;&gt;Node5</title>
<g id="a_edge29_Node000021_Node000005"><a xlink:title=" ">
<path fill="none" stroke="#63b8ff" d="M1100.21,-219.73C1080.69,-206.78 1055.65,-190.15 1038.16,-178.54"/>
<polygon fill="#63b8ff" stroke="#63b8ff" points="1098.48,-222.78 1108.75,-225.39 1102.35,-216.95 1098.48,-222.78"/>
</a>
</g>
</g>
</g>
</svg>
