<?xml version="1.0" encoding="UTF-8" standalone="no"?>
<!DOCTYPE svg PUBLIC "-//W3C//DTD SVG 1.1//EN"
 "http://www.w3.org/Graphics/SVG/1.1/DTD/svg11.dtd">
<!-- Generated by graphviz version 2.43.0 (0)
 -->
<!-- Title: src/Exceptions/RaytracerException/RaytracerException.hpp Pages: 1 -->
<svg width="1102pt" height="390pt"
 viewBox="0.00 0.00 1101.50 390.00" xmlns="http://www.w3.org/2000/svg" xmlns:xlink="http://www.w3.org/1999/xlink">
<g id="graph0" class="graph" transform="scale(1 1) rotate(0) translate(4 386)">
<title>src/Exceptions/RaytracerException/RaytracerException.hpp</title>
<!-- Node1 -->
<g id="Node000001" class="node">
<title>Node1</title>
<g id="a_Node000001"><a xlink:title=" ">
<polygon fill="#999999" stroke="#666666" points="519.5,-382 335.5,-382 335.5,-352 519.5,-352 519.5,-382"/>
<text text-anchor="start" x="343.5" y="-370" font-family="Helvetica,sans-Serif" font-size="10.00">src/Exceptions/Raytracer</text>
<text text-anchor="middle" x="427.5" y="-359" font-family="Helvetica,sans-Serif" font-size="10.00">Exception/RaytracerException.hpp</text>
</a>
</g>
</g>
<!-- Node2 -->
<g id="Node000002" class="node">
<title>Node2</title>
<g id="a_Node000002"><a xlink:href="RaytracerException_8cpp.html" target="_top" xlink:title=" ">
<polygon fill="white" stroke="#666666" points="183,-316 0,-316 0,-286 183,-286 183,-316"/>
<text text-anchor="start" x="8" y="-304" font-family="Helvetica,sans-Serif" font-size="10.00">src/Exceptions/Raytracer</text>
<text text-anchor="middle" x="91.5" y="-293" font-family="Helvetica,sans-Serif" font-size="10.00">Exception/RaytracerException.cpp</text>
</a>
</g>
</g>
<!-- Node1&#45;&gt;Node2 -->
<g id="edge1_Node000001_Node000002" class="edge">
<title>Node1&#45;&gt;Node2</title>
<g id="a_edge1_Node000001_Node000002"><a xlink:title=" ">
<path fill="none" stroke="#63b8ff" d="M343.71,-350.04C288.82,-339.59 217.76,-326.05 165.06,-316.01"/>
<polygon fill="#63b8ff" stroke="#63b8ff" points="343.29,-353.52 353.76,-351.95 344.59,-346.65 343.29,-353.52"/>
</a>
</g>
</g>
<!-- Node3 -->
<g id="Node000003" class="node">
<title>Node3</title>
<g id="a_Node000003"><a xlink:href="Plugin_8hpp.html" target="_top" xlink:title=" ">
<polygon fill="white" stroke="#666666" points="774,-310.5 649,-310.5 649,-291.5 774,-291.5 774,-310.5"/>
<text text-anchor="middle" x="711.5" y="-298.5" font-family="Helvetica,sans-Serif" font-size="10.00">src/Objects/Plugin.hpp</text>
</a>
</g>
</g>
<!-- Node1&#45;&gt;Node3 -->
<g id="edge2_Node000001_Node000003" class="edge">
<title>Node1&#45;&gt;Node3</title>
<g id="a_edge2_Node000001_Node000003"><a xlink:title=" ">
<path fill="none" stroke="#63b8ff" d="M499.6,-349.75C555.03,-337.26 629.41,-320.5 673.7,-310.52"/>
<polygon fill="#63b8ff" stroke="#63b8ff" points="498.81,-346.34 489.83,-351.95 500.35,-353.17 498.81,-346.34"/>
</a>
</g>
</g>
<!-- Node7 -->
<g id="Node000007" class="node">
<title>Node7</title>
<g id="a_Node000007"><a xlink:href="main_8cpp.html" target="_top" xlink:title=" ">
<polygon fill="white" stroke="#666666" points="986,-24.5 907,-24.5 907,-5.5 986,-5.5 986,-24.5"/>
<text text-anchor="middle" x="946.5" y="-12.5" font-family="Helvetica,sans-Serif" font-size="10.00">src/main.cpp</text>
</a>
</g>
</g>
<!-- Node1&#45;&gt;Node7 -->
<g id="edge24_Node000001_Node000007" class="edge">
<title>Node1&#45;&gt;Node7</title>
<g id="a_edge24_Node000001_Node000007"><a xlink:title=" ">
<path fill="none" stroke="#63b8ff" d="M529.87,-366.09C716.6,-363.47 1093.5,-344.12 1093.5,-230.5 1093.5,-230.5 1093.5,-230.5 1093.5,-157 1093.5,-112.64 1083.59,-97.64 1052.5,-66 1032.25,-45.39 1001.85,-32.26 978.79,-24.65"/>
<polygon fill="#63b8ff" stroke="#63b8ff" points="529.71,-362.59 519.75,-366.22 529.8,-369.59 529.71,-362.59"/>
</a>
</g>
</g>
<!-- Node10 -->
<g id="Node000010" class="node">
<title>Node10</title>
<g id="a_Node000010"><a xlink:href="SceneLoader_8hpp.html" target="_top" xlink:title=" ">
<polygon fill="white" stroke="#666666" points="515,-101.5 350,-101.5 350,-71.5 515,-71.5 515,-101.5"/>
<text text-anchor="start" x="358" y="-89.5" font-family="Helvetica,sans-Serif" font-size="10.00">src/SceneSystem/SceneLoader</text>
<text text-anchor="middle" x="432.5" y="-78.5" font-family="Helvetica,sans-Serif" font-size="10.00">/SceneLoader.hpp</text>
</a>
</g>
</g>
<!-- Node1&#45;&gt;Node10 -->
<g id="edge23_Node000001_Node000010" class="edge">
<title>Node1&#45;&gt;Node10</title>
<g id="a_edge23_Node000001_Node000010"><a xlink:title=" ">
<path fill="none" stroke="#63b8ff" d="M385.16,-347.39C347.77,-328.56 295.18,-295.7 268.5,-250 244.44,-208.79 231.38,-181.56 259.5,-143 280.32,-114.46 316.03,-100.27 349.63,-93.33"/>
<polygon fill="#63b8ff" stroke="#63b8ff" points="383.79,-350.62 394.31,-351.88 386.87,-344.33 383.79,-350.62"/>
</a>
</g>
</g>
<!-- Node4 -->
<g id="Node000004" class="node">
<title>Node4</title>
<g id="a_Node000004"><a xlink:href="CorePlugin_8cpp.html" target="_top" xlink:title=" ">
<polygon fill="white" stroke="#666666" points="989.5,-173 841.5,-173 841.5,-143 989.5,-143 989.5,-173"/>
<text text-anchor="start" x="849.5" y="-161" font-family="Helvetica,sans-Serif" font-size="10.00">src/Objects/Plugins</text>
<text text-anchor="middle" x="915.5" y="-150" font-family="Helvetica,sans-Serif" font-size="10.00">/CorePlugin/CorePlugin.cpp</text>
</a>
</g>
</g>
<!-- Node3&#45;&gt;Node4 -->
<g id="edge3_Node000003_Node000004" class="edge">
<title>Node3&#45;&gt;Node4</title>
<g id="a_edge3_Node000003_Node000004"><a xlink:title=" ">
<path fill="none" stroke="#63b8ff" d="M730.56,-285.33C754.63,-266.95 797.51,-234.76 835.5,-209 854.07,-196.41 875.68,-182.97 891.75,-173.2"/>
<polygon fill="#63b8ff" stroke="#63b8ff" points="728.39,-282.58 722.58,-291.43 732.65,-288.13 728.39,-282.58"/>
</a>
</g>
</g>
<!-- Node5 -->
<g id="Node000005" class="node">
<title>Node5</title>
<g id="a_Node000005"><a xlink:href="SceneWriter_8hpp.html" target="_top" xlink:title=" ">
<polygon fill="white" stroke="#666666" points="1005,-250 844,-250 844,-209 1005,-209 1005,-250"/>
<text text-anchor="start" x="852" y="-238" font-family="Helvetica,sans-Serif" font-size="10.00">src/Objects/Plugins</text>
<text text-anchor="start" x="852" y="-227" font-family="Helvetica,sans-Serif" font-size="10.00">/CorePlugin/Interfaces</text>
<text text-anchor="middle" x="924.5" y="-216" font-family="Helvetica,sans-Serif" font-size="10.00">/SceneWriter/SceneWriter.hpp</text>
</a>
</g>
</g>
<!-- Node3&#45;&gt;Node5 -->
<g id="edge4_Node000003_Node000005" class="edge">
<title>Node3&#45;&gt;Node5</title>
<g id="a_edge4_Node000003_Node000005"><a xlink:title=" ">
<path fill="none" stroke="#63b8ff" d="M747.44,-288.27C779.45,-277.83 826.92,-262.34 864.65,-250.03"/>
<polygon fill="#63b8ff" stroke="#63b8ff" points="746.04,-285.05 737.62,-291.48 748.21,-291.7 746.04,-285.05"/>
</a>
</g>
</g>
<!-- Node8 -->
<g id="Node000008" class="node">
<title>Node8</title>
<g id="a_Node000008"><a xlink:href="Parser_8hpp.html" target="_top" xlink:title=" ">
<polygon fill="white" stroke="#666666" points="441.5,-244.5 277.5,-244.5 277.5,-214.5 441.5,-214.5 441.5,-244.5"/>
<text text-anchor="start" x="285.5" y="-232.5" font-family="Helvetica,sans-Serif" font-size="10.00">src/SceneSystem/ConfigParser</text>
<text text-anchor="middle" x="359.5" y="-221.5" font-family="Helvetica,sans-Serif" font-size="10.00">/Parser.hpp</text>
</a>
</g>
</g>
<!-- Node3&#45;&gt;Node8 -->
<g id="edge8_Node000003_Node000008" class="edge">
<title>Node3&#45;&gt;Node8</title>
<g id="a_edge8_Node000003_Node000008"><a xlink:title=" ">
<path fill="none" stroke="#63b8ff" d="M658.19,-289.47C597.4,-277.47 497.75,-257.8 430.44,-244.51"/>
<polygon fill="#63b8ff" stroke="#63b8ff" points="657.85,-292.97 668.34,-291.48 659.21,-286.11 657.85,-292.97"/>
</a>
</g>
</g>
<!-- Node12 -->
<g id="Node000012" class="node">
<title>Node12</title>
<g id="a_Node000012"><a xlink:href="PluginManager_8hpp.html" target="_top" xlink:title="Plugin manager for loading and managing plugins.">
<polygon fill="white" stroke="#666666" points="741.5,-244.5 565.5,-244.5 565.5,-214.5 741.5,-214.5 741.5,-244.5"/>
<text text-anchor="start" x="573.5" y="-232.5" font-family="Helvetica,sans-Serif" font-size="10.00">src/SceneSystem/PluginManager</text>
<text text-anchor="middle" x="653.5" y="-221.5" font-family="Helvetica,sans-Serif" font-size="10.00">/PluginManager.hpp</text>
</a>
</g>
</g>
<!-- Node3&#45;&gt;Node12 -->
<g id="edge13_Node000003_Node000012" class="edge">
<title>Node3&#45;&gt;Node12</title>
<g id="a_edge13_Node000003_Node000012"><a xlink:title=" ">
<path fill="none" stroke="#63b8ff" d="M697.88,-283.68C687.99,-271.83 674.74,-255.95 665.3,-244.64"/>
<polygon fill="#63b8ff" stroke="#63b8ff" points="695.29,-286.04 704.39,-291.48 700.67,-281.56 695.29,-286.04"/>
</a>
</g>
</g>
<!-- Node14 -->
<g id="Node000014" class="node">
<title>Node14</title>
<g id="a_Node000014"><a xlink:href="Scene_8hpp.html" target="_top" xlink:title=" ">
<polygon fill="white" stroke="#666666" points="823.5,-173 691.5,-173 691.5,-143 823.5,-143 823.5,-173"/>
<text text-anchor="start" x="699.5" y="-161" font-family="Helvetica,sans-Serif" font-size="10.00">src/SceneSystem/Scene</text>
<text text-anchor="middle" x="757.5" y="-150" font-family="Helvetica,sans-Serif" font-size="10.00">/Scene.hpp</text>
</a>
</g>
</g>
<!-- Node3&#45;&gt;Node14 -->
<g id="edge22_Node000003_Node000014" class="edge">
<title>Node3&#45;&gt;Node14</title>
<g id="a_edge22_Node000003_Node000014"><a xlink:title=" ">
<path fill="none" stroke="#63b8ff" d="M727.97,-283.99C736.26,-274.86 745.57,-262.73 750.5,-250 760.46,-224.29 760.11,-191.49 758.87,-173.12"/>
<polygon fill="#63b8ff" stroke="#63b8ff" points="725.21,-281.82 720.81,-291.45 730.26,-286.66 725.21,-281.82"/>
</a>
</g>
</g>
<!-- Node5&#45;&gt;Node4 -->
<g id="edge5_Node000005_Node000004" class="edge">
<title>Node5&#45;&gt;Node4</title>
<g id="a_edge5_Node000005_Node000004"><a xlink:title=" ">
<path fill="none" stroke="#63b8ff" d="M920.64,-198.66C919.48,-189.76 918.27,-180.42 917.32,-173.04"/>
<polygon fill="#63b8ff" stroke="#63b8ff" points="917.19,-199.3 921.95,-208.77 924.13,-198.4 917.19,-199.3"/>
</a>
</g>
</g>
<!-- Node6 -->
<g id="Node000006" class="node">
<title>Node6</title>
<g id="a_Node000006"><a xlink:href="SceneWriter_8cpp.html" target="_top" xlink:title=" ">
<polygon fill="white" stroke="#666666" points="1027,-107 866,-107 866,-66 1027,-66 1027,-107"/>
<text text-anchor="start" x="874" y="-95" font-family="Helvetica,sans-Serif" font-size="10.00">src/Objects/Plugins</text>
<text text-anchor="start" x="874" y="-84" font-family="Helvetica,sans-Serif" font-size="10.00">/CorePlugin/Interfaces</text>
<text text-anchor="middle" x="946.5" y="-73" font-family="Helvetica,sans-Serif" font-size="10.00">/SceneWriter/SceneWriter.cpp</text>
</a>
</g>
</g>
<!-- Node5&#45;&gt;Node6 -->
<g id="edge6_Node000005_Node000006" class="edge">
<title>Node5&#45;&gt;Node6</title>
<g id="a_edge6_Node000005_Node000006"><a xlink:title=" ">
<path fill="none" stroke="#63b8ff" d="M972.09,-203.02C982.69,-194.92 992.55,-184.9 998.5,-173 1010.23,-149.54 990.03,-124.01 971.49,-107.01"/>
<polygon fill="#63b8ff" stroke="#63b8ff" points="970.02,-200.2 963.88,-208.84 974.07,-205.9 970.02,-200.2"/>
</a>
</g>
</g>
<!-- Node5&#45;&gt;Node7 -->
<g id="edge7_Node000005_Node000007" class="edge">
<title>Node5&#45;&gt;Node7</title>
<g id="a_edge7_Node000005_Node000007"><a xlink:title=" ">
<path fill="none" stroke="#63b8ff" d="M977.12,-203.8C990.43,-195.54 1003.71,-185.25 1013.5,-173 1032.89,-148.73 1031.32,-137.63 1036.5,-107 1039.54,-89.03 1045.74,-81.71 1036.5,-66 1023.99,-44.74 998.82,-31.87 978.26,-24.53"/>
<polygon fill="#63b8ff" stroke="#63b8ff" points="975.24,-200.85 968.41,-208.94 978.8,-206.88 975.24,-200.85"/>
</a>
</g>
</g>
<!-- Node9 -->
<g id="Node000009" class="node">
<title>Node9</title>
<g id="a_Node000009"><a xlink:href="Parser_8cpp.html" target="_top" xlink:title=" ">
<polygon fill="white" stroke="#666666" points="441.5,-173 277.5,-173 277.5,-143 441.5,-143 441.5,-173"/>
<text text-anchor="start" x="285.5" y="-161" font-family="Helvetica,sans-Serif" font-size="10.00">src/SceneSystem/ConfigParser</text>
<text text-anchor="middle" x="359.5" y="-150" font-family="Helvetica,sans-Serif" font-size="10.00">/Parser.cpp</text>
</a>
</g>
</g>
<!-- Node8&#45;&gt;Node9 -->
<g id="edge9_Node000008_Node000009" class="edge">
<title>Node8&#45;&gt;Node9</title>
<g id="a_edge9_Node000008_Node000009"><a xlink:title=" ">
<path fill="none" stroke="#63b8ff" d="M359.5,-204.25C359.5,-193.81 359.5,-181.99 359.5,-173.04"/>
<polygon fill="#63b8ff" stroke="#63b8ff" points="356,-204.44 359.5,-214.44 363,-204.44 356,-204.44"/>
</a>
</g>
</g>
<!-- Node8&#45;&gt;Node10 -->
<g id="edge10_Node000008_Node000010" class="edge">
<title>Node8&#45;&gt;Node10</title>
<g id="a_edge10_Node000008_Node000010"><a xlink:title=" ">
<path fill="none" stroke="#63b8ff" d="M315.11,-209.87C283.5,-193.84 249.7,-169.21 268.5,-143 287.33,-116.74 319.27,-102.75 349.98,-95.35"/>
<polygon fill="#63b8ff" stroke="#63b8ff" points="313.83,-213.14 324.35,-214.36 316.89,-206.84 313.83,-213.14"/>
</a>
</g>
</g>
<!-- Node10&#45;&gt;Node7 -->
<g id="edge12_Node000010_Node000007" class="edge">
<title>Node10&#45;&gt;Node7</title>
<g id="a_edge12_Node000010_Node000007"><a xlink:title=" ">
<path fill="none" stroke="#63b8ff" d="M505.34,-69.43C511.81,-68.19 518.26,-67.03 524.5,-66 664.26,-42.96 831.76,-26.35 906.77,-19.49"/>
<polygon fill="#63b8ff" stroke="#63b8ff" points="504.35,-66.05 495.21,-71.41 505.69,-72.92 504.35,-66.05"/>
</a>
</g>
</g>
<!-- Node11 -->
<g id="Node000011" class="node">
<title>Node11</title>
<g id="a_Node000011"><a xlink:href="SceneLoader_8cpp.html" target="_top" xlink:title=" ">
<polygon fill="white" stroke="#666666" points="515,-30 350,-30 350,0 515,0 515,-30"/>
<text text-anchor="start" x="358" y="-18" font-family="Helvetica,sans-Serif" font-size="10.00">src/SceneSystem/SceneLoader</text>
<text text-anchor="middle" x="432.5" y="-7" font-family="Helvetica,sans-Serif" font-size="10.00">/SceneLoader.cpp</text>
</a>
</g>
</g>
<!-- Node10&#45;&gt;Node11 -->
<g id="edge11_Node000010_Node000011" class="edge">
<title>Node10&#45;&gt;Node11</title>
<g id="a_edge11_Node000010_Node000011"><a xlink:title=" ">
<path fill="none" stroke="#63b8ff" d="M432.5,-61.25C432.5,-50.81 432.5,-38.99 432.5,-30.04"/>
<polygon fill="#63b8ff" stroke="#63b8ff" points="429,-61.44 432.5,-71.44 436,-61.44 429,-61.44"/>
</a>
</g>
</g>
<!-- Node12&#45;&gt;Node10 -->
<g id="edge21_Node000012_Node000010" class="edge">
<title>Node12&#45;&gt;Node10</title>
<g id="a_edge21_Node000012_Node000010"><a xlink:title=" ">
<path fill="none" stroke="#63b8ff" d="M657.77,-204.24C659.64,-185.35 658.8,-159.64 644.5,-143 639.42,-137.08 553.84,-115.97 492.99,-101.56"/>
<polygon fill="#63b8ff" stroke="#63b8ff" points="654.3,-203.82 656.48,-214.19 661.24,-204.72 654.3,-203.82"/>
</a>
</g>
</g>
<!-- Node13 -->
<g id="Node000013" class="node">
<title>Node13</title>
<g id="a_Node000013"><a xlink:href="PluginManager_8cpp.html" target="_top" xlink:title=" ">
<polygon fill="white" stroke="#666666" points="635.5,-173 459.5,-173 459.5,-143 635.5,-143 635.5,-173"/>
<text text-anchor="start" x="467.5" y="-161" font-family="Helvetica,sans-Serif" font-size="10.00">src/SceneSystem/PluginManager</text>
<text text-anchor="middle" x="547.5" y="-150" font-family="Helvetica,sans-Serif" font-size="10.00">/PluginManager.cpp</text>
</a>
</g>
</g>
<!-- Node12&#45;&gt;Node13 -->
<g id="edge14_Node000012_Node000013" class="edge">
<title>Node12&#45;&gt;Node13</title>
<g id="a_edge14_Node000012_Node000013"><a xlink:title=" ">
<path fill="none" stroke="#63b8ff" d="M623.39,-208.75C606.01,-197.36 584.57,-183.31 568.92,-173.04"/>
<polygon fill="#63b8ff" stroke="#63b8ff" points="621.77,-211.88 632.05,-214.44 625.61,-206.03 621.77,-211.88"/>
</a>
</g>
</g>
<!-- Node12&#45;&gt;Node14 -->
<g id="edge15_Node000012_Node000014" class="edge">
<title>Node12&#45;&gt;Node14</title>
<g id="a_edge15_Node000012_Node000014"><a xlink:title=" ">
<path fill="none" stroke="#63b8ff" d="M683.05,-208.75C700.09,-197.36 721.13,-183.31 736.49,-173.04"/>
<polygon fill="#63b8ff" stroke="#63b8ff" points="680.92,-205.97 674.55,-214.44 684.81,-211.79 680.92,-205.97"/>
</a>
</g>
</g>
<!-- Node14&#45;&gt;Node6 -->
<g id="edge16_Node000014_Node000006" class="edge">
<title>Node14&#45;&gt;Node6</title>
<g id="a_edge16_Node000014_Node000006"><a xlink:title=" ">
<path fill="none" stroke="#63b8ff" d="M805.3,-139.42C832.11,-129.56 865.62,-117.24 893.27,-107.07"/>
<polygon fill="#63b8ff" stroke="#63b8ff" points="803.92,-136.2 795.75,-142.94 806.34,-142.77 803.92,-136.2"/>
</a>
</g>
</g>
<!-- Node14&#45;&gt;Node7 -->
<g id="edge20_Node000014_Node000007" class="edge">
<title>Node14&#45;&gt;Node7</title>
<g id="a_edge20_Node000014_Node000007"><a xlink:title=" ">
<path fill="none" stroke="#63b8ff" d="M783.87,-136.56C794.84,-127.76 807.55,-117.17 818.5,-107 836.93,-89.88 837.65,-81.44 857.5,-66 879.74,-48.7 908.69,-33.6 927.43,-24.64"/>
<polygon fill="#63b8ff" stroke="#63b8ff" points="781.53,-133.95 775.88,-142.91 785.89,-139.43 781.53,-133.95"/>
</a>
</g>
</g>
<!-- Node14&#45;&gt;Node10 -->
<g id="edge19_Node000014_Node000010" class="edge">
<title>Node14&#45;&gt;Node10</title>
<g id="a_edge19_Node000014_Node000010"><a xlink:title=" ">
<path fill="none" stroke="#63b8ff" d="M681.92,-140.84C626.27,-128.94 551.34,-112.91 498.17,-101.54"/>
<polygon fill="#63b8ff" stroke="#63b8ff" points="681.22,-144.27 691.73,-142.94 682.68,-137.42 681.22,-144.27"/>
</a>
</g>
</g>
<!-- Node15 -->
<g id="Node000015" class="node">
<title>Node15</title>
<g id="a_Node000015"><a xlink:href="Camera_8cpp.html" target="_top" xlink:title=" ">
<polygon fill="white" stroke="#666666" points="809,-107 684,-107 684,-66 809,-66 809,-107"/>
<text text-anchor="start" x="692" y="-95" font-family="Helvetica,sans-Serif" font-size="10.00">src/Objects/Plugins</text>
<text text-anchor="start" x="692" y="-84" font-family="Helvetica,sans-Serif" font-size="10.00">/CorePlugin/Renderers</text>
<text text-anchor="middle" x="746.5" y="-73" font-family="Helvetica,sans-Serif" font-size="10.00">/Camera/Camera.cpp</text>
</a>
</g>
</g>
<!-- Node14&#45;&gt;Node15 -->
<g id="edge17_Node000014_Node000015" class="edge">
<title>Node14&#45;&gt;Node15</title>
<g id="a_edge17_Node000014_Node000015"><a xlink:title=" ">
<path fill="none" stroke="#63b8ff" d="M753.69,-132.91C752.35,-124.47 750.87,-115.1 749.6,-107.07"/>
<polygon fill="#63b8ff" stroke="#63b8ff" points="750.25,-133.61 755.27,-142.94 757.17,-132.51 750.25,-133.61"/>
</a>
</g>
</g>
<!-- Node16 -->
<g id="Node000016" class="node">
<title>Node16</title>
<g id="a_Node000016"><a xlink:href="Scene_8cpp.html" target="_top" xlink:title=" ">
<polygon fill="white" stroke="#666666" points="665.5,-101.5 533.5,-101.5 533.5,-71.5 665.5,-71.5 665.5,-101.5"/>
<text text-anchor="start" x="541.5" y="-89.5" font-family="Helvetica,sans-Serif" font-size="10.00">src/SceneSystem/Scene</text>
<text text-anchor="middle" x="599.5" y="-78.5" font-family="Helvetica,sans-Serif" font-size="10.00">/Scene.cpp</text>
</a>
</g>
</g>
<!-- Node14&#45;&gt;Node16 -->
<g id="edge18_Node000014_Node000016" class="edge">
<title>Node14&#45;&gt;Node16</title>
<g id="a_edge18_Node000014_Node000016"><a xlink:title=" ">
<path fill="none" stroke="#63b8ff" d="M716.14,-138.81C689.66,-127.16 655.83,-112.28 631.43,-101.54"/>
<polygon fill="#63b8ff" stroke="#63b8ff" points="714.96,-142.11 725.53,-142.94 717.78,-135.71 714.96,-142.11"/>
</a>
</g>
</g>
</g>
</svg>
