<?xml version="1.0" encoding="UTF-8" standalone="no"?>
<!DOCTYPE svg PUBLIC "-//W3C//DTD SVG 1.1//EN"
 "http://www.w3.org/Graphics/SVG/1.1/DTD/svg11.dtd">
<!-- Generated by graphviz version 2.43.0 (0)
 -->
<!-- Title: src/Exceptions/RaytracerException/RaytracerException.hpp Pages: 1 -->
<svg width="1528pt" height="456pt"
 viewBox="0.00 0.00 1528.00 456.00" xmlns="http://www.w3.org/2000/svg" xmlns:xlink="http://www.w3.org/1999/xlink">
<g id="graph0" class="graph" transform="scale(1 1) rotate(0) translate(4 452)">
<title>src/Exceptions/RaytracerException/RaytracerException.hpp</title>
<!-- Node1 -->
<g id="Node000001" class="node">
<title>Node1</title>
<g id="a_Node000001"><a xlink:title=" ">
<polygon fill="#999999" stroke="#666666" points="1343.5,-448 1159.5,-448 1159.5,-418 1343.5,-418 1343.5,-448"/>
<text text-anchor="start" x="1167.5" y="-436" font-family="Helvetica,sans-Serif" font-size="10.00">src/Exceptions/Raytracer</text>
<text text-anchor="middle" x="1251.5" y="-425" font-family="Helvetica,sans-Serif" font-size="10.00">Exception/RaytracerException.hpp</text>
</a>
</g>
</g>
<!-- Node2 -->
<g id="Node000002" class="node">
<title>Node2</title>
<g id="a_Node000002"><a xlink:href="DivisionByZeroException_8hpp.html" target="_top" xlink:title=" ">
<polygon fill="white" stroke="#666666" points="1031.5,-382 797.5,-382 797.5,-352 1031.5,-352 1031.5,-382"/>
<text text-anchor="start" x="805.5" y="-370" font-family="Helvetica,sans-Serif" font-size="10.00">src/Exceptions/DivisionBy</text>
<text text-anchor="middle" x="914.5" y="-359" font-family="Helvetica,sans-Serif" font-size="10.00">ZeroException/DivisionByZeroException.hpp</text>
</a>
</g>
</g>
<!-- Node1&#45;&gt;Node2 -->
<g id="edge1_Node000001_Node000002" class="edge">
<title>Node1&#45;&gt;Node2</title>
<g id="a_edge1_Node000001_Node000002"><a xlink:title=" ">
<path fill="none" stroke="#63b8ff" d="M1167.46,-416.04C1112.41,-405.59 1041.14,-392.05 988.28,-382.01"/>
<polygon fill="#63b8ff" stroke="#63b8ff" points="1167.07,-419.53 1177.54,-417.95 1168.37,-412.65 1167.07,-419.53"/>
</a>
</g>
</g>
<!-- Node3 -->
<g id="Node000003" class="node">
<title>Node3</title>
<g id="a_Node000003"><a xlink:href="ParsingException_8hpp.html" target="_top" xlink:title=" ">
<polygon fill="white" stroke="#666666" points="1223,-382 1050,-382 1050,-352 1223,-352 1223,-382"/>
<text text-anchor="start" x="1058" y="-370" font-family="Helvetica,sans-Serif" font-size="10.00">src/Exceptions/ParsingException</text>
<text text-anchor="middle" x="1136.5" y="-359" font-family="Helvetica,sans-Serif" font-size="10.00">/ParsingException.hpp</text>
</a>
</g>
</g>
<!-- Node1&#45;&gt;Node3 -->
<g id="edge2_Node000001_Node000003" class="edge">
<title>Node1&#45;&gt;Node3</title>
<g id="a_edge2_Node000001_Node000003"><a xlink:title=" ">
<path fill="none" stroke="#63b8ff" d="M1217.3,-412.97C1199.45,-403.03 1177.99,-391.09 1161.68,-382.01"/>
<polygon fill="#63b8ff" stroke="#63b8ff" points="1215.82,-416.15 1226.26,-417.95 1219.23,-410.03 1215.82,-416.15"/>
</a>
</g>
</g>
<!-- Node14 -->
<g id="Node000014" class="node">
<title>Node14</title>
<g id="a_Node000014"><a xlink:href="SceneLoader_8hpp.html" target="_top" xlink:title="Loads scene graphs from parsed configuration nodes.">
<polygon fill="white" stroke="#666666" points="1144,-101.5 979,-101.5 979,-71.5 1144,-71.5 1144,-101.5"/>
<text text-anchor="start" x="987" y="-89.5" font-family="Helvetica,sans-Serif" font-size="10.00">src/SceneSystem/SceneLoader</text>
<text text-anchor="middle" x="1061.5" y="-78.5" font-family="Helvetica,sans-Serif" font-size="10.00">/SceneLoader.hpp</text>
</a>
</g>
</g>
<!-- Node1&#45;&gt;Node14 -->
<g id="edge35_Node000001_Node000014" class="edge">
<title>Node1&#45;&gt;Node14</title>
<g id="a_edge35_Node000001_Node000014"><a xlink:title=" ">
<path fill="none" stroke="#63b8ff" d="M1255.96,-407.69C1264.42,-353.6 1276.72,-221.87 1213.5,-143 1196.28,-121.52 1169.97,-108.35 1144.05,-100.28"/>
<polygon fill="#63b8ff" stroke="#63b8ff" points="1252.48,-407.28 1254.29,-417.72 1259.39,-408.43 1252.48,-407.28"/>
</a>
</g>
</g>
<!-- Node16 -->
<g id="Node000016" class="node">
<title>Node16</title>
<g id="a_Node000016"><a xlink:href="main_8cpp.html" target="_top" xlink:title="Entry point and CLI for the raytracer application.">
<polygon fill="white" stroke="#666666" points="1287,-24.5 1208,-24.5 1208,-5.5 1287,-5.5 1287,-24.5"/>
<text text-anchor="middle" x="1247.5" y="-12.5" font-family="Helvetica,sans-Serif" font-size="10.00">src/main.cpp</text>
</a>
</g>
</g>
<!-- Node1&#45;&gt;Node16 -->
<g id="edge36_Node000001_Node000016" class="edge">
<title>Node1&#45;&gt;Node16</title>
<g id="a_edge36_Node000001_Node000016"><a xlink:title=" ">
<path fill="none" stroke="#63b8ff" d="M1269.1,-409.27C1285.85,-385.34 1308.5,-345.86 1308.5,-307.5 1308.5,-307.5 1308.5,-307.5 1308.5,-162.5 1308.5,-106.3 1269.76,-46.64 1254.03,-24.72"/>
<polygon fill="#63b8ff" stroke="#63b8ff" points="1266.07,-407.5 1263.03,-417.65 1271.74,-411.61 1266.07,-407.5"/>
</a>
</g>
</g>
<!-- Node24 -->
<g id="Node000024" class="node">
<title>Node24</title>
<g id="a_Node000024"><a xlink:href="RaytracerException_8cpp.html" target="_top" xlink:title=" ">
<polygon fill="white" stroke="#666666" points="1520,-382 1337,-382 1337,-352 1520,-352 1520,-382"/>
<text text-anchor="start" x="1345" y="-370" font-family="Helvetica,sans-Serif" font-size="10.00">src/Exceptions/Raytracer</text>
<text text-anchor="middle" x="1428.5" y="-359" font-family="Helvetica,sans-Serif" font-size="10.00">Exception/RaytracerException.cpp</text>
</a>
</g>
</g>
<!-- Node1&#45;&gt;Node24 -->
<g id="edge34_Node000001_Node000024" class="edge">
<title>Node1&#45;&gt;Node24</title>
<g id="a_edge34_Node000001_Node000024"><a xlink:title=" ">
<path fill="none" stroke="#63b8ff" d="M1300.02,-414.46C1328.26,-404.25 1363.37,-391.55 1389.75,-382.01"/>
<polygon fill="#63b8ff" stroke="#63b8ff" points="1298.56,-411.26 1290.34,-417.95 1300.94,-417.85 1298.56,-411.26"/>
</a>
</g>
</g>
<!-- Node4 -->
<g id="Node000004" class="node">
<title>Node4</title>
<g id="a_Node000004"><a xlink:href="Plugin_8hpp.html" target="_top" xlink:title=" ">
<polygon fill="white" stroke="#666666" points="688,-316 563,-316 563,-297 688,-297 688,-316"/>
<text text-anchor="middle" x="625.5" y="-304" font-family="Helvetica,sans-Serif" font-size="10.00">src/Objects/Plugin.hpp</text>
</a>
</g>
</g>
<!-- Node3&#45;&gt;Node4 -->
<g id="edge3_Node000003_Node000004" class="edge">
<title>Node3&#45;&gt;Node4</title>
<g id="a_edge3_Node000003_Node000004"><a xlink:title=" ">
<path fill="none" stroke="#63b8ff" d="M1039.67,-351.93C908.39,-335.48 767.42,-321.19 688.16,-313.47"/>
<polygon fill="#63b8ff" stroke="#63b8ff" points="1039.55,-355.44 1049.91,-353.22 1040.43,-348.5 1039.55,-355.44"/>
</a>
</g>
</g>
<!-- Node5 -->
<g id="Node000005" class="node">
<title>Node5</title>
<g id="a_Node000005"><a xlink:href="BVHCamPlugin_8cpp.html" target="_top" xlink:title=" ">
<polygon fill="white" stroke="#666666" points="396.5,-178.5 206.5,-178.5 206.5,-148.5 396.5,-148.5 396.5,-178.5"/>
<text text-anchor="start" x="214.5" y="-166.5" font-family="Helvetica,sans-Serif" font-size="10.00">src/Objects/Plugins</text>
<text text-anchor="middle" x="301.5" y="-155.5" font-family="Helvetica,sans-Serif" font-size="10.00">/BVHCamPlugin/BVHCamPlugin.cpp</text>
</a>
</g>
</g>
<!-- Node4&#45;&gt;Node5 -->
<g id="edge4_Node000004_Node000005" class="edge">
<title>Node4&#45;&gt;Node5</title>
<g id="a_edge4_Node000004_Node000005"><a xlink:title=" ">
<path fill="none" stroke="#63b8ff" d="M552.71,-297.49C516.67,-291.26 473.5,-280.28 438.5,-261 415.65,-248.41 417.25,-235.81 396.5,-220 375.38,-203.91 349.19,-188.93 329.66,-178.6"/>
<polygon fill="#63b8ff" stroke="#63b8ff" points="552.24,-300.96 562.68,-299.12 553.37,-294.05 552.24,-300.96"/>
</a>
</g>
</g>
<!-- Node6 -->
<g id="Node000006" class="node">
<title>Node6</title>
<g id="a_Node000006"><a xlink:href="CorePlugin_8cpp.html" target="_top" xlink:title="Core plugin implementation that provides primitives, materials and the camera.">
<polygon fill="white" stroke="#666666" points="188.5,-178.5 40.5,-178.5 40.5,-148.5 188.5,-148.5 188.5,-178.5"/>
<text text-anchor="start" x="48.5" y="-166.5" font-family="Helvetica,sans-Serif" font-size="10.00">src/Objects/Plugins</text>
<text text-anchor="middle" x="114.5" y="-155.5" font-family="Helvetica,sans-Serif" font-size="10.00">/CorePlugin/CorePlugin.cpp</text>
</a>
</g>
</g>
<!-- Node4&#45;&gt;Node6 -->
<g id="edge5_Node000004_Node000006" class="edge">
<title>Node4&#45;&gt;Node6</title>
<g id="a_edge5_Node000004_Node000006"><a xlink:title=" ">
<path fill="none" stroke="#63b8ff" d="M552.61,-303.73C449.56,-300.22 267.26,-289.99 208.5,-261 185.95,-249.87 187.02,-238.04 169.5,-220 155.7,-205.79 139.75,-189.74 128.6,-178.56"/>
<polygon fill="#63b8ff" stroke="#63b8ff" points="552.53,-307.23 562.64,-304.06 552.76,-300.23 552.53,-307.23"/>
</a>
</g>
</g>
<!-- Node7 -->
<g id="Node000007" class="node">
<title>Node7</title>
<g id="a_Node000007"><a xlink:href="SceneWriter_8hpp.html" target="_top" xlink:title=" ">
<polygon fill="white" stroke="#666666" points="161,-261 0,-261 0,-220 161,-220 161,-261"/>
<text text-anchor="start" x="8" y="-249" font-family="Helvetica,sans-Serif" font-size="10.00">src/Objects/Plugins</text>
<text text-anchor="start" x="8" y="-238" font-family="Helvetica,sans-Serif" font-size="10.00">/CorePlugin/Interfaces</text>
<text text-anchor="middle" x="80.5" y="-227" font-family="Helvetica,sans-Serif" font-size="10.00">/SceneWriter/SceneWriter.hpp</text>
</a>
</g>
</g>
<!-- Node4&#45;&gt;Node7 -->
<g id="edge6_Node000004_Node000007" class="edge">
<title>Node4&#45;&gt;Node7</title>
<g id="a_edge6_Node000004_Node000007"><a xlink:title=" ">
<path fill="none" stroke="#63b8ff" d="M552.62,-300.63C463.38,-294.13 307.79,-281.06 175.5,-261 170.84,-260.29 166.06,-259.51 161.25,-258.67"/>
<polygon fill="#63b8ff" stroke="#63b8ff" points="552.41,-304.13 562.64,-301.35 552.92,-297.14 552.41,-304.13"/>
</a>
</g>
</g>
<!-- Node9 -->
<g id="Node000009" class="node">
<title>Node9</title>
<g id="a_Node000009"><a xlink:href="Livescene_8hpp.html" target="_top" xlink:title=" ">
<polygon fill="white" stroke="#666666" points="597.5,-261 447.5,-261 447.5,-220 597.5,-220 597.5,-261"/>
<text text-anchor="start" x="455.5" y="-249" font-family="Helvetica,sans-Serif" font-size="10.00">src/Objects/Plugins</text>
<text text-anchor="start" x="455.5" y="-238" font-family="Helvetica,sans-Serif" font-size="10.00">/LivescenePlugin/Interfaces</text>
<text text-anchor="middle" x="522.5" y="-227" font-family="Helvetica,sans-Serif" font-size="10.00">/Livescene/Livescene.hpp</text>
</a>
</g>
</g>
<!-- Node4&#45;&gt;Node9 -->
<g id="edge9_Node000004_Node000009" class="edge">
<title>Node4&#45;&gt;Node9</title>
<g id="a_edge9_Node000004_Node000009"><a xlink:title=" ">
<path fill="none" stroke="#63b8ff" d="M602.88,-291.45C588.51,-282.52 569.71,-270.83 553.9,-261.01"/>
<polygon fill="#63b8ff" stroke="#63b8ff" points="601.27,-294.56 611.61,-296.87 604.96,-288.62 601.27,-294.56"/>
</a>
</g>
</g>
<!-- Node11 -->
<g id="Node000011" class="node">
<title>Node11</title>
<g id="a_Node000011"><a xlink:href="LivescenePlugin_8cpp.html" target="_top" xlink:title=" ">
<polygon fill="white" stroke="#666666" points="602.5,-184 452.5,-184 452.5,-143 602.5,-143 602.5,-184"/>
<text text-anchor="start" x="460.5" y="-172" font-family="Helvetica,sans-Serif" font-size="10.00">src/Objects/Plugins</text>
<text text-anchor="start" x="460.5" y="-161" font-family="Helvetica,sans-Serif" font-size="10.00">/LivescenePlugin/Livescene</text>
<text text-anchor="middle" x="527.5" y="-150" font-family="Helvetica,sans-Serif" font-size="10.00">Plugin.cpp</text>
</a>
</g>
</g>
<!-- Node4&#45;&gt;Node11 -->
<g id="edge12_Node000004_Node000011" class="edge">
<title>Node4&#45;&gt;Node11</title>
<g id="a_edge12_Node000004_Node000011"><a xlink:title=" ">
<path fill="none" stroke="#63b8ff" d="M625.16,-286.64C624,-268.22 619.92,-240.11 606.5,-220 596.64,-205.22 581.4,-193.17 566.92,-184.11"/>
<polygon fill="#63b8ff" stroke="#63b8ff" points="621.67,-286.84 625.57,-296.69 628.66,-286.56 621.67,-286.84"/>
</a>
</g>
</g>
<!-- Node12 -->
<g id="Node000012" class="node">
<title>Node12</title>
<g id="a_Node000012"><a xlink:href="Parser_8hpp.html" target="_top" xlink:title=" ">
<polygon fill="white" stroke="#666666" points="1094.5,-255.5 930.5,-255.5 930.5,-225.5 1094.5,-225.5 1094.5,-255.5"/>
<text text-anchor="start" x="938.5" y="-243.5" font-family="Helvetica,sans-Serif" font-size="10.00">src/SceneSystem/ConfigParser</text>
<text text-anchor="middle" x="1012.5" y="-232.5" font-family="Helvetica,sans-Serif" font-size="10.00">/Parser.hpp</text>
</a>
</g>
</g>
<!-- Node4&#45;&gt;Node12 -->
<g id="edge13_Node000004_Node000012" class="edge">
<title>Node4&#45;&gt;Node12</title>
<g id="a_edge13_Node000004_Node000012"><a xlink:title=" ">
<path fill="none" stroke="#63b8ff" d="M694.11,-295.46C751.9,-286.84 836.72,-273.81 910.5,-261 920.27,-259.3 930.55,-257.44 940.67,-255.55"/>
<polygon fill="#63b8ff" stroke="#63b8ff" points="693.38,-292.03 684,-296.96 694.41,-298.95 693.38,-292.03"/>
</a>
</g>
</g>
<!-- Node4&#45;&gt;Node16 -->
<g id="edge33_Node000004_Node000016" class="edge">
<title>Node4&#45;&gt;Node16</title>
<g id="a_edge33_Node000004_Node000016"><a xlink:title=" ">
<path fill="none" stroke="#63b8ff" d="M698.41,-303.27C813.35,-298.99 1031.06,-287.59 1103.5,-261 1159.52,-240.44 1180.8,-233.92 1213.5,-184 1248.07,-131.23 1248.7,-50.65 1247.9,-24.51"/>
<polygon fill="#63b8ff" stroke="#63b8ff" points="698.15,-299.78 688.29,-303.64 698.41,-306.77 698.15,-299.78"/>
</a>
</g>
</g>
<!-- Node17 -->
<g id="Node000017" class="node">
<title>Node17</title>
<g id="a_Node000017"><a xlink:href="PluginManager_8hpp.html" target="_top" xlink:title="Plugin loader interface for dynamic plugins.">
<polygon fill="white" stroke="#666666" points="901.5,-255.5 725.5,-255.5 725.5,-225.5 901.5,-225.5 901.5,-255.5"/>
<text text-anchor="start" x="733.5" y="-243.5" font-family="Helvetica,sans-Serif" font-size="10.00">src/SceneSystem/PluginManager</text>
<text text-anchor="middle" x="813.5" y="-232.5" font-family="Helvetica,sans-Serif" font-size="10.00">/PluginManager.hpp</text>
</a>
</g>
</g>
<!-- Node4&#45;&gt;Node17 -->
<g id="edge18_Node000004_Node000017" class="edge">
<title>Node4&#45;&gt;Node17</title>
<g id="a_edge18_Node000004_Node000017"><a xlink:title=" ">
<path fill="none" stroke="#63b8ff" d="M660.55,-293.57C692.14,-282.81 738.61,-266.99 772.04,-255.62"/>
<polygon fill="#63b8ff" stroke="#63b8ff" points="659.19,-290.33 650.85,-296.87 661.45,-296.96 659.19,-290.33"/>
</a>
</g>
</g>
<!-- Node19 -->
<g id="Node000019" class="node">
<title>Node19</title>
<g id="a_Node000019"><a xlink:href="Scene_8hpp.html" target="_top" xlink:title="Scene container and ray query interface used by renderers.">
<polygon fill="white" stroke="#666666" points="752.5,-178.5 620.5,-178.5 620.5,-148.5 752.5,-148.5 752.5,-178.5"/>
<text text-anchor="start" x="628.5" y="-166.5" font-family="Helvetica,sans-Serif" font-size="10.00">src/SceneSystem/Scene</text>
<text text-anchor="middle" x="686.5" y="-155.5" font-family="Helvetica,sans-Serif" font-size="10.00">/Scene.hpp</text>
</a>
</g>
</g>
<!-- Node4&#45;&gt;Node19 -->
<g id="edge29_Node000004_Node000019" class="edge">
<title>Node4&#45;&gt;Node19</title>
<g id="a_edge29_Node000004_Node000019"><a xlink:title=" ">
<path fill="none" stroke="#63b8ff" d="M633.29,-287.49C645.6,-259.04 669.28,-204.29 680.43,-178.54"/>
<polygon fill="#63b8ff" stroke="#63b8ff" points="630.07,-286.11 629.32,-296.68 636.5,-288.89 630.07,-286.11"/>
</a>
</g>
</g>
<!-- Node23 -->
<g id="Node000023" class="node">
<title>Node23</title>
<g id="a_Node000023"><a xlink:href="SceneNodeHelpers_8hpp.html" target="_top" xlink:title=" ">
<polygon fill="white" stroke="#666666" points="387.5,-255.5 217.5,-255.5 217.5,-225.5 387.5,-225.5 387.5,-255.5"/>
<text text-anchor="start" x="225.5" y="-243.5" font-family="Helvetica,sans-Serif" font-size="10.00">src/SceneSystem/SceneNode</text>
<text text-anchor="middle" x="302.5" y="-232.5" font-family="Helvetica,sans-Serif" font-size="10.00">Helpers/SceneNodeHelpers.hpp</text>
</a>
</g>
</g>
<!-- Node4&#45;&gt;Node23 -->
<g id="edge30_Node000004_Node000023" class="edge">
<title>Node4&#45;&gt;Node23</title>
<g id="a_edge30_Node000004_Node000023"><a xlink:title=" ">
<path fill="none" stroke="#63b8ff" d="M572.16,-294.93C517.81,-284.16 433.21,-267.4 373.28,-255.52"/>
<polygon fill="#63b8ff" stroke="#63b8ff" points="571.78,-298.42 582.27,-296.94 573.14,-291.56 571.78,-298.42"/>
</a>
</g>
</g>
<!-- Node7&#45;&gt;Node6 -->
<g id="edge7_Node000007_Node000006" class="edge">
<title>Node7&#45;&gt;Node6</title>
<g id="a_edge7_Node000007_Node000006"><a xlink:title=" ">
<path fill="none" stroke="#63b8ff" d="M93.6,-210.6C98.53,-199.73 103.92,-187.84 107.99,-178.86"/>
<polygon fill="#63b8ff" stroke="#63b8ff" points="90.37,-209.24 89.43,-219.79 96.75,-212.13 90.37,-209.24"/>
</a>
</g>
</g>
<!-- Node8 -->
<g id="Node000008" class="node">
<title>Node8</title>
<g id="a_Node000008"><a xlink:href="SceneWriter_8cpp.html" target="_top" xlink:title=" ">
<polygon fill="white" stroke="#666666" points="206,-107 45,-107 45,-66 206,-66 206,-107"/>
<text text-anchor="start" x="53" y="-95" font-family="Helvetica,sans-Serif" font-size="10.00">src/Objects/Plugins</text>
<text text-anchor="start" x="53" y="-84" font-family="Helvetica,sans-Serif" font-size="10.00">/CorePlugin/Interfaces</text>
<text text-anchor="middle" x="125.5" y="-73" font-family="Helvetica,sans-Serif" font-size="10.00">/SceneWriter/SceneWriter.cpp</text>
</a>
</g>
</g>
<!-- Node7&#45;&gt;Node8 -->
<g id="edge8_Node000007_Node000008" class="edge">
<title>Node7&#45;&gt;Node8</title>
<g id="a_edge8_Node000007_Node000008"><a xlink:title=" ">
<path fill="none" stroke="#63b8ff" d="M49.88,-212.63C42.43,-204.28 35.47,-194.49 31.5,-184 25.05,-166.96 22.47,-158.83 31.5,-143 40.43,-127.36 55.67,-115.69 71.32,-107.19"/>
<polygon fill="#63b8ff" stroke="#63b8ff" points="47.35,-215.05 56.78,-219.87 52.41,-210.21 47.35,-215.05"/>
</a>
</g>
</g>
<!-- Node10 -->
<g id="Node000010" class="node">
<title>Node10</title>
<g id="a_Node000010"><a xlink:href="Livescene_8cpp.html" target="_top" xlink:title=" ">
<polygon fill="white" stroke="#666666" points="464.5,-107 314.5,-107 314.5,-66 464.5,-66 464.5,-107"/>
<text text-anchor="start" x="322.5" y="-95" font-family="Helvetica,sans-Serif" font-size="10.00">src/Objects/Plugins</text>
<text text-anchor="start" x="322.5" y="-84" font-family="Helvetica,sans-Serif" font-size="10.00">/LivescenePlugin/Interfaces</text>
<text text-anchor="middle" x="389.5" y="-73" font-family="Helvetica,sans-Serif" font-size="10.00">/Livescene/Livescene.cpp</text>
</a>
</g>
</g>
<!-- Node9&#45;&gt;Node10 -->
<g id="edge10_Node000009_Node000010" class="edge">
<title>Node9&#45;&gt;Node10</title>
<g id="a_edge10_Node000009_Node000010"><a xlink:title=" ">
<path fill="none" stroke="#63b8ff" d="M479.09,-214.16C466.66,-205.61 453.72,-195.32 443.5,-184 422.53,-160.77 406.37,-128 397.4,-107.26"/>
<polygon fill="#63b8ff" stroke="#63b8ff" points="477.31,-217.18 487.57,-219.8 481.18,-211.35 477.31,-217.18"/>
</a>
</g>
</g>
<!-- Node9&#45;&gt;Node11 -->
<g id="edge11_Node000009_Node000011" class="edge">
<title>Node9&#45;&gt;Node11</title>
<g id="a_edge11_Node000009_Node000011"><a xlink:title=" ">
<path fill="none" stroke="#63b8ff" d="M524.49,-209.69C525.06,-201.08 525.67,-191.9 526.2,-184.07"/>
<polygon fill="#63b8ff" stroke="#63b8ff" points="520.99,-209.58 523.81,-219.79 527.97,-210.05 520.99,-209.58"/>
</a>
</g>
</g>
<!-- Node13 -->
<g id="Node000013" class="node">
<title>Node13</title>
<g id="a_Node000013"><a xlink:href="Parser_8cpp.html" target="_top" xlink:title=" ">
<polygon fill="white" stroke="#666666" points="1204.5,-178.5 1040.5,-178.5 1040.5,-148.5 1204.5,-148.5 1204.5,-178.5"/>
<text text-anchor="start" x="1048.5" y="-166.5" font-family="Helvetica,sans-Serif" font-size="10.00">src/SceneSystem/ConfigParser</text>
<text text-anchor="middle" x="1122.5" y="-155.5" font-family="Helvetica,sans-Serif" font-size="10.00">/Parser.cpp</text>
</a>
</g>
</g>
<!-- Node12&#45;&gt;Node13 -->
<g id="edge14_Node000012_Node000013" class="edge">
<title>Node12&#45;&gt;Node13</title>
<g id="a_edge14_Node000012_Node000013"><a xlink:title=" ">
<path fill="none" stroke="#63b8ff" d="M1041.5,-219.73C1060.5,-206.78 1084.87,-190.15 1101.9,-178.54"/>
<polygon fill="#63b8ff" stroke="#63b8ff" points="1039.48,-216.87 1033.19,-225.39 1043.42,-222.65 1039.48,-216.87"/>
</a>
</g>
</g>
<!-- Node12&#45;&gt;Node14 -->
<g id="edge15_Node000012_Node000014" class="edge">
<title>Node12&#45;&gt;Node14</title>
<g id="a_edge15_Node000012_Node000014"><a xlink:title=" ">
<path fill="none" stroke="#63b8ff" d="M1015.2,-215.37C1017.91,-195.51 1022.93,-166.86 1031.5,-143 1036.83,-128.16 1045.66,-112.45 1052.36,-101.55"/>
<polygon fill="#63b8ff" stroke="#63b8ff" points="1011.71,-215.04 1013.93,-225.4 1018.66,-215.92 1011.71,-215.04"/>
</a>
</g>
</g>
<!-- Node15 -->
<g id="Node000015" class="node">
<title>Node15</title>
<g id="a_Node000015"><a xlink:href="SceneLoader_8cpp.html" target="_top" xlink:title="Scene parsing and construction from configuration nodes.">
<polygon fill="white" stroke="#666666" points="1144,-30 979,-30 979,0 1144,0 1144,-30"/>
<text text-anchor="start" x="987" y="-18" font-family="Helvetica,sans-Serif" font-size="10.00">src/SceneSystem/SceneLoader</text>
<text text-anchor="middle" x="1061.5" y="-7" font-family="Helvetica,sans-Serif" font-size="10.00">/SceneLoader.cpp</text>
</a>
</g>
</g>
<!-- Node14&#45;&gt;Node15 -->
<g id="edge16_Node000014_Node000015" class="edge">
<title>Node14&#45;&gt;Node15</title>
<g id="a_edge16_Node000014_Node000015"><a xlink:title=" ">
<path fill="none" stroke="#63b8ff" d="M1061.5,-61.25C1061.5,-50.81 1061.5,-38.99 1061.5,-30.04"/>
<polygon fill="#63b8ff" stroke="#63b8ff" points="1058,-61.44 1061.5,-71.44 1065,-61.44 1058,-61.44"/>
</a>
</g>
</g>
<!-- Node14&#45;&gt;Node16 -->
<g id="edge17_Node000014_Node000016" class="edge">
<title>Node14&#45;&gt;Node16</title>
<g id="a_edge17_Node000014_Node000016"><a xlink:title=" ">
<path fill="none" stroke="#63b8ff" d="M1108.75,-67.85C1145.82,-53.99 1195.82,-35.31 1224.57,-24.57"/>
<polygon fill="#63b8ff" stroke="#63b8ff" points="1107.28,-64.66 1099.14,-71.44 1109.73,-71.21 1107.28,-64.66"/>
</a>
</g>
</g>
<!-- Node17&#45;&gt;Node14 -->
<g id="edge28_Node000017_Node000014" class="edge">
<title>Node17&#45;&gt;Node14</title>
<g id="a_edge28_Node000017_Node000014"><a xlink:title=" ">
<path fill="none" stroke="#63b8ff" d="M871.51,-222.23C898.17,-212.96 929.56,-200.1 955.5,-184 993.56,-160.37 1030.5,-122.26 1049.08,-101.72"/>
<polygon fill="#63b8ff" stroke="#63b8ff" points="870.27,-218.95 861.92,-225.48 872.51,-225.58 870.27,-218.95"/>
</a>
</g>
</g>
<!-- Node18 -->
<g id="Node000018" class="node">
<title>Node18</title>
<g id="a_Node000018"><a xlink:href="PluginManager_8cpp.html" target="_top" xlink:title="Runtime plugin loader and initializer registry implementation.">
<polygon fill="white" stroke="#666666" points="946.5,-178.5 770.5,-178.5 770.5,-148.5 946.5,-148.5 946.5,-178.5"/>
<text text-anchor="start" x="778.5" y="-166.5" font-family="Helvetica,sans-Serif" font-size="10.00">src/SceneSystem/PluginManager</text>
<text text-anchor="middle" x="858.5" y="-155.5" font-family="Helvetica,sans-Serif" font-size="10.00">/PluginManager.cpp</text>
</a>
</g>
</g>
<!-- Node17&#45;&gt;Node18 -->
<g id="edge19_Node000017_Node000018" class="edge">
<title>Node17&#45;&gt;Node18</title>
<g id="a_edge19_Node000017_Node000018"><a xlink:title=" ">
<path fill="none" stroke="#63b8ff" d="M827.29,-216.51C834.73,-204.11 843.67,-189.21 850.07,-178.54"/>
<polygon fill="#63b8ff" stroke="#63b8ff" points="824.11,-215.02 821.96,-225.39 830.11,-218.62 824.11,-215.02"/>
</a>
</g>
</g>
<!-- Node17&#45;&gt;Node19 -->
<g id="edge20_Node000017_Node000019" class="edge">
<title>Node17&#45;&gt;Node19</title>
<g id="a_edge20_Node000017_Node000019"><a xlink:title=" ">
<path fill="none" stroke="#63b8ff" d="M780.91,-220.25C758.85,-207.23 730.21,-190.31 710.28,-178.54"/>
<polygon fill="#63b8ff" stroke="#63b8ff" points="779.22,-223.32 789.61,-225.39 782.78,-217.29 779.22,-223.32"/>
</a>
</g>
</g>
<!-- Node19&#45;&gt;Node8 -->
<g id="edge22_Node000019_Node000008" class="edge">
<title>Node19&#45;&gt;Node8</title>
<g id="a_edge22_Node000019_Node000008"><a xlink:title=" ">
<path fill="none" stroke="#63b8ff" d="M626.17,-146.03C621.23,-144.92 616.29,-143.89 611.5,-143 591.88,-139.35 338.97,-111.13 206,-96.39"/>
<polygon fill="#63b8ff" stroke="#63b8ff" points="625.75,-149.53 636.29,-148.41 627.35,-142.71 625.75,-149.53"/>
</a>
</g>
</g>
<!-- Node19&#45;&gt;Node10 -->
<g id="edge24_Node000019_Node000010" class="edge">
<title>Node19&#45;&gt;Node10</title>
<g id="a_edge24_Node000019_Node000010"><a xlink:title=" ">
<path fill="none" stroke="#63b8ff" d="M623.08,-145.97C619.16,-144.96 615.28,-143.96 611.5,-143 562.61,-130.53 507.59,-116.78 464.56,-106.08"/>
<polygon fill="#63b8ff" stroke="#63b8ff" points="622.29,-149.38 632.85,-148.48 624.04,-142.6 622.29,-149.38"/>
</a>
</g>
</g>
<!-- Node19&#45;&gt;Node14 -->
<g id="edge26_Node000019_Node000014" class="edge">
<title>Node19&#45;&gt;Node14</title>
<g id="a_edge26_Node000019_Node000014"><a xlink:title=" ">
<path fill="none" stroke="#63b8ff" d="M748.23,-146.04C752.71,-144.97 757.17,-143.95 761.5,-143 851.02,-123.46 874.47,-124.03 964.5,-107 973.61,-105.28 983.2,-103.41 992.65,-101.54"/>
<polygon fill="#63b8ff" stroke="#63b8ff" points="747.3,-142.66 738.42,-148.43 748.96,-149.46 747.3,-142.66"/>
</a>
</g>
</g>
<!-- Node19&#45;&gt;Node16 -->
<g id="edge27_Node000019_Node000016" class="edge">
<title>Node19&#45;&gt;Node16</title>
<g id="a_edge27_Node000019_Node000016"><a xlink:title=" ">
<path fill="none" stroke="#63b8ff" d="M749.09,-146C753.28,-144.96 757.45,-143.96 761.5,-143 836.67,-125.28 864.08,-144.67 931.5,-107 953.45,-94.73 948.36,-77.94 970.5,-66 991.12,-54.88 1136.26,-32.37 1207.81,-21.77"/>
<polygon fill="#63b8ff" stroke="#63b8ff" points="748.13,-142.63 739.28,-148.45 749.83,-149.42 748.13,-142.63"/>
</a>
</g>
</g>
<!-- Node20 -->
<g id="Node000020" class="node">
<title>Node20</title>
<g id="a_Node000020"><a xlink:href="BVHCam_8cpp.html" target="_top" xlink:title=" ">
<polygon fill="white" stroke="#666666" points="628.5,-107 482.5,-107 482.5,-66 628.5,-66 628.5,-107"/>
<text text-anchor="start" x="490.5" y="-95" font-family="Helvetica,sans-Serif" font-size="10.00">src/Objects/Plugins</text>
<text text-anchor="start" x="490.5" y="-84" font-family="Helvetica,sans-Serif" font-size="10.00">/BVHCamPlugin/Renderers</text>
<text text-anchor="middle" x="555.5" y="-73" font-family="Helvetica,sans-Serif" font-size="10.00">/BVHCam.cpp</text>
</a>
</g>
</g>
<!-- Node19&#45;&gt;Node20 -->
<g id="edge21_Node000019_Node000020" class="edge">
<title>Node19&#45;&gt;Node20</title>
<g id="a_edge21_Node000019_Node000020"><a xlink:title=" ">
<path fill="none" stroke="#63b8ff" d="M653.08,-143.37C633.73,-132.29 609.43,-118.38 589.92,-107.2"/>
<polygon fill="#63b8ff" stroke="#63b8ff" points="651.44,-146.46 661.86,-148.39 654.92,-140.39 651.44,-146.46"/>
</a>
</g>
</g>
<!-- Node21 -->
<g id="Node000021" class="node">
<title>Node21</title>
<g id="a_Node000021"><a xlink:href="Camera_8cpp.html" target="_top" xlink:title="Implementation of the RayTracer::BVHCam renderer.">
<polygon fill="white" stroke="#666666" points="772,-107 647,-107 647,-66 772,-66 772,-107"/>
<text text-anchor="start" x="655" y="-95" font-family="Helvetica,sans-Serif" font-size="10.00">src/Objects/Plugins</text>
<text text-anchor="start" x="655" y="-84" font-family="Helvetica,sans-Serif" font-size="10.00">/CorePlugin/Renderers</text>
<text text-anchor="middle" x="709.5" y="-73" font-family="Helvetica,sans-Serif" font-size="10.00">/Camera/Camera.cpp</text>
</a>
</g>
</g>
<!-- Node19&#45;&gt;Node21 -->
<g id="edge23_Node000019_Node000021" class="edge">
<title>Node19&#45;&gt;Node21</title>
<g id="a_edge23_Node000019_Node000021"><a xlink:title=" ">
<path fill="none" stroke="#63b8ff" d="M693.84,-138.55C696.94,-128.44 700.51,-116.81 703.46,-107.2"/>
<polygon fill="#63b8ff" stroke="#63b8ff" points="690.41,-137.81 690.83,-148.39 697.1,-139.86 690.41,-137.81"/>
</a>
</g>
</g>
<!-- Node22 -->
<g id="Node000022" class="node">
<title>Node22</title>
<g id="a_Node000022"><a xlink:href="Scene_8cpp.html" target="_top" xlink:title="Implementation of the RayTracer::Scene container and utilities.">
<polygon fill="white" stroke="#666666" points="922.5,-101.5 790.5,-101.5 790.5,-71.5 922.5,-71.5 922.5,-101.5"/>
<text text-anchor="start" x="798.5" y="-89.5" font-family="Helvetica,sans-Serif" font-size="10.00">src/SceneSystem/Scene</text>
<text text-anchor="middle" x="856.5" y="-78.5" font-family="Helvetica,sans-Serif" font-size="10.00">/Scene.cpp</text>
</a>
</g>
</g>
<!-- Node19&#45;&gt;Node22 -->
<g id="edge25_Node000019_Node000022" class="edge">
<title>Node19&#45;&gt;Node22</title>
<g id="a_edge25_Node000019_Node000022"><a xlink:title=" ">
<path fill="none" stroke="#63b8ff" d="M727.78,-144.29C757.6,-131.13 797.29,-113.62 824.67,-101.54"/>
<polygon fill="#63b8ff" stroke="#63b8ff" points="726.21,-141.15 718.48,-148.39 729.04,-147.56 726.21,-141.15"/>
</a>
</g>
</g>
<!-- Node23&#45;&gt;Node5 -->
<g id="edge31_Node000023_Node000005" class="edge">
<title>Node23&#45;&gt;Node5</title>
<g id="a_edge31_Node000023_Node000005"><a xlink:title=" ">
<path fill="none" stroke="#63b8ff" d="M302.17,-215.04C302.01,-202.95 301.82,-188.79 301.69,-178.54"/>
<polygon fill="#63b8ff" stroke="#63b8ff" points="298.68,-215.44 302.31,-225.39 305.68,-215.35 298.68,-215.44"/>
</a>
</g>
</g>
<!-- Node23&#45;&gt;Node6 -->
<g id="edge32_Node000023_Node000006" class="edge">
<title>Node23&#45;&gt;Node6</title>
<g id="a_edge32_Node000023_Node000006"><a xlink:title=" ">
<path fill="none" stroke="#63b8ff" d="M257.7,-221.63C224.63,-208.43 180.25,-190.73 149.7,-178.54"/>
<polygon fill="#63b8ff" stroke="#63b8ff" points="256.55,-224.94 267.14,-225.39 259.15,-218.44 256.55,-224.94"/>
</a>
</g>
</g>
</g>
</svg>
