<?xml version="1.0" encoding="UTF-8" standalone="no"?>
<!DOCTYPE svg PUBLIC "-//W3C//DTD SVG 1.1//EN"
 "http://www.w3.org/Graphics/SVG/1.1/DTD/svg11.dtd">
<!-- Generated by graphviz version 2.43.0 (0)
 -->
<!-- Title: src/Exceptions/RaytracerException/RaytracerException.hpp Pages: 1 -->
<svg width="355pt" height="214pt"
 viewBox="0.00 0.00 355.00 214.00" xmlns="http://www.w3.org/2000/svg" xmlns:xlink="http://www.w3.org/1999/xlink">
<g id="graph0" class="graph" transform="scale(1 1) rotate(0) translate(4 210)">
<title>src/Exceptions/RaytracerException/RaytracerException.hpp</title>
<!-- Node1 -->
<g id="Node000001" class="node">
<title>Node1</title>
<g id="a_Node000001"><a xlink:title=" ">
<polygon fill="#999999" stroke="#666666" points="270.5,-206 86.5,-206 86.5,-176 270.5,-176 270.5,-206"/>
<text text-anchor="start" x="94.5" y="-194" font-family="Helvetica,sans-Serif" font-size="10.00">src/Exceptions/Raytracer</text>
<text text-anchor="middle" x="178.5" y="-183" font-family="Helvetica,sans-Serif" font-size="10.00">Exception/RaytracerException.hpp</text>
</a>
</g>
</g>
<!-- Node2 -->
<g id="Node000002" class="node">
<title>Node2</title>
<g id="a_Node000002"><a xlink:href="RaytracerException_8cpp.html" target="_top" xlink:title=" ">
<polygon fill="white" stroke="#666666" points="183,-140 0,-140 0,-110 183,-110 183,-140"/>
<text text-anchor="start" x="8" y="-128" font-family="Helvetica,sans-Serif" font-size="10.00">src/Exceptions/Raytracer</text>
<text text-anchor="middle" x="91.5" y="-117" font-family="Helvetica,sans-Serif" font-size="10.00">Exception/RaytracerException.cpp</text>
</a>
</g>
</g>
<!-- Node1&#45;&gt;Node2 -->
<g id="edge1_Node000001_Node000002" class="edge">
<title>Node1&#45;&gt;Node2</title>
<g id="a_edge1_Node000001_Node000002"><a xlink:title=" ">
<path fill="none" stroke="#63b8ff" d="M150.98,-169.75C137.89,-160.13 122.57,-148.86 110.75,-140.16"/>
<polygon fill="#63b8ff" stroke="#63b8ff" points="149.06,-172.69 159.19,-175.8 153.21,-167.05 149.06,-172.69"/>
</a>
</g>
</g>
<!-- Node3 -->
<g id="Node000003" class="node">
<title>Node3</title>
<g id="a_Node000003"><a xlink:href="IPlugin_8hpp.html" target="_top" xlink:title=" ">
<polygon fill="white" stroke="#666666" points="329.5,-134.5 201.5,-134.5 201.5,-115.5 329.5,-115.5 329.5,-134.5"/>
<text text-anchor="middle" x="265.5" y="-122.5" font-family="Helvetica,sans-Serif" font-size="10.00">src/Objects/IPlugin.hpp</text>
</a>
</g>
</g>
<!-- Node1&#45;&gt;Node3 -->
<g id="edge2_Node000001_Node000003" class="edge">
<title>Node1&#45;&gt;Node3</title>
<g id="a_edge2_Node000001_Node000003"><a xlink:title=" ">
<path fill="none" stroke="#63b8ff" d="M206.3,-169.55C222.32,-157.76 241.62,-143.57 253.73,-134.66"/>
<polygon fill="#63b8ff" stroke="#63b8ff" points="203.79,-167.05 197.81,-175.8 207.94,-172.69 203.79,-167.05"/>
</a>
</g>
</g>
<!-- Node4 -->
<g id="Node000004" class="node">
<title>Node4</title>
<g id="a_Node000004"><a xlink:href="CorePlugin_8hpp.html" target="_top" xlink:title=" ">
<polygon fill="white" stroke="#666666" points="347,-74 184,-74 184,-55 347,-55 347,-74"/>
<text text-anchor="middle" x="265.5" y="-62" font-family="Helvetica,sans-Serif" font-size="10.00">src/CorePlugin/CorePlugin.hpp</text>
</a>
</g>
</g>
<!-- Node3&#45;&gt;Node4 -->
<g id="edge3_Node000003_Node000004" class="edge">
<title>Node3&#45;&gt;Node4</title>
<g id="a_edge3_Node000003_Node000004"><a xlink:title=" ">
<path fill="none" stroke="#63b8ff" d="M265.5,-105.16C265.5,-94.74 265.5,-82.3 265.5,-74.17"/>
<polygon fill="#63b8ff" stroke="#63b8ff" points="262,-105.37 265.5,-115.37 269,-105.37 262,-105.37"/>
</a>
</g>
</g>
<!-- Node5 -->
<g id="Node000005" class="node">
<title>Node5</title>
<g id="a_Node000005"><a xlink:href="CorePlugin_8cpp.html" target="_top" xlink:title=" ">
<polygon fill="white" stroke="#666666" points="346.5,-19 184.5,-19 184.5,0 346.5,0 346.5,-19"/>
<text text-anchor="middle" x="265.5" y="-7" font-family="Helvetica,sans-Serif" font-size="10.00">src/CorePlugin/CorePlugin.cpp</text>
</a>
</g>
</g>
<!-- Node4&#45;&gt;Node5 -->
<g id="edge4_Node000004_Node000005" class="edge">
<title>Node4&#45;&gt;Node5</title>
<g id="a_edge4_Node000004_Node000005"><a xlink:title=" ">
<path fill="none" stroke="#63b8ff" d="M265.5,-44.66C265.5,-35.93 265.5,-25.99 265.5,-19.09"/>
<polygon fill="#63b8ff" stroke="#63b8ff" points="262,-44.75 265.5,-54.75 269,-44.75 262,-44.75"/>
</a>
</g>
</g>
</g>
</svg>
