<?xml version="1.0" encoding="UTF-8" standalone="no"?>
<!DOCTYPE svg PUBLIC "-//W3C//DTD SVG 1.1//EN"
 "http://www.w3.org/Graphics/SVG/1.1/DTD/svg11.dtd">
<!-- Generated by graphviz version 2.43.0 (0)
 -->
<!-- Title: src/Exceptions/RaytracerException/RaytracerException.hpp Pages: 1 -->
<svg width="1412pt" height="445pt"
 viewBox="0.00 0.00 1411.50 445.00" xmlns="http://www.w3.org/2000/svg" xmlns:xlink="http://www.w3.org/1999/xlink">
<g id="graph0" class="graph" transform="scale(1 1) rotate(0) translate(4 441)">
<title>src/Exceptions/RaytracerException/RaytracerException.hpp</title>
<!-- Node1 -->
<g id="Node000001" class="node">
<title>Node1</title>
<g id="a_Node000001"><a xlink:title=" ">
<polygon fill="#999999" stroke="#666666" points="911,-437 727,-437 727,-407 911,-407 911,-437"/>
<text text-anchor="start" x="735" y="-425" font-family="Helvetica,sans-Serif" font-size="10.00">src/Exceptions/Raytracer</text>
<text text-anchor="middle" x="819" y="-414" font-family="Helvetica,sans-Serif" font-size="10.00">Exception/RaytracerException.hpp</text>
</a>
</g>
</g>
<!-- Node2 -->
<g id="Node000002" class="node">
<title>Node2</title>
<g id="a_Node000002"><a xlink:href="DivisionByZeroException_8hpp.html" target="_top" xlink:title=" ">
<polygon fill="white" stroke="#666666" points="234,-371 0,-371 0,-341 234,-341 234,-371"/>
<text text-anchor="start" x="8" y="-359" font-family="Helvetica,sans-Serif" font-size="10.00">src/Exceptions/DivisionBy</text>
<text text-anchor="middle" x="117" y="-348" font-family="Helvetica,sans-Serif" font-size="10.00">ZeroException/DivisionByZeroException.hpp</text>
</a>
</g>
</g>
<!-- Node1&#45;&gt;Node2 -->
<g id="edge1_Node000001_Node000002" class="edge">
<title>Node1&#45;&gt;Node2</title>
<g id="a_edge1_Node000001_Node000002"><a xlink:title=" ">
<path fill="none" stroke="#63b8ff" d="M716.84,-412.65C602.55,-403.16 411.92,-386.93 248,-371 243.45,-370.56 238.81,-370.1 234.12,-369.63"/>
<polygon fill="#63b8ff" stroke="#63b8ff" points="716.72,-416.15 726.98,-413.49 717.3,-409.17 716.72,-416.15"/>
</a>
</g>
</g>
<!-- Node3 -->
<g id="Node000003" class="node">
<title>Node3</title>
<g id="a_Node000003"><a xlink:href="ParsingException_8hpp.html" target="_top" xlink:title=" ">
<polygon fill="white" stroke="#666666" points="905.5,-371 732.5,-371 732.5,-341 905.5,-341 905.5,-371"/>
<text text-anchor="start" x="740.5" y="-359" font-family="Helvetica,sans-Serif" font-size="10.00">src/Exceptions/ParsingException</text>
<text text-anchor="middle" x="819" y="-348" font-family="Helvetica,sans-Serif" font-size="10.00">/ParsingException.hpp</text>
</a>
</g>
</g>
<!-- Node1&#45;&gt;Node3 -->
<g id="edge2_Node000001_Node000003" class="edge">
<title>Node1&#45;&gt;Node3</title>
<g id="a_edge2_Node000001_Node000003"><a xlink:title=" ">
<path fill="none" stroke="#63b8ff" d="M819,-396.54C819,-387.96 819,-378.61 819,-371.16"/>
<polygon fill="#63b8ff" stroke="#63b8ff" points="815.5,-396.8 819,-406.8 822.5,-396.8 815.5,-396.8"/>
</a>
</g>
</g>
<!-- Node10 -->
<g id="Node000010" class="node">
<title>Node10</title>
<g id="a_Node000010"><a xlink:href="SceneLoader_8hpp.html" target="_top" xlink:title=" ">
<polygon fill="white" stroke="#666666" points="602.5,-101.5 437.5,-101.5 437.5,-71.5 602.5,-71.5 602.5,-101.5"/>
<text text-anchor="start" x="445.5" y="-89.5" font-family="Helvetica,sans-Serif" font-size="10.00">src/SceneSystem/SceneLoader</text>
<text text-anchor="middle" x="520" y="-78.5" font-family="Helvetica,sans-Serif" font-size="10.00">/SceneLoader.hpp</text>
</a>
</g>
</g>
<!-- Node1&#45;&gt;Node10 -->
<g id="edge27_Node000001_Node000010" class="edge">
<title>Node1&#45;&gt;Node10</title>
<g id="a_edge27_Node000001_Node000010"><a xlink:title=" ">
<path fill="none" stroke="#63b8ff" d="M716.31,-418.81C555.39,-412.57 262,-388.55 262,-296.5 262,-296.5 262,-296.5 262,-228.5 262,-184.92 275.54,-169.68 310,-143 346.3,-114.89 395.57,-100.97 437.27,-94.09"/>
<polygon fill="#63b8ff" stroke="#63b8ff" points="716.59,-422.33 726.71,-419.2 716.85,-415.33 716.59,-422.33"/>
</a>
</g>
</g>
<!-- Node12 -->
<g id="Node000012" class="node">
<title>Node12</title>
<g id="a_Node000012"><a xlink:href="main_8cpp.html" target="_top" xlink:title=" ">
<polygon fill="white" stroke="#666666" points="940.5,-24.5 861.5,-24.5 861.5,-5.5 940.5,-5.5 940.5,-24.5"/>
<text text-anchor="middle" x="901" y="-12.5" font-family="Helvetica,sans-Serif" font-size="10.00">src/main.cpp</text>
</a>
</g>
</g>
<!-- Node1&#45;&gt;Node12 -->
<g id="edge28_Node000001_Node000012" class="edge">
<title>Node1&#45;&gt;Node12</title>
<g id="a_edge28_Node000001_Node000012"><a xlink:title=" ">
<path fill="none" stroke="#63b8ff" d="M921.39,-407.23C1031.82,-389.44 1192,-353.76 1192,-296.5 1192,-296.5 1192,-296.5 1192,-157 1192,-113.98 1191.71,-93.95 1159,-66 1126.66,-38.36 1004.51,-24.46 940.57,-18.94"/>
<polygon fill="#63b8ff" stroke="#63b8ff" points="920.53,-403.83 911.2,-408.85 921.63,-410.74 920.53,-403.83"/>
</a>
</g>
</g>
<!-- Node19 -->
<g id="Node000019" class="node">
<title>Node19</title>
<g id="a_Node000019"><a xlink:href="RaytracerException_8cpp.html" target="_top" xlink:title=" ">
<polygon fill="white" stroke="#666666" points="1403.5,-371 1220.5,-371 1220.5,-341 1403.5,-341 1403.5,-371"/>
<text text-anchor="start" x="1228.5" y="-359" font-family="Helvetica,sans-Serif" font-size="10.00">src/Exceptions/Raytracer</text>
<text text-anchor="middle" x="1312" y="-348" font-family="Helvetica,sans-Serif" font-size="10.00">Exception/RaytracerException.cpp</text>
</a>
</g>
</g>
<!-- Node1&#45;&gt;Node19 -->
<g id="edge26_Node000001_Node000019" class="edge">
<title>Node1&#45;&gt;Node19</title>
<g id="a_edge26_Node000001_Node000019"><a xlink:title=" ">
<path fill="none" stroke="#63b8ff" d="M921.59,-407.83C999.59,-397.79 1109.57,-383.6 1206,-371 1210.69,-370.39 1215.5,-369.76 1220.36,-369.12"/>
<polygon fill="#63b8ff" stroke="#63b8ff" points="920.75,-404.4 911.28,-409.15 921.64,-411.35 920.75,-404.4"/>
</a>
</g>
</g>
<!-- Node4 -->
<g id="Node000004" class="node">
<title>Node4</title>
<g id="a_Node000004"><a xlink:href="Plugin_8hpp.html" target="_top" xlink:title=" ">
<polygon fill="white" stroke="#666666" points="881.5,-305 756.5,-305 756.5,-286 881.5,-286 881.5,-305"/>
<text text-anchor="middle" x="819" y="-293" font-family="Helvetica,sans-Serif" font-size="10.00">src/Objects/Plugin.hpp</text>
</a>
</g>
</g>
<!-- Node3&#45;&gt;Node4 -->
<g id="edge3_Node000003_Node000004" class="edge">
<title>Node3&#45;&gt;Node4</title>
<g id="a_edge3_Node000003_Node000004"><a xlink:title=" ">
<path fill="none" stroke="#63b8ff" d="M819,-330.75C819,-321.72 819,-312.03 819,-305.27"/>
<polygon fill="#63b8ff" stroke="#63b8ff" points="815.5,-330.84 819,-340.84 822.5,-330.84 815.5,-330.84"/>
</a>
</g>
</g>
<!-- Node5 -->
<g id="Node000005" class="node">
<title>Node5</title>
<g id="a_Node000005"><a xlink:href="CorePlugin_8cpp.html" target="_top" xlink:title=" ">
<polygon fill="white" stroke="#666666" points="1078,-173 930,-173 930,-143 1078,-143 1078,-173"/>
<text text-anchor="start" x="938" y="-161" font-family="Helvetica,sans-Serif" font-size="10.00">src/Objects/Plugins</text>
<text text-anchor="middle" x="1004" y="-150" font-family="Helvetica,sans-Serif" font-size="10.00">/CorePlugin/CorePlugin.cpp</text>
</a>
</g>
</g>
<!-- Node4&#45;&gt;Node5 -->
<g id="edge4_Node000004_Node000005" class="edge">
<title>Node4&#45;&gt;Node5</title>
<g id="a_edge4_Node000004_Node000005"><a xlink:title=" ">
<path fill="none" stroke="#63b8ff" d="M851.2,-282C869.13,-274.22 891.32,-263.2 909,-250 928.91,-235.14 929.19,-226.33 947,-209 960.02,-196.33 975.57,-182.79 987.13,-173"/>
<polygon fill="#63b8ff" stroke="#63b8ff" points="849.6,-278.87 841.74,-285.97 852.31,-285.33 849.6,-278.87"/>
</a>
</g>
</g>
<!-- Node6 -->
<g id="Node000006" class="node">
<title>Node6</title>
<g id="a_Node000006"><a xlink:href="SceneWriter_8hpp.html" target="_top" xlink:title=" ">
<polygon fill="white" stroke="#666666" points="899.5,-250 738.5,-250 738.5,-209 899.5,-209 899.5,-250"/>
<text text-anchor="start" x="746.5" y="-238" font-family="Helvetica,sans-Serif" font-size="10.00">src/Objects/Plugins</text>
<text text-anchor="start" x="746.5" y="-227" font-family="Helvetica,sans-Serif" font-size="10.00">/CorePlugin/Interfaces</text>
<text text-anchor="middle" x="819" y="-216" font-family="Helvetica,sans-Serif" font-size="10.00">/SceneWriter/SceneWriter.hpp</text>
</a>
</g>
</g>
<!-- Node4&#45;&gt;Node6 -->
<g id="edge5_Node000004_Node000006" class="edge">
<title>Node4&#45;&gt;Node6</title>
<g id="a_edge5_Node000004_Node000006"><a xlink:title=" ">
<path fill="none" stroke="#63b8ff" d="M819,-275.63C819,-267.56 819,-258.15 819,-250.01"/>
<polygon fill="#63b8ff" stroke="#63b8ff" points="815.5,-275.87 819,-285.87 822.5,-275.87 815.5,-275.87"/>
</a>
</g>
</g>
<!-- Node8 -->
<g id="Node000008" class="node">
<title>Node8</title>
<g id="a_Node000008"><a xlink:href="Parser_8hpp.html" target="_top" xlink:title=" ">
<polygon fill="white" stroke="#666666" points="488,-244.5 324,-244.5 324,-214.5 488,-214.5 488,-244.5"/>
<text text-anchor="start" x="332" y="-232.5" font-family="Helvetica,sans-Serif" font-size="10.00">src/SceneSystem/ConfigParser</text>
<text text-anchor="middle" x="406" y="-221.5" font-family="Helvetica,sans-Serif" font-size="10.00">/Parser.hpp</text>
</a>
</g>
</g>
<!-- Node4&#45;&gt;Node8 -->
<g id="edge8_Node000004_Node000008" class="edge">
<title>Node4&#45;&gt;Node8</title>
<g id="a_edge8_Node000004_Node000008"><a xlink:title=" ">
<path fill="none" stroke="#63b8ff" d="M746.25,-286C680.83,-277.99 582.2,-265 497,-250 487.77,-248.38 478.05,-246.49 468.54,-244.54"/>
<polygon fill="#63b8ff" stroke="#63b8ff" points="746.11,-289.51 756.46,-287.24 746.95,-282.56 746.11,-289.51"/>
</a>
</g>
</g>
<!-- Node4&#45;&gt;Node12 -->
<g id="edge25_Node000004_Node000012" class="edge">
<title>Node4&#45;&gt;Node12</title>
<g id="a_edge25_Node000004_Node000012"><a xlink:title=" ">
<path fill="none" stroke="#63b8ff" d="M891.69,-294.84C975.03,-293.5 1104.13,-285.53 1135,-250 1160.63,-220.51 1214.59,-166.79 1131,-66 1107.13,-37.22 999.86,-24.04 940.62,-18.86"/>
<polygon fill="#63b8ff" stroke="#63b8ff" points="891.47,-291.34 881.52,-294.98 891.56,-298.34 891.47,-291.34"/>
</a>
</g>
</g>
<!-- Node13 -->
<g id="Node000013" class="node">
<title>Node13</title>
<g id="a_Node000013"><a xlink:href="PluginManager_8hpp.html" target="_top" xlink:title="Plugin manager for loading and managing plugins.">
<polygon fill="white" stroke="#666666" points="682,-244.5 506,-244.5 506,-214.5 682,-214.5 682,-244.5"/>
<text text-anchor="start" x="514" y="-232.5" font-family="Helvetica,sans-Serif" font-size="10.00">src/SceneSystem/PluginManager</text>
<text text-anchor="middle" x="594" y="-221.5" font-family="Helvetica,sans-Serif" font-size="10.00">/PluginManager.hpp</text>
</a>
</g>
</g>
<!-- Node4&#45;&gt;Node13 -->
<g id="edge13_Node000004_Node000013" class="edge">
<title>Node4&#45;&gt;Node13</title>
<g id="a_edge13_Node000004_Node000013"><a xlink:title=" ">
<path fill="none" stroke="#63b8ff" d="M779,-283.12C741.18,-272.36 684.32,-256.19 643.63,-244.62"/>
<polygon fill="#63b8ff" stroke="#63b8ff" points="778.08,-286.5 788.66,-285.87 779.99,-279.77 778.08,-286.5"/>
</a>
</g>
</g>
<!-- Node15 -->
<g id="Node000015" class="node">
<title>Node15</title>
<g id="a_Node000015"><a xlink:href="Scene_8hpp.html" target="_top" xlink:title=" ">
<polygon fill="white" stroke="#666666" points="874,-173 742,-173 742,-143 874,-143 874,-173"/>
<text text-anchor="start" x="750" y="-161" font-family="Helvetica,sans-Serif" font-size="10.00">src/SceneSystem/Scene</text>
<text text-anchor="middle" x="808" y="-150" font-family="Helvetica,sans-Serif" font-size="10.00">/Scene.hpp</text>
</a>
</g>
</g>
<!-- Node4&#45;&gt;Node15 -->
<g id="edge22_Node000004_Node000015" class="edge">
<title>Node4&#45;&gt;Node15</title>
<g id="a_edge22_Node000004_Node000015"><a xlink:title=" ">
<path fill="none" stroke="#63b8ff" d="M772.35,-282.32C756.06,-275.59 739.49,-265.36 730,-250 720.42,-234.5 721.26,-224.99 730,-209 738.87,-192.77 755.52,-181.03 771.16,-173.02"/>
<polygon fill="#63b8ff" stroke="#63b8ff" points="771.26,-285.65 781.85,-285.9 773.73,-279.1 771.26,-285.65"/>
</a>
</g>
</g>
<!-- Node18 -->
<g id="Node000018" class="node">
<title>Node18</title>
<g id="a_Node000018"><a xlink:href="SceneNodeHelpers_8hpp.html" target="_top" xlink:title=" ">
<polygon fill="white" stroke="#666666" points="1126,-244.5 956,-244.5 956,-214.5 1126,-214.5 1126,-244.5"/>
<text text-anchor="start" x="964" y="-232.5" font-family="Helvetica,sans-Serif" font-size="10.00">src/SceneSystem/SceneNode</text>
<text text-anchor="middle" x="1041" y="-221.5" font-family="Helvetica,sans-Serif" font-size="10.00">Helpers/SceneNodeHelpers.hpp</text>
</a>
</g>
</g>
<!-- Node4&#45;&gt;Node18 -->
<g id="edge23_Node000004_Node000018" class="edge">
<title>Node4&#45;&gt;Node18</title>
<g id="a_edge23_Node000004_Node000018"><a xlink:title=" ">
<path fill="none" stroke="#63b8ff" d="M858.95,-282.98C896.26,-272.23 952.06,-256.14 992.04,-244.62"/>
<polygon fill="#63b8ff" stroke="#63b8ff" points="857.58,-279.74 848.94,-285.87 859.52,-286.46 857.58,-279.74"/>
</a>
</g>
</g>
<!-- Node6&#45;&gt;Node5 -->
<g id="edge6_Node000006_Node000005" class="edge">
<title>Node6&#45;&gt;Node5</title>
<g id="a_edge6_Node000006_Node000005"><a xlink:title=" ">
<path fill="none" stroke="#63b8ff" d="M880.51,-205.39C909.05,-194.67 942.03,-182.28 966.72,-173"/>
<polygon fill="#63b8ff" stroke="#63b8ff" points="879.16,-202.16 871.03,-208.96 881.62,-208.72 879.16,-202.16"/>
</a>
</g>
</g>
<!-- Node7 -->
<g id="Node000007" class="node">
<title>Node7</title>
<g id="a_Node000007"><a xlink:href="SceneWriter_8cpp.html" target="_top" xlink:title=" ">
<polygon fill="white" stroke="#666666" points="1121.5,-107 960.5,-107 960.5,-66 1121.5,-66 1121.5,-107"/>
<text text-anchor="start" x="968.5" y="-95" font-family="Helvetica,sans-Serif" font-size="10.00">src/Objects/Plugins</text>
<text text-anchor="start" x="968.5" y="-84" font-family="Helvetica,sans-Serif" font-size="10.00">/CorePlugin/Interfaces</text>
<text text-anchor="middle" x="1041" y="-73" font-family="Helvetica,sans-Serif" font-size="10.00">/SceneWriter/SceneWriter.cpp</text>
</a>
</g>
</g>
<!-- Node6&#45;&gt;Node7 -->
<g id="edge7_Node000006_Node000007" class="edge">
<title>Node6&#45;&gt;Node7</title>
<g id="a_edge7_Node000006_Node000007"><a xlink:title=" ">
<path fill="none" stroke="#63b8ff" d="M849.76,-202.01C876.92,-178.74 913.36,-147.85 921,-143 942.9,-129.1 968.85,-116.66 991,-107.1"/>
<polygon fill="#63b8ff" stroke="#63b8ff" points="847.34,-199.48 842.03,-208.64 851.9,-204.79 847.34,-199.48"/>
</a>
</g>
</g>
<!-- Node9 -->
<g id="Node000009" class="node">
<title>Node9</title>
<g id="a_Node000009"><a xlink:href="Parser_8cpp.html" target="_top" xlink:title=" ">
<polygon fill="white" stroke="#666666" points="492,-173 328,-173 328,-143 492,-143 492,-173"/>
<text text-anchor="start" x="336" y="-161" font-family="Helvetica,sans-Serif" font-size="10.00">src/SceneSystem/ConfigParser</text>
<text text-anchor="middle" x="410" y="-150" font-family="Helvetica,sans-Serif" font-size="10.00">/Parser.cpp</text>
</a>
</g>
</g>
<!-- Node8&#45;&gt;Node9 -->
<g id="edge9_Node000008_Node000009" class="edge">
<title>Node8&#45;&gt;Node9</title>
<g id="a_edge9_Node000008_Node000009"><a xlink:title=" ">
<path fill="none" stroke="#63b8ff" d="M407.4,-204.25C408,-193.81 408.68,-181.99 409.19,-173.04"/>
<polygon fill="#63b8ff" stroke="#63b8ff" points="403.89,-204.25 406.81,-214.44 410.88,-204.65 403.89,-204.25"/>
</a>
</g>
</g>
<!-- Node8&#45;&gt;Node10 -->
<g id="edge10_Node000008_Node000010" class="edge">
<title>Node8&#45;&gt;Node10</title>
<g id="a_edge10_Node000008_Node000010"><a xlink:title=" ">
<path fill="none" stroke="#63b8ff" d="M364.1,-209.87C333.21,-193.5 299.68,-168.38 319,-143 333.77,-123.59 388.68,-109.24 437.39,-100"/>
<polygon fill="#63b8ff" stroke="#63b8ff" points="362.61,-213.04 373.11,-214.45 365.78,-206.8 362.61,-213.04"/>
</a>
</g>
</g>
<!-- Node11 -->
<g id="Node000011" class="node">
<title>Node11</title>
<g id="a_Node000011"><a xlink:href="SceneLoader_8cpp.html" target="_top" xlink:title=" ">
<polygon fill="white" stroke="#666666" points="602.5,-30 437.5,-30 437.5,0 602.5,0 602.5,-30"/>
<text text-anchor="start" x="445.5" y="-18" font-family="Helvetica,sans-Serif" font-size="10.00">src/SceneSystem/SceneLoader</text>
<text text-anchor="middle" x="520" y="-7" font-family="Helvetica,sans-Serif" font-size="10.00">/SceneLoader.cpp</text>
</a>
</g>
</g>
<!-- Node10&#45;&gt;Node11 -->
<g id="edge11_Node000010_Node000011" class="edge">
<title>Node10&#45;&gt;Node11</title>
<g id="a_edge11_Node000010_Node000011"><a xlink:title=" ">
<path fill="none" stroke="#63b8ff" d="M520,-61.25C520,-50.81 520,-38.99 520,-30.04"/>
<polygon fill="#63b8ff" stroke="#63b8ff" points="516.5,-61.44 520,-71.44 523.5,-61.44 516.5,-61.44"/>
</a>
</g>
</g>
<!-- Node10&#45;&gt;Node12 -->
<g id="edge12_Node000010_Node000012" class="edge">
<title>Node10&#45;&gt;Node12</title>
<g id="a_edge12_Node000010_Node000012"><a xlink:title=" ">
<path fill="none" stroke="#63b8ff" d="M604.69,-69.57C611.22,-68.36 617.72,-67.16 624,-66 708.35,-50.48 807.23,-32.74 861.08,-23.12"/>
<polygon fill="#63b8ff" stroke="#63b8ff" points="603.6,-66.21 594.41,-71.48 604.88,-73.1 603.6,-66.21"/>
</a>
</g>
</g>
<!-- Node13&#45;&gt;Node10 -->
<g id="edge21_Node000013_Node000010" class="edge">
<title>Node13&#45;&gt;Node10</title>
<g id="a_edge21_Node000013_Node000010"><a xlink:title=" ">
<path fill="none" stroke="#63b8ff" d="M567.71,-207.71C557.3,-198.18 546.15,-186.09 539,-173 526.47,-150.04 522.2,-119.34 520.75,-101.66"/>
<polygon fill="#63b8ff" stroke="#63b8ff" points="565.6,-210.52 575.43,-214.47 570.21,-205.25 565.6,-210.52"/>
</a>
</g>
</g>
<!-- Node14 -->
<g id="Node000014" class="node">
<title>Node14</title>
<g id="a_Node000014"><a xlink:href="PluginManager_8cpp.html" target="_top" xlink:title=" ">
<polygon fill="white" stroke="#666666" points="724,-173 548,-173 548,-143 724,-143 724,-173"/>
<text text-anchor="start" x="556" y="-161" font-family="Helvetica,sans-Serif" font-size="10.00">src/SceneSystem/PluginManager</text>
<text text-anchor="middle" x="636" y="-150" font-family="Helvetica,sans-Serif" font-size="10.00">/PluginManager.cpp</text>
</a>
</g>
</g>
<!-- Node13&#45;&gt;Node14 -->
<g id="edge14_Node000013_Node000014" class="edge">
<title>Node13&#45;&gt;Node14</title>
<g id="a_edge14_Node000013_Node000014"><a xlink:title=" ">
<path fill="none" stroke="#63b8ff" d="M607.86,-205.56C614.36,-194.82 621.88,-182.36 627.51,-173.04"/>
<polygon fill="#63b8ff" stroke="#63b8ff" points="604.68,-204.07 602.5,-214.44 610.67,-207.69 604.68,-204.07"/>
</a>
</g>
</g>
<!-- Node13&#45;&gt;Node15 -->
<g id="edge15_Node000013_Node000015" class="edge">
<title>Node13&#45;&gt;Node15</title>
<g id="a_edge15_Node000013_Node000015"><a xlink:title=" ">
<path fill="none" stroke="#63b8ff" d="M647.21,-211.22C683.46,-199.45 730.84,-184.06 764.76,-173.04"/>
<polygon fill="#63b8ff" stroke="#63b8ff" points="645.74,-208.02 637.31,-214.44 647.9,-214.68 645.74,-208.02"/>
</a>
</g>
</g>
<!-- Node15&#45;&gt;Node7 -->
<g id="edge16_Node000015_Node000007" class="edge">
<title>Node15&#45;&gt;Node7</title>
<g id="a_edge16_Node000015_Node000007"><a xlink:title=" ">
<path fill="none" stroke="#63b8ff" d="M864.76,-140.07C898.17,-130.11 940.55,-117.46 975.38,-107.07"/>
<polygon fill="#63b8ff" stroke="#63b8ff" points="863.73,-136.72 855.15,-142.94 865.73,-143.43 863.73,-136.72"/>
</a>
</g>
</g>
<!-- Node15&#45;&gt;Node10 -->
<g id="edge19_Node000015_Node000010" class="edge">
<title>Node15&#45;&gt;Node10</title>
<g id="a_edge19_Node000015_Node000010"><a xlink:title=" ">
<path fill="none" stroke="#63b8ff" d="M739.8,-140.54C690.61,-128.67 624.92,-112.82 578.19,-101.54"/>
<polygon fill="#63b8ff" stroke="#63b8ff" points="739.18,-143.99 749.72,-142.94 740.82,-137.19 739.18,-143.99"/>
</a>
</g>
</g>
<!-- Node15&#45;&gt;Node12 -->
<g id="edge20_Node000015_Node000012" class="edge">
<title>Node15&#45;&gt;Node12</title>
<g id="a_edge20_Node000015_Node000012"><a xlink:title=" ">
<path fill="none" stroke="#63b8ff" d="M731.96,-140.39C699.73,-131.66 667.42,-120.07 658,-107 647.35,-92.22 646.49,-80.12 658,-66 683.21,-35.08 799.18,-22.73 861.35,-18.26"/>
<polygon fill="#63b8ff" stroke="#63b8ff" points="731.37,-143.85 741.93,-143 733.15,-137.08 731.37,-143.85"/>
</a>
</g>
</g>
<!-- Node16 -->
<g id="Node000016" class="node">
<title>Node16</title>
<g id="a_Node000016"><a xlink:href="Camera_8cpp.html" target="_top" xlink:title=" ">
<polygon fill="white" stroke="#666666" points="791.5,-107 666.5,-107 666.5,-66 791.5,-66 791.5,-107"/>
<text text-anchor="start" x="674.5" y="-95" font-family="Helvetica,sans-Serif" font-size="10.00">src/Objects/Plugins</text>
<text text-anchor="start" x="674.5" y="-84" font-family="Helvetica,sans-Serif" font-size="10.00">/CorePlugin/Renderers</text>
<text text-anchor="middle" x="729" y="-73" font-family="Helvetica,sans-Serif" font-size="10.00">/Camera/Camera.cpp</text>
</a>
</g>
</g>
<!-- Node15&#45;&gt;Node16 -->
<g id="edge17_Node000015_Node000016" class="edge">
<title>Node15&#45;&gt;Node16</title>
<g id="a_edge17_Node000015_Node000016"><a xlink:title=" ">
<path fill="none" stroke="#63b8ff" d="M784.39,-136.23C773.89,-126.99 761.59,-116.17 751.25,-107.07"/>
<polygon fill="#63b8ff" stroke="#63b8ff" points="782.19,-138.96 792.01,-142.94 786.82,-133.7 782.19,-138.96"/>
</a>
</g>
</g>
<!-- Node17 -->
<g id="Node000017" class="node">
<title>Node17</title>
<g id="a_Node000017"><a xlink:href="Scene_8cpp.html" target="_top" xlink:title=" ">
<polygon fill="white" stroke="#666666" points="942,-101.5 810,-101.5 810,-71.5 942,-71.5 942,-101.5"/>
<text text-anchor="start" x="818" y="-89.5" font-family="Helvetica,sans-Serif" font-size="10.00">src/SceneSystem/Scene</text>
<text text-anchor="middle" x="876" y="-78.5" font-family="Helvetica,sans-Serif" font-size="10.00">/Scene.cpp</text>
</a>
</g>
</g>
<!-- Node15&#45;&gt;Node17 -->
<g id="edge18_Node000015_Node000017" class="edge">
<title>Node15&#45;&gt;Node17</title>
<g id="a_edge18_Node000015_Node000017"><a xlink:title=" ">
<path fill="none" stroke="#63b8ff" d="M828.87,-135.67C839.72,-124.58 852.68,-111.34 862.26,-101.54"/>
<polygon fill="#63b8ff" stroke="#63b8ff" points="826.25,-133.34 821.76,-142.94 831.26,-138.24 826.25,-133.34"/>
</a>
</g>
</g>
<!-- Node18&#45;&gt;Node5 -->
<g id="edge24_Node000018_Node000005" class="edge">
<title>Node18&#45;&gt;Node5</title>
<g id="a_edge24_Node000018_Node000005"><a xlink:title=" ">
<path fill="none" stroke="#63b8ff" d="M1028.79,-205.56C1023.07,-194.82 1016.44,-182.36 1011.48,-173.04"/>
<polygon fill="#63b8ff" stroke="#63b8ff" points="1025.72,-207.25 1033.51,-214.44 1031.9,-203.96 1025.72,-207.25"/>
</a>
</g>
</g>
</g>
</svg>
