<?xml version="1.0" encoding="UTF-8" standalone="no"?>
<!DOCTYPE svg PUBLIC "-//W3C//DTD SVG 1.1//EN"
 "http://www.w3.org/Graphics/SVG/1.1/DTD/svg11.dtd">
<!-- Generated by graphviz version 2.43.0 (0)
 -->
<!-- Title: src/Exceptions/RaytracerException/RaytracerException.hpp Pages: 1 -->
<svg width="1354pt" height="390pt"
 viewBox="0.00 0.00 1354.00 390.00" xmlns="http://www.w3.org/2000/svg" xmlns:xlink="http://www.w3.org/1999/xlink">
<g id="graph0" class="graph" transform="scale(1 1) rotate(0) translate(4 386)">
<title>src/Exceptions/RaytracerException/RaytracerException.hpp</title>
<!-- Node1 -->
<g id="Node000001" class="node">
<title>Node1</title>
<g id="a_Node000001"><a xlink:title=" ">
<polygon fill="#999999" stroke="#666666" points="556,-382 372,-382 372,-352 556,-352 556,-382"/>
<text text-anchor="start" x="380" y="-370" font-family="Helvetica,sans-Serif" font-size="10.00">src/Exceptions/Raytracer</text>
<text text-anchor="middle" x="464" y="-359" font-family="Helvetica,sans-Serif" font-size="10.00">Exception/RaytracerException.hpp</text>
</a>
</g>
</g>
<!-- Node2 -->
<g id="Node000002" class="node">
<title>Node2</title>
<g id="a_Node000002"><a xlink:href="DivisionByZeroException_8hpp.html" target="_top" xlink:title=" ">
<polygon fill="white" stroke="#666666" points="234,-316 0,-316 0,-286 234,-286 234,-316"/>
<text text-anchor="start" x="8" y="-304" font-family="Helvetica,sans-Serif" font-size="10.00">src/Exceptions/DivisionBy</text>
<text text-anchor="middle" x="117" y="-293" font-family="Helvetica,sans-Serif" font-size="10.00">ZeroException/DivisionByZeroException.hpp</text>
</a>
</g>
</g>
<!-- Node1&#45;&gt;Node2 -->
<g id="edge1_Node000001_Node000002" class="edge">
<title>Node1&#45;&gt;Node2</title>
<g id="a_edge1_Node000001_Node000002"><a xlink:title=" ">
<path fill="none" stroke="#63b8ff" d="M377.82,-350.11C321.09,-339.64 247.51,-326.07 192.97,-316.01"/>
<polygon fill="#63b8ff" stroke="#63b8ff" points="377.38,-353.58 387.85,-351.95 378.65,-346.7 377.38,-353.58"/>
</a>
</g>
</g>
<!-- Node3 -->
<g id="Node000003" class="node">
<title>Node3</title>
<g id="a_Node000003"><a xlink:href="RaytracerException_8cpp.html" target="_top" xlink:title=" ">
<polygon fill="white" stroke="#666666" points="435.5,-316 252.5,-316 252.5,-286 435.5,-286 435.5,-316"/>
<text text-anchor="start" x="260.5" y="-304" font-family="Helvetica,sans-Serif" font-size="10.00">src/Exceptions/Raytracer</text>
<text text-anchor="middle" x="344" y="-293" font-family="Helvetica,sans-Serif" font-size="10.00">Exception/RaytracerException.cpp</text>
</a>
</g>
</g>
<!-- Node1&#45;&gt;Node3 -->
<g id="edge2_Node000001_Node000003" class="edge">
<title>Node1&#45;&gt;Node3</title>
<g id="a_edge2_Node000001_Node000003"><a xlink:title=" ">
<path fill="none" stroke="#63b8ff" d="M428.83,-347.24C410.1,-337.25 387.45,-325.18 370.27,-316.01"/>
<polygon fill="#63b8ff" stroke="#63b8ff" points="427.19,-350.34 437.67,-351.95 430.49,-344.16 427.19,-350.34"/>
</a>
</g>
</g>
<!-- Node4 -->
<g id="Node000004" class="node">
<title>Node4</title>
<g id="a_Node000004"><a xlink:href="Plugin_8hpp.html" target="_top" xlink:title=" ">
<polygon fill="white" stroke="#666666" points="1026.5,-310.5 901.5,-310.5 901.5,-291.5 1026.5,-291.5 1026.5,-310.5"/>
<text text-anchor="middle" x="964" y="-298.5" font-family="Helvetica,sans-Serif" font-size="10.00">src/Objects/Plugin.hpp</text>
</a>
</g>
</g>
<!-- Node1&#45;&gt;Node4 -->
<g id="edge3_Node000001_Node000004" class="edge">
<title>Node1&#45;&gt;Node4</title>
<g id="a_edge3_Node000001_Node000004"><a xlink:title=" ">
<path fill="none" stroke="#63b8ff" d="M566.48,-352.88C667.15,-340 817.5,-320.75 901.49,-310"/>
<polygon fill="#63b8ff" stroke="#63b8ff" points="565.77,-349.45 556.29,-354.19 566.65,-356.39 565.77,-349.45"/>
</a>
</g>
</g>
<!-- Node8 -->
<g id="Node000008" class="node">
<title>Node8</title>
<g id="a_Node000008"><a xlink:href="main_8cpp.html" target="_top" xlink:title=" ">
<polygon fill="white" stroke="#666666" points="1238.5,-24.5 1159.5,-24.5 1159.5,-5.5 1238.5,-5.5 1238.5,-24.5"/>
<text text-anchor="middle" x="1199" y="-12.5" font-family="Helvetica,sans-Serif" font-size="10.00">src/main.cpp</text>
</a>
</g>
</g>
<!-- Node1&#45;&gt;Node8 -->
<g id="edge25_Node000001_Node000008" class="edge">
<title>Node1&#45;&gt;Node8</title>
<g id="a_edge25_Node000001_Node000008"><a xlink:title=" ">
<path fill="none" stroke="#63b8ff" d="M566.46,-360.83C798.87,-347.73 1346,-308.59 1346,-230.5 1346,-230.5 1346,-230.5 1346,-157 1346,-112.64 1336.09,-97.64 1305,-66 1284.75,-45.39 1254.35,-32.26 1231.29,-24.65"/>
<polygon fill="#63b8ff" stroke="#63b8ff" points="566.1,-357.34 556.31,-361.39 566.49,-364.33 566.1,-357.34"/>
</a>
</g>
</g>
<!-- Node11 -->
<g id="Node000011" class="node">
<title>Node11</title>
<g id="a_Node000011"><a xlink:href="SceneLoader_8hpp.html" target="_top" xlink:title=" ">
<polygon fill="white" stroke="#666666" points="767.5,-101.5 602.5,-101.5 602.5,-71.5 767.5,-71.5 767.5,-101.5"/>
<text text-anchor="start" x="610.5" y="-89.5" font-family="Helvetica,sans-Serif" font-size="10.00">src/SceneSystem/SceneLoader</text>
<text text-anchor="middle" x="685" y="-78.5" font-family="Helvetica,sans-Serif" font-size="10.00">/SceneLoader.hpp</text>
</a>
</g>
</g>
<!-- Node1&#45;&gt;Node11 -->
<g id="edge24_Node000001_Node000011" class="edge">
<title>Node1&#45;&gt;Node11</title>
<g id="a_edge24_Node000001_Node000011"><a xlink:title=" ">
<path fill="none" stroke="#63b8ff" d="M461.93,-341.83C459.47,-296.77 460.9,-199.39 512,-143 535.09,-117.52 569.88,-103.68 602.22,-96.18"/>
<polygon fill="#63b8ff" stroke="#63b8ff" points="458.44,-342.11 462.6,-351.86 465.43,-341.65 458.44,-342.11"/>
</a>
</g>
</g>
<!-- Node5 -->
<g id="Node000005" class="node">
<title>Node5</title>
<g id="a_Node000005"><a xlink:href="CorePlugin_8cpp.html" target="_top" xlink:title=" ">
<polygon fill="white" stroke="#666666" points="1242,-173 1094,-173 1094,-143 1242,-143 1242,-173"/>
<text text-anchor="start" x="1102" y="-161" font-family="Helvetica,sans-Serif" font-size="10.00">src/Objects/Plugins</text>
<text text-anchor="middle" x="1168" y="-150" font-family="Helvetica,sans-Serif" font-size="10.00">/CorePlugin/CorePlugin.cpp</text>
</a>
</g>
</g>
<!-- Node4&#45;&gt;Node5 -->
<g id="edge4_Node000004_Node000005" class="edge">
<title>Node4&#45;&gt;Node5</title>
<g id="a_edge4_Node000004_Node000005"><a xlink:title=" ">
<path fill="none" stroke="#63b8ff" d="M983.06,-285.33C1007.13,-266.95 1050.01,-234.76 1088,-209 1106.57,-196.41 1128.18,-182.97 1144.25,-173.2"/>
<polygon fill="#63b8ff" stroke="#63b8ff" points="980.89,-282.58 975.08,-291.43 985.15,-288.13 980.89,-282.58"/>
</a>
</g>
</g>
<!-- Node6 -->
<g id="Node000006" class="node">
<title>Node6</title>
<g id="a_Node000006"><a xlink:href="SceneWriter_8hpp.html" target="_top" xlink:title=" ">
<polygon fill="white" stroke="#666666" points="1257.5,-250 1096.5,-250 1096.5,-209 1257.5,-209 1257.5,-250"/>
<text text-anchor="start" x="1104.5" y="-238" font-family="Helvetica,sans-Serif" font-size="10.00">src/Objects/Plugins</text>
<text text-anchor="start" x="1104.5" y="-227" font-family="Helvetica,sans-Serif" font-size="10.00">/CorePlugin/Interfaces</text>
<text text-anchor="middle" x="1177" y="-216" font-family="Helvetica,sans-Serif" font-size="10.00">/SceneWriter/SceneWriter.hpp</text>
</a>
</g>
</g>
<!-- Node4&#45;&gt;Node6 -->
<g id="edge5_Node000004_Node000006" class="edge">
<title>Node4&#45;&gt;Node6</title>
<g id="a_edge5_Node000004_Node000006"><a xlink:title=" ">
<path fill="none" stroke="#63b8ff" d="M999.94,-288.27C1031.95,-277.83 1079.42,-262.34 1117.15,-250.03"/>
<polygon fill="#63b8ff" stroke="#63b8ff" points="998.54,-285.05 990.12,-291.48 1000.71,-291.7 998.54,-285.05"/>
</a>
</g>
</g>
<!-- Node9 -->
<g id="Node000009" class="node">
<title>Node9</title>
<g id="a_Node000009"><a xlink:href="Parser_8hpp.html" target="_top" xlink:title=" ">
<polygon fill="white" stroke="#666666" points="694,-244.5 530,-244.5 530,-214.5 694,-214.5 694,-244.5"/>
<text text-anchor="start" x="538" y="-232.5" font-family="Helvetica,sans-Serif" font-size="10.00">src/SceneSystem/ConfigParser</text>
<text text-anchor="middle" x="612" y="-221.5" font-family="Helvetica,sans-Serif" font-size="10.00">/Parser.hpp</text>
</a>
</g>
</g>
<!-- Node4&#45;&gt;Node9 -->
<g id="edge9_Node000004_Node000009" class="edge">
<title>Node4&#45;&gt;Node9</title>
<g id="a_edge9_Node000004_Node000009"><a xlink:title=" ">
<path fill="none" stroke="#63b8ff" d="M910.69,-289.47C849.9,-277.47 750.25,-257.8 682.94,-244.51"/>
<polygon fill="#63b8ff" stroke="#63b8ff" points="910.35,-292.97 920.84,-291.48 911.71,-286.11 910.35,-292.97"/>
</a>
</g>
</g>
<!-- Node13 -->
<g id="Node000013" class="node">
<title>Node13</title>
<g id="a_Node000013"><a xlink:href="PluginManager_8hpp.html" target="_top" xlink:title="Plugin manager for loading and managing plugins.">
<polygon fill="white" stroke="#666666" points="994,-244.5 818,-244.5 818,-214.5 994,-214.5 994,-244.5"/>
<text text-anchor="start" x="826" y="-232.5" font-family="Helvetica,sans-Serif" font-size="10.00">src/SceneSystem/PluginManager</text>
<text text-anchor="middle" x="906" y="-221.5" font-family="Helvetica,sans-Serif" font-size="10.00">/PluginManager.hpp</text>
</a>
</g>
</g>
<!-- Node4&#45;&gt;Node13 -->
<g id="edge14_Node000004_Node000013" class="edge">
<title>Node4&#45;&gt;Node13</title>
<g id="a_edge14_Node000004_Node000013"><a xlink:title=" ">
<path fill="none" stroke="#63b8ff" d="M950.38,-283.68C940.49,-271.83 927.24,-255.95 917.8,-244.64"/>
<polygon fill="#63b8ff" stroke="#63b8ff" points="947.79,-286.04 956.89,-291.48 953.17,-281.56 947.79,-286.04"/>
</a>
</g>
</g>
<!-- Node15 -->
<g id="Node000015" class="node">
<title>Node15</title>
<g id="a_Node000015"><a xlink:href="Scene_8hpp.html" target="_top" xlink:title=" ">
<polygon fill="white" stroke="#666666" points="1076,-173 944,-173 944,-143 1076,-143 1076,-173"/>
<text text-anchor="start" x="952" y="-161" font-family="Helvetica,sans-Serif" font-size="10.00">src/SceneSystem/Scene</text>
<text text-anchor="middle" x="1010" y="-150" font-family="Helvetica,sans-Serif" font-size="10.00">/Scene.hpp</text>
</a>
</g>
</g>
<!-- Node4&#45;&gt;Node15 -->
<g id="edge23_Node000004_Node000015" class="edge">
<title>Node4&#45;&gt;Node15</title>
<g id="a_edge23_Node000004_Node000015"><a xlink:title=" ">
<path fill="none" stroke="#63b8ff" d="M980.47,-283.99C988.76,-274.86 998.07,-262.73 1003,-250 1012.96,-224.29 1012.61,-191.49 1011.37,-173.12"/>
<polygon fill="#63b8ff" stroke="#63b8ff" points="977.71,-281.82 973.31,-291.45 982.76,-286.66 977.71,-281.82"/>
</a>
</g>
</g>
<!-- Node6&#45;&gt;Node5 -->
<g id="edge6_Node000006_Node000005" class="edge">
<title>Node6&#45;&gt;Node5</title>
<g id="a_edge6_Node000006_Node000005"><a xlink:title=" ">
<path fill="none" stroke="#63b8ff" d="M1173.14,-198.66C1171.98,-189.76 1170.77,-180.42 1169.82,-173.04"/>
<polygon fill="#63b8ff" stroke="#63b8ff" points="1169.69,-199.3 1174.45,-208.77 1176.63,-198.4 1169.69,-199.3"/>
</a>
</g>
</g>
<!-- Node7 -->
<g id="Node000007" class="node">
<title>Node7</title>
<g id="a_Node000007"><a xlink:href="SceneWriter_8cpp.html" target="_top" xlink:title=" ">
<polygon fill="white" stroke="#666666" points="1279.5,-107 1118.5,-107 1118.5,-66 1279.5,-66 1279.5,-107"/>
<text text-anchor="start" x="1126.5" y="-95" font-family="Helvetica,sans-Serif" font-size="10.00">src/Objects/Plugins</text>
<text text-anchor="start" x="1126.5" y="-84" font-family="Helvetica,sans-Serif" font-size="10.00">/CorePlugin/Interfaces</text>
<text text-anchor="middle" x="1199" y="-73" font-family="Helvetica,sans-Serif" font-size="10.00">/SceneWriter/SceneWriter.cpp</text>
</a>
</g>
</g>
<!-- Node6&#45;&gt;Node7 -->
<g id="edge7_Node000006_Node000007" class="edge">
<title>Node6&#45;&gt;Node7</title>
<g id="a_edge7_Node000006_Node000007"><a xlink:title=" ">
<path fill="none" stroke="#63b8ff" d="M1224.59,-203.02C1235.19,-194.92 1245.05,-184.9 1251,-173 1262.73,-149.54 1242.53,-124.01 1223.99,-107.01"/>
<polygon fill="#63b8ff" stroke="#63b8ff" points="1222.52,-200.2 1216.38,-208.84 1226.57,-205.9 1222.52,-200.2"/>
</a>
</g>
</g>
<!-- Node6&#45;&gt;Node8 -->
<g id="edge8_Node000006_Node000008" class="edge">
<title>Node6&#45;&gt;Node8</title>
<g id="a_edge8_Node000006_Node000008"><a xlink:title=" ">
<path fill="none" stroke="#63b8ff" d="M1229.62,-203.8C1242.93,-195.54 1256.21,-185.25 1266,-173 1285.39,-148.73 1283.82,-137.63 1289,-107 1292.04,-89.03 1298.24,-81.71 1289,-66 1276.49,-44.74 1251.32,-31.87 1230.76,-24.53"/>
<polygon fill="#63b8ff" stroke="#63b8ff" points="1227.74,-200.85 1220.91,-208.94 1231.3,-206.88 1227.74,-200.85"/>
</a>
</g>
</g>
<!-- Node10 -->
<g id="Node000010" class="node">
<title>Node10</title>
<g id="a_Node000010"><a xlink:href="Parser_8cpp.html" target="_top" xlink:title=" ">
<polygon fill="white" stroke="#666666" points="694,-173 530,-173 530,-143 694,-143 694,-173"/>
<text text-anchor="start" x="538" y="-161" font-family="Helvetica,sans-Serif" font-size="10.00">src/SceneSystem/ConfigParser</text>
<text text-anchor="middle" x="612" y="-150" font-family="Helvetica,sans-Serif" font-size="10.00">/Parser.cpp</text>
</a>
</g>
</g>
<!-- Node9&#45;&gt;Node10 -->
<g id="edge10_Node000009_Node000010" class="edge">
<title>Node9&#45;&gt;Node10</title>
<g id="a_edge10_Node000009_Node000010"><a xlink:title=" ">
<path fill="none" stroke="#63b8ff" d="M612,-204.25C612,-193.81 612,-181.99 612,-173.04"/>
<polygon fill="#63b8ff" stroke="#63b8ff" points="608.5,-204.44 612,-214.44 615.5,-204.44 608.5,-204.44"/>
</a>
</g>
</g>
<!-- Node9&#45;&gt;Node11 -->
<g id="edge11_Node000009_Node000011" class="edge">
<title>Node9&#45;&gt;Node11</title>
<g id="a_edge11_Node000009_Node000011"><a xlink:title=" ">
<path fill="none" stroke="#63b8ff" d="M567.61,-209.87C536,-193.84 502.2,-169.21 521,-143 539.83,-116.74 571.77,-102.75 602.48,-95.35"/>
<polygon fill="#63b8ff" stroke="#63b8ff" points="566.33,-213.14 576.85,-214.36 569.39,-206.84 566.33,-213.14"/>
</a>
</g>
</g>
<!-- Node11&#45;&gt;Node8 -->
<g id="edge13_Node000011_Node000008" class="edge">
<title>Node11&#45;&gt;Node8</title>
<g id="a_edge13_Node000011_Node000008"><a xlink:title=" ">
<path fill="none" stroke="#63b8ff" d="M757.84,-69.43C764.31,-68.19 770.76,-67.03 777,-66 916.76,-42.96 1084.26,-26.35 1159.27,-19.49"/>
<polygon fill="#63b8ff" stroke="#63b8ff" points="756.85,-66.05 747.71,-71.41 758.19,-72.92 756.85,-66.05"/>
</a>
</g>
</g>
<!-- Node12 -->
<g id="Node000012" class="node">
<title>Node12</title>
<g id="a_Node000012"><a xlink:href="SceneLoader_8cpp.html" target="_top" xlink:title=" ">
<polygon fill="white" stroke="#666666" points="767.5,-30 602.5,-30 602.5,0 767.5,0 767.5,-30"/>
<text text-anchor="start" x="610.5" y="-18" font-family="Helvetica,sans-Serif" font-size="10.00">src/SceneSystem/SceneLoader</text>
<text text-anchor="middle" x="685" y="-7" font-family="Helvetica,sans-Serif" font-size="10.00">/SceneLoader.cpp</text>
</a>
</g>
</g>
<!-- Node11&#45;&gt;Node12 -->
<g id="edge12_Node000011_Node000012" class="edge">
<title>Node11&#45;&gt;Node12</title>
<g id="a_edge12_Node000011_Node000012"><a xlink:title=" ">
<path fill="none" stroke="#63b8ff" d="M685,-61.25C685,-50.81 685,-38.99 685,-30.04"/>
<polygon fill="#63b8ff" stroke="#63b8ff" points="681.5,-61.44 685,-71.44 688.5,-61.44 681.5,-61.44"/>
</a>
</g>
</g>
<!-- Node13&#45;&gt;Node11 -->
<g id="edge22_Node000013_Node000011" class="edge">
<title>Node13&#45;&gt;Node11</title>
<g id="a_edge22_Node000013_Node000011"><a xlink:title=" ">
<path fill="none" stroke="#63b8ff" d="M910.27,-204.24C912.14,-185.35 911.3,-159.64 897,-143 891.92,-137.08 806.34,-115.97 745.49,-101.56"/>
<polygon fill="#63b8ff" stroke="#63b8ff" points="906.8,-203.82 908.98,-214.19 913.74,-204.72 906.8,-203.82"/>
</a>
</g>
</g>
<!-- Node14 -->
<g id="Node000014" class="node">
<title>Node14</title>
<g id="a_Node000014"><a xlink:href="PluginManager_8cpp.html" target="_top" xlink:title=" ">
<polygon fill="white" stroke="#666666" points="888,-173 712,-173 712,-143 888,-143 888,-173"/>
<text text-anchor="start" x="720" y="-161" font-family="Helvetica,sans-Serif" font-size="10.00">src/SceneSystem/PluginManager</text>
<text text-anchor="middle" x="800" y="-150" font-family="Helvetica,sans-Serif" font-size="10.00">/PluginManager.cpp</text>
</a>
</g>
</g>
<!-- Node13&#45;&gt;Node14 -->
<g id="edge15_Node000013_Node000014" class="edge">
<title>Node13&#45;&gt;Node14</title>
<g id="a_edge15_Node000013_Node000014"><a xlink:title=" ">
<path fill="none" stroke="#63b8ff" d="M875.89,-208.75C858.51,-197.36 837.07,-183.31 821.42,-173.04"/>
<polygon fill="#63b8ff" stroke="#63b8ff" points="874.27,-211.88 884.55,-214.44 878.11,-206.03 874.27,-211.88"/>
</a>
</g>
</g>
<!-- Node13&#45;&gt;Node15 -->
<g id="edge16_Node000013_Node000015" class="edge">
<title>Node13&#45;&gt;Node15</title>
<g id="a_edge16_Node000013_Node000015"><a xlink:title=" ">
<path fill="none" stroke="#63b8ff" d="M935.55,-208.75C952.59,-197.36 973.63,-183.31 988.99,-173.04"/>
<polygon fill="#63b8ff" stroke="#63b8ff" points="933.42,-205.97 927.05,-214.44 937.31,-211.79 933.42,-205.97"/>
</a>
</g>
</g>
<!-- Node15&#45;&gt;Node7 -->
<g id="edge17_Node000015_Node000007" class="edge">
<title>Node15&#45;&gt;Node7</title>
<g id="a_edge17_Node000015_Node000007"><a xlink:title=" ">
<path fill="none" stroke="#63b8ff" d="M1057.8,-139.42C1084.61,-129.56 1118.12,-117.24 1145.77,-107.07"/>
<polygon fill="#63b8ff" stroke="#63b8ff" points="1056.42,-136.2 1048.25,-142.94 1058.84,-142.77 1056.42,-136.2"/>
</a>
</g>
</g>
<!-- Node15&#45;&gt;Node8 -->
<g id="edge21_Node000015_Node000008" class="edge">
<title>Node15&#45;&gt;Node8</title>
<g id="a_edge21_Node000015_Node000008"><a xlink:title=" ">
<path fill="none" stroke="#63b8ff" d="M1036.37,-136.56C1047.34,-127.76 1060.05,-117.17 1071,-107 1089.43,-89.88 1090.15,-81.44 1110,-66 1132.24,-48.7 1161.19,-33.6 1179.93,-24.64"/>
<polygon fill="#63b8ff" stroke="#63b8ff" points="1034.03,-133.95 1028.38,-142.91 1038.39,-139.43 1034.03,-133.95"/>
</a>
</g>
</g>
<!-- Node15&#45;&gt;Node11 -->
<g id="edge20_Node000015_Node000011" class="edge">
<title>Node15&#45;&gt;Node11</title>
<g id="a_edge20_Node000015_Node000011"><a xlink:title=" ">
<path fill="none" stroke="#63b8ff" d="M934.42,-140.84C878.77,-128.94 803.84,-112.91 750.67,-101.54"/>
<polygon fill="#63b8ff" stroke="#63b8ff" points="933.72,-144.27 944.23,-142.94 935.18,-137.42 933.72,-144.27"/>
</a>
</g>
</g>
<!-- Node16 -->
<g id="Node000016" class="node">
<title>Node16</title>
<g id="a_Node000016"><a xlink:href="Camera_8cpp.html" target="_top" xlink:title=" ">
<polygon fill="white" stroke="#666666" points="1061.5,-107 936.5,-107 936.5,-66 1061.5,-66 1061.5,-107"/>
<text text-anchor="start" x="944.5" y="-95" font-family="Helvetica,sans-Serif" font-size="10.00">src/Objects/Plugins</text>
<text text-anchor="start" x="944.5" y="-84" font-family="Helvetica,sans-Serif" font-size="10.00">/CorePlugin/Renderers</text>
<text text-anchor="middle" x="999" y="-73" font-family="Helvetica,sans-Serif" font-size="10.00">/Camera/Camera.cpp</text>
</a>
</g>
</g>
<!-- Node15&#45;&gt;Node16 -->
<g id="edge18_Node000015_Node000016" class="edge">
<title>Node15&#45;&gt;Node16</title>
<g id="a_edge18_Node000015_Node000016"><a xlink:title=" ">
<path fill="none" stroke="#63b8ff" d="M1006.19,-132.91C1004.85,-124.47 1003.37,-115.1 1002.1,-107.07"/>
<polygon fill="#63b8ff" stroke="#63b8ff" points="1002.75,-133.61 1007.77,-142.94 1009.67,-132.51 1002.75,-133.61"/>
</a>
</g>
</g>
<!-- Node17 -->
<g id="Node000017" class="node">
<title>Node17</title>
<g id="a_Node000017"><a xlink:href="Scene_8cpp.html" target="_top" xlink:title=" ">
<polygon fill="white" stroke="#666666" points="918,-101.5 786,-101.5 786,-71.5 918,-71.5 918,-101.5"/>
<text text-anchor="start" x="794" y="-89.5" font-family="Helvetica,sans-Serif" font-size="10.00">src/SceneSystem/Scene</text>
<text text-anchor="middle" x="852" y="-78.5" font-family="Helvetica,sans-Serif" font-size="10.00">/Scene.cpp</text>
</a>
</g>
</g>
<!-- Node15&#45;&gt;Node17 -->
<g id="edge19_Node000015_Node000017" class="edge">
<title>Node15&#45;&gt;Node17</title>
<g id="a_edge19_Node000015_Node000017"><a xlink:title=" ">
<path fill="none" stroke="#63b8ff" d="M968.64,-138.81C942.16,-127.16 908.33,-112.28 883.93,-101.54"/>
<polygon fill="#63b8ff" stroke="#63b8ff" points="967.46,-142.11 978.03,-142.94 970.28,-135.71 967.46,-142.11"/>
</a>
</g>
</g>
</g>
</svg>
