<?xml version="1.0" encoding="UTF-8" standalone="no"?>
<!DOCTYPE svg PUBLIC "-//W3C//DTD SVG 1.1//EN"
 "http://www.w3.org/Graphics/SVG/1.1/DTD/svg11.dtd">
<!-- Generated by graphviz version 2.43.0 (0)
 -->
<!-- Title: src/Geometry/Rectangle3D/Rectangle3D.hpp Pages: 1 -->
<svg width="706pt" height="566pt"
 viewBox="0.00 0.00 705.68 566.00" xmlns="http://www.w3.org/2000/svg" xmlns:xlink="http://www.w3.org/1999/xlink">
<g id="graph0" class="graph" transform="scale(1 1) rotate(0) translate(4 562)">
<title>src/Geometry/Rectangle3D/Rectangle3D.hpp</title>
<!-- Node1 -->
<g id="Node000001" class="node">
<title>Node1</title>
<g id="a_Node000001"><a xlink:title=" ">
<polygon fill="#999999" stroke="#666666" points="250,-558 102,-558 102,-528 250,-528 250,-558"/>
<text text-anchor="start" x="110" y="-546" font-family="Helvetica,sans-Serif" font-size="10.00">src/Geometry/Rectangle3D</text>
<text text-anchor="middle" x="176" y="-535" font-family="Helvetica,sans-Serif" font-size="10.00">/Rectangle3D.hpp</text>
</a>
</g>
</g>
<!-- Node2 -->
<g id="Node000002" class="node">
<title>Node2</title>
<g id="a_Node000002"><a xlink:href="Rectangle3D_8cpp.html" target="_top" xlink:title=" ">
<polygon fill="white" stroke="#666666" points="148,-492 0,-492 0,-462 148,-462 148,-492"/>
<text text-anchor="start" x="8" y="-480" font-family="Helvetica,sans-Serif" font-size="10.00">src/Geometry/Rectangle3D</text>
<text text-anchor="middle" x="74" y="-469" font-family="Helvetica,sans-Serif" font-size="10.00">/Rectangle3D.cpp</text>
</a>
</g>
</g>
<!-- Node1&#45;&gt;Node2 -->
<g id="edge1_Node000001_Node000002" class="edge">
<title>Node1&#45;&gt;Node2</title>
<g id="a_edge1_Node000001_Node000002"><a xlink:title=" ">
<path fill="none" stroke="#63b8ff" d="M144.79,-522.42C129.14,-512.6 110.54,-500.93 96.33,-492.01"/>
<polygon fill="#63b8ff" stroke="#63b8ff" points="143.28,-525.6 153.62,-527.95 147.01,-519.68 143.28,-525.6"/>
</a>
</g>
</g>
<!-- Node3 -->
<g id="Node000003" class="node">
<title>Node3</title>
<g id="a_Node000003"><a xlink:href="AMaterial_8hpp.html" target="_top" xlink:title=" ">
<polygon fill="white" stroke="#666666" points="254,-162 116,-162 116,-132 254,-132 254,-162"/>
<text text-anchor="start" x="124" y="-150" font-family="Helvetica,sans-Serif" font-size="10.00">src/Objects/Abstract</text>
<text text-anchor="middle" x="185" y="-139" font-family="Helvetica,sans-Serif" font-size="10.00">/AMaterial/AMaterial.hpp</text>
</a>
</g>
</g>
<!-- Node1&#45;&gt;Node3 -->
<g id="edge2_Node000001_Node000003" class="edge">
<title>Node1&#45;&gt;Node3</title>
<g id="a_edge2_Node000001_Node000003"><a xlink:title=" ">
<path fill="none" stroke="#63b8ff" d="M176,-517.86C176,-491.76 176,-448.93 176,-412 176,-412 176,-412 176,-278 176,-235.69 180.8,-185.83 183.39,-162.02"/>
<polygon fill="#63b8ff" stroke="#63b8ff" points="172.5,-517.96 176,-527.96 179.5,-517.96 172.5,-517.96"/>
</a>
</g>
</g>
<!-- Node4 -->
<g id="Node000004" class="node">
<title>Node4</title>
<g id="a_Node000004"><a xlink:href="Camera_8hpp.html" target="_top" xlink:title=" ">
<polygon fill="white" stroke="#666666" points="373.5,-492 232.5,-492 232.5,-462 373.5,-462 373.5,-492"/>
<text text-anchor="start" x="240.5" y="-480" font-family="Helvetica,sans-Serif" font-size="10.00">src/SceneSystem/Camera</text>
<text text-anchor="middle" x="303" y="-469" font-family="Helvetica,sans-Serif" font-size="10.00">/Camera.hpp</text>
</a>
</g>
</g>
<!-- Node1&#45;&gt;Node4 -->
<g id="edge3_Node000001_Node000004" class="edge">
<title>Node1&#45;&gt;Node4</title>
<g id="a_edge3_Node000001_Node000004"><a xlink:title=" ">
<path fill="none" stroke="#63b8ff" d="M212.95,-523.38C232.83,-513.36 256.93,-501.22 275.19,-492.01"/>
<polygon fill="#63b8ff" stroke="#63b8ff" points="211.23,-520.33 203.87,-527.95 214.38,-526.58 211.23,-520.33"/>
</a>
</g>
</g>
<!-- Node5 -->
<g id="Node000005" class="node">
<title>Node5</title>
<g id="a_Node000005"><a xlink:href="Camera_8cpp.html" target="_top" xlink:title=" ">
<polygon fill="white" stroke="#666666" points="373.5,-426 232.5,-426 232.5,-396 373.5,-396 373.5,-426"/>
<text text-anchor="start" x="240.5" y="-414" font-family="Helvetica,sans-Serif" font-size="10.00">src/SceneSystem/Camera</text>
<text text-anchor="middle" x="303" y="-403" font-family="Helvetica,sans-Serif" font-size="10.00">/Camera.cpp</text>
</a>
</g>
</g>
<!-- Node4&#45;&gt;Node5 -->
<g id="edge4_Node000004_Node000005" class="edge">
<title>Node4&#45;&gt;Node5</title>
<g id="a_edge4_Node000004_Node000005"><a xlink:title=" ">
<path fill="none" stroke="#63b8ff" d="M303,-451.54C303,-442.96 303,-433.61 303,-426.16"/>
<polygon fill="#63b8ff" stroke="#63b8ff" points="299.5,-451.8 303,-461.8 306.5,-451.8 299.5,-451.8"/>
</a>
</g>
</g>
<!-- Node6 -->
<g id="Node000006" class="node">
<title>Node6</title>
<g id="a_Node000006"><a xlink:href="Scene_8hpp.html" target="_top" xlink:title=" ">
<polygon fill="white" stroke="#666666" points="541,-426 409,-426 409,-396 541,-396 541,-426"/>
<text text-anchor="start" x="417" y="-414" font-family="Helvetica,sans-Serif" font-size="10.00">src/SceneSystem/Scene</text>
<text text-anchor="middle" x="475" y="-403" font-family="Helvetica,sans-Serif" font-size="10.00">/Scene.hpp</text>
</a>
</g>
</g>
<!-- Node4&#45;&gt;Node6 -->
<g id="edge5_Node000004_Node000006" class="edge">
<title>Node4&#45;&gt;Node6</title>
<g id="a_edge5_Node000004_Node000006"><a xlink:title=" ">
<path fill="none" stroke="#63b8ff" d="M350.15,-458.46C377.59,-448.25 411.71,-435.55 437.34,-426.01"/>
<polygon fill="#63b8ff" stroke="#63b8ff" points="348.9,-455.19 340.75,-461.95 351.34,-461.75 348.9,-455.19"/>
</a>
</g>
</g>
<!-- Node7 -->
<g id="Node000007" class="node">
<title>Node7</title>
<g id="a_Node000007"><a xlink:href="ILight_8hpp.html" target="_top" xlink:title=" ">
<polygon fill="white" stroke="#666666" points="460.5,-360 343.5,-360 343.5,-330 460.5,-330 460.5,-360"/>
<text text-anchor="start" x="351.5" y="-348" font-family="Helvetica,sans-Serif" font-size="10.00">src/Objects/Interface</text>
<text text-anchor="middle" x="402" y="-337" font-family="Helvetica,sans-Serif" font-size="10.00">/ILight.hpp</text>
</a>
</g>
</g>
<!-- Node6&#45;&gt;Node7 -->
<g id="edge6_Node000006_Node000007" class="edge">
<title>Node6&#45;&gt;Node7</title>
<g id="a_edge6_Node000006_Node000007"><a xlink:title=" ">
<path fill="none" stroke="#63b8ff" d="M445.24,-389.48C433.64,-379.91 421.14,-368.77 412.44,-360.16"/>
<polygon fill="#63b8ff" stroke="#63b8ff" points="443.1,-392.24 453.08,-395.8 447.49,-386.79 443.1,-392.24"/>
</a>
</g>
</g>
<!-- Node15 -->
<g id="Node000015" class="node">
<title>Node15</title>
<g id="a_Node000015"><a xlink:href="Renderer_8hpp.html" target="_top" xlink:title=" ">
<polygon fill="white" stroke="#666666" points="636,-222.5 490,-222.5 490,-203.5 636,-203.5 636,-222.5"/>
<text text-anchor="middle" x="563" y="-210.5" font-family="Helvetica,sans-Serif" font-size="10.00">src/Renderer/Renderer.hpp</text>
</a>
</g>
</g>
<!-- Node6&#45;&gt;Node15 -->
<g id="edge24_Node000006_Node000015" class="edge">
<title>Node6&#45;&gt;Node15</title>
<g id="a_edge24_Node000006_Node000015"><a xlink:title=" ">
<path fill="none" stroke="#63b8ff" d="M484.48,-386.12C490.91,-370.15 499.71,-348.71 508,-330 525.96,-289.45 549.23,-241.85 558.71,-222.66"/>
<polygon fill="#63b8ff" stroke="#63b8ff" points="481.09,-385.16 480.62,-395.74 487.59,-387.76 481.09,-385.16"/>
</a>
</g>
</g>
<!-- Node17 -->
<g id="Node000017" class="node">
<title>Node17</title>
<g id="a_Node000017"><a xlink:href="Scene_8cpp.html" target="_top" xlink:title=" ">
<polygon fill="white" stroke="#666666" points="649,-360 517,-360 517,-330 649,-330 649,-360"/>
<text text-anchor="start" x="525" y="-348" font-family="Helvetica,sans-Serif" font-size="10.00">src/SceneSystem/Scene</text>
<text text-anchor="middle" x="583" y="-337" font-family="Helvetica,sans-Serif" font-size="10.00">/Scene.cpp</text>
</a>
</g>
</g>
<!-- Node6&#45;&gt;Node17 -->
<g id="edge25_Node000006_Node000017" class="edge">
<title>Node6&#45;&gt;Node17</title>
<g id="a_edge25_Node000006_Node000017"><a xlink:title=" ">
<path fill="none" stroke="#63b8ff" d="M507.58,-390.69C524.25,-380.82 544.17,-369.01 559.35,-360.01"/>
<polygon fill="#63b8ff" stroke="#63b8ff" points="505.52,-387.85 498.7,-395.95 509.09,-393.87 505.52,-387.85"/>
</a>
</g>
</g>
<!-- Node7&#45;&gt;Node6 -->
<g id="edge23_Node000007_Node000006" class="edge">
<title>Node7&#45;&gt;Node6</title>
<g id="a_edge23_Node000007_Node000006"><a xlink:title=" ">
<path fill="none" stroke="#63b8ff" d="M431.7,-366.48C443.31,-376.04 455.81,-387.18 464.52,-395.8"/>
<polygon fill="#63b8ff" stroke="#63b8ff" points="433.85,-363.72 423.87,-360.16 429.46,-369.17 433.85,-363.72"/>
</a>
</g>
</g>
<!-- Node8 -->
<g id="Node000008" class="node">
<title>Node8</title>
<g id="a_Node000008"><a xlink:href="IMaterial_8hpp.html" target="_top" xlink:title=" ">
<polygon fill="white" stroke="#666666" points="422.5,-294 305.5,-294 305.5,-264 422.5,-264 422.5,-294"/>
<text text-anchor="start" x="313.5" y="-282" font-family="Helvetica,sans-Serif" font-size="10.00">src/Objects/Interface</text>
<text text-anchor="middle" x="364" y="-271" font-family="Helvetica,sans-Serif" font-size="10.00">/IMaterial.hpp</text>
</a>
</g>
</g>
<!-- Node7&#45;&gt;Node8 -->
<g id="edge7_Node000007_Node000008" class="edge">
<title>Node7&#45;&gt;Node8</title>
<g id="a_edge7_Node000007_Node000008"><a xlink:title=" ">
<path fill="none" stroke="#63b8ff" d="M388.32,-320.96C383,-312 377.08,-302.03 372.41,-294.16"/>
<polygon fill="#63b8ff" stroke="#63b8ff" points="385.45,-322.98 393.57,-329.8 391.47,-319.41 385.45,-322.98"/>
</a>
</g>
</g>
<!-- Node7&#45;&gt;Node15 -->
<g id="edge22_Node000007_Node000015" class="edge">
<title>Node7&#45;&gt;Node15</title>
<g id="a_edge22_Node000007_Node000015"><a xlink:title=" ">
<path fill="none" stroke="#63b8ff" d="M418.94,-321.9C432.8,-304.77 453.54,-281.14 475,-264 496.83,-246.56 525.49,-231.5 544.07,-222.59"/>
<polygon fill="#63b8ff" stroke="#63b8ff" points="416.2,-319.73 412.72,-329.73 421.68,-324.08 416.2,-319.73"/>
</a>
</g>
</g>
<!-- Node9 -->
<g id="Node000009" class="node">
<title>Node9</title>
<g id="a_Node000009"><a xlink:href="HitRecord_8hpp.html" target="_top" xlink:title=" ">
<polygon fill="white" stroke="#666666" points="338,-228 204,-228 204,-198 338,-198 338,-228"/>
<text text-anchor="start" x="212" y="-216" font-family="Helvetica,sans-Serif" font-size="10.00">src/Geometry/HitRecord</text>
<text text-anchor="middle" x="271" y="-205" font-family="Helvetica,sans-Serif" font-size="10.00">/HitRecord.hpp</text>
</a>
</g>
</g>
<!-- Node8&#45;&gt;Node9 -->
<g id="edge8_Node000008_Node000009" class="edge">
<title>Node8&#45;&gt;Node9</title>
<g id="a_edge8_Node000008_Node000009"><a xlink:title=" ">
<path fill="none" stroke="#63b8ff" d="M329.27,-258.42C314.21,-248.6 297.44,-236.93 285.67,-228.01"/>
<polygon fill="#63b8ff" stroke="#63b8ff" points="327.59,-261.5 337.89,-263.95 331.37,-255.61 327.59,-261.5"/>
</a>
</g>
</g>
<!-- Node11 -->
<g id="Node000011" class="node">
<title>Node11</title>
<g id="a_Node000011"><a xlink:href="APrimitive_8hpp.html" target="_top" xlink:title=" ">
<polygon fill="white" stroke="#666666" points="371,-96 225,-96 225,-66 371,-66 371,-96"/>
<text text-anchor="start" x="233" y="-84" font-family="Helvetica,sans-Serif" font-size="10.00">src/Objects/Abstract</text>
<text text-anchor="middle" x="298" y="-73" font-family="Helvetica,sans-Serif" font-size="10.00">/APrimitive/APrimitive.hpp</text>
</a>
</g>
</g>
<!-- Node8&#45;&gt;Node11 -->
<g id="edge18_Node000008_Node000011" class="edge">
<title>Node8&#45;&gt;Node11</title>
<g id="a_edge18_Node000008_Node000011"><a xlink:title=" ">
<path fill="none" stroke="#63b8ff" d="M362.7,-253.76C360.91,-237.15 356.74,-215.11 347,-198 335.33,-177.5 318.79,-182.98 308,-162 297.18,-140.96 296.29,-112.84 296.93,-96.15"/>
<polygon fill="#63b8ff" stroke="#63b8ff" points="359.21,-254.12 363.56,-263.79 366.19,-253.52 359.21,-254.12"/>
</a>
</g>
</g>
<!-- Node13 -->
<g id="Node000013" class="node">
<title>Node13</title>
<g id="a_Node000013"><a xlink:href="Plane_8hpp.html" target="_top" xlink:title=" ">
<polygon fill="white" stroke="#666666" points="517.5,-96 394.5,-96 394.5,-66 517.5,-66 517.5,-96"/>
<text text-anchor="start" x="402.5" y="-84" font-family="Helvetica,sans-Serif" font-size="10.00">src/Objects/Primitives</text>
<text text-anchor="middle" x="456" y="-73" font-family="Helvetica,sans-Serif" font-size="10.00">/Plane/Plane.hpp</text>
</a>
</g>
</g>
<!-- Node8&#45;&gt;Node13 -->
<g id="edge19_Node000008_Node000013" class="edge">
<title>Node8&#45;&gt;Node13</title>
<g id="a_edge19_Node000008_Node000013"><a xlink:title=" ">
<path fill="none" stroke="#63b8ff" d="M383.35,-256.04C401.74,-233.89 428.67,-197.92 443,-162 451.76,-140.04 454.62,-112.45 455.55,-96.08"/>
<polygon fill="#63b8ff" stroke="#63b8ff" points="380.55,-253.93 376.76,-263.82 385.89,-258.45 380.55,-253.93"/>
</a>
</g>
</g>
<!-- Node8&#45;&gt;Node15 -->
<g id="edge20_Node000008_Node000015" class="edge">
<title>Node8&#45;&gt;Node15</title>
<g id="a_edge20_Node000008_Node000015"><a xlink:title=" ">
<path fill="none" stroke="#63b8ff" d="M417.19,-260.89C455.73,-248.5 506.19,-232.27 536.52,-222.52"/>
<polygon fill="#63b8ff" stroke="#63b8ff" points="416.12,-257.56 407.67,-263.95 418.26,-264.23 416.12,-257.56"/>
</a>
</g>
</g>
<!-- Node9&#45;&gt;Node3 -->
<g id="edge9_Node000009_Node000003" class="edge">
<title>Node9&#45;&gt;Node3</title>
<g id="a_edge9_Node000009_Node000003"><a xlink:title=" ">
<path fill="none" stroke="#63b8ff" d="M243.79,-191.75C230.86,-182.13 215.71,-170.86 204.03,-162.16"/>
<polygon fill="#63b8ff" stroke="#63b8ff" points="241.8,-194.63 251.91,-197.8 245.98,-189.02 241.8,-194.63"/>
</a>
</g>
</g>
<!-- Node9&#45;&gt;Node7 -->
<g id="edge10_Node000009_Node000007" class="edge">
<title>Node9&#45;&gt;Node7</title>
<g id="a_edge10_Node000009_Node000007"><a xlink:title=" ">
<path fill="none" stroke="#63b8ff" d="M273.71,-238.03C276.78,-255.36 283.28,-278.37 297,-294 311.58,-310.62 332.9,-322.17 352.52,-329.94"/>
<polygon fill="#63b8ff" stroke="#63b8ff" points="277.16,-237.46 272.21,-228.09 270.24,-238.5 277.16,-237.46"/>
</a>
</g>
</g>
<!-- Node9&#45;&gt;Node8 -->
<g id="edge11_Node000009_Node000008" class="edge">
<title>Node9&#45;&gt;Node8</title>
<g id="a_edge11_Node000009_Node000008"><a xlink:title=" ">
<path fill="none" stroke="#63b8ff" d="M305.84,-233.66C320.77,-243.39 337.35,-254.93 349.08,-263.8"/>
<polygon fill="#63b8ff" stroke="#63b8ff" points="307.6,-230.62 297.3,-228.16 303.82,-236.51 307.6,-230.62"/>
</a>
</g>
</g>
<!-- Node10 -->
<g id="Node000010" class="node">
<title>Node10</title>
<g id="a_Node000010"><a xlink:href="IPrimitive_8hpp.html" target="_top" xlink:title=" ">
<polygon fill="white" stroke="#666666" points="433.5,-162 316.5,-162 316.5,-132 433.5,-132 433.5,-162"/>
<text text-anchor="start" x="324.5" y="-150" font-family="Helvetica,sans-Serif" font-size="10.00">src/Objects/Interface</text>
<text text-anchor="middle" x="375" y="-139" font-family="Helvetica,sans-Serif" font-size="10.00">/IPrimitive.hpp</text>
</a>
</g>
</g>
<!-- Node9&#45;&gt;Node10 -->
<g id="edge12_Node000009_Node000010" class="edge">
<title>Node9&#45;&gt;Node10</title>
<g id="a_edge12_Node000009_Node000010"><a xlink:title=" ">
<path fill="none" stroke="#63b8ff" d="M302.37,-192.69C318.43,-182.82 337.61,-171.01 352.23,-162.01"/>
<polygon fill="#63b8ff" stroke="#63b8ff" points="300.51,-189.73 293.82,-197.95 304.17,-195.69 300.51,-189.73"/>
</a>
</g>
</g>
<!-- Node10&#45;&gt;Node6 -->
<g id="edge17_Node000010_Node000006" class="edge">
<title>Node10&#45;&gt;Node6</title>
<g id="a_edge17_Node000010_Node000006"><a xlink:title=" ">
<path fill="none" stroke="#63b8ff" d="M443.79,-158.64C521.51,-170.97 638.15,-190.54 645,-198 738.3,-299.59 683.32,-326.83 658,-360 643.61,-378.85 587.51,-392.31 541.17,-400.49"/>
<polygon fill="#63b8ff" stroke="#63b8ff" points="444,-155.13 433.57,-157.02 442.91,-162.04 444,-155.13"/>
</a>
</g>
</g>
<!-- Node10&#45;&gt;Node11 -->
<g id="edge13_Node000010_Node000011" class="edge">
<title>Node10&#45;&gt;Node11</title>
<g id="a_edge13_Node000010_Node000011"><a xlink:title=" ">
<path fill="none" stroke="#63b8ff" d="M349.98,-125.2C338.55,-115.7 325.3,-104.69 315.04,-96.16"/>
<polygon fill="#63b8ff" stroke="#63b8ff" points="347.98,-128.1 357.91,-131.8 352.46,-122.71 347.98,-128.1"/>
</a>
</g>
</g>
<!-- Node10&#45;&gt;Node13 -->
<g id="edge15_Node000010_Node000013" class="edge">
<title>Node10&#45;&gt;Node13</title>
<g id="a_edge15_Node000010_Node000013"><a xlink:title=" ">
<path fill="none" stroke="#63b8ff" d="M400.97,-125.48C413.08,-115.91 427.18,-104.77 438.07,-96.16"/>
<polygon fill="#63b8ff" stroke="#63b8ff" points="398.65,-122.85 392.98,-131.8 402.99,-128.34 398.65,-122.85"/>
</a>
</g>
</g>
<!-- Node12 -->
<g id="Node000012" class="node">
<title>Node12</title>
<g id="a_Node000012"><a xlink:href="APrimitive_8cpp.html" target="_top" xlink:title=" ">
<polygon fill="white" stroke="#666666" points="370.5,-30 225.5,-30 225.5,0 370.5,0 370.5,-30"/>
<text text-anchor="start" x="233.5" y="-18" font-family="Helvetica,sans-Serif" font-size="10.00">src/Objects/Abstract</text>
<text text-anchor="middle" x="298" y="-7" font-family="Helvetica,sans-Serif" font-size="10.00">/APrimitive/APrimitive.cpp</text>
</a>
</g>
</g>
<!-- Node11&#45;&gt;Node12 -->
<g id="edge14_Node000011_Node000012" class="edge">
<title>Node11&#45;&gt;Node12</title>
<g id="a_edge14_Node000011_Node000012"><a xlink:title=" ">
<path fill="none" stroke="#63b8ff" d="M298,-55.54C298,-46.96 298,-37.61 298,-30.16"/>
<polygon fill="#63b8ff" stroke="#63b8ff" points="294.5,-55.8 298,-65.8 301.5,-55.8 294.5,-55.8"/>
</a>
</g>
</g>
<!-- Node14 -->
<g id="Node000014" class="node">
<title>Node14</title>
<g id="a_Node000014"><a xlink:href="Plane_8cpp.html" target="_top" xlink:title=" ">
<polygon fill="white" stroke="#666666" points="517.5,-30 394.5,-30 394.5,0 517.5,0 517.5,-30"/>
<text text-anchor="start" x="402.5" y="-18" font-family="Helvetica,sans-Serif" font-size="10.00">src/Objects/Primitives</text>
<text text-anchor="middle" x="456" y="-7" font-family="Helvetica,sans-Serif" font-size="10.00">/Plane/Plane.cpp</text>
</a>
</g>
</g>
<!-- Node13&#45;&gt;Node14 -->
<g id="edge16_Node000013_Node000014" class="edge">
<title>Node13&#45;&gt;Node14</title>
<g id="a_edge16_Node000013_Node000014"><a xlink:title=" ">
<path fill="none" stroke="#63b8ff" d="M456,-55.54C456,-46.96 456,-37.61 456,-30.16"/>
<polygon fill="#63b8ff" stroke="#63b8ff" points="452.5,-55.8 456,-65.8 459.5,-55.8 452.5,-55.8"/>
</a>
</g>
</g>
<!-- Node16 -->
<g id="Node000016" class="node">
<title>Node16</title>
<g id="a_Node000016"><a xlink:href="Renderer_8cpp.html" target="_top" xlink:title=" ">
<polygon fill="white" stroke="#666666" points="635.5,-156.5 490.5,-156.5 490.5,-137.5 635.5,-137.5 635.5,-156.5"/>
<text text-anchor="middle" x="563" y="-144.5" font-family="Helvetica,sans-Serif" font-size="10.00">src/Renderer/Renderer.cpp</text>
</a>
</g>
</g>
<!-- Node15&#45;&gt;Node16 -->
<g id="edge21_Node000015_Node000016" class="edge">
<title>Node15&#45;&gt;Node16</title>
<g id="a_edge21_Node000015_Node000016"><a xlink:title=" ">
<path fill="none" stroke="#63b8ff" d="M563,-193.08C563,-181.13 563,-166.22 563,-156.91"/>
<polygon fill="#63b8ff" stroke="#63b8ff" points="559.5,-193.37 563,-203.37 566.5,-193.37 559.5,-193.37"/>
</a>
</g>
</g>
</g>
</svg>
