<?xml version="1.0" encoding="UTF-8" standalone="no"?>
<!DOCTYPE svg PUBLIC "-//W3C//DTD SVG 1.1//EN"
 "http://www.w3.org/Graphics/SVG/1.1/DTD/svg11.dtd">
<!-- Generated by graphviz version 2.43.0 (0)
 -->
<!-- Title: src/SceneSystem/Scene/Scene.hpp Pages: 1 -->
<!--zoomable 555 -->

<svg id="main" version="1.1" xmlns="http://www.w3.org/2000/svg" xmlns:xlink="http://www.w3.org/1999/xlink" xml:space="preserve" onload="init(evt)">
<style type="text/css"><![CDATA[
.node, .edge {opacity: 0.7;}
.node.selected, .edge.selected {opacity: 1;}
.edge:hover path { stroke: red; }
.edge:hover polygon { stroke: red; fill: red; }
]]></style>

<defs>
  <circle id="rim" cx="0" cy="0" r="7"/>
  <circle id="rim2" cx="0" cy="0" r="3.5"/>
  <g id="zoomPlus">
    <use xlink:href="#rim" fill="#404040"><set attributeName="fill" to="#808080" begin="zoomplus.mouseover" end="zoomplus.mouseout"/></use>
    <path d="M-4,0h8M0,-4v8" fill="none" stroke="white" stroke-width="1.5" pointer-events="none"/>
  </g>
  <g id="zoomMin">
    <use xlink:href="#rim" fill="#404040"><set attributeName="fill" to="#808080" begin="zoomminus.mouseover" end="zoomminus.mouseout"/></use>
    <path d="M-4,0h8" fill="none" stroke="white" stroke-width="1.5" pointer-events="none"/>
  </g>
  <g id="arrowUp" transform="translate(30 24)">
    <use xlink:href="#rim"/>
    <path pointer-events="none" fill="none" stroke="white" stroke-width="1.5" d="M0,-3.0v7 M-2.5,-0.5L0,-3.0L2.5,-0.5"/>
  </g>
  <g id="arrowRight" transform="rotate(90) translate(36 -43)">
    <use xlink:href="#rim"/>
    <path pointer-events="none" fill="none" stroke="white" stroke-width="1.5" d="M0,-3.0v7 M-2.5,-0.5L0,-3.0L2.5,-0.5"/>
  </g>
  <g id="arrowDown" transform="rotate(180) translate(-30 -48)">
    <use xlink:href="#rim"/>
    <path pointer-events="none" fill="none" stroke="white" stroke-width="1.5" d="M0,-3.0v7 M-2.5,-0.5L0,-3.0L2.5,-0.5"/>
  </g>
  <g id="arrowLeft" transform="rotate(270) translate(-36 17)">
    <use xlink:href="#rim"/>
    <path pointer-events="none" fill="none" stroke="white" stroke-width="1.5" d="M0,-3.0v7 M-2.5,-0.5L0,-3.0L2.5,-0.5"/>
  </g>
  <g id="resetDef">
    <use xlink:href="#rim2" fill="#404040"><set attributeName="fill" to="#808080" begin="reset.mouseover" end="reset.mouseout"/></use>
  </g>
</defs>
<script type="application/ecmascript">
var viewWidth = 1037;
var viewHeight = 555;
var sectionId = 'dynsection-0';
</script>
<script type="application/ecmascript" xlink:href="svg.min.js"/>
<svg id="graph" class="graph">
<g id="viewport">
<title>src/SceneSystem/Scene/Scene.hpp</title>
<!-- Node1 -->
<g id="Node000001" class="node">
<title>Node1</title>
<g id="a_Node000001"><a xlink:title=" ">
<polygon fill="#999999" stroke="#666666" points="841,-547 709,-547 709,-517 841,-517 841,-547"/>
<text text-anchor="start" x="717" y="-535" font-family="Helvetica,sans-Serif" font-size="10.00">src/SceneSystem/Scene</text>
<text text-anchor="middle" x="775" y="-524" font-family="Helvetica,sans-Serif" font-size="10.00">/Scene.hpp</text>
</a>
</g>
</g>
<!-- Node2 -->
<g id="Node000002" class="node">
<title>Node2</title>
<g id="a_Node000002"><a xlink:href="Plugin_8hpp.html" target="_top" xlink:title=" ">
<polygon fill="white" stroke="#666666" points="588.5,-426 463.5,-426 463.5,-407 588.5,-407 588.5,-426"/>
<text text-anchor="middle" x="526" y="-414" font-family="Helvetica,sans-Serif" font-size="10.00">../../Objects/Plugin.hpp</text>
</a>
</g>
</g>
<!-- Node1&#45;&gt;Node2 -->
<g id="edge1_Node000001_Node000002" class="edge">
<title>Node1&#45;&gt;Node2</title>
<g id="a_edge1_Node000001_Node000002"><a xlink:title=" ">
<path fill="none" stroke="#63b8ff" d="M744.22,-516.97C695.51,-494.76 601.36,-451.85 554.27,-430.38"/>
<polygon fill="#63b8ff" stroke="#63b8ff" points="555.52,-427.11 544.97,-426.14 552.61,-433.48 555.52,-427.11"/>
</a>
</g>
</g>
<!-- Node4 -->
<g id="Node000004" class="node">
<title>Node4</title>
<g id="a_Node000004"><a xlink:title=" ">
<polygon fill="#e0e0e0" stroke="#999999" points="912,-189.5 854,-189.5 854,-170.5 912,-170.5 912,-189.5"/>
<text text-anchor="middle" x="883" y="-177.5" font-family="Helvetica,sans-Serif" font-size="10.00">memory</text>
</a>
</g>
</g>
<!-- Node1&#45;&gt;Node4 -->
<g id="edge42_Node000001_Node000004" class="edge">
<title>Node1&#45;&gt;Node4</title>
<g id="a_edge42_Node000001_Node000004"><a xlink:title=" ">
<path fill="none" stroke="#63b8ff" d="M841.07,-529.03C916.33,-522.85 1029,-499.85 1029,-417.5 1029,-417.5 1029,-417.5 1029,-294.5 1029,-240.14 965.14,-208.04 921.89,-192.53"/>
<polygon fill="#63b8ff" stroke="#63b8ff" points="922.79,-189.14 912.19,-189.21 920.52,-195.76 922.79,-189.14"/>
</a>
</g>
</g>
<!-- Node16 -->
<g id="Node000016" class="node">
<title>Node16</title>
<g id="a_Node000016"><a xlink:title=" ">
<polygon fill="#e0e0e0" stroke="#999999" points="127.5,-189.5 80.5,-189.5 80.5,-170.5 127.5,-170.5 127.5,-189.5"/>
<text text-anchor="middle" x="104" y="-177.5" font-family="Helvetica,sans-Serif" font-size="10.00">vector</text>
</a>
</g>
</g>
<!-- Node1&#45;&gt;Node16 -->
<g id="edge41_Node000001_Node000016" class="edge">
<title>Node1&#45;&gt;Node16</title>
<g id="a_edge41_Node000001_Node000016"><a xlink:title=" ">
<path fill="none" stroke="#63b8ff" d="M708.92,-528.24C521.51,-519.53 0,-488.89 0,-417.5 0,-417.5 0,-417.5 0,-294.5 0,-265.04 0.82,-254.18 19,-231 32.37,-213.95 53.29,-201.54 71.04,-193.34"/>
<polygon fill="#63b8ff" stroke="#63b8ff" points="72.73,-196.42 80.5,-189.22 69.93,-190.01 72.73,-196.42"/>
</a>
</g>
</g>
<!-- Node26 -->
<g id="Node000026" class="node">
<title>Node26</title>
<g id="a_Node000026"><a xlink:href="PluginManager_8hpp.html" target="_top" xlink:title="Plugin manager for loading and managing plugins.">
<polygon fill="white" stroke="#666666" points="948,-481 754,-481 754,-462 948,-462 948,-481"/>
<text text-anchor="middle" x="851" y="-469" font-family="Helvetica,sans-Serif" font-size="10.00">../PluginManager/PluginManager.hpp</text>
</a>
</g>
</g>
<!-- Node1&#45;&gt;Node26 -->
<g id="edge36_Node000001_Node000026" class="edge">
<title>Node1&#45;&gt;Node26</title>
<g id="a_edge36_Node000001_Node000026"><a xlink:title=" ">
<path fill="none" stroke="#63b8ff" d="M793.4,-516.84C804.88,-508 819.65,-496.63 831.36,-487.62"/>
<polygon fill="#63b8ff" stroke="#63b8ff" points="833.82,-490.14 839.61,-481.27 829.55,-484.59 833.82,-490.14"/>
</a>
</g>
</g>
<!-- Node3 -->
<g id="Node000003" class="node">
<title>Node3</title>
<g id="a_Node000003"><a xlink:title=" ">
<polygon fill="#e0e0e0" stroke="#999999" points="660.5,-365.5 595.5,-365.5 595.5,-346.5 660.5,-346.5 660.5,-365.5"/>
<text text-anchor="middle" x="628" y="-353.5" font-family="Helvetica,sans-Serif" font-size="10.00">functional</text>
</a>
</g>
</g>
<!-- Node2&#45;&gt;Node3 -->
<g id="edge2_Node000002_Node000003" class="edge">
<title>Node2&#45;&gt;Node3</title>
<g id="a_edge2_Node000002_Node000003"><a xlink:title=" ">
<path fill="none" stroke="#63b8ff" d="M541.05,-406.87C557.62,-397.36 584.5,-381.95 603.99,-370.77"/>
<polygon fill="#63b8ff" stroke="#63b8ff" points="605.95,-373.68 612.89,-365.67 602.47,-367.61 605.95,-373.68"/>
</a>
</g>
</g>
<!-- Node2&#45;&gt;Node4 -->
<g id="edge3_Node000002_Node000004" class="edge">
<title>Node2&#45;&gt;Node4</title>
<g id="a_edge3_Node000002_Node000004"><a xlink:title=" ">
<path fill="none" stroke="#63b8ff" d="M588.61,-416.17C675.73,-415.67 827.03,-409.14 864,-371 909.16,-324.4 896.37,-237.98 887.84,-199.88"/>
<polygon fill="#63b8ff" stroke="#63b8ff" points="891.14,-198.61 885.4,-189.7 884.33,-200.24 891.14,-198.61"/>
</a>
</g>
</g>
<!-- Node5 -->
<g id="Node000005" class="node">
<title>Node5</title>
<g id="a_Node000005"><a xlink:title=" ">
<polygon fill="#e0e0e0" stroke="#999999" points="520.5,-365.5 469.5,-365.5 469.5,-346.5 520.5,-346.5 520.5,-365.5"/>
<text text-anchor="middle" x="495" y="-353.5" font-family="Helvetica,sans-Serif" font-size="10.00">variant</text>
</a>
</g>
</g>
<!-- Node2&#45;&gt;Node5 -->
<g id="edge4_Node000002_Node000005" class="edge">
<title>Node2&#45;&gt;Node5</title>
<g id="a_edge4_Node000002_Node000005"><a xlink:title=" ">
<path fill="none" stroke="#63b8ff" d="M521.43,-406.87C516.94,-398.4 509.97,-385.24 504.31,-374.57"/>
<polygon fill="#63b8ff" stroke="#63b8ff" points="507.37,-372.86 499.59,-365.67 501.18,-376.14 507.37,-372.86"/>
</a>
</g>
</g>
<!-- Node6 -->
<g id="Node000006" class="node">
<title>Node6</title>
<g id="a_Node000006"><a xlink:title=" ">
<polygon fill="#e0e0e0" stroke="#999999" points="577,-365.5 539,-365.5 539,-346.5 577,-346.5 577,-365.5"/>
<text text-anchor="middle" x="558" y="-353.5" font-family="Helvetica,sans-Serif" font-size="10.00">map</text>
</a>
</g>
</g>
<!-- Node2&#45;&gt;Node6 -->
<g id="edge5_Node000002_Node000006" class="edge">
<title>Node2&#45;&gt;Node6</title>
<g id="a_edge5_Node000002_Node000006"><a xlink:title=" ">
<path fill="none" stroke="#63b8ff" d="M530.72,-406.87C535.35,-398.4 542.55,-385.24 548.39,-374.57"/>
<polygon fill="#63b8ff" stroke="#63b8ff" points="551.53,-376.12 553.26,-365.67 545.39,-372.76 551.53,-376.12"/>
</a>
</g>
</g>
<!-- Node7 -->
<g id="Node000007" class="node">
<title>Node7</title>
<g id="a_Node000007"><a xlink:href="RaytracerException_8hpp.html" target="_top" xlink:title=" ">
<polygon fill="white" stroke="#666666" points="855.5,-371 678.5,-371 678.5,-341 855.5,-341 855.5,-371"/>
<text text-anchor="start" x="686.5" y="-359" font-family="Helvetica,sans-Serif" font-size="10.00">../Exceptions/RaytracerException</text>
<text text-anchor="middle" x="767" y="-348" font-family="Helvetica,sans-Serif" font-size="10.00">/RaytracerException.hpp</text>
</a>
</g>
</g>
<!-- Node2&#45;&gt;Node7 -->
<g id="edge6_Node000002_Node000007" class="edge">
<title>Node2&#45;&gt;Node7</title>
<g id="a_edge6_Node000002_Node000007"><a xlink:title=" ">
<path fill="none" stroke="#63b8ff" d="M561.04,-406.99C597.09,-398.24 654.16,-384.39 699.09,-373.48"/>
<polygon fill="#63b8ff" stroke="#63b8ff" points="700.17,-376.82 709.06,-371.06 698.52,-370.02 700.17,-376.82"/>
</a>
</g>
</g>
<!-- Node12 -->
<g id="Node000012" class="node">
<title>Node12</title>
<g id="a_Node000012"><a xlink:href="AInterface_8hpp.html" target="_top" xlink:title=" ">
<polygon fill="white" stroke="#666666" points="241,-371 125,-371 125,-341 241,-341 241,-371"/>
<text text-anchor="start" x="133" y="-359" font-family="Helvetica,sans-Serif" font-size="10.00">Abstracts/AInterface</text>
<text text-anchor="middle" x="183" y="-348" font-family="Helvetica,sans-Serif" font-size="10.00">/AInterface.hpp</text>
</a>
</g>
</g>
<!-- Node2&#45;&gt;Node12 -->
<g id="edge11_Node000002_Node000012" class="edge">
<title>Node2&#45;&gt;Node12</title>
<g id="a_edge11_Node000002_Node000012"><a xlink:title=" ">
<path fill="none" stroke="#63b8ff" d="M471.16,-406.98C416.36,-398.35 329.74,-384.4 255,-371 253.73,-370.77 252.45,-370.54 251.16,-370.31"/>
<polygon fill="#63b8ff" stroke="#63b8ff" points="251.6,-366.83 241.13,-368.45 250.33,-373.71 251.6,-366.83"/>
</a>
</g>
</g>
<!-- Node13 -->
<g id="Node000013" class="node">
<title>Node13</title>
<g id="a_Node000013"><a xlink:href="ARenderer_8hpp.html" target="_top" xlink:title=" ">
<polygon fill="white" stroke="#666666" points="179.5,-250 28.5,-250 28.5,-231 179.5,-231 179.5,-250"/>
<text text-anchor="middle" x="104" y="-238" font-family="Helvetica,sans-Serif" font-size="10.00">../ARenderer/ARenderer.hpp</text>
</a>
</g>
</g>
<!-- Node2&#45;&gt;Node13 -->
<g id="edge33_Node000002_Node000013" class="edge">
<title>Node2&#45;&gt;Node13</title>
<g id="a_edge33_Node000002_Node000013"><a xlink:title=" ">
<path fill="none" stroke="#63b8ff" d="M463.48,-413C354.71,-408.04 139.89,-395.27 116,-371 87.05,-341.6 93.32,-288.18 99.27,-260.02"/>
<polygon fill="#63b8ff" stroke="#63b8ff" points="102.69,-260.79 101.55,-250.26 95.87,-259.2 102.69,-260.79"/>
</a>
</g>
</g>
<!-- Node17 -->
<g id="Node000017" class="node">
<title>Node17</title>
<g id="a_Node000017"><a xlink:href="APrimitive_8hpp.html" target="_top" xlink:title=" ">
<polygon fill="white" stroke="#666666" points="451,-371 335,-371 335,-341 451,-341 451,-371"/>
<text text-anchor="start" x="343" y="-359" font-family="Helvetica,sans-Serif" font-size="10.00">Abstracts/APrimitive</text>
<text text-anchor="middle" x="393" y="-348" font-family="Helvetica,sans-Serif" font-size="10.00">/APrimitive.hpp</text>
</a>
</g>
</g>
<!-- Node2&#45;&gt;Node17 -->
<g id="edge16_Node000002_Node000017" class="edge">
<title>Node2&#45;&gt;Node17</title>
<g id="a_edge16_Node000002_Node000017"><a xlink:title=" ">
<path fill="none" stroke="#63b8ff" d="M506.66,-406.99C487.77,-398.68 458.42,-385.78 434.28,-375.16"/>
<polygon fill="#63b8ff" stroke="#63b8ff" points="435.54,-371.89 424.98,-371.06 432.72,-378.29 435.54,-371.89"/>
</a>
</g>
</g>
<!-- Node18 -->
<g id="Node000018" class="node">
<title>Node18</title>
<g id="a_Node000018"><a xlink:href="IMaterial_8hpp.html" target="_top" xlink:title=" ">
<polygon fill="white" stroke="#666666" points="279,-305 189,-305 189,-286 279,-286 279,-305"/>
<text text-anchor="middle" x="234" y="-293" font-family="Helvetica,sans-Serif" font-size="10.00">../IMaterial.hpp</text>
</a>
</g>
</g>
<!-- Node2&#45;&gt;Node18 -->
<g id="edge35_Node000002_Node000018" class="edge">
<title>Node2&#45;&gt;Node18</title>
<g id="a_edge35_Node000002_Node000018"><a xlink:title=" ">
<path fill="none" stroke="#63b8ff" d="M463.41,-415.23C413.91,-412.39 344.77,-402.38 293,-371 270.35,-357.28 252.91,-331.48 243.05,-314.14"/>
<polygon fill="#63b8ff" stroke="#63b8ff" points="245.98,-312.19 238.14,-305.06 239.82,-315.52 245.98,-312.19"/>
</a>
</g>
</g>
<!-- Node19 -->
<g id="Node000019" class="node">
<title>Node19</title>
<g id="a_Node000019"><a xlink:href="ILight_8hpp.html" target="_top" xlink:title=" ">
<polygon fill="white" stroke="#666666" points="339.5,-250 274.5,-250 274.5,-231 339.5,-231 339.5,-250"/>
<text text-anchor="middle" x="307" y="-238" font-family="Helvetica,sans-Serif" font-size="10.00">ILight.hpp</text>
</a>
</g>
</g>
<!-- Node2&#45;&gt;Node19 -->
<g id="edge34_Node000002_Node000019" class="edge">
<title>Node2&#45;&gt;Node19</title>
<g id="a_edge34_Node000002_Node000019"><a xlink:title=" ">
<path fill="none" stroke="#63b8ff" d="M463.41,-409.3C411.9,-402.86 344.46,-390.87 326,-371 297.86,-340.72 300.12,-288.07 303.78,-260.14"/>
<polygon fill="#63b8ff" stroke="#63b8ff" points="307.26,-260.54 305.3,-250.13 300.34,-259.49 307.26,-260.54"/>
</a>
</g>
</g>
<!-- Node8 -->
<g id="Node000008" class="node">
<title>Node8</title>
<g id="a_Node000008"><a xlink:title=" ">
<polygon fill="#e0e0e0" stroke="#999999" points="776.5,-305 711.5,-305 711.5,-286 776.5,-286 776.5,-305"/>
<text text-anchor="middle" x="744" y="-293" font-family="Helvetica,sans-Serif" font-size="10.00">exception</text>
</a>
</g>
</g>
<!-- Node7&#45;&gt;Node8 -->
<g id="edge7_Node000007_Node000008" class="edge">
<title>Node7&#45;&gt;Node8</title>
<g id="a_edge7_Node000007_Node000008"><a xlink:title=" ">
<path fill="none" stroke="#63b8ff" d="M761.43,-340.84C758.33,-332.95 754.44,-323.05 751.12,-314.61"/>
<polygon fill="#63b8ff" stroke="#63b8ff" points="754.36,-313.29 747.45,-305.27 747.85,-315.85 754.36,-313.29"/>
</a>
</g>
</g>
<!-- Node9 -->
<g id="Node000009" class="node">
<title>Node9</title>
<g id="a_Node000009"><a xlink:title=" ">
<polygon fill="#e0e0e0" stroke="#999999" points="855,-305 795,-305 795,-286 855,-286 855,-305"/>
<text text-anchor="middle" x="825" y="-293" font-family="Helvetica,sans-Serif" font-size="10.00">iostream</text>
</a>
</g>
</g>
<!-- Node7&#45;&gt;Node9 -->
<g id="edge8_Node000007_Node000009" class="edge">
<title>Node7&#45;&gt;Node9</title>
<g id="a_edge8_Node000007_Node000009"><a xlink:title=" ">
<path fill="none" stroke="#63b8ff" d="M781.04,-340.84C789.55,-332.26 800.41,-321.3 809.22,-312.42"/>
<polygon fill="#63b8ff" stroke="#63b8ff" points="811.75,-314.83 816.31,-305.27 806.78,-309.9 811.75,-314.83"/>
</a>
</g>
</g>
<!-- Node10 -->
<g id="Node000010" class="node">
<title>Node10</title>
<g id="a_Node000010"><a xlink:title=" ">
<polygon fill="#e0e0e0" stroke="#999999" points="582,-305 538,-305 538,-286 582,-286 582,-305"/>
<text text-anchor="middle" x="560" y="-293" font-family="Helvetica,sans-Serif" font-size="10.00">string</text>
</a>
</g>
</g>
<!-- Node7&#45;&gt;Node10 -->
<g id="edge9_Node000007_Node000010" class="edge">
<title>Node7&#45;&gt;Node10</title>
<g id="a_edge9_Node000007_Node000010"><a xlink:title=" ">
<path fill="none" stroke="#63b8ff" d="M717.42,-340.99C678.5,-329.99 625.48,-315.01 592,-305.54"/>
<polygon fill="#63b8ff" stroke="#63b8ff" points="592.84,-302.14 582.27,-302.79 590.94,-308.88 592.84,-302.14"/>
</a>
</g>
</g>
<!-- Node11 -->
<g id="Node000011" class="node">
<title>Node11</title>
<g id="a_Node000011"><a xlink:title=" ">
<polygon fill="#e0e0e0" stroke="#999999" points="693.5,-305 600.5,-305 600.5,-286 693.5,-286 693.5,-305"/>
<text text-anchor="middle" x="647" y="-293" font-family="Helvetica,sans-Serif" font-size="10.00">source_location</text>
</a>
</g>
</g>
<!-- Node7&#45;&gt;Node11 -->
<g id="edge10_Node000007_Node000011" class="edge">
<title>Node7&#45;&gt;Node11</title>
<g id="a_edge10_Node000007_Node000011"><a xlink:title=" ">
<path fill="none" stroke="#63b8ff" d="M738.26,-340.99C718.68,-331.45 692.95,-318.9 673.8,-309.57"/>
<polygon fill="#63b8ff" stroke="#63b8ff" points="675.24,-306.38 664.72,-305.14 672.18,-312.67 675.24,-306.38"/>
</a>
</g>
</g>
<!-- Node12&#45;&gt;Node13 -->
<g id="edge12_Node000012_Node000013" class="edge">
<title>Node12&#45;&gt;Node13</title>
<g id="a_edge12_Node000012_Node000013"><a xlink:title=" ">
<path fill="none" stroke="#63b8ff" d="M172.99,-340.63C158.46,-319.75 131.56,-281.09 115.99,-258.72"/>
<polygon fill="#63b8ff" stroke="#63b8ff" points="118.66,-256.44 110.08,-250.23 112.92,-260.44 118.66,-256.44"/>
</a>
</g>
</g>
<!-- Node14 -->
<g id="Node000014" class="node">
<title>Node14</title>
<g id="a_Node000014"><a xlink:href="Color_8hpp.html" target="_top" xlink:title=" ">
<polygon fill="white" stroke="#666666" points="260.5,-189.5 145.5,-189.5 145.5,-170.5 260.5,-170.5 260.5,-189.5"/>
<text text-anchor="middle" x="203" y="-177.5" font-family="Helvetica,sans-Serif" font-size="10.00">../../../Utils/Color.hpp</text>
</a>
</g>
</g>
<!-- Node13&#45;&gt;Node14 -->
<g id="edge13_Node000013_Node000014" class="edge">
<title>Node13&#45;&gt;Node14</title>
<g id="a_edge13_Node000013_Node000014"><a xlink:title=" ">
<path fill="none" stroke="#63b8ff" d="M118.61,-230.87C134.69,-221.36 160.78,-205.95 179.7,-194.77"/>
<polygon fill="#63b8ff" stroke="#63b8ff" points="181.5,-197.77 188.33,-189.67 177.94,-191.74 181.5,-197.77"/>
</a>
</g>
</g>
<!-- Node13&#45;&gt;Node16 -->
<g id="edge15_Node000013_Node000016" class="edge">
<title>Node13&#45;&gt;Node16</title>
<g id="a_edge15_Node000013_Node000016"><a xlink:title=" ">
<path fill="none" stroke="#63b8ff" d="M104,-230.87C104,-222.75 104,-210.31 104,-199.89"/>
<polygon fill="#63b8ff" stroke="#63b8ff" points="107.5,-199.67 104,-189.67 100.5,-199.67 107.5,-199.67"/>
</a>
</g>
</g>
<!-- Node15 -->
<g id="Node000015" class="node">
<title>Node15</title>
<g id="a_Node000015"><a xlink:title=" ">
<polygon fill="#e0e0e0" stroke="#999999" points="235,-129 171,-129 171,-110 235,-110 235,-129"/>
<text text-anchor="middle" x="203" y="-117" font-family="Helvetica,sans-Serif" font-size="10.00">algorithm</text>
</a>
</g>
</g>
<!-- Node14&#45;&gt;Node15 -->
<g id="edge14_Node000014_Node000015" class="edge">
<title>Node14&#45;&gt;Node15</title>
<g id="a_edge14_Node000014_Node000015"><a xlink:title=" ">
<path fill="none" stroke="#63b8ff" d="M203,-170.37C203,-162.25 203,-149.81 203,-139.39"/>
<polygon fill="#63b8ff" stroke="#63b8ff" points="206.5,-139.17 203,-129.17 199.5,-139.17 206.5,-139.17"/>
</a>
</g>
</g>
<!-- Node17&#45;&gt;Node18 -->
<g id="edge17_Node000017_Node000018" class="edge">
<title>Node17&#45;&gt;Node18</title>
<g id="a_edge17_Node000017_Node000018"><a xlink:title=" ">
<path fill="none" stroke="#63b8ff" d="M354.92,-340.99C328.15,-331.14 292.7,-318.1 267.11,-308.68"/>
<polygon fill="#63b8ff" stroke="#63b8ff" points="268.07,-305.31 257.48,-305.14 265.66,-311.88 268.07,-305.31"/>
</a>
</g>
</g>
<!-- Node24 -->
<g id="Node000024" class="node">
<title>Node24</title>
<g id="a_Node000024"><a xlink:title=" ">
<polygon fill="#e0e0e0" stroke="#999999" points="421,-305 365,-305 365,-286 421,-286 421,-305"/>
<text text-anchor="middle" x="393" y="-293" font-family="Helvetica,sans-Serif" font-size="10.00">optional</text>
</a>
</g>
</g>
<!-- Node17&#45;&gt;Node24 -->
<g id="edge29_Node000017_Node000024" class="edge">
<title>Node17&#45;&gt;Node24</title>
<g id="a_edge29_Node000017_Node000024"><a xlink:title=" ">
<path fill="none" stroke="#63b8ff" d="M393,-340.84C393,-333.21 393,-323.7 393,-315.45"/>
<polygon fill="#63b8ff" stroke="#63b8ff" points="396.5,-315.27 393,-305.27 389.5,-315.27 396.5,-315.27"/>
</a>
</g>
</g>
<!-- Node25 -->
<g id="Node000025" class="node">
<title>Node25</title>
<g id="a_Node000025"><a xlink:href="Ray_8hpp.html" target="_top" xlink:title=" ">
<polygon fill="white" stroke="#666666" points="545,-195 431,-195 431,-165 545,-165 545,-195"/>
<text text-anchor="start" x="439" y="-183" font-family="Helvetica,sans-Serif" font-size="10.00">../../../Geometry/Ray</text>
<text text-anchor="middle" x="488" y="-172" font-family="Helvetica,sans-Serif" font-size="10.00">/Ray.hpp</text>
</a>
</g>
</g>
<!-- Node17&#45;&gt;Node25 -->
<g id="edge30_Node000017_Node000025" class="edge">
<title>Node17&#45;&gt;Node25</title>
<g id="a_edge30_Node000017_Node000025"><a xlink:title=" ">
<path fill="none" stroke="#63b8ff" d="M404.81,-340.66C412.51,-330.94 422.48,-317.62 430,-305 449.89,-271.62 468.03,-230.31 478.54,-204.8"/>
<polygon fill="#63b8ff" stroke="#63b8ff" points="481.91,-205.81 482.44,-195.23 475.43,-203.17 481.91,-205.81"/>
</a>
</g>
</g>
<!-- Node18&#45;&gt;Node14 -->
<g id="edge18_Node000018_Node000014" class="edge">
<title>Node18&#45;&gt;Node14</title>
<g id="a_edge18_Node000018_Node000014"><a xlink:title=" ">
<path fill="none" stroke="#63b8ff" d="M232.85,-285.76C231.11,-273.41 227.42,-250.22 222,-231 218.96,-220.22 214.57,-208.5 210.77,-199.12"/>
<polygon fill="#63b8ff" stroke="#63b8ff" points="213.92,-197.58 206.84,-189.69 207.46,-200.27 213.92,-197.58"/>
</a>
</g>
</g>
<!-- Node18&#45;&gt;Node16 -->
<g id="edge28_Node000018_Node000016" class="edge">
<title>Node18&#45;&gt;Node16</title>
<g id="a_edge28_Node000018_Node000016"><a xlink:title=" ">
<path fill="none" stroke="#63b8ff" d="M229.28,-285.84C221.82,-272.76 206.29,-247.71 188,-231 171.4,-215.83 149.49,-202.98 132.21,-194.1"/>
<polygon fill="#63b8ff" stroke="#63b8ff" points="133.66,-190.91 123.15,-189.59 130.54,-197.18 133.66,-190.91"/>
</a>
</g>
</g>
<!-- Node18&#45;&gt;Node19 -->
<g id="edge19_Node000018_Node000019" class="edge">
<title>Node18&#45;&gt;Node19</title>
<g id="a_edge19_Node000018_Node000019"><a xlink:title=" ">
<path fill="none" stroke="#63b8ff" d="M245.73,-285.98C256.73,-278 273.42,-265.88 286.6,-256.31"/>
<polygon fill="#63b8ff" stroke="#63b8ff" points="289.02,-258.88 295.06,-250.17 284.91,-253.21 289.02,-258.88"/>
</a>
</g>
</g>
<!-- Node19&#45;&gt;Node4 -->
<g id="edge27_Node000019_Node000004" class="edge">
<title>Node19&#45;&gt;Node4</title>
<g id="a_edge27_Node000019_Node000004"><a xlink:title=" ">
<path fill="none" stroke="#63b8ff" d="M339.62,-236.19C438.77,-226.12 736.36,-195.89 843.78,-184.98"/>
<polygon fill="#63b8ff" stroke="#63b8ff" points="844.27,-188.45 853.87,-183.96 843.56,-181.49 844.27,-188.45"/>
</a>
</g>
</g>
<!-- Node19&#45;&gt;Node14 -->
<g id="edge25_Node000019_Node000014" class="edge">
<title>Node19&#45;&gt;Node14</title>
<g id="a_edge25_Node000019_Node000014"><a xlink:title=" ">
<path fill="none" stroke="#63b8ff" d="M291.65,-230.87C274.68,-221.32 247.1,-205.81 227.21,-194.62"/>
<polygon fill="#63b8ff" stroke="#63b8ff" points="228.84,-191.52 218.41,-189.67 225.41,-197.62 228.84,-191.52"/>
</a>
</g>
</g>
<!-- Node19&#45;&gt;Node16 -->
<g id="edge26_Node000019_Node000016" class="edge">
<title>Node19&#45;&gt;Node16</title>
<g id="a_edge26_Node000019_Node000016"><a xlink:title=" ">
<path fill="none" stroke="#63b8ff" d="M274.4,-232.63C239.65,-224.93 183.25,-211.37 136,-195 134.57,-194.5 133.11,-193.97 131.65,-193.41"/>
<polygon fill="#63b8ff" stroke="#63b8ff" points="132.66,-190.05 122.08,-189.5 130.01,-196.53 132.66,-190.05"/>
</a>
</g>
</g>
<!-- Node20 -->
<g id="Node000020" class="node">
<title>Node20</title>
<g id="a_Node000020"><a xlink:href="HitRecord_8hpp.html" target="_top" xlink:title=" ">
<polygon fill="white" stroke="#666666" points="413,-195 279,-195 279,-165 413,-165 413,-195"/>
<text text-anchor="start" x="287" y="-183" font-family="Helvetica,sans-Serif" font-size="10.00">../../Geometry/HitRecord</text>
<text text-anchor="middle" x="346" y="-172" font-family="Helvetica,sans-Serif" font-size="10.00">/HitRecord.hpp</text>
</a>
</g>
</g>
<!-- Node19&#45;&gt;Node20 -->
<g id="edge20_Node000019_Node000020" class="edge">
<title>Node19&#45;&gt;Node20</title>
<g id="a_edge20_Node000019_Node000020"><a xlink:title=" ">
<path fill="none" stroke="#63b8ff" d="M312.75,-230.87C317.56,-223.67 324.62,-213.07 331,-203.49"/>
<polygon fill="#63b8ff" stroke="#63b8ff" points="333.96,-205.38 336.59,-195.11 328.13,-201.49 333.96,-205.38"/>
</a>
</g>
</g>
<!-- Node21 -->
<g id="Node000021" class="node">
<title>Node21</title>
<g id="a_Node000021"><a xlink:href="Point3D_8hpp.html" target="_top" xlink:title=" ">
<polygon fill="white" stroke="#666666" points="480,-129 354,-129 354,-110 480,-110 480,-129"/>
<text text-anchor="middle" x="417" y="-117" font-family="Helvetica,sans-Serif" font-size="10.00">../Point3D/Point3D.hpp</text>
</a>
</g>
</g>
<!-- Node20&#45;&gt;Node21 -->
<g id="edge21_Node000020_Node000021" class="edge">
<title>Node20&#45;&gt;Node21</title>
<g id="a_edge21_Node000020_Node000021"><a xlink:title=" ">
<path fill="none" stroke="#63b8ff" d="M363.19,-164.84C373.81,-156.09 387.44,-144.85 398.33,-135.88"/>
<polygon fill="#63b8ff" stroke="#63b8ff" points="400.87,-138.33 406.36,-129.27 396.42,-132.92 400.87,-138.33"/>
</a>
</g>
</g>
<!-- Node22 -->
<g id="Node000022" class="node">
<title>Node22</title>
<g id="a_Node000022"><a xlink:href="Vector3D_8hpp.html" target="_top" xlink:title=" ">
<polygon fill="white" stroke="#666666" points="486,-74 348,-74 348,-55 486,-55 486,-74"/>
<text text-anchor="middle" x="417" y="-62" font-family="Helvetica,sans-Serif" font-size="10.00">../Vector3D/Vector3D.hpp</text>
</a>
</g>
</g>
<!-- Node20&#45;&gt;Node22 -->
<g id="edge24_Node000020_Node000022" class="edge">
<title>Node20&#45;&gt;Node22</title>
<g id="a_edge24_Node000020_Node000022"><a xlink:title=" ">
<path fill="none" stroke="#63b8ff" d="M341.87,-164.78C338.46,-150.08 335.55,-126.95 345,-110 353.04,-95.58 367.9,-85.24 382.04,-78.18"/>
<polygon fill="#63b8ff" stroke="#63b8ff" points="383.51,-81.36 391.15,-74.01 380.6,-74.99 383.51,-81.36"/>
</a>
</g>
</g>
<!-- Node21&#45;&gt;Node22 -->
<g id="edge22_Node000021_Node000022" class="edge">
<title>Node21&#45;&gt;Node22</title>
<g id="a_edge22_Node000021_Node000022"><a xlink:title=" ">
<path fill="none" stroke="#63b8ff" d="M417,-109.75C417,-102.8 417,-92.85 417,-84.13"/>
<polygon fill="#63b8ff" stroke="#63b8ff" points="420.5,-84.09 417,-74.09 413.5,-84.09 420.5,-84.09"/>
</a>
</g>
</g>
<!-- Node23 -->
<g id="Node000023" class="node">
<title>Node23</title>
<g id="a_Node000023"><a xlink:title=" ">
<polygon fill="#e0e0e0" stroke="#999999" points="442.5,-19 391.5,-19 391.5,0 442.5,0 442.5,-19"/>
<text text-anchor="middle" x="417" y="-7" font-family="Helvetica,sans-Serif" font-size="10.00">math.h</text>
</a>
</g>
</g>
<!-- Node22&#45;&gt;Node23 -->
<g id="edge23_Node000022_Node000023" class="edge">
<title>Node22&#45;&gt;Node23</title>
<g id="a_edge23_Node000022_Node000023"><a xlink:title=" ">
<path fill="none" stroke="#63b8ff" d="M417,-54.75C417,-47.8 417,-37.85 417,-29.13"/>
<polygon fill="#63b8ff" stroke="#63b8ff" points="420.5,-29.09 417,-19.09 413.5,-29.09 420.5,-29.09"/>
</a>
</g>
</g>
<!-- Node25&#45;&gt;Node21 -->
<g id="edge31_Node000025_Node000021" class="edge">
<title>Node25&#45;&gt;Node21</title>
<g id="a_edge31_Node000025_Node000021"><a xlink:title=" ">
<path fill="none" stroke="#63b8ff" d="M470.81,-164.84C460.19,-156.09 446.56,-144.85 435.67,-135.88"/>
<polygon fill="#63b8ff" stroke="#63b8ff" points="437.58,-132.92 427.64,-129.27 433.13,-138.33 437.58,-132.92"/>
</a>
</g>
</g>
<!-- Node25&#45;&gt;Node22 -->
<g id="edge32_Node000025_Node000022" class="edge">
<title>Node25&#45;&gt;Node22</title>
<g id="a_edge32_Node000025_Node000022"><a xlink:title=" ">
<path fill="none" stroke="#63b8ff" d="M492.13,-164.78C495.54,-150.08 498.45,-126.95 489,-110 480.96,-95.58 466.1,-85.24 451.96,-78.18"/>
<polygon fill="#63b8ff" stroke="#63b8ff" points="453.4,-74.99 442.85,-74.01 450.49,-81.36 453.4,-74.99"/>
</a>
</g>
</g>
<!-- Node26&#45;&gt;Node2 -->
<g id="edge40_Node000026_Node000002" class="edge">
<title>Node26&#45;&gt;Node2</title>
<g id="a_edge40_Node000026_Node000002"><a xlink:title=" ">
<path fill="none" stroke="#63b8ff" d="M798.78,-461.98C741.42,-452.63 649.33,-437.61 588.26,-427.65"/>
<polygon fill="#63b8ff" stroke="#63b8ff" points="588.79,-424.19 578.36,-426.04 587.66,-431.1 588.79,-424.19"/>
</a>
</g>
</g>
<!-- Node26&#45;&gt;Node9 -->
<g id="edge39_Node000026_Node000009" class="edge">
<title>Node26&#45;&gt;Node9</title>
<g id="a_edge39_Node000026_Node000009"><a xlink:title=" ">
<path fill="none" stroke="#63b8ff" d="M854.4,-461.98C862.34,-440.76 880.23,-384.14 864,-341 859.82,-329.89 851.48,-319.75 843.57,-311.96"/>
<polygon fill="#63b8ff" stroke="#63b8ff" points="845.72,-309.19 835.99,-305.01 840.99,-314.35 845.72,-309.19"/>
</a>
</g>
</g>
<!-- Node27 -->
<g id="Node000027" class="node">
<title>Node27</title>
<g id="a_Node000027"><a xlink:title=" ">
<polygon fill="#e0e0e0" stroke="#999999" points="929,-426 879,-426 879,-407 929,-407 929,-426"/>
<text text-anchor="middle" x="904" y="-414" font-family="Helvetica,sans-Serif" font-size="10.00">dlfcn.h</text>
</a>
</g>
</g>
<!-- Node26&#45;&gt;Node27 -->
<g id="edge37_Node000026_Node000027" class="edge">
<title>Node26&#45;&gt;Node27</title>
<g id="a_edge37_Node000026_Node000027"><a xlink:title=" ">
<path fill="none" stroke="#63b8ff" d="M859.75,-461.75C867.47,-454.03 878.9,-442.6 888.22,-433.28"/>
<polygon fill="#63b8ff" stroke="#63b8ff" points="890.81,-435.64 895.41,-426.09 885.86,-430.69 890.81,-435.64"/>
</a>
</g>
</g>
<!-- Node28 -->
<g id="Node000028" class="node">
<title>Node28</title>
<g id="a_Node000028"><a xlink:title=" ">
<polygon fill="#e0e0e0" stroke="#999999" points="1001,-426 947,-426 947,-407 1001,-407 1001,-426"/>
<text text-anchor="middle" x="974" y="-414" font-family="Helvetica,sans-Serif" font-size="10.00">dirent.h</text>
</a>
</g>
</g>
<!-- Node26&#45;&gt;Node28 -->
<g id="edge38_Node000026_Node000028" class="edge">
<title>Node26&#45;&gt;Node28</title>
<g id="a_edge38_Node000026_Node000028"><a xlink:title=" ">
<path fill="none" stroke="#63b8ff" d="M870.76,-461.98C890.73,-453.38 921.8,-439.99 944.65,-430.15"/>
<polygon fill="#63b8ff" stroke="#63b8ff" points="946.08,-433.34 953.88,-426.17 943.31,-426.91 946.08,-433.34"/>
</a>
</g>
</g>
</g>
</svg>

<g id="navigator" transform="translate(0 0)" fill="#404254">
  <rect fill="#f2f5e9" fill-opacity="0.5" stroke="#606060" stroke-width=".5" x="0" y="0" width="60" height="60"/>
  <use id="zoomplus" xlink:href="#zoomPlus" x="17" y="9" onmousedown="handleZoom(evt,'in')"/>
  <use id="zoomminus" xlink:href="#zoomMin" x="42" y="9" onmousedown="handleZoom(evt,'out')"/>
  <use id="reset" xlink:href="#resetDef" x="30" y="36" onmousedown="handleReset()"/>
   <use id="arrowup" xlink:href="#arrowUp" x="0" y="0" onmousedown="handlePan(0,-1)"/>
  <use id="arrowright" xlink:href="#arrowRight" x="0" y="0" onmousedown="handlePan(1,0)"/>
  <use id="arrowdown" xlink:href="#arrowDown" x="0" y="0" onmousedown="handlePan(0,1)"/>
  <use id="arrowleft" xlink:href="#arrowLeft" x="0" y="0" onmousedown="handlePan(-1,0)"/>
</g>
<svg viewBox="0 0 15 15" width="100%" height="30px" preserveAspectRatio="xMaxYMin meet">
 <g id="arrow_out" transform="scale(0.3 0.3)">
  <a xlink:href="Scene_8hpp__incl_org.svg" target="_base">
   <rect id="button" ry="5" rx="5" y="6" x="6" height="38" width="38"
        fill="#f2f5e9" fill-opacity="0.5" stroke="#606060" stroke-width="1.0"/>
   <path id="arrow"
     d="M 11.500037,31.436501 C 11.940474,20.09759 22.043105,11.32322 32.158766,21.979434 L 37.068811,17.246167 C 37.068811,17.246167 37.088388,32 37.088388,32 L 22.160133,31.978069 C 22.160133,31.978069 26.997745,27.140456 26.997745,27.140456 C 18.528582,18.264221 13.291696,25.230495 11.500037,31.436501 z"
     style="fill:#404040;"/>
  </a>
 </g>
</svg>

<style type='text/css'>
<![CDATA[
[data-mouse-over-selected='false'] { opacity: 0.7; }
[data-mouse-over-selected='true']  { opacity: 1.0; }
]]>
</style>
<script type="application/ecmascript"><![CDATA[
document.addEventListener('DOMContentLoaded', (event) => {
  highlightEdges();
  highlightAdjacentNodes();
});
]]></script>
</svg>
