<?xml version="1.0" encoding="UTF-8" standalone="no"?>
<!DOCTYPE svg PUBLIC "-//W3C//DTD SVG 1.1//EN"
 "http://www.w3.org/Graphics/SVG/1.1/DTD/svg11.dtd">
<!-- Generated by graphviz version 2.43.0 (0)
 -->
<!-- Title: src/SceneSystem/SceneLoader/SceneLoader.cpp Pages: 1 -->
<!--zoomable 665 -->

<svg id="main" version="1.1" xmlns="http://www.w3.org/2000/svg" xmlns:xlink="http://www.w3.org/1999/xlink" xml:space="preserve" onload="init(evt)">
<style type="text/css"><![CDATA[
.node, .edge {opacity: 0.7;}
.node.selected, .edge.selected {opacity: 1;}
.edge:hover path { stroke: red; }
.edge:hover polygon { stroke: red; fill: red; }
]]></style>

<defs>
  <circle id="rim" cx="0" cy="0" r="7"/>
  <circle id="rim2" cx="0" cy="0" r="3.5"/>
  <g id="zoomPlus">
    <use xlink:href="#rim" fill="#404040"><set attributeName="fill" to="#808080" begin="zoomplus.mouseover" end="zoomplus.mouseout"/></use>
    <path d="M-4,0h8M0,-4v8" fill="none" stroke="white" stroke-width="1.5" pointer-events="none"/>
  </g>
  <g id="zoomMin">
    <use xlink:href="#rim" fill="#404040"><set attributeName="fill" to="#808080" begin="zoomminus.mouseover" end="zoomminus.mouseout"/></use>
    <path d="M-4,0h8" fill="none" stroke="white" stroke-width="1.5" pointer-events="none"/>
  </g>
  <g id="arrowUp" transform="translate(30 24)">
    <use xlink:href="#rim"/>
    <path pointer-events="none" fill="none" stroke="white" stroke-width="1.5" d="M0,-3.0v7 M-2.5,-0.5L0,-3.0L2.5,-0.5"/>
  </g>
  <g id="arrowRight" transform="rotate(90) translate(36 -43)">
    <use xlink:href="#rim"/>
    <path pointer-events="none" fill="none" stroke="white" stroke-width="1.5" d="M0,-3.0v7 M-2.5,-0.5L0,-3.0L2.5,-0.5"/>
  </g>
  <g id="arrowDown" transform="rotate(180) translate(-30 -48)">
    <use xlink:href="#rim"/>
    <path pointer-events="none" fill="none" stroke="white" stroke-width="1.5" d="M0,-3.0v7 M-2.5,-0.5L0,-3.0L2.5,-0.5"/>
  </g>
  <g id="arrowLeft" transform="rotate(270) translate(-36 17)">
    <use xlink:href="#rim"/>
    <path pointer-events="none" fill="none" stroke="white" stroke-width="1.5" d="M0,-3.0v7 M-2.5,-0.5L0,-3.0L2.5,-0.5"/>
  </g>
  <g id="resetDef">
    <use xlink:href="#rim2" fill="#404040"><set attributeName="fill" to="#808080" begin="reset.mouseover" end="reset.mouseout"/></use>
  </g>
</defs>
<script type="application/ecmascript">
var viewWidth = 1077;
var viewHeight = 665;
var sectionId = 'dynsection-0';
</script>
<script type="application/ecmascript" xlink:href="svg.min.js"/>
<svg id="graph" class="graph">
<g id="viewport">
<title>src/SceneSystem/SceneLoader/SceneLoader.cpp</title>
<!-- Node1 -->
<g id="Node000001" class="node">
<title>Node1</title>
<g id="a_Node000001"><a xlink:title=" ">
<polygon fill="#999999" stroke="#666666" points="476.5,-657 311.5,-657 311.5,-627 476.5,-627 476.5,-657"/>
<text text-anchor="start" x="319.5" y="-645" font-family="Helvetica,sans-Serif" font-size="10.00">src/SceneSystem/SceneLoader</text>
<text text-anchor="middle" x="394" y="-634" font-family="Helvetica,sans-Serif" font-size="10.00">/SceneLoader.cpp</text>
</a>
</g>
</g>
<!-- Node2 -->
<g id="Node000002" class="node">
<title>Node2</title>
<g id="a_Node000002"><a xlink:href="SceneLoader_8hpp.html" target="_top" xlink:title=" ">
<polygon fill="white" stroke="#666666" points="443.5,-591 344.5,-591 344.5,-572 443.5,-572 443.5,-591"/>
<text text-anchor="middle" x="394" y="-579" font-family="Helvetica,sans-Serif" font-size="10.00">SceneLoader.hpp</text>
</a>
</g>
</g>
<!-- Node1&#45;&gt;Node2 -->
<g id="edge1_Node000001_Node000002" class="edge">
<title>Node1&#45;&gt;Node2</title>
<g id="a_edge1_Node000001_Node000002"><a xlink:title=" ">
<path fill="none" stroke="#63b8ff" d="M394,-626.84C394,-619.21 394,-609.7 394,-601.45"/>
<polygon fill="#63b8ff" stroke="#63b8ff" points="397.5,-601.27 394,-591.27 390.5,-601.27 397.5,-601.27"/>
</a>
</g>
</g>
<!-- Node3 -->
<g id="Node000003" class="node">
<title>Node3</title>
<g id="a_Node000003"><a xlink:href="PluginManager_8hpp.html" target="_top" xlink:title="Plugin manager for loading and managing plugins.">
<polygon fill="white" stroke="#666666" points="463,-481 269,-481 269,-462 463,-462 463,-481"/>
<text text-anchor="middle" x="366" y="-469" font-family="Helvetica,sans-Serif" font-size="10.00">../PluginManager/PluginManager.hpp</text>
</a>
</g>
</g>
<!-- Node2&#45;&gt;Node3 -->
<g id="edge2_Node000002_Node000003" class="edge">
<title>Node2&#45;&gt;Node3</title>
<g id="a_edge2_Node000002_Node000003"><a xlink:title=" ">
<path fill="none" stroke="#63b8ff" d="M391.71,-571.66C387.15,-554.09 376.88,-514.45 370.78,-490.95"/>
<polygon fill="#63b8ff" stroke="#63b8ff" points="374.14,-489.96 368.24,-481.16 367.37,-491.72 374.14,-489.96"/>
</a>
</g>
</g>
<!-- Node12 -->
<g id="Node000012" class="node">
<title>Node12</title>
<g id="a_Node000012"><a xlink:href="RaytracerException_8hpp.html" target="_top" xlink:title=" ">
<polygon fill="white" stroke="#666666" points="259.5,-371 82.5,-371 82.5,-341 259.5,-341 259.5,-371"/>
<text text-anchor="start" x="90.5" y="-359" font-family="Helvetica,sans-Serif" font-size="10.00">../Exceptions/RaytracerException</text>
<text text-anchor="middle" x="171" y="-348" font-family="Helvetica,sans-Serif" font-size="10.00">/RaytracerException.hpp</text>
</a>
</g>
</g>
<!-- Node2&#45;&gt;Node12 -->
<g id="edge53_Node000002_Node000012" class="edge">
<title>Node2&#45;&gt;Node12</title>
<g id="a_edge53_Node000002_Node000012"><a xlink:title=" ">
<path fill="none" stroke="#63b8ff" d="M375.44,-571.88C335.07,-552.14 238.95,-499.62 190,-426 181.06,-412.56 176.3,-395 173.78,-380.95"/>
<polygon fill="#63b8ff" stroke="#63b8ff" points="177.24,-380.38 172.26,-371.02 170.32,-381.44 177.24,-380.38"/>
</a>
</g>
</g>
<!-- Node30 -->
<g id="Node000030" class="node">
<title>Node30</title>
<g id="a_Node000030"><a xlink:href="Parser_8hpp.html" target="_top" xlink:title=" ">
<polygon fill="white" stroke="#666666" points="885,-481 745,-481 745,-462 885,-462 885,-481"/>
<text text-anchor="middle" x="815" y="-469" font-family="Helvetica,sans-Serif" font-size="10.00">../ConfigParser/Parser.hpp</text>
</a>
</g>
</g>
<!-- Node2&#45;&gt;Node30 -->
<g id="edge41_Node000002_Node000030" class="edge">
<title>Node2&#45;&gt;Node30</title>
<g id="a_edge41_Node000002_Node000030"><a xlink:title=" ">
<path fill="none" stroke="#63b8ff" d="M409.42,-571.83C434.66,-558.03 486.71,-531.19 534,-517 600.16,-497.15 677.9,-485.71 734.82,-479.41"/>
<polygon fill="#63b8ff" stroke="#63b8ff" points="735.27,-482.88 744.84,-478.33 734.52,-475.92 735.27,-482.88"/>
</a>
</g>
</g>
<!-- Node32 -->
<g id="Node000032" class="node">
<title>Node32</title>
<g id="a_Node000032"><a xlink:href="Scene_8hpp.html" target="_top" xlink:title=" ">
<polygon fill="white" stroke="#666666" points="651,-536 543,-536 543,-517 651,-517 651,-536"/>
<text text-anchor="middle" x="597" y="-524" font-family="Helvetica,sans-Serif" font-size="10.00">../Scene/Scene.hpp</text>
</a>
</g>
</g>
<!-- Node2&#45;&gt;Node32 -->
<g id="edge48_Node000002_Node000032" class="edge">
<title>Node2&#45;&gt;Node32</title>
<g id="a_edge48_Node000002_Node000032"><a xlink:title=" ">
<path fill="none" stroke="#63b8ff" d="M426.62,-571.98C461.29,-562.93 516.26,-548.58 554.35,-538.64"/>
<polygon fill="#63b8ff" stroke="#63b8ff" points="555.34,-541.99 564.13,-536.08 553.57,-535.22 555.34,-541.99"/>
</a>
</g>
</g>
<!-- Node4 -->
<g id="Node000004" class="node">
<title>Node4</title>
<g id="a_Node000004"><a xlink:title=" ">
<polygon fill="#e0e0e0" stroke="#999999" points="249,-426 199,-426 199,-407 249,-407 249,-426"/>
<text text-anchor="middle" x="224" y="-414" font-family="Helvetica,sans-Serif" font-size="10.00">dlfcn.h</text>
</a>
</g>
</g>
<!-- Node3&#45;&gt;Node4 -->
<g id="edge3_Node000003_Node000004" class="edge">
<title>Node3&#45;&gt;Node4</title>
<g id="a_edge3_Node000003_Node000004"><a xlink:title=" ">
<path fill="none" stroke="#63b8ff" d="M343.19,-461.98C319.83,-453.27 283.3,-439.63 256.83,-429.75"/>
<polygon fill="#63b8ff" stroke="#63b8ff" points="257.82,-426.39 247.23,-426.17 255.37,-432.95 257.82,-426.39"/>
</a>
</g>
</g>
<!-- Node5 -->
<g id="Node000005" class="node">
<title>Node5</title>
<g id="a_Node000005"><a xlink:title=" ">
<polygon fill="#e0e0e0" stroke="#999999" points="321,-426 267,-426 267,-407 321,-407 321,-426"/>
<text text-anchor="middle" x="294" y="-414" font-family="Helvetica,sans-Serif" font-size="10.00">dirent.h</text>
</a>
</g>
</g>
<!-- Node3&#45;&gt;Node5 -->
<g id="edge4_Node000003_Node000005" class="edge">
<title>Node3&#45;&gt;Node5</title>
<g id="a_edge4_Node000003_Node000005"><a xlink:title=" ">
<path fill="none" stroke="#63b8ff" d="M354.43,-461.98C343.58,-454 327.12,-441.88 314.12,-432.31"/>
<polygon fill="#63b8ff" stroke="#63b8ff" points="315.91,-429.28 305.78,-426.17 311.76,-434.92 315.91,-429.28"/>
</a>
</g>
</g>
<!-- Node6 -->
<g id="Node000006" class="node">
<title>Node6</title>
<g id="a_Node000006"><a xlink:title=" ">
<polygon fill="#e0e0e0" stroke="#999999" points="317,-305 257,-305 257,-286 317,-286 317,-305"/>
<text text-anchor="middle" x="287" y="-293" font-family="Helvetica,sans-Serif" font-size="10.00">iostream</text>
</a>
</g>
</g>
<!-- Node3&#45;&gt;Node6 -->
<g id="edge5_Node000003_Node000006" class="edge">
<title>Node3&#45;&gt;Node6</title>
<g id="a_edge5_Node000003_Node000006"><a xlink:title=" ">
<path fill="none" stroke="#63b8ff" d="M361.3,-461.76C354.61,-449.4 341.83,-426.21 330,-407 319.92,-390.63 313.82,-388.57 306,-371 297.87,-352.75 292.76,-330.37 289.91,-314.93"/>
<polygon fill="#63b8ff" stroke="#63b8ff" points="293.36,-314.34 288.22,-305.08 286.46,-315.52 293.36,-314.34"/>
</a>
</g>
</g>
<!-- Node7 -->
<g id="Node000007" class="node">
<title>Node7</title>
<g id="a_Node000007"><a xlink:href="Plugin_8hpp.html" target="_top" xlink:title=" ">
<polygon fill="white" stroke="#666666" points="659.5,-426 534.5,-426 534.5,-407 659.5,-407 659.5,-426"/>
<text text-anchor="middle" x="597" y="-414" font-family="Helvetica,sans-Serif" font-size="10.00">../../Objects/Plugin.hpp</text>
</a>
</g>
</g>
<!-- Node3&#45;&gt;Node7 -->
<g id="edge6_Node000003_Node000007" class="edge">
<title>Node3&#45;&gt;Node7</title>
<g id="a_edge6_Node000003_Node000007"><a xlink:title=" ">
<path fill="none" stroke="#63b8ff" d="M403.11,-461.98C442.99,-452.84 506.46,-438.27 549.84,-428.32"/>
<polygon fill="#63b8ff" stroke="#63b8ff" points="550.63,-431.73 559.59,-426.08 549.07,-424.91 550.63,-431.73"/>
</a>
</g>
</g>
<!-- Node8 -->
<g id="Node000008" class="node">
<title>Node8</title>
<g id="a_Node000008"><a xlink:title=" ">
<polygon fill="#e0e0e0" stroke="#999999" points="832.5,-365.5 767.5,-365.5 767.5,-346.5 832.5,-346.5 832.5,-365.5"/>
<text text-anchor="middle" x="800" y="-353.5" font-family="Helvetica,sans-Serif" font-size="10.00">functional</text>
</a>
</g>
</g>
<!-- Node7&#45;&gt;Node8 -->
<g id="edge7_Node000007_Node000008" class="edge">
<title>Node7&#45;&gt;Node8</title>
<g id="a_edge7_Node000007_Node000008"><a xlink:title=" ">
<path fill="none" stroke="#63b8ff" d="M629.83,-406.96C662.47,-398.35 713.89,-384.44 758,-371 760.44,-370.26 762.96,-369.47 765.49,-368.66"/>
<polygon fill="#63b8ff" stroke="#63b8ff" points="766.77,-371.93 775.19,-365.51 764.6,-365.27 766.77,-371.93"/>
</a>
</g>
</g>
<!-- Node9 -->
<g id="Node000009" class="node">
<title>Node9</title>
<g id="a_Node000009"><a xlink:title=" ">
<polygon fill="#e0e0e0" stroke="#999999" points="1059,-189.5 1001,-189.5 1001,-170.5 1059,-170.5 1059,-189.5"/>
<text text-anchor="middle" x="1030" y="-177.5" font-family="Helvetica,sans-Serif" font-size="10.00">memory</text>
</a>
</g>
</g>
<!-- Node7&#45;&gt;Node9 -->
<g id="edge8_Node000007_Node000009" class="edge">
<title>Node7&#45;&gt;Node9</title>
<g id="a_edge8_Node000007_Node000009"><a xlink:title=" ">
<path fill="none" stroke="#63b8ff" d="M659.5,-414.44C711.13,-411.22 784.92,-401.09 842,-371 863.4,-359.72 974.71,-240.71 1015.23,-196.99"/>
<polygon fill="#63b8ff" stroke="#63b8ff" points="1017.91,-199.25 1022.14,-189.53 1012.78,-194.49 1017.91,-199.25"/>
</a>
</g>
</g>
<!-- Node10 -->
<g id="Node000010" class="node">
<title>Node10</title>
<g id="a_Node000010"><a xlink:title=" ">
<polygon fill="#e0e0e0" stroke="#999999" points="366.5,-365.5 315.5,-365.5 315.5,-346.5 366.5,-346.5 366.5,-365.5"/>
<text text-anchor="middle" x="341" y="-353.5" font-family="Helvetica,sans-Serif" font-size="10.00">variant</text>
</a>
</g>
</g>
<!-- Node7&#45;&gt;Node10 -->
<g id="edge9_Node000007_Node000010" class="edge">
<title>Node7&#45;&gt;Node10</title>
<g id="a_edge9_Node000007_Node000010"><a xlink:title=" ">
<path fill="none" stroke="#63b8ff" d="M539.99,-406.95C494.94,-399.5 430.76,-387.32 376,-371 374.12,-370.44 372.2,-369.82 370.27,-369.16"/>
<polygon fill="#63b8ff" stroke="#63b8ff" points="371.36,-365.83 360.77,-365.63 368.93,-372.39 371.36,-365.83"/>
</a>
</g>
</g>
<!-- Node11 -->
<g id="Node000011" class="node">
<title>Node11</title>
<g id="a_Node000011"><a xlink:title=" ">
<polygon fill="#e0e0e0" stroke="#999999" points="927,-365.5 889,-365.5 889,-346.5 927,-346.5 927,-365.5"/>
<text text-anchor="middle" x="908" y="-353.5" font-family="Helvetica,sans-Serif" font-size="10.00">map</text>
</a>
</g>
</g>
<!-- Node7&#45;&gt;Node11 -->
<g id="edge10_Node000007_Node000011" class="edge">
<title>Node7&#45;&gt;Node11</title>
<g id="a_edge10_Node000007_Node000011"><a xlink:title=" ">
<path fill="none" stroke="#63b8ff" d="M659.5,-409.87C716.47,-403.72 802.54,-391.83 875,-371 876.88,-370.46 878.8,-369.84 880.72,-369.17"/>
<polygon fill="#63b8ff" stroke="#63b8ff" points="882.08,-372.39 890.13,-365.51 879.54,-365.87 882.08,-372.39"/>
</a>
</g>
</g>
<!-- Node7&#45;&gt;Node12 -->
<g id="edge11_Node000007_Node000012" class="edge">
<title>Node7&#45;&gt;Node12</title>
<g id="a_edge11_Node000007_Node000012"><a xlink:title=" ">
<path fill="none" stroke="#63b8ff" d="M535.06,-406.99C465.5,-397.44 351.66,-381.81 269.79,-370.57"/>
<polygon fill="#63b8ff" stroke="#63b8ff" points="270.1,-367.08 259.72,-369.18 269.15,-374.01 270.1,-367.08"/>
</a>
</g>
</g>
<!-- Node16 -->
<g id="Node000016" class="node">
<title>Node16</title>
<g id="a_Node000016"><a xlink:href="AInterface_8hpp.html" target="_top" xlink:title=" ">
<polygon fill="white" stroke="#666666" points="501,-371 385,-371 385,-341 501,-341 501,-371"/>
<text text-anchor="start" x="393" y="-359" font-family="Helvetica,sans-Serif" font-size="10.00">Abstracts/AInterface</text>
<text text-anchor="middle" x="443" y="-348" font-family="Helvetica,sans-Serif" font-size="10.00">/AInterface.hpp</text>
</a>
</g>
</g>
<!-- Node7&#45;&gt;Node16 -->
<g id="edge16_Node000007_Node000016" class="edge">
<title>Node7&#45;&gt;Node16</title>
<g id="a_edge16_Node000007_Node000016"><a xlink:title=" ">
<path fill="none" stroke="#63b8ff" d="M574.61,-406.99C552.44,-398.57 517.85,-385.43 489.69,-374.73"/>
<polygon fill="#63b8ff" stroke="#63b8ff" points="490.61,-371.34 480.02,-371.06 488.13,-377.89 490.61,-371.34"/>
</a>
</g>
</g>
<!-- Node17 -->
<g id="Node000017" class="node">
<title>Node17</title>
<g id="a_Node000017"><a xlink:href="ARenderer_8hpp.html" target="_top" xlink:title=" ">
<polygon fill="white" stroke="#666666" points="610.5,-250 459.5,-250 459.5,-231 610.5,-231 610.5,-250"/>
<text text-anchor="middle" x="535" y="-238" font-family="Helvetica,sans-Serif" font-size="10.00">../ARenderer/ARenderer.hpp</text>
</a>
</g>
</g>
<!-- Node7&#45;&gt;Node17 -->
<g id="edge38_Node000007_Node000017" class="edge">
<title>Node7&#45;&gt;Node17</title>
<g id="a_edge38_Node000007_Node000017"><a xlink:title=" ">
<path fill="none" stroke="#63b8ff" d="M584.74,-406.76C574.46,-398.72 560.32,-385.81 553,-371 535.13,-334.84 533.4,-286.48 534.01,-260.28"/>
<polygon fill="#63b8ff" stroke="#63b8ff" points="537.51,-260.35 534.39,-250.22 530.51,-260.08 537.51,-260.35"/>
</a>
</g>
</g>
<!-- Node21 -->
<g id="Node000021" class="node">
<title>Node21</title>
<g id="a_Node000021"><a xlink:href="APrimitive_8hpp.html" target="_top" xlink:title=" ">
<polygon fill="white" stroke="#666666" points="749,-371 633,-371 633,-341 749,-341 749,-371"/>
<text text-anchor="start" x="641" y="-359" font-family="Helvetica,sans-Serif" font-size="10.00">Abstracts/APrimitive</text>
<text text-anchor="middle" x="691" y="-348" font-family="Helvetica,sans-Serif" font-size="10.00">/APrimitive.hpp</text>
</a>
</g>
</g>
<!-- Node7&#45;&gt;Node21 -->
<g id="edge21_Node000007_Node000021" class="edge">
<title>Node7&#45;&gt;Node21</title>
<g id="a_edge21_Node000007_Node000021"><a xlink:title=" ">
<path fill="none" stroke="#63b8ff" d="M610.87,-406.87C623.62,-398.93 643,-386.87 659.51,-376.6"/>
<polygon fill="#63b8ff" stroke="#63b8ff" points="661.68,-379.37 668.32,-371.11 657.98,-373.43 661.68,-379.37"/>
</a>
</g>
</g>
<!-- Node22 -->
<g id="Node000022" class="node">
<title>Node22</title>
<g id="a_Node000022"><a xlink:href="IMaterial_8hpp.html" target="_top" xlink:title=" ">
<polygon fill="white" stroke="#666666" points="711,-305 621,-305 621,-286 711,-286 711,-305"/>
<text text-anchor="middle" x="666" y="-293" font-family="Helvetica,sans-Serif" font-size="10.00">../IMaterial.hpp</text>
</a>
</g>
</g>
<!-- Node7&#45;&gt;Node22 -->
<g id="edge40_Node000007_Node000022" class="edge">
<title>Node7&#45;&gt;Node22</title>
<g id="a_edge40_Node000007_Node000022"><a xlink:title=" ">
<path fill="none" stroke="#63b8ff" d="M598.94,-406.72C602.41,-392.24 610.58,-362.79 624,-341 630.59,-330.31 640.05,-320 648.32,-312"/>
<polygon fill="#63b8ff" stroke="#63b8ff" points="650.81,-314.47 655.76,-305.11 646.05,-309.34 650.81,-314.47"/>
</a>
</g>
</g>
<!-- Node23 -->
<g id="Node000023" class="node">
<title>Node23</title>
<g id="a_Node000023"><a xlink:href="ILight_8hpp.html" target="_top" xlink:title=" ">
<polygon fill="white" stroke="#666666" points="737.5,-250 672.5,-250 672.5,-231 737.5,-231 737.5,-250"/>
<text text-anchor="middle" x="705" y="-238" font-family="Helvetica,sans-Serif" font-size="10.00">ILight.hpp</text>
</a>
</g>
</g>
<!-- Node7&#45;&gt;Node23 -->
<g id="edge39_Node000007_Node000023" class="edge">
<title>Node7&#45;&gt;Node23</title>
<g id="a_edge39_Node000007_Node000023"><a xlink:title=" ">
<path fill="none" stroke="#63b8ff" d="M595.39,-406.95C591.71,-384.68 584.91,-323.95 612,-286 623.99,-269.21 644.04,-258.51 662.46,-251.83"/>
<polygon fill="#63b8ff" stroke="#63b8ff" points="663.79,-255.08 672.18,-248.61 661.58,-248.43 663.79,-255.08"/>
</a>
</g>
</g>
<!-- Node12&#45;&gt;Node6 -->
<g id="edge13_Node000012_Node000006" class="edge">
<title>Node12&#45;&gt;Node6</title>
<g id="a_edge13_Node000012_Node000006"><a xlink:title=" ">
<path fill="none" stroke="#63b8ff" d="M198.78,-340.99C217.62,-331.49 242.35,-319.02 260.84,-309.69"/>
<polygon fill="#63b8ff" stroke="#63b8ff" points="262.52,-312.77 269.87,-305.14 259.36,-306.52 262.52,-312.77"/>
</a>
</g>
</g>
<!-- Node13 -->
<g id="Node000013" class="node">
<title>Node13</title>
<g id="a_Node000013"><a xlink:title=" ">
<polygon fill="#e0e0e0" stroke="#999999" points="238.5,-305 173.5,-305 173.5,-286 238.5,-286 238.5,-305"/>
<text text-anchor="middle" x="206" y="-293" font-family="Helvetica,sans-Serif" font-size="10.00">exception</text>
</a>
</g>
</g>
<!-- Node12&#45;&gt;Node13 -->
<g id="edge12_Node000012_Node000013" class="edge">
<title>Node12&#45;&gt;Node13</title>
<g id="a_edge12_Node000012_Node000013"><a xlink:title=" ">
<path fill="none" stroke="#63b8ff" d="M179.47,-340.84C184.29,-332.78 190.37,-322.62 195.5,-314.06"/>
<polygon fill="#63b8ff" stroke="#63b8ff" points="198.62,-315.64 200.76,-305.27 192.62,-312.05 198.62,-315.64"/>
</a>
</g>
</g>
<!-- Node14 -->
<g id="Node000014" class="node">
<title>Node14</title>
<g id="a_Node000014"><a xlink:title=" ">
<polygon fill="#e0e0e0" stroke="#999999" points="44,-305 0,-305 0,-286 44,-286 44,-305"/>
<text text-anchor="middle" x="22" y="-293" font-family="Helvetica,sans-Serif" font-size="10.00">string</text>
</a>
</g>
</g>
<!-- Node12&#45;&gt;Node14 -->
<g id="edge14_Node000012_Node000014" class="edge">
<title>Node12&#45;&gt;Node14</title>
<g id="a_edge14_Node000012_Node000014"><a xlink:title=" ">
<path fill="none" stroke="#63b8ff" d="M135.31,-340.99C110.34,-331.18 77.3,-318.21 53.34,-308.81"/>
<polygon fill="#63b8ff" stroke="#63b8ff" points="54.59,-305.54 44,-305.14 52.03,-312.05 54.59,-305.54"/>
</a>
</g>
</g>
<!-- Node15 -->
<g id="Node000015" class="node">
<title>Node15</title>
<g id="a_Node000015"><a xlink:title=" ">
<polygon fill="#e0e0e0" stroke="#999999" points="155.5,-305 62.5,-305 62.5,-286 155.5,-286 155.5,-305"/>
<text text-anchor="middle" x="109" y="-293" font-family="Helvetica,sans-Serif" font-size="10.00">source_location</text>
</a>
</g>
</g>
<!-- Node12&#45;&gt;Node15 -->
<g id="edge15_Node000012_Node000015" class="edge">
<title>Node12&#45;&gt;Node15</title>
<g id="a_edge15_Node000012_Node000015"><a xlink:title=" ">
<path fill="none" stroke="#63b8ff" d="M155.99,-340.84C146.81,-332.17 135.05,-321.08 125.59,-312.15"/>
<polygon fill="#63b8ff" stroke="#63b8ff" points="127.97,-309.58 118.29,-305.27 123.16,-314.67 127.97,-309.58"/>
</a>
</g>
</g>
<!-- Node16&#45;&gt;Node17 -->
<g id="edge17_Node000016_Node000017" class="edge">
<title>Node16&#45;&gt;Node17</title>
<g id="a_edge17_Node000016_Node000017"><a xlink:title=" ">
<path fill="none" stroke="#63b8ff" d="M454.65,-340.63C471.73,-319.56 503.47,-280.4 521.52,-258.13"/>
<polygon fill="#63b8ff" stroke="#63b8ff" points="524.35,-260.2 527.92,-250.23 518.91,-255.79 524.35,-260.2"/>
</a>
</g>
</g>
<!-- Node18 -->
<g id="Node000018" class="node">
<title>Node18</title>
<g id="a_Node000018"><a xlink:href="Color_8hpp.html" target="_top" xlink:title=" ">
<polygon fill="white" stroke="#666666" points="620.5,-189.5 505.5,-189.5 505.5,-170.5 620.5,-170.5 620.5,-189.5"/>
<text text-anchor="middle" x="563" y="-177.5" font-family="Helvetica,sans-Serif" font-size="10.00">../../../Utils/Color.hpp</text>
</a>
</g>
</g>
<!-- Node17&#45;&gt;Node18 -->
<g id="edge18_Node000017_Node000018" class="edge">
<title>Node17&#45;&gt;Node18</title>
<g id="a_edge18_Node000017_Node000018"><a xlink:title=" ">
<path fill="none" stroke="#63b8ff" d="M539.13,-230.87C543.14,-222.49 549.35,-209.51 554.44,-198.89"/>
<polygon fill="#63b8ff" stroke="#63b8ff" points="557.69,-200.2 558.85,-189.67 551.38,-197.18 557.69,-200.2"/>
</a>
</g>
</g>
<!-- Node20 -->
<g id="Node000020" class="node">
<title>Node20</title>
<g id="a_Node000020"><a xlink:title=" ">
<polygon fill="#e0e0e0" stroke="#999999" points="838.5,-189.5 791.5,-189.5 791.5,-170.5 838.5,-170.5 838.5,-189.5"/>
<text text-anchor="middle" x="815" y="-177.5" font-family="Helvetica,sans-Serif" font-size="10.00">vector</text>
</a>
</g>
</g>
<!-- Node17&#45;&gt;Node20 -->
<g id="edge20_Node000017_Node000020" class="edge">
<title>Node17&#45;&gt;Node20</title>
<g id="a_edge20_Node000017_Node000020"><a xlink:title=" ">
<path fill="none" stroke="#63b8ff" d="M605.98,-230.99C655.88,-223.98 723.85,-212.33 782,-195 783.68,-194.5 785.39,-193.94 787.11,-193.34"/>
<polygon fill="#63b8ff" stroke="#63b8ff" points="788.71,-196.47 796.77,-189.59 786.18,-189.94 788.71,-196.47"/>
</a>
</g>
</g>
<!-- Node19 -->
<g id="Node000019" class="node">
<title>Node19</title>
<g id="a_Node000019"><a xlink:title=" ">
<polygon fill="#e0e0e0" stroke="#999999" points="595,-129 531,-129 531,-110 595,-110 595,-129"/>
<text text-anchor="middle" x="563" y="-117" font-family="Helvetica,sans-Serif" font-size="10.00">algorithm</text>
</a>
</g>
</g>
<!-- Node18&#45;&gt;Node19 -->
<g id="edge19_Node000018_Node000019" class="edge">
<title>Node18&#45;&gt;Node19</title>
<g id="a_edge19_Node000018_Node000019"><a xlink:title=" ">
<path fill="none" stroke="#63b8ff" d="M563,-170.37C563,-162.25 563,-149.81 563,-139.39"/>
<polygon fill="#63b8ff" stroke="#63b8ff" points="566.5,-139.17 563,-129.17 559.5,-139.17 566.5,-139.17"/>
</a>
</g>
</g>
<!-- Node21&#45;&gt;Node22 -->
<g id="edge22_Node000021_Node000022" class="edge">
<title>Node21&#45;&gt;Node22</title>
<g id="a_edge22_Node000021_Node000022"><a xlink:title=" ">
<path fill="none" stroke="#63b8ff" d="M684.95,-340.84C681.58,-332.95 677.35,-323.05 673.74,-314.61"/>
<polygon fill="#63b8ff" stroke="#63b8ff" points="676.89,-313.09 669.75,-305.27 670.46,-315.84 676.89,-313.09"/>
</a>
</g>
</g>
<!-- Node28 -->
<g id="Node000028" class="node">
<title>Node28</title>
<g id="a_Node000028"><a xlink:title=" ">
<polygon fill="#e0e0e0" stroke="#999999" points="785,-305 729,-305 729,-286 785,-286 785,-305"/>
<text text-anchor="middle" x="757" y="-293" font-family="Helvetica,sans-Serif" font-size="10.00">optional</text>
</a>
</g>
</g>
<!-- Node21&#45;&gt;Node28 -->
<g id="edge34_Node000021_Node000028" class="edge">
<title>Node21&#45;&gt;Node28</title>
<g id="a_edge34_Node000021_Node000028"><a xlink:title=" ">
<path fill="none" stroke="#63b8ff" d="M706.98,-340.84C716.75,-332.17 729.27,-321.08 739.34,-312.15"/>
<polygon fill="#63b8ff" stroke="#63b8ff" points="741.95,-314.52 747.11,-305.27 737.31,-309.28 741.95,-314.52"/>
</a>
</g>
</g>
<!-- Node29 -->
<g id="Node000029" class="node">
<title>Node29</title>
<g id="a_Node000029"><a xlink:href="Ray_8hpp.html" target="_top" xlink:title=" ">
<polygon fill="white" stroke="#666666" points="971,-195 857,-195 857,-165 971,-165 971,-195"/>
<text text-anchor="start" x="865" y="-183" font-family="Helvetica,sans-Serif" font-size="10.00">../../../Geometry/Ray</text>
<text text-anchor="middle" x="914" y="-172" font-family="Helvetica,sans-Serif" font-size="10.00">/Ray.hpp</text>
</a>
</g>
</g>
<!-- Node21&#45;&gt;Node29 -->
<g id="edge35_Node000021_Node000029" class="edge">
<title>Node21&#45;&gt;Node29</title>
<g id="a_edge35_Node000021_Node000029"><a xlink:title=" ">
<path fill="none" stroke="#63b8ff" d="M727.53,-340.99C748.05,-332.23 773.56,-319.81 794,-305 835.38,-275.03 874.88,-229.96 896.64,-203.21"/>
<polygon fill="#63b8ff" stroke="#63b8ff" points="899.53,-205.2 903.07,-195.21 894.08,-200.82 899.53,-205.2"/>
</a>
</g>
</g>
<!-- Node22&#45;&gt;Node18 -->
<g id="edge23_Node000022_Node000018" class="edge">
<title>Node22&#45;&gt;Node18</title>
<g id="a_edge23_Node000022_Node000018"><a xlink:title=" ">
<path fill="none" stroke="#63b8ff" d="M660.61,-285.82C652.54,-273.15 636.5,-249.11 620,-231 608.42,-218.28 593.8,-205.52 582.27,-196.07"/>
<polygon fill="#63b8ff" stroke="#63b8ff" points="584.15,-193.09 574.16,-189.55 579.76,-198.54 584.15,-193.09"/>
</a>
</g>
</g>
<!-- Node22&#45;&gt;Node20 -->
<g id="edge33_Node000022_Node000020" class="edge">
<title>Node22&#45;&gt;Node20</title>
<g id="a_edge33_Node000022_Node000020"><a xlink:title=" ">
<path fill="none" stroke="#63b8ff" d="M685.28,-285.88C702.31,-277.81 727.42,-264.81 747,-250 767.63,-234.4 788.02,-212.63 801.01,-197.75"/>
<polygon fill="#63b8ff" stroke="#63b8ff" points="803.9,-199.75 807.75,-189.87 798.58,-195.2 803.9,-199.75"/>
</a>
</g>
</g>
<!-- Node22&#45;&gt;Node23 -->
<g id="edge24_Node000022_Node000023" class="edge">
<title>Node22&#45;&gt;Node23</title>
<g id="a_edge24_Node000022_Node000023"><a xlink:title=" ">
<path fill="none" stroke="#63b8ff" d="M672.44,-285.75C677.89,-278.34 685.86,-267.5 692.56,-258.41"/>
<polygon fill="#63b8ff" stroke="#63b8ff" points="695.57,-260.22 698.68,-250.09 689.93,-256.07 695.57,-260.22"/>
</a>
</g>
</g>
<!-- Node23&#45;&gt;Node9 -->
<g id="edge32_Node000023_Node000009" class="edge">
<title>Node23&#45;&gt;Node9</title>
<g id="a_edge32_Node000023_Node000009"><a xlink:title=" ">
<path fill="none" stroke="#63b8ff" d="M737.82,-235.41C789.61,-228.67 893.33,-214.08 980,-195 983.85,-194.15 987.85,-193.18 991.82,-192.16"/>
<polygon fill="#63b8ff" stroke="#63b8ff" points="992.83,-195.52 1001.58,-189.55 991.02,-188.76 992.83,-195.52"/>
</a>
</g>
</g>
<!-- Node23&#45;&gt;Node18 -->
<g id="edge30_Node000023_Node000018" class="edge">
<title>Node23&#45;&gt;Node18</title>
<g id="a_edge30_Node000023_Node000018"><a xlink:title=" ">
<path fill="none" stroke="#63b8ff" d="M684.35,-230.99C660.37,-221.12 620.61,-204.73 593.17,-193.43"/>
<polygon fill="#63b8ff" stroke="#63b8ff" points="594.25,-190.09 583.67,-189.52 591.59,-196.56 594.25,-190.09"/>
</a>
</g>
</g>
<!-- Node23&#45;&gt;Node20 -->
<g id="edge31_Node000023_Node000020" class="edge">
<title>Node23&#45;&gt;Node20</title>
<g id="a_edge31_Node000023_Node000020"><a xlink:title=" ">
<path fill="none" stroke="#63b8ff" d="M721.23,-230.87C739.27,-221.28 768.62,-205.67 789.68,-194.47"/>
<polygon fill="#63b8ff" stroke="#63b8ff" points="791.52,-197.45 798.7,-189.67 788.23,-191.27 791.52,-197.45"/>
</a>
</g>
</g>
<!-- Node24 -->
<g id="Node000024" class="node">
<title>Node24</title>
<g id="a_Node000024"><a xlink:href="HitRecord_8hpp.html" target="_top" xlink:title=" ">
<polygon fill="white" stroke="#666666" points="773,-195 639,-195 639,-165 773,-165 773,-195"/>
<text text-anchor="start" x="647" y="-183" font-family="Helvetica,sans-Serif" font-size="10.00">../../Geometry/HitRecord</text>
<text text-anchor="middle" x="706" y="-172" font-family="Helvetica,sans-Serif" font-size="10.00">/HitRecord.hpp</text>
</a>
</g>
</g>
<!-- Node23&#45;&gt;Node24 -->
<g id="edge25_Node000023_Node000024" class="edge">
<title>Node23&#45;&gt;Node24</title>
<g id="a_edge25_Node000023_Node000024"><a xlink:title=" ">
<path fill="none" stroke="#63b8ff" d="M705.15,-230.87C705.26,-224.11 705.43,-214.35 705.59,-205.26"/>
<polygon fill="#63b8ff" stroke="#63b8ff" points="709.09,-205.17 705.76,-195.11 702.09,-205.05 709.09,-205.17"/>
</a>
</g>
</g>
<!-- Node25 -->
<g id="Node000025" class="node">
<title>Node25</title>
<g id="a_Node000025"><a xlink:href="Point3D_8hpp.html" target="_top" xlink:title=" ">
<polygon fill="white" stroke="#666666" points="876,-129 750,-129 750,-110 876,-110 876,-129"/>
<text text-anchor="middle" x="813" y="-117" font-family="Helvetica,sans-Serif" font-size="10.00">../Point3D/Point3D.hpp</text>
</a>
</g>
</g>
<!-- Node24&#45;&gt;Node25 -->
<g id="edge26_Node000024_Node000025" class="edge">
<title>Node24&#45;&gt;Node25</title>
<g id="a_edge26_Node000024_Node000025"><a xlink:title=" ">
<path fill="none" stroke="#63b8ff" d="M731.63,-164.99C748.84,-155.58 771.4,-143.24 788.4,-133.95"/>
<polygon fill="#63b8ff" stroke="#63b8ff" points="790.1,-137.01 797.2,-129.14 786.75,-130.87 790.1,-137.01"/>
</a>
</g>
</g>
<!-- Node26 -->
<g id="Node000026" class="node">
<title>Node26</title>
<g id="a_Node000026"><a xlink:href="Vector3D_8hpp.html" target="_top" xlink:title=" ">
<polygon fill="white" stroke="#666666" points="882,-74 744,-74 744,-55 882,-55 882,-74"/>
<text text-anchor="middle" x="813" y="-62" font-family="Helvetica,sans-Serif" font-size="10.00">../Vector3D/Vector3D.hpp</text>
</a>
</g>
</g>
<!-- Node24&#45;&gt;Node26 -->
<g id="edge29_Node000024_Node000026" class="edge">
<title>Node24&#45;&gt;Node26</title>
<g id="a_edge29_Node000024_Node000026"><a xlink:title=" ">
<path fill="none" stroke="#63b8ff" d="M710.54,-164.95C715.92,-149.97 726.09,-126.22 741,-110 753.07,-96.87 769.89,-86.18 784.23,-78.58"/>
<polygon fill="#63b8ff" stroke="#63b8ff" points="785.88,-81.66 793.23,-74.03 782.72,-75.42 785.88,-81.66"/>
</a>
</g>
</g>
<!-- Node25&#45;&gt;Node26 -->
<g id="edge27_Node000025_Node000026" class="edge">
<title>Node25&#45;&gt;Node26</title>
<g id="a_edge27_Node000025_Node000026"><a xlink:title=" ">
<path fill="none" stroke="#63b8ff" d="M813,-109.75C813,-102.8 813,-92.85 813,-84.13"/>
<polygon fill="#63b8ff" stroke="#63b8ff" points="816.5,-84.09 813,-74.09 809.5,-84.09 816.5,-84.09"/>
</a>
</g>
</g>
<!-- Node27 -->
<g id="Node000027" class="node">
<title>Node27</title>
<g id="a_Node000027"><a xlink:title=" ">
<polygon fill="#e0e0e0" stroke="#999999" points="838.5,-19 787.5,-19 787.5,0 838.5,0 838.5,-19"/>
<text text-anchor="middle" x="813" y="-7" font-family="Helvetica,sans-Serif" font-size="10.00">math.h</text>
</a>
</g>
</g>
<!-- Node26&#45;&gt;Node27 -->
<g id="edge28_Node000026_Node000027" class="edge">
<title>Node26&#45;&gt;Node27</title>
<g id="a_edge28_Node000026_Node000027"><a xlink:title=" ">
<path fill="none" stroke="#63b8ff" d="M813,-54.75C813,-47.8 813,-37.85 813,-29.13"/>
<polygon fill="#63b8ff" stroke="#63b8ff" points="816.5,-29.09 813,-19.09 809.5,-29.09 816.5,-29.09"/>
</a>
</g>
</g>
<!-- Node29&#45;&gt;Node25 -->
<g id="edge36_Node000029_Node000025" class="edge">
<title>Node29&#45;&gt;Node25</title>
<g id="a_edge36_Node000029_Node000025"><a xlink:title=" ">
<path fill="none" stroke="#63b8ff" d="M889.81,-164.99C873.71,-155.66 852.66,-143.47 836.67,-134.21"/>
<polygon fill="#63b8ff" stroke="#63b8ff" points="838.32,-131.12 827.92,-129.14 834.81,-137.18 838.32,-131.12"/>
</a>
</g>
</g>
<!-- Node29&#45;&gt;Node26 -->
<g id="edge37_Node000029_Node000026" class="edge">
<title>Node29&#45;&gt;Node26</title>
<g id="a_edge37_Node000029_Node000026"><a xlink:title=" ">
<path fill="none" stroke="#63b8ff" d="M910.82,-164.95C906.86,-149.96 898.85,-126.2 885,-110 873.56,-96.63 857.07,-86.03 842.75,-78.53"/>
<polygon fill="#63b8ff" stroke="#63b8ff" points="844.25,-75.37 833.73,-74.06 841.13,-81.64 844.25,-75.37"/>
</a>
</g>
</g>
<!-- Node30&#45;&gt;Node7 -->
<g id="edge47_Node000030_Node000007" class="edge">
<title>Node30&#45;&gt;Node7</title>
<g id="a_edge47_Node000030_Node000007"><a xlink:title=" ">
<path fill="none" stroke="#63b8ff" d="M779.97,-461.98C742.5,-452.87 682.95,-438.4 642.02,-428.45"/>
<polygon fill="#63b8ff" stroke="#63b8ff" points="642.84,-425.04 632.3,-426.08 641.19,-431.85 642.84,-425.04"/>
</a>
</g>
</g>
<!-- Node30&#45;&gt;Node9 -->
<g id="edge46_Node000030_Node000009" class="edge">
<title>Node30&#45;&gt;Node9</title>
<g id="a_edge46_Node000030_Node000009"><a xlink:title=" ">
<path fill="none" stroke="#63b8ff" d="M885.07,-466.73C916.26,-461.47 951.06,-450.07 974,-426 1035.19,-361.78 1034.51,-245.05 1031.64,-199.71"/>
<polygon fill="#63b8ff" stroke="#63b8ff" points="1035.12,-199.28 1030.88,-189.57 1028.13,-199.81 1035.12,-199.28"/>
</a>
</g>
</g>
<!-- Node30&#45;&gt;Node10 -->
<g id="edge43_Node000030_Node000010" class="edge">
<title>Node30&#45;&gt;Node10</title>
<g id="a_edge43_Node000030_Node000010"><a xlink:title=" ">
<path fill="none" stroke="#63b8ff" d="M744.72,-463.63C685.71,-456.93 599.49,-444.93 526,-426 468.96,-411.31 405.13,-385.25 369.34,-369.7"/>
<polygon fill="#63b8ff" stroke="#63b8ff" points="370.58,-366.43 360.01,-365.62 367.77,-372.84 370.58,-366.43"/>
</a>
</g>
</g>
<!-- Node30&#45;&gt;Node11 -->
<g id="edge44_Node000030_Node000011" class="edge">
<title>Node30&#45;&gt;Node11</title>
<g id="a_edge44_Node000030_Node000011"><a xlink:title=" ">
<path fill="none" stroke="#63b8ff" d="M816.59,-461.92C819.34,-448.95 825.98,-424.04 839,-407 850.5,-391.96 867.74,-379.46 882.11,-370.72"/>
<polygon fill="#63b8ff" stroke="#63b8ff" points="884.16,-373.58 891.05,-365.53 880.65,-367.53 884.16,-373.58"/>
</a>
</g>
</g>
<!-- Node30&#45;&gt;Node20 -->
<g id="edge45_Node000030_Node000020" class="edge">
<title>Node30&#45;&gt;Node20</title>
<g id="a_edge45_Node000030_Node000020"><a xlink:title=" ">
<path fill="none" stroke="#63b8ff" d="M821.42,-461.91C831.42,-448.91 851.78,-423.98 873,-407 898.18,-386.85 919.81,-398.89 936,-371 942.69,-359.47 940.24,-353.64 936,-341 915.43,-279.7 861.05,-223.15 832.72,-196.71"/>
<polygon fill="#63b8ff" stroke="#63b8ff" points="834.89,-193.95 825.15,-189.79 830.17,-199.12 834.89,-193.95"/>
</a>
</g>
</g>
<!-- Node31 -->
<g id="Node000031" class="node">
<title>Node31</title>
<g id="a_Node000031"><a xlink:title=" ">
<polygon fill="#e0e0e0" stroke="#999999" points="964.5,-426 881.5,-426 881.5,-407 964.5,-407 964.5,-426"/>
<text text-anchor="middle" x="923" y="-414" font-family="Helvetica,sans-Serif" font-size="10.00">libconfig.h++</text>
</a>
</g>
</g>
<!-- Node30&#45;&gt;Node31 -->
<g id="edge42_Node000030_Node000031" class="edge">
<title>Node30&#45;&gt;Node31</title>
<g id="a_edge42_Node000030_Node000031"><a xlink:title=" ">
<path fill="none" stroke="#63b8ff" d="M832.35,-461.98C849.57,-453.54 876.2,-440.47 896.15,-430.68"/>
<polygon fill="#63b8ff" stroke="#63b8ff" points="897.9,-433.72 905.33,-426.17 894.81,-427.43 897.9,-433.72"/>
</a>
</g>
</g>
<!-- Node32&#45;&gt;Node3 -->
<g id="edge50_Node000032_Node000003" class="edge">
<title>Node32&#45;&gt;Node3</title>
<g id="a_edge50_Node000032_Node000003"><a xlink:title=" ">
<path fill="none" stroke="#63b8ff" d="M559.89,-516.98C520.01,-507.84 456.54,-493.27 413.16,-483.32"/>
<polygon fill="#63b8ff" stroke="#63b8ff" points="413.93,-479.91 403.41,-481.08 412.37,-486.73 413.93,-479.91"/>
</a>
</g>
</g>
<!-- Node32&#45;&gt;Node7 -->
<g id="edge49_Node000032_Node000007" class="edge">
<title>Node32&#45;&gt;Node7</title>
<g id="a_edge49_Node000032_Node000007"><a xlink:title=" ">
<path fill="none" stroke="#63b8ff" d="M597,-516.66C597,-499.17 597,-459.8 597,-436.27"/>
<polygon fill="#63b8ff" stroke="#63b8ff" points="600.5,-436.16 597,-426.16 593.5,-436.16 600.5,-436.16"/>
</a>
</g>
</g>
<!-- Node32&#45;&gt;Node9 -->
<g id="edge52_Node000032_Node000009" class="edge">
<title>Node32&#45;&gt;Node9</title>
<g id="a_edge52_Node000032_Node000009"><a xlink:title=" ">
<path fill="none" stroke="#63b8ff" d="M651.14,-524.44C775.12,-520.56 1069,-502.4 1069,-417.5 1069,-417.5 1069,-417.5 1069,-294.5 1069,-259.07 1051.79,-220.62 1040.23,-198.8"/>
<polygon fill="#63b8ff" stroke="#63b8ff" points="1043.15,-196.84 1035.26,-189.77 1037.02,-200.21 1043.15,-196.84"/>
</a>
</g>
</g>
<!-- Node32&#45;&gt;Node20 -->
<g id="edge51_Node000032_Node000020" class="edge">
<title>Node32&#45;&gt;Node20</title>
<g id="a_edge51_Node000032_Node000020"><a xlink:title=" ">
<path fill="none" stroke="#63b8ff" d="M651.18,-524.65C712.2,-522.06 813.36,-512.79 894,-481 934.14,-465.18 953.91,-464.19 974,-426 1018.01,-342.33 956.6,-297.09 889,-231 874.31,-216.64 855,-203.75 839.79,-194.65"/>
<polygon fill="#63b8ff" stroke="#63b8ff" points="841.34,-191.5 830.93,-189.5 837.82,-197.55 841.34,-191.5"/>
</a>
</g>
</g>
</g>
</svg>

<g id="navigator" transform="translate(0 0)" fill="#404254">
  <rect fill="#f2f5e9" fill-opacity="0.5" stroke="#606060" stroke-width=".5" x="0" y="0" width="60" height="60"/>
  <use id="zoomplus" xlink:href="#zoomPlus" x="17" y="9" onmousedown="handleZoom(evt,'in')"/>
  <use id="zoomminus" xlink:href="#zoomMin" x="42" y="9" onmousedown="handleZoom(evt,'out')"/>
  <use id="reset" xlink:href="#resetDef" x="30" y="36" onmousedown="handleReset()"/>
   <use id="arrowup" xlink:href="#arrowUp" x="0" y="0" onmousedown="handlePan(0,-1)"/>
  <use id="arrowright" xlink:href="#arrowRight" x="0" y="0" onmousedown="handlePan(1,0)"/>
  <use id="arrowdown" xlink:href="#arrowDown" x="0" y="0" onmousedown="handlePan(0,1)"/>
  <use id="arrowleft" xlink:href="#arrowLeft" x="0" y="0" onmousedown="handlePan(-1,0)"/>
</g>
<svg viewBox="0 0 15 15" width="100%" height="30px" preserveAspectRatio="xMaxYMin meet">
 <g id="arrow_out" transform="scale(0.3 0.3)">
  <a xlink:href="SceneLoader_8cpp__incl_org.svg" target="_base">
   <rect id="button" ry="5" rx="5" y="6" x="6" height="38" width="38"
        fill="#f2f5e9" fill-opacity="0.5" stroke="#606060" stroke-width="1.0"/>
   <path id="arrow"
     d="M 11.500037,31.436501 C 11.940474,20.09759 22.043105,11.32322 32.158766,21.979434 L 37.068811,17.246167 C 37.068811,17.246167 37.088388,32 37.088388,32 L 22.160133,31.978069 C 22.160133,31.978069 26.997745,27.140456 26.997745,27.140456 C 18.528582,18.264221 13.291696,25.230495 11.500037,31.436501 z"
     style="fill:#404040;"/>
  </a>
 </g>
</svg>

<style type='text/css'>
<![CDATA[
[data-mouse-over-selected='false'] { opacity: 0.7; }
[data-mouse-over-selected='true']  { opacity: 1.0; }
]]>
</style>
<script type="application/ecmascript"><![CDATA[
document.addEventListener('DOMContentLoaded', (event) => {
  highlightEdges();
  highlightAdjacentNodes();
});
]]></script>
</svg>
