<?xml version="1.0" encoding="UTF-8" standalone="no"?>
<!DOCTYPE svg PUBLIC "-//W3C//DTD SVG 1.1//EN"
 "http://www.w3.org/Graphics/SVG/1.1/DTD/svg11.dtd">
<!-- Generated by graphviz version 2.43.0 (0)
 -->
<!-- Title: src/SceneSystem/SceneNodeHelpers/SceneNodeHelpers.hpp Pages: 1 -->
<svg width="1253pt" height="511pt"
 viewBox="0.00 0.00 1252.50 511.00" xmlns="http://www.w3.org/2000/svg" xmlns:xlink="http://www.w3.org/1999/xlink">
<g id="graph0" class="graph" transform="scale(1 1) rotate(0) translate(4 507)">
<title>src/SceneSystem/SceneNodeHelpers/SceneNodeHelpers.hpp</title>
<!-- Node1 -->
<g id="Node000001" class="node">
<title>Node1</title>
<g id="a_Node000001"><a xlink:title=" ">
<polygon fill="#999999" stroke="#666666" points="787.5,-503 617.5,-503 617.5,-473 787.5,-473 787.5,-503"/>
<text text-anchor="start" x="625.5" y="-491" font-family="Helvetica,sans-Serif" font-size="10.00">src/SceneSystem/SceneNode</text>
<text text-anchor="middle" x="702.5" y="-480" font-family="Helvetica,sans-Serif" font-size="10.00">Helpers/SceneNodeHelpers.hpp</text>
</a>
</g>
</g>
<!-- Node2 -->
<g id="Node000002" class="node">
<title>Node2</title>
<g id="a_Node000002"><a xlink:title=" ">
<polygon fill="#e0e0e0" stroke="#999999" points="69,-437 0,-437 0,-418 69,-418 69,-437"/>
<text text-anchor="middle" x="34.5" y="-425" font-family="Helvetica,sans-Serif" font-size="10.00">type_traits</text>
</a>
</g>
</g>
<!-- Node1&#45;&gt;Node2 -->
<g id="edge1_Node000001_Node000002" class="edge">
<title>Node1&#45;&gt;Node2</title>
<g id="a_edge1_Node000001_Node000002"><a xlink:title=" ">
<path fill="none" stroke="#63b8ff" d="M617.5,-483.31C498.94,-477.47 277.09,-464.03 79.18,-437.09"/>
<polygon fill="#63b8ff" stroke="#63b8ff" points="79.56,-433.61 69.18,-435.71 78.61,-440.54 79.56,-433.61"/>
</a>
</g>
</g>
<!-- Node3 -->
<g id="Node000003" class="node">
<title>Node3</title>
<g id="a_Node000003"><a xlink:title=" ">
<polygon fill="#e0e0e0" stroke="#999999" points="132,-437 87,-437 87,-418 132,-418 132,-437"/>
<text text-anchor="middle" x="109.5" y="-425" font-family="Helvetica,sans-Serif" font-size="10.00">utility</text>
</a>
</g>
</g>
<!-- Node1&#45;&gt;Node3 -->
<g id="edge2_Node000001_Node000003" class="edge">
<title>Node1&#45;&gt;Node3</title>
<g id="a_edge2_Node000001_Node000003"><a xlink:title=" ">
<path fill="none" stroke="#63b8ff" d="M617.28,-482.95C507.79,-476.91 312.09,-463.34 146.5,-437 145.04,-436.77 143.54,-436.51 142.04,-436.23"/>
<polygon fill="#63b8ff" stroke="#63b8ff" points="142.6,-432.78 132.1,-434.21 141.2,-439.63 142.6,-432.78"/>
</a>
</g>
</g>
<!-- Node4 -->
<g id="Node000004" class="node">
<title>Node4</title>
<g id="a_Node000004"><a xlink:href="Plugin_8hpp.html" target="_top" xlink:title=" ">
<polygon fill="white" stroke="#666666" points="765,-437 640,-437 640,-418 765,-418 765,-437"/>
<text text-anchor="middle" x="702.5" y="-425" font-family="Helvetica,sans-Serif" font-size="10.00">../../Objects/Plugin.hpp</text>
</a>
</g>
</g>
<!-- Node1&#45;&gt;Node4 -->
<g id="edge3_Node000001_Node000004" class="edge">
<title>Node1&#45;&gt;Node4</title>
<g id="a_edge3_Node000001_Node000004"><a xlink:title=" ">
<path fill="none" stroke="#63b8ff" d="M702.5,-472.84C702.5,-465.21 702.5,-455.7 702.5,-447.45"/>
<polygon fill="#63b8ff" stroke="#63b8ff" points="706,-447.27 702.5,-437.27 699,-447.27 706,-447.27"/>
</a>
</g>
</g>
<!-- Node17 -->
<g id="Node000017" class="node">
<title>Node17</title>
<g id="a_Node000017"><a xlink:href="Color_8hpp.html" target="_top" xlink:title=" ">
<polygon fill="white" stroke="#666666" points="583,-189.5 468,-189.5 468,-170.5 583,-170.5 583,-189.5"/>
<text text-anchor="middle" x="525.5" y="-177.5" font-family="Helvetica,sans-Serif" font-size="10.00">../../../Utils/Color.hpp</text>
</a>
</g>
</g>
<!-- Node1&#45;&gt;Node17 -->
<g id="edge46_Node000001_Node000017" class="edge">
<title>Node1&#45;&gt;Node17</title>
<g id="a_edge46_Node000001_Node000017"><a xlink:title=" ">
<path fill="none" stroke="#63b8ff" d="M617.22,-485.73C464.58,-481.13 160.5,-460.36 160.5,-368 160.5,-368 160.5,-368 160.5,-300 160.5,-268.19 155.65,-252.04 179.5,-231 219.62,-195.62 368.53,-185.25 457.4,-182.23"/>
<polygon fill="#63b8ff" stroke="#63b8ff" points="457.77,-185.72 467.66,-181.91 457.55,-178.73 457.77,-185.72"/>
</a>
</g>
</g>
<!-- Node24 -->
<g id="Node000024" class="node">
<title>Node24</title>
<g id="a_Node000024"><a xlink:href="Point3D_8hpp.html" target="_top" xlink:title=" ">
<polygon fill="white" stroke="#666666" points="1029.5,-129 903.5,-129 903.5,-110 1029.5,-110 1029.5,-129"/>
<text text-anchor="middle" x="966.5" y="-117" font-family="Helvetica,sans-Serif" font-size="10.00">../Point3D/Point3D.hpp</text>
</a>
</g>
</g>
<!-- Node1&#45;&gt;Node24 -->
<g id="edge40_Node000001_Node000024" class="edge">
<title>Node1&#45;&gt;Node24</title>
<g id="a_edge40_Node000001_Node000024"><a xlink:title=" ">
<path fill="none" stroke="#63b8ff" d="M787.81,-474.29C884.22,-457.97 1032.14,-426.38 1065.5,-382 1100.05,-336.04 1172.54,-416.57 1017.5,-165 1010.18,-153.12 998.68,-142.69 988.45,-134.91"/>
<polygon fill="#63b8ff" stroke="#63b8ff" points="990.43,-132.03 980.27,-129.04 986.35,-137.72 990.43,-132.03"/>
</a>
</g>
</g>
<!-- Node25 -->
<g id="Node000025" class="node">
<title>Node25</title>
<g id="a_Node000025"><a xlink:href="Vector3D_8hpp.html" target="_top" xlink:title=" ">
<polygon fill="white" stroke="#666666" points="1035.5,-74 897.5,-74 897.5,-55 1035.5,-55 1035.5,-74"/>
<text text-anchor="middle" x="966.5" y="-62" font-family="Helvetica,sans-Serif" font-size="10.00">../Vector3D/Vector3D.hpp</text>
</a>
</g>
</g>
<!-- Node1&#45;&gt;Node25 -->
<g id="edge45_Node000001_Node000025" class="edge">
<title>Node1&#45;&gt;Node25</title>
<g id="a_edge45_Node000001_Node000025"><a xlink:title=" ">
<path fill="none" stroke="#63b8ff" d="M787.78,-485.73C940.42,-481.13 1244.5,-460.36 1244.5,-368 1244.5,-368 1244.5,-368 1244.5,-179 1244.5,-144.41 1236.33,-130.54 1208.5,-110 1183.08,-91.23 1106.22,-79.3 1045.86,-72.56"/>
<polygon fill="#63b8ff" stroke="#63b8ff" points="1045.89,-69.04 1035.57,-71.44 1045.13,-76 1045.89,-69.04"/>
</a>
</g>
</g>
<!-- Node29 -->
<g id="Node000029" class="node">
<title>Node29</title>
<g id="a_Node000029"><a xlink:href="TransformMatrix_8hpp.html" target="_top" xlink:title=" ">
<polygon fill="white" stroke="#666666" points="1216.5,-195 1064.5,-195 1064.5,-165 1216.5,-165 1216.5,-195"/>
<text text-anchor="start" x="1072.5" y="-183" font-family="Helvetica,sans-Serif" font-size="10.00">../../Geometry/Transform</text>
<text text-anchor="middle" x="1140.5" y="-172" font-family="Helvetica,sans-Serif" font-size="10.00">Matrix/TransformMatrix.hpp</text>
</a>
</g>
</g>
<!-- Node1&#45;&gt;Node29 -->
<g id="edge41_Node000001_Node000029" class="edge">
<title>Node1&#45;&gt;Node29</title>
<g id="a_edge41_Node000001_Node000029"><a xlink:title=" ">
<path fill="none" stroke="#63b8ff" d="M787.89,-485.24C888.92,-481.62 1049.6,-470.61 1098.5,-437 1127.18,-417.29 1135.5,-402.8 1135.5,-368 1135.5,-368 1135.5,-368 1135.5,-300 1135.5,-267.19 1137.42,-229.32 1138.88,-205.28"/>
<polygon fill="#63b8ff" stroke="#63b8ff" points="1142.38,-205.48 1139.51,-195.28 1135.39,-205.04 1142.38,-205.48"/>
</a>
</g>
</g>
<!-- Node5 -->
<g id="Node000005" class="node">
<title>Node5</title>
<g id="a_Node000005"><a xlink:title=" ">
<polygon fill="#e0e0e0" stroke="#999999" points="987,-376.5 922,-376.5 922,-357.5 987,-357.5 987,-376.5"/>
<text text-anchor="middle" x="954.5" y="-364.5" font-family="Helvetica,sans-Serif" font-size="10.00">functional</text>
</a>
</g>
</g>
<!-- Node4&#45;&gt;Node5 -->
<g id="edge4_Node000004_Node000005" class="edge">
<title>Node4&#45;&gt;Node5</title>
<g id="a_edge4_Node000004_Node000005"><a xlink:title=" ">
<path fill="none" stroke="#63b8ff" d="M746.32,-417.99C787.98,-409.66 852.3,-396.19 907.5,-382 910.63,-381.19 913.87,-380.32 917.12,-379.41"/>
<polygon fill="#63b8ff" stroke="#63b8ff" points="918.12,-382.77 926.76,-376.64 916.18,-376.04 918.12,-382.77"/>
</a>
</g>
</g>
<!-- Node6 -->
<g id="Node000006" class="node">
<title>Node6</title>
<g id="a_Node000006"><a xlink:title=" ">
<polygon fill="#e0e0e0" stroke="#999999" points="1008.5,-189.5 950.5,-189.5 950.5,-170.5 1008.5,-170.5 1008.5,-189.5"/>
<text text-anchor="middle" x="979.5" y="-177.5" font-family="Helvetica,sans-Serif" font-size="10.00">memory</text>
</a>
</g>
</g>
<!-- Node4&#45;&gt;Node6 -->
<g id="edge5_Node000004_Node000006" class="edge">
<title>Node4&#45;&gt;Node6</title>
<g id="a_edge5_Node000004_Node000006"><a xlink:title=" ">
<path fill="none" stroke="#63b8ff" d="M765.31,-422.67C800.59,-417.68 843.59,-406.56 874.5,-382 935.65,-333.43 965.07,-239.46 975.23,-199.6"/>
<polygon fill="#63b8ff" stroke="#63b8ff" points="978.63,-200.42 977.59,-189.87 971.83,-198.76 978.63,-200.42"/>
</a>
</g>
</g>
<!-- Node7 -->
<g id="Node000007" class="node">
<title>Node7</title>
<g id="a_Node000007"><a xlink:title=" ">
<polygon fill="#e0e0e0" stroke="#999999" points="1056,-376.5 1005,-376.5 1005,-357.5 1056,-357.5 1056,-376.5"/>
<text text-anchor="middle" x="1030.5" y="-364.5" font-family="Helvetica,sans-Serif" font-size="10.00">variant</text>
</a>
</g>
</g>
<!-- Node4&#45;&gt;Node7 -->
<g id="edge6_Node000004_Node000007" class="edge">
<title>Node4&#45;&gt;Node7</title>
<g id="a_edge6_Node000004_Node000007"><a xlink:title=" ">
<path fill="none" stroke="#63b8ff" d="M765.07,-421.42C825.22,-415.52 918.27,-403.68 996.5,-382 998.44,-381.46 1000.41,-380.85 1002.39,-380.18"/>
<polygon fill="#63b8ff" stroke="#63b8ff" points="1003.95,-383.33 1012.08,-376.53 1001.49,-376.78 1003.95,-383.33"/>
</a>
</g>
</g>
<!-- Node8 -->
<g id="Node000008" class="node">
<title>Node8</title>
<g id="a_Node000008"><a xlink:title=" ">
<polygon fill="#e0e0e0" stroke="#999999" points="617.5,-376.5 579.5,-376.5 579.5,-357.5 617.5,-357.5 617.5,-376.5"/>
<text text-anchor="middle" x="598.5" y="-364.5" font-family="Helvetica,sans-Serif" font-size="10.00">map</text>
</a>
</g>
</g>
<!-- Node4&#45;&gt;Node8 -->
<g id="edge7_Node000004_Node000008" class="edge">
<title>Node4&#45;&gt;Node8</title>
<g id="a_edge7_Node000004_Node000008"><a xlink:title=" ">
<path fill="none" stroke="#63b8ff" d="M687.15,-417.87C670.18,-408.32 642.6,-392.81 622.71,-381.62"/>
<polygon fill="#63b8ff" stroke="#63b8ff" points="624.34,-378.52 613.91,-376.67 620.91,-384.62 624.34,-378.52"/>
</a>
</g>
</g>
<!-- Node9 -->
<g id="Node000009" class="node">
<title>Node9</title>
<g id="a_Node000009"><a xlink:href="ParsingException_8hpp.html" target="_top" xlink:title=" ">
<polygon fill="white" stroke="#666666" points="427,-382 262,-382 262,-352 427,-352 427,-382"/>
<text text-anchor="start" x="270" y="-370" font-family="Helvetica,sans-Serif" font-size="10.00">../Exceptions/ParsingException</text>
<text text-anchor="middle" x="344.5" y="-359" font-family="Helvetica,sans-Serif" font-size="10.00">/ParsingException.hpp</text>
</a>
</g>
</g>
<!-- Node4&#45;&gt;Node9 -->
<g id="edge8_Node000004_Node000009" class="edge">
<title>Node4&#45;&gt;Node9</title>
<g id="a_edge8_Node000004_Node000009"><a xlink:title=" ">
<path fill="none" stroke="#63b8ff" d="M650.44,-417.99C594.74,-408.89 505.24,-394.27 437.4,-383.18"/>
<polygon fill="#63b8ff" stroke="#63b8ff" points="437.56,-379.66 427.13,-381.5 436.43,-386.57 437.56,-379.66"/>
</a>
</g>
</g>
<!-- Node15 -->
<g id="Node000015" class="node">
<title>Node15</title>
<g id="a_Node000015"><a xlink:href="AInterface_8hpp.html" target="_top" xlink:title=" ">
<polygon fill="white" stroke="#666666" points="561.5,-382 445.5,-382 445.5,-352 561.5,-352 561.5,-382"/>
<text text-anchor="start" x="453.5" y="-370" font-family="Helvetica,sans-Serif" font-size="10.00">Abstracts/AInterface</text>
<text text-anchor="middle" x="503.5" y="-359" font-family="Helvetica,sans-Serif" font-size="10.00">/AInterface.hpp</text>
</a>
</g>
</g>
<!-- Node4&#45;&gt;Node15 -->
<g id="edge14_Node000004_Node000015" class="edge">
<title>Node4&#45;&gt;Node15</title>
<g id="a_edge14_Node000004_Node000015"><a xlink:title=" ">
<path fill="none" stroke="#63b8ff" d="M673.56,-417.99C644.17,-409.35 597.86,-395.74 560.98,-384.9"/>
<polygon fill="#63b8ff" stroke="#63b8ff" points="561.92,-381.53 551.34,-382.06 559.95,-388.24 561.92,-381.53"/>
</a>
</g>
</g>
<!-- Node16 -->
<g id="Node000016" class="node">
<title>Node16</title>
<g id="a_Node000016"><a xlink:href="ARenderer_8hpp.html" target="_top" xlink:title=" ">
<polygon fill="white" stroke="#666666" points="585,-310.5 434,-310.5 434,-291.5 585,-291.5 585,-310.5"/>
<text text-anchor="middle" x="509.5" y="-298.5" font-family="Helvetica,sans-Serif" font-size="10.00">../ARenderer/ARenderer.hpp</text>
</a>
</g>
</g>
<!-- Node4&#45;&gt;Node16 -->
<g id="edge37_Node000004_Node000016" class="edge">
<title>Node4&#45;&gt;Node16</title>
<g id="a_edge37_Node000004_Node000016"><a xlink:title=" ">
<path fill="none" stroke="#63b8ff" d="M695.37,-417.61C682.82,-402.44 655.37,-371.32 626.5,-352 601.92,-335.56 571.05,-322.64 547.19,-314.05"/>
<polygon fill="#63b8ff" stroke="#63b8ff" points="548.03,-310.64 537.44,-310.64 545.72,-317.25 548.03,-310.64"/>
</a>
</g>
</g>
<!-- Node20 -->
<g id="Node000020" class="node">
<title>Node20</title>
<g id="a_Node000020"><a xlink:href="APrimitive_8hpp.html" target="_top" xlink:title=" ">
<polygon fill="white" stroke="#666666" points="865.5,-382 749.5,-382 749.5,-352 865.5,-352 865.5,-382"/>
<text text-anchor="start" x="757.5" y="-370" font-family="Helvetica,sans-Serif" font-size="10.00">Abstracts/APrimitive</text>
<text text-anchor="middle" x="807.5" y="-359" font-family="Helvetica,sans-Serif" font-size="10.00">/APrimitive.hpp</text>
</a>
</g>
</g>
<!-- Node4&#45;&gt;Node20 -->
<g id="edge19_Node000004_Node000020" class="edge">
<title>Node4&#45;&gt;Node20</title>
<g id="a_edge19_Node000004_Node000020"><a xlink:title=" ">
<path fill="none" stroke="#63b8ff" d="M717.99,-417.87C732.5,-409.78 754.69,-397.42 773.34,-387.03"/>
<polygon fill="#63b8ff" stroke="#63b8ff" points="775.13,-390.04 782.17,-382.11 771.73,-383.92 775.13,-390.04"/>
</a>
</g>
</g>
<!-- Node21 -->
<g id="Node000021" class="node">
<title>Node21</title>
<g id="a_Node000021"><a xlink:href="IMaterial_8hpp.html" target="_top" xlink:title=" ">
<polygon fill="white" stroke="#666666" points="693.5,-310.5 603.5,-310.5 603.5,-291.5 693.5,-291.5 693.5,-310.5"/>
<text text-anchor="middle" x="648.5" y="-298.5" font-family="Helvetica,sans-Serif" font-size="10.00">../IMaterial.hpp</text>
</a>
</g>
</g>
<!-- Node4&#45;&gt;Node21 -->
<g id="edge39_Node000004_Node000021" class="edge">
<title>Node4&#45;&gt;Node21</title>
<g id="a_edge39_Node000004_Node000021"><a xlink:title=" ">
<path fill="none" stroke="#63b8ff" d="M698.79,-417.94C690.08,-397.86 668.18,-347.37 656.36,-320.12"/>
<polygon fill="#63b8ff" stroke="#63b8ff" points="659.43,-318.4 652.24,-310.62 653.01,-321.18 659.43,-318.4"/>
</a>
</g>
</g>
<!-- Node22 -->
<g id="Node000022" class="node">
<title>Node22</title>
<g id="a_Node000022"><a xlink:href="ILight_8hpp.html" target="_top" xlink:title=" ">
<polygon fill="white" stroke="#666666" points="742,-250 677,-250 677,-231 742,-231 742,-250"/>
<text text-anchor="middle" x="709.5" y="-238" font-family="Helvetica,sans-Serif" font-size="10.00">ILight.hpp</text>
</a>
</g>
</g>
<!-- Node4&#45;&gt;Node22 -->
<g id="edge38_Node000004_Node000022" class="edge">
<title>Node4&#45;&gt;Node22</title>
<g id="a_edge38_Node000004_Node000022"><a xlink:title=" ">
<path fill="none" stroke="#63b8ff" d="M702.84,-417.58C703.92,-389.07 707.3,-299.74 708.78,-260.41"/>
<polygon fill="#63b8ff" stroke="#63b8ff" points="712.29,-260.46 709.17,-250.33 705.29,-260.19 712.29,-260.46"/>
</a>
</g>
</g>
<!-- Node10 -->
<g id="Node000010" class="node">
<title>Node10</title>
<g id="a_Node000010"><a xlink:href="RaytracerException_8hpp.html" target="_top" xlink:title=" ">
<polygon fill="white" stroke="#666666" points="412.5,-316 276.5,-316 276.5,-286 412.5,-286 412.5,-316"/>
<text text-anchor="start" x="284.5" y="-304" font-family="Helvetica,sans-Serif" font-size="10.00">../RaytracerException</text>
<text text-anchor="middle" x="344.5" y="-293" font-family="Helvetica,sans-Serif" font-size="10.00">/RaytracerException.hpp</text>
</a>
</g>
</g>
<!-- Node9&#45;&gt;Node10 -->
<g id="edge9_Node000009_Node000010" class="edge">
<title>Node9&#45;&gt;Node10</title>
<g id="a_edge9_Node000009_Node000010"><a xlink:title=" ">
<path fill="none" stroke="#63b8ff" d="M344.5,-351.8C344.5,-344.34 344.5,-334.99 344.5,-326.41"/>
<polygon fill="#63b8ff" stroke="#63b8ff" points="348,-326.16 344.5,-316.16 341,-326.16 348,-326.16"/>
</a>
</g>
</g>
<!-- Node11 -->
<g id="Node000011" class="node">
<title>Node11</title>
<g id="a_Node000011"><a xlink:title=" ">
<polygon fill="#e0e0e0" stroke="#999999" points="254,-250 189,-250 189,-231 254,-231 254,-250"/>
<text text-anchor="middle" x="221.5" y="-238" font-family="Helvetica,sans-Serif" font-size="10.00">exception</text>
</a>
</g>
</g>
<!-- Node10&#45;&gt;Node11 -->
<g id="edge10_Node000010_Node000011" class="edge">
<title>Node10&#45;&gt;Node11</title>
<g id="a_edge10_Node000010_Node000011"><a xlink:title=" ">
<path fill="none" stroke="#63b8ff" d="M315.04,-285.99C294.88,-276.4 268.36,-263.79 248.7,-254.44"/>
<polygon fill="#63b8ff" stroke="#63b8ff" points="250.2,-251.27 239.66,-250.14 247.19,-257.6 250.2,-251.27"/>
</a>
</g>
</g>
<!-- Node12 -->
<g id="Node000012" class="node">
<title>Node12</title>
<g id="a_Node000012"><a xlink:title=" ">
<polygon fill="#e0e0e0" stroke="#999999" points="332.5,-250 272.5,-250 272.5,-231 332.5,-231 332.5,-250"/>
<text text-anchor="middle" x="302.5" y="-238" font-family="Helvetica,sans-Serif" font-size="10.00">iostream</text>
</a>
</g>
</g>
<!-- Node10&#45;&gt;Node12 -->
<g id="edge11_Node000010_Node000012" class="edge">
<title>Node10&#45;&gt;Node12</title>
<g id="a_edge11_Node000010_Node000012"><a xlink:title=" ">
<path fill="none" stroke="#63b8ff" d="M334.33,-285.84C328.42,-277.61 320.94,-267.18 314.71,-258.51"/>
<polygon fill="#63b8ff" stroke="#63b8ff" points="317.47,-256.35 308.79,-250.27 311.78,-260.43 317.47,-256.35"/>
</a>
</g>
</g>
<!-- Node13 -->
<g id="Node000013" class="node">
<title>Node13</title>
<g id="a_Node000013"><a xlink:title=" ">
<polygon fill="#e0e0e0" stroke="#999999" points="394.5,-250 350.5,-250 350.5,-231 394.5,-231 394.5,-250"/>
<text text-anchor="middle" x="372.5" y="-238" font-family="Helvetica,sans-Serif" font-size="10.00">string</text>
</a>
</g>
</g>
<!-- Node10&#45;&gt;Node13 -->
<g id="edge12_Node000010_Node000013" class="edge">
<title>Node10&#45;&gt;Node13</title>
<g id="a_edge12_Node000010_Node000013"><a xlink:title=" ">
<path fill="none" stroke="#63b8ff" d="M351.28,-285.84C355.09,-277.87 359.89,-267.84 363.96,-259.33"/>
<polygon fill="#63b8ff" stroke="#63b8ff" points="367.14,-260.8 368.3,-250.27 360.83,-257.77 367.14,-260.8"/>
</a>
</g>
</g>
<!-- Node14 -->
<g id="Node000014" class="node">
<title>Node14</title>
<g id="a_Node000014"><a xlink:title=" ">
<polygon fill="#e0e0e0" stroke="#999999" points="506,-250 413,-250 413,-231 506,-231 506,-250"/>
<text text-anchor="middle" x="459.5" y="-238" font-family="Helvetica,sans-Serif" font-size="10.00">source_location</text>
</a>
</g>
</g>
<!-- Node10&#45;&gt;Node14 -->
<g id="edge13_Node000010_Node000014" class="edge">
<title>Node10&#45;&gt;Node14</title>
<g id="a_edge13_Node000010_Node000014"><a xlink:title=" ">
<path fill="none" stroke="#63b8ff" d="M372.05,-285.99C390.72,-276.49 415.24,-264.02 433.56,-254.69"/>
<polygon fill="#63b8ff" stroke="#63b8ff" points="435.19,-257.79 442.52,-250.14 432.02,-251.55 435.19,-257.79"/>
</a>
</g>
</g>
<!-- Node15&#45;&gt;Node16 -->
<g id="edge15_Node000015_Node000016" class="edge">
<title>Node15&#45;&gt;Node16</title>
<g id="a_edge15_Node000015_Node000016"><a xlink:title=" ">
<path fill="none" stroke="#63b8ff" d="M504.83,-351.8C505.68,-342.7 506.8,-330.79 507.73,-320.9"/>
<polygon fill="#63b8ff" stroke="#63b8ff" points="511.22,-321.13 508.67,-310.84 504.25,-320.47 511.22,-321.13"/>
</a>
</g>
</g>
<!-- Node16&#45;&gt;Node17 -->
<g id="edge16_Node000016_Node000017" class="edge">
<title>Node16&#45;&gt;Node17</title>
<g id="a_edge16_Node000016_Node000017"><a xlink:title=" ">
<path fill="none" stroke="#63b8ff" d="M510.65,-291.44C513.21,-272.41 519.42,-226.19 522.95,-199.97"/>
<polygon fill="#63b8ff" stroke="#63b8ff" points="526.45,-200.18 524.32,-189.8 519.52,-199.25 526.45,-200.18"/>
</a>
</g>
</g>
<!-- Node19 -->
<g id="Node000019" class="node">
<title>Node19</title>
<g id="a_Node000019"><a xlink:title=" ">
<polygon fill="#e0e0e0" stroke="#999999" points="648,-189.5 601,-189.5 601,-170.5 648,-170.5 648,-189.5"/>
<text text-anchor="middle" x="624.5" y="-177.5" font-family="Helvetica,sans-Serif" font-size="10.00">vector</text>
</a>
</g>
</g>
<!-- Node16&#45;&gt;Node19 -->
<g id="edge18_Node000016_Node000019" class="edge">
<title>Node16&#45;&gt;Node19</title>
<g id="a_edge18_Node000016_Node000019"><a xlink:title=" ">
<path fill="none" stroke="#63b8ff" d="M517.77,-291.44C536.82,-271.73 584.07,-222.84 608.81,-197.23"/>
<polygon fill="#63b8ff" stroke="#63b8ff" points="611.56,-199.42 615.99,-189.8 606.53,-194.56 611.56,-199.42"/>
</a>
</g>
</g>
<!-- Node18 -->
<g id="Node000018" class="node">
<title>Node18</title>
<g id="a_Node000018"><a xlink:title=" ">
<polygon fill="#e0e0e0" stroke="#999999" points="557.5,-129 493.5,-129 493.5,-110 557.5,-110 557.5,-129"/>
<text text-anchor="middle" x="525.5" y="-117" font-family="Helvetica,sans-Serif" font-size="10.00">algorithm</text>
</a>
</g>
</g>
<!-- Node17&#45;&gt;Node18 -->
<g id="edge17_Node000017_Node000018" class="edge">
<title>Node17&#45;&gt;Node18</title>
<g id="a_edge17_Node000017_Node000018"><a xlink:title=" ">
<path fill="none" stroke="#63b8ff" d="M525.5,-170.37C525.5,-162.25 525.5,-149.81 525.5,-139.39"/>
<polygon fill="#63b8ff" stroke="#63b8ff" points="529,-139.17 525.5,-129.17 522,-139.17 529,-139.17"/>
</a>
</g>
</g>
<!-- Node20&#45;&gt;Node6 -->
<g id="edge32_Node000020_Node000006" class="edge">
<title>Node20&#45;&gt;Node6</title>
<g id="a_edge32_Node000020_Node000006"><a xlink:title=" ">
<path fill="none" stroke="#63b8ff" d="M808.08,-351.76C809.4,-334.74 813.68,-306.03 827.5,-286 858.21,-241.47 914.42,-210.05 949.21,-193.78"/>
<polygon fill="#63b8ff" stroke="#63b8ff" points="950.76,-196.92 958.41,-189.6 947.86,-190.55 950.76,-196.92"/>
</a>
</g>
</g>
<!-- Node20&#45;&gt;Node21 -->
<g id="edge20_Node000020_Node000021" class="edge">
<title>Node20&#45;&gt;Node21</title>
<g id="a_edge20_Node000020_Node000021"><a xlink:title=" ">
<path fill="none" stroke="#63b8ff" d="M772.61,-351.95C744.72,-340.73 706.01,-325.15 679.27,-314.39"/>
<polygon fill="#63b8ff" stroke="#63b8ff" points="680.24,-311 669.66,-310.52 677.63,-317.5 680.24,-311"/>
</a>
</g>
</g>
<!-- Node27 -->
<g id="Node000027" class="node">
<title>Node27</title>
<g id="a_Node000027"><a xlink:title=" ">
<polygon fill="#e0e0e0" stroke="#999999" points="892.5,-310.5 836.5,-310.5 836.5,-291.5 892.5,-291.5 892.5,-310.5"/>
<text text-anchor="middle" x="864.5" y="-298.5" font-family="Helvetica,sans-Serif" font-size="10.00">optional</text>
</a>
</g>
</g>
<!-- Node20&#45;&gt;Node27 -->
<g id="edge33_Node000020_Node000027" class="edge">
<title>Node20&#45;&gt;Node27</title>
<g id="a_edge33_Node000020_Node000027"><a xlink:title=" ">
<path fill="none" stroke="#63b8ff" d="M820.15,-351.8C828.95,-341.92 840.7,-328.72 849.9,-318.39"/>
<polygon fill="#63b8ff" stroke="#63b8ff" points="852.59,-320.64 856.62,-310.84 847.36,-315.98 852.59,-320.64"/>
</a>
</g>
</g>
<!-- Node28 -->
<g id="Node000028" class="node">
<title>Node28</title>
<g id="a_Node000028"><a xlink:href="Ray_8hpp.html" target="_top" xlink:title=" ">
<polygon fill="white" stroke="#666666" points="932.5,-195 818.5,-195 818.5,-165 932.5,-165 932.5,-195"/>
<text text-anchor="start" x="826.5" y="-183" font-family="Helvetica,sans-Serif" font-size="10.00">../../../Geometry/Ray</text>
<text text-anchor="middle" x="875.5" y="-172" font-family="Helvetica,sans-Serif" font-size="10.00">/Ray.hpp</text>
</a>
</g>
</g>
<!-- Node20&#45;&gt;Node28 -->
<g id="edge34_Node000020_Node000028" class="edge">
<title>Node20&#45;&gt;Node28</title>
<g id="a_edge34_Node000020_Node000028"><a xlink:title=" ">
<path fill="none" stroke="#63b8ff" d="M801.17,-351.91C790.61,-326.09 772.59,-270.27 794.5,-231 801.89,-217.75 814.4,-207.57 827.4,-199.97"/>
<polygon fill="#63b8ff" stroke="#63b8ff" points="829.28,-202.93 836.43,-195.11 825.97,-196.77 829.28,-202.93"/>
</a>
</g>
</g>
<!-- Node21&#45;&gt;Node17 -->
<g id="edge21_Node000021_Node000017" class="edge">
<title>Node21&#45;&gt;Node17</title>
<g id="a_edge21_Node000021_Node000017"><a xlink:title=" ">
<path fill="none" stroke="#63b8ff" d="M639.65,-291.44C619.19,-271.64 568.31,-222.41 541.93,-196.9"/>
<polygon fill="#63b8ff" stroke="#63b8ff" points="544.22,-194.24 534.6,-189.8 539.35,-199.27 544.22,-194.24"/>
</a>
</g>
</g>
<!-- Node21&#45;&gt;Node19 -->
<g id="edge31_Node000021_Node000019" class="edge">
<title>Node21&#45;&gt;Node19</title>
<g id="a_edge31_Node000021_Node000019"><a xlink:title=" ">
<path fill="none" stroke="#63b8ff" d="M646.77,-291.44C642.92,-272.32 633.53,-225.77 628.26,-199.62"/>
<polygon fill="#63b8ff" stroke="#63b8ff" points="631.68,-198.91 626.28,-189.8 624.82,-200.3 631.68,-198.91"/>
</a>
</g>
</g>
<!-- Node21&#45;&gt;Node22 -->
<g id="edge22_Node000021_Node000022" class="edge">
<title>Node21&#45;&gt;Node22</title>
<g id="a_edge22_Node000021_Node000022"><a xlink:title=" ">
<path fill="none" stroke="#63b8ff" d="M657.5,-291.37C666.87,-282.38 681.75,-268.11 693.2,-257.14"/>
<polygon fill="#63b8ff" stroke="#63b8ff" points="695.67,-259.62 700.46,-250.17 690.82,-254.56 695.67,-259.62"/>
</a>
</g>
</g>
<!-- Node22&#45;&gt;Node6 -->
<g id="edge30_Node000022_Node000006" class="edge">
<title>Node22&#45;&gt;Node6</title>
<g id="a_edge30_Node000022_Node000006"><a xlink:title=" ">
<path fill="none" stroke="#63b8ff" d="M742.16,-234.96C787.43,-228.28 871.56,-214.45 941.5,-195 943.79,-194.36 946.13,-193.65 948.48,-192.9"/>
<polygon fill="#63b8ff" stroke="#63b8ff" points="949.68,-196.18 958,-189.62 947.4,-189.56 949.68,-196.18"/>
</a>
</g>
</g>
<!-- Node22&#45;&gt;Node17 -->
<g id="edge28_Node000022_Node000017" class="edge">
<title>Node22&#45;&gt;Node17</title>
<g id="a_edge28_Node000022_Node000017"><a xlink:title=" ">
<path fill="none" stroke="#63b8ff" d="M682.74,-230.99C650.86,-220.86 597.43,-203.87 561.82,-192.55"/>
<polygon fill="#63b8ff" stroke="#63b8ff" points="562.88,-189.21 552.29,-189.52 560.76,-195.88 562.88,-189.21"/>
</a>
</g>
</g>
<!-- Node22&#45;&gt;Node19 -->
<g id="edge29_Node000022_Node000019" class="edge">
<title>Node22&#45;&gt;Node19</title>
<g id="a_edge29_Node000022_Node000019"><a xlink:title=" ">
<path fill="none" stroke="#63b8ff" d="M696.96,-230.87C683.4,-221.54 661.56,-206.51 645.4,-195.38"/>
<polygon fill="#63b8ff" stroke="#63b8ff" points="647.32,-192.45 637.09,-189.67 643.35,-198.22 647.32,-192.45"/>
</a>
</g>
</g>
<!-- Node23 -->
<g id="Node000023" class="node">
<title>Node23</title>
<g id="a_Node000023"><a xlink:href="HitRecord_8hpp.html" target="_top" xlink:title=" ">
<polygon fill="white" stroke="#666666" points="800.5,-195 666.5,-195 666.5,-165 800.5,-165 800.5,-195"/>
<text text-anchor="start" x="674.5" y="-183" font-family="Helvetica,sans-Serif" font-size="10.00">../../Geometry/HitRecord</text>
<text text-anchor="middle" x="733.5" y="-172" font-family="Helvetica,sans-Serif" font-size="10.00">/HitRecord.hpp</text>
</a>
</g>
</g>
<!-- Node22&#45;&gt;Node23 -->
<g id="edge23_Node000022_Node000023" class="edge">
<title>Node22&#45;&gt;Node23</title>
<g id="a_edge23_Node000022_Node000023"><a xlink:title=" ">
<path fill="none" stroke="#63b8ff" d="M713.04,-230.87C715.91,-223.89 720.08,-213.71 723.91,-204.38"/>
<polygon fill="#63b8ff" stroke="#63b8ff" points="727.15,-205.69 727.71,-195.11 720.68,-203.04 727.15,-205.69"/>
</a>
</g>
</g>
<!-- Node23&#45;&gt;Node24 -->
<g id="edge24_Node000023_Node000024" class="edge">
<title>Node23&#45;&gt;Node24</title>
<g id="a_edge24_Node000023_Node000024"><a xlink:title=" ">
<path fill="none" stroke="#63b8ff" d="M789.31,-164.99C830.04,-154.76 884.51,-141.09 922.25,-131.61"/>
<polygon fill="#63b8ff" stroke="#63b8ff" points="923.59,-134.88 932.43,-129.05 921.88,-128.09 923.59,-134.88"/>
</a>
</g>
</g>
<!-- Node23&#45;&gt;Node25 -->
<g id="edge27_Node000023_Node000025" class="edge">
<title>Node23&#45;&gt;Node25</title>
<g id="a_edge27_Node000023_Node000025"><a xlink:title=" ">
<path fill="none" stroke="#63b8ff" d="M762.54,-164.85C808.02,-142.7 895.4,-100.13 939.56,-78.63"/>
<polygon fill="#63b8ff" stroke="#63b8ff" points="941.34,-81.65 948.8,-74.12 938.27,-75.36 941.34,-81.65"/>
</a>
</g>
</g>
<!-- Node24&#45;&gt;Node25 -->
<g id="edge25_Node000024_Node000025" class="edge">
<title>Node24&#45;&gt;Node25</title>
<g id="a_edge25_Node000024_Node000025"><a xlink:title=" ">
<path fill="none" stroke="#63b8ff" d="M966.5,-109.75C966.5,-102.8 966.5,-92.85 966.5,-84.13"/>
<polygon fill="#63b8ff" stroke="#63b8ff" points="970,-84.09 966.5,-74.09 963,-84.09 970,-84.09"/>
</a>
</g>
</g>
<!-- Node26 -->
<g id="Node000026" class="node">
<title>Node26</title>
<g id="a_Node000026"><a xlink:title=" ">
<polygon fill="#e0e0e0" stroke="#999999" points="992,-19 941,-19 941,0 992,0 992,-19"/>
<text text-anchor="middle" x="966.5" y="-7" font-family="Helvetica,sans-Serif" font-size="10.00">math.h</text>
</a>
</g>
</g>
<!-- Node25&#45;&gt;Node26 -->
<g id="edge26_Node000025_Node000026" class="edge">
<title>Node25&#45;&gt;Node26</title>
<g id="a_edge26_Node000025_Node000026"><a xlink:title=" ">
<path fill="none" stroke="#63b8ff" d="M966.5,-54.75C966.5,-47.8 966.5,-37.85 966.5,-29.13"/>
<polygon fill="#63b8ff" stroke="#63b8ff" points="970,-29.09 966.5,-19.09 963,-29.09 970,-29.09"/>
</a>
</g>
</g>
<!-- Node28&#45;&gt;Node24 -->
<g id="edge35_Node000028_Node000024" class="edge">
<title>Node28&#45;&gt;Node24</title>
<g id="a_edge35_Node000028_Node000024"><a xlink:title=" ">
<path fill="none" stroke="#63b8ff" d="M897.53,-164.84C911.77,-155.68 930.23,-143.82 944.47,-134.66"/>
<polygon fill="#63b8ff" stroke="#63b8ff" points="946.61,-137.45 953.13,-129.09 942.83,-131.56 946.61,-137.45"/>
</a>
</g>
</g>
<!-- Node28&#45;&gt;Node25 -->
<g id="edge36_Node000028_Node000025" class="edge">
<title>Node28&#45;&gt;Node25</title>
<g id="a_edge36_Node000028_Node000025"><a xlink:title=" ">
<path fill="none" stroke="#63b8ff" d="M876.36,-164.99C877.92,-150.04 882.28,-126.31 894.5,-110 904.84,-96.2 920.82,-85.71 935.1,-78.38"/>
<polygon fill="#63b8ff" stroke="#63b8ff" points="936.67,-81.51 944.16,-74.03 933.63,-75.2 936.67,-81.51"/>
</a>
</g>
</g>
<!-- Node29&#45;&gt;Node24 -->
<g id="edge43_Node000029_Node000024" class="edge">
<title>Node29&#45;&gt;Node24</title>
<g id="a_edge43_Node000029_Node000024"><a xlink:title=" ">
<path fill="none" stroke="#63b8ff" d="M1098.82,-164.99C1069.18,-155.02 1029.81,-141.78 1001.73,-132.35"/>
<polygon fill="#63b8ff" stroke="#63b8ff" points="1002.54,-128.92 991.94,-129.05 1000.3,-135.56 1002.54,-128.92"/>
</a>
</g>
</g>
<!-- Node29&#45;&gt;Node25 -->
<g id="edge44_Node000029_Node000025" class="edge">
<title>Node29&#45;&gt;Node25</title>
<g id="a_edge44_Node000029_Node000025"><a xlink:title=" ">
<path fill="none" stroke="#63b8ff" d="M1119.96,-164.74C1099.48,-150.61 1067.04,-128.46 1038.5,-110 1022.2,-99.46 1003.56,-87.95 989.33,-79.28"/>
<polygon fill="#63b8ff" stroke="#63b8ff" points="991.04,-76.23 980.68,-74.03 987.41,-82.21 991.04,-76.23"/>
</a>
</g>
</g>
<!-- Node30 -->
<g id="Node000030" class="node">
<title>Node30</title>
<g id="a_Node000030"><a xlink:href="Matrix_8hpp.html" target="_top" xlink:title="Fixed&#45;size generic matrix template used across geometry types.">
<polygon fill="white" stroke="#666666" points="1199,-129 1086,-129 1086,-110 1199,-110 1199,-129"/>
<text text-anchor="middle" x="1142.5" y="-117" font-family="Helvetica,sans-Serif" font-size="10.00">../Matrix/Matrix.hpp</text>
</a>
</g>
</g>
<!-- Node29&#45;&gt;Node30 -->
<g id="edge42_Node000029_Node000030" class="edge">
<title>Node29&#45;&gt;Node30</title>
<g id="a_edge42_Node000029_Node000030"><a xlink:title=" ">
<path fill="none" stroke="#63b8ff" d="M1140.98,-164.84C1141.24,-157.21 1141.57,-147.7 1141.85,-139.45"/>
<polygon fill="#63b8ff" stroke="#63b8ff" points="1145.36,-139.38 1142.2,-129.27 1138.36,-139.14 1145.36,-139.38"/>
</a>
</g>
</g>
</g>
</svg>
