<?xml version="1.0" encoding="UTF-8" standalone="no"?>
<!DOCTYPE svg PUBLIC "-//W3C//DTD SVG 1.1//EN"
 "http://www.w3.org/Graphics/SVG/1.1/DTD/svg11.dtd">
<!-- Generated by graphviz version 2.43.0 (0)
 -->
<!-- Title: src/SceneSystem/Scene/Scene.cpp Pages: 1 -->
<!--zoomable 621 -->

<svg id="main" version="1.1" xmlns="http://www.w3.org/2000/svg" xmlns:xlink="http://www.w3.org/1999/xlink" xml:space="preserve" onload="init(evt)">
<style type="text/css"><![CDATA[
.node, .edge {opacity: 0.7;}
.node.selected, .edge.selected {opacity: 1;}
.edge:hover path { stroke: red; }
.edge:hover polygon { stroke: red; fill: red; }
]]></style>

<defs>
  <circle id="rim" cx="0" cy="0" r="7"/>
  <circle id="rim2" cx="0" cy="0" r="3.5"/>
  <g id="zoomPlus">
    <use xlink:href="#rim" fill="#404040"><set attributeName="fill" to="#808080" begin="zoomplus.mouseover" end="zoomplus.mouseout"/></use>
    <path d="M-4,0h8M0,-4v8" fill="none" stroke="white" stroke-width="1.5" pointer-events="none"/>
  </g>
  <g id="zoomMin">
    <use xlink:href="#rim" fill="#404040"><set attributeName="fill" to="#808080" begin="zoomminus.mouseover" end="zoomminus.mouseout"/></use>
    <path d="M-4,0h8" fill="none" stroke="white" stroke-width="1.5" pointer-events="none"/>
  </g>
  <g id="arrowUp" transform="translate(30 24)">
    <use xlink:href="#rim"/>
    <path pointer-events="none" fill="none" stroke="white" stroke-width="1.5" d="M0,-3.0v7 M-2.5,-0.5L0,-3.0L2.5,-0.5"/>
  </g>
  <g id="arrowRight" transform="rotate(90) translate(36 -43)">
    <use xlink:href="#rim"/>
    <path pointer-events="none" fill="none" stroke="white" stroke-width="1.5" d="M0,-3.0v7 M-2.5,-0.5L0,-3.0L2.5,-0.5"/>
  </g>
  <g id="arrowDown" transform="rotate(180) translate(-30 -48)">
    <use xlink:href="#rim"/>
    <path pointer-events="none" fill="none" stroke="white" stroke-width="1.5" d="M0,-3.0v7 M-2.5,-0.5L0,-3.0L2.5,-0.5"/>
  </g>
  <g id="arrowLeft" transform="rotate(270) translate(-36 17)">
    <use xlink:href="#rim"/>
    <path pointer-events="none" fill="none" stroke="white" stroke-width="1.5" d="M0,-3.0v7 M-2.5,-0.5L0,-3.0L2.5,-0.5"/>
  </g>
  <g id="resetDef">
    <use xlink:href="#rim2" fill="#404040"><set attributeName="fill" to="#808080" begin="reset.mouseover" end="reset.mouseout"/></use>
  </g>
</defs>
<script type="application/ecmascript">
var viewWidth = 1334;
var viewHeight = 621;
var sectionId = 'dynsection-0';
</script>
<script type="application/ecmascript" xlink:href="svg.min.js"/>
<svg id="graph" class="graph">
<g id="viewport">
<title>src/SceneSystem/Scene/Scene.cpp</title>
<!-- Node1 -->
<g id="Node000001" class="node">
<title>Node1</title>
<g id="a_Node000001"><a xlink:title=" ">
<polygon fill="#999999" stroke="#666666" points="898,-613 766,-613 766,-583 898,-583 898,-613"/>
<text text-anchor="start" x="774" y="-601" font-family="Helvetica,sans-Serif" font-size="10.00">src/SceneSystem/Scene</text>
<text text-anchor="middle" x="832" y="-590" font-family="Helvetica,sans-Serif" font-size="10.00">/Scene.cpp</text>
</a>
</g>
</g>
<!-- Node2 -->
<g id="Node000002" class="node">
<title>Node2</title>
<g id="a_Node000002"><a xlink:href="Scene_8hpp.html" target="_top" xlink:title=" ">
<polygon fill="white" stroke="#666666" points="865.5,-547 798.5,-547 798.5,-528 865.5,-528 865.5,-547"/>
<text text-anchor="middle" x="832" y="-535" font-family="Helvetica,sans-Serif" font-size="10.00">Scene.hpp</text>
</a>
</g>
</g>
<!-- Node1&#45;&gt;Node2 -->
<g id="edge1_Node000001_Node000002" class="edge">
<title>Node1&#45;&gt;Node2</title>
<g id="a_edge1_Node000001_Node000002"><a xlink:title=" ">
<path fill="none" stroke="#63b8ff" d="M832,-582.84C832,-575.21 832,-565.7 832,-557.45"/>
<polygon fill="#63b8ff" stroke="#63b8ff" points="835.5,-557.27 832,-547.27 828.5,-557.27 835.5,-557.27"/>
</a>
</g>
</g>
<!-- Node3 -->
<g id="Node000003" class="node">
<title>Node3</title>
<g id="a_Node000003"><a xlink:href="Plugin_8hpp.html" target="_top" xlink:title=" ">
<polygon fill="white" stroke="#666666" points="663.5,-437 538.5,-437 538.5,-418 663.5,-418 663.5,-437"/>
<text text-anchor="middle" x="601" y="-425" font-family="Helvetica,sans-Serif" font-size="10.00">../../Objects/Plugin.hpp</text>
</a>
</g>
</g>
<!-- Node2&#45;&gt;Node3 -->
<g id="edge2_Node000002_Node000003" class="edge">
<title>Node2&#45;&gt;Node3</title>
<g id="a_edge2_Node000002_Node000003"><a xlink:title=" ">
<path fill="none" stroke="#63b8ff" d="M813.49,-527.84C772.92,-508.88 676.03,-463.58 628.39,-441.31"/>
<polygon fill="#63b8ff" stroke="#63b8ff" points="629.82,-438.11 619.28,-437.05 626.86,-444.45 629.82,-438.11"/>
</a>
</g>
</g>
<!-- Node5 -->
<g id="Node000005" class="node">
<title>Node5</title>
<g id="a_Node000005"><a xlink:title=" ">
<polygon fill="#e0e0e0" stroke="#999999" points="890,-189.5 832,-189.5 832,-170.5 890,-170.5 890,-189.5"/>
<text text-anchor="middle" x="861" y="-177.5" font-family="Helvetica,sans-Serif" font-size="10.00">memory</text>
</a>
</g>
</g>
<!-- Node2&#45;&gt;Node5 -->
<g id="edge61_Node000002_Node000005" class="edge">
<title>Node2&#45;&gt;Node5</title>
<g id="a_edge61_Node000002_Node000005"><a xlink:title=" ">
<path fill="none" stroke="#63b8ff" d="M832,-527.82C832,-509.48 832,-465.44 832,-428.5 832,-428.5 832,-428.5 832,-300 832,-263.47 845.06,-222.38 853.65,-199.3"/>
<polygon fill="#63b8ff" stroke="#63b8ff" points="856.99,-200.37 857.33,-189.78 850.46,-197.85 856.99,-200.37"/>
</a>
</g>
</g>
<!-- Node18 -->
<g id="Node000018" class="node">
<title>Node18</title>
<g id="a_Node000018"><a xlink:title=" ">
<polygon fill="#e0e0e0" stroke="#999999" points="518.5,-189.5 471.5,-189.5 471.5,-170.5 518.5,-170.5 518.5,-189.5"/>
<text text-anchor="middle" x="495" y="-177.5" font-family="Helvetica,sans-Serif" font-size="10.00">vector</text>
</a>
</g>
</g>
<!-- Node2&#45;&gt;Node18 -->
<g id="edge60_Node000002_Node000018" class="edge">
<title>Node2&#45;&gt;Node18</title>
<g id="a_edge60_Node000002_Node000018"><a xlink:title=" ">
<path fill="none" stroke="#63b8ff" d="M798.35,-535.74C642.7,-531.77 0,-510.43 0,-428.5 0,-428.5 0,-428.5 0,-300 0,-264.77 9.59,-250.39 39,-231 108.47,-185.21 368.32,-180.86 461.49,-180.81"/>
<polygon fill="#63b8ff" stroke="#63b8ff" points="461.49,-184.31 471.5,-180.82 461.5,-177.31 461.49,-184.31"/>
</a>
</g>
</g>
<!-- Node26 -->
<g id="Node000026" class="node">
<title>Node26</title>
<g id="a_Node000026"><a xlink:title=" ">
<polygon fill="#e0e0e0" stroke="#999999" points="1326,-310.5 1270,-310.5 1270,-291.5 1326,-291.5 1326,-310.5"/>
<text text-anchor="middle" x="1298" y="-298.5" font-family="Helvetica,sans-Serif" font-size="10.00">optional</text>
</a>
</g>
</g>
<!-- Node2&#45;&gt;Node26 -->
<g id="edge62_Node000002_Node000026" class="edge">
<title>Node2&#45;&gt;Node26</title>
<g id="a_edge62_Node000002_Node000026"><a xlink:title=" ">
<path fill="none" stroke="#63b8ff" d="M865.64,-535.59C949.53,-531.39 1169.28,-508.25 1281,-382 1295.89,-365.17 1298.87,-338.58 1298.97,-320.72"/>
<polygon fill="#63b8ff" stroke="#63b8ff" points="1302.47,-320.59 1298.73,-310.67 1295.47,-320.75 1302.47,-320.59"/>
</a>
</g>
</g>
<!-- Node30 -->
<g id="Node000030" class="node">
<title>Node30</title>
<g id="a_Node000030"><a xlink:href="Ray_8hpp.html" target="_top" xlink:title=" ">
<polygon fill="white" stroke="#666666" points="1022,-250 936,-250 936,-231 1022,-231 1022,-250"/>
<text text-anchor="middle" x="979" y="-238" font-family="Helvetica,sans-Serif" font-size="10.00">../Ray/Ray.hpp</text>
</a>
</g>
</g>
<!-- Node2&#45;&gt;Node30 -->
<g id="edge59_Node000002_Node000030" class="edge">
<title>Node2&#45;&gt;Node30</title>
<g id="a_edge59_Node000002_Node000030"><a xlink:title=" ">
<path fill="none" stroke="#63b8ff" d="M837.28,-527.9C847.73,-510.07 870,-467.46 870,-428.5 870,-428.5 870,-428.5 870,-366 870,-315.28 921.85,-275.3 954.03,-255.37"/>
<polygon fill="#63b8ff" stroke="#63b8ff" points="956.13,-258.2 962.92,-250.06 952.54,-252.19 956.13,-258.2"/>
</a>
</g>
</g>
<!-- Node31 -->
<g id="Node000031" class="node">
<title>Node31</title>
<g id="a_Node000031"><a xlink:href="PluginManager_8hpp.html" target="_top" xlink:title="Plugin manager for loading and managing plugins.">
<polygon fill="white" stroke="#666666" points="394,-492 200,-492 200,-473 394,-473 394,-492"/>
<text text-anchor="middle" x="297" y="-480" font-family="Helvetica,sans-Serif" font-size="10.00">../PluginManager/PluginManager.hpp</text>
</a>
</g>
</g>
<!-- Node2&#45;&gt;Node31 -->
<g id="edge45_Node000002_Node000031" class="edge">
<title>Node2&#45;&gt;Node31</title>
<g id="a_edge45_Node000002_Node000031"><a xlink:title=" ">
<path fill="none" stroke="#63b8ff" d="M798.13,-533.14C718.03,-525.21 514.6,-505.06 392.97,-493.01"/>
<polygon fill="#63b8ff" stroke="#63b8ff" points="393.21,-489.51 382.92,-492.01 392.52,-496.48 393.21,-489.51"/>
</a>
</g>
</g>
<!-- Node34 -->
<g id="Node000034" class="node">
<title>Node34</title>
<g id="a_Node000034"><a xlink:href="BVH_8hpp.html" target="_top" xlink:title=" ">
<polygon fill="white" stroke="#666666" points="1083,-437 991,-437 991,-418 1083,-418 1083,-437"/>
<text text-anchor="middle" x="1037" y="-425" font-family="Helvetica,sans-Serif" font-size="10.00">../BVH/BVH.hpp</text>
</a>
</g>
</g>
<!-- Node2&#45;&gt;Node34 -->
<g id="edge51_Node000002_Node000034" class="edge">
<title>Node2&#45;&gt;Node34</title>
<g id="a_edge51_Node000002_Node000034"><a xlink:title=" ">
<path fill="none" stroke="#63b8ff" d="M848.43,-527.84C884.2,-509 969.34,-464.14 1011.89,-441.73"/>
<polygon fill="#63b8ff" stroke="#63b8ff" points="1013.56,-444.8 1020.78,-437.05 1010.3,-438.61 1013.56,-444.8"/>
</a>
</g>
</g>
<!-- Node4 -->
<g id="Node000004" class="node">
<title>Node4</title>
<g id="a_Node000004"><a xlink:title=" ">
<polygon fill="#e0e0e0" stroke="#999999" points="391.5,-376.5 326.5,-376.5 326.5,-357.5 391.5,-357.5 391.5,-376.5"/>
<text text-anchor="middle" x="359" y="-364.5" font-family="Helvetica,sans-Serif" font-size="10.00">functional</text>
</a>
</g>
</g>
<!-- Node3&#45;&gt;Node4 -->
<g id="edge3_Node000003_Node000004" class="edge">
<title>Node3&#45;&gt;Node4</title>
<g id="a_edge3_Node000003_Node000004"><a xlink:title=" ">
<path fill="none" stroke="#63b8ff" d="M556.59,-417.98C515.84,-409.85 453.96,-396.68 401,-382 398.38,-381.27 395.69,-380.48 392.98,-379.66"/>
<polygon fill="#63b8ff" stroke="#63b8ff" points="393.89,-376.27 383.3,-376.57 391.77,-382.94 393.89,-376.27"/>
</a>
</g>
</g>
<!-- Node3&#45;&gt;Node5 -->
<g id="edge4_Node000003_Node000005" class="edge">
<title>Node3&#45;&gt;Node5</title>
<g id="a_edge4_Node000003_Node000005"><a xlink:title=" ">
<path fill="none" stroke="#63b8ff" d="M635.6,-418C659.85,-410.94 692.21,-399.25 717,-382 749.05,-359.69 753.12,-348.35 775,-316 798.72,-280.93 794.47,-266.2 818,-231 826.07,-218.93 836.7,-206.54 845.37,-197.12"/>
<polygon fill="#63b8ff" stroke="#63b8ff" points="848.07,-199.36 852.37,-189.68 842.97,-194.56 848.07,-199.36"/>
</a>
</g>
</g>
<!-- Node6 -->
<g id="Node000006" class="node">
<title>Node6</title>
<g id="a_Node000006"><a xlink:title=" ">
<polygon fill="#e0e0e0" stroke="#999999" points="595.5,-376.5 544.5,-376.5 544.5,-357.5 595.5,-357.5 595.5,-376.5"/>
<text text-anchor="middle" x="570" y="-364.5" font-family="Helvetica,sans-Serif" font-size="10.00">variant</text>
</a>
</g>
</g>
<!-- Node3&#45;&gt;Node6 -->
<g id="edge5_Node000003_Node000006" class="edge">
<title>Node3&#45;&gt;Node6</title>
<g id="a_edge5_Node000003_Node000006"><a xlink:title=" ">
<path fill="none" stroke="#63b8ff" d="M596.43,-417.87C591.94,-409.4 584.97,-396.24 579.31,-385.57"/>
<polygon fill="#63b8ff" stroke="#63b8ff" points="582.37,-383.86 574.59,-376.67 576.18,-387.14 582.37,-383.86"/>
</a>
</g>
</g>
<!-- Node7 -->
<g id="Node000007" class="node">
<title>Node7</title>
<g id="a_Node000007"><a xlink:title=" ">
<polygon fill="#e0e0e0" stroke="#999999" points="652,-376.5 614,-376.5 614,-357.5 652,-357.5 652,-376.5"/>
<text text-anchor="middle" x="633" y="-364.5" font-family="Helvetica,sans-Serif" font-size="10.00">map</text>
</a>
</g>
</g>
<!-- Node3&#45;&gt;Node7 -->
<g id="edge6_Node000003_Node000007" class="edge">
<title>Node3&#45;&gt;Node7</title>
<g id="a_edge6_Node000003_Node000007"><a xlink:title=" ">
<path fill="none" stroke="#63b8ff" d="M605.72,-417.87C610.35,-409.4 617.55,-396.24 623.39,-385.57"/>
<polygon fill="#63b8ff" stroke="#63b8ff" points="626.53,-387.12 628.26,-376.67 620.39,-383.76 626.53,-387.12"/>
</a>
</g>
</g>
<!-- Node8 -->
<g id="Node000008" class="node">
<title>Node8</title>
<g id="a_Node000008"><a xlink:href="ParsingException_8hpp.html" target="_top" xlink:title=" ">
<polygon fill="white" stroke="#666666" points="269.5,-382 104.5,-382 104.5,-352 269.5,-352 269.5,-382"/>
<text text-anchor="start" x="112.5" y="-370" font-family="Helvetica,sans-Serif" font-size="10.00">../Exceptions/ParsingException</text>
<text text-anchor="middle" x="187" y="-359" font-family="Helvetica,sans-Serif" font-size="10.00">/ParsingException.hpp</text>
</a>
</g>
</g>
<!-- Node3&#45;&gt;Node8 -->
<g id="edge7_Node000003_Node000008" class="edge">
<title>Node3&#45;&gt;Node8</title>
<g id="a_edge7_Node000003_Node000008"><a xlink:title=" ">
<path fill="none" stroke="#63b8ff" d="M539.92,-418C476.08,-409.09 372.99,-394.67 284,-382 282.53,-381.79 281.04,-381.58 279.54,-381.36"/>
<polygon fill="#63b8ff" stroke="#63b8ff" points="279.94,-377.89 269.55,-379.94 278.95,-384.82 279.94,-377.89"/>
</a>
</g>
</g>
<!-- Node14 -->
<g id="Node000014" class="node">
<title>Node14</title>
<g id="a_Node000014"><a xlink:href="AInterface_8hpp.html" target="_top" xlink:title=" ">
<polygon fill="white" stroke="#666666" points="526,-382 410,-382 410,-352 526,-352 526,-382"/>
<text text-anchor="start" x="418" y="-370" font-family="Helvetica,sans-Serif" font-size="10.00">Abstracts/AInterface</text>
<text text-anchor="middle" x="468" y="-359" font-family="Helvetica,sans-Serif" font-size="10.00">/AInterface.hpp</text>
</a>
</g>
</g>
<!-- Node3&#45;&gt;Node14 -->
<g id="edge13_Node000003_Node000014" class="edge">
<title>Node3&#45;&gt;Node14</title>
<g id="a_edge13_Node000003_Node000014"><a xlink:title=" ">
<path fill="none" stroke="#63b8ff" d="M581.66,-417.99C562.77,-409.68 533.42,-396.78 509.28,-386.16"/>
<polygon fill="#63b8ff" stroke="#63b8ff" points="510.54,-382.89 499.98,-382.06 507.72,-389.29 510.54,-382.89"/>
</a>
</g>
</g>
<!-- Node15 -->
<g id="Node000015" class="node">
<title>Node15</title>
<g id="a_Node000015"><a xlink:href="ARenderer_8hpp.html" target="_top" xlink:title=" ">
<polygon fill="white" stroke="#666666" points="548.5,-310.5 397.5,-310.5 397.5,-291.5 548.5,-291.5 548.5,-310.5"/>
<text text-anchor="middle" x="473" y="-298.5" font-family="Helvetica,sans-Serif" font-size="10.00">../ARenderer/ARenderer.hpp</text>
</a>
</g>
</g>
<!-- Node3&#45;&gt;Node15 -->
<g id="edge42_Node000003_Node000015" class="edge">
<title>Node3&#45;&gt;Node15</title>
<g id="a_edge42_Node000003_Node000015"><a xlink:title=" ">
<path fill="none" stroke="#63b8ff" d="M538.35,-425.8C463.51,-423.49 344.9,-414.61 317,-382 286.06,-345.84 351.11,-324 406.44,-312.49"/>
<polygon fill="#63b8ff" stroke="#63b8ff" points="407.16,-315.91 416.28,-310.52 405.79,-309.05 407.16,-315.91"/>
</a>
</g>
</g>
<!-- Node19 -->
<g id="Node000019" class="node">
<title>Node19</title>
<g id="a_Node000019"><a xlink:href="APrimitive_8hpp.html" target="_top" xlink:title=" ">
<polygon fill="white" stroke="#666666" points="1052,-382 936,-382 936,-352 1052,-352 1052,-382"/>
<text text-anchor="start" x="944" y="-370" font-family="Helvetica,sans-Serif" font-size="10.00">Abstracts/APrimitive</text>
<text text-anchor="middle" x="994" y="-359" font-family="Helvetica,sans-Serif" font-size="10.00">/APrimitive.hpp</text>
</a>
</g>
</g>
<!-- Node3&#45;&gt;Node19 -->
<g id="edge18_Node000003_Node000019" class="edge">
<title>Node3&#45;&gt;Node19</title>
<g id="a_edge18_Node000003_Node000019"><a xlink:title=" ">
<path fill="none" stroke="#63b8ff" d="M658.15,-417.99C729.15,-407.42 850.16,-389.41 925.9,-378.14"/>
<polygon fill="#63b8ff" stroke="#63b8ff" points="926.45,-381.59 935.82,-376.66 925.42,-374.67 926.45,-381.59"/>
</a>
</g>
</g>
<!-- Node20 -->
<g id="Node000020" class="node">
<title>Node20</title>
<g id="a_Node000020"><a xlink:href="IMaterial_8hpp.html" target="_top" xlink:title=" ">
<polygon fill="white" stroke="#666666" points="766,-310.5 676,-310.5 676,-291.5 766,-291.5 766,-310.5"/>
<text text-anchor="middle" x="721" y="-298.5" font-family="Helvetica,sans-Serif" font-size="10.00">../IMaterial.hpp</text>
</a>
</g>
</g>
<!-- Node3&#45;&gt;Node20 -->
<g id="edge44_Node000003_Node000020" class="edge">
<title>Node3&#45;&gt;Node20</title>
<g id="a_edge44_Node000003_Node000020"><a xlink:title=" ">
<path fill="none" stroke="#63b8ff" d="M633.84,-417.89C653.73,-411.13 678.21,-399.82 694,-382 709.38,-364.64 716.06,-338.17 718.92,-320.49"/>
<polygon fill="#63b8ff" stroke="#63b8ff" points="722.4,-320.93 720.28,-310.55 715.46,-319.99 722.4,-320.93"/>
</a>
</g>
</g>
<!-- Node21 -->
<g id="Node000021" class="node">
<title>Node21</title>
<g id="a_Node000021"><a xlink:href="ILight_8hpp.html" target="_top" xlink:title=" ">
<polygon fill="white" stroke="#666666" points="727.5,-250 662.5,-250 662.5,-231 727.5,-231 727.5,-250"/>
<text text-anchor="middle" x="695" y="-238" font-family="Helvetica,sans-Serif" font-size="10.00">ILight.hpp</text>
</a>
</g>
</g>
<!-- Node3&#45;&gt;Node21 -->
<g id="edge43_Node000003_Node000021" class="edge">
<title>Node3&#45;&gt;Node21</title>
<g id="a_edge43_Node000003_Node000021"><a xlink:title=" ">
<path fill="none" stroke="#63b8ff" d="M620,-417.98C633.97,-410.61 652.03,-398.53 661,-382 681.4,-344.43 653.88,-326.69 667,-286 670.22,-276.03 676.18,-266.05 681.78,-258.08"/>
<polygon fill="#63b8ff" stroke="#63b8ff" points="684.6,-260.14 687.78,-250.04 678.99,-255.96 684.6,-260.14"/>
</a>
</g>
</g>
<!-- Node9 -->
<g id="Node000009" class="node">
<title>Node9</title>
<g id="a_Node000009"><a xlink:href="RaytracerException_8hpp.html" target="_top" xlink:title=" ">
<polygon fill="white" stroke="#666666" points="259,-316 123,-316 123,-286 259,-286 259,-316"/>
<text text-anchor="start" x="131" y="-304" font-family="Helvetica,sans-Serif" font-size="10.00">../RaytracerException</text>
<text text-anchor="middle" x="191" y="-293" font-family="Helvetica,sans-Serif" font-size="10.00">/RaytracerException.hpp</text>
</a>
</g>
</g>
<!-- Node8&#45;&gt;Node9 -->
<g id="edge8_Node000008_Node000009" class="edge">
<title>Node8&#45;&gt;Node9</title>
<g id="a_edge8_Node000008_Node000009"><a xlink:title=" ">
<path fill="none" stroke="#63b8ff" d="M187.89,-351.8C188.35,-344.34 188.94,-334.99 189.47,-326.41"/>
<polygon fill="#63b8ff" stroke="#63b8ff" points="192.98,-326.36 190.11,-316.16 186,-325.93 192.98,-326.36"/>
</a>
</g>
</g>
<!-- Node10 -->
<g id="Node000010" class="node">
<title>Node10</title>
<g id="a_Node000010"><a xlink:title=" ">
<polygon fill="#e0e0e0" stroke="#999999" points="320.5,-250 255.5,-250 255.5,-231 320.5,-231 320.5,-250"/>
<text text-anchor="middle" x="288" y="-238" font-family="Helvetica,sans-Serif" font-size="10.00">exception</text>
</a>
</g>
</g>
<!-- Node9&#45;&gt;Node10 -->
<g id="edge9_Node000009_Node000010" class="edge">
<title>Node9&#45;&gt;Node10</title>
<g id="a_edge9_Node000009_Node000010"><a xlink:title=" ">
<path fill="none" stroke="#63b8ff" d="M214.48,-285.84C229.8,-276.6 249.71,-264.59 264.95,-255.4"/>
<polygon fill="#63b8ff" stroke="#63b8ff" points="266.99,-258.26 273.75,-250.09 263.38,-252.26 266.99,-258.26"/>
</a>
</g>
</g>
<!-- Node11 -->
<g id="Node000011" class="node">
<title>Node11</title>
<g id="a_Node000011"><a xlink:title=" ">
<polygon fill="#e0e0e0" stroke="#999999" points="126,-250 66,-250 66,-231 126,-231 126,-250"/>
<text text-anchor="middle" x="96" y="-238" font-family="Helvetica,sans-Serif" font-size="10.00">iostream</text>
</a>
</g>
</g>
<!-- Node9&#45;&gt;Node11 -->
<g id="edge10_Node000009_Node000011" class="edge">
<title>Node9&#45;&gt;Node11</title>
<g id="a_edge10_Node000009_Node000011"><a xlink:title=" ">
<path fill="none" stroke="#63b8ff" d="M168,-285.84C153,-276.6 133.5,-264.59 118.57,-255.4"/>
<polygon fill="#63b8ff" stroke="#63b8ff" points="120.31,-252.36 109.96,-250.09 116.64,-258.32 120.31,-252.36"/>
</a>
</g>
</g>
<!-- Node12 -->
<g id="Node000012" class="node">
<title>Node12</title>
<g id="a_Node000012"><a xlink:title=" ">
<polygon fill="#e0e0e0" stroke="#999999" points="383,-250 339,-250 339,-231 383,-231 383,-250"/>
<text text-anchor="middle" x="361" y="-238" font-family="Helvetica,sans-Serif" font-size="10.00">string</text>
</a>
</g>
</g>
<!-- Node9&#45;&gt;Node12 -->
<g id="edge11_Node000009_Node000012" class="edge">
<title>Node9&#45;&gt;Node12</title>
<g id="a_edge11_Node000009_Node000012"><a xlink:title=" ">
<path fill="none" stroke="#63b8ff" d="M231.72,-285.99C261.64,-275.69 301.71,-261.9 329.27,-252.42"/>
<polygon fill="#63b8ff" stroke="#63b8ff" points="330.5,-255.7 338.82,-249.13 328.22,-249.08 330.5,-255.7"/>
</a>
</g>
</g>
<!-- Node13 -->
<g id="Node000013" class="node">
<title>Node13</title>
<g id="a_Node000013"><a xlink:title=" ">
<polygon fill="#e0e0e0" stroke="#999999" points="237.5,-250 144.5,-250 144.5,-231 237.5,-231 237.5,-250"/>
<text text-anchor="middle" x="191" y="-238" font-family="Helvetica,sans-Serif" font-size="10.00">source_location</text>
</a>
</g>
</g>
<!-- Node9&#45;&gt;Node13 -->
<g id="edge12_Node000009_Node000013" class="edge">
<title>Node9&#45;&gt;Node13</title>
<g id="a_edge12_Node000009_Node000013"><a xlink:title=" ">
<path fill="none" stroke="#63b8ff" d="M191,-285.84C191,-278.21 191,-268.7 191,-260.45"/>
<polygon fill="#63b8ff" stroke="#63b8ff" points="194.5,-260.27 191,-250.27 187.5,-260.27 194.5,-260.27"/>
</a>
</g>
</g>
<!-- Node14&#45;&gt;Node15 -->
<g id="edge14_Node000014_Node000015" class="edge">
<title>Node14&#45;&gt;Node15</title>
<g id="a_edge14_Node000014_Node000015"><a xlink:title=" ">
<path fill="none" stroke="#63b8ff" d="M469.11,-351.8C469.82,-342.7 470.75,-330.79 471.52,-320.9"/>
<polygon fill="#63b8ff" stroke="#63b8ff" points="475.02,-321.09 472.31,-310.84 468.04,-320.54 475.02,-321.09"/>
</a>
</g>
</g>
<!-- Node16 -->
<g id="Node000016" class="node">
<title>Node16</title>
<g id="a_Node000016"><a xlink:href="Color_8hpp.html" target="_top" xlink:title=" ">
<polygon fill="white" stroke="#666666" points="813.5,-189.5 698.5,-189.5 698.5,-170.5 813.5,-170.5 813.5,-189.5"/>
<text text-anchor="middle" x="756" y="-177.5" font-family="Helvetica,sans-Serif" font-size="10.00">../../../Utils/Color.hpp</text>
</a>
</g>
</g>
<!-- Node15&#45;&gt;Node16 -->
<g id="edge15_Node000015_Node000016" class="edge">
<title>Node15&#45;&gt;Node16</title>
<g id="a_edge15_Node000015_Node000016"><a xlink:title=" ">
<path fill="none" stroke="#63b8ff" d="M493.35,-291.44C542.59,-270.74 668.34,-217.86 726.13,-193.56"/>
<polygon fill="#63b8ff" stroke="#63b8ff" points="727.59,-196.74 735.45,-189.64 724.88,-190.29 727.59,-196.74"/>
</a>
</g>
</g>
<!-- Node15&#45;&gt;Node18 -->
<g id="edge17_Node000015_Node000018" class="edge">
<title>Node15&#45;&gt;Node18</title>
<g id="a_edge17_Node000015_Node000018"><a xlink:title=" ">
<path fill="none" stroke="#63b8ff" d="M474.58,-291.44C478.1,-272.41 486.65,-226.19 491.49,-199.97"/>
<polygon fill="#63b8ff" stroke="#63b8ff" points="495,-200.27 493.37,-189.8 488.11,-199 495,-200.27"/>
</a>
</g>
</g>
<!-- Node17 -->
<g id="Node000017" class="node">
<title>Node17</title>
<g id="a_Node000017"><a xlink:title=" ">
<polygon fill="#e0e0e0" stroke="#999999" points="1186,-129 1122,-129 1122,-110 1186,-110 1186,-129"/>
<text text-anchor="middle" x="1154" y="-117" font-family="Helvetica,sans-Serif" font-size="10.00">algorithm</text>
</a>
</g>
</g>
<!-- Node16&#45;&gt;Node17 -->
<g id="edge16_Node000016_Node000017" class="edge">
<title>Node16&#45;&gt;Node17</title>
<g id="a_edge16_Node000016_Node000017"><a xlink:title=" ">
<path fill="none" stroke="#63b8ff" d="M794.53,-170.45C803.82,-168.53 813.75,-166.59 823,-165 877.65,-155.63 1035.39,-135.42 1111.68,-125.8"/>
<polygon fill="#63b8ff" stroke="#63b8ff" points="1112.4,-129.24 1121.88,-124.52 1111.53,-122.29 1112.4,-129.24"/>
</a>
</g>
</g>
<!-- Node19&#45;&gt;Node5 -->
<g id="edge31_Node000019_Node000005" class="edge">
<title>Node19&#45;&gt;Node5</title>
<g id="a_edge31_Node000019_Node000005"><a xlink:title=" ">
<path fill="none" stroke="#63b8ff" d="M983.78,-351.79C959.66,-318.24 899.25,-234.2 873.23,-198.01"/>
<polygon fill="#63b8ff" stroke="#63b8ff" points="875.81,-195.61 867.13,-189.53 870.13,-199.69 875.81,-195.61"/>
</a>
</g>
</g>
<!-- Node19&#45;&gt;Node20 -->
<g id="edge19_Node000019_Node000020" class="edge">
<title>Node19&#45;&gt;Node20</title>
<g id="a_edge19_Node000019_Node000020"><a xlink:title=" ">
<path fill="none" stroke="#63b8ff" d="M935.77,-352.35C885.44,-340.55 813.66,-323.72 767.2,-312.83"/>
<polygon fill="#63b8ff" stroke="#63b8ff" points="767.93,-309.41 757.4,-310.53 766.34,-316.22 767.93,-309.41"/>
</a>
</g>
</g>
<!-- Node19&#45;&gt;Node26 -->
<g id="edge32_Node000019_Node000026" class="edge">
<title>Node19&#45;&gt;Node26</title>
<g id="a_edge32_Node000019_Node000026"><a xlink:title=" ">
<path fill="none" stroke="#63b8ff" d="M1052.25,-353.74C1113.35,-340.87 1207.6,-321.03 1259.84,-310.03"/>
<polygon fill="#63b8ff" stroke="#63b8ff" points="1260.64,-313.44 1269.7,-307.96 1259.2,-306.59 1260.64,-313.44"/>
</a>
</g>
</g>
<!-- Node27 -->
<g id="Node000027" class="node">
<title>Node27</title>
<g id="a_Node000027"><a xlink:href="AABB_8hpp.html" target="_top" xlink:title=" ">
<polygon fill="white" stroke="#666666" points="1141,-316 1019,-316 1019,-286 1141,-286 1141,-316"/>
<text text-anchor="start" x="1027" y="-304" font-family="Helvetica,sans-Serif" font-size="10.00">../../../Geometry/AABB</text>
<text text-anchor="middle" x="1080" y="-293" font-family="Helvetica,sans-Serif" font-size="10.00">/AABB.hpp</text>
</a>
</g>
</g>
<!-- Node19&#45;&gt;Node27 -->
<g id="edge33_Node000019_Node000027" class="edge">
<title>Node19&#45;&gt;Node27</title>
<g id="a_edge33_Node000019_Node000027"><a xlink:title=" ">
<path fill="none" stroke="#63b8ff" d="M1013.09,-351.8C1024.78,-343.1 1039.93,-331.82 1052.85,-322.2"/>
<polygon fill="#63b8ff" stroke="#63b8ff" points="1055.03,-324.94 1060.97,-316.16 1050.86,-319.33 1055.03,-324.94"/>
</a>
</g>
</g>
<!-- Node19&#45;&gt;Node30 -->
<g id="edge41_Node000019_Node000030" class="edge">
<title>Node19&#45;&gt;Node30</title>
<g id="a_edge41_Node000019_Node000030"><a xlink:title=" ">
<path fill="none" stroke="#63b8ff" d="M992.28,-351.72C989.56,-329.12 984.26,-285.12 981.24,-260.09"/>
<polygon fill="#63b8ff" stroke="#63b8ff" points="984.7,-259.58 980.03,-250.07 977.75,-260.42 984.7,-259.58"/>
</a>
</g>
</g>
<!-- Node20&#45;&gt;Node16 -->
<g id="edge20_Node000020_Node000016" class="edge">
<title>Node20&#45;&gt;Node16</title>
<g id="a_edge20_Node000020_Node000016"><a xlink:title=" ">
<path fill="none" stroke="#63b8ff" d="M723.68,-291.16C726.7,-281.17 731.74,-264.43 736,-250 741.07,-232.82 746.74,-213.2 750.75,-199.29"/>
<polygon fill="#63b8ff" stroke="#63b8ff" points="754.16,-200.08 753.56,-189.51 747.44,-198.15 754.16,-200.08"/>
</a>
</g>
</g>
<!-- Node20&#45;&gt;Node18 -->
<g id="edge30_Node000020_Node000018" class="edge">
<title>Node20&#45;&gt;Node18</title>
<g id="a_edge30_Node000020_Node000018"><a xlink:title=" ">
<path fill="none" stroke="#63b8ff" d="M704.75,-291.44C665.83,-270.95 567.07,-218.95 520.3,-194.32"/>
<polygon fill="#63b8ff" stroke="#63b8ff" points="521.89,-191.2 511.41,-189.64 518.63,-197.4 521.89,-191.2"/>
</a>
</g>
</g>
<!-- Node20&#45;&gt;Node21 -->
<g id="edge21_Node000020_Node000021" class="edge">
<title>Node20&#45;&gt;Node21</title>
<g id="a_edge21_Node000020_Node000021"><a xlink:title=" ">
<path fill="none" stroke="#63b8ff" d="M717.16,-291.37C713.44,-282.99 707.67,-270.01 702.95,-259.39"/>
<polygon fill="#63b8ff" stroke="#63b8ff" points="706.11,-257.88 698.85,-250.17 699.72,-260.73 706.11,-257.88"/>
</a>
</g>
</g>
<!-- Node21&#45;&gt;Node5 -->
<g id="edge29_Node000021_Node000005" class="edge">
<title>Node21&#45;&gt;Node5</title>
<g id="a_edge29_Node000021_Node000005"><a xlink:title=" ">
<path fill="none" stroke="#63b8ff" d="M719.84,-230.86C745.46,-221.93 786.55,-207.57 822,-195 823.83,-194.35 825.71,-193.68 827.6,-193.01"/>
<polygon fill="#63b8ff" stroke="#63b8ff" points="828.85,-196.28 837.09,-189.62 826.49,-189.69 828.85,-196.28"/>
</a>
</g>
</g>
<!-- Node21&#45;&gt;Node16 -->
<g id="edge27_Node000021_Node000016" class="edge">
<title>Node21&#45;&gt;Node16</title>
<g id="a_edge27_Node000021_Node000016"><a xlink:title=" ">
<path fill="none" stroke="#63b8ff" d="M704,-230.87C713.37,-221.88 728.25,-207.61 739.7,-196.64"/>
<polygon fill="#63b8ff" stroke="#63b8ff" points="742.17,-199.12 746.96,-189.67 737.32,-194.06 742.17,-199.12"/>
</a>
</g>
</g>
<!-- Node21&#45;&gt;Node18 -->
<g id="edge28_Node000021_Node000018" class="edge">
<title>Node21&#45;&gt;Node18</title>
<g id="a_edge28_Node000021_Node000018"><a xlink:title=" ">
<path fill="none" stroke="#63b8ff" d="M663.09,-230.99C631.09,-222.34 580.45,-208.35 537,-195 534.24,-194.15 531.4,-193.25 528.54,-192.34"/>
<polygon fill="#63b8ff" stroke="#63b8ff" points="529.52,-188.97 518.92,-189.19 527.34,-195.63 529.52,-188.97"/>
</a>
</g>
</g>
<!-- Node22 -->
<g id="Node000022" class="node">
<title>Node22</title>
<g id="a_Node000022"><a xlink:href="HitRecord_8hpp.html" target="_top" xlink:title=" ">
<polygon fill="white" stroke="#666666" points="680,-195 546,-195 546,-165 680,-165 680,-195"/>
<text text-anchor="start" x="554" y="-183" font-family="Helvetica,sans-Serif" font-size="10.00">../../Geometry/HitRecord</text>
<text text-anchor="middle" x="613" y="-172" font-family="Helvetica,sans-Serif" font-size="10.00">/HitRecord.hpp</text>
</a>
</g>
</g>
<!-- Node21&#45;&gt;Node22 -->
<g id="edge22_Node000021_Node000022" class="edge">
<title>Node21&#45;&gt;Node22</title>
<g id="a_edge22_Node000021_Node000022"><a xlink:title=" ">
<path fill="none" stroke="#63b8ff" d="M682.9,-230.87C671.98,-223.08 655.49,-211.32 641.28,-201.17"/>
<polygon fill="#63b8ff" stroke="#63b8ff" points="642.96,-198.07 632.78,-195.11 638.89,-203.77 642.96,-198.07"/>
</a>
</g>
</g>
<!-- Node23 -->
<g id="Node000023" class="node">
<title>Node23</title>
<g id="a_Node000023"><a xlink:href="Point3D_8hpp.html" target="_top" xlink:title=" ">
<polygon fill="white" stroke="#666666" points="1072,-129 946,-129 946,-110 1072,-110 1072,-129"/>
<text text-anchor="middle" x="1009" y="-117" font-family="Helvetica,sans-Serif" font-size="10.00">../Point3D/Point3D.hpp</text>
</a>
</g>
</g>
<!-- Node22&#45;&gt;Node23 -->
<g id="edge23_Node000022_Node000023" class="edge">
<title>Node22&#45;&gt;Node23</title>
<g id="a_edge23_Node000022_Node000023"><a xlink:title=" ">
<path fill="none" stroke="#63b8ff" d="M680.11,-166.47C683.11,-165.96 686.09,-165.47 689,-165 773.36,-151.37 870.64,-138.2 935.59,-129.78"/>
<polygon fill="#63b8ff" stroke="#63b8ff" points="936.26,-133.22 945.73,-128.46 935.37,-126.28 936.26,-133.22"/>
</a>
</g>
</g>
<!-- Node24 -->
<g id="Node000024" class="node">
<title>Node24</title>
<g id="a_Node000024"><a xlink:href="Vector3D_8hpp.html" target="_top" xlink:title=" ">
<polygon fill="white" stroke="#666666" points="987,-74 849,-74 849,-55 987,-55 987,-74"/>
<text text-anchor="middle" x="918" y="-62" font-family="Helvetica,sans-Serif" font-size="10.00">../Vector3D/Vector3D.hpp</text>
</a>
</g>
</g>
<!-- Node22&#45;&gt;Node24 -->
<g id="edge26_Node000022_Node000024" class="edge">
<title>Node22&#45;&gt;Node24</title>
<g id="a_edge26_Node000022_Node000024"><a xlink:title=" ">
<path fill="none" stroke="#63b8ff" d="M650.7,-164.97C711,-142.53 828.11,-98.95 885.17,-77.72"/>
<polygon fill="#63b8ff" stroke="#63b8ff" points="886.62,-80.91 894.77,-74.14 884.18,-74.35 886.62,-80.91"/>
</a>
</g>
</g>
<!-- Node23&#45;&gt;Node24 -->
<g id="edge24_Node000023_Node000024" class="edge">
<title>Node23&#45;&gt;Node24</title>
<g id="a_edge24_Node000023_Node000024"><a xlink:title=" ">
<path fill="none" stroke="#63b8ff" d="M994.38,-109.98C980.14,-101.69 958.25,-88.94 941.55,-79.22"/>
<polygon fill="#63b8ff" stroke="#63b8ff" points="943.29,-76.18 932.89,-74.17 939.77,-82.23 943.29,-76.18"/>
</a>
</g>
</g>
<!-- Node25 -->
<g id="Node000025" class="node">
<title>Node25</title>
<g id="a_Node000025"><a xlink:title=" ">
<polygon fill="#e0e0e0" stroke="#999999" points="943.5,-19 892.5,-19 892.5,0 943.5,0 943.5,-19"/>
<text text-anchor="middle" x="918" y="-7" font-family="Helvetica,sans-Serif" font-size="10.00">math.h</text>
</a>
</g>
</g>
<!-- Node24&#45;&gt;Node25 -->
<g id="edge25_Node000024_Node000025" class="edge">
<title>Node24&#45;&gt;Node25</title>
<g id="a_edge25_Node000024_Node000025"><a xlink:title=" ">
<path fill="none" stroke="#63b8ff" d="M918,-54.75C918,-47.8 918,-37.85 918,-29.13"/>
<polygon fill="#63b8ff" stroke="#63b8ff" points="921.5,-29.09 918,-19.09 914.5,-29.09 921.5,-29.09"/>
</a>
</g>
</g>
<!-- Node27&#45;&gt;Node17 -->
<g id="edge34_Node000027_Node000017" class="edge">
<title>Node27&#45;&gt;Node17</title>
<g id="a_edge34_Node000027_Node000017"><a xlink:title=" ">
<path fill="none" stroke="#63b8ff" d="M1101.68,-285.93C1113.49,-277.08 1127.24,-264.58 1135,-250 1153.98,-214.36 1155.77,-165.8 1155.08,-139.43"/>
<polygon fill="#63b8ff" stroke="#63b8ff" points="1158.57,-139.14 1154.66,-129.29 1151.58,-139.43 1158.57,-139.14"/>
</a>
</g>
</g>
<!-- Node27&#45;&gt;Node23 -->
<g id="edge37_Node000027_Node000023" class="edge">
<title>Node27&#45;&gt;Node23</title>
<g id="a_edge37_Node000027_Node000023"><a xlink:title=" ">
<path fill="none" stroke="#63b8ff" d="M1074.43,-285.91C1061.69,-253.71 1030.44,-174.7 1016.24,-138.8"/>
<polygon fill="#63b8ff" stroke="#63b8ff" points="1019.35,-137.15 1012.42,-129.13 1012.84,-139.72 1019.35,-137.15"/>
</a>
</g>
</g>
<!-- Node28 -->
<g id="Node000028" class="node">
<title>Node28</title>
<g id="a_Node000028"><a xlink:title=" ">
<polygon fill="#e0e0e0" stroke="#999999" points="1125.5,-250 1078.5,-250 1078.5,-231 1125.5,-231 1125.5,-250"/>
<text text-anchor="middle" x="1102" y="-238" font-family="Helvetica,sans-Serif" font-size="10.00">cmath</text>
</a>
</g>
</g>
<!-- Node27&#45;&gt;Node28 -->
<g id="edge35_Node000027_Node000028" class="edge">
<title>Node27&#45;&gt;Node28</title>
<g id="a_edge35_Node000027_Node000028"><a xlink:title=" ">
<path fill="none" stroke="#63b8ff" d="M1085.33,-285.84C1088.26,-278.04 1091.93,-268.27 1095.08,-259.89"/>
<polygon fill="#63b8ff" stroke="#63b8ff" points="1098.46,-260.86 1098.7,-250.27 1091.91,-258.39 1098.46,-260.86"/>
</a>
</g>
</g>
<!-- Node29 -->
<g id="Node000029" class="node">
<title>Node29</title>
<g id="a_Node000029"><a xlink:title=" ">
<polygon fill="#e0e0e0" stroke="#999999" points="1226,-250 1182,-250 1182,-231 1226,-231 1226,-250"/>
<text text-anchor="middle" x="1204" y="-238" font-family="Helvetica,sans-Serif" font-size="10.00">limits</text>
</a>
</g>
</g>
<!-- Node27&#45;&gt;Node29 -->
<g id="edge36_Node000027_Node000029" class="edge">
<title>Node27&#45;&gt;Node29</title>
<g id="a_edge36_Node000027_Node000029"><a xlink:title=" ">
<path fill="none" stroke="#63b8ff" d="M1109.7,-285.99C1130.02,-276.4 1156.76,-263.79 1176.58,-254.44"/>
<polygon fill="#63b8ff" stroke="#63b8ff" points="1178.14,-257.57 1185.69,-250.14 1175.15,-251.24 1178.14,-257.57"/>
</a>
</g>
</g>
<!-- Node27&#45;&gt;Node30 -->
<g id="edge38_Node000027_Node000030" class="edge">
<title>Node27&#45;&gt;Node30</title>
<g id="a_edge38_Node000027_Node000030"><a xlink:title=" ">
<path fill="none" stroke="#63b8ff" d="M1055.81,-285.99C1039.71,-276.66 1018.66,-264.47 1002.67,-255.21"/>
<polygon fill="#63b8ff" stroke="#63b8ff" points="1004.32,-252.12 993.92,-250.14 1000.81,-258.18 1004.32,-252.12"/>
</a>
</g>
</g>
<!-- Node30&#45;&gt;Node23 -->
<g id="edge39_Node000030_Node000023" class="edge">
<title>Node30&#45;&gt;Node23</title>
<g id="a_edge39_Node000030_Node000023"><a xlink:title=" ">
<path fill="none" stroke="#63b8ff" d="M981.16,-230.94C985.98,-211.82 997.71,-165.27 1004.31,-139.12"/>
<polygon fill="#63b8ff" stroke="#63b8ff" points="1007.73,-139.85 1006.78,-129.3 1000.94,-138.14 1007.73,-139.85"/>
</a>
</g>
</g>
<!-- Node30&#45;&gt;Node24 -->
<g id="edge40_Node000030_Node000024" class="edge">
<title>Node30&#45;&gt;Node24</title>
<g id="a_edge40_Node000030_Node000024"><a xlink:title=" ">
<path fill="none" stroke="#63b8ff" d="M975.52,-230.98C968.04,-212.54 950.05,-167.48 937,-129 931.91,-114 926.8,-96.77 923.16,-84.04"/>
<polygon fill="#63b8ff" stroke="#63b8ff" points="926.47,-82.86 920.38,-74.19 919.73,-84.77 926.47,-82.86"/>
</a>
</g>
</g>
<!-- Node31&#45;&gt;Node3 -->
<g id="edge50_Node000031_Node000003" class="edge">
<title>Node31&#45;&gt;Node3</title>
<g id="a_edge50_Node000031_Node000003"><a xlink:title=" ">
<path fill="none" stroke="#63b8ff" d="M345.84,-472.98C399.28,-463.67 484.92,-448.74 542.06,-438.78"/>
<polygon fill="#63b8ff" stroke="#63b8ff" points="542.78,-442.2 552.03,-437.04 541.57,-435.31 542.78,-442.2"/>
</a>
</g>
</g>
<!-- Node31&#45;&gt;Node11 -->
<g id="edge48_Node000031_Node000011" class="edge">
<title>Node31&#45;&gt;Node11</title>
<g id="a_edge48_Node000031_Node000011"><a xlink:title=" ">
<path fill="none" stroke="#63b8ff" d="M249.27,-472.96C200.9,-461.49 128.56,-435.94 95,-382 71.45,-344.15 82.03,-288.74 90.02,-260.13"/>
<polygon fill="#63b8ff" stroke="#63b8ff" points="93.46,-260.84 92.97,-250.26 86.75,-258.84 93.46,-260.84"/>
</a>
</g>
</g>
<!-- Node31&#45;&gt;Node18 -->
<g id="edge49_Node000031_Node000018" class="edge">
<title>Node31&#45;&gt;Node18</title>
<g id="a_edge49_Node000031_Node000018"><a xlink:title=" ">
<path fill="none" stroke="#63b8ff" d="M199.82,-477.02C126.33,-467.77 38,-441.39 38,-368 38,-368 38,-368 38,-300 38,-268.19 32.83,-251.68 57,-231 87.58,-204.83 363.66,-187.91 461.12,-182.71"/>
<polygon fill="#63b8ff" stroke="#63b8ff" points="461.5,-186.19 471.31,-182.17 461.14,-179.2 461.5,-186.19"/>
</a>
</g>
</g>
<!-- Node32 -->
<g id="Node000032" class="node">
<title>Node32</title>
<g id="a_Node000032"><a xlink:title=" ">
<polygon fill="#e0e0e0" stroke="#999999" points="357,-437 307,-437 307,-418 357,-418 357,-437"/>
<text text-anchor="middle" x="332" y="-425" font-family="Helvetica,sans-Serif" font-size="10.00">dlfcn.h</text>
</a>
</g>
</g>
<!-- Node31&#45;&gt;Node32 -->
<g id="edge46_Node000031_Node000032" class="edge">
<title>Node31&#45;&gt;Node32</title>
<g id="a_edge46_Node000031_Node000032"><a xlink:title=" ">
<path fill="none" stroke="#63b8ff" d="M302.78,-472.75C307.62,-465.42 314.68,-454.73 320.64,-445.7"/>
<polygon fill="#63b8ff" stroke="#63b8ff" points="323.74,-447.36 326.33,-437.09 317.9,-443.5 323.74,-447.36"/>
</a>
</g>
</g>
<!-- Node33 -->
<g id="Node000033" class="node">
<title>Node33</title>
<g id="a_Node000033"><a xlink:title=" ">
<polygon fill="#e0e0e0" stroke="#999999" points="289,-437 235,-437 235,-418 289,-418 289,-437"/>
<text text-anchor="middle" x="262" y="-425" font-family="Helvetica,sans-Serif" font-size="10.00">dirent.h</text>
</a>
</g>
</g>
<!-- Node31&#45;&gt;Node33 -->
<g id="edge47_Node000031_Node000033" class="edge">
<title>Node31&#45;&gt;Node33</title>
<g id="a_edge47_Node000031_Node000033"><a xlink:title=" ">
<path fill="none" stroke="#63b8ff" d="M291.22,-472.75C286.38,-465.42 279.32,-454.73 273.36,-445.7"/>
<polygon fill="#63b8ff" stroke="#63b8ff" points="276.1,-443.5 267.67,-437.09 270.26,-447.36 276.1,-443.5"/>
</a>
</g>
</g>
<!-- Node34&#45;&gt;Node5 -->
<g id="edge54_Node000034_Node000005" class="edge">
<title>Node34&#45;&gt;Node5</title>
<g id="a_edge54_Node000034_Node000005"><a xlink:title=" ">
<path fill="none" stroke="#63b8ff" d="M992.79,-417.93C970.38,-411.5 944.31,-400.51 927,-382 877.67,-329.24 865.18,-238.93 862.04,-199.89"/>
<polygon fill="#63b8ff" stroke="#63b8ff" points="865.51,-199.26 861.34,-189.52 858.52,-199.73 865.51,-199.26"/>
</a>
</g>
</g>
<!-- Node34&#45;&gt;Node17 -->
<g id="edge52_Node000034_Node000017" class="edge">
<title>Node34&#45;&gt;Node17</title>
<g id="a_edge52_Node000034_Node000017"><a xlink:title=" ">
<path fill="none" stroke="#63b8ff" d="M1054.92,-417.99C1097.06,-396.79 1201.37,-336.98 1235,-250 1252.41,-204.98 1204.1,-158.51 1174.74,-135.41"/>
<polygon fill="#63b8ff" stroke="#63b8ff" points="1176.76,-132.55 1166.68,-129.28 1172.52,-138.12 1176.76,-132.55"/>
</a>
</g>
</g>
<!-- Node34&#45;&gt;Node18 -->
<g id="edge56_Node000034_Node000018" class="edge">
<title>Node34&#45;&gt;Node18</title>
<g id="a_edge56_Node000034_Node000018"><a xlink:title=" ">
<path fill="none" stroke="#63b8ff" d="M990.77,-418.49C918.59,-404.73 776.09,-372.49 667,-316 603.19,-282.95 539.69,-224.96 510.94,-196.98"/>
<polygon fill="#63b8ff" stroke="#63b8ff" points="513.06,-194.15 503.48,-189.63 508.15,-199.14 513.06,-194.15"/>
</a>
</g>
</g>
<!-- Node34&#45;&gt;Node19 -->
<g id="edge58_Node000034_Node000019" class="edge">
<title>Node34&#45;&gt;Node19</title>
<g id="a_edge58_Node000034_Node000019"><a xlink:title=" ">
<path fill="none" stroke="#63b8ff" d="M1030.66,-417.87C1025.31,-410.59 1017.41,-399.85 1010.32,-390.2"/>
<polygon fill="#63b8ff" stroke="#63b8ff" points="1013.12,-388.1 1004.37,-382.11 1007.48,-392.25 1013.12,-388.1"/>
</a>
</g>
</g>
<!-- Node34&#45;&gt;Node26 -->
<g id="edge55_Node000034_Node000026" class="edge">
<title>Node34&#45;&gt;Node26</title>
<g id="a_edge55_Node000034_Node000026"><a xlink:title=" ">
<path fill="none" stroke="#63b8ff" d="M1083.16,-421.8C1139.11,-415.31 1229.24,-402.09 1256,-382 1276.25,-366.8 1287.66,-338.96 1293.33,-320.47"/>
<polygon fill="#63b8ff" stroke="#63b8ff" points="1296.77,-321.16 1296.09,-310.59 1290.03,-319.28 1296.77,-321.16"/>
</a>
</g>
</g>
<!-- Node34&#45;&gt;Node27 -->
<g id="edge57_Node000034_Node000027" class="edge">
<title>Node34&#45;&gt;Node27</title>
<g id="a_edge57_Node000034_Node000027"><a xlink:title=" ">
<path fill="none" stroke="#63b8ff" d="M1042.48,-417.96C1047.88,-409.23 1056,-395.12 1061,-382 1067.89,-363.9 1072.82,-342.51 1075.92,-326.41"/>
<polygon fill="#63b8ff" stroke="#63b8ff" points="1079.43,-326.67 1077.78,-316.21 1072.55,-325.42 1079.43,-326.67"/>
</a>
</g>
</g>
<!-- Node34&#45;&gt;Node29 -->
<g id="edge53_Node000034_Node000029" class="edge">
<title>Node34&#45;&gt;Node29</title>
<g id="a_edge53_Node000034_Node000029"><a xlink:title=" ">
<path fill="none" stroke="#63b8ff" d="M1046.92,-417.85C1067.29,-399.86 1114.87,-356.72 1150,-316 1166.07,-297.37 1182.35,-274.19 1192.77,-258.68"/>
<polygon fill="#63b8ff" stroke="#63b8ff" points="1195.84,-260.39 1198.45,-250.12 1190.01,-256.52 1195.84,-260.39"/>
</a>
</g>
</g>
</g>
</svg>

<g id="navigator" transform="translate(0 0)" fill="#404254">
  <rect fill="#f2f5e9" fill-opacity="0.5" stroke="#606060" stroke-width=".5" x="0" y="0" width="60" height="60"/>
  <use id="zoomplus" xlink:href="#zoomPlus" x="17" y="9" onmousedown="handleZoom(evt,'in')"/>
  <use id="zoomminus" xlink:href="#zoomMin" x="42" y="9" onmousedown="handleZoom(evt,'out')"/>
  <use id="reset" xlink:href="#resetDef" x="30" y="36" onmousedown="handleReset()"/>
   <use id="arrowup" xlink:href="#arrowUp" x="0" y="0" onmousedown="handlePan(0,-1)"/>
  <use id="arrowright" xlink:href="#arrowRight" x="0" y="0" onmousedown="handlePan(1,0)"/>
  <use id="arrowdown" xlink:href="#arrowDown" x="0" y="0" onmousedown="handlePan(0,1)"/>
  <use id="arrowleft" xlink:href="#arrowLeft" x="0" y="0" onmousedown="handlePan(-1,0)"/>
</g>
<svg viewBox="0 0 15 15" width="100%" height="30px" preserveAspectRatio="xMaxYMin meet">
 <g id="arrow_out" transform="scale(0.3 0.3)">
  <a xlink:href="Scene_8cpp__incl_org.svg" target="_base">
   <rect id="button" ry="5" rx="5" y="6" x="6" height="38" width="38"
        fill="#f2f5e9" fill-opacity="0.5" stroke="#606060" stroke-width="1.0"/>
   <path id="arrow"
     d="M 11.500037,31.436501 C 11.940474,20.09759 22.043105,11.32322 32.158766,21.979434 L 37.068811,17.246167 C 37.068811,17.246167 37.088388,32 37.088388,32 L 22.160133,31.978069 C 22.160133,31.978069 26.997745,27.140456 26.997745,27.140456 C 18.528582,18.264221 13.291696,25.230495 11.500037,31.436501 z"
     style="fill:#404040;"/>
  </a>
 </g>
</svg>

<style type='text/css'>
<![CDATA[
[data-mouse-over-selected='false'] { opacity: 0.7; }
[data-mouse-over-selected='true']  { opacity: 1.0; }
]]>
</style>
<script type="application/ecmascript"><![CDATA[
document.addEventListener('DOMContentLoaded', (event) => {
  highlightEdges();
  highlightAdjacentNodes();
});
]]></script>
</svg>
