<?xml version="1.0" encoding="UTF-8" standalone="no"?>
<!DOCTYPE svg PUBLIC "-//W3C//DTD SVG 1.1//EN"
 "http://www.w3.org/Graphics/SVG/1.1/DTD/svg11.dtd">
<!-- Generated by graphviz version 2.43.0 (0)
 -->
<!-- Title: src/SceneSystem/SceneLoader/SceneLoader.cpp Pages: 1 -->
<svg width="1541pt" height="676pt"
 viewBox="0.00 0.00 1541.00 676.00" xmlns="http://www.w3.org/2000/svg" xmlns:xlink="http://www.w3.org/1999/xlink">
<g id="graph0" class="graph" transform="scale(1 1) rotate(0) translate(4 672)">
<title>src/SceneSystem/SceneLoader/SceneLoader.cpp</title>
<!-- Node1 -->
<g id="Node000001" class="node">
<title>Node1</title>
<g id="a_Node000001"><a xlink:title="Scene parsing and construction from configuration nodes.">
<polygon fill="#999999" stroke="#666666" points="323.5,-668 158.5,-668 158.5,-638 323.5,-638 323.5,-668"/>
<text text-anchor="start" x="166.5" y="-656" font-family="Helvetica,sans-Serif" font-size="10.00">src/SceneSystem/SceneLoader</text>
<text text-anchor="middle" x="241" y="-645" font-family="Helvetica,sans-Serif" font-size="10.00">/SceneLoader.cpp</text>
</a>
</g>
</g>
<!-- Node2 -->
<g id="Node000002" class="node">
<title>Node2</title>
<g id="a_Node000002"><a xlink:href="SceneLoader_8hpp.html" target="_top" xlink:title="Loads scene graphs from parsed configuration nodes.">
<polygon fill="white" stroke="#666666" points="290.5,-602 191.5,-602 191.5,-583 290.5,-583 290.5,-602"/>
<text text-anchor="middle" x="241" y="-590" font-family="Helvetica,sans-Serif" font-size="10.00">SceneLoader.hpp</text>
</a>
</g>
</g>
<!-- Node1&#45;&gt;Node2 -->
<g id="edge1_Node000001_Node000002" class="edge">
<title>Node1&#45;&gt;Node2</title>
<g id="a_edge1_Node000001_Node000002"><a xlink:title=" ">
<path fill="none" stroke="#63b8ff" d="M241,-637.84C241,-630.21 241,-620.7 241,-612.45"/>
<polygon fill="#63b8ff" stroke="#63b8ff" points="244.5,-612.27 241,-602.27 237.5,-612.27 244.5,-612.27"/>
</a>
</g>
</g>
<!-- Node3 -->
<g id="Node000003" class="node">
<title>Node3</title>
<g id="a_Node000003"><a xlink:href="PluginManager_8hpp.html" target="_top" xlink:title="Plugin loader interface for dynamic plugins.">
<polygon fill="white" stroke="#666666" points="194,-492 0,-492 0,-473 194,-473 194,-492"/>
<text text-anchor="middle" x="97" y="-480" font-family="Helvetica,sans-Serif" font-size="10.00">../PluginManager/PluginManager.hpp</text>
</a>
</g>
</g>
<!-- Node2&#45;&gt;Node3 -->
<g id="edge2_Node000002_Node000003" class="edge">
<title>Node2&#45;&gt;Node3</title>
<g id="a_edge2_Node000002_Node000003"><a xlink:title=" ">
<path fill="none" stroke="#63b8ff" d="M229.22,-582.66C204.52,-564.14 147.1,-521.08 116.7,-498.28"/>
<polygon fill="#63b8ff" stroke="#63b8ff" points="118.64,-495.36 108.54,-492.16 114.44,-500.96 118.64,-495.36"/>
</a>
</g>
</g>
<!-- Node14 -->
<g id="Node000014" class="node">
<title>Node14</title>
<g id="a_Node000014"><a xlink:href="RaytracerException_8hpp.html" target="_top" xlink:title=" ">
<polygon fill="white" stroke="#666666" points="386,-316 250,-316 250,-286 386,-286 386,-316"/>
<text text-anchor="start" x="258" y="-304" font-family="Helvetica,sans-Serif" font-size="10.00">../RaytracerException</text>
<text text-anchor="middle" x="318" y="-293" font-family="Helvetica,sans-Serif" font-size="10.00">/RaytracerException.hpp</text>
</a>
</g>
</g>
<!-- Node2&#45;&gt;Node14 -->
<g id="edge73_Node000002_Node000014" class="edge">
<title>Node2&#45;&gt;Node14</title>
<g id="a_edge73_Node000002_Node000014"><a xlink:title=" ">
<path fill="none" stroke="#63b8ff" d="M238.44,-582.91C233.25,-564.74 222,-521 222,-483.5 222,-483.5 222,-483.5 222,-426.5 222,-391.71 225.29,-379.95 246,-352 255.04,-339.8 267.97,-329.51 280.39,-321.5"/>
<polygon fill="#63b8ff" stroke="#63b8ff" points="282.56,-324.28 289.27,-316.08 278.92,-318.3 282.56,-324.28"/>
</a>
</g>
</g>
<!-- Node34 -->
<g id="Node000034" class="node">
<title>Node34</title>
<g id="a_Node000034"><a xlink:href="Parser_8hpp.html" target="_top" xlink:title=" ">
<polygon fill="white" stroke="#666666" points="508,-492 368,-492 368,-473 508,-473 508,-492"/>
<text text-anchor="middle" x="438" y="-480" font-family="Helvetica,sans-Serif" font-size="10.00">../ConfigParser/Parser.hpp</text>
</a>
</g>
</g>
<!-- Node2&#45;&gt;Node34 -->
<g id="edge50_Node000002_Node000034" class="edge">
<title>Node2&#45;&gt;Node34</title>
<g id="a_edge50_Node000002_Node000034"><a xlink:title=" ">
<path fill="none" stroke="#63b8ff" d="M256.79,-582.84C291.09,-564.04 372.64,-519.33 413.61,-496.87"/>
<polygon fill="#63b8ff" stroke="#63b8ff" points="415.32,-499.92 422.41,-492.05 411.96,-493.79 415.32,-499.92"/>
</a>
</g>
</g>
<!-- Node36 -->
<g id="Node000036" class="node">
<title>Node36</title>
<g id="a_Node000036"><a xlink:href="Scene_8hpp.html" target="_top" xlink:title="Scene container and ray query interface used by renderers.">
<polygon fill="white" stroke="#666666" points="971,-547 863,-547 863,-528 971,-528 971,-547"/>
<text text-anchor="middle" x="917" y="-535" font-family="Helvetica,sans-Serif" font-size="10.00">../Scene/Scene.hpp</text>
</a>
</g>
</g>
<!-- Node2&#45;&gt;Node36 -->
<g id="edge57_Node000002_Node000036" class="edge">
<title>Node2&#45;&gt;Node36</title>
<g id="a_edge57_Node000002_Node000036"><a xlink:title=" ">
<path fill="none" stroke="#63b8ff" d="M290.71,-587.6C411.06,-578.17 718.07,-554.1 852.41,-543.56"/>
<polygon fill="#63b8ff" stroke="#63b8ff" points="852.86,-547.04 862.55,-542.77 852.31,-540.06 852.86,-547.04"/>
</a>
</g>
</g>
<!-- Node4 -->
<g id="Node000004" class="node">
<title>Node4</title>
<g id="a_Node000004"><a xlink:title=" ">
<polygon fill="#e0e0e0" stroke="#999999" points="194,-437 144,-437 144,-418 194,-418 194,-437"/>
<text text-anchor="middle" x="169" y="-425" font-family="Helvetica,sans-Serif" font-size="10.00">dlfcn.h</text>
</a>
</g>
</g>
<!-- Node3&#45;&gt;Node4 -->
<g id="edge3_Node000003_Node000004" class="edge">
<title>Node3&#45;&gt;Node4</title>
<g id="a_edge3_Node000003_Node000004"><a xlink:title=" ">
<path fill="none" stroke="#63b8ff" d="M108.57,-472.98C119.42,-465 135.88,-452.88 148.88,-443.31"/>
<polygon fill="#63b8ff" stroke="#63b8ff" points="151.24,-445.92 157.22,-437.17 147.09,-440.28 151.24,-445.92"/>
</a>
</g>
</g>
<!-- Node5 -->
<g id="Node000005" class="node">
<title>Node5</title>
<g id="a_Node000005"><a xlink:title=" ">
<polygon fill="#e0e0e0" stroke="#999999" points="88,-437 34,-437 34,-418 88,-418 88,-437"/>
<text text-anchor="middle" x="61" y="-425" font-family="Helvetica,sans-Serif" font-size="10.00">dirent.h</text>
</a>
</g>
</g>
<!-- Node3&#45;&gt;Node5 -->
<g id="edge4_Node000003_Node000005" class="edge">
<title>Node3&#45;&gt;Node5</title>
<g id="a_edge4_Node000003_Node000005"><a xlink:title=" ">
<path fill="none" stroke="#63b8ff" d="M91.06,-472.75C86.02,-465.34 78.66,-454.5 72.49,-445.41"/>
<polygon fill="#63b8ff" stroke="#63b8ff" points="75.35,-443.39 66.83,-437.09 69.56,-447.33 75.35,-443.39"/>
</a>
</g>
</g>
<!-- Node6 -->
<g id="Node000006" class="node">
<title>Node6</title>
<g id="a_Node000006"><a xlink:title=" ">
<polygon fill="#e0e0e0" stroke="#999999" points="151,-250 91,-250 91,-231 151,-231 151,-250"/>
<text text-anchor="middle" x="121" y="-238" font-family="Helvetica,sans-Serif" font-size="10.00">iostream</text>
</a>
</g>
</g>
<!-- Node3&#45;&gt;Node6 -->
<g id="edge5_Node000003_Node000006" class="edge">
<title>Node3&#45;&gt;Node6</title>
<g id="a_edge5_Node000003_Node000006"><a xlink:title=" ">
<path fill="none" stroke="#63b8ff" d="M97.85,-472.96C101.3,-438.48 114.24,-309.08 119.12,-260.28"/>
<polygon fill="#63b8ff" stroke="#63b8ff" points="122.62,-260.49 120.13,-250.19 115.65,-259.79 122.62,-260.49"/>
</a>
</g>
</g>
<!-- Node7 -->
<g id="Node000007" class="node">
<title>Node7</title>
<g id="a_Node000007"><a xlink:title=" ">
<polygon fill="#e0e0e0" stroke="#999999" points="684.5,-189.5 637.5,-189.5 637.5,-170.5 684.5,-170.5 684.5,-189.5"/>
<text text-anchor="middle" x="661" y="-177.5" font-family="Helvetica,sans-Serif" font-size="10.00">vector</text>
</a>
</g>
</g>
<!-- Node3&#45;&gt;Node7 -->
<g id="edge6_Node000003_Node000007" class="edge">
<title>Node3&#45;&gt;Node7</title>
<g id="a_edge6_Node000003_Node000007"><a xlink:title=" ">
<path fill="none" stroke="#63b8ff" d="M74.66,-472.97C58.59,-465.73 37.6,-453.82 25,-437 5.93,-411.54 6,-399.81 6,-368 6,-368 6,-368 6,-300 6,-254.38 40.19,-249.25 82,-231 180.88,-187.83 518.68,-181.89 627.16,-181.11"/>
<polygon fill="#63b8ff" stroke="#63b8ff" points="627.24,-184.61 637.22,-181.05 627.2,-177.61 627.24,-184.61"/>
</a>
</g>
</g>
<!-- Node8 -->
<g id="Node000008" class="node">
<title>Node8</title>
<g id="a_Node000008"><a xlink:href="Plugin_8hpp.html" target="_top" xlink:title=" ">
<polygon fill="white" stroke="#666666" points="708.5,-437 583.5,-437 583.5,-418 708.5,-418 708.5,-437"/>
<text text-anchor="middle" x="646" y="-425" font-family="Helvetica,sans-Serif" font-size="10.00">../../Objects/Plugin.hpp</text>
</a>
</g>
</g>
<!-- Node3&#45;&gt;Node8 -->
<g id="edge7_Node000003_Node000008" class="edge">
<title>Node3&#45;&gt;Node8</title>
<g id="a_edge7_Node000003_Node000008"><a xlink:title=" ">
<path fill="none" stroke="#63b8ff" d="M185.21,-472.98C292.9,-462.59 473.02,-445.2 573.19,-435.53"/>
<polygon fill="#63b8ff" stroke="#63b8ff" points="573.61,-439.01 583.23,-434.56 572.94,-432.04 573.61,-439.01"/>
</a>
</g>
</g>
<!-- Node9 -->
<g id="Node000009" class="node">
<title>Node9</title>
<g id="a_Node000009"><a xlink:title=" ">
<polygon fill="#e0e0e0" stroke="#999999" points="949.5,-376.5 884.5,-376.5 884.5,-357.5 949.5,-357.5 949.5,-376.5"/>
<text text-anchor="middle" x="917" y="-364.5" font-family="Helvetica,sans-Serif" font-size="10.00">functional</text>
</a>
</g>
</g>
<!-- Node8&#45;&gt;Node9 -->
<g id="edge8_Node000008_Node000009" class="edge">
<title>Node8&#45;&gt;Node9</title>
<g id="a_edge8_Node000008_Node000009"><a xlink:title=" ">
<path fill="none" stroke="#63b8ff" d="M696.12,-417.93C741.71,-409.8 810.73,-396.68 870,-382 873.22,-381.2 876.55,-380.32 879.89,-379.4"/>
<polygon fill="#63b8ff" stroke="#63b8ff" points="881.13,-382.69 889.78,-376.58 879.2,-375.96 881.13,-382.69"/>
</a>
</g>
</g>
<!-- Node10 -->
<g id="Node000010" class="node">
<title>Node10</title>
<g id="a_Node000010"><a xlink:title=" ">
<polygon fill="#e0e0e0" stroke="#999999" points="1047,-189.5 989,-189.5 989,-170.5 1047,-170.5 1047,-189.5"/>
<text text-anchor="middle" x="1018" y="-177.5" font-family="Helvetica,sans-Serif" font-size="10.00">memory</text>
</a>
</g>
</g>
<!-- Node8&#45;&gt;Node10 -->
<g id="edge9_Node000008_Node000010" class="edge">
<title>Node8&#45;&gt;Node10</title>
<g id="a_edge9_Node000008_Node000010"><a xlink:title=" ">
<path fill="none" stroke="#63b8ff" d="M704.83,-417.93C741.42,-411.2 788.8,-399.91 828,-382 839.53,-376.74 912.73,-325.6 921,-316 948.63,-283.92 938.51,-264.8 964,-231 973.93,-217.83 987.58,-205.23 998.67,-195.97"/>
<polygon fill="#63b8ff" stroke="#63b8ff" points="1000.98,-198.6 1006.55,-189.59 996.57,-193.16 1000.98,-198.6"/>
</a>
</g>
</g>
<!-- Node11 -->
<g id="Node000011" class="node">
<title>Node11</title>
<g id="a_Node000011"><a xlink:title=" ">
<polygon fill="#e0e0e0" stroke="#999999" points="339.5,-376.5 288.5,-376.5 288.5,-357.5 339.5,-357.5 339.5,-376.5"/>
<text text-anchor="middle" x="314" y="-364.5" font-family="Helvetica,sans-Serif" font-size="10.00">variant</text>
</a>
</g>
</g>
<!-- Node8&#45;&gt;Node11 -->
<g id="edge10_Node000008_Node000011" class="edge">
<title>Node8&#45;&gt;Node11</title>
<g id="a_edge10_Node000008_Node000011"><a xlink:title=" ">
<path fill="none" stroke="#63b8ff" d="M583.42,-421.37C522.71,-415.41 428.39,-403.51 349,-382 346.84,-381.42 344.64,-380.74 342.44,-380"/>
<polygon fill="#63b8ff" stroke="#63b8ff" points="343.58,-376.69 332.98,-376.52 341.16,-383.26 343.58,-376.69"/>
</a>
</g>
</g>
<!-- Node12 -->
<g id="Node000012" class="node">
<title>Node12</title>
<g id="a_Node000012"><a xlink:title=" ">
<polygon fill="#e0e0e0" stroke="#999999" points="396,-376.5 358,-376.5 358,-357.5 396,-357.5 396,-376.5"/>
<text text-anchor="middle" x="377" y="-364.5" font-family="Helvetica,sans-Serif" font-size="10.00">map</text>
</a>
</g>
</g>
<!-- Node8&#45;&gt;Node12 -->
<g id="edge11_Node000008_Node000012" class="edge">
<title>Node8&#45;&gt;Node12</title>
<g id="a_edge11_Node000008_Node000012"><a xlink:title=" ">
<path fill="none" stroke="#63b8ff" d="M583.38,-419.84C534.01,-413.42 463.9,-401.72 405,-382 403.78,-381.59 402.55,-381.14 401.32,-380.66"/>
<polygon fill="#63b8ff" stroke="#63b8ff" points="402.63,-377.41 392.07,-376.5 399.76,-383.79 402.63,-377.41"/>
</a>
</g>
</g>
<!-- Node13 -->
<g id="Node000013" class="node">
<title>Node13</title>
<g id="a_Node000013"><a xlink:href="ParsingException_8hpp.html" target="_top" xlink:title=" ">
<polygon fill="white" stroke="#666666" points="579.5,-382 414.5,-382 414.5,-352 579.5,-352 579.5,-382"/>
<text text-anchor="start" x="422.5" y="-370" font-family="Helvetica,sans-Serif" font-size="10.00">../Exceptions/ParsingException</text>
<text text-anchor="middle" x="497" y="-359" font-family="Helvetica,sans-Serif" font-size="10.00">/ParsingException.hpp</text>
</a>
</g>
</g>
<!-- Node8&#45;&gt;Node13 -->
<g id="edge12_Node000008_Node000013" class="edge">
<title>Node8&#45;&gt;Node13</title>
<g id="a_edge12_Node000008_Node000013"><a xlink:title=" ">
<path fill="none" stroke="#63b8ff" d="M624.33,-417.99C602.89,-409.57 569.42,-396.43 542.17,-385.73"/>
<polygon fill="#63b8ff" stroke="#63b8ff" points="543.41,-382.46 532.82,-382.06 540.85,-388.98 543.41,-382.46"/>
</a>
</g>
</g>
<!-- Node18 -->
<g id="Node000018" class="node">
<title>Node18</title>
<g id="a_Node000018"><a xlink:href="AInterface_8hpp.html" target="_top" xlink:title=" ">
<polygon fill="white" stroke="#666666" points="790,-382 674,-382 674,-352 790,-352 790,-382"/>
<text text-anchor="start" x="682" y="-370" font-family="Helvetica,sans-Serif" font-size="10.00">Abstracts/AInterface</text>
<text text-anchor="middle" x="732" y="-359" font-family="Helvetica,sans-Serif" font-size="10.00">/AInterface.hpp</text>
</a>
</g>
</g>
<!-- Node8&#45;&gt;Node18 -->
<g id="edge18_Node000008_Node000018" class="edge">
<title>Node8&#45;&gt;Node18</title>
<g id="a_edge18_Node000008_Node000018"><a xlink:title=" ">
<path fill="none" stroke="#63b8ff" d="M658.69,-417.87C670.25,-410 687.76,-398.09 702.77,-387.89"/>
<polygon fill="#63b8ff" stroke="#63b8ff" points="704.95,-390.63 711.25,-382.11 701.01,-384.85 704.95,-390.63"/>
</a>
</g>
</g>
<!-- Node19 -->
<g id="Node000019" class="node">
<title>Node19</title>
<g id="a_Node000019"><a xlink:href="ARenderer_8hpp.html" target="_top" xlink:title=" ">
<polygon fill="white" stroke="#666666" points="765.5,-310.5 614.5,-310.5 614.5,-291.5 765.5,-291.5 765.5,-310.5"/>
<text text-anchor="middle" x="690" y="-298.5" font-family="Helvetica,sans-Serif" font-size="10.00">../ARenderer/ARenderer.hpp</text>
</a>
</g>
</g>
<!-- Node8&#45;&gt;Node19 -->
<g id="edge47_Node000008_Node000019" class="edge">
<title>Node8&#45;&gt;Node19</title>
<g id="a_edge47_Node000008_Node000019"><a xlink:title=" ">
<path fill="none" stroke="#63b8ff" d="M647.63,-417.6C650.36,-403.43 656.42,-375.01 665,-352 669.17,-340.8 675.12,-328.79 680.17,-319.36"/>
<polygon fill="#63b8ff" stroke="#63b8ff" points="683.24,-321.05 684.99,-310.6 677.1,-317.67 683.24,-321.05"/>
</a>
</g>
</g>
<!-- Node22 -->
<g id="Node000022" class="node">
<title>Node22</title>
<g id="a_Node000022"><a xlink:href="APrimitive_8hpp.html" target="_top" xlink:title=" ">
<polygon fill="white" stroke="#666666" points="1274,-382 1158,-382 1158,-352 1274,-352 1274,-382"/>
<text text-anchor="start" x="1166" y="-370" font-family="Helvetica,sans-Serif" font-size="10.00">Abstracts/APrimitive</text>
<text text-anchor="middle" x="1216" y="-359" font-family="Helvetica,sans-Serif" font-size="10.00">/APrimitive.hpp</text>
</a>
</g>
</g>
<!-- Node8&#45;&gt;Node22 -->
<g id="edge23_Node000008_Node000022" class="edge">
<title>Node8&#45;&gt;Node22</title>
<g id="a_edge23_Node000008_Node000022"><a xlink:title=" ">
<path fill="none" stroke="#63b8ff" d="M708.63,-420.07C816.46,-409.01 1036.31,-386.44 1147.85,-374.99"/>
<polygon fill="#63b8ff" stroke="#63b8ff" points="1148.38,-378.46 1157.97,-373.96 1147.66,-371.5 1148.38,-378.46"/>
</a>
</g>
</g>
<!-- Node23 -->
<g id="Node000023" class="node">
<title>Node23</title>
<g id="a_Node000023"><a xlink:href="IMaterial_8hpp.html" target="_top" xlink:title=" ">
<polygon fill="white" stroke="#666666" points="912,-310.5 822,-310.5 822,-291.5 912,-291.5 912,-310.5"/>
<text text-anchor="middle" x="867" y="-298.5" font-family="Helvetica,sans-Serif" font-size="10.00">../IMaterial.hpp</text>
</a>
</g>
</g>
<!-- Node8&#45;&gt;Node23 -->
<g id="edge49_Node000008_Node000023" class="edge">
<title>Node8&#45;&gt;Node23</title>
<g id="a_edge49_Node000008_Node000023"><a xlink:title=" ">
<path fill="none" stroke="#63b8ff" d="M703.85,-417.92C734,-411.49 770.44,-400.5 799,-382 824.02,-365.8 844.82,-337.66 856.58,-319.44"/>
<polygon fill="#63b8ff" stroke="#63b8ff" points="859.56,-321.27 861.88,-310.93 853.62,-317.57 859.56,-321.27"/>
</a>
</g>
</g>
<!-- Node24 -->
<g id="Node000024" class="node">
<title>Node24</title>
<g id="a_Node000024"><a xlink:href="ILight_8hpp.html" target="_top" xlink:title=" ">
<polygon fill="white" stroke="#666666" points="835.5,-250 770.5,-250 770.5,-231 835.5,-231 835.5,-250"/>
<text text-anchor="middle" x="803" y="-238" font-family="Helvetica,sans-Serif" font-size="10.00">ILight.hpp</text>
</a>
</g>
</g>
<!-- Node8&#45;&gt;Node24 -->
<g id="edge48_Node000008_Node000024" class="edge">
<title>Node8&#45;&gt;Node24</title>
<g id="a_edge48_Node000008_Node000024"><a xlink:title=" ">
<path fill="none" stroke="#63b8ff" d="M638.73,-417.89C619.68,-394.23 571.98,-327.27 605,-286 624.09,-262.14 708.19,-250.19 760.46,-244.96"/>
<polygon fill="#63b8ff" stroke="#63b8ff" points="760.84,-248.44 770.46,-244 760.17,-241.47 760.84,-248.44"/>
</a>
</g>
</g>
<!-- Node13&#45;&gt;Node14 -->
<g id="edge13_Node000013_Node000014" class="edge">
<title>Node13&#45;&gt;Node14</title>
<g id="a_edge13_Node000013_Node000014"><a xlink:title=" ">
<path fill="none" stroke="#63b8ff" d="M457.72,-351.95C431.02,-342.41 395.51,-329.71 366.97,-319.51"/>
<polygon fill="#63b8ff" stroke="#63b8ff" points="367.79,-316.08 357.19,-316.01 365.43,-322.67 367.79,-316.08"/>
</a>
</g>
</g>
<!-- Node14&#45;&gt;Node6 -->
<g id="edge15_Node000014_Node000006" class="edge">
<title>Node14&#45;&gt;Node6</title>
<g id="a_edge15_Node000014_Node000006"><a xlink:title=" ">
<path fill="none" stroke="#63b8ff" d="M270.81,-285.99C236.82,-275.89 191.5,-262.44 159.64,-252.98"/>
<polygon fill="#63b8ff" stroke="#63b8ff" points="160.39,-249.55 149.8,-250.05 158.39,-256.26 160.39,-249.55"/>
</a>
</g>
</g>
<!-- Node15 -->
<g id="Node000015" class="node">
<title>Node15</title>
<g id="a_Node000015"><a xlink:title=" ">
<polygon fill="#e0e0e0" stroke="#999999" points="388.5,-250 323.5,-250 323.5,-231 388.5,-231 388.5,-250"/>
<text text-anchor="middle" x="356" y="-238" font-family="Helvetica,sans-Serif" font-size="10.00">exception</text>
</a>
</g>
</g>
<!-- Node14&#45;&gt;Node15 -->
<g id="edge14_Node000014_Node000015" class="edge">
<title>Node14&#45;&gt;Node15</title>
<g id="a_edge14_Node000014_Node000015"><a xlink:title=" ">
<path fill="none" stroke="#63b8ff" d="M327.2,-285.84C332.49,-277.69 339.18,-267.4 344.78,-258.78"/>
<polygon fill="#63b8ff" stroke="#63b8ff" points="347.79,-260.56 350.31,-250.27 341.92,-256.75 347.79,-260.56"/>
</a>
</g>
</g>
<!-- Node16 -->
<g id="Node000016" class="node">
<title>Node16</title>
<g id="a_Node000016"><a xlink:title=" ">
<polygon fill="#e0e0e0" stroke="#999999" points="451,-250 407,-250 407,-231 451,-231 451,-250"/>
<text text-anchor="middle" x="429" y="-238" font-family="Helvetica,sans-Serif" font-size="10.00">string</text>
</a>
</g>
</g>
<!-- Node14&#45;&gt;Node16 -->
<g id="edge16_Node000014_Node000016" class="edge">
<title>Node14&#45;&gt;Node16</title>
<g id="a_edge16_Node000014_Node000016"><a xlink:title=" ">
<path fill="none" stroke="#63b8ff" d="M344.59,-285.99C362.45,-276.58 385.84,-264.24 403.48,-254.95"/>
<polygon fill="#63b8ff" stroke="#63b8ff" points="405.39,-257.9 412.61,-250.14 402.13,-251.71 405.39,-257.9"/>
</a>
</g>
</g>
<!-- Node17 -->
<g id="Node000017" class="node">
<title>Node17</title>
<g id="a_Node000017"><a xlink:title=" ">
<polygon fill="#e0e0e0" stroke="#999999" points="305.5,-250 212.5,-250 212.5,-231 305.5,-231 305.5,-250"/>
<text text-anchor="middle" x="259" y="-238" font-family="Helvetica,sans-Serif" font-size="10.00">source_location</text>
</a>
</g>
</g>
<!-- Node14&#45;&gt;Node17 -->
<g id="edge17_Node000014_Node000017" class="edge">
<title>Node14&#45;&gt;Node17</title>
<g id="a_edge17_Node000014_Node000017"><a xlink:title=" ">
<path fill="none" stroke="#63b8ff" d="M303.72,-285.84C295.07,-277.26 284.01,-266.3 275.06,-257.42"/>
<polygon fill="#63b8ff" stroke="#63b8ff" points="277.41,-254.82 267.84,-250.27 272.48,-259.79 277.41,-254.82"/>
</a>
</g>
</g>
<!-- Node18&#45;&gt;Node19 -->
<g id="edge19_Node000018_Node000019" class="edge">
<title>Node18&#45;&gt;Node19</title>
<g id="a_edge19_Node000018_Node000019"><a xlink:title=" ">
<path fill="none" stroke="#63b8ff" d="M722.68,-351.8C716.39,-342.21 708.05,-329.5 701.37,-319.32"/>
<polygon fill="#63b8ff" stroke="#63b8ff" points="704.22,-317.28 695.8,-310.84 698.36,-321.13 704.22,-317.28"/>
</a>
</g>
</g>
<!-- Node19&#45;&gt;Node7 -->
<g id="edge22_Node000019_Node000007" class="edge">
<title>Node19&#45;&gt;Node7</title>
<g id="a_edge22_Node000019_Node000007"><a xlink:title=" ">
<path fill="none" stroke="#63b8ff" d="M687.91,-291.44C683.26,-272.32 671.91,-225.77 665.54,-199.62"/>
<polygon fill="#63b8ff" stroke="#63b8ff" points="668.91,-198.69 663.14,-189.8 662.11,-200.35 668.91,-198.69"/>
</a>
</g>
</g>
<!-- Node20 -->
<g id="Node000020" class="node">
<title>Node20</title>
<g id="a_Node000020"><a xlink:href="Color_8hpp.html" target="_top" xlink:title=" ">
<polygon fill="white" stroke="#666666" points="970.5,-189.5 855.5,-189.5 855.5,-170.5 970.5,-170.5 970.5,-189.5"/>
<text text-anchor="middle" x="913" y="-177.5" font-family="Helvetica,sans-Serif" font-size="10.00">../../../Utils/Color.hpp</text>
</a>
</g>
</g>
<!-- Node19&#45;&gt;Node20 -->
<g id="edge20_Node000019_Node000020" class="edge">
<title>Node19&#45;&gt;Node20</title>
<g id="a_edge20_Node000019_Node000020"><a xlink:title=" ">
<path fill="none" stroke="#63b8ff" d="M735.19,-291.46C767.49,-283.96 811.06,-270.92 845,-250 867.5,-236.13 888,-213.29 900.48,-197.71"/>
<polygon fill="#63b8ff" stroke="#63b8ff" points="903.48,-199.55 906.85,-189.51 897.95,-195.26 903.48,-199.55"/>
</a>
</g>
</g>
<!-- Node21 -->
<g id="Node000021" class="node">
<title>Node21</title>
<g id="a_Node000021"><a xlink:title=" ">
<polygon fill="#e0e0e0" stroke="#999999" points="1465,-129 1401,-129 1401,-110 1465,-110 1465,-129"/>
<text text-anchor="middle" x="1433" y="-117" font-family="Helvetica,sans-Serif" font-size="10.00">algorithm</text>
</a>
</g>
</g>
<!-- Node20&#45;&gt;Node21 -->
<g id="edge21_Node000020_Node000021" class="edge">
<title>Node20&#45;&gt;Node21</title>
<g id="a_edge21_Node000020_Node000021"><a xlink:title=" ">
<path fill="none" stroke="#63b8ff" d="M950.43,-170.43C960.03,-168.44 970.37,-166.47 980,-165 1058.66,-152.95 1293.95,-132.32 1390.72,-124.06"/>
<polygon fill="#63b8ff" stroke="#63b8ff" points="1391.07,-127.55 1400.73,-123.21 1390.47,-120.57 1391.07,-127.55"/>
</a>
</g>
</g>
<!-- Node22&#45;&gt;Node10 -->
<g id="edge36_Node000022_Node000010" class="edge">
<title>Node22&#45;&gt;Node10</title>
<g id="a_edge36_Node000022_Node000010"><a xlink:title=" ">
<path fill="none" stroke="#63b8ff" d="M1200.79,-351.79C1164.42,-317.81 1072.64,-232.05 1034.75,-196.65"/>
<polygon fill="#63b8ff" stroke="#63b8ff" points="1036.82,-193.8 1027.13,-189.53 1032.05,-198.91 1036.82,-193.8"/>
</a>
</g>
</g>
<!-- Node22&#45;&gt;Node23 -->
<g id="edge24_Node000022_Node000023" class="edge">
<title>Node22&#45;&gt;Node23</title>
<g id="a_edge24_Node000022_Node000023"><a xlink:title=" ">
<path fill="none" stroke="#63b8ff" d="M1157.98,-355.36C1092.39,-343.33 986.39,-323.89 922.05,-312.1"/>
<polygon fill="#63b8ff" stroke="#63b8ff" points="922.56,-308.63 912.1,-310.27 921.3,-315.52 922.56,-308.63"/>
</a>
</g>
</g>
<!-- Node29 -->
<g id="Node000029" class="node">
<title>Node29</title>
<g id="a_Node000029"><a xlink:title=" ">
<polygon fill="#e0e0e0" stroke="#999999" points="1121,-310.5 1065,-310.5 1065,-291.5 1121,-291.5 1121,-310.5"/>
<text text-anchor="middle" x="1093" y="-298.5" font-family="Helvetica,sans-Serif" font-size="10.00">optional</text>
</a>
</g>
</g>
<!-- Node22&#45;&gt;Node29 -->
<g id="edge37_Node000022_Node000029" class="edge">
<title>Node22&#45;&gt;Node29</title>
<g id="a_edge37_Node000022_Node000029"><a xlink:title=" ">
<path fill="none" stroke="#63b8ff" d="M1189.01,-351.95C1168.01,-341.03 1139.07,-325.97 1118.47,-315.25"/>
<polygon fill="#63b8ff" stroke="#63b8ff" points="1119.86,-312.03 1109.37,-310.52 1116.62,-318.24 1119.86,-312.03"/>
</a>
</g>
</g>
<!-- Node30 -->
<g id="Node000030" class="node">
<title>Node30</title>
<g id="a_Node000030"><a xlink:href="AABB_8hpp.html" target="_top" xlink:title=" ">
<polygon fill="white" stroke="#666666" points="1450,-316 1328,-316 1328,-286 1450,-286 1450,-316"/>
<text text-anchor="start" x="1336" y="-304" font-family="Helvetica,sans-Serif" font-size="10.00">../../../Geometry/AABB</text>
<text text-anchor="middle" x="1389" y="-293" font-family="Helvetica,sans-Serif" font-size="10.00">/AABB.hpp</text>
</a>
</g>
</g>
<!-- Node22&#45;&gt;Node30 -->
<g id="edge38_Node000022_Node000030" class="edge">
<title>Node22&#45;&gt;Node30</title>
<g id="a_edge38_Node000022_Node000030"><a xlink:title=" ">
<path fill="none" stroke="#63b8ff" d="M1253.97,-351.95C1279.77,-342.41 1314.09,-329.71 1341.67,-319.51"/>
<polygon fill="#63b8ff" stroke="#63b8ff" points="1342.96,-322.76 1351.12,-316.01 1340.53,-316.2 1342.96,-322.76"/>
</a>
</g>
</g>
<!-- Node33 -->
<g id="Node000033" class="node">
<title>Node33</title>
<g id="a_Node000033"><a xlink:href="Ray_8hpp.html" target="_top" xlink:title="Ray primitive used to represent a parametric line (origin + direction).">
<polygon fill="white" stroke="#666666" points="1301,-250 1215,-250 1215,-231 1301,-231 1301,-250"/>
<text text-anchor="middle" x="1258" y="-238" font-family="Helvetica,sans-Serif" font-size="10.00">../Ray/Ray.hpp</text>
</a>
</g>
</g>
<!-- Node22&#45;&gt;Node33 -->
<g id="edge46_Node000022_Node000033" class="edge">
<title>Node22&#45;&gt;Node33</title>
<g id="a_edge46_Node000022_Node000033"><a xlink:title=" ">
<path fill="none" stroke="#63b8ff" d="M1220.82,-351.72C1228.48,-329.02 1243.42,-284.72 1251.84,-259.75"/>
<polygon fill="#63b8ff" stroke="#63b8ff" points="1255.23,-260.66 1255.11,-250.07 1248.6,-258.43 1255.23,-260.66"/>
</a>
</g>
</g>
<!-- Node23&#45;&gt;Node7 -->
<g id="edge35_Node000023_Node000007" class="edge">
<title>Node23&#45;&gt;Node7</title>
<g id="a_edge35_Node000023_Node000007"><a xlink:title=" ">
<path fill="none" stroke="#63b8ff" d="M846.79,-291.49C825.3,-282.19 790.53,-266.41 762,-250 732.63,-233.11 700.63,-210.47 680.69,-195.81"/>
<polygon fill="#63b8ff" stroke="#63b8ff" points="682.55,-192.83 672.44,-189.68 678.38,-198.45 682.55,-192.83"/>
</a>
</g>
</g>
<!-- Node23&#45;&gt;Node20 -->
<g id="edge25_Node000023_Node000020" class="edge">
<title>Node23&#45;&gt;Node20</title>
<g id="a_edge25_Node000023_Node000020"><a xlink:title=" ">
<path fill="none" stroke="#63b8ff" d="M870.31,-291.44C877.73,-272.24 895.85,-225.36 905.94,-199.27"/>
<polygon fill="#63b8ff" stroke="#63b8ff" points="909.26,-200.39 909.6,-189.8 902.73,-197.87 909.26,-200.39"/>
</a>
</g>
</g>
<!-- Node23&#45;&gt;Node24 -->
<g id="edge26_Node000023_Node000024" class="edge">
<title>Node23&#45;&gt;Node24</title>
<g id="a_edge26_Node000023_Node000024"><a xlink:title=" ">
<path fill="none" stroke="#63b8ff" d="M857.56,-291.37C847.73,-282.38 832.11,-268.11 820.11,-257.14"/>
<polygon fill="#63b8ff" stroke="#63b8ff" points="822.22,-254.33 812.48,-250.17 817.5,-259.5 822.22,-254.33"/>
</a>
</g>
</g>
<!-- Node24&#45;&gt;Node7 -->
<g id="edge33_Node000024_Node000007" class="edge">
<title>Node24&#45;&gt;Node7</title>
<g id="a_edge33_Node000024_Node000007"><a xlink:title=" ">
<path fill="none" stroke="#63b8ff" d="M781.66,-230.89C759.66,-221.99 724.38,-207.65 694,-195 692.84,-194.52 691.65,-194.02 690.45,-193.52"/>
<polygon fill="#63b8ff" stroke="#63b8ff" points="691.8,-190.29 681.23,-189.63 689.08,-196.74 691.8,-190.29"/>
</a>
</g>
</g>
<!-- Node24&#45;&gt;Node10 -->
<g id="edge34_Node000024_Node000010" class="edge">
<title>Node24&#45;&gt;Node10</title>
<g id="a_edge34_Node000024_Node000010"><a xlink:title=" ">
<path fill="none" stroke="#63b8ff" d="M835.59,-232.41C871.32,-224.37 930.2,-210.39 980,-195 982.13,-194.34 984.31,-193.63 986.51,-192.89"/>
<polygon fill="#63b8ff" stroke="#63b8ff" points="987.76,-196.16 996.03,-189.55 985.44,-189.56 987.76,-196.16"/>
</a>
</g>
</g>
<!-- Node24&#45;&gt;Node20 -->
<g id="edge32_Node000024_Node000020" class="edge">
<title>Node24&#45;&gt;Node20</title>
<g id="a_edge32_Node000024_Node000020"><a xlink:title=" ">
<path fill="none" stroke="#63b8ff" d="M819.23,-230.87C837.27,-221.28 866.62,-205.67 887.68,-194.47"/>
<polygon fill="#63b8ff" stroke="#63b8ff" points="889.52,-197.45 896.7,-189.67 886.23,-191.27 889.52,-197.45"/>
</a>
</g>
</g>
<!-- Node25 -->
<g id="Node000025" class="node">
<title>Node25</title>
<g id="a_Node000025"><a xlink:href="HitRecord_8hpp.html" target="_top" xlink:title=" ">
<polygon fill="white" stroke="#666666" points="837,-195 703,-195 703,-165 837,-165 837,-195"/>
<text text-anchor="start" x="711" y="-183" font-family="Helvetica,sans-Serif" font-size="10.00">../../Geometry/HitRecord</text>
<text text-anchor="middle" x="770" y="-172" font-family="Helvetica,sans-Serif" font-size="10.00">/HitRecord.hpp</text>
</a>
</g>
</g>
<!-- Node24&#45;&gt;Node25 -->
<g id="edge27_Node000024_Node000025" class="edge">
<title>Node24&#45;&gt;Node25</title>
<g id="a_edge27_Node000024_Node000025"><a xlink:title=" ">
<path fill="none" stroke="#63b8ff" d="M798.13,-230.87C794.15,-223.81 788.33,-213.5 783.02,-204.08"/>
<polygon fill="#63b8ff" stroke="#63b8ff" points="785.92,-202.1 777.96,-195.11 779.83,-205.54 785.92,-202.1"/>
</a>
</g>
</g>
<!-- Node26 -->
<g id="Node000026" class="node">
<title>Node26</title>
<g id="a_Node000026"><a xlink:href="Point3D_8hpp.html" target="_top" xlink:title=" ">
<polygon fill="white" stroke="#666666" points="1321,-129 1195,-129 1195,-110 1321,-110 1321,-129"/>
<text text-anchor="middle" x="1258" y="-117" font-family="Helvetica,sans-Serif" font-size="10.00">../Point3D/Point3D.hpp</text>
</a>
</g>
</g>
<!-- Node25&#45;&gt;Node26 -->
<g id="edge28_Node000025_Node000026" class="edge">
<title>Node25&#45;&gt;Node26</title>
<g id="a_edge28_Node000025_Node000026"><a xlink:title=" ">
<path fill="none" stroke="#63b8ff" d="M837.15,-166.5C840.47,-165.97 843.77,-165.47 847,-165 964.79,-147.94 1102.44,-134.31 1184.79,-126.82"/>
<polygon fill="#63b8ff" stroke="#63b8ff" points="1185.16,-130.3 1194.81,-125.92 1184.53,-123.33 1185.16,-130.3"/>
</a>
</g>
</g>
<!-- Node27 -->
<g id="Node000027" class="node">
<title>Node27</title>
<g id="a_Node000027"><a xlink:href="Vector3D_8hpp.html" target="_top" xlink:title=" ">
<polygon fill="white" stroke="#666666" points="1327,-74 1189,-74 1189,-55 1327,-55 1327,-74"/>
<text text-anchor="middle" x="1258" y="-62" font-family="Helvetica,sans-Serif" font-size="10.00">../Vector3D/Vector3D.hpp</text>
</a>
</g>
</g>
<!-- Node25&#45;&gt;Node27 -->
<g id="edge31_Node000025_Node000027" class="edge">
<title>Node25&#45;&gt;Node27</title>
<g id="a_edge31_Node000025_Node000027"><a xlink:title=" ">
<path fill="none" stroke="#63b8ff" d="M830.33,-164.97C928.91,-142.04 1122.45,-97.03 1211.34,-76.35"/>
<polygon fill="#63b8ff" stroke="#63b8ff" points="1212.2,-79.75 1221.14,-74.07 1210.61,-72.93 1212.2,-79.75"/>
</a>
</g>
</g>
<!-- Node26&#45;&gt;Node27 -->
<g id="edge29_Node000026_Node000027" class="edge">
<title>Node26&#45;&gt;Node27</title>
<g id="a_edge29_Node000026_Node000027"><a xlink:title=" ">
<path fill="none" stroke="#63b8ff" d="M1258,-109.75C1258,-102.8 1258,-92.85 1258,-84.13"/>
<polygon fill="#63b8ff" stroke="#63b8ff" points="1261.5,-84.09 1258,-74.09 1254.5,-84.09 1261.5,-84.09"/>
</a>
</g>
</g>
<!-- Node28 -->
<g id="Node000028" class="node">
<title>Node28</title>
<g id="a_Node000028"><a xlink:title=" ">
<polygon fill="#e0e0e0" stroke="#999999" points="1283.5,-19 1232.5,-19 1232.5,0 1283.5,0 1283.5,-19"/>
<text text-anchor="middle" x="1258" y="-7" font-family="Helvetica,sans-Serif" font-size="10.00">math.h</text>
</a>
</g>
</g>
<!-- Node27&#45;&gt;Node28 -->
<g id="edge30_Node000027_Node000028" class="edge">
<title>Node27&#45;&gt;Node28</title>
<g id="a_edge30_Node000027_Node000028"><a xlink:title=" ">
<path fill="none" stroke="#63b8ff" d="M1258,-54.75C1258,-47.8 1258,-37.85 1258,-29.13"/>
<polygon fill="#63b8ff" stroke="#63b8ff" points="1261.5,-29.09 1258,-19.09 1254.5,-29.09 1261.5,-29.09"/>
</a>
</g>
</g>
<!-- Node30&#45;&gt;Node21 -->
<g id="edge39_Node000030_Node000021" class="edge">
<title>Node30&#45;&gt;Node21</title>
<g id="a_edge39_Node000030_Node000021"><a xlink:title=" ">
<path fill="none" stroke="#63b8ff" d="M1397.72,-285.64C1403.23,-275.92 1410.04,-262.59 1414,-250 1426,-211.84 1430.48,-164.93 1432.11,-139.34"/>
<polygon fill="#63b8ff" stroke="#63b8ff" points="1435.61,-139.37 1432.67,-129.2 1428.62,-138.99 1435.61,-139.37"/>
</a>
</g>
</g>
<!-- Node30&#45;&gt;Node26 -->
<g id="edge42_Node000030_Node000026" class="edge">
<title>Node30&#45;&gt;Node26</title>
<g id="a_edge42_Node000030_Node000026"><a xlink:title=" ">
<path fill="none" stroke="#63b8ff" d="M1377.21,-285.75C1369.11,-275.84 1358.21,-262.27 1349,-250 1319.32,-210.43 1286.39,-162.48 1269.45,-137.5"/>
<polygon fill="#63b8ff" stroke="#63b8ff" points="1272.28,-135.44 1263.78,-129.12 1266.48,-139.36 1272.28,-135.44"/>
</a>
</g>
</g>
<!-- Node31 -->
<g id="Node000031" class="node">
<title>Node31</title>
<g id="a_Node000031"><a xlink:title=" ">
<polygon fill="#e0e0e0" stroke="#999999" points="1404.5,-250 1357.5,-250 1357.5,-231 1404.5,-231 1404.5,-250"/>
<text text-anchor="middle" x="1381" y="-238" font-family="Helvetica,sans-Serif" font-size="10.00">cmath</text>
</a>
</g>
</g>
<!-- Node30&#45;&gt;Node31 -->
<g id="edge40_Node000030_Node000031" class="edge">
<title>Node30&#45;&gt;Node31</title>
<g id="a_edge40_Node000030_Node000031"><a xlink:title=" ">
<path fill="none" stroke="#63b8ff" d="M1387.06,-285.84C1386.02,-278.21 1384.72,-268.7 1383.59,-260.45"/>
<polygon fill="#63b8ff" stroke="#63b8ff" points="1387.02,-259.7 1382.2,-250.27 1380.09,-260.65 1387.02,-259.7"/>
</a>
</g>
</g>
<!-- Node32 -->
<g id="Node000032" class="node">
<title>Node32</title>
<g id="a_Node000032"><a xlink:title=" ">
<polygon fill="#e0e0e0" stroke="#999999" points="1505,-250 1461,-250 1461,-231 1505,-231 1505,-250"/>
<text text-anchor="middle" x="1483" y="-238" font-family="Helvetica,sans-Serif" font-size="10.00">limits</text>
</a>
</g>
</g>
<!-- Node30&#45;&gt;Node32 -->
<g id="edge41_Node000030_Node000032" class="edge">
<title>Node30&#45;&gt;Node32</title>
<g id="a_edge41_Node000030_Node000032"><a xlink:title=" ">
<path fill="none" stroke="#63b8ff" d="M1411.75,-285.84C1426.6,-276.6 1445.9,-264.59 1460.66,-255.4"/>
<polygon fill="#63b8ff" stroke="#63b8ff" points="1462.55,-258.35 1469.19,-250.09 1458.85,-252.41 1462.55,-258.35"/>
</a>
</g>
</g>
<!-- Node30&#45;&gt;Node33 -->
<g id="edge43_Node000030_Node000033" class="edge">
<title>Node30&#45;&gt;Node33</title>
<g id="a_edge43_Node000030_Node000033"><a xlink:title=" ">
<path fill="none" stroke="#63b8ff" d="M1357.62,-285.99C1336.06,-276.36 1307.65,-263.67 1286.69,-254.31"/>
<polygon fill="#63b8ff" stroke="#63b8ff" points="1287.9,-251.02 1277.35,-250.14 1285.05,-257.41 1287.9,-251.02"/>
</a>
</g>
</g>
<!-- Node33&#45;&gt;Node26 -->
<g id="edge44_Node000033_Node000026" class="edge">
<title>Node33&#45;&gt;Node26</title>
<g id="a_edge44_Node000033_Node000026"><a xlink:title=" ">
<path fill="none" stroke="#63b8ff" d="M1258,-230.94C1258,-211.91 1258,-165.69 1258,-139.47"/>
<polygon fill="#63b8ff" stroke="#63b8ff" points="1261.5,-139.3 1258,-129.3 1254.5,-139.3 1261.5,-139.3"/>
</a>
</g>
</g>
<!-- Node33&#45;&gt;Node27 -->
<g id="edge45_Node000033_Node000027" class="edge">
<title>Node33&#45;&gt;Node27</title>
<g id="a_edge45_Node000033_Node000027"><a xlink:title=" ">
<path fill="none" stroke="#63b8ff" d="M1266.15,-230.96C1282.17,-213.51 1317.29,-171.8 1330,-129 1332.4,-120.91 1334.11,-117.38 1330,-110 1321.96,-95.58 1307.1,-85.24 1292.96,-78.18"/>
<polygon fill="#63b8ff" stroke="#63b8ff" points="1294.4,-74.99 1283.85,-74.01 1291.49,-81.36 1294.4,-74.99"/>
</a>
</g>
</g>
<!-- Node34&#45;&gt;Node7 -->
<g id="edge54_Node000034_Node000007" class="edge">
<title>Node34&#45;&gt;Node7</title>
<g id="a_edge54_Node000034_Node000007"><a xlink:title=" ">
<path fill="none" stroke="#63b8ff" d="M396.49,-472.96C371.56,-466.28 340.26,-455.03 317,-437 234.29,-372.9 133.14,-308.9 203,-231 231.24,-199.51 525.55,-185.92 626.91,-182.15"/>
<polygon fill="#63b8ff" stroke="#63b8ff" points="627.34,-185.64 637.2,-181.78 627.08,-178.64 627.34,-185.64"/>
</a>
</g>
</g>
<!-- Node34&#45;&gt;Node8 -->
<g id="edge56_Node000034_Node000008" class="edge">
<title>Node34&#45;&gt;Node8</title>
<g id="a_edge56_Node000034_Node000008"><a xlink:title=" ">
<path fill="none" stroke="#63b8ff" d="M471.42,-472.98C506.94,-463.93 563.27,-449.58 602.3,-439.64"/>
<polygon fill="#63b8ff" stroke="#63b8ff" points="603.49,-442.94 612.32,-437.08 601.76,-436.16 603.49,-442.94"/>
</a>
</g>
</g>
<!-- Node34&#45;&gt;Node10 -->
<g id="edge55_Node000034_Node000010" class="edge">
<title>Node34&#45;&gt;Node10</title>
<g id="a_edge55_Node000034_Node000010"><a xlink:title=" ">
<path fill="none" stroke="#63b8ff" d="M508.04,-481.28C654.15,-478.91 978,-462.96 978,-368 978,-368 978,-368 978,-300 978,-262.39 996.18,-221.41 1008.02,-198.69"/>
<polygon fill="#63b8ff" stroke="#63b8ff" points="1011.25,-200.08 1012.93,-189.62 1005.1,-196.75 1011.25,-200.08"/>
</a>
</g>
</g>
<!-- Node34&#45;&gt;Node11 -->
<g id="edge52_Node000034_Node000011" class="edge">
<title>Node34&#45;&gt;Node11</title>
<g id="a_edge52_Node000034_Node000011"><a xlink:title=" ">
<path fill="none" stroke="#63b8ff" d="M437.41,-472.64C436.07,-459.29 431.77,-433.9 418,-418 412.67,-411.84 372.14,-393.33 343.29,-380.65"/>
<polygon fill="#63b8ff" stroke="#63b8ff" points="344.59,-377.39 334.02,-376.6 341.78,-383.81 344.59,-377.39"/>
</a>
</g>
</g>
<!-- Node34&#45;&gt;Node12 -->
<g id="edge53_Node000034_Node000012" class="edge">
<title>Node34&#45;&gt;Node12</title>
<g id="a_edge53_Node000034_Node000012"><a xlink:title=" ">
<path fill="none" stroke="#63b8ff" d="M443.5,-472.77C450.77,-460.03 461.59,-435.92 452,-418 446.49,-407.7 421.88,-392.4 402.33,-381.44"/>
<polygon fill="#63b8ff" stroke="#63b8ff" points="403.97,-378.35 393.53,-376.6 400.6,-384.48 403.97,-378.35"/>
</a>
</g>
</g>
<!-- Node35 -->
<g id="Node000035" class="node">
<title>Node35</title>
<g id="a_Node000035"><a xlink:title=" ">
<polygon fill="#e0e0e0" stroke="#999999" points="409.5,-437 326.5,-437 326.5,-418 409.5,-418 409.5,-437"/>
<text text-anchor="middle" x="368" y="-425" font-family="Helvetica,sans-Serif" font-size="10.00">libconfig.h++</text>
</a>
</g>
</g>
<!-- Node34&#45;&gt;Node35 -->
<g id="edge51_Node000034_Node000035" class="edge">
<title>Node34&#45;&gt;Node35</title>
<g id="a_edge51_Node000034_Node000035"><a xlink:title=" ">
<path fill="none" stroke="#63b8ff" d="M426.75,-472.98C416.2,-465 400.2,-452.88 387.56,-443.31"/>
<polygon fill="#63b8ff" stroke="#63b8ff" points="389.54,-440.42 379.45,-437.17 385.31,-446 389.54,-440.42"/>
</a>
</g>
</g>
<!-- Node36&#45;&gt;Node3 -->
<g id="edge59_Node000036_Node000003" class="edge">
<title>Node36&#45;&gt;Node3</title>
<g id="a_edge59_Node000036_Node000003"><a xlink:title=" ">
<path fill="none" stroke="#63b8ff" d="M862.88,-533C729.19,-524.36 381.35,-501.88 204.14,-490.43"/>
<polygon fill="#63b8ff" stroke="#63b8ff" points="204.22,-486.92 194.02,-489.77 203.77,-493.91 204.22,-486.92"/>
</a>
</g>
</g>
<!-- Node36&#45;&gt;Node7 -->
<g id="edge69_Node000036_Node000007" class="edge">
<title>Node36&#45;&gt;Node7</title>
<g id="a_edge69_Node000036_Node000007"><a xlink:title=" ">
<path fill="none" stroke="#63b8ff" d="M862.67,-534.67C731.01,-529.9 402.52,-515.72 359,-492 305.92,-463.07 297,-439.71 279,-382 275.03,-369.27 271.09,-362.73 279,-352 311.02,-308.54 344.98,-336.29 395,-316 487.74,-278.39 592.05,-220.63 637.61,-194.58"/>
<polygon fill="#63b8ff" stroke="#63b8ff" points="639.49,-197.53 646.41,-189.52 636,-191.46 639.49,-197.53"/>
</a>
</g>
</g>
<!-- Node36&#45;&gt;Node8 -->
<g id="edge58_Node000036_Node000008" class="edge">
<title>Node36&#45;&gt;Node8</title>
<g id="a_edge58_Node000036_Node000008"><a xlink:title=" ">
<path fill="none" stroke="#63b8ff" d="M895.28,-527.84C847.29,-508.72 732.12,-462.82 676.75,-440.75"/>
<polygon fill="#63b8ff" stroke="#63b8ff" points="678.03,-437.5 667.45,-437.05 675.44,-444 678.03,-437.5"/>
</a>
</g>
</g>
<!-- Node36&#45;&gt;Node9 -->
<g id="edge72_Node000036_Node000009" class="edge">
<title>Node36&#45;&gt;Node9</title>
<g id="a_edge72_Node000036_Node000009"><a xlink:title=" ">
<path fill="none" stroke="#63b8ff" d="M917,-527.91C917,-501.89 917,-423.47 917,-387.01"/>
<polygon fill="#63b8ff" stroke="#63b8ff" points="920.5,-386.77 917,-376.77 913.5,-386.77 920.5,-386.77"/>
</a>
</g>
</g>
<!-- Node36&#45;&gt;Node10 -->
<g id="edge70_Node000036_Node000010" class="edge">
<title>Node36&#45;&gt;Node10</title>
<g id="a_edge70_Node000036_Node000010"><a xlink:title=" ">
<path fill="none" stroke="#63b8ff" d="M934.24,-527.81C962.61,-512.15 1016,-476.32 1016,-428.5 1016,-428.5 1016,-428.5 1016,-300 1016,-264.65 1016.89,-223.4 1017.49,-199.92"/>
<polygon fill="#63b8ff" stroke="#63b8ff" points="1020.99,-199.75 1017.75,-189.66 1013.99,-199.56 1020.99,-199.75"/>
</a>
</g>
</g>
<!-- Node36&#45;&gt;Node29 -->
<g id="edge71_Node000036_Node000029" class="edge">
<title>Node36&#45;&gt;Node29</title>
<g id="a_edge71_Node000036_Node000029"><a xlink:title=" ">
<path fill="none" stroke="#63b8ff" d="M963.22,-527.96C986.04,-521.57 1012.39,-510.61 1030,-492 1076.55,-442.82 1088.73,-358.44 1091.9,-320.93"/>
<polygon fill="#63b8ff" stroke="#63b8ff" points="1095.4,-321.11 1092.62,-310.88 1088.41,-320.61 1095.4,-321.11"/>
</a>
</g>
</g>
<!-- Node36&#45;&gt;Node33 -->
<g id="edge68_Node000036_Node000033" class="edge">
<title>Node36&#45;&gt;Node33</title>
<g id="a_edge68_Node000036_Node000033"><a xlink:title=" ">
<path fill="none" stroke="#63b8ff" d="M971.2,-530.22C1066.03,-518 1255.8,-487.71 1296,-437 1338.59,-383.28 1292.41,-295.49 1269.42,-258.64"/>
<polygon fill="#63b8ff" stroke="#63b8ff" points="1272.24,-256.56 1263.89,-250.04 1266.35,-260.35 1272.24,-256.56"/>
</a>
</g>
</g>
<!-- Node37 -->
<g id="Node000037" class="node">
<title>Node37</title>
<g id="a_Node000037"><a xlink:href="BVH_8hpp.html" target="_top" xlink:title=" ">
<polygon fill="white" stroke="#666666" points="1287,-437 1195,-437 1195,-418 1287,-418 1287,-437"/>
<text text-anchor="middle" x="1241" y="-425" font-family="Helvetica,sans-Serif" font-size="10.00">../BVH/BVH.hpp</text>
</a>
</g>
</g>
<!-- Node36&#45;&gt;Node37 -->
<g id="edge60_Node000036_Node000037" class="edge">
<title>Node36&#45;&gt;Node37</title>
<g id="a_edge60_Node000036_Node000037"><a xlink:title=" ">
<path fill="none" stroke="#63b8ff" d="M948.13,-527.97C978.79,-519.41 1026.87,-505.59 1068,-492 1117.91,-475.51 1175,-454.03 1209.51,-440.76"/>
<polygon fill="#63b8ff" stroke="#63b8ff" points="1210.97,-443.95 1219.04,-437.08 1208.45,-437.42 1210.97,-443.95"/>
</a>
</g>
</g>
<!-- Node37&#45;&gt;Node7 -->
<g id="edge65_Node000037_Node000007" class="edge">
<title>Node37&#45;&gt;Node7</title>
<g id="a_edge65_Node000037_Node000007"><a xlink:title=" ">
<path fill="none" stroke="#63b8ff" d="M1209.33,-417.95C1157.19,-403.92 1050.01,-375.24 959,-352 894.25,-335.46 873.03,-345.37 813,-316 793.67,-306.54 791.92,-299.3 775,-286 754.59,-269.96 748.37,-267.28 729,-250 709.9,-232.97 689.49,-211.81 676.07,-197.45"/>
<polygon fill="#63b8ff" stroke="#63b8ff" points="678.4,-194.81 669.03,-189.86 673.26,-199.57 678.4,-194.81"/>
</a>
</g>
</g>
<!-- Node37&#45;&gt;Node10 -->
<g id="edge63_Node000037_Node000010" class="edge">
<title>Node37&#45;&gt;Node10</title>
<g id="a_edge63_Node000037_Node000010"><a xlink:title=" ">
<path fill="none" stroke="#63b8ff" d="M1253.21,-417.86C1263.35,-409.88 1277.04,-397.01 1283,-382 1287.92,-369.61 1289.38,-363.71 1283,-352 1234.61,-263.19 1118.08,-213.51 1056.94,-192.73"/>
<polygon fill="#63b8ff" stroke="#63b8ff" points="1057.86,-189.35 1047.27,-189.53 1055.66,-196 1057.86,-189.35"/>
</a>
</g>
</g>
<!-- Node37&#45;&gt;Node21 -->
<g id="edge61_Node000037_Node000021" class="edge">
<title>Node37&#45;&gt;Node21</title>
<g id="a_edge61_Node000037_Node000021"><a xlink:title=" ">
<path fill="none" stroke="#63b8ff" d="M1287.27,-426.87C1369.6,-424.85 1533,-407.54 1533,-302 1533,-302 1533,-302 1533,-239.5 1533,-192.3 1486.32,-154.05 1456.75,-134.55"/>
<polygon fill="#63b8ff" stroke="#63b8ff" points="1458.51,-131.52 1448.19,-129.11 1454.75,-137.43 1458.51,-131.52"/>
</a>
</g>
</g>
<!-- Node37&#45;&gt;Node22 -->
<g id="edge67_Node000037_Node000022" class="edge">
<title>Node37&#45;&gt;Node22</title>
<g id="a_edge67_Node000037_Node000022"><a xlink:title=" ">
<path fill="none" stroke="#63b8ff" d="M1237.31,-417.87C1234.33,-410.89 1229.98,-400.71 1225.99,-391.38"/>
<polygon fill="#63b8ff" stroke="#63b8ff" points="1229.18,-389.93 1222.03,-382.11 1222.74,-392.69 1229.18,-389.93"/>
</a>
</g>
</g>
<!-- Node37&#45;&gt;Node29 -->
<g id="edge64_Node000037_Node000029" class="edge">
<title>Node37&#45;&gt;Node29</title>
<g id="a_edge64_Node000037_Node000029"><a xlink:title=" ">
<path fill="none" stroke="#63b8ff" d="M1214.75,-417.91C1195.13,-410.57 1168.45,-398.56 1149,-382 1128.28,-364.36 1111.53,-337.39 1101.92,-319.73"/>
<polygon fill="#63b8ff" stroke="#63b8ff" points="1104.84,-317.78 1097.1,-310.54 1098.64,-321.03 1104.84,-317.78"/>
</a>
</g>
</g>
<!-- Node37&#45;&gt;Node30 -->
<g id="edge66_Node000037_Node000030" class="edge">
<title>Node37&#45;&gt;Node30</title>
<g id="a_edge66_Node000037_Node000030"><a xlink:title=" ">
<path fill="none" stroke="#63b8ff" d="M1258.62,-417.95C1274.45,-409.83 1297.92,-396.72 1316,-382 1337.11,-364.81 1357.69,-341.48 1371.59,-324.45"/>
<polygon fill="#63b8ff" stroke="#63b8ff" points="1374.69,-326.18 1378.21,-316.19 1369.23,-321.8 1374.69,-326.18"/>
</a>
</g>
</g>
<!-- Node37&#45;&gt;Node32 -->
<g id="edge62_Node000037_Node000032" class="edge">
<title>Node37&#45;&gt;Node32</title>
<g id="a_edge62_Node000037_Node000032"><a xlink:title=" ">
<path fill="none" stroke="#63b8ff" d="M1277.82,-417.9C1326.65,-404.56 1412.11,-374.12 1459,-316 1472.03,-299.84 1478.06,-276.44 1480.8,-260.2"/>
<polygon fill="#63b8ff" stroke="#63b8ff" points="1484.27,-260.66 1482.21,-250.27 1477.34,-259.67 1484.27,-260.66"/>
</a>
</g>
</g>
</g>
</svg>
