<?xml version="1.0" encoding="UTF-8" standalone="no"?>
<!DOCTYPE svg PUBLIC "-//W3C//DTD SVG 1.1//EN"
 "http://www.w3.org/Graphics/SVG/1.1/DTD/svg11.dtd">
<!-- Generated by graphviz version 2.43.0 (0)
 -->
<!-- Title: src/CorePlugin/Interfaces/SceneWriter/SceneWriter.cpp Pages: 1 -->
<svg width="459pt" height="159pt"
 viewBox="0.00 0.00 458.50 159.00" xmlns="http://www.w3.org/2000/svg" xmlns:xlink="http://www.w3.org/1999/xlink">
<g id="graph0" class="graph" transform="scale(1 1) rotate(0) translate(4 155)">
<title>src/CorePlugin/Interfaces/SceneWriter/SceneWriter.cpp</title>
<!-- Node1 -->
<g id="Node000001" class="node">
<title>Node1</title>
<g id="a_Node000001"><a xlink:title=" ">
<polygon fill="#999999" stroke="#666666" points="325.5,-151 164.5,-151 164.5,-121 325.5,-121 325.5,-151"/>
<text text-anchor="start" x="172.5" y="-139" font-family="Helvetica,sans-Serif" font-size="10.00">src/CorePlugin/Interfaces</text>
<text text-anchor="middle" x="245" y="-128" font-family="Helvetica,sans-Serif" font-size="10.00">/SceneWriter/SceneWriter.cpp</text>
</a>
</g>
</g>
<!-- Node2 -->
<g id="Node000002" class="node">
<title>Node2</title>
<g id="a_Node000002"><a xlink:href="SceneWriter_8hpp.html" target="_top" xlink:title=" ">
<polygon fill="white" stroke="#666666" points="97,-79.5 1,-79.5 1,-60.5 97,-60.5 97,-79.5"/>
<text text-anchor="middle" x="49" y="-67.5" font-family="Helvetica,sans-Serif" font-size="10.00">SceneWriter.hpp</text>
</a>
</g>
</g>
<!-- Node1&#45;&gt;Node2 -->
<g id="edge1_Node000001_Node000002" class="edge">
<title>Node1&#45;&gt;Node2</title>
<g id="a_edge1_Node000001_Node000002"><a xlink:title=" ">
<path fill="none" stroke="#63b8ff" d="M201.99,-120.95C166.86,-109.48 117.79,-93.46 84.78,-82.68"/>
<polygon fill="#63b8ff" stroke="#63b8ff" points="85.68,-79.29 75.08,-79.52 83.5,-85.95 85.68,-79.29"/>
</a>
</g>
</g>
<!-- Node4 -->
<g id="Node000004" class="node">
<title>Node4</title>
<g id="a_Node000004"><a xlink:title=" ">
<polygon fill="#e0e0e0" stroke="#999999" points="234.5,-85 115.5,-85 115.5,-55 234.5,-55 234.5,-85"/>
<text text-anchor="start" x="123.5" y="-73" font-family="Helvetica,sans-Serif" font-size="10.00">../../../../SceneSystem</text>
<text text-anchor="middle" x="175" y="-62" font-family="Helvetica,sans-Serif" font-size="10.00">/Scene/Scene.hpp</text>
</a>
</g>
</g>
<!-- Node1&#45;&gt;Node4 -->
<g id="edge3_Node000001_Node000004" class="edge">
<title>Node1&#45;&gt;Node4</title>
<g id="a_edge3_Node000001_Node000004"><a xlink:title=" ">
<path fill="none" stroke="#63b8ff" d="M229.46,-120.8C220.22,-112.34 208.32,-101.46 198,-92.03"/>
<polygon fill="#63b8ff" stroke="#63b8ff" points="200.23,-89.33 190.49,-85.16 195.51,-94.49 200.23,-89.33"/>
</a>
</g>
</g>
<!-- Node5 -->
<g id="Node000005" class="node">
<title>Node5</title>
<g id="a_Node000005"><a xlink:title=" ">
<polygon fill="#e0e0e0" stroke="#999999" points="377,-79.5 253,-79.5 253,-60.5 377,-60.5 377,-79.5"/>
<text text-anchor="middle" x="315" y="-67.5" font-family="Helvetica,sans-Serif" font-size="10.00">../../../../Utils/Color.hpp</text>
</a>
</g>
</g>
<!-- Node1&#45;&gt;Node5 -->
<g id="edge4_Node000001_Node000005" class="edge">
<title>Node1&#45;&gt;Node5</title>
<g id="a_edge4_Node000001_Node000005"><a xlink:title=" ">
<path fill="none" stroke="#63b8ff" d="M260.54,-120.8C271.56,-110.72 286.35,-97.19 297.74,-86.78"/>
<polygon fill="#63b8ff" stroke="#63b8ff" points="300.31,-89.18 305.33,-79.84 295.58,-84.01 300.31,-89.18"/>
</a>
</g>
</g>
<!-- Node6 -->
<g id="Node000006" class="node">
<title>Node6</title>
<g id="a_Node000006"><a xlink:title=" ">
<polygon fill="#e0e0e0" stroke="#999999" points="450.5,-79.5 395.5,-79.5 395.5,-60.5 450.5,-60.5 450.5,-79.5"/>
<text text-anchor="middle" x="423" y="-67.5" font-family="Helvetica,sans-Serif" font-size="10.00">fstream</text>
</a>
</g>
</g>
<!-- Node1&#45;&gt;Node6 -->
<g id="edge5_Node000001_Node000006" class="edge">
<title>Node1&#45;&gt;Node6</title>
<g id="a_edge5_Node000001_Node000006"><a xlink:title=" ">
<path fill="none" stroke="#63b8ff" d="M285.19,-121C313.45,-111.1 352.1,-97.42 386,-85 387.64,-84.4 389.32,-83.78 391.02,-83.15"/>
<polygon fill="#63b8ff" stroke="#63b8ff" points="392.59,-86.3 400.72,-79.52 390.13,-79.74 392.59,-86.3"/>
</a>
</g>
</g>
<!-- Node3 -->
<g id="Node000003" class="node">
<title>Node3</title>
<g id="a_Node000003"><a xlink:title=" ">
<polygon fill="#e0e0e0" stroke="#999999" points="98,-19 0,-19 0,0 98,0 98,-19"/>
<text text-anchor="middle" x="49" y="-7" font-family="Helvetica,sans-Serif" font-size="10.00">../../../IPlugin.hpp</text>
</a>
</g>
</g>
<!-- Node2&#45;&gt;Node3 -->
<g id="edge2_Node000002_Node000003" class="edge">
<title>Node2&#45;&gt;Node3</title>
<g id="a_edge2_Node000002_Node000003"><a xlink:title=" ">
<path fill="none" stroke="#63b8ff" d="M49,-60.37C49,-52.25 49,-39.81 49,-29.39"/>
<polygon fill="#63b8ff" stroke="#63b8ff" points="52.5,-29.17 49,-19.17 45.5,-29.17 52.5,-29.17"/>
</a>
</g>
</g>
</g>
</svg>
