<?xml version="1.0" encoding="UTF-8" standalone="no"?>
<!DOCTYPE svg PUBLIC "-//W3C//DTD SVG 1.1//EN"
 "http://www.w3.org/Graphics/SVG/1.1/DTD/svg11.dtd">
<!-- Generated by graphviz version 2.43.0 (0)
 -->
<!-- Title: src/Objects/Plugins/CorePlugin/Interfaces/SceneWriter/SceneWriter.cpp Pages: 1 -->
<!--zoomable 632 -->

<svg id="main" version="1.1" xmlns="http://www.w3.org/2000/svg" xmlns:xlink="http://www.w3.org/1999/xlink" xml:space="preserve" onload="init(evt)">
<style type="text/css"><![CDATA[
.node, .edge {opacity: 0.7;}
.node.selected, .edge.selected {opacity: 1;}
.edge:hover path { stroke: red; }
.edge:hover polygon { stroke: red; fill: red; }
]]></style>

<defs>
  <circle id="rim" cx="0" cy="0" r="7"/>
  <circle id="rim2" cx="0" cy="0" r="3.5"/>
  <g id="zoomPlus">
    <use xlink:href="#rim" fill="#404040"><set attributeName="fill" to="#808080" begin="zoomplus.mouseover" end="zoomplus.mouseout"/></use>
    <path d="M-4,0h8M0,-4v8" fill="none" stroke="white" stroke-width="1.5" pointer-events="none"/>
  </g>
  <g id="zoomMin">
    <use xlink:href="#rim" fill="#404040"><set attributeName="fill" to="#808080" begin="zoomminus.mouseover" end="zoomminus.mouseout"/></use>
    <path d="M-4,0h8" fill="none" stroke="white" stroke-width="1.5" pointer-events="none"/>
  </g>
  <g id="arrowUp" transform="translate(30 24)">
    <use xlink:href="#rim"/>
    <path pointer-events="none" fill="none" stroke="white" stroke-width="1.5" d="M0,-3.0v7 M-2.5,-0.5L0,-3.0L2.5,-0.5"/>
  </g>
  <g id="arrowRight" transform="rotate(90) translate(36 -43)">
    <use xlink:href="#rim"/>
    <path pointer-events="none" fill="none" stroke="white" stroke-width="1.5" d="M0,-3.0v7 M-2.5,-0.5L0,-3.0L2.5,-0.5"/>
  </g>
  <g id="arrowDown" transform="rotate(180) translate(-30 -48)">
    <use xlink:href="#rim"/>
    <path pointer-events="none" fill="none" stroke="white" stroke-width="1.5" d="M0,-3.0v7 M-2.5,-0.5L0,-3.0L2.5,-0.5"/>
  </g>
  <g id="arrowLeft" transform="rotate(270) translate(-36 17)">
    <use xlink:href="#rim"/>
    <path pointer-events="none" fill="none" stroke="white" stroke-width="1.5" d="M0,-3.0v7 M-2.5,-0.5L0,-3.0L2.5,-0.5"/>
  </g>
  <g id="resetDef">
    <use xlink:href="#rim2" fill="#404040"><set attributeName="fill" to="#808080" begin="reset.mouseover" end="reset.mouseout"/></use>
  </g>
</defs>
<script type="application/ecmascript">
var viewWidth = 1030;
var viewHeight = 632;
var sectionId = 'dynsection-0';
</script>
<script type="application/ecmascript" xlink:href="svg.min.js"/>
<svg id="graph" class="graph">
<g id="viewport">
<title>src/Objects/Plugins/CorePlugin/Interfaces/SceneWriter/SceneWriter.cpp</title>
<!-- Node1 -->
<g id="Node000001" class="node">
<title>Node1</title>
<g id="a_Node000001"><a xlink:title=" ">
<polygon fill="#999999" stroke="#666666" points="933.5,-624 772.5,-624 772.5,-583 933.5,-583 933.5,-624"/>
<text text-anchor="start" x="780.5" y="-612" font-family="Helvetica,sans-Serif" font-size="10.00">src/Objects/Plugins</text>
<text text-anchor="start" x="780.5" y="-601" font-family="Helvetica,sans-Serif" font-size="10.00">/CorePlugin/Interfaces</text>
<text text-anchor="middle" x="853" y="-590" font-family="Helvetica,sans-Serif" font-size="10.00">/SceneWriter/SceneWriter.cpp</text>
</a>
</g>
</g>
<!-- Node2 -->
<g id="Node000002" class="node">
<title>Node2</title>
<g id="a_Node000002"><a xlink:href="SceneWriter_8hpp.html" target="_top" xlink:title=" ">
<polygon fill="white" stroke="#666666" points="575,-481 479,-481 479,-462 575,-462 575,-481"/>
<text text-anchor="middle" x="527" y="-469" font-family="Helvetica,sans-Serif" font-size="10.00">SceneWriter.hpp</text>
</a>
</g>
</g>
<!-- Node1&#45;&gt;Node2 -->
<g id="edge1_Node000001_Node000002" class="edge">
<title>Node1&#45;&gt;Node2</title>
<g id="a_edge1_Node000001_Node000002"><a xlink:title=" ">
<path fill="none" stroke="#63b8ff" d="M793.69,-582.92C763.87,-572.75 727.3,-559.81 695,-547 644.74,-527.06 587.4,-500.88 554.38,-485.45"/>
<polygon fill="#63b8ff" stroke="#63b8ff" points="555.49,-482.1 544.95,-481.02 552.52,-488.44 555.49,-482.1"/>
</a>
</g>
</g>
<!-- Node15 -->
<g id="Node000015" class="node">
<title>Node15</title>
<g id="a_Node000015"><a xlink:href="Color_8hpp.html" target="_top" xlink:title=" ">
<polygon fill="white" stroke="#666666" points="565.5,-189.5 450.5,-189.5 450.5,-170.5 565.5,-170.5 565.5,-189.5"/>
<text text-anchor="middle" x="508" y="-177.5" font-family="Helvetica,sans-Serif" font-size="10.00">../../../Utils/Color.hpp</text>
</a>
</g>
</g>
<!-- Node1&#45;&gt;Node15 -->
<g id="edge46_Node000001_Node000015" class="edge">
<title>Node1&#45;&gt;Node15</title>
<g id="a_edge46_Node000001_Node000015"><a xlink:title=" ">
<path fill="none" stroke="#63b8ff" d="M876.68,-582.62C901.83,-559.13 938,-517.53 938,-472.5 938,-472.5 938,-472.5 938,-294.5 938,-220.51 696.97,-193.69 575.82,-184.88"/>
<polygon fill="#63b8ff" stroke="#63b8ff" points="575.77,-181.37 565.55,-184.16 575.27,-188.35 575.77,-181.37"/>
</a>
</g>
</g>
<!-- Node27 -->
<g id="Node000027" class="node">
<title>Node27</title>
<g id="a_Node000027"><a xlink:href="Scene_8hpp.html" target="_top" xlink:title=" ">
<polygon fill="white" stroke="#666666" points="832,-547 704,-547 704,-517 832,-517 832,-547"/>
<text text-anchor="start" x="712" y="-535" font-family="Helvetica,sans-Serif" font-size="10.00">../../../../../SceneSystem</text>
<text text-anchor="middle" x="768" y="-524" font-family="Helvetica,sans-Serif" font-size="10.00">/Scene/Scene.hpp</text>
</a>
</g>
</g>
<!-- Node1&#45;&gt;Node27 -->
<g id="edge37_Node000001_Node000027" class="edge">
<title>Node1&#45;&gt;Node27</title>
<g id="a_edge37_Node000001_Node000027"><a xlink:title=" ">
<path fill="none" stroke="#63b8ff" d="M828.87,-582.77C817.65,-573.6 804.32,-562.7 793,-553.44"/>
<polygon fill="#63b8ff" stroke="#63b8ff" points="795.13,-550.66 785.17,-547.04 790.7,-556.08 795.13,-550.66"/>
</a>
</g>
</g>
<!-- Node31 -->
<g id="Node000031" class="node">
<title>Node31</title>
<g id="a_Node000031"><a xlink:title=" ">
<polygon fill="#e0e0e0" stroke="#999999" points="1021.5,-541.5 966.5,-541.5 966.5,-522.5 1021.5,-522.5 1021.5,-541.5"/>
<text text-anchor="middle" x="994" y="-529.5" font-family="Helvetica,sans-Serif" font-size="10.00">fstream</text>
</a>
</g>
</g>
<!-- Node1&#45;&gt;Node31 -->
<g id="edge47_Node000001_Node000031" class="edge">
<title>Node1&#45;&gt;Node31</title>
<g id="a_edge47_Node000001_Node000031"><a xlink:title=" ">
<path fill="none" stroke="#63b8ff" d="M892.65,-582.96C916.67,-571.12 946.63,-556.35 967.73,-545.95"/>
<polygon fill="#63b8ff" stroke="#63b8ff" points="969.33,-549.06 976.75,-541.5 966.23,-542.79 969.33,-549.06"/>
</a>
</g>
</g>
<!-- Node3 -->
<g id="Node000003" class="node">
<title>Node3</title>
<g id="a_Node000003"><a xlink:href="Plugin_8hpp.html" target="_top" xlink:title=" ">
<polygon fill="white" stroke="#666666" points="572,-426 468,-426 468,-407 572,-407 572,-426"/>
<text text-anchor="middle" x="520" y="-414" font-family="Helvetica,sans-Serif" font-size="10.00">../../../../Plugin.hpp</text>
</a>
</g>
</g>
<!-- Node2&#45;&gt;Node3 -->
<g id="edge2_Node000002_Node000003" class="edge">
<title>Node2&#45;&gt;Node3</title>
<g id="a_edge2_Node000002_Node000003"><a xlink:title=" ">
<path fill="none" stroke="#63b8ff" d="M525.84,-461.75C524.93,-454.8 523.61,-444.85 522.46,-436.13"/>
<polygon fill="#63b8ff" stroke="#63b8ff" points="525.91,-435.54 521.13,-426.09 518.97,-436.46 525.91,-435.54"/>
</a>
</g>
</g>
<!-- Node4 -->
<g id="Node000004" class="node">
<title>Node4</title>
<g id="a_Node000004"><a xlink:title=" ">
<polygon fill="#e0e0e0" stroke="#999999" points="169.5,-365.5 104.5,-365.5 104.5,-346.5 169.5,-346.5 169.5,-365.5"/>
<text text-anchor="middle" x="137" y="-353.5" font-family="Helvetica,sans-Serif" font-size="10.00">functional</text>
</a>
</g>
</g>
<!-- Node3&#45;&gt;Node4 -->
<g id="edge3_Node000003_Node000004" class="edge">
<title>Node3&#45;&gt;Node4</title>
<g id="a_edge3_Node000003_Node000004"><a xlink:title=" ">
<path fill="none" stroke="#63b8ff" d="M467.75,-411.81C400.35,-406.35 279.81,-394.15 179,-371 175.95,-370.3 172.81,-369.47 169.69,-368.57"/>
<polygon fill="#63b8ff" stroke="#63b8ff" points="170.47,-365.14 159.88,-365.51 168.39,-371.83 170.47,-365.14"/>
</a>
</g>
</g>
<!-- Node5 -->
<g id="Node000005" class="node">
<title>Node5</title>
<g id="a_Node000005"><a xlink:title=" ">
<polygon fill="#e0e0e0" stroke="#999999" points="67,-189.5 9,-189.5 9,-170.5 67,-170.5 67,-189.5"/>
<text text-anchor="middle" x="38" y="-177.5" font-family="Helvetica,sans-Serif" font-size="10.00">memory</text>
</a>
</g>
</g>
<!-- Node3&#45;&gt;Node5 -->
<g id="edge4_Node000003_Node000005" class="edge">
<title>Node3&#45;&gt;Node5</title>
<g id="a_edge4_Node000003_Node000005"><a xlink:title=" ">
<path fill="none" stroke="#63b8ff" d="M467.98,-413.64C357.56,-409.22 107.51,-396.48 79,-371 29.75,-326.98 31.85,-239.19 35.56,-200.3"/>
<polygon fill="#63b8ff" stroke="#63b8ff" points="39.09,-200.23 36.71,-189.91 32.13,-199.46 39.09,-200.23"/>
</a>
</g>
</g>
<!-- Node6 -->
<g id="Node000006" class="node">
<title>Node6</title>
<g id="a_Node000006"><a xlink:title=" ">
<polygon fill="#e0e0e0" stroke="#999999" points="545.5,-365.5 494.5,-365.5 494.5,-346.5 545.5,-346.5 545.5,-365.5"/>
<text text-anchor="middle" x="520" y="-353.5" font-family="Helvetica,sans-Serif" font-size="10.00">variant</text>
</a>
</g>
</g>
<!-- Node3&#45;&gt;Node6 -->
<g id="edge5_Node000003_Node000006" class="edge">
<title>Node3&#45;&gt;Node6</title>
<g id="a_edge5_Node000003_Node000006"><a xlink:title=" ">
<path fill="none" stroke="#63b8ff" d="M520,-406.87C520,-398.75 520,-386.31 520,-375.89"/>
<polygon fill="#63b8ff" stroke="#63b8ff" points="523.5,-375.67 520,-365.67 516.5,-375.67 523.5,-375.67"/>
</a>
</g>
</g>
<!-- Node7 -->
<g id="Node000007" class="node">
<title>Node7</title>
<g id="a_Node000007"><a xlink:title=" ">
<polygon fill="#e0e0e0" stroke="#999999" points="602,-365.5 564,-365.5 564,-346.5 602,-346.5 602,-365.5"/>
<text text-anchor="middle" x="583" y="-353.5" font-family="Helvetica,sans-Serif" font-size="10.00">map</text>
</a>
</g>
</g>
<!-- Node3&#45;&gt;Node7 -->
<g id="edge6_Node000003_Node000007" class="edge">
<title>Node3&#45;&gt;Node7</title>
<g id="a_edge6_Node000003_Node000007"><a xlink:title=" ">
<path fill="none" stroke="#63b8ff" d="M529.3,-406.87C538.97,-397.88 554.34,-383.61 566.16,-372.64"/>
<polygon fill="#63b8ff" stroke="#63b8ff" points="568.72,-375.04 573.67,-365.67 563.96,-369.91 568.72,-375.04"/>
</a>
</g>
</g>
<!-- Node8 -->
<g id="Node000008" class="node">
<title>Node8</title>
<g id="a_Node000008"><a xlink:href="RaytracerException_8hpp.html" target="_top" xlink:title=" ">
<polygon fill="white" stroke="#666666" points="834.5,-371 657.5,-371 657.5,-341 834.5,-341 834.5,-371"/>
<text text-anchor="start" x="665.5" y="-359" font-family="Helvetica,sans-Serif" font-size="10.00">../Exceptions/RaytracerException</text>
<text text-anchor="middle" x="746" y="-348" font-family="Helvetica,sans-Serif" font-size="10.00">/RaytracerException.hpp</text>
</a>
</g>
</g>
<!-- Node3&#45;&gt;Node8 -->
<g id="edge7_Node000003_Node000008" class="edge">
<title>Node3&#45;&gt;Node8</title>
<g id="a_edge7_Node000003_Node000008"><a xlink:title=" ">
<path fill="none" stroke="#63b8ff" d="M552.86,-406.99C586.52,-398.28 639.73,-384.51 681.78,-373.62"/>
<polygon fill="#63b8ff" stroke="#63b8ff" points="682.86,-376.96 691.67,-371.06 681.11,-370.18 682.86,-376.96"/>
</a>
</g>
</g>
<!-- Node13 -->
<g id="Node000013" class="node">
<title>Node13</title>
<g id="a_Node000013"><a xlink:href="AInterface_8hpp.html" target="_top" xlink:title=" ">
<polygon fill="white" stroke="#666666" points="476,-371 360,-371 360,-341 476,-341 476,-371"/>
<text text-anchor="start" x="368" y="-359" font-family="Helvetica,sans-Serif" font-size="10.00">Abstracts/AInterface</text>
<text text-anchor="middle" x="418" y="-348" font-family="Helvetica,sans-Serif" font-size="10.00">/AInterface.hpp</text>
</a>
</g>
</g>
<!-- Node3&#45;&gt;Node13 -->
<g id="edge12_Node000003_Node000013" class="edge">
<title>Node3&#45;&gt;Node13</title>
<g id="a_edge12_Node000003_Node000013"><a xlink:title=" ">
<path fill="none" stroke="#63b8ff" d="M504.95,-406.87C490.98,-398.86 469.69,-386.65 451.68,-376.31"/>
<polygon fill="#63b8ff" stroke="#63b8ff" points="453.03,-373.05 442.61,-371.11 449.54,-379.13 453.03,-373.05"/>
</a>
</g>
</g>
<!-- Node14 -->
<g id="Node000014" class="node">
<title>Node14</title>
<g id="a_Node000014"><a xlink:href="ARenderer_8hpp.html" target="_top" xlink:title=" ">
<polygon fill="white" stroke="#666666" points="585.5,-250 434.5,-250 434.5,-231 585.5,-231 585.5,-250"/>
<text text-anchor="middle" x="510" y="-238" font-family="Helvetica,sans-Serif" font-size="10.00">../ARenderer/ARenderer.hpp</text>
</a>
</g>
</g>
<!-- Node3&#45;&gt;Node14 -->
<g id="edge34_Node000003_Node000014" class="edge">
<title>Node3&#45;&gt;Node14</title>
<g id="a_edge34_Node000003_Node000014"><a xlink:title=" ">
<path fill="none" stroke="#63b8ff" d="M558.42,-406.96C577.74,-400.52 599.45,-389.5 611,-371 618.06,-359.69 617.73,-352.51 611,-341 594.52,-312.83 570.25,-327.9 547,-305 533.82,-292.01 523.69,-273.36 517.4,-259.63"/>
<polygon fill="#63b8ff" stroke="#63b8ff" points="520.53,-258.05 513.34,-250.27 514.1,-260.83 520.53,-258.05"/>
</a>
</g>
</g>
<!-- Node18 -->
<g id="Node000018" class="node">
<title>Node18</title>
<g id="a_Node000018"><a xlink:href="APrimitive_8hpp.html" target="_top" xlink:title=" ">
<polygon fill="white" stroke="#666666" points="304,-371 188,-371 188,-341 304,-341 304,-371"/>
<text text-anchor="start" x="196" y="-359" font-family="Helvetica,sans-Serif" font-size="10.00">Abstracts/APrimitive</text>
<text text-anchor="middle" x="246" y="-348" font-family="Helvetica,sans-Serif" font-size="10.00">/APrimitive.hpp</text>
</a>
</g>
</g>
<!-- Node3&#45;&gt;Node18 -->
<g id="edge17_Node000003_Node000018" class="edge">
<title>Node3&#45;&gt;Node18</title>
<g id="a_edge17_Node000003_Node000018"><a xlink:title=" ">
<path fill="none" stroke="#63b8ff" d="M480.16,-406.99C436.65,-397.71 366.22,-382.67 313.95,-371.51"/>
<polygon fill="#63b8ff" stroke="#63b8ff" points="314.59,-368.06 304.08,-369.4 313.13,-374.91 314.59,-368.06"/>
</a>
</g>
</g>
<!-- Node19 -->
<g id="Node000019" class="node">
<title>Node19</title>
<g id="a_Node000019"><a xlink:href="IMaterial_8hpp.html" target="_top" xlink:title=" ">
<polygon fill="white" stroke="#666666" points="377,-305 287,-305 287,-286 377,-286 377,-305"/>
<text text-anchor="middle" x="332" y="-293" font-family="Helvetica,sans-Serif" font-size="10.00">../IMaterial.hpp</text>
</a>
</g>
</g>
<!-- Node3&#45;&gt;Node19 -->
<g id="edge36_Node000003_Node000019" class="edge">
<title>Node3&#45;&gt;Node19</title>
<g id="a_edge36_Node000003_Node000019"><a xlink:title=" ">
<path fill="none" stroke="#63b8ff" d="M467.76,-415.11C430.37,-412 381.45,-401.69 351,-371 336.49,-356.37 332.57,-332.3 331.74,-315.48"/>
<polygon fill="#63b8ff" stroke="#63b8ff" points="335.24,-315.15 331.58,-305.21 328.24,-315.27 335.24,-315.15"/>
</a>
</g>
</g>
<!-- Node20 -->
<g id="Node000020" class="node">
<title>Node20</title>
<g id="a_Node000020"><a xlink:href="ILight_8hpp.html" target="_top" xlink:title=" ">
<polygon fill="white" stroke="#666666" points="339.5,-250 274.5,-250 274.5,-231 339.5,-231 339.5,-250"/>
<text text-anchor="middle" x="307" y="-238" font-family="Helvetica,sans-Serif" font-size="10.00">ILight.hpp</text>
</a>
</g>
</g>
<!-- Node3&#45;&gt;Node20 -->
<g id="edge35_Node000003_Node000020" class="edge">
<title>Node3&#45;&gt;Node20</title>
<g id="a_edge35_Node000003_Node000020"><a xlink:title=" ">
<path fill="none" stroke="#63b8ff" d="M467.94,-413.86C360.14,-409.93 120.49,-398.19 96,-371 40.6,-309.48 188,-267.23 264.4,-250.07"/>
<polygon fill="#63b8ff" stroke="#63b8ff" points="265.22,-253.48 274.23,-247.92 263.71,-246.64 265.22,-253.48"/>
</a>
</g>
</g>
<!-- Node9 -->
<g id="Node000009" class="node">
<title>Node9</title>
<g id="a_Node000009"><a xlink:title=" ">
<polygon fill="#e0e0e0" stroke="#999999" points="731.5,-305 666.5,-305 666.5,-286 731.5,-286 731.5,-305"/>
<text text-anchor="middle" x="699" y="-293" font-family="Helvetica,sans-Serif" font-size="10.00">exception</text>
</a>
</g>
</g>
<!-- Node8&#45;&gt;Node9 -->
<g id="edge8_Node000008_Node000009" class="edge">
<title>Node8&#45;&gt;Node9</title>
<g id="a_edge8_Node000008_Node000009"><a xlink:title=" ">
<path fill="none" stroke="#63b8ff" d="M734.62,-340.84C727.94,-332.52 719.45,-321.96 712.44,-313.23"/>
<polygon fill="#63b8ff" stroke="#63b8ff" points="715.03,-310.87 706.04,-305.27 709.58,-315.25 715.03,-310.87"/>
</a>
</g>
</g>
<!-- Node10 -->
<g id="Node000010" class="node">
<title>Node10</title>
<g id="a_Node000010"><a xlink:title=" ">
<polygon fill="#e0e0e0" stroke="#999999" points="872,-305 812,-305 812,-286 872,-286 872,-305"/>
<text text-anchor="middle" x="842" y="-293" font-family="Helvetica,sans-Serif" font-size="10.00">iostream</text>
</a>
</g>
</g>
<!-- Node8&#45;&gt;Node10 -->
<g id="edge9_Node000008_Node000010" class="edge">
<title>Node8&#45;&gt;Node10</title>
<g id="a_edge9_Node000008_Node000010"><a xlink:title=" ">
<path fill="none" stroke="#63b8ff" d="M769.24,-340.84C784.4,-331.6 804.11,-319.59 819.19,-310.4"/>
<polygon fill="#63b8ff" stroke="#63b8ff" points="821.18,-313.29 827.9,-305.09 817.54,-307.31 821.18,-313.29"/>
</a>
</g>
</g>
<!-- Node11 -->
<g id="Node000011" class="node">
<title>Node11</title>
<g id="a_Node000011"><a xlink:title=" ">
<polygon fill="#e0e0e0" stroke="#999999" points="794,-305 750,-305 750,-286 794,-286 794,-305"/>
<text text-anchor="middle" x="772" y="-293" font-family="Helvetica,sans-Serif" font-size="10.00">string</text>
</a>
</g>
</g>
<!-- Node8&#45;&gt;Node11 -->
<g id="edge10_Node000008_Node000011" class="edge">
<title>Node8&#45;&gt;Node11</title>
<g id="a_edge10_Node000008_Node000011"><a xlink:title=" ">
<path fill="none" stroke="#63b8ff" d="M752.29,-340.84C755.8,-332.95 760.2,-323.05 763.95,-314.61"/>
<polygon fill="#63b8ff" stroke="#63b8ff" points="767.24,-315.83 768.1,-305.27 760.84,-312.98 767.24,-315.83"/>
</a>
</g>
</g>
<!-- Node12 -->
<g id="Node000012" class="node">
<title>Node12</title>
<g id="a_Node000012"><a xlink:title=" ">
<polygon fill="#e0e0e0" stroke="#999999" points="648.5,-305 555.5,-305 555.5,-286 648.5,-286 648.5,-305"/>
<text text-anchor="middle" x="602" y="-293" font-family="Helvetica,sans-Serif" font-size="10.00">source_location</text>
</a>
</g>
</g>
<!-- Node8&#45;&gt;Node12 -->
<g id="edge11_Node000008_Node000012" class="edge">
<title>Node8&#45;&gt;Node12</title>
<g id="a_edge11_Node000008_Node000012"><a xlink:title=" ">
<path fill="none" stroke="#63b8ff" d="M711.51,-340.99C687.48,-331.23 655.73,-318.33 632.6,-308.93"/>
<polygon fill="#63b8ff" stroke="#63b8ff" points="633.85,-305.66 623.27,-305.14 631.21,-312.15 633.85,-305.66"/>
</a>
</g>
</g>
<!-- Node13&#45;&gt;Node14 -->
<g id="edge13_Node000013_Node000014" class="edge">
<title>Node13&#45;&gt;Node14</title>
<g id="a_edge13_Node000013_Node000014"><a xlink:title=" ">
<path fill="none" stroke="#63b8ff" d="M429.65,-340.63C446.73,-319.56 478.47,-280.4 496.52,-258.13"/>
<polygon fill="#63b8ff" stroke="#63b8ff" points="499.35,-260.2 502.92,-250.23 493.91,-255.79 499.35,-260.2"/>
</a>
</g>
</g>
<!-- Node14&#45;&gt;Node15 -->
<g id="edge14_Node000014_Node000015" class="edge">
<title>Node14&#45;&gt;Node15</title>
<g id="a_edge14_Node000014_Node000015"><a xlink:title=" ">
<path fill="none" stroke="#63b8ff" d="M509.7,-230.87C509.43,-222.75 509,-210.31 508.65,-199.89"/>
<polygon fill="#63b8ff" stroke="#63b8ff" points="512.14,-199.54 508.3,-189.67 505.14,-199.78 512.14,-199.54"/>
</a>
</g>
</g>
<!-- Node17 -->
<g id="Node000017" class="node">
<title>Node17</title>
<g id="a_Node000017"><a xlink:title=" ">
<polygon fill="#e0e0e0" stroke="#999999" points="428.5,-189.5 381.5,-189.5 381.5,-170.5 428.5,-170.5 428.5,-189.5"/>
<text text-anchor="middle" x="405" y="-177.5" font-family="Helvetica,sans-Serif" font-size="10.00">vector</text>
</a>
</g>
</g>
<!-- Node14&#45;&gt;Node17 -->
<g id="edge16_Node000014_Node000017" class="edge">
<title>Node14&#45;&gt;Node17</title>
<g id="a_edge16_Node000014_Node000017"><a xlink:title=" ">
<path fill="none" stroke="#63b8ff" d="M494.51,-230.87C477.37,-221.32 449.53,-205.81 429.44,-194.62"/>
<polygon fill="#63b8ff" stroke="#63b8ff" points="431,-191.48 420.56,-189.67 427.59,-197.59 431,-191.48"/>
</a>
</g>
</g>
<!-- Node16 -->
<g id="Node000016" class="node">
<title>Node16</title>
<g id="a_Node000016"><a xlink:title=" ">
<polygon fill="#e0e0e0" stroke="#999999" points="540,-129 476,-129 476,-110 540,-110 540,-129"/>
<text text-anchor="middle" x="508" y="-117" font-family="Helvetica,sans-Serif" font-size="10.00">algorithm</text>
</a>
</g>
</g>
<!-- Node15&#45;&gt;Node16 -->
<g id="edge15_Node000015_Node000016" class="edge">
<title>Node15&#45;&gt;Node16</title>
<g id="a_edge15_Node000015_Node000016"><a xlink:title=" ">
<path fill="none" stroke="#63b8ff" d="M508,-170.37C508,-162.25 508,-149.81 508,-139.39"/>
<polygon fill="#63b8ff" stroke="#63b8ff" points="511.5,-139.17 508,-129.17 504.5,-139.17 511.5,-139.17"/>
</a>
</g>
</g>
<!-- Node18&#45;&gt;Node19 -->
<g id="edge18_Node000018_Node000019" class="edge">
<title>Node18&#45;&gt;Node19</title>
<g id="a_edge18_Node000018_Node000019"><a xlink:title=" ">
<path fill="none" stroke="#63b8ff" d="M266.82,-340.84C280.15,-331.77 297.39,-320.04 310.79,-310.92"/>
<polygon fill="#63b8ff" stroke="#63b8ff" points="313.07,-313.61 319.37,-305.09 309.13,-307.83 313.07,-313.61"/>
</a>
</g>
</g>
<!-- Node25 -->
<g id="Node000025" class="node">
<title>Node25</title>
<g id="a_Node000025"><a xlink:title=" ">
<polygon fill="#e0e0e0" stroke="#999999" points="218,-305 162,-305 162,-286 218,-286 218,-305"/>
<text text-anchor="middle" x="190" y="-293" font-family="Helvetica,sans-Serif" font-size="10.00">optional</text>
</a>
</g>
</g>
<!-- Node18&#45;&gt;Node25 -->
<g id="edge30_Node000018_Node000025" class="edge">
<title>Node18&#45;&gt;Node25</title>
<g id="a_edge30_Node000018_Node000025"><a xlink:title=" ">
<path fill="none" stroke="#63b8ff" d="M232.44,-340.84C224.32,-332.35 213.95,-321.52 205.5,-312.69"/>
<polygon fill="#63b8ff" stroke="#63b8ff" points="207.83,-310.07 198.39,-305.27 202.78,-314.91 207.83,-310.07"/>
</a>
</g>
</g>
<!-- Node26 -->
<g id="Node000026" class="node">
<title>Node26</title>
<g id="a_Node000026"><a xlink:href="Ray_8hpp.html" target="_top" xlink:title=" ">
<polygon fill="white" stroke="#666666" points="354,-195 240,-195 240,-165 354,-165 354,-195"/>
<text text-anchor="start" x="248" y="-183" font-family="Helvetica,sans-Serif" font-size="10.00">../../../Geometry/Ray</text>
<text text-anchor="middle" x="297" y="-172" font-family="Helvetica,sans-Serif" font-size="10.00">/Ray.hpp</text>
</a>
</g>
</g>
<!-- Node18&#45;&gt;Node26 -->
<g id="edge31_Node000018_Node000026" class="edge">
<title>Node18&#45;&gt;Node26</title>
<g id="a_edge31_Node000018_Node000026"><a xlink:title=" ">
<path fill="none" stroke="#63b8ff" d="M246.49,-340.78C247.68,-317.24 251.81,-269 266,-231 269.57,-221.44 275.07,-211.73 280.46,-203.44"/>
<polygon fill="#63b8ff" stroke="#63b8ff" points="283.42,-205.32 286.15,-195.08 277.63,-201.37 283.42,-205.32"/>
</a>
</g>
</g>
<!-- Node19&#45;&gt;Node15 -->
<g id="edge19_Node000019_Node000015" class="edge">
<title>Node19&#45;&gt;Node15</title>
<g id="a_edge19_Node000019_Node000015"><a xlink:title=" ">
<path fill="none" stroke="#63b8ff" d="M344.35,-285.89C362.2,-273.5 396.34,-250.05 426,-231 445.47,-218.5 467.93,-204.86 484.41,-194.99"/>
<polygon fill="#63b8ff" stroke="#63b8ff" points="486.56,-197.78 493.36,-189.65 482.98,-191.77 486.56,-197.78"/>
</a>
</g>
</g>
<!-- Node19&#45;&gt;Node17 -->
<g id="edge29_Node000019_Node000017" class="edge">
<title>Node19&#45;&gt;Node17</title>
<g id="a_edge29_Node000019_Node000017"><a xlink:title=" ">
<path fill="none" stroke="#63b8ff" d="M337.49,-285.97C349.43,-267.4 377.98,-223.01 393.86,-198.32"/>
<polygon fill="#63b8ff" stroke="#63b8ff" points="396.98,-199.93 399.45,-189.63 391.1,-196.15 396.98,-199.93"/>
</a>
</g>
</g>
<!-- Node19&#45;&gt;Node20 -->
<g id="edge20_Node000019_Node000020" class="edge">
<title>Node19&#45;&gt;Node20</title>
<g id="a_edge20_Node000019_Node000020"><a xlink:title=" ">
<path fill="none" stroke="#63b8ff" d="M327.87,-285.75C324.49,-278.57 319.58,-268.18 315.38,-259.27"/>
<polygon fill="#63b8ff" stroke="#63b8ff" points="318.48,-257.64 311.05,-250.09 312.15,-260.63 318.48,-257.64"/>
</a>
</g>
</g>
<!-- Node20&#45;&gt;Node5 -->
<g id="edge28_Node000020_Node000005" class="edge">
<title>Node20&#45;&gt;Node5</title>
<g id="a_edge28_Node000020_Node000005"><a xlink:title=" ">
<path fill="none" stroke="#63b8ff" d="M274.21,-234.54C229.63,-227.48 147.58,-213.31 79,-195 76.37,-194.3 73.66,-193.51 70.94,-192.68"/>
<polygon fill="#63b8ff" stroke="#63b8ff" points="71.84,-189.29 61.25,-189.55 69.69,-195.96 71.84,-189.29"/>
</a>
</g>
</g>
<!-- Node20&#45;&gt;Node15 -->
<g id="edge26_Node000020_Node000015" class="edge">
<title>Node20&#45;&gt;Node15</title>
<g id="a_edge26_Node000020_Node000015"><a xlink:title=" ">
<path fill="none" stroke="#63b8ff" d="M336.23,-230.99C371.21,-220.81 429.93,-203.72 468.82,-192.4"/>
<polygon fill="#63b8ff" stroke="#63b8ff" points="470.11,-195.67 478.74,-189.52 468.16,-188.95 470.11,-195.67"/>
</a>
</g>
</g>
<!-- Node20&#45;&gt;Node17 -->
<g id="edge27_Node000020_Node000017" class="edge">
<title>Node20&#45;&gt;Node17</title>
<g id="a_edge27_Node000020_Node000017"><a xlink:title=" ">
<path fill="none" stroke="#63b8ff" d="M321.46,-230.87C337.31,-221.41 362.97,-206.09 381.68,-194.92"/>
<polygon fill="#63b8ff" stroke="#63b8ff" points="383.69,-197.8 390.48,-189.67 380.1,-191.79 383.69,-197.8"/>
</a>
</g>
</g>
<!-- Node21 -->
<g id="Node000021" class="node">
<title>Node21</title>
<g id="a_Node000021"><a xlink:href="HitRecord_8hpp.html" target="_top" xlink:title=" ">
<polygon fill="white" stroke="#666666" points="222,-195 88,-195 88,-165 222,-165 222,-195"/>
<text text-anchor="start" x="96" y="-183" font-family="Helvetica,sans-Serif" font-size="10.00">../../Geometry/HitRecord</text>
<text text-anchor="middle" x="155" y="-172" font-family="Helvetica,sans-Serif" font-size="10.00">/HitRecord.hpp</text>
</a>
</g>
</g>
<!-- Node20&#45;&gt;Node21 -->
<g id="edge21_Node000020_Node000021" class="edge">
<title>Node20&#45;&gt;Node21</title>
<g id="a_edge21_Node000020_Node000021"><a xlink:title=" ">
<path fill="none" stroke="#63b8ff" d="M284.9,-230.99C263.02,-222.57 228.87,-209.43 201.08,-198.73"/>
<polygon fill="#63b8ff" stroke="#63b8ff" points="202.13,-195.39 191.54,-195.06 199.62,-201.92 202.13,-195.39"/>
</a>
</g>
</g>
<!-- Node22 -->
<g id="Node000022" class="node">
<title>Node22</title>
<g id="a_Node000022"><a xlink:href="Point3D_8hpp.html" target="_top" xlink:title=" ">
<polygon fill="white" stroke="#666666" points="289,-129 163,-129 163,-110 289,-110 289,-129"/>
<text text-anchor="middle" x="226" y="-117" font-family="Helvetica,sans-Serif" font-size="10.00">../Point3D/Point3D.hpp</text>
</a>
</g>
</g>
<!-- Node21&#45;&gt;Node22 -->
<g id="edge22_Node000021_Node000022" class="edge">
<title>Node21&#45;&gt;Node22</title>
<g id="a_edge22_Node000021_Node000022"><a xlink:title=" ">
<path fill="none" stroke="#63b8ff" d="M172.19,-164.84C182.81,-156.09 196.44,-144.85 207.33,-135.88"/>
<polygon fill="#63b8ff" stroke="#63b8ff" points="209.87,-138.33 215.36,-129.27 205.42,-132.92 209.87,-138.33"/>
</a>
</g>
</g>
<!-- Node23 -->
<g id="Node000023" class="node">
<title>Node23</title>
<g id="a_Node000023"><a xlink:href="Vector3D_8hpp.html" target="_top" xlink:title=" ">
<polygon fill="white" stroke="#666666" points="295,-74 157,-74 157,-55 295,-55 295,-74"/>
<text text-anchor="middle" x="226" y="-62" font-family="Helvetica,sans-Serif" font-size="10.00">../Vector3D/Vector3D.hpp</text>
</a>
</g>
</g>
<!-- Node21&#45;&gt;Node23 -->
<g id="edge25_Node000021_Node000023" class="edge">
<title>Node21&#45;&gt;Node23</title>
<g id="a_edge25_Node000021_Node000023"><a xlink:title=" ">
<path fill="none" stroke="#63b8ff" d="M150.87,-164.78C147.46,-150.08 144.55,-126.95 154,-110 162.04,-95.58 176.9,-85.24 191.04,-78.18"/>
<polygon fill="#63b8ff" stroke="#63b8ff" points="192.51,-81.36 200.15,-74.01 189.6,-74.99 192.51,-81.36"/>
</a>
</g>
</g>
<!-- Node22&#45;&gt;Node23 -->
<g id="edge23_Node000022_Node000023" class="edge">
<title>Node22&#45;&gt;Node23</title>
<g id="a_edge23_Node000022_Node000023"><a xlink:title=" ">
<path fill="none" stroke="#63b8ff" d="M226,-109.75C226,-102.8 226,-92.85 226,-84.13"/>
<polygon fill="#63b8ff" stroke="#63b8ff" points="229.5,-84.09 226,-74.09 222.5,-84.09 229.5,-84.09"/>
</a>
</g>
</g>
<!-- Node24 -->
<g id="Node000024" class="node">
<title>Node24</title>
<g id="a_Node000024"><a xlink:title=" ">
<polygon fill="#e0e0e0" stroke="#999999" points="251.5,-19 200.5,-19 200.5,0 251.5,0 251.5,-19"/>
<text text-anchor="middle" x="226" y="-7" font-family="Helvetica,sans-Serif" font-size="10.00">math.h</text>
</a>
</g>
</g>
<!-- Node23&#45;&gt;Node24 -->
<g id="edge24_Node000023_Node000024" class="edge">
<title>Node23&#45;&gt;Node24</title>
<g id="a_edge24_Node000023_Node000024"><a xlink:title=" ">
<path fill="none" stroke="#63b8ff" d="M226,-54.75C226,-47.8 226,-37.85 226,-29.13"/>
<polygon fill="#63b8ff" stroke="#63b8ff" points="229.5,-29.09 226,-19.09 222.5,-29.09 229.5,-29.09"/>
</a>
</g>
</g>
<!-- Node26&#45;&gt;Node22 -->
<g id="edge32_Node000026_Node000022" class="edge">
<title>Node26&#45;&gt;Node22</title>
<g id="a_edge32_Node000026_Node000022"><a xlink:title=" ">
<path fill="none" stroke="#63b8ff" d="M279.81,-164.84C269.19,-156.09 255.56,-144.85 244.67,-135.88"/>
<polygon fill="#63b8ff" stroke="#63b8ff" points="246.58,-132.92 236.64,-129.27 242.13,-138.33 246.58,-132.92"/>
</a>
</g>
</g>
<!-- Node26&#45;&gt;Node23 -->
<g id="edge33_Node000026_Node000023" class="edge">
<title>Node26&#45;&gt;Node23</title>
<g id="a_edge33_Node000026_Node000023"><a xlink:title=" ">
<path fill="none" stroke="#63b8ff" d="M301.13,-164.78C304.54,-150.08 307.45,-126.95 298,-110 289.96,-95.58 275.1,-85.24 260.96,-78.18"/>
<polygon fill="#63b8ff" stroke="#63b8ff" points="262.4,-74.99 251.85,-74.01 259.49,-81.36 262.4,-74.99"/>
</a>
</g>
</g>
<!-- Node27&#45;&gt;Node3 -->
<g id="edge38_Node000027_Node000003" class="edge">
<title>Node27&#45;&gt;Node3</title>
<g id="a_edge38_Node000027_Node000003"><a xlink:title=" ">
<path fill="none" stroke="#63b8ff" d="M737.34,-516.97C688.83,-494.76 595.06,-451.85 548.15,-430.38"/>
<polygon fill="#63b8ff" stroke="#63b8ff" points="549.44,-427.12 538.89,-426.14 546.53,-433.49 549.44,-427.12"/>
</a>
</g>
</g>
<!-- Node27&#45;&gt;Node5 -->
<g id="edge45_Node000027_Node000005" class="edge">
<title>Node27&#45;&gt;Node5</title>
<g id="a_edge45_Node000027_Node000005"><a xlink:title=" ">
<path fill="none" stroke="#63b8ff" d="M703.84,-528.24C519.26,-519.45 0,-488.43 0,-417.5 0,-417.5 0,-417.5 0,-294.5 0,-258.98 16.94,-220.29 28.2,-198.5"/>
<polygon fill="#63b8ff" stroke="#63b8ff" points="31.39,-199.97 33.03,-189.5 25.22,-196.66 31.39,-199.97"/>
</a>
</g>
</g>
<!-- Node27&#45;&gt;Node17 -->
<g id="edge44_Node000027_Node000017" class="edge">
<title>Node27&#45;&gt;Node17</title>
<g id="a_edge44_Node000027_Node000017"><a xlink:title=" ">
<path fill="none" stroke="#63b8ff" d="M816.26,-516.92C836.26,-509.06 858.38,-497.45 874,-481 894.99,-458.88 900,-448 900,-417.5 900,-417.5 900,-417.5 900,-294.5 900,-190.35 542.01,-224.09 442,-195 439.86,-194.38 437.66,-193.69 435.46,-192.95"/>
<polygon fill="#63b8ff" stroke="#63b8ff" points="436.53,-189.62 425.94,-189.58 434.19,-196.22 436.53,-189.62"/>
</a>
</g>
</g>
<!-- Node28 -->
<g id="Node000028" class="node">
<title>Node28</title>
<g id="a_Node000028"><a xlink:href="PluginManager_8hpp.html" target="_top" xlink:title="Plugin manager for loading and managing plugins.">
<polygon fill="white" stroke="#666666" points="865,-481 671,-481 671,-462 865,-462 865,-481"/>
<text text-anchor="middle" x="768" y="-469" font-family="Helvetica,sans-Serif" font-size="10.00">../PluginManager/PluginManager.hpp</text>
</a>
</g>
</g>
<!-- Node27&#45;&gt;Node28 -->
<g id="edge39_Node000027_Node000028" class="edge">
<title>Node27&#45;&gt;Node28</title>
<g id="a_edge39_Node000027_Node000028"><a xlink:title=" ">
<path fill="none" stroke="#63b8ff" d="M768,-516.84C768,-509.21 768,-499.7 768,-491.45"/>
<polygon fill="#63b8ff" stroke="#63b8ff" points="771.5,-491.27 768,-481.27 764.5,-491.27 771.5,-491.27"/>
</a>
</g>
</g>
<!-- Node28&#45;&gt;Node3 -->
<g id="edge43_Node000028_Node000003" class="edge">
<title>Node28&#45;&gt;Node3</title>
<g id="a_edge43_Node000028_Node000003"><a xlink:title=" ">
<path fill="none" stroke="#63b8ff" d="M728.15,-461.98C685.17,-452.8 616.63,-438.15 570.04,-428.19"/>
<polygon fill="#63b8ff" stroke="#63b8ff" points="570.67,-424.75 560.16,-426.08 569.21,-431.59 570.67,-424.75"/>
</a>
</g>
</g>
<!-- Node28&#45;&gt;Node10 -->
<g id="edge42_Node000028_Node000010" class="edge">
<title>Node28&#45;&gt;Node10</title>
<g id="a_edge42_Node000028_Node000010"><a xlink:title=" ">
<path fill="none" stroke="#63b8ff" d="M782.43,-461.92C794.7,-453.97 812.04,-441.11 823,-426 845.85,-394.5 844.87,-379.9 844,-341 843.81,-332.49 843.41,-323.06 843.02,-315.09"/>
<polygon fill="#63b8ff" stroke="#63b8ff" points="846.51,-314.83 842.5,-305.03 839.52,-315.2 846.51,-314.83"/>
</a>
</g>
</g>
<!-- Node29 -->
<g id="Node000029" class="node">
<title>Node29</title>
<g id="a_Node000029"><a xlink:title=" ">
<polygon fill="#e0e0e0" stroke="#999999" points="742,-426 692,-426 692,-407 742,-407 742,-426"/>
<text text-anchor="middle" x="717" y="-414" font-family="Helvetica,sans-Serif" font-size="10.00">dlfcn.h</text>
</a>
</g>
</g>
<!-- Node28&#45;&gt;Node29 -->
<g id="edge40_Node000028_Node000029" class="edge">
<title>Node28&#45;&gt;Node29</title>
<g id="a_edge40_Node000028_Node000029"><a xlink:title=" ">
<path fill="none" stroke="#63b8ff" d="M759.58,-461.75C752.23,-454.11 741.37,-442.82 732.46,-433.56"/>
<polygon fill="#63b8ff" stroke="#63b8ff" points="734.72,-430.87 725.26,-426.09 729.68,-435.72 734.72,-430.87"/>
</a>
</g>
</g>
<!-- Node30 -->
<g id="Node000030" class="node">
<title>Node30</title>
<g id="a_Node000030"><a xlink:title=" ">
<polygon fill="#e0e0e0" stroke="#999999" points="814,-426 760,-426 760,-407 814,-407 814,-426"/>
<text text-anchor="middle" x="787" y="-414" font-family="Helvetica,sans-Serif" font-size="10.00">dirent.h</text>
</a>
</g>
</g>
<!-- Node28&#45;&gt;Node30 -->
<g id="edge41_Node000028_Node000030" class="edge">
<title>Node28&#45;&gt;Node30</title>
<g id="a_edge41_Node000028_Node000030"><a xlink:title=" ">
<path fill="none" stroke="#63b8ff" d="M771.14,-461.75C773.68,-454.65 777.36,-444.4 780.53,-435.56"/>
<polygon fill="#63b8ff" stroke="#63b8ff" points="783.84,-436.68 783.92,-426.09 777.25,-434.32 783.84,-436.68"/>
</a>
</g>
</g>
</g>
</svg>

<g id="navigator" transform="translate(0 0)" fill="#404254">
  <rect fill="#f2f5e9" fill-opacity="0.5" stroke="#606060" stroke-width=".5" x="0" y="0" width="60" height="60"/>
  <use id="zoomplus" xlink:href="#zoomPlus" x="17" y="9" onmousedown="handleZoom(evt,'in')"/>
  <use id="zoomminus" xlink:href="#zoomMin" x="42" y="9" onmousedown="handleZoom(evt,'out')"/>
  <use id="reset" xlink:href="#resetDef" x="30" y="36" onmousedown="handleReset()"/>
   <use id="arrowup" xlink:href="#arrowUp" x="0" y="0" onmousedown="handlePan(0,-1)"/>
  <use id="arrowright" xlink:href="#arrowRight" x="0" y="0" onmousedown="handlePan(1,0)"/>
  <use id="arrowdown" xlink:href="#arrowDown" x="0" y="0" onmousedown="handlePan(0,1)"/>
  <use id="arrowleft" xlink:href="#arrowLeft" x="0" y="0" onmousedown="handlePan(-1,0)"/>
</g>
<svg viewBox="0 0 15 15" width="100%" height="30px" preserveAspectRatio="xMaxYMin meet">
 <g id="arrow_out" transform="scale(0.3 0.3)">
  <a xlink:href="SceneWriter_8cpp__incl_org.svg" target="_base">
   <rect id="button" ry="5" rx="5" y="6" x="6" height="38" width="38"
        fill="#f2f5e9" fill-opacity="0.5" stroke="#606060" stroke-width="1.0"/>
   <path id="arrow"
     d="M 11.500037,31.436501 C 11.940474,20.09759 22.043105,11.32322 32.158766,21.979434 L 37.068811,17.246167 C 37.068811,17.246167 37.088388,32 37.088388,32 L 22.160133,31.978069 C 22.160133,31.978069 26.997745,27.140456 26.997745,27.140456 C 18.528582,18.264221 13.291696,25.230495 11.500037,31.436501 z"
     style="fill:#404040;"/>
  </a>
 </g>
</svg>

<style type='text/css'>
<![CDATA[
[data-mouse-over-selected='false'] { opacity: 0.7; }
[data-mouse-over-selected='true']  { opacity: 1.0; }
]]>
</style>
<script type="application/ecmascript"><![CDATA[
document.addEventListener('DOMContentLoaded', (event) => {
  highlightEdges();
  highlightAdjacentNodes();
});
]]></script>
</svg>
