<?xml version="1.0" encoding="UTF-8" standalone="no"?>
<!DOCTYPE svg PUBLIC "-//W3C//DTD SVG 1.1//EN"
 "http://www.w3.org/Graphics/SVG/1.1/DTD/svg11.dtd">
<!-- Generated by graphviz version 2.43.0 (0)
 -->
<!-- Title: src/Objects/Plugins/CorePlugin/Interfaces/SceneWriter/SceneWriter.hpp Pages: 1 -->
<svg width="433pt" height="126pt"
 viewBox="0.00 0.00 432.50 126.00" xmlns="http://www.w3.org/2000/svg" xmlns:xlink="http://www.w3.org/1999/xlink">
<g id="graph0" class="graph" transform="scale(1 1) rotate(0) translate(4 122)">
<title>src/Objects/Plugins/CorePlugin/Interfaces/SceneWriter/SceneWriter.hpp</title>
<!-- Node1 -->
<g id="Node000001" class="node">
<title>Node1</title>
<g id="a_Node000001"><a xlink:title=" ">
<polygon fill="#999999" stroke="#666666" points="327.5,-118 166.5,-118 166.5,-77 327.5,-77 327.5,-118"/>
<text text-anchor="start" x="174.5" y="-106" font-family="Helvetica,sans-Serif" font-size="10.00">src/Objects/Plugins</text>
<text text-anchor="start" x="174.5" y="-95" font-family="Helvetica,sans-Serif" font-size="10.00">/CorePlugin/Interfaces</text>
<text text-anchor="middle" x="247" y="-84" font-family="Helvetica,sans-Serif" font-size="10.00">/SceneWriter/SceneWriter.hpp</text>
</a>
</g>
</g>
<!-- Node2 -->
<g id="Node000002" class="node">
<title>Node2</title>
<g id="a_Node000002"><a xlink:href="CorePlugin_8cpp.html" target="_top" xlink:title=" ">
<polygon fill="white" stroke="#666666" points="148,-35.5 0,-35.5 0,-5.5 148,-5.5 148,-35.5"/>
<text text-anchor="start" x="8" y="-23.5" font-family="Helvetica,sans-Serif" font-size="10.00">src/Objects/Plugins</text>
<text text-anchor="middle" x="74" y="-12.5" font-family="Helvetica,sans-Serif" font-size="10.00">/CorePlugin/CorePlugin.cpp</text>
</a>
</g>
</g>
<!-- Node1&#45;&gt;Node2 -->
<g id="edge1_Node000001_Node000002" class="edge">
<title>Node1&#45;&gt;Node2</title>
<g id="a_edge1_Node000001_Node000002"><a xlink:title=" ">
<path fill="none" stroke="#63b8ff" d="M192.63,-72.93C164.34,-60.66 130.7,-46.08 106.48,-35.58"/>
<polygon fill="#63b8ff" stroke="#63b8ff" points="191.43,-76.22 202,-76.99 194.22,-69.8 191.43,-76.22"/>
</a>
</g>
</g>
<!-- Node3 -->
<g id="Node000003" class="node">
<title>Node3</title>
<g id="a_Node000003"><a xlink:href="SceneWriter_8cpp.html" target="_top" xlink:title=" ">
<polygon fill="white" stroke="#666666" points="327.5,-41 166.5,-41 166.5,0 327.5,0 327.5,-41"/>
<text text-anchor="start" x="174.5" y="-29" font-family="Helvetica,sans-Serif" font-size="10.00">src/Objects/Plugins</text>
<text text-anchor="start" x="174.5" y="-18" font-family="Helvetica,sans-Serif" font-size="10.00">/CorePlugin/Interfaces</text>
<text text-anchor="middle" x="247" y="-7" font-family="Helvetica,sans-Serif" font-size="10.00">/SceneWriter/SceneWriter.cpp</text>
</a>
</g>
</g>
<!-- Node1&#45;&gt;Node3 -->
<g id="edge2_Node000001_Node000003" class="edge">
<title>Node1&#45;&gt;Node3</title>
<g id="a_edge2_Node000001_Node000003"><a xlink:title=" ">
<path fill="none" stroke="#63b8ff" d="M247,-66.69C247,-58.08 247,-48.9 247,-41.07"/>
<polygon fill="#63b8ff" stroke="#63b8ff" points="243.5,-66.79 247,-76.79 250.5,-66.79 243.5,-66.79"/>
</a>
</g>
</g>
<!-- Node4 -->
<g id="Node000004" class="node">
<title>Node4</title>
<g id="a_Node000004"><a xlink:href="main_8cpp.html" target="_top" xlink:title=" ">
<polygon fill="white" stroke="#666666" points="424.5,-30 345.5,-30 345.5,-11 424.5,-11 424.5,-30"/>
<text text-anchor="middle" x="385" y="-18" font-family="Helvetica,sans-Serif" font-size="10.00">src/main.cpp</text>
</a>
</g>
</g>
<!-- Node1&#45;&gt;Node4 -->
<g id="edge3_Node000001_Node000004" class="edge">
<title>Node1&#45;&gt;Node4</title>
<g id="a_edge3_Node000001_Node000004"><a xlink:title=" ">
<path fill="none" stroke="#63b8ff" d="M292.03,-72.03C318.56,-57.61 350.5,-40.25 369.2,-30.09"/>
<polygon fill="#63b8ff" stroke="#63b8ff" points="290.01,-69.14 282.9,-76.99 293.36,-75.29 290.01,-69.14"/>
</a>
</g>
</g>
</g>
</svg>
