<?xml version="1.0" encoding="UTF-8" standalone="no"?>
<!DOCTYPE svg PUBLIC "-//W3C//DTD SVG 1.1//EN"
 "http://www.w3.org/Graphics/SVG/1.1/DTD/svg11.dtd">
<!-- Generated by graphviz version 2.43.0 (0)
 -->
<!-- Title: src/SceneSystem/Scene/Scene.cpp Pages: 1 -->
<!--zoomable 610 -->

<svg id="main" version="1.1" xmlns="http://www.w3.org/2000/svg" xmlns:xlink="http://www.w3.org/1999/xlink" xml:space="preserve" onload="init(evt)">
<style type="text/css"><![CDATA[
.node, .edge {opacity: 0.7;}
.node.selected, .edge.selected {opacity: 1;}
.edge:hover path { stroke: red; }
.edge:hover polygon { stroke: red; fill: red; }
]]></style>

<defs>
  <circle id="rim" cx="0" cy="0" r="7"/>
  <circle id="rim2" cx="0" cy="0" r="3.5"/>
  <g id="zoomPlus">
    <use xlink:href="#rim" fill="#404040"><set attributeName="fill" to="#808080" begin="zoomplus.mouseover" end="zoomplus.mouseout"/></use>
    <path d="M-4,0h8M0,-4v8" fill="none" stroke="white" stroke-width="1.5" pointer-events="none"/>
  </g>
  <g id="zoomMin">
    <use xlink:href="#rim" fill="#404040"><set attributeName="fill" to="#808080" begin="zoomminus.mouseover" end="zoomminus.mouseout"/></use>
    <path d="M-4,0h8" fill="none" stroke="white" stroke-width="1.5" pointer-events="none"/>
  </g>
  <g id="arrowUp" transform="translate(30 24)">
    <use xlink:href="#rim"/>
    <path pointer-events="none" fill="none" stroke="white" stroke-width="1.5" d="M0,-3.0v7 M-2.5,-0.5L0,-3.0L2.5,-0.5"/>
  </g>
  <g id="arrowRight" transform="rotate(90) translate(36 -43)">
    <use xlink:href="#rim"/>
    <path pointer-events="none" fill="none" stroke="white" stroke-width="1.5" d="M0,-3.0v7 M-2.5,-0.5L0,-3.0L2.5,-0.5"/>
  </g>
  <g id="arrowDown" transform="rotate(180) translate(-30 -48)">
    <use xlink:href="#rim"/>
    <path pointer-events="none" fill="none" stroke="white" stroke-width="1.5" d="M0,-3.0v7 M-2.5,-0.5L0,-3.0L2.5,-0.5"/>
  </g>
  <g id="arrowLeft" transform="rotate(270) translate(-36 17)">
    <use xlink:href="#rim"/>
    <path pointer-events="none" fill="none" stroke="white" stroke-width="1.5" d="M0,-3.0v7 M-2.5,-0.5L0,-3.0L2.5,-0.5"/>
  </g>
  <g id="resetDef">
    <use xlink:href="#rim2" fill="#404040"><set attributeName="fill" to="#808080" begin="reset.mouseover" end="reset.mouseout"/></use>
  </g>
</defs>
<script type="application/ecmascript">
var viewWidth = 1024;
var viewHeight = 610;
var sectionId = 'dynsection-0';
</script>
<script type="application/ecmascript" xlink:href="svg.min.js"/>
<svg id="graph" class="graph">
<g id="viewport">
<title>src/SceneSystem/Scene/Scene.cpp</title>
<!-- Node1 -->
<g id="Node000001" class="node">
<title>Node1</title>
<g id="a_Node000001"><a xlink:title=" ">
<polygon fill="#999999" stroke="#666666" points="814,-602 682,-602 682,-572 814,-572 814,-602"/>
<text text-anchor="start" x="690" y="-590" font-family="Helvetica,sans-Serif" font-size="10.00">src/SceneSystem/Scene</text>
<text text-anchor="middle" x="748" y="-579" font-family="Helvetica,sans-Serif" font-size="10.00">/Scene.cpp</text>
</a>
</g>
</g>
<!-- Node2 -->
<g id="Node000002" class="node">
<title>Node2</title>
<g id="a_Node000002"><a xlink:href="Scene_8hpp.html" target="_top" xlink:title=" ">
<polygon fill="white" stroke="#666666" points="781.5,-536 714.5,-536 714.5,-517 781.5,-517 781.5,-536"/>
<text text-anchor="middle" x="748" y="-524" font-family="Helvetica,sans-Serif" font-size="10.00">Scene.hpp</text>
</a>
</g>
</g>
<!-- Node1&#45;&gt;Node2 -->
<g id="edge1_Node000001_Node000002" class="edge">
<title>Node1&#45;&gt;Node2</title>
<g id="a_edge1_Node000001_Node000002"><a xlink:title=" ">
<path fill="none" stroke="#63b8ff" d="M748,-571.84C748,-564.21 748,-554.7 748,-546.45"/>
<polygon fill="#63b8ff" stroke="#63b8ff" points="751.5,-546.27 748,-536.27 744.5,-546.27 751.5,-546.27"/>
</a>
</g>
</g>
<!-- Node3 -->
<g id="Node000003" class="node">
<title>Node3</title>
<g id="a_Node000003"><a xlink:href="Plugin_8hpp.html" target="_top" xlink:title=" ">
<polygon fill="white" stroke="#666666" points="507.5,-426 382.5,-426 382.5,-407 507.5,-407 507.5,-426"/>
<text text-anchor="middle" x="445" y="-414" font-family="Helvetica,sans-Serif" font-size="10.00">../../Objects/Plugin.hpp</text>
</a>
</g>
</g>
<!-- Node2&#45;&gt;Node3 -->
<g id="edge2_Node000002_Node000003" class="edge">
<title>Node2&#45;&gt;Node3</title>
<g id="a_edge2_Node000002_Node000003"><a xlink:title=" ">
<path fill="none" stroke="#63b8ff" d="M723.97,-516.94C670.27,-497.79 540.42,-451.51 478.68,-429.51"/>
<polygon fill="#63b8ff" stroke="#63b8ff" points="479.63,-426.13 469.03,-426.07 477.28,-432.72 479.63,-426.13"/>
</a>
</g>
</g>
<!-- Node5 -->
<g id="Node000005" class="node">
<title>Node5</title>
<g id="a_Node000005"><a xlink:title=" ">
<polygon fill="#e0e0e0" stroke="#999999" points="58,-189.5 0,-189.5 0,-170.5 58,-170.5 58,-189.5"/>
<text text-anchor="middle" x="29" y="-177.5" font-family="Helvetica,sans-Serif" font-size="10.00">memory</text>
</a>
</g>
</g>
<!-- Node2&#45;&gt;Node5 -->
<g id="edge44_Node000002_Node000005" class="edge">
<title>Node2&#45;&gt;Node5</title>
<g id="a_edge44_Node000002_Node000005"><a xlink:title=" ">
<path fill="none" stroke="#63b8ff" d="M714.29,-524.04C572.14,-517.46 29,-487.71 29,-417.5 29,-417.5 29,-417.5 29,-294.5 29,-261.11 29,-222.19 29,-199.69"/>
<polygon fill="#63b8ff" stroke="#63b8ff" points="32.5,-199.54 29,-189.54 25.5,-199.54 32.5,-199.54"/>
</a>
</g>
</g>
<!-- Node17 -->
<g id="Node000017" class="node">
<title>Node17</title>
<g id="a_Node000017"><a xlink:title=" ">
<polygon fill="#e0e0e0" stroke="#999999" points="540.5,-189.5 493.5,-189.5 493.5,-170.5 540.5,-170.5 540.5,-189.5"/>
<text text-anchor="middle" x="517" y="-177.5" font-family="Helvetica,sans-Serif" font-size="10.00">vector</text>
</a>
</g>
</g>
<!-- Node2&#45;&gt;Node17 -->
<g id="edge43_Node000002_Node000017" class="edge">
<title>Node2&#45;&gt;Node17</title>
<g id="a_edge43_Node000002_Node000017"><a xlink:title=" ">
<path fill="none" stroke="#63b8ff" d="M781.62,-522.96C822.09,-518.78 891.19,-508.02 944,-481 981.98,-461.56 1016,-460.17 1016,-417.5 1016,-417.5 1016,-417.5 1016,-294.5 1016,-198.86 663.04,-183.81 550.82,-181.44"/>
<polygon fill="#63b8ff" stroke="#63b8ff" points="550.8,-177.94 540.73,-181.25 550.66,-184.94 550.8,-177.94"/>
</a>
</g>
</g>
<!-- Node27 -->
<g id="Node000027" class="node">
<title>Node27</title>
<g id="a_Node000027"><a xlink:href="PluginManager_8hpp.html" target="_top" xlink:title="Plugin manager for loading and managing plugins.">
<polygon fill="white" stroke="#666666" points="935,-481 741,-481 741,-462 935,-462 935,-481"/>
<text text-anchor="middle" x="838" y="-469" font-family="Helvetica,sans-Serif" font-size="10.00">../PluginManager/PluginManager.hpp</text>
</a>
</g>
</g>
<!-- Node2&#45;&gt;Node27 -->
<g id="edge38_Node000002_Node000027" class="edge">
<title>Node2&#45;&gt;Node27</title>
<g id="a_edge38_Node000002_Node000027"><a xlink:title=" ">
<path fill="none" stroke="#63b8ff" d="M762.46,-516.98C776.42,-508.77 797.79,-496.18 814.25,-486.49"/>
<polygon fill="#63b8ff" stroke="#63b8ff" points="816.44,-489.26 823.28,-481.17 812.88,-483.23 816.44,-489.26"/>
</a>
</g>
</g>
<!-- Node4 -->
<g id="Node000004" class="node">
<title>Node4</title>
<g id="a_Node000004"><a xlink:title=" ">
<polygon fill="#e0e0e0" stroke="#999999" points="512.5,-365.5 447.5,-365.5 447.5,-346.5 512.5,-346.5 512.5,-365.5"/>
<text text-anchor="middle" x="480" y="-353.5" font-family="Helvetica,sans-Serif" font-size="10.00">functional</text>
</a>
</g>
</g>
<!-- Node3&#45;&gt;Node4 -->
<g id="edge3_Node000003_Node000004" class="edge">
<title>Node3&#45;&gt;Node4</title>
<g id="a_edge3_Node000003_Node000004"><a xlink:title=" ">
<path fill="none" stroke="#63b8ff" d="M450.16,-406.87C455.23,-398.4 463.1,-385.24 469.49,-374.57"/>
<polygon fill="#63b8ff" stroke="#63b8ff" points="472.68,-376.05 474.81,-365.67 466.68,-372.45 472.68,-376.05"/>
</a>
</g>
</g>
<!-- Node3&#45;&gt;Node5 -->
<g id="edge4_Node000003_Node000005" class="edge">
<title>Node3&#45;&gt;Node5</title>
<g id="a_edge4_Node000003_Node000005"><a xlink:title=" ">
<path fill="none" stroke="#63b8ff" d="M382.4,-414.87C295.53,-412.77 144.3,-404.27 102,-371 87.76,-359.8 49.48,-244.6 34.82,-199.22"/>
<polygon fill="#63b8ff" stroke="#63b8ff" points="38.1,-197.97 31.71,-189.52 31.43,-200.11 38.1,-197.97"/>
</a>
</g>
</g>
<!-- Node6 -->
<g id="Node000006" class="node">
<title>Node6</title>
<g id="a_Node000006"><a xlink:title=" ">
<polygon fill="#e0e0e0" stroke="#999999" points="372.5,-365.5 321.5,-365.5 321.5,-346.5 372.5,-346.5 372.5,-365.5"/>
<text text-anchor="middle" x="347" y="-353.5" font-family="Helvetica,sans-Serif" font-size="10.00">variant</text>
</a>
</g>
</g>
<!-- Node3&#45;&gt;Node6 -->
<g id="edge5_Node000003_Node000006" class="edge">
<title>Node3&#45;&gt;Node6</title>
<g id="a_edge5_Node000003_Node000006"><a xlink:title=" ">
<path fill="none" stroke="#63b8ff" d="M430.54,-406.87C414.69,-397.41 389.03,-382.09 370.32,-370.92"/>
<polygon fill="#63b8ff" stroke="#63b8ff" points="371.9,-367.79 361.52,-365.67 368.31,-373.8 371.9,-367.79"/>
</a>
</g>
</g>
<!-- Node7 -->
<g id="Node000007" class="node">
<title>Node7</title>
<g id="a_Node000007"><a xlink:title=" ">
<polygon fill="#e0e0e0" stroke="#999999" points="429,-365.5 391,-365.5 391,-346.5 429,-346.5 429,-365.5"/>
<text text-anchor="middle" x="410" y="-353.5" font-family="Helvetica,sans-Serif" font-size="10.00">map</text>
</a>
</g>
</g>
<!-- Node3&#45;&gt;Node7 -->
<g id="edge6_Node000003_Node000007" class="edge">
<title>Node3&#45;&gt;Node7</title>
<g id="a_edge6_Node000003_Node000007"><a xlink:title=" ">
<path fill="none" stroke="#63b8ff" d="M439.84,-406.87C434.77,-398.4 426.9,-385.24 420.51,-374.57"/>
<polygon fill="#63b8ff" stroke="#63b8ff" points="423.32,-372.45 415.19,-365.67 417.32,-376.05 423.32,-372.45"/>
</a>
</g>
</g>
<!-- Node8 -->
<g id="Node000008" class="node">
<title>Node8</title>
<g id="a_Node000008"><a xlink:href="RaytracerException_8hpp.html" target="_top" xlink:title=" ">
<polygon fill="white" stroke="#666666" points="842.5,-371 665.5,-371 665.5,-341 842.5,-341 842.5,-371"/>
<text text-anchor="start" x="673.5" y="-359" font-family="Helvetica,sans-Serif" font-size="10.00">../Exceptions/RaytracerException</text>
<text text-anchor="middle" x="754" y="-348" font-family="Helvetica,sans-Serif" font-size="10.00">/RaytracerException.hpp</text>
</a>
</g>
</g>
<!-- Node3&#45;&gt;Node8 -->
<g id="edge7_Node000003_Node000008" class="edge">
<title>Node3&#45;&gt;Node8</title>
<g id="a_edge7_Node000003_Node000008"><a xlink:title=" ">
<path fill="none" stroke="#63b8ff" d="M489.93,-406.99C537,-398.08 612.04,-383.88 670.11,-372.88"/>
<polygon fill="#63b8ff" stroke="#63b8ff" points="670.84,-376.31 680.01,-371.01 669.53,-369.43 670.84,-376.31"/>
</a>
</g>
</g>
<!-- Node13 -->
<g id="Node000013" class="node">
<title>Node13</title>
<g id="a_Node000013"><a xlink:href="AInterface_8hpp.html" target="_top" xlink:title=" ">
<polygon fill="white" stroke="#666666" points="647,-371 531,-371 531,-341 647,-341 647,-371"/>
<text text-anchor="start" x="539" y="-359" font-family="Helvetica,sans-Serif" font-size="10.00">Abstracts/AInterface</text>
<text text-anchor="middle" x="589" y="-348" font-family="Helvetica,sans-Serif" font-size="10.00">/AInterface.hpp</text>
</a>
</g>
</g>
<!-- Node3&#45;&gt;Node13 -->
<g id="edge12_Node000003_Node000013" class="edge">
<title>Node3&#45;&gt;Node13</title>
<g id="a_edge12_Node000003_Node000013"><a xlink:title=" ">
<path fill="none" stroke="#63b8ff" d="M465.94,-406.99C486.57,-398.61 518.73,-385.55 545,-374.87"/>
<polygon fill="#63b8ff" stroke="#63b8ff" points="546.43,-378.07 554.38,-371.06 543.8,-371.59 546.43,-378.07"/>
</a>
</g>
</g>
<!-- Node14 -->
<g id="Node000014" class="node">
<title>Node14</title>
<g id="a_Node000014"><a xlink:href="ARenderer_8hpp.html" target="_top" xlink:title=" ">
<polygon fill="white" stroke="#666666" points="582.5,-250 431.5,-250 431.5,-231 582.5,-231 582.5,-250"/>
<text text-anchor="middle" x="507" y="-238" font-family="Helvetica,sans-Serif" font-size="10.00">../ARenderer/ARenderer.hpp</text>
</a>
</g>
</g>
<!-- Node3&#45;&gt;Node14 -->
<g id="edge35_Node000003_Node000014" class="edge">
<title>Node3&#45;&gt;Node14</title>
<g id="a_edge35_Node000003_Node000014"><a xlink:title=" ">
<path fill="none" stroke="#63b8ff" d="M507.8,-412.96C615.84,-407.96 827.62,-395.18 851,-371 877.31,-343.8 881.01,-314.4 856,-286 838.85,-266.52 690.6,-253.29 592.91,-246.6"/>
<polygon fill="#63b8ff" stroke="#63b8ff" points="592.95,-243.09 582.74,-245.91 592.48,-250.08 592.95,-243.09"/>
</a>
</g>
</g>
<!-- Node18 -->
<g id="Node000018" class="node">
<title>Node18</title>
<g id="a_Node000018"><a xlink:href="APrimitive_8hpp.html" target="_top" xlink:title=" ">
<polygon fill="white" stroke="#666666" points="227,-371 111,-371 111,-341 227,-341 227,-371"/>
<text text-anchor="start" x="119" y="-359" font-family="Helvetica,sans-Serif" font-size="10.00">Abstracts/APrimitive</text>
<text text-anchor="middle" x="169" y="-348" font-family="Helvetica,sans-Serif" font-size="10.00">/APrimitive.hpp</text>
</a>
</g>
</g>
<!-- Node3&#45;&gt;Node18 -->
<g id="edge17_Node000003_Node000018" class="edge">
<title>Node3&#45;&gt;Node18</title>
<g id="a_edge17_Node000003_Node000018"><a xlink:title=" ">
<path fill="none" stroke="#63b8ff" d="M404.87,-406.99C360.97,-397.69 289.87,-382.62 237.19,-371.45"/>
<polygon fill="#63b8ff" stroke="#63b8ff" points="237.75,-367.99 227.24,-369.35 236.3,-374.84 237.75,-367.99"/>
</a>
</g>
</g>
<!-- Node19 -->
<g id="Node000019" class="node">
<title>Node19</title>
<g id="a_Node000019"><a xlink:href="IMaterial_8hpp.html" target="_top" xlink:title=" ">
<polygon fill="white" stroke="#666666" points="373,-305 283,-305 283,-286 373,-286 373,-305"/>
<text text-anchor="middle" x="328" y="-293" font-family="Helvetica,sans-Serif" font-size="10.00">../IMaterial.hpp</text>
</a>
</g>
</g>
<!-- Node3&#45;&gt;Node19 -->
<g id="edge37_Node000003_Node000019" class="edge">
<title>Node3&#45;&gt;Node19</title>
<g id="a_edge37_Node000003_Node000019"><a xlink:title=" ">
<path fill="none" stroke="#63b8ff" d="M382.26,-410.33C356.12,-404.72 328.15,-393.43 312,-371 299.97,-354.29 308.49,-330.35 317.01,-314.15"/>
<polygon fill="#63b8ff" stroke="#63b8ff" points="320.2,-315.62 322.14,-305.2 314.13,-312.14 320.2,-315.62"/>
</a>
</g>
</g>
<!-- Node20 -->
<g id="Node000020" class="node">
<title>Node20</title>
<g id="a_Node000020"><a xlink:href="ILight_8hpp.html" target="_top" xlink:title=" ">
<polygon fill="white" stroke="#666666" points="297.5,-250 232.5,-250 232.5,-231 297.5,-231 297.5,-250"/>
<text text-anchor="middle" x="265" y="-238" font-family="Helvetica,sans-Serif" font-size="10.00">ILight.hpp</text>
</a>
</g>
</g>
<!-- Node3&#45;&gt;Node20 -->
<g id="edge36_Node000003_Node000020" class="edge">
<title>Node3&#45;&gt;Node20</title>
<g id="a_edge36_Node000003_Node000020"><a xlink:title=" ">
<path fill="none" stroke="#63b8ff" d="M382.29,-407.67C355.23,-401.52 324.85,-390.56 303,-371 271.09,-342.43 265.38,-288.62 264.72,-260.2"/>
<polygon fill="#63b8ff" stroke="#63b8ff" points="268.22,-260.01 264.68,-250.02 261.22,-260.04 268.22,-260.01"/>
</a>
</g>
</g>
<!-- Node9 -->
<g id="Node000009" class="node">
<title>Node9</title>
<g id="a_Node000009"><a xlink:title=" ">
<polygon fill="#e0e0e0" stroke="#999999" points="706.5,-305 641.5,-305 641.5,-286 706.5,-286 706.5,-305"/>
<text text-anchor="middle" x="674" y="-293" font-family="Helvetica,sans-Serif" font-size="10.00">exception</text>
</a>
</g>
</g>
<!-- Node8&#45;&gt;Node9 -->
<g id="edge8_Node000008_Node000009" class="edge">
<title>Node8&#45;&gt;Node9</title>
<g id="a_edge8_Node000008_Node000009"><a xlink:title=" ">
<path fill="none" stroke="#63b8ff" d="M734.63,-340.84C722.43,-331.91 706.69,-320.41 694.31,-311.35"/>
<polygon fill="#63b8ff" stroke="#63b8ff" points="696.13,-308.34 685.99,-305.27 691.99,-313.99 696.13,-308.34"/>
</a>
</g>
</g>
<!-- Node10 -->
<g id="Node000010" class="node">
<title>Node10</title>
<g id="a_Node000010"><a xlink:title=" ">
<polygon fill="#e0e0e0" stroke="#999999" points="847,-305 787,-305 787,-286 847,-286 847,-305"/>
<text text-anchor="middle" x="817" y="-293" font-family="Helvetica,sans-Serif" font-size="10.00">iostream</text>
</a>
</g>
</g>
<!-- Node8&#45;&gt;Node10 -->
<g id="edge9_Node000008_Node000010" class="edge">
<title>Node8&#45;&gt;Node10</title>
<g id="a_edge9_Node000008_Node000010"><a xlink:title=" ">
<path fill="none" stroke="#63b8ff" d="M769.25,-340.84C778.58,-332.17 790.53,-321.08 800.15,-312.15"/>
<polygon fill="#63b8ff" stroke="#63b8ff" points="802.61,-314.64 807.56,-305.27 797.85,-309.51 802.61,-314.64"/>
</a>
</g>
</g>
<!-- Node11 -->
<g id="Node000011" class="node">
<title>Node11</title>
<g id="a_Node000011"><a xlink:title=" ">
<polygon fill="#e0e0e0" stroke="#999999" points="769,-305 725,-305 725,-286 769,-286 769,-305"/>
<text text-anchor="middle" x="747" y="-293" font-family="Helvetica,sans-Serif" font-size="10.00">string</text>
</a>
</g>
</g>
<!-- Node8&#45;&gt;Node11 -->
<g id="edge10_Node000008_Node000011" class="edge">
<title>Node8&#45;&gt;Node11</title>
<g id="a_edge10_Node000008_Node000011"><a xlink:title=" ">
<path fill="none" stroke="#63b8ff" d="M752.31,-340.84C751.39,-333.21 750.26,-323.7 749.27,-315.45"/>
<polygon fill="#63b8ff" stroke="#63b8ff" points="752.71,-314.78 748.05,-305.27 745.76,-315.61 752.71,-314.78"/>
</a>
</g>
</g>
<!-- Node12 -->
<g id="Node000012" class="node">
<title>Node12</title>
<g id="a_Node000012"><a xlink:title=" ">
<polygon fill="#e0e0e0" stroke="#999999" points="623.5,-305 530.5,-305 530.5,-286 623.5,-286 623.5,-305"/>
<text text-anchor="middle" x="577" y="-293" font-family="Helvetica,sans-Serif" font-size="10.00">source_location</text>
</a>
</g>
</g>
<!-- Node8&#45;&gt;Node12 -->
<g id="edge11_Node000008_Node000012" class="edge">
<title>Node8&#45;&gt;Node12</title>
<g id="a_edge11_Node000008_Node000012"><a xlink:title=" ">
<path fill="none" stroke="#63b8ff" d="M711.6,-340.99C681.32,-330.98 641.05,-317.67 612.47,-308.22"/>
<polygon fill="#63b8ff" stroke="#63b8ff" points="613.47,-304.87 602.88,-305.05 611.28,-311.52 613.47,-304.87"/>
</a>
</g>
</g>
<!-- Node13&#45;&gt;Node14 -->
<g id="edge13_Node000013_Node000014" class="edge">
<title>Node13&#45;&gt;Node14</title>
<g id="a_edge13_Node000013_Node000014"><a xlink:title=" ">
<path fill="none" stroke="#63b8ff" d="M561.31,-340.98C547.17,-332.44 530.91,-320.23 521,-305 512.25,-291.55 508.9,-273.45 507.65,-260.02"/>
<polygon fill="#63b8ff" stroke="#63b8ff" points="511.14,-259.79 507.02,-250.03 504.16,-260.23 511.14,-259.79"/>
</a>
</g>
</g>
<!-- Node15 -->
<g id="Node000015" class="node">
<title>Node15</title>
<g id="a_Node000015"><a xlink:href="Color_8hpp.html" target="_top" xlink:title=" ">
<polygon fill="white" stroke="#666666" points="475.5,-189.5 360.5,-189.5 360.5,-170.5 475.5,-170.5 475.5,-189.5"/>
<text text-anchor="middle" x="418" y="-177.5" font-family="Helvetica,sans-Serif" font-size="10.00">../../../Utils/Color.hpp</text>
</a>
</g>
</g>
<!-- Node14&#45;&gt;Node15 -->
<g id="edge14_Node000014_Node000015" class="edge">
<title>Node14&#45;&gt;Node15</title>
<g id="a_edge14_Node000014_Node000015"><a xlink:title=" ">
<path fill="none" stroke="#63b8ff" d="M493.87,-230.87C479.67,-221.54 456.8,-206.51 439.88,-195.38"/>
<polygon fill="#63b8ff" stroke="#63b8ff" points="441.47,-192.24 431.19,-189.67 437.62,-198.08 441.47,-192.24"/>
</a>
</g>
</g>
<!-- Node14&#45;&gt;Node17 -->
<g id="edge16_Node000014_Node000017" class="edge">
<title>Node14&#45;&gt;Node17</title>
<g id="a_edge16_Node000014_Node000017"><a xlink:title=" ">
<path fill="none" stroke="#63b8ff" d="M508.48,-230.87C509.88,-222.66 512.04,-210.04 513.83,-199.55"/>
<polygon fill="#63b8ff" stroke="#63b8ff" points="517.28,-200.11 515.52,-189.67 510.38,-198.93 517.28,-200.11"/>
</a>
</g>
</g>
<!-- Node16 -->
<g id="Node000016" class="node">
<title>Node16</title>
<g id="a_Node000016"><a xlink:title=" ">
<polygon fill="#e0e0e0" stroke="#999999" points="450,-129 386,-129 386,-110 450,-110 450,-129"/>
<text text-anchor="middle" x="418" y="-117" font-family="Helvetica,sans-Serif" font-size="10.00">algorithm</text>
</a>
</g>
</g>
<!-- Node15&#45;&gt;Node16 -->
<g id="edge15_Node000015_Node000016" class="edge">
<title>Node15&#45;&gt;Node16</title>
<g id="a_edge15_Node000015_Node000016"><a xlink:title=" ">
<path fill="none" stroke="#63b8ff" d="M418,-170.37C418,-162.25 418,-149.81 418,-139.39"/>
<polygon fill="#63b8ff" stroke="#63b8ff" points="421.5,-139.17 418,-129.17 414.5,-139.17 421.5,-139.17"/>
</a>
</g>
</g>
<!-- Node18&#45;&gt;Node5 -->
<g id="edge30_Node000018_Node000005" class="edge">
<title>Node18&#45;&gt;Node5</title>
<g id="a_edge30_Node000018_Node000005"><a xlink:title=" ">
<path fill="none" stroke="#63b8ff" d="M160.29,-340.98C145.32,-317.33 113.22,-268.4 81,-231 70.42,-218.72 57.25,-206.08 46.81,-196.58"/>
<polygon fill="#63b8ff" stroke="#63b8ff" points="48.91,-193.76 39.13,-189.7 44.24,-198.98 48.91,-193.76"/>
</a>
</g>
</g>
<!-- Node18&#45;&gt;Node19 -->
<g id="edge18_Node000018_Node000019" class="edge">
<title>Node18&#45;&gt;Node19</title>
<g id="a_edge18_Node000018_Node000019"><a xlink:title=" ">
<path fill="none" stroke="#63b8ff" d="M207.08,-340.99C233.85,-331.14 269.3,-318.1 294.89,-308.68"/>
<polygon fill="#63b8ff" stroke="#63b8ff" points="296.34,-311.88 304.52,-305.14 293.93,-305.31 296.34,-311.88"/>
</a>
</g>
</g>
<!-- Node25 -->
<g id="Node000025" class="node">
<title>Node25</title>
<g id="a_Node000025"><a xlink:title=" ">
<polygon fill="#e0e0e0" stroke="#999999" points="227,-305 171,-305 171,-286 227,-286 227,-305"/>
<text text-anchor="middle" x="199" y="-293" font-family="Helvetica,sans-Serif" font-size="10.00">optional</text>
</a>
</g>
</g>
<!-- Node18&#45;&gt;Node25 -->
<g id="edge31_Node000018_Node000025" class="edge">
<title>Node18&#45;&gt;Node25</title>
<g id="a_edge31_Node000018_Node000025"><a xlink:title=" ">
<path fill="none" stroke="#63b8ff" d="M176.26,-340.84C180.35,-332.87 185.49,-322.84 189.86,-314.33"/>
<polygon fill="#63b8ff" stroke="#63b8ff" points="193.06,-315.76 194.5,-305.27 186.83,-312.57 193.06,-315.76"/>
</a>
</g>
</g>
<!-- Node26 -->
<g id="Node000026" class="node">
<title>Node26</title>
<g id="a_Node000026"><a xlink:href="Ray_8hpp.html" target="_top" xlink:title=" ">
<polygon fill="white" stroke="#666666" points="342,-195 228,-195 228,-165 342,-165 342,-195"/>
<text text-anchor="start" x="236" y="-183" font-family="Helvetica,sans-Serif" font-size="10.00">../../../Geometry/Ray</text>
<text text-anchor="middle" x="285" y="-172" font-family="Helvetica,sans-Serif" font-size="10.00">/Ray.hpp</text>
</a>
</g>
</g>
<!-- Node18&#45;&gt;Node26 -->
<g id="edge32_Node000018_Node000026" class="edge">
<title>Node18&#45;&gt;Node26</title>
<g id="a_edge32_Node000018_Node000026"><a xlink:title=" ">
<path fill="none" stroke="#63b8ff" d="M163.57,-340.86C158.92,-326.44 154.12,-303.71 162,-286 179.17,-247.41 218.63,-217.91 248.26,-200.15"/>
<polygon fill="#63b8ff" stroke="#63b8ff" points="250.21,-203.06 257.11,-195.02 246.7,-197.01 250.21,-203.06"/>
</a>
</g>
</g>
<!-- Node19&#45;&gt;Node15 -->
<g id="edge19_Node000019_Node000015" class="edge">
<title>Node19&#45;&gt;Node15</title>
<g id="a_edge19_Node000019_Node000015"><a xlink:title=" ">
<path fill="none" stroke="#63b8ff" d="M333.16,-285.98C340.85,-273.5 356.03,-249.71 371,-231 380.54,-219.08 392.3,-206.57 401.67,-197.04"/>
<polygon fill="#63b8ff" stroke="#63b8ff" points="404.29,-199.37 408.88,-189.82 399.34,-194.42 404.29,-199.37"/>
</a>
</g>
</g>
<!-- Node19&#45;&gt;Node17 -->
<g id="edge29_Node000019_Node000017" class="edge">
<title>Node19&#45;&gt;Node17</title>
<g id="a_edge29_Node000019_Node000017"><a xlink:title=" ">
<path fill="none" stroke="#63b8ff" d="M339.89,-285.85C357.47,-273.2 391.58,-249.2 422,-231 444.44,-217.57 470.81,-203.84 490.07,-194.18"/>
<polygon fill="#63b8ff" stroke="#63b8ff" points="491.78,-197.24 499.17,-189.65 488.66,-190.97 491.78,-197.24"/>
</a>
</g>
</g>
<!-- Node19&#45;&gt;Node20 -->
<g id="edge20_Node000019_Node000020" class="edge">
<title>Node19&#45;&gt;Node20</title>
<g id="a_edge20_Node000019_Node000020"><a xlink:title=" ">
<path fill="none" stroke="#63b8ff" d="M317.88,-285.98C308.56,-278.15 294.53,-266.34 283.26,-256.86"/>
<polygon fill="#63b8ff" stroke="#63b8ff" points="285.21,-253.93 275.31,-250.17 280.71,-259.29 285.21,-253.93"/>
</a>
</g>
</g>
<!-- Node20&#45;&gt;Node5 -->
<g id="edge28_Node000020_Node000005" class="edge">
<title>Node20&#45;&gt;Node5</title>
<g id="a_edge28_Node000020_Node000005"><a xlink:title=" ">
<path fill="none" stroke="#63b8ff" d="M232.43,-233.55C192.91,-226.02 124.44,-211.96 67,-195 64.86,-194.37 62.67,-193.68 60.48,-192.96"/>
<polygon fill="#63b8ff" stroke="#63b8ff" points="61.53,-189.62 50.94,-189.64 59.23,-196.23 61.53,-189.62"/>
</a>
</g>
</g>
<!-- Node20&#45;&gt;Node15 -->
<g id="edge26_Node000020_Node000015" class="edge">
<title>Node20&#45;&gt;Node15</title>
<g id="a_edge26_Node000020_Node000015"><a xlink:title=" ">
<path fill="none" stroke="#63b8ff" d="M287.25,-230.99C313.31,-221.03 356.68,-204.45 386.27,-193.13"/>
<polygon fill="#63b8ff" stroke="#63b8ff" points="387.64,-196.36 395.73,-189.52 385.14,-189.82 387.64,-196.36"/>
</a>
</g>
</g>
<!-- Node20&#45;&gt;Node17 -->
<g id="edge27_Node000020_Node000017" class="edge">
<title>Node20&#45;&gt;Node17</title>
<g id="a_edge27_Node000020_Node000017"><a xlink:title=" ">
<path fill="none" stroke="#63b8ff" d="M297.8,-234.94C341.07,-228.45 419.34,-215.06 484,-195 485.68,-194.48 487.38,-193.91 489.09,-193.29"/>
<polygon fill="#63b8ff" stroke="#63b8ff" points="490.71,-196.42 498.74,-189.52 488.16,-189.9 490.71,-196.42"/>
</a>
</g>
</g>
<!-- Node21 -->
<g id="Node000021" class="node">
<title>Node21</title>
<g id="a_Node000021"><a xlink:href="HitRecord_8hpp.html" target="_top" xlink:title=" ">
<polygon fill="white" stroke="#666666" points="210,-195 76,-195 76,-165 210,-165 210,-195"/>
<text text-anchor="start" x="84" y="-183" font-family="Helvetica,sans-Serif" font-size="10.00">../../Geometry/HitRecord</text>
<text text-anchor="middle" x="143" y="-172" font-family="Helvetica,sans-Serif" font-size="10.00">/HitRecord.hpp</text>
</a>
</g>
</g>
<!-- Node20&#45;&gt;Node21 -->
<g id="edge21_Node000020_Node000021" class="edge">
<title>Node20&#45;&gt;Node21</title>
<g id="a_edge21_Node000020_Node000021"><a xlink:title=" ">
<path fill="none" stroke="#63b8ff" d="M247.26,-230.99C230.14,-222.79 203.66,-210.09 181.68,-199.55"/>
<polygon fill="#63b8ff" stroke="#63b8ff" points="183.1,-196.35 172.57,-195.18 180.07,-202.66 183.1,-196.35"/>
</a>
</g>
</g>
<!-- Node22 -->
<g id="Node000022" class="node">
<title>Node22</title>
<g id="a_Node000022"><a xlink:href="Point3D_8hpp.html" target="_top" xlink:title=" ">
<polygon fill="white" stroke="#666666" points="277,-129 151,-129 151,-110 277,-110 277,-129"/>
<text text-anchor="middle" x="214" y="-117" font-family="Helvetica,sans-Serif" font-size="10.00">../Point3D/Point3D.hpp</text>
</a>
</g>
</g>
<!-- Node21&#45;&gt;Node22 -->
<g id="edge22_Node000021_Node000022" class="edge">
<title>Node21&#45;&gt;Node22</title>
<g id="a_edge22_Node000021_Node000022"><a xlink:title=" ">
<path fill="none" stroke="#63b8ff" d="M160.19,-164.84C170.81,-156.09 184.44,-144.85 195.33,-135.88"/>
<polygon fill="#63b8ff" stroke="#63b8ff" points="197.87,-138.33 203.36,-129.27 193.42,-132.92 197.87,-138.33"/>
</a>
</g>
</g>
<!-- Node23 -->
<g id="Node000023" class="node">
<title>Node23</title>
<g id="a_Node000023"><a xlink:href="Vector3D_8hpp.html" target="_top" xlink:title=" ">
<polygon fill="white" stroke="#666666" points="283,-74 145,-74 145,-55 283,-55 283,-74"/>
<text text-anchor="middle" x="214" y="-62" font-family="Helvetica,sans-Serif" font-size="10.00">../Vector3D/Vector3D.hpp</text>
</a>
</g>
</g>
<!-- Node21&#45;&gt;Node23 -->
<g id="edge25_Node000021_Node000023" class="edge">
<title>Node21&#45;&gt;Node23</title>
<g id="a_edge25_Node000021_Node000023"><a xlink:title=" ">
<path fill="none" stroke="#63b8ff" d="M138.87,-164.78C135.46,-150.08 132.55,-126.95 142,-110 150.04,-95.58 164.9,-85.24 179.04,-78.18"/>
<polygon fill="#63b8ff" stroke="#63b8ff" points="180.51,-81.36 188.15,-74.01 177.6,-74.99 180.51,-81.36"/>
</a>
</g>
</g>
<!-- Node22&#45;&gt;Node23 -->
<g id="edge23_Node000022_Node000023" class="edge">
<title>Node22&#45;&gt;Node23</title>
<g id="a_edge23_Node000022_Node000023"><a xlink:title=" ">
<path fill="none" stroke="#63b8ff" d="M214,-109.75C214,-102.8 214,-92.85 214,-84.13"/>
<polygon fill="#63b8ff" stroke="#63b8ff" points="217.5,-84.09 214,-74.09 210.5,-84.09 217.5,-84.09"/>
</a>
</g>
</g>
<!-- Node24 -->
<g id="Node000024" class="node">
<title>Node24</title>
<g id="a_Node000024"><a xlink:title=" ">
<polygon fill="#e0e0e0" stroke="#999999" points="239.5,-19 188.5,-19 188.5,0 239.5,0 239.5,-19"/>
<text text-anchor="middle" x="214" y="-7" font-family="Helvetica,sans-Serif" font-size="10.00">math.h</text>
</a>
</g>
</g>
<!-- Node23&#45;&gt;Node24 -->
<g id="edge24_Node000023_Node000024" class="edge">
<title>Node23&#45;&gt;Node24</title>
<g id="a_edge24_Node000023_Node000024"><a xlink:title=" ">
<path fill="none" stroke="#63b8ff" d="M214,-54.75C214,-47.8 214,-37.85 214,-29.13"/>
<polygon fill="#63b8ff" stroke="#63b8ff" points="217.5,-29.09 214,-19.09 210.5,-29.09 217.5,-29.09"/>
</a>
</g>
</g>
<!-- Node26&#45;&gt;Node22 -->
<g id="edge33_Node000026_Node000022" class="edge">
<title>Node26&#45;&gt;Node22</title>
<g id="a_edge33_Node000026_Node000022"><a xlink:title=" ">
<path fill="none" stroke="#63b8ff" d="M267.81,-164.84C257.19,-156.09 243.56,-144.85 232.67,-135.88"/>
<polygon fill="#63b8ff" stroke="#63b8ff" points="234.58,-132.92 224.64,-129.27 230.13,-138.33 234.58,-132.92"/>
</a>
</g>
</g>
<!-- Node26&#45;&gt;Node23 -->
<g id="edge34_Node000026_Node000023" class="edge">
<title>Node26&#45;&gt;Node23</title>
<g id="a_edge34_Node000026_Node000023"><a xlink:title=" ">
<path fill="none" stroke="#63b8ff" d="M289.13,-164.78C292.54,-150.08 295.45,-126.95 286,-110 277.96,-95.58 263.1,-85.24 248.96,-78.18"/>
<polygon fill="#63b8ff" stroke="#63b8ff" points="250.4,-74.99 239.85,-74.01 247.49,-81.36 250.4,-74.99"/>
</a>
</g>
</g>
<!-- Node27&#45;&gt;Node3 -->
<g id="edge42_Node000027_Node000003" class="edge">
<title>Node27&#45;&gt;Node3</title>
<g id="a_edge42_Node000027_Node000003"><a xlink:title=" ">
<path fill="none" stroke="#63b8ff" d="M774.86,-461.98C704.71,-452.52 591.63,-437.27 517.81,-427.32"/>
<polygon fill="#63b8ff" stroke="#63b8ff" points="518.04,-423.82 507.66,-425.95 517.1,-430.76 518.04,-423.82"/>
</a>
</g>
</g>
<!-- Node27&#45;&gt;Node10 -->
<g id="edge41_Node000027_Node000010" class="edge">
<title>Node27&#45;&gt;Node10</title>
<g id="a_edge41_Node000027_Node000010"><a xlink:title=" ">
<path fill="none" stroke="#63b8ff" d="M841.33,-461.73C848.91,-440.42 865.7,-384.45 851,-341 847.44,-330.47 840.28,-320.48 833.45,-312.63"/>
<polygon fill="#63b8ff" stroke="#63b8ff" points="835.99,-310.23 826.61,-305.31 830.87,-315.01 835.99,-310.23"/>
</a>
</g>
</g>
<!-- Node28 -->
<g id="Node000028" class="node">
<title>Node28</title>
<g id="a_Node000028"><a xlink:title=" ">
<polygon fill="#e0e0e0" stroke="#999999" points="916,-426 866,-426 866,-407 916,-407 916,-426"/>
<text text-anchor="middle" x="891" y="-414" font-family="Helvetica,sans-Serif" font-size="10.00">dlfcn.h</text>
</a>
</g>
</g>
<!-- Node27&#45;&gt;Node28 -->
<g id="edge39_Node000027_Node000028" class="edge">
<title>Node27&#45;&gt;Node28</title>
<g id="a_edge39_Node000027_Node000028"><a xlink:title=" ">
<path fill="none" stroke="#63b8ff" d="M846.75,-461.75C854.47,-454.03 865.9,-442.6 875.22,-433.28"/>
<polygon fill="#63b8ff" stroke="#63b8ff" points="877.81,-435.64 882.41,-426.09 872.86,-430.69 877.81,-435.64"/>
</a>
</g>
</g>
<!-- Node29 -->
<g id="Node000029" class="node">
<title>Node29</title>
<g id="a_Node000029"><a xlink:title=" ">
<polygon fill="#e0e0e0" stroke="#999999" points="988,-426 934,-426 934,-407 988,-407 988,-426"/>
<text text-anchor="middle" x="961" y="-414" font-family="Helvetica,sans-Serif" font-size="10.00">dirent.h</text>
</a>
</g>
</g>
<!-- Node27&#45;&gt;Node29 -->
<g id="edge40_Node000027_Node000029" class="edge">
<title>Node27&#45;&gt;Node29</title>
<g id="a_edge40_Node000027_Node000029"><a xlink:title=" ">
<path fill="none" stroke="#63b8ff" d="M857.76,-461.98C877.73,-453.38 908.8,-439.99 931.65,-430.15"/>
<polygon fill="#63b8ff" stroke="#63b8ff" points="933.08,-433.34 940.88,-426.17 930.31,-426.91 933.08,-433.34"/>
</a>
</g>
</g>
</g>
</svg>

<g id="navigator" transform="translate(0 0)" fill="#404254">
  <rect fill="#f2f5e9" fill-opacity="0.5" stroke="#606060" stroke-width=".5" x="0" y="0" width="60" height="60"/>
  <use id="zoomplus" xlink:href="#zoomPlus" x="17" y="9" onmousedown="handleZoom(evt,'in')"/>
  <use id="zoomminus" xlink:href="#zoomMin" x="42" y="9" onmousedown="handleZoom(evt,'out')"/>
  <use id="reset" xlink:href="#resetDef" x="30" y="36" onmousedown="handleReset()"/>
   <use id="arrowup" xlink:href="#arrowUp" x="0" y="0" onmousedown="handlePan(0,-1)"/>
  <use id="arrowright" xlink:href="#arrowRight" x="0" y="0" onmousedown="handlePan(1,0)"/>
  <use id="arrowdown" xlink:href="#arrowDown" x="0" y="0" onmousedown="handlePan(0,1)"/>
  <use id="arrowleft" xlink:href="#arrowLeft" x="0" y="0" onmousedown="handlePan(-1,0)"/>
</g>
<svg viewBox="0 0 15 15" width="100%" height="30px" preserveAspectRatio="xMaxYMin meet">
 <g id="arrow_out" transform="scale(0.3 0.3)">
  <a xlink:href="Scene_8cpp__incl_org.svg" target="_base">
   <rect id="button" ry="5" rx="5" y="6" x="6" height="38" width="38"
        fill="#f2f5e9" fill-opacity="0.5" stroke="#606060" stroke-width="1.0"/>
   <path id="arrow"
     d="M 11.500037,31.436501 C 11.940474,20.09759 22.043105,11.32322 32.158766,21.979434 L 37.068811,17.246167 C 37.068811,17.246167 37.088388,32 37.088388,32 L 22.160133,31.978069 C 22.160133,31.978069 26.997745,27.140456 26.997745,27.140456 C 18.528582,18.264221 13.291696,25.230495 11.500037,31.436501 z"
     style="fill:#404040;"/>
  </a>
 </g>
</svg>

<style type='text/css'>
<![CDATA[
[data-mouse-over-selected='false'] { opacity: 0.7; }
[data-mouse-over-selected='true']  { opacity: 1.0; }
]]>
</style>
<script type="application/ecmascript"><![CDATA[
document.addEventListener('DOMContentLoaded', (event) => {
  highlightEdges();
  highlightAdjacentNodes();
});
]]></script>
</svg>
