<?xml version="1.0" encoding="UTF-8" standalone="no"?>
<!DOCTYPE svg PUBLIC "-//W3C//DTD SVG 1.1//EN"
 "http://www.w3.org/Graphics/SVG/1.1/DTD/svg11.dtd">
<!-- Generated by graphviz version 2.43.0 (0)
 -->
<!-- Title: src/Objects/Plugins/Interfaces/SceneWriter/SceneWriter.cpp Pages: 1 -->
<svg width="1011pt" height="423pt"
 viewBox="0.00 0.00 1011.00 423.00" xmlns="http://www.w3.org/2000/svg" xmlns:xlink="http://www.w3.org/1999/xlink">
<g id="graph0" class="graph" transform="scale(1 1) rotate(0) translate(4 419)">
<title>src/Objects/Plugins/Interfaces/SceneWriter/SceneWriter.cpp</title>
<!-- Node1 -->
<g id="Node000001" class="node">
<title>Node1</title>
<g id="a_Node000001"><a xlink:title=" ">
<polygon fill="#999999" stroke="#666666" points="337,-415 206,-415 206,-374 337,-374 337,-415"/>
<text text-anchor="start" x="214" y="-403" font-family="Helvetica,sans-Serif" font-size="10.00">src/Objects/Plugins</text>
<text text-anchor="start" x="214" y="-392" font-family="Helvetica,sans-Serif" font-size="10.00">/Interfaces/SceneWriter</text>
<text text-anchor="middle" x="271.5" y="-381" font-family="Helvetica,sans-Serif" font-size="10.00">/SceneWriter.cpp</text>
</a>
</g>
</g>
<!-- Node2 -->
<g id="Node000002" class="node">
<title>Node2</title>
<g id="a_Node000002"><a xlink:href="SceneWriter_8hpp.html" target="_top" xlink:title=" ">
<polygon fill="white" stroke="#666666" points="251.5,-332.5 155.5,-332.5 155.5,-313.5 251.5,-313.5 251.5,-332.5"/>
<text text-anchor="middle" x="203.5" y="-320.5" font-family="Helvetica,sans-Serif" font-size="10.00">SceneWriter.hpp</text>
</a>
</g>
</g>
<!-- Node1&#45;&gt;Node2 -->
<g id="edge1_Node000001_Node000002" class="edge">
<title>Node1&#45;&gt;Node2</title>
<g id="a_edge1_Node000001_Node000002"><a xlink:title=" ">
<path fill="none" stroke="#63b8ff" d="M252.2,-373.77C241.79,-363.13 229.1,-350.16 219.29,-340.13"/>
<polygon fill="#63b8ff" stroke="#63b8ff" points="221.62,-337.52 212.13,-332.82 216.62,-342.42 221.62,-337.52"/>
</a>
</g>
</g>
<!-- Node5 -->
<g id="Node000005" class="node">
<title>Node5</title>
<g id="a_Node000005"><a xlink:href="Color_8hpp.html" target="_top" xlink:title=" ">
<polygon fill="white" stroke="#666666" points="115,-134.5 0,-134.5 0,-115.5 115,-115.5 115,-134.5"/>
<text text-anchor="middle" x="57.5" y="-122.5" font-family="Helvetica,sans-Serif" font-size="10.00">../../../Utils/Color.hpp</text>
</a>
</g>
</g>
<!-- Node1&#45;&gt;Node5 -->
<g id="edge30_Node000001_Node000005" class="edge">
<title>Node1&#45;&gt;Node5</title>
<g id="a_edge30_Node000001_Node000005"><a xlink:title=" ">
<path fill="none" stroke="#63b8ff" d="M205.94,-383.46C143.43,-370.01 52.75,-339.46 10.5,-272 -16.03,-229.64 21.61,-170.92 43.58,-142.59"/>
<polygon fill="#63b8ff" stroke="#63b8ff" points="46.53,-144.51 50.06,-134.52 41.07,-140.13 46.53,-144.51"/>
</a>
</g>
</g>
<!-- Node9 -->
<g id="Node000009" class="node">
<title>Node9</title>
<g id="a_Node000009"><a xlink:href="Scene_8hpp.html" target="_top" xlink:title=" ">
<polygon fill="white" stroke="#666666" points="400,-338 281,-338 281,-308 400,-308 400,-338"/>
<text text-anchor="start" x="289" y="-326" font-family="Helvetica,sans-Serif" font-size="10.00">../../../../SceneSystem</text>
<text text-anchor="middle" x="340.5" y="-315" font-family="Helvetica,sans-Serif" font-size="10.00">/Scene/Scene.hpp</text>
</a>
</g>
</g>
<!-- Node1&#45;&gt;Node9 -->
<g id="edge8_Node000001_Node000009" class="edge">
<title>Node1&#45;&gt;Node9</title>
<g id="a_edge8_Node000001_Node000009"><a xlink:title=" ">
<path fill="none" stroke="#63b8ff" d="M291.09,-373.77C299.93,-364.87 310.39,-354.33 319.4,-345.25"/>
<polygon fill="#63b8ff" stroke="#63b8ff" points="322,-347.6 326.56,-338.04 317.03,-342.67 322,-347.6"/>
</a>
</g>
</g>
<!-- Node22 -->
<g id="Node000022" class="node">
<title>Node22</title>
<g id="a_Node000022"><a xlink:title=" ">
<polygon fill="#e0e0e0" stroke="#999999" points="473,-332.5 418,-332.5 418,-313.5 473,-313.5 473,-332.5"/>
<text text-anchor="middle" x="445.5" y="-320.5" font-family="Helvetica,sans-Serif" font-size="10.00">fstream</text>
</a>
</g>
</g>
<!-- Node1&#45;&gt;Node22 -->
<g id="edge31_Node000001_Node000022" class="edge">
<title>Node1&#45;&gt;Node22</title>
<g id="a_edge31_Node000001_Node000022"><a xlink:title=" ">
<path fill="none" stroke="#63b8ff" d="M320.43,-373.96C350.74,-361.85 388.72,-346.68 414.83,-336.25"/>
<polygon fill="#63b8ff" stroke="#63b8ff" points="416.22,-339.46 424.21,-332.5 413.63,-332.96 416.22,-339.46"/>
</a>
</g>
</g>
<!-- Node3 -->
<g id="Node000003" class="node">
<title>Node3</title>
<g id="a_Node000003"><a xlink:href="AInterface_8hpp.html" target="_top" xlink:title=" ">
<polygon fill="white" stroke="#666666" points="163.5,-272 19.5,-272 19.5,-242 163.5,-242 163.5,-272"/>
<text text-anchor="start" x="27.5" y="-260" font-family="Helvetica,sans-Serif" font-size="10.00">../../../Abstracts</text>
<text text-anchor="middle" x="91.5" y="-249" font-family="Helvetica,sans-Serif" font-size="10.00">/AInterface/AInterface.hpp</text>
</a>
</g>
</g>
<!-- Node2&#45;&gt;Node3 -->
<g id="edge2_Node000002_Node000003" class="edge">
<title>Node2&#45;&gt;Node3</title>
<g id="a_edge2_Node000002_Node000003"><a xlink:title=" ">
<path fill="none" stroke="#63b8ff" d="M188.4,-313.37C172.27,-304.16 146.2,-289.26 125.16,-277.24"/>
<polygon fill="#63b8ff" stroke="#63b8ff" points="126.62,-274.04 116.2,-272.12 123.15,-280.12 126.62,-274.04"/>
</a>
</g>
</g>
<!-- Node8 -->
<g id="Node000008" class="node">
<title>Node8</title>
<g id="a_Node000008"><a xlink:title=" ">
<polygon fill="#e0e0e0" stroke="#999999" points="225.5,-266.5 181.5,-266.5 181.5,-247.5 225.5,-247.5 225.5,-266.5"/>
<text text-anchor="middle" x="203.5" y="-254.5" font-family="Helvetica,sans-Serif" font-size="10.00">string</text>
</a>
</g>
</g>
<!-- Node2&#45;&gt;Node8 -->
<g id="edge7_Node000002_Node000008" class="edge">
<title>Node2&#45;&gt;Node8</title>
<g id="a_edge7_Node000002_Node000008"><a xlink:title=" ">
<path fill="none" stroke="#63b8ff" d="M203.5,-313.37C203.5,-304.16 203.5,-289.29 203.5,-277.27"/>
<polygon fill="#63b8ff" stroke="#63b8ff" points="207,-276.91 203.5,-266.91 200,-276.91 207,-276.91"/>
</a>
</g>
</g>
<!-- Node4 -->
<g id="Node000004" class="node">
<title>Node4</title>
<g id="a_Node000004"><a xlink:href="ARenderer_8hpp.html" target="_top" xlink:title=" ">
<polygon fill="white" stroke="#666666" points="198,-200.5 47,-200.5 47,-181.5 198,-181.5 198,-200.5"/>
<text text-anchor="middle" x="122.5" y="-188.5" font-family="Helvetica,sans-Serif" font-size="10.00">../ARenderer/ARenderer.hpp</text>
</a>
</g>
</g>
<!-- Node3&#45;&gt;Node4 -->
<g id="edge3_Node000003_Node000004" class="edge">
<title>Node3&#45;&gt;Node4</title>
<g id="a_edge3_Node000003_Node000004"><a xlink:title=" ">
<path fill="none" stroke="#63b8ff" d="M98.38,-241.8C102.93,-232.41 108.93,-220.02 113.81,-209.95"/>
<polygon fill="#63b8ff" stroke="#63b8ff" points="117.01,-211.37 118.22,-200.84 110.71,-208.32 117.01,-211.37"/>
</a>
</g>
</g>
<!-- Node4&#45;&gt;Node5 -->
<g id="edge4_Node000004_Node000005" class="edge">
<title>Node4&#45;&gt;Node5</title>
<g id="a_edge4_Node000004_Node000005"><a xlink:title=" ">
<path fill="none" stroke="#63b8ff" d="M113.73,-181.37C103.52,-171.31 86.42,-154.48 73.76,-142.01"/>
<polygon fill="#63b8ff" stroke="#63b8ff" points="76.13,-139.43 66.54,-134.91 71.21,-144.42 76.13,-139.43"/>
</a>
</g>
</g>
<!-- Node7 -->
<g id="Node000007" class="node">
<title>Node7</title>
<g id="a_Node000007"><a xlink:title=" ">
<polygon fill="#e0e0e0" stroke="#999999" points="275,-134.5 228,-134.5 228,-115.5 275,-115.5 275,-134.5"/>
<text text-anchor="middle" x="251.5" y="-122.5" font-family="Helvetica,sans-Serif" font-size="10.00">vector</text>
</a>
</g>
</g>
<!-- Node4&#45;&gt;Node7 -->
<g id="edge6_Node000004_Node000007" class="edge">
<title>Node4&#45;&gt;Node7</title>
<g id="a_edge6_Node000004_Node000007"><a xlink:title=" ">
<path fill="none" stroke="#63b8ff" d="M139.9,-181.37C161.73,-170.54 199.39,-151.85 224.86,-139.22"/>
<polygon fill="#63b8ff" stroke="#63b8ff" points="226.56,-142.28 233.97,-134.7 223.45,-136.01 226.56,-142.28"/>
</a>
</g>
</g>
<!-- Node6 -->
<g id="Node000006" class="node">
<title>Node6</title>
<g id="a_Node000006"><a xlink:title=" ">
<polygon fill="#e0e0e0" stroke="#999999" points="89.5,-74 25.5,-74 25.5,-55 89.5,-55 89.5,-74"/>
<text text-anchor="middle" x="57.5" y="-62" font-family="Helvetica,sans-Serif" font-size="10.00">algorithm</text>
</a>
</g>
</g>
<!-- Node5&#45;&gt;Node6 -->
<g id="edge5_Node000005_Node000006" class="edge">
<title>Node5&#45;&gt;Node6</title>
<g id="a_edge5_Node000005_Node000006"><a xlink:title=" ">
<path fill="none" stroke="#63b8ff" d="M57.5,-115.37C57.5,-107.25 57.5,-94.81 57.5,-84.39"/>
<polygon fill="#63b8ff" stroke="#63b8ff" points="61,-84.17 57.5,-74.17 54,-84.17 61,-84.17"/>
</a>
</g>
</g>
<!-- Node9&#45;&gt;Node7 -->
<g id="edge28_Node000009_Node000007" class="edge">
<title>Node9&#45;&gt;Node7</title>
<g id="a_edge28_Node000009_Node000007"><a xlink:title=" ">
<path fill="none" stroke="#63b8ff" d="M311.66,-307.85C297.56,-299.41 281.69,-287.34 272.5,-272 248.33,-231.66 248.03,-174.08 249.79,-144.74"/>
<polygon fill="#63b8ff" stroke="#63b8ff" points="253.29,-144.89 250.55,-134.65 246.31,-144.36 253.29,-144.89"/>
</a>
</g>
</g>
<!-- Node10 -->
<g id="Node000010" class="node">
<title>Node10</title>
<g id="a_Node000010"><a xlink:href="SceneSystem_2Camera_2Camera_8hpp.html" target="_top" xlink:title=" ">
<polygon fill="white" stroke="#666666" points="755.5,-266.5 629.5,-266.5 629.5,-247.5 755.5,-247.5 755.5,-266.5"/>
<text text-anchor="middle" x="692.5" y="-254.5" font-family="Helvetica,sans-Serif" font-size="10.00">../Camera/Camera.hpp</text>
</a>
</g>
</g>
<!-- Node9&#45;&gt;Node10 -->
<g id="edge9_Node000009_Node000010" class="edge">
<title>Node9&#45;&gt;Node10</title>
<g id="a_edge9_Node000009_Node000010"><a xlink:title=" ">
<path fill="none" stroke="#63b8ff" d="M400.18,-309.59C402.99,-309.04 405.78,-308.51 408.5,-308 502.43,-290.36 526.48,-289.12 620.5,-272 626.67,-270.88 633.12,-269.67 639.53,-268.45"/>
<polygon fill="#63b8ff" stroke="#63b8ff" points="640.35,-271.86 649.51,-266.53 639.03,-264.98 640.35,-271.86"/>
</a>
</g>
</g>
<!-- Node19 -->
<g id="Node000019" class="node">
<title>Node19</title>
<g id="a_Node000019"><a xlink:title=" ">
<polygon fill="#e0e0e0" stroke="#999999" points="399.5,-272 281.5,-272 281.5,-242 399.5,-242 399.5,-272"/>
<text text-anchor="start" x="289.5" y="-260" font-family="Helvetica,sans-Serif" font-size="10.00">../../Objects/Interface</text>
<text text-anchor="middle" x="340.5" y="-249" font-family="Helvetica,sans-Serif" font-size="10.00">/IPrimitive.hpp</text>
</a>
</g>
</g>
<!-- Node9&#45;&gt;Node19 -->
<g id="edge26_Node000009_Node000019" class="edge">
<title>Node9&#45;&gt;Node19</title>
<g id="a_edge26_Node000009_Node000019"><a xlink:title=" ">
<path fill="none" stroke="#63b8ff" d="M340.5,-307.8C340.5,-300.34 340.5,-290.99 340.5,-282.41"/>
<polygon fill="#63b8ff" stroke="#63b8ff" points="344,-282.16 340.5,-272.16 337,-282.16 344,-282.16"/>
</a>
</g>
</g>
<!-- Node20 -->
<g id="Node000020" class="node">
<title>Node20</title>
<g id="a_Node000020"><a xlink:title=" ">
<polygon fill="#e0e0e0" stroke="#999999" points="535.5,-272 417.5,-272 417.5,-242 535.5,-242 535.5,-272"/>
<text text-anchor="start" x="425.5" y="-260" font-family="Helvetica,sans-Serif" font-size="10.00">../../Objects/Interface</text>
<text text-anchor="middle" x="476.5" y="-249" font-family="Helvetica,sans-Serif" font-size="10.00">/ILight.hpp</text>
</a>
</g>
</g>
<!-- Node9&#45;&gt;Node20 -->
<g id="edge27_Node000009_Node000020" class="edge">
<title>Node9&#45;&gt;Node20</title>
<g id="a_edge27_Node000009_Node000020"><a xlink:title=" ">
<path fill="none" stroke="#63b8ff" d="M370.35,-307.95C390.1,-298.66 416.2,-286.38 437.58,-276.32"/>
<polygon fill="#63b8ff" stroke="#63b8ff" points="439.17,-279.44 446.72,-272.01 436.19,-273.1 439.17,-279.44"/>
</a>
</g>
</g>
<!-- Node21 -->
<g id="Node000021" class="node">
<title>Node21</title>
<g id="a_Node000021"><a xlink:title=" ">
<polygon fill="#e0e0e0" stroke="#999999" points="611.5,-266.5 553.5,-266.5 553.5,-247.5 611.5,-247.5 611.5,-266.5"/>
<text text-anchor="middle" x="582.5" y="-254.5" font-family="Helvetica,sans-Serif" font-size="10.00">memory</text>
</a>
</g>
</g>
<!-- Node9&#45;&gt;Node21 -->
<g id="edge29_Node000009_Node000021" class="edge">
<title>Node9&#45;&gt;Node21</title>
<g id="a_edge29_Node000009_Node000021"><a xlink:title=" ">
<path fill="none" stroke="#63b8ff" d="M400.34,-309.2C441.26,-299.99 496.55,-286.66 544.5,-272 546.63,-271.35 548.82,-270.64 551.01,-269.91"/>
<polygon fill="#63b8ff" stroke="#63b8ff" points="552.26,-273.18 560.54,-266.57 549.94,-266.57 552.26,-273.18"/>
</a>
</g>
</g>
<!-- Node10&#45;&gt;Node4 -->
<g id="edge10_Node000010_Node000004" class="edge">
<title>Node10&#45;&gt;Node4</title>
<g id="a_edge10_Node000010_Node000004"><a xlink:title=" ">
<path fill="none" stroke="#63b8ff" d="M652.25,-247.5C641.93,-245.5 630.83,-243.52 620.5,-242 476.51,-220.82 307.75,-205.95 208.28,-198.2"/>
<polygon fill="#63b8ff" stroke="#63b8ff" points="208.52,-194.71 198.28,-197.43 207.98,-201.69 208.52,-194.71"/>
</a>
</g>
</g>
<!-- Node11 -->
<g id="Node000011" class="node">
<title>Node11</title>
<g id="a_Node000011"><a xlink:href="Point3D_8hpp.html" target="_top" xlink:title=" ">
<polygon fill="white" stroke="#666666" points="914,-140 789,-140 789,-110 914,-110 914,-140"/>
<text text-anchor="start" x="797" y="-128" font-family="Helvetica,sans-Serif" font-size="10.00">../../Geometry/Point3D</text>
<text text-anchor="middle" x="851.5" y="-117" font-family="Helvetica,sans-Serif" font-size="10.00">/Point3D.hpp</text>
</a>
</g>
</g>
<!-- Node10&#45;&gt;Node11 -->
<g id="edge11_Node000010_Node000011" class="edge">
<title>Node10&#45;&gt;Node11</title>
<g id="a_edge11_Node000010_Node000011"><a xlink:title=" ">
<path fill="none" stroke="#63b8ff" d="M755.84,-253.06C789.67,-247.88 828.73,-235.34 850.5,-206 862.22,-190.2 861.28,-167.4 858.1,-150.18"/>
<polygon fill="#63b8ff" stroke="#63b8ff" points="861.49,-149.31 855.92,-140.29 854.66,-150.81 861.49,-149.31"/>
</a>
</g>
</g>
<!-- Node12 -->
<g id="Node000012" class="node">
<title>Node12</title>
<g id="a_Node000012"><a xlink:href="Vector3D_8hpp.html" target="_top" xlink:title=" ">
<polygon fill="white" stroke="#666666" points="829.5,-74 691.5,-74 691.5,-55 829.5,-55 829.5,-74"/>
<text text-anchor="middle" x="760.5" y="-62" font-family="Helvetica,sans-Serif" font-size="10.00">../Vector3D/Vector3D.hpp</text>
</a>
</g>
</g>
<!-- Node10&#45;&gt;Node12 -->
<g id="edge14_Node000010_Node000012" class="edge">
<title>Node10&#45;&gt;Node12</title>
<g id="a_edge14_Node000010_Node000012"><a xlink:title=" ">
<path fill="none" stroke="#63b8ff" d="M650.56,-247.49C585.52,-234.2 467.44,-209.66 464.5,-206 456.14,-195.61 458.74,-188.03 464.5,-176 502.11,-97.44 606.94,-73.83 681.13,-67.22"/>
<polygon fill="#63b8ff" stroke="#63b8ff" points="681.7,-70.68 691.39,-66.39 681.14,-63.71 681.7,-70.68"/>
</a>
</g>
</g>
<!-- Node14 -->
<g id="Node000014" class="node">
<title>Node14</title>
<g id="a_Node000014"><a xlink:href="Rectangle3D_8hpp.html" target="_top" xlink:title=" ">
<polygon fill="white" stroke="#666666" points="841,-206 700,-206 700,-176 841,-176 841,-206"/>
<text text-anchor="start" x="708" y="-194" font-family="Helvetica,sans-Serif" font-size="10.00">../../Geometry/Rectangle3</text>
<text text-anchor="middle" x="770.5" y="-183" font-family="Helvetica,sans-Serif" font-size="10.00">D/Rectangle3D.hpp</text>
</a>
</g>
</g>
<!-- Node10&#45;&gt;Node14 -->
<g id="edge15_Node000010_Node000014" class="edge">
<title>Node10&#45;&gt;Node14</title>
<g id="a_edge15_Node000010_Node000014"><a xlink:title=" ">
<path fill="none" stroke="#63b8ff" d="M703.02,-247.37C713.8,-238.53 730.95,-224.45 745.27,-212.71"/>
<polygon fill="#63b8ff" stroke="#63b8ff" points="747.79,-215.16 753.3,-206.12 743.35,-209.75 747.79,-215.16"/>
</a>
</g>
</g>
<!-- Node15 -->
<g id="Node000015" class="node">
<title>Node15</title>
<g id="a_Node000015"><a xlink:href="Ray_8hpp.html" target="_top" xlink:title=" ">
<polygon fill="white" stroke="#666666" points="1003,-206 898,-206 898,-176 1003,-176 1003,-206"/>
<text text-anchor="start" x="906" y="-194" font-family="Helvetica,sans-Serif" font-size="10.00">../../Geometry/Ray</text>
<text text-anchor="middle" x="950.5" y="-183" font-family="Helvetica,sans-Serif" font-size="10.00">/Ray.hpp</text>
</a>
</g>
</g>
<!-- Node10&#45;&gt;Node15 -->
<g id="edge18_Node000010_Node000015" class="edge">
<title>Node10&#45;&gt;Node15</title>
<g id="a_edge18_Node000010_Node000015"><a xlink:title=" ">
<path fill="none" stroke="#63b8ff" d="M727.03,-247.44C768.09,-237.25 837.43,-220.05 888,-207.5"/>
<polygon fill="#63b8ff" stroke="#63b8ff" points="888.99,-210.87 897.85,-205.06 887.3,-204.07 888.99,-210.87"/>
</a>
</g>
</g>
<!-- Node16 -->
<g id="Node000016" class="node">
<title>Node16</title>
<g id="a_Node000016"><a xlink:href="HitRecord_8hpp.html" target="_top" xlink:title=" ">
<polygon fill="white" stroke="#666666" points="681.5,-206 547.5,-206 547.5,-176 681.5,-176 681.5,-206"/>
<text text-anchor="start" x="555.5" y="-194" font-family="Helvetica,sans-Serif" font-size="10.00">../../Geometry/HitRecord</text>
<text text-anchor="middle" x="614.5" y="-183" font-family="Helvetica,sans-Serif" font-size="10.00">/HitRecord.hpp</text>
</a>
</g>
</g>
<!-- Node10&#45;&gt;Node16 -->
<g id="edge21_Node000010_Node000016" class="edge">
<title>Node10&#45;&gt;Node16</title>
<g id="a_edge21_Node000010_Node000016"><a xlink:title=" ">
<path fill="none" stroke="#63b8ff" d="M681.98,-247.37C671.2,-238.53 654.05,-224.45 639.73,-212.71"/>
<polygon fill="#63b8ff" stroke="#63b8ff" points="641.65,-209.75 631.7,-206.12 637.21,-215.16 641.65,-209.75"/>
</a>
</g>
</g>
<!-- Node18 -->
<g id="Node000018" class="node">
<title>Node18</title>
<g id="a_Node000018"><a xlink:title=" ">
<polygon fill="#e0e0e0" stroke="#999999" points="529.5,-200.5 473.5,-200.5 473.5,-181.5 529.5,-181.5 529.5,-200.5"/>
<text text-anchor="middle" x="501.5" y="-188.5" font-family="Helvetica,sans-Serif" font-size="10.00">optional</text>
</a>
</g>
</g>
<!-- Node10&#45;&gt;Node18 -->
<g id="edge25_Node000010_Node000018" class="edge">
<title>Node10&#45;&gt;Node18</title>
<g id="a_edge25_Node000010_Node000018"><a xlink:title=" ">
<path fill="none" stroke="#63b8ff" d="M664.83,-247.45C633.9,-237.8 582.39,-221.42 538.5,-206 536.85,-205.42 535.17,-204.82 533.47,-204.2"/>
<polygon fill="#63b8ff" stroke="#63b8ff" points="534.34,-200.79 523.74,-200.61 531.91,-207.36 534.34,-200.79"/>
</a>
</g>
</g>
<!-- Node11&#45;&gt;Node12 -->
<g id="edge12_Node000011_Node000012" class="edge">
<title>Node11&#45;&gt;Node12</title>
<g id="a_edge12_Node000011_Node000012"><a xlink:title=" ">
<path fill="none" stroke="#63b8ff" d="M829.47,-109.84C815.23,-100.68 796.77,-88.82 782.53,-79.66"/>
<polygon fill="#63b8ff" stroke="#63b8ff" points="784.17,-76.56 773.87,-74.09 780.39,-82.45 784.17,-76.56"/>
</a>
</g>
</g>
<!-- Node13 -->
<g id="Node000013" class="node">
<title>Node13</title>
<g id="a_Node000013"><a xlink:title=" ">
<polygon fill="#e0e0e0" stroke="#999999" points="786,-19 735,-19 735,0 786,0 786,-19"/>
<text text-anchor="middle" x="760.5" y="-7" font-family="Helvetica,sans-Serif" font-size="10.00">math.h</text>
</a>
</g>
</g>
<!-- Node12&#45;&gt;Node13 -->
<g id="edge13_Node000012_Node000013" class="edge">
<title>Node12&#45;&gt;Node13</title>
<g id="a_edge13_Node000012_Node000013"><a xlink:title=" ">
<path fill="none" stroke="#63b8ff" d="M760.5,-54.75C760.5,-47.8 760.5,-37.85 760.5,-29.13"/>
<polygon fill="#63b8ff" stroke="#63b8ff" points="764,-29.09 760.5,-19.09 757,-29.09 764,-29.09"/>
</a>
</g>
</g>
<!-- Node14&#45;&gt;Node11 -->
<g id="edge16_Node000014_Node000011" class="edge">
<title>Node14&#45;&gt;Node11</title>
<g id="a_edge16_Node000014_Node000011"><a xlink:title=" ">
<path fill="none" stroke="#63b8ff" d="M788.48,-175.8C799.38,-167.18 813.48,-156.04 825.58,-146.48"/>
<polygon fill="#63b8ff" stroke="#63b8ff" points="827.9,-149.11 833.57,-140.16 823.56,-143.62 827.9,-149.11"/>
</a>
</g>
</g>
<!-- Node14&#45;&gt;Node12 -->
<g id="edge17_Node000014_Node000012" class="edge">
<title>Node14&#45;&gt;Node12</title>
<g id="a_edge17_Node000014_Node000012"><a xlink:title=" ">
<path fill="none" stroke="#63b8ff" d="M769.35,-175.72C767.54,-153.12 764,-109.12 761.99,-84.09"/>
<polygon fill="#63b8ff" stroke="#63b8ff" points="765.48,-83.76 761.19,-74.07 758.5,-84.32 765.48,-83.76"/>
</a>
</g>
</g>
<!-- Node15&#45;&gt;Node11 -->
<g id="edge19_Node000015_Node000011" class="edge">
<title>Node15&#45;&gt;Node11</title>
<g id="a_edge19_Node000015_Node000011"><a xlink:title=" ">
<path fill="none" stroke="#63b8ff" d="M928.53,-175.8C914.81,-166.93 896.97,-155.39 881.9,-145.66"/>
<polygon fill="#63b8ff" stroke="#63b8ff" points="883.71,-142.65 873.41,-140.16 879.91,-148.53 883.71,-142.65"/>
</a>
</g>
</g>
<!-- Node15&#45;&gt;Node12 -->
<g id="edge20_Node000015_Node000012" class="edge">
<title>Node15&#45;&gt;Node12</title>
<g id="a_edge20_Node000015_Node000012"><a xlink:title=" ">
<path fill="none" stroke="#63b8ff" d="M949.64,-175.71C947.8,-157.81 941.95,-127.4 923.5,-110 900.87,-88.67 869.03,-77.37 839.49,-71.46"/>
<polygon fill="#63b8ff" stroke="#63b8ff" points="840.04,-68 829.57,-69.65 838.78,-74.89 840.04,-68"/>
</a>
</g>
</g>
<!-- Node16&#45;&gt;Node11 -->
<g id="edge22_Node000016_Node000011" class="edge">
<title>Node16&#45;&gt;Node11</title>
<g id="a_edge22_Node000016_Node000011"><a xlink:title=" ">
<path fill="none" stroke="#63b8ff" d="M666.51,-175.95C702.78,-166.16 751.35,-153.05 789.61,-142.71"/>
<polygon fill="#63b8ff" stroke="#63b8ff" points="790.87,-146 799.61,-140.01 789.04,-139.24 790.87,-146"/>
</a>
</g>
</g>
<!-- Node16&#45;&gt;Node12 -->
<g id="edge23_Node000016_Node000012" class="edge">
<title>Node16&#45;&gt;Node12</title>
<g id="a_edge23_Node000016_Node000012"><a xlink:title=" ">
<path fill="none" stroke="#63b8ff" d="M634.95,-176C648.73,-166.32 667.12,-152.91 682.5,-140 705.22,-120.93 729.68,-96.94 745.04,-81.42"/>
<polygon fill="#63b8ff" stroke="#63b8ff" points="747.67,-83.73 752.18,-74.14 742.68,-78.83 747.67,-83.73"/>
</a>
</g>
</g>
<!-- Node17 -->
<g id="Node000017" class="node">
<title>Node17</title>
<g id="a_Node000017"><a xlink:title=" ">
<polygon fill="#e0e0e0" stroke="#999999" points="673.5,-140 555.5,-140 555.5,-110 673.5,-110 673.5,-140"/>
<text text-anchor="start" x="563.5" y="-128" font-family="Helvetica,sans-Serif" font-size="10.00">../../Objects/Interface</text>
<text text-anchor="middle" x="614.5" y="-117" font-family="Helvetica,sans-Serif" font-size="10.00">/IMaterial.hpp</text>
</a>
</g>
</g>
<!-- Node16&#45;&gt;Node17 -->
<g id="edge24_Node000016_Node000017" class="edge">
<title>Node16&#45;&gt;Node17</title>
<g id="a_edge24_Node000016_Node000017"><a xlink:title=" ">
<path fill="none" stroke="#63b8ff" d="M614.5,-175.8C614.5,-168.34 614.5,-158.99 614.5,-150.41"/>
<polygon fill="#63b8ff" stroke="#63b8ff" points="618,-150.16 614.5,-140.16 611,-150.16 618,-150.16"/>
</a>
</g>
</g>
</g>
</svg>
