<?xml version="1.0" encoding="UTF-8" standalone="no"?>
<!DOCTYPE svg PUBLIC "-//W3C//DTD SVG 1.1//EN"
 "http://www.w3.org/Graphics/SVG/1.1/DTD/svg11.dtd">
<!-- Generated by graphviz version 2.43.0 (0)
 -->
<!-- Title: src/SceneSystem/Scene/Scene.hpp Pages: 1 -->
<!--zoomable 423 -->

<svg id="main" version="1.1" xmlns="http://www.w3.org/2000/svg" xmlns:xlink="http://www.w3.org/1999/xlink" xml:space="preserve" onload="init(evt)">
<style type="text/css"><![CDATA[
.node, .edge {opacity: 0.7;}
.node.selected, .edge.selected {opacity: 1;}
.edge:hover path { stroke: red; }
.edge:hover polygon { stroke: red; fill: red; }
]]></style>

<defs>
  <circle id="rim" cx="0" cy="0" r="7"/>
  <circle id="rim2" cx="0" cy="0" r="3.5"/>
  <g id="zoomPlus">
    <use xlink:href="#rim" fill="#404040"><set attributeName="fill" to="#808080" begin="zoomplus.mouseover" end="zoomplus.mouseout"/></use>
    <path d="M-4,0h8M0,-4v8" fill="none" stroke="white" stroke-width="1.5" pointer-events="none"/>
  </g>
  <g id="zoomMin">
    <use xlink:href="#rim" fill="#404040"><set attributeName="fill" to="#808080" begin="zoomminus.mouseover" end="zoomminus.mouseout"/></use>
    <path d="M-4,0h8" fill="none" stroke="white" stroke-width="1.5" pointer-events="none"/>
  </g>
  <g id="arrowUp" transform="translate(30 24)">
    <use xlink:href="#rim"/>
    <path pointer-events="none" fill="none" stroke="white" stroke-width="1.5" d="M0,-3.0v7 M-2.5,-0.5L0,-3.0L2.5,-0.5"/>
  </g>
  <g id="arrowRight" transform="rotate(90) translate(36 -43)">
    <use xlink:href="#rim"/>
    <path pointer-events="none" fill="none" stroke="white" stroke-width="1.5" d="M0,-3.0v7 M-2.5,-0.5L0,-3.0L2.5,-0.5"/>
  </g>
  <g id="arrowDown" transform="rotate(180) translate(-30 -48)">
    <use xlink:href="#rim"/>
    <path pointer-events="none" fill="none" stroke="white" stroke-width="1.5" d="M0,-3.0v7 M-2.5,-0.5L0,-3.0L2.5,-0.5"/>
  </g>
  <g id="arrowLeft" transform="rotate(270) translate(-36 17)">
    <use xlink:href="#rim"/>
    <path pointer-events="none" fill="none" stroke="white" stroke-width="1.5" d="M0,-3.0v7 M-2.5,-0.5L0,-3.0L2.5,-0.5"/>
  </g>
  <g id="resetDef">
    <use xlink:href="#rim2" fill="#404040"><set attributeName="fill" to="#808080" begin="reset.mouseover" end="reset.mouseout"/></use>
  </g>
</defs>
<script type="application/ecmascript">
var viewWidth = 709;
var viewHeight = 423;
var sectionId = 'dynsection-1';
</script>
<script type="application/ecmascript" xlink:href="svg.min.js"/>
<svg id="graph" class="graph">
<g id="viewport">
<title>src/SceneSystem/Scene/Scene.hpp</title>
<!-- Node1 -->
<g id="Node000001" class="node">
<title>Node1</title>
<g id="a_Node000001"><a xlink:title=" ">
<polygon fill="#999999" stroke="#666666" points="464.5,-415 332.5,-415 332.5,-385 464.5,-385 464.5,-415"/>
<text text-anchor="start" x="340.5" y="-403" font-family="Helvetica,sans-Serif" font-size="10.00">src/SceneSystem/Scene</text>
<text text-anchor="middle" x="398.5" y="-392" font-family="Helvetica,sans-Serif" font-size="10.00">/Scene.hpp</text>
</a>
</g>
</g>
<!-- Node2 -->
<g id="Node000002" class="node">
<title>Node2</title>
<g id="a_Node000002"><a xlink:href="ILight_8hpp.html" target="_top" xlink:title=" ">
<polygon fill="white" stroke="#666666" points="458,-349 339,-349 339,-319 458,-319 458,-349"/>
<text text-anchor="start" x="347" y="-337" font-family="Helvetica,sans-Serif" font-size="10.00">src/Objects/Abstracts</text>
<text text-anchor="middle" x="398.5" y="-326" font-family="Helvetica,sans-Serif" font-size="10.00">/ILight.hpp</text>
</a>
</g>
</g>
<!-- Node1&#45;&gt;Node2 -->
<g id="edge1_Node000001_Node000002" class="edge">
<title>Node1&#45;&gt;Node2</title>
<g id="a_edge1_Node000001_Node000002"><a xlink:title=" ">
<path fill="none" stroke="#63b8ff" d="M391.93,-374.83C391.52,-366.17 391.81,-356.7 392.79,-349.16"/>
<polygon fill="#63b8ff" stroke="#63b8ff" points="388.45,-375.13 392.78,-384.8 395.42,-374.54 388.45,-375.13"/>
</a>
</g>
</g>
<!-- Node14 -->
<g id="Node000014" class="node">
<title>Node14</title>
<g id="a_Node000014"><a xlink:href="Scene_8cpp.html" target="_top" xlink:title=" ">
<polygon fill="white" stroke="#666666" points="700.5,-349 568.5,-349 568.5,-319 700.5,-319 700.5,-349"/>
<text text-anchor="start" x="576.5" y="-337" font-family="Helvetica,sans-Serif" font-size="10.00">src/SceneSystem/Scene</text>
<text text-anchor="middle" x="634.5" y="-326" font-family="Helvetica,sans-Serif" font-size="10.00">/Scene.cpp</text>
</a>
</g>
</g>
<!-- Node1&#45;&gt;Node14 -->
<g id="edge21_Node000001_Node000014" class="edge">
<title>Node1&#45;&gt;Node14</title>
<g id="a_edge21_Node000001_Node000014"><a xlink:title=" ">
<path fill="none" stroke="#63b8ff" d="M460.25,-382.25C498.38,-371.91 546.74,-358.8 582.83,-349.01"/>
<polygon fill="#63b8ff" stroke="#63b8ff" points="459.03,-378.96 450.29,-384.95 460.86,-385.72 459.03,-378.96"/>
</a>
</g>
</g>
<!-- Node2&#45;&gt;Node1 -->
<g id="edge20_Node000002_Node000001" class="edge">
<title>Node2&#45;&gt;Node1</title>
<g id="a_edge20_Node000002_Node000001"><a xlink:title=" ">
<path fill="none" stroke="#63b8ff" d="M405.07,-359.13C405.48,-367.78 405.2,-377.26 404.22,-384.8"/>
<polygon fill="#63b8ff" stroke="#63b8ff" points="408.55,-358.83 404.21,-349.16 401.58,-359.43 408.55,-358.83"/>
</a>
</g>
</g>
<!-- Node3 -->
<g id="Node000003" class="node">
<title>Node3</title>
<g id="a_Node000003"><a xlink:href="IMaterial_8hpp.html" target="_top" xlink:title=" ">
<polygon fill="white" stroke="#666666" points="412,-283 293,-283 293,-253 412,-253 412,-283"/>
<text text-anchor="start" x="301" y="-271" font-family="Helvetica,sans-Serif" font-size="10.00">src/Objects/Abstracts</text>
<text text-anchor="middle" x="352.5" y="-260" font-family="Helvetica,sans-Serif" font-size="10.00">/IMaterial.hpp</text>
</a>
</g>
</g>
<!-- Node2&#45;&gt;Node3 -->
<g id="edge2_Node000002_Node000003" class="edge">
<title>Node2&#45;&gt;Node3</title>
<g id="a_edge2_Node000002_Node000003"><a xlink:title=" ">
<path fill="none" stroke="#63b8ff" d="M382.35,-310.53C375.81,-301.43 368.45,-291.19 362.68,-283.16"/>
<polygon fill="#63b8ff" stroke="#63b8ff" points="379.61,-312.72 388.29,-318.8 385.3,-308.63 379.61,-312.72"/>
</a>
</g>
</g>
<!-- Node11 -->
<g id="Node000011" class="node">
<title>Node11</title>
<g id="a_Node000011"><a xlink:href="IPlugin_8hpp.html" target="_top" xlink:title=" ">
<polygon fill="white" stroke="#666666" points="145.5,-145.5 17.5,-145.5 17.5,-126.5 145.5,-126.5 145.5,-145.5"/>
<text text-anchor="middle" x="81.5" y="-133.5" font-family="Helvetica,sans-Serif" font-size="10.00">src/Objects/IPlugin.hpp</text>
</a>
</g>
</g>
<!-- Node2&#45;&gt;Node11 -->
<g id="edge19_Node000002_Node000011" class="edge">
<title>Node2&#45;&gt;Node11</title>
<g id="a_edge19_Node000002_Node000011"><a xlink:title=" ">
<path fill="none" stroke="#63b8ff" d="M329.02,-317.2C269.23,-300.65 183.68,-269.58 125.5,-217 102.92,-196.59 89.46,-161.8 84.14,-145.67"/>
<polygon fill="#63b8ff" stroke="#63b8ff" points="328.18,-320.6 338.75,-319.83 330.01,-313.84 328.18,-320.6"/>
</a>
</g>
</g>
<!-- Node4 -->
<g id="Node000004" class="node">
<title>Node4</title>
<g id="a_Node000004"><a xlink:href="Plane_8hpp.html" target="_top" xlink:title=" ">
<polygon fill="white" stroke="#666666" points="466,-151 327,-151 327,-121 466,-121 466,-151"/>
<text text-anchor="start" x="335" y="-139" font-family="Helvetica,sans-Serif" font-size="10.00">src/CorePlugin/Primitives</text>
<text text-anchor="middle" x="396.5" y="-128" font-family="Helvetica,sans-Serif" font-size="10.00">/Plane/Plane.hpp</text>
</a>
</g>
</g>
<!-- Node3&#45;&gt;Node4 -->
<g id="edge3_Node000003_Node000004" class="edge">
<title>Node3&#45;&gt;Node4</title>
<g id="a_edge3_Node000003_Node000004"><a xlink:title=" ">
<path fill="none" stroke="#63b8ff" d="M355.83,-242.58C358.48,-226.47 362.85,-205.08 369.5,-187 374.13,-174.41 381.46,-161.08 387.32,-151.36"/>
<polygon fill="#63b8ff" stroke="#63b8ff" points="352.32,-242.37 354.27,-252.79 359.24,-243.43 352.32,-242.37"/>
</a>
</g>
</g>
<!-- Node6 -->
<g id="Node000006" class="node">
<title>Node6</title>
<g id="a_Node000006"><a xlink:href="HitRecord_8hpp.html" target="_top" xlink:title=" ">
<polygon fill="white" stroke="#666666" points="512.5,-217 378.5,-217 378.5,-187 512.5,-187 512.5,-217"/>
<text text-anchor="start" x="386.5" y="-205" font-family="Helvetica,sans-Serif" font-size="10.00">src/Geometry/HitRecord</text>
<text text-anchor="middle" x="445.5" y="-194" font-family="Helvetica,sans-Serif" font-size="10.00">/HitRecord.hpp</text>
</a>
</g>
</g>
<!-- Node3&#45;&gt;Node6 -->
<g id="edge5_Node000003_Node000006" class="edge">
<title>Node3&#45;&gt;Node6</title>
<g id="a_edge5_Node000003_Node000006"><a xlink:title=" ">
<path fill="none" stroke="#63b8ff" d="M375.59,-246.75C388.86,-237.13 405.44,-225.86 419.2,-217.16"/>
<polygon fill="#63b8ff" stroke="#63b8ff" points="373.38,-244.04 367.42,-252.8 377.54,-249.67 373.38,-244.04"/>
</a>
</g>
</g>
<!-- Node9 -->
<g id="Node000009" class="node">
<title>Node9</title>
<g id="a_Node000009"><a xlink:href="APrimitive_8hpp.html" target="_top" xlink:title=" ">
<polygon fill="white" stroke="#666666" points="322.5,-217 176.5,-217 176.5,-187 322.5,-187 322.5,-217"/>
<text text-anchor="start" x="184.5" y="-205" font-family="Helvetica,sans-Serif" font-size="10.00">src/Objects/Abstracts</text>
<text text-anchor="middle" x="249.5" y="-194" font-family="Helvetica,sans-Serif" font-size="10.00">/APrimitive/APrimitive.hpp</text>
</a>
</g>
</g>
<!-- Node3&#45;&gt;Node9 -->
<g id="edge11_Node000003_Node000009" class="edge">
<title>Node3&#45;&gt;Node9</title>
<g id="a_edge11_Node000003_Node000009"><a xlink:title=" ">
<path fill="none" stroke="#63b8ff" d="M320.99,-247.42C305.18,-237.6 286.4,-225.93 272.05,-217.01"/>
<polygon fill="#63b8ff" stroke="#63b8ff" points="319.56,-250.65 329.9,-252.95 323.25,-244.7 319.56,-250.65"/>
</a>
</g>
</g>
<!-- Node3&#45;&gt;Node11 -->
<g id="edge18_Node000003_Node000011" class="edge">
<title>Node3&#45;&gt;Node11</title>
<g id="a_edge18_Node000003_Node000011"><a xlink:title=" ">
<path fill="none" stroke="#63b8ff" d="M282.7,-256.44C246.69,-248.98 203,-236.7 167.5,-217 133.27,-198 102.01,-162.5 88.52,-145.94"/>
<polygon fill="#63b8ff" stroke="#63b8ff" points="282.15,-259.9 292.64,-258.41 283.51,-253.03 282.15,-259.9"/>
</a>
</g>
</g>
<!-- Node5 -->
<g id="Node000005" class="node">
<title>Node5</title>
<g id="a_Node000005"><a xlink:href="Plane_8cpp.html" target="_top" xlink:title=" ">
<polygon fill="white" stroke="#666666" points="466,-85 327,-85 327,-55 466,-55 466,-85"/>
<text text-anchor="start" x="335" y="-73" font-family="Helvetica,sans-Serif" font-size="10.00">src/CorePlugin/Primitives</text>
<text text-anchor="middle" x="396.5" y="-62" font-family="Helvetica,sans-Serif" font-size="10.00">/Plane/Plane.cpp</text>
</a>
</g>
</g>
<!-- Node4&#45;&gt;Node5 -->
<g id="edge4_Node000004_Node000005" class="edge">
<title>Node4&#45;&gt;Node5</title>
<g id="a_edge4_Node000004_Node000005"><a xlink:title=" ">
<path fill="none" stroke="#63b8ff" d="M396.5,-110.54C396.5,-101.96 396.5,-92.61 396.5,-85.16"/>
<polygon fill="#63b8ff" stroke="#63b8ff" points="393,-110.8 396.5,-120.8 400,-110.8 393,-110.8"/>
</a>
</g>
</g>
<!-- Node6&#45;&gt;Node2 -->
<g id="edge9_Node000006_Node000002" class="edge">
<title>Node6&#45;&gt;Node2</title>
<g id="a_edge9_Node000006_Node000002"><a xlink:title=" ">
<path fill="none" stroke="#63b8ff" d="M439.31,-226.74C434.9,-242.81 428.52,-264.42 421.5,-283 416.84,-295.33 410.52,-308.9 405.68,-318.79"/>
<polygon fill="#63b8ff" stroke="#63b8ff" points="442.7,-227.64 441.92,-217.07 435.94,-225.82 442.7,-227.64"/>
</a>
</g>
</g>
<!-- Node6&#45;&gt;Node3 -->
<g id="edge10_Node000006_Node000003" class="edge">
<title>Node6&#45;&gt;Node3</title>
<g id="a_edge10_Node000006_Node000003"><a xlink:title=" ">
<path fill="none" stroke="#63b8ff" d="M422.61,-223.1C409.26,-232.8 392.48,-244.2 378.61,-252.95"/>
<polygon fill="#63b8ff" stroke="#63b8ff" points="424.88,-225.78 430.83,-217.01 420.71,-220.15 424.88,-225.78"/>
</a>
</g>
</g>
<!-- Node7 -->
<g id="Node000007" class="node">
<title>Node7</title>
<g id="a_Node000007"><a xlink:href="Camera_8hpp.html" target="_top" xlink:title=" ">
<polygon fill="white" stroke="#666666" points="623,-151 484,-151 484,-121 623,-121 623,-151"/>
<text text-anchor="start" x="492" y="-139" font-family="Helvetica,sans-Serif" font-size="10.00">src/CorePlugin/Renderers</text>
<text text-anchor="middle" x="553.5" y="-128" font-family="Helvetica,sans-Serif" font-size="10.00">/Camera/Camera.hpp</text>
</a>
</g>
</g>
<!-- Node6&#45;&gt;Node7 -->
<g id="edge6_Node000006_Node000007" class="edge">
<title>Node6&#45;&gt;Node7</title>
<g id="a_edge6_Node000006_Node000007"><a xlink:title=" ">
<path fill="none" stroke="#63b8ff" d="M478.08,-181.69C494.75,-171.82 514.67,-160.01 529.85,-151.01"/>
<polygon fill="#63b8ff" stroke="#63b8ff" points="476.02,-178.85 469.2,-186.95 479.59,-184.87 476.02,-178.85"/>
</a>
</g>
</g>
<!-- Node7&#45;&gt;Node1 -->
<g id="edge8_Node000007_Node000001" class="edge">
<title>Node7&#45;&gt;Node1</title>
<g id="a_edge8_Node000007_Node000001"><a xlink:title=" ">
<path fill="none" stroke="#63b8ff" d="M548.45,-160.8C538.66,-202.51 513.89,-289.96 467.5,-349 455.89,-363.77 438.82,-376.19 424.56,-384.96"/>
<polygon fill="#63b8ff" stroke="#63b8ff" points="551.87,-161.53 550.67,-151 545.05,-159.98 551.87,-161.53"/>
</a>
</g>
</g>
<!-- Node8 -->
<g id="Node000008" class="node">
<title>Node8</title>
<g id="a_Node000008"><a xlink:href="Camera_8cpp.html" target="_top" xlink:title=" ">
<polygon fill="white" stroke="#666666" points="623,-85 484,-85 484,-55 623,-55 623,-85"/>
<text text-anchor="start" x="492" y="-73" font-family="Helvetica,sans-Serif" font-size="10.00">src/CorePlugin/Renderers</text>
<text text-anchor="middle" x="553.5" y="-62" font-family="Helvetica,sans-Serif" font-size="10.00">/Camera/Camera.cpp</text>
</a>
</g>
</g>
<!-- Node7&#45;&gt;Node8 -->
<g id="edge7_Node000007_Node000008" class="edge">
<title>Node7&#45;&gt;Node8</title>
<g id="a_edge7_Node000007_Node000008"><a xlink:title=" ">
<path fill="none" stroke="#63b8ff" d="M553.5,-110.54C553.5,-101.96 553.5,-92.61 553.5,-85.16"/>
<polygon fill="#63b8ff" stroke="#63b8ff" points="550,-110.8 553.5,-120.8 557,-110.8 550,-110.8"/>
</a>
</g>
</g>
<!-- Node9&#45;&gt;Node1 -->
<g id="edge17_Node000009_Node000001" class="edge">
<title>Node9&#45;&gt;Node1</title>
<g id="a_edge17_Node000009_Node000001"><a xlink:title=" ">
<path fill="none" stroke="#63b8ff" d="M257.78,-226.66C269.64,-257.81 294.03,-312.87 329.5,-349 343.18,-362.93 361.1,-375.79 375.25,-384.98"/>
<polygon fill="#63b8ff" stroke="#63b8ff" points="260.98,-225.24 254.24,-217.07 254.42,-227.66 260.98,-225.24"/>
</a>
</g>
</g>
<!-- Node9&#45;&gt;Node4 -->
<g id="edge12_Node000009_Node000004" class="edge">
<title>Node9&#45;&gt;Node4</title>
<g id="a_edge12_Node000009_Node000004"><a xlink:title=" ">
<path fill="none" stroke="#63b8ff" d="M291.03,-182.92C314.26,-172.8 342.79,-160.38 364.32,-151.01"/>
<polygon fill="#63b8ff" stroke="#63b8ff" points="289.53,-179.75 281.76,-186.95 292.33,-186.17 289.53,-179.75"/>
</a>
</g>
</g>
<!-- Node10 -->
<g id="Node000010" class="node">
<title>Node10</title>
<g id="a_Node000010"><a xlink:href="APrimitive_8cpp.html" target="_top" xlink:title=" ">
<polygon fill="white" stroke="#666666" points="309,-151 164,-151 164,-121 309,-121 309,-151"/>
<text text-anchor="start" x="172" y="-139" font-family="Helvetica,sans-Serif" font-size="10.00">src/Objects/Abstracts</text>
<text text-anchor="middle" x="236.5" y="-128" font-family="Helvetica,sans-Serif" font-size="10.00">/APrimitive/APrimitive.cpp</text>
</a>
</g>
</g>
<!-- Node9&#45;&gt;Node10 -->
<g id="edge13_Node000009_Node000010" class="edge">
<title>Node9&#45;&gt;Node10</title>
<g id="a_edge13_Node000009_Node000010"><a xlink:title=" ">
<path fill="none" stroke="#63b8ff" d="M244.59,-176.83C242.83,-168.17 240.91,-158.7 239.38,-151.16"/>
<polygon fill="#63b8ff" stroke="#63b8ff" points="241.19,-177.69 246.61,-186.8 248.05,-176.3 241.19,-177.69"/>
</a>
</g>
</g>
<!-- Node9&#45;&gt;Node11 -->
<g id="edge14_Node000009_Node000011" class="edge">
<title>Node9&#45;&gt;Node11</title>
<g id="a_edge14_Node000009_Node000011"><a xlink:title=" ">
<path fill="none" stroke="#63b8ff" d="M202.93,-183.26C170.62,-170.95 129.03,-155.11 103.86,-145.52"/>
<polygon fill="#63b8ff" stroke="#63b8ff" points="202.04,-186.67 212.63,-186.95 204.53,-180.12 202.04,-186.67"/>
</a>
</g>
</g>
<!-- Node12 -->
<g id="Node000012" class="node">
<title>Node12</title>
<g id="a_Node000012"><a xlink:href="CorePlugin_8hpp.html" target="_top" xlink:title=" ">
<polygon fill="white" stroke="#666666" points="163,-79.5 0,-79.5 0,-60.5 163,-60.5 163,-79.5"/>
<text text-anchor="middle" x="81.5" y="-67.5" font-family="Helvetica,sans-Serif" font-size="10.00">src/CorePlugin/CorePlugin.hpp</text>
</a>
</g>
</g>
<!-- Node11&#45;&gt;Node12 -->
<g id="edge15_Node000011_Node000012" class="edge">
<title>Node11&#45;&gt;Node12</title>
<g id="a_edge15_Node000011_Node000012"><a xlink:title=" ">
<path fill="none" stroke="#63b8ff" d="M81.5,-116.08C81.5,-104.13 81.5,-89.22 81.5,-79.91"/>
<polygon fill="#63b8ff" stroke="#63b8ff" points="78,-116.37 81.5,-126.37 85,-116.37 78,-116.37"/>
</a>
</g>
</g>
<!-- Node13 -->
<g id="Node000013" class="node">
<title>Node13</title>
<g id="a_Node000013"><a xlink:href="CorePlugin_8cpp.html" target="_top" xlink:title=" ">
<polygon fill="white" stroke="#666666" points="162.5,-19 0.5,-19 0.5,0 162.5,0 162.5,-19"/>
<text text-anchor="middle" x="81.5" y="-7" font-family="Helvetica,sans-Serif" font-size="10.00">src/CorePlugin/CorePlugin.cpp</text>
</a>
</g>
</g>
<!-- Node12&#45;&gt;Node13 -->
<g id="edge16_Node000012_Node000013" class="edge">
<title>Node12&#45;&gt;Node13</title>
<g id="a_edge16_Node000012_Node000013"><a xlink:title=" ">
<path fill="none" stroke="#63b8ff" d="M81.5,-50.16C81.5,-39.74 81.5,-27.3 81.5,-19.17"/>
<polygon fill="#63b8ff" stroke="#63b8ff" points="78,-50.37 81.5,-60.37 85,-50.37 78,-50.37"/>
</a>
</g>
</g>
</g>
</svg>

<g id="navigator" transform="translate(0 0)" fill="#404254">
  <rect fill="#f2f5e9" fill-opacity="0.5" stroke="#606060" stroke-width=".5" x="0" y="0" width="60" height="60"/>
  <use id="zoomplus" xlink:href="#zoomPlus" x="17" y="9" onmousedown="handleZoom(evt,'in')"/>
  <use id="zoomminus" xlink:href="#zoomMin" x="42" y="9" onmousedown="handleZoom(evt,'out')"/>
  <use id="reset" xlink:href="#resetDef" x="30" y="36" onmousedown="handleReset()"/>
   <use id="arrowup" xlink:href="#arrowUp" x="0" y="0" onmousedown="handlePan(0,-1)"/>
  <use id="arrowright" xlink:href="#arrowRight" x="0" y="0" onmousedown="handlePan(1,0)"/>
  <use id="arrowdown" xlink:href="#arrowDown" x="0" y="0" onmousedown="handlePan(0,1)"/>
  <use id="arrowleft" xlink:href="#arrowLeft" x="0" y="0" onmousedown="handlePan(-1,0)"/>
</g>
<svg viewBox="0 0 15 15" width="100%" height="30px" preserveAspectRatio="xMaxYMin meet">
 <g id="arrow_out" transform="scale(0.3 0.3)">
  <a xlink:href="Scene_8hpp__dep__incl_org.svg" target="_base">
   <rect id="button" ry="5" rx="5" y="6" x="6" height="38" width="38"
        fill="#f2f5e9" fill-opacity="0.5" stroke="#606060" stroke-width="1.0"/>
   <path id="arrow"
     d="M 11.500037,31.436501 C 11.940474,20.09759 22.043105,11.32322 32.158766,21.979434 L 37.068811,17.246167 C 37.068811,17.246167 37.088388,32 37.088388,32 L 22.160133,31.978069 C 22.160133,31.978069 26.997745,27.140456 26.997745,27.140456 C 18.528582,18.264221 13.291696,25.230495 11.500037,31.436501 z"
     style="fill:#404040;"/>
  </a>
 </g>
</svg>

<style type='text/css'>
<![CDATA[
[data-mouse-over-selected='false'] { opacity: 0.7; }
[data-mouse-over-selected='true']  { opacity: 1.0; }
]]>
</style>
<script type="application/ecmascript"><![CDATA[
document.addEventListener('DOMContentLoaded', (event) => {
  highlightEdges();
  highlightAdjacentNodes();
});
]]></script>
</svg>
