<?xml version="1.0" encoding="UTF-8" standalone="no"?>
<!DOCTYPE svg PUBLIC "-//W3C//DTD SVG 1.1//EN"
 "http://www.w3.org/Graphics/SVG/1.1/DTD/svg11.dtd">
<!-- Generated by graphviz version 2.43.0 (0)
 -->
<!-- Title: src/SceneSystem/Scene/Scene.hpp Pages: 1 -->
<svg width="317pt" height="412pt"
 viewBox="0.00 0.00 317.00 412.00" xmlns="http://www.w3.org/2000/svg" xmlns:xlink="http://www.w3.org/1999/xlink">

<svg id="main" version="1.1" xmlns="http://www.w3.org/2000/svg" xmlns:xlink="http://www.w3.org/1999/xlink" xml:space="preserve" onload="init(evt)">
<style type="text/css"><![CDATA[
.node, .edge {opacity: 0.7;}
.node.selected, .edge.selected {opacity: 1;}
.edge:hover path { stroke: red; }
.edge:hover polygon { stroke: red; fill: red; }
]]></style>
<script type="application/ecmascript" xlink:href="svg.min.js"/>
<svg id="graph" class="graph">
<g id="graph0" class="graph" transform="scale(1 1) rotate(0) translate(4 408)">
<title>src/SceneSystem/Scene/Scene.hpp</title>
<!-- Node1 -->
<g id="Node000001" class="node">
<title>Node1</title>
<g id="a_Node000001"><a xlink:title=" ">
<polygon fill="#999999" stroke="#666666" points="200.5,-404 68.5,-404 68.5,-374 200.5,-374 200.5,-404"/>
<text text-anchor="start" x="76.5" y="-392" font-family="Helvetica,sans-Serif" font-size="10.00">src/SceneSystem/Scene</text>
<text text-anchor="middle" x="134.5" y="-381" font-family="Helvetica,sans-Serif" font-size="10.00">/Scene.hpp</text>
</a>
</g>
</g>
<!-- Node2 -->
<g id="Node000002" class="node">
<title>Node2</title>
<g id="a_Node000002"><a xlink:href="ILight_8hpp.html" target="_top" xlink:title=" ">
<polygon fill="white" stroke="#666666" points="122,-338 3,-338 3,-308 122,-308 122,-338"/>
<text text-anchor="start" x="11" y="-326" font-family="Helvetica,sans-Serif" font-size="10.00">src/Objects/Abstracts</text>
<text text-anchor="middle" x="62.5" y="-315" font-family="Helvetica,sans-Serif" font-size="10.00">/ILight.hpp</text>
</a>
</g>
</g>
<!-- Node1&#45;&gt;Node2 -->
<g id="edge1_Node000001_Node000002" class="edge">
<title>Node1&#45;&gt;Node2</title>
<g id="a_edge1_Node000001_Node000002"><a xlink:title=" ">
<path fill="none" stroke="#63b8ff" d="M104.73,-367.2C93.37,-357.7 81.2,-346.69 72.72,-338.16"/>
<polygon fill="#63b8ff" stroke="#63b8ff" points="102.84,-370.18 112.8,-373.8 107.27,-364.76 102.84,-370.18"/>
</a>
</g>
</g>
<!-- Node9 -->
<g id="Node000009" class="node">
<title>Node9</title>
<g id="a_Node000009"><a xlink:href="Scene_8cpp.html" target="_top" xlink:title=" ">
<polygon fill="white" stroke="#666666" points="272.5,-338 140.5,-338 140.5,-308 272.5,-308 272.5,-338"/>
<text text-anchor="start" x="148.5" y="-326" font-family="Helvetica,sans-Serif" font-size="10.00">src/SceneSystem/Scene</text>
<text text-anchor="middle" x="206.5" y="-315" font-family="Helvetica,sans-Serif" font-size="10.00">/Scene.cpp</text>
</a>
</g>
</g>
<!-- Node1&#45;&gt;Node9 -->
<g id="edge12_Node000001_Node000009" class="edge">
<title>Node1&#45;&gt;Node9</title>
<g id="a_edge12_Node000001_Node000009"><a xlink:title=" ">
<path fill="none" stroke="#63b8ff" d="M158.21,-366.92C168.83,-357.49 181.07,-346.61 190.57,-338.16"/>
<polygon fill="#63b8ff" stroke="#63b8ff" points="155.63,-364.54 150.48,-373.8 160.28,-369.77 155.63,-364.54"/>
</a>
</g>
</g>
<!-- Node2&#45;&gt;Node1 -->
<g id="edge11_Node000002_Node000001" class="edge">
<title>Node2&#45;&gt;Node1</title>
<g id="a_edge11_Node000002_Node000001"><a xlink:title=" ">
<path fill="none" stroke="#63b8ff" d="M92.21,-344.75C103.57,-354.25 115.75,-365.26 124.24,-373.8"/>
<polygon fill="#63b8ff" stroke="#63b8ff" points="94.11,-341.78 84.15,-338.16 89.68,-347.2 94.11,-341.78"/>
</a>
</g>
</g>
<!-- Node3 -->
<g id="Node000003" class="node">
<title>Node3</title>
<g id="a_Node000003"><a xlink:href="IMaterial_8hpp.html" target="_top" xlink:title=" ">
<polygon fill="white" stroke="#666666" points="210,-272 91,-272 91,-242 210,-242 210,-272"/>
<text text-anchor="start" x="99" y="-260" font-family="Helvetica,sans-Serif" font-size="10.00">src/Objects/Abstracts</text>
<text text-anchor="middle" x="150.5" y="-249" font-family="Helvetica,sans-Serif" font-size="10.00">/IMaterial.hpp</text>
</a>
</g>
</g>
<!-- Node2&#45;&gt;Node3 -->
<g id="edge2_Node000002_Node000003" class="edge">
<title>Node2&#45;&gt;Node3</title>
<g id="a_edge2_Node000002_Node000003"><a xlink:title=" ">
<path fill="none" stroke="#63b8ff" d="M90.34,-301.75C103.57,-292.13 119.07,-280.86 131.02,-272.16"/>
<polygon fill="#63b8ff" stroke="#63b8ff" points="88.06,-299.08 82.03,-307.8 92.18,-304.75 88.06,-299.08"/>
</a>
</g>
</g>
<!-- Node6 -->
<g id="Node000006" class="node">
<title>Node6</title>
<g id="a_Node000006"><a xlink:href="IPlugin_8hpp.html" target="_top" xlink:title=" ">
<polygon fill="white" stroke="#666666" points="145.5,-134.5 17.5,-134.5 17.5,-115.5 145.5,-115.5 145.5,-134.5"/>
<text text-anchor="middle" x="81.5" y="-122.5" font-family="Helvetica,sans-Serif" font-size="10.00">src/Objects/IPlugin.hpp</text>
</a>
</g>
</g>
<!-- Node2&#45;&gt;Node6 -->
<g id="edge10_Node000002_Node000006" class="edge">
<title>Node2&#45;&gt;Node6</title>
<g id="a_edge10_Node000002_Node000006"><a xlink:title=" ">
<path fill="none" stroke="#63b8ff" d="M64.84,-297.83C69.09,-253.97 77.9,-163.18 80.65,-134.73"/>
<polygon fill="#63b8ff" stroke="#63b8ff" points="61.35,-297.61 63.87,-307.9 68.32,-298.29 61.35,-297.61"/>
</a>
</g>
</g>
<!-- Node4 -->
<g id="Node000004" class="node">
<title>Node4</title>
<g id="a_Node000004"><a xlink:href="APrimitive_8hpp.html" target="_top" xlink:title=" ">
<polygon fill="white" stroke="#666666" points="300.5,-206 154.5,-206 154.5,-176 300.5,-176 300.5,-206"/>
<text text-anchor="start" x="162.5" y="-194" font-family="Helvetica,sans-Serif" font-size="10.00">src/Objects/Abstracts</text>
<text text-anchor="middle" x="227.5" y="-183" font-family="Helvetica,sans-Serif" font-size="10.00">/APrimitive/APrimitive.hpp</text>
</a>
</g>
</g>
<!-- Node3&#45;&gt;Node4 -->
<g id="edge3_Node000003_Node000004" class="edge">
<title>Node3&#45;&gt;Node4</title>
<g id="a_edge3_Node000003_Node000004"><a xlink:title=" ">
<path fill="none" stroke="#63b8ff" d="M175.52,-235.2C186.95,-225.7 200.2,-214.69 210.46,-206.16"/>
<polygon fill="#63b8ff" stroke="#63b8ff" points="173.04,-232.71 167.59,-241.8 177.52,-238.1 173.04,-232.71"/>
</a>
</g>
</g>
<!-- Node3&#45;&gt;Node6 -->
<g id="edge9_Node000003_Node000006" class="edge">
<title>Node3&#45;&gt;Node6</title>
<g id="a_edge9_Node000003_Node000006"><a xlink:title=" ">
<path fill="none" stroke="#63b8ff" d="M138.15,-232.73C122.6,-203.44 96.66,-154.57 86.14,-134.75"/>
<polygon fill="#63b8ff" stroke="#63b8ff" points="135.2,-234.65 142.98,-241.84 141.39,-231.37 135.2,-234.65"/>
</a>
</g>
</g>
<!-- Node4&#45;&gt;Node1 -->
<g id="edge8_Node000004_Node000001" class="edge">
<title>Node4&#45;&gt;Node1</title>
<g id="a_edge8_Node000004_Node000001"><a xlink:title=" ">
<path fill="none" stroke="#63b8ff" d="M247.57,-213.85C272.74,-244 309.4,-299.04 281.5,-338 263.06,-363.75 230.58,-376.4 200.83,-382.54"/>
<polygon fill="#63b8ff" stroke="#63b8ff" points="250.02,-211.33 240.84,-206.04 244.72,-215.9 250.02,-211.33"/>
</a>
</g>
</g>
<!-- Node5 -->
<g id="Node000005" class="node">
<title>Node5</title>
<g id="a_Node000005"><a xlink:href="APrimitive_8cpp.html" target="_top" xlink:title=" ">
<polygon fill="white" stroke="#666666" points="309,-140 164,-140 164,-110 309,-110 309,-140"/>
<text text-anchor="start" x="172" y="-128" font-family="Helvetica,sans-Serif" font-size="10.00">src/Objects/Abstracts</text>
<text text-anchor="middle" x="236.5" y="-117" font-family="Helvetica,sans-Serif" font-size="10.00">/APrimitive/APrimitive.cpp</text>
</a>
</g>
</g>
<!-- Node4&#45;&gt;Node5 -->
<g id="edge4_Node000004_Node000005" class="edge">
<title>Node4&#45;&gt;Node5</title>
<g id="a_edge4_Node000004_Node000005"><a xlink:title=" ">
<path fill="none" stroke="#63b8ff" d="M230.9,-165.83C232.12,-157.17 233.45,-147.7 234.51,-140.16"/>
<polygon fill="#63b8ff" stroke="#63b8ff" points="227.42,-165.41 229.5,-175.8 234.36,-166.38 227.42,-165.41"/>
</a>
</g>
</g>
<!-- Node4&#45;&gt;Node6 -->
<g id="edge5_Node000004_Node000006" class="edge">
<title>Node4&#45;&gt;Node6</title>
<g id="a_edge5_Node000004_Node000006"><a xlink:title=" ">
<path fill="none" stroke="#63b8ff" d="M185.94,-171.78C158.02,-159.54 122.52,-143.98 100.93,-134.52"/>
<polygon fill="#63b8ff" stroke="#63b8ff" points="184.9,-175.15 195.46,-175.95 187.71,-168.73 184.9,-175.15"/>
</a>
</g>
</g>
<!-- Node7 -->
<g id="Node000007" class="node">
<title>Node7</title>
<g id="a_Node000007"><a xlink:href="CorePlugin_8hpp.html" target="_top" xlink:title=" ">
<polygon fill="white" stroke="#666666" points="163,-74 0,-74 0,-55 163,-55 163,-74"/>
<text text-anchor="middle" x="81.5" y="-62" font-family="Helvetica,sans-Serif" font-size="10.00">src/CorePlugin/CorePlugin.hpp</text>
</a>
</g>
</g>
<!-- Node6&#45;&gt;Node7 -->
<g id="edge6_Node000006_Node000007" class="edge">
<title>Node6&#45;&gt;Node7</title>
<g id="a_edge6_Node000006_Node000007"><a xlink:title=" ">
<path fill="none" stroke="#63b8ff" d="M81.5,-105.16C81.5,-94.74 81.5,-82.3 81.5,-74.17"/>
<polygon fill="#63b8ff" stroke="#63b8ff" points="78,-105.37 81.5,-115.37 85,-105.37 78,-105.37"/>
</a>
</g>
</g>
<!-- Node8 -->
<g id="Node000008" class="node">
<title>Node8</title>
<g id="a_Node000008"><a xlink:href="CorePlugin_8cpp.html" target="_top" xlink:title=" ">
<polygon fill="white" stroke="#666666" points="162.5,-19 0.5,-19 0.5,0 162.5,0 162.5,-19"/>
<text text-anchor="middle" x="81.5" y="-7" font-family="Helvetica,sans-Serif" font-size="10.00">src/CorePlugin/CorePlugin.cpp</text>
</a>
</g>
</g>
<!-- Node7&#45;&gt;Node8 -->
<g id="edge7_Node000007_Node000008" class="edge">
<title>Node7&#45;&gt;Node8</title>
<g id="a_edge7_Node000007_Node000008"><a xlink:title=" ">
<path fill="none" stroke="#63b8ff" d="M81.5,-44.66C81.5,-35.93 81.5,-25.99 81.5,-19.09"/>
<polygon fill="#63b8ff" stroke="#63b8ff" points="78,-44.75 81.5,-54.75 85,-44.75 78,-44.75"/>
</a>
</g>
</g>
</g>
</svg>
</svg>

<style type='text/css'>
<![CDATA[
[data-mouse-over-selected='false'] { opacity: 0.7; }
[data-mouse-over-selected='true']  { opacity: 1.0; }
]]>
</style>
<script type="application/ecmascript"><![CDATA[
document.addEventListener('DOMContentLoaded', (event) => {
  highlightEdges();
  highlightAdjacentNodes();
});
]]></script>
</svg>
