<?xml version="1.0" encoding="UTF-8" standalone="no"?>
<!DOCTYPE svg PUBLIC "-//W3C//DTD SVG 1.1//EN"
 "http://www.w3.org/Graphics/SVG/1.1/DTD/svg11.dtd">
<!-- Generated by graphviz version 2.43.0 (0)
 -->
<!-- Title: src/Objects/Plugins/CorePlugin/Interfaces/SceneWriter/SceneWriter.cpp Pages: 1 -->
<svg width="1523pt" height="643pt"
 viewBox="0.00 0.00 1522.98 643.00" xmlns="http://www.w3.org/2000/svg" xmlns:xlink="http://www.w3.org/1999/xlink">
<g id="graph0" class="graph" transform="scale(1 1) rotate(0) translate(4 639)">
<title>src/Objects/Plugins/CorePlugin/Interfaces/SceneWriter/SceneWriter.cpp</title>
<!-- Node1 -->
<g id="Node000001" class="node">
<title>Node1</title>
<g id="a_Node000001"><a xlink:title=" ">
<polygon fill="#999999" stroke="#666666" points="1343.98,-635 1182.98,-635 1182.98,-594 1343.98,-594 1343.98,-635"/>
<text text-anchor="start" x="1190.98" y="-623" font-family="Helvetica,sans-Serif" font-size="10.00">src/Objects/Plugins</text>
<text text-anchor="start" x="1190.98" y="-612" font-family="Helvetica,sans-Serif" font-size="10.00">/CorePlugin/Interfaces</text>
<text text-anchor="middle" x="1263.48" y="-601" font-family="Helvetica,sans-Serif" font-size="10.00">/SceneWriter/SceneWriter.cpp</text>
</a>
</g>
</g>
<!-- Node2 -->
<g id="Node000002" class="node">
<title>Node2</title>
<g id="a_Node000002"><a xlink:href="SceneWriter_8hpp.html" target="_top" xlink:title=" ">
<polygon fill="white" stroke="#666666" points="334.48,-492 238.48,-492 238.48,-473 334.48,-473 334.48,-492"/>
<text text-anchor="middle" x="286.48" y="-480" font-family="Helvetica,sans-Serif" font-size="10.00">SceneWriter.hpp</text>
</a>
</g>
</g>
<!-- Node1&#45;&gt;Node2 -->
<g id="edge1_Node000001_Node000002" class="edge">
<title>Node1&#45;&gt;Node2</title>
<g id="a_edge1_Node000001_Node000002"><a xlink:title=" ">
<path fill="none" stroke="#63b8ff" d="M1182.68,-602.89C1023.18,-581.91 656.57,-533.57 348.48,-492 347.21,-491.83 345.92,-491.65 344.62,-491.48"/>
<polygon fill="#63b8ff" stroke="#63b8ff" points="344.92,-487.99 334.54,-490.11 343.98,-494.92 344.92,-487.99"/>
</a>
</g>
</g>
<!-- Node16 -->
<g id="Node000016" class="node">
<title>Node16</title>
<g id="a_Node000016"><a xlink:href="Color_8hpp.html" target="_top" xlink:title=" ">
<polygon fill="white" stroke="#666666" points="1110.98,-189.5 995.98,-189.5 995.98,-170.5 1110.98,-170.5 1110.98,-189.5"/>
<text text-anchor="middle" x="1053.48" y="-177.5" font-family="Helvetica,sans-Serif" font-size="10.00">../../../Utils/Color.hpp</text>
</a>
</g>
</g>
<!-- Node1&#45;&gt;Node16 -->
<g id="edge65_Node000001_Node000016" class="edge">
<title>Node1&#45;&gt;Node16</title>
<g id="a_edge65_Node000001_Node000016"><a xlink:title=" ">
<path fill="none" stroke="#63b8ff" d="M1325.08,-593.94C1373.03,-574.41 1431.48,-539.19 1431.48,-483.5 1431.48,-483.5 1431.48,-483.5 1431.48,-300 1431.48,-268.19 1436.39,-251.98 1412.48,-231 1370.36,-194.05 1213.13,-184.31 1121.31,-181.81"/>
<polygon fill="#63b8ff" stroke="#63b8ff" points="1121.36,-178.31 1111.27,-181.55 1121.18,-185.3 1121.36,-178.31"/>
</a>
</g>
</g>
<!-- Node31 -->
<g id="Node000031" class="node">
<title>Node31</title>
<g id="a_Node000031"><a xlink:href="Scene_8hpp.html" target="_top" xlink:title=" ">
<polygon fill="white" stroke="#666666" points="1097.48,-558 969.48,-558 969.48,-528 1097.48,-528 1097.48,-558"/>
<text text-anchor="start" x="977.48" y="-546" font-family="Helvetica,sans-Serif" font-size="10.00">../../../../../SceneSystem</text>
<text text-anchor="middle" x="1033.48" y="-535" font-family="Helvetica,sans-Serif" font-size="10.00">/Scene/Scene.hpp</text>
</a>
</g>
</g>
<!-- Node1&#45;&gt;Node31 -->
<g id="edge45_Node000001_Node000031" class="edge">
<title>Node1&#45;&gt;Node31</title>
<g id="a_edge45_Node000001_Node000031"><a xlink:title=" ">
<path fill="none" stroke="#63b8ff" d="M1198.8,-593.96C1164.48,-583.59 1122.72,-570.97 1089.75,-561"/>
<polygon fill="#63b8ff" stroke="#63b8ff" points="1090.41,-557.55 1079.82,-558 1088.38,-564.25 1090.41,-557.55"/>
</a>
</g>
</g>
<!-- Node36 -->
<g id="Node000036" class="node">
<title>Node36</title>
<g id="a_Node000036"><a xlink:title=" ">
<polygon fill="#e0e0e0" stroke="#999999" points="1514.98,-552.5 1459.98,-552.5 1459.98,-533.5 1514.98,-533.5 1514.98,-552.5"/>
<text text-anchor="middle" x="1487.48" y="-540.5" font-family="Helvetica,sans-Serif" font-size="10.00">fstream</text>
</a>
</g>
</g>
<!-- Node1&#45;&gt;Node36 -->
<g id="edge66_Node000001_Node000036" class="edge">
<title>Node1&#45;&gt;Node36</title>
<g id="a_edge66_Node000001_Node000036"><a xlink:title=" ">
<path fill="none" stroke="#63b8ff" d="M1328.89,-594C1363.6,-583.54 1406.93,-570.3 1445.48,-558 1447.76,-557.27 1450.12,-556.51 1452.49,-555.74"/>
<polygon fill="#63b8ff" stroke="#63b8ff" points="1453.79,-559 1462.19,-552.55 1451.6,-552.35 1453.79,-559"/>
</a>
</g>
</g>
<!-- Node3 -->
<g id="Node000003" class="node">
<title>Node3</title>
<g id="a_Node000003"><a xlink:href="Plugin_8hpp.html" target="_top" xlink:title=" ">
<polygon fill="white" stroke="#666666" points="676.48,-437 572.48,-437 572.48,-418 676.48,-418 676.48,-437"/>
<text text-anchor="middle" x="624.48" y="-425" font-family="Helvetica,sans-Serif" font-size="10.00">../../../../Plugin.hpp</text>
</a>
</g>
</g>
<!-- Node2&#45;&gt;Node3 -->
<g id="edge2_Node000002_Node000003" class="edge">
<title>Node2&#45;&gt;Node3</title>
<g id="a_edge2_Node000002_Node000003"><a xlink:title=" ">
<path fill="none" stroke="#63b8ff" d="M334.55,-473.96C394.32,-464.59 496.47,-448.57 562.19,-438.27"/>
<polygon fill="#63b8ff" stroke="#63b8ff" points="563.08,-441.67 572.42,-436.66 561.99,-434.76 563.08,-441.67"/>
</a>
</g>
</g>
<!-- Node4 -->
<g id="Node000004" class="node">
<title>Node4</title>
<g id="a_Node000004"><a xlink:title=" ">
<polygon fill="#e0e0e0" stroke="#999999" points="656.98,-376.5 591.98,-376.5 591.98,-357.5 656.98,-357.5 656.98,-376.5"/>
<text text-anchor="middle" x="624.48" y="-364.5" font-family="Helvetica,sans-Serif" font-size="10.00">functional</text>
</a>
</g>
</g>
<!-- Node3&#45;&gt;Node4 -->
<g id="edge3_Node000003_Node000004" class="edge">
<title>Node3&#45;&gt;Node4</title>
<g id="a_edge3_Node000003_Node000004"><a xlink:title=" ">
<path fill="none" stroke="#63b8ff" d="M624.48,-417.87C624.48,-409.75 624.48,-397.31 624.48,-386.89"/>
<polygon fill="#63b8ff" stroke="#63b8ff" points="627.98,-386.67 624.48,-376.67 620.98,-386.67 627.98,-386.67"/>
</a>
</g>
</g>
<!-- Node5 -->
<g id="Node000005" class="node">
<title>Node5</title>
<g id="a_Node000005"><a xlink:title=" ">
<polygon fill="#e0e0e0" stroke="#999999" points="977.48,-189.5 919.48,-189.5 919.48,-170.5 977.48,-170.5 977.48,-189.5"/>
<text text-anchor="middle" x="948.48" y="-177.5" font-family="Helvetica,sans-Serif" font-size="10.00">memory</text>
</a>
</g>
</g>
<!-- Node3&#45;&gt;Node5 -->
<g id="edge4_Node000003_Node000005" class="edge">
<title>Node3&#45;&gt;Node5</title>
<g id="a_edge4_Node000003_Node000005"><a xlink:title=" ">
<path fill="none" stroke="#63b8ff" d="M676.85,-426.71C727.21,-424.7 803.83,-415.63 860.48,-382 893.07,-362.65 900.69,-351.3 914.48,-316 928.24,-280.75 908.58,-267.24 919.48,-231 923.03,-219.18 929.87,-207.18 936.01,-197.89"/>
<polygon fill="#63b8ff" stroke="#63b8ff" points="938.92,-199.83 941.77,-189.63 933.18,-195.83 938.92,-199.83"/>
</a>
</g>
</g>
<!-- Node6 -->
<g id="Node000006" class="node">
<title>Node6</title>
<g id="a_Node000006"><a xlink:title=" ">
<polygon fill="#e0e0e0" stroke="#999999" points="478.98,-376.5 427.98,-376.5 427.98,-357.5 478.98,-357.5 478.98,-376.5"/>
<text text-anchor="middle" x="453.48" y="-364.5" font-family="Helvetica,sans-Serif" font-size="10.00">variant</text>
</a>
</g>
</g>
<!-- Node3&#45;&gt;Node6 -->
<g id="edge5_Node000003_Node000006" class="edge">
<title>Node3&#45;&gt;Node6</title>
<g id="a_edge5_Node000003_Node000006"><a xlink:title=" ">
<path fill="none" stroke="#63b8ff" d="M596.69,-417.98C569.08,-409.38 525.61,-395.48 488.48,-382 486.87,-381.42 485.23,-380.81 483.57,-380.18"/>
<polygon fill="#63b8ff" stroke="#63b8ff" points="484.71,-376.87 474.12,-376.51 482.18,-383.39 484.71,-376.87"/>
</a>
</g>
</g>
<!-- Node7 -->
<g id="Node000007" class="node">
<title>Node7</title>
<g id="a_Node000007"><a xlink:title=" ">
<polygon fill="#e0e0e0" stroke="#999999" points="535.48,-376.5 497.48,-376.5 497.48,-357.5 535.48,-357.5 535.48,-376.5"/>
<text text-anchor="middle" x="516.48" y="-364.5" font-family="Helvetica,sans-Serif" font-size="10.00">map</text>
</a>
</g>
</g>
<!-- Node3&#45;&gt;Node7 -->
<g id="edge6_Node000003_Node000007" class="edge">
<title>Node3&#45;&gt;Node7</title>
<g id="a_edge6_Node000003_Node000007"><a xlink:title=" ">
<path fill="none" stroke="#63b8ff" d="M608.54,-417.87C590.84,-408.28 562.02,-392.67 541.34,-381.47"/>
<polygon fill="#63b8ff" stroke="#63b8ff" points="542.94,-378.35 532.48,-376.67 539.61,-384.51 542.94,-378.35"/>
</a>
</g>
</g>
<!-- Node8 -->
<g id="Node000008" class="node">
<title>Node8</title>
<g id="a_Node000008"><a xlink:href="ParsingException_8hpp.html" target="_top" xlink:title=" ">
<polygon fill="white" stroke="#666666" points="409.98,-382 244.98,-382 244.98,-352 409.98,-352 409.98,-382"/>
<text text-anchor="start" x="252.98" y="-370" font-family="Helvetica,sans-Serif" font-size="10.00">../Exceptions/ParsingException</text>
<text text-anchor="middle" x="327.48" y="-359" font-family="Helvetica,sans-Serif" font-size="10.00">/ParsingException.hpp</text>
</a>
</g>
</g>
<!-- Node3&#45;&gt;Node8 -->
<g id="edge7_Node000003_Node000008" class="edge">
<title>Node3&#45;&gt;Node8</title>
<g id="a_edge7_Node000003_Node000008"><a xlink:title=" ">
<path fill="none" stroke="#63b8ff" d="M581.29,-417.99C536.14,-409.1 464.23,-394.94 408.46,-383.95"/>
<polygon fill="#63b8ff" stroke="#63b8ff" points="409.08,-380.51 398.6,-382.01 407.73,-387.37 409.08,-380.51"/>
</a>
</g>
</g>
<!-- Node14 -->
<g id="Node000014" class="node">
<title>Node14</title>
<g id="a_Node000014"><a xlink:href="AInterface_8hpp.html" target="_top" xlink:title=" ">
<polygon fill="white" stroke="#666666" points="829.48,-382 713.48,-382 713.48,-352 829.48,-352 829.48,-382"/>
<text text-anchor="start" x="721.48" y="-370" font-family="Helvetica,sans-Serif" font-size="10.00">Abstracts/AInterface</text>
<text text-anchor="middle" x="771.48" y="-359" font-family="Helvetica,sans-Serif" font-size="10.00">/AInterface.hpp</text>
</a>
</g>
</g>
<!-- Node3&#45;&gt;Node14 -->
<g id="edge13_Node000003_Node000014" class="edge">
<title>Node3&#45;&gt;Node14</title>
<g id="a_edge13_Node000003_Node000014"><a xlink:title=" ">
<path fill="none" stroke="#63b8ff" d="M645.85,-417.99C666.92,-409.61 699.75,-396.55 726.56,-385.87"/>
<polygon fill="#63b8ff" stroke="#63b8ff" points="728.14,-389.01 736.14,-382.06 725.55,-382.51 728.14,-389.01"/>
</a>
</g>
</g>
<!-- Node15 -->
<g id="Node000015" class="node">
<title>Node15</title>
<g id="a_Node000015"><a xlink:href="ARenderer_8hpp.html" target="_top" xlink:title=" ">
<polygon fill="white" stroke="#666666" points="758.98,-310.5 607.98,-310.5 607.98,-291.5 758.98,-291.5 758.98,-310.5"/>
<text text-anchor="middle" x="683.48" y="-298.5" font-family="Helvetica,sans-Serif" font-size="10.00">../ARenderer/ARenderer.hpp</text>
</a>
</g>
</g>
<!-- Node3&#45;&gt;Node15 -->
<g id="edge42_Node000003_Node000015" class="edge">
<title>Node3&#45;&gt;Node15</title>
<g id="a_edge42_Node000003_Node000015"><a xlink:title=" ">
<path fill="none" stroke="#63b8ff" d="M635.55,-417.84C645.23,-409.65 658.88,-396.49 666.48,-382 676.55,-362.79 680.66,-338.02 682.33,-321.17"/>
<polygon fill="#63b8ff" stroke="#63b8ff" points="685.84,-321.18 683.14,-310.93 678.86,-320.62 685.84,-321.18"/>
</a>
</g>
</g>
<!-- Node19 -->
<g id="Node000019" class="node">
<title>Node19</title>
<g id="a_Node000019"><a xlink:href="APrimitive_8hpp.html" target="_top" xlink:title=" ">
<polygon fill="white" stroke="#666666" points="1237.48,-382 1121.48,-382 1121.48,-352 1237.48,-352 1237.48,-382"/>
<text text-anchor="start" x="1129.48" y="-370" font-family="Helvetica,sans-Serif" font-size="10.00">Abstracts/APrimitive</text>
<text text-anchor="middle" x="1179.48" y="-359" font-family="Helvetica,sans-Serif" font-size="10.00">/APrimitive.hpp</text>
</a>
</g>
</g>
<!-- Node3&#45;&gt;Node19 -->
<g id="edge18_Node000003_Node000019" class="edge">
<title>Node3&#45;&gt;Node19</title>
<g id="a_edge18_Node000003_Node000019"><a xlink:title=" ">
<path fill="none" stroke="#63b8ff" d="M676.69,-421C777.44,-410.38 998.6,-387.07 1110.99,-375.22"/>
<polygon fill="#63b8ff" stroke="#63b8ff" points="1111.62,-378.67 1121.2,-374.14 1110.88,-371.71 1111.62,-378.67"/>
</a>
</g>
</g>
<!-- Node20 -->
<g id="Node000020" class="node">
<title>Node20</title>
<g id="a_Node000020"><a xlink:href="IMaterial_8hpp.html" target="_top" xlink:title=" ">
<polygon fill="white" stroke="#666666" points="905.48,-310.5 815.48,-310.5 815.48,-291.5 905.48,-291.5 905.48,-310.5"/>
<text text-anchor="middle" x="860.48" y="-298.5" font-family="Helvetica,sans-Serif" font-size="10.00">../IMaterial.hpp</text>
</a>
</g>
</g>
<!-- Node3&#45;&gt;Node20 -->
<g id="edge44_Node000003_Node000020" class="edge">
<title>Node3&#45;&gt;Node20</title>
<g id="a_edge44_Node000003_Node000020"><a xlink:title=" ">
<path fill="none" stroke="#63b8ff" d="M676.72,-421.86C732.35,-415.87 815.51,-403.55 838.48,-382 855.18,-366.33 859.62,-339.26 860.59,-321"/>
<polygon fill="#63b8ff" stroke="#63b8ff" points="864.09,-321.03 860.82,-310.95 857.09,-320.87 864.09,-321.03"/>
</a>
</g>
</g>
<!-- Node21 -->
<g id="Node000021" class="node">
<title>Node21</title>
<g id="a_Node000021"><a xlink:href="ILight_8hpp.html" target="_top" xlink:title=" ">
<polygon fill="white" stroke="#666666" points="866.98,-250 801.98,-250 801.98,-231 866.98,-231 866.98,-250"/>
<text text-anchor="middle" x="834.48" y="-238" font-family="Helvetica,sans-Serif" font-size="10.00">ILight.hpp</text>
</a>
</g>
</g>
<!-- Node3&#45;&gt;Node21 -->
<g id="edge43_Node000003_Node000021" class="edge">
<title>Node3&#45;&gt;Node21</title>
<g id="a_edge43_Node000003_Node000021"><a xlink:title=" ">
<path fill="none" stroke="#63b8ff" d="M612.55,-417.8C602.65,-409.77 589.29,-396.87 583.48,-382 567.75,-341.71 568.13,-315.8 599.48,-286 626.52,-260.29 731.4,-248.75 791.51,-244.15"/>
<polygon fill="#63b8ff" stroke="#63b8ff" points="792.11,-247.62 801.83,-243.4 791.6,-240.64 792.11,-247.62"/>
</a>
</g>
</g>
<!-- Node9 -->
<g id="Node000009" class="node">
<title>Node9</title>
<g id="a_Node000009"><a xlink:href="RaytracerException_8hpp.html" target="_top" xlink:title=" ">
<polygon fill="white" stroke="#666666" points="395.48,-316 259.48,-316 259.48,-286 395.48,-286 395.48,-316"/>
<text text-anchor="start" x="267.48" y="-304" font-family="Helvetica,sans-Serif" font-size="10.00">../RaytracerException</text>
<text text-anchor="middle" x="327.48" y="-293" font-family="Helvetica,sans-Serif" font-size="10.00">/RaytracerException.hpp</text>
</a>
</g>
</g>
<!-- Node8&#45;&gt;Node9 -->
<g id="edge8_Node000008_Node000009" class="edge">
<title>Node8&#45;&gt;Node9</title>
<g id="a_edge8_Node000008_Node000009"><a xlink:title=" ">
<path fill="none" stroke="#63b8ff" d="M327.48,-351.8C327.48,-344.34 327.48,-334.99 327.48,-326.41"/>
<polygon fill="#63b8ff" stroke="#63b8ff" points="330.98,-326.16 327.48,-316.16 323.98,-326.16 330.98,-326.16"/>
</a>
</g>
</g>
<!-- Node10 -->
<g id="Node000010" class="node">
<title>Node10</title>
<g id="a_Node000010"><a xlink:title=" ">
<polygon fill="#e0e0e0" stroke="#999999" points="349.98,-250 284.98,-250 284.98,-231 349.98,-231 349.98,-250"/>
<text text-anchor="middle" x="317.48" y="-238" font-family="Helvetica,sans-Serif" font-size="10.00">exception</text>
</a>
</g>
</g>
<!-- Node9&#45;&gt;Node10 -->
<g id="edge9_Node000009_Node000010" class="edge">
<title>Node9&#45;&gt;Node10</title>
<g id="a_edge9_Node000009_Node000010"><a xlink:title=" ">
<path fill="none" stroke="#63b8ff" d="M325.06,-285.84C323.74,-278.13 322.09,-268.49 320.67,-260.17"/>
<polygon fill="#63b8ff" stroke="#63b8ff" points="324.11,-259.53 318.98,-250.27 317.21,-260.71 324.11,-259.53"/>
</a>
</g>
</g>
<!-- Node11 -->
<g id="Node000011" class="node">
<title>Node11</title>
<g id="a_Node000011"><a xlink:title=" ">
<polygon fill="#e0e0e0" stroke="#999999" points="266.48,-250 206.48,-250 206.48,-231 266.48,-231 266.48,-250"/>
<text text-anchor="middle" x="236.48" y="-238" font-family="Helvetica,sans-Serif" font-size="10.00">iostream</text>
</a>
</g>
</g>
<!-- Node9&#45;&gt;Node11 -->
<g id="edge10_Node000009_Node000011" class="edge">
<title>Node9&#45;&gt;Node11</title>
<g id="a_edge10_Node000009_Node000011"><a xlink:title=" ">
<path fill="none" stroke="#63b8ff" d="M305.45,-285.84C291.21,-276.68 272.75,-264.82 258.51,-255.66"/>
<polygon fill="#63b8ff" stroke="#63b8ff" points="260.15,-252.56 249.85,-250.09 256.37,-258.45 260.15,-252.56"/>
</a>
</g>
</g>
<!-- Node12 -->
<g id="Node000012" class="node">
<title>Node12</title>
<g id="a_Node000012"><a xlink:title=" ">
<polygon fill="#e0e0e0" stroke="#999999" points="412.48,-250 368.48,-250 368.48,-231 412.48,-231 412.48,-250"/>
<text text-anchor="middle" x="390.48" y="-238" font-family="Helvetica,sans-Serif" font-size="10.00">string</text>
</a>
</g>
</g>
<!-- Node9&#45;&gt;Node12 -->
<g id="edge11_Node000009_Node000012" class="edge">
<title>Node9&#45;&gt;Node12</title>
<g id="a_edge11_Node000009_Node000012"><a xlink:title=" ">
<path fill="none" stroke="#63b8ff" d="M342.73,-285.84C352.06,-277.17 364.01,-266.08 373.62,-257.15"/>
<polygon fill="#63b8ff" stroke="#63b8ff" points="376.09,-259.64 381.04,-250.27 371.33,-254.51 376.09,-259.64"/>
</a>
</g>
</g>
<!-- Node13 -->
<g id="Node000013" class="node">
<title>Node13</title>
<g id="a_Node000013"><a xlink:title=" ">
<polygon fill="#e0e0e0" stroke="#999999" points="523.98,-250 430.98,-250 430.98,-231 523.98,-231 523.98,-250"/>
<text text-anchor="middle" x="477.48" y="-238" font-family="Helvetica,sans-Serif" font-size="10.00">source_location</text>
</a>
</g>
</g>
<!-- Node9&#45;&gt;Node13 -->
<g id="edge12_Node000009_Node000013" class="edge">
<title>Node9&#45;&gt;Node13</title>
<g id="a_edge12_Node000009_Node000013"><a xlink:title=" ">
<path fill="none" stroke="#63b8ff" d="M363.41,-285.99C388.55,-276.18 421.81,-263.21 445.93,-253.81"/>
<polygon fill="#63b8ff" stroke="#63b8ff" points="447.28,-257.03 455.33,-250.14 444.74,-250.51 447.28,-257.03"/>
</a>
</g>
</g>
<!-- Node14&#45;&gt;Node15 -->
<g id="edge14_Node000014_Node000015" class="edge">
<title>Node14&#45;&gt;Node15</title>
<g id="a_edge14_Node000014_Node000015"><a xlink:title=" ">
<path fill="none" stroke="#63b8ff" d="M751.95,-351.8C737.61,-341.37 718.18,-327.24 703.68,-316.69"/>
<polygon fill="#63b8ff" stroke="#63b8ff" points="705.53,-313.71 695.38,-310.66 701.41,-319.37 705.53,-313.71"/>
</a>
</g>
</g>
<!-- Node15&#45;&gt;Node16 -->
<g id="edge15_Node000015_Node000016" class="edge">
<title>Node15&#45;&gt;Node16</title>
<g id="a_edge15_Node000015_Node000016"><a xlink:title=" ">
<path fill="none" stroke="#63b8ff" d="M721.95,-291.45C761.18,-282.4 823.62,-267.08 876.48,-250 929.46,-232.88 989.55,-208.33 1024.32,-193.59"/>
<polygon fill="#63b8ff" stroke="#63b8ff" points="1026.02,-196.68 1033.85,-189.54 1023.28,-190.24 1026.02,-196.68"/>
</a>
</g>
</g>
<!-- Node18 -->
<g id="Node000018" class="node">
<title>Node18</title>
<g id="a_Node000018"><a xlink:title=" ">
<polygon fill="#e0e0e0" stroke="#999999" points="727.98,-189.5 680.98,-189.5 680.98,-170.5 727.98,-170.5 727.98,-189.5"/>
<text text-anchor="middle" x="704.48" y="-177.5" font-family="Helvetica,sans-Serif" font-size="10.00">vector</text>
</a>
</g>
</g>
<!-- Node15&#45;&gt;Node18 -->
<g id="edge17_Node000015_Node000018" class="edge">
<title>Node15&#45;&gt;Node18</title>
<g id="a_edge17_Node000015_Node000018"><a xlink:title=" ">
<path fill="none" stroke="#63b8ff" d="M684.99,-291.44C688.35,-272.41 696.5,-226.19 701.13,-199.97"/>
<polygon fill="#63b8ff" stroke="#63b8ff" points="704.63,-200.26 702.93,-189.8 697.74,-199.04 704.63,-200.26"/>
</a>
</g>
</g>
<!-- Node17 -->
<g id="Node000017" class="node">
<title>Node17</title>
<g id="a_Node000017"><a xlink:title=" ">
<polygon fill="#e0e0e0" stroke="#999999" points="1325.48,-129 1261.48,-129 1261.48,-110 1325.48,-110 1325.48,-129"/>
<text text-anchor="middle" x="1293.48" y="-117" font-family="Helvetica,sans-Serif" font-size="10.00">algorithm</text>
</a>
</g>
</g>
<!-- Node16&#45;&gt;Node17 -->
<g id="edge16_Node000016_Node000017" class="edge">
<title>Node16&#45;&gt;Node17</title>
<g id="a_edge16_Node000016_Node000017"><a xlink:title=" ">
<path fill="none" stroke="#63b8ff" d="M1088.38,-170.49C1131.62,-159.95 1205.23,-142.01 1251.51,-130.73"/>
<polygon fill="#63b8ff" stroke="#63b8ff" points="1252.34,-134.13 1261.23,-128.36 1250.68,-127.33 1252.34,-134.13"/>
</a>
</g>
</g>
<!-- Node19&#45;&gt;Node5 -->
<g id="edge31_Node000019_Node000005" class="edge">
<title>Node19&#45;&gt;Node5</title>
<g id="a_edge31_Node000019_Node000005"><a xlink:title=" ">
<path fill="none" stroke="#63b8ff" d="M1162.3,-351.91C1150.24,-341.97 1133.78,-328.28 1119.48,-316 1076.25,-278.87 1068.63,-265.78 1023.48,-231 1006.64,-218.03 986.56,-204.75 971.42,-195.14"/>
<polygon fill="#63b8ff" stroke="#63b8ff" points="973.03,-192.02 962.7,-189.66 969.31,-197.95 973.03,-192.02"/>
</a>
</g>
</g>
<!-- Node19&#45;&gt;Node20 -->
<g id="edge19_Node000019_Node000020" class="edge">
<title>Node19&#45;&gt;Node20</title>
<g id="a_edge19_Node000019_Node000020"><a xlink:title=" ">
<path fill="none" stroke="#63b8ff" d="M1121.34,-354.34C1061.84,-342.4 970.19,-324.01 912.87,-312.51"/>
<polygon fill="#63b8ff" stroke="#63b8ff" points="913.42,-309.05 902.93,-310.52 912.04,-315.92 913.42,-309.05"/>
</a>
</g>
</g>
<!-- Node26 -->
<g id="Node000026" class="node">
<title>Node26</title>
<g id="a_Node000026"><a xlink:title=" ">
<polygon fill="#e0e0e0" stroke="#999999" points="1362.48,-310.5 1306.48,-310.5 1306.48,-291.5 1362.48,-291.5 1362.48,-310.5"/>
<text text-anchor="middle" x="1334.48" y="-298.5" font-family="Helvetica,sans-Serif" font-size="10.00">optional</text>
</a>
</g>
</g>
<!-- Node19&#45;&gt;Node26 -->
<g id="edge32_Node000019_Node000026" class="edge">
<title>Node19&#45;&gt;Node26</title>
<g id="a_edge32_Node000019_Node000026"><a xlink:title=" ">
<path fill="none" stroke="#63b8ff" d="M1213.49,-351.95C1240.68,-340.73 1278.41,-325.15 1304.48,-314.39"/>
<polygon fill="#63b8ff" stroke="#63b8ff" points="1305.94,-317.57 1313.85,-310.52 1303.27,-311.1 1305.94,-317.57"/>
</a>
</g>
</g>
<!-- Node27 -->
<g id="Node000027" class="node">
<title>Node27</title>
<g id="a_Node000027"><a xlink:href="AABB_8hpp.html" target="_top" xlink:title=" ">
<polygon fill="white" stroke="#666666" points="1250.48,-316 1128.48,-316 1128.48,-286 1250.48,-286 1250.48,-316"/>
<text text-anchor="start" x="1136.48" y="-304" font-family="Helvetica,sans-Serif" font-size="10.00">../../../Geometry/AABB</text>
<text text-anchor="middle" x="1189.48" y="-293" font-family="Helvetica,sans-Serif" font-size="10.00">/AABB.hpp</text>
</a>
</g>
</g>
<!-- Node19&#45;&gt;Node27 -->
<g id="edge33_Node000019_Node000027" class="edge">
<title>Node19&#45;&gt;Node27</title>
<g id="a_edge33_Node000019_Node000027"><a xlink:title=" ">
<path fill="none" stroke="#63b8ff" d="M1181.7,-351.8C1182.88,-344.26 1184.36,-334.78 1185.71,-326.13"/>
<polygon fill="#63b8ff" stroke="#63b8ff" points="1189.18,-326.58 1187.27,-316.16 1182.26,-325.5 1189.18,-326.58"/>
</a>
</g>
</g>
<!-- Node30 -->
<g id="Node000030" class="node">
<title>Node30</title>
<g id="a_Node000030"><a xlink:href="Ray_8hpp.html" target="_top" xlink:title=" ">
<polygon fill="white" stroke="#666666" points="1403.48,-250 1317.48,-250 1317.48,-231 1403.48,-231 1403.48,-250"/>
<text text-anchor="middle" x="1360.48" y="-238" font-family="Helvetica,sans-Serif" font-size="10.00">../Ray/Ray.hpp</text>
</a>
</g>
</g>
<!-- Node19&#45;&gt;Node30 -->
<g id="edge41_Node000019_Node000030" class="edge">
<title>Node19&#45;&gt;Node30</title>
<g id="a_edge41_Node000019_Node000030"><a xlink:title=" ">
<path fill="none" stroke="#63b8ff" d="M1203.73,-351.79C1219.83,-342.13 1241.27,-328.82 1259.48,-316 1277.07,-303.61 1280.24,-298.88 1297.48,-286 1311.29,-275.68 1327.15,-264.49 1339.49,-255.91"/>
<polygon fill="#63b8ff" stroke="#63b8ff" points="1341.55,-258.74 1347.79,-250.17 1337.57,-252.98 1341.55,-258.74"/>
</a>
</g>
</g>
<!-- Node20&#45;&gt;Node16 -->
<g id="edge20_Node000020_Node000016" class="edge">
<title>Node20&#45;&gt;Node16</title>
<g id="a_edge20_Node000020_Node000016"><a xlink:title=" ">
<path fill="none" stroke="#63b8ff" d="M891.74,-291.44C918.13,-283.33 956.18,-269.47 985.48,-250 1007.26,-235.52 1027.67,-213.18 1040.33,-197.86"/>
<polygon fill="#63b8ff" stroke="#63b8ff" points="1043.3,-199.76 1046.85,-189.77 1037.85,-195.37 1043.3,-199.76"/>
</a>
</g>
</g>
<!-- Node20&#45;&gt;Node18 -->
<g id="edge30_Node000020_Node000018" class="edge">
<title>Node20&#45;&gt;Node18</title>
<g id="a_edge30_Node000020_Node000018"><a xlink:title=" ">
<path fill="none" stroke="#63b8ff" d="M848.57,-291.21C835.13,-281.28 812.65,-264.59 793.48,-250 769.14,-231.49 741.32,-209.84 723.36,-195.8"/>
<polygon fill="#63b8ff" stroke="#63b8ff" points="725.42,-192.97 715.39,-189.56 721.11,-198.48 725.42,-192.97"/>
</a>
</g>
</g>
<!-- Node20&#45;&gt;Node21 -->
<g id="edge21_Node000020_Node000021" class="edge">
<title>Node20&#45;&gt;Node21</title>
<g id="a_edge21_Node000020_Node000021"><a xlink:title=" ">
<path fill="none" stroke="#63b8ff" d="M856.64,-291.37C852.92,-282.99 847.15,-270.01 842.43,-259.39"/>
<polygon fill="#63b8ff" stroke="#63b8ff" points="845.59,-257.88 838.33,-250.17 839.19,-260.73 845.59,-257.88"/>
</a>
</g>
</g>
<!-- Node21&#45;&gt;Node5 -->
<g id="edge29_Node000021_Node000005" class="edge">
<title>Node21&#45;&gt;Node5</title>
<g id="a_edge29_Node000021_Node000005"><a xlink:title=" ">
<path fill="none" stroke="#63b8ff" d="M851.3,-230.87C870.08,-221.23 900.68,-205.53 922.53,-194.31"/>
<polygon fill="#63b8ff" stroke="#63b8ff" points="924.29,-197.35 931.59,-189.67 921.09,-191.12 924.29,-197.35"/>
</a>
</g>
</g>
<!-- Node21&#45;&gt;Node16 -->
<g id="edge27_Node000021_Node000016" class="edge">
<title>Node21&#45;&gt;Node16</title>
<g id="a_edge27_Node000021_Node000016"><a xlink:title=" ">
<path fill="none" stroke="#63b8ff" d="M866.32,-230.99C904.76,-220.73 969.51,-203.43 1011.87,-192.12"/>
<polygon fill="#63b8ff" stroke="#63b8ff" points="1012.84,-195.48 1021.6,-189.52 1011.03,-188.72 1012.84,-195.48"/>
</a>
</g>
</g>
<!-- Node21&#45;&gt;Node18 -->
<g id="edge28_Node000021_Node000018" class="edge">
<title>Node21&#45;&gt;Node18</title>
<g id="a_edge28_Node000021_Node000018"><a xlink:title=" ">
<path fill="none" stroke="#63b8ff" d="M815.58,-230.99C793.82,-221.2 757.86,-205.02 732.77,-193.73"/>
<polygon fill="#63b8ff" stroke="#63b8ff" points="733.96,-190.43 723.4,-189.52 731.09,-196.81 733.96,-190.43"/>
</a>
</g>
</g>
<!-- Node22 -->
<g id="Node000022" class="node">
<title>Node22</title>
<g id="a_Node000022"><a xlink:href="HitRecord_8hpp.html" target="_top" xlink:title=" ">
<polygon fill="white" stroke="#666666" points="901.48,-195 767.48,-195 767.48,-165 901.48,-165 901.48,-195"/>
<text text-anchor="start" x="775.48" y="-183" font-family="Helvetica,sans-Serif" font-size="10.00">../../Geometry/HitRecord</text>
<text text-anchor="middle" x="834.48" y="-172" font-family="Helvetica,sans-Serif" font-size="10.00">/HitRecord.hpp</text>
</a>
</g>
</g>
<!-- Node21&#45;&gt;Node22 -->
<g id="edge22_Node000021_Node000022" class="edge">
<title>Node21&#45;&gt;Node22</title>
<g id="a_edge22_Node000021_Node000022"><a xlink:title=" ">
<path fill="none" stroke="#63b8ff" d="M834.48,-230.87C834.48,-224.11 834.48,-214.35 834.48,-205.26"/>
<polygon fill="#63b8ff" stroke="#63b8ff" points="837.98,-205.11 834.48,-195.11 830.98,-205.11 837.98,-205.11"/>
</a>
</g>
</g>
<!-- Node23 -->
<g id="Node000023" class="node">
<title>Node23</title>
<g id="a_Node000023"><a xlink:href="Point3D_8hpp.html" target="_top" xlink:title=" ">
<polygon fill="white" stroke="#666666" points="1243.48,-129 1117.48,-129 1117.48,-110 1243.48,-110 1243.48,-129"/>
<text text-anchor="middle" x="1180.48" y="-117" font-family="Helvetica,sans-Serif" font-size="10.00">../Point3D/Point3D.hpp</text>
</a>
</g>
</g>
<!-- Node22&#45;&gt;Node23 -->
<g id="edge23_Node000022_Node000023" class="edge">
<title>Node22&#45;&gt;Node23</title>
<g id="a_edge23_Node000022_Node000023"><a xlink:title=" ">
<path fill="none" stroke="#63b8ff" d="M901.6,-166.56C904.6,-166.03 907.57,-165.51 910.48,-165 981.08,-152.68 1062.24,-139.43 1116.99,-130.62"/>
<polygon fill="#63b8ff" stroke="#63b8ff" points="1117.58,-134.07 1126.89,-129.03 1116.47,-127.16 1117.58,-134.07"/>
</a>
</g>
</g>
<!-- Node24 -->
<g id="Node000024" class="node">
<title>Node24</title>
<g id="a_Node000024"><a xlink:href="Vector3D_8hpp.html" target="_top" xlink:title=" ">
<polygon fill="white" stroke="#666666" points="1249.48,-74 1111.48,-74 1111.48,-55 1249.48,-55 1249.48,-74"/>
<text text-anchor="middle" x="1180.48" y="-62" font-family="Helvetica,sans-Serif" font-size="10.00">../Vector3D/Vector3D.hpp</text>
</a>
</g>
</g>
<!-- Node22&#45;&gt;Node24 -->
<g id="edge26_Node000022_Node000024" class="edge">
<title>Node22&#45;&gt;Node24</title>
<g id="a_edge26_Node000022_Node000024"><a xlink:title=" ">
<path fill="none" stroke="#63b8ff" d="M877.25,-164.97C946.07,-142.39 1080.16,-98.41 1144.43,-77.33"/>
<polygon fill="#63b8ff" stroke="#63b8ff" points="1145.72,-80.59 1154.13,-74.14 1143.53,-73.94 1145.72,-80.59"/>
</a>
</g>
</g>
<!-- Node23&#45;&gt;Node24 -->
<g id="edge24_Node000023_Node000024" class="edge">
<title>Node23&#45;&gt;Node24</title>
<g id="a_edge24_Node000023_Node000024"><a xlink:title=" ">
<path fill="none" stroke="#63b8ff" d="M1180.48,-109.75C1180.48,-102.8 1180.48,-92.85 1180.48,-84.13"/>
<polygon fill="#63b8ff" stroke="#63b8ff" points="1183.98,-84.09 1180.48,-74.09 1176.98,-84.09 1183.98,-84.09"/>
</a>
</g>
</g>
<!-- Node25 -->
<g id="Node000025" class="node">
<title>Node25</title>
<g id="a_Node000025"><a xlink:title=" ">
<polygon fill="#e0e0e0" stroke="#999999" points="1205.98,-19 1154.98,-19 1154.98,0 1205.98,0 1205.98,-19"/>
<text text-anchor="middle" x="1180.48" y="-7" font-family="Helvetica,sans-Serif" font-size="10.00">math.h</text>
</a>
</g>
</g>
<!-- Node24&#45;&gt;Node25 -->
<g id="edge25_Node000024_Node000025" class="edge">
<title>Node24&#45;&gt;Node25</title>
<g id="a_edge25_Node000024_Node000025"><a xlink:title=" ">
<path fill="none" stroke="#63b8ff" d="M1180.48,-54.75C1180.48,-47.8 1180.48,-37.85 1180.48,-29.13"/>
<polygon fill="#63b8ff" stroke="#63b8ff" points="1183.98,-29.09 1180.48,-19.09 1176.98,-29.09 1183.98,-29.09"/>
</a>
</g>
</g>
<!-- Node27&#45;&gt;Node17 -->
<g id="edge34_Node000027_Node000017" class="edge">
<title>Node27&#45;&gt;Node17</title>
<g id="a_edge34_Node000027_Node000017"><a xlink:title=" ">
<path fill="none" stroke="#63b8ff" d="M1225.58,-285.93C1241.76,-277.81 1259.61,-265.99 1270.48,-250 1293.5,-216.12 1295.55,-166.14 1294.72,-139.25"/>
<polygon fill="#63b8ff" stroke="#63b8ff" points="1298.21,-139.08 1294.24,-129.26 1291.22,-139.42 1298.21,-139.08"/>
</a>
</g>
</g>
<!-- Node27&#45;&gt;Node23 -->
<g id="edge37_Node000027_Node000023" class="edge">
<title>Node27&#45;&gt;Node23</title>
<g id="a_edge37_Node000027_Node000023"><a xlink:title=" ">
<path fill="none" stroke="#63b8ff" d="M1188.77,-285.91C1187.16,-253.85 1183.23,-175.38 1181.42,-139.26"/>
<polygon fill="#63b8ff" stroke="#63b8ff" points="1184.91,-138.95 1180.91,-129.13 1177.92,-139.3 1184.91,-138.95"/>
</a>
</g>
</g>
<!-- Node28 -->
<g id="Node000028" class="node">
<title>Node28</title>
<g id="a_Node000028"><a xlink:title=" ">
<polygon fill="#e0e0e0" stroke="#999999" points="1260.98,-250 1213.98,-250 1213.98,-231 1260.98,-231 1260.98,-250"/>
<text text-anchor="middle" x="1237.48" y="-238" font-family="Helvetica,sans-Serif" font-size="10.00">cmath</text>
</a>
</g>
</g>
<!-- Node27&#45;&gt;Node28 -->
<g id="edge35_Node000027_Node000028" class="edge">
<title>Node27&#45;&gt;Node28</title>
<g id="a_edge35_Node000027_Node000028"><a xlink:title=" ">
<path fill="none" stroke="#63b8ff" d="M1201.1,-285.84C1207.92,-277.52 1216.59,-266.96 1223.75,-258.23"/>
<polygon fill="#63b8ff" stroke="#63b8ff" points="1226.65,-260.22 1230.29,-250.27 1221.24,-255.78 1226.65,-260.22"/>
</a>
</g>
</g>
<!-- Node29 -->
<g id="Node000029" class="node">
<title>Node29</title>
<g id="a_Node000029"><a xlink:title=" ">
<polygon fill="#e0e0e0" stroke="#999999" points="1157.48,-250 1113.48,-250 1113.48,-231 1157.48,-231 1157.48,-250"/>
<text text-anchor="middle" x="1135.48" y="-238" font-family="Helvetica,sans-Serif" font-size="10.00">limits</text>
</a>
</g>
</g>
<!-- Node27&#45;&gt;Node29 -->
<g id="edge36_Node000027_Node000029" class="edge">
<title>Node27&#45;&gt;Node29</title>
<g id="a_edge36_Node000027_Node000029"><a xlink:title=" ">
<path fill="none" stroke="#63b8ff" d="M1176.41,-285.84C1168.57,-277.35 1158.57,-266.52 1150.42,-257.69"/>
<polygon fill="#63b8ff" stroke="#63b8ff" points="1152.93,-255.24 1143.57,-250.27 1147.78,-259.99 1152.93,-255.24"/>
</a>
</g>
</g>
<!-- Node27&#45;&gt;Node30 -->
<g id="edge38_Node000027_Node000030" class="edge">
<title>Node27&#45;&gt;Node30</title>
<g id="a_edge38_Node000027_Node000030"><a xlink:title=" ">
<path fill="none" stroke="#63b8ff" d="M1230.44,-285.99C1259.48,-276.05 1298.03,-262.86 1325.6,-253.43"/>
<polygon fill="#63b8ff" stroke="#63b8ff" points="1326.9,-256.69 1335.23,-250.14 1324.63,-250.06 1326.9,-256.69"/>
</a>
</g>
</g>
<!-- Node30&#45;&gt;Node23 -->
<g id="edge39_Node000030_Node000023" class="edge">
<title>Node30&#45;&gt;Node23</title>
<g id="a_edge39_Node000030_Node000023"><a xlink:title=" ">
<path fill="none" stroke="#63b8ff" d="M1347.53,-230.94C1317.07,-210.8 1240.54,-160.21 1202.57,-135.1"/>
<polygon fill="#63b8ff" stroke="#63b8ff" points="1204.06,-131.9 1193.79,-129.3 1200.2,-137.74 1204.06,-131.9"/>
</a>
</g>
</g>
<!-- Node30&#45;&gt;Node24 -->
<g id="edge40_Node000030_Node000024" class="edge">
<title>Node30&#45;&gt;Node24</title>
<g id="a_edge40_Node000030_Node000024"><a xlink:title=" ">
<path fill="none" stroke="#63b8ff" d="M1361.52,-230.92C1363.78,-208.04 1366.62,-144.93 1334.48,-110 1315.26,-89.12 1286.92,-77.81 1259.77,-71.76"/>
<polygon fill="#63b8ff" stroke="#63b8ff" points="1260.33,-68.31 1249.84,-69.76 1258.95,-75.17 1260.33,-68.31"/>
</a>
</g>
</g>
<!-- Node31&#45;&gt;Node3 -->
<g id="edge46_Node000031_Node000003" class="edge">
<title>Node31&#45;&gt;Node3</title>
<g id="a_edge46_Node000031_Node000003"><a xlink:title=" ">
<path fill="none" stroke="#63b8ff" d="M982.92,-527.97C900.96,-505.23 740.71,-460.75 665.41,-439.86"/>
<polygon fill="#63b8ff" stroke="#63b8ff" points="665.94,-436.37 655.37,-437.07 664.07,-443.12 665.94,-436.37"/>
</a>
</g>
</g>
<!-- Node31&#45;&gt;Node5 -->
<g id="edge63_Node000031_Node000005" class="edge">
<title>Node31&#45;&gt;Node5</title>
<g id="a_edge63_Node000031_Node000005"><a xlink:title=" ">
<path fill="none" stroke="#63b8ff" d="M1019.72,-527.94C1001.45,-507.73 971.48,-468.47 971.48,-428.5 971.48,-428.5 971.48,-428.5 971.48,-366 971.48,-304.91 958.98,-233.34 952.41,-199.95"/>
<polygon fill="#63b8ff" stroke="#63b8ff" points="955.77,-198.92 950.36,-189.81 948.91,-200.3 955.77,-198.92"/>
</a>
</g>
</g>
<!-- Node31&#45;&gt;Node18 -->
<g id="edge62_Node000031_Node000018" class="edge">
<title>Node31&#45;&gt;Node18</title>
<g id="a_edge62_Node000031_Node000018"><a xlink:title=" ">
<path fill="none" stroke="#63b8ff" d="M969.22,-535.75C770.38,-515.55 178.48,-448.66 178.48,-368 178.48,-368 178.48,-368 178.48,-300 178.48,-268.19 173.15,-251.5 197.48,-231 233.61,-200.56 562.6,-186.1 670.43,-182.15"/>
<polygon fill="#63b8ff" stroke="#63b8ff" points="670.87,-185.64 680.74,-181.78 670.62,-178.64 670.87,-185.64"/>
</a>
</g>
</g>
<!-- Node31&#45;&gt;Node26 -->
<g id="edge64_Node000031_Node000026" class="edge">
<title>Node31&#45;&gt;Node26</title>
<g id="a_edge64_Node000031_Node000026"><a xlink:title=" ">
<path fill="none" stroke="#63b8ff" d="M1068.12,-527.84C1121.95,-504.39 1226.34,-452.94 1292.48,-382 1309.4,-363.85 1321.44,-337.59 1328.18,-320.17"/>
<polygon fill="#63b8ff" stroke="#63b8ff" points="1331.53,-321.21 1331.68,-310.61 1324.95,-318.8 1331.53,-321.21"/>
</a>
</g>
</g>
<!-- Node31&#45;&gt;Node30 -->
<g id="edge61_Node000031_Node000030" class="edge">
<title>Node31&#45;&gt;Node30</title>
<g id="a_edge61_Node000031_Node000030"><a xlink:title=" ">
<path fill="none" stroke="#63b8ff" d="M1097.72,-534.91C1200.5,-521.75 1390.48,-489.23 1390.48,-428.5 1390.48,-428.5 1390.48,-428.5 1390.48,-366 1390.48,-327.25 1376.57,-283.55 1367.69,-259.6"/>
<polygon fill="#63b8ff" stroke="#63b8ff" points="1370.89,-258.16 1364.04,-250.08 1364.36,-260.67 1370.89,-258.16"/>
</a>
</g>
</g>
<!-- Node32 -->
<g id="Node000032" class="node">
<title>Node32</title>
<g id="a_Node000032"><a xlink:href="PluginManager_8hpp.html" target="_top" xlink:title="Plugin manager for loading and managing plugins.">
<polygon fill="white" stroke="#666666" points="220.48,-492 26.48,-492 26.48,-473 220.48,-473 220.48,-492"/>
<text text-anchor="middle" x="123.48" y="-480" font-family="Helvetica,sans-Serif" font-size="10.00">../PluginManager/PluginManager.hpp</text>
</a>
</g>
</g>
<!-- Node31&#45;&gt;Node32 -->
<g id="edge47_Node000031_Node000032" class="edge">
<title>Node31&#45;&gt;Node32</title>
<g id="a_edge47_Node000031_Node000032"><a xlink:title=" ">
<path fill="none" stroke="#63b8ff" d="M969.36,-538.4C834.69,-530.76 512.31,-512.03 230.53,-492.06"/>
<polygon fill="#63b8ff" stroke="#63b8ff" points="230.74,-488.57 220.52,-491.35 230.25,-495.55 230.74,-488.57"/>
</a>
</g>
</g>
<!-- Node35 -->
<g id="Node000035" class="node">
<title>Node35</title>
<g id="a_Node000035"><a xlink:href="BVH_8hpp.html" target="_top" xlink:title=" ">
<polygon fill="white" stroke="#666666" points="1194.48,-437 1102.48,-437 1102.48,-418 1194.48,-418 1194.48,-437"/>
<text text-anchor="middle" x="1148.48" y="-425" font-family="Helvetica,sans-Serif" font-size="10.00">../BVH/BVH.hpp</text>
</a>
</g>
</g>
<!-- Node31&#45;&gt;Node35 -->
<g id="edge53_Node000031_Node000035" class="edge">
<title>Node31&#45;&gt;Node35</title>
<g id="a_edge53_Node000031_Node000035"><a xlink:title=" ">
<path fill="none" stroke="#63b8ff" d="M1048.04,-527.63C1069.58,-506.37 1109.77,-466.71 1132.23,-444.54"/>
<polygon fill="#63b8ff" stroke="#63b8ff" points="1134.98,-446.75 1139.63,-437.23 1130.06,-441.76 1134.98,-446.75"/>
</a>
</g>
</g>
<!-- Node32&#45;&gt;Node3 -->
<g id="edge52_Node000032_Node000003" class="edge">
<title>Node32&#45;&gt;Node3</title>
<g id="a_edge52_Node000032_Node000003"><a xlink:title=" ">
<path fill="none" stroke="#63b8ff" d="M203.97,-472.98C303.72,-462.43 471.55,-444.68 562.08,-435.1"/>
<polygon fill="#63b8ff" stroke="#63b8ff" points="562.62,-438.56 572.2,-434.03 561.89,-431.6 562.62,-438.56"/>
</a>
</g>
</g>
<!-- Node32&#45;&gt;Node11 -->
<g id="edge50_Node000032_Node000011" class="edge">
<title>Node32&#45;&gt;Node11</title>
<g id="a_edge50_Node000032_Node000011"><a xlink:title=" ">
<path fill="none" stroke="#63b8ff" d="M131.79,-472.89C139.71,-464.34 151.57,-450.57 159.48,-437 194.95,-376.14 220.72,-295.86 231.24,-260.08"/>
<polygon fill="#63b8ff" stroke="#63b8ff" points="234.71,-260.69 234.12,-250.11 227.98,-258.75 234.71,-260.69"/>
</a>
</g>
</g>
<!-- Node32&#45;&gt;Node18 -->
<g id="edge51_Node000032_Node000018" class="edge">
<title>Node32&#45;&gt;Node18</title>
<g id="a_edge51_Node000032_Node000018"><a xlink:title=" ">
<path fill="none" stroke="#63b8ff" d="M82.33,-473C60.8,-466.54 35.62,-455.49 19.48,-437 -1.44,-413.04 0.48,-399.81 0.48,-368 0.48,-368 0.48,-368 0.48,-300 0.48,-220.92 87.77,-250.2 164.48,-231 351.48,-184.19 584.77,-180.27 670.69,-180.58"/>
<polygon fill="#63b8ff" stroke="#63b8ff" points="670.87,-184.08 680.89,-180.64 670.92,-177.08 670.87,-184.08"/>
</a>
</g>
</g>
<!-- Node33 -->
<g id="Node000033" class="node">
<title>Node33</title>
<g id="a_Node000033"><a xlink:title=" ">
<polygon fill="#e0e0e0" stroke="#999999" points="78.48,-437 28.48,-437 28.48,-418 78.48,-418 78.48,-437"/>
<text text-anchor="middle" x="53.48" y="-425" font-family="Helvetica,sans-Serif" font-size="10.00">dlfcn.h</text>
</a>
</g>
</g>
<!-- Node32&#45;&gt;Node33 -->
<g id="edge48_Node000032_Node000033" class="edge">
<title>Node32&#45;&gt;Node33</title>
<g id="a_edge48_Node000032_Node000033"><a xlink:title=" ">
<path fill="none" stroke="#63b8ff" d="M112.23,-472.98C101.68,-465 85.68,-452.88 73.04,-443.31"/>
<polygon fill="#63b8ff" stroke="#63b8ff" points="75.02,-440.42 64.93,-437.17 70.79,-446 75.02,-440.42"/>
</a>
</g>
</g>
<!-- Node34 -->
<g id="Node000034" class="node">
<title>Node34</title>
<g id="a_Node000034"><a xlink:title=" ">
<polygon fill="#e0e0e0" stroke="#999999" points="150.48,-437 96.48,-437 96.48,-418 150.48,-418 150.48,-437"/>
<text text-anchor="middle" x="123.48" y="-425" font-family="Helvetica,sans-Serif" font-size="10.00">dirent.h</text>
</a>
</g>
</g>
<!-- Node32&#45;&gt;Node34 -->
<g id="edge49_Node000032_Node000034" class="edge">
<title>Node32&#45;&gt;Node34</title>
<g id="a_edge49_Node000032_Node000034"><a xlink:title=" ">
<path fill="none" stroke="#63b8ff" d="M123.48,-472.75C123.48,-465.8 123.48,-455.85 123.48,-447.13"/>
<polygon fill="#63b8ff" stroke="#63b8ff" points="126.98,-447.09 123.48,-437.09 119.98,-447.09 126.98,-447.09"/>
</a>
</g>
</g>
<!-- Node35&#45;&gt;Node5 -->
<g id="edge56_Node000035_Node000005" class="edge">
<title>Node35&#45;&gt;Node5</title>
<g id="a_edge56_Node000035_Node000005"><a xlink:title=" ">
<path fill="none" stroke="#63b8ff" d="M1138.55,-417.69C1128.94,-408.99 1114.16,-395.11 1102.48,-382 1045.03,-317.53 985.07,-233.64 960.28,-198.1"/>
<polygon fill="#63b8ff" stroke="#63b8ff" points="963.08,-196 954.5,-189.78 957.33,-199.99 963.08,-196"/>
</a>
</g>
</g>
<!-- Node35&#45;&gt;Node17 -->
<g id="edge54_Node000035_Node000017" class="edge">
<title>Node35&#45;&gt;Node17</title>
<g id="a_edge54_Node000035_Node000017"><a xlink:title=" ">
<path fill="none" stroke="#63b8ff" d="M1194.81,-418.53C1283.71,-401.9 1469.48,-360.2 1469.48,-302 1469.48,-302 1469.48,-302 1469.48,-239.5 1469.48,-175.18 1387.82,-143.27 1335.75,-129.46"/>
<polygon fill="#63b8ff" stroke="#63b8ff" points="1336.31,-126 1325.76,-126.94 1334.6,-132.78 1336.31,-126"/>
</a>
</g>
</g>
<!-- Node35&#45;&gt;Node18 -->
<g id="edge58_Node000035_Node000018" class="edge">
<title>Node35&#45;&gt;Node18</title>
<g id="a_edge58_Node000035_Node000018"><a xlink:title=" ">
<path fill="none" stroke="#63b8ff" d="M1102.47,-420.64C1032.84,-409.9 899.03,-381.81 806.48,-316 762.13,-284.46 728.55,-227.88 713.38,-199.01"/>
<polygon fill="#63b8ff" stroke="#63b8ff" points="716.31,-197.04 708.64,-189.72 710.07,-200.22 716.31,-197.04"/>
</a>
</g>
</g>
<!-- Node35&#45;&gt;Node19 -->
<g id="edge60_Node000035_Node000019" class="edge">
<title>Node35&#45;&gt;Node19</title>
<g id="a_edge60_Node000035_Node000019"><a xlink:title=" ">
<path fill="none" stroke="#63b8ff" d="M1153.05,-417.87C1156.79,-410.81 1162.26,-400.5 1167.25,-391.08"/>
<polygon fill="#63b8ff" stroke="#63b8ff" points="1170.41,-392.59 1172,-382.11 1164.22,-389.31 1170.41,-392.59"/>
</a>
</g>
</g>
<!-- Node35&#45;&gt;Node26 -->
<g id="edge57_Node000035_Node000026" class="edge">
<title>Node35&#45;&gt;Node26</title>
<g id="a_edge57_Node000035_Node000026"><a xlink:title=" ">
<path fill="none" stroke="#63b8ff" d="M1181.91,-417.94C1205.76,-410.81 1237.84,-399.04 1262.48,-382 1287.61,-364.62 1310.01,-336.81 1322.91,-318.98"/>
<polygon fill="#63b8ff" stroke="#63b8ff" points="1325.87,-320.87 1328.76,-310.67 1320.14,-316.84 1325.87,-320.87"/>
</a>
</g>
</g>
<!-- Node35&#45;&gt;Node27 -->
<g id="edge59_Node000035_Node000027" class="edge">
<title>Node35&#45;&gt;Node27</title>
<g id="a_edge59_Node000035_Node000027"><a xlink:title=" ">
<path fill="none" stroke="#63b8ff" d="M1192.29,-417.97C1212.41,-411.62 1234.44,-400.69 1246.48,-382 1259.87,-361.21 1239.8,-338.3 1219.88,-322.35"/>
<polygon fill="#63b8ff" stroke="#63b8ff" points="1221.82,-319.43 1211.74,-316.17 1217.59,-325.01 1221.82,-319.43"/>
</a>
</g>
</g>
<!-- Node35&#45;&gt;Node29 -->
<g id="edge55_Node000035_Node000029" class="edge">
<title>Node35&#45;&gt;Node29</title>
<g id="a_edge55_Node000035_Node000029"><a xlink:title=" ">
<path fill="none" stroke="#63b8ff" d="M1138.32,-417.81C1129.57,-409.6 1117.58,-396.43 1112.48,-382 1097.56,-339.83 1115.23,-287.07 1126.87,-259.76"/>
<polygon fill="#63b8ff" stroke="#63b8ff" points="1130.2,-260.88 1131.09,-250.32 1123.81,-258.02 1130.2,-260.88"/>
</a>
</g>
</g>
</g>
</svg>
