<?xml version="1.0" encoding="UTF-8" standalone="no"?>
<!DOCTYPE svg PUBLIC "-//W3C//DTD SVG 1.1//EN"
 "http://www.w3.org/Graphics/SVG/1.1/DTD/svg11.dtd">
<!-- Generated by graphviz version 2.43.0 (0)
 -->
<!-- Title: src/SceneSystem/Scene/Scene.cpp Pages: 1 -->
<svg width="1553pt" height="621pt"
 viewBox="0.00 0.00 1553.41 621.00" xmlns="http://www.w3.org/2000/svg" xmlns:xlink="http://www.w3.org/1999/xlink">
<g id="graph0" class="graph" transform="scale(1 1) rotate(0) translate(4 617)">
<title>src/SceneSystem/Scene/Scene.cpp</title>
<!-- Node1 -->
<g id="Node000001" class="node">
<title>Node1</title>
<g id="a_Node000001"><a xlink:title=" ">
<polygon fill="#999999" stroke="#666666" points="1064.41,-613 932.41,-613 932.41,-583 1064.41,-583 1064.41,-613"/>
<text text-anchor="start" x="940.41" y="-601" font-family="Helvetica,sans-Serif" font-size="10.00">src/SceneSystem/Scene</text>
<text text-anchor="middle" x="998.41" y="-590" font-family="Helvetica,sans-Serif" font-size="10.00">/Scene.cpp</text>
</a>
</g>
</g>
<!-- Node2 -->
<g id="Node000002" class="node">
<title>Node2</title>
<g id="a_Node000002"><a xlink:href="Scene_8hpp.html" target="_top" xlink:title=" ">
<polygon fill="white" stroke="#666666" points="1031.91,-547 964.91,-547 964.91,-528 1031.91,-528 1031.91,-547"/>
<text text-anchor="middle" x="998.41" y="-535" font-family="Helvetica,sans-Serif" font-size="10.00">Scene.hpp</text>
</a>
</g>
</g>
<!-- Node1&#45;&gt;Node2 -->
<g id="edge1_Node000001_Node000002" class="edge">
<title>Node1&#45;&gt;Node2</title>
<g id="a_edge1_Node000001_Node000002"><a xlink:title=" ">
<path fill="none" stroke="#63b8ff" d="M998.41,-582.84C998.41,-575.21 998.41,-565.7 998.41,-557.45"/>
<polygon fill="#63b8ff" stroke="#63b8ff" points="1001.91,-557.27 998.41,-547.27 994.91,-557.27 1001.91,-557.27"/>
</a>
</g>
</g>
<!-- Node3 -->
<g id="Node000003" class="node">
<title>Node3</title>
<g id="a_Node000003"><a xlink:href="Plugin_8hpp.html" target="_top" xlink:title=" ">
<polygon fill="white" stroke="#666666" points="765.91,-437 640.91,-437 640.91,-418 765.91,-418 765.91,-437"/>
<text text-anchor="middle" x="703.41" y="-425" font-family="Helvetica,sans-Serif" font-size="10.00">../../Objects/Plugin.hpp</text>
</a>
</g>
</g>
<!-- Node2&#45;&gt;Node3 -->
<g id="edge2_Node000002_Node000003" class="edge">
<title>Node2&#45;&gt;Node3</title>
<g id="a_edge2_Node000002_Node000003"><a xlink:title=" ">
<path fill="none" stroke="#63b8ff" d="M964.68,-535.43C899.15,-532.66 757.95,-523.16 722.41,-492 709.85,-480.98 705.43,-462.04 703.95,-447.7"/>
<polygon fill="#63b8ff" stroke="#63b8ff" points="707.43,-447.19 703.3,-437.43 700.44,-447.63 707.43,-447.19"/>
</a>
</g>
</g>
<!-- Node5 -->
<g id="Node000005" class="node">
<title>Node5</title>
<g id="a_Node000005"><a xlink:title=" ">
<polygon fill="#e0e0e0" stroke="#999999" points="1163.41,-189.5 1105.41,-189.5 1105.41,-170.5 1163.41,-170.5 1163.41,-189.5"/>
<text text-anchor="middle" x="1134.41" y="-177.5" font-family="Helvetica,sans-Serif" font-size="10.00">memory</text>
</a>
</g>
</g>
<!-- Node2&#45;&gt;Node5 -->
<g id="edge60_Node000002_Node000005" class="edge">
<title>Node2&#45;&gt;Node5</title>
<g id="a_edge60_Node000002_Node000005"><a xlink:title=" ">
<path fill="none" stroke="#63b8ff" d="M999.84,-527.97C1005.5,-495.41 1027.99,-376.25 1068.41,-286 1083.3,-252.77 1107.32,-217.63 1121.91,-197.6"/>
<polygon fill="#63b8ff" stroke="#63b8ff" points="1124.75,-199.64 1127.88,-189.52 1119.12,-195.48 1124.75,-199.64"/>
</a>
</g>
</g>
<!-- Node18 -->
<g id="Node000018" class="node">
<title>Node18</title>
<g id="a_Node000018"><a xlink:title=" ">
<polygon fill="#e0e0e0" stroke="#999999" points="800.91,-189.5 753.91,-189.5 753.91,-170.5 800.91,-170.5 800.91,-189.5"/>
<text text-anchor="middle" x="777.41" y="-177.5" font-family="Helvetica,sans-Serif" font-size="10.00">vector</text>
</a>
</g>
</g>
<!-- Node2&#45;&gt;Node18 -->
<g id="edge59_Node000002_Node000018" class="edge">
<title>Node2&#45;&gt;Node18</title>
<g id="a_edge59_Node000002_Node000018"><a xlink:title=" ">
<path fill="none" stroke="#63b8ff" d="M964.67,-536.47C790.51,-535.86 1.41,-527.63 1.41,-428.5 1.41,-428.5 1.41,-428.5 1.41,-300 1.41,-268.19 -4.24,-251.1 20.41,-231 77,-184.86 603.42,-181.14 743.38,-180.97"/>
<polygon fill="#63b8ff" stroke="#63b8ff" points="743.52,-184.47 753.51,-180.96 743.51,-177.47 743.52,-184.47"/>
</a>
</g>
</g>
<!-- Node26 -->
<g id="Node000026" class="node">
<title>Node26</title>
<g id="a_Node000026"><a xlink:title=" ">
<polygon fill="#e0e0e0" stroke="#999999" points="1133.41,-310.5 1077.41,-310.5 1077.41,-291.5 1133.41,-291.5 1133.41,-310.5"/>
<text text-anchor="middle" x="1105.41" y="-298.5" font-family="Helvetica,sans-Serif" font-size="10.00">optional</text>
</a>
</g>
</g>
<!-- Node2&#45;&gt;Node26 -->
<g id="edge61_Node000002_Node000026" class="edge">
<title>Node2&#45;&gt;Node26</title>
<g id="a_edge61_Node000002_Node000026"><a xlink:title=" ">
<path fill="none" stroke="#63b8ff" d="M1002.42,-527.66C1014.48,-501.08 1051.51,-419.53 1082.41,-352 1087.26,-341.41 1092.71,-329.57 1097.08,-320.07"/>
<polygon fill="#63b8ff" stroke="#63b8ff" points="1100.32,-321.39 1101.33,-310.85 1093.97,-318.46 1100.32,-321.39"/>
</a>
</g>
</g>
<!-- Node30 -->
<g id="Node000030" class="node">
<title>Node30</title>
<g id="a_Node000030"><a xlink:href="Ray_8hpp.html" target="_top" xlink:title=" ">
<polygon fill="white" stroke="#666666" points="1313.41,-250 1227.41,-250 1227.41,-231 1313.41,-231 1313.41,-250"/>
<text text-anchor="middle" x="1270.41" y="-238" font-family="Helvetica,sans-Serif" font-size="10.00">../Ray/Ray.hpp</text>
</a>
</g>
</g>
<!-- Node2&#45;&gt;Node30 -->
<g id="edge58_Node000002_Node000030" class="edge">
<title>Node2&#45;&gt;Node30</title>
<g id="a_edge58_Node000002_Node000030"><a xlink:title=" ">
<path fill="none" stroke="#63b8ff" d="M1032.32,-534.67C1089.63,-529.57 1204.64,-510.24 1258.41,-437 1297.62,-383.59 1284.1,-298.23 1275.4,-260.5"/>
<polygon fill="#63b8ff" stroke="#63b8ff" points="1278.7,-259.28 1272.92,-250.4 1271.91,-260.95 1278.7,-259.28"/>
</a>
</g>
</g>
<!-- Node31 -->
<g id="Node000031" class="node">
<title>Node31</title>
<g id="a_Node000031"><a xlink:href="PluginManager_8hpp.html" target="_top" xlink:title="Plugin manager for loading and managing plugins.">
<polygon fill="white" stroke="#666666" points="925.41,-492 731.41,-492 731.41,-473 925.41,-473 925.41,-492"/>
<text text-anchor="middle" x="828.41" y="-480" font-family="Helvetica,sans-Serif" font-size="10.00">../PluginManager/PluginManager.hpp</text>
</a>
</g>
</g>
<!-- Node2&#45;&gt;Node31 -->
<g id="edge45_Node000002_Node000031" class="edge">
<title>Node2&#45;&gt;Node31</title>
<g id="a_edge45_Node000002_Node000031"><a xlink:title=" ">
<path fill="none" stroke="#63b8ff" d="M971.1,-527.98C942.56,-519.09 897.59,-505.07 865.77,-495.15"/>
<polygon fill="#63b8ff" stroke="#63b8ff" points="866.53,-491.72 855.94,-492.08 864.45,-498.4 866.53,-491.72"/>
</a>
</g>
</g>
<!-- Node34 -->
<g id="Node000034" class="node">
<title>Node34</title>
<g id="a_Node000034"><a xlink:href="BVH_8hpp.html" target="_top" xlink:title=" ">
<polygon fill="white" stroke="#666666" points="1249.41,-437 1157.41,-437 1157.41,-418 1249.41,-418 1249.41,-437"/>
<text text-anchor="middle" x="1203.41" y="-425" font-family="Helvetica,sans-Serif" font-size="10.00">../BVH/BVH.hpp</text>
</a>
</g>
</g>
<!-- Node2&#45;&gt;Node34 -->
<g id="edge50_Node000002_Node000034" class="edge">
<title>Node2&#45;&gt;Node34</title>
<g id="a_edge50_Node000002_Node000034"><a xlink:title=" ">
<path fill="none" stroke="#63b8ff" d="M1014.84,-527.84C1050.62,-509 1135.76,-464.14 1178.31,-441.73"/>
<polygon fill="#63b8ff" stroke="#63b8ff" points="1179.97,-444.8 1187.19,-437.05 1176.71,-438.61 1179.97,-444.8"/>
</a>
</g>
</g>
<!-- Node4 -->
<g id="Node000004" class="node">
<title>Node4</title>
<g id="a_Node000004"><a xlink:title=" ">
<polygon fill="#e0e0e0" stroke="#999999" points="636.91,-376.5 571.91,-376.5 571.91,-357.5 636.91,-357.5 636.91,-376.5"/>
<text text-anchor="middle" x="604.41" y="-364.5" font-family="Helvetica,sans-Serif" font-size="10.00">functional</text>
</a>
</g>
</g>
<!-- Node3&#45;&gt;Node4 -->
<g id="edge3_Node000003_Node000004" class="edge">
<title>Node3&#45;&gt;Node4</title>
<g id="a_edge3_Node000003_Node000004"><a xlink:title=" ">
<path fill="none" stroke="#63b8ff" d="M688.81,-417.87C672.72,-408.36 646.63,-392.95 627.72,-381.77"/>
<polygon fill="#63b8ff" stroke="#63b8ff" points="629.47,-378.74 619.08,-376.67 625.91,-384.77 629.47,-378.74"/>
</a>
</g>
</g>
<!-- Node3&#45;&gt;Node5 -->
<g id="edge4_Node000003_Node000005" class="edge">
<title>Node3&#45;&gt;Node5</title>
<g id="a_edge4_Node000003_Node000005"><a xlink:title=" ">
<path fill="none" stroke="#63b8ff" d="M759.57,-417.96C797.06,-411.07 846.89,-399.59 888.41,-382 938.82,-360.64 953.53,-354.54 992.41,-316 1024.37,-284.32 1014.77,-261.97 1047.41,-231 1063.94,-215.32 1086.29,-202.61 1104.19,-193.93"/>
<polygon fill="#63b8ff" stroke="#63b8ff" points="1106.04,-196.93 1113.62,-189.53 1103.08,-190.59 1106.04,-196.93"/>
</a>
</g>
</g>
<!-- Node6 -->
<g id="Node000006" class="node">
<title>Node6</title>
<g id="a_Node000006"><a xlink:title=" ">
<polygon fill="#e0e0e0" stroke="#999999" points="496.91,-376.5 445.91,-376.5 445.91,-357.5 496.91,-357.5 496.91,-376.5"/>
<text text-anchor="middle" x="471.41" y="-364.5" font-family="Helvetica,sans-Serif" font-size="10.00">variant</text>
</a>
</g>
</g>
<!-- Node3&#45;&gt;Node6 -->
<g id="edge5_Node000003_Node000006" class="edge">
<title>Node3&#45;&gt;Node6</title>
<g id="a_edge5_Node000003_Node000006"><a xlink:title=" ">
<path fill="none" stroke="#63b8ff" d="M655.89,-417.96C615.64,-410.2 556.64,-397.61 506.41,-382 504.54,-381.42 502.62,-380.78 500.7,-380.11"/>
<polygon fill="#63b8ff" stroke="#63b8ff" points="501.8,-376.78 491.21,-376.55 499.34,-383.34 501.8,-376.78"/>
</a>
</g>
</g>
<!-- Node7 -->
<g id="Node000007" class="node">
<title>Node7</title>
<g id="a_Node000007"><a xlink:title=" ">
<polygon fill="#e0e0e0" stroke="#999999" points="553.41,-376.5 515.41,-376.5 515.41,-357.5 553.41,-357.5 553.41,-376.5"/>
<text text-anchor="middle" x="534.41" y="-364.5" font-family="Helvetica,sans-Serif" font-size="10.00">map</text>
</a>
</g>
</g>
<!-- Node3&#45;&gt;Node7 -->
<g id="edge6_Node000003_Node000007" class="edge">
<title>Node3&#45;&gt;Node7</title>
<g id="a_edge6_Node000003_Node000007"><a xlink:title=" ">
<path fill="none" stroke="#63b8ff" d="M671.27,-417.92C642.35,-409.84 598.94,-396.79 562.41,-382 561.55,-381.65 560.68,-381.29 559.81,-380.91"/>
<polygon fill="#63b8ff" stroke="#63b8ff" points="561.04,-377.63 550.5,-376.59 558.09,-383.97 561.04,-377.63"/>
</a>
</g>
</g>
<!-- Node8 -->
<g id="Node000008" class="node">
<title>Node8</title>
<g id="a_Node000008"><a xlink:href="ParsingException_8hpp.html" target="_top" xlink:title=" ">
<polygon fill="white" stroke="#666666" points="427.91,-382 262.91,-382 262.91,-352 427.91,-352 427.91,-382"/>
<text text-anchor="start" x="270.91" y="-370" font-family="Helvetica,sans-Serif" font-size="10.00">../Exceptions/ParsingException</text>
<text text-anchor="middle" x="345.41" y="-359" font-family="Helvetica,sans-Serif" font-size="10.00">/ParsingException.hpp</text>
</a>
</g>
</g>
<!-- Node3&#45;&gt;Node8 -->
<g id="edge7_Node000003_Node000008" class="edge">
<title>Node3&#45;&gt;Node8</title>
<g id="a_edge7_Node000003_Node000008"><a xlink:title=" ">
<path fill="none" stroke="#63b8ff" d="M651.36,-417.99C595.65,-408.89 506.15,-394.27 438.31,-383.18"/>
<polygon fill="#63b8ff" stroke="#63b8ff" points="438.47,-379.66 428.04,-381.5 437.35,-386.57 438.47,-379.66"/>
</a>
</g>
</g>
<!-- Node14 -->
<g id="Node000014" class="node">
<title>Node14</title>
<g id="a_Node000014"><a xlink:href="AInterface_8hpp.html" target="_top" xlink:title=" ">
<polygon fill="white" stroke="#666666" points="847.41,-382 731.41,-382 731.41,-352 847.41,-352 847.41,-382"/>
<text text-anchor="start" x="739.41" y="-370" font-family="Helvetica,sans-Serif" font-size="10.00">Abstracts/AInterface</text>
<text text-anchor="middle" x="789.41" y="-359" font-family="Helvetica,sans-Serif" font-size="10.00">/AInterface.hpp</text>
</a>
</g>
</g>
<!-- Node3&#45;&gt;Node14 -->
<g id="edge13_Node000003_Node000014" class="edge">
<title>Node3&#45;&gt;Node14</title>
<g id="a_edge13_Node000003_Node000014"><a xlink:title=" ">
<path fill="none" stroke="#63b8ff" d="M716.1,-417.87C727.66,-410 745.17,-398.09 760.18,-387.89"/>
<polygon fill="#63b8ff" stroke="#63b8ff" points="762.36,-390.63 768.66,-382.11 758.43,-384.85 762.36,-390.63"/>
</a>
</g>
</g>
<!-- Node15 -->
<g id="Node000015" class="node">
<title>Node15</title>
<g id="a_Node000015"><a xlink:href="ARenderer_8hpp.html" target="_top" xlink:title=" ">
<polygon fill="white" stroke="#666666" points="836.91,-310.5 685.91,-310.5 685.91,-291.5 836.91,-291.5 836.91,-310.5"/>
<text text-anchor="middle" x="761.41" y="-298.5" font-family="Helvetica,sans-Serif" font-size="10.00">../ARenderer/ARenderer.hpp</text>
</a>
</g>
</g>
<!-- Node3&#45;&gt;Node15 -->
<g id="edge42_Node000003_Node000015" class="edge">
<title>Node3&#45;&gt;Node15</title>
<g id="a_edge42_Node000003_Node000015"><a xlink:title=" ">
<path fill="none" stroke="#63b8ff" d="M704.45,-417.84C706.4,-403.52 711.48,-374.29 722.41,-352 728.43,-339.74 737.77,-327.62 745.8,-318.39"/>
<polygon fill="#63b8ff" stroke="#63b8ff" points="748.56,-320.56 752.68,-310.8 743.37,-315.86 748.56,-320.56"/>
</a>
</g>
</g>
<!-- Node19 -->
<g id="Node000019" class="node">
<title>Node19</title>
<g id="a_Node000019"><a xlink:href="APrimitive_8hpp.html" target="_top" xlink:title=" ">
<polygon fill="white" stroke="#666666" points="1218.41,-382 1102.41,-382 1102.41,-352 1218.41,-352 1218.41,-382"/>
<text text-anchor="start" x="1110.41" y="-370" font-family="Helvetica,sans-Serif" font-size="10.00">Abstracts/APrimitive</text>
<text text-anchor="middle" x="1160.41" y="-359" font-family="Helvetica,sans-Serif" font-size="10.00">/APrimitive.hpp</text>
</a>
</g>
</g>
<!-- Node3&#45;&gt;Node19 -->
<g id="edge18_Node000003_Node000019" class="edge">
<title>Node3&#45;&gt;Node19</title>
<g id="a_edge18_Node000003_Node000019"><a xlink:title=" ">
<path fill="none" stroke="#63b8ff" d="M766,-418.49C851.36,-407.56 1003.73,-388.06 1092.01,-376.76"/>
<polygon fill="#63b8ff" stroke="#63b8ff" points="1092.72,-380.19 1102.19,-375.45 1091.83,-373.25 1092.72,-380.19"/>
</a>
</g>
</g>
<!-- Node20 -->
<g id="Node000020" class="node">
<title>Node20</title>
<g id="a_Node000020"><a xlink:href="IMaterial_8hpp.html" target="_top" xlink:title=" ">
<polygon fill="white" stroke="#666666" points="983.41,-310.5 893.41,-310.5 893.41,-291.5 983.41,-291.5 983.41,-310.5"/>
<text text-anchor="middle" x="938.41" y="-298.5" font-family="Helvetica,sans-Serif" font-size="10.00">../IMaterial.hpp</text>
</a>
</g>
</g>
<!-- Node3&#45;&gt;Node20 -->
<g id="edge44_Node000003_Node000020" class="edge">
<title>Node3&#45;&gt;Node20</title>
<g id="a_edge44_Node000003_Node000020"><a xlink:title=" ">
<path fill="none" stroke="#63b8ff" d="M755.54,-417.94C786.38,-411.31 825.35,-400.12 856.41,-382 884.76,-365.47 910.63,-337.01 925.44,-318.87"/>
<polygon fill="#63b8ff" stroke="#63b8ff" points="928.3,-320.9 931.79,-310.89 922.82,-316.54 928.3,-320.9"/>
</a>
</g>
</g>
<!-- Node21 -->
<g id="Node000021" class="node">
<title>Node21</title>
<g id="a_Node000021"><a xlink:href="ILight_8hpp.html" target="_top" xlink:title=" ">
<polygon fill="white" stroke="#666666" points="918.91,-250 853.91,-250 853.91,-231 918.91,-231 918.91,-250"/>
<text text-anchor="middle" x="886.41" y="-238" font-family="Helvetica,sans-Serif" font-size="10.00">ILight.hpp</text>
</a>
</g>
</g>
<!-- Node3&#45;&gt;Node21 -->
<g id="edge43_Node000003_Node000021" class="edge">
<title>Node3&#45;&gt;Node21</title>
<g id="a_edge43_Node000003_Node000021"><a xlink:title=" ">
<path fill="none" stroke="#63b8ff" d="M697.49,-417.77C682.04,-393.8 643.89,-326.14 676.41,-286 697.02,-260.57 788.24,-249.08 843.45,-244.38"/>
<polygon fill="#63b8ff" stroke="#63b8ff" points="843.97,-247.85 853.65,-243.56 843.4,-240.87 843.97,-247.85"/>
</a>
</g>
</g>
<!-- Node9 -->
<g id="Node000009" class="node">
<title>Node9</title>
<g id="a_Node000009"><a xlink:href="RaytracerException_8hpp.html" target="_top" xlink:title=" ">
<polygon fill="white" stroke="#666666" points="206.41,-316 70.41,-316 70.41,-286 206.41,-286 206.41,-316"/>
<text text-anchor="start" x="78.41" y="-304" font-family="Helvetica,sans-Serif" font-size="10.00">../RaytracerException</text>
<text text-anchor="middle" x="138.41" y="-293" font-family="Helvetica,sans-Serif" font-size="10.00">/RaytracerException.hpp</text>
</a>
</g>
</g>
<!-- Node8&#45;&gt;Node9 -->
<g id="edge8_Node000008_Node000009" class="edge">
<title>Node8&#45;&gt;Node9</title>
<g id="a_edge8_Node000008_Node000009"><a xlink:title=" ">
<path fill="none" stroke="#63b8ff" d="M299.99,-351.95C268.57,-342.24 226.61,-329.27 193.32,-318.98"/>
<polygon fill="#63b8ff" stroke="#63b8ff" points="194.32,-315.62 183.73,-316.01 192.25,-322.31 194.32,-315.62"/>
</a>
</g>
</g>
<!-- Node10 -->
<g id="Node000010" class="node">
<title>Node10</title>
<g id="a_Node000010"><a xlink:title=" ">
<polygon fill="#e0e0e0" stroke="#999999" points="267.91,-250 202.91,-250 202.91,-231 267.91,-231 267.91,-250"/>
<text text-anchor="middle" x="235.41" y="-238" font-family="Helvetica,sans-Serif" font-size="10.00">exception</text>
</a>
</g>
</g>
<!-- Node9&#45;&gt;Node10 -->
<g id="edge9_Node000009_Node000010" class="edge">
<title>Node9&#45;&gt;Node10</title>
<g id="a_edge9_Node000009_Node000010"><a xlink:title=" ">
<path fill="none" stroke="#63b8ff" d="M161.89,-285.84C177.22,-276.6 197.13,-264.59 212.36,-255.4"/>
<polygon fill="#63b8ff" stroke="#63b8ff" points="214.41,-258.26 221.16,-250.09 210.79,-252.26 214.41,-258.26"/>
</a>
</g>
</g>
<!-- Node11 -->
<g id="Node000011" class="node">
<title>Node11</title>
<g id="a_Node000011"><a xlink:title=" ">
<polygon fill="#e0e0e0" stroke="#999999" points="346.41,-250 286.41,-250 286.41,-231 346.41,-231 346.41,-250"/>
<text text-anchor="middle" x="316.41" y="-238" font-family="Helvetica,sans-Serif" font-size="10.00">iostream</text>
</a>
</g>
</g>
<!-- Node9&#45;&gt;Node11 -->
<g id="edge10_Node000009_Node000011" class="edge">
<title>Node9&#45;&gt;Node11</title>
<g id="a_edge10_Node000009_Node000011"><a xlink:title=" ">
<path fill="none" stroke="#63b8ff" d="M181.05,-285.99C211.5,-275.98 252,-262.67 280.75,-253.22"/>
<polygon fill="#63b8ff" stroke="#63b8ff" points="281.98,-256.5 290.39,-250.05 279.79,-249.85 281.98,-256.5"/>
</a>
</g>
</g>
<!-- Node12 -->
<g id="Node000012" class="node">
<title>Node12</title>
<g id="a_Node000012"><a xlink:title=" ">
<polygon fill="#e0e0e0" stroke="#999999" points="73.41,-250 29.41,-250 29.41,-231 73.41,-231 73.41,-250"/>
<text text-anchor="middle" x="51.41" y="-238" font-family="Helvetica,sans-Serif" font-size="10.00">string</text>
</a>
</g>
</g>
<!-- Node9&#45;&gt;Node12 -->
<g id="edge11_Node000009_Node000012" class="edge">
<title>Node9&#45;&gt;Node12</title>
<g id="a_edge11_Node000009_Node000012"><a xlink:title=" ">
<path fill="none" stroke="#63b8ff" d="M117.35,-285.84C103.87,-276.77 86.42,-265.04 72.86,-255.92"/>
<polygon fill="#63b8ff" stroke="#63b8ff" points="74.45,-252.77 64.19,-250.09 70.54,-258.58 74.45,-252.77"/>
</a>
</g>
</g>
<!-- Node13 -->
<g id="Node000013" class="node">
<title>Node13</title>
<g id="a_Node000013"><a xlink:title=" ">
<polygon fill="#e0e0e0" stroke="#999999" points="184.91,-250 91.91,-250 91.91,-231 184.91,-231 184.91,-250"/>
<text text-anchor="middle" x="138.41" y="-238" font-family="Helvetica,sans-Serif" font-size="10.00">source_location</text>
</a>
</g>
</g>
<!-- Node9&#45;&gt;Node13 -->
<g id="edge12_Node000009_Node000013" class="edge">
<title>Node9&#45;&gt;Node13</title>
<g id="a_edge12_Node000009_Node000013"><a xlink:title=" ">
<path fill="none" stroke="#63b8ff" d="M138.41,-285.84C138.41,-278.21 138.41,-268.7 138.41,-260.45"/>
<polygon fill="#63b8ff" stroke="#63b8ff" points="141.91,-260.27 138.41,-250.27 134.91,-260.27 141.91,-260.27"/>
</a>
</g>
</g>
<!-- Node14&#45;&gt;Node15 -->
<g id="edge14_Node000014_Node000015" class="edge">
<title>Node14&#45;&gt;Node15</title>
<g id="a_edge14_Node000014_Node000015"><a xlink:title=" ">
<path fill="none" stroke="#63b8ff" d="M783.2,-351.8C779.13,-342.5 773.78,-330.27 769.4,-320.26"/>
<polygon fill="#63b8ff" stroke="#63b8ff" points="772.5,-318.6 765.28,-310.84 766.08,-321.41 772.5,-318.6"/>
</a>
</g>
</g>
<!-- Node16 -->
<g id="Node000016" class="node">
<title>Node16</title>
<g id="a_Node000016"><a xlink:href="Color_8hpp.html" target="_top" xlink:title=" ">
<polygon fill="white" stroke="#666666" points="1086.91,-189.5 971.91,-189.5 971.91,-170.5 1086.91,-170.5 1086.91,-189.5"/>
<text text-anchor="middle" x="1029.41" y="-177.5" font-family="Helvetica,sans-Serif" font-size="10.00">../../../Utils/Color.hpp</text>
</a>
</g>
</g>
<!-- Node15&#45;&gt;Node16 -->
<g id="edge15_Node000015_Node000016" class="edge">
<title>Node15&#45;&gt;Node16</title>
<g id="a_edge15_Node000015_Node000016"><a xlink:title=" ">
<path fill="none" stroke="#63b8ff" d="M802.52,-291.44C837.15,-283.35 887.44,-269.55 928.41,-250 959.49,-235.17 991.73,-211.44 1011.18,-196.04"/>
<polygon fill="#63b8ff" stroke="#63b8ff" points="1013.57,-198.61 1019.17,-189.61 1009.18,-193.15 1013.57,-198.61"/>
</a>
</g>
</g>
<!-- Node15&#45;&gt;Node18 -->
<g id="edge17_Node000015_Node000018" class="edge">
<title>Node15&#45;&gt;Node18</title>
<g id="a_edge17_Node000015_Node000018"><a xlink:title=" ">
<path fill="none" stroke="#63b8ff" d="M762.56,-291.44C765.12,-272.41 771.34,-226.19 774.86,-199.97"/>
<polygon fill="#63b8ff" stroke="#63b8ff" points="778.37,-200.18 776.23,-189.8 771.43,-199.25 778.37,-200.18"/>
</a>
</g>
</g>
<!-- Node17 -->
<g id="Node000017" class="node">
<title>Node17</title>
<g id="a_Node000017"><a xlink:title=" ">
<polygon fill="#e0e0e0" stroke="#999999" points="1477.41,-129 1413.41,-129 1413.41,-110 1477.41,-110 1477.41,-129"/>
<text text-anchor="middle" x="1445.41" y="-117" font-family="Helvetica,sans-Serif" font-size="10.00">algorithm</text>
</a>
</g>
</g>
<!-- Node16&#45;&gt;Node17 -->
<g id="edge16_Node000016_Node000017" class="edge">
<title>Node16&#45;&gt;Node17</title>
<g id="a_edge16_Node000016_Node000017"><a xlink:title=" ">
<path fill="none" stroke="#63b8ff" d="M1067.58,-170.48C1076.98,-168.53 1087.04,-166.57 1096.41,-165 1206.48,-146.51 1337.23,-131.75 1403.06,-124.81"/>
<polygon fill="#63b8ff" stroke="#63b8ff" points="1403.47,-128.28 1413.05,-123.76 1402.74,-121.32 1403.47,-128.28"/>
</a>
</g>
</g>
<!-- Node19&#45;&gt;Node5 -->
<g id="edge31_Node000019_Node000005" class="edge">
<title>Node19&#45;&gt;Node5</title>
<g id="a_edge31_Node000019_Node000005"><a xlink:title=" ">
<path fill="none" stroke="#63b8ff" d="M1158.42,-351.79C1153.78,-318.81 1142.29,-237.05 1137.07,-199.9"/>
<polygon fill="#63b8ff" stroke="#63b8ff" points="1140.47,-198.94 1135.61,-189.53 1133.54,-199.92 1140.47,-198.94"/>
</a>
</g>
</g>
<!-- Node19&#45;&gt;Node20 -->
<g id="edge19_Node000019_Node000020" class="edge">
<title>Node19&#45;&gt;Node20</title>
<g id="a_edge19_Node000019_Node000020"><a xlink:title=" ">
<path fill="none" stroke="#63b8ff" d="M1111.69,-351.95C1071.56,-340.38 1015.37,-324.18 977.98,-313.41"/>
<polygon fill="#63b8ff" stroke="#63b8ff" points="978.54,-309.92 967.96,-310.52 976.6,-316.65 978.54,-309.92"/>
</a>
</g>
</g>
<!-- Node19&#45;&gt;Node26 -->
<g id="edge32_Node000019_Node000026" class="edge">
<title>Node19&#45;&gt;Node26</title>
<g id="a_edge32_Node000019_Node000026"><a xlink:title=" ">
<path fill="none" stroke="#63b8ff" d="M1148.21,-351.8C1139.8,-342.01 1128.6,-328.98 1119.76,-318.7"/>
<polygon fill="#63b8ff" stroke="#63b8ff" points="1122.19,-316.15 1113.01,-310.84 1116.88,-320.71 1122.19,-316.15"/>
</a>
</g>
</g>
<!-- Node27 -->
<g id="Node000027" class="node">
<title>Node27</title>
<g id="a_Node000027"><a xlink:href="AABB_8hpp.html" target="_top" xlink:title=" ">
<polygon fill="white" stroke="#666666" points="1458.41,-316 1336.41,-316 1336.41,-286 1458.41,-286 1458.41,-316"/>
<text text-anchor="start" x="1344.41" y="-304" font-family="Helvetica,sans-Serif" font-size="10.00">../../../Geometry/AABB</text>
<text text-anchor="middle" x="1397.41" y="-293" font-family="Helvetica,sans-Serif" font-size="10.00">/AABB.hpp</text>
</a>
</g>
</g>
<!-- Node19&#45;&gt;Node27 -->
<g id="edge33_Node000019_Node000027" class="edge">
<title>Node19&#45;&gt;Node27</title>
<g id="a_edge33_Node000019_Node000027"><a xlink:title=" ">
<path fill="none" stroke="#63b8ff" d="M1212.42,-351.95C1248.7,-342.16 1297.26,-329.05 1335.53,-318.71"/>
<polygon fill="#63b8ff" stroke="#63b8ff" points="1336.78,-322 1345.52,-316.01 1334.96,-315.24 1336.78,-322"/>
</a>
</g>
</g>
<!-- Node19&#45;&gt;Node30 -->
<g id="edge41_Node000019_Node000030" class="edge">
<title>Node19&#45;&gt;Node30</title>
<g id="a_edge41_Node000019_Node000030"><a xlink:title=" ">
<path fill="none" stroke="#63b8ff" d="M1173.03,-351.72C1193.63,-328.41 1234.34,-282.33 1256.03,-257.78"/>
<polygon fill="#63b8ff" stroke="#63b8ff" points="1258.84,-259.88 1262.84,-250.07 1253.6,-255.25 1258.84,-259.88"/>
</a>
</g>
</g>
<!-- Node20&#45;&gt;Node16 -->
<g id="edge20_Node000020_Node000016" class="edge">
<title>Node20&#45;&gt;Node16</title>
<g id="a_edge20_Node000020_Node000016"><a xlink:title=" ">
<path fill="none" stroke="#63b8ff" d="M944.96,-291.44C959.9,-271.9 996.77,-223.68 1016.49,-197.9"/>
<polygon fill="#63b8ff" stroke="#63b8ff" points="1019.39,-199.87 1022.68,-189.8 1013.83,-195.62 1019.39,-199.87"/>
</a>
</g>
</g>
<!-- Node20&#45;&gt;Node18 -->
<g id="edge30_Node000020_Node000018" class="edge">
<title>Node20&#45;&gt;Node18</title>
<g id="a_edge30_Node000020_Node000018"><a xlink:title=" ">
<path fill="none" stroke="#63b8ff" d="M918.52,-291.43C898.97,-282.53 868.74,-267.48 845.41,-250 824.71,-234.49 804.34,-212.71 791.37,-197.79"/>
<polygon fill="#63b8ff" stroke="#63b8ff" points="793.8,-195.24 784.65,-189.9 788.47,-199.78 793.8,-195.24"/>
</a>
</g>
</g>
<!-- Node20&#45;&gt;Node21 -->
<g id="edge21_Node000020_Node000021" class="edge">
<title>Node20&#45;&gt;Node21</title>
<g id="a_edge21_Node000020_Node000021"><a xlink:title=" ">
<path fill="none" stroke="#63b8ff" d="M930.74,-291.37C922.91,-282.55 910.55,-268.66 900.88,-257.77"/>
<polygon fill="#63b8ff" stroke="#63b8ff" points="903.38,-255.32 894.12,-250.17 898.15,-259.97 903.38,-255.32"/>
</a>
</g>
</g>
<!-- Node21&#45;&gt;Node5 -->
<g id="edge29_Node000021_Node000005" class="edge">
<title>Node21&#45;&gt;Node5</title>
<g id="a_edge29_Node000021_Node000005"><a xlink:title=" ">
<path fill="none" stroke="#63b8ff" d="M919.15,-234.07C960.77,-226.83 1034.65,-212.82 1096.41,-195 1098.69,-194.34 1101.03,-193.61 1103.38,-192.85"/>
<polygon fill="#63b8ff" stroke="#63b8ff" points="1104.59,-196.13 1112.89,-189.54 1102.29,-189.52 1104.59,-196.13"/>
</a>
</g>
</g>
<!-- Node21&#45;&gt;Node16 -->
<g id="edge27_Node000021_Node000016" class="edge">
<title>Node21&#45;&gt;Node16</title>
<g id="a_edge27_Node000021_Node000016"><a xlink:title=" ">
<path fill="none" stroke="#63b8ff" d="M907.21,-230.99C931.35,-221.12 971.4,-204.73 999.03,-193.43"/>
<polygon fill="#63b8ff" stroke="#63b8ff" points="1000.66,-196.54 1008.59,-189.52 998.01,-190.06 1000.66,-196.54"/>
</a>
</g>
</g>
<!-- Node21&#45;&gt;Node18 -->
<g id="edge28_Node000021_Node000018" class="edge">
<title>Node21&#45;&gt;Node18</title>
<g id="a_edge28_Node000021_Node000018"><a xlink:title=" ">
<path fill="none" stroke="#63b8ff" d="M870.33,-230.87C852.46,-221.28 823.37,-205.67 802.5,-194.47"/>
<polygon fill="#63b8ff" stroke="#63b8ff" points="804.03,-191.31 793.56,-189.67 800.72,-197.48 804.03,-191.31"/>
</a>
</g>
</g>
<!-- Node22 -->
<g id="Node000022" class="node">
<title>Node22</title>
<g id="a_Node000022"><a xlink:href="HitRecord_8hpp.html" target="_top" xlink:title=" ">
<polygon fill="white" stroke="#666666" points="953.41,-195 819.41,-195 819.41,-165 953.41,-165 953.41,-195"/>
<text text-anchor="start" x="827.41" y="-183" font-family="Helvetica,sans-Serif" font-size="10.00">../../Geometry/HitRecord</text>
<text text-anchor="middle" x="886.41" y="-172" font-family="Helvetica,sans-Serif" font-size="10.00">/HitRecord.hpp</text>
</a>
</g>
</g>
<!-- Node21&#45;&gt;Node22 -->
<g id="edge22_Node000021_Node000022" class="edge">
<title>Node21&#45;&gt;Node22</title>
<g id="a_edge22_Node000021_Node000022"><a xlink:title=" ">
<path fill="none" stroke="#63b8ff" d="M886.41,-230.87C886.41,-224.11 886.41,-214.35 886.41,-205.26"/>
<polygon fill="#63b8ff" stroke="#63b8ff" points="889.91,-205.11 886.41,-195.11 882.91,-205.11 889.91,-205.11"/>
</a>
</g>
</g>
<!-- Node23 -->
<g id="Node000023" class="node">
<title>Node23</title>
<g id="a_Node000023"><a xlink:href="Point3D_8hpp.html" target="_top" xlink:title=" ">
<polygon fill="white" stroke="#666666" points="1242.41,-129 1116.41,-129 1116.41,-110 1242.41,-110 1242.41,-129"/>
<text text-anchor="middle" x="1179.41" y="-117" font-family="Helvetica,sans-Serif" font-size="10.00">../Point3D/Point3D.hpp</text>
</a>
</g>
</g>
<!-- Node22&#45;&gt;Node23 -->
<g id="edge23_Node000022_Node000023" class="edge">
<title>Node22&#45;&gt;Node23</title>
<g id="a_edge23_Node000022_Node000023"><a xlink:title=" ">
<path fill="none" stroke="#63b8ff" d="M953.63,-165.58C1006.16,-155.09 1078.14,-140.72 1126.58,-131.05"/>
<polygon fill="#63b8ff" stroke="#63b8ff" points="1127.43,-134.45 1136.55,-129.06 1126.06,-127.58 1127.43,-134.45"/>
</a>
</g>
</g>
<!-- Node24 -->
<g id="Node000024" class="node">
<title>Node24</title>
<g id="a_Node000024"><a xlink:href="Vector3D_8hpp.html" target="_top" xlink:title=" ">
<polygon fill="white" stroke="#666666" points="1248.41,-74 1110.41,-74 1110.41,-55 1248.41,-55 1248.41,-74"/>
<text text-anchor="middle" x="1179.41" y="-62" font-family="Helvetica,sans-Serif" font-size="10.00">../Vector3D/Vector3D.hpp</text>
</a>
</g>
</g>
<!-- Node22&#45;&gt;Node24 -->
<g id="edge26_Node000022_Node000024" class="edge">
<title>Node22&#45;&gt;Node24</title>
<g id="a_edge26_Node000022_Node000024"><a xlink:title=" ">
<path fill="none" stroke="#63b8ff" d="M922.63,-164.97C980.43,-142.58 1092.59,-99.13 1147.53,-77.85"/>
<polygon fill="#63b8ff" stroke="#63b8ff" points="1149.04,-81.02 1157.1,-74.14 1146.51,-74.49 1149.04,-81.02"/>
</a>
</g>
</g>
<!-- Node23&#45;&gt;Node24 -->
<g id="edge24_Node000023_Node000024" class="edge">
<title>Node23&#45;&gt;Node24</title>
<g id="a_edge24_Node000023_Node000024"><a xlink:title=" ">
<path fill="none" stroke="#63b8ff" d="M1179.41,-109.75C1179.41,-102.8 1179.41,-92.85 1179.41,-84.13"/>
<polygon fill="#63b8ff" stroke="#63b8ff" points="1182.91,-84.09 1179.41,-74.09 1175.91,-84.09 1182.91,-84.09"/>
</a>
</g>
</g>
<!-- Node25 -->
<g id="Node000025" class="node">
<title>Node25</title>
<g id="a_Node000025"><a xlink:title=" ">
<polygon fill="#e0e0e0" stroke="#999999" points="1204.91,-19 1153.91,-19 1153.91,0 1204.91,0 1204.91,-19"/>
<text text-anchor="middle" x="1179.41" y="-7" font-family="Helvetica,sans-Serif" font-size="10.00">math.h</text>
</a>
</g>
</g>
<!-- Node24&#45;&gt;Node25 -->
<g id="edge25_Node000024_Node000025" class="edge">
<title>Node24&#45;&gt;Node25</title>
<g id="a_edge25_Node000024_Node000025"><a xlink:title=" ">
<path fill="none" stroke="#63b8ff" d="M1179.41,-54.75C1179.41,-47.8 1179.41,-37.85 1179.41,-29.13"/>
<polygon fill="#63b8ff" stroke="#63b8ff" points="1182.91,-29.09 1179.41,-19.09 1175.91,-29.09 1182.91,-29.09"/>
</a>
</g>
</g>
<!-- Node27&#45;&gt;Node17 -->
<g id="edge34_Node000027_Node000017" class="edge">
<title>Node27&#45;&gt;Node17</title>
<g id="a_edge34_Node000027_Node000017"><a xlink:title=" ">
<path fill="none" stroke="#63b8ff" d="M1407.59,-285.83C1414.01,-276.19 1421.92,-262.89 1426.41,-250 1439.59,-212.23 1443.63,-165.17 1444.87,-139.46"/>
<polygon fill="#63b8ff" stroke="#63b8ff" points="1448.37,-139.38 1445.26,-129.25 1441.38,-139.11 1448.37,-139.38"/>
</a>
</g>
</g>
<!-- Node27&#45;&gt;Node23 -->
<g id="edge37_Node000027_Node000023" class="edge">
<title>Node27&#45;&gt;Node23</title>
<g id="a_edge37_Node000027_Node000023"><a xlink:title=" ">
<path fill="none" stroke="#63b8ff" d="M1382.78,-285.91C1367.88,-271.71 1343.98,-249.34 1322.41,-231 1286.25,-200.24 1276.03,-193.96 1238.41,-165 1225.45,-155.02 1210.77,-143.94 1199.29,-135.34"/>
<polygon fill="#63b8ff" stroke="#63b8ff" points="1201.32,-132.49 1191.22,-129.3 1197.13,-138.09 1201.32,-132.49"/>
</a>
</g>
</g>
<!-- Node28 -->
<g id="Node000028" class="node">
<title>Node28</title>
<g id="a_Node000028"><a xlink:title=" ">
<polygon fill="#e0e0e0" stroke="#999999" points="1416.91,-250 1369.91,-250 1369.91,-231 1416.91,-231 1416.91,-250"/>
<text text-anchor="middle" x="1393.41" y="-238" font-family="Helvetica,sans-Serif" font-size="10.00">cmath</text>
</a>
</g>
</g>
<!-- Node27&#45;&gt;Node28 -->
<g id="edge35_Node000027_Node000028" class="edge">
<title>Node27&#45;&gt;Node28</title>
<g id="a_edge35_Node000027_Node000028"><a xlink:title=" ">
<path fill="none" stroke="#63b8ff" d="M1396.44,-285.84C1395.92,-278.21 1395.27,-268.7 1394.71,-260.45"/>
<polygon fill="#63b8ff" stroke="#63b8ff" points="1398.19,-260 1394.01,-250.27 1391.2,-260.48 1398.19,-260"/>
</a>
</g>
</g>
<!-- Node29 -->
<g id="Node000029" class="node">
<title>Node29</title>
<g id="a_Node000029"><a xlink:title=" ">
<polygon fill="#e0e0e0" stroke="#999999" points="1517.41,-250 1473.41,-250 1473.41,-231 1517.41,-231 1517.41,-250"/>
<text text-anchor="middle" x="1495.41" y="-238" font-family="Helvetica,sans-Serif" font-size="10.00">limits</text>
</a>
</g>
</g>
<!-- Node27&#45;&gt;Node29 -->
<g id="edge36_Node000027_Node000029" class="edge">
<title>Node27&#45;&gt;Node29</title>
<g id="a_edge36_Node000027_Node000029"><a xlink:title=" ">
<path fill="none" stroke="#63b8ff" d="M1421.14,-285.84C1436.62,-276.6 1456.73,-264.59 1472.13,-255.4"/>
<polygon fill="#63b8ff" stroke="#63b8ff" points="1474.22,-258.23 1481.02,-250.09 1470.63,-252.21 1474.22,-258.23"/>
</a>
</g>
</g>
<!-- Node27&#45;&gt;Node30 -->
<g id="edge38_Node000027_Node000030" class="edge">
<title>Node27&#45;&gt;Node30</title>
<g id="a_edge38_Node000027_Node000030"><a xlink:title=" ">
<path fill="none" stroke="#63b8ff" d="M1366.99,-285.99C1346.18,-276.4 1318.8,-263.79 1298.5,-254.44"/>
<polygon fill="#63b8ff" stroke="#63b8ff" points="1299.72,-251.14 1289.17,-250.14 1296.79,-257.5 1299.72,-251.14"/>
</a>
</g>
</g>
<!-- Node30&#45;&gt;Node23 -->
<g id="edge39_Node000030_Node000023" class="edge">
<title>Node30&#45;&gt;Node23</title>
<g id="a_edge39_Node000030_Node000023"><a xlink:title=" ">
<path fill="none" stroke="#63b8ff" d="M1263.87,-230.94C1248.92,-211.4 1212.05,-163.18 1192.34,-137.4"/>
<polygon fill="#63b8ff" stroke="#63b8ff" points="1195,-135.12 1186.14,-129.3 1189.44,-139.37 1195,-135.12"/>
</a>
</g>
</g>
<!-- Node30&#45;&gt;Node24 -->
<g id="edge40_Node000030_Node000024" class="edge">
<title>Node30&#45;&gt;Node24</title>
<g id="a_edge40_Node000030_Node000024"><a xlink:title=" ">
<path fill="none" stroke="#63b8ff" d="M1271.5,-230.76C1273.79,-208.55 1277,-148.93 1251.41,-110 1242.14,-95.9 1226.7,-85.49 1212.49,-78.31"/>
<polygon fill="#63b8ff" stroke="#63b8ff" points="1213.95,-75.12 1203.41,-74.04 1210.97,-81.46 1213.95,-75.12"/>
</a>
</g>
</g>
<!-- Node31&#45;&gt;Node3 -->
<g id="edge49_Node000031_Node000003" class="edge">
<title>Node31&#45;&gt;Node3</title>
<g id="a_edge49_Node000031_Node000003"><a xlink:title=" ">
<path fill="none" stroke="#63b8ff" d="M808.33,-472.98C788.04,-464.38 756.46,-450.99 733.24,-441.15"/>
<polygon fill="#63b8ff" stroke="#63b8ff" points="734.43,-437.85 723.86,-437.17 731.7,-444.3 734.43,-437.85"/>
</a>
</g>
</g>
<!-- Node31&#45;&gt;Node11 -->
<g id="edge48_Node000031_Node000011" class="edge">
<title>Node31&#45;&gt;Node11</title>
<g id="a_edge48_Node000031_Node000011"><a xlink:title=" ">
<path fill="none" stroke="#63b8ff" d="M731.19,-479.21C583.49,-473.46 313.36,-453.21 253.41,-382 220.84,-343.3 270.83,-285.06 299.13,-257.3"/>
<polygon fill="#63b8ff" stroke="#63b8ff" points="301.63,-259.75 306.46,-250.32 296.8,-254.69 301.63,-259.75"/>
</a>
</g>
</g>
<!-- Node32 -->
<g id="Node000032" class="node">
<title>Node32</title>
<g id="a_Node000032"><a xlink:title=" ">
<polygon fill="#e0e0e0" stroke="#999999" points="844.41,-437 794.41,-437 794.41,-418 844.41,-418 844.41,-437"/>
<text text-anchor="middle" x="819.41" y="-425" font-family="Helvetica,sans-Serif" font-size="10.00">dlfcn.h</text>
</a>
</g>
</g>
<!-- Node31&#45;&gt;Node32 -->
<g id="edge46_Node000031_Node000032" class="edge">
<title>Node31&#45;&gt;Node32</title>
<g id="a_edge46_Node000031_Node000032"><a xlink:title=" ">
<path fill="none" stroke="#63b8ff" d="M826.93,-472.75C825.75,-465.8 824.06,-455.85 822.58,-447.13"/>
<polygon fill="#63b8ff" stroke="#63b8ff" points="826,-446.36 820.87,-437.09 819.1,-447.53 826,-446.36"/>
</a>
</g>
</g>
<!-- Node33 -->
<g id="Node000033" class="node">
<title>Node33</title>
<g id="a_Node000033"><a xlink:title=" ">
<polygon fill="#e0e0e0" stroke="#999999" points="916.41,-437 862.41,-437 862.41,-418 916.41,-418 916.41,-437"/>
<text text-anchor="middle" x="889.41" y="-425" font-family="Helvetica,sans-Serif" font-size="10.00">dirent.h</text>
</a>
</g>
</g>
<!-- Node31&#45;&gt;Node33 -->
<g id="edge47_Node000031_Node000033" class="edge">
<title>Node31&#45;&gt;Node33</title>
<g id="a_edge47_Node000031_Node000033"><a xlink:title=" ">
<path fill="none" stroke="#63b8ff" d="M838.21,-472.98C847.23,-465.15 860.82,-453.34 871.73,-443.86"/>
<polygon fill="#63b8ff" stroke="#63b8ff" points="874.18,-446.37 879.43,-437.17 869.59,-441.09 874.18,-446.37"/>
</a>
</g>
</g>
<!-- Node34&#45;&gt;Node5 -->
<g id="edge53_Node000034_Node000005" class="edge">
<title>Node34&#45;&gt;Node5</title>
<g id="a_edge53_Node000034_Node000005"><a xlink:title=" ">
<path fill="none" stroke="#63b8ff" d="M1209.78,-417.84C1215.67,-409.25 1224.02,-395.45 1227.41,-382 1230.68,-369.07 1230.7,-364.92 1227.41,-352 1211.78,-290.53 1169.08,-227.28 1147.41,-197.9"/>
<polygon fill="#63b8ff" stroke="#63b8ff" points="1149.97,-195.49 1141.17,-189.6 1144.38,-199.69 1149.97,-195.49"/>
</a>
</g>
</g>
<!-- Node34&#45;&gt;Node17 -->
<g id="edge51_Node000034_Node000017" class="edge">
<title>Node34&#45;&gt;Node17</title>
<g id="a_edge51_Node000034_Node000017"><a xlink:title=" ">
<path fill="none" stroke="#63b8ff" d="M1249.54,-419.63C1342.89,-404.41 1545.41,-364.24 1545.41,-302 1545.41,-302 1545.41,-302 1545.41,-239.5 1545.41,-192.3 1498.73,-154.05 1469.16,-134.55"/>
<polygon fill="#63b8ff" stroke="#63b8ff" points="1470.92,-131.52 1460.6,-129.11 1467.16,-137.43 1470.92,-131.52"/>
</a>
</g>
</g>
<!-- Node34&#45;&gt;Node18 -->
<g id="edge55_Node000034_Node000018" class="edge">
<title>Node34&#45;&gt;Node18</title>
<g id="a_edge55_Node000034_Node000018"><a xlink:title=" ">
<path fill="none" stroke="#63b8ff" d="M1159.35,-417.96C1095.09,-404.08 973.62,-372.33 884.41,-316 837.14,-286.15 801.85,-227.9 786.25,-198.65"/>
<polygon fill="#63b8ff" stroke="#63b8ff" points="789.27,-196.88 781.56,-189.61 783.06,-200.1 789.27,-196.88"/>
</a>
</g>
</g>
<!-- Node34&#45;&gt;Node19 -->
<g id="edge57_Node000034_Node000019" class="edge">
<title>Node34&#45;&gt;Node19</title>
<g id="a_edge57_Node000034_Node000019"><a xlink:title=" ">
<path fill="none" stroke="#63b8ff" d="M1197.07,-417.87C1191.72,-410.59 1183.83,-399.85 1176.73,-390.2"/>
<polygon fill="#63b8ff" stroke="#63b8ff" points="1179.53,-388.1 1170.79,-382.11 1173.89,-392.25 1179.53,-388.1"/>
</a>
</g>
</g>
<!-- Node34&#45;&gt;Node26 -->
<g id="edge54_Node000034_Node000026" class="edge">
<title>Node34&#45;&gt;Node26</title>
<g id="a_edge54_Node000034_Node000026"><a xlink:title=" ">
<path fill="none" stroke="#63b8ff" d="M1157.23,-420.1C1133.95,-414.28 1107.69,-403.18 1093.41,-382 1081,-363.58 1088.5,-337.38 1096.06,-320.05"/>
<polygon fill="#63b8ff" stroke="#63b8ff" points="1099.44,-321.08 1100.58,-310.55 1093.12,-318.07 1099.44,-321.08"/>
</a>
</g>
</g>
<!-- Node34&#45;&gt;Node27 -->
<g id="edge56_Node000034_Node000027" class="edge">
<title>Node34&#45;&gt;Node27</title>
<g id="a_edge56_Node000034_Node000027"><a xlink:title=" ">
<path fill="none" stroke="#63b8ff" d="M1216.75,-417.94C1247.44,-398.25 1323.72,-349.29 1366.71,-321.7"/>
<polygon fill="#63b8ff" stroke="#63b8ff" points="1368.82,-324.51 1375.35,-316.16 1365.04,-318.62 1368.82,-324.51"/>
</a>
</g>
</g>
<!-- Node34&#45;&gt;Node29 -->
<g id="edge52_Node000034_Node000029" class="edge">
<title>Node34&#45;&gt;Node29</title>
<g id="a_edge52_Node000034_Node000029"><a xlink:title=" ">
<path fill="none" stroke="#63b8ff" d="M1249.65,-418.79C1307.96,-406.75 1407.8,-378.1 1467.41,-316 1482.19,-300.61 1489.32,-276.69 1492.66,-260.13"/>
<polygon fill="#63b8ff" stroke="#63b8ff" points="1496.15,-260.48 1494.41,-250.03 1489.26,-259.28 1496.15,-260.48"/>
</a>
</g>
</g>
</g>
</svg>
