<?xml version="1.0" encoding="UTF-8" standalone="no"?>
<!DOCTYPE svg PUBLIC "-//W3C//DTD SVG 1.1//EN"
 "http://www.w3.org/Graphics/SVG/1.1/DTD/svg11.dtd">
<!-- Generated by graphviz version 2.43.0 (0)
 -->
<!-- Title: src/Objects/Plugins/CorePlugin/Interfaces/SceneWriter/SceneWriter.hpp Pages: 1 -->
<svg width="891pt" height="511pt"
 viewBox="0.00 0.00 891.00 511.00" xmlns="http://www.w3.org/2000/svg" xmlns:xlink="http://www.w3.org/1999/xlink">
<g id="graph0" class="graph" transform="scale(1 1) rotate(0) translate(4 507)">
<title>src/Objects/Plugins/CorePlugin/Interfaces/SceneWriter/SceneWriter.hpp</title>
<!-- Node1 -->
<g id="Node000001" class="node">
<title>Node1</title>
<g id="a_Node000001"><a xlink:title=" ">
<polygon fill="#999999" stroke="#666666" points="454.5,-503 293.5,-503 293.5,-462 454.5,-462 454.5,-503"/>
<text text-anchor="start" x="301.5" y="-491" font-family="Helvetica,sans-Serif" font-size="10.00">src/Objects/Plugins</text>
<text text-anchor="start" x="301.5" y="-480" font-family="Helvetica,sans-Serif" font-size="10.00">/CorePlugin/Interfaces</text>
<text text-anchor="middle" x="374" y="-469" font-family="Helvetica,sans-Serif" font-size="10.00">/SceneWriter/SceneWriter.hpp</text>
</a>
</g>
</g>
<!-- Node2 -->
<g id="Node000002" class="node">
<title>Node2</title>
<g id="a_Node000002"><a xlink:href="Plugin_8hpp.html" target="_top" xlink:title=" ">
<polygon fill="white" stroke="#666666" points="426,-426 322,-426 322,-407 426,-407 426,-426"/>
<text text-anchor="middle" x="374" y="-414" font-family="Helvetica,sans-Serif" font-size="10.00">../../../../Plugin.hpp</text>
</a>
</g>
</g>
<!-- Node1&#45;&gt;Node2 -->
<g id="edge1_Node000001_Node000002" class="edge">
<title>Node1&#45;&gt;Node2</title>
<g id="a_edge1_Node000001_Node000002"><a xlink:title=" ">
<path fill="none" stroke="#63b8ff" d="M374,-461.95C374,-453.85 374,-444.5 374,-436.47"/>
<polygon fill="#63b8ff" stroke="#63b8ff" points="377.5,-436.26 374,-426.26 370.5,-436.26 377.5,-436.26"/>
</a>
</g>
</g>
<!-- Node3 -->
<g id="Node000003" class="node">
<title>Node3</title>
<g id="a_Node000003"><a xlink:title=" ">
<polygon fill="#e0e0e0" stroke="#999999" points="92.5,-365.5 27.5,-365.5 27.5,-346.5 92.5,-346.5 92.5,-365.5"/>
<text text-anchor="middle" x="60" y="-353.5" font-family="Helvetica,sans-Serif" font-size="10.00">functional</text>
</a>
</g>
</g>
<!-- Node2&#45;&gt;Node3 -->
<g id="edge2_Node000002_Node000003" class="edge">
<title>Node2&#45;&gt;Node3</title>
<g id="a_edge2_Node000002_Node000003"><a xlink:title=" ">
<path fill="none" stroke="#63b8ff" d="M321.94,-408.78C267.85,-401.34 180.94,-388.1 107,-371 103.58,-370.21 100.04,-369.31 96.51,-368.36"/>
<polygon fill="#63b8ff" stroke="#63b8ff" points="97.26,-364.93 86.69,-365.58 95.36,-371.67 97.26,-364.93"/>
</a>
</g>
</g>
<!-- Node4 -->
<g id="Node000004" class="node">
<title>Node4</title>
<g id="a_Node000004"><a xlink:title=" ">
<polygon fill="#e0e0e0" stroke="#999999" points="190,-189.5 132,-189.5 132,-170.5 190,-170.5 190,-189.5"/>
<text text-anchor="middle" x="161" y="-177.5" font-family="Helvetica,sans-Serif" font-size="10.00">memory</text>
</a>
</g>
</g>
<!-- Node2&#45;&gt;Node4 -->
<g id="edge3_Node000002_Node000004" class="edge">
<title>Node2&#45;&gt;Node4</title>
<g id="a_edge3_Node000002_Node000004"><a xlink:title=" ">
<path fill="none" stroke="#63b8ff" d="M321.74,-413.08C259.94,-409 162.61,-398.32 140,-371 98.41,-320.76 133.05,-235.68 151.39,-198.87"/>
<polygon fill="#63b8ff" stroke="#63b8ff" points="154.58,-200.32 156.06,-189.83 148.36,-197.11 154.58,-200.32"/>
</a>
</g>
</g>
<!-- Node5 -->
<g id="Node000005" class="node">
<title>Node5</title>
<g id="a_Node000005"><a xlink:title=" ">
<polygon fill="#e0e0e0" stroke="#999999" points="582.5,-365.5 531.5,-365.5 531.5,-346.5 582.5,-346.5 582.5,-365.5"/>
<text text-anchor="middle" x="557" y="-353.5" font-family="Helvetica,sans-Serif" font-size="10.00">variant</text>
</a>
</g>
</g>
<!-- Node2&#45;&gt;Node5 -->
<g id="edge4_Node000002_Node000005" class="edge">
<title>Node2&#45;&gt;Node5</title>
<g id="a_edge4_Node000002_Node000005"><a xlink:title=" ">
<path fill="none" stroke="#63b8ff" d="M402.58,-406.93C431.52,-398.17 477.5,-384.05 517,-371 519.1,-370.31 521.26,-369.58 523.43,-368.84"/>
<polygon fill="#63b8ff" stroke="#63b8ff" points="524.62,-372.14 532.93,-365.58 522.34,-365.52 524.62,-372.14"/>
</a>
</g>
</g>
<!-- Node6 -->
<g id="Node000006" class="node">
<title>Node6</title>
<g id="a_Node000006"><a xlink:title=" ">
<polygon fill="#e0e0e0" stroke="#999999" points="639,-365.5 601,-365.5 601,-346.5 639,-346.5 639,-365.5"/>
<text text-anchor="middle" x="620" y="-353.5" font-family="Helvetica,sans-Serif" font-size="10.00">map</text>
</a>
</g>
</g>
<!-- Node2&#45;&gt;Node6 -->
<g id="edge5_Node000002_Node000006" class="edge">
<title>Node2&#45;&gt;Node6</title>
<g id="a_edge5_Node000002_Node000006"><a xlink:title=" ">
<path fill="none" stroke="#63b8ff" d="M426.25,-408.5C470.81,-401.66 536.17,-389.54 591,-371 592.22,-370.59 593.46,-370.13 594.7,-369.65"/>
<polygon fill="#63b8ff" stroke="#63b8ff" points="596.27,-372.78 604.04,-365.58 593.47,-366.37 596.27,-372.78"/>
</a>
</g>
</g>
<!-- Node7 -->
<g id="Node000007" class="node">
<title>Node7</title>
<g id="a_Node000007"><a xlink:href="RaytracerException_8hpp.html" target="_top" xlink:title=" ">
<polygon fill="white" stroke="#666666" points="833.5,-371 656.5,-371 656.5,-341 833.5,-341 833.5,-371"/>
<text text-anchor="start" x="664.5" y="-359" font-family="Helvetica,sans-Serif" font-size="10.00">../Exceptions/RaytracerException</text>
<text text-anchor="middle" x="745" y="-348" font-family="Helvetica,sans-Serif" font-size="10.00">/RaytracerException.hpp</text>
</a>
</g>
</g>
<!-- Node2&#45;&gt;Node7 -->
<g id="edge6_Node000002_Node000007" class="edge">
<title>Node2&#45;&gt;Node7</title>
<g id="a_edge6_Node000002_Node000007"><a xlink:title=" ">
<path fill="none" stroke="#63b8ff" d="M426.37,-407.24C483.29,-398.27 575.56,-383.72 646.2,-372.58"/>
<polygon fill="#63b8ff" stroke="#63b8ff" points="647.12,-375.98 656.45,-370.96 646.03,-369.06 647.12,-375.98"/>
</a>
</g>
</g>
<!-- Node12 -->
<g id="Node000012" class="node">
<title>Node12</title>
<g id="a_Node000012"><a xlink:href="AInterface_8hpp.html" target="_top" xlink:title=" ">
<polygon fill="white" stroke="#666666" points="475,-371 359,-371 359,-341 475,-341 475,-371"/>
<text text-anchor="start" x="367" y="-359" font-family="Helvetica,sans-Serif" font-size="10.00">Abstracts/AInterface</text>
<text text-anchor="middle" x="417" y="-348" font-family="Helvetica,sans-Serif" font-size="10.00">/AInterface.hpp</text>
</a>
</g>
</g>
<!-- Node2&#45;&gt;Node12 -->
<g id="edge11_Node000002_Node000012" class="edge">
<title>Node2&#45;&gt;Node12</title>
<g id="a_edge11_Node000002_Node000012"><a xlink:title=" ">
<path fill="none" stroke="#63b8ff" d="M380.34,-406.87C385.69,-399.59 393.59,-388.85 400.68,-379.2"/>
<polygon fill="#63b8ff" stroke="#63b8ff" points="403.52,-381.25 406.63,-371.11 397.88,-377.1 403.52,-381.25"/>
</a>
</g>
</g>
<!-- Node13 -->
<g id="Node000013" class="node">
<title>Node13</title>
<g id="a_Node000013"><a xlink:href="ARenderer_8hpp.html" target="_top" xlink:title=" ">
<polygon fill="white" stroke="#666666" points="575.5,-250 424.5,-250 424.5,-231 575.5,-231 575.5,-250"/>
<text text-anchor="middle" x="500" y="-238" font-family="Helvetica,sans-Serif" font-size="10.00">../ARenderer/ARenderer.hpp</text>
</a>
</g>
</g>
<!-- Node2&#45;&gt;Node13 -->
<g id="edge33_Node000002_Node000013" class="edge">
<title>Node2&#45;&gt;Node13</title>
<g id="a_edge33_Node000002_Node000013"><a xlink:title=" ">
<path fill="none" stroke="#63b8ff" d="M424.22,-406.98C445.91,-400.68 469.58,-389.79 484,-371 508.86,-338.61 506.65,-287.63 503.16,-260.3"/>
<polygon fill="#63b8ff" stroke="#63b8ff" points="506.58,-259.54 501.66,-250.15 499.66,-260.56 506.58,-259.54"/>
</a>
</g>
</g>
<!-- Node17 -->
<g id="Node000017" class="node">
<title>Node17</title>
<g id="a_Node000017"><a xlink:href="APrimitive_8hpp.html" target="_top" xlink:title=" ">
<polygon fill="white" stroke="#666666" points="265,-371 149,-371 149,-341 265,-341 265,-371"/>
<text text-anchor="start" x="157" y="-359" font-family="Helvetica,sans-Serif" font-size="10.00">Abstracts/APrimitive</text>
<text text-anchor="middle" x="207" y="-348" font-family="Helvetica,sans-Serif" font-size="10.00">/APrimitive.hpp</text>
</a>
</g>
</g>
<!-- Node2&#45;&gt;Node17 -->
<g id="edge16_Node000002_Node000017" class="edge">
<title>Node2&#45;&gt;Node17</title>
<g id="a_edge16_Node000002_Node000017"><a xlink:title=" ">
<path fill="none" stroke="#63b8ff" d="M349.72,-406.99C325.47,-398.5 287.51,-385.2 256.83,-374.45"/>
<polygon fill="#63b8ff" stroke="#63b8ff" points="257.74,-371.07 247.15,-371.06 255.43,-377.67 257.74,-371.07"/>
</a>
</g>
</g>
<!-- Node18 -->
<g id="Node000018" class="node">
<title>Node18</title>
<g id="a_Node000018"><a xlink:href="IMaterial_8hpp.html" target="_top" xlink:title=" ">
<polygon fill="white" stroke="#666666" points="411,-305 321,-305 321,-286 411,-286 411,-305"/>
<text text-anchor="middle" x="366" y="-293" font-family="Helvetica,sans-Serif" font-size="10.00">../IMaterial.hpp</text>
</a>
</g>
</g>
<!-- Node2&#45;&gt;Node18 -->
<g id="edge35_Node000002_Node000018" class="edge">
<title>Node2&#45;&gt;Node18</title>
<g id="a_edge35_Node000002_Node000018"><a xlink:title=" ">
<path fill="none" stroke="#63b8ff" d="M367.63,-406.84C361.74,-398.25 353.39,-384.45 350,-371 345.16,-351.82 351.43,-329.64 357.48,-314.5"/>
<polygon fill="#63b8ff" stroke="#63b8ff" points="360.72,-315.83 361.5,-305.26 354.3,-313.04 360.72,-315.83"/>
</a>
</g>
</g>
<!-- Node19 -->
<g id="Node000019" class="node">
<title>Node19</title>
<g id="a_Node000019"><a xlink:href="ILight_8hpp.html" target="_top" xlink:title=" ">
<polygon fill="white" stroke="#666666" points="327.5,-250 262.5,-250 262.5,-231 327.5,-231 327.5,-250"/>
<text text-anchor="middle" x="295" y="-238" font-family="Helvetica,sans-Serif" font-size="10.00">ILight.hpp</text>
</a>
</g>
</g>
<!-- Node2&#45;&gt;Node19 -->
<g id="edge34_Node000002_Node000019" class="edge">
<title>Node2&#45;&gt;Node19</title>
<g id="a_edge34_Node000002_Node000019"><a xlink:title=" ">
<path fill="none" stroke="#63b8ff" d="M367.92,-406.82C361.83,-397.98 352.34,-383.8 345,-371 328.69,-342.55 323.63,-335.66 312,-305 306.43,-290.31 301.93,-273.06 298.97,-260.24"/>
<polygon fill="#63b8ff" stroke="#63b8ff" points="302.34,-259.31 296.77,-250.3 295.51,-260.82 302.34,-259.31"/>
</a>
</g>
</g>
<!-- Node8 -->
<g id="Node000008" class="node">
<title>Node8</title>
<g id="a_Node000008"><a xlink:title=" ">
<polygon fill="#e0e0e0" stroke="#999999" points="742.5,-305 677.5,-305 677.5,-286 742.5,-286 742.5,-305"/>
<text text-anchor="middle" x="710" y="-293" font-family="Helvetica,sans-Serif" font-size="10.00">exception</text>
</a>
</g>
</g>
<!-- Node7&#45;&gt;Node8 -->
<g id="edge7_Node000007_Node000008" class="edge">
<title>Node7&#45;&gt;Node8</title>
<g id="a_edge7_Node000007_Node000008"><a xlink:title=" ">
<path fill="none" stroke="#63b8ff" d="M736.53,-340.84C731.71,-332.78 725.63,-322.62 720.5,-314.06"/>
<polygon fill="#63b8ff" stroke="#63b8ff" points="723.38,-312.05 715.24,-305.27 717.38,-315.64 723.38,-312.05"/>
</a>
</g>
</g>
<!-- Node9 -->
<g id="Node000009" class="node">
<title>Node9</title>
<g id="a_Node000009"><a xlink:title=" ">
<polygon fill="#e0e0e0" stroke="#999999" points="821,-305 761,-305 761,-286 821,-286 821,-305"/>
<text text-anchor="middle" x="791" y="-293" font-family="Helvetica,sans-Serif" font-size="10.00">iostream</text>
</a>
</g>
</g>
<!-- Node7&#45;&gt;Node9 -->
<g id="edge8_Node000007_Node000009" class="edge">
<title>Node7&#45;&gt;Node9</title>
<g id="a_edge8_Node000007_Node000009"><a xlink:title=" ">
<path fill="none" stroke="#63b8ff" d="M756.14,-340.84C762.68,-332.52 770.98,-321.96 777.84,-313.23"/>
<polygon fill="#63b8ff" stroke="#63b8ff" points="780.68,-315.29 784.11,-305.27 775.17,-310.96 780.68,-315.29"/>
</a>
</g>
</g>
<!-- Node10 -->
<g id="Node000010" class="node">
<title>Node10</title>
<g id="a_Node000010"><a xlink:title=" ">
<polygon fill="#e0e0e0" stroke="#999999" points="883,-305 839,-305 839,-286 883,-286 883,-305"/>
<text text-anchor="middle" x="861" y="-293" font-family="Helvetica,sans-Serif" font-size="10.00">string</text>
</a>
</g>
</g>
<!-- Node7&#45;&gt;Node10 -->
<g id="edge9_Node000007_Node000010" class="edge">
<title>Node7&#45;&gt;Node10</title>
<g id="a_edge9_Node000007_Node000010"><a xlink:title=" ">
<path fill="none" stroke="#63b8ff" d="M772.78,-340.99C791.62,-331.49 816.35,-319.02 834.84,-309.69"/>
<polygon fill="#63b8ff" stroke="#63b8ff" points="836.52,-312.77 843.87,-305.14 833.36,-306.52 836.52,-312.77"/>
</a>
</g>
</g>
<!-- Node11 -->
<g id="Node000011" class="node">
<title>Node11</title>
<g id="a_Node000011"><a xlink:title=" ">
<polygon fill="#e0e0e0" stroke="#999999" points="659.5,-305 566.5,-305 566.5,-286 659.5,-286 659.5,-305"/>
<text text-anchor="middle" x="613" y="-293" font-family="Helvetica,sans-Serif" font-size="10.00">source_location</text>
</a>
</g>
</g>
<!-- Node7&#45;&gt;Node11 -->
<g id="edge10_Node000007_Node000011" class="edge">
<title>Node7&#45;&gt;Node11</title>
<g id="a_edge10_Node000007_Node000011"><a xlink:title=" ">
<path fill="none" stroke="#63b8ff" d="M713.38,-340.99C691.65,-331.36 663.03,-318.67 641.91,-309.31"/>
<polygon fill="#63b8ff" stroke="#63b8ff" points="643.05,-305.99 632.49,-305.14 640.22,-312.39 643.05,-305.99"/>
</a>
</g>
</g>
<!-- Node12&#45;&gt;Node13 -->
<g id="edge12_Node000012_Node000013" class="edge">
<title>Node12&#45;&gt;Node13</title>
<g id="a_edge12_Node000012_Node000013"><a xlink:title=" ">
<path fill="none" stroke="#63b8ff" d="M427.51,-340.63C442.85,-319.65 471.3,-280.75 487.63,-258.42"/>
<polygon fill="#63b8ff" stroke="#63b8ff" points="490.54,-260.37 493.62,-250.23 484.89,-256.24 490.54,-260.37"/>
</a>
</g>
</g>
<!-- Node14 -->
<g id="Node000014" class="node">
<title>Node14</title>
<g id="a_Node000014"><a xlink:href="Color_8hpp.html" target="_top" xlink:title=" ">
<polygon fill="white" stroke="#666666" points="540.5,-189.5 425.5,-189.5 425.5,-170.5 540.5,-170.5 540.5,-189.5"/>
<text text-anchor="middle" x="483" y="-177.5" font-family="Helvetica,sans-Serif" font-size="10.00">../../../Utils/Color.hpp</text>
</a>
</g>
</g>
<!-- Node13&#45;&gt;Node14 -->
<g id="edge13_Node000013_Node000014" class="edge">
<title>Node13&#45;&gt;Node14</title>
<g id="a_edge13_Node000013_Node000014"><a xlink:title=" ">
<path fill="none" stroke="#63b8ff" d="M497.49,-230.87C495.11,-222.66 491.44,-210.04 488.39,-199.55"/>
<polygon fill="#63b8ff" stroke="#63b8ff" points="491.67,-198.29 485.52,-189.67 484.95,-200.25 491.67,-198.29"/>
</a>
</g>
</g>
<!-- Node16 -->
<g id="Node000016" class="node">
<title>Node16</title>
<g id="a_Node000016"><a xlink:title=" ">
<polygon fill="#e0e0e0" stroke="#999999" points="407.5,-189.5 360.5,-189.5 360.5,-170.5 407.5,-170.5 407.5,-189.5"/>
<text text-anchor="middle" x="384" y="-177.5" font-family="Helvetica,sans-Serif" font-size="10.00">vector</text>
</a>
</g>
</g>
<!-- Node13&#45;&gt;Node16 -->
<g id="edge15_Node000013_Node000016" class="edge">
<title>Node13&#45;&gt;Node16</title>
<g id="a_edge15_Node000013_Node000016"><a xlink:title=" ">
<path fill="none" stroke="#63b8ff" d="M482.88,-230.87C463.78,-221.23 432.63,-205.53 410.4,-194.31"/>
<polygon fill="#63b8ff" stroke="#63b8ff" points="411.69,-191.05 401.19,-189.67 408.54,-197.3 411.69,-191.05"/>
</a>
</g>
</g>
<!-- Node15 -->
<g id="Node000015" class="node">
<title>Node15</title>
<g id="a_Node000015"><a xlink:title=" ">
<polygon fill="#e0e0e0" stroke="#999999" points="515,-129 451,-129 451,-110 515,-110 515,-129"/>
<text text-anchor="middle" x="483" y="-117" font-family="Helvetica,sans-Serif" font-size="10.00">algorithm</text>
</a>
</g>
</g>
<!-- Node14&#45;&gt;Node15 -->
<g id="edge14_Node000014_Node000015" class="edge">
<title>Node14&#45;&gt;Node15</title>
<g id="a_edge14_Node000014_Node000015"><a xlink:title=" ">
<path fill="none" stroke="#63b8ff" d="M483,-170.37C483,-162.25 483,-149.81 483,-139.39"/>
<polygon fill="#63b8ff" stroke="#63b8ff" points="486.5,-139.17 483,-129.17 479.5,-139.17 486.5,-139.17"/>
</a>
</g>
</g>
<!-- Node17&#45;&gt;Node18 -->
<g id="edge17_Node000017_Node000018" class="edge">
<title>Node17&#45;&gt;Node18</title>
<g id="a_edge17_Node000017_Node000018"><a xlink:title=" ">
<path fill="none" stroke="#63b8ff" d="M245.08,-340.99C271.85,-331.14 307.3,-318.1 332.89,-308.68"/>
<polygon fill="#63b8ff" stroke="#63b8ff" points="334.34,-311.88 342.52,-305.14 331.93,-305.31 334.34,-311.88"/>
</a>
</g>
</g>
<!-- Node24 -->
<g id="Node000024" class="node">
<title>Node24</title>
<g id="a_Node000024"><a xlink:title=" ">
<polygon fill="#e0e0e0" stroke="#999999" points="243,-305 187,-305 187,-286 243,-286 243,-305"/>
<text text-anchor="middle" x="215" y="-293" font-family="Helvetica,sans-Serif" font-size="10.00">optional</text>
</a>
</g>
</g>
<!-- Node17&#45;&gt;Node24 -->
<g id="edge29_Node000017_Node000024" class="edge">
<title>Node17&#45;&gt;Node24</title>
<g id="a_edge29_Node000017_Node000024"><a xlink:title=" ">
<path fill="none" stroke="#63b8ff" d="M208.94,-340.84C209.98,-333.21 211.28,-323.7 212.41,-315.45"/>
<polygon fill="#63b8ff" stroke="#63b8ff" points="215.91,-315.65 213.8,-305.27 208.98,-314.7 215.91,-315.65"/>
</a>
</g>
</g>
<!-- Node25 -->
<g id="Node000025" class="node">
<title>Node25</title>
<g id="a_Node000025"><a xlink:href="Ray_8hpp.html" target="_top" xlink:title=" ">
<polygon fill="white" stroke="#666666" points="114,-195 0,-195 0,-165 114,-165 114,-195"/>
<text text-anchor="start" x="8" y="-183" font-family="Helvetica,sans-Serif" font-size="10.00">../../../Geometry/Ray</text>
<text text-anchor="middle" x="57" y="-172" font-family="Helvetica,sans-Serif" font-size="10.00">/Ray.hpp</text>
</a>
</g>
</g>
<!-- Node17&#45;&gt;Node25 -->
<g id="edge30_Node000017_Node000025" class="edge">
<title>Node17&#45;&gt;Node25</title>
<g id="a_edge30_Node000017_Node000025"><a xlink:title=" ">
<path fill="none" stroke="#63b8ff" d="M194.72,-340.76C168.57,-310.43 107.22,-239.25 75.99,-203.02"/>
<polygon fill="#63b8ff" stroke="#63b8ff" points="78.63,-200.72 69.44,-195.44 73.32,-205.3 78.63,-200.72"/>
</a>
</g>
</g>
<!-- Node18&#45;&gt;Node14 -->
<g id="edge18_Node000018_Node000014" class="edge">
<title>Node18&#45;&gt;Node14</title>
<g id="a_edge18_Node000018_Node000014"><a xlink:title=" ">
<path fill="none" stroke="#63b8ff" d="M371.65,-285.66C380.13,-272.79 397.07,-248.52 415,-231 428.93,-217.39 446.72,-204.44 460.61,-195.13"/>
<polygon fill="#63b8ff" stroke="#63b8ff" points="462.65,-197.97 469.1,-189.56 458.81,-192.12 462.65,-197.97"/>
</a>
</g>
</g>
<!-- Node18&#45;&gt;Node16 -->
<g id="edge28_Node000018_Node000016" class="edge">
<title>Node18&#45;&gt;Node16</title>
<g id="a_edge28_Node000018_Node000016"><a xlink:title=" ">
<path fill="none" stroke="#63b8ff" d="M367.35,-285.97C370.25,-267.73 377.09,-224.57 381.04,-199.64"/>
<polygon fill="#63b8ff" stroke="#63b8ff" points="384.52,-200.05 382.63,-189.63 377.61,-198.96 384.52,-200.05"/>
</a>
</g>
</g>
<!-- Node18&#45;&gt;Node19 -->
<g id="edge19_Node000018_Node000019" class="edge">
<title>Node18&#45;&gt;Node19</title>
<g id="a_edge19_Node000018_Node000019"><a xlink:title=" ">
<path fill="none" stroke="#63b8ff" d="M354.59,-285.98C343.89,-278 327.66,-265.88 314.84,-256.31"/>
<polygon fill="#63b8ff" stroke="#63b8ff" points="316.72,-253.35 306.61,-250.17 312.53,-258.96 316.72,-253.35"/>
</a>
</g>
</g>
<!-- Node19&#45;&gt;Node4 -->
<g id="edge27_Node000019_Node000004" class="edge">
<title>Node19&#45;&gt;Node4</title>
<g id="a_edge27_Node000019_Node000004"><a xlink:title=" ">
<path fill="none" stroke="#63b8ff" d="M275.52,-230.99C252.99,-221.16 215.69,-204.88 189.81,-193.58"/>
<polygon fill="#63b8ff" stroke="#63b8ff" points="191.07,-190.31 180.51,-189.52 188.27,-196.73 191.07,-190.31"/>
</a>
</g>
</g>
<!-- Node19&#45;&gt;Node14 -->
<g id="edge25_Node000019_Node000014" class="edge">
<title>Node19&#45;&gt;Node14</title>
<g id="a_edge25_Node000019_Node000014"><a xlink:title=" ">
<path fill="none" stroke="#63b8ff" d="M322.34,-230.99C354.92,-220.86 409.51,-203.87 445.89,-192.55"/>
<polygon fill="#63b8ff" stroke="#63b8ff" points="447.12,-195.83 455.63,-189.52 445.04,-189.15 447.12,-195.83"/>
</a>
</g>
</g>
<!-- Node19&#45;&gt;Node16 -->
<g id="edge26_Node000019_Node000016" class="edge">
<title>Node19&#45;&gt;Node16</title>
<g id="a_edge26_Node000019_Node000016"><a xlink:title=" ">
<path fill="none" stroke="#63b8ff" d="M308.13,-230.87C322.33,-221.54 345.2,-206.51 362.12,-195.38"/>
<polygon fill="#63b8ff" stroke="#63b8ff" points="364.38,-198.08 370.81,-189.67 360.53,-192.24 364.38,-198.08"/>
</a>
</g>
</g>
<!-- Node20 -->
<g id="Node000020" class="node">
<title>Node20</title>
<g id="a_Node000020"><a xlink:href="HitRecord_8hpp.html" target="_top" xlink:title=" ">
<polygon fill="white" stroke="#666666" points="342,-195 208,-195 208,-165 342,-165 342,-195"/>
<text text-anchor="start" x="216" y="-183" font-family="Helvetica,sans-Serif" font-size="10.00">../../Geometry/HitRecord</text>
<text text-anchor="middle" x="275" y="-172" font-family="Helvetica,sans-Serif" font-size="10.00">/HitRecord.hpp</text>
</a>
</g>
</g>
<!-- Node19&#45;&gt;Node20 -->
<g id="edge20_Node000019_Node000020" class="edge">
<title>Node19&#45;&gt;Node20</title>
<g id="a_edge20_Node000019_Node000020"><a xlink:title=" ">
<path fill="none" stroke="#63b8ff" d="M292.05,-230.87C289.69,-223.96 286.26,-213.93 283.09,-204.67"/>
<polygon fill="#63b8ff" stroke="#63b8ff" points="286.37,-203.44 279.83,-195.11 279.75,-205.71 286.37,-203.44"/>
</a>
</g>
</g>
<!-- Node21 -->
<g id="Node000021" class="node">
<title>Node21</title>
<g id="a_Node000021"><a xlink:href="Point3D_8hpp.html" target="_top" xlink:title=" ">
<polygon fill="white" stroke="#666666" points="225,-129 99,-129 99,-110 225,-110 225,-129"/>
<text text-anchor="middle" x="162" y="-117" font-family="Helvetica,sans-Serif" font-size="10.00">../Point3D/Point3D.hpp</text>
</a>
</g>
</g>
<!-- Node20&#45;&gt;Node21 -->
<g id="edge21_Node000020_Node000021" class="edge">
<title>Node20&#45;&gt;Node21</title>
<g id="a_edge21_Node000020_Node000021"><a xlink:title=" ">
<path fill="none" stroke="#63b8ff" d="M247.93,-164.99C229.75,-155.58 205.93,-143.24 187.98,-133.95"/>
<polygon fill="#63b8ff" stroke="#63b8ff" points="189.18,-130.63 178.69,-129.14 185.96,-136.84 189.18,-130.63"/>
</a>
</g>
</g>
<!-- Node22 -->
<g id="Node000022" class="node">
<title>Node22</title>
<g id="a_Node000022"><a xlink:href="Vector3D_8hpp.html" target="_top" xlink:title=" ">
<polygon fill="white" stroke="#666666" points="231,-74 93,-74 93,-55 231,-55 231,-74"/>
<text text-anchor="middle" x="162" y="-62" font-family="Helvetica,sans-Serif" font-size="10.00">../Vector3D/Vector3D.hpp</text>
</a>
</g>
</g>
<!-- Node20&#45;&gt;Node22 -->
<g id="edge24_Node000020_Node000022" class="edge">
<title>Node20&#45;&gt;Node22</title>
<g id="a_edge24_Node000020_Node000022"><a xlink:title=" ">
<path fill="none" stroke="#63b8ff" d="M269.13,-164.99C262.34,-150.03 250.02,-126.3 234,-110 221.41,-97.19 204.43,-86.47 190.12,-78.76"/>
<polygon fill="#63b8ff" stroke="#63b8ff" points="191.67,-75.62 181.18,-74.14 188.45,-81.84 191.67,-75.62"/>
</a>
</g>
</g>
<!-- Node21&#45;&gt;Node22 -->
<g id="edge22_Node000021_Node000022" class="edge">
<title>Node21&#45;&gt;Node22</title>
<g id="a_edge22_Node000021_Node000022"><a xlink:title=" ">
<path fill="none" stroke="#63b8ff" d="M162,-109.75C162,-102.8 162,-92.85 162,-84.13"/>
<polygon fill="#63b8ff" stroke="#63b8ff" points="165.5,-84.09 162,-74.09 158.5,-84.09 165.5,-84.09"/>
</a>
</g>
</g>
<!-- Node23 -->
<g id="Node000023" class="node">
<title>Node23</title>
<g id="a_Node000023"><a xlink:title=" ">
<polygon fill="#e0e0e0" stroke="#999999" points="187.5,-19 136.5,-19 136.5,0 187.5,0 187.5,-19"/>
<text text-anchor="middle" x="162" y="-7" font-family="Helvetica,sans-Serif" font-size="10.00">math.h</text>
</a>
</g>
</g>
<!-- Node22&#45;&gt;Node23 -->
<g id="edge23_Node000022_Node000023" class="edge">
<title>Node22&#45;&gt;Node23</title>
<g id="a_edge23_Node000022_Node000023"><a xlink:title=" ">
<path fill="none" stroke="#63b8ff" d="M162,-54.75C162,-47.8 162,-37.85 162,-29.13"/>
<polygon fill="#63b8ff" stroke="#63b8ff" points="165.5,-29.09 162,-19.09 158.5,-29.09 165.5,-29.09"/>
</a>
</g>
</g>
<!-- Node25&#45;&gt;Node21 -->
<g id="edge31_Node000025_Node000021" class="edge">
<title>Node25&#45;&gt;Node21</title>
<g id="a_edge31_Node000025_Node000021"><a xlink:title=" ">
<path fill="none" stroke="#63b8ff" d="M82.15,-164.99C98.89,-155.66 120.77,-143.47 137.39,-134.21"/>
<polygon fill="#63b8ff" stroke="#63b8ff" points="139.46,-137.06 146.49,-129.14 136.05,-130.95 139.46,-137.06"/>
</a>
</g>
</g>
<!-- Node25&#45;&gt;Node22 -->
<g id="edge32_Node000025_Node000022" class="edge">
<title>Node25&#45;&gt;Node22</title>
<g id="a_edge32_Node000025_Node000022"><a xlink:title=" ">
<path fill="none" stroke="#63b8ff" d="M61.09,-164.95C66,-149.96 75.45,-126.2 90,-110 101.84,-96.82 118.5,-86.18 132.81,-78.61"/>
<polygon fill="#63b8ff" stroke="#63b8ff" points="134.44,-81.71 141.81,-74.09 131.3,-75.46 134.44,-81.71"/>
</a>
</g>
</g>
</g>
</svg>
