<?xml version="1.0" encoding="UTF-8" standalone="no"?>
<!DOCTYPE svg PUBLIC "-//W3C//DTD SVG 1.1//EN"
 "http://www.w3.org/Graphics/SVG/1.1/DTD/svg11.dtd">
<!-- Generated by graphviz version 2.43.0 (0)
 -->
<!-- Title: src/Objects/Plugins/CorePlugin/Interfaces/SceneWriter/SceneWriter.cpp Pages: 1 -->
<svg width="1354pt" height="643pt"
 viewBox="0.00 0.00 1353.50 643.00" xmlns="http://www.w3.org/2000/svg" xmlns:xlink="http://www.w3.org/1999/xlink">
<g id="graph0" class="graph" transform="scale(1 1) rotate(0) translate(4 639)">
<title>src/Objects/Plugins/CorePlugin/Interfaces/SceneWriter/SceneWriter.cpp</title>
<!-- Node1 -->
<g id="Node000001" class="node">
<title>Node1</title>
<g id="a_Node000001"><a xlink:title=" ">
<polygon fill="#999999" stroke="#666666" points="1105.5,-635 944.5,-635 944.5,-594 1105.5,-594 1105.5,-635"/>
<text text-anchor="start" x="952.5" y="-623" font-family="Helvetica,sans-Serif" font-size="10.00">src/Objects/Plugins</text>
<text text-anchor="start" x="952.5" y="-612" font-family="Helvetica,sans-Serif" font-size="10.00">/CorePlugin/Interfaces</text>
<text text-anchor="middle" x="1025" y="-601" font-family="Helvetica,sans-Serif" font-size="10.00">/SceneWriter/SceneWriter.cpp</text>
</a>
</g>
</g>
<!-- Node2 -->
<g id="Node000002" class="node">
<title>Node2</title>
<g id="a_Node000002"><a xlink:href="SceneWriter_8hpp.html" target="_top" xlink:title=" ">
<polygon fill="white" stroke="#666666" points="642,-492 546,-492 546,-473 642,-473 642,-492"/>
<text text-anchor="middle" x="594" y="-480" font-family="Helvetica,sans-Serif" font-size="10.00">SceneWriter.hpp</text>
</a>
</g>
</g>
<!-- Node1&#45;&gt;Node2 -->
<g id="edge1_Node000001_Node000002" class="edge">
<title>Node1&#45;&gt;Node2</title>
<g id="a_edge1_Node000001_Node000002"><a xlink:title=" ">
<path fill="none" stroke="#63b8ff" d="M944.23,-606.52C881.77,-599.29 793.93,-585.08 721,-558 680.41,-542.93 637.94,-515.19 613.85,-498.14"/>
<polygon fill="#63b8ff" stroke="#63b8ff" points="615.72,-495.18 605.55,-492.18 611.63,-500.86 615.72,-495.18"/>
</a>
</g>
</g>
<!-- Node16 -->
<g id="Node000016" class="node">
<title>Node16</title>
<g id="a_Node000016"><a xlink:href="Color_8hpp.html" target="_top" xlink:title=" ">
<polygon fill="white" stroke="#666666" points="803.5,-189.5 688.5,-189.5 688.5,-170.5 803.5,-170.5 803.5,-189.5"/>
<text text-anchor="middle" x="746" y="-177.5" font-family="Helvetica,sans-Serif" font-size="10.00">../../../Utils/Color.hpp</text>
</a>
</g>
</g>
<!-- Node1&#45;&gt;Node16 -->
<g id="edge66_Node000001_Node000016" class="edge">
<title>Node1&#45;&gt;Node16</title>
<g id="a_edge66_Node000001_Node000016"><a xlink:title=" ">
<path fill="none" stroke="#63b8ff" d="M1105.57,-602.93C1174.27,-588.87 1262,-556.59 1262,-483.5 1262,-483.5 1262,-483.5 1262,-300 1262,-268.19 1267.47,-251.32 1243,-231 1169.22,-169.75 907.89,-208.83 813,-195 806.36,-194.03 799.4,-192.81 792.57,-191.5"/>
<polygon fill="#63b8ff" stroke="#63b8ff" points="793.21,-188.05 782.72,-189.52 791.83,-194.92 793.21,-188.05"/>
</a>
</g>
</g>
<!-- Node31 -->
<g id="Node000031" class="node">
<title>Node31</title>
<g id="a_Node000031"><a xlink:href="Scene_8hpp.html" target="_top" xlink:title="Scene container and ray query interface used by renderers.">
<polygon fill="white" stroke="#666666" points="858,-558 730,-558 730,-528 858,-528 858,-558"/>
<text text-anchor="start" x="738" y="-546" font-family="Helvetica,sans-Serif" font-size="10.00">../../../../../SceneSystem</text>
<text text-anchor="middle" x="794" y="-535" font-family="Helvetica,sans-Serif" font-size="10.00">/Scene/Scene.hpp</text>
</a>
</g>
</g>
<!-- Node1&#45;&gt;Node31 -->
<g id="edge45_Node000001_Node000031" class="edge">
<title>Node1&#45;&gt;Node31</title>
<g id="a_edge45_Node000001_Node000031"><a xlink:title=" ">
<path fill="none" stroke="#63b8ff" d="M960.04,-593.96C925.57,-583.59 883.63,-570.97 850.52,-561"/>
<polygon fill="#63b8ff" stroke="#63b8ff" points="851.13,-557.53 840.55,-558 849.11,-564.24 851.13,-557.53"/>
</a>
</g>
</g>
<!-- Node36 -->
<g id="Node000036" class="node">
<title>Node36</title>
<g id="a_Node000036"><a xlink:title=" ">
<polygon fill="#e0e0e0" stroke="#999999" points="1345.5,-552.5 1290.5,-552.5 1290.5,-533.5 1345.5,-533.5 1345.5,-552.5"/>
<text text-anchor="middle" x="1318" y="-540.5" font-family="Helvetica,sans-Serif" font-size="10.00">fstream</text>
</a>
</g>
</g>
<!-- Node1&#45;&gt;Node36 -->
<g id="edge67_Node000001_Node000036" class="edge">
<title>Node1&#45;&gt;Node36</title>
<g id="a_edge67_Node000001_Node000036"><a xlink:title=" ">
<path fill="none" stroke="#63b8ff" d="M1105.5,-597.92C1155,-587.8 1219.54,-573.61 1276,-558 1278.62,-557.28 1281.31,-556.49 1284.02,-555.66"/>
<polygon fill="#63b8ff" stroke="#63b8ff" points="1285.24,-558.95 1293.7,-552.58 1283.11,-552.28 1285.24,-558.95"/>
</a>
</g>
</g>
<!-- Node3 -->
<g id="Node000003" class="node">
<title>Node3</title>
<g id="a_Node000003"><a xlink:href="Plugin_8hpp.html" target="_top" xlink:title=" ">
<polygon fill="white" stroke="#666666" points="639,-437 535,-437 535,-418 639,-418 639,-437"/>
<text text-anchor="middle" x="587" y="-425" font-family="Helvetica,sans-Serif" font-size="10.00">../../../../Plugin.hpp</text>
</a>
</g>
</g>
<!-- Node2&#45;&gt;Node3 -->
<g id="edge2_Node000002_Node000003" class="edge">
<title>Node2&#45;&gt;Node3</title>
<g id="a_edge2_Node000002_Node000003"><a xlink:title=" ">
<path fill="none" stroke="#63b8ff" d="M592.84,-472.75C591.93,-465.8 590.61,-455.85 589.46,-447.13"/>
<polygon fill="#63b8ff" stroke="#63b8ff" points="592.91,-446.54 588.13,-437.09 585.97,-447.46 592.91,-446.54"/>
</a>
</g>
</g>
<!-- Node4 -->
<g id="Node000004" class="node">
<title>Node4</title>
<g id="a_Node000004"><a xlink:title=" ">
<polygon fill="#e0e0e0" stroke="#999999" points="765.5,-376.5 700.5,-376.5 700.5,-357.5 765.5,-357.5 765.5,-376.5"/>
<text text-anchor="middle" x="733" y="-364.5" font-family="Helvetica,sans-Serif" font-size="10.00">functional</text>
</a>
</g>
</g>
<!-- Node3&#45;&gt;Node4 -->
<g id="edge3_Node000003_Node000004" class="edge">
<title>Node3&#45;&gt;Node4</title>
<g id="a_edge3_Node000003_Node000004"><a xlink:title=" ">
<path fill="none" stroke="#63b8ff" d="M608.23,-417.99C632.99,-408.07 674.12,-391.59 702.35,-380.28"/>
<polygon fill="#63b8ff" stroke="#63b8ff" points="703.76,-383.49 711.74,-376.52 701.16,-376.99 703.76,-383.49"/>
</a>
</g>
</g>
<!-- Node5 -->
<g id="Node000005" class="node">
<title>Node5</title>
<g id="a_Node000005"><a xlink:title=" ">
<polygon fill="#e0e0e0" stroke="#999999" points="880,-189.5 822,-189.5 822,-170.5 880,-170.5 880,-189.5"/>
<text text-anchor="middle" x="851" y="-177.5" font-family="Helvetica,sans-Serif" font-size="10.00">memory</text>
</a>
</g>
</g>
<!-- Node3&#45;&gt;Node5 -->
<g id="edge4_Node000003_Node000005" class="edge">
<title>Node3&#45;&gt;Node5</title>
<g id="a_edge4_Node000003_Node000005"><a xlink:title=" ">
<path fill="none" stroke="#63b8ff" d="M596.24,-417.72C605.59,-408.8 620.41,-394.55 633,-382 699.33,-315.88 708.74,-291.78 780,-231 795.43,-217.84 814.25,-204.7 828.64,-195.2"/>
<polygon fill="#63b8ff" stroke="#63b8ff" points="830.9,-197.9 837.37,-189.51 827.08,-192.04 830.9,-197.9"/>
</a>
</g>
</g>
<!-- Node6 -->
<g id="Node000006" class="node">
<title>Node6</title>
<g id="a_Node000006"><a xlink:title=" ">
<polygon fill="#e0e0e0" stroke="#999999" points="549.5,-376.5 498.5,-376.5 498.5,-357.5 549.5,-357.5 549.5,-376.5"/>
<text text-anchor="middle" x="524" y="-364.5" font-family="Helvetica,sans-Serif" font-size="10.00">variant</text>
</a>
</g>
</g>
<!-- Node3&#45;&gt;Node6 -->
<g id="edge5_Node000003_Node000006" class="edge">
<title>Node3&#45;&gt;Node6</title>
<g id="a_edge5_Node000003_Node000006"><a xlink:title=" ">
<path fill="none" stroke="#63b8ff" d="M577.7,-417.87C568.03,-408.88 552.66,-394.61 540.84,-383.64"/>
<polygon fill="#63b8ff" stroke="#63b8ff" points="543.04,-380.91 533.33,-376.67 538.28,-386.04 543.04,-380.91"/>
</a>
</g>
</g>
<!-- Node7 -->
<g id="Node000007" class="node">
<title>Node7</title>
<g id="a_Node000007"><a xlink:title=" ">
<polygon fill="#e0e0e0" stroke="#999999" points="606,-376.5 568,-376.5 568,-357.5 606,-357.5 606,-376.5"/>
<text text-anchor="middle" x="587" y="-364.5" font-family="Helvetica,sans-Serif" font-size="10.00">map</text>
</a>
</g>
</g>
<!-- Node3&#45;&gt;Node7 -->
<g id="edge6_Node000003_Node000007" class="edge">
<title>Node3&#45;&gt;Node7</title>
<g id="a_edge6_Node000003_Node000007"><a xlink:title=" ">
<path fill="none" stroke="#63b8ff" d="M587,-417.87C587,-409.75 587,-397.31 587,-386.89"/>
<polygon fill="#63b8ff" stroke="#63b8ff" points="590.5,-386.67 587,-376.67 583.5,-386.67 590.5,-386.67"/>
</a>
</g>
</g>
<!-- Node8 -->
<g id="Node000008" class="node">
<title>Node8</title>
<g id="a_Node000008"><a xlink:href="ParsingException_8hpp.html" target="_top" xlink:title=" ">
<polygon fill="white" stroke="#666666" points="269.5,-382 104.5,-382 104.5,-352 269.5,-352 269.5,-382"/>
<text text-anchor="start" x="112.5" y="-370" font-family="Helvetica,sans-Serif" font-size="10.00">../Exceptions/ParsingException</text>
<text text-anchor="middle" x="187" y="-359" font-family="Helvetica,sans-Serif" font-size="10.00">/ParsingException.hpp</text>
</a>
</g>
</g>
<!-- Node3&#45;&gt;Node8 -->
<g id="edge7_Node000003_Node000008" class="edge">
<title>Node3&#45;&gt;Node8</title>
<g id="a_edge7_Node000003_Node000008"><a xlink:title=" ">
<path fill="none" stroke="#63b8ff" d="M534.71,-418.85C470.03,-409.39 358.77,-393.12 279.54,-381.53"/>
<polygon fill="#63b8ff" stroke="#63b8ff" points="279.95,-378.06 269.55,-380.07 278.94,-384.98 279.95,-378.06"/>
</a>
</g>
</g>
<!-- Node14 -->
<g id="Node000014" class="node">
<title>Node14</title>
<g id="a_Node000014"><a xlink:href="AInterface_8hpp.html" target="_top" xlink:title=" ">
<polygon fill="white" stroke="#666666" points="442,-382 326,-382 326,-352 442,-352 442,-382"/>
<text text-anchor="start" x="334" y="-370" font-family="Helvetica,sans-Serif" font-size="10.00">Abstracts/AInterface</text>
<text text-anchor="middle" x="384" y="-359" font-family="Helvetica,sans-Serif" font-size="10.00">/AInterface.hpp</text>
</a>
</g>
</g>
<!-- Node3&#45;&gt;Node14 -->
<g id="edge13_Node000003_Node000014" class="edge">
<title>Node3&#45;&gt;Node14</title>
<g id="a_edge13_Node000003_Node000014"><a xlink:title=" ">
<path fill="none" stroke="#63b8ff" d="M557.48,-417.99C527.5,-409.35 480.26,-395.74 442.64,-384.9"/>
<polygon fill="#63b8ff" stroke="#63b8ff" points="443.38,-381.47 432.8,-382.06 441.44,-388.2 443.38,-381.47"/>
</a>
</g>
</g>
<!-- Node15 -->
<g id="Node000015" class="node">
<title>Node15</title>
<g id="a_Node000015"><a xlink:href="ARenderer_8hpp.html" target="_top" xlink:title=" ">
<polygon fill="white" stroke="#666666" points="439.5,-310.5 288.5,-310.5 288.5,-291.5 439.5,-291.5 439.5,-310.5"/>
<text text-anchor="middle" x="364" y="-298.5" font-family="Helvetica,sans-Serif" font-size="10.00">../ARenderer/ARenderer.hpp</text>
</a>
</g>
</g>
<!-- Node3&#45;&gt;Node15 -->
<g id="edge42_Node000003_Node000015" class="edge">
<title>Node3&#45;&gt;Node15</title>
<g id="a_edge42_Node000003_Node000015"><a xlink:title=" ">
<path fill="none" stroke="#63b8ff" d="M534.99,-425.61C464.54,-423.18 344.4,-414.28 317,-382 299.67,-361.58 324.67,-333.94 344.33,-317.08"/>
<polygon fill="#63b8ff" stroke="#63b8ff" points="346.77,-319.6 352.29,-310.56 342.34,-314.19 346.77,-319.6"/>
</a>
</g>
</g>
<!-- Node19 -->
<g id="Node000019" class="node">
<title>Node19</title>
<g id="a_Node000019"><a xlink:href="APrimitive_8hpp.html" target="_top" xlink:title=" ">
<polygon fill="white" stroke="#666666" points="1052,-382 936,-382 936,-352 1052,-352 1052,-382"/>
<text text-anchor="start" x="944" y="-370" font-family="Helvetica,sans-Serif" font-size="10.00">Abstracts/APrimitive</text>
<text text-anchor="middle" x="994" y="-359" font-family="Helvetica,sans-Serif" font-size="10.00">/APrimitive.hpp</text>
</a>
</g>
</g>
<!-- Node3&#45;&gt;Node19 -->
<g id="edge18_Node000003_Node000019" class="edge">
<title>Node3&#45;&gt;Node19</title>
<g id="a_edge18_Node000003_Node000019"><a xlink:title=" ">
<path fill="none" stroke="#63b8ff" d="M639.37,-418.97C712.47,-408.47 845.14,-389.4 925.85,-377.8"/>
<polygon fill="#63b8ff" stroke="#63b8ff" points="926.51,-381.24 935.91,-376.35 925.52,-374.31 926.51,-381.24"/>
</a>
</g>
</g>
<!-- Node20 -->
<g id="Node000020" class="node">
<title>Node20</title>
<g id="a_Node000020"><a xlink:href="IMaterial_8hpp.html" target="_top" xlink:title=" ">
<polygon fill="white" stroke="#666666" points="676,-310.5 586,-310.5 586,-291.5 676,-291.5 676,-310.5"/>
<text text-anchor="middle" x="631" y="-298.5" font-family="Helvetica,sans-Serif" font-size="10.00">../IMaterial.hpp</text>
</a>
</g>
</g>
<!-- Node3&#45;&gt;Node20 -->
<g id="edge44_Node000003_Node000020" class="edge">
<title>Node3&#45;&gt;Node20</title>
<g id="a_edge44_Node000003_Node000020"><a xlink:title=" ">
<path fill="none" stroke="#63b8ff" d="M593.82,-417.82C600.24,-409.21 609.66,-395.4 615,-382 623.02,-361.9 627.16,-337.31 629.2,-320.74"/>
<polygon fill="#63b8ff" stroke="#63b8ff" points="632.69,-321.02 630.3,-310.7 625.73,-320.26 632.69,-321.02"/>
</a>
</g>
</g>
<!-- Node21 -->
<g id="Node000021" class="node">
<title>Node21</title>
<g id="a_Node000021"><a xlink:href="ILight_8hpp.html" target="_top" xlink:title=" ">
<polygon fill="white" stroke="#666666" points="637.5,-250 572.5,-250 572.5,-231 637.5,-231 637.5,-250"/>
<text text-anchor="middle" x="605" y="-238" font-family="Helvetica,sans-Serif" font-size="10.00">ILight.hpp</text>
</a>
</g>
</g>
<!-- Node3&#45;&gt;Node21 -->
<g id="edge43_Node000003_Node000021" class="edge">
<title>Node3&#45;&gt;Node21</title>
<g id="a_edge43_Node000003_Node000021"><a xlink:title=" ">
<path fill="none" stroke="#63b8ff" d="M543.87,-417.93C523.88,-411.57 501.95,-400.64 490,-382 482.8,-370.78 484.77,-364.27 490,-352 508.52,-308.52 553.48,-273.89 581.38,-255.64"/>
<polygon fill="#63b8ff" stroke="#63b8ff" points="583.55,-258.41 590.12,-250.1 579.8,-252.5 583.55,-258.41"/>
</a>
</g>
</g>
<!-- Node9 -->
<g id="Node000009" class="node">
<title>Node9</title>
<g id="a_Node000009"><a xlink:href="RaytracerException_8hpp.html" target="_top" xlink:title=" ">
<polygon fill="white" stroke="#666666" points="259,-316 123,-316 123,-286 259,-286 259,-316"/>
<text text-anchor="start" x="131" y="-304" font-family="Helvetica,sans-Serif" font-size="10.00">../RaytracerException</text>
<text text-anchor="middle" x="191" y="-293" font-family="Helvetica,sans-Serif" font-size="10.00">/RaytracerException.hpp</text>
</a>
</g>
</g>
<!-- Node8&#45;&gt;Node9 -->
<g id="edge8_Node000008_Node000009" class="edge">
<title>Node8&#45;&gt;Node9</title>
<g id="a_edge8_Node000008_Node000009"><a xlink:title=" ">
<path fill="none" stroke="#63b8ff" d="M187.89,-351.8C188.35,-344.34 188.94,-334.99 189.47,-326.41"/>
<polygon fill="#63b8ff" stroke="#63b8ff" points="192.98,-326.36 190.11,-316.16 186,-325.93 192.98,-326.36"/>
</a>
</g>
</g>
<!-- Node10 -->
<g id="Node000010" class="node">
<title>Node10</title>
<g id="a_Node000010"><a xlink:title=" ">
<polygon fill="#e0e0e0" stroke="#999999" points="320.5,-250 255.5,-250 255.5,-231 320.5,-231 320.5,-250"/>
<text text-anchor="middle" x="288" y="-238" font-family="Helvetica,sans-Serif" font-size="10.00">exception</text>
</a>
</g>
</g>
<!-- Node9&#45;&gt;Node10 -->
<g id="edge9_Node000009_Node000010" class="edge">
<title>Node9&#45;&gt;Node10</title>
<g id="a_edge9_Node000009_Node000010"><a xlink:title=" ">
<path fill="none" stroke="#63b8ff" d="M214.48,-285.84C229.8,-276.6 249.71,-264.59 264.95,-255.4"/>
<polygon fill="#63b8ff" stroke="#63b8ff" points="266.99,-258.26 273.75,-250.09 263.38,-252.26 266.99,-258.26"/>
</a>
</g>
</g>
<!-- Node11 -->
<g id="Node000011" class="node">
<title>Node11</title>
<g id="a_Node000011"><a xlink:title=" ">
<polygon fill="#e0e0e0" stroke="#999999" points="126,-250 66,-250 66,-231 126,-231 126,-250"/>
<text text-anchor="middle" x="96" y="-238" font-family="Helvetica,sans-Serif" font-size="10.00">iostream</text>
</a>
</g>
</g>
<!-- Node9&#45;&gt;Node11 -->
<g id="edge10_Node000009_Node000011" class="edge">
<title>Node9&#45;&gt;Node11</title>
<g id="a_edge10_Node000009_Node000011"><a xlink:title=" ">
<path fill="none" stroke="#63b8ff" d="M168,-285.84C153,-276.6 133.5,-264.59 118.57,-255.4"/>
<polygon fill="#63b8ff" stroke="#63b8ff" points="120.31,-252.36 109.96,-250.09 116.64,-258.32 120.31,-252.36"/>
</a>
</g>
</g>
<!-- Node12 -->
<g id="Node000012" class="node">
<title>Node12</title>
<g id="a_Node000012"><a xlink:title=" ">
<polygon fill="#e0e0e0" stroke="#999999" points="383,-250 339,-250 339,-231 383,-231 383,-250"/>
<text text-anchor="middle" x="361" y="-238" font-family="Helvetica,sans-Serif" font-size="10.00">string</text>
</a>
</g>
</g>
<!-- Node9&#45;&gt;Node12 -->
<g id="edge11_Node000009_Node000012" class="edge">
<title>Node9&#45;&gt;Node12</title>
<g id="a_edge11_Node000009_Node000012"><a xlink:title=" ">
<path fill="none" stroke="#63b8ff" d="M231.72,-285.99C261.64,-275.69 301.71,-261.9 329.27,-252.42"/>
<polygon fill="#63b8ff" stroke="#63b8ff" points="330.5,-255.7 338.82,-249.13 328.22,-249.08 330.5,-255.7"/>
</a>
</g>
</g>
<!-- Node13 -->
<g id="Node000013" class="node">
<title>Node13</title>
<g id="a_Node000013"><a xlink:title=" ">
<polygon fill="#e0e0e0" stroke="#999999" points="237.5,-250 144.5,-250 144.5,-231 237.5,-231 237.5,-250"/>
<text text-anchor="middle" x="191" y="-238" font-family="Helvetica,sans-Serif" font-size="10.00">source_location</text>
</a>
</g>
</g>
<!-- Node9&#45;&gt;Node13 -->
<g id="edge12_Node000009_Node000013" class="edge">
<title>Node9&#45;&gt;Node13</title>
<g id="a_edge12_Node000009_Node000013"><a xlink:title=" ">
<path fill="none" stroke="#63b8ff" d="M191,-285.84C191,-278.21 191,-268.7 191,-260.45"/>
<polygon fill="#63b8ff" stroke="#63b8ff" points="194.5,-260.27 191,-250.27 187.5,-260.27 194.5,-260.27"/>
</a>
</g>
</g>
<!-- Node14&#45;&gt;Node15 -->
<g id="edge14_Node000014_Node000015" class="edge">
<title>Node14&#45;&gt;Node15</title>
<g id="a_edge14_Node000014_Node000015"><a xlink:title=" ">
<path fill="none" stroke="#63b8ff" d="M379.56,-351.8C376.69,-342.6 372.92,-330.53 369.81,-320.58"/>
<polygon fill="#63b8ff" stroke="#63b8ff" points="373.09,-319.35 366.76,-310.84 366.41,-321.43 373.09,-319.35"/>
</a>
</g>
</g>
<!-- Node15&#45;&gt;Node16 -->
<g id="edge15_Node000015_Node000016" class="edge">
<title>Node15&#45;&gt;Node16</title>
<g id="a_edge15_Node000015_Node000016"><a xlink:title=" ">
<path fill="none" stroke="#63b8ff" d="M387.24,-291.44C424.36,-277.89 499.44,-250.98 564,-231 610.92,-216.48 665.3,-201.82 702.31,-192.16"/>
<polygon fill="#63b8ff" stroke="#63b8ff" points="703.47,-195.48 712.27,-189.57 701.71,-188.7 703.47,-195.48"/>
</a>
</g>
</g>
<!-- Node18 -->
<g id="Node000018" class="node">
<title>Node18</title>
<g id="a_Node000018"><a xlink:title=" ">
<polygon fill="#e0e0e0" stroke="#999999" points="467.5,-189.5 420.5,-189.5 420.5,-170.5 467.5,-170.5 467.5,-189.5"/>
<text text-anchor="middle" x="444" y="-177.5" font-family="Helvetica,sans-Serif" font-size="10.00">vector</text>
</a>
</g>
</g>
<!-- Node15&#45;&gt;Node18 -->
<g id="edge17_Node000015_Node000018" class="edge">
<title>Node15&#45;&gt;Node18</title>
<g id="a_edge17_Node000015_Node000018"><a xlink:title=" ">
<path fill="none" stroke="#63b8ff" d="M369.75,-291.44C382.84,-271.98 415.02,-224.1 432.41,-198.24"/>
<polygon fill="#63b8ff" stroke="#63b8ff" points="435.41,-200.05 438.08,-189.8 429.6,-196.15 435.41,-200.05"/>
</a>
</g>
</g>
<!-- Node17 -->
<g id="Node000017" class="node">
<title>Node17</title>
<g id="a_Node000017"><a xlink:title=" ">
<polygon fill="#e0e0e0" stroke="#999999" points="1194,-129 1130,-129 1130,-110 1194,-110 1194,-129"/>
<text text-anchor="middle" x="1162" y="-117" font-family="Helvetica,sans-Serif" font-size="10.00">algorithm</text>
</a>
</g>
</g>
<!-- Node16&#45;&gt;Node17 -->
<g id="edge16_Node000016_Node000017" class="edge">
<title>Node16&#45;&gt;Node17</title>
<g id="a_edge16_Node000016_Node000017"><a xlink:title=" ">
<path fill="none" stroke="#63b8ff" d="M784.17,-170.48C793.57,-168.53 803.62,-166.57 813,-165 923.07,-146.51 1053.81,-131.75 1119.64,-124.81"/>
<polygon fill="#63b8ff" stroke="#63b8ff" points="1120.06,-128.28 1129.64,-123.76 1119.33,-121.32 1120.06,-128.28"/>
</a>
</g>
</g>
<!-- Node19&#45;&gt;Node5 -->
<g id="edge31_Node000019_Node000005" class="edge">
<title>Node19&#45;&gt;Node5</title>
<g id="a_edge31_Node000019_Node000005"><a xlink:title=" ">
<path fill="none" stroke="#63b8ff" d="M982.51,-351.84C964.94,-330.1 930.44,-287.14 902,-250 888.48,-232.34 873.38,-211.81 863.15,-197.77"/>
<polygon fill="#63b8ff" stroke="#63b8ff" points="865.9,-195.6 857.19,-189.57 860.24,-199.71 865.9,-195.6"/>
</a>
</g>
</g>
<!-- Node19&#45;&gt;Node20 -->
<g id="edge19_Node000019_Node000020" class="edge">
<title>Node19&#45;&gt;Node20</title>
<g id="a_edge19_Node000019_Node000020"><a xlink:title=" ">
<path fill="none" stroke="#63b8ff" d="M935.68,-355.72C866.96,-343.6 753.63,-323.62 686.26,-311.74"/>
<polygon fill="#63b8ff" stroke="#63b8ff" points="686.72,-308.27 676.26,-309.98 685.5,-315.16 686.72,-308.27"/>
</a>
</g>
</g>
<!-- Node26 -->
<g id="Node000026" class="node">
<title>Node26</title>
<g id="a_Node000026"><a xlink:title=" ">
<polygon fill="#e0e0e0" stroke="#999999" points="883,-310.5 827,-310.5 827,-291.5 883,-291.5 883,-310.5"/>
<text text-anchor="middle" x="855" y="-298.5" font-family="Helvetica,sans-Serif" font-size="10.00">optional</text>
</a>
</g>
</g>
<!-- Node19&#45;&gt;Node26 -->
<g id="edge32_Node000019_Node000026" class="edge">
<title>Node19&#45;&gt;Node26</title>
<g id="a_edge32_Node000019_Node000026"><a xlink:title=" ">
<path fill="none" stroke="#63b8ff" d="M963.5,-351.95C939.44,-340.88 906.17,-325.56 882.84,-314.82"/>
<polygon fill="#63b8ff" stroke="#63b8ff" points="884.05,-311.52 873.5,-310.52 881.12,-317.88 884.05,-311.52"/>
</a>
</g>
</g>
<!-- Node27 -->
<g id="Node000027" class="node">
<title>Node27</title>
<g id="a_Node000027"><a xlink:href="AABB_8hpp.html" target="_top" xlink:title=" ">
<polygon fill="white" stroke="#666666" points="1179,-316 1057,-316 1057,-286 1179,-286 1179,-316"/>
<text text-anchor="start" x="1065" y="-304" font-family="Helvetica,sans-Serif" font-size="10.00">../../../Geometry/AABB</text>
<text text-anchor="middle" x="1118" y="-293" font-family="Helvetica,sans-Serif" font-size="10.00">/AABB.hpp</text>
</a>
</g>
</g>
<!-- Node19&#45;&gt;Node27 -->
<g id="edge33_Node000019_Node000027" class="edge">
<title>Node19&#45;&gt;Node27</title>
<g id="a_edge33_Node000019_Node000027"><a xlink:title=" ">
<path fill="none" stroke="#63b8ff" d="M1021.21,-351.95C1038.98,-342.78 1062.38,-330.71 1081.72,-320.72"/>
<polygon fill="#63b8ff" stroke="#63b8ff" points="1083.57,-323.71 1090.85,-316.01 1080.36,-317.49 1083.57,-323.71"/>
</a>
</g>
</g>
<!-- Node30 -->
<g id="Node000030" class="node">
<title>Node30</title>
<g id="a_Node000030"><a xlink:href="Ray_8hpp.html" target="_top" xlink:title="Ray primitive used to represent a parametric line (origin + direction).">
<polygon fill="white" stroke="#666666" points="1030,-250 944,-250 944,-231 1030,-231 1030,-250"/>
<text text-anchor="middle" x="987" y="-238" font-family="Helvetica,sans-Serif" font-size="10.00">../Ray/Ray.hpp</text>
</a>
</g>
</g>
<!-- Node19&#45;&gt;Node30 -->
<g id="edge41_Node000019_Node000030" class="edge">
<title>Node19&#45;&gt;Node30</title>
<g id="a_edge41_Node000019_Node000030"><a xlink:title=" ">
<path fill="none" stroke="#63b8ff" d="M993.2,-351.72C991.93,-329.12 989.45,-285.12 988.05,-260.09"/>
<polygon fill="#63b8ff" stroke="#63b8ff" points="991.54,-259.86 987.48,-250.07 984.55,-260.25 991.54,-259.86"/>
</a>
</g>
</g>
<!-- Node20&#45;&gt;Node16 -->
<g id="edge20_Node000020_Node000016" class="edge">
<title>Node20&#45;&gt;Node16</title>
<g id="a_edge20_Node000020_Node000016"><a xlink:title=" ">
<path fill="none" stroke="#63b8ff" d="M637.91,-291.18C648.58,-277.73 669.93,-251.5 690,-231 701.91,-218.83 716.26,-206.05 727.45,-196.46"/>
<polygon fill="#63b8ff" stroke="#63b8ff" points="729.93,-198.95 735.29,-189.81 725.4,-193.61 729.93,-198.95"/>
</a>
</g>
</g>
<!-- Node20&#45;&gt;Node18 -->
<g id="edge30_Node000020_Node000018" class="edge">
<title>Node20&#45;&gt;Node18</title>
<g id="a_edge30_Node000020_Node000018"><a xlink:title=" ">
<path fill="none" stroke="#63b8ff" d="M617.55,-291.44C585.69,-271.16 505.33,-220.03 466.16,-195.1"/>
<polygon fill="#63b8ff" stroke="#63b8ff" points="467.89,-192.06 457.58,-189.64 464.14,-197.96 467.89,-192.06"/>
</a>
</g>
</g>
<!-- Node20&#45;&gt;Node21 -->
<g id="edge21_Node000020_Node000021" class="edge">
<title>Node20&#45;&gt;Node21</title>
<g id="a_edge21_Node000020_Node000021"><a xlink:title=" ">
<path fill="none" stroke="#63b8ff" d="M627.16,-291.37C623.44,-282.99 617.67,-270.01 612.95,-259.39"/>
<polygon fill="#63b8ff" stroke="#63b8ff" points="616.11,-257.88 608.85,-250.17 609.72,-260.73 616.11,-257.88"/>
</a>
</g>
</g>
<!-- Node21&#45;&gt;Node5 -->
<g id="edge29_Node000021_Node000005" class="edge">
<title>Node21&#45;&gt;Node5</title>
<g id="a_edge29_Node000021_Node000005"><a xlink:title=" ">
<path fill="none" stroke="#63b8ff" d="M637.78,-233.98C679.07,-226.68 751.99,-212.67 813,-195 815.28,-194.34 817.62,-193.61 819.96,-192.84"/>
<polygon fill="#63b8ff" stroke="#63b8ff" points="821.18,-196.12 829.47,-189.53 818.88,-189.51 821.18,-196.12"/>
</a>
</g>
</g>
<!-- Node21&#45;&gt;Node16 -->
<g id="edge27_Node000021_Node000016" class="edge">
<title>Node21&#45;&gt;Node16</title>
<g id="a_edge27_Node000021_Node000016"><a xlink:title=" ">
<path fill="none" stroke="#63b8ff" d="M625.5,-230.99C649.31,-221.12 688.79,-204.73 716.04,-193.43"/>
<polygon fill="#63b8ff" stroke="#63b8ff" points="717.58,-196.58 725.47,-189.52 714.89,-190.12 717.58,-196.58"/>
</a>
</g>
</g>
<!-- Node21&#45;&gt;Node18 -->
<g id="edge28_Node000021_Node000018" class="edge">
<title>Node21&#45;&gt;Node18</title>
<g id="a_edge28_Node000021_Node000018"><a xlink:title=" ">
<path fill="none" stroke="#63b8ff" d="M581.59,-230.99C554.05,-220.99 508.13,-204.3 476.99,-192.99"/>
<polygon fill="#63b8ff" stroke="#63b8ff" points="478.03,-189.64 467.44,-189.52 475.64,-196.22 478.03,-189.64"/>
</a>
</g>
</g>
<!-- Node22 -->
<g id="Node000022" class="node">
<title>Node22</title>
<g id="a_Node000022"><a xlink:href="HitRecord_8hpp.html" target="_top" xlink:title=" ">
<polygon fill="white" stroke="#666666" points="670,-195 536,-195 536,-165 670,-165 670,-195"/>
<text text-anchor="start" x="544" y="-183" font-family="Helvetica,sans-Serif" font-size="10.00">../../Geometry/HitRecord</text>
<text text-anchor="middle" x="603" y="-172" font-family="Helvetica,sans-Serif" font-size="10.00">/HitRecord.hpp</text>
</a>
</g>
</g>
<!-- Node21&#45;&gt;Node22 -->
<g id="edge22_Node000021_Node000022" class="edge">
<title>Node21&#45;&gt;Node22</title>
<g id="a_edge22_Node000021_Node000022"><a xlink:title=" ">
<path fill="none" stroke="#63b8ff" d="M604.7,-230.87C604.47,-224.11 604.14,-214.35 603.83,-205.26"/>
<polygon fill="#63b8ff" stroke="#63b8ff" points="607.32,-204.99 603.48,-195.11 600.33,-205.23 607.32,-204.99"/>
</a>
</g>
</g>
<!-- Node23 -->
<g id="Node000023" class="node">
<title>Node23</title>
<g id="a_Node000023"><a xlink:href="Point3D_8hpp.html" target="_top" xlink:title=" ">
<polygon fill="white" stroke="#666666" points="1062,-129 936,-129 936,-110 1062,-110 1062,-129"/>
<text text-anchor="middle" x="999" y="-117" font-family="Helvetica,sans-Serif" font-size="10.00">../Point3D/Point3D.hpp</text>
</a>
</g>
</g>
<!-- Node22&#45;&gt;Node23 -->
<g id="edge23_Node000022_Node000023" class="edge">
<title>Node22&#45;&gt;Node23</title>
<g id="a_edge23_Node000022_Node000023"><a xlink:title=" ">
<path fill="none" stroke="#63b8ff" d="M670.16,-166.62C673.49,-166.06 676.78,-165.52 680,-165 764.11,-151.49 861.09,-138.3 925.83,-129.83"/>
<polygon fill="#63b8ff" stroke="#63b8ff" points="926.47,-133.28 935.94,-128.52 925.57,-126.34 926.47,-133.28"/>
</a>
</g>
</g>
<!-- Node24 -->
<g id="Node000024" class="node">
<title>Node24</title>
<g id="a_Node000024"><a xlink:href="Vector3D_8hpp.html" target="_top" xlink:title=" ">
<polygon fill="white" stroke="#666666" points="977,-74 839,-74 839,-55 977,-55 977,-74"/>
<text text-anchor="middle" x="908" y="-62" font-family="Helvetica,sans-Serif" font-size="10.00">../Vector3D/Vector3D.hpp</text>
</a>
</g>
</g>
<!-- Node22&#45;&gt;Node24 -->
<g id="edge26_Node000022_Node000024" class="edge">
<title>Node22&#45;&gt;Node24</title>
<g id="a_edge26_Node000022_Node000024"><a xlink:title=" ">
<path fill="none" stroke="#63b8ff" d="M640.7,-164.97C701,-142.53 818.11,-98.95 875.17,-77.72"/>
<polygon fill="#63b8ff" stroke="#63b8ff" points="876.62,-80.91 884.77,-74.14 874.18,-74.35 876.62,-80.91"/>
</a>
</g>
</g>
<!-- Node23&#45;&gt;Node24 -->
<g id="edge24_Node000023_Node000024" class="edge">
<title>Node23&#45;&gt;Node24</title>
<g id="a_edge24_Node000023_Node000024"><a xlink:title=" ">
<path fill="none" stroke="#63b8ff" d="M984.38,-109.98C970.14,-101.69 948.25,-88.94 931.55,-79.22"/>
<polygon fill="#63b8ff" stroke="#63b8ff" points="933.29,-76.18 922.89,-74.17 929.77,-82.23 933.29,-76.18"/>
</a>
</g>
</g>
<!-- Node25 -->
<g id="Node000025" class="node">
<title>Node25</title>
<g id="a_Node000025"><a xlink:title=" ">
<polygon fill="#e0e0e0" stroke="#999999" points="933.5,-19 882.5,-19 882.5,0 933.5,0 933.5,-19"/>
<text text-anchor="middle" x="908" y="-7" font-family="Helvetica,sans-Serif" font-size="10.00">math.h</text>
</a>
</g>
</g>
<!-- Node24&#45;&gt;Node25 -->
<g id="edge25_Node000024_Node000025" class="edge">
<title>Node24&#45;&gt;Node25</title>
<g id="a_edge25_Node000024_Node000025"><a xlink:title=" ">
<path fill="none" stroke="#63b8ff" d="M908,-54.75C908,-47.8 908,-37.85 908,-29.13"/>
<polygon fill="#63b8ff" stroke="#63b8ff" points="911.5,-29.09 908,-19.09 904.5,-29.09 911.5,-29.09"/>
</a>
</g>
</g>
<!-- Node27&#45;&gt;Node17 -->
<g id="edge34_Node000027_Node000017" class="edge">
<title>Node27&#45;&gt;Node17</title>
<g id="a_edge34_Node000027_Node000017"><a xlink:title=" ">
<path fill="none" stroke="#63b8ff" d="M1126.72,-285.64C1132.23,-275.92 1139.04,-262.59 1143,-250 1155,-211.84 1159.48,-164.93 1161.11,-139.34"/>
<polygon fill="#63b8ff" stroke="#63b8ff" points="1164.61,-139.37 1161.67,-129.2 1157.62,-138.99 1164.61,-139.37"/>
</a>
</g>
</g>
<!-- Node27&#45;&gt;Node23 -->
<g id="edge37_Node000027_Node000023" class="edge">
<title>Node27&#45;&gt;Node23</title>
<g id="a_edge37_Node000027_Node000023"><a xlink:title=" ">
<path fill="none" stroke="#63b8ff" d="M1105.95,-285.93C1097.74,-276.11 1086.8,-262.56 1078,-250 1050.91,-211.35 1023.04,-163.35 1008.75,-138.03"/>
<polygon fill="#63b8ff" stroke="#63b8ff" points="1011.75,-136.24 1003.81,-129.22 1005.65,-139.66 1011.75,-136.24"/>
</a>
</g>
</g>
<!-- Node28 -->
<g id="Node000028" class="node">
<title>Node28</title>
<g id="a_Node000028"><a xlink:title=" ">
<polygon fill="#e0e0e0" stroke="#999999" points="1133.5,-250 1086.5,-250 1086.5,-231 1133.5,-231 1133.5,-250"/>
<text text-anchor="middle" x="1110" y="-238" font-family="Helvetica,sans-Serif" font-size="10.00">cmath</text>
</a>
</g>
</g>
<!-- Node27&#45;&gt;Node28 -->
<g id="edge35_Node000027_Node000028" class="edge">
<title>Node27&#45;&gt;Node28</title>
<g id="a_edge35_Node000027_Node000028"><a xlink:title=" ">
<path fill="none" stroke="#63b8ff" d="M1116.06,-285.84C1115.02,-278.21 1113.72,-268.7 1112.59,-260.45"/>
<polygon fill="#63b8ff" stroke="#63b8ff" points="1116.02,-259.7 1111.2,-250.27 1109.09,-260.65 1116.02,-259.7"/>
</a>
</g>
</g>
<!-- Node29 -->
<g id="Node000029" class="node">
<title>Node29</title>
<g id="a_Node000029"><a xlink:title=" ">
<polygon fill="#e0e0e0" stroke="#999999" points="1234,-250 1190,-250 1190,-231 1234,-231 1234,-250"/>
<text text-anchor="middle" x="1212" y="-238" font-family="Helvetica,sans-Serif" font-size="10.00">limits</text>
</a>
</g>
</g>
<!-- Node27&#45;&gt;Node29 -->
<g id="edge36_Node000027_Node000029" class="edge">
<title>Node27&#45;&gt;Node29</title>
<g id="a_edge36_Node000027_Node000029"><a xlink:title=" ">
<path fill="none" stroke="#63b8ff" d="M1140.75,-285.84C1155.6,-276.6 1174.9,-264.59 1189.66,-255.4"/>
<polygon fill="#63b8ff" stroke="#63b8ff" points="1191.55,-258.35 1198.19,-250.09 1187.85,-252.41 1191.55,-258.35"/>
</a>
</g>
</g>
<!-- Node27&#45;&gt;Node30 -->
<g id="edge38_Node000027_Node000030" class="edge">
<title>Node27&#45;&gt;Node30</title>
<g id="a_edge38_Node000027_Node000030"><a xlink:title=" ">
<path fill="none" stroke="#63b8ff" d="M1086.62,-285.99C1065.06,-276.36 1036.65,-263.67 1015.69,-254.31"/>
<polygon fill="#63b8ff" stroke="#63b8ff" points="1016.9,-251.02 1006.35,-250.14 1014.05,-257.41 1016.9,-251.02"/>
</a>
</g>
</g>
<!-- Node30&#45;&gt;Node23 -->
<g id="edge39_Node000030_Node000023" class="edge">
<title>Node30&#45;&gt;Node23</title>
<g id="a_edge39_Node000030_Node000023"><a xlink:title=" ">
<path fill="none" stroke="#63b8ff" d="M987.86,-230.94C989.78,-211.91 994.44,-165.69 997.09,-139.47"/>
<polygon fill="#63b8ff" stroke="#63b8ff" points="1000.59,-139.6 998.11,-129.3 993.63,-138.9 1000.59,-139.6"/>
</a>
</g>
</g>
<!-- Node30&#45;&gt;Node24 -->
<g id="edge40_Node000030_Node000024" class="edge">
<title>Node30&#45;&gt;Node24</title>
<g id="a_edge40_Node000030_Node000024"><a xlink:title=" ">
<path fill="none" stroke="#63b8ff" d="M981.54,-230.92C970.14,-212.74 943.51,-168.71 927,-129 920.92,-114.37 915.88,-97.11 912.53,-84.28"/>
<polygon fill="#63b8ff" stroke="#63b8ff" points="915.86,-83.17 910.03,-74.33 909.07,-84.88 915.86,-83.17"/>
</a>
</g>
</g>
<!-- Node31&#45;&gt;Node3 -->
<g id="edge46_Node000031_Node000003" class="edge">
<title>Node31&#45;&gt;Node3</title>
<g id="a_edge46_Node000031_Node000003"><a xlink:title=" ">
<path fill="none" stroke="#63b8ff" d="M768.2,-527.85C728.14,-505.89 651.47,-463.85 611.93,-442.17"/>
<polygon fill="#63b8ff" stroke="#63b8ff" points="613.18,-438.86 602.73,-437.12 609.81,-445 613.18,-438.86"/>
</a>
</g>
</g>
<!-- Node31&#45;&gt;Node4 -->
<g id="edge65_Node000031_Node000004" class="edge">
<title>Node31&#45;&gt;Node4</title>
<g id="a_edge65_Node000031_Node000004"><a xlink:title=" ">
<path fill="none" stroke="#63b8ff" d="M789.01,-527.76C778.02,-496.41 751.74,-421.46 739.49,-386.52"/>
<polygon fill="#63b8ff" stroke="#63b8ff" points="742.66,-384.96 736.04,-376.68 736.05,-387.28 742.66,-384.96"/>
</a>
</g>
</g>
<!-- Node31&#45;&gt;Node5 -->
<g id="edge63_Node000031_Node000005" class="edge">
<title>Node31&#45;&gt;Node5</title>
<g id="a_edge63_Node000031_Node000005"><a xlink:title=" ">
<path fill="none" stroke="#63b8ff" d="M794,-527.67C794,-506.14 794,-464.17 794,-428.5 794,-428.5 794,-428.5 794,-300 794,-260.14 820.34,-219.48 837.21,-197.53"/>
<polygon fill="#63b8ff" stroke="#63b8ff" points="840.05,-199.57 843.55,-189.57 834.58,-195.21 840.05,-199.57"/>
</a>
</g>
</g>
<!-- Node31&#45;&gt;Node18 -->
<g id="edge62_Node000031_Node000018" class="edge">
<title>Node31&#45;&gt;Node18</title>
<g id="a_edge62_Node000031_Node000018"><a xlink:title=" ">
<path fill="none" stroke="#63b8ff" d="M729.7,-539.55C540.67,-531.5 0,-502.04 0,-428.5 0,-428.5 0,-428.5 0,-300 0,-264.77 9.72,-250.59 39,-231 99.56,-190.49 324.22,-182.8 410.22,-181.34"/>
<polygon fill="#63b8ff" stroke="#63b8ff" points="410.29,-184.84 420.23,-181.19 410.18,-177.84 410.29,-184.84"/>
</a>
</g>
</g>
<!-- Node31&#45;&gt;Node26 -->
<g id="edge64_Node000031_Node000026" class="edge">
<title>Node31&#45;&gt;Node26</title>
<g id="a_edge64_Node000031_Node000026"><a xlink:title=" ">
<path fill="none" stroke="#63b8ff" d="M798.16,-527.59C801.01,-517.62 804.83,-504.03 808,-492 824.5,-429.42 842.46,-354.78 850.58,-320.67"/>
<polygon fill="#63b8ff" stroke="#63b8ff" points="854.04,-321.27 852.94,-310.74 847.22,-319.66 854.04,-321.27"/>
</a>
</g>
</g>
<!-- Node31&#45;&gt;Node30 -->
<g id="edge61_Node000031_Node000030" class="edge">
<title>Node31&#45;&gt;Node30</title>
<g id="a_edge61_Node000031_Node000030"><a xlink:title=" ">
<path fill="none" stroke="#63b8ff" d="M858.14,-539.84C928.72,-533.61 1039.16,-511.66 1092,-437 1104.16,-419.82 1096.13,-392.84 1076,-352 1073.39,-346.7 1024.61,-287.17 1000.4,-257.75"/>
<polygon fill="#63b8ff" stroke="#63b8ff" points="1003.08,-255.5 994.02,-250 997.67,-259.95 1003.08,-255.5"/>
</a>
</g>
</g>
<!-- Node32 -->
<g id="Node000032" class="node">
<title>Node32</title>
<g id="a_Node000032"><a xlink:href="PluginManager_8hpp.html" target="_top" xlink:title="Plugin loader interface for dynamic plugins.">
<polygon fill="white" stroke="#666666" points="388,-492 194,-492 194,-473 388,-473 388,-492"/>
<text text-anchor="middle" x="291" y="-480" font-family="Helvetica,sans-Serif" font-size="10.00">../PluginManager/PluginManager.hpp</text>
</a>
</g>
</g>
<!-- Node31&#45;&gt;Node32 -->
<g id="edge47_Node000031_Node000032" class="edge">
<title>Node31&#45;&gt;Node32</title>
<g id="a_edge47_Node000031_Node000032"><a xlink:title=" ">
<path fill="none" stroke="#63b8ff" d="M729.78,-534.53C639.27,-524 474.09,-504.79 374.25,-493.18"/>
<polygon fill="#63b8ff" stroke="#63b8ff" points="374.54,-489.69 364.2,-492.01 373.73,-496.65 374.54,-489.69"/>
</a>
</g>
</g>
<!-- Node35 -->
<g id="Node000035" class="node">
<title>Node35</title>
<g id="a_Node000035"><a xlink:href="BVH_8hpp.html" target="_top" xlink:title=" ">
<polygon fill="white" stroke="#666666" points="1083,-437 991,-437 991,-418 1083,-418 1083,-437"/>
<text text-anchor="middle" x="1037" y="-425" font-family="Helvetica,sans-Serif" font-size="10.00">../BVH/BVH.hpp</text>
</a>
</g>
</g>
<!-- Node31&#45;&gt;Node35 -->
<g id="edge53_Node000031_Node000035" class="edge">
<title>Node31&#45;&gt;Node35</title>
<g id="a_edge53_Node000031_Node000035"><a xlink:title=" ">
<path fill="none" stroke="#63b8ff" d="M824.28,-527.85C871.82,-505.65 963.23,-462.95 1009.19,-441.49"/>
<polygon fill="#63b8ff" stroke="#63b8ff" points="1010.96,-444.53 1018.54,-437.12 1007.99,-438.19 1010.96,-444.53"/>
</a>
</g>
</g>
<!-- Node32&#45;&gt;Node3 -->
<g id="edge52_Node000032_Node000003" class="edge">
<title>Node32&#45;&gt;Node3</title>
<g id="a_edge52_Node000032_Node000003"><a xlink:title=" ">
<path fill="none" stroke="#63b8ff" d="M338.56,-472.98C390.4,-463.7 473.39,-448.84 529.01,-438.88"/>
<polygon fill="#63b8ff" stroke="#63b8ff" points="529.84,-442.29 539.07,-437.08 528.61,-435.4 529.84,-442.29"/>
</a>
</g>
</g>
<!-- Node32&#45;&gt;Node11 -->
<g id="edge50_Node000032_Node000011" class="edge">
<title>Node32&#45;&gt;Node11</title>
<g id="a_edge50_Node000032_Node000011"><a xlink:title=" ">
<path fill="none" stroke="#63b8ff" d="M246.37,-472.96C199.41,-461.33 127.84,-435.5 95,-382 71.68,-344.01 82.16,-288.66 90.07,-260.1"/>
<polygon fill="#63b8ff" stroke="#63b8ff" points="93.51,-260.82 93,-250.24 86.8,-258.83 93.51,-260.82"/>
</a>
</g>
</g>
<!-- Node32&#45;&gt;Node18 -->
<g id="edge51_Node000032_Node000018" class="edge">
<title>Node32&#45;&gt;Node18</title>
<g id="a_edge51_Node000032_Node000018"><a xlink:title=" ">
<path fill="none" stroke="#63b8ff" d="M193.91,-475.98C122.56,-466.05 38,-439.25 38,-368 38,-368 38,-368 38,-300 38,-268.19 32.99,-251.86 57,-231 109.42,-185.46 326.01,-180.79 410.26,-180.74"/>
<polygon fill="#63b8ff" stroke="#63b8ff" points="410.32,-184.24 420.32,-180.76 410.33,-177.24 410.32,-184.24"/>
</a>
</g>
</g>
<!-- Node33 -->
<g id="Node000033" class="node">
<title>Node33</title>
<g id="a_Node000033"><a xlink:title=" ">
<polygon fill="#e0e0e0" stroke="#999999" points="281,-437 231,-437 231,-418 281,-418 281,-437"/>
<text text-anchor="middle" x="256" y="-425" font-family="Helvetica,sans-Serif" font-size="10.00">dlfcn.h</text>
</a>
</g>
</g>
<!-- Node32&#45;&gt;Node33 -->
<g id="edge48_Node000032_Node000033" class="edge">
<title>Node32&#45;&gt;Node33</title>
<g id="a_edge48_Node000032_Node000033"><a xlink:title=" ">
<path fill="none" stroke="#63b8ff" d="M285.22,-472.75C280.38,-465.42 273.32,-454.73 267.36,-445.7"/>
<polygon fill="#63b8ff" stroke="#63b8ff" points="270.1,-443.5 261.67,-437.09 264.26,-447.36 270.1,-443.5"/>
</a>
</g>
</g>
<!-- Node34 -->
<g id="Node000034" class="node">
<title>Node34</title>
<g id="a_Node000034"><a xlink:title=" ">
<polygon fill="#e0e0e0" stroke="#999999" points="353,-437 299,-437 299,-418 353,-418 353,-437"/>
<text text-anchor="middle" x="326" y="-425" font-family="Helvetica,sans-Serif" font-size="10.00">dirent.h</text>
</a>
</g>
</g>
<!-- Node32&#45;&gt;Node34 -->
<g id="edge49_Node000032_Node000034" class="edge">
<title>Node32&#45;&gt;Node34</title>
<g id="a_edge49_Node000032_Node000034"><a xlink:title=" ">
<path fill="none" stroke="#63b8ff" d="M296.78,-472.75C301.62,-465.42 308.68,-454.73 314.64,-445.7"/>
<polygon fill="#63b8ff" stroke="#63b8ff" points="317.74,-447.36 320.33,-437.09 311.9,-443.5 317.74,-447.36"/>
</a>
</g>
</g>
<!-- Node35&#45;&gt;Node5 -->
<g id="edge56_Node000035_Node000005" class="edge">
<title>Node35&#45;&gt;Node5</title>
<g id="a_edge56_Node000035_Node000005"><a xlink:title=" ">
<path fill="none" stroke="#63b8ff" d="M1043.89,-417.93C1054.38,-403.75 1072.07,-374.72 1061,-352 1049.63,-328.66 1035.25,-332.25 1015,-316 961.6,-273.14 899.39,-221.44 869.24,-196.26"/>
<polygon fill="#63b8ff" stroke="#63b8ff" points="871.21,-193.34 861.29,-189.62 866.72,-198.72 871.21,-193.34"/>
</a>
</g>
</g>
<!-- Node35&#45;&gt;Node17 -->
<g id="edge54_Node000035_Node000017" class="edge">
<title>Node35&#45;&gt;Node17</title>
<g id="a_edge54_Node000035_Node000017"><a xlink:title=" ">
<path fill="none" stroke="#63b8ff" d="M1083.11,-424.9C1158.54,-419.54 1300,-396.85 1300,-302 1300,-302 1300,-302 1300,-239.5 1300,-184.88 1237.23,-149.8 1196.35,-132.76"/>
<polygon fill="#63b8ff" stroke="#63b8ff" points="1197.58,-129.48 1186.99,-129 1194.97,-135.97 1197.58,-129.48"/>
</a>
</g>
</g>
<!-- Node35&#45;&gt;Node18 -->
<g id="edge58_Node000035_Node000018" class="edge">
<title>Node35&#45;&gt;Node18</title>
<g id="a_edge58_Node000035_Node000018"><a xlink:title=" ">
<path fill="none" stroke="#63b8ff" d="M1008.01,-417.87C949.74,-400.59 820.14,-362.5 775,-352 687.88,-331.74 656.07,-357.81 577,-316 522.15,-287 475.93,-227.46 455.4,-198.12"/>
<polygon fill="#63b8ff" stroke="#63b8ff" points="458.19,-196 449.66,-189.73 452.42,-199.96 458.19,-196"/>
</a>
</g>
</g>
<!-- Node35&#45;&gt;Node19 -->
<g id="edge60_Node000035_Node000019" class="edge">
<title>Node35&#45;&gt;Node19</title>
<g id="a_edge60_Node000035_Node000019"><a xlink:title=" ">
<path fill="none" stroke="#63b8ff" d="M1030.66,-417.87C1025.31,-410.59 1017.41,-399.85 1010.32,-390.2"/>
<polygon fill="#63b8ff" stroke="#63b8ff" points="1013.12,-388.1 1004.37,-382.11 1007.48,-392.25 1013.12,-388.1"/>
</a>
</g>
</g>
<!-- Node35&#45;&gt;Node26 -->
<g id="edge57_Node000035_Node000026" class="edge">
<title>Node35&#45;&gt;Node26</title>
<g id="a_edge57_Node000035_Node000026"><a xlink:title=" ">
<path fill="none" stroke="#63b8ff" d="M1005.24,-417.87C982.18,-410.64 950.96,-398.79 927,-382 901.98,-364.47 879.55,-336.7 866.61,-318.92"/>
<polygon fill="#63b8ff" stroke="#63b8ff" points="869.38,-316.78 860.74,-310.64 863.67,-320.82 869.38,-316.78"/>
</a>
</g>
</g>
<!-- Node35&#45;&gt;Node27 -->
<g id="edge59_Node000035_Node000027" class="edge">
<title>Node35&#45;&gt;Node27</title>
<g id="a_edge59_Node000035_Node000027"><a xlink:title=" ">
<path fill="none" stroke="#63b8ff" d="M1052.76,-417.93C1065.63,-410.15 1083.37,-397.55 1094,-382 1105.41,-365.31 1111.51,-343.06 1114.7,-326.27"/>
<polygon fill="#63b8ff" stroke="#63b8ff" points="1118.2,-326.57 1116.4,-316.13 1111.3,-325.41 1118.2,-326.57"/>
</a>
</g>
</g>
<!-- Node35&#45;&gt;Node29 -->
<g id="edge55_Node000035_Node000029" class="edge">
<title>Node35&#45;&gt;Node29</title>
<g id="a_edge55_Node000035_Node000029"><a xlink:title=" ">
<path fill="none" stroke="#63b8ff" d="M1056.51,-417.96C1089.21,-402.59 1154.77,-367.05 1188,-316 1199.1,-298.96 1205.42,-276.38 1208.76,-260.56"/>
<polygon fill="#63b8ff" stroke="#63b8ff" points="1212.26,-260.89 1210.69,-250.41 1205.38,-259.58 1212.26,-260.89"/>
</a>
</g>
</g>
</g>
</svg>
