<?xml version="1.0" encoding="UTF-8" standalone="no"?>
<!DOCTYPE svg PUBLIC "-//W3C//DTD SVG 1.1//EN"
 "http://www.w3.org/Graphics/SVG/1.1/DTD/svg11.dtd">
<!-- Generated by graphviz version 2.43.0 (0)
 -->
<!-- Title: src/Objects/Plugins/CorePlugin/Interfaces/SceneWriter/SceneWriter.cpp Pages: 1 -->
<svg width="1327pt" height="643pt"
 viewBox="0.00 0.00 1326.82 643.00" xmlns="http://www.w3.org/2000/svg" xmlns:xlink="http://www.w3.org/1999/xlink">
<g id="graph0" class="graph" transform="scale(1 1) rotate(0) translate(4 639)">
<title>src/Objects/Plugins/CorePlugin/Interfaces/SceneWriter/SceneWriter.cpp</title>
<!-- Node1 -->
<g id="Node000001" class="node">
<title>Node1</title>
<g id="a_Node000001"><a xlink:title=" ">
<polygon fill="#999999" stroke="#666666" points="1113.82,-635 952.82,-635 952.82,-594 1113.82,-594 1113.82,-635"/>
<text text-anchor="start" x="960.82" y="-623" font-family="Helvetica,sans-Serif" font-size="10.00">src/Objects/Plugins</text>
<text text-anchor="start" x="960.82" y="-612" font-family="Helvetica,sans-Serif" font-size="10.00">/CorePlugin/Interfaces</text>
<text text-anchor="middle" x="1033.32" y="-601" font-family="Helvetica,sans-Serif" font-size="10.00">/SceneWriter/SceneWriter.cpp</text>
</a>
</g>
</g>
<!-- Node2 -->
<g id="Node000002" class="node">
<title>Node2</title>
<g id="a_Node000002"><a xlink:href="SceneWriter_8hpp.html" target="_top" xlink:title=" ">
<polygon fill="white" stroke="#666666" points="706.32,-492 610.32,-492 610.32,-473 706.32,-473 706.32,-492"/>
<text text-anchor="middle" x="658.32" y="-480" font-family="Helvetica,sans-Serif" font-size="10.00">SceneWriter.hpp</text>
</a>
</g>
</g>
<!-- Node1&#45;&gt;Node2 -->
<g id="edge1_Node000001_Node000002" class="edge">
<title>Node1&#45;&gt;Node2</title>
<g id="a_edge1_Node000001_Node000002"><a xlink:title=" ">
<path fill="none" stroke="#63b8ff" d="M952.77,-610.24C891.43,-605.01 806.41,-591.66 739.32,-558 711.4,-543.99 686.1,-517.49 671.47,-500.16"/>
<polygon fill="#63b8ff" stroke="#63b8ff" points="673.87,-497.58 664.83,-492.06 668.46,-502.01 673.87,-497.58"/>
</a>
</g>
</g>
<!-- Node16 -->
<g id="Node000016" class="node">
<title>Node16</title>
<g id="a_Node000016"><a xlink:href="Color_8hpp.html" target="_top" xlink:title=" ">
<polygon fill="white" stroke="#666666" points="816.82,-189.5 701.82,-189.5 701.82,-170.5 816.82,-170.5 816.82,-189.5"/>
<text text-anchor="middle" x="759.32" y="-177.5" font-family="Helvetica,sans-Serif" font-size="10.00">../../../Utils/Color.hpp</text>
</a>
</g>
</g>
<!-- Node1&#45;&gt;Node16 -->
<g id="edge64_Node000001_Node000016" class="edge">
<title>Node1&#45;&gt;Node16</title>
<g id="a_edge64_Node000001_Node000016"><a xlink:title=" ">
<path fill="none" stroke="#63b8ff" d="M1114.03,-595.57C1170.29,-577.76 1235.32,-544.08 1235.32,-483.5 1235.32,-483.5 1235.32,-483.5 1235.32,-300 1235.32,-268.19 1240.71,-251.42 1216.32,-231 1149.59,-175.13 912.39,-207.92 826.32,-195 819.92,-194.04 813.21,-192.85 806.61,-191.58"/>
<polygon fill="#63b8ff" stroke="#63b8ff" points="806.89,-188.07 796.4,-189.53 805.51,-194.93 806.89,-188.07"/>
</a>
</g>
</g>
<!-- Node31 -->
<g id="Node000031" class="node">
<title>Node31</title>
<g id="a_Node000031"><a xlink:href="Scene_8hpp.html" target="_top" xlink:title=" ">
<polygon fill="white" stroke="#666666" points="876.32,-558 748.32,-558 748.32,-528 876.32,-528 876.32,-558"/>
<text text-anchor="start" x="756.32" y="-546" font-family="Helvetica,sans-Serif" font-size="10.00">../../../../../SceneSystem</text>
<text text-anchor="middle" x="812.32" y="-535" font-family="Helvetica,sans-Serif" font-size="10.00">/Scene/Scene.hpp</text>
</a>
</g>
</g>
<!-- Node1&#45;&gt;Node31 -->
<g id="edge45_Node000001_Node000031" class="edge">
<title>Node1&#45;&gt;Node31</title>
<g id="a_edge45_Node000001_Node000031"><a xlink:title=" ">
<path fill="none" stroke="#63b8ff" d="M971.17,-593.96C938.2,-583.59 898.07,-570.97 866.39,-561"/>
<polygon fill="#63b8ff" stroke="#63b8ff" points="867.44,-557.67 856.85,-558 865.34,-564.34 867.44,-557.67"/>
</a>
</g>
</g>
<!-- Node36 -->
<g id="Node000036" class="node">
<title>Node36</title>
<g id="a_Node000036"><a xlink:title=" ">
<polygon fill="#e0e0e0" stroke="#999999" points="1318.82,-552.5 1263.82,-552.5 1263.82,-533.5 1318.82,-533.5 1318.82,-552.5"/>
<text text-anchor="middle" x="1291.32" y="-540.5" font-family="Helvetica,sans-Serif" font-size="10.00">fstream</text>
</a>
</g>
</g>
<!-- Node1&#45;&gt;Node36 -->
<g id="edge65_Node000001_Node000036" class="edge">
<title>Node1&#45;&gt;Node36</title>
<g id="a_edge65_Node000001_Node000036"><a xlink:title=" ">
<path fill="none" stroke="#63b8ff" d="M1113.95,-594.21C1154.72,-584.1 1204.85,-571.11 1249.32,-558 1251.77,-557.28 1254.3,-556.51 1256.83,-555.71"/>
<polygon fill="#63b8ff" stroke="#63b8ff" points="1258.09,-558.98 1266.54,-552.58 1255.95,-552.32 1258.09,-558.98"/>
</a>
</g>
</g>
<!-- Node3 -->
<g id="Node000003" class="node">
<title>Node3</title>
<g id="a_Node000003"><a xlink:href="Plugin_8hpp.html" target="_top" xlink:title=" ">
<polygon fill="white" stroke="#666666" points="615.32,-437 511.32,-437 511.32,-418 615.32,-418 615.32,-437"/>
<text text-anchor="middle" x="563.32" y="-425" font-family="Helvetica,sans-Serif" font-size="10.00">../../../../Plugin.hpp</text>
</a>
</g>
</g>
<!-- Node2&#45;&gt;Node3 -->
<g id="edge2_Node000002_Node000003" class="edge">
<title>Node2&#45;&gt;Node3</title>
<g id="a_edge2_Node000002_Node000003"><a xlink:title=" ">
<path fill="none" stroke="#63b8ff" d="M643.06,-472.98C628.19,-464.69 605.34,-451.94 587.9,-442.22"/>
<polygon fill="#63b8ff" stroke="#63b8ff" points="589.3,-438.99 578.86,-437.17 585.89,-445.1 589.3,-438.99"/>
</a>
</g>
</g>
<!-- Node4 -->
<g id="Node000004" class="node">
<title>Node4</title>
<g id="a_Node000004"><a xlink:title=" ">
<polygon fill="#e0e0e0" stroke="#999999" points="315.82,-376.5 250.82,-376.5 250.82,-357.5 315.82,-357.5 315.82,-376.5"/>
<text text-anchor="middle" x="283.32" y="-364.5" font-family="Helvetica,sans-Serif" font-size="10.00">functional</text>
</a>
</g>
</g>
<!-- Node3&#45;&gt;Node4 -->
<g id="edge3_Node000003_Node000004" class="edge">
<title>Node3&#45;&gt;Node4</title>
<g id="a_edge3_Node000003_Node000004"><a xlink:title=" ">
<path fill="none" stroke="#63b8ff" d="M510.87,-418.81C462.34,-411.2 388.4,-398.33 325.32,-382 322.53,-381.28 319.66,-380.47 316.78,-379.61"/>
<polygon fill="#63b8ff" stroke="#63b8ff" points="317.73,-376.24 307.14,-376.57 315.62,-382.91 317.73,-376.24"/>
</a>
</g>
</g>
<!-- Node5 -->
<g id="Node000005" class="node">
<title>Node5</title>
<g id="a_Node000005"><a xlink:title=" ">
<polygon fill="#e0e0e0" stroke="#999999" points="893.32,-189.5 835.32,-189.5 835.32,-170.5 893.32,-170.5 893.32,-189.5"/>
<text text-anchor="middle" x="864.32" y="-177.5" font-family="Helvetica,sans-Serif" font-size="10.00">memory</text>
</a>
</g>
</g>
<!-- Node3&#45;&gt;Node5 -->
<g id="edge4_Node000003_Node000005" class="edge">
<title>Node3&#45;&gt;Node5</title>
<g id="a_edge4_Node000003_Node000005"><a xlink:title=" ">
<path fill="none" stroke="#63b8ff" d="M596.77,-417.97C620.63,-410.85 652.71,-399.08 677.32,-382 709.64,-359.57 714.14,-348.5 736.32,-316 760.19,-281.03 750.35,-261.87 779.32,-231 794.35,-214.99 815.65,-202.47 833.17,-193.97"/>
<polygon fill="#63b8ff" stroke="#63b8ff" points="834.86,-197.04 842.45,-189.66 831.91,-190.69 834.86,-197.04"/>
</a>
</g>
</g>
<!-- Node6 -->
<g id="Node000006" class="node">
<title>Node6</title>
<g id="a_Node000006"><a xlink:title=" ">
<polygon fill="#e0e0e0" stroke="#999999" points="384.82,-376.5 333.82,-376.5 333.82,-357.5 384.82,-357.5 384.82,-376.5"/>
<text text-anchor="middle" x="359.32" y="-364.5" font-family="Helvetica,sans-Serif" font-size="10.00">variant</text>
</a>
</g>
</g>
<!-- Node3&#45;&gt;Node6 -->
<g id="edge5_Node000003_Node000006" class="edge">
<title>Node3&#45;&gt;Node6</title>
<g id="a_edge5_Node000003_Node000006"><a xlink:title=" ">
<path fill="none" stroke="#63b8ff" d="M528.88,-417.92C495.55,-409.44 443.7,-395.77 399.32,-382 397.07,-381.3 394.75,-380.56 392.42,-379.79"/>
<polygon fill="#63b8ff" stroke="#63b8ff" points="393.51,-376.46 382.92,-376.57 391.27,-383.1 393.51,-376.46"/>
</a>
</g>
</g>
<!-- Node7 -->
<g id="Node000007" class="node">
<title>Node7</title>
<g id="a_Node000007"><a xlink:title=" ">
<polygon fill="#e0e0e0" stroke="#999999" points="479.32,-376.5 441.32,-376.5 441.32,-357.5 479.32,-357.5 479.32,-376.5"/>
<text text-anchor="middle" x="460.32" y="-364.5" font-family="Helvetica,sans-Serif" font-size="10.00">map</text>
</a>
</g>
</g>
<!-- Node3&#45;&gt;Node7 -->
<g id="edge6_Node000003_Node000007" class="edge">
<title>Node3&#45;&gt;Node7</title>
<g id="a_edge6_Node000003_Node000007"><a xlink:title=" ">
<path fill="none" stroke="#63b8ff" d="M548.12,-417.87C531.31,-408.32 504,-392.81 484.3,-381.62"/>
<polygon fill="#63b8ff" stroke="#63b8ff" points="486.01,-378.56 475.58,-376.67 482.55,-384.65 486.01,-378.56"/>
</a>
</g>
</g>
<!-- Node8 -->
<g id="Node000008" class="node">
<title>Node8</title>
<g id="a_Node000008"><a xlink:href="ParsingException_8hpp.html" target="_top" xlink:title=" ">
<polygon fill="white" stroke="#666666" points="232.82,-382 67.82,-382 67.82,-352 232.82,-352 232.82,-382"/>
<text text-anchor="start" x="75.82" y="-370" font-family="Helvetica,sans-Serif" font-size="10.00">../Exceptions/ParsingException</text>
<text text-anchor="middle" x="150.32" y="-359" font-family="Helvetica,sans-Serif" font-size="10.00">/ParsingException.hpp</text>
</a>
</g>
</g>
<!-- Node3&#45;&gt;Node8 -->
<g id="edge7_Node000003_Node000008" class="edge">
<title>Node3&#45;&gt;Node8</title>
<g id="a_edge7_Node000003_Node000008"><a xlink:title=" ">
<path fill="none" stroke="#63b8ff" d="M511.08,-419.22C508.12,-418.8 505.18,-418.4 502.32,-418 389.5,-402.36 358.85,-399.08 243.11,-382.25"/>
<polygon fill="#63b8ff" stroke="#63b8ff" points="243.54,-378.78 233.14,-380.8 242.53,-385.7 243.54,-378.78"/>
</a>
</g>
</g>
<!-- Node14 -->
<g id="Node000014" class="node">
<title>Node14</title>
<g id="a_Node000014"><a xlink:href="AInterface_8hpp.html" target="_top" xlink:title=" ">
<polygon fill="white" stroke="#666666" points="613.32,-382 497.32,-382 497.32,-352 613.32,-352 613.32,-382"/>
<text text-anchor="start" x="505.32" y="-370" font-family="Helvetica,sans-Serif" font-size="10.00">Abstracts/AInterface</text>
<text text-anchor="middle" x="555.32" y="-359" font-family="Helvetica,sans-Serif" font-size="10.00">/AInterface.hpp</text>
</a>
</g>
</g>
<!-- Node3&#45;&gt;Node14 -->
<g id="edge13_Node000003_Node000014" class="edge">
<title>Node3&#45;&gt;Node14</title>
<g id="a_edge13_Node000003_Node000014"><a xlink:title=" ">
<path fill="none" stroke="#63b8ff" d="M562.14,-417.87C561.22,-411.11 559.88,-401.35 558.64,-392.26"/>
<polygon fill="#63b8ff" stroke="#63b8ff" points="562.07,-391.55 557.25,-382.11 555.14,-392.5 562.07,-391.55"/>
</a>
</g>
</g>
<!-- Node15 -->
<g id="Node000015" class="node">
<title>Node15</title>
<g id="a_Node000015"><a xlink:href="ARenderer_8hpp.html" target="_top" xlink:title=" ">
<polygon fill="white" stroke="#666666" points="542.82,-310.5 391.82,-310.5 391.82,-291.5 542.82,-291.5 542.82,-310.5"/>
<text text-anchor="middle" x="467.32" y="-298.5" font-family="Helvetica,sans-Serif" font-size="10.00">../ARenderer/ARenderer.hpp</text>
</a>
</g>
</g>
<!-- Node3&#45;&gt;Node15 -->
<g id="edge42_Node000003_Node000015" class="edge">
<title>Node3&#45;&gt;Node15</title>
<g id="a_edge42_Node000003_Node000015"><a xlink:title=" ">
<path fill="none" stroke="#63b8ff" d="M521.96,-417.94C487.72,-409.91 443.02,-396.94 432.32,-382 417.9,-361.88 436.12,-334.88 451.2,-317.96"/>
<polygon fill="#63b8ff" stroke="#63b8ff" points="453.88,-320.22 458.2,-310.54 448.79,-315.42 453.88,-320.22"/>
</a>
</g>
</g>
<!-- Node19 -->
<g id="Node000019" class="node">
<title>Node19</title>
<g id="a_Node000019"><a xlink:href="APrimitive_8hpp.html" target="_top" xlink:title=" ">
<polygon fill="white" stroke="#666666" points="1013.32,-382 897.32,-382 897.32,-352 1013.32,-352 1013.32,-382"/>
<text text-anchor="start" x="905.32" y="-370" font-family="Helvetica,sans-Serif" font-size="10.00">Abstracts/APrimitive</text>
<text text-anchor="middle" x="955.32" y="-359" font-family="Helvetica,sans-Serif" font-size="10.00">/APrimitive.hpp</text>
</a>
</g>
</g>
<!-- Node3&#45;&gt;Node19 -->
<g id="edge18_Node000003_Node000019" class="edge">
<title>Node3&#45;&gt;Node19</title>
<g id="a_edge18_Node000003_Node000019"><a xlink:title=" ">
<path fill="none" stroke="#63b8ff" d="M615.38,-418.73C685.34,-408.29 809.83,-389.71 887.18,-378.17"/>
<polygon fill="#63b8ff" stroke="#63b8ff" points="887.93,-381.6 897.3,-376.66 886.9,-374.67 887.93,-381.6"/>
</a>
</g>
</g>
<!-- Node20 -->
<g id="Node000020" class="node">
<title>Node20</title>
<g id="a_Node000020"><a xlink:href="IMaterial_8hpp.html" target="_top" xlink:title=" ">
<polygon fill="white" stroke="#666666" points="727.32,-310.5 637.32,-310.5 637.32,-291.5 727.32,-291.5 727.32,-310.5"/>
<text text-anchor="middle" x="682.32" y="-298.5" font-family="Helvetica,sans-Serif" font-size="10.00">../IMaterial.hpp</text>
</a>
</g>
</g>
<!-- Node3&#45;&gt;Node20 -->
<g id="edge44_Node000003_Node000020" class="edge">
<title>Node3&#45;&gt;Node20</title>
<g id="a_edge44_Node000003_Node000020"><a xlink:title=" ">
<path fill="none" stroke="#63b8ff" d="M595.37,-417.96C615.12,-411.19 639.59,-399.83 655.32,-382 670.67,-364.6 677.36,-338.15 680.23,-320.48"/>
<polygon fill="#63b8ff" stroke="#63b8ff" points="683.7,-320.93 681.59,-310.54 676.77,-319.97 683.7,-320.93"/>
</a>
</g>
</g>
<!-- Node21 -->
<g id="Node000021" class="node">
<title>Node21</title>
<g id="a_Node000021"><a xlink:href="ILight_8hpp.html" target="_top" xlink:title=" ">
<polygon fill="white" stroke="#666666" points="688.82,-250 623.82,-250 623.82,-231 688.82,-231 688.82,-250"/>
<text text-anchor="middle" x="656.32" y="-238" font-family="Helvetica,sans-Serif" font-size="10.00">ILight.hpp</text>
</a>
</g>
</g>
<!-- Node3&#45;&gt;Node21 -->
<g id="edge43_Node000003_Node000021" class="edge">
<title>Node3&#45;&gt;Node21</title>
<g id="a_edge43_Node000003_Node000021"><a xlink:title=" ">
<path fill="none" stroke="#63b8ff" d="M582.01,-417.9C595.75,-410.48 613.51,-398.38 622.32,-382 642.57,-344.35 615.2,-326.69 628.32,-286 631.54,-276.03 637.5,-266.05 643.1,-258.08"/>
<polygon fill="#63b8ff" stroke="#63b8ff" points="645.92,-260.14 649.1,-250.04 640.31,-255.96 645.92,-260.14"/>
</a>
</g>
</g>
<!-- Node9 -->
<g id="Node000009" class="node">
<title>Node9</title>
<g id="a_Node000009"><a xlink:href="RaytracerException_8hpp.html" target="_top" xlink:title=" ">
<polygon fill="white" stroke="#666666" points="218.32,-316 82.32,-316 82.32,-286 218.32,-286 218.32,-316"/>
<text text-anchor="start" x="90.32" y="-304" font-family="Helvetica,sans-Serif" font-size="10.00">../RaytracerException</text>
<text text-anchor="middle" x="150.32" y="-293" font-family="Helvetica,sans-Serif" font-size="10.00">/RaytracerException.hpp</text>
</a>
</g>
</g>
<!-- Node8&#45;&gt;Node9 -->
<g id="edge8_Node000008_Node000009" class="edge">
<title>Node8&#45;&gt;Node9</title>
<g id="a_edge8_Node000008_Node000009"><a xlink:title=" ">
<path fill="none" stroke="#63b8ff" d="M150.32,-351.8C150.32,-344.34 150.32,-334.99 150.32,-326.41"/>
<polygon fill="#63b8ff" stroke="#63b8ff" points="153.82,-326.16 150.32,-316.16 146.82,-326.16 153.82,-326.16"/>
</a>
</g>
</g>
<!-- Node10 -->
<g id="Node000010" class="node">
<title>Node10</title>
<g id="a_Node000010"><a xlink:title=" ">
<polygon fill="#e0e0e0" stroke="#999999" points="172.82,-250 107.82,-250 107.82,-231 172.82,-231 172.82,-250"/>
<text text-anchor="middle" x="140.32" y="-238" font-family="Helvetica,sans-Serif" font-size="10.00">exception</text>
</a>
</g>
</g>
<!-- Node9&#45;&gt;Node10 -->
<g id="edge9_Node000009_Node000010" class="edge">
<title>Node9&#45;&gt;Node10</title>
<g id="a_edge9_Node000009_Node000010"><a xlink:title=" ">
<path fill="none" stroke="#63b8ff" d="M147.9,-285.84C146.58,-278.13 144.93,-268.49 143.51,-260.17"/>
<polygon fill="#63b8ff" stroke="#63b8ff" points="146.95,-259.53 141.82,-250.27 140.05,-260.71 146.95,-259.53"/>
</a>
</g>
</g>
<!-- Node11 -->
<g id="Node000011" class="node">
<title>Node11</title>
<g id="a_Node000011"><a xlink:title=" ">
<polygon fill="#e0e0e0" stroke="#999999" points="89.32,-250 29.32,-250 29.32,-231 89.32,-231 89.32,-250"/>
<text text-anchor="middle" x="59.32" y="-238" font-family="Helvetica,sans-Serif" font-size="10.00">iostream</text>
</a>
</g>
</g>
<!-- Node9&#45;&gt;Node11 -->
<g id="edge10_Node000009_Node000011" class="edge">
<title>Node9&#45;&gt;Node11</title>
<g id="a_edge10_Node000009_Node000011"><a xlink:title=" ">
<path fill="none" stroke="#63b8ff" d="M128.29,-285.84C114.05,-276.68 95.59,-264.82 81.35,-255.66"/>
<polygon fill="#63b8ff" stroke="#63b8ff" points="82.99,-252.56 72.69,-250.09 79.21,-258.45 82.99,-252.56"/>
</a>
</g>
</g>
<!-- Node12 -->
<g id="Node000012" class="node">
<title>Node12</title>
<g id="a_Node000012"><a xlink:title=" ">
<polygon fill="#e0e0e0" stroke="#999999" points="235.32,-250 191.32,-250 191.32,-231 235.32,-231 235.32,-250"/>
<text text-anchor="middle" x="213.32" y="-238" font-family="Helvetica,sans-Serif" font-size="10.00">string</text>
</a>
</g>
</g>
<!-- Node9&#45;&gt;Node12 -->
<g id="edge11_Node000009_Node000012" class="edge">
<title>Node9&#45;&gt;Node12</title>
<g id="a_edge11_Node000009_Node000012"><a xlink:title=" ">
<path fill="none" stroke="#63b8ff" d="M165.57,-285.84C174.9,-277.17 186.85,-266.08 196.47,-257.15"/>
<polygon fill="#63b8ff" stroke="#63b8ff" points="198.93,-259.64 203.88,-250.27 194.17,-254.51 198.93,-259.64"/>
</a>
</g>
</g>
<!-- Node13 -->
<g id="Node000013" class="node">
<title>Node13</title>
<g id="a_Node000013"><a xlink:title=" ">
<polygon fill="#e0e0e0" stroke="#999999" points="346.82,-250 253.82,-250 253.82,-231 346.82,-231 346.82,-250"/>
<text text-anchor="middle" x="300.32" y="-238" font-family="Helvetica,sans-Serif" font-size="10.00">source_location</text>
</a>
</g>
</g>
<!-- Node9&#45;&gt;Node13 -->
<g id="edge12_Node000009_Node000013" class="edge">
<title>Node9&#45;&gt;Node13</title>
<g id="a_edge12_Node000009_Node000013"><a xlink:title=" ">
<path fill="none" stroke="#63b8ff" d="M186.25,-285.99C211.39,-276.18 244.65,-263.21 268.77,-253.81"/>
<polygon fill="#63b8ff" stroke="#63b8ff" points="270.12,-257.03 278.17,-250.14 267.58,-250.51 270.12,-257.03"/>
</a>
</g>
</g>
<!-- Node14&#45;&gt;Node15 -->
<g id="edge14_Node000014_Node000015" class="edge">
<title>Node14&#45;&gt;Node15</title>
<g id="a_edge14_Node000014_Node000015"><a xlink:title=" ">
<path fill="none" stroke="#63b8ff" d="M535.79,-351.8C521.45,-341.37 502.02,-327.24 487.53,-316.69"/>
<polygon fill="#63b8ff" stroke="#63b8ff" points="489.37,-313.71 479.23,-310.66 485.25,-319.37 489.37,-313.71"/>
</a>
</g>
</g>
<!-- Node15&#45;&gt;Node16 -->
<g id="edge15_Node000015_Node000016" class="edge">
<title>Node15&#45;&gt;Node16</title>
<g id="a_edge15_Node000015_Node000016"><a xlink:title=" ">
<path fill="none" stroke="#63b8ff" d="M484.39,-291.35C511.67,-277.67 566.98,-250.6 615.32,-231 651.08,-216.5 692.82,-202.3 722.13,-192.76"/>
<polygon fill="#63b8ff" stroke="#63b8ff" points="723.5,-195.99 731.94,-189.58 721.35,-189.33 723.5,-195.99"/>
</a>
</g>
</g>
<!-- Node18 -->
<g id="Node000018" class="node">
<title>Node18</title>
<g id="a_Node000018"><a xlink:title=" ">
<polygon fill="#e0e0e0" stroke="#999999" points="530.82,-189.5 483.82,-189.5 483.82,-170.5 530.82,-170.5 530.82,-189.5"/>
<text text-anchor="middle" x="507.32" y="-177.5" font-family="Helvetica,sans-Serif" font-size="10.00">vector</text>
</a>
</g>
</g>
<!-- Node15&#45;&gt;Node18 -->
<g id="edge17_Node000015_Node000018" class="edge">
<title>Node15&#45;&gt;Node18</title>
<g id="a_edge17_Node000015_Node000018"><a xlink:title=" ">
<path fill="none" stroke="#63b8ff" d="M470.2,-291.44C476.62,-272.32 492.27,-225.77 501.06,-199.62"/>
<polygon fill="#63b8ff" stroke="#63b8ff" points="504.49,-200.4 504.36,-189.8 497.86,-198.17 504.49,-200.4"/>
</a>
</g>
</g>
<!-- Node17 -->
<g id="Node000017" class="node">
<title>Node17</title>
<g id="a_Node000017"><a xlink:title=" ">
<polygon fill="#e0e0e0" stroke="#999999" points="1167.32,-129 1103.32,-129 1103.32,-110 1167.32,-110 1167.32,-129"/>
<text text-anchor="middle" x="1135.32" y="-117" font-family="Helvetica,sans-Serif" font-size="10.00">algorithm</text>
</a>
</g>
</g>
<!-- Node16&#45;&gt;Node17 -->
<g id="edge16_Node000016_Node000017" class="edge">
<title>Node16&#45;&gt;Node17</title>
<g id="a_edge16_Node000016_Node000017"><a xlink:title=" ">
<path fill="none" stroke="#63b8ff" d="M798.21,-170.44C807.41,-168.54 817.19,-166.61 826.32,-165 921.24,-148.27 1033.38,-133.31 1093.03,-125.73"/>
<polygon fill="#63b8ff" stroke="#63b8ff" points="1093.7,-129.18 1103.19,-124.45 1092.83,-122.23 1093.7,-129.18"/>
</a>
</g>
</g>
<!-- Node19&#45;&gt;Node5 -->
<g id="edge31_Node000019_Node000005" class="edge">
<title>Node19&#45;&gt;Node5</title>
<g id="a_edge31_Node000019_Node000005"><a xlink:title=" ">
<path fill="none" stroke="#63b8ff" d="M948.33,-351.79C931.97,-318.52 891.19,-235.63 873.15,-198.95"/>
<polygon fill="#63b8ff" stroke="#63b8ff" points="876.07,-196.96 868.52,-189.53 869.79,-200.05 876.07,-196.96"/>
</a>
</g>
</g>
<!-- Node19&#45;&gt;Node20 -->
<g id="edge19_Node000019_Node000020" class="edge">
<title>Node19&#45;&gt;Node20</title>
<g id="a_edge19_Node000019_Node000020"><a xlink:title=" ">
<path fill="none" stroke="#63b8ff" d="M897.09,-352.35C846.76,-340.55 774.98,-323.72 728.52,-312.83"/>
<polygon fill="#63b8ff" stroke="#63b8ff" points="729.25,-309.41 718.72,-310.53 727.66,-316.22 729.25,-309.41"/>
</a>
</g>
</g>
<!-- Node26 -->
<g id="Node000026" class="node">
<title>Node26</title>
<g id="a_Node000026"><a xlink:title=" ">
<polygon fill="#e0e0e0" stroke="#999999" points="1169.32,-310.5 1113.32,-310.5 1113.32,-291.5 1169.32,-291.5 1169.32,-310.5"/>
<text text-anchor="middle" x="1141.32" y="-298.5" font-family="Helvetica,sans-Serif" font-size="10.00">optional</text>
</a>
</g>
</g>
<!-- Node19&#45;&gt;Node26 -->
<g id="edge32_Node000019_Node000026" class="edge">
<title>Node19&#45;&gt;Node26</title>
<g id="a_edge32_Node000019_Node000026"><a xlink:title=" ">
<path fill="none" stroke="#63b8ff" d="M998.5,-351.99C1028.33,-342.2 1068.86,-328.65 1104.32,-316 1105.97,-315.41 1107.65,-314.8 1109.35,-314.18"/>
<polygon fill="#63b8ff" stroke="#63b8ff" points="1110.91,-317.34 1119.07,-310.58 1108.47,-310.78 1110.91,-317.34"/>
</a>
</g>
</g>
<!-- Node27 -->
<g id="Node000027" class="node">
<title>Node27</title>
<g id="a_Node000027"><a xlink:href="AABB_8hpp.html" target="_top" xlink:title=" ">
<polygon fill="white" stroke="#666666" points="1095.32,-316 973.32,-316 973.32,-286 1095.32,-286 1095.32,-316"/>
<text text-anchor="start" x="981.32" y="-304" font-family="Helvetica,sans-Serif" font-size="10.00">../../../Geometry/AABB</text>
<text text-anchor="middle" x="1034.32" y="-293" font-family="Helvetica,sans-Serif" font-size="10.00">/AABB.hpp</text>
</a>
</g>
</g>
<!-- Node19&#45;&gt;Node27 -->
<g id="edge33_Node000019_Node000027" class="edge">
<title>Node19&#45;&gt;Node27</title>
<g id="a_edge33_Node000019_Node000027"><a xlink:title=" ">
<path fill="none" stroke="#63b8ff" d="M972.85,-351.8C983.49,-343.18 997.24,-332.04 1009.04,-322.48"/>
<polygon fill="#63b8ff" stroke="#63b8ff" points="1011.27,-325.18 1016.84,-316.16 1006.86,-319.74 1011.27,-325.18"/>
</a>
</g>
</g>
<!-- Node30 -->
<g id="Node000030" class="node">
<title>Node30</title>
<g id="a_Node000030"><a xlink:href="Ray_8hpp.html" target="_top" xlink:title=" ">
<polygon fill="white" stroke="#666666" points="1003.32,-250 917.32,-250 917.32,-231 1003.32,-231 1003.32,-250"/>
<text text-anchor="middle" x="960.32" y="-238" font-family="Helvetica,sans-Serif" font-size="10.00">../Ray/Ray.hpp</text>
</a>
</g>
</g>
<!-- Node19&#45;&gt;Node30 -->
<g id="edge41_Node000019_Node000030" class="edge">
<title>Node19&#45;&gt;Node30</title>
<g id="a_edge41_Node000019_Node000030"><a xlink:title=" ">
<path fill="none" stroke="#63b8ff" d="M955.89,-351.72C956.8,-329.12 958.57,-285.12 959.57,-260.09"/>
<polygon fill="#63b8ff" stroke="#63b8ff" points="963.07,-260.2 959.98,-250.07 956.08,-259.92 963.07,-260.2"/>
</a>
</g>
</g>
<!-- Node20&#45;&gt;Node16 -->
<g id="edge20_Node000020_Node000016" class="edge">
<title>Node20&#45;&gt;Node16</title>
<g id="a_edge20_Node000020_Node000016"><a xlink:title=" ">
<path fill="none" stroke="#63b8ff" d="M687.86,-291.44C700.45,-271.98 731.43,-224.1 748.17,-198.24"/>
<polygon fill="#63b8ff" stroke="#63b8ff" points="751.13,-200.1 753.63,-189.8 745.25,-196.3 751.13,-200.1"/>
</a>
</g>
</g>
<!-- Node20&#45;&gt;Node18 -->
<g id="edge30_Node000020_Node000018" class="edge">
<title>Node20&#45;&gt;Node18</title>
<g id="a_edge30_Node000020_Node000018"><a xlink:title=" ">
<path fill="none" stroke="#63b8ff" d="M669.74,-291.44C640.11,-271.3 565.72,-220.71 528.79,-195.6"/>
<polygon fill="#63b8ff" stroke="#63b8ff" points="530.5,-192.53 520.26,-189.8 526.57,-198.32 530.5,-192.53"/>
</a>
</g>
</g>
<!-- Node20&#45;&gt;Node21 -->
<g id="edge21_Node000020_Node000021" class="edge">
<title>Node20&#45;&gt;Node21</title>
<g id="a_edge21_Node000020_Node000021"><a xlink:title=" ">
<path fill="none" stroke="#63b8ff" d="M678.48,-291.37C674.76,-282.99 668.99,-270.01 664.27,-259.39"/>
<polygon fill="#63b8ff" stroke="#63b8ff" points="667.43,-257.88 660.17,-250.17 661.04,-260.73 667.43,-257.88"/>
</a>
</g>
</g>
<!-- Node21&#45;&gt;Node5 -->
<g id="edge29_Node000021_Node000005" class="edge">
<title>Node21&#45;&gt;Node5</title>
<g id="a_edge29_Node000021_Node000005"><a xlink:title=" ">
<path fill="none" stroke="#63b8ff" d="M688.86,-231.98C723.28,-223.79 779.03,-209.86 826.32,-195 828.45,-194.33 830.63,-193.61 832.82,-192.87"/>
<polygon fill="#63b8ff" stroke="#63b8ff" points="834.08,-196.14 842.34,-189.51 831.75,-189.54 834.08,-196.14"/>
</a>
</g>
</g>
<!-- Node21&#45;&gt;Node16 -->
<g id="edge27_Node000021_Node000016" class="edge">
<title>Node21&#45;&gt;Node16</title>
<g id="a_edge27_Node000021_Node000016"><a xlink:title=" ">
<path fill="none" stroke="#63b8ff" d="M671.52,-230.87C688.33,-221.32 715.64,-205.81 735.34,-194.62"/>
<polygon fill="#63b8ff" stroke="#63b8ff" points="737.09,-197.65 744.06,-189.67 733.64,-191.56 737.09,-197.65"/>
</a>
</g>
</g>
<!-- Node21&#45;&gt;Node18 -->
<g id="edge28_Node000021_Node000018" class="edge">
<title>Node21&#45;&gt;Node18</title>
<g id="a_edge28_Node000021_Node000018"><a xlink:title=" ">
<path fill="none" stroke="#63b8ff" d="M633.12,-230.87C609.63,-222.07 572.32,-207.92 540.32,-195 539.12,-194.52 537.9,-194.02 536.66,-193.51"/>
<polygon fill="#63b8ff" stroke="#63b8ff" points="537.74,-190.17 527.17,-189.55 535.05,-196.63 537.74,-190.17"/>
</a>
</g>
</g>
<!-- Node22 -->
<g id="Node000022" class="node">
<title>Node22</title>
<g id="a_Node000022"><a xlink:href="HitRecord_8hpp.html" target="_top" xlink:title=" ">
<polygon fill="white" stroke="#666666" points="683.32,-195 549.32,-195 549.32,-165 683.32,-165 683.32,-195"/>
<text text-anchor="start" x="557.32" y="-183" font-family="Helvetica,sans-Serif" font-size="10.00">../../Geometry/HitRecord</text>
<text text-anchor="middle" x="616.32" y="-172" font-family="Helvetica,sans-Serif" font-size="10.00">/HitRecord.hpp</text>
</a>
</g>
</g>
<!-- Node21&#45;&gt;Node22 -->
<g id="edge22_Node000021_Node000022" class="edge">
<title>Node21&#45;&gt;Node22</title>
<g id="a_edge22_Node000021_Node000022"><a xlink:title=" ">
<path fill="none" stroke="#63b8ff" d="M650.42,-230.87C645.49,-223.67 638.25,-213.07 631.7,-203.49"/>
<polygon fill="#63b8ff" stroke="#63b8ff" points="634.51,-201.39 625.97,-195.11 628.73,-205.34 634.51,-201.39"/>
</a>
</g>
</g>
<!-- Node23 -->
<g id="Node000023" class="node">
<title>Node23</title>
<g id="a_Node000023"><a xlink:href="Point3D_8hpp.html" target="_top" xlink:title=" ">
<polygon fill="white" stroke="#666666" points="1023.32,-129 897.32,-129 897.32,-110 1023.32,-110 1023.32,-129"/>
<text text-anchor="middle" x="960.32" y="-117" font-family="Helvetica,sans-Serif" font-size="10.00">../Point3D/Point3D.hpp</text>
</a>
</g>
</g>
<!-- Node22&#45;&gt;Node23 -->
<g id="edge23_Node000022_Node000023" class="edge">
<title>Node22&#45;&gt;Node23</title>
<g id="a_edge23_Node000022_Node000023"><a xlink:title=" ">
<path fill="none" stroke="#63b8ff" d="M683.5,-166.73C686.82,-166.14 690.11,-165.56 693.32,-165 763.24,-152.82 843.58,-139.52 897.72,-130.67"/>
<polygon fill="#63b8ff" stroke="#63b8ff" points="898.54,-134.08 907.85,-129.01 897.41,-127.17 898.54,-134.08"/>
</a>
</g>
</g>
<!-- Node24 -->
<g id="Node000024" class="node">
<title>Node24</title>
<g id="a_Node000024"><a xlink:href="Vector3D_8hpp.html" target="_top" xlink:title=" ">
<polygon fill="white" stroke="#666666" points="1029.32,-74 891.32,-74 891.32,-55 1029.32,-55 1029.32,-74"/>
<text text-anchor="middle" x="960.32" y="-62" font-family="Helvetica,sans-Serif" font-size="10.00">../Vector3D/Vector3D.hpp</text>
</a>
</g>
</g>
<!-- Node22&#45;&gt;Node24 -->
<g id="edge26_Node000022_Node000024" class="edge">
<title>Node22&#45;&gt;Node24</title>
<g id="a_edge26_Node000022_Node000024"><a xlink:title=" ">
<path fill="none" stroke="#63b8ff" d="M658.85,-164.97C727.27,-142.39 860.58,-98.41 924.48,-77.33"/>
<polygon fill="#63b8ff" stroke="#63b8ff" points="925.72,-80.6 934.12,-74.14 923.53,-73.95 925.72,-80.6"/>
</a>
</g>
</g>
<!-- Node23&#45;&gt;Node24 -->
<g id="edge24_Node000023_Node000024" class="edge">
<title>Node23&#45;&gt;Node24</title>
<g id="a_edge24_Node000023_Node000024"><a xlink:title=" ">
<path fill="none" stroke="#63b8ff" d="M960.32,-109.75C960.32,-102.8 960.32,-92.85 960.32,-84.13"/>
<polygon fill="#63b8ff" stroke="#63b8ff" points="963.82,-84.09 960.32,-74.09 956.82,-84.09 963.82,-84.09"/>
</a>
</g>
</g>
<!-- Node25 -->
<g id="Node000025" class="node">
<title>Node25</title>
<g id="a_Node000025"><a xlink:title=" ">
<polygon fill="#e0e0e0" stroke="#999999" points="985.82,-19 934.82,-19 934.82,0 985.82,0 985.82,-19"/>
<text text-anchor="middle" x="960.32" y="-7" font-family="Helvetica,sans-Serif" font-size="10.00">math.h</text>
</a>
</g>
</g>
<!-- Node24&#45;&gt;Node25 -->
<g id="edge25_Node000024_Node000025" class="edge">
<title>Node24&#45;&gt;Node25</title>
<g id="a_edge25_Node000024_Node000025"><a xlink:title=" ">
<path fill="none" stroke="#63b8ff" d="M960.32,-54.75C960.32,-47.8 960.32,-37.85 960.32,-29.13"/>
<polygon fill="#63b8ff" stroke="#63b8ff" points="963.82,-29.09 960.32,-19.09 956.82,-29.09 963.82,-29.09"/>
</a>
</g>
</g>
<!-- Node27&#45;&gt;Node17 -->
<g id="edge34_Node000027_Node000017" class="edge">
<title>Node27&#45;&gt;Node17</title>
<g id="a_edge34_Node000027_Node000017"><a xlink:title=" ">
<path fill="none" stroke="#63b8ff" d="M1071.49,-285.97C1087.81,-277.91 1105.65,-266.13 1116.32,-250 1138.81,-216.01 1139.11,-166.07 1137.28,-139.22"/>
<polygon fill="#63b8ff" stroke="#63b8ff" points="1140.76,-138.91 1136.42,-129.25 1133.79,-139.51 1140.76,-138.91"/>
</a>
</g>
</g>
<!-- Node27&#45;&gt;Node23 -->
<g id="edge37_Node000027_Node000023" class="edge">
<title>Node27&#45;&gt;Node23</title>
<g id="a_edge37_Node000027_Node000023"><a xlink:title=" ">
<path fill="none" stroke="#63b8ff" d="M1030.39,-285.8C1026.35,-271.72 1019.63,-249.61 1012.32,-231 999.14,-197.44 980.52,-159.7 969.51,-138.15"/>
<polygon fill="#63b8ff" stroke="#63b8ff" points="972.59,-136.49 964.9,-129.21 966.37,-139.7 972.59,-136.49"/>
</a>
</g>
</g>
<!-- Node28 -->
<g id="Node000028" class="node">
<title>Node28</title>
<g id="a_Node000028"><a xlink:title=" ">
<polygon fill="#e0e0e0" stroke="#999999" points="1106.82,-250 1059.82,-250 1059.82,-231 1106.82,-231 1106.82,-250"/>
<text text-anchor="middle" x="1083.32" y="-238" font-family="Helvetica,sans-Serif" font-size="10.00">cmath</text>
</a>
</g>
</g>
<!-- Node27&#45;&gt;Node28 -->
<g id="edge35_Node000027_Node000028" class="edge">
<title>Node27&#45;&gt;Node28</title>
<g id="a_edge35_Node000027_Node000028"><a xlink:title=" ">
<path fill="none" stroke="#63b8ff" d="M1046.18,-285.84C1053.22,-277.43 1062.18,-266.74 1069.53,-257.96"/>
<polygon fill="#63b8ff" stroke="#63b8ff" points="1072.24,-260.18 1075.98,-250.27 1066.87,-255.68 1072.24,-260.18"/>
</a>
</g>
</g>
<!-- Node29 -->
<g id="Node000029" class="node">
<title>Node29</title>
<g id="a_Node000029"><a xlink:title=" ">
<polygon fill="#e0e0e0" stroke="#999999" points="1207.32,-250 1163.32,-250 1163.32,-231 1207.32,-231 1207.32,-250"/>
<text text-anchor="middle" x="1185.32" y="-238" font-family="Helvetica,sans-Serif" font-size="10.00">limits</text>
</a>
</g>
</g>
<!-- Node27&#45;&gt;Node29 -->
<g id="edge36_Node000027_Node000029" class="edge">
<title>Node27&#45;&gt;Node29</title>
<g id="a_edge36_Node000027_Node000029"><a xlink:title=" ">
<path fill="none" stroke="#63b8ff" d="M1070.49,-285.99C1095.79,-276.18 1129.28,-263.21 1153.56,-253.81"/>
<polygon fill="#63b8ff" stroke="#63b8ff" points="1154.96,-257.02 1163.02,-250.14 1152.43,-250.49 1154.96,-257.02"/>
</a>
</g>
</g>
<!-- Node27&#45;&gt;Node30 -->
<g id="edge38_Node000027_Node000030" class="edge">
<title>Node27&#45;&gt;Node30</title>
<g id="a_edge38_Node000027_Node000030"><a xlink:title=" ">
<path fill="none" stroke="#63b8ff" d="M1016.41,-285.84C1005.23,-277 990.85,-265.63 979.44,-256.62"/>
<polygon fill="#63b8ff" stroke="#63b8ff" points="981.42,-253.72 971.41,-250.27 977.08,-259.21 981.42,-253.72"/>
</a>
</g>
</g>
<!-- Node30&#45;&gt;Node23 -->
<g id="edge39_Node000030_Node000023" class="edge">
<title>Node30&#45;&gt;Node23</title>
<g id="a_edge39_Node000030_Node000023"><a xlink:title=" ">
<path fill="none" stroke="#63b8ff" d="M960.32,-230.94C960.32,-211.91 960.32,-165.69 960.32,-139.47"/>
<polygon fill="#63b8ff" stroke="#63b8ff" points="963.82,-139.3 960.32,-129.3 956.82,-139.3 963.82,-139.3"/>
</a>
</g>
</g>
<!-- Node30&#45;&gt;Node24 -->
<g id="edge40_Node000030_Node000024" class="edge">
<title>Node30&#45;&gt;Node24</title>
<g id="a_edge40_Node000030_Node000024"><a xlink:title=" ">
<path fill="none" stroke="#63b8ff" d="M968.47,-230.96C984.49,-213.51 1019.61,-171.8 1032.32,-129 1034.73,-120.91 1036.43,-117.38 1032.32,-110 1024.28,-95.58 1009.42,-85.24 995.28,-78.18"/>
<polygon fill="#63b8ff" stroke="#63b8ff" points="996.72,-74.99 986.18,-74.01 993.81,-81.36 996.72,-74.99"/>
</a>
</g>
</g>
<!-- Node31&#45;&gt;Node3 -->
<g id="edge46_Node000031_Node000003" class="edge">
<title>Node31&#45;&gt;Node3</title>
<g id="a_edge46_Node000031_Node000003"><a xlink:title=" ">
<path fill="none" stroke="#63b8ff" d="M796.23,-527.96C777.81,-512.54 746.19,-487.97 715.32,-473 683.87,-457.75 646.17,-446.67 616.19,-439.38"/>
<polygon fill="#63b8ff" stroke="#63b8ff" points="616.87,-435.95 606.33,-437.05 615.26,-442.76 616.87,-435.95"/>
</a>
</g>
</g>
<!-- Node31&#45;&gt;Node5 -->
<g id="edge62_Node000031_Node000005" class="edge">
<title>Node31&#45;&gt;Node5</title>
<g id="a_edge62_Node000031_Node000005"><a xlink:title=" ">
<path fill="none" stroke="#63b8ff" d="M808.38,-527.79C802.82,-506.43 793.32,-464.66 793.32,-428.5 793.32,-428.5 793.32,-428.5 793.32,-300 793.32,-258.19 826.04,-218.3 847.06,-197"/>
<polygon fill="#63b8ff" stroke="#63b8ff" points="849.74,-199.27 854.45,-189.78 844.85,-194.26 849.74,-199.27"/>
</a>
</g>
</g>
<!-- Node31&#45;&gt;Node18 -->
<g id="edge61_Node000031_Node000018" class="edge">
<title>Node31&#45;&gt;Node18</title>
<g id="a_edge61_Node000031_Node000018"><a xlink:title=" ">
<path fill="none" stroke="#63b8ff" d="M748.01,-539.74C556.19,-532.17 1.32,-503.76 1.32,-428.5 1.32,-428.5 1.32,-428.5 1.32,-300 1.32,-268.19 -3.96,-251.54 20.32,-231 54.86,-201.78 368.88,-186.57 473.55,-182.29"/>
<polygon fill="#63b8ff" stroke="#63b8ff" points="473.72,-185.78 483.57,-181.88 473.44,-178.79 473.72,-185.78"/>
</a>
</g>
</g>
<!-- Node31&#45;&gt;Node26 -->
<g id="edge63_Node000031_Node000026" class="edge">
<title>Node31&#45;&gt;Node26</title>
<g id="a_edge63_Node000031_Node000026"><a xlink:title=" ">
<path fill="none" stroke="#63b8ff" d="M867.52,-527.94C919.86,-512.46 998.44,-483.42 1053.32,-437 1092.53,-403.84 1120.75,-348.83 1133.59,-320.35"/>
<polygon fill="#63b8ff" stroke="#63b8ff" points="1136.95,-321.4 1137.74,-310.83 1130.53,-318.6 1136.95,-321.4"/>
</a>
</g>
</g>
<!-- Node31&#45;&gt;Node30 -->
<g id="edge60_Node000031_Node000030" class="edge">
<title>Node31&#45;&gt;Node30</title>
<g id="a_edge60_Node000031_Node000030"><a xlink:title=" ">
<path fill="none" stroke="#63b8ff" d="M816.26,-527.79C821.82,-506.43 831.32,-464.66 831.32,-428.5 831.32,-428.5 831.32,-428.5 831.32,-366 831.32,-311.2 892.35,-272.88 930.45,-254.3"/>
<polygon fill="#63b8ff" stroke="#63b8ff" points="932.03,-257.43 939.59,-250.01 929.06,-251.09 932.03,-257.43"/>
</a>
</g>
</g>
<!-- Node32 -->
<g id="Node000032" class="node">
<title>Node32</title>
<g id="a_Node000032"><a xlink:href="PluginManager_8hpp.html" target="_top" xlink:title="Plugin manager for loading and managing plugins.">
<polygon fill="white" stroke="#666666" points="563.32,-492 369.32,-492 369.32,-473 563.32,-473 563.32,-492"/>
<text text-anchor="middle" x="466.32" y="-480" font-family="Helvetica,sans-Serif" font-size="10.00">../PluginManager/PluginManager.hpp</text>
</a>
</g>
</g>
<!-- Node31&#45;&gt;Node32 -->
<g id="edge47_Node000031_Node000032" class="edge">
<title>Node31&#45;&gt;Node32</title>
<g id="a_edge47_Node000031_Node000032"><a xlink:title=" ">
<path fill="none" stroke="#63b8ff" d="M748.05,-531.13C684.74,-520.43 588.75,-504.2 526.79,-493.72"/>
<polygon fill="#63b8ff" stroke="#63b8ff" points="527.21,-490.25 516.77,-492.03 526.04,-497.15 527.21,-490.25"/>
</a>
</g>
</g>
<!-- Node35 -->
<g id="Node000035" class="node">
<title>Node35</title>
<g id="a_Node000035"><a xlink:href="BVH_8hpp.html" target="_top" xlink:title=" ">
<polygon fill="white" stroke="#666666" points="1044.32,-437 952.32,-437 952.32,-418 1044.32,-418 1044.32,-437"/>
<text text-anchor="middle" x="998.32" y="-425" font-family="Helvetica,sans-Serif" font-size="10.00">../BVH/BVH.hpp</text>
</a>
</g>
</g>
<!-- Node31&#45;&gt;Node35 -->
<g id="edge52_Node000031_Node000035" class="edge">
<title>Node31&#45;&gt;Node35</title>
<g id="a_edge52_Node000031_Node000035"><a xlink:title=" ">
<path fill="none" stroke="#63b8ff" d="M835.5,-527.85C871.26,-506.03 939.47,-464.41 975.2,-442.61"/>
<polygon fill="#63b8ff" stroke="#63b8ff" points="977.23,-445.47 983.95,-437.27 973.59,-439.49 977.23,-445.47"/>
</a>
</g>
</g>
<!-- Node32&#45;&gt;Node3 -->
<g id="edge51_Node000032_Node000003" class="edge">
<title>Node32&#45;&gt;Node3</title>
<g id="a_edge51_Node000032_Node000003"><a xlink:title=" ">
<path fill="none" stroke="#63b8ff" d="M481.91,-472.98C497.09,-464.69 520.42,-451.94 538.22,-442.22"/>
<polygon fill="#63b8ff" stroke="#63b8ff" points="540.36,-445.04 547.45,-437.17 537,-438.89 540.36,-445.04"/>
</a>
</g>
</g>
<!-- Node32&#45;&gt;Node11 -->
<g id="edge50_Node000032_Node000011" class="edge">
<title>Node32&#45;&gt;Node11</title>
<g id="a_edge50_Node000032_Node000011"><a xlink:title=" ">
<path fill="none" stroke="#63b8ff" d="M381.47,-472.99C273.92,-460.24 97.73,-432.17 58.32,-382 30.53,-346.62 43.3,-289.29 52.62,-260"/>
<polygon fill="#63b8ff" stroke="#63b8ff" points="56.02,-260.85 55.92,-250.26 49.4,-258.6 56.02,-260.85"/>
</a>
</g>
</g>
<!-- Node33 -->
<g id="Node000033" class="node">
<title>Node33</title>
<g id="a_Node000033"><a xlink:title=" ">
<polygon fill="#e0e0e0" stroke="#999999" points="421.32,-437 371.32,-437 371.32,-418 421.32,-418 421.32,-437"/>
<text text-anchor="middle" x="396.32" y="-425" font-family="Helvetica,sans-Serif" font-size="10.00">dlfcn.h</text>
</a>
</g>
</g>
<!-- Node32&#45;&gt;Node33 -->
<g id="edge48_Node000032_Node000033" class="edge">
<title>Node32&#45;&gt;Node33</title>
<g id="a_edge48_Node000032_Node000033"><a xlink:title=" ">
<path fill="none" stroke="#63b8ff" d="M455.07,-472.98C444.52,-465 428.52,-452.88 415.88,-443.31"/>
<polygon fill="#63b8ff" stroke="#63b8ff" points="417.86,-440.42 407.77,-437.17 413.63,-446 417.86,-440.42"/>
</a>
</g>
</g>
<!-- Node34 -->
<g id="Node000034" class="node">
<title>Node34</title>
<g id="a_Node000034"><a xlink:title=" ">
<polygon fill="#e0e0e0" stroke="#999999" points="493.32,-437 439.32,-437 439.32,-418 493.32,-418 493.32,-437"/>
<text text-anchor="middle" x="466.32" y="-425" font-family="Helvetica,sans-Serif" font-size="10.00">dirent.h</text>
</a>
</g>
</g>
<!-- Node32&#45;&gt;Node34 -->
<g id="edge49_Node000032_Node000034" class="edge">
<title>Node32&#45;&gt;Node34</title>
<g id="a_edge49_Node000032_Node000034"><a xlink:title=" ">
<path fill="none" stroke="#63b8ff" d="M466.32,-472.75C466.32,-465.8 466.32,-455.85 466.32,-447.13"/>
<polygon fill="#63b8ff" stroke="#63b8ff" points="469.82,-447.09 466.32,-437.09 462.82,-447.09 469.82,-447.09"/>
</a>
</g>
</g>
<!-- Node35&#45;&gt;Node5 -->
<g id="edge55_Node000035_Node000005" class="edge">
<title>Node35&#45;&gt;Node5</title>
<g id="a_edge55_Node000035_Node000005"><a xlink:title=" ">
<path fill="none" stroke="#63b8ff" d="M952.28,-419.17C929.49,-413.1 903.65,-402.05 888.32,-382 846.54,-327.34 854.62,-238.75 860.74,-200.08"/>
<polygon fill="#63b8ff" stroke="#63b8ff" points="864.27,-200.22 862.52,-189.77 857.37,-199.03 864.27,-200.22"/>
</a>
</g>
</g>
<!-- Node35&#45;&gt;Node17 -->
<g id="edge53_Node000035_Node000017" class="edge">
<title>Node35&#45;&gt;Node17</title>
<g id="a_edge53_Node000035_Node000017"><a xlink:title=" ">
<path fill="none" stroke="#63b8ff" d="M1044.35,-425.77C1122.64,-421.82 1273.32,-401.31 1273.32,-302 1273.32,-302 1273.32,-302 1273.32,-239.5 1273.32,-184.88 1210.55,-149.8 1169.68,-132.76"/>
<polygon fill="#63b8ff" stroke="#63b8ff" points="1170.9,-129.48 1160.31,-129 1168.29,-135.97 1170.9,-129.48"/>
</a>
</g>
</g>
<!-- Node35&#45;&gt;Node18 -->
<g id="edge57_Node000035_Node000018" class="edge">
<title>Node35&#45;&gt;Node18</title>
<g id="a_edge57_Node000035_Node000018"><a xlink:title=" ">
<path fill="none" stroke="#63b8ff" d="M952.3,-420.96C878.85,-410.39 732.78,-382.24 628.32,-316 578.65,-284.5 537.02,-227.05 518.16,-198.32"/>
<polygon fill="#63b8ff" stroke="#63b8ff" points="521.01,-196.28 512.66,-189.76 515.12,-200.07 521.01,-196.28"/>
</a>
</g>
</g>
<!-- Node35&#45;&gt;Node19 -->
<g id="edge59_Node000035_Node000019" class="edge">
<title>Node35&#45;&gt;Node19</title>
<g id="a_edge59_Node000035_Node000019"><a xlink:title=" ">
<path fill="none" stroke="#63b8ff" d="M991.98,-417.87C986.63,-410.59 978.73,-399.85 971.64,-390.2"/>
<polygon fill="#63b8ff" stroke="#63b8ff" points="974.44,-388.1 965.7,-382.11 968.8,-392.25 974.44,-388.1"/>
</a>
</g>
</g>
<!-- Node35&#45;&gt;Node26 -->
<g id="edge56_Node000035_Node000026" class="edge">
<title>Node35&#45;&gt;Node26</title>
<g id="a_edge56_Node000035_Node000026"><a xlink:title=" ">
<path fill="none" stroke="#63b8ff" d="M1008.15,-417.94C1032.03,-397.15 1093.36,-343.76 1123.73,-317.31"/>
<polygon fill="#63b8ff" stroke="#63b8ff" points="1126.18,-319.82 1131.42,-310.62 1121.58,-314.54 1126.18,-319.82"/>
</a>
</g>
</g>
<!-- Node35&#45;&gt;Node27 -->
<g id="edge58_Node000035_Node000027" class="edge">
<title>Node35&#45;&gt;Node27</title>
<g id="a_edge58_Node000035_Node000027"><a xlink:title=" ">
<path fill="none" stroke="#63b8ff" d="M1004.25,-417.71C1009.82,-409.02 1017.94,-395.16 1022.32,-382 1028.35,-363.92 1031.36,-342.53 1032.85,-326.42"/>
<polygon fill="#63b8ff" stroke="#63b8ff" points="1036.36,-326.46 1033.67,-316.22 1029.38,-325.91 1036.36,-326.46"/>
</a>
</g>
</g>
<!-- Node35&#45;&gt;Node29 -->
<g id="edge54_Node000035_Node000029" class="edge">
<title>Node35&#45;&gt;Node29</title>
<g id="a_edge54_Node000035_Node000029"><a xlink:title=" ">
<path fill="none" stroke="#63b8ff" d="M1027.97,-417.98C1069.82,-404.2 1144.85,-372.67 1178.32,-316 1188.32,-299.08 1188.94,-276.14 1187.78,-260.2"/>
<polygon fill="#63b8ff" stroke="#63b8ff" points="1191.24,-259.61 1186.73,-250.03 1184.28,-260.33 1191.24,-259.61"/>
</a>
</g>
</g>
</g>
</svg>
