<?xml version="1.0" encoding="UTF-8" standalone="no"?>
<!DOCTYPE svg PUBLIC "-//W3C//DTD SVG 1.1//EN"
 "http://www.w3.org/Graphics/SVG/1.1/DTD/svg11.dtd">
<!-- Generated by graphviz version 2.43.0 (0)
 -->
<!-- Title: src/Objects/Plugins/CorePlugin/Interfaces/SceneWriter/SceneWriter.cpp Pages: 1 -->
<!--zoomable 632 -->

<svg id="main" version="1.1" xmlns="http://www.w3.org/2000/svg" xmlns:xlink="http://www.w3.org/1999/xlink" xml:space="preserve" onload="init(evt)">
<style type="text/css"><![CDATA[
.node, .edge {opacity: 0.7;}
.node.selected, .edge.selected {opacity: 1;}
.edge:hover path { stroke: red; }
.edge:hover polygon { stroke: red; fill: red; }
]]></style>

<defs>
  <circle id="rim" cx="0" cy="0" r="7"/>
  <circle id="rim2" cx="0" cy="0" r="3.5"/>
  <g id="zoomPlus">
    <use xlink:href="#rim" fill="#404040"><set attributeName="fill" to="#808080" begin="zoomplus.mouseover" end="zoomplus.mouseout"/></use>
    <path d="M-4,0h8M0,-4v8" fill="none" stroke="white" stroke-width="1.5" pointer-events="none"/>
  </g>
  <g id="zoomMin">
    <use xlink:href="#rim" fill="#404040"><set attributeName="fill" to="#808080" begin="zoomminus.mouseover" end="zoomminus.mouseout"/></use>
    <path d="M-4,0h8" fill="none" stroke="white" stroke-width="1.5" pointer-events="none"/>
  </g>
  <g id="arrowUp" transform="translate(30 24)">
    <use xlink:href="#rim"/>
    <path pointer-events="none" fill="none" stroke="white" stroke-width="1.5" d="M0,-3.0v7 M-2.5,-0.5L0,-3.0L2.5,-0.5"/>
  </g>
  <g id="arrowRight" transform="rotate(90) translate(36 -43)">
    <use xlink:href="#rim"/>
    <path pointer-events="none" fill="none" stroke="white" stroke-width="1.5" d="M0,-3.0v7 M-2.5,-0.5L0,-3.0L2.5,-0.5"/>
  </g>
  <g id="arrowDown" transform="rotate(180) translate(-30 -48)">
    <use xlink:href="#rim"/>
    <path pointer-events="none" fill="none" stroke="white" stroke-width="1.5" d="M0,-3.0v7 M-2.5,-0.5L0,-3.0L2.5,-0.5"/>
  </g>
  <g id="arrowLeft" transform="rotate(270) translate(-36 17)">
    <use xlink:href="#rim"/>
    <path pointer-events="none" fill="none" stroke="white" stroke-width="1.5" d="M0,-3.0v7 M-2.5,-0.5L0,-3.0L2.5,-0.5"/>
  </g>
  <g id="resetDef">
    <use xlink:href="#rim2" fill="#404040"><set attributeName="fill" to="#808080" begin="reset.mouseover" end="reset.mouseout"/></use>
  </g>
</defs>
<script type="application/ecmascript">
var viewWidth = 1036;
var viewHeight = 632;
var sectionId = 'dynsection-0';
</script>
<script type="application/ecmascript" xlink:href="svg.min.js"/>
<svg id="graph" class="graph">
<g id="viewport">
<title>src/Objects/Plugins/CorePlugin/Interfaces/SceneWriter/SceneWriter.cpp</title>
<!-- Node1 -->
<g id="Node000001" class="node">
<title>Node1</title>
<g id="a_Node000001"><a xlink:title=" ">
<polygon fill="#999999" stroke="#666666" points="232.5,-624 71.5,-624 71.5,-583 232.5,-583 232.5,-624"/>
<text text-anchor="start" x="79.5" y="-612" font-family="Helvetica,sans-Serif" font-size="10.00">src/Objects/Plugins</text>
<text text-anchor="start" x="79.5" y="-601" font-family="Helvetica,sans-Serif" font-size="10.00">/CorePlugin/Interfaces</text>
<text text-anchor="middle" x="152" y="-590" font-family="Helvetica,sans-Serif" font-size="10.00">/SceneWriter/SceneWriter.cpp</text>
</a>
</g>
</g>
<!-- Node2 -->
<g id="Node000002" class="node">
<title>Node2</title>
<g id="a_Node000002"><a xlink:href="SceneWriter_8hpp.html" target="_top" xlink:title=" ">
<polygon fill="white" stroke="#666666" points="124,-481 28,-481 28,-462 124,-462 124,-481"/>
<text text-anchor="middle" x="76" y="-469" font-family="Helvetica,sans-Serif" font-size="10.00">SceneWriter.hpp</text>
</a>
</g>
</g>
<!-- Node1&#45;&gt;Node2 -->
<g id="edge1_Node000001_Node000002" class="edge">
<title>Node1&#45;&gt;Node2</title>
<g id="a_edge1_Node000001_Node000002"><a xlink:title=" ">
<path fill="none" stroke="#63b8ff" d="M140.46,-582.76C125.64,-557.41 100.17,-513.84 86.09,-489.76"/>
<polygon fill="#63b8ff" stroke="#63b8ff" points="89.05,-487.88 80.98,-481.01 83,-491.41 89.05,-487.88"/>
</a>
</g>
</g>
<!-- Node15 -->
<g id="Node000015" class="node">
<title>Node15</title>
<g id="a_Node000015"><a xlink:href="Color_8hpp.html" target="_top" xlink:title=" ">
<polygon fill="white" stroke="#666666" points="295.5,-189.5 180.5,-189.5 180.5,-170.5 295.5,-170.5 295.5,-189.5"/>
<text text-anchor="middle" x="238" y="-177.5" font-family="Helvetica,sans-Serif" font-size="10.00">../../../Utils/Color.hpp</text>
</a>
</g>
</g>
<!-- Node1&#45;&gt;Node15 -->
<g id="edge47_Node000001_Node000015" class="edge">
<title>Node1&#45;&gt;Node15</title>
<g id="a_edge47_Node000001_Node000015"><a xlink:title=" ">
<path fill="none" stroke="#63b8ff" d="M99.69,-582.89C55.72,-562.63 0,-526.32 0,-472.5 0,-472.5 0,-472.5 0,-294.5 0,-218.58 99.88,-193.39 170.24,-185.07"/>
<polygon fill="#63b8ff" stroke="#63b8ff" points="170.83,-188.52 180.39,-183.96 170.07,-181.57 170.83,-188.52"/>
</a>
</g>
</g>
<!-- Node27 -->
<g id="Node000027" class="node">
<title>Node27</title>
<g id="a_Node000027"><a xlink:href="Scene_8hpp.html" target="_top" xlink:title=" ">
<polygon fill="white" stroke="#666666" points="383,-547 255,-547 255,-517 383,-517 383,-547"/>
<text text-anchor="start" x="263" y="-535" font-family="Helvetica,sans-Serif" font-size="10.00">../../../../../SceneSystem</text>
<text text-anchor="middle" x="319" y="-524" font-family="Helvetica,sans-Serif" font-size="10.00">/Scene/Scene.hpp</text>
</a>
</g>
</g>
<!-- Node1&#45;&gt;Node27 -->
<g id="edge38_Node000001_Node000027" class="edge">
<title>Node1&#45;&gt;Node27</title>
<g id="a_edge38_Node000001_Node000027"><a xlink:title=" ">
<path fill="none" stroke="#63b8ff" d="M198.96,-582.96C223.13,-572.9 252.38,-560.73 275.96,-550.91"/>
<polygon fill="#63b8ff" stroke="#63b8ff" points="277.46,-554.08 285.35,-547 274.77,-547.61 277.46,-554.08"/>
</a>
</g>
</g>
<!-- Node31 -->
<g id="Node000031" class="node">
<title>Node31</title>
<g id="a_Node000031"><a xlink:title=" ">
<polygon fill="#e0e0e0" stroke="#999999" points="456.5,-541.5 401.5,-541.5 401.5,-522.5 456.5,-522.5 456.5,-541.5"/>
<text text-anchor="middle" x="429" y="-529.5" font-family="Helvetica,sans-Serif" font-size="10.00">fstream</text>
</a>
</g>
</g>
<!-- Node1&#45;&gt;Node31 -->
<g id="edge48_Node000001_Node000031" class="edge">
<title>Node1&#45;&gt;Node31</title>
<g id="a_edge48_Node000001_Node000031"><a xlink:title=" ">
<path fill="none" stroke="#63b8ff" d="M232.71,-586.67C279.62,-576.76 339.62,-562.89 392,-547 393.92,-546.42 395.89,-545.78 397.86,-545.12"/>
<polygon fill="#63b8ff" stroke="#63b8ff" points="399.4,-548.29 407.65,-541.64 397.05,-541.69 399.4,-548.29"/>
</a>
</g>
</g>
<!-- Node3 -->
<g id="Node000003" class="node">
<title>Node3</title>
<g id="a_Node000003"><a xlink:href="Plugin_8hpp.html" target="_top" xlink:title=" ">
<polygon fill="white" stroke="#666666" points="462,-426 358,-426 358,-407 462,-407 462,-426"/>
<text text-anchor="middle" x="410" y="-414" font-family="Helvetica,sans-Serif" font-size="10.00">../../../../Plugin.hpp</text>
</a>
</g>
</g>
<!-- Node2&#45;&gt;Node3 -->
<g id="edge2_Node000002_Node000003" class="edge">
<title>Node2&#45;&gt;Node3</title>
<g id="a_edge2_Node000002_Node000003"><a xlink:title=" ">
<path fill="none" stroke="#63b8ff" d="M124.21,-462.85C183.2,-453.49 283.19,-437.62 347.89,-427.36"/>
<polygon fill="#63b8ff" stroke="#63b8ff" points="348.63,-430.78 357.96,-425.76 347.53,-423.87 348.63,-430.78"/>
</a>
</g>
</g>
<!-- Node4 -->
<g id="Node000004" class="node">
<title>Node4</title>
<g id="a_Node000004"><a xlink:title=" ">
<polygon fill="#e0e0e0" stroke="#999999" points="303.5,-365.5 238.5,-365.5 238.5,-346.5 303.5,-346.5 303.5,-365.5"/>
<text text-anchor="middle" x="271" y="-353.5" font-family="Helvetica,sans-Serif" font-size="10.00">functional</text>
</a>
</g>
</g>
<!-- Node3&#45;&gt;Node4 -->
<g id="edge3_Node000003_Node000004" class="edge">
<title>Node3&#45;&gt;Node4</title>
<g id="a_edge3_Node000003_Node000004"><a xlink:title=" ">
<path fill="none" stroke="#63b8ff" d="M389.79,-406.99C366.32,-397.12 327.39,-380.73 300.54,-369.43"/>
<polygon fill="#63b8ff" stroke="#63b8ff" points="301.81,-366.17 291.24,-365.52 299.1,-372.62 301.81,-366.17"/>
</a>
</g>
</g>
<!-- Node5 -->
<g id="Node000005" class="node">
<title>Node5</title>
<g id="a_Node000005"><a xlink:title=" ">
<polygon fill="#e0e0e0" stroke="#999999" points="884,-189.5 826,-189.5 826,-170.5 884,-170.5 884,-189.5"/>
<text text-anchor="middle" x="855" y="-177.5" font-family="Helvetica,sans-Serif" font-size="10.00">memory</text>
</a>
</g>
</g>
<!-- Node3&#45;&gt;Node5 -->
<g id="edge4_Node000003_Node000005" class="edge">
<title>Node3&#45;&gt;Node5</title>
<g id="a_edge4_Node000003_Node000005"><a xlink:title=" ">
<path fill="none" stroke="#63b8ff" d="M462.22,-413.18C561.72,-408.26 774.73,-395.19 844,-371 895.33,-353.07 920.91,-352.7 947,-305 970.5,-262.04 913.61,-217.25 879.1,-195.12"/>
<polygon fill="#63b8ff" stroke="#63b8ff" points="880.8,-192.05 870.46,-189.74 877.1,-198 880.8,-192.05"/>
</a>
</g>
</g>
<!-- Node6 -->
<g id="Node000006" class="node">
<title>Node6</title>
<g id="a_Node000006"><a xlink:title=" ">
<polygon fill="#e0e0e0" stroke="#999999" points="372.5,-365.5 321.5,-365.5 321.5,-346.5 372.5,-346.5 372.5,-365.5"/>
<text text-anchor="middle" x="347" y="-353.5" font-family="Helvetica,sans-Serif" font-size="10.00">variant</text>
</a>
</g>
</g>
<!-- Node3&#45;&gt;Node6 -->
<g id="edge5_Node000003_Node000006" class="edge">
<title>Node3&#45;&gt;Node6</title>
<g id="a_edge5_Node000003_Node000006"><a xlink:title=" ">
<path fill="none" stroke="#63b8ff" d="M400.7,-406.87C391.03,-397.88 375.66,-383.61 363.84,-372.64"/>
<polygon fill="#63b8ff" stroke="#63b8ff" points="366.04,-369.91 356.33,-365.67 361.28,-375.04 366.04,-369.91"/>
</a>
</g>
</g>
<!-- Node7 -->
<g id="Node000007" class="node">
<title>Node7</title>
<g id="a_Node000007"><a xlink:title=" ">
<polygon fill="#e0e0e0" stroke="#999999" points="429,-365.5 391,-365.5 391,-346.5 429,-346.5 429,-365.5"/>
<text text-anchor="middle" x="410" y="-353.5" font-family="Helvetica,sans-Serif" font-size="10.00">map</text>
</a>
</g>
</g>
<!-- Node3&#45;&gt;Node7 -->
<g id="edge6_Node000003_Node000007" class="edge">
<title>Node3&#45;&gt;Node7</title>
<g id="a_edge6_Node000003_Node000007"><a xlink:title=" ">
<path fill="none" stroke="#63b8ff" d="M410,-406.87C410,-398.75 410,-386.31 410,-375.89"/>
<polygon fill="#63b8ff" stroke="#63b8ff" points="413.5,-375.67 410,-365.67 406.5,-375.67 413.5,-375.67"/>
</a>
</g>
</g>
<!-- Node8 -->
<g id="Node000008" class="node">
<title>Node8</title>
<g id="a_Node000008"><a xlink:href="RaytracerException_8hpp.html" target="_top" xlink:title=" ">
<polygon fill="white" stroke="#666666" points="834.5,-371 657.5,-371 657.5,-341 834.5,-341 834.5,-371"/>
<text text-anchor="start" x="665.5" y="-359" font-family="Helvetica,sans-Serif" font-size="10.00">../Exceptions/RaytracerException</text>
<text text-anchor="middle" x="746" y="-348" font-family="Helvetica,sans-Serif" font-size="10.00">/RaytracerException.hpp</text>
</a>
</g>
</g>
<!-- Node3&#45;&gt;Node8 -->
<g id="edge7_Node000003_Node000008" class="edge">
<title>Node3&#45;&gt;Node8</title>
<g id="a_edge7_Node000003_Node000008"><a xlink:title=" ">
<path fill="none" stroke="#63b8ff" d="M458.86,-406.99C510.26,-398.04 592.31,-383.76 655.56,-372.75"/>
<polygon fill="#63b8ff" stroke="#63b8ff" points="656.29,-376.17 665.55,-371.01 655.09,-369.27 656.29,-376.17"/>
</a>
</g>
</g>
<!-- Node13 -->
<g id="Node000013" class="node">
<title>Node13</title>
<g id="a_Node000013"><a xlink:href="AInterface_8hpp.html" target="_top" xlink:title=" ">
<polygon fill="white" stroke="#666666" points="182,-371 66,-371 66,-341 182,-341 182,-371"/>
<text text-anchor="start" x="74" y="-359" font-family="Helvetica,sans-Serif" font-size="10.00">Abstracts/AInterface</text>
<text text-anchor="middle" x="124" y="-348" font-family="Helvetica,sans-Serif" font-size="10.00">/AInterface.hpp</text>
</a>
</g>
</g>
<!-- Node3&#45;&gt;Node13 -->
<g id="edge12_Node000003_Node000013" class="edge">
<title>Node3&#45;&gt;Node13</title>
<g id="a_edge12_Node000003_Node000013"><a xlink:title=" ">
<path fill="none" stroke="#63b8ff" d="M368.41,-406.99C322.25,-397.55 247.05,-382.17 192.23,-370.96"/>
<polygon fill="#63b8ff" stroke="#63b8ff" points="192.74,-367.49 182.24,-368.91 191.34,-374.35 192.74,-367.49"/>
</a>
</g>
</g>
<!-- Node14 -->
<g id="Node000014" class="node">
<title>Node14</title>
<g id="a_Node000014"><a xlink:href="ARenderer_8hpp.html" target="_top" xlink:title=" ">
<polygon fill="white" stroke="#666666" points="289.5,-250 138.5,-250 138.5,-231 289.5,-231 289.5,-250"/>
<text text-anchor="middle" x="214" y="-238" font-family="Helvetica,sans-Serif" font-size="10.00">../ARenderer/ARenderer.hpp</text>
</a>
</g>
</g>
<!-- Node3&#45;&gt;Node14 -->
<g id="edge35_Node000003_Node000014" class="edge">
<title>Node3&#45;&gt;Node14</title>
<g id="a_edge35_Node000003_Node000014"><a xlink:title=" ">
<path fill="none" stroke="#63b8ff" d="M357.72,-409.3C310.48,-402.55 245.85,-390.12 229,-371 201.77,-340.11 205.67,-287.72 210.2,-259.99"/>
<polygon fill="#63b8ff" stroke="#63b8ff" points="213.66,-260.52 212.03,-250.05 206.78,-259.25 213.66,-260.52"/>
</a>
</g>
</g>
<!-- Node18 -->
<g id="Node000018" class="node">
<title>Node18</title>
<g id="a_Node000018"><a xlink:href="APrimitive_8hpp.html" target="_top" xlink:title=" ">
<polygon fill="white" stroke="#666666" points="639,-371 523,-371 523,-341 639,-341 639,-371"/>
<text text-anchor="start" x="531" y="-359" font-family="Helvetica,sans-Serif" font-size="10.00">Abstracts/APrimitive</text>
<text text-anchor="middle" x="581" y="-348" font-family="Helvetica,sans-Serif" font-size="10.00">/APrimitive.hpp</text>
</a>
</g>
</g>
<!-- Node3&#45;&gt;Node18 -->
<g id="edge17_Node000003_Node000018" class="edge">
<title>Node3&#45;&gt;Node18</title>
<g id="a_edge17_Node000003_Node000018"><a xlink:title=" ">
<path fill="none" stroke="#63b8ff" d="M434.86,-406.99C459.8,-398.46 498.9,-385.09 530.39,-374.32"/>
<polygon fill="#63b8ff" stroke="#63b8ff" points="531.56,-377.61 539.89,-371.06 529.29,-370.99 531.56,-377.61"/>
</a>
</g>
</g>
<!-- Node19 -->
<g id="Node000019" class="node">
<title>Node19</title>
<g id="a_Node000019"><a xlink:href="IMaterial_8hpp.html" target="_top" xlink:title=" ">
<polygon fill="white" stroke="#666666" points="415,-305 325,-305 325,-286 415,-286 415,-305"/>
<text text-anchor="middle" x="370" y="-293" font-family="Helvetica,sans-Serif" font-size="10.00">../IMaterial.hpp</text>
</a>
</g>
</g>
<!-- Node3&#45;&gt;Node19 -->
<g id="edge37_Node000003_Node000019" class="edge">
<title>Node3&#45;&gt;Node19</title>
<g id="a_edge37_Node000003_Node000019"><a xlink:title=" ">
<path fill="none" stroke="#63b8ff" d="M417.88,-406.91C429.9,-392.69 450.22,-363.61 438,-341 430.42,-326.98 416.3,-316.67 402.87,-309.53"/>
<polygon fill="#63b8ff" stroke="#63b8ff" points="404.3,-306.33 393.78,-305.08 401.23,-312.62 404.3,-306.33"/>
</a>
</g>
</g>
<!-- Node20 -->
<g id="Node000020" class="node">
<title>Node20</title>
<g id="a_Node000020"><a xlink:href="ILight_8hpp.html" target="_top" xlink:title=" ">
<polygon fill="white" stroke="#666666" points="466.5,-250 401.5,-250 401.5,-231 466.5,-231 466.5,-250"/>
<text text-anchor="middle" x="434" y="-238" font-family="Helvetica,sans-Serif" font-size="10.00">ILight.hpp</text>
</a>
</g>
</g>
<!-- Node3&#45;&gt;Node20 -->
<g id="edge36_Node000003_Node000020" class="edge">
<title>Node3&#45;&gt;Node20</title>
<g id="a_edge36_Node000003_Node000020"><a xlink:title=" ">
<path fill="none" stroke="#63b8ff" d="M422.49,-406.93C432.87,-398.99 446.88,-386.14 453,-371 468.27,-333.23 452.83,-284.84 442.21,-259.24"/>
<polygon fill="#63b8ff" stroke="#63b8ff" points="445.4,-257.8 438.18,-250.04 438.98,-260.6 445.4,-257.8"/>
</a>
</g>
</g>
<!-- Node9 -->
<g id="Node000009" class="node">
<title>Node9</title>
<g id="a_Node000009"><a xlink:title=" ">
<polygon fill="#e0e0e0" stroke="#999999" points="797.5,-305 732.5,-305 732.5,-286 797.5,-286 797.5,-305"/>
<text text-anchor="middle" x="765" y="-293" font-family="Helvetica,sans-Serif" font-size="10.00">exception</text>
</a>
</g>
</g>
<!-- Node8&#45;&gt;Node9 -->
<g id="edge8_Node000008_Node000009" class="edge">
<title>Node8&#45;&gt;Node9</title>
<g id="a_edge8_Node000008_Node000009"><a xlink:title=" ">
<path fill="none" stroke="#63b8ff" d="M750.6,-340.84C753.13,-333.04 756.31,-323.27 759.03,-314.89"/>
<polygon fill="#63b8ff" stroke="#63b8ff" points="762.39,-315.86 762.15,-305.27 755.74,-313.7 762.39,-315.86"/>
</a>
</g>
</g>
<!-- Node10 -->
<g id="Node000010" class="node">
<title>Node10</title>
<g id="a_Node000010"><a xlink:title=" ">
<polygon fill="#e0e0e0" stroke="#999999" points="938,-305 878,-305 878,-286 938,-286 938,-305"/>
<text text-anchor="middle" x="908" y="-293" font-family="Helvetica,sans-Serif" font-size="10.00">iostream</text>
</a>
</g>
</g>
<!-- Node8&#45;&gt;Node10 -->
<g id="edge9_Node000008_Node000010" class="edge">
<title>Node8&#45;&gt;Node10</title>
<g id="a_edge9_Node000008_Node000010"><a xlink:title=" ">
<path fill="none" stroke="#63b8ff" d="M784.8,-340.99C812.19,-331.1 848.52,-317.98 874.61,-308.56"/>
<polygon fill="#63b8ff" stroke="#63b8ff" points="875.86,-311.83 884.08,-305.14 873.48,-305.24 875.86,-311.83"/>
</a>
</g>
</g>
<!-- Node11 -->
<g id="Node000011" class="node">
<title>Node11</title>
<g id="a_Node000011"><a xlink:title=" ">
<polygon fill="#e0e0e0" stroke="#999999" points="860,-305 816,-305 816,-286 860,-286 860,-305"/>
<text text-anchor="middle" x="838" y="-293" font-family="Helvetica,sans-Serif" font-size="10.00">string</text>
</a>
</g>
</g>
<!-- Node8&#45;&gt;Node11 -->
<g id="edge10_Node000008_Node000011" class="edge">
<title>Node8&#45;&gt;Node11</title>
<g id="a_edge10_Node000008_Node000011"><a xlink:title=" ">
<path fill="none" stroke="#63b8ff" d="M768.27,-340.84C782.67,-331.68 801.33,-319.82 815.73,-310.66"/>
<polygon fill="#63b8ff" stroke="#63b8ff" points="817.92,-313.41 824.48,-305.09 814.17,-307.51 817.92,-313.41"/>
</a>
</g>
</g>
<!-- Node12 -->
<g id="Node000012" class="node">
<title>Node12</title>
<g id="a_Node000012"><a xlink:title=" ">
<polygon fill="#e0e0e0" stroke="#999999" points="714.5,-305 621.5,-305 621.5,-286 714.5,-286 714.5,-305"/>
<text text-anchor="middle" x="668" y="-293" font-family="Helvetica,sans-Serif" font-size="10.00">source_location</text>
</a>
</g>
</g>
<!-- Node8&#45;&gt;Node12 -->
<g id="edge11_Node000008_Node000012" class="edge">
<title>Node8&#45;&gt;Node12</title>
<g id="a_edge11_Node000008_Node000012"><a xlink:title=" ">
<path fill="none" stroke="#63b8ff" d="M727.12,-340.84C715.22,-331.91 699.88,-320.41 687.8,-311.35"/>
<polygon fill="#63b8ff" stroke="#63b8ff" points="689.79,-308.47 679.69,-305.27 685.59,-314.07 689.79,-308.47"/>
</a>
</g>
</g>
<!-- Node13&#45;&gt;Node14 -->
<g id="edge13_Node000013_Node000014" class="edge">
<title>Node13&#45;&gt;Node14</title>
<g id="a_edge13_Node000013_Node000014"><a xlink:title=" ">
<path fill="none" stroke="#63b8ff" d="M135.4,-340.63C152.1,-319.56 183.15,-280.4 200.82,-258.13"/>
<polygon fill="#63b8ff" stroke="#63b8ff" points="203.61,-260.24 207.08,-250.23 198.12,-255.89 203.61,-260.24"/>
</a>
</g>
</g>
<!-- Node14&#45;&gt;Node15 -->
<g id="edge14_Node000014_Node000015" class="edge">
<title>Node14&#45;&gt;Node15</title>
<g id="a_edge14_Node000014_Node000015"><a xlink:title=" ">
<path fill="none" stroke="#63b8ff" d="M217.54,-230.87C220.94,-222.57 226.19,-209.78 230.52,-199.22"/>
<polygon fill="#63b8ff" stroke="#63b8ff" points="233.89,-200.25 234.44,-189.67 227.41,-197.59 233.89,-200.25"/>
</a>
</g>
</g>
<!-- Node17 -->
<g id="Node000017" class="node">
<title>Node17</title>
<g id="a_Node000017"><a xlink:title=" ">
<polygon fill="#e0e0e0" stroke="#999999" points="372.5,-189.5 325.5,-189.5 325.5,-170.5 372.5,-170.5 372.5,-189.5"/>
<text text-anchor="middle" x="349" y="-177.5" font-family="Helvetica,sans-Serif" font-size="10.00">vector</text>
</a>
</g>
</g>
<!-- Node14&#45;&gt;Node17 -->
<g id="edge16_Node000014_Node000017" class="edge">
<title>Node14&#45;&gt;Node17</title>
<g id="a_edge16_Node000014_Node000017"><a xlink:title=" ">
<path fill="none" stroke="#63b8ff" d="M233.63,-230.99C256.33,-221.16 293.9,-204.88 319.97,-193.58"/>
<polygon fill="#63b8ff" stroke="#63b8ff" points="321.56,-196.7 329.35,-189.52 318.78,-190.28 321.56,-196.7"/>
</a>
</g>
</g>
<!-- Node16 -->
<g id="Node000016" class="node">
<title>Node16</title>
<g id="a_Node000016"><a xlink:title=" ">
<polygon fill="#e0e0e0" stroke="#999999" points="270,-129 206,-129 206,-110 270,-110 270,-129"/>
<text text-anchor="middle" x="238" y="-117" font-family="Helvetica,sans-Serif" font-size="10.00">algorithm</text>
</a>
</g>
</g>
<!-- Node15&#45;&gt;Node16 -->
<g id="edge15_Node000015_Node000016" class="edge">
<title>Node15&#45;&gt;Node16</title>
<g id="a_edge15_Node000015_Node000016"><a xlink:title=" ">
<path fill="none" stroke="#63b8ff" d="M238,-170.37C238,-162.25 238,-149.81 238,-139.39"/>
<polygon fill="#63b8ff" stroke="#63b8ff" points="241.5,-139.17 238,-129.17 234.5,-139.17 241.5,-139.17"/>
</a>
</g>
</g>
<!-- Node18&#45;&gt;Node5 -->
<g id="edge30_Node000018_Node000005" class="edge">
<title>Node18&#45;&gt;Node5</title>
<g id="a_edge30_Node000018_Node000005"><a xlink:title=" ">
<path fill="none" stroke="#63b8ff" d="M584.34,-340.81C588.62,-325.48 597.4,-301.21 613,-286 670.78,-229.64 763.71,-201.11 816,-188.81"/>
<polygon fill="#63b8ff" stroke="#63b8ff" points="816.92,-192.19 825.89,-186.56 815.37,-185.37 816.92,-192.19"/>
</a>
</g>
</g>
<!-- Node18&#45;&gt;Node19 -->
<g id="edge18_Node000018_Node000019" class="edge">
<title>Node18&#45;&gt;Node19</title>
<g id="a_edge18_Node000018_Node000019"><a xlink:title=" ">
<path fill="none" stroke="#63b8ff" d="M530.46,-340.99C493.73,-330.8 444.67,-317.2 410.51,-307.73"/>
<polygon fill="#63b8ff" stroke="#63b8ff" points="411.42,-304.35 400.85,-305.05 409.55,-311.1 411.42,-304.35"/>
</a>
</g>
</g>
<!-- Node25 -->
<g id="Node000025" class="node">
<title>Node25</title>
<g id="a_Node000025"><a xlink:title=" ">
<polygon fill="#e0e0e0" stroke="#999999" points="527,-305 471,-305 471,-286 527,-286 527,-305"/>
<text text-anchor="middle" x="499" y="-293" font-family="Helvetica,sans-Serif" font-size="10.00">optional</text>
</a>
</g>
</g>
<!-- Node18&#45;&gt;Node25 -->
<g id="edge31_Node000018_Node000025" class="edge">
<title>Node18&#45;&gt;Node25</title>
<g id="a_edge31_Node000018_Node000025"><a xlink:title=" ">
<path fill="none" stroke="#63b8ff" d="M561.15,-340.84C548.52,-331.83 532.2,-320.18 519.45,-311.09"/>
<polygon fill="#63b8ff" stroke="#63b8ff" points="521.46,-308.22 511.29,-305.27 517.4,-313.92 521.46,-308.22"/>
</a>
</g>
</g>
<!-- Node26 -->
<g id="Node000026" class="node">
<title>Node26</title>
<g id="a_Node000026"><a xlink:href="Ray_8hpp.html" target="_top" xlink:title=" ">
<polygon fill="white" stroke="#666666" points="554,-195 440,-195 440,-165 554,-165 554,-195"/>
<text text-anchor="start" x="448" y="-183" font-family="Helvetica,sans-Serif" font-size="10.00">../../../Geometry/Ray</text>
<text text-anchor="middle" x="497" y="-172" font-family="Helvetica,sans-Serif" font-size="10.00">/Ray.hpp</text>
</a>
</g>
</g>
<!-- Node18&#45;&gt;Node26 -->
<g id="edge32_Node000018_Node000026" class="edge">
<title>Node18&#45;&gt;Node26</title>
<g id="a_edge32_Node000018_Node000026"><a xlink:title=" ">
<path fill="none" stroke="#63b8ff" d="M574.13,-340.76C559.73,-310.94 526.27,-241.63 508.53,-204.88"/>
<polygon fill="#63b8ff" stroke="#63b8ff" points="511.47,-202.92 503.97,-195.44 505.16,-205.96 511.47,-202.92"/>
</a>
</g>
</g>
<!-- Node19&#45;&gt;Node15 -->
<g id="edge19_Node000019_Node000015" class="edge">
<title>Node19&#45;&gt;Node15</title>
<g id="a_edge19_Node000019_Node000015"><a xlink:title=" ">
<path fill="none" stroke="#63b8ff" d="M360.47,-285.74C346.95,-273.37 321.36,-250.15 299,-231 285.11,-219.1 269.1,-206.01 256.98,-196.2"/>
<polygon fill="#63b8ff" stroke="#63b8ff" points="258.9,-193.26 248.92,-189.71 254.51,-198.71 258.9,-193.26"/>
</a>
</g>
</g>
<!-- Node19&#45;&gt;Node17 -->
<g id="edge29_Node000019_Node000017" class="edge">
<title>Node19&#45;&gt;Node17</title>
<g id="a_edge29_Node000019_Node000017"><a xlink:title=" ">
<path fill="none" stroke="#63b8ff" d="M368.42,-285.97C365.05,-267.73 357.06,-224.57 352.45,-199.64"/>
<polygon fill="#63b8ff" stroke="#63b8ff" points="355.86,-198.83 350.6,-189.63 348.97,-200.1 355.86,-198.83"/>
</a>
</g>
</g>
<!-- Node19&#45;&gt;Node20 -->
<g id="edge20_Node000019_Node000020" class="edge">
<title>Node19&#45;&gt;Node20</title>
<g id="a_edge20_Node000019_Node000020"><a xlink:title=" ">
<path fill="none" stroke="#63b8ff" d="M380.28,-285.98C389.84,-278.07 404.28,-266.11 415.78,-256.58"/>
<polygon fill="#63b8ff" stroke="#63b8ff" points="418.06,-259.24 423.53,-250.17 413.6,-253.85 418.06,-259.24"/>
</a>
</g>
</g>
<!-- Node20&#45;&gt;Node5 -->
<g id="edge28_Node000020_Node000005" class="edge">
<title>Node20&#45;&gt;Node5</title>
<g id="a_edge28_Node000020_Node000005"><a xlink:title=" ">
<path fill="none" stroke="#63b8ff" d="M466.68,-234.96C543.11,-224.34 733.24,-197.92 815.75,-186.45"/>
<polygon fill="#63b8ff" stroke="#63b8ff" points="816.31,-189.91 825.73,-185.07 815.35,-182.98 816.31,-189.91"/>
</a>
</g>
</g>
<!-- Node20&#45;&gt;Node15 -->
<g id="edge26_Node000020_Node000015" class="edge">
<title>Node20&#45;&gt;Node15</title>
<g id="a_edge26_Node000020_Node000015"><a xlink:title=" ">
<path fill="none" stroke="#63b8ff" d="M405.5,-230.99C371.39,-220.81 314.13,-203.72 276.21,-192.4"/>
<polygon fill="#63b8ff" stroke="#63b8ff" points="277.12,-189.02 266.53,-189.52 275.12,-195.73 277.12,-189.02"/>
</a>
</g>
</g>
<!-- Node20&#45;&gt;Node17 -->
<g id="edge27_Node000020_Node000017" class="edge">
<title>Node20&#45;&gt;Node17</title>
<g id="a_edge27_Node000020_Node000017"><a xlink:title=" ">
<path fill="none" stroke="#63b8ff" d="M421.46,-230.87C407.9,-221.54 386.06,-206.51 369.9,-195.38"/>
<polygon fill="#63b8ff" stroke="#63b8ff" points="371.82,-192.45 361.59,-189.67 367.85,-198.22 371.82,-192.45"/>
</a>
</g>
</g>
<!-- Node21 -->
<g id="Node000021" class="node">
<title>Node21</title>
<g id="a_Node000021"><a xlink:href="HitRecord_8hpp.html" target="_top" xlink:title=" ">
<polygon fill="white" stroke="#666666" points="706,-195 572,-195 572,-165 706,-165 706,-195"/>
<text text-anchor="start" x="580" y="-183" font-family="Helvetica,sans-Serif" font-size="10.00">../../Geometry/HitRecord</text>
<text text-anchor="middle" x="639" y="-172" font-family="Helvetica,sans-Serif" font-size="10.00">/HitRecord.hpp</text>
</a>
</g>
</g>
<!-- Node20&#45;&gt;Node21 -->
<g id="edge21_Node000020_Node000021" class="edge">
<title>Node20&#45;&gt;Node21</title>
<g id="a_edge21_Node000020_Node000021"><a xlink:title=" ">
<path fill="none" stroke="#63b8ff" d="M463.81,-230.99C494.08,-222.35 541.79,-208.74 579.78,-197.9"/>
<polygon fill="#63b8ff" stroke="#63b8ff" points="581.06,-201.17 589.72,-195.06 579.14,-194.44 581.06,-201.17"/>
</a>
</g>
</g>
<!-- Node22 -->
<g id="Node000022" class="node">
<title>Node22</title>
<g id="a_Node000022"><a xlink:href="Point3D_8hpp.html" target="_top" xlink:title=" ">
<polygon fill="white" stroke="#666666" points="631,-129 505,-129 505,-110 631,-110 631,-129"/>
<text text-anchor="middle" x="568" y="-117" font-family="Helvetica,sans-Serif" font-size="10.00">../Point3D/Point3D.hpp</text>
</a>
</g>
</g>
<!-- Node21&#45;&gt;Node22 -->
<g id="edge22_Node000021_Node000022" class="edge">
<title>Node21&#45;&gt;Node22</title>
<g id="a_edge22_Node000021_Node000022"><a xlink:title=" ">
<path fill="none" stroke="#63b8ff" d="M621.81,-164.84C611.19,-156.09 597.56,-144.85 586.67,-135.88"/>
<polygon fill="#63b8ff" stroke="#63b8ff" points="588.58,-132.92 578.64,-129.27 584.13,-138.33 588.58,-132.92"/>
</a>
</g>
</g>
<!-- Node23 -->
<g id="Node000023" class="node">
<title>Node23</title>
<g id="a_Node000023"><a xlink:href="Vector3D_8hpp.html" target="_top" xlink:title=" ">
<polygon fill="white" stroke="#666666" points="637,-74 499,-74 499,-55 637,-55 637,-74"/>
<text text-anchor="middle" x="568" y="-62" font-family="Helvetica,sans-Serif" font-size="10.00">../Vector3D/Vector3D.hpp</text>
</a>
</g>
</g>
<!-- Node21&#45;&gt;Node23 -->
<g id="edge25_Node000021_Node000023" class="edge">
<title>Node21&#45;&gt;Node23</title>
<g id="a_edge25_Node000021_Node000023"><a xlink:title=" ">
<path fill="none" stroke="#63b8ff" d="M643.13,-164.78C646.54,-150.08 649.45,-126.95 640,-110 631.96,-95.58 617.1,-85.24 602.96,-78.18"/>
<polygon fill="#63b8ff" stroke="#63b8ff" points="604.4,-74.99 593.85,-74.01 601.49,-81.36 604.4,-74.99"/>
</a>
</g>
</g>
<!-- Node22&#45;&gt;Node23 -->
<g id="edge23_Node000022_Node000023" class="edge">
<title>Node22&#45;&gt;Node23</title>
<g id="a_edge23_Node000022_Node000023"><a xlink:title=" ">
<path fill="none" stroke="#63b8ff" d="M568,-109.75C568,-102.8 568,-92.85 568,-84.13"/>
<polygon fill="#63b8ff" stroke="#63b8ff" points="571.5,-84.09 568,-74.09 564.5,-84.09 571.5,-84.09"/>
</a>
</g>
</g>
<!-- Node24 -->
<g id="Node000024" class="node">
<title>Node24</title>
<g id="a_Node000024"><a xlink:title=" ">
<polygon fill="#e0e0e0" stroke="#999999" points="593.5,-19 542.5,-19 542.5,0 593.5,0 593.5,-19"/>
<text text-anchor="middle" x="568" y="-7" font-family="Helvetica,sans-Serif" font-size="10.00">math.h</text>
</a>
</g>
</g>
<!-- Node23&#45;&gt;Node24 -->
<g id="edge24_Node000023_Node000024" class="edge">
<title>Node23&#45;&gt;Node24</title>
<g id="a_edge24_Node000023_Node000024"><a xlink:title=" ">
<path fill="none" stroke="#63b8ff" d="M568,-54.75C568,-47.8 568,-37.85 568,-29.13"/>
<polygon fill="#63b8ff" stroke="#63b8ff" points="571.5,-29.09 568,-19.09 564.5,-29.09 571.5,-29.09"/>
</a>
</g>
</g>
<!-- Node26&#45;&gt;Node22 -->
<g id="edge33_Node000026_Node000022" class="edge">
<title>Node26&#45;&gt;Node22</title>
<g id="a_edge33_Node000026_Node000022"><a xlink:title=" ">
<path fill="none" stroke="#63b8ff" d="M514.19,-164.84C524.81,-156.09 538.44,-144.85 549.33,-135.88"/>
<polygon fill="#63b8ff" stroke="#63b8ff" points="551.87,-138.33 557.36,-129.27 547.42,-132.92 551.87,-138.33"/>
</a>
</g>
</g>
<!-- Node26&#45;&gt;Node23 -->
<g id="edge34_Node000026_Node000023" class="edge">
<title>Node26&#45;&gt;Node23</title>
<g id="a_edge34_Node000026_Node000023"><a xlink:title=" ">
<path fill="none" stroke="#63b8ff" d="M492.87,-164.78C489.46,-150.08 486.55,-126.95 496,-110 504.04,-95.58 518.9,-85.24 533.04,-78.18"/>
<polygon fill="#63b8ff" stroke="#63b8ff" points="534.51,-81.36 542.15,-74.01 531.6,-74.99 534.51,-81.36"/>
</a>
</g>
</g>
<!-- Node27&#45;&gt;Node3 -->
<g id="edge39_Node000027_Node000003" class="edge">
<title>Node27&#45;&gt;Node3</title>
<g id="a_edge39_Node000027_Node000003"><a xlink:title=" ">
<path fill="none" stroke="#63b8ff" d="M330.53,-516.63C347.41,-495.56 378.81,-456.4 396.67,-434.13"/>
<polygon fill="#63b8ff" stroke="#63b8ff" points="399.48,-436.22 403,-426.23 394.02,-431.84 399.48,-436.22"/>
</a>
</g>
</g>
<!-- Node27&#45;&gt;Node5 -->
<g id="edge46_Node000027_Node000005" class="edge">
<title>Node27&#45;&gt;Node5</title>
<g id="a_edge46_Node000027_Node000005"><a xlink:title=" ">
<path fill="none" stroke="#63b8ff" d="M383.1,-518.37C386.44,-517.87 389.76,-517.41 393,-517 534.71,-499.13 1028,-560.33 1028,-417.5 1028,-417.5 1028,-417.5 1028,-294.5 1028,-230.85 945.12,-200.94 894.09,-188.55"/>
<polygon fill="#63b8ff" stroke="#63b8ff" points="894.88,-185.14 884.35,-186.3 893.3,-191.96 894.88,-185.14"/>
</a>
</g>
</g>
<!-- Node27&#45;&gt;Node17 -->
<g id="edge45_Node000027_Node000017" class="edge">
<title>Node27&#45;&gt;Node17</title>
<g id="a_edge45_Node000027_Node000017"><a xlink:title=" ">
<path fill="none" stroke="#63b8ff" d="M269,-516.99C206.5,-496.47 102.25,-451.65 57,-371 50.48,-359.37 53.19,-353.78 57,-341 73.7,-285.01 80.68,-263.85 129,-231 194.67,-186.36 227.11,-214.82 304,-195 307.81,-194.02 311.78,-192.91 315.72,-191.76"/>
<polygon fill="#63b8ff" stroke="#63b8ff" points="316.75,-195.1 325.3,-188.85 314.72,-188.4 316.75,-195.1"/>
</a>
</g>
</g>
<!-- Node28 -->
<g id="Node000028" class="node">
<title>Node28</title>
<g id="a_Node000028"><a xlink:href="PluginManager_8hpp.html" target="_top" xlink:title="Plugin manager for loading and managing plugins.">
<polygon fill="white" stroke="#666666" points="947,-481 753,-481 753,-462 947,-462 947,-481"/>
<text text-anchor="middle" x="850" y="-469" font-family="Helvetica,sans-Serif" font-size="10.00">../PluginManager/PluginManager.hpp</text>
</a>
</g>
</g>
<!-- Node27&#45;&gt;Node28 -->
<g id="edge40_Node000027_Node000028" class="edge">
<title>Node27&#45;&gt;Node28</title>
<g id="a_edge40_Node000027_Node000028"><a xlink:title=" ">
<path fill="none" stroke="#63b8ff" d="M383.12,-518.5C386.45,-517.97 389.76,-517.46 393,-517 512.23,-499.95 649.9,-487.53 742.72,-480.21"/>
<polygon fill="#63b8ff" stroke="#63b8ff" points="743.27,-483.67 752.97,-479.4 742.73,-476.7 743.27,-483.67"/>
</a>
</g>
</g>
<!-- Node28&#45;&gt;Node3 -->
<g id="edge44_Node000028_Node000003" class="edge">
<title>Node28&#45;&gt;Node3</title>
<g id="a_edge44_Node000028_Node000003"><a xlink:title=" ">
<path fill="none" stroke="#63b8ff" d="M779.31,-461.98C694.39,-451.76 553.29,-434.76 472.3,-425"/>
<polygon fill="#63b8ff" stroke="#63b8ff" points="472.59,-421.51 462.24,-423.79 471.75,-428.46 472.59,-421.51"/>
</a>
</g>
</g>
<!-- Node28&#45;&gt;Node10 -->
<g id="edge43_Node000028_Node000010" class="edge">
<title>Node28&#45;&gt;Node10</title>
<g id="a_edge43_Node000028_Node000010"><a xlink:title=" ">
<path fill="none" stroke="#63b8ff" d="M852.45,-461.83C855.95,-449.57 862.65,-426.47 869,-407 879.68,-374.24 893.3,-336.45 901.29,-314.64"/>
<polygon fill="#63b8ff" stroke="#63b8ff" points="904.65,-315.64 904.82,-305.05 898.08,-313.22 904.65,-315.64"/>
</a>
</g>
</g>
<!-- Node29 -->
<g id="Node000029" class="node">
<title>Node29</title>
<g id="a_Node000029"><a xlink:title=" ">
<polygon fill="#e0e0e0" stroke="#999999" points="928,-426 878,-426 878,-407 928,-407 928,-426"/>
<text text-anchor="middle" x="903" y="-414" font-family="Helvetica,sans-Serif" font-size="10.00">dlfcn.h</text>
</a>
</g>
</g>
<!-- Node28&#45;&gt;Node29 -->
<g id="edge41_Node000028_Node000029" class="edge">
<title>Node28&#45;&gt;Node29</title>
<g id="a_edge41_Node000028_Node000029"><a xlink:title=" ">
<path fill="none" stroke="#63b8ff" d="M858.75,-461.75C866.47,-454.03 877.9,-442.6 887.22,-433.28"/>
<polygon fill="#63b8ff" stroke="#63b8ff" points="889.81,-435.64 894.41,-426.09 884.86,-430.69 889.81,-435.64"/>
</a>
</g>
</g>
<!-- Node30 -->
<g id="Node000030" class="node">
<title>Node30</title>
<g id="a_Node000030"><a xlink:title=" ">
<polygon fill="#e0e0e0" stroke="#999999" points="1000,-426 946,-426 946,-407 1000,-407 1000,-426"/>
<text text-anchor="middle" x="973" y="-414" font-family="Helvetica,sans-Serif" font-size="10.00">dirent.h</text>
</a>
</g>
</g>
<!-- Node28&#45;&gt;Node30 -->
<g id="edge42_Node000028_Node000030" class="edge">
<title>Node28&#45;&gt;Node30</title>
<g id="a_edge42_Node000028_Node000030"><a xlink:title=" ">
<path fill="none" stroke="#63b8ff" d="M869.76,-461.98C889.73,-453.38 920.8,-439.99 943.65,-430.15"/>
<polygon fill="#63b8ff" stroke="#63b8ff" points="945.08,-433.34 952.88,-426.17 942.31,-426.91 945.08,-433.34"/>
</a>
</g>
</g>
</g>
</svg>

<g id="navigator" transform="translate(0 0)" fill="#404254">
  <rect fill="#f2f5e9" fill-opacity="0.5" stroke="#606060" stroke-width=".5" x="0" y="0" width="60" height="60"/>
  <use id="zoomplus" xlink:href="#zoomPlus" x="17" y="9" onmousedown="handleZoom(evt,'in')"/>
  <use id="zoomminus" xlink:href="#zoomMin" x="42" y="9" onmousedown="handleZoom(evt,'out')"/>
  <use id="reset" xlink:href="#resetDef" x="30" y="36" onmousedown="handleReset()"/>
   <use id="arrowup" xlink:href="#arrowUp" x="0" y="0" onmousedown="handlePan(0,-1)"/>
  <use id="arrowright" xlink:href="#arrowRight" x="0" y="0" onmousedown="handlePan(1,0)"/>
  <use id="arrowdown" xlink:href="#arrowDown" x="0" y="0" onmousedown="handlePan(0,1)"/>
  <use id="arrowleft" xlink:href="#arrowLeft" x="0" y="0" onmousedown="handlePan(-1,0)"/>
</g>
<svg viewBox="0 0 15 15" width="100%" height="30px" preserveAspectRatio="xMaxYMin meet">
 <g id="arrow_out" transform="scale(0.3 0.3)">
  <a xlink:href="SceneWriter_8cpp__incl_org.svg" target="_base">
   <rect id="button" ry="5" rx="5" y="6" x="6" height="38" width="38"
        fill="#f2f5e9" fill-opacity="0.5" stroke="#606060" stroke-width="1.0"/>
   <path id="arrow"
     d="M 11.500037,31.436501 C 11.940474,20.09759 22.043105,11.32322 32.158766,21.979434 L 37.068811,17.246167 C 37.068811,17.246167 37.088388,32 37.088388,32 L 22.160133,31.978069 C 22.160133,31.978069 26.997745,27.140456 26.997745,27.140456 C 18.528582,18.264221 13.291696,25.230495 11.500037,31.436501 z"
     style="fill:#404040;"/>
  </a>
 </g>
</svg>

<style type='text/css'>
<![CDATA[
[data-mouse-over-selected='false'] { opacity: 0.7; }
[data-mouse-over-selected='true']  { opacity: 1.0; }
]]>
</style>
<script type="application/ecmascript"><![CDATA[
document.addEventListener('DOMContentLoaded', (event) => {
  highlightEdges();
  highlightAdjacentNodes();
});
]]></script>
</svg>
