<?xml version="1.0" encoding="UTF-8" standalone="no"?>
<!DOCTYPE svg PUBLIC "-//W3C//DTD SVG 1.1//EN"
 "http://www.w3.org/Graphics/SVG/1.1/DTD/svg11.dtd">
<!-- Generated by graphviz version 2.43.0 (0)
 -->
<!-- Title: src/SceneSystem/SceneLoader/SceneLoader.hpp Pages: 1 -->
<!--zoomable 621 -->

<svg id="main" version="1.1" xmlns="http://www.w3.org/2000/svg" xmlns:xlink="http://www.w3.org/1999/xlink" xml:space="preserve" onload="init(evt)">
<style type="text/css"><![CDATA[
.node, .edge {opacity: 0.7;}
.node.selected, .edge.selected {opacity: 1;}
.edge:hover path { stroke: red; }
.edge:hover polygon { stroke: red; fill: red; }
]]></style>

<defs>
  <circle id="rim" cx="0" cy="0" r="7"/>
  <circle id="rim2" cx="0" cy="0" r="3.5"/>
  <g id="zoomPlus">
    <use xlink:href="#rim" fill="#404040"><set attributeName="fill" to="#808080" begin="zoomplus.mouseover" end="zoomplus.mouseout"/></use>
    <path d="M-4,0h8M0,-4v8" fill="none" stroke="white" stroke-width="1.5" pointer-events="none"/>
  </g>
  <g id="zoomMin">
    <use xlink:href="#rim" fill="#404040"><set attributeName="fill" to="#808080" begin="zoomminus.mouseover" end="zoomminus.mouseout"/></use>
    <path d="M-4,0h8" fill="none" stroke="white" stroke-width="1.5" pointer-events="none"/>
  </g>
  <g id="arrowUp" transform="translate(30 24)">
    <use xlink:href="#rim"/>
    <path pointer-events="none" fill="none" stroke="white" stroke-width="1.5" d="M0,-3.0v7 M-2.5,-0.5L0,-3.0L2.5,-0.5"/>
  </g>
  <g id="arrowRight" transform="rotate(90) translate(36 -43)">
    <use xlink:href="#rim"/>
    <path pointer-events="none" fill="none" stroke="white" stroke-width="1.5" d="M0,-3.0v7 M-2.5,-0.5L0,-3.0L2.5,-0.5"/>
  </g>
  <g id="arrowDown" transform="rotate(180) translate(-30 -48)">
    <use xlink:href="#rim"/>
    <path pointer-events="none" fill="none" stroke="white" stroke-width="1.5" d="M0,-3.0v7 M-2.5,-0.5L0,-3.0L2.5,-0.5"/>
  </g>
  <g id="arrowLeft" transform="rotate(270) translate(-36 17)">
    <use xlink:href="#rim"/>
    <path pointer-events="none" fill="none" stroke="white" stroke-width="1.5" d="M0,-3.0v7 M-2.5,-0.5L0,-3.0L2.5,-0.5"/>
  </g>
  <g id="resetDef">
    <use xlink:href="#rim2" fill="#404040"><set attributeName="fill" to="#808080" begin="reset.mouseover" end="reset.mouseout"/></use>
  </g>
</defs>
<script type="application/ecmascript">
var viewWidth = 1732;
var viewHeight = 621;
var sectionId = 'dynsection-0';
</script>
<script type="application/ecmascript" xlink:href="svg.min.js"/>
<svg id="graph" class="graph">
<g id="viewport">
<title>src/SceneSystem/SceneLoader/SceneLoader.hpp</title>
<!-- Node1 -->
<g id="Node000001" class="node">
<title>Node1</title>
<g id="a_Node000001"><a xlink:title=" ">
<polygon fill="#999999" stroke="#666666" points="540.5,-613 375.5,-613 375.5,-583 540.5,-583 540.5,-613"/>
<text text-anchor="start" x="383.5" y="-601" font-family="Helvetica,sans-Serif" font-size="10.00">src/SceneSystem/SceneLoader</text>
<text text-anchor="middle" x="458" y="-590" font-family="Helvetica,sans-Serif" font-size="10.00">/SceneLoader.hpp</text>
</a>
</g>
</g>
<!-- Node2 -->
<g id="Node000002" class="node">
<title>Node2</title>
<g id="a_Node000002"><a xlink:href="PluginManager_8hpp.html" target="_top" xlink:title="Plugin manager for loading and managing plugins.">
<polygon fill="white" stroke="#666666" points="281,-492 87,-492 87,-473 281,-473 281,-492"/>
<text text-anchor="middle" x="184" y="-480" font-family="Helvetica,sans-Serif" font-size="10.00">../PluginManager/PluginManager.hpp</text>
</a>
</g>
</g>
<!-- Node1&#45;&gt;Node2 -->
<g id="edge1_Node000001_Node000002" class="edge">
<title>Node1&#45;&gt;Node2</title>
<g id="a_edge1_Node000001_Node000002"><a xlink:title=" ">
<path fill="none" stroke="#63b8ff" d="M401.45,-582.98C369.56,-574.26 329.36,-561.88 295,-547 262.38,-532.87 227.14,-511.58 205.32,-497.6"/>
<polygon fill="#63b8ff" stroke="#63b8ff" points="207.13,-494.61 196.84,-492.11 203.32,-500.48 207.13,-494.61"/>
</a>
</g>
</g>
<!-- Node13 -->
<g id="Node000013" class="node">
<title>Node13</title>
<g id="a_Node000013"><a xlink:href="RaytracerException_8hpp.html" target="_top" xlink:title=" ">
<polygon fill="white" stroke="#666666" points="423,-316 287,-316 287,-286 423,-286 423,-316"/>
<text text-anchor="start" x="295" y="-304" font-family="Helvetica,sans-Serif" font-size="10.00">../RaytracerException</text>
<text text-anchor="middle" x="355" y="-293" font-family="Helvetica,sans-Serif" font-size="10.00">/RaytracerException.hpp</text>
</a>
</g>
</g>
<!-- Node1&#45;&gt;Node13 -->
<g id="edge71_Node000001_Node000013" class="edge">
<title>Node1&#45;&gt;Node13</title>
<g id="a_edge71_Node000001_Node000013"><a xlink:title=" ">
<path fill="none" stroke="#63b8ff" d="M410.45,-582.89C366.84,-566.66 309,-535.37 309,-483.5 309,-483.5 309,-483.5 309,-426.5 309,-389.27 327.32,-349.45 340.84,-325.13"/>
<polygon fill="#63b8ff" stroke="#63b8ff" points="343.96,-326.72 345.91,-316.31 337.89,-323.23 343.96,-326.72"/>
</a>
</g>
</g>
<!-- Node33 -->
<g id="Node000033" class="node">
<title>Node33</title>
<g id="a_Node000033"><a xlink:href="Parser_8hpp.html" target="_top" xlink:title=" ">
<polygon fill="white" stroke="#666666" points="1034,-492 894,-492 894,-473 1034,-473 1034,-492"/>
<text text-anchor="middle" x="964" y="-480" font-family="Helvetica,sans-Serif" font-size="10.00">../ConfigParser/Parser.hpp</text>
</a>
</g>
</g>
<!-- Node1&#45;&gt;Node33 -->
<g id="edge49_Node000001_Node000033" class="edge">
<title>Node1&#45;&gt;Node33</title>
<g id="a_edge49_Node000001_Node000033"><a xlink:title=" ">
<path fill="none" stroke="#63b8ff" d="M540.06,-582.97C592.33,-573.67 661.37,-560.68 722,-547 793.8,-530.8 876.57,-508.23 924.34,-494.81"/>
<polygon fill="#63b8ff" stroke="#63b8ff" points="925.31,-498.18 933.98,-492.1 923.41,-491.44 925.31,-498.18"/>
</a>
</g>
</g>
<!-- Node35 -->
<g id="Node000035" class="node">
<title>Node35</title>
<g id="a_Node000035"><a xlink:href="Scene_8hpp.html" target="_top" xlink:title=" ">
<polygon fill="white" stroke="#666666" points="713,-547 605,-547 605,-528 713,-528 713,-547"/>
<text text-anchor="middle" x="659" y="-535" font-family="Helvetica,sans-Serif" font-size="10.00">../Scene/Scene.hpp</text>
</a>
</g>
</g>
<!-- Node1&#45;&gt;Node35 -->
<g id="edge56_Node000001_Node000035" class="edge">
<title>Node1&#45;&gt;Node35</title>
<g id="a_edge56_Node000001_Node000035"><a xlink:title=" ">
<path fill="none" stroke="#63b8ff" d="M506.14,-582.99C540.98,-572.85 587.47,-559.32 619.99,-549.85"/>
<polygon fill="#63b8ff" stroke="#63b8ff" points="620.99,-553.21 629.61,-547.05 619.03,-546.49 620.99,-553.21"/>
</a>
</g>
</g>
<!-- Node3 -->
<g id="Node000003" class="node">
<title>Node3</title>
<g id="a_Node000003"><a xlink:title=" ">
<polygon fill="#e0e0e0" stroke="#999999" points="50,-437 0,-437 0,-418 50,-418 50,-437"/>
<text text-anchor="middle" x="25" y="-425" font-family="Helvetica,sans-Serif" font-size="10.00">dlfcn.h</text>
</a>
</g>
</g>
<!-- Node2&#45;&gt;Node3 -->
<g id="edge2_Node000002_Node000003" class="edge">
<title>Node2&#45;&gt;Node3</title>
<g id="a_edge2_Node000002_Node000003"><a xlink:title=" ">
<path fill="none" stroke="#63b8ff" d="M158.45,-472.98C131.72,-464.07 89.57,-450.02 59.8,-440.1"/>
<polygon fill="#63b8ff" stroke="#63b8ff" points="60.81,-436.75 50.22,-436.91 58.6,-443.39 60.81,-436.75"/>
</a>
</g>
</g>
<!-- Node4 -->
<g id="Node000004" class="node">
<title>Node4</title>
<g id="a_Node000004"><a xlink:title=" ">
<polygon fill="#e0e0e0" stroke="#999999" points="122,-437 68,-437 68,-418 122,-418 122,-437"/>
<text text-anchor="middle" x="95" y="-425" font-family="Helvetica,sans-Serif" font-size="10.00">dirent.h</text>
</a>
</g>
</g>
<!-- Node2&#45;&gt;Node4 -->
<g id="edge3_Node000002_Node000004" class="edge">
<title>Node2&#45;&gt;Node4</title>
<g id="a_edge3_Node000002_Node000004"><a xlink:title=" ">
<path fill="none" stroke="#63b8ff" d="M169.7,-472.98C155.9,-464.77 134.76,-452.18 118.49,-442.49"/>
<polygon fill="#63b8ff" stroke="#63b8ff" points="119.94,-439.28 109.56,-437.17 116.36,-445.29 119.94,-439.28"/>
</a>
</g>
</g>
<!-- Node5 -->
<g id="Node000005" class="node">
<title>Node5</title>
<g id="a_Node000005"><a xlink:title=" ">
<polygon fill="#e0e0e0" stroke="#999999" points="238,-250 178,-250 178,-231 238,-231 238,-250"/>
<text text-anchor="middle" x="208" y="-238" font-family="Helvetica,sans-Serif" font-size="10.00">iostream</text>
</a>
</g>
</g>
<!-- Node2&#45;&gt;Node5 -->
<g id="edge4_Node000002_Node000005" class="edge">
<title>Node2&#45;&gt;Node5</title>
<g id="a_edge4_Node000002_Node000005"><a xlink:title=" ">
<path fill="none" stroke="#63b8ff" d="M184.85,-472.96C188.3,-438.48 201.24,-309.08 206.12,-260.28"/>
<polygon fill="#63b8ff" stroke="#63b8ff" points="209.62,-260.49 207.13,-250.19 202.65,-259.79 209.62,-260.49"/>
</a>
</g>
</g>
<!-- Node6 -->
<g id="Node000006" class="node">
<title>Node6</title>
<g id="a_Node000006"><a xlink:title=" ">
<polygon fill="#e0e0e0" stroke="#999999" points="777.5,-189.5 730.5,-189.5 730.5,-170.5 777.5,-170.5 777.5,-189.5"/>
<text text-anchor="middle" x="754" y="-177.5" font-family="Helvetica,sans-Serif" font-size="10.00">vector</text>
</a>
</g>
</g>
<!-- Node2&#45;&gt;Node6 -->
<g id="edge5_Node000002_Node000006" class="edge">
<title>Node2&#45;&gt;Node6</title>
<g id="a_edge5_Node000002_Node000006"><a xlink:title=" ">
<path fill="none" stroke="#63b8ff" d="M179.56,-472.93C170.34,-454.35 150,-408.73 150,-368 150,-368 150,-368 150,-300 150,-268.19 144.54,-251.34 169,-231 211.47,-195.69 601.33,-184.33 719.93,-181.68"/>
<polygon fill="#63b8ff" stroke="#63b8ff" points="720.3,-185.17 730.23,-181.45 720.15,-178.17 720.3,-185.17"/>
</a>
</g>
</g>
<!-- Node7 -->
<g id="Node000007" class="node">
<title>Node7</title>
<g id="a_Node000007"><a xlink:href="Plugin_8hpp.html" target="_top" xlink:title=" ">
<polygon fill="white" stroke="#666666" points="867.5,-437 742.5,-437 742.5,-418 867.5,-418 867.5,-437"/>
<text text-anchor="middle" x="805" y="-425" font-family="Helvetica,sans-Serif" font-size="10.00">../../Objects/Plugin.hpp</text>
</a>
</g>
</g>
<!-- Node2&#45;&gt;Node7 -->
<g id="edge6_Node000002_Node000007" class="edge">
<title>Node2&#45;&gt;Node7</title>
<g id="a_edge6_Node000002_Node000007"><a xlink:title=" ">
<path fill="none" stroke="#63b8ff" d="M281.03,-473.22C405.91,-462.56 620.07,-444.28 732,-434.73"/>
<polygon fill="#63b8ff" stroke="#63b8ff" points="732.52,-438.2 742.18,-433.86 731.92,-431.22 732.52,-438.2"/>
</a>
</g>
</g>
<!-- Node8 -->
<g id="Node000008" class="node">
<title>Node8</title>
<g id="a_Node000008"><a xlink:title=" ">
<polygon fill="#e0e0e0" stroke="#999999" points="700.5,-376.5 635.5,-376.5 635.5,-357.5 700.5,-357.5 700.5,-376.5"/>
<text text-anchor="middle" x="668" y="-364.5" font-family="Helvetica,sans-Serif" font-size="10.00">functional</text>
</a>
</g>
</g>
<!-- Node7&#45;&gt;Node8 -->
<g id="edge7_Node000007_Node000008" class="edge">
<title>Node7&#45;&gt;Node8</title>
<g id="a_edge7_Node000007_Node000008"><a xlink:title=" ">
<path fill="none" stroke="#63b8ff" d="M785.08,-417.99C762.05,-408.16 723.92,-391.88 697.46,-380.58"/>
<polygon fill="#63b8ff" stroke="#63b8ff" points="698.52,-377.22 687.95,-376.52 695.77,-383.66 698.52,-377.22"/>
</a>
</g>
</g>
<!-- Node9 -->
<g id="Node000009" class="node">
<title>Node9</title>
<g id="a_Node000009"><a xlink:title=" ">
<polygon fill="#e0e0e0" stroke="#999999" points="1194,-189.5 1136,-189.5 1136,-170.5 1194,-170.5 1194,-189.5"/>
<text text-anchor="middle" x="1165" y="-177.5" font-family="Helvetica,sans-Serif" font-size="10.00">memory</text>
</a>
</g>
</g>
<!-- Node7&#45;&gt;Node9 -->
<g id="edge8_Node000007_Node000009" class="edge">
<title>Node7&#45;&gt;Node9</title>
<g id="a_edge8_Node000007_Node000009"><a xlink:title=" ">
<path fill="none" stroke="#63b8ff" d="M850.51,-417.93C881.85,-410.93 923.83,-399.33 958,-382 977.5,-372.11 977.74,-362.35 997,-352 1040.46,-328.65 1065.31,-348.98 1102,-316 1137.32,-284.25 1154.38,-228.59 1161.21,-199.66"/>
<polygon fill="#63b8ff" stroke="#63b8ff" points="1164.68,-200.18 1163.41,-189.67 1157.84,-198.68 1164.68,-200.18"/>
</a>
</g>
</g>
<!-- Node10 -->
<g id="Node000010" class="node">
<title>Node10</title>
<g id="a_Node000010"><a xlink:title=" ">
<polygon fill="#e0e0e0" stroke="#999999" points="1056.5,-376.5 1005.5,-376.5 1005.5,-357.5 1056.5,-357.5 1056.5,-376.5"/>
<text text-anchor="middle" x="1031" y="-364.5" font-family="Helvetica,sans-Serif" font-size="10.00">variant</text>
</a>
</g>
</g>
<!-- Node7&#45;&gt;Node10 -->
<g id="edge9_Node000007_Node000010" class="edge">
<title>Node7&#45;&gt;Node10</title>
<g id="a_edge9_Node000007_Node000010"><a xlink:title=" ">
<path fill="none" stroke="#63b8ff" d="M845.95,-417.96C883.85,-409.76 941.62,-396.51 991,-382 993.41,-381.29 995.89,-380.52 998.37,-379.73"/>
<polygon fill="#63b8ff" stroke="#63b8ff" points="999.49,-383.04 1007.86,-376.55 997.27,-376.4 999.49,-383.04"/>
</a>
</g>
</g>
<!-- Node11 -->
<g id="Node000011" class="node">
<title>Node11</title>
<g id="a_Node000011"><a xlink:title=" ">
<polygon fill="#e0e0e0" stroke="#999999" points="1113,-376.5 1075,-376.5 1075,-357.5 1113,-357.5 1113,-376.5"/>
<text text-anchor="middle" x="1094" y="-364.5" font-family="Helvetica,sans-Serif" font-size="10.00">map</text>
</a>
</g>
</g>
<!-- Node7&#45;&gt;Node11 -->
<g id="edge10_Node000007_Node000011" class="edge">
<title>Node7&#45;&gt;Node11</title>
<g id="a_edge10_Node000007_Node000011"><a xlink:title=" ">
<path fill="none" stroke="#63b8ff" d="M867.68,-421.05C921.34,-415.15 1000.14,-403.55 1066,-382 1067.22,-381.6 1068.45,-381.16 1069.69,-380.68"/>
<polygon fill="#63b8ff" stroke="#63b8ff" points="1071.24,-383.82 1078.94,-376.54 1068.38,-377.43 1071.24,-383.82"/>
</a>
</g>
</g>
<!-- Node12 -->
<g id="Node000012" class="node">
<title>Node12</title>
<g id="a_Node000012"><a xlink:href="ParsingException_8hpp.html" target="_top" xlink:title=" ">
<polygon fill="white" stroke="#666666" points="540.5,-382 375.5,-382 375.5,-352 540.5,-352 540.5,-382"/>
<text text-anchor="start" x="383.5" y="-370" font-family="Helvetica,sans-Serif" font-size="10.00">../Exceptions/ParsingException</text>
<text text-anchor="middle" x="458" y="-359" font-family="Helvetica,sans-Serif" font-size="10.00">/ParsingException.hpp</text>
</a>
</g>
</g>
<!-- Node7&#45;&gt;Node12 -->
<g id="edge11_Node000007_Node000012" class="edge">
<title>Node7&#45;&gt;Node12</title>
<g id="a_edge11_Node000007_Node000012"><a xlink:title=" ">
<path fill="none" stroke="#63b8ff" d="M754.54,-417.99C701.26,-409.01 616.09,-394.65 550.67,-383.62"/>
<polygon fill="#63b8ff" stroke="#63b8ff" points="551.2,-380.16 540.75,-381.95 550.03,-387.07 551.2,-380.16"/>
</a>
</g>
</g>
<!-- Node17 -->
<g id="Node000017" class="node">
<title>Node17</title>
<g id="a_Node000017"><a xlink:href="AInterface_8hpp.html" target="_top" xlink:title=" ">
<polygon fill="white" stroke="#666666" points="949,-382 833,-382 833,-352 949,-352 949,-382"/>
<text text-anchor="start" x="841" y="-370" font-family="Helvetica,sans-Serif" font-size="10.00">Abstracts/AInterface</text>
<text text-anchor="middle" x="891" y="-359" font-family="Helvetica,sans-Serif" font-size="10.00">/AInterface.hpp</text>
</a>
</g>
</g>
<!-- Node7&#45;&gt;Node17 -->
<g id="edge17_Node000007_Node000017" class="edge">
<title>Node7&#45;&gt;Node17</title>
<g id="a_edge17_Node000007_Node000017"><a xlink:title=" ">
<path fill="none" stroke="#63b8ff" d="M817.69,-417.87C829.25,-410 846.76,-398.09 861.77,-387.89"/>
<polygon fill="#63b8ff" stroke="#63b8ff" points="863.95,-390.63 870.25,-382.11 860.01,-384.85 863.95,-390.63"/>
</a>
</g>
</g>
<!-- Node18 -->
<g id="Node000018" class="node">
<title>Node18</title>
<g id="a_Node000018"><a xlink:href="ARenderer_8hpp.html" target="_top" xlink:title=" ">
<polygon fill="white" stroke="#666666" points="1092.5,-310.5 941.5,-310.5 941.5,-291.5 1092.5,-291.5 1092.5,-310.5"/>
<text text-anchor="middle" x="1017" y="-298.5" font-family="Helvetica,sans-Serif" font-size="10.00">../ARenderer/ARenderer.hpp</text>
</a>
</g>
</g>
<!-- Node7&#45;&gt;Node18 -->
<g id="edge46_Node000007_Node000018" class="edge">
<title>Node7&#45;&gt;Node18</title>
<g id="a_edge46_Node000007_Node000018"><a xlink:title=" ">
<path fill="none" stroke="#63b8ff" d="M804.57,-417.78C804.3,-402.3 806.1,-369.97 824,-352 841.5,-334.43 899.89,-320.86 947.9,-312.32"/>
<polygon fill="#63b8ff" stroke="#63b8ff" points="948.72,-315.73 957.97,-310.58 947.52,-308.84 948.72,-315.73"/>
</a>
</g>
</g>
<!-- Node21 -->
<g id="Node000021" class="node">
<title>Node21</title>
<g id="a_Node000021"><a xlink:href="APrimitive_8hpp.html" target="_top" xlink:title=" ">
<polygon fill="white" stroke="#666666" points="1285,-382 1169,-382 1169,-352 1285,-352 1285,-382"/>
<text text-anchor="start" x="1177" y="-370" font-family="Helvetica,sans-Serif" font-size="10.00">Abstracts/APrimitive</text>
<text text-anchor="middle" x="1227" y="-359" font-family="Helvetica,sans-Serif" font-size="10.00">/APrimitive.hpp</text>
</a>
</g>
</g>
<!-- Node7&#45;&gt;Node21 -->
<g id="edge22_Node000007_Node000021" class="edge">
<title>Node7&#45;&gt;Node21</title>
<g id="a_edge22_Node000007_Node000021"><a xlink:title=" ">
<path fill="none" stroke="#63b8ff" d="M866.36,-417.99C944.19,-407.21 1077.96,-388.66 1158.87,-377.44"/>
<polygon fill="#63b8ff" stroke="#63b8ff" points="1159.53,-380.89 1168.96,-376.05 1158.57,-373.95 1159.53,-380.89"/>
</a>
</g>
</g>
<!-- Node22 -->
<g id="Node000022" class="node">
<title>Node22</title>
<g id="a_Node000022"><a xlink:href="IMaterial_8hpp.html" target="_top" xlink:title=" ">
<polygon fill="white" stroke="#666666" points="885,-310.5 795,-310.5 795,-291.5 885,-291.5 885,-310.5"/>
<text text-anchor="middle" x="840" y="-298.5" font-family="Helvetica,sans-Serif" font-size="10.00">../IMaterial.hpp</text>
</a>
</g>
</g>
<!-- Node7&#45;&gt;Node22 -->
<g id="edge48_Node000007_Node000022" class="edge">
<title>Node7&#45;&gt;Node22</title>
<g id="a_edge48_Node000007_Node000022"><a xlink:title=" ">
<path fill="none" stroke="#63b8ff" d="M800.36,-417.92C793.33,-403.72 781.75,-374.66 791,-352 796.73,-337.97 808.5,-325.75 819.07,-316.9"/>
<polygon fill="#63b8ff" stroke="#63b8ff" points="821.44,-319.48 827.15,-310.56 817.12,-313.98 821.44,-319.48"/>
</a>
</g>
</g>
<!-- Node23 -->
<g id="Node000023" class="node">
<title>Node23</title>
<g id="a_Node000023"><a xlink:href="ILight_8hpp.html" target="_top" xlink:title=" ">
<polygon fill="white" stroke="#666666" points="923.5,-250 858.5,-250 858.5,-231 923.5,-231 923.5,-250"/>
<text text-anchor="middle" x="891" y="-238" font-family="Helvetica,sans-Serif" font-size="10.00">ILight.hpp</text>
</a>
</g>
</g>
<!-- Node7&#45;&gt;Node23 -->
<g id="edge47_Node000007_Node000023" class="edge">
<title>Node7&#45;&gt;Node23</title>
<g id="a_edge47_Node000007_Node000023"><a xlink:title=" ">
<path fill="none" stroke="#63b8ff" d="M799.16,-417.76C793.75,-409.1 786.1,-395.26 783,-382 778.39,-362.27 780.45,-293.98 786,-286 800.26,-265.49 825.97,-254.39 848.38,-248.4"/>
<polygon fill="#63b8ff" stroke="#63b8ff" points="849.49,-251.74 858.39,-246 847.85,-244.93 849.49,-251.74"/>
</a>
</g>
</g>
<!-- Node12&#45;&gt;Node13 -->
<g id="edge12_Node000012_Node000013" class="edge">
<title>Node12&#45;&gt;Node13</title>
<g id="a_edge12_Node000012_Node000013"><a xlink:title=" ">
<path fill="none" stroke="#63b8ff" d="M435.4,-351.95C421.04,-343.03 402.26,-331.36 386.45,-321.54"/>
<polygon fill="#63b8ff" stroke="#63b8ff" points="387.89,-318.32 377.55,-316.01 384.2,-324.26 387.89,-318.32"/>
</a>
</g>
</g>
<!-- Node13&#45;&gt;Node5 -->
<g id="edge14_Node000013_Node000005" class="edge">
<title>Node13&#45;&gt;Node5</title>
<g id="a_edge14_Node000013_Node000005"><a xlink:title=" ">
<path fill="none" stroke="#63b8ff" d="M319.79,-285.99C295.26,-276.23 262.85,-263.33 239.24,-253.93"/>
<polygon fill="#63b8ff" stroke="#63b8ff" points="240.29,-250.58 229.71,-250.14 237.71,-257.09 240.29,-250.58"/>
</a>
</g>
</g>
<!-- Node14 -->
<g id="Node000014" class="node">
<title>Node14</title>
<g id="a_Node000014"><a xlink:title=" ">
<polygon fill="#e0e0e0" stroke="#999999" points="432.5,-250 367.5,-250 367.5,-231 432.5,-231 432.5,-250"/>
<text text-anchor="middle" x="400" y="-238" font-family="Helvetica,sans-Serif" font-size="10.00">exception</text>
</a>
</g>
</g>
<!-- Node13&#45;&gt;Node14 -->
<g id="edge13_Node000013_Node000014" class="edge">
<title>Node13&#45;&gt;Node14</title>
<g id="a_edge13_Node000013_Node000014"><a xlink:title=" ">
<path fill="none" stroke="#63b8ff" d="M365.89,-285.84C372.29,-277.52 380.42,-266.96 387.13,-258.23"/>
<polygon fill="#63b8ff" stroke="#63b8ff" points="389.93,-260.33 393.26,-250.27 384.39,-256.06 389.93,-260.33"/>
</a>
</g>
</g>
<!-- Node15 -->
<g id="Node000015" class="node">
<title>Node15</title>
<g id="a_Node000015"><a xlink:title=" ">
<polygon fill="#e0e0e0" stroke="#999999" points="495,-250 451,-250 451,-231 495,-231 495,-250"/>
<text text-anchor="middle" x="473" y="-238" font-family="Helvetica,sans-Serif" font-size="10.00">string</text>
</a>
</g>
</g>
<!-- Node13&#45;&gt;Node15 -->
<g id="edge15_Node000013_Node000015" class="edge">
<title>Node13&#45;&gt;Node15</title>
<g id="a_edge15_Node000013_Node000015"><a xlink:title=" ">
<path fill="none" stroke="#63b8ff" d="M383.26,-285.99C402.42,-276.49 427.58,-264.02 446.39,-254.69"/>
<polygon fill="#63b8ff" stroke="#63b8ff" points="448.17,-257.72 455.57,-250.14 445.06,-251.45 448.17,-257.72"/>
</a>
</g>
</g>
<!-- Node16 -->
<g id="Node000016" class="node">
<title>Node16</title>
<g id="a_Node000016"><a xlink:title=" ">
<polygon fill="#e0e0e0" stroke="#999999" points="349.5,-250 256.5,-250 256.5,-231 349.5,-231 349.5,-250"/>
<text text-anchor="middle" x="303" y="-238" font-family="Helvetica,sans-Serif" font-size="10.00">source_location</text>
</a>
</g>
</g>
<!-- Node13&#45;&gt;Node16 -->
<g id="edge16_Node000013_Node000016" class="edge">
<title>Node13&#45;&gt;Node16</title>
<g id="a_edge16_Node000013_Node000016"><a xlink:title=" ">
<path fill="none" stroke="#63b8ff" d="M342.41,-285.84C334.94,-277.43 325.44,-266.74 317.63,-257.96"/>
<polygon fill="#63b8ff" stroke="#63b8ff" points="320.05,-255.41 310.79,-250.27 314.82,-260.07 320.05,-255.41"/>
</a>
</g>
</g>
<!-- Node17&#45;&gt;Node18 -->
<g id="edge18_Node000017_Node000018" class="edge">
<title>Node17&#45;&gt;Node18</title>
<g id="a_edge18_Node000017_Node000018"><a xlink:title=" ">
<path fill="none" stroke="#63b8ff" d="M918.65,-351.95C940.26,-340.98 970.08,-325.83 991.2,-315.11"/>
<polygon fill="#63b8ff" stroke="#63b8ff" points="992.9,-318.17 1000.23,-310.52 989.73,-311.93 992.9,-318.17"/>
</a>
</g>
</g>
<!-- Node18&#45;&gt;Node6 -->
<g id="edge21_Node000018_Node000006" class="edge">
<title>Node18&#45;&gt;Node6</title>
<g id="a_edge21_Node000018_Node000006"><a xlink:title=" ">
<path fill="none" stroke="#63b8ff" d="M974.72,-291.45C940.06,-283.48 890.33,-269.83 850,-250 820.4,-235.44 790.13,-211.97 771.7,-196.51"/>
<polygon fill="#63b8ff" stroke="#63b8ff" points="773.53,-193.48 763.66,-189.64 768.99,-198.8 773.53,-193.48"/>
</a>
</g>
</g>
<!-- Node19 -->
<g id="Node000019" class="node">
<title>Node19</title>
<g id="a_Node000019"><a xlink:href="Color_8hpp.html" target="_top" xlink:title=" ">
<polygon fill="white" stroke="#666666" points="1091.5,-189.5 976.5,-189.5 976.5,-170.5 1091.5,-170.5 1091.5,-189.5"/>
<text text-anchor="middle" x="1034" y="-177.5" font-family="Helvetica,sans-Serif" font-size="10.00">../../../Utils/Color.hpp</text>
</a>
</g>
</g>
<!-- Node18&#45;&gt;Node19 -->
<g id="edge19_Node000018_Node000019" class="edge">
<title>Node18&#45;&gt;Node19</title>
<g id="a_edge19_Node000018_Node000019"><a xlink:title=" ">
<path fill="none" stroke="#63b8ff" d="M1018.22,-291.44C1020.94,-272.41 1027.54,-226.19 1031.29,-199.97"/>
<polygon fill="#63b8ff" stroke="#63b8ff" points="1034.79,-200.2 1032.74,-189.8 1027.86,-199.21 1034.79,-200.2"/>
</a>
</g>
</g>
<!-- Node20 -->
<g id="Node000020" class="node">
<title>Node20</title>
<g id="a_Node000020"><a xlink:title=" ">
<polygon fill="#e0e0e0" stroke="#999999" points="1656,-129 1592,-129 1592,-110 1656,-110 1656,-129"/>
<text text-anchor="middle" x="1624" y="-117" font-family="Helvetica,sans-Serif" font-size="10.00">algorithm</text>
</a>
</g>
</g>
<!-- Node19&#45;&gt;Node20 -->
<g id="edge20_Node000019_Node000020" class="edge">
<title>Node19&#45;&gt;Node20</title>
<g id="a_edge20_Node000019_Node000020"><a xlink:title=" ">
<path fill="none" stroke="#63b8ff" d="M1087.04,-170.45C1100.09,-168.51 1114.03,-166.56 1127,-165 1171.58,-159.65 1469.89,-133.78 1581.74,-124.14"/>
<polygon fill="#63b8ff" stroke="#63b8ff" points="1582.31,-127.6 1591.97,-123.25 1581.71,-120.63 1582.31,-127.6"/>
</a>
</g>
</g>
<!-- Node21&#45;&gt;Node9 -->
<g id="edge35_Node000021_Node000009" class="edge">
<title>Node21&#45;&gt;Node9</title>
<g id="a_edge35_Node000021_Node000009"><a xlink:title=" ">
<path fill="none" stroke="#63b8ff" d="M1222.24,-351.79C1211.14,-318.67 1183.55,-236.34 1171.17,-199.42"/>
<polygon fill="#63b8ff" stroke="#63b8ff" points="1174.35,-197.9 1167.86,-189.53 1167.72,-200.12 1174.35,-197.9"/>
</a>
</g>
</g>
<!-- Node21&#45;&gt;Node22 -->
<g id="edge23_Node000021_Node000022" class="edge">
<title>Node21&#45;&gt;Node22</title>
<g id="a_edge23_Node000021_Node000022"><a xlink:title=" ">
<path fill="none" stroke="#63b8ff" d="M1168.87,-354.52C1164.18,-353.65 1159.51,-352.8 1155,-352 1106.21,-343.39 971.69,-322.38 895.15,-310.52"/>
<polygon fill="#63b8ff" stroke="#63b8ff" points="895.62,-307.05 885.2,-308.98 894.55,-313.97 895.62,-307.05"/>
</a>
</g>
</g>
<!-- Node28 -->
<g id="Node000028" class="node">
<title>Node28</title>
<g id="a_Node000028"><a xlink:title=" ">
<polygon fill="#e0e0e0" stroke="#999999" points="1323,-310.5 1267,-310.5 1267,-291.5 1323,-291.5 1323,-310.5"/>
<text text-anchor="middle" x="1295" y="-298.5" font-family="Helvetica,sans-Serif" font-size="10.00">optional</text>
</a>
</g>
</g>
<!-- Node21&#45;&gt;Node28 -->
<g id="edge36_Node000021_Node000028" class="edge">
<title>Node21&#45;&gt;Node28</title>
<g id="a_edge36_Node000021_Node000028"><a xlink:title=" ">
<path fill="none" stroke="#63b8ff" d="M1242.09,-351.8C1252.8,-341.72 1267.17,-328.19 1278.23,-317.78"/>
<polygon fill="#63b8ff" stroke="#63b8ff" points="1280.72,-320.25 1285.6,-310.84 1275.92,-315.15 1280.72,-320.25"/>
</a>
</g>
</g>
<!-- Node29 -->
<g id="Node000029" class="node">
<title>Node29</title>
<g id="a_Node000029"><a xlink:href="AABB_8hpp.html" target="_top" xlink:title=" ">
<polygon fill="white" stroke="#666666" points="1615,-316 1493,-316 1493,-286 1615,-286 1615,-316"/>
<text text-anchor="start" x="1501" y="-304" font-family="Helvetica,sans-Serif" font-size="10.00">../../../Geometry/AABB</text>
<text text-anchor="middle" x="1554" y="-293" font-family="Helvetica,sans-Serif" font-size="10.00">/AABB.hpp</text>
</a>
</g>
</g>
<!-- Node21&#45;&gt;Node29 -->
<g id="edge37_Node000021_Node000029" class="edge">
<title>Node21&#45;&gt;Node29</title>
<g id="a_edge37_Node000021_Node000029"><a xlink:title=" ">
<path fill="none" stroke="#63b8ff" d="M1285.08,-354.63C1340.34,-343.82 1423.6,-327.52 1482.82,-315.93"/>
<polygon fill="#63b8ff" stroke="#63b8ff" points="1483.71,-319.32 1492.85,-313.97 1482.36,-312.45 1483.71,-319.32"/>
</a>
</g>
</g>
<!-- Node32 -->
<g id="Node000032" class="node">
<title>Node32</title>
<g id="a_Node000032"><a xlink:href="Ray_8hpp.html" target="_top" xlink:title=" ">
<polygon fill="white" stroke="#666666" points="1492,-250 1406,-250 1406,-231 1492,-231 1492,-250"/>
<text text-anchor="middle" x="1449" y="-238" font-family="Helvetica,sans-Serif" font-size="10.00">../Ray/Ray.hpp</text>
</a>
</g>
</g>
<!-- Node21&#45;&gt;Node32 -->
<g id="edge45_Node000021_Node000032" class="edge">
<title>Node21&#45;&gt;Node32</title>
<g id="a_edge45_Node000021_Node000032"><a xlink:title=" ">
<path fill="none" stroke="#63b8ff" d="M1228.48,-351.86C1231.14,-333.84 1238.43,-302.99 1258,-286 1278.34,-268.34 1346.52,-255.51 1395.62,-248.28"/>
<polygon fill="#63b8ff" stroke="#63b8ff" points="1396.38,-251.71 1405.78,-246.83 1395.38,-244.78 1396.38,-251.71"/>
</a>
</g>
</g>
<!-- Node22&#45;&gt;Node6 -->
<g id="edge34_Node000022_Node000006" class="edge">
<title>Node22&#45;&gt;Node6</title>
<g id="a_edge34_Node000022_Node000006"><a xlink:title=" ">
<path fill="none" stroke="#63b8ff" d="M833.82,-291.44C819.75,-271.98 785.15,-224.1 766.46,-198.24"/>
<polygon fill="#63b8ff" stroke="#63b8ff" points="769.06,-195.86 760.36,-189.8 763.38,-199.96 769.06,-195.86"/>
</a>
</g>
</g>
<!-- Node22&#45;&gt;Node19 -->
<g id="edge24_Node000022_Node000019" class="edge">
<title>Node22&#45;&gt;Node19</title>
<g id="a_edge24_Node000022_Node000019"><a xlink:title=" ">
<path fill="none" stroke="#63b8ff" d="M857.1,-291.49C875.99,-281.94 907.16,-265.71 933,-250 961.8,-232.49 993.7,-210.17 1013.8,-195.74"/>
<polygon fill="#63b8ff" stroke="#63b8ff" points="1016.09,-198.4 1022.15,-189.71 1011.99,-192.73 1016.09,-198.4"/>
</a>
</g>
</g>
<!-- Node22&#45;&gt;Node23 -->
<g id="edge25_Node000022_Node000023" class="edge">
<title>Node22&#45;&gt;Node23</title>
<g id="a_edge25_Node000022_Node000023"><a xlink:title=" ">
<path fill="none" stroke="#63b8ff" d="M847.53,-291.37C855.21,-282.55 867.32,-268.66 876.81,-257.77"/>
<polygon fill="#63b8ff" stroke="#63b8ff" points="879.51,-260.01 883.44,-250.17 874.23,-255.41 879.51,-260.01"/>
</a>
</g>
</g>
<!-- Node23&#45;&gt;Node6 -->
<g id="edge32_Node000023_Node000006" class="edge">
<title>Node23&#45;&gt;Node6</title>
<g id="a_edge32_Node000023_Node000006"><a xlink:title=" ">
<path fill="none" stroke="#63b8ff" d="M871.08,-230.99C848.05,-221.16 809.92,-204.88 783.46,-193.58"/>
<polygon fill="#63b8ff" stroke="#63b8ff" points="784.52,-190.22 773.95,-189.52 781.77,-196.66 784.52,-190.22"/>
</a>
</g>
</g>
<!-- Node23&#45;&gt;Node9 -->
<g id="edge33_Node000023_Node000009" class="edge">
<title>Node23&#45;&gt;Node9</title>
<g id="a_edge33_Node000023_Node000009"><a xlink:title=" ">
<path fill="none" stroke="#63b8ff" d="M923.75,-232.63C965.08,-223.94 1038.34,-208.49 1101,-195 1109.06,-193.26 1117.69,-191.39 1125.92,-189.59"/>
<polygon fill="#63b8ff" stroke="#63b8ff" points="1126.68,-193.01 1135.7,-187.45 1125.18,-186.17 1126.68,-193.01"/>
</a>
</g>
</g>
<!-- Node23&#45;&gt;Node19 -->
<g id="edge31_Node000023_Node000019" class="edge">
<title>Node23&#45;&gt;Node19</title>
<g id="a_edge31_Node000023_Node000019"><a xlink:title=" ">
<path fill="none" stroke="#63b8ff" d="M911.79,-230.99C935.94,-221.12 975.98,-204.73 1003.62,-193.43"/>
<polygon fill="#63b8ff" stroke="#63b8ff" points="1005.25,-196.54 1013.18,-189.52 1002.6,-190.06 1005.25,-196.54"/>
</a>
</g>
</g>
<!-- Node24 -->
<g id="Node000024" class="node">
<title>Node24</title>
<g id="a_Node000024"><a xlink:href="HitRecord_8hpp.html" target="_top" xlink:title=" ">
<polygon fill="white" stroke="#666666" points="958,-195 824,-195 824,-165 958,-165 958,-195"/>
<text text-anchor="start" x="832" y="-183" font-family="Helvetica,sans-Serif" font-size="10.00">../../Geometry/HitRecord</text>
<text text-anchor="middle" x="891" y="-172" font-family="Helvetica,sans-Serif" font-size="10.00">/HitRecord.hpp</text>
</a>
</g>
</g>
<!-- Node23&#45;&gt;Node24 -->
<g id="edge26_Node000023_Node000024" class="edge">
<title>Node23&#45;&gt;Node24</title>
<g id="a_edge26_Node000023_Node000024"><a xlink:title=" ">
<path fill="none" stroke="#63b8ff" d="M891,-230.87C891,-224.11 891,-214.35 891,-205.26"/>
<polygon fill="#63b8ff" stroke="#63b8ff" points="894.5,-205.11 891,-195.11 887.5,-205.11 894.5,-205.11"/>
</a>
</g>
</g>
<!-- Node25 -->
<g id="Node000025" class="node">
<title>Node25</title>
<g id="a_Node000025"><a xlink:href="Point3D_8hpp.html" target="_top" xlink:title=" ">
<polygon fill="white" stroke="#666666" points="1512,-129 1386,-129 1386,-110 1512,-110 1512,-129"/>
<text text-anchor="middle" x="1449" y="-117" font-family="Helvetica,sans-Serif" font-size="10.00">../Point3D/Point3D.hpp</text>
</a>
</g>
</g>
<!-- Node24&#45;&gt;Node25 -->
<g id="edge27_Node000024_Node000025" class="edge">
<title>Node24&#45;&gt;Node25</title>
<g id="a_edge27_Node000024_Node000025"><a xlink:title=" ">
<path fill="none" stroke="#63b8ff" d="M958.14,-166.44C961.47,-165.92 964.77,-165.44 968,-165 1111.9,-145.3 1281.24,-131.89 1375.74,-125.27"/>
<polygon fill="#63b8ff" stroke="#63b8ff" points="1376.03,-128.76 1385.77,-124.58 1375.55,-121.78 1376.03,-128.76"/>
</a>
</g>
</g>
<!-- Node26 -->
<g id="Node000026" class="node">
<title>Node26</title>
<g id="a_Node000026"><a xlink:href="Vector3D_8hpp.html" target="_top" xlink:title=" ">
<polygon fill="white" stroke="#666666" points="1427,-74 1289,-74 1289,-55 1427,-55 1427,-74"/>
<text text-anchor="middle" x="1358" y="-62" font-family="Helvetica,sans-Serif" font-size="10.00">../Vector3D/Vector3D.hpp</text>
</a>
</g>
</g>
<!-- Node24&#45;&gt;Node26 -->
<g id="edge30_Node000024_Node000026" class="edge">
<title>Node24&#45;&gt;Node26</title>
<g id="a_edge30_Node000024_Node000026"><a xlink:title=" ">
<path fill="none" stroke="#63b8ff" d="M948.73,-164.97C1042.88,-142.09 1227.54,-97.21 1312.83,-76.48"/>
<polygon fill="#63b8ff" stroke="#63b8ff" points="1313.84,-79.83 1322.73,-74.07 1312.19,-73.03 1313.84,-79.83"/>
</a>
</g>
</g>
<!-- Node25&#45;&gt;Node26 -->
<g id="edge28_Node000025_Node000026" class="edge">
<title>Node25&#45;&gt;Node26</title>
<g id="a_edge28_Node000025_Node000026"><a xlink:title=" ">
<path fill="none" stroke="#63b8ff" d="M1434.38,-109.98C1420.14,-101.69 1398.25,-88.94 1381.55,-79.22"/>
<polygon fill="#63b8ff" stroke="#63b8ff" points="1383.29,-76.18 1372.89,-74.17 1379.77,-82.23 1383.29,-76.18"/>
</a>
</g>
</g>
<!-- Node27 -->
<g id="Node000027" class="node">
<title>Node27</title>
<g id="a_Node000027"><a xlink:title=" ">
<polygon fill="#e0e0e0" stroke="#999999" points="1383.5,-19 1332.5,-19 1332.5,0 1383.5,0 1383.5,-19"/>
<text text-anchor="middle" x="1358" y="-7" font-family="Helvetica,sans-Serif" font-size="10.00">math.h</text>
</a>
</g>
</g>
<!-- Node26&#45;&gt;Node27 -->
<g id="edge29_Node000026_Node000027" class="edge">
<title>Node26&#45;&gt;Node27</title>
<g id="a_edge29_Node000026_Node000027"><a xlink:title=" ">
<path fill="none" stroke="#63b8ff" d="M1358,-54.75C1358,-47.8 1358,-37.85 1358,-29.13"/>
<polygon fill="#63b8ff" stroke="#63b8ff" points="1361.5,-29.09 1358,-19.09 1354.5,-29.09 1361.5,-29.09"/>
</a>
</g>
</g>
<!-- Node29&#45;&gt;Node20 -->
<g id="edge38_Node000029_Node000020" class="edge">
<title>Node29&#45;&gt;Node20</title>
<g id="a_edge38_Node000029_Node000020"><a xlink:title=" ">
<path fill="none" stroke="#63b8ff" d="M1571.02,-285.97C1581.03,-276.79 1593.04,-263.93 1600,-250 1618.17,-213.65 1622.68,-165.37 1623.74,-139.23"/>
<polygon fill="#63b8ff" stroke="#63b8ff" points="1627.24,-139.29 1624.01,-129.19 1620.24,-139.09 1627.24,-139.29"/>
</a>
</g>
</g>
<!-- Node29&#45;&gt;Node25 -->
<g id="edge41_Node000029_Node000025" class="edge">
<title>Node29&#45;&gt;Node25</title>
<g id="a_edge41_Node000029_Node000025"><a xlink:title=" ">
<path fill="none" stroke="#63b8ff" d="M1561.27,-285.99C1567.65,-271.66 1574.81,-249.01 1567,-231 1547.96,-187.09 1501.92,-152.64 1473.3,-134.54"/>
<polygon fill="#63b8ff" stroke="#63b8ff" points="1475.03,-131.49 1464.68,-129.24 1471.37,-137.46 1475.03,-131.49"/>
</a>
</g>
</g>
<!-- Node30 -->
<g id="Node000030" class="node">
<title>Node30</title>
<g id="a_Node000030"><a xlink:title=" ">
<polygon fill="#e0e0e0" stroke="#999999" points="1557.5,-250 1510.5,-250 1510.5,-231 1557.5,-231 1557.5,-250"/>
<text text-anchor="middle" x="1534" y="-238" font-family="Helvetica,sans-Serif" font-size="10.00">cmath</text>
</a>
</g>
</g>
<!-- Node29&#45;&gt;Node30 -->
<g id="edge39_Node000029_Node000030" class="edge">
<title>Node29&#45;&gt;Node30</title>
<g id="a_edge39_Node000029_Node000030"><a xlink:title=" ">
<path fill="none" stroke="#63b8ff" d="M1549.16,-285.84C1546.49,-278.04 1543.15,-268.27 1540.29,-259.89"/>
<polygon fill="#63b8ff" stroke="#63b8ff" points="1543.54,-258.6 1537,-250.27 1536.92,-260.86 1543.54,-258.6"/>
</a>
</g>
</g>
<!-- Node31 -->
<g id="Node000031" class="node">
<title>Node31</title>
<g id="a_Node000031"><a xlink:title=" ">
<polygon fill="#e0e0e0" stroke="#999999" points="1696,-250 1652,-250 1652,-231 1696,-231 1696,-250"/>
<text text-anchor="middle" x="1674" y="-238" font-family="Helvetica,sans-Serif" font-size="10.00">limits</text>
</a>
</g>
</g>
<!-- Node29&#45;&gt;Node31 -->
<g id="edge40_Node000029_Node000031" class="edge">
<title>Node29&#45;&gt;Node31</title>
<g id="a_edge40_Node000029_Node000031"><a xlink:title=" ">
<path fill="none" stroke="#63b8ff" d="M1582.74,-285.99C1602.32,-276.45 1628.05,-263.9 1647.2,-254.57"/>
<polygon fill="#63b8ff" stroke="#63b8ff" points="1648.82,-257.67 1656.28,-250.14 1645.76,-251.38 1648.82,-257.67"/>
</a>
</g>
</g>
<!-- Node29&#45;&gt;Node32 -->
<g id="edge42_Node000029_Node000032" class="edge">
<title>Node29&#45;&gt;Node32</title>
<g id="a_edge42_Node000029_Node000032"><a xlink:title=" ">
<path fill="none" stroke="#63b8ff" d="M1528.85,-285.99C1512.11,-276.66 1490.23,-264.47 1473.61,-255.21"/>
<polygon fill="#63b8ff" stroke="#63b8ff" points="1474.95,-251.95 1464.51,-250.14 1471.54,-258.06 1474.95,-251.95"/>
</a>
</g>
</g>
<!-- Node32&#45;&gt;Node25 -->
<g id="edge43_Node000032_Node000025" class="edge">
<title>Node32&#45;&gt;Node25</title>
<g id="a_edge43_Node000032_Node000025"><a xlink:title=" ">
<path fill="none" stroke="#63b8ff" d="M1449,-230.94C1449,-211.91 1449,-165.69 1449,-139.47"/>
<polygon fill="#63b8ff" stroke="#63b8ff" points="1452.5,-139.3 1449,-129.3 1445.5,-139.3 1452.5,-139.3"/>
</a>
</g>
</g>
<!-- Node32&#45;&gt;Node26 -->
<g id="edge44_Node000032_Node000026" class="edge">
<title>Node32&#45;&gt;Node26</title>
<g id="a_edge44_Node000032_Node000026"><a xlink:title=" ">
<path fill="none" stroke="#63b8ff" d="M1442.1,-230.85C1428.05,-212.86 1395.88,-169.72 1377,-129 1370.34,-114.63 1365.35,-97.35 1362.15,-84.45"/>
<polygon fill="#63b8ff" stroke="#63b8ff" points="1365.5,-83.36 1359.82,-74.42 1358.68,-84.95 1365.5,-83.36"/>
</a>
</g>
</g>
<!-- Node33&#45;&gt;Node6 -->
<g id="edge53_Node000033_Node000006" class="edge">
<title>Node33&#45;&gt;Node6</title>
<g id="a_edge53_Node000033_Node000006"><a xlink:title=" ">
<path fill="none" stroke="#63b8ff" d="M893.84,-475.79C780.33,-464.6 569,-434.8 569,-368 569,-368 569,-368 569,-300 569,-228.93 666.76,-198.3 720.15,-186.88"/>
<polygon fill="#63b8ff" stroke="#63b8ff" points="721.09,-190.26 730.19,-184.84 719.7,-183.4 721.09,-190.26"/>
</a>
</g>
</g>
<!-- Node33&#45;&gt;Node7 -->
<g id="edge55_Node000033_Node000007" class="edge">
<title>Node33&#45;&gt;Node7</title>
<g id="a_edge55_Node000033_Node000007"><a xlink:title=" ">
<path fill="none" stroke="#63b8ff" d="M938.45,-472.98C911.88,-464.13 870.06,-450.19 840.33,-440.28"/>
<polygon fill="#63b8ff" stroke="#63b8ff" points="841.34,-436.92 830.75,-437.08 839.13,-443.56 841.34,-436.92"/>
</a>
</g>
</g>
<!-- Node33&#45;&gt;Node9 -->
<g id="edge54_Node000033_Node000009" class="edge">
<title>Node33&#45;&gt;Node9</title>
<g id="a_edge54_Node000033_Node000009"><a xlink:title=" ">
<path fill="none" stroke="#63b8ff" d="M1034.25,-478.54C1131.67,-469.97 1299.53,-437.48 1332,-316 1349.45,-250.73 1258.51,-210.22 1203.89,-192.12"/>
<polygon fill="#63b8ff" stroke="#63b8ff" points="1204.74,-188.72 1194.15,-189 1202.6,-195.38 1204.74,-188.72"/>
</a>
</g>
</g>
<!-- Node33&#45;&gt;Node10 -->
<g id="edge51_Node000033_Node000010" class="edge">
<title>Node33&#45;&gt;Node10</title>
<g id="a_edge51_Node000033_Node000010"><a xlink:title=" ">
<path fill="none" stroke="#63b8ff" d="M966.23,-472.86C969.7,-460.22 977.17,-436.24 988,-418 995.32,-405.67 1005.78,-393.43 1014.55,-384.15"/>
<polygon fill="#63b8ff" stroke="#63b8ff" points="1017.21,-386.42 1021.7,-376.82 1012.21,-381.53 1017.21,-386.42"/>
</a>
</g>
</g>
<!-- Node33&#45;&gt;Node11 -->
<g id="edge52_Node000033_Node000011" class="edge">
<title>Node33&#45;&gt;Node11</title>
<g id="a_edge52_Node000033_Node000011"><a xlink:title=" ">
<path fill="none" stroke="#63b8ff" d="M970.95,-472.71C981.32,-459.9 1001.77,-435.7 1022,-418 1037.46,-404.47 1056.63,-391.31 1071.31,-381.89"/>
<polygon fill="#63b8ff" stroke="#63b8ff" points="1073.2,-384.83 1079.79,-376.53 1069.46,-378.91 1073.2,-384.83"/>
</a>
</g>
</g>
<!-- Node34 -->
<g id="Node000034" class="node">
<title>Node34</title>
<g id="a_Node000034"><a xlink:title=" ">
<polygon fill="#e0e0e0" stroke="#999999" points="1113.5,-437 1030.5,-437 1030.5,-418 1113.5,-418 1113.5,-437"/>
<text text-anchor="middle" x="1072" y="-425" font-family="Helvetica,sans-Serif" font-size="10.00">libconfig.h++</text>
</a>
</g>
</g>
<!-- Node33&#45;&gt;Node34 -->
<g id="edge50_Node000033_Node000034" class="edge">
<title>Node33&#45;&gt;Node34</title>
<g id="a_edge50_Node000033_Node000034"><a xlink:title=" ">
<path fill="none" stroke="#63b8ff" d="M981.35,-472.98C998.57,-464.54 1025.2,-451.47 1045.15,-441.68"/>
<polygon fill="#63b8ff" stroke="#63b8ff" points="1046.9,-444.72 1054.33,-437.17 1043.81,-438.43 1046.9,-444.72"/>
</a>
</g>
</g>
<!-- Node35&#45;&gt;Node2 -->
<g id="edge58_Node000035_Node000002" class="edge">
<title>Node35&#45;&gt;Node2</title>
<g id="a_edge58_Node000035_Node000002"><a xlink:title=" ">
<path fill="none" stroke="#63b8ff" d="M604.97,-530.47C523.36,-521.37 367.86,-504.01 270.4,-493.14"/>
<polygon fill="#63b8ff" stroke="#63b8ff" points="270.6,-489.64 260.28,-492.01 269.83,-496.6 270.6,-489.64"/>
</a>
</g>
</g>
<!-- Node35&#45;&gt;Node6 -->
<g id="edge68_Node000035_Node000006" class="edge">
<title>Node35&#45;&gt;Node6</title>
<g id="a_edge68_Node000035_Node000006"><a xlink:title=" ">
<path fill="none" stroke="#63b8ff" d="M610.6,-527.99C512.69,-508.47 305.4,-454.09 366,-352 383.06,-323.27 402.68,-332.03 432,-316 500.93,-278.3 514.52,-261.32 587,-231 631.78,-212.26 686.01,-197.38 720.27,-188.87"/>
<polygon fill="#63b8ff" stroke="#63b8ff" points="721.34,-192.21 730.22,-186.44 719.68,-185.41 721.34,-192.21"/>
</a>
</g>
</g>
<!-- Node35&#45;&gt;Node7 -->
<g id="edge57_Node000035_Node000007" class="edge">
<title>Node35&#45;&gt;Node7</title>
<g id="a_edge57_Node000035_Node000007"><a xlink:title=" ">
<path fill="none" stroke="#63b8ff" d="M670.7,-527.84C695.58,-509.44 753.99,-466.23 784.94,-443.34"/>
<polygon fill="#63b8ff" stroke="#63b8ff" points="787.29,-445.96 793.24,-437.2 783.12,-440.33 787.29,-445.96"/>
</a>
</g>
</g>
<!-- Node35&#45;&gt;Node9 -->
<g id="edge69_Node000035_Node000009" class="edge">
<title>Node35&#45;&gt;Node9</title>
<g id="a_edge69_Node000035_Node000009"><a xlink:title=" ">
<path fill="none" stroke="#63b8ff" d="M653.26,-527.87C634.84,-498.99 581,-404.62 627,-352 666.4,-306.93 838.74,-339.03 894,-316 914.19,-307.59 914.25,-297.25 933,-286 1000.29,-245.64 1085.78,-210.77 1131.9,-193.18"/>
<polygon fill="#63b8ff" stroke="#63b8ff" points="1133.28,-196.4 1141.39,-189.59 1130.8,-189.86 1133.28,-196.4"/>
</a>
</g>
</g>
<!-- Node35&#45;&gt;Node28 -->
<g id="edge70_Node000035_Node000028" class="edge">
<title>Node35&#45;&gt;Node28</title>
<g id="a_edge70_Node000035_Node000028"><a xlink:title=" ">
<path fill="none" stroke="#63b8ff" d="M713.06,-535.28C788.27,-532.45 928.17,-523.06 1043,-492 1160.57,-460.19 1226.73,-483.54 1294,-382 1306.02,-363.86 1303.7,-337.96 1300.09,-320.59"/>
<polygon fill="#63b8ff" stroke="#63b8ff" points="1303.42,-319.47 1297.67,-310.58 1296.62,-321.12 1303.42,-319.47"/>
</a>
</g>
</g>
<!-- Node35&#45;&gt;Node32 -->
<g id="edge67_Node000035_Node000032" class="edge">
<title>Node35&#45;&gt;Node32</title>
<g id="a_edge67_Node000035_Node000032"><a xlink:title=" ">
<path fill="none" stroke="#63b8ff" d="M713.24,-536.18C855.09,-534.85 1234.37,-527.93 1354,-492 1408.43,-475.65 1465,-485.34 1465,-428.5 1465,-428.5 1465,-428.5 1465,-366 1465,-328.19 1457.65,-284.43 1452.91,-260.17"/>
<polygon fill="#63b8ff" stroke="#63b8ff" points="1456.31,-259.31 1450.9,-250.21 1449.45,-260.7 1456.31,-259.31"/>
</a>
</g>
</g>
<!-- Node36 -->
<g id="Node000036" class="node">
<title>Node36</title>
<g id="a_Node000036"><a xlink:href="BVH_8hpp.html" target="_top" xlink:title=" ">
<polygon fill="white" stroke="#666666" points="1436,-437 1344,-437 1344,-418 1436,-418 1436,-437"/>
<text text-anchor="middle" x="1390" y="-425" font-family="Helvetica,sans-Serif" font-size="10.00">../BVH/BVH.hpp</text>
</a>
</g>
</g>
<!-- Node35&#45;&gt;Node36 -->
<g id="edge59_Node000035_Node000036" class="edge">
<title>Node35&#45;&gt;Node36</title>
<g id="a_edge59_Node000035_Node000036"><a xlink:title=" ">
<path fill="none" stroke="#63b8ff" d="M713.23,-535.08C862.46,-530.88 1271.81,-517.17 1327,-492 1348.76,-482.07 1367.14,-461.1 1378.34,-445.97"/>
<polygon fill="#63b8ff" stroke="#63b8ff" points="1381.44,-447.65 1384.34,-437.46 1375.72,-443.61 1381.44,-447.65"/>
</a>
</g>
</g>
<!-- Node36&#45;&gt;Node6 -->
<g id="edge64_Node000036_Node000006" class="edge">
<title>Node36&#45;&gt;Node6</title>
<g id="a_edge64_Node000036_Node000006"><a xlink:title=" ">
<path fill="none" stroke="#63b8ff" d="M1343.97,-424.01C1296.09,-419.98 1219.9,-409.45 1160,-382 1140.44,-373.04 1141.92,-360.13 1122,-352 1052.47,-323.62 842.34,-365.65 786,-316 752.66,-286.62 750.75,-229.46 752.29,-199.83"/>
<polygon fill="#63b8ff" stroke="#63b8ff" points="755.8,-199.84 753.02,-189.61 748.82,-199.34 755.8,-199.84"/>
</a>
</g>
</g>
<!-- Node36&#45;&gt;Node9 -->
<g id="edge62_Node000036_Node000009" class="edge">
<title>Node36&#45;&gt;Node9</title>
<g id="a_edge62_Node000036_Node000009"><a xlink:title=" ">
<path fill="none" stroke="#63b8ff" d="M1391.38,-417.65C1395.59,-387.15 1405.07,-285.3 1354,-231 1333.7,-209.42 1253.19,-194.02 1204.03,-186.41"/>
<polygon fill="#63b8ff" stroke="#63b8ff" points="1204.46,-182.93 1194.05,-184.9 1203.42,-189.85 1204.46,-182.93"/>
</a>
</g>
</g>
<!-- Node36&#45;&gt;Node20 -->
<g id="edge60_Node000036_Node000020" class="edge">
<title>Node36&#45;&gt;Node20</title>
<g id="a_edge60_Node000036_Node000020"><a xlink:title=" ">
<path fill="none" stroke="#63b8ff" d="M1436.09,-419.24C1527.72,-403.51 1724,-362.72 1724,-302 1724,-302 1724,-302 1724,-239.5 1724,-192.3 1677.32,-154.05 1647.75,-134.55"/>
<polygon fill="#63b8ff" stroke="#63b8ff" points="1649.51,-131.52 1639.19,-129.11 1645.75,-137.43 1649.51,-131.52"/>
</a>
</g>
</g>
<!-- Node36&#45;&gt;Node21 -->
<g id="edge66_Node000036_Node000021" class="edge">
<title>Node36&#45;&gt;Node21</title>
<g id="a_edge66_Node000036_Node000021"><a xlink:title=" ">
<path fill="none" stroke="#63b8ff" d="M1366.3,-417.99C1342.64,-409.5 1305.58,-396.2 1275.63,-385.45"/>
<polygon fill="#63b8ff" stroke="#63b8ff" points="1276.78,-382.15 1266.19,-382.06 1274.42,-388.74 1276.78,-382.15"/>
</a>
</g>
</g>
<!-- Node36&#45;&gt;Node28 -->
<g id="edge63_Node000036_Node000028" class="edge">
<title>Node36&#45;&gt;Node28</title>
<g id="a_edge63_Node000036_Node000028"><a xlink:title=" ">
<path fill="none" stroke="#63b8ff" d="M1383.47,-417.94C1367.88,-397.51 1328.25,-345.57 1307.74,-318.69"/>
<polygon fill="#63b8ff" stroke="#63b8ff" points="1310.42,-316.44 1301.58,-310.62 1304.86,-320.69 1310.42,-316.44"/>
</a>
</g>
</g>
<!-- Node36&#45;&gt;Node29 -->
<g id="edge65_Node000036_Node000029" class="edge">
<title>Node36&#45;&gt;Node29</title>
<g id="a_edge65_Node000036_Node000029"><a xlink:title=" ">
<path fill="none" stroke="#63b8ff" d="M1401.27,-417.94C1427,-398.41 1490.63,-350.11 1527.13,-322.4"/>
<polygon fill="#63b8ff" stroke="#63b8ff" points="1529.5,-324.99 1535.35,-316.16 1525.27,-319.42 1529.5,-324.99"/>
</a>
</g>
</g>
<!-- Node36&#45;&gt;Node31 -->
<g id="edge61_Node000036_Node000031" class="edge">
<title>Node36&#45;&gt;Node31</title>
<g id="a_edge61_Node000036_Node000031"><a xlink:title=" ">
<path fill="none" stroke="#63b8ff" d="M1420.25,-417.99C1467.87,-403.41 1561.33,-369.91 1624,-316 1642.38,-300.18 1656.9,-276.05 1665.45,-259.57"/>
<polygon fill="#63b8ff" stroke="#63b8ff" points="1668.68,-260.95 1669.99,-250.43 1662.41,-257.83 1668.68,-260.95"/>
</a>
</g>
</g>
</g>
</svg>

<g id="navigator" transform="translate(0 0)" fill="#404254">
  <rect fill="#f2f5e9" fill-opacity="0.5" stroke="#606060" stroke-width=".5" x="0" y="0" width="60" height="60"/>
  <use id="zoomplus" xlink:href="#zoomPlus" x="17" y="9" onmousedown="handleZoom(evt,'in')"/>
  <use id="zoomminus" xlink:href="#zoomMin" x="42" y="9" onmousedown="handleZoom(evt,'out')"/>
  <use id="reset" xlink:href="#resetDef" x="30" y="36" onmousedown="handleReset()"/>
   <use id="arrowup" xlink:href="#arrowUp" x="0" y="0" onmousedown="handlePan(0,-1)"/>
  <use id="arrowright" xlink:href="#arrowRight" x="0" y="0" onmousedown="handlePan(1,0)"/>
  <use id="arrowdown" xlink:href="#arrowDown" x="0" y="0" onmousedown="handlePan(0,1)"/>
  <use id="arrowleft" xlink:href="#arrowLeft" x="0" y="0" onmousedown="handlePan(-1,0)"/>
</g>
<svg viewBox="0 0 15 15" width="100%" height="30px" preserveAspectRatio="xMaxYMin meet">
 <g id="arrow_out" transform="scale(0.3 0.3)">
  <a xlink:href="SceneLoader_8hpp__incl_org.svg" target="_base">
   <rect id="button" ry="5" rx="5" y="6" x="6" height="38" width="38"
        fill="#f2f5e9" fill-opacity="0.5" stroke="#606060" stroke-width="1.0"/>
   <path id="arrow"
     d="M 11.500037,31.436501 C 11.940474,20.09759 22.043105,11.32322 32.158766,21.979434 L 37.068811,17.246167 C 37.068811,17.246167 37.088388,32 37.088388,32 L 22.160133,31.978069 C 22.160133,31.978069 26.997745,27.140456 26.997745,27.140456 C 18.528582,18.264221 13.291696,25.230495 11.500037,31.436501 z"
     style="fill:#404040;"/>
  </a>
 </g>
</svg>

<style type='text/css'>
<![CDATA[
[data-mouse-over-selected='false'] { opacity: 0.7; }
[data-mouse-over-selected='true']  { opacity: 1.0; }
]]>
</style>
<script type="application/ecmascript"><![CDATA[
document.addEventListener('DOMContentLoaded', (event) => {
  highlightEdges();
  highlightAdjacentNodes();
});
]]></script>
</svg>
