<?xml version="1.0" encoding="UTF-8" standalone="no"?>
<!DOCTYPE svg PUBLIC "-//W3C//DTD SVG 1.1//EN"
 "http://www.w3.org/Graphics/SVG/1.1/DTD/svg11.dtd">
<!-- Generated by graphviz version 2.43.0 (0)
 -->
<!-- Title: src/SceneSystem/Scene/Scene.cpp Pages: 1 -->
<!--zoomable 456 -->

<svg id="main" version="1.1" xmlns="http://www.w3.org/2000/svg" xmlns:xlink="http://www.w3.org/1999/xlink" xml:space="preserve" onload="init(evt)">
<style type="text/css"><![CDATA[
.node, .edge {opacity: 0.7;}
.node.selected, .edge.selected {opacity: 1;}
.edge:hover path { stroke: red; }
.edge:hover polygon { stroke: red; fill: red; }
]]></style>

<defs>
  <circle id="rim" cx="0" cy="0" r="7"/>
  <circle id="rim2" cx="0" cy="0" r="3.5"/>
  <g id="zoomPlus">
    <use xlink:href="#rim" fill="#404040"><set attributeName="fill" to="#808080" begin="zoomplus.mouseover" end="zoomplus.mouseout"/></use>
    <path d="M-4,0h8M0,-4v8" fill="none" stroke="white" stroke-width="1.5" pointer-events="none"/>
  </g>
  <g id="zoomMin">
    <use xlink:href="#rim" fill="#404040"><set attributeName="fill" to="#808080" begin="zoomminus.mouseover" end="zoomminus.mouseout"/></use>
    <path d="M-4,0h8" fill="none" stroke="white" stroke-width="1.5" pointer-events="none"/>
  </g>
  <g id="arrowUp" transform="translate(30 24)">
    <use xlink:href="#rim"/>
    <path pointer-events="none" fill="none" stroke="white" stroke-width="1.5" d="M0,-3.0v7 M-2.5,-0.5L0,-3.0L2.5,-0.5"/>
  </g>
  <g id="arrowRight" transform="rotate(90) translate(36 -43)">
    <use xlink:href="#rim"/>
    <path pointer-events="none" fill="none" stroke="white" stroke-width="1.5" d="M0,-3.0v7 M-2.5,-0.5L0,-3.0L2.5,-0.5"/>
  </g>
  <g id="arrowDown" transform="rotate(180) translate(-30 -48)">
    <use xlink:href="#rim"/>
    <path pointer-events="none" fill="none" stroke="white" stroke-width="1.5" d="M0,-3.0v7 M-2.5,-0.5L0,-3.0L2.5,-0.5"/>
  </g>
  <g id="arrowLeft" transform="rotate(270) translate(-36 17)">
    <use xlink:href="#rim"/>
    <path pointer-events="none" fill="none" stroke="white" stroke-width="1.5" d="M0,-3.0v7 M-2.5,-0.5L0,-3.0L2.5,-0.5"/>
  </g>
  <g id="resetDef">
    <use xlink:href="#rim2" fill="#404040"><set attributeName="fill" to="#808080" begin="reset.mouseover" end="reset.mouseout"/></use>
  </g>
</defs>
<script type="application/ecmascript">
var viewWidth = 728;
var viewHeight = 456;
var sectionId = 'dynsection-0';
</script>
<script type="application/ecmascript" xlink:href="svg.min.js"/>
<svg id="graph" class="graph">
<g id="viewport">
<title>src/SceneSystem/Scene/Scene.cpp</title>
<!-- Node1 -->
<g id="Node000001" class="node">
<title>Node1</title>
<g id="a_Node000001"><a xlink:title=" ">
<polygon fill="#999999" stroke="#666666" points="652.51,-448 520.51,-448 520.51,-418 652.51,-418 652.51,-448"/>
<text text-anchor="start" x="528.51" y="-436" font-family="Helvetica,sans-Serif" font-size="10.00">src/SceneSystem/Scene</text>
<text text-anchor="middle" x="586.51" y="-425" font-family="Helvetica,sans-Serif" font-size="10.00">/Scene.cpp</text>
</a>
</g>
</g>
<!-- Node2 -->
<g id="Node000002" class="node">
<title>Node2</title>
<g id="a_Node000002"><a xlink:href="Scene_8hpp.html" target="_top" xlink:title=" ">
<polygon fill="white" stroke="#666666" points="620.01,-382 553.01,-382 553.01,-363 620.01,-363 620.01,-382"/>
<text text-anchor="middle" x="586.51" y="-370" font-family="Helvetica,sans-Serif" font-size="10.00">Scene.hpp</text>
</a>
</g>
</g>
<!-- Node1&#45;&gt;Node2 -->
<g id="edge1_Node000001_Node000002" class="edge">
<title>Node1&#45;&gt;Node2</title>
<g id="a_edge1_Node000001_Node000002"><a xlink:title=" ">
<path fill="none" stroke="#63b8ff" d="M586.51,-417.84C586.51,-410.21 586.51,-400.7 586.51,-392.45"/>
<polygon fill="#63b8ff" stroke="#63b8ff" points="590.01,-392.27 586.51,-382.27 583.01,-392.27 590.01,-392.27"/>
</a>
</g>
</g>
<!-- Node3 -->
<g id="Node000003" class="node">
<title>Node3</title>
<g id="a_Node000003"><a xlink:href="Camera_8hpp.html" target="_top" xlink:title=" ">
<polygon fill="white" stroke="#666666" points="252.51,-321.5 126.51,-321.5 126.51,-302.5 252.51,-302.5 252.51,-321.5"/>
<text text-anchor="middle" x="189.51" y="-309.5" font-family="Helvetica,sans-Serif" font-size="10.00">../Camera/Camera.hpp</text>
</a>
</g>
</g>
<!-- Node2&#45;&gt;Node3 -->
<g id="edge2_Node000002_Node000003" class="edge">
<title>Node2&#45;&gt;Node3</title>
<g id="a_edge2_Node000002_Node000003"><a xlink:title=" ">
<path fill="none" stroke="#63b8ff" d="M553,-366.56C487.91,-356.97 343.22,-335.65 257.32,-322.99"/>
<polygon fill="#63b8ff" stroke="#63b8ff" points="257.8,-319.53 247.4,-321.53 256.78,-326.45 257.8,-319.53"/>
</a>
</g>
</g>
<!-- Node9 -->
<g id="Node000009" class="node">
<title>Node9</title>
<g id="a_Node000009"><a xlink:href="IPrimitive_8hpp.html" target="_top" xlink:title=" ">
<polygon fill="white" stroke="#666666" points="508.51,-327 390.51,-327 390.51,-297 508.51,-297 508.51,-327"/>
<text text-anchor="start" x="398.51" y="-315" font-family="Helvetica,sans-Serif" font-size="10.00">../../Objects/Interface</text>
<text text-anchor="middle" x="449.51" y="-304" font-family="Helvetica,sans-Serif" font-size="10.00">/IPrimitive.hpp</text>
</a>
</g>
</g>
<!-- Node2&#45;&gt;Node9 -->
<g id="edge13_Node000002_Node000009" class="edge">
<title>Node2&#45;&gt;Node9</title>
<g id="a_edge13_Node000002_Node000009"><a xlink:title=" ">
<path fill="none" stroke="#63b8ff" d="M566.59,-362.99C547.04,-354.65 516.63,-341.66 491.7,-331.02"/>
<polygon fill="#63b8ff" stroke="#63b8ff" points="493.01,-327.77 482.44,-327.06 490.27,-334.21 493.01,-327.77"/>
</a>
</g>
</g>
<!-- Node15 -->
<g id="Node000015" class="node">
<title>Node15</title>
<g id="a_Node000015"><a xlink:href="ILight_8hpp.html" target="_top" xlink:title=" ">
<polygon fill="white" stroke="#666666" points="544.01,-129 479.01,-129 479.01,-110 544.01,-110 544.01,-129"/>
<text text-anchor="middle" x="511.51" y="-117" font-family="Helvetica,sans-Serif" font-size="10.00">ILight.hpp</text>
</a>
</g>
</g>
<!-- Node2&#45;&gt;Node15 -->
<g id="edge28_Node000002_Node000015" class="edge">
<title>Node2&#45;&gt;Node15</title>
<g id="a_edge28_Node000002_Node000015"><a xlink:title=" ">
<path fill="none" stroke="#63b8ff" d="M581.03,-362.79C573.45,-340.51 564.55,-279.72 549.51,-231 539.19,-197.58 522.21,-160.51 514.27,-138.92"/>
<polygon fill="#63b8ff" stroke="#63b8ff" points="517.49,-137.54 511.02,-129.15 510.85,-139.74 517.49,-137.54"/>
</a>
</g>
</g>
<!-- Node16 -->
<g id="Node000016" class="node">
<title>Node16</title>
<g id="a_Node000016"><a xlink:title=" ">
<polygon fill="#e0e0e0" stroke="#999999" points="641.01,-129 594.01,-129 594.01,-110 641.01,-110 641.01,-129"/>
<text text-anchor="middle" x="617.51" y="-117" font-family="Helvetica,sans-Serif" font-size="10.00">vector</text>
</a>
</g>
</g>
<!-- Node2&#45;&gt;Node16 -->
<g id="edge29_Node000002_Node000016" class="edge">
<title>Node2&#45;&gt;Node16</title>
<g id="a_edge29_Node000002_Node000016"><a xlink:title=" ">
<path fill="none" stroke="#63b8ff" d="M592.5,-362.77C598.06,-354.12 606,-340.29 609.51,-327 627.18,-260.01 622.74,-176.59 619.49,-139.64"/>
<polygon fill="#63b8ff" stroke="#63b8ff" points="622.95,-138.98 618.51,-129.36 615.98,-139.64 622.95,-138.98"/>
</a>
</g>
</g>
<!-- Node17 -->
<g id="Node000017" class="node">
<title>Node17</title>
<g id="a_Node000017"><a xlink:title=" ">
<polygon fill="#e0e0e0" stroke="#999999" points="719.51,-321.5 661.51,-321.5 661.51,-302.5 719.51,-302.5 719.51,-321.5"/>
<text text-anchor="middle" x="690.51" y="-309.5" font-family="Helvetica,sans-Serif" font-size="10.00">memory</text>
</a>
</g>
</g>
<!-- Node2&#45;&gt;Node17 -->
<g id="edge30_Node000002_Node000017" class="edge">
<title>Node2&#45;&gt;Node17</title>
<g id="a_edge30_Node000002_Node000017"><a xlink:title=" ">
<path fill="none" stroke="#63b8ff" d="M601.85,-362.87C618.83,-353.32 646.4,-337.81 666.3,-326.62"/>
<polygon fill="#63b8ff" stroke="#63b8ff" points="668.1,-329.62 675.1,-321.67 664.67,-323.52 668.1,-329.62"/>
</a>
</g>
</g>
<!-- Node4 -->
<g id="Node000004" class="node">
<title>Node4</title>
<g id="a_Node000004"><a xlink:href="Point3D_8hpp.html" target="_top" xlink:title=" ">
<polygon fill="white" stroke="#666666" points="248.01,-195 123.01,-195 123.01,-165 248.01,-165 248.01,-195"/>
<text text-anchor="start" x="131.01" y="-183" font-family="Helvetica,sans-Serif" font-size="10.00">../../Geometry/Point3D</text>
<text text-anchor="middle" x="185.51" y="-172" font-family="Helvetica,sans-Serif" font-size="10.00">/Point3D.hpp</text>
</a>
</g>
</g>
<!-- Node3&#45;&gt;Node4 -->
<g id="edge3_Node000003_Node000004" class="edge">
<title>Node3&#45;&gt;Node4</title>
<g id="a_edge3_Node000003_Node000004"><a xlink:title=" ">
<path fill="none" stroke="#63b8ff" d="M189.24,-302.47C188.65,-283.04 187.16,-234.87 186.26,-205.36"/>
<polygon fill="#63b8ff" stroke="#63b8ff" points="189.75,-204.95 185.94,-195.07 182.75,-205.17 189.75,-204.95"/>
</a>
</g>
</g>
<!-- Node5 -->
<g id="Node000005" class="node">
<title>Node5</title>
<g id="a_Node000005"><a xlink:href="Vector3D_8hpp.html" target="_top" xlink:title=" ">
<polygon fill="white" stroke="#666666" points="254.51,-129 116.51,-129 116.51,-110 254.51,-110 254.51,-129"/>
<text text-anchor="middle" x="185.51" y="-117" font-family="Helvetica,sans-Serif" font-size="10.00">../Vector3D/Vector3D.hpp</text>
</a>
</g>
</g>
<!-- Node3&#45;&gt;Node5 -->
<g id="edge6_Node000003_Node000005" class="edge">
<title>Node3&#45;&gt;Node5</title>
<g id="a_edge6_Node000003_Node000005"><a xlink:title=" ">
<path fill="none" stroke="#63b8ff" d="M131.3,-302.46C84.86,-294.31 25.23,-280.4 10.51,-261 -33.99,-202.37 82.46,-153.77 146.56,-132.32"/>
<polygon fill="#63b8ff" stroke="#63b8ff" points="147.95,-135.54 156.37,-129.11 145.78,-128.89 147.95,-135.54"/>
</a>
</g>
</g>
<!-- Node7 -->
<g id="Node000007" class="node">
<title>Node7</title>
<g id="a_Node000007"><a xlink:href="Rectangle3D_8hpp.html" target="_top" xlink:title=" ">
<polygon fill="white" stroke="#666666" points="161.01,-261 20.01,-261 20.01,-231 161.01,-231 161.01,-261"/>
<text text-anchor="start" x="28.01" y="-249" font-family="Helvetica,sans-Serif" font-size="10.00">../../Geometry/Rectangle3</text>
<text text-anchor="middle" x="90.51" y="-238" font-family="Helvetica,sans-Serif" font-size="10.00">D/Rectangle3D.hpp</text>
</a>
</g>
</g>
<!-- Node3&#45;&gt;Node7 -->
<g id="edge7_Node000003_Node000007" class="edge">
<title>Node3&#45;&gt;Node7</title>
<g id="a_edge7_Node000003_Node000007"><a xlink:title=" ">
<path fill="none" stroke="#63b8ff" d="M176.15,-302.37C162.03,-293.24 139.27,-278.53 120.76,-266.56"/>
<polygon fill="#63b8ff" stroke="#63b8ff" points="122.64,-263.61 112.34,-261.12 118.84,-269.48 122.64,-263.61"/>
</a>
</g>
</g>
<!-- Node8 -->
<g id="Node000008" class="node">
<title>Node8</title>
<g id="a_Node000008"><a xlink:href="Ray_8hpp.html" target="_top" xlink:title=" ">
<polygon fill="white" stroke="#666666" points="323.01,-261 218.01,-261 218.01,-231 323.01,-231 323.01,-261"/>
<text text-anchor="start" x="226.01" y="-249" font-family="Helvetica,sans-Serif" font-size="10.00">../../Geometry/Ray</text>
<text text-anchor="middle" x="270.51" y="-238" font-family="Helvetica,sans-Serif" font-size="10.00">/Ray.hpp</text>
</a>
</g>
</g>
<!-- Node3&#45;&gt;Node8 -->
<g id="edge10_Node000003_Node000008" class="edge">
<title>Node3&#45;&gt;Node8</title>
<g id="a_edge10_Node000003_Node000008"><a xlink:title=" ">
<path fill="none" stroke="#63b8ff" d="M200.43,-302.37C211.73,-293.44 229.77,-279.19 244.72,-267.38"/>
<polygon fill="#63b8ff" stroke="#63b8ff" points="246.96,-270.06 252.64,-261.12 242.63,-264.57 246.96,-270.06"/>
</a>
</g>
</g>
<!-- Node4&#45;&gt;Node5 -->
<g id="edge4_Node000004_Node000005" class="edge">
<title>Node4&#45;&gt;Node5</title>
<g id="a_edge4_Node000004_Node000005"><a xlink:title=" ">
<path fill="none" stroke="#63b8ff" d="M185.51,-164.84C185.51,-157.21 185.51,-147.7 185.51,-139.45"/>
<polygon fill="#63b8ff" stroke="#63b8ff" points="189.01,-139.27 185.51,-129.27 182.01,-139.27 189.01,-139.27"/>
</a>
</g>
</g>
<!-- Node6 -->
<g id="Node000006" class="node">
<title>Node6</title>
<g id="a_Node000006"><a xlink:title=" ">
<polygon fill="#e0e0e0" stroke="#999999" points="211.01,-74 160.01,-74 160.01,-55 211.01,-55 211.01,-74"/>
<text text-anchor="middle" x="185.51" y="-62" font-family="Helvetica,sans-Serif" font-size="10.00">math.h</text>
</a>
</g>
</g>
<!-- Node5&#45;&gt;Node6 -->
<g id="edge5_Node000005_Node000006" class="edge">
<title>Node5&#45;&gt;Node6</title>
<g id="a_edge5_Node000005_Node000006"><a xlink:title=" ">
<path fill="none" stroke="#63b8ff" d="M185.51,-109.75C185.51,-102.8 185.51,-92.85 185.51,-84.13"/>
<polygon fill="#63b8ff" stroke="#63b8ff" points="189.01,-84.09 185.51,-74.09 182.01,-84.09 189.01,-84.09"/>
</a>
</g>
</g>
<!-- Node7&#45;&gt;Node4 -->
<g id="edge8_Node000007_Node000004" class="edge">
<title>Node7&#45;&gt;Node4</title>
<g id="a_edge8_Node000007_Node000004"><a xlink:title=" ">
<path fill="none" stroke="#63b8ff" d="M111.59,-230.8C124.63,-222.01 141.56,-210.61 155.92,-200.93"/>
<polygon fill="#63b8ff" stroke="#63b8ff" points="158.14,-203.65 164.48,-195.16 154.23,-197.85 158.14,-203.65"/>
</a>
</g>
</g>
<!-- Node7&#45;&gt;Node5 -->
<g id="edge9_Node000007_Node000005" class="edge">
<title>Node7&#45;&gt;Node5</title>
<g id="a_edge9_Node000007_Node000005"><a xlink:title=" ">
<path fill="none" stroke="#63b8ff" d="M91.49,-230.91C93.33,-213.77 98.58,-184.69 113.51,-165 123.92,-151.26 139.91,-140.77 154.17,-133.44"/>
<polygon fill="#63b8ff" stroke="#63b8ff" points="155.74,-136.57 163.23,-129.07 152.7,-130.26 155.74,-136.57"/>
</a>
</g>
</g>
<!-- Node8&#45;&gt;Node4 -->
<g id="edge11_Node000008_Node000004" class="edge">
<title>Node8&#45;&gt;Node4</title>
<g id="a_edge11_Node000008_Node000004"><a xlink:title=" ">
<path fill="none" stroke="#63b8ff" d="M251.64,-230.8C240.09,-222.1 225.11,-210.82 212.34,-201.2"/>
<polygon fill="#63b8ff" stroke="#63b8ff" points="214.41,-198.38 204.32,-195.16 210.2,-203.98 214.41,-198.38"/>
</a>
</g>
</g>
<!-- Node8&#45;&gt;Node5 -->
<g id="edge12_Node000008_Node000005" class="edge">
<title>Node8&#45;&gt;Node5</title>
<g id="a_edge12_Node000008_Node000005"><a xlink:title=" ">
<path fill="none" stroke="#63b8ff" d="M271.36,-230.71C271.67,-213.64 269.88,-184.89 256.51,-165 247.21,-151.17 232.01,-140.81 218.06,-133.58"/>
<polygon fill="#63b8ff" stroke="#63b8ff" points="219.22,-130.25 208.69,-129.07 216.18,-136.56 219.22,-130.25"/>
</a>
</g>
</g>
<!-- Node9&#45;&gt;Node8 -->
<g id="edge15_Node000009_Node000008" class="edge">
<title>Node9&#45;&gt;Node8</title>
<g id="a_edge15_Node000009_Node000008"><a xlink:title=" ">
<path fill="none" stroke="#63b8ff" d="M410.22,-296.95C383.53,-287.41 348.02,-274.71 319.48,-264.51"/>
<polygon fill="#63b8ff" stroke="#63b8ff" points="320.29,-261.08 309.7,-261.01 317.94,-267.67 320.29,-261.08"/>
</a>
</g>
</g>
<!-- Node10 -->
<g id="Node000010" class="node">
<title>Node10</title>
<g id="a_Node000010"><a xlink:title=" ">
<polygon fill="#e0e0e0" stroke="#999999" points="549.51,-255.5 493.51,-255.5 493.51,-236.5 549.51,-236.5 549.51,-255.5"/>
<text text-anchor="middle" x="521.51" y="-243.5" font-family="Helvetica,sans-Serif" font-size="10.00">optional</text>
</a>
</g>
</g>
<!-- Node9&#45;&gt;Node10 -->
<g id="edge14_Node000009_Node000010" class="edge">
<title>Node9&#45;&gt;Node10</title>
<g id="a_edge14_Node000009_Node000010"><a xlink:title=" ">
<path fill="none" stroke="#63b8ff" d="M465.49,-296.8C476.82,-286.72 492.04,-273.19 503.75,-262.78"/>
<polygon fill="#63b8ff" stroke="#63b8ff" points="506.41,-265.1 511.56,-255.84 501.76,-259.87 506.41,-265.1"/>
</a>
</g>
</g>
<!-- Node11 -->
<g id="Node000011" class="node">
<title>Node11</title>
<g id="a_Node000011"><a xlink:href="HitRecord_8hpp.html" target="_top" xlink:title=" ">
<polygon fill="white" stroke="#666666" points="475.51,-261 341.51,-261 341.51,-231 475.51,-231 475.51,-261"/>
<text text-anchor="start" x="349.51" y="-249" font-family="Helvetica,sans-Serif" font-size="10.00">../../Geometry/HitRecord</text>
<text text-anchor="middle" x="408.51" y="-238" font-family="Helvetica,sans-Serif" font-size="10.00">/HitRecord.hpp</text>
</a>
</g>
</g>
<!-- Node9&#45;&gt;Node11 -->
<g id="edge16_Node000009_Node000011" class="edge">
<title>Node9&#45;&gt;Node11</title>
<g id="a_edge16_Node000009_Node000011"><a xlink:title=" ">
<path fill="none" stroke="#63b8ff" d="M440.41,-296.8C435.31,-288.84 428.84,-278.74 423.06,-269.71"/>
<polygon fill="#63b8ff" stroke="#63b8ff" points="425.92,-267.7 417.58,-261.16 420.03,-271.47 425.92,-267.7"/>
</a>
</g>
</g>
<!-- Node11&#45;&gt;Node4 -->
<g id="edge17_Node000011_Node000004" class="edge">
<title>Node11&#45;&gt;Node4</title>
<g id="a_edge17_Node000011_Node000004"><a xlink:title=" ">
<path fill="none" stroke="#63b8ff" d="M359.57,-230.95C325.58,-221.2 280.13,-208.16 244.2,-197.84"/>
<polygon fill="#63b8ff" stroke="#63b8ff" points="244.91,-194.41 234.33,-195.01 242.98,-201.14 244.91,-194.41"/>
</a>
</g>
</g>
<!-- Node11&#45;&gt;Node5 -->
<g id="edge18_Node000011_Node000005" class="edge">
<title>Node11&#45;&gt;Node5</title>
<g id="a_edge18_Node000011_Node000005"><a xlink:title=" ">
<path fill="none" stroke="#63b8ff" d="M386.44,-230.79C360.52,-214.29 316.02,-186.58 276.51,-165 255.8,-153.69 231.8,-142.02 213.65,-133.46"/>
<polygon fill="#63b8ff" stroke="#63b8ff" points="214.77,-130.12 204.23,-129.05 211.8,-136.46 214.77,-130.12"/>
</a>
</g>
</g>
<!-- Node12 -->
<g id="Node000012" class="node">
<title>Node12</title>
<g id="a_Node000012"><a xlink:href="IMaterial_8hpp.html" target="_top" xlink:title=" ">
<polygon fill="white" stroke="#666666" points="483.51,-195 365.51,-195 365.51,-165 483.51,-165 483.51,-195"/>
<text text-anchor="start" x="373.51" y="-183" font-family="Helvetica,sans-Serif" font-size="10.00">../../Objects/Interface</text>
<text text-anchor="middle" x="424.51" y="-172" font-family="Helvetica,sans-Serif" font-size="10.00">/IMaterial.hpp</text>
</a>
</g>
</g>
<!-- Node11&#45;&gt;Node12 -->
<g id="edge19_Node000011_Node000012" class="edge">
<title>Node11&#45;&gt;Node12</title>
<g id="a_edge19_Node000011_Node000012"><a xlink:title=" ">
<path fill="none" stroke="#63b8ff" d="M406.34,-230.8C407.25,-223.17 409.38,-213.57 411.99,-204.84"/>
<polygon fill="#63b8ff" stroke="#63b8ff" points="415.38,-205.76 415.25,-195.16 408.74,-203.53 415.38,-205.76"/>
</a>
</g>
</g>
<!-- Node12&#45;&gt;Node11 -->
<g id="edge20_Node000012_Node000011" class="edge">
<title>Node12&#45;&gt;Node11</title>
<g id="a_edge20_Node000012_Node000011"><a xlink:title=" ">
<path fill="none" stroke="#63b8ff" d="M426.68,-195.16C425.77,-202.78 423.65,-212.38 421.03,-221.11"/>
<polygon fill="#63b8ff" stroke="#63b8ff" points="417.65,-220.2 417.78,-230.8 424.28,-222.43 417.65,-220.2"/>
</a>
</g>
</g>
<!-- Node13 -->
<g id="Node000013" class="node">
<title>Node13</title>
<g id="a_Node000013"><a xlink:href="Color_8hpp.html" target="_top" xlink:title=" ">
<polygon fill="white" stroke="#666666" points="527.51,-74 421.51,-74 421.51,-55 527.51,-55 527.51,-74"/>
<text text-anchor="middle" x="474.51" y="-62" font-family="Helvetica,sans-Serif" font-size="10.00">../../Utils/Color.hpp</text>
</a>
</g>
</g>
<!-- Node12&#45;&gt;Node13 -->
<g id="edge21_Node000012_Node000013" class="edge">
<title>Node12&#45;&gt;Node13</title>
<g id="a_edge21_Node000012_Node000013"><a xlink:title=" ">
<path fill="none" stroke="#63b8ff" d="M430.84,-164.63C439.91,-144.03 456.61,-106.12 466.52,-83.63"/>
<polygon fill="#63b8ff" stroke="#63b8ff" points="469.83,-84.79 470.66,-74.23 463.43,-81.97 469.83,-84.79"/>
</a>
</g>
</g>
<!-- Node12&#45;&gt;Node15 -->
<g id="edge23_Node000012_Node000015" class="edge">
<title>Node12&#45;&gt;Node15</title>
<g id="a_edge23_Node000012_Node000015"><a xlink:title=" ">
<path fill="none" stroke="#63b8ff" d="M445.57,-164.84C459.05,-155.77 476.5,-144.04 490.05,-134.92"/>
<polygon fill="#63b8ff" stroke="#63b8ff" points="492.38,-137.58 498.72,-129.09 488.47,-131.77 492.38,-137.58"/>
</a>
</g>
</g>
<!-- Node12&#45;&gt;Node16 -->
<g id="edge27_Node000012_Node000016" class="edge">
<title>Node12&#45;&gt;Node16</title>
<g id="a_edge27_Node000012_Node000016"><a xlink:title=" ">
<path fill="none" stroke="#63b8ff" d="M470.73,-164.99C505.75,-154.37 553.03,-140.04 584.35,-130.55"/>
<polygon fill="#63b8ff" stroke="#63b8ff" points="585.37,-133.9 593.92,-127.65 583.34,-127.2 585.37,-133.9"/>
</a>
</g>
</g>
<!-- Node14 -->
<g id="Node000014" class="node">
<title>Node14</title>
<g id="a_Node000014"><a xlink:title=" ">
<polygon fill="#e0e0e0" stroke="#999999" points="506.51,-19 442.51,-19 442.51,0 506.51,0 506.51,-19"/>
<text text-anchor="middle" x="474.51" y="-7" font-family="Helvetica,sans-Serif" font-size="10.00">algorithm</text>
</a>
</g>
</g>
<!-- Node13&#45;&gt;Node14 -->
<g id="edge22_Node000013_Node000014" class="edge">
<title>Node13&#45;&gt;Node14</title>
<g id="a_edge22_Node000013_Node000014"><a xlink:title=" ">
<path fill="none" stroke="#63b8ff" d="M474.51,-54.75C474.51,-47.8 474.51,-37.85 474.51,-29.13"/>
<polygon fill="#63b8ff" stroke="#63b8ff" points="478.01,-29.09 474.51,-19.09 471.01,-29.09 478.01,-29.09"/>
</a>
</g>
</g>
<!-- Node15&#45;&gt;Node2 -->
<g id="edge26_Node000015_Node000002" class="edge">
<title>Node15&#45;&gt;Node2</title>
<g id="a_edge26_Node000015_Node000002"><a xlink:title=" ">
<path fill="none" stroke="#63b8ff" d="M520.81,-129.15C534.09,-147.48 555.39,-191.76 567.51,-231 580.67,-273.63 589.13,-325.5 589.92,-352.73"/>
<polygon fill="#63b8ff" stroke="#63b8ff" points="586.42,-352.75 589.78,-362.79 593.42,-352.84 586.42,-352.75"/>
</a>
</g>
</g>
<!-- Node15&#45;&gt;Node11 -->
<g id="edge24_Node000015_Node000011" class="edge">
<title>Node15&#45;&gt;Node11</title>
<g id="a_edge24_Node000015_Node000011"><a xlink:title=" ">
<path fill="none" stroke="#63b8ff" d="M511.38,-129.22C510.73,-144.14 507.53,-174.9 492.51,-195 482.76,-208.05 468.51,-218.34 454.51,-226.11"/>
<polygon fill="#63b8ff" stroke="#63b8ff" points="452.65,-223.13 445.39,-230.85 455.88,-229.34 452.65,-223.13"/>
</a>
</g>
</g>
<!-- Node15&#45;&gt;Node13 -->
<g id="edge25_Node000015_Node000013" class="edge">
<title>Node15&#45;&gt;Node13</title>
<g id="a_edge25_Node000015_Node000013"><a xlink:title=" ">
<path fill="none" stroke="#63b8ff" d="M505.4,-109.75C500.22,-102.34 492.66,-91.5 486.31,-82.41"/>
<polygon fill="#63b8ff" stroke="#63b8ff" points="489.1,-80.29 480.5,-74.09 483.36,-84.29 489.1,-80.29"/>
</a>
</g>
</g>
</g>
</svg>

<g id="navigator" transform="translate(0 0)" fill="#404254">
  <rect fill="#f2f5e9" fill-opacity="0.5" stroke="#606060" stroke-width=".5" x="0" y="0" width="60" height="60"/>
  <use id="zoomplus" xlink:href="#zoomPlus" x="17" y="9" onmousedown="handleZoom(evt,'in')"/>
  <use id="zoomminus" xlink:href="#zoomMin" x="42" y="9" onmousedown="handleZoom(evt,'out')"/>
  <use id="reset" xlink:href="#resetDef" x="30" y="36" onmousedown="handleReset()"/>
   <use id="arrowup" xlink:href="#arrowUp" x="0" y="0" onmousedown="handlePan(0,-1)"/>
  <use id="arrowright" xlink:href="#arrowRight" x="0" y="0" onmousedown="handlePan(1,0)"/>
  <use id="arrowdown" xlink:href="#arrowDown" x="0" y="0" onmousedown="handlePan(0,1)"/>
  <use id="arrowleft" xlink:href="#arrowLeft" x="0" y="0" onmousedown="handlePan(-1,0)"/>
</g>
<svg viewBox="0 0 15 15" width="100%" height="30px" preserveAspectRatio="xMaxYMin meet">
 <g id="arrow_out" transform="scale(0.3 0.3)">
  <a xlink:href="Scene_8cpp__incl_org.svg" target="_base">
   <rect id="button" ry="5" rx="5" y="6" x="6" height="38" width="38"
        fill="#f2f5e9" fill-opacity="0.5" stroke="#606060" stroke-width="1.0"/>
   <path id="arrow"
     d="M 11.500037,31.436501 C 11.940474,20.09759 22.043105,11.32322 32.158766,21.979434 L 37.068811,17.246167 C 37.068811,17.246167 37.088388,32 37.088388,32 L 22.160133,31.978069 C 22.160133,31.978069 26.997745,27.140456 26.997745,27.140456 C 18.528582,18.264221 13.291696,25.230495 11.500037,31.436501 z"
     style="fill:#404040;"/>
  </a>
 </g>
</svg>

<style type='text/css'>
<![CDATA[
[data-mouse-over-selected='false'] { opacity: 0.7; }
[data-mouse-over-selected='true']  { opacity: 1.0; }
]]>
</style>
<script type="application/ecmascript"><![CDATA[
document.addEventListener('DOMContentLoaded', (event) => {
  highlightEdges();
  highlightAdjacentNodes();
});
]]></script>
</svg>
