<?xml version="1.0" encoding="UTF-8" standalone="no"?>
<!DOCTYPE svg PUBLIC "-//W3C//DTD SVG 1.1//EN"
 "http://www.w3.org/Graphics/SVG/1.1/DTD/svg11.dtd">
<!-- Generated by graphviz version 2.43.0 (0)
 -->
<!-- Title: src/Objects/Plugins/CorePlugin/Primitives/Sphere/Sphere.hpp Pages: 1 -->
<svg width="716pt" height="467pt"
 viewBox="0.00 0.00 716.00 467.00" xmlns="http://www.w3.org/2000/svg" xmlns:xlink="http://www.w3.org/1999/xlink">
<g id="graph0" class="graph" transform="scale(1 1) rotate(0) translate(4 463)">
<title>src/Objects/Plugins/CorePlugin/Primitives/Sphere/Sphere.hpp</title>
<!-- Node1 -->
<g id="Node000001" class="node">
<title>Node1</title>
<g id="a_Node000001"><a xlink:title=" ">
<polygon fill="#999999" stroke="#666666" points="631.5,-459 506.5,-459 506.5,-418 631.5,-418 631.5,-459"/>
<text text-anchor="start" x="514.5" y="-447" font-family="Helvetica,sans-Serif" font-size="10.00">src/Objects/Plugins</text>
<text text-anchor="start" x="514.5" y="-436" font-family="Helvetica,sans-Serif" font-size="10.00">/CorePlugin/Primitives</text>
<text text-anchor="middle" x="569" y="-425" font-family="Helvetica,sans-Serif" font-size="10.00">/Sphere/Sphere.hpp</text>
</a>
</g>
</g>
<!-- Node2 -->
<g id="Node000002" class="node">
<title>Node2</title>
<g id="a_Node000002"><a xlink:href="APrimitive_8hpp.html" target="_top" xlink:title=" ">
<polygon fill="white" stroke="#666666" points="592,-382 446,-382 446,-352 592,-352 592,-382"/>
<text text-anchor="start" x="454" y="-370" font-family="Helvetica,sans-Serif" font-size="10.00">../../../../Abstracts</text>
<text text-anchor="middle" x="519" y="-359" font-family="Helvetica,sans-Serif" font-size="10.00">/APrimitive/APrimitive.hpp</text>
</a>
</g>
</g>
<!-- Node1&#45;&gt;Node2 -->
<g id="edge1_Node000001_Node000002" class="edge">
<title>Node1&#45;&gt;Node2</title>
<g id="a_edge1_Node000001_Node000002"><a xlink:title=" ">
<path fill="none" stroke="#63b8ff" d="M554.81,-417.77C548.66,-409.22 541.43,-399.17 535.08,-390.35"/>
<polygon fill="#63b8ff" stroke="#63b8ff" points="537.78,-388.11 529.1,-382.04 532.1,-392.2 537.78,-388.11"/>
</a>
</g>
</g>
<!-- Node12 -->
<g id="Node000012" class="node">
<title>Node12</title>
<g id="a_Node000012"><a xlink:title=" ">
<polygon fill="#e0e0e0" stroke="#999999" points="708,-189.5 650,-189.5 650,-170.5 708,-170.5 708,-189.5"/>
<text text-anchor="middle" x="679" y="-177.5" font-family="Helvetica,sans-Serif" font-size="10.00">memory</text>
</a>
</g>
</g>
<!-- Node1&#45;&gt;Node12 -->
<g id="edge26_Node000001_Node000012" class="edge">
<title>Node1&#45;&gt;Node12</title>
<g id="a_edge26_Node000001_Node000012"><a xlink:title=" ">
<path fill="none" stroke="#63b8ff" d="M581.31,-417.86C587.6,-407.42 595.14,-394.24 601,-382 632.35,-316.53 660.97,-234.9 673,-199.17"/>
<polygon fill="#63b8ff" stroke="#63b8ff" points="676.34,-200.22 676.18,-189.62 669.7,-198 676.34,-200.22"/>
</a>
</g>
</g>
<!-- Node3 -->
<g id="Node000003" class="node">
<title>Node3</title>
<g id="a_Node000003"><a xlink:href="IMaterial_8hpp.html" target="_top" xlink:title=" ">
<polygon fill="white" stroke="#666666" points="486,-316 396,-316 396,-297 486,-297 486,-316"/>
<text text-anchor="middle" x="441" y="-304" font-family="Helvetica,sans-Serif" font-size="10.00">../IMaterial.hpp</text>
</a>
</g>
</g>
<!-- Node2&#45;&gt;Node3 -->
<g id="edge2_Node000002_Node000003" class="edge">
<title>Node2&#45;&gt;Node3</title>
<g id="a_edge2_Node000002_Node000003"><a xlink:title=" ">
<path fill="none" stroke="#63b8ff" d="M500.12,-351.84C488.22,-342.91 472.88,-331.41 460.8,-322.35"/>
<polygon fill="#63b8ff" stroke="#63b8ff" points="462.79,-319.47 452.69,-316.27 458.59,-325.07 462.79,-319.47"/>
</a>
</g>
</g>
<!-- Node2&#45;&gt;Node12 -->
<g id="edge15_Node000002_Node000012" class="edge">
<title>Node2&#45;&gt;Node12</title>
<g id="a_edge15_Node000002_Node000012"><a xlink:title=" ">
<path fill="none" stroke="#63b8ff" d="M533.84,-351.94C544,-342.12 557.65,-328.57 569,-316 605.98,-275.06 646.13,-223.89 666.14,-197.88"/>
<polygon fill="#63b8ff" stroke="#63b8ff" points="669.04,-199.85 672.34,-189.78 663.48,-195.59 669.04,-199.85"/>
</a>
</g>
</g>
<!-- Node13 -->
<g id="Node000013" class="node">
<title>Node13</title>
<g id="a_Node000013"><a xlink:title=" ">
<polygon fill="#e0e0e0" stroke="#999999" points="560,-316 504,-316 504,-297 560,-297 560,-316"/>
<text text-anchor="middle" x="532" y="-304" font-family="Helvetica,sans-Serif" font-size="10.00">optional</text>
</a>
</g>
</g>
<!-- Node2&#45;&gt;Node13 -->
<g id="edge16_Node000002_Node000013" class="edge">
<title>Node2&#45;&gt;Node13</title>
<g id="a_edge16_Node000002_Node000013"><a xlink:title=" ">
<path fill="none" stroke="#63b8ff" d="M522.15,-351.84C523.86,-344.13 526,-334.49 527.85,-326.17"/>
<polygon fill="#63b8ff" stroke="#63b8ff" points="531.3,-326.79 530.05,-316.27 524.47,-325.27 531.3,-326.79"/>
</a>
</g>
</g>
<!-- Node14 -->
<g id="Node000014" class="node">
<title>Node14</title>
<g id="a_Node000014"><a xlink:href="AABB_8hpp.html" target="_top" xlink:title=" ">
<polygon fill="white" stroke="#666666" points="278,-261 156,-261 156,-231 278,-231 278,-261"/>
<text text-anchor="start" x="164" y="-249" font-family="Helvetica,sans-Serif" font-size="10.00">../../../Geometry/AABB</text>
<text text-anchor="middle" x="217" y="-238" font-family="Helvetica,sans-Serif" font-size="10.00">/AABB.hpp</text>
</a>
</g>
</g>
<!-- Node2&#45;&gt;Node14 -->
<g id="edge17_Node000002_Node000014" class="edge">
<title>Node2&#45;&gt;Node14</title>
<g id="a_edge17_Node000002_Node000014"><a xlink:title=" ">
<path fill="none" stroke="#63b8ff" d="M481.07,-351.9C454.64,-342.01 418.6,-328.39 387,-316 343.77,-299.04 294.64,-279.02 260.35,-264.92"/>
<polygon fill="#63b8ff" stroke="#63b8ff" points="261.67,-261.68 251.1,-261.11 259.01,-268.16 261.67,-261.68"/>
</a>
</g>
</g>
<!-- Node17 -->
<g id="Node000017" class="node">
<title>Node17</title>
<g id="a_Node000017"><a xlink:href="Ray_8hpp.html" target="_top" xlink:title=" ">
<polygon fill="white" stroke="#666666" points="86,-189.5 0,-189.5 0,-170.5 86,-170.5 86,-189.5"/>
<text text-anchor="middle" x="43" y="-177.5" font-family="Helvetica,sans-Serif" font-size="10.00">../Ray/Ray.hpp</text>
</a>
</g>
</g>
<!-- Node2&#45;&gt;Node17 -->
<g id="edge25_Node000002_Node000017" class="edge">
<title>Node2&#45;&gt;Node17</title>
<g id="a_edge25_Node000002_Node000017"><a xlink:title=" ">
<path fill="none" stroke="#63b8ff" d="M445.65,-354.02C368.31,-339.43 244.4,-310.41 147,-261 112.69,-243.6 78.39,-214.34 59.02,-196.44"/>
<polygon fill="#63b8ff" stroke="#63b8ff" points="61.35,-193.84 51.67,-189.54 56.56,-198.94 61.35,-193.84"/>
</a>
</g>
</g>
<!-- Node4 -->
<g id="Node000004" class="node">
<title>Node4</title>
<g id="a_Node000004"><a xlink:href="Color_8hpp.html" target="_top" xlink:title=" ">
<polygon fill="white" stroke="#666666" points="414,-189.5 308,-189.5 308,-170.5 414,-170.5 414,-189.5"/>
<text text-anchor="middle" x="361" y="-177.5" font-family="Helvetica,sans-Serif" font-size="10.00">../../Utils/Color.hpp</text>
</a>
</g>
</g>
<!-- Node3&#45;&gt;Node4 -->
<g id="edge3_Node000003_Node000004" class="edge">
<title>Node3&#45;&gt;Node4</title>
<g id="a_edge3_Node000003_Node000004"><a xlink:title=" ">
<path fill="none" stroke="#63b8ff" d="M435.5,-296.94C422.43,-276.6 389.29,-225.03 371.95,-198.04"/>
<polygon fill="#63b8ff" stroke="#63b8ff" points="374.89,-196.14 366.54,-189.62 369,-199.92 374.89,-196.14"/>
</a>
</g>
</g>
<!-- Node6 -->
<g id="Node000006" class="node">
<title>Node6</title>
<g id="a_Node000006"><a xlink:href="ILight_8hpp.html" target="_top" xlink:title=" ">
<polygon fill="white" stroke="#666666" points="534.5,-255.5 469.5,-255.5 469.5,-236.5 534.5,-236.5 534.5,-255.5"/>
<text text-anchor="middle" x="502" y="-243.5" font-family="Helvetica,sans-Serif" font-size="10.00">ILight.hpp</text>
</a>
</g>
</g>
<!-- Node3&#45;&gt;Node6 -->
<g id="edge5_Node000003_Node000006" class="edge">
<title>Node3&#45;&gt;Node6</title>
<g id="a_edge5_Node000003_Node000006"><a xlink:title=" ">
<path fill="none" stroke="#63b8ff" d="M450,-296.87C459.37,-287.88 474.25,-273.61 485.7,-262.64"/>
<polygon fill="#63b8ff" stroke="#63b8ff" points="488.17,-265.12 492.96,-255.67 483.32,-260.06 488.17,-265.12"/>
</a>
</g>
</g>
<!-- Node11 -->
<g id="Node000011" class="node">
<title>Node11</title>
<g id="a_Node000011"><a xlink:title=" ">
<polygon fill="#e0e0e0" stroke="#999999" points="479.5,-189.5 432.5,-189.5 432.5,-170.5 479.5,-170.5 479.5,-189.5"/>
<text text-anchor="middle" x="456" y="-177.5" font-family="Helvetica,sans-Serif" font-size="10.00">vector</text>
</a>
</g>
</g>
<!-- Node3&#45;&gt;Node11 -->
<g id="edge14_Node000003_Node000011" class="edge">
<title>Node3&#45;&gt;Node11</title>
<g id="a_edge14_Node000003_Node000011"><a xlink:title=" ">
<path fill="none" stroke="#63b8ff" d="M442.03,-296.94C444.43,-277.04 450.43,-227.26 453.73,-199.85"/>
<polygon fill="#63b8ff" stroke="#63b8ff" points="457.24,-199.96 454.96,-189.62 450.29,-199.13 457.24,-199.96"/>
</a>
</g>
</g>
<!-- Node5 -->
<g id="Node000005" class="node">
<title>Node5</title>
<g id="a_Node000005"><a xlink:title=" ">
<polygon fill="#e0e0e0" stroke="#999999" points="390,-129 326,-129 326,-110 390,-110 390,-129"/>
<text text-anchor="middle" x="358" y="-117" font-family="Helvetica,sans-Serif" font-size="10.00">algorithm</text>
</a>
</g>
</g>
<!-- Node4&#45;&gt;Node5 -->
<g id="edge4_Node000004_Node000005" class="edge">
<title>Node4&#45;&gt;Node5</title>
<g id="a_edge4_Node000004_Node000005"><a xlink:title=" ">
<path fill="none" stroke="#63b8ff" d="M360.56,-170.37C360.14,-162.25 359.5,-149.81 358.97,-139.39"/>
<polygon fill="#63b8ff" stroke="#63b8ff" points="362.45,-138.97 358.44,-129.17 355.46,-139.33 362.45,-138.97"/>
</a>
</g>
</g>
<!-- Node6&#45;&gt;Node4 -->
<g id="edge11_Node000006_Node000004" class="edge">
<title>Node6&#45;&gt;Node4</title>
<g id="a_edge11_Node000006_Node000004"><a xlink:title=" ">
<path fill="none" stroke="#63b8ff" d="M482.98,-236.37C458.91,-225.44 417.23,-206.52 389.39,-193.88"/>
<polygon fill="#63b8ff" stroke="#63b8ff" points="390.72,-190.65 380.16,-189.7 387.82,-197.02 390.72,-190.65"/>
</a>
</g>
</g>
<!-- Node7 -->
<g id="Node000007" class="node">
<title>Node7</title>
<g id="a_Node000007"><a xlink:href="HitRecord_8hpp.html" target="_top" xlink:title=" ">
<polygon fill="white" stroke="#666666" points="632,-195 498,-195 498,-165 632,-165 632,-195"/>
<text text-anchor="start" x="506" y="-183" font-family="Helvetica,sans-Serif" font-size="10.00">../../Geometry/HitRecord</text>
<text text-anchor="middle" x="565" y="-172" font-family="Helvetica,sans-Serif" font-size="10.00">/HitRecord.hpp</text>
</a>
</g>
</g>
<!-- Node6&#45;&gt;Node7 -->
<g id="edge6_Node000006_Node000007" class="edge">
<title>Node6&#45;&gt;Node7</title>
<g id="a_edge6_Node000006_Node000007"><a xlink:title=" ">
<path fill="none" stroke="#63b8ff" d="M510.5,-236.37C518.98,-227.75 532.37,-214.15 543.75,-202.59"/>
<polygon fill="#63b8ff" stroke="#63b8ff" points="546.34,-204.94 550.86,-195.36 541.35,-200.03 546.34,-204.94"/>
</a>
</g>
</g>
<!-- Node6&#45;&gt;Node11 -->
<g id="edge12_Node000006_Node000011" class="edge">
<title>Node6&#45;&gt;Node11</title>
<g id="a_edge12_Node000006_Node000011"><a xlink:title=" ">
<path fill="none" stroke="#63b8ff" d="M495.8,-236.37C488.77,-226.59 477.15,-210.42 468.27,-198.08"/>
<polygon fill="#63b8ff" stroke="#63b8ff" points="471.08,-195.98 462.4,-189.91 465.39,-200.07 471.08,-195.98"/>
</a>
</g>
</g>
<!-- Node6&#45;&gt;Node12 -->
<g id="edge13_Node000006_Node000012" class="edge">
<title>Node6&#45;&gt;Node12</title>
<g id="a_edge13_Node000006_Node000012"><a xlink:title=" ">
<path fill="none" stroke="#63b8ff" d="M525.88,-236.47C553.59,-226.57 600.64,-209.7 641,-195 642.64,-194.4 644.31,-193.79 646,-193.18"/>
<polygon fill="#63b8ff" stroke="#63b8ff" points="647.52,-196.35 655.7,-189.62 645.11,-189.78 647.52,-196.35"/>
</a>
</g>
</g>
<!-- Node8 -->
<g id="Node000008" class="node">
<title>Node8</title>
<g id="a_Node000008"><a xlink:href="Point3D_8hpp.html" target="_top" xlink:title=" ">
<polygon fill="white" stroke="#666666" points="305,-129 179,-129 179,-110 305,-110 305,-129"/>
<text text-anchor="middle" x="242" y="-117" font-family="Helvetica,sans-Serif" font-size="10.00">../Point3D/Point3D.hpp</text>
</a>
</g>
</g>
<!-- Node7&#45;&gt;Node8 -->
<g id="edge7_Node000007_Node000008" class="edge">
<title>Node7&#45;&gt;Node8</title>
<g id="a_edge7_Node000007_Node000008"><a xlink:title=" ">
<path fill="none" stroke="#63b8ff" d="M497.87,-166.62C494.87,-166.07 491.9,-165.53 489,-165 424.23,-153.2 349.88,-139.83 299.81,-130.85"/>
<polygon fill="#63b8ff" stroke="#63b8ff" points="300.28,-127.38 289.82,-129.06 299.05,-134.27 300.28,-127.38"/>
</a>
</g>
</g>
<!-- Node9 -->
<g id="Node000009" class="node">
<title>Node9</title>
<g id="a_Node000009"><a xlink:href="Vector3D_8hpp.html" target="_top" xlink:title=" ">
<polygon fill="white" stroke="#666666" points="311,-74 173,-74 173,-55 311,-55 311,-74"/>
<text text-anchor="middle" x="242" y="-62" font-family="Helvetica,sans-Serif" font-size="10.00">../Vector3D/Vector3D.hpp</text>
</a>
</g>
</g>
<!-- Node7&#45;&gt;Node9 -->
<g id="edge10_Node000007_Node000009" class="edge">
<title>Node7&#45;&gt;Node9</title>
<g id="a_edge10_Node000007_Node000009"><a xlink:title=" ">
<path fill="none" stroke="#63b8ff" d="M534.22,-164.92C501.2,-150.13 447.04,-126.73 399,-110 361.58,-96.97 318.18,-84.9 286.51,-76.62"/>
<polygon fill="#63b8ff" stroke="#63b8ff" points="287.22,-73.19 276.67,-74.07 285.47,-79.97 287.22,-73.19"/>
</a>
</g>
</g>
<!-- Node8&#45;&gt;Node9 -->
<g id="edge8_Node000008_Node000009" class="edge">
<title>Node8&#45;&gt;Node9</title>
<g id="a_edge8_Node000008_Node000009"><a xlink:title=" ">
<path fill="none" stroke="#63b8ff" d="M242,-109.75C242,-102.8 242,-92.85 242,-84.13"/>
<polygon fill="#63b8ff" stroke="#63b8ff" points="245.5,-84.09 242,-74.09 238.5,-84.09 245.5,-84.09"/>
</a>
</g>
</g>
<!-- Node10 -->
<g id="Node000010" class="node">
<title>Node10</title>
<g id="a_Node000010"><a xlink:title=" ">
<polygon fill="#e0e0e0" stroke="#999999" points="267.5,-19 216.5,-19 216.5,0 267.5,0 267.5,-19"/>
<text text-anchor="middle" x="242" y="-7" font-family="Helvetica,sans-Serif" font-size="10.00">math.h</text>
</a>
</g>
</g>
<!-- Node9&#45;&gt;Node10 -->
<g id="edge9_Node000009_Node000010" class="edge">
<title>Node9&#45;&gt;Node10</title>
<g id="a_edge9_Node000009_Node000010"><a xlink:title=" ">
<path fill="none" stroke="#63b8ff" d="M242,-54.75C242,-47.8 242,-37.85 242,-29.13"/>
<polygon fill="#63b8ff" stroke="#63b8ff" points="245.5,-29.09 242,-19.09 238.5,-29.09 245.5,-29.09"/>
</a>
</g>
</g>
<!-- Node14&#45;&gt;Node5 -->
<g id="edge18_Node000014_Node000005" class="edge">
<title>Node14&#45;&gt;Node5</title>
<g id="a_edge18_Node000014_Node000005"><a xlink:title=" ">
<path fill="none" stroke="#63b8ff" d="M230.42,-230.86C246.26,-214.42 273.65,-186.77 299,-165 311.25,-154.48 325.73,-143.54 337.27,-135.14"/>
<polygon fill="#63b8ff" stroke="#63b8ff" points="339.37,-137.94 345.44,-129.26 335.28,-132.26 339.37,-137.94"/>
</a>
</g>
</g>
<!-- Node14&#45;&gt;Node8 -->
<g id="edge21_Node000014_Node000008" class="edge">
<title>Node14&#45;&gt;Node8</title>
<g id="a_edge21_Node000014_Node000008"><a xlink:title=" ">
<path fill="none" stroke="#63b8ff" d="M219.87,-230.72C224.41,-208.12 233.24,-164.12 238.27,-139.09"/>
<polygon fill="#63b8ff" stroke="#63b8ff" points="241.74,-139.56 240.28,-129.07 234.88,-138.18 241.74,-139.56"/>
</a>
</g>
</g>
<!-- Node15 -->
<g id="Node000015" class="node">
<title>Node15</title>
<g id="a_Node000015"><a xlink:title=" ">
<polygon fill="#e0e0e0" stroke="#999999" points="151.5,-189.5 104.5,-189.5 104.5,-170.5 151.5,-170.5 151.5,-189.5"/>
<text text-anchor="middle" x="128" y="-177.5" font-family="Helvetica,sans-Serif" font-size="10.00">cmath</text>
</a>
</g>
</g>
<!-- Node14&#45;&gt;Node15 -->
<g id="edge19_Node000014_Node000015" class="edge">
<title>Node14&#45;&gt;Node15</title>
<g id="a_edge19_Node000014_Node000015"><a xlink:title=" ">
<path fill="none" stroke="#63b8ff" d="M197.25,-230.8C182.74,-220.37 163.1,-206.24 148.44,-195.69"/>
<polygon fill="#63b8ff" stroke="#63b8ff" points="150.2,-192.66 140.04,-189.66 146.12,-198.34 150.2,-192.66"/>
</a>
</g>
</g>
<!-- Node16 -->
<g id="Node000016" class="node">
<title>Node16</title>
<g id="a_Node000016"><a xlink:title=" ">
<polygon fill="#e0e0e0" stroke="#999999" points="214,-189.5 170,-189.5 170,-170.5 214,-170.5 214,-189.5"/>
<text text-anchor="middle" x="192" y="-177.5" font-family="Helvetica,sans-Serif" font-size="10.00">limits</text>
</a>
</g>
</g>
<!-- Node14&#45;&gt;Node16 -->
<g id="edge20_Node000014_Node000016" class="edge">
<title>Node14&#45;&gt;Node16</title>
<g id="a_edge20_Node000014_Node000016"><a xlink:title=" ">
<path fill="none" stroke="#63b8ff" d="M211.45,-230.8C207.82,-221.5 203.04,-209.27 199.13,-199.26"/>
<polygon fill="#63b8ff" stroke="#63b8ff" points="202.35,-197.89 195.45,-189.84 195.83,-200.43 202.35,-197.89"/>
</a>
</g>
</g>
<!-- Node14&#45;&gt;Node17 -->
<g id="edge22_Node000014_Node000017" class="edge">
<title>Node14&#45;&gt;Node17</title>
<g id="a_edge22_Node000014_Node000017"><a xlink:title=" ">
<path fill="none" stroke="#63b8ff" d="M178.81,-230.95C148.03,-219.63 105.19,-203.88 75.91,-193.1"/>
<polygon fill="#63b8ff" stroke="#63b8ff" points="76.75,-189.68 66.16,-189.52 74.33,-196.25 76.75,-189.68"/>
</a>
</g>
</g>
<!-- Node17&#45;&gt;Node8 -->
<g id="edge23_Node000017_Node000008" class="edge">
<title>Node17&#45;&gt;Node8</title>
<g id="a_edge23_Node000017_Node000008"><a xlink:title=" ">
<path fill="none" stroke="#63b8ff" d="M71.94,-170.49C106.57,-160.31 164.7,-143.22 203.21,-131.9"/>
<polygon fill="#63b8ff" stroke="#63b8ff" points="204.42,-135.2 213.03,-129.02 202.45,-128.48 204.42,-135.2"/>
</a>
</g>
</g>
<!-- Node17&#45;&gt;Node9 -->
<g id="edge24_Node000017_Node000009" class="edge">
<title>Node17&#45;&gt;Node9</title>
<g id="a_edge24_Node000017_Node000009"><a xlink:title=" ">
<path fill="none" stroke="#63b8ff" d="M57.96,-170.47C92.17,-150.96 176.39,-102.92 217.97,-79.21"/>
<polygon fill="#63b8ff" stroke="#63b8ff" points="219.92,-82.12 226.87,-74.13 216.45,-76.04 219.92,-82.12"/>
</a>
</g>
</g>
</g>
</svg>
