<?xml version="1.0" encoding="UTF-8" standalone="no"?>
<!DOCTYPE svg PUBLIC "-//W3C//DTD SVG 1.1//EN"
 "http://www.w3.org/Graphics/SVG/1.1/DTD/svg11.dtd">
<!-- Generated by graphviz version 2.43.0 (0)
 -->
<!-- Title: src/Objects/Plugins/CorePlugin/Primitives/Sphere/Sphere.cpp Pages: 1 -->
<svg width="718pt" height="522pt"
 viewBox="0.00 0.00 717.50 522.00" xmlns="http://www.w3.org/2000/svg" xmlns:xlink="http://www.w3.org/1999/xlink">
<g id="graph0" class="graph" transform="scale(1 1) rotate(0) translate(4 518)">
<title>src/Objects/Plugins/CorePlugin/Primitives/Sphere/Sphere.cpp</title>
<!-- Node1 -->
<g id="Node000001" class="node">
<title>Node1</title>
<g id="a_Node000001"><a xlink:title=" ">
<polygon fill="#999999" stroke="#666666" points="709.5,-514 584.5,-514 584.5,-473 709.5,-473 709.5,-514"/>
<text text-anchor="start" x="592.5" y="-502" font-family="Helvetica,sans-Serif" font-size="10.00">src/Objects/Plugins</text>
<text text-anchor="start" x="592.5" y="-491" font-family="Helvetica,sans-Serif" font-size="10.00">/CorePlugin/Primitives</text>
<text text-anchor="middle" x="647" y="-480" font-family="Helvetica,sans-Serif" font-size="10.00">/Sphere/Sphere.cpp</text>
</a>
</g>
</g>
<!-- Node2 -->
<g id="Node000002" class="node">
<title>Node2</title>
<g id="a_Node000002"><a xlink:href="Sphere_8hpp.html" target="_top" xlink:title=" ">
<polygon fill="white" stroke="#666666" points="650.5,-437 579.5,-437 579.5,-418 650.5,-418 650.5,-437"/>
<text text-anchor="middle" x="615" y="-425" font-family="Helvetica,sans-Serif" font-size="10.00">Sphere.hpp</text>
</a>
</g>
</g>
<!-- Node1&#45;&gt;Node2 -->
<g id="edge1_Node000001_Node000002" class="edge">
<title>Node1&#45;&gt;Node2</title>
<g id="a_edge1_Node000001_Node000002"><a xlink:title=" ">
<path fill="none" stroke="#63b8ff" d="M637.23,-472.95C632.99,-464.48 628.07,-454.64 623.93,-446.37"/>
<polygon fill="#63b8ff" stroke="#63b8ff" points="626.98,-444.64 619.38,-437.26 620.72,-447.77 626.98,-444.64"/>
</a>
</g>
</g>
<!-- Node13 -->
<g id="Node000013" class="node">
<title>Node13</title>
<g id="a_Node000013"><a xlink:title=" ">
<polygon fill="#e0e0e0" stroke="#999999" points="708,-189.5 650,-189.5 650,-170.5 708,-170.5 708,-189.5"/>
<text text-anchor="middle" x="679" y="-177.5" font-family="Helvetica,sans-Serif" font-size="10.00">memory</text>
</a>
</g>
</g>
<!-- Node1&#45;&gt;Node13 -->
<g id="edge28_Node000001_Node000013" class="edge">
<title>Node1&#45;&gt;Node13</title>
<g id="a_edge28_Node000001_Node000013"><a xlink:title=" ">
<path fill="none" stroke="#63b8ff" d="M655.41,-472.63C664.89,-448.39 679,-405.94 679,-368 679,-368 679,-368 679,-305.5 679,-267.99 679,-224.13 679,-199.76"/>
<polygon fill="#63b8ff" stroke="#63b8ff" points="682.5,-199.75 679,-189.75 675.5,-199.75 682.5,-199.75"/>
</a>
</g>
</g>
<!-- Node3 -->
<g id="Node000003" class="node">
<title>Node3</title>
<g id="a_Node000003"><a xlink:href="APrimitive_8hpp.html" target="_top" xlink:title=" ">
<polygon fill="white" stroke="#666666" points="569,-382 423,-382 423,-352 569,-352 569,-382"/>
<text text-anchor="start" x="431" y="-370" font-family="Helvetica,sans-Serif" font-size="10.00">../../../../Abstracts</text>
<text text-anchor="middle" x="496" y="-359" font-family="Helvetica,sans-Serif" font-size="10.00">/APrimitive/APrimitive.hpp</text>
</a>
</g>
</g>
<!-- Node2&#45;&gt;Node3 -->
<g id="edge2_Node000002_Node000003" class="edge">
<title>Node2&#45;&gt;Node3</title>
<g id="a_edge2_Node000002_Node000003"><a xlink:title=" ">
<path fill="none" stroke="#63b8ff" d="M597.7,-417.99C581.08,-409.82 555.4,-397.2 534.01,-386.69"/>
<polygon fill="#63b8ff" stroke="#63b8ff" points="535.36,-383.45 524.84,-382.18 532.27,-389.73 535.36,-383.45"/>
</a>
</g>
</g>
<!-- Node2&#45;&gt;Node13 -->
<g id="edge27_Node000002_Node000013" class="edge">
<title>Node2&#45;&gt;Node13</title>
<g id="a_edge27_Node000002_Node000013"><a xlink:title=" ">
<path fill="none" stroke="#63b8ff" d="M617.12,-417.91C623.9,-390.55 645.69,-303.08 665,-231 667.78,-220.61 671.01,-209.04 673.67,-199.66"/>
<polygon fill="#63b8ff" stroke="#63b8ff" points="677.09,-200.41 676.46,-189.83 670.36,-198.5 677.09,-200.41"/>
</a>
</g>
</g>
<!-- Node4 -->
<g id="Node000004" class="node">
<title>Node4</title>
<g id="a_Node000004"><a xlink:href="IMaterial_8hpp.html" target="_top" xlink:title=" ">
<polygon fill="white" stroke="#666666" points="488,-316 398,-316 398,-297 488,-297 488,-316"/>
<text text-anchor="middle" x="443" y="-304" font-family="Helvetica,sans-Serif" font-size="10.00">../IMaterial.hpp</text>
</a>
</g>
</g>
<!-- Node3&#45;&gt;Node4 -->
<g id="edge3_Node000003_Node000004" class="edge">
<title>Node3&#45;&gt;Node4</title>
<g id="a_edge3_Node000003_Node000004"><a xlink:title=" ">
<path fill="none" stroke="#63b8ff" d="M483.17,-351.84C475.48,-343.35 465.67,-332.52 457.67,-323.69"/>
<polygon fill="#63b8ff" stroke="#63b8ff" points="460.25,-321.33 450.94,-316.27 455.06,-326.03 460.25,-321.33"/>
</a>
</g>
</g>
<!-- Node3&#45;&gt;Node13 -->
<g id="edge16_Node000003_Node000013" class="edge">
<title>Node3&#45;&gt;Node13</title>
<g id="a_edge16_Node000003_Node000013"><a xlink:title=" ">
<path fill="none" stroke="#63b8ff" d="M522.64,-351.95C537.95,-343.01 556.88,-330.43 571,-316 602.3,-284.01 596.34,-265.38 625,-231 635.56,-218.33 649.2,-205.72 660.13,-196.34"/>
<polygon fill="#63b8ff" stroke="#63b8ff" points="662.46,-198.95 667.87,-189.84 657.96,-193.6 662.46,-198.95"/>
</a>
</g>
</g>
<!-- Node14 -->
<g id="Node000014" class="node">
<title>Node14</title>
<g id="a_Node000014"><a xlink:title=" ">
<polygon fill="#e0e0e0" stroke="#999999" points="562,-316 506,-316 506,-297 562,-297 562,-316"/>
<text text-anchor="middle" x="534" y="-304" font-family="Helvetica,sans-Serif" font-size="10.00">optional</text>
</a>
</g>
</g>
<!-- Node3&#45;&gt;Node14 -->
<g id="edge17_Node000003_Node000014" class="edge">
<title>Node3&#45;&gt;Node14</title>
<g id="a_edge17_Node000003_Node000014"><a xlink:title=" ">
<path fill="none" stroke="#63b8ff" d="M505.2,-351.84C510.49,-343.69 517.18,-333.4 522.78,-324.78"/>
<polygon fill="#63b8ff" stroke="#63b8ff" points="525.79,-326.56 528.31,-316.27 519.92,-322.75 525.79,-326.56"/>
</a>
</g>
</g>
<!-- Node15 -->
<g id="Node000015" class="node">
<title>Node15</title>
<g id="a_Node000015"><a xlink:href="AABB_8hpp.html" target="_top" xlink:title=" ">
<polygon fill="white" stroke="#666666" points="247,-261 125,-261 125,-231 247,-231 247,-261"/>
<text text-anchor="start" x="133" y="-249" font-family="Helvetica,sans-Serif" font-size="10.00">../../../Geometry/AABB</text>
<text text-anchor="middle" x="186" y="-238" font-family="Helvetica,sans-Serif" font-size="10.00">/AABB.hpp</text>
</a>
</g>
</g>
<!-- Node3&#45;&gt;Node15 -->
<g id="edge18_Node000003_Node000015" class="edge">
<title>Node3&#45;&gt;Node15</title>
<g id="a_edge18_Node000003_Node000015"><a xlink:title=" ">
<path fill="none" stroke="#63b8ff" d="M459.53,-352C403.01,-330.3 294.35,-288.59 232.35,-264.79"/>
<polygon fill="#63b8ff" stroke="#63b8ff" points="233.4,-261.45 222.81,-261.13 230.9,-267.98 233.4,-261.45"/>
</a>
</g>
</g>
<!-- Node18 -->
<g id="Node000018" class="node">
<title>Node18</title>
<g id="a_Node000018"><a xlink:href="Ray_8hpp.html" target="_top" xlink:title=" ">
<polygon fill="white" stroke="#666666" points="86,-189.5 0,-189.5 0,-170.5 86,-170.5 86,-189.5"/>
<text text-anchor="middle" x="43" y="-177.5" font-family="Helvetica,sans-Serif" font-size="10.00">../Ray/Ray.hpp</text>
</a>
</g>
</g>
<!-- Node3&#45;&gt;Node18 -->
<g id="edge26_Node000003_Node000018" class="edge">
<title>Node3&#45;&gt;Node18</title>
<g id="a_edge26_Node000003_Node000018"><a xlink:title=" ">
<path fill="none" stroke="#63b8ff" d="M422.94,-358.07C342.69,-346.69 212.4,-320.15 116,-261 89.68,-244.85 67.08,-216.49 54.27,-198.24"/>
<polygon fill="#63b8ff" stroke="#63b8ff" points="57.15,-196.26 48.64,-189.96 51.37,-200.2 57.15,-196.26"/>
</a>
</g>
</g>
<!-- Node5 -->
<g id="Node000005" class="node">
<title>Node5</title>
<g id="a_Node000005"><a xlink:href="Color_8hpp.html" target="_top" xlink:title=" ">
<polygon fill="white" stroke="#666666" points="632,-189.5 526,-189.5 526,-170.5 632,-170.5 632,-189.5"/>
<text text-anchor="middle" x="579" y="-177.5" font-family="Helvetica,sans-Serif" font-size="10.00">../../Utils/Color.hpp</text>
</a>
</g>
</g>
<!-- Node4&#45;&gt;Node5 -->
<g id="edge4_Node000004_Node000005" class="edge">
<title>Node4&#45;&gt;Node5</title>
<g id="a_edge4_Node000004_Node000005"><a xlink:title=" ">
<path fill="none" stroke="#63b8ff" d="M452.35,-296.94C474.96,-276.24 532.89,-223.21 561.9,-196.65"/>
<polygon fill="#63b8ff" stroke="#63b8ff" points="564.57,-198.95 569.59,-189.62 559.85,-193.79 564.57,-198.95"/>
</a>
</g>
</g>
<!-- Node7 -->
<g id="Node000007" class="node">
<title>Node7</title>
<g id="a_Node000007"><a xlink:href="ILight_8hpp.html" target="_top" xlink:title=" ">
<polygon fill="white" stroke="#666666" points="475.5,-255.5 410.5,-255.5 410.5,-236.5 475.5,-236.5 475.5,-255.5"/>
<text text-anchor="middle" x="443" y="-243.5" font-family="Helvetica,sans-Serif" font-size="10.00">ILight.hpp</text>
</a>
</g>
</g>
<!-- Node4&#45;&gt;Node7 -->
<g id="edge6_Node000004_Node000007" class="edge">
<title>Node4&#45;&gt;Node7</title>
<g id="a_edge6_Node000004_Node000007"><a xlink:title=" ">
<path fill="none" stroke="#63b8ff" d="M443,-296.87C443,-288.75 443,-276.31 443,-265.89"/>
<polygon fill="#63b8ff" stroke="#63b8ff" points="446.5,-265.67 443,-255.67 439.5,-265.67 446.5,-265.67"/>
</a>
</g>
</g>
<!-- Node12 -->
<g id="Node000012" class="node">
<title>Node12</title>
<g id="a_Node000012"><a xlink:title=" ">
<polygon fill="#e0e0e0" stroke="#999999" points="355.5,-189.5 308.5,-189.5 308.5,-170.5 355.5,-170.5 355.5,-189.5"/>
<text text-anchor="middle" x="332" y="-177.5" font-family="Helvetica,sans-Serif" font-size="10.00">vector</text>
</a>
</g>
</g>
<!-- Node4&#45;&gt;Node12 -->
<g id="edge15_Node000004_Node000012" class="edge">
<title>Node4&#45;&gt;Node12</title>
<g id="a_edge15_Node000004_Node000012"><a xlink:title=" ">
<path fill="none" stroke="#63b8ff" d="M434.76,-296.7C426.44,-287.76 413.23,-273.51 402,-261 382.47,-239.25 360.31,-213.79 346.25,-197.54"/>
<polygon fill="#63b8ff" stroke="#63b8ff" points="348.88,-195.22 339.69,-189.94 343.58,-199.8 348.88,-195.22"/>
</a>
</g>
</g>
<!-- Node6 -->
<g id="Node000006" class="node">
<title>Node6</title>
<g id="a_Node000006"><a xlink:title=" ">
<polygon fill="#e0e0e0" stroke="#999999" points="518,-129 454,-129 454,-110 518,-110 518,-129"/>
<text text-anchor="middle" x="486" y="-117" font-family="Helvetica,sans-Serif" font-size="10.00">algorithm</text>
</a>
</g>
</g>
<!-- Node5&#45;&gt;Node6 -->
<g id="edge5_Node000005_Node000006" class="edge">
<title>Node5&#45;&gt;Node6</title>
<g id="a_edge5_Node000005_Node000006"><a xlink:title=" ">
<path fill="none" stroke="#63b8ff" d="M565.28,-170.37C550.3,-160.95 526.11,-145.73 508.38,-134.58"/>
<polygon fill="#63b8ff" stroke="#63b8ff" points="510.11,-131.53 499.78,-129.17 506.38,-137.45 510.11,-131.53"/>
</a>
</g>
</g>
<!-- Node7&#45;&gt;Node5 -->
<g id="edge12_Node000007_Node000005" class="edge">
<title>Node7&#45;&gt;Node5</title>
<g id="a_edge12_Node000007_Node000005"><a xlink:title=" ">
<path fill="none" stroke="#63b8ff" d="M461.34,-236.37C484.46,-225.49 524.41,-206.69 551.27,-194.05"/>
<polygon fill="#63b8ff" stroke="#63b8ff" points="552.96,-197.12 560.51,-189.7 549.98,-190.79 552.96,-197.12"/>
</a>
</g>
</g>
<!-- Node8 -->
<g id="Node000008" class="node">
<title>Node8</title>
<g id="a_Node000008"><a xlink:href="HitRecord_8hpp.html" target="_top" xlink:title=" ">
<polygon fill="white" stroke="#666666" points="508,-195 374,-195 374,-165 508,-165 508,-195"/>
<text text-anchor="start" x="382" y="-183" font-family="Helvetica,sans-Serif" font-size="10.00">../../Geometry/HitRecord</text>
<text text-anchor="middle" x="441" y="-172" font-family="Helvetica,sans-Serif" font-size="10.00">/HitRecord.hpp</text>
</a>
</g>
</g>
<!-- Node7&#45;&gt;Node8 -->
<g id="edge7_Node000007_Node000008" class="edge">
<title>Node7&#45;&gt;Node8</title>
<g id="a_edge7_Node000007_Node000008"><a xlink:title=" ">
<path fill="none" stroke="#63b8ff" d="M442.73,-236.37C442.48,-228.49 442.11,-216.45 441.77,-205.6"/>
<polygon fill="#63b8ff" stroke="#63b8ff" points="445.26,-205.25 441.45,-195.36 438.26,-205.46 445.26,-205.25"/>
</a>
</g>
</g>
<!-- Node7&#45;&gt;Node12 -->
<g id="edge13_Node000007_Node000012" class="edge">
<title>Node7&#45;&gt;Node12</title>
<g id="a_edge13_Node000007_Node000012"><a xlink:title=" ">
<path fill="none" stroke="#63b8ff" d="M428.03,-236.37C409.49,-225.68 377.69,-207.35 355.8,-194.72"/>
<polygon fill="#63b8ff" stroke="#63b8ff" points="357.5,-191.66 347.09,-189.7 354,-197.73 357.5,-191.66"/>
</a>
</g>
</g>
<!-- Node7&#45;&gt;Node13 -->
<g id="edge14_Node000007_Node000013" class="edge">
<title>Node7&#45;&gt;Node13</title>
<g id="a_edge14_Node000007_Node000013"><a xlink:title=" ">
<path fill="none" stroke="#63b8ff" d="M475.53,-237.9C515,-229.02 583.42,-212.82 641,-195 643.13,-194.34 645.31,-193.63 647.5,-192.89"/>
<polygon fill="#63b8ff" stroke="#63b8ff" points="648.76,-196.16 657.03,-189.54 646.44,-189.56 648.76,-196.16"/>
</a>
</g>
</g>
<!-- Node9 -->
<g id="Node000009" class="node">
<title>Node9</title>
<g id="a_Node000009"><a xlink:href="Point3D_8hpp.html" target="_top" xlink:title=" ">
<polygon fill="white" stroke="#666666" points="197,-129 71,-129 71,-110 197,-110 197,-129"/>
<text text-anchor="middle" x="134" y="-117" font-family="Helvetica,sans-Serif" font-size="10.00">../Point3D/Point3D.hpp</text>
</a>
</g>
</g>
<!-- Node8&#45;&gt;Node9 -->
<g id="edge8_Node000008_Node000009" class="edge">
<title>Node8&#45;&gt;Node9</title>
<g id="a_edge8_Node000008_Node000009"><a xlink:title=" ">
<path fill="none" stroke="#63b8ff" d="M373.63,-166.16C318.19,-155.6 240.6,-140.81 188.9,-130.96"/>
<polygon fill="#63b8ff" stroke="#63b8ff" points="189.39,-127.49 178.91,-129.06 188.08,-134.37 189.39,-127.49"/>
</a>
</g>
</g>
<!-- Node10 -->
<g id="Node000010" class="node">
<title>Node10</title>
<g id="a_Node000010"><a xlink:href="Vector3D_8hpp.html" target="_top" xlink:title=" ">
<polygon fill="white" stroke="#666666" points="203,-74 65,-74 65,-55 203,-55 203,-74"/>
<text text-anchor="middle" x="134" y="-62" font-family="Helvetica,sans-Serif" font-size="10.00">../Vector3D/Vector3D.hpp</text>
</a>
</g>
</g>
<!-- Node8&#45;&gt;Node10 -->
<g id="edge11_Node000008_Node000010" class="edge">
<title>Node8&#45;&gt;Node10</title>
<g id="a_edge11_Node000008_Node000010"><a xlink:title=" ">
<path fill="none" stroke="#63b8ff" d="M403.05,-164.97C342.36,-142.53 224.48,-98.95 167.05,-77.72"/>
<polygon fill="#63b8ff" stroke="#63b8ff" points="167.98,-74.33 157.38,-74.14 165.55,-80.9 167.98,-74.33"/>
</a>
</g>
</g>
<!-- Node9&#45;&gt;Node10 -->
<g id="edge9_Node000009_Node000010" class="edge">
<title>Node9&#45;&gt;Node10</title>
<g id="a_edge9_Node000009_Node000010"><a xlink:title=" ">
<path fill="none" stroke="#63b8ff" d="M134,-109.75C134,-102.8 134,-92.85 134,-84.13"/>
<polygon fill="#63b8ff" stroke="#63b8ff" points="137.5,-84.09 134,-74.09 130.5,-84.09 137.5,-84.09"/>
</a>
</g>
</g>
<!-- Node11 -->
<g id="Node000011" class="node">
<title>Node11</title>
<g id="a_Node000011"><a xlink:title=" ">
<polygon fill="#e0e0e0" stroke="#999999" points="159.5,-19 108.5,-19 108.5,0 159.5,0 159.5,-19"/>
<text text-anchor="middle" x="134" y="-7" font-family="Helvetica,sans-Serif" font-size="10.00">math.h</text>
</a>
</g>
</g>
<!-- Node10&#45;&gt;Node11 -->
<g id="edge10_Node000010_Node000011" class="edge">
<title>Node10&#45;&gt;Node11</title>
<g id="a_edge10_Node000010_Node000011"><a xlink:title=" ">
<path fill="none" stroke="#63b8ff" d="M134,-54.75C134,-47.8 134,-37.85 134,-29.13"/>
<polygon fill="#63b8ff" stroke="#63b8ff" points="137.5,-29.09 134,-19.09 130.5,-29.09 137.5,-29.09"/>
</a>
</g>
</g>
<!-- Node15&#45;&gt;Node6 -->
<g id="edge19_Node000015_Node000006" class="edge">
<title>Node15&#45;&gt;Node6</title>
<g id="a_edge19_Node000015_Node000006"><a xlink:title=" ">
<path fill="none" stroke="#63b8ff" d="M177.33,-230.73C167.89,-213.13 156.1,-183.31 172,-165 206.65,-125.09 365.9,-120.01 443.4,-119.97"/>
<polygon fill="#63b8ff" stroke="#63b8ff" points="443.76,-123.47 453.77,-119.99 443.78,-116.47 443.76,-123.47"/>
</a>
</g>
</g>
<!-- Node15&#45;&gt;Node9 -->
<g id="edge22_Node000015_Node000009" class="edge">
<title>Node15&#45;&gt;Node9</title>
<g id="a_edge22_Node000015_Node000009"><a xlink:title=" ">
<path fill="none" stroke="#63b8ff" d="M166.6,-230.6C156.13,-221.63 144.13,-209.13 138,-195 130.28,-177.21 130.22,-154.76 131.5,-139.18"/>
<polygon fill="#63b8ff" stroke="#63b8ff" points="134.99,-139.53 132.58,-129.21 128.03,-138.77 134.99,-139.53"/>
</a>
</g>
</g>
<!-- Node16 -->
<g id="Node000016" class="node">
<title>Node16</title>
<g id="a_Node000016"><a xlink:title=" ">
<polygon fill="#e0e0e0" stroke="#999999" points="227.5,-189.5 180.5,-189.5 180.5,-170.5 227.5,-170.5 227.5,-189.5"/>
<text text-anchor="middle" x="204" y="-177.5" font-family="Helvetica,sans-Serif" font-size="10.00">cmath</text>
</a>
</g>
</g>
<!-- Node15&#45;&gt;Node16 -->
<g id="edge20_Node000015_Node000016" class="edge">
<title>Node15&#45;&gt;Node16</title>
<g id="a_edge20_Node000015_Node000016"><a xlink:title=" ">
<path fill="none" stroke="#63b8ff" d="M189.99,-230.8C192.58,-221.6 195.98,-209.53 198.77,-199.58"/>
<polygon fill="#63b8ff" stroke="#63b8ff" points="202.17,-200.42 201.51,-189.84 195.44,-198.52 202.17,-200.42"/>
</a>
</g>
</g>
<!-- Node17 -->
<g id="Node000017" class="node">
<title>Node17</title>
<g id="a_Node000017"><a xlink:title=" ">
<polygon fill="#e0e0e0" stroke="#999999" points="290,-189.5 246,-189.5 246,-170.5 290,-170.5 290,-189.5"/>
<text text-anchor="middle" x="268" y="-177.5" font-family="Helvetica,sans-Serif" font-size="10.00">limits</text>
</a>
</g>
</g>
<!-- Node15&#45;&gt;Node17 -->
<g id="edge21_Node000015_Node000017" class="edge">
<title>Node15&#45;&gt;Node17</title>
<g id="a_edge21_Node000015_Node000017"><a xlink:title=" ">
<path fill="none" stroke="#63b8ff" d="M204.2,-230.8C217.36,-220.53 235.11,-206.67 248.55,-196.18"/>
<polygon fill="#63b8ff" stroke="#63b8ff" points="250.94,-198.76 256.67,-189.84 246.63,-193.24 250.94,-198.76"/>
</a>
</g>
</g>
<!-- Node15&#45;&gt;Node18 -->
<g id="edge23_Node000015_Node000018" class="edge">
<title>Node15&#45;&gt;Node18</title>
<g id="a_edge23_Node000015_Node000018"><a xlink:title=" ">
<path fill="none" stroke="#63b8ff" d="M154.62,-230.95C129.76,-219.83 95.34,-204.42 71.32,-193.67"/>
<polygon fill="#63b8ff" stroke="#63b8ff" points="72.59,-190.41 62.03,-189.52 69.73,-196.8 72.59,-190.41"/>
</a>
</g>
</g>
<!-- Node18&#45;&gt;Node9 -->
<g id="edge24_Node000018_Node000009" class="edge">
<title>Node18&#45;&gt;Node9</title>
<g id="a_edge24_Node000018_Node000009"><a xlink:title=" ">
<path fill="none" stroke="#63b8ff" d="M56.43,-170.37C71.08,-160.95 94.76,-145.73 112.1,-134.58"/>
<polygon fill="#63b8ff" stroke="#63b8ff" points="114,-137.52 120.52,-129.17 110.21,-131.63 114,-137.52"/>
</a>
</g>
</g>
<!-- Node18&#45;&gt;Node10 -->
<g id="edge25_Node000018_Node000010" class="edge">
<title>Node18&#45;&gt;Node10</title>
<g id="a_edge25_Node000018_Node000010"><a xlink:title=" ">
<path fill="none" stroke="#63b8ff" d="M43.38,-170.49C44.39,-156.54 48.14,-128.5 62,-110 72.34,-96.2 88.32,-85.71 102.6,-78.38"/>
<polygon fill="#63b8ff" stroke="#63b8ff" points="104.17,-81.51 111.66,-74.03 101.13,-75.2 104.17,-81.51"/>
</a>
</g>
</g>
</g>
</svg>
