<?xml version="1.0" encoding="UTF-8" standalone="no"?>
<!DOCTYPE svg PUBLIC "-//W3C//DTD SVG 1.1//EN"
 "http://www.w3.org/Graphics/SVG/1.1/DTD/svg11.dtd">
<!-- Generated by graphviz version 2.43.0 (0)
 -->
<!-- Title: RayTracer::Color::Color Pages: 1 -->
<!--zoomable 365 -->

<svg id="main" version="1.1" xmlns="http://www.w3.org/2000/svg" xmlns:xlink="http://www.w3.org/1999/xlink" xml:space="preserve" onload="init(evt)">
<style type="text/css"><![CDATA[
.node, .edge {opacity: 0.7;}
.node.selected, .edge.selected {opacity: 1;}
.edge:hover path { stroke: red; }
.edge:hover polygon { stroke: red; fill: red; }
]]></style>

<defs>
  <circle id="rim" cx="0" cy="0" r="7"/>
  <circle id="rim2" cx="0" cy="0" r="3.5"/>
  <g id="zoomPlus">
    <use xlink:href="#rim" fill="#404040"><set attributeName="fill" to="#808080" begin="zoomplus.mouseover" end="zoomplus.mouseout"/></use>
    <path d="M-4,0h8M0,-4v8" fill="none" stroke="white" stroke-width="1.5" pointer-events="none"/>
  </g>
  <g id="zoomMin">
    <use xlink:href="#rim" fill="#404040"><set attributeName="fill" to="#808080" begin="zoomminus.mouseover" end="zoomminus.mouseout"/></use>
    <path d="M-4,0h8" fill="none" stroke="white" stroke-width="1.5" pointer-events="none"/>
  </g>
  <g id="arrowUp" transform="translate(30 24)">
    <use xlink:href="#rim"/>
    <path pointer-events="none" fill="none" stroke="white" stroke-width="1.5" d="M0,-3.0v7 M-2.5,-0.5L0,-3.0L2.5,-0.5"/>
  </g>
  <g id="arrowRight" transform="rotate(90) translate(36 -43)">
    <use xlink:href="#rim"/>
    <path pointer-events="none" fill="none" stroke="white" stroke-width="1.5" d="M0,-3.0v7 M-2.5,-0.5L0,-3.0L2.5,-0.5"/>
  </g>
  <g id="arrowDown" transform="rotate(180) translate(-30 -48)">
    <use xlink:href="#rim"/>
    <path pointer-events="none" fill="none" stroke="white" stroke-width="1.5" d="M0,-3.0v7 M-2.5,-0.5L0,-3.0L2.5,-0.5"/>
  </g>
  <g id="arrowLeft" transform="rotate(270) translate(-36 17)">
    <use xlink:href="#rim"/>
    <path pointer-events="none" fill="none" stroke="white" stroke-width="1.5" d="M0,-3.0v7 M-2.5,-0.5L0,-3.0L2.5,-0.5"/>
  </g>
  <g id="resetDef">
    <use xlink:href="#rim2" fill="#404040"><set attributeName="fill" to="#808080" begin="reset.mouseover" end="reset.mouseout"/></use>
  </g>
</defs>
<script type="application/ecmascript">
var viewWidth = 659;
var viewHeight = 365;
var sectionId = 'dynsection-2';
</script>
<script type="application/ecmascript" xlink:href="svg.min.js"/>
<svg id="graph" class="graph">
<g id="viewport">
<title>RayTracer::Color::Color</title>
<!-- Node1 -->
<g id="Node000001" class="node">
<title>Node1</title>
<g id="a_Node000001"><a xlink:title=" ">
<polygon fill="#999999" stroke="#666666" points="651,-221.67 523,-221.67 523,-202.67 651,-202.67 651,-221.67"/>
<text text-anchor="middle" x="587" y="-209.67" font-family="Helvetica,sans-Serif" font-size="10.00">RayTracer::Color::Color</text>
</a>
</g>
</g>
<!-- Node2 -->
<g id="Node000002" class="node">
<title>Node2</title>
<g id="a_Node000002"><a xlink:href="classRayTracer_1_1Camera.html#a7cd2251f34b6dda51fe338512e598571" target="_top" xlink:title="Evaluate the rendering equation along a ray, deterministically.">
<polygon fill="white" stroke="#666666" points="282.5,-298.17 167.5,-298.17 167.5,-268.17 282.5,-268.17 282.5,-298.17"/>
<text text-anchor="start" x="175.5" y="-286.17" font-family="Helvetica,sans-Serif" font-size="10.00">RayTracer::Camera::</text>
<text text-anchor="middle" x="225" y="-275.17" font-family="Helvetica,sans-Serif" font-size="10.00">castRay</text>
</a>
</g>
</g>
<!-- Node1&#45;&gt;Node2 -->
<g id="edge1_Node000001_Node000002" class="edge">
<title>Node1&#45;&gt;Node2</title>
<g id="a_edge1_Node000001_Node000002"><a xlink:title=" ">
<path fill="none" stroke="#63b8ff" d="M570.36,-229.35C552.34,-247.74 520.85,-275.79 487,-287.17 419.56,-309.83 336.67,-303.19 282.65,-294.67"/>
<polygon fill="#63b8ff" stroke="#63b8ff" points="573.3,-231.34 577.64,-221.68 568.22,-226.52 573.3,-231.34"/>
</a>
</g>
</g>
<!-- Node3 -->
<g id="Node000003" class="node">
<title>Node3</title>
<g id="a_Node000003"><a xlink:href="classRayTracer_1_1Camera.html#a3735fca524537e8a0ce755bb77e9a71f" target="_top" xlink:title="Render the scene into a 2D framebuffer.">
<polygon fill="white" stroke="#666666" points="115,-276.17 0,-276.17 0,-246.17 115,-246.17 115,-276.17"/>
<text text-anchor="start" x="8" y="-264.17" font-family="Helvetica,sans-Serif" font-size="10.00">RayTracer::Camera::</text>
<text text-anchor="middle" x="57.5" y="-253.17" font-family="Helvetica,sans-Serif" font-size="10.00">render</text>
</a>
</g>
</g>
<!-- Node1&#45;&gt;Node3 -->
<g id="edge19_Node000001_Node000003" class="edge">
<title>Node1&#45;&gt;Node3</title>
<g id="a_edge19_Node000001_Node000003"><a xlink:title=" ">
<path fill="none" stroke="#63b8ff" d="M573.7,-230.05C557,-252.68 524.87,-290.79 487,-308.17 351.09,-370.51 293.73,-369.73 151,-325.17 120.43,-315.62 91.07,-292.04 73.91,-276.32"/>
<polygon fill="#63b8ff" stroke="#63b8ff" points="576.72,-231.84 579.69,-221.67 571.03,-227.77 576.72,-231.84"/>
</a>
</g>
</g>
<!-- Node4 -->
<g id="Node000004" class="node">
<title>Node4</title>
<g id="a_Node000004"><a xlink:href="classRayTracer_1_1Lambertian.html#a6205c3776a49354dab5d02f983c196e1" target="_top" xlink:title=" ">
<polygon fill="white" stroke="#666666" points="474,-166.17 348,-166.17 348,-136.17 474,-136.17 474,-166.17"/>
<text text-anchor="start" x="356" y="-154.17" font-family="Helvetica,sans-Serif" font-size="10.00">RayTracer::Lambertian</text>
<text text-anchor="middle" x="411" y="-143.17" font-family="Helvetica,sans-Serif" font-size="10.00">::emission</text>
</a>
</g>
</g>
<!-- Node1&#45;&gt;Node4 -->
<g id="edge4_Node000001_Node000004" class="edge">
<title>Node1&#45;&gt;Node4</title>
<g id="a_edge4_Node000001_Node000004"><a xlink:title=" ">
<path fill="none" stroke="#63b8ff" d="M551.87,-198.95C532.85,-191.7 508.7,-182.69 487,-175.17 478.35,-172.17 469.08,-169.09 460.13,-166.19"/>
<polygon fill="#63b8ff" stroke="#63b8ff" points="550.71,-202.25 561.3,-202.56 553.21,-195.72 550.71,-202.25"/>
</a>
</g>
</g>
<!-- Node5 -->
<g id="Node000005" class="node">
<title>Node5</title>
<g id="a_Node000005"><a xlink:href="CorePlugin_8cpp.html#a0e14e2166e2799c71d21f343a3d543f3" target="_top" xlink:title=" ">
<polygon fill="white" stroke="#666666" points="452.5,-117.67 369.5,-117.67 369.5,-98.67 452.5,-98.67 452.5,-117.67"/>
<text text-anchor="middle" x="411" y="-105.67" font-family="Helvetica,sans-Serif" font-size="10.00">getInitializers</text>
</a>
</g>
</g>
<!-- Node1&#45;&gt;Node5 -->
<g id="edge5_Node000001_Node000005" class="edge">
<title>Node1&#45;&gt;Node5</title>
<g id="a_edge5_Node000001_Node000005"><a xlink:title=" ">
<path fill="none" stroke="#63b8ff" d="M570.92,-195.15C552.86,-175.83 520.78,-144.7 487,-127.17 476.39,-121.66 464.09,-117.68 452.56,-114.84"/>
<polygon fill="#63b8ff" stroke="#63b8ff" points="568.44,-197.62 577.77,-202.64 573.6,-192.9 568.44,-197.62"/>
</a>
</g>
</g>
<!-- Node6 -->
<g id="Node000006" class="node">
<title>Node6</title>
<g id="a_Node000006"><a xlink:href="structRayTracer_1_1Color.html#a3a5645c19c0b60a67b3dfac325727248" target="_top" xlink:title=" ">
<polygon fill="white" stroke="#666666" points="485.5,-277.67 336.5,-277.67 336.5,-258.67 485.5,-258.67 485.5,-277.67"/>
<text text-anchor="middle" x="411" y="-265.67" font-family="Helvetica,sans-Serif" font-size="10.00">RayTracer::Color::operator*</text>
</a>
</g>
</g>
<!-- Node1&#45;&gt;Node6 -->
<g id="edge6_Node000001_Node000006" class="edge">
<title>Node1&#45;&gt;Node6</title>
<g id="a_edge6_Node000001_Node000006"><a xlink:title=" ">
<path fill="none" stroke="#63b8ff" d="M554.02,-225.67C534.81,-233.47 509.76,-243.1 487,-250.17 477.02,-253.26 466.17,-256.14 455.89,-258.65"/>
<polygon fill="#63b8ff" stroke="#63b8ff" points="555.57,-228.81 563.49,-221.78 552.91,-222.34 555.57,-228.81"/>
</a>
</g>
</g>
<!-- Node7 -->
<g id="Node000007" class="node">
<title>Node7</title>
<g id="a_Node000007"><a xlink:href="structRayTracer_1_1Color.html#aefc65f4c5ffc2e9bca0a35e4e55d68b8" target="_top" xlink:title=" ">
<polygon fill="white" stroke="#666666" points="485.5,-203.67 336.5,-203.67 336.5,-184.67 485.5,-184.67 485.5,-203.67"/>
<text text-anchor="middle" x="411" y="-191.67" font-family="Helvetica,sans-Serif" font-size="10.00">RayTracer::Color::operator*</text>
</a>
</g>
</g>
<!-- Node1&#45;&gt;Node7 -->
<g id="edge8_Node000001_Node000007" class="edge">
<title>Node1&#45;&gt;Node7</title>
<g id="a_edge8_Node000001_Node000007"><a xlink:title=" ">
<path fill="none" stroke="#63b8ff" d="M512.68,-204.58C503.72,-203.65 494.56,-202.71 485.6,-201.78"/>
<polygon fill="#63b8ff" stroke="#63b8ff" points="512.38,-208.07 522.69,-205.62 513.1,-201.11 512.38,-208.07"/>
</a>
</g>
</g>
<!-- Node12 -->
<g id="Node000012" class="node">
<title>Node12</title>
<g id="a_Node000012"><a xlink:href="structRayTracer_1_1Color.html#a327b4006c4abe3faf3491929b8ee1a7c" target="_top" xlink:title=" ">
<polygon fill="white" stroke="#666666" points="487,-240.67 335,-240.67 335,-221.67 487,-221.67 487,-240.67"/>
<text text-anchor="middle" x="411" y="-228.67" font-family="Helvetica,sans-Serif" font-size="10.00">RayTracer::Color::operator+</text>
</a>
</g>
</g>
<!-- Node1&#45;&gt;Node12 -->
<g id="edge15_Node000001_Node000012" class="edge">
<title>Node1&#45;&gt;Node12</title>
<g id="a_edge15_Node000001_Node000012"><a xlink:title=" ">
<path fill="none" stroke="#63b8ff" d="M512.53,-220.19C504.12,-221.11 495.53,-222.05 487.09,-222.97"/>
<polygon fill="#63b8ff" stroke="#63b8ff" points="513.13,-223.64 522.69,-219.08 512.37,-216.69 513.13,-223.64"/>
</a>
</g>
</g>
<!-- Node13 -->
<g id="Node000013" class="node">
<title>Node13</title>
<g id="a_Node000013"><a xlink:href="structRayTracer_1_1Color.html#ad224166942560c4b3930f6ec1939602f" target="_top" xlink:title=" ">
<polygon fill="white" stroke="#666666" points="484.5,-80.67 337.5,-80.67 337.5,-61.67 484.5,-61.67 484.5,-80.67"/>
<text text-anchor="middle" x="411" y="-68.67" font-family="Helvetica,sans-Serif" font-size="10.00">RayTracer::Color::operator&#45;</text>
</a>
</g>
</g>
<!-- Node1&#45;&gt;Node13 -->
<g id="edge18_Node000001_Node000013" class="edge">
<title>Node1&#45;&gt;Node13</title>
<g id="a_edge18_Node000001_Node000013"><a xlink:title=" ">
<path fill="none" stroke="#63b8ff" d="M576.23,-193.42C560.98,-166.09 528.88,-115.67 487,-89.17 481.57,-85.73 475.54,-82.95 469.32,-80.7"/>
<polygon fill="#63b8ff" stroke="#63b8ff" points="573.23,-195.23 581.07,-202.36 579.39,-191.9 573.23,-195.23"/>
</a>
</g>
</g>
<!-- Node2&#45;&gt;Node2 -->
<g id="edge2_Node000002_Node000002" class="edge">
<title>Node2&#45;&gt;Node2</title>
<g id="a_edge2_Node000002_Node000002"><a xlink:title=" ">
<path fill="none" stroke="#63b8ff" d="M254.06,-308.76C250.09,-313.14 240.4,-316.17 225,-316.17 199.06,-316.17 189.34,-307.57 195.82,-298.44"/>
<polygon fill="#63b8ff" stroke="#63b8ff" points="257.56,-308.48 254.18,-298.44 250.56,-308.4 257.56,-308.48"/>
</a>
</g>
</g>
<!-- Node2&#45;&gt;Node3 -->
<g id="edge3_Node000002_Node000003" class="edge">
<title>Node2&#45;&gt;Node3</title>
<g id="a_edge3_Node000002_Node000003"><a xlink:title=" ">
<path fill="none" stroke="#63b8ff" d="M157.03,-274.26C143.08,-272.41 128.52,-270.47 115,-268.68"/>
<polygon fill="#63b8ff" stroke="#63b8ff" points="156.67,-277.75 167.04,-275.59 157.59,-270.81 156.67,-277.75"/>
</a>
</g>
</g>
<!-- Node6&#45;&gt;Node2 -->
<g id="edge7_Node000006_Node000002" class="edge">
<title>Node6&#45;&gt;Node2</title>
<g id="a_edge7_Node000006_Node000002"><a xlink:title=" ">
<path fill="none" stroke="#63b8ff" d="M326.32,-274.99C311.55,-276.19 296.49,-277.42 282.68,-278.55"/>
<polygon fill="#63b8ff" stroke="#63b8ff" points="326.8,-278.46 336.49,-274.16 326.23,-271.48 326.8,-278.46"/>
</a>
</g>
</g>
<!-- Node7&#45;&gt;Node2 -->
<g id="edge9_Node000007_Node000002" class="edge">
<title>Node7&#45;&gt;Node2</title>
<g id="a_edge9_Node000007_Node000002"><a xlink:title=" ">
<path fill="none" stroke="#63b8ff" d="M349.79,-206.67C344.71,-208.31 339.72,-210.13 335,-212.17 300.98,-226.81 265.81,-251.83 244.93,-267.92"/>
<polygon fill="#63b8ff" stroke="#63b8ff" points="351.02,-209.95 359.6,-203.75 349.02,-203.24 351.02,-209.95"/>
</a>
</g>
</g>
<!-- Node7&#45;&gt;Node3 -->
<g id="edge14_Node000007_Node000003" class="edge">
<title>Node7&#45;&gt;Node3</title>
<g id="a_edge14_Node000007_Node000003"><a xlink:title=" ">
<path fill="none" stroke="#63b8ff" d="M339.52,-179.15C337.93,-177.92 336.42,-176.6 335,-175.17 287.89,-127.76 351.61,-70.38 299,-29.17 247.22,11.4 205.45,7.74 151,-29.17 75.81,-80.14 61.73,-203.06 59.1,-246.03"/>
<polygon fill="#63b8ff" stroke="#63b8ff" points="337.69,-182.14 348.01,-184.55 341.45,-176.23 337.69,-182.14"/>
</a>
</g>
</g>
<!-- Node8 -->
<g id="Node000008" class="node">
<title>Node8</title>
<g id="a_Node000008"><a xlink:href="classRayTracer_1_1AmbientLight.html#a8dd2be46eadb8f46021064b6f182c359" target="_top" xlink:title="Ambient light never casts shadows, just returns color * intensity.">
<polygon fill="white" stroke="#666666" points="293,-212.17 157,-212.17 157,-182.17 293,-182.17 293,-212.17"/>
<text text-anchor="start" x="165" y="-200.17" font-family="Helvetica,sans-Serif" font-size="10.00">RayTracer::AmbientLight</text>
<text text-anchor="middle" x="225" y="-189.17" font-family="Helvetica,sans-Serif" font-size="10.00">::computeLight</text>
</a>
</g>
</g>
<!-- Node7&#45;&gt;Node8 -->
<g id="edge10_Node000007_Node000008" class="edge">
<title>Node7&#45;&gt;Node8</title>
<g id="a_edge10_Node000007_Node000008"><a xlink:title=" ">
<path fill="none" stroke="#63b8ff" d="M326.34,-195.53C315.22,-195.71 303.93,-195.9 293.14,-196.07"/>
<polygon fill="#63b8ff" stroke="#63b8ff" points="326.54,-199.03 336.49,-195.36 326.43,-192.03 326.54,-199.03"/>
</a>
</g>
</g>
<!-- Node9 -->
<g id="Node000009" class="node">
<title>Node9</title>
<g id="a_Node000009"><a xlink:href="classRayTracer_1_1DirectionalLight.html#a7170b3c9d9e2c2e697139f0dae68ab5b" target="_top" xlink:title="Compute light contribution, shadow ray cast in opposite direction.">
<polygon fill="white" stroke="#666666" points="299,-164.17 151,-164.17 151,-134.17 299,-134.17 299,-164.17"/>
<text text-anchor="start" x="159" y="-152.17" font-family="Helvetica,sans-Serif" font-size="10.00">RayTracer::DirectionalLight</text>
<text text-anchor="middle" x="225" y="-141.17" font-family="Helvetica,sans-Serif" font-size="10.00">::computeLight</text>
</a>
</g>
</g>
<!-- Node7&#45;&gt;Node9 -->
<g id="edge11_Node000007_Node000009" class="edge">
<title>Node7&#45;&gt;Node9</title>
<g id="a_edge11_Node000007_Node000009"><a xlink:title=" ">
<path fill="none" stroke="#63b8ff" d="M361.25,-182.24C338.61,-176.71 311.44,-170.06 287.41,-164.19"/>
<polygon fill="#63b8ff" stroke="#63b8ff" points="360.43,-185.65 370.98,-184.62 362.1,-178.85 360.43,-185.65"/>
</a>
</g>
</g>
<!-- Node10 -->
<g id="Node000010" class="node">
<title>Node10</title>
<g id="a_Node000010"><a xlink:href="classRayTracer_1_1PointLight.html#a4fdb35dd47674e655119b54c30b48b20" target="_top" xlink:title="Compute light contribution.">
<polygon fill="white" stroke="#666666" points="284.5,-116.17 165.5,-116.17 165.5,-86.17 284.5,-86.17 284.5,-116.17"/>
<text text-anchor="start" x="173.5" y="-104.17" font-family="Helvetica,sans-Serif" font-size="10.00">RayTracer::PointLight</text>
<text text-anchor="middle" x="225" y="-93.17" font-family="Helvetica,sans-Serif" font-size="10.00">::computeLight</text>
</a>
</g>
</g>
<!-- Node7&#45;&gt;Node10 -->
<g id="edge12_Node000007_Node000010" class="edge">
<title>Node7&#45;&gt;Node10</title>
<g id="a_edge12_Node000007_Node000010"><a xlink:title=" ">
<path fill="none" stroke="#63b8ff" d="M344.27,-180.53C341.03,-178.93 337.92,-177.15 335,-175.17 312.36,-159.76 321.09,-141.35 299,-125.17 294.37,-121.78 289.24,-118.85 283.9,-116.32"/>
<polygon fill="#63b8ff" stroke="#63b8ff" points="343.07,-183.82 353.64,-184.54 345.83,-177.39 343.07,-183.82"/>
</a>
</g>
</g>
<!-- Node11 -->
<g id="Node000011" class="node">
<title>Node11</title>
<g id="a_Node000011"><a xlink:href="classRayTracer_1_1Lambertian.html#ac5339d746050833c746e209d65d9a9da" target="_top" xlink:title="Evaluate the BRDF for a given pair of directions.">
<polygon fill="white" stroke="#666666" points="288,-68.17 162,-68.17 162,-38.17 288,-38.17 288,-68.17"/>
<text text-anchor="start" x="170" y="-56.17" font-family="Helvetica,sans-Serif" font-size="10.00">RayTracer::Lambertian</text>
<text text-anchor="middle" x="225" y="-45.17" font-family="Helvetica,sans-Serif" font-size="10.00">::evaluate</text>
</a>
</g>
</g>
<!-- Node7&#45;&gt;Node11 -->
<g id="edge13_Node000007_Node000011" class="edge">
<title>Node7&#45;&gt;Node11</title>
<g id="a_edge13_Node000007_Node000011"><a xlink:title=" ">
<path fill="none" stroke="#63b8ff" d="M340.54,-179.51C338.6,-178.18 336.74,-176.74 335,-175.17 300.53,-144.1 332.37,-109.41 299,-77.17 295.45,-73.74 291.4,-70.8 287.07,-68.28"/>
<polygon fill="#63b8ff" stroke="#63b8ff" points="339.12,-182.73 349.55,-184.62 342.58,-176.64 339.12,-182.73"/>
</a>
</g>
</g>
<!-- Node12&#45;&gt;Node2 -->
<g id="edge16_Node000012_Node000002" class="edge">
<title>Node12&#45;&gt;Node2</title>
<g id="a_edge16_Node000012_Node000002"><a xlink:title=" ">
<path fill="none" stroke="#63b8ff" d="M361.26,-243.17C352.5,-245.42 343.46,-247.81 335,-250.17 314.9,-255.75 292.86,-262.34 273.88,-268.15"/>
<polygon fill="#63b8ff" stroke="#63b8ff" points="362.16,-246.55 370.98,-240.69 360.43,-239.77 362.16,-246.55"/>
</a>
</g>
</g>
<!-- Node12&#45;&gt;Node3 -->
<g id="edge17_Node000012_Node000003" class="edge">
<title>Node12&#45;&gt;Node3</title>
<g id="a_edge17_Node000012_Node000003"><a xlink:title=" ">
<path fill="none" stroke="#63b8ff" d="M324.35,-238.48C259.26,-244.03 171.57,-251.52 115.03,-256.34"/>
<polygon fill="#63b8ff" stroke="#63b8ff" points="324.93,-241.94 334.59,-237.6 324.33,-234.96 324.93,-241.94"/>
</a>
</g>
</g>
</g>
</svg>

<g id="navigator" transform="translate(0 0)" fill="#404254">
  <rect fill="#f2f5e9" fill-opacity="0.5" stroke="#606060" stroke-width=".5" x="0" y="0" width="60" height="60"/>
  <use id="zoomplus" xlink:href="#zoomPlus" x="17" y="9" onmousedown="handleZoom(evt,'in')"/>
  <use id="zoomminus" xlink:href="#zoomMin" x="42" y="9" onmousedown="handleZoom(evt,'out')"/>
  <use id="reset" xlink:href="#resetDef" x="30" y="36" onmousedown="handleReset()"/>
   <use id="arrowup" xlink:href="#arrowUp" x="0" y="0" onmousedown="handlePan(0,-1)"/>
  <use id="arrowright" xlink:href="#arrowRight" x="0" y="0" onmousedown="handlePan(1,0)"/>
  <use id="arrowdown" xlink:href="#arrowDown" x="0" y="0" onmousedown="handlePan(0,1)"/>
  <use id="arrowleft" xlink:href="#arrowLeft" x="0" y="0" onmousedown="handlePan(-1,0)"/>
</g>
<svg viewBox="0 0 15 15" width="100%" height="30px" preserveAspectRatio="xMaxYMin meet">
 <g id="arrow_out" transform="scale(0.3 0.3)">
  <a xlink:href="structRayTracer_1_1Color_a01b4a4dad8204eed80f8d38d3d004e4d_icgraph_org.svg" target="_base">
   <rect id="button" ry="5" rx="5" y="6" x="6" height="38" width="38"
        fill="#f2f5e9" fill-opacity="0.5" stroke="#606060" stroke-width="1.0"/>
   <path id="arrow"
     d="M 11.500037,31.436501 C 11.940474,20.09759 22.043105,11.32322 32.158766,21.979434 L 37.068811,17.246167 C 37.068811,17.246167 37.088388,32 37.088388,32 L 22.160133,31.978069 C 22.160133,31.978069 26.997745,27.140456 26.997745,27.140456 C 18.528582,18.264221 13.291696,25.230495 11.500037,31.436501 z"
     style="fill:#404040;"/>
  </a>
 </g>
</svg>

<style type='text/css'>
<![CDATA[
[data-mouse-over-selected='false'] { opacity: 0.7; }
[data-mouse-over-selected='true']  { opacity: 1.0; }
]]>
</style>
<script type="application/ecmascript"><![CDATA[
document.addEventListener('DOMContentLoaded', (event) => {
  highlightEdges();
  highlightAdjacentNodes();
});
]]></script>
</svg>
