<?xml version="1.0" encoding="UTF-8" standalone="no"?>
<!DOCTYPE svg PUBLIC "-//W3C//DTD SVG 1.1//EN"
 "http://www.w3.org/Graphics/SVG/1.1/DTD/svg11.dtd">
<!-- Generated by graphviz version 2.43.0 (0)
 -->
<!-- Title: RayTracer::BVH::Node::isLeaf Pages: 1 -->
<svg width="906pt" height="51pt"
 viewBox="0.00 0.00 906.00 50.50" xmlns="http://www.w3.org/2000/svg" xmlns:xlink="http://www.w3.org/1999/xlink">
<g id="graph0" class="graph" transform="scale(1 1) rotate(0) translate(4 46.5)">
<title>RayTracer::BVH::Node::isLeaf</title>
<!-- Node1 -->
<g id="Node000001" class="node">
<title>Node1</title>
<g id="a_Node000001"><a xlink:title=" ">
<polygon fill="#999999" stroke="#666666" points="898,-30 775,-30 775,0 898,0 898,-30"/>
<text text-anchor="start" x="783" y="-18" font-family="Helvetica,sans-Serif" font-size="10.00">RayTracer::BVH::Node</text>
<text text-anchor="middle" x="836.5" y="-7" font-family="Helvetica,sans-Serif" font-size="10.00">::isLeaf</text>
</a>
</g>
</g>
<!-- Node2 -->
<g id="Node000002" class="node">
<title>Node2</title>
<g id="a_Node000002"><a xlink:href="classRayTracer_1_1BVH.html#aa28c211e870f890ee8b318cb0356beb7" target="_top" xlink:title=" ">
<polygon fill="white" stroke="#666666" points="739,-24.5 603,-24.5 603,-5.5 739,-5.5 739,-24.5"/>
<text text-anchor="middle" x="671" y="-12.5" font-family="Helvetica,sans-Serif" font-size="10.00">RayTracer::BVH::hitNode</text>
</a>
</g>
</g>
<!-- Node1&#45;&gt;Node2 -->
<g id="edge1_Node000001_Node000002" class="edge">
<title>Node1&#45;&gt;Node2</title>
<g id="a_edge1_Node000001_Node000002"><a xlink:title=" ">
<path fill="none" stroke="#63b8ff" d="M764.49,-15C756.11,-15 747.58,-15 739.25,-15"/>
<polygon fill="#63b8ff" stroke="#63b8ff" points="764.62,-18.5 774.62,-15 764.62,-11.5 764.62,-18.5"/>
</a>
</g>
</g>
<!-- Node2&#45;&gt;Node2 -->
<g id="edge6_Node000002_Node000002" class="edge">
<title>Node2&#45;&gt;Node2</title>
<g id="a_edge6_Node000002_Node000002"><a xlink:title=" ">
<path fill="none" stroke="#63b8ff" d="M700.49,-33.32C699.26,-38.51 689.43,-42.5 671,-42.5 642.92,-42.5 634.8,-33.23 646.65,-24.58"/>
<polygon fill="#63b8ff" stroke="#63b8ff" points="703.44,-31.43 695.35,-24.58 697.41,-34.98 703.44,-31.43"/>
</a>
</g>
</g>
<!-- Node3 -->
<g id="Node000003" class="node">
<title>Node3</title>
<g id="a_Node000003"><a xlink:href="classRayTracer_1_1BVH.html#a5385dd9961d6eb9148833e83538b24f9" target="_top" xlink:title=" ">
<polygon fill="white" stroke="#666666" points="567,-24.5 457,-24.5 457,-5.5 567,-5.5 567,-24.5"/>
<text text-anchor="middle" x="512" y="-12.5" font-family="Helvetica,sans-Serif" font-size="10.00">RayTracer::BVH::hit</text>
</a>
</g>
</g>
<!-- Node2&#45;&gt;Node3 -->
<g id="edge2_Node000002_Node000003" class="edge">
<title>Node2&#45;&gt;Node3</title>
<g id="a_edge2_Node000002_Node000003"><a xlink:title=" ">
<path fill="none" stroke="#63b8ff" d="M592.78,-15C584.07,-15 575.34,-15 567.02,-15"/>
<polygon fill="#63b8ff" stroke="#63b8ff" points="592.96,-18.5 602.96,-15 592.96,-11.5 592.96,-18.5"/>
</a>
</g>
</g>
<!-- Node4 -->
<g id="Node000004" class="node">
<title>Node4</title>
<g id="a_Node000004"><a xlink:href="classRayTracer_1_1Scene.html#a67328ab35346b609ab3b7220fa08098c" target="_top" xlink:title="Find the closest hit for a ray using the current acceleration state.">
<polygon fill="white" stroke="#666666" points="421,-24.5 302,-24.5 302,-5.5 421,-5.5 421,-24.5"/>
<text text-anchor="middle" x="361.5" y="-12.5" font-family="Helvetica,sans-Serif" font-size="10.00">RayTracer::Scene::hit</text>
</a>
</g>
</g>
<!-- Node3&#45;&gt;Node4 -->
<g id="edge3_Node000003_Node000004" class="edge">
<title>Node3&#45;&gt;Node4</title>
<g id="a_edge3_Node000003_Node000004"><a xlink:title=" ">
<path fill="none" stroke="#63b8ff" d="M446.96,-15C438.33,-15 429.52,-15 421,-15"/>
<polygon fill="#63b8ff" stroke="#63b8ff" points="446.97,-18.5 456.97,-15 446.97,-11.5 446.97,-18.5"/>
</a>
</g>
</g>
<!-- Node5 -->
<g id="Node000005" class="node">
<title>Node5</title>
<g id="a_Node000005"><a xlink:href="classRayTracer_1_1Camera.html#a7cd2251f34b6dda51fe338512e598571" target="_top" xlink:title="Evaluate the rendering equation along a ray, deterministically.">
<polygon fill="white" stroke="#666666" points="266,-30 151,-30 151,0 266,0 266,-30"/>
<text text-anchor="start" x="159" y="-18" font-family="Helvetica,sans-Serif" font-size="10.00">RayTracer::Camera::</text>
<text text-anchor="middle" x="208.5" y="-7" font-family="Helvetica,sans-Serif" font-size="10.00">castRay</text>
</a>
</g>
</g>
<!-- Node4&#45;&gt;Node5 -->
<g id="edge4_Node000004_Node000005" class="edge">
<title>Node4&#45;&gt;Node5</title>
<g id="a_edge4_Node000004_Node000005"><a xlink:title=" ">
<path fill="none" stroke="#63b8ff" d="M291.52,-15C283.12,-15 274.62,-15 266.42,-15"/>
<polygon fill="#63b8ff" stroke="#63b8ff" points="291.69,-18.5 301.69,-15 291.69,-11.5 291.69,-18.5"/>
</a>
</g>
</g>
<!-- Node6 -->
<g id="Node000006" class="node">
<title>Node6</title>
<g id="a_Node000006"><a xlink:href="classRayTracer_1_1Camera.html#a3735fca524537e8a0ce755bb77e9a71f" target="_top" xlink:title="Render the scene into a 2D framebuffer.">
<polygon fill="white" stroke="#666666" points="115,-30 0,-30 0,0 115,0 115,-30"/>
<text text-anchor="start" x="8" y="-18" font-family="Helvetica,sans-Serif" font-size="10.00">RayTracer::Camera::</text>
<text text-anchor="middle" x="57.5" y="-7" font-family="Helvetica,sans-Serif" font-size="10.00">render</text>
</a>
</g>
</g>
<!-- Node5&#45;&gt;Node6 -->
<g id="edge5_Node000005_Node000006" class="edge">
<title>Node5&#45;&gt;Node6</title>
<g id="a_edge5_Node000005_Node000006"><a xlink:title=" ">
<path fill="none" stroke="#63b8ff" d="M140.49,-15C132.01,-15 123.4,-15 115.1,-15"/>
<polygon fill="#63b8ff" stroke="#63b8ff" points="140.74,-18.5 150.74,-15 140.74,-11.5 140.74,-18.5"/>
</a>
</g>
</g>
</g>
</svg>
