<?xml version="1.0" encoding="UTF-8" standalone="no"?>
<!DOCTYPE svg PUBLIC "-//W3C//DTD SVG 1.1//EN"
 "http://www.w3.org/Graphics/SVG/1.1/DTD/svg11.dtd">
<!-- Generated by graphviz version 2.43.0 (0)
 -->
<!-- Title: RayTracer::Color::Color Pages: 1 -->
<svg width="660pt" height="436pt"
 viewBox="0.00 0.00 660.00 436.50" xmlns="http://www.w3.org/2000/svg" xmlns:xlink="http://www.w3.org/1999/xlink">
<g id="graph0" class="graph" transform="scale(1 1) rotate(0) translate(4 432.5)">
<title>RayTracer::Color::Color</title>
<!-- Node1 -->
<g id="Node000001" class="node">
<title>Node1</title>
<g id="a_Node000001"><a xlink:title=" ">
<polygon fill="#999999" stroke="#666666" points="652,-217 524,-217 524,-198 652,-198 652,-217"/>
<text text-anchor="middle" x="588" y="-205" font-family="Helvetica,sans-Serif" font-size="10.00">RayTracer::Color::Color</text>
</a>
</g>
</g>
<!-- Node2 -->
<g id="Node000002" class="node">
<title>Node2</title>
<g id="a_Node000002"><a xlink:href="classRayTracer_1_1Camera.html#a7cd2251f34b6dda51fe338512e598571" target="_top" xlink:title="Evaluate the rendering equation along a ray, deterministically.">
<polygon fill="white" stroke="#666666" points="283,-379.5 168,-379.5 168,-349.5 283,-349.5 283,-379.5"/>
<text text-anchor="start" x="176" y="-367.5" font-family="Helvetica,sans-Serif" font-size="10.00">RayTracer::Camera::</text>
<text text-anchor="middle" x="225.5" y="-356.5" font-family="Helvetica,sans-Serif" font-size="10.00">castRay</text>
</a>
</g>
</g>
<!-- Node1&#45;&gt;Node2 -->
<g id="edge1_Node000001_Node000002" class="edge">
<title>Node1&#45;&gt;Node2</title>
<g id="a_edge1_Node000001_Node000002"><a xlink:title=" ">
<path fill="none" stroke="#63b8ff" d="M573.77,-225.25C556.51,-247.1 524.2,-283.74 488,-303.5 453.17,-322.51 349.01,-343.21 283.14,-354.95"/>
<polygon fill="#63b8ff" stroke="#63b8ff" points="576.69,-227.2 580.02,-217.14 571.15,-222.93 576.69,-227.2"/>
</a>
</g>
</g>
<!-- Node3 -->
<g id="Node000003" class="node">
<title>Node3</title>
<g id="a_Node000003"><a xlink:href="classRayTracer_1_1Camera.html#a3735fca524537e8a0ce755bb77e9a71f" target="_top" xlink:title="Render the scene into a 2D framebuffer.">
<polygon fill="white" stroke="#666666" points="115,-357.5 0,-357.5 0,-327.5 115,-327.5 115,-357.5"/>
<text text-anchor="start" x="8" y="-345.5" font-family="Helvetica,sans-Serif" font-size="10.00">RayTracer::Camera::</text>
<text text-anchor="middle" x="57.5" y="-334.5" font-family="Helvetica,sans-Serif" font-size="10.00">render</text>
</a>
</g>
</g>
<!-- Node1&#45;&gt;Node3 -->
<g id="edge23_Node000001_Node000003" class="edge">
<title>Node1&#45;&gt;Node3</title>
<g id="a_edge23_Node000001_Node000003"><a xlink:title=" ">
<path fill="none" stroke="#63b8ff" d="M582.57,-227.24C572.88,-265.14 545.9,-347.48 488,-382.5 359.82,-460.02 296.83,-422.76 151,-388.5 125.68,-382.55 99.37,-368.58 81.31,-357.59"/>
<polygon fill="#63b8ff" stroke="#63b8ff" points="586,-227.94 584.94,-217.4 579.19,-226.3 586,-227.94"/>
</a>
</g>
</g>
<!-- Node4 -->
<g id="Node000004" class="node">
<title>Node4</title>
<g id="a_Node000004"><a xlink:href="classRayTracer_1_1DirectionalLight.html#a7170b3c9d9e2c2e697139f0dae68ab5b" target="_top" xlink:title="Compute light contribution, shadow ray cast in opposite direction.">
<polygon fill="white" stroke="#666666" points="299.5,-121.5 151.5,-121.5 151.5,-91.5 299.5,-91.5 299.5,-121.5"/>
<text text-anchor="start" x="159.5" y="-109.5" font-family="Helvetica,sans-Serif" font-size="10.00">RayTracer::DirectionalLight</text>
<text text-anchor="middle" x="225.5" y="-98.5" font-family="Helvetica,sans-Serif" font-size="10.00">::computeLight</text>
</a>
</g>
</g>
<!-- Node1&#45;&gt;Node4 -->
<g id="edge3_Node000001_Node000004" class="edge">
<title>Node1&#45;&gt;Node4</title>
<g id="a_edge3_Node000001_Node000004"><a xlink:title=" ">
<path fill="none" stroke="#63b8ff" d="M513.93,-216.3C460.95,-219.1 389.52,-215.2 336,-183.5 311.5,-168.99 322.76,-147.62 300,-130.5 295.49,-127.11 290.49,-124.19 285.27,-121.67"/>
<polygon fill="#63b8ff" stroke="#63b8ff" points="514.17,-219.79 523.93,-215.68 513.73,-212.81 514.17,-219.79"/>
</a>
</g>
</g>
<!-- Node5 -->
<g id="Node000005" class="node">
<title>Node5</title>
<g id="a_Node000005"><a xlink:href="classRayTracer_1_1PointLight.html#a4fdb35dd47674e655119b54c30b48b20" target="_top" xlink:title="Compute light contribution.">
<polygon fill="white" stroke="#666666" points="285,-73.5 166,-73.5 166,-43.5 285,-43.5 285,-73.5"/>
<text text-anchor="start" x="174" y="-61.5" font-family="Helvetica,sans-Serif" font-size="10.00">RayTracer::PointLight</text>
<text text-anchor="middle" x="225.5" y="-50.5" font-family="Helvetica,sans-Serif" font-size="10.00">::computeLight</text>
</a>
</g>
</g>
<!-- Node1&#45;&gt;Node5 -->
<g id="edge4_Node000001_Node000005" class="edge">
<title>Node1&#45;&gt;Node5</title>
<g id="a_edge4_Node000001_Node000005"><a xlink:title=" ">
<path fill="none" stroke="#63b8ff" d="M538.75,-195.56C522.63,-191.63 504.56,-187.3 488,-183.5 420.63,-168.02 391.08,-192.27 336,-150.5 308.75,-129.84 326.16,-104.52 300,-82.5 295.58,-78.78 290.58,-75.64 285.31,-72.98"/>
<polygon fill="#63b8ff" stroke="#63b8ff" points="537.95,-198.97 548.5,-197.94 539.61,-192.17 537.95,-198.97"/>
</a>
</g>
</g>
<!-- Node6 -->
<g id="Node000006" class="node">
<title>Node6</title>
<g id="a_Node000006"><a xlink:href="classRayTracer_1_1Lambertian.html#a6205c3776a49354dab5d02f983c196e1" target="_top" xlink:title=" ">
<polygon fill="white" stroke="#666666" points="475,-141.5 349,-141.5 349,-111.5 475,-111.5 475,-141.5"/>
<text text-anchor="start" x="357" y="-129.5" font-family="Helvetica,sans-Serif" font-size="10.00">RayTracer::Lambertian</text>
<text text-anchor="middle" x="412" y="-118.5" font-family="Helvetica,sans-Serif" font-size="10.00">::emission</text>
</a>
</g>
</g>
<!-- Node1&#45;&gt;Node6 -->
<g id="edge5_Node000001_Node000006" class="edge">
<title>Node1&#45;&gt;Node6</title>
<g id="a_edge5_Node000001_Node000006"><a xlink:title=" ">
<path fill="none" stroke="#63b8ff" d="M561.15,-192.88C541.41,-181.97 513.37,-167.02 488,-155.5 477.32,-150.65 465.58,-145.86 454.61,-141.62"/>
<polygon fill="#63b8ff" stroke="#63b8ff" points="559.69,-196.07 570.13,-197.88 563.09,-189.95 559.69,-196.07"/>
</a>
</g>
</g>
<!-- Node7 -->
<g id="Node000007" class="node">
<title>Node7</title>
<g id="a_Node000007"><a xlink:href="classRayTracer_1_1Phong.html#a5e0b821a0516e1fbdcd25f358a46d83d" target="_top" xlink:title="Return the radiance emitted by this surface.">
<polygon fill="white" stroke="#666666" points="487.5,-93 336.5,-93 336.5,-74 487.5,-74 487.5,-93"/>
<text text-anchor="middle" x="412" y="-81" font-family="Helvetica,sans-Serif" font-size="10.00">RayTracer::Phong::emission</text>
</a>
</g>
</g>
<!-- Node1&#45;&gt;Node7 -->
<g id="edge6_Node000001_Node000007" class="edge">
<title>Node1&#45;&gt;Node7</title>
<g id="a_edge6_Node000001_Node000007"><a xlink:title=" ">
<path fill="none" stroke="#63b8ff" d="M575.08,-189.56C558.43,-165.95 525.94,-124.81 488,-102.5 481.4,-98.62 474.02,-95.53 466.54,-93.06"/>
<polygon fill="#63b8ff" stroke="#63b8ff" points="572.31,-191.7 580.85,-197.96 578.07,-187.74 572.31,-191.7"/>
</a>
</g>
</g>
<!-- Node8 -->
<g id="Node000008" class="node">
<title>Node8</title>
<g id="a_Node000008"><a xlink:href="CorePlugin_8cpp.html#a0e14e2166e2799c71d21f343a3d543f3" target="_top" xlink:title=" ">
<polygon fill="white" stroke="#666666" points="453.5,-56 370.5,-56 370.5,-37 453.5,-37 453.5,-56"/>
<text text-anchor="middle" x="412" y="-44" font-family="Helvetica,sans-Serif" font-size="10.00">getInitializers</text>
</a>
</g>
</g>
<!-- Node1&#45;&gt;Node8 -->
<g id="edge7_Node000001_Node000008" class="edge">
<title>Node1&#45;&gt;Node8</title>
<g id="a_edge7_Node000001_Node000008"><a xlink:title=" ">
<path fill="none" stroke="#63b8ff" d="M579.23,-188.38C565.6,-157.33 534.34,-96.23 488,-64.5 477.95,-57.62 465.56,-53.35 453.78,-50.71"/>
<polygon fill="#63b8ff" stroke="#63b8ff" points="576.05,-189.83 583.18,-197.67 582.49,-187.1 576.05,-189.83"/>
</a>
</g>
</g>
<!-- Node9 -->
<g id="Node000009" class="node">
<title>Node9</title>
<g id="a_Node000009"><a xlink:href="structRayTracer_1_1Color.html#a3a5645c19c0b60a67b3dfac325727248" target="_top" xlink:title=" ">
<polygon fill="white" stroke="#666666" points="486.5,-373 337.5,-373 337.5,-354 486.5,-354 486.5,-373"/>
<text text-anchor="middle" x="412" y="-361" font-family="Helvetica,sans-Serif" font-size="10.00">RayTracer::Color::operator*</text>
</a>
</g>
</g>
<!-- Node1&#45;&gt;Node9 -->
<g id="edge8_Node000001_Node000009" class="edge">
<title>Node1&#45;&gt;Node9</title>
<g id="a_edge8_Node000001_Node000009"><a xlink:title=" ">
<path fill="none" stroke="#63b8ff" d="M577.45,-226.57C562.29,-254.98 530.07,-308.29 488,-338.5 478.63,-345.22 467.34,-350.23 456.39,-353.91"/>
<polygon fill="#63b8ff" stroke="#63b8ff" points="580.75,-227.81 582.25,-217.32 574.54,-224.58 580.75,-227.81"/>
</a>
</g>
</g>
<!-- Node10 -->
<g id="Node000010" class="node">
<title>Node10</title>
<g id="a_Node000010"><a xlink:href="structRayTracer_1_1Color.html#aefc65f4c5ffc2e9bca0a35e4e55d68b8" target="_top" xlink:title=" ">
<polygon fill="white" stroke="#666666" points="486.5,-255 337.5,-255 337.5,-236 486.5,-236 486.5,-255"/>
<text text-anchor="middle" x="412" y="-243" font-family="Helvetica,sans-Serif" font-size="10.00">RayTracer::Color::operator*</text>
</a>
</g>
</g>
<!-- Node1&#45;&gt;Node10 -->
<g id="edge10_Node000001_Node000010" class="edge">
<title>Node1&#45;&gt;Node10</title>
<g id="a_edge10_Node000001_Node000010"><a xlink:title=" ">
<path fill="none" stroke="#63b8ff" d="M533.19,-219.25C508.58,-224.63 479.81,-230.91 456.59,-235.98"/>
<polygon fill="#63b8ff" stroke="#63b8ff" points="534.07,-222.64 543.09,-217.09 532.58,-215.8 534.07,-222.64"/>
</a>
</g>
</g>
<!-- Node14 -->
<g id="Node000014" class="node">
<title>Node14</title>
<g id="a_Node000014"><a xlink:href="structRayTracer_1_1Color.html#a327b4006c4abe3faf3491929b8ee1a7c" target="_top" xlink:title=" ">
<polygon fill="white" stroke="#666666" points="488,-294 336,-294 336,-275 488,-275 488,-294"/>
<text text-anchor="middle" x="412" y="-282" font-family="Helvetica,sans-Serif" font-size="10.00">RayTracer::Color::operator+</text>
</a>
</g>
</g>
<!-- Node1&#45;&gt;Node14 -->
<g id="edge18_Node000001_Node000014" class="edge">
<title>Node1&#45;&gt;Node14</title>
<g id="a_edge18_Node000001_Node000014"><a xlink:title=" ">
<path fill="none" stroke="#63b8ff" d="M564.7,-222.62C545.18,-235.28 515.7,-253.07 488,-264.5 478.04,-268.61 466.97,-272.11 456.47,-274.97"/>
<polygon fill="#63b8ff" stroke="#63b8ff" points="566.75,-225.46 573.17,-217.03 562.9,-219.61 566.75,-225.46"/>
</a>
</g>
</g>
<!-- Node15 -->
<g id="Node000015" class="node">
<title>Node15</title>
<g id="a_Node000015"><a xlink:href="structRayTracer_1_1Color.html#ad224166942560c4b3930f6ec1939602f" target="_top" xlink:title=" ">
<polygon fill="white" stroke="#666666" points="485.5,-19 338.5,-19 338.5,0 485.5,0 485.5,-19"/>
<text text-anchor="middle" x="412" y="-7" font-family="Helvetica,sans-Serif" font-size="10.00">RayTracer::Color::operator&#45;</text>
</a>
</g>
</g>
<!-- Node1&#45;&gt;Node15 -->
<g id="edge22_Node000001_Node000015" class="edge">
<title>Node1&#45;&gt;Node15</title>
<g id="a_edge22_Node000001_Node000015"><a xlink:title=" ">
<path fill="none" stroke="#63b8ff" d="M581.91,-187.77C571.21,-150.38 542.73,-69.26 488,-27.5 483.53,-24.09 478.51,-21.31 473.23,-19.05"/>
<polygon fill="#63b8ff" stroke="#63b8ff" points="578.66,-189.15 584.67,-197.87 585.41,-187.3 578.66,-189.15"/>
</a>
</g>
</g>
<!-- Node2&#45;&gt;Node3 -->
<g id="edge2_Node000002_Node000003" class="edge">
<title>Node2&#45;&gt;Node3</title>
<g id="a_edge2_Node000002_Node000003"><a xlink:title=" ">
<path fill="none" stroke="#63b8ff" d="M157.71,-355.65C143.62,-353.78 128.87,-351.83 115.19,-350.01"/>
<polygon fill="#63b8ff" stroke="#63b8ff" points="157.46,-359.15 167.84,-356.99 158.38,-352.21 157.46,-359.15"/>
</a>
</g>
</g>
<!-- Node9&#45;&gt;Node2 -->
<g id="edge9_Node000009_Node000002" class="edge">
<title>Node9&#45;&gt;Node2</title>
<g id="a_edge9_Node000009_Node000002"><a xlink:title=" ">
<path fill="none" stroke="#63b8ff" d="M327.04,-363.96C312.14,-364.04 296.95,-364.12 283.05,-364.19"/>
<polygon fill="#63b8ff" stroke="#63b8ff" points="327.3,-367.45 337.29,-363.9 327.27,-360.45 327.3,-367.45"/>
</a>
</g>
</g>
<!-- Node10&#45;&gt;Node2 -->
<g id="edge11_Node000010_Node000002" class="edge">
<title>Node10&#45;&gt;Node2</title>
<g id="a_edge11_Node000010_Node000002"><a xlink:title=" ">
<path fill="none" stroke="#63b8ff" d="M353.21,-258.38C347.21,-260.68 341.36,-263.36 336,-266.5 316.47,-277.92 316.66,-287.19 300,-302.5 281.93,-319.1 260.38,-337.08 245.3,-349.38"/>
<polygon fill="#63b8ff" stroke="#63b8ff" points="354.4,-261.67 362.7,-255.08 352.1,-255.06 354.4,-261.67"/>
</a>
</g>
</g>
<!-- Node10&#45;&gt;Node3 -->
<g id="edge17_Node000010_Node000003" class="edge">
<title>Node10&#45;&gt;Node3</title>
<g id="a_edge17_Node000010_Node000003"><a xlink:title=" ">
<path fill="none" stroke="#63b8ff" d="M327.12,-239.23C274.68,-238.35 206.75,-242.88 151,-265.5 117.7,-279.01 87.39,-309.13 71.09,-327.43"/>
<polygon fill="#63b8ff" stroke="#63b8ff" points="327.32,-242.74 337.4,-239.48 327.48,-235.74 327.32,-242.74"/>
</a>
</g>
</g>
<!-- Node10&#45;&gt;Node4 -->
<g id="edge13_Node000010_Node000004" class="edge">
<title>Node10&#45;&gt;Node4</title>
<g id="a_edge13_Node000010_Node000004"><a xlink:title=" ">
<path fill="none" stroke="#63b8ff" d="M350.76,-231.75C345.39,-228.95 340.35,-225.57 336,-221.5 304.23,-191.79 331.68,-160.3 300,-130.5 296.38,-127.1 292.28,-124.18 287.9,-121.67"/>
<polygon fill="#63b8ff" stroke="#63b8ff" points="349.5,-235.02 360.05,-235.95 352.38,-228.64 349.5,-235.02"/>
</a>
</g>
</g>
<!-- Node10&#45;&gt;Node5 -->
<g id="edge14_Node000010_Node000005" class="edge">
<title>Node10&#45;&gt;Node5</title>
<g id="a_edge14_Node000010_Node000005"><a xlink:title=" ">
<path fill="none" stroke="#63b8ff" d="M386.25,-230.18C369.99,-219.01 349.33,-202.53 336,-183.5 308.65,-144.47 334.15,-115.74 300,-82.5 295.67,-78.29 290.59,-74.81 285.16,-71.95"/>
<polygon fill="#63b8ff" stroke="#63b8ff" points="384.49,-233.21 394.75,-235.83 388.36,-227.38 384.49,-233.21"/>
</a>
</g>
</g>
<!-- Node11 -->
<g id="Node000011" class="node">
<title>Node11</title>
<g id="a_Node000011"><a xlink:href="classRayTracer_1_1AmbientLight.html#a8dd2be46eadb8f46021064b6f182c359" target="_top" xlink:title="Ambient light never casts shadows, just returns color * intensity.">
<polygon fill="white" stroke="#666666" points="293.5,-217.5 157.5,-217.5 157.5,-187.5 293.5,-187.5 293.5,-217.5"/>
<text text-anchor="start" x="165.5" y="-205.5" font-family="Helvetica,sans-Serif" font-size="10.00">RayTracer::AmbientLight</text>
<text text-anchor="middle" x="225.5" y="-194.5" font-family="Helvetica,sans-Serif" font-size="10.00">::computeLight</text>
</a>
</g>
</g>
<!-- Node10&#45;&gt;Node11 -->
<g id="edge12_Node000010_Node000011" class="edge">
<title>Node10&#45;&gt;Node11</title>
<g id="a_edge12_Node000010_Node000011"><a xlink:title=" ">
<path fill="none" stroke="#63b8ff" d="M360.18,-233.66C338.77,-228.66 313.58,-222.8 290.89,-217.51"/>
<polygon fill="#63b8ff" stroke="#63b8ff" points="359.52,-237.1 370.05,-235.96 361.11,-230.28 359.52,-237.1"/>
</a>
</g>
</g>
<!-- Node12 -->
<g id="Node000012" class="node">
<title>Node12</title>
<g id="a_Node000012"><a xlink:href="classRayTracer_1_1Lambertian.html#ac5339d746050833c746e209d65d9a9da" target="_top" xlink:title="Evaluate the BRDF for a given pair of directions.">
<polygon fill="white" stroke="#666666" points="288.5,-169.5 162.5,-169.5 162.5,-139.5 288.5,-139.5 288.5,-169.5"/>
<text text-anchor="start" x="170.5" y="-157.5" font-family="Helvetica,sans-Serif" font-size="10.00">RayTracer::Lambertian</text>
<text text-anchor="middle" x="225.5" y="-146.5" font-family="Helvetica,sans-Serif" font-size="10.00">::evaluate</text>
</a>
</g>
</g>
<!-- Node10&#45;&gt;Node12 -->
<g id="edge15_Node000010_Node000012" class="edge">
<title>Node10&#45;&gt;Node12</title>
<g id="a_edge15_Node000010_Node000012"><a xlink:title=" ">
<path fill="none" stroke="#63b8ff" d="M357.48,-232.52C349.94,-229.53 342.54,-225.9 336,-221.5 315.31,-207.6 320.65,-192.46 300,-178.5 295,-175.12 289.48,-172.18 283.79,-169.64"/>
<polygon fill="#63b8ff" stroke="#63b8ff" points="356.46,-235.87 367.05,-235.98 358.83,-229.29 356.46,-235.87"/>
</a>
</g>
</g>
<!-- Node13 -->
<g id="Node000013" class="node">
<title>Node13</title>
<g id="a_Node000013"><a xlink:href="classRayTracer_1_1Phong.html#a2526bd20be0b2cbb045250c4a6573b27" target="_top" xlink:title="Evaluate the BRDF for a given pair of directions.">
<polygon fill="white" stroke="#666666" points="300,-293 151,-293 151,-274 300,-274 300,-293"/>
<text text-anchor="middle" x="225.5" y="-281" font-family="Helvetica,sans-Serif" font-size="10.00">RayTracer::Phong::evaluate</text>
</a>
</g>
</g>
<!-- Node10&#45;&gt;Node13 -->
<g id="edge16_Node000010_Node000013" class="edge">
<title>Node10&#45;&gt;Node13</title>
<g id="a_edge16_Node000010_Node000013"><a xlink:title=" ">
<path fill="none" stroke="#63b8ff" d="M354.63,-257.11C328.39,-262.51 297.56,-268.86 272.72,-273.98"/>
<polygon fill="#63b8ff" stroke="#63b8ff" points="355.35,-260.53 364.44,-255.09 353.94,-253.68 355.35,-260.53"/>
</a>
</g>
</g>
<!-- Node14&#45;&gt;Node2 -->
<g id="edge19_Node000014_Node000002" class="edge">
<title>Node14&#45;&gt;Node2</title>
<g id="a_edge19_Node000014_Node000002"><a xlink:title=" ">
<path fill="none" stroke="#63b8ff" d="M367.48,-297.33C356.94,-301.05 345.88,-305.48 336,-310.5 318.64,-319.33 317.17,-326.31 300,-335.5 290.45,-340.61 279.79,-345.33 269.62,-349.41"/>
<polygon fill="#63b8ff" stroke="#63b8ff" points="368.61,-300.64 376.96,-294.12 366.37,-294.01 368.61,-300.64"/>
</a>
</g>
</g>
<!-- Node14&#45;&gt;Node3 -->
<g id="edge21_Node000014_Node000003" class="edge">
<title>Node14&#45;&gt;Node3</title>
<g id="a_edge21_Node000014_Node000003"><a xlink:title=" ">
<path fill="none" stroke="#63b8ff" d="M343.26,-295.65C277.03,-306.54 177.33,-322.95 115.18,-333.17"/>
<polygon fill="#63b8ff" stroke="#63b8ff" points="343.89,-299.09 353.19,-294.01 342.75,-292.18 343.89,-299.09"/>
</a>
</g>
</g>
<!-- Node14&#45;&gt;Node13 -->
<g id="edge20_Node000014_Node000013" class="edge">
<title>Node14&#45;&gt;Node13</title>
<g id="a_edge20_Node000014_Node000013"><a xlink:title=" ">
<path fill="none" stroke="#63b8ff" d="M325.95,-284.04C317.38,-283.99 308.72,-283.95 300.28,-283.9"/>
<polygon fill="#63b8ff" stroke="#63b8ff" points="325.94,-287.54 335.96,-284.09 325.98,-280.54 325.94,-287.54"/>
</a>
</g>
</g>
</g>
</svg>
