<?xml version="1.0" encoding="UTF-8" standalone="no"?>
<!DOCTYPE svg PUBLIC "-//W3C//DTD SVG 1.1//EN"
 "http://www.w3.org/Graphics/SVG/1.1/DTD/svg11.dtd">
<!-- Generated by graphviz version 2.43.0 (0)
 -->
<!-- Title: RayTracer::Color::operator* Pages: 1 -->
<svg width="493pt" height="306pt"
 viewBox="0.00 0.00 493.00 305.50" xmlns="http://www.w3.org/2000/svg" xmlns:xlink="http://www.w3.org/1999/xlink">
<g id="graph0" class="graph" transform="scale(1 1) rotate(0) translate(4 301.5)">
<title>RayTracer::Color::operator*</title>
<!-- Node1 -->
<g id="Node000001" class="node">
<title>Node1</title>
<g id="a_Node000001"><a xlink:title=" ">
<polygon fill="#999999" stroke="#666666" points="485,-158 336,-158 336,-139 485,-139 485,-158"/>
<text text-anchor="middle" x="410.5" y="-146" font-family="Helvetica,sans-Serif" font-size="10.00">RayTracer::Color::operator*</text>
</a>
</g>
</g>
<!-- Node2 -->
<g id="Node000002" class="node">
<title>Node2</title>
<g id="a_Node000002"><a xlink:href="classRayTracer_1_1Camera.html#a7cd2251f34b6dda51fe338512e598571" target="_top" xlink:title="Evaluate the rendering equation along a ray, deterministically.">
<polygon fill="white" stroke="#666666" points="283,-297.5 168,-297.5 168,-267.5 283,-267.5 283,-297.5"/>
<text text-anchor="start" x="176" y="-285.5" font-family="Helvetica,sans-Serif" font-size="10.00">RayTracer::Camera::</text>
<text text-anchor="middle" x="225.5" y="-274.5" font-family="Helvetica,sans-Serif" font-size="10.00">castRay</text>
</a>
</g>
</g>
<!-- Node1&#45;&gt;Node2 -->
<g id="edge1_Node000001_Node000002" class="edge">
<title>Node1&#45;&gt;Node2</title>
<g id="a_edge1_Node000001_Node000002"><a xlink:title=" ">
<path fill="none" stroke="#63b8ff" d="M395.1,-166.04C375.59,-188.84 338.73,-228.67 300,-253.5 291.69,-258.83 282.23,-263.46 272.94,-267.35"/>
<polygon fill="#63b8ff" stroke="#63b8ff" points="397.93,-168.1 401.69,-158.2 392.58,-163.6 397.93,-168.1"/>
</a>
</g>
</g>
<!-- Node3 -->
<g id="Node000003" class="node">
<title>Node3</title>
<g id="a_Node000003"><a xlink:href="classRayTracer_1_1Camera.html#a3735fca524537e8a0ce755bb77e9a71f" target="_top" xlink:title="Render the scene into a 2D framebuffer.">
<polygon fill="white" stroke="#666666" points="115,-275.5 0,-275.5 0,-245.5 115,-245.5 115,-275.5"/>
<text text-anchor="start" x="8" y="-263.5" font-family="Helvetica,sans-Serif" font-size="10.00">RayTracer::Camera::</text>
<text text-anchor="middle" x="57.5" y="-252.5" font-family="Helvetica,sans-Serif" font-size="10.00">render</text>
</a>
</g>
</g>
<!-- Node1&#45;&gt;Node3 -->
<g id="edge8_Node000001_Node000003" class="edge">
<title>Node1&#45;&gt;Node3</title>
<g id="a_edge8_Node000001_Node000003"><a xlink:title=" ">
<path fill="none" stroke="#63b8ff" d="M390.5,-164.61C369.69,-181.34 334.64,-206.95 300,-220.5 239.64,-244.11 165.5,-253.79 115.41,-257.75"/>
<polygon fill="#63b8ff" stroke="#63b8ff" points="392.74,-167.3 398.26,-158.25 388.3,-161.88 392.74,-167.3"/>
</a>
</g>
</g>
<!-- Node4 -->
<g id="Node000004" class="node">
<title>Node4</title>
<g id="a_Node000004"><a xlink:href="classRayTracer_1_1AmbientLight.html#a8dd2be46eadb8f46021064b6f182c359" target="_top" xlink:title="Ambient light never casts shadows, just returns color * intensity.">
<polygon fill="white" stroke="#666666" points="293.5,-211.5 157.5,-211.5 157.5,-181.5 293.5,-181.5 293.5,-211.5"/>
<text text-anchor="start" x="165.5" y="-199.5" font-family="Helvetica,sans-Serif" font-size="10.00">RayTracer::AmbientLight</text>
<text text-anchor="middle" x="225.5" y="-188.5" font-family="Helvetica,sans-Serif" font-size="10.00">::computeLight</text>
</a>
</g>
</g>
<!-- Node1&#45;&gt;Node4 -->
<g id="edge3_Node000001_Node000004" class="edge">
<title>Node1&#45;&gt;Node4</title>
<g id="a_edge3_Node000001_Node000004"><a xlink:title=" ">
<path fill="none" stroke="#63b8ff" d="M362.97,-160.7C338.93,-167.01 309.38,-174.76 283.93,-181.44"/>
<polygon fill="#63b8ff" stroke="#63b8ff" points="364.12,-164.02 372.91,-158.1 362.35,-157.25 364.12,-164.02"/>
</a>
</g>
</g>
<!-- Node5 -->
<g id="Node000005" class="node">
<title>Node5</title>
<g id="a_Node000005"><a xlink:href="classRayTracer_1_1DirectionalLight.html#a7170b3c9d9e2c2e697139f0dae68ab5b" target="_top" xlink:title="Compute light contribution, shadow ray cast in opposite direction.">
<polygon fill="white" stroke="#666666" points="299.5,-163.5 151.5,-163.5 151.5,-133.5 299.5,-133.5 299.5,-163.5"/>
<text text-anchor="start" x="159.5" y="-151.5" font-family="Helvetica,sans-Serif" font-size="10.00">RayTracer::DirectionalLight</text>
<text text-anchor="middle" x="225.5" y="-140.5" font-family="Helvetica,sans-Serif" font-size="10.00">::computeLight</text>
</a>
</g>
</g>
<!-- Node1&#45;&gt;Node5 -->
<g id="edge4_Node000001_Node000005" class="edge">
<title>Node1&#45;&gt;Node5</title>
<g id="a_edge4_Node000001_Node000005"><a xlink:title=" ">
<path fill="none" stroke="#63b8ff" d="M325.72,-148.5C317.03,-148.5 308.25,-148.5 299.69,-148.5"/>
<polygon fill="#63b8ff" stroke="#63b8ff" points="325.86,-152 335.86,-148.5 325.86,-145 325.86,-152"/>
</a>
</g>
</g>
<!-- Node6 -->
<g id="Node000006" class="node">
<title>Node6</title>
<g id="a_Node000006"><a xlink:href="classRayTracer_1_1PointLight.html#a4fdb35dd47674e655119b54c30b48b20" target="_top" xlink:title="Compute light contribution.">
<polygon fill="white" stroke="#666666" points="285,-115.5 166,-115.5 166,-85.5 285,-85.5 285,-115.5"/>
<text text-anchor="start" x="174" y="-103.5" font-family="Helvetica,sans-Serif" font-size="10.00">RayTracer::PointLight</text>
<text text-anchor="middle" x="225.5" y="-92.5" font-family="Helvetica,sans-Serif" font-size="10.00">::computeLight</text>
</a>
</g>
</g>
<!-- Node1&#45;&gt;Node6 -->
<g id="edge5_Node000001_Node000006" class="edge">
<title>Node1&#45;&gt;Node6</title>
<g id="a_edge5_Node000001_Node000006"><a xlink:title=" ">
<path fill="none" stroke="#63b8ff" d="M362.97,-136.3C338.93,-129.99 309.38,-122.24 283.93,-115.56"/>
<polygon fill="#63b8ff" stroke="#63b8ff" points="362.35,-139.75 372.91,-138.9 364.12,-132.98 362.35,-139.75"/>
</a>
</g>
</g>
<!-- Node7 -->
<g id="Node000007" class="node">
<title>Node7</title>
<g id="a_Node000007"><a xlink:href="classRayTracer_1_1Lambertian.html#ac5339d746050833c746e209d65d9a9da" target="_top" xlink:title="Evaluate the BRDF for a given pair of directions.">
<polygon fill="white" stroke="#666666" points="288.5,-67.5 162.5,-67.5 162.5,-37.5 288.5,-37.5 288.5,-67.5"/>
<text text-anchor="start" x="170.5" y="-55.5" font-family="Helvetica,sans-Serif" font-size="10.00">RayTracer::Lambertian</text>
<text text-anchor="middle" x="225.5" y="-44.5" font-family="Helvetica,sans-Serif" font-size="10.00">::evaluate</text>
</a>
</g>
</g>
<!-- Node1&#45;&gt;Node7 -->
<g id="edge6_Node000001_Node000007" class="edge">
<title>Node1&#45;&gt;Node7</title>
<g id="a_edge6_Node000001_Node000007"><a xlink:title=" ">
<path fill="none" stroke="#63b8ff" d="M389.09,-132.68C367.81,-116.77 333.01,-92.39 300,-76.5 293.23,-73.24 285.9,-70.26 278.59,-67.59"/>
<polygon fill="#63b8ff" stroke="#63b8ff" points="387.25,-135.68 397.34,-138.93 391.48,-130.1 387.25,-135.68"/>
</a>
</g>
</g>
<!-- Node8 -->
<g id="Node000008" class="node">
<title>Node8</title>
<g id="a_Node000008"><a xlink:href="classRayTracer_1_1Phong.html#a2526bd20be0b2cbb045250c4a6573b27" target="_top" xlink:title="Evaluate the BRDF for a given pair of directions.">
<polygon fill="white" stroke="#666666" points="300,-19 151,-19 151,0 300,0 300,-19"/>
<text text-anchor="middle" x="225.5" y="-7" font-family="Helvetica,sans-Serif" font-size="10.00">RayTracer::Phong::evaluate</text>
</a>
</g>
</g>
<!-- Node1&#45;&gt;Node8 -->
<g id="edge7_Node000001_Node000008" class="edge">
<title>Node1&#45;&gt;Node8</title>
<g id="a_edge7_Node000001_Node000008"><a xlink:title=" ">
<path fill="none" stroke="#63b8ff" d="M398.01,-130.33C380.28,-103.81 343.68,-54.81 300,-28.5 293.56,-24.62 286.35,-21.53 279.02,-19.07"/>
<polygon fill="#63b8ff" stroke="#63b8ff" points="395.27,-132.54 403.67,-139 401.14,-128.71 395.27,-132.54"/>
</a>
</g>
</g>
<!-- Node2&#45;&gt;Node3 -->
<g id="edge2_Node000002_Node000003" class="edge">
<title>Node2&#45;&gt;Node3</title>
<g id="a_edge2_Node000002_Node000003"><a xlink:title=" ">
<path fill="none" stroke="#63b8ff" d="M157.71,-273.65C143.62,-271.78 128.87,-269.83 115.19,-268.01"/>
<polygon fill="#63b8ff" stroke="#63b8ff" points="157.46,-277.15 167.84,-274.99 158.38,-270.21 157.46,-277.15"/>
</a>
</g>
</g>
</g>
</svg>
