<?xml version="1.0" encoding="UTF-8" standalone="no"?>
<!DOCTYPE svg PUBLIC "-//W3C//DTD SVG 1.1//EN"
 "http://www.w3.org/Graphics/SVG/1.1/DTD/svg11.dtd">
<!-- Generated by graphviz version 2.43.0 (0)
 -->
<!-- Title: Geometry::HitRecord Pages: 1 -->
<svg width="365pt" height="378pt"
 viewBox="0.00 0.00 364.50 378.00" xmlns="http://www.w3.org/2000/svg" xmlns:xlink="http://www.w3.org/1999/xlink">
<g id="graph0" class="graph" transform="scale(1 1) rotate(0) translate(4 374)">
<title>Geometry::HitRecord</title>
<!-- Node1 -->
<g id="Node000001" class="node">
<title>Node1</title>
<g id="a_Node000001"><a xlink:title=" ">
<polygon fill="#999999" stroke="transparent" points="232,-64 119,-64 119,0 232,0 232,-64"/>
<text text-anchor="start" x="124.5" y="-52" font-family="Helvetica,sans-Serif" font-size="10.00">Geometry::HitRecord</text>
<text text-anchor="start" x="131.5" y="-37" font-family="Helvetica,sans-Serif" font-size="10.00">+</text>
<text text-anchor="start" x="152.5" y="-37" font-family="Helvetica,sans-Serif" font-size="10.00">rayDistance</text>
<text text-anchor="start" x="131.5" y="-22" font-family="Helvetica,sans-Serif" font-size="10.00">+</text>
<text text-anchor="start" x="152.5" y="-22" font-family="Helvetica,sans-Serif" font-size="10.00">HitRecord()</text>
<text text-anchor="start" x="131.5" y="-7" font-family="Helvetica,sans-Serif" font-size="10.00">+</text>
<text text-anchor="start" x="152.5" y="-7" font-family="Helvetica,sans-Serif" font-size="10.00">HitRecord()</text>
<polygon fill="#666666" stroke="#666666" points="119.5,-47 119.5,-47 232.5,-47 232.5,-47 119.5,-47"/>
<polygon fill="#666666" stroke="#666666" points="119.5,-32 119.5,-32 150.5,-32 150.5,-32 119.5,-32"/>
<polygon fill="#666666" stroke="#666666" points="150.5,-32 150.5,-32 232.5,-32 232.5,-32 150.5,-32"/>
<polygon fill="none" stroke="#666666" points="119,0 119,-64 232,-64 232,0 119,0"/>
</a>
</g>
</g>
<!-- Node2 -->
<g id="Node000002" class="node">
<title>Node2</title>
<g id="a_Node000002"><a xlink:href="classGeometry_1_1Point3D.html" target="_top" xlink:title=" ">
<polygon fill="white" stroke="transparent" points="103,-325 0,-325 0,-156 103,-156 103,-325"/>
<text text-anchor="start" x="5.5" y="-312.5" font-family="Helvetica,sans-Serif" font-size="10.00">Geometry::Point3D</text>
<text text-anchor="start" x="8.5" y="-297.5" font-family="Helvetica,sans-Serif" font-size="10.00">+</text>
<text text-anchor="start" x="25.5" y="-297.5" font-family="Helvetica,sans-Serif" font-size="10.00">x</text>
<text text-anchor="start" x="8.5" y="-282.5" font-family="Helvetica,sans-Serif" font-size="10.00">+</text>
<text text-anchor="start" x="25.5" y="-282.5" font-family="Helvetica,sans-Serif" font-size="10.00">y</text>
<text text-anchor="start" x="8.5" y="-267.5" font-family="Helvetica,sans-Serif" font-size="10.00">+</text>
<text text-anchor="start" x="25.5" y="-267.5" font-family="Helvetica,sans-Serif" font-size="10.00">z</text>
<text text-anchor="start" x="8.5" y="-252.5" font-family="Helvetica,sans-Serif" font-size="10.00">+</text>
<text text-anchor="start" x="25.5" y="-252.5" font-family="Helvetica,sans-Serif" font-size="10.00">Point3D()</text>
<text text-anchor="start" x="8.5" y="-237.5" font-family="Helvetica,sans-Serif" font-size="10.00">+</text>
<text text-anchor="start" x="25.5" y="-237.5" font-family="Helvetica,sans-Serif" font-size="10.00">Point3D()</text>
<text text-anchor="start" x="8.5" y="-222.5" font-family="Helvetica,sans-Serif" font-size="10.00">+</text>
<text text-anchor="start" x="25.5" y="-222.5" font-family="Helvetica,sans-Serif" font-size="10.00">~Point3D()</text>
<text text-anchor="start" x="8.5" y="-207.5" font-family="Helvetica,sans-Serif" font-size="10.00">+</text>
<text text-anchor="start" x="25.5" y="-207.5" font-family="Helvetica,sans-Serif" font-size="10.00">operator+()</text>
<text text-anchor="start" x="8.5" y="-192.5" font-family="Helvetica,sans-Serif" font-size="10.00">+</text>
<text text-anchor="start" x="25.5" y="-192.5" font-family="Helvetica,sans-Serif" font-size="10.00">operator&#45;()</text>
<text text-anchor="start" x="8.5" y="-177.5" font-family="Helvetica,sans-Serif" font-size="10.00">+</text>
<text text-anchor="start" x="25.5" y="-177.5" font-family="Helvetica,sans-Serif" font-size="10.00">operator+=()</text>
<text text-anchor="start" x="8.5" y="-162.5" font-family="Helvetica,sans-Serif" font-size="10.00">+</text>
<text text-anchor="start" x="25.5" y="-162.5" font-family="Helvetica,sans-Serif" font-size="10.00">operator&#45;()</text>
<polygon fill="#666666" stroke="#666666" points="0.5,-307.5 0.5,-307.5 103.5,-307.5 103.5,-307.5 0.5,-307.5"/>
<polygon fill="#666666" stroke="#666666" points="0.5,-262.5 0.5,-262.5 23.5,-262.5 23.5,-262.5 0.5,-262.5"/>
<polygon fill="#666666" stroke="#666666" points="23.5,-262.5 23.5,-262.5 103.5,-262.5 103.5,-262.5 23.5,-262.5"/>
<polygon fill="none" stroke="#666666" points="0,-156 0,-325 103,-325 103,-156 0,-156"/>
</a>
</g>
</g>
<!-- Node2&#45;&gt;Node1 -->
<g id="edge1_Node000001_Node000002" class="edge">
<title>Node2&#45;&gt;Node1</title>
<g id="a_edge1_Node000001_Node000002"><a xlink:title=" ">
<path fill="none" stroke="#63b8ff" d="M87.14,-155.74C94.58,-140.52 102.83,-125.03 111.5,-111 120.15,-97.01 124.11,-94.75 134.5,-82 136.81,-79.17 139.2,-76.25 141.62,-73.32"/>
<polygon fill="none" stroke="#63b8ff" points="141.69,-73.24 142.44,-66.07 149.35,-64 148.6,-71.18 141.69,-73.24"/>
</a>
</g>
<text text-anchor="middle" x="153" y="-85" font-family="Helvetica,sans-Serif" font-size="10.00" fill="grey"> +point</text>
</g>
<!-- Node3 -->
<g id="Node000003" class="node">
<title>Node3</title>
<g id="a_Node000003"><a xlink:href="classGeometry_1_1Vector3D.html" target="_top" xlink:title=" ">
<polygon fill="white" stroke="transparent" points="230,-370 121,-370 121,-111 230,-111 230,-370"/>
<text text-anchor="start" x="126.5" y="-357.5" font-family="Helvetica,sans-Serif" font-size="10.00">Geometry::Vector3D</text>
<text text-anchor="start" x="131" y="-342.5" font-family="Helvetica,sans-Serif" font-size="10.00">+</text>
<text text-anchor="start" x="149.5" y="-342.5" font-family="Helvetica,sans-Serif" font-size="10.00">x</text>
<text text-anchor="start" x="131" y="-327.5" font-family="Helvetica,sans-Serif" font-size="10.00">+</text>
<text text-anchor="start" x="149.5" y="-327.5" font-family="Helvetica,sans-Serif" font-size="10.00">y</text>
<text text-anchor="start" x="131" y="-312.5" font-family="Helvetica,sans-Serif" font-size="10.00">+</text>
<text text-anchor="start" x="149.5" y="-312.5" font-family="Helvetica,sans-Serif" font-size="10.00">z</text>
<text text-anchor="start" x="131" y="-297.5" font-family="Helvetica,sans-Serif" font-size="10.00">+</text>
<text text-anchor="start" x="149.5" y="-297.5" font-family="Helvetica,sans-Serif" font-size="10.00">Vector3D()</text>
<text text-anchor="start" x="131" y="-282.5" font-family="Helvetica,sans-Serif" font-size="10.00">+</text>
<text text-anchor="start" x="149.5" y="-282.5" font-family="Helvetica,sans-Serif" font-size="10.00">Vector3D()</text>
<text text-anchor="start" x="131" y="-267.5" font-family="Helvetica,sans-Serif" font-size="10.00">+</text>
<text text-anchor="start" x="149.5" y="-267.5" font-family="Helvetica,sans-Serif" font-size="10.00">~Vector3D()</text>
<text text-anchor="start" x="131" y="-252.5" font-family="Helvetica,sans-Serif" font-size="10.00">+</text>
<text text-anchor="start" x="149.5" y="-252.5" font-family="Helvetica,sans-Serif" font-size="10.00">length()</text>
<text text-anchor="start" x="131" y="-237.5" font-family="Helvetica,sans-Serif" font-size="10.00">+</text>
<text text-anchor="start" x="149.5" y="-237.5" font-family="Helvetica,sans-Serif" font-size="10.00">length()</text>
<text text-anchor="start" x="131" y="-222.5" font-family="Helvetica,sans-Serif" font-size="10.00">+</text>
<text text-anchor="start" x="149.5" y="-222.5" font-family="Helvetica,sans-Serif" font-size="10.00">dot()</text>
<text text-anchor="start" x="131" y="-207.5" font-family="Helvetica,sans-Serif" font-size="10.00">+</text>
<text text-anchor="start" x="149.5" y="-207.5" font-family="Helvetica,sans-Serif" font-size="10.00">normalize()</text>
<text text-anchor="start" x="131" y="-192.5" font-family="Helvetica,sans-Serif" font-size="10.00">+</text>
<text text-anchor="start" x="149.5" y="-192.5" font-family="Helvetica,sans-Serif" font-size="10.00">operator+()</text>
<text text-anchor="start" x="131" y="-177.5" font-family="Helvetica,sans-Serif" font-size="10.00">+</text>
<text text-anchor="start" x="149.5" y="-177.5" font-family="Helvetica,sans-Serif" font-size="10.00">operator+=()</text>
<text text-anchor="start" x="131" y="-162.5" font-family="Helvetica,sans-Serif" font-size="10.00">+</text>
<text text-anchor="start" x="149.5" y="-162.5" font-family="Helvetica,sans-Serif" font-size="10.00">operator&#45;()</text>
<text text-anchor="start" x="149.5" y="-147.5" font-family="Helvetica,sans-Serif" font-size="10.00">and 9 more...</text>
<text text-anchor="start" x="131" y="-132.5" font-family="Helvetica,sans-Serif" font-size="10.00">+</text>
<text text-anchor="start" x="149.5" y="-132.5" font-family="Helvetica,sans-Serif" font-size="10.00">dot()</text>
<text text-anchor="start" x="131" y="-117.5" font-family="Helvetica,sans-Serif" font-size="10.00">+</text>
<text text-anchor="start" x="149.5" y="-117.5" font-family="Helvetica,sans-Serif" font-size="10.00">cross()</text>
<polygon fill="#666666" stroke="#666666" points="121.5,-352.5 121.5,-352.5 230.5,-352.5 230.5,-352.5 121.5,-352.5"/>
<polygon fill="#666666" stroke="#666666" points="121.5,-307.5 121.5,-307.5 147.5,-307.5 147.5,-307.5 121.5,-307.5"/>
<polygon fill="#666666" stroke="#666666" points="147.5,-307.5 147.5,-307.5 230.5,-307.5 230.5,-307.5 147.5,-307.5"/>
<polygon fill="none" stroke="#666666" points="121,-111 121,-370 230,-370 230,-111 121,-111"/>
</a>
</g>
</g>
<!-- Node3&#45;&gt;Node1 -->
<g id="edge2_Node000001_Node000003" class="edge">
<title>Node3&#45;&gt;Node1</title>
<g id="a_edge2_Node000001_Node000003"><a xlink:title=" ">
<path fill="none" stroke="#63b8ff" d="M175.5,-110.77C175.5,-98.57 175.5,-86.86 175.5,-76.41"/>
<polygon fill="none" stroke="#63b8ff" points="175.5,-76.33 171.5,-70.33 175.5,-64.33 179.5,-70.33 175.5,-76.33"/>
</a>
</g>
<text text-anchor="middle" x="198.5" y="-85" font-family="Helvetica,sans-Serif" font-size="10.00" fill="grey"> +normal</text>
</g>
<!-- Node4 -->
<g id="Node000004" class="node">
<title>Node4</title>
<g id="a_Node000004"><a xlink:href="classRayTracer_1_1IMaterial.html" target="_top" xlink:title=" ">
<polygon fill="white" stroke="transparent" points="356.5,-272.5 248.5,-272.5 248.5,-208.5 356.5,-208.5 356.5,-272.5"/>
<text text-anchor="start" x="253.5" y="-260.5" font-family="Helvetica,sans-Serif" font-size="10.00">RayTracer::IMaterial</text>
<text text-anchor="start" x="300.5" y="-245.5" font-family="Helvetica,sans-Serif" font-size="10.00"> </text>
<text text-anchor="start" x="255" y="-230.5" font-family="Helvetica,sans-Serif" font-size="10.00">+</text>
<text text-anchor="start" x="270.5" y="-230.5" font-family="Helvetica,sans-Serif" font-size="10.00">computeColor()</text>
<text text-anchor="start" x="255" y="-215.5" font-family="Helvetica,sans-Serif" font-size="10.00">+</text>
<text text-anchor="start" x="270.5" y="-215.5" font-family="Helvetica,sans-Serif" font-size="10.00">~IMaterial()</text>
<polygon fill="#666666" stroke="#666666" points="248.5,-255.5 248.5,-255.5 356.5,-255.5 356.5,-255.5 248.5,-255.5"/>
<polygon fill="#666666" stroke="#666666" points="248.5,-240.5 248.5,-240.5 356.5,-240.5 356.5,-240.5 248.5,-240.5"/>
<polygon fill="none" stroke="#666666" points="248.5,-208.5 248.5,-272.5 356.5,-272.5 356.5,-208.5 248.5,-208.5"/>
</a>
</g>
</g>
<!-- Node4&#45;&gt;Node1 -->
<g id="edge3_Node000001_Node000004" class="edge">
<title>Node4&#45;&gt;Node1</title>
<g id="a_edge3_Node000001_Node000004"><a xlink:title=" ">
<path fill="none" stroke="#63b8ff" d="M291.01,-208.48C277.95,-175.41 254.62,-122.35 225.5,-82 223.36,-79.04 221.04,-76.1 218.6,-73.22"/>
<polygon fill="none" stroke="#63b8ff" points="218.55,-73.16 211.57,-71.38 210.53,-64.24 217.51,-66.03 218.55,-73.16"/>
</a>
</g>
<text text-anchor="middle" x="257" y="-85" font-family="Helvetica,sans-Serif" font-size="10.00" fill="grey"> +material</text>
</g>
</g>
</svg>
