<?xml version="1.0" encoding="UTF-8" standalone="no"?>
<!DOCTYPE svg PUBLIC "-//W3C//DTD SVG 1.1//EN"
 "http://www.w3.org/Graphics/SVG/1.1/DTD/svg11.dtd">
<!-- Generated by graphviz version 2.43.0 (0)
 -->
<!-- Title: RayTracer::Color::Color Pages: 1 -->
<svg width="493pt" height="220pt"
 viewBox="0.00 0.00 493.00 219.50" xmlns="http://www.w3.org/2000/svg" xmlns:xlink="http://www.w3.org/1999/xlink">

<svg id="main" version="1.1" xmlns="http://www.w3.org/2000/svg" xmlns:xlink="http://www.w3.org/1999/xlink" xml:space="preserve" onload="init(evt)">
<style type="text/css"><![CDATA[
.node, .edge {opacity: 0.7;}
.node.selected, .edge.selected {opacity: 1;}
.edge:hover path { stroke: red; }
.edge:hover polygon { stroke: red; fill: red; }
]]></style>
<script type="application/ecmascript" xlink:href="svg.min.js"/>
<svg id="graph" class="graph">
<g id="graph0" class="graph" transform="scale(1 1) rotate(0) translate(4 215.5)">
<title>RayTracer::Color::Color</title>
<!-- Node1 -->
<g id="Node000001" class="node">
<title>Node1</title>
<g id="a_Node000001"><a xlink:title=" ">
<polygon fill="#999999" stroke="#666666" points="485,-96.5 357,-96.5 357,-77.5 485,-77.5 485,-96.5"/>
<text text-anchor="middle" x="421" y="-84.5" font-family="Helvetica,sans-Serif" font-size="10.00">RayTracer::Color::Color</text>
</a>
</g>
</g>
<!-- Node2 -->
<g id="Node000002" class="node">
<title>Node2</title>
<g id="a_Node000002"><a xlink:href="classRayTracer_1_1AMaterial.html#ad17852e0877f59841ee734e96def74d9" target="_top" xlink:title=" ">
<polygon fill="white" stroke="#666666" points="306,-174 188,-174 188,-144 306,-144 306,-174"/>
<text text-anchor="start" x="196" y="-162" font-family="Helvetica,sans-Serif" font-size="10.00">RayTracer::AMaterial</text>
<text text-anchor="middle" x="247" y="-151" font-family="Helvetica,sans-Serif" font-size="10.00">::AMaterial</text>
</a>
</g>
</g>
<!-- Node1&#45;&gt;Node2 -->
<g id="edge1_Node000001_Node000002" class="edge">
<title>Node1&#45;&gt;Node2</title>
<g id="a_edge1_Node000001_Node000002"><a xlink:title=" ">
<path fill="none" stroke="#63b8ff" d="M393.1,-101.25C373.44,-111.37 345.95,-124.9 321,-135 313.33,-138.1 305.1,-141.11 297.02,-143.89"/>
<polygon fill="#63b8ff" stroke="#63b8ff" points="394.82,-104.3 402.08,-96.59 391.6,-98.09 394.82,-104.3"/>
</a>
</g>
</g>
<!-- Node6 -->
<g id="Node000006" class="node">
<title>Node6</title>
<g id="a_Node000006"><a xlink:href="classRayTracer_1_1AmbientLight.html#a5b12101e2c3a0fa405dddc627d57e344" target="_top" xlink:title=" ">
<polygon fill="white" stroke="#666666" points="315,-126 179,-126 179,-96 315,-96 315,-126"/>
<text text-anchor="start" x="187" y="-114" font-family="Helvetica,sans-Serif" font-size="10.00">RayTracer::AmbientLight</text>
<text text-anchor="middle" x="247" y="-103" font-family="Helvetica,sans-Serif" font-size="10.00">::AmbientLight</text>
</a>
</g>
</g>
<!-- Node1&#45;&gt;Node6 -->
<g id="edge5_Node000001_Node000006" class="edge">
<title>Node1&#45;&gt;Node6</title>
<g id="a_edge5_Node000001_Node000006"><a xlink:title=" ">
<path fill="none" stroke="#63b8ff" d="M346.91,-97.2C336.36,-98.67 325.54,-100.18 315.11,-101.64"/>
<polygon fill="#63b8ff" stroke="#63b8ff" points="347.51,-100.65 356.93,-95.8 346.54,-93.72 347.51,-100.65"/>
</a>
</g>
</g>
<!-- Node7 -->
<g id="Node000007" class="node">
<title>Node7</title>
<g id="a_Node000007"><a xlink:href="classRayTracer_1_1DirectionalLight.html#a682bc429176da9bb6b1694703b44ba0e" target="_top" xlink:title=" ">
<polygon fill="white" stroke="#666666" points="321,-78 173,-78 173,-48 321,-48 321,-78"/>
<text text-anchor="start" x="181" y="-66" font-family="Helvetica,sans-Serif" font-size="10.00">RayTracer::DirectionalLight</text>
<text text-anchor="middle" x="247" y="-55" font-family="Helvetica,sans-Serif" font-size="10.00">::DirectionalLight</text>
</a>
</g>
</g>
<!-- Node1&#45;&gt;Node7 -->
<g id="edge6_Node000001_Node000007" class="edge">
<title>Node1&#45;&gt;Node7</title>
<g id="a_edge6_Node000001_Node000007"><a xlink:title=" ">
<path fill="none" stroke="#63b8ff" d="M347.02,-76.82C338.49,-75.63 329.79,-74.41 321.26,-73.22"/>
<polygon fill="#63b8ff" stroke="#63b8ff" points="346.54,-80.28 356.93,-78.2 347.51,-73.35 346.54,-80.28"/>
</a>
</g>
</g>
<!-- Node8 -->
<g id="Node000008" class="node">
<title>Node8</title>
<g id="a_Node000008"><a xlink:href="classRayTracer_1_1PointLight.html#abb0bed47008dfe0693bf7eace117c86d" target="_top" xlink:title=" ">
<polygon fill="white" stroke="#666666" points="306.5,-30 187.5,-30 187.5,0 306.5,0 306.5,-30"/>
<text text-anchor="start" x="195.5" y="-18" font-family="Helvetica,sans-Serif" font-size="10.00">RayTracer::PointLight</text>
<text text-anchor="middle" x="247" y="-7" font-family="Helvetica,sans-Serif" font-size="10.00">::PointLight</text>
</a>
</g>
</g>
<!-- Node1&#45;&gt;Node8 -->
<g id="edge7_Node000001_Node000008" class="edge">
<title>Node1&#45;&gt;Node8</title>
<g id="a_edge7_Node000001_Node000008"><a xlink:title=" ">
<path fill="none" stroke="#63b8ff" d="M393.1,-72.75C373.44,-62.63 345.95,-49.1 321,-39 313.33,-35.9 305.1,-32.89 297.02,-30.11"/>
<polygon fill="#63b8ff" stroke="#63b8ff" points="391.6,-75.91 402.08,-77.41 394.82,-69.7 391.6,-75.91"/>
</a>
</g>
</g>
<!-- Node3 -->
<g id="Node000003" class="node">
<title>Node3</title>
<g id="a_Node000003"><a xlink:href="classRayTracer_1_1Glass.html#a827a2ec2242a30350a976f193b157a90" target="_top" xlink:title=" ">
<polygon fill="white" stroke="#666666" points="134,-211.5 3,-211.5 3,-192.5 134,-192.5 134,-211.5"/>
<text text-anchor="middle" x="68.5" y="-199.5" font-family="Helvetica,sans-Serif" font-size="10.00">RayTracer::Glass::Glass</text>
</a>
</g>
</g>
<!-- Node2&#45;&gt;Node3 -->
<g id="edge2_Node000002_Node000003" class="edge">
<title>Node2&#45;&gt;Node3</title>
<g id="a_edge2_Node000002_Node000003"><a xlink:title=" ">
<path fill="none" stroke="#63b8ff" d="M177.8,-175.61C154.33,-181.33 128.86,-187.54 108.52,-192.49"/>
<polygon fill="#63b8ff" stroke="#63b8ff" points="178.83,-178.97 187.72,-173.2 177.17,-172.17 178.83,-178.97"/>
</a>
</g>
</g>
<!-- Node4 -->
<g id="Node000004" class="node">
<title>Node4</title>
<g id="a_Node000004"><a xlink:href="classRayTracer_1_1Lambertian.html#a9d3f150cb0d7a06f1f7487be4676f258" target="_top" xlink:title=" ">
<polygon fill="white" stroke="#666666" points="131.5,-174 5.5,-174 5.5,-144 131.5,-144 131.5,-174"/>
<text text-anchor="start" x="13.5" y="-162" font-family="Helvetica,sans-Serif" font-size="10.00">RayTracer::Lambertian</text>
<text text-anchor="middle" x="68.5" y="-151" font-family="Helvetica,sans-Serif" font-size="10.00">::Lambertian</text>
</a>
</g>
</g>
<!-- Node2&#45;&gt;Node4 -->
<g id="edge3_Node000002_Node000004" class="edge">
<title>Node2&#45;&gt;Node4</title>
<g id="a_edge3_Node000002_Node000004"><a xlink:title=" ">
<path fill="none" stroke="#63b8ff" d="M177.43,-159C162.36,-159 146.47,-159 131.66,-159"/>
<polygon fill="#63b8ff" stroke="#63b8ff" points="177.72,-162.5 187.72,-159 177.72,-155.5 177.72,-162.5"/>
</a>
</g>
</g>
<!-- Node5 -->
<g id="Node000005" class="node">
<title>Node5</title>
<g id="a_Node000005"><a xlink:href="classRayTracer_1_1Phong.html#aed034ba959eedee570e3572385c8ae09" target="_top" xlink:title=" ">
<polygon fill="white" stroke="#666666" points="137,-125.5 0,-125.5 0,-106.5 137,-106.5 137,-125.5"/>
<text text-anchor="middle" x="68.5" y="-113.5" font-family="Helvetica,sans-Serif" font-size="10.00">RayTracer::Phong::Phong</text>
</a>
</g>
</g>
<!-- Node2&#45;&gt;Node5 -->
<g id="edge4_Node000002_Node000005" class="edge">
<title>Node2&#45;&gt;Node5</title>
<g id="a_edge4_Node000002_Node000005"><a xlink:title=" ">
<path fill="none" stroke="#63b8ff" d="M177.8,-142.39C154.33,-136.67 128.86,-130.46 108.52,-125.51"/>
<polygon fill="#63b8ff" stroke="#63b8ff" points="177.17,-145.83 187.72,-144.8 178.83,-139.03 177.17,-145.83"/>
</a>
</g>
</g>
</g>
</svg>
</svg>

<style type='text/css'>
<![CDATA[
[data-mouse-over-selected='false'] { opacity: 0.7; }
[data-mouse-over-selected='true']  { opacity: 1.0; }
]]>
</style>
<script type="application/ecmascript"><![CDATA[
document.addEventListener('DOMContentLoaded', (event) => {
  highlightEdges();
  highlightAdjacentNodes();
});
]]></script>
</svg>
