<?xml version="1.0" encoding="UTF-8" standalone="no"?>
<!DOCTYPE svg PUBLIC "-//W3C//DTD SVG 1.1//EN"
 "http://www.w3.org/Graphics/SVG/1.1/DTD/svg11.dtd">
<!-- Generated by graphviz version 2.43.0 (0)
 -->
<!-- Title: RayTracer::BVH::Record Pages: 1 -->
<svg width="206pt" height="470pt"
 viewBox="0.00 0.00 205.50 470.00" xmlns="http://www.w3.org/2000/svg" xmlns:xlink="http://www.w3.org/1999/xlink">
<g id="graph0" class="graph" transform="scale(1 1) rotate(0) translate(4 466)">
<title>RayTracer::BVH::Record</title>
<!-- Node1 -->
<g id="Node000001" class="node">
<title>Node1</title>
<g id="a_Node000001"><a xlink:title=" ">
<polygon fill="#999999" stroke="transparent" points="135,-49 10,-49 10,0 135,0 135,-49"/>
<text text-anchor="start" x="15.5" y="-36.5" font-family="Helvetica,sans-Serif" font-size="10.00">RayTracer::BVH::Record</text>
<text text-anchor="start" x="29" y="-21.5" font-family="Helvetica,sans-Serif" font-size="10.00">+</text>
<text text-anchor="start" x="56.5" y="-21.5" font-family="Helvetica,sans-Serif" font-size="10.00">primitive</text>
<text text-anchor="start" x="71" y="-6.5" font-family="Helvetica,sans-Serif" font-size="10.00"> </text>
<polygon fill="#666666" stroke="#666666" points="10.5,-31.5 10.5,-31.5 135.5,-31.5 135.5,-31.5 10.5,-31.5"/>
<polygon fill="#666666" stroke="#666666" points="10.5,-16.5 10.5,-16.5 54.5,-16.5 54.5,-16.5 10.5,-16.5"/>
<polygon fill="#666666" stroke="#666666" points="54.5,-16.5 54.5,-16.5 135.5,-16.5 135.5,-16.5 54.5,-16.5"/>
<polygon fill="none" stroke="#666666" points="10,0 10,-49 135,-49 135,0 10,0"/>
</a>
</g>
</g>
<!-- Node2 -->
<g id="Node000002" class="node">
<title>Node2</title>
<g id="a_Node000002"><a xlink:href="classGeometry_1_1AABB.html" target="_top" xlink:title=" ">
<polygon fill="white" stroke="transparent" points="197.5,-220 105.5,-220 105.5,-96 197.5,-96 197.5,-220"/>
<text text-anchor="start" x="110.5" y="-208" font-family="Helvetica,sans-Serif" font-size="10.00">Geometry::AABB</text>
<text text-anchor="start" x="149.5" y="-193" font-family="Helvetica,sans-Serif" font-size="10.00"> </text>
<text text-anchor="start" x="110.5" y="-178" font-family="Helvetica,sans-Serif" font-size="10.00">+</text>
<text text-anchor="start" x="124.5" y="-178" font-family="Helvetica,sans-Serif" font-size="10.00">AABB()</text>
<text text-anchor="start" x="110.5" y="-163" font-family="Helvetica,sans-Serif" font-size="10.00">+</text>
<text text-anchor="start" x="124.5" y="-163" font-family="Helvetica,sans-Serif" font-size="10.00">AABB()</text>
<text text-anchor="start" x="110.5" y="-148" font-family="Helvetica,sans-Serif" font-size="10.00">+</text>
<text text-anchor="start" x="124.5" y="-148" font-family="Helvetica,sans-Serif" font-size="10.00">centroid()</text>
<text text-anchor="start" x="110.5" y="-133" font-family="Helvetica,sans-Serif" font-size="10.00">+</text>
<text text-anchor="start" x="124.5" y="-133" font-family="Helvetica,sans-Serif" font-size="10.00">surfaceArea()</text>
<text text-anchor="start" x="110.5" y="-118" font-family="Helvetica,sans-Serif" font-size="10.00">+</text>
<text text-anchor="start" x="124.5" y="-118" font-family="Helvetica,sans-Serif" font-size="10.00">hit()</text>
<text text-anchor="start" x="110.5" y="-103" font-family="Helvetica,sans-Serif" font-size="10.00">+</text>
<text text-anchor="start" x="124.5" y="-103" font-family="Helvetica,sans-Serif" font-size="10.00">unite()</text>
<polygon fill="#666666" stroke="#666666" points="105.5,-203 105.5,-203 197.5,-203 197.5,-203 105.5,-203"/>
<polygon fill="#666666" stroke="#666666" points="105.5,-188 105.5,-188 197.5,-188 197.5,-188 105.5,-188"/>
<polygon fill="none" stroke="#666666" points="105.5,-96 105.5,-220 197.5,-220 197.5,-96 105.5,-96"/>
</a>
</g>
</g>
<!-- Node2&#45;&gt;Node1 -->
<g id="edge1_Node000001_Node000002" class="edge">
<title>Node2&#45;&gt;Node1</title>
<g id="a_edge1_Node000001_Node000002"><a xlink:title=" ">
<path fill="none" stroke="#63b8ff" d="M114.78,-95.87C107.28,-83.39 99.65,-70.7 92.98,-59.58"/>
<polygon fill="none" stroke="#63b8ff" points="92.84,-59.35 86.32,-56.27 86.66,-49.07 93.18,-52.15 92.84,-59.35"/>
</a>
</g>
<text text-anchor="middle" x="126" y="-70" font-family="Helvetica,sans-Serif" font-size="10.00" fill="grey"> +bounds</text>
</g>
<!-- Node3 -->
<g id="Node000003" class="node">
<title>Node3</title>
<g id="a_Node000003"><a xlink:href="classGeometry_1_1Point3D.html" target="_top" xlink:title="Represents a 3D point in space.">
<polygon fill="white" stroke="transparent" points="103,-462 0,-462 0,-278 103,-278 103,-462"/>
<text text-anchor="start" x="5.5" y="-450" font-family="Helvetica,sans-Serif" font-size="10.00">Geometry::Point3D</text>
<text text-anchor="start" x="8.5" y="-435" font-family="Helvetica,sans-Serif" font-size="10.00">+</text>
<text text-anchor="start" x="25.5" y="-435" font-family="Helvetica,sans-Serif" font-size="10.00">x</text>
<text text-anchor="start" x="8.5" y="-420" font-family="Helvetica,sans-Serif" font-size="10.00">+</text>
<text text-anchor="start" x="25.5" y="-420" font-family="Helvetica,sans-Serif" font-size="10.00">y</text>
<text text-anchor="start" x="8.5" y="-405" font-family="Helvetica,sans-Serif" font-size="10.00">+</text>
<text text-anchor="start" x="25.5" y="-405" font-family="Helvetica,sans-Serif" font-size="10.00">z</text>
<text text-anchor="start" x="8.5" y="-390" font-family="Helvetica,sans-Serif" font-size="10.00">+</text>
<text text-anchor="start" x="25.5" y="-390" font-family="Helvetica,sans-Serif" font-size="10.00">Point3D()</text>
<text text-anchor="start" x="8.5" y="-375" font-family="Helvetica,sans-Serif" font-size="10.00">+</text>
<text text-anchor="start" x="25.5" y="-375" font-family="Helvetica,sans-Serif" font-size="10.00">Point3D()</text>
<text text-anchor="start" x="8.5" y="-360" font-family="Helvetica,sans-Serif" font-size="10.00">+</text>
<text text-anchor="start" x="25.5" y="-360" font-family="Helvetica,sans-Serif" font-size="10.00">~Point3D()</text>
<text text-anchor="start" x="8.5" y="-345" font-family="Helvetica,sans-Serif" font-size="10.00">+</text>
<text text-anchor="start" x="25.5" y="-345" font-family="Helvetica,sans-Serif" font-size="10.00">operator+()</text>
<text text-anchor="start" x="8.5" y="-330" font-family="Helvetica,sans-Serif" font-size="10.00">+</text>
<text text-anchor="start" x="25.5" y="-330" font-family="Helvetica,sans-Serif" font-size="10.00">operator&#45;()</text>
<text text-anchor="start" x="8.5" y="-315" font-family="Helvetica,sans-Serif" font-size="10.00">+</text>
<text text-anchor="start" x="25.5" y="-315" font-family="Helvetica,sans-Serif" font-size="10.00">operator+=()</text>
<text text-anchor="start" x="8.5" y="-300" font-family="Helvetica,sans-Serif" font-size="10.00">+</text>
<text text-anchor="start" x="25.5" y="-300" font-family="Helvetica,sans-Serif" font-size="10.00">operator&#45;()</text>
<text text-anchor="start" x="8.5" y="-285" font-family="Helvetica,sans-Serif" font-size="10.00">+</text>
<text text-anchor="start" x="25.5" y="-285" font-family="Helvetica,sans-Serif" font-size="10.00">operator=()</text>
<polygon fill="#666666" stroke="#666666" points="0.5,-445 0.5,-445 103.5,-445 103.5,-445 0.5,-445"/>
<polygon fill="#666666" stroke="#666666" points="0.5,-400 0.5,-400 23.5,-400 23.5,-400 0.5,-400"/>
<polygon fill="#666666" stroke="#666666" points="23.5,-400 23.5,-400 103.5,-400 103.5,-400 23.5,-400"/>
<polygon fill="none" stroke="#666666" points="0,-278 0,-462 103,-462 103,-278 0,-278"/>
</a>
</g>
</g>
<!-- Node3&#45;&gt;Node1 -->
<g id="edge3_Node000001_Node000003" class="edge">
<title>Node3&#45;&gt;Node1</title>
<g id="a_edge3_Node000001_Node000003"><a xlink:title=" ">
<path fill="none" stroke="#63b8ff" d="M39.5,-277.83C34.86,-224.39 33.05,-155.84 44.5,-96 46.8,-84 51.1,-71.44 55.67,-60.3"/>
<polygon fill="none" stroke="#63b8ff" points="55.67,-60.3 54.38,-53.2 60.44,-49.29 61.72,-56.38 55.67,-60.3"/>
</a>
</g>
<text text-anchor="middle" x="70.5" y="-155.5" font-family="Helvetica,sans-Serif" font-size="10.00" fill="grey"> +centroid</text>
</g>
<!-- Node3&#45;&gt;Node2 -->
<g id="edge2_Node000002_Node000003" class="edge">
<title>Node3&#45;&gt;Node2</title>
<g id="a_edge2_Node000002_Node000003"><a xlink:title=" ">
<path fill="none" stroke="#63b8ff" d="M94.93,-277.81C102.32,-262.28 109.91,-246.35 117.03,-231.39"/>
<polygon fill="none" stroke="#63b8ff" points="117.21,-231.01 116.18,-223.87 122.37,-220.17 123.4,-227.31 117.21,-231.01"/>
</a>
</g>
<text text-anchor="middle" x="143.5" y="-252" font-family="Helvetica,sans-Serif" font-size="10.00" fill="grey"> +maximum</text>
<text text-anchor="middle" x="143.5" y="-241" font-family="Helvetica,sans-Serif" font-size="10.00" fill="grey">+minimum</text>
</g>
</g>
</svg>
