<?xml version="1.0" encoding="UTF-8" standalone="no"?>
<!DOCTYPE svg PUBLIC "-//W3C//DTD SVG 1.1//EN"
 "http://www.w3.org/Graphics/SVG/1.1/DTD/svg11.dtd">
<!-- Generated by graphviz version 2.43.0 (0)
 -->
<!-- Title: RayTracer::Color::Color Pages: 1 -->
<svg width="320pt" height="182pt"
 viewBox="0.00 0.00 320.00 182.00" xmlns="http://www.w3.org/2000/svg" xmlns:xlink="http://www.w3.org/1999/xlink">
<g id="graph0" class="graph" transform="scale(1 1) rotate(0) translate(4 178)">
<title>RayTracer::Color::Color</title>
<!-- Node1 -->
<g id="Node000001" class="node">
<title>Node1</title>
<g id="a_Node000001"><a xlink:title=" ">
<polygon fill="#999999" stroke="#666666" points="312,-96.5 184,-96.5 184,-77.5 312,-77.5 312,-96.5"/>
<text text-anchor="middle" x="248" y="-84.5" font-family="Helvetica,sans-Serif" font-size="10.00">RayTracer::Color::Color</text>
</a>
</g>
</g>
<!-- Node2 -->
<g id="Node000002" class="node">
<title>Node2</title>
<g id="a_Node000002"><a xlink:href="classRayTracer_1_1AmbientLight.html#a5b12101e2c3a0fa405dddc627d57e344" target="_top" xlink:title=" ">
<polygon fill="white" stroke="#666666" points="142,-174 6,-174 6,-144 142,-144 142,-174"/>
<text text-anchor="start" x="14" y="-162" font-family="Helvetica,sans-Serif" font-size="10.00">RayTracer::AmbientLight</text>
<text text-anchor="middle" x="74" y="-151" font-family="Helvetica,sans-Serif" font-size="10.00">::AmbientLight</text>
</a>
</g>
</g>
<!-- Node1&#45;&gt;Node2 -->
<g id="edge1_Node000001_Node000002" class="edge">
<title>Node1&#45;&gt;Node2</title>
<g id="a_edge1_Node000001_Node000002"><a xlink:title=" ">
<path fill="none" stroke="#63b8ff" d="M220.1,-101.25C200.44,-111.37 172.95,-124.9 148,-135 140.33,-138.1 132.1,-141.11 124.02,-143.89"/>
<polygon fill="#63b8ff" stroke="#63b8ff" points="221.82,-104.3 229.08,-96.59 218.6,-98.09 221.82,-104.3"/>
</a>
</g>
</g>
<!-- Node3 -->
<g id="Node000003" class="node">
<title>Node3</title>
<g id="a_Node000003"><a xlink:href="classRayTracer_1_1DirectionalLight.html#a682bc429176da9bb6b1694703b44ba0e" target="_top" xlink:title=" ">
<polygon fill="white" stroke="#666666" points="148,-126 0,-126 0,-96 148,-96 148,-126"/>
<text text-anchor="start" x="8" y="-114" font-family="Helvetica,sans-Serif" font-size="10.00">RayTracer::DirectionalLight</text>
<text text-anchor="middle" x="74" y="-103" font-family="Helvetica,sans-Serif" font-size="10.00">::DirectionalLight</text>
</a>
</g>
</g>
<!-- Node1&#45;&gt;Node3 -->
<g id="edge2_Node000001_Node000003" class="edge">
<title>Node1&#45;&gt;Node3</title>
<g id="a_edge2_Node000001_Node000003"><a xlink:title=" ">
<path fill="none" stroke="#63b8ff" d="M174.02,-97.18C165.49,-98.37 156.79,-99.59 148.26,-100.78"/>
<polygon fill="#63b8ff" stroke="#63b8ff" points="174.51,-100.65 183.93,-95.8 173.54,-93.72 174.51,-100.65"/>
</a>
</g>
</g>
<!-- Node4 -->
<g id="Node000004" class="node">
<title>Node4</title>
<g id="a_Node000004"><a xlink:href="classRayTracer_1_1Lambertian.html#a9d3f150cb0d7a06f1f7487be4676f258" target="_top" xlink:title=" ">
<polygon fill="white" stroke="#666666" points="137,-78 11,-78 11,-48 137,-48 137,-78"/>
<text text-anchor="start" x="19" y="-66" font-family="Helvetica,sans-Serif" font-size="10.00">RayTracer::Lambertian</text>
<text text-anchor="middle" x="74" y="-55" font-family="Helvetica,sans-Serif" font-size="10.00">::Lambertian</text>
</a>
</g>
</g>
<!-- Node1&#45;&gt;Node4 -->
<g id="edge3_Node000001_Node000004" class="edge">
<title>Node1&#45;&gt;Node4</title>
<g id="a_edge3_Node000001_Node000004"><a xlink:title=" ">
<path fill="none" stroke="#63b8ff" d="M173.8,-76.79C161.61,-75.09 149.08,-73.34 137.2,-71.68"/>
<polygon fill="#63b8ff" stroke="#63b8ff" points="173.54,-80.28 183.93,-78.2 174.51,-73.35 173.54,-80.28"/>
</a>
</g>
</g>
<!-- Node5 -->
<g id="Node000005" class="node">
<title>Node5</title>
<g id="a_Node000005"><a xlink:href="classRayTracer_1_1PointLight.html#abb0bed47008dfe0693bf7eace117c86d" target="_top" xlink:title=" ">
<polygon fill="white" stroke="#666666" points="133.5,-30 14.5,-30 14.5,0 133.5,0 133.5,-30"/>
<text text-anchor="start" x="22.5" y="-18" font-family="Helvetica,sans-Serif" font-size="10.00">RayTracer::PointLight</text>
<text text-anchor="middle" x="74" y="-7" font-family="Helvetica,sans-Serif" font-size="10.00">::PointLight</text>
</a>
</g>
</g>
<!-- Node1&#45;&gt;Node5 -->
<g id="edge4_Node000001_Node000005" class="edge">
<title>Node1&#45;&gt;Node5</title>
<g id="a_edge4_Node000001_Node000005"><a xlink:title=" ">
<path fill="none" stroke="#63b8ff" d="M220.1,-72.75C200.44,-62.63 172.95,-49.1 148,-39 140.33,-35.9 132.1,-32.89 124.02,-30.11"/>
<polygon fill="#63b8ff" stroke="#63b8ff" points="218.6,-75.91 229.08,-77.41 221.82,-69.7 218.6,-75.91"/>
</a>
</g>
</g>
</g>
</svg>
