<?xml version="1.0" encoding="UTF-8" standalone="no"?>
<!DOCTYPE svg PUBLIC "-//W3C//DTD SVG 1.1//EN"
 "http://www.w3.org/Graphics/SVG/1.1/DTD/svg11.dtd">
<!-- Generated by graphviz version 2.43.0 (0)
 -->
<!-- Title: RayTracer::BVH::Node Pages: 1 -->
<svg width="129pt" height="500pt"
 viewBox="0.00 0.00 128.50 500.00" xmlns="http://www.w3.org/2000/svg" xmlns:xlink="http://www.w3.org/1999/xlink">
<g id="graph0" class="graph" transform="scale(1 1) rotate(0) translate(4 496)">
<title>RayTracer::BVH::Node</title>
<!-- Node1 -->
<g id="Node000001" class="node">
<title>Node1</title>
<g id="a_Node000001"><a xlink:title=" ">
<polygon fill="#999999" stroke="transparent" points="117,-79 0,-79 0,0 117,0 117,-79"/>
<text text-anchor="start" x="5.5" y="-66.5" font-family="Helvetica,sans-Serif" font-size="10.00">RayTracer::BVH::Node</text>
<text text-anchor="start" x="16" y="-51.5" font-family="Helvetica,sans-Serif" font-size="10.00">+</text>
<text text-anchor="start" x="40.5" y="-51.5" font-family="Helvetica,sans-Serif" font-size="10.00">left</text>
<text text-anchor="start" x="16" y="-36.5" font-family="Helvetica,sans-Serif" font-size="10.00">+</text>
<text text-anchor="start" x="40.5" y="-36.5" font-family="Helvetica,sans-Serif" font-size="10.00">right</text>
<text text-anchor="start" x="16" y="-21.5" font-family="Helvetica,sans-Serif" font-size="10.00">+</text>
<text text-anchor="start" x="40.5" y="-21.5" font-family="Helvetica,sans-Serif" font-size="10.00">primitives</text>
<text text-anchor="start" x="16" y="-6.5" font-family="Helvetica,sans-Serif" font-size="10.00">+</text>
<text text-anchor="start" x="40.5" y="-6.5" font-family="Helvetica,sans-Serif" font-size="10.00">isLeaf()</text>
<polygon fill="#666666" stroke="#666666" points="0.5,-61.5 0.5,-61.5 117.5,-61.5 117.5,-61.5 0.5,-61.5"/>
<polygon fill="#666666" stroke="#666666" points="0.5,-16.5 0.5,-16.5 38.5,-16.5 38.5,-16.5 0.5,-16.5"/>
<polygon fill="#666666" stroke="#666666" points="38.5,-16.5 38.5,-16.5 117.5,-16.5 117.5,-16.5 38.5,-16.5"/>
<polygon fill="none" stroke="#666666" points="0,0 0,-79 117,-79 117,0 0,0"/>
</a>
</g>
</g>
<!-- Node2 -->
<g id="Node000002" class="node">
<title>Node2</title>
<g id="a_Node000002"><a xlink:href="classGeometry_1_1AABB.html" target="_top" xlink:title=" ">
<polygon fill="white" stroke="transparent" points="104.5,-250 12.5,-250 12.5,-126 104.5,-126 104.5,-250"/>
<text text-anchor="start" x="17.5" y="-238" font-family="Helvetica,sans-Serif" font-size="10.00">Geometry::AABB</text>
<text text-anchor="start" x="56.5" y="-223" font-family="Helvetica,sans-Serif" font-size="10.00"> </text>
<text text-anchor="start" x="17.5" y="-208" font-family="Helvetica,sans-Serif" font-size="10.00">+</text>
<text text-anchor="start" x="31.5" y="-208" font-family="Helvetica,sans-Serif" font-size="10.00">AABB()</text>
<text text-anchor="start" x="17.5" y="-193" font-family="Helvetica,sans-Serif" font-size="10.00">+</text>
<text text-anchor="start" x="31.5" y="-193" font-family="Helvetica,sans-Serif" font-size="10.00">AABB()</text>
<text text-anchor="start" x="17.5" y="-178" font-family="Helvetica,sans-Serif" font-size="10.00">+</text>
<text text-anchor="start" x="31.5" y="-178" font-family="Helvetica,sans-Serif" font-size="10.00">centroid()</text>
<text text-anchor="start" x="17.5" y="-163" font-family="Helvetica,sans-Serif" font-size="10.00">+</text>
<text text-anchor="start" x="31.5" y="-163" font-family="Helvetica,sans-Serif" font-size="10.00">surfaceArea()</text>
<text text-anchor="start" x="17.5" y="-148" font-family="Helvetica,sans-Serif" font-size="10.00">+</text>
<text text-anchor="start" x="31.5" y="-148" font-family="Helvetica,sans-Serif" font-size="10.00">hit()</text>
<text text-anchor="start" x="17.5" y="-133" font-family="Helvetica,sans-Serif" font-size="10.00">+</text>
<text text-anchor="start" x="31.5" y="-133" font-family="Helvetica,sans-Serif" font-size="10.00">unite()</text>
<polygon fill="#666666" stroke="#666666" points="12.5,-233 12.5,-233 104.5,-233 104.5,-233 12.5,-233"/>
<polygon fill="#666666" stroke="#666666" points="12.5,-218 12.5,-218 104.5,-218 104.5,-218 12.5,-218"/>
<polygon fill="none" stroke="#666666" points="12.5,-126 12.5,-250 104.5,-250 104.5,-126 12.5,-126"/>
</a>
</g>
</g>
<!-- Node2&#45;&gt;Node1 -->
<g id="edge1_Node000001_Node000002" class="edge">
<title>Node2&#45;&gt;Node1</title>
<g id="a_edge1_Node000001_Node000002"><a xlink:title=" ">
<path fill="none" stroke="#63b8ff" d="M58.5,-125.72C58.5,-114.33 58.5,-102.54 58.5,-91.49"/>
<polygon fill="none" stroke="#63b8ff" points="58.5,-91.4 54.5,-85.4 58.5,-79.4 62.5,-85.4 58.5,-91.4"/>
</a>
</g>
<text text-anchor="middle" x="82" y="-100" font-family="Helvetica,sans-Serif" font-size="10.00" fill="grey"> +bounds</text>
</g>
<!-- Node3 -->
<g id="Node000003" class="node">
<title>Node3</title>
<g id="a_Node000003"><a xlink:href="classGeometry_1_1Point3D.html" target="_top" xlink:title="Represents a 3D point in space.">
<polygon fill="white" stroke="transparent" points="110,-492 7,-492 7,-308 110,-308 110,-492"/>
<text text-anchor="start" x="12.5" y="-480" font-family="Helvetica,sans-Serif" font-size="10.00">Geometry::Point3D</text>
<text text-anchor="start" x="15.5" y="-465" font-family="Helvetica,sans-Serif" font-size="10.00">+</text>
<text text-anchor="start" x="32.5" y="-465" font-family="Helvetica,sans-Serif" font-size="10.00">x</text>
<text text-anchor="start" x="15.5" y="-450" font-family="Helvetica,sans-Serif" font-size="10.00">+</text>
<text text-anchor="start" x="32.5" y="-450" font-family="Helvetica,sans-Serif" font-size="10.00">y</text>
<text text-anchor="start" x="15.5" y="-435" font-family="Helvetica,sans-Serif" font-size="10.00">+</text>
<text text-anchor="start" x="32.5" y="-435" font-family="Helvetica,sans-Serif" font-size="10.00">z</text>
<text text-anchor="start" x="15.5" y="-420" font-family="Helvetica,sans-Serif" font-size="10.00">+</text>
<text text-anchor="start" x="32.5" y="-420" font-family="Helvetica,sans-Serif" font-size="10.00">Point3D()</text>
<text text-anchor="start" x="15.5" y="-405" font-family="Helvetica,sans-Serif" font-size="10.00">+</text>
<text text-anchor="start" x="32.5" y="-405" font-family="Helvetica,sans-Serif" font-size="10.00">Point3D()</text>
<text text-anchor="start" x="15.5" y="-390" font-family="Helvetica,sans-Serif" font-size="10.00">+</text>
<text text-anchor="start" x="32.5" y="-390" font-family="Helvetica,sans-Serif" font-size="10.00">~Point3D()</text>
<text text-anchor="start" x="15.5" y="-375" font-family="Helvetica,sans-Serif" font-size="10.00">+</text>
<text text-anchor="start" x="32.5" y="-375" font-family="Helvetica,sans-Serif" font-size="10.00">operator+()</text>
<text text-anchor="start" x="15.5" y="-360" font-family="Helvetica,sans-Serif" font-size="10.00">+</text>
<text text-anchor="start" x="32.5" y="-360" font-family="Helvetica,sans-Serif" font-size="10.00">operator&#45;()</text>
<text text-anchor="start" x="15.5" y="-345" font-family="Helvetica,sans-Serif" font-size="10.00">+</text>
<text text-anchor="start" x="32.5" y="-345" font-family="Helvetica,sans-Serif" font-size="10.00">operator+=()</text>
<text text-anchor="start" x="15.5" y="-330" font-family="Helvetica,sans-Serif" font-size="10.00">+</text>
<text text-anchor="start" x="32.5" y="-330" font-family="Helvetica,sans-Serif" font-size="10.00">operator&#45;()</text>
<text text-anchor="start" x="15.5" y="-315" font-family="Helvetica,sans-Serif" font-size="10.00">+</text>
<text text-anchor="start" x="32.5" y="-315" font-family="Helvetica,sans-Serif" font-size="10.00">operator=()</text>
<polygon fill="#666666" stroke="#666666" points="7.5,-475 7.5,-475 110.5,-475 110.5,-475 7.5,-475"/>
<polygon fill="#666666" stroke="#666666" points="7.5,-430 7.5,-430 30.5,-430 30.5,-430 7.5,-430"/>
<polygon fill="#666666" stroke="#666666" points="30.5,-430 30.5,-430 110.5,-430 110.5,-430 30.5,-430"/>
<polygon fill="none" stroke="#666666" points="7,-308 7,-492 110,-492 110,-308 7,-308"/>
</a>
</g>
</g>
<!-- Node3&#45;&gt;Node2 -->
<g id="edge2_Node000002_Node000003" class="edge">
<title>Node3&#45;&gt;Node2</title>
<g id="a_edge2_Node000002_Node000003"><a xlink:title=" ">
<path fill="none" stroke="#63b8ff" d="M58.5,-307.81C58.5,-292.59 58.5,-276.97 58.5,-262.28"/>
<polygon fill="none" stroke="#63b8ff" points="58.5,-262.17 54.5,-256.17 58.5,-250.17 62.5,-256.17 58.5,-262.17"/>
</a>
</g>
<text text-anchor="middle" x="89.5" y="-282" font-family="Helvetica,sans-Serif" font-size="10.00" fill="grey"> +maximum</text>
<text text-anchor="middle" x="89.5" y="-271" font-family="Helvetica,sans-Serif" font-size="10.00" fill="grey">+minimum</text>
</g>
</g>
</svg>
