<?xml version="1.0" encoding="UTF-8" standalone="no"?>
<!DOCTYPE svg PUBLIC "-//W3C//DTD SVG 1.1//EN"
 "http://www.w3.org/Graphics/SVG/1.1/DTD/svg11.dtd">
<!-- Generated by graphviz version 2.43.0 (0)
 -->
<!-- Title: RayTracer::Color::Color Pages: 1 -->
<svg width="475pt" height="157pt"
 viewBox="0.00 0.00 475.00 156.57" xmlns="http://www.w3.org/2000/svg" xmlns:xlink="http://www.w3.org/1999/xlink">

<svg id="main" version="1.1" xmlns="http://www.w3.org/2000/svg" xmlns:xlink="http://www.w3.org/1999/xlink" xml:space="preserve" onload="init(evt)">
<style type="text/css"><![CDATA[
.node, .edge {opacity: 0.7;}
.node.selected, .edge.selected {opacity: 1;}
.edge:hover path { stroke: red; }
.edge:hover polygon { stroke: red; fill: red; }
]]></style>
<script type="application/ecmascript" xlink:href="svg.min.js"/>
<svg id="graph" class="graph">
<g id="graph0" class="graph" transform="scale(1 1) rotate(0) translate(4 152.57)">
<title>RayTracer::Color::Color</title>
<!-- Node1 -->
<g id="Node000001" class="node">
<title>Node1</title>
<g id="a_Node000001"><a xlink:title=" ">
<polygon fill="#999999" stroke="#666666" points="467,-93 339,-93 339,-74 467,-74 467,-93"/>
<text text-anchor="middle" x="403" y="-81" font-family="Helvetica,sans-Serif" font-size="10.00">RayTracer::Color::Color</text>
</a>
</g>
</g>
<!-- Node2 -->
<g id="Node000002" class="node">
<title>Node2</title>
<g id="a_Node000002"><a xlink:href="classRayTracer_1_1Renderer.html#a38c79cb50671c8455193ab0669d674f2" target="_top" xlink:title=" ">
<polygon fill="white" stroke="#666666" points="115,-135.5 0,-135.5 0,-105.5 115,-105.5 115,-135.5"/>
<text text-anchor="start" x="8" y="-123.5" font-family="Helvetica,sans-Serif" font-size="10.00">RayTracer::Renderer</text>
<text text-anchor="middle" x="57.5" y="-112.5" font-family="Helvetica,sans-Serif" font-size="10.00">::castRay</text>
</a>
</g>
</g>
<!-- Node1&#45;&gt;Node2 -->
<g id="edge1_Node000001_Node000002" class="edge">
<title>Node1&#45;&gt;Node2</title>
<g id="a_edge1_Node000001_Node000002"><a xlink:title=" ">
<path fill="none" stroke="#63b8ff" d="M381.58,-99.26C362.46,-112.94 332.51,-131.73 303,-139.5 240.21,-156.03 165.47,-146.12 115.29,-135.41"/>
<polygon fill="#63b8ff" stroke="#63b8ff" points="383.82,-101.96 389.8,-93.21 379.67,-96.32 383.82,-101.96"/>
</a>
</g>
</g>
<!-- Node3 -->
<g id="Node000003" class="node">
<title>Node3</title>
<g id="a_Node000003"><a xlink:href="structRayTracer_1_1Color.html#a3a5645c19c0b60a67b3dfac325727248" target="_top" xlink:title=" ">
<polygon fill="white" stroke="#666666" points="301.5,-130 152.5,-130 152.5,-111 301.5,-111 301.5,-130"/>
<text text-anchor="middle" x="227" y="-118" font-family="Helvetica,sans-Serif" font-size="10.00">RayTracer::Color::operator*</text>
</a>
</g>
</g>
<!-- Node1&#45;&gt;Node3 -->
<g id="edge2_Node000001_Node000003" class="edge">
<title>Node1&#45;&gt;Node3</title>
<g id="a_edge2_Node000001_Node000003"><a xlink:title=" ">
<path fill="none" stroke="#63b8ff" d="M347.2,-95.15C323.3,-100.23 295.63,-106.12 272.96,-110.94"/>
<polygon fill="#63b8ff" stroke="#63b8ff" points="348.14,-98.53 357.19,-93.03 346.68,-91.68 348.14,-98.53"/>
</a>
</g>
</g>
<!-- Node4 -->
<g id="Node000004" class="node">
<title>Node4</title>
<g id="a_Node000004"><a xlink:href="structRayTracer_1_1Color.html#aefc65f4c5ffc2e9bca0a35e4e55d68b8" target="_top" xlink:title=" ">
<polygon fill="white" stroke="#666666" points="301.5,-93 152.5,-93 152.5,-74 301.5,-74 301.5,-93"/>
<text text-anchor="middle" x="227" y="-81" font-family="Helvetica,sans-Serif" font-size="10.00">RayTracer::Color::operator*</text>
</a>
</g>
</g>
<!-- Node1&#45;&gt;Node4 -->
<g id="edge3_Node000001_Node000004" class="edge">
<title>Node1&#45;&gt;Node4</title>
<g id="a_edge3_Node000001_Node000004"><a xlink:title=" ">
<path fill="none" stroke="#63b8ff" d="M328.68,-83.5C319.72,-83.5 310.56,-83.5 301.6,-83.5"/>
<polygon fill="#63b8ff" stroke="#63b8ff" points="328.69,-87 338.69,-83.5 328.69,-80 328.69,-87"/>
</a>
</g>
</g>
<!-- Node5 -->
<g id="Node000005" class="node">
<title>Node5</title>
<g id="a_Node000005"><a xlink:href="structRayTracer_1_1Color.html#a327b4006c4abe3faf3491929b8ee1a7c" target="_top" xlink:title=" ">
<polygon fill="white" stroke="#666666" points="303,-56 151,-56 151,-37 303,-37 303,-56"/>
<text text-anchor="middle" x="227" y="-44" font-family="Helvetica,sans-Serif" font-size="10.00">RayTracer::Color::operator+</text>
</a>
</g>
</g>
<!-- Node1&#45;&gt;Node5 -->
<g id="edge5_Node000001_Node000005" class="edge">
<title>Node1&#45;&gt;Node5</title>
<g id="a_edge5_Node000001_Node000005"><a xlink:title=" ">
<path fill="none" stroke="#63b8ff" d="M347.2,-71.85C323.3,-66.77 295.63,-60.88 272.96,-56.06"/>
<polygon fill="#63b8ff" stroke="#63b8ff" points="346.68,-75.32 357.19,-73.97 348.14,-68.47 346.68,-75.32"/>
</a>
</g>
</g>
<!-- Node6 -->
<g id="Node000006" class="node">
<title>Node6</title>
<g id="a_Node000006"><a xlink:href="structRayTracer_1_1Color.html#ad224166942560c4b3930f6ec1939602f" target="_top" xlink:title=" ">
<polygon fill="white" stroke="#666666" points="300.5,-19 153.5,-19 153.5,0 300.5,0 300.5,-19"/>
<text text-anchor="middle" x="227" y="-7" font-family="Helvetica,sans-Serif" font-size="10.00">RayTracer::Color::operator&#45;</text>
</a>
</g>
</g>
<!-- Node1&#45;&gt;Node6 -->
<g id="edge6_Node000001_Node000006" class="edge">
<title>Node1&#45;&gt;Node6</title>
<g id="a_edge6_Node000001_Node000006"><a xlink:title=" ">
<path fill="none" stroke="#63b8ff" d="M378.98,-68.45C359.44,-56.24 330.3,-39.33 303,-28.5 293.76,-24.84 283.6,-21.7 273.81,-19.1"/>
<polygon fill="#63b8ff" stroke="#63b8ff" points="377.18,-71.46 387.5,-73.86 380.93,-65.55 377.18,-71.46"/>
</a>
</g>
</g>
<!-- Node4&#45;&gt;Node2 -->
<g id="edge4_Node000004_Node000002" class="edge">
<title>Node4&#45;&gt;Node2</title>
<g id="a_edge4_Node000004_Node000002"><a xlink:title=" ">
<path fill="none" stroke="#63b8ff" d="M172.9,-95.23C154.48,-99.3 133.77,-103.87 115.08,-108"/>
<polygon fill="#63b8ff" stroke="#63b8ff" points="173.85,-98.6 182.86,-93.03 172.35,-91.77 173.85,-98.6"/>
</a>
</g>
</g>
</g>
</svg>
</svg>

<style type='text/css'>
<![CDATA[
[data-mouse-over-selected='false'] { opacity: 0.7; }
[data-mouse-over-selected='true']  { opacity: 1.0; }
]]>
</style>
<script type="application/ecmascript"><![CDATA[
document.addEventListener('DOMContentLoaded', (event) => {
  highlightEdges();
  highlightAdjacentNodes();
});
]]></script>
</svg>
