<?xml version="1.0" encoding="UTF-8" standalone="no"?>
<!DOCTYPE svg PUBLIC "-//W3C//DTD SVG 1.1//EN"
 "http://www.w3.org/Graphics/SVG/1.1/DTD/svg11.dtd">
<!-- Generated by graphviz version 2.43.0 (0)
 -->
<!-- Title: RayTracer::Color::Color Pages: 1 -->
<svg width="626pt" height="157pt"
 viewBox="0.00 0.00 626.00 156.57" xmlns="http://www.w3.org/2000/svg" xmlns:xlink="http://www.w3.org/1999/xlink">
<g id="graph0" class="graph" transform="scale(1 1) rotate(0) translate(4 152.57)">
<title>RayTracer::Color::Color</title>
<!-- Node1 -->
<g id="Node000001" class="node">
<title>Node1</title>
<g id="a_Node000001"><a xlink:title=" ">
<polygon fill="#999999" stroke="#666666" points="618,-93 490,-93 490,-74 618,-74 618,-93"/>
<text text-anchor="middle" x="554" y="-81" font-family="Helvetica,sans-Serif" font-size="10.00">RayTracer::Color::Color</text>
</a>
</g>
</g>
<!-- Node2 -->
<g id="Node000002" class="node">
<title>Node2</title>
<g id="a_Node000002"><a xlink:href="classRayTracer_1_1Camera.html#a23a720e6aeb1c1a410b3d704cac7ce11" target="_top" xlink:title=" ">
<polygon fill="white" stroke="#666666" points="266,-135.5 151,-135.5 151,-105.5 266,-105.5 266,-135.5"/>
<text text-anchor="start" x="159" y="-123.5" font-family="Helvetica,sans-Serif" font-size="10.00">RayTracer::Camera::</text>
<text text-anchor="middle" x="208.5" y="-112.5" font-family="Helvetica,sans-Serif" font-size="10.00">castRay</text>
</a>
</g>
</g>
<!-- Node1&#45;&gt;Node2 -->
<g id="edge1_Node000001_Node000002" class="edge">
<title>Node1&#45;&gt;Node2</title>
<g id="a_edge1_Node000001_Node000002"><a xlink:title=" ">
<path fill="none" stroke="#63b8ff" d="M532.58,-99.26C513.46,-112.94 483.51,-131.73 454,-139.5 391.21,-156.03 316.47,-146.12 266.29,-135.41"/>
<polygon fill="#63b8ff" stroke="#63b8ff" points="534.82,-101.96 540.8,-93.21 530.67,-96.32 534.82,-101.96"/>
</a>
</g>
</g>
<!-- Node4 -->
<g id="Node000004" class="node">
<title>Node4</title>
<g id="a_Node000004"><a xlink:href="structRayTracer_1_1Color.html#a3a5645c19c0b60a67b3dfac325727248" target="_top" xlink:title=" ">
<polygon fill="white" stroke="#666666" points="452.5,-130 303.5,-130 303.5,-111 452.5,-111 452.5,-130"/>
<text text-anchor="middle" x="378" y="-118" font-family="Helvetica,sans-Serif" font-size="10.00">RayTracer::Color::operator*</text>
</a>
</g>
</g>
<!-- Node1&#45;&gt;Node4 -->
<g id="edge3_Node000001_Node000004" class="edge">
<title>Node1&#45;&gt;Node4</title>
<g id="a_edge3_Node000001_Node000004"><a xlink:title=" ">
<path fill="none" stroke="#63b8ff" d="M498.2,-95.15C474.3,-100.23 446.63,-106.12 423.96,-110.94"/>
<polygon fill="#63b8ff" stroke="#63b8ff" points="499.14,-98.53 508.19,-93.03 497.68,-91.68 499.14,-98.53"/>
</a>
</g>
</g>
<!-- Node5 -->
<g id="Node000005" class="node">
<title>Node5</title>
<g id="a_Node000005"><a xlink:href="structRayTracer_1_1Color.html#aefc65f4c5ffc2e9bca0a35e4e55d68b8" target="_top" xlink:title=" ">
<polygon fill="white" stroke="#666666" points="452.5,-93 303.5,-93 303.5,-74 452.5,-74 452.5,-93"/>
<text text-anchor="middle" x="378" y="-81" font-family="Helvetica,sans-Serif" font-size="10.00">RayTracer::Color::operator*</text>
</a>
</g>
</g>
<!-- Node1&#45;&gt;Node5 -->
<g id="edge4_Node000001_Node000005" class="edge">
<title>Node1&#45;&gt;Node5</title>
<g id="a_edge4_Node000001_Node000005"><a xlink:title=" ">
<path fill="none" stroke="#63b8ff" d="M479.68,-83.5C470.72,-83.5 461.56,-83.5 452.6,-83.5"/>
<polygon fill="#63b8ff" stroke="#63b8ff" points="479.69,-87 489.69,-83.5 479.69,-80 479.69,-87"/>
</a>
</g>
</g>
<!-- Node6 -->
<g id="Node000006" class="node">
<title>Node6</title>
<g id="a_Node000006"><a xlink:href="structRayTracer_1_1Color.html#a327b4006c4abe3faf3491929b8ee1a7c" target="_top" xlink:title=" ">
<polygon fill="white" stroke="#666666" points="454,-56 302,-56 302,-37 454,-37 454,-56"/>
<text text-anchor="middle" x="378" y="-44" font-family="Helvetica,sans-Serif" font-size="10.00">RayTracer::Color::operator+</text>
</a>
</g>
</g>
<!-- Node1&#45;&gt;Node6 -->
<g id="edge6_Node000001_Node000006" class="edge">
<title>Node1&#45;&gt;Node6</title>
<g id="a_edge6_Node000001_Node000006"><a xlink:title=" ">
<path fill="none" stroke="#63b8ff" d="M498.2,-71.85C474.3,-66.77 446.63,-60.88 423.96,-56.06"/>
<polygon fill="#63b8ff" stroke="#63b8ff" points="497.68,-75.32 508.19,-73.97 499.14,-68.47 497.68,-75.32"/>
</a>
</g>
</g>
<!-- Node7 -->
<g id="Node000007" class="node">
<title>Node7</title>
<g id="a_Node000007"><a xlink:href="structRayTracer_1_1Color.html#ad224166942560c4b3930f6ec1939602f" target="_top" xlink:title=" ">
<polygon fill="white" stroke="#666666" points="451.5,-19 304.5,-19 304.5,0 451.5,0 451.5,-19"/>
<text text-anchor="middle" x="378" y="-7" font-family="Helvetica,sans-Serif" font-size="10.00">RayTracer::Color::operator&#45;</text>
</a>
</g>
</g>
<!-- Node1&#45;&gt;Node7 -->
<g id="edge7_Node000001_Node000007" class="edge">
<title>Node1&#45;&gt;Node7</title>
<g id="a_edge7_Node000001_Node000007"><a xlink:title=" ">
<path fill="none" stroke="#63b8ff" d="M529.98,-68.45C510.44,-56.24 481.3,-39.33 454,-28.5 444.76,-24.84 434.6,-21.7 424.81,-19.1"/>
<polygon fill="#63b8ff" stroke="#63b8ff" points="528.18,-71.46 538.5,-73.86 531.93,-65.55 528.18,-71.46"/>
</a>
</g>
</g>
<!-- Node3 -->
<g id="Node000003" class="node">
<title>Node3</title>
<g id="a_Node000003"><a xlink:href="classRayTracer_1_1Camera.html#a3735fca524537e8a0ce755bb77e9a71f" target="_top" xlink:title="Render a scene and produce a framebuffer.">
<polygon fill="white" stroke="#666666" points="115,-135.5 0,-135.5 0,-105.5 115,-105.5 115,-135.5"/>
<text text-anchor="start" x="8" y="-123.5" font-family="Helvetica,sans-Serif" font-size="10.00">RayTracer::Camera::</text>
<text text-anchor="middle" x="57.5" y="-112.5" font-family="Helvetica,sans-Serif" font-size="10.00">render</text>
</a>
</g>
</g>
<!-- Node2&#45;&gt;Node3 -->
<g id="edge2_Node000002_Node000003" class="edge">
<title>Node2&#45;&gt;Node3</title>
<g id="a_edge2_Node000002_Node000003"><a xlink:title=" ">
<path fill="none" stroke="#63b8ff" d="M140.49,-120.5C132.01,-120.5 123.4,-120.5 115.1,-120.5"/>
<polygon fill="#63b8ff" stroke="#63b8ff" points="140.74,-124 150.74,-120.5 140.74,-117 140.74,-124"/>
</a>
</g>
</g>
<!-- Node5&#45;&gt;Node2 -->
<g id="edge5_Node000005_Node000002" class="edge">
<title>Node5&#45;&gt;Node2</title>
<g id="a_edge5_Node000005_Node000002"><a xlink:title=" ">
<path fill="none" stroke="#63b8ff" d="M323.9,-95.23C305.48,-99.3 284.77,-103.87 266.08,-108"/>
<polygon fill="#63b8ff" stroke="#63b8ff" points="324.85,-98.6 333.86,-93.03 323.35,-91.77 324.85,-98.6"/>
</a>
</g>
</g>
</g>
</svg>
