<?xml version="1.0" encoding="UTF-8" standalone="no"?>
<!DOCTYPE svg PUBLIC "-//W3C//DTD SVG 1.1//EN"
 "http://www.w3.org/Graphics/SVG/1.1/DTD/svg11.dtd">
<!-- Generated by graphviz version 2.43.0 (0)
 -->
<!-- Title: src/Geometry/TransformMatrix/TransformMatrix.hpp Pages: 1 -->
<svg width="506pt" height="192pt"
 viewBox="0.00 0.00 505.50 192.00" xmlns="http://www.w3.org/2000/svg" xmlns:xlink="http://www.w3.org/1999/xlink">
<g id="graph0" class="graph" transform="scale(1 1) rotate(0) translate(4 188)">
<title>src/Geometry/TransformMatrix/TransformMatrix.hpp</title>
<!-- Node1 -->
<g id="Node000001" class="node">
<title>Node1</title>
<g id="a_Node000001"><a xlink:title="Affine transform matrix utilities used for camera and object transforms.">
<polygon fill="#999999" stroke="#666666" points="352,-184 186,-184 186,-154 352,-154 352,-184"/>
<text text-anchor="start" x="194" y="-172" font-family="Helvetica,sans-Serif" font-size="10.00">src/Geometry/TransformMatrix</text>
<text text-anchor="middle" x="269" y="-161" font-family="Helvetica,sans-Serif" font-size="10.00">/TransformMatrix.hpp</text>
</a>
</g>
</g>
<!-- Node2 -->
<g id="Node000002" class="node">
<title>Node2</title>
<g id="a_Node000002"><a xlink:href="TransformMatrix_8cpp.html" target="_top" xlink:title="Implementation of affine transform helpers used across geometry.">
<polygon fill="white" stroke="#666666" points="166,-112.5 0,-112.5 0,-82.5 166,-82.5 166,-112.5"/>
<text text-anchor="start" x="8" y="-100.5" font-family="Helvetica,sans-Serif" font-size="10.00">src/Geometry/TransformMatrix</text>
<text text-anchor="middle" x="83" y="-89.5" font-family="Helvetica,sans-Serif" font-size="10.00">/TransformMatrix.cpp</text>
</a>
</g>
</g>
<!-- Node1&#45;&gt;Node2 -->
<g id="edge1_Node000001_Node000002" class="edge">
<title>Node1&#45;&gt;Node2</title>
<g id="a_edge1_Node000001_Node000002"><a xlink:title=" ">
<path fill="none" stroke="#63b8ff" d="M221.94,-150.42C190.54,-138.68 149.81,-123.47 120.58,-112.54"/>
<polygon fill="#63b8ff" stroke="#63b8ff" points="220.77,-153.71 231.36,-153.94 223.22,-147.16 220.77,-153.71"/>
</a>
</g>
</g>
<!-- Node3 -->
<g id="Node000003" class="node">
<title>Node3</title>
<g id="a_Node000003"><a xlink:href="Camera_8hpp.html" target="_top" xlink:title="Declaration for the camera&#45;based renderer used by the raytracer.">
<polygon fill="white" stroke="#666666" points="497.5,-118 372.5,-118 372.5,-77 497.5,-77 497.5,-118"/>
<text text-anchor="start" x="380.5" y="-106" font-family="Helvetica,sans-Serif" font-size="10.00">src/Objects/Plugins</text>
<text text-anchor="start" x="380.5" y="-95" font-family="Helvetica,sans-Serif" font-size="10.00">/CorePlugin/Renderers</text>
<text text-anchor="middle" x="435" y="-84" font-family="Helvetica,sans-Serif" font-size="10.00">/Camera/Camera.hpp</text>
</a>
</g>
</g>
<!-- Node1&#45;&gt;Node3 -->
<g id="edge2_Node000001_Node000003" class="edge">
<title>Node1&#45;&gt;Node3</title>
<g id="a_edge2_Node000001_Node000003"><a xlink:title=" ">
<path fill="none" stroke="#63b8ff" d="M311.91,-150.03C335.31,-140.24 364.29,-128.11 388.25,-118.07"/>
<polygon fill="#63b8ff" stroke="#63b8ff" points="310.47,-146.85 302.59,-153.94 313.17,-153.3 310.47,-146.85"/>
</a>
</g>
</g>
<!-- Node6 -->
<g id="Node000006" class="node">
<title>Node6</title>
<g id="a_Node000006"><a xlink:href="SceneNodeHelpers_8hpp.html" target="_top" xlink:title=" ">
<polygon fill="white" stroke="#666666" points="354,-112.5 184,-112.5 184,-82.5 354,-82.5 354,-112.5"/>
<text text-anchor="start" x="192" y="-100.5" font-family="Helvetica,sans-Serif" font-size="10.00">src/SceneSystem/SceneNode</text>
<text text-anchor="middle" x="269" y="-89.5" font-family="Helvetica,sans-Serif" font-size="10.00">Helpers/SceneNodeHelpers.hpp</text>
</a>
</g>
</g>
<!-- Node1&#45;&gt;Node6 -->
<g id="edge5_Node000001_Node000006" class="edge">
<title>Node1&#45;&gt;Node6</title>
<g id="a_edge5_Node000001_Node000006"><a xlink:title=" ">
<path fill="none" stroke="#63b8ff" d="M269,-143.75C269,-133.31 269,-121.49 269,-112.54"/>
<polygon fill="#63b8ff" stroke="#63b8ff" points="265.5,-143.94 269,-153.94 272.5,-143.94 265.5,-143.94"/>
</a>
</g>
</g>
<!-- Node4 -->
<g id="Node000004" class="node">
<title>Node4</title>
<g id="a_Node000004"><a xlink:href="CorePlugin_8cpp.html" target="_top" xlink:title="Core plugin implementation that provides primitives, materials and the camera.">
<polygon fill="white" stroke="#666666" points="349,-35.5 201,-35.5 201,-5.5 349,-5.5 349,-35.5"/>
<text text-anchor="start" x="209" y="-23.5" font-family="Helvetica,sans-Serif" font-size="10.00">src/Objects/Plugins</text>
<text text-anchor="middle" x="275" y="-12.5" font-family="Helvetica,sans-Serif" font-size="10.00">/CorePlugin/CorePlugin.cpp</text>
</a>
</g>
</g>
<!-- Node3&#45;&gt;Node4 -->
<g id="edge3_Node000003_Node000004" class="edge">
<title>Node3&#45;&gt;Node4</title>
<g id="a_edge3_Node000003_Node000004"><a xlink:title=" ">
<path fill="none" stroke="#63b8ff" d="M384.03,-72.61C358.01,-60.41 327.25,-45.99 305.04,-35.58"/>
<polygon fill="#63b8ff" stroke="#63b8ff" points="382.84,-75.92 393.38,-76.99 385.81,-69.58 382.84,-75.92"/>
</a>
</g>
</g>
<!-- Node5 -->
<g id="Node000005" class="node">
<title>Node5</title>
<g id="a_Node000005"><a xlink:href="Camera_8cpp.html" target="_top" xlink:title="Implementation of the RayTracer::Camera renderer.">
<polygon fill="white" stroke="#666666" points="497.5,-41 372.5,-41 372.5,0 497.5,0 497.5,-41"/>
<text text-anchor="start" x="380.5" y="-29" font-family="Helvetica,sans-Serif" font-size="10.00">src/Objects/Plugins</text>
<text text-anchor="start" x="380.5" y="-18" font-family="Helvetica,sans-Serif" font-size="10.00">/CorePlugin/Renderers</text>
<text text-anchor="middle" x="435" y="-7" font-family="Helvetica,sans-Serif" font-size="10.00">/Camera/Camera.cpp</text>
</a>
</g>
</g>
<!-- Node3&#45;&gt;Node5 -->
<g id="edge4_Node000003_Node000005" class="edge">
<title>Node3&#45;&gt;Node5</title>
<g id="a_edge4_Node000003_Node000005"><a xlink:title=" ">
<path fill="none" stroke="#63b8ff" d="M435,-66.69C435,-58.08 435,-48.9 435,-41.07"/>
<polygon fill="#63b8ff" stroke="#63b8ff" points="431.5,-66.79 435,-76.79 438.5,-66.79 431.5,-66.79"/>
</a>
</g>
</g>
<!-- Node6&#45;&gt;Node4 -->
<g id="edge6_Node000006_Node000004" class="edge">
<title>Node6&#45;&gt;Node4</title>
<g id="a_edge6_Node000006_Node000004"><a xlink:title=" ">
<path fill="none" stroke="#63b8ff" d="M270.93,-72.41C271.9,-60.24 273.05,-45.9 273.88,-35.54"/>
<polygon fill="#63b8ff" stroke="#63b8ff" points="267.44,-72.15 270.13,-82.39 274.41,-72.7 267.44,-72.15"/>
</a>
</g>
</g>
</g>
</svg>
