<?xml version="1.0" encoding="UTF-8" standalone="no"?>
<!DOCTYPE svg PUBLIC "-//W3C//DTD SVG 1.1//EN"
 "http://www.w3.org/Graphics/SVG/1.1/DTD/svg11.dtd">
<!-- Generated by graphviz version 2.43.0 (0)
 -->
<!-- Title: src/Utils/Utils.hpp Pages: 1 -->
<svg width="254pt" height="104pt"
 viewBox="0.00 0.00 253.50 104.00" xmlns="http://www.w3.org/2000/svg" xmlns:xlink="http://www.w3.org/1999/xlink">
<g id="graph0" class="graph" transform="scale(1 1) rotate(0) translate(4 100)">
<title>src/Utils/Utils.hpp</title>
<!-- Node1 -->
<g id="Node000001" class="node">
<title>Node1</title>
<g id="a_Node000001"><a xlink:title="Utility declarations for common helpers used by the renderer.">
<polygon fill="#999999" stroke="#666666" points="180,-96 77,-96 77,-77 180,-77 180,-96"/>
<text text-anchor="middle" x="128.5" y="-84" font-family="Helvetica,sans-Serif" font-size="10.00">src/Utils/Utils.hpp</text>
</a>
</g>
</g>
<!-- Node2 -->
<g id="Node000002" class="node">
<title>Node2</title>
<g id="a_Node000002"><a xlink:href="Camera_8cpp.html" target="_top" xlink:title="Implementation of the RayTracer::Camera renderer.">
<polygon fill="white" stroke="#666666" points="125,-41 0,-41 0,0 125,0 125,-41"/>
<text text-anchor="start" x="8" y="-29" font-family="Helvetica,sans-Serif" font-size="10.00">src/Objects/Plugins</text>
<text text-anchor="start" x="8" y="-18" font-family="Helvetica,sans-Serif" font-size="10.00">/CorePlugin/Renderers</text>
<text text-anchor="middle" x="62.5" y="-7" font-family="Helvetica,sans-Serif" font-size="10.00">/Camera/Camera.cpp</text>
</a>
</g>
</g>
<!-- Node1&#45;&gt;Node2 -->
<g id="edge1_Node000001_Node000002" class="edge">
<title>Node1&#45;&gt;Node2</title>
<g id="a_edge1_Node000001_Node000002"><a xlink:title=" ">
<path fill="none" stroke="#63b8ff" d="M112.4,-69.89C103.43,-61.19 92.17,-50.27 82.62,-41.01"/>
<polygon fill="#63b8ff" stroke="#63b8ff" points="109.98,-72.42 119.6,-76.87 114.86,-67.39 109.98,-72.42"/>
</a>
</g>
</g>
<!-- Node3 -->
<g id="Node000003" class="node">
<title>Node3</title>
<g id="a_Node000003"><a xlink:href="Utils_8cpp.html" target="_top" xlink:title="Miscellaneous utility functions used across the codebase.">
<polygon fill="white" stroke="#666666" points="245.5,-30 143.5,-30 143.5,-11 245.5,-11 245.5,-30"/>
<text text-anchor="middle" x="194.5" y="-18" font-family="Helvetica,sans-Serif" font-size="10.00">src/Utils/Utils.cpp</text>
</a>
</g>
</g>
<!-- Node1&#45;&gt;Node3 -->
<g id="edge2_Node000001_Node000003" class="edge">
<title>Node1&#45;&gt;Node3</title>
<g id="a_edge2_Node000001_Node000003"><a xlink:title=" ">
<path fill="none" stroke="#63b8ff" d="M144.66,-69.83C157.44,-57.44 174.82,-40.59 185.32,-30.41"/>
<polygon fill="#63b8ff" stroke="#63b8ff" points="142.14,-67.39 137.4,-76.87 147.02,-72.42 142.14,-67.39"/>
</a>
</g>
</g>
</g>
</svg>
