<?xml version="1.0" encoding="UTF-8" standalone="no"?>
<!DOCTYPE svg PUBLIC "-//W3C//DTD SVG 1.1//EN"
 "http://www.w3.org/Graphics/SVG/1.1/DTD/svg11.dtd">
<!-- Generated by graphviz version 2.43.0 (0)
 -->
<!-- Title: src/Geometry/Vector3D/Vector3D.hpp Pages: 1 -->
<svg width="713pt" height="445pt"
 viewBox="0.00 0.00 712.50 445.00" xmlns="http://www.w3.org/2000/svg" xmlns:xlink="http://www.w3.org/1999/xlink">
<g id="graph0" class="graph" transform="scale(1 1) rotate(0) translate(4 441)">
<title>src/Geometry/Vector3D/Vector3D.hpp</title>
<!-- Node1 -->
<g id="Node000001" class="node">
<title>Node1</title>
<g id="a_Node000001"><a xlink:title=" ">
<polygon fill="#999999" stroke="#666666" points="422.5,-437 292.5,-437 292.5,-407 422.5,-407 422.5,-437"/>
<text text-anchor="start" x="300.5" y="-425" font-family="Helvetica,sans-Serif" font-size="10.00">src/Geometry/Vector3D</text>
<text text-anchor="middle" x="357.5" y="-414" font-family="Helvetica,sans-Serif" font-size="10.00">/Vector3D.hpp</text>
</a>
</g>
</g>
<!-- Node2 -->
<g id="Node000002" class="node">
<title>Node2</title>
<g id="a_Node000002"><a xlink:href="HitRecord_8hpp.html" target="_top" xlink:title=" ">
<polygon fill="white" stroke="#666666" points="156.5,-305 22.5,-305 22.5,-275 156.5,-275 156.5,-305"/>
<text text-anchor="start" x="30.5" y="-293" font-family="Helvetica,sans-Serif" font-size="10.00">src/Geometry/HitRecord</text>
<text text-anchor="middle" x="89.5" y="-282" font-family="Helvetica,sans-Serif" font-size="10.00">/HitRecord.hpp</text>
</a>
</g>
</g>
<!-- Node1&#45;&gt;Node2 -->
<g id="edge1_Node000001_Node000002" class="edge">
<title>Node1&#45;&gt;Node2</title>
<g id="a_edge1_Node000001_Node000002"><a xlink:title=" ">
<path fill="none" stroke="#63b8ff" d="M282.57,-410.16C246.94,-402.76 204.75,-390.62 170.5,-371 140.66,-353.9 113.96,-323.09 99.92,-305.1"/>
<polygon fill="#63b8ff" stroke="#63b8ff" points="281.94,-413.6 292.43,-412.12 283.31,-406.74 281.94,-413.6"/>
</a>
</g>
</g>
<!-- Node6 -->
<g id="Node000006" class="node">
<title>Node6</title>
<g id="a_Node000006"><a xlink:href="SceneSystem_2Camera_2Camera_8hpp.html" target="_top" xlink:title=" ">
<polygon fill="white" stroke="#666666" points="374,-239 233,-239 233,-209 374,-209 374,-239"/>
<text text-anchor="start" x="241" y="-227" font-family="Helvetica,sans-Serif" font-size="10.00">src/SceneSystem/Camera</text>
<text text-anchor="middle" x="303.5" y="-216" font-family="Helvetica,sans-Serif" font-size="10.00">/Camera.hpp</text>
</a>
</g>
</g>
<!-- Node1&#45;&gt;Node6 -->
<g id="edge25_Node000001_Node000006" class="edge">
<title>Node1&#45;&gt;Node6</title>
<g id="a_edge25_Node000001_Node000006"><a xlink:title=" ">
<path fill="none" stroke="#63b8ff" d="M284.21,-402.93C267.85,-395.58 252.21,-385.31 241.5,-371 215.86,-336.72 213.91,-313.07 233.5,-275 241.63,-259.2 257.33,-247.28 271.8,-239.06"/>
<polygon fill="#63b8ff" stroke="#63b8ff" points="283.31,-406.34 293.89,-406.92 285.98,-399.87 283.31,-406.34"/>
</a>
</g>
</g>
<!-- Node10 -->
<g id="Node000010" class="node">
<title>Node10</title>
<g id="a_Node000010"><a xlink:href="Point3D_8hpp.html" target="_top" xlink:title=" ">
<polygon fill="white" stroke="#666666" points="374.5,-371 250.5,-371 250.5,-341 374.5,-341 374.5,-371"/>
<text text-anchor="start" x="258.5" y="-359" font-family="Helvetica,sans-Serif" font-size="10.00">src/Geometry/Point3D</text>
<text text-anchor="middle" x="312.5" y="-348" font-family="Helvetica,sans-Serif" font-size="10.00">/Point3D.hpp</text>
</a>
</g>
</g>
<!-- Node1&#45;&gt;Node10 -->
<g id="edge11_Node000001_Node000010" class="edge">
<title>Node1&#45;&gt;Node10</title>
<g id="a_edge11_Node000001_Node000010"><a xlink:title=" ">
<path fill="none" stroke="#63b8ff" d="M341.7,-398.53C335.3,-389.43 328.11,-379.19 322.46,-371.16"/>
<polygon fill="#63b8ff" stroke="#63b8ff" points="338.9,-400.63 347.51,-406.8 344.62,-396.6 338.9,-400.63"/>
</a>
</g>
</g>
<!-- Node12 -->
<g id="Node000012" class="node">
<title>Node12</title>
<g id="a_Node000012"><a xlink:href="Ray_8hpp.html" target="_top" xlink:title=" ">
<polygon fill="white" stroke="#666666" points="704.5,-299.5 558.5,-299.5 558.5,-280.5 704.5,-280.5 704.5,-299.5"/>
<text text-anchor="middle" x="631.5" y="-287.5" font-family="Helvetica,sans-Serif" font-size="10.00">src/Geometry/Ray/Ray.hpp</text>
</a>
</g>
</g>
<!-- Node1&#45;&gt;Node12 -->
<g id="edge22_Node000001_Node000012" class="edge">
<title>Node1&#45;&gt;Node12</title>
<g id="a_edge22_Node000001_Node000012"><a xlink:title=" ">
<path fill="none" stroke="#63b8ff" d="M386.46,-401.09C399.01,-392.19 413.72,-381.39 426.5,-371 441.88,-358.5 442.2,-350.68 459.5,-341 497.22,-319.88 544.68,-306.96 580.19,-299.55"/>
<polygon fill="#63b8ff" stroke="#63b8ff" points="384.34,-398.3 378.17,-406.92 388.37,-404.03 384.34,-398.3"/>
</a>
</g>
</g>
<!-- Node14 -->
<g id="Node000014" class="node">
<title>Node14</title>
<g id="a_Node000014"><a xlink:href="Rectangle3D_8hpp.html" target="_top" xlink:title=" ">
<polygon fill="white" stroke="#666666" points="540.5,-305 392.5,-305 392.5,-275 540.5,-275 540.5,-305"/>
<text text-anchor="start" x="400.5" y="-293" font-family="Helvetica,sans-Serif" font-size="10.00">src/Geometry/Rectangle3D</text>
<text text-anchor="middle" x="466.5" y="-282" font-family="Helvetica,sans-Serif" font-size="10.00">/Rectangle3D.hpp</text>
</a>
</g>
</g>
<!-- Node1&#45;&gt;Node14 -->
<g id="edge23_Node000001_Node000014" class="edge">
<title>Node1&#45;&gt;Node14</title>
<g id="a_edge23_Node000001_Node000014"><a xlink:title=" ">
<path fill="none" stroke="#63b8ff" d="M375.82,-399.15C398.27,-372.38 435.65,-327.79 454.64,-305.14"/>
<polygon fill="#63b8ff" stroke="#63b8ff" points="373.12,-396.93 369.37,-406.84 378.48,-401.43 373.12,-396.93"/>
</a>
</g>
</g>
<!-- Node16 -->
<g id="Node000016" class="node">
<title>Node16</title>
<g id="a_Node000016"><a xlink:href="Vector3D_8cpp.html" target="_top" xlink:title=" ">
<polygon fill="white" stroke="#666666" points="598.5,-371 468.5,-371 468.5,-341 598.5,-341 598.5,-371"/>
<text text-anchor="start" x="476.5" y="-359" font-family="Helvetica,sans-Serif" font-size="10.00">src/Geometry/Vector3D</text>
<text text-anchor="middle" x="533.5" y="-348" font-family="Helvetica,sans-Serif" font-size="10.00">/Vector3D.cpp</text>
</a>
</g>
</g>
<!-- Node1&#45;&gt;Node16 -->
<g id="edge24_Node000001_Node000016" class="edge">
<title>Node1&#45;&gt;Node16</title>
<g id="a_edge24_Node000001_Node000016"><a xlink:title=" ">
<path fill="none" stroke="#63b8ff" d="M405.74,-403.46C433.82,-393.25 468.74,-380.55 494.97,-371.01"/>
<polygon fill="#63b8ff" stroke="#63b8ff" points="404.33,-400.25 396.12,-406.95 406.72,-406.83 404.33,-400.25"/>
</a>
</g>
</g>
<!-- Node3 -->
<g id="Node000003" class="node">
<title>Node3</title>
<g id="a_Node000003"><a xlink:href="ILight_8hpp.html" target="_top" xlink:title=" ">
<polygon fill="white" stroke="#666666" points="163,-101.5 44,-101.5 44,-71.5 163,-71.5 163,-101.5"/>
<text text-anchor="start" x="52" y="-89.5" font-family="Helvetica,sans-Serif" font-size="10.00">src/Objects/Abstracts</text>
<text text-anchor="middle" x="103.5" y="-78.5" font-family="Helvetica,sans-Serif" font-size="10.00">/ILight.hpp</text>
</a>
</g>
</g>
<!-- Node2&#45;&gt;Node3 -->
<g id="edge2_Node000002_Node000003" class="edge">
<title>Node2&#45;&gt;Node3</title>
<g id="a_edge2_Node000002_Node000003"><a xlink:title=" ">
<path fill="none" stroke="#63b8ff" d="M79.75,-265.53C76.81,-257.29 73.97,-247.87 72.5,-239 64.09,-188.14 85.73,-128.35 97.08,-101.64"/>
<polygon fill="#63b8ff" stroke="#63b8ff" points="76.48,-266.78 83.31,-274.88 83.02,-264.29 76.48,-266.78"/>
</a>
</g>
</g>
<!-- Node4 -->
<g id="Node000004" class="node">
<title>Node4</title>
<g id="a_Node000004"><a xlink:href="IMaterial_8hpp.html" target="_top" xlink:title=" ">
<polygon fill="white" stroke="#666666" points="119,-30 0,-30 0,0 119,0 119,-30"/>
<text text-anchor="start" x="8" y="-18" font-family="Helvetica,sans-Serif" font-size="10.00">src/Objects/Abstracts</text>
<text text-anchor="middle" x="59.5" y="-7" font-family="Helvetica,sans-Serif" font-size="10.00">/IMaterial.hpp</text>
</a>
</g>
</g>
<!-- Node2&#45;&gt;Node4 -->
<g id="edge4_Node000002_Node000004" class="edge">
<title>Node2&#45;&gt;Node4</title>
<g id="a_edge4_Node000002_Node000004"><a xlink:title=" ">
<path fill="none" stroke="#63b8ff" d="M78.28,-265.72C74.53,-257.41 70.55,-247.9 67.5,-239 47.92,-181.79 41.89,-167.02 34.5,-107 32.27,-88.91 30.31,-83.73 34.5,-66 37.53,-53.15 44.4,-39.85 50.17,-30.19"/>
<polygon fill="#63b8ff" stroke="#63b8ff" points="75.11,-267.21 82.49,-274.82 81.46,-264.27 75.11,-267.21"/>
</a>
</g>
</g>
<!-- Node5 -->
<g id="Node000005" class="node">
<title>Node5</title>
<g id="a_Node000005"><a xlink:href="FlatColor_8hpp.html" target="_top" xlink:title=" ">
<polygon fill="white" stroke="#666666" points="215,-239 82,-239 82,-209 215,-209 215,-239"/>
<text text-anchor="start" x="90" y="-227" font-family="Helvetica,sans-Serif" font-size="10.00">src/Objects/Plugins</text>
<text text-anchor="middle" x="148.5" y="-216" font-family="Helvetica,sans-Serif" font-size="10.00">/Materials/FlatColor.hpp</text>
</a>
</g>
</g>
<!-- Node2&#45;&gt;Node5 -->
<g id="edge5_Node000002_Node000005" class="edge">
<title>Node2&#45;&gt;Node5</title>
<g id="a_edge5_Node000002_Node000005"><a xlink:title=" ">
<path fill="none" stroke="#63b8ff" d="M109.44,-267.37C118.02,-258.06 127.81,-247.44 135.44,-239.16"/>
<polygon fill="#63b8ff" stroke="#63b8ff" points="106.8,-265.07 102.59,-274.8 111.95,-269.82 106.8,-265.07"/>
</a>
</g>
</g>
<!-- Node2&#45;&gt;Node6 -->
<g id="edge6_Node000002_Node000006" class="edge">
<title>Node2&#45;&gt;Node6</title>
<g id="a_edge6_Node000002_Node000006"><a xlink:title=" ">
<path fill="none" stroke="#63b8ff" d="M146.38,-271.99C180.81,-261.69 224.2,-248.72 256.65,-239.01"/>
<polygon fill="#63b8ff" stroke="#63b8ff" points="145.04,-268.74 136.46,-274.95 147.05,-275.44 145.04,-268.74"/>
</a>
</g>
</g>
<!-- Node3&#45;&gt;Node4 -->
<g id="edge3_Node000003_Node000004" class="edge">
<title>Node3&#45;&gt;Node4</title>
<g id="a_edge3_Node000003_Node000004"><a xlink:title=" ">
<path fill="none" stroke="#63b8ff" d="M89.18,-62.88C82.33,-52.07 74.35,-39.46 68.39,-30.04"/>
<polygon fill="#63b8ff" stroke="#63b8ff" points="86.29,-64.86 94.6,-71.44 92.2,-61.11 86.29,-64.86"/>
</a>
</g>
</g>
<!-- Node7 -->
<g id="Node000007" class="node">
<title>Node7</title>
<g id="a_Node000007"><a xlink:href="Scene_8hpp.html" target="_top" xlink:title=" ">
<polygon fill="white" stroke="#666666" points="354.5,-173 222.5,-173 222.5,-143 354.5,-143 354.5,-173"/>
<text text-anchor="start" x="230.5" y="-161" font-family="Helvetica,sans-Serif" font-size="10.00">src/SceneSystem/Scene</text>
<text text-anchor="middle" x="288.5" y="-150" font-family="Helvetica,sans-Serif" font-size="10.00">/Scene.hpp</text>
</a>
</g>
</g>
<!-- Node6&#45;&gt;Node7 -->
<g id="edge7_Node000006_Node000007" class="edge">
<title>Node6&#45;&gt;Node7</title>
<g id="a_edge7_Node000006_Node000007"><a xlink:title=" ">
<path fill="none" stroke="#63b8ff" d="M297.83,-198.83C295.81,-190.17 293.59,-180.7 291.82,-173.16"/>
<polygon fill="#63b8ff" stroke="#63b8ff" points="294.48,-199.86 300.17,-208.8 301.3,-198.26 294.48,-199.86"/>
</a>
</g>
</g>
<!-- Node7&#45;&gt;Node3 -->
<g id="edge8_Node000007_Node000003" class="edge">
<title>Node7&#45;&gt;Node3</title>
<g id="a_edge8_Node000007_Node000003"><a xlink:title=" ">
<path fill="none" stroke="#63b8ff" d="M241.69,-139.42C210.46,-127.68 169.95,-112.47 140.88,-101.54"/>
<polygon fill="#63b8ff" stroke="#63b8ff" points="240.47,-142.7 251.06,-142.94 242.93,-136.14 240.47,-142.7"/>
</a>
</g>
</g>
<!-- Node8 -->
<g id="Node000008" class="node">
<title>Node8</title>
<g id="a_Node000008"><a xlink:href="SceneWriter_8cpp.html" target="_top" xlink:title=" ">
<polygon fill="white" stroke="#666666" points="340,-107 209,-107 209,-66 340,-66 340,-107"/>
<text text-anchor="start" x="217" y="-95" font-family="Helvetica,sans-Serif" font-size="10.00">src/Objects/Plugins</text>
<text text-anchor="start" x="217" y="-84" font-family="Helvetica,sans-Serif" font-size="10.00">/Interfaces/SceneWriter</text>
<text text-anchor="middle" x="274.5" y="-73" font-family="Helvetica,sans-Serif" font-size="10.00">/SceneWriter.cpp</text>
</a>
</g>
</g>
<!-- Node7&#45;&gt;Node8 -->
<g id="edge9_Node000007_Node000008" class="edge">
<title>Node7&#45;&gt;Node8</title>
<g id="a_edge9_Node000007_Node000008"><a xlink:title=" ">
<path fill="none" stroke="#63b8ff" d="M283.65,-132.91C281.95,-124.47 280.06,-115.1 278.44,-107.07"/>
<polygon fill="#63b8ff" stroke="#63b8ff" points="280.26,-133.82 285.67,-142.94 287.12,-132.44 280.26,-133.82"/>
</a>
</g>
</g>
<!-- Node9 -->
<g id="Node000009" class="node">
<title>Node9</title>
<g id="a_Node000009"><a xlink:href="Scene_8cpp.html" target="_top" xlink:title=" ">
<polygon fill="white" stroke="#666666" points="490.5,-101.5 358.5,-101.5 358.5,-71.5 490.5,-71.5 490.5,-101.5"/>
<text text-anchor="start" x="366.5" y="-89.5" font-family="Helvetica,sans-Serif" font-size="10.00">src/SceneSystem/Scene</text>
<text text-anchor="middle" x="424.5" y="-78.5" font-family="Helvetica,sans-Serif" font-size="10.00">/Scene.cpp</text>
</a>
</g>
</g>
<!-- Node7&#45;&gt;Node9 -->
<g id="edge10_Node000007_Node000009" class="edge">
<title>Node7&#45;&gt;Node9</title>
<g id="a_edge10_Node000007_Node000009"><a xlink:title=" ">
<path fill="none" stroke="#63b8ff" d="M325.01,-138.34C347.66,-126.77 376.29,-112.14 397.02,-101.54"/>
<polygon fill="#63b8ff" stroke="#63b8ff" points="323.33,-135.27 316.02,-142.94 326.52,-141.5 323.33,-135.27"/>
</a>
</g>
</g>
<!-- Node10&#45;&gt;Node2 -->
<g id="edge12_Node000010_Node000002" class="edge">
<title>Node10&#45;&gt;Node2</title>
<g id="a_edge12_Node000010_Node000002"><a xlink:title=" ">
<path fill="none" stroke="#63b8ff" d="M253.69,-338.12C217.73,-327.8 172.28,-314.76 138.32,-305.01"/>
<polygon fill="#63b8ff" stroke="#63b8ff" points="252.98,-341.56 263.56,-340.95 254.92,-334.83 252.98,-341.56"/>
</a>
</g>
</g>
<!-- Node10&#45;&gt;Node6 -->
<g id="edge21_Node000010_Node000006" class="edge">
<title>Node10&#45;&gt;Node6</title>
<g id="a_edge21_Node000010_Node000006"><a xlink:title=" ">
<path fill="none" stroke="#63b8ff" d="M271.39,-335.62C259.56,-327.87 248.09,-317.71 241.5,-305 235.36,-293.16 235.75,-287.03 241.5,-275 248.84,-259.66 263.44,-247.51 276.63,-239.04"/>
<polygon fill="#63b8ff" stroke="#63b8ff" points="269.63,-338.65 279.99,-340.84 273.26,-332.66 269.63,-338.65"/>
</a>
</g>
</g>
<!-- Node11 -->
<g id="Node000011" class="node">
<title>Node11</title>
<g id="a_Node000011"><a xlink:href="Point3D_8cpp.html" target="_top" xlink:title=" ">
<polygon fill="white" stroke="#666666" points="374.5,-305 250.5,-305 250.5,-275 374.5,-275 374.5,-305"/>
<text text-anchor="start" x="258.5" y="-293" font-family="Helvetica,sans-Serif" font-size="10.00">src/Geometry/Point3D</text>
<text text-anchor="middle" x="312.5" y="-282" font-family="Helvetica,sans-Serif" font-size="10.00">/Point3D.cpp</text>
</a>
</g>
</g>
<!-- Node10&#45;&gt;Node11 -->
<g id="edge13_Node000010_Node000011" class="edge">
<title>Node10&#45;&gt;Node11</title>
<g id="a_edge13_Node000010_Node000011"><a xlink:title=" ">
<path fill="none" stroke="#63b8ff" d="M312.5,-330.54C312.5,-321.96 312.5,-312.61 312.5,-305.16"/>
<polygon fill="#63b8ff" stroke="#63b8ff" points="309,-330.8 312.5,-340.8 316,-330.8 309,-330.8"/>
</a>
</g>
</g>
<!-- Node10&#45;&gt;Node12 -->
<g id="edge14_Node000010_Node000012" class="edge">
<title>Node10&#45;&gt;Node12</title>
<g id="a_edge14_Node000010_Node000012"><a xlink:title=" ">
<path fill="none" stroke="#63b8ff" d="M384.62,-340.53C447.5,-327.92 536.58,-310.04 588.77,-299.57"/>
<polygon fill="#63b8ff" stroke="#63b8ff" points="383.88,-337.11 374.76,-342.51 385.26,-343.97 383.88,-337.11"/>
</a>
</g>
</g>
<!-- Node10&#45;&gt;Node14 -->
<g id="edge17_Node000010_Node000014" class="edge">
<title>Node10&#45;&gt;Node14</title>
<g id="a_edge17_Node000010_Node000014"><a xlink:title=" ">
<path fill="none" stroke="#63b8ff" d="M355.68,-337.05C380.08,-326.91 410.13,-314.43 432.78,-305.01"/>
<polygon fill="#63b8ff" stroke="#63b8ff" points="354.19,-333.89 346.3,-340.95 356.87,-340.35 354.19,-333.89"/>
</a>
</g>
</g>
<!-- Node12&#45;&gt;Node6 -->
<g id="edge16_Node000012_Node000006" class="edge">
<title>Node12&#45;&gt;Node6</title>
<g id="a_edge16_Node000012_Node000006"><a xlink:title=" ">
<path fill="none" stroke="#63b8ff" d="M577.61,-278.48C522.05,-267.64 435.16,-250.69 374.13,-238.78"/>
<polygon fill="#63b8ff" stroke="#63b8ff" points="577.12,-281.96 587.6,-280.44 578.46,-275.08 577.12,-281.96"/>
</a>
</g>
</g>
<!-- Node13 -->
<g id="Node000013" class="node">
<title>Node13</title>
<g id="a_Node000013"><a xlink:href="Ray_8cpp.html" target="_top" xlink:title=" ">
<polygon fill="white" stroke="#666666" points="704,-233.5 559,-233.5 559,-214.5 704,-214.5 704,-233.5"/>
<text text-anchor="middle" x="631.5" y="-221.5" font-family="Helvetica,sans-Serif" font-size="10.00">src/Geometry/Ray/Ray.cpp</text>
</a>
</g>
</g>
<!-- Node12&#45;&gt;Node13 -->
<g id="edge15_Node000012_Node000013" class="edge">
<title>Node12&#45;&gt;Node13</title>
<g id="a_edge15_Node000012_Node000013"><a xlink:title=" ">
<path fill="none" stroke="#63b8ff" d="M631.5,-270.08C631.5,-258.13 631.5,-243.22 631.5,-233.91"/>
<polygon fill="#63b8ff" stroke="#63b8ff" points="628,-270.37 631.5,-280.37 635,-270.37 628,-270.37"/>
</a>
</g>
</g>
<!-- Node14&#45;&gt;Node5 -->
<g id="edge19_Node000014_Node000005" class="edge">
<title>Node14&#45;&gt;Node5</title>
<g id="a_edge19_Node000014_Node000005"><a xlink:title=" ">
<path fill="none" stroke="#63b8ff" d="M386.69,-272.94C333.76,-262.29 265.12,-248.47 215.13,-238.41"/>
<polygon fill="#63b8ff" stroke="#63b8ff" points="386.22,-276.41 396.71,-274.95 387.6,-269.55 386.22,-276.41"/>
</a>
</g>
</g>
<!-- Node14&#45;&gt;Node6 -->
<g id="edge20_Node000014_Node000006" class="edge">
<title>Node14&#45;&gt;Node6</title>
<g id="a_edge20_Node000014_Node000006"><a xlink:title=" ">
<path fill="none" stroke="#63b8ff" d="M421.14,-271.19C395.25,-261.02 363.27,-248.47 339.19,-239.01"/>
<polygon fill="#63b8ff" stroke="#63b8ff" points="420.14,-274.56 430.73,-274.95 422.7,-268.04 420.14,-274.56"/>
</a>
</g>
</g>
<!-- Node15 -->
<g id="Node000015" class="node">
<title>Node15</title>
<g id="a_Node000015"><a xlink:href="Rectangle3D_8cpp.html" target="_top" xlink:title=" ">
<polygon fill="white" stroke="#666666" points="540.5,-239 392.5,-239 392.5,-209 540.5,-209 540.5,-239"/>
<text text-anchor="start" x="400.5" y="-227" font-family="Helvetica,sans-Serif" font-size="10.00">src/Geometry/Rectangle3D</text>
<text text-anchor="middle" x="466.5" y="-216" font-family="Helvetica,sans-Serif" font-size="10.00">/Rectangle3D.cpp</text>
</a>
</g>
</g>
<!-- Node14&#45;&gt;Node15 -->
<g id="edge18_Node000014_Node000015" class="edge">
<title>Node14&#45;&gt;Node15</title>
<g id="a_edge18_Node000014_Node000015"><a xlink:title=" ">
<path fill="none" stroke="#63b8ff" d="M466.5,-264.54C466.5,-255.96 466.5,-246.61 466.5,-239.16"/>
<polygon fill="#63b8ff" stroke="#63b8ff" points="463,-264.8 466.5,-274.8 470,-264.8 463,-264.8"/>
</a>
</g>
</g>
</g>
</svg>
