<?xml version="1.0" encoding="UTF-8" standalone="no"?>
<!DOCTYPE svg PUBLIC "-//W3C//DTD SVG 1.1//EN"
 "http://www.w3.org/Graphics/SVG/1.1/DTD/svg11.dtd">
<!-- Generated by graphviz version 2.43.0 (0)
 -->
<!-- Title: src/Geometry/Vector3D/Vector3D.hpp Pages: 1 -->
<svg width="1094pt" height="434pt"
 viewBox="0.00 0.00 1094.00 434.00" xmlns="http://www.w3.org/2000/svg" xmlns:xlink="http://www.w3.org/1999/xlink">
<g id="graph0" class="graph" transform="scale(1 1) rotate(0) translate(4 430)">
<title>src/Geometry/Vector3D/Vector3D.hpp</title>
<!-- Node1 -->
<g id="Node000001" class="node">
<title>Node1</title>
<g id="a_Node000001"><a xlink:title=" ">
<polygon fill="#999999" stroke="#666666" points="808,-426 678,-426 678,-396 808,-396 808,-426"/>
<text text-anchor="start" x="686" y="-414" font-family="Helvetica,sans-Serif" font-size="10.00">src/Geometry/Vector3D</text>
<text text-anchor="middle" x="743" y="-403" font-family="Helvetica,sans-Serif" font-size="10.00">/Vector3D.hpp</text>
</a>
</g>
</g>
<!-- Node2 -->
<g id="Node000002" class="node">
<title>Node2</title>
<g id="a_Node000002"><a xlink:href="HitRecord_8hpp.html" target="_top" xlink:title=" ">
<polygon fill="white" stroke="#666666" points="382,-294 248,-294 248,-264 382,-264 382,-294"/>
<text text-anchor="start" x="256" y="-282" font-family="Helvetica,sans-Serif" font-size="10.00">src/Geometry/HitRecord</text>
<text text-anchor="middle" x="315" y="-271" font-family="Helvetica,sans-Serif" font-size="10.00">/HitRecord.hpp</text>
</a>
</g>
</g>
<!-- Node1&#45;&gt;Node2 -->
<g id="edge1_Node000001_Node000002" class="edge">
<title>Node1&#45;&gt;Node2</title>
<g id="a_edge1_Node000001_Node000002"><a xlink:title=" ">
<path fill="none" stroke="#63b8ff" d="M675.34,-393.37C638.92,-384.12 593.32,-372.07 553,-360 482.42,-338.88 401.31,-310.78 354.33,-294.12"/>
<polygon fill="#63b8ff" stroke="#63b8ff" points="674.8,-396.84 685.35,-395.9 676.51,-390.05 674.8,-396.84"/>
</a>
</g>
</g>
<!-- Node15 -->
<g id="Node000015" class="node">
<title>Node15</title>
<g id="a_Node000015"><a xlink:href="Point3D_8hpp.html" target="_top" xlink:title=" ">
<polygon fill="white" stroke="#666666" points="686,-360 562,-360 562,-330 686,-330 686,-360"/>
<text text-anchor="start" x="570" y="-348" font-family="Helvetica,sans-Serif" font-size="10.00">src/Geometry/Point3D</text>
<text text-anchor="middle" x="624" y="-337" font-family="Helvetica,sans-Serif" font-size="10.00">/Point3D.hpp</text>
</a>
</g>
</g>
<!-- Node1&#45;&gt;Node15 -->
<g id="edge22_Node000001_Node000015" class="edge">
<title>Node1&#45;&gt;Node15</title>
<g id="a_edge22_Node000001_Node000015"><a xlink:title=" ">
<path fill="none" stroke="#63b8ff" d="M707.87,-391.11C689.35,-381.14 667.01,-369.13 650.05,-360.01"/>
<polygon fill="#63b8ff" stroke="#63b8ff" points="706.42,-394.3 716.88,-395.95 709.74,-388.14 706.42,-394.3"/>
</a>
</g>
</g>
<!-- Node17 -->
<g id="Node000017" class="node">
<title>Node17</title>
<g id="a_Node000017"><a xlink:href="Ray_8hpp.html" target="_top" xlink:title=" ">
<polygon fill="white" stroke="#666666" points="688,-288.5 542,-288.5 542,-269.5 688,-269.5 688,-288.5"/>
<text text-anchor="middle" x="615" y="-276.5" font-family="Helvetica,sans-Serif" font-size="10.00">src/Geometry/Ray/Ray.hpp</text>
</a>
</g>
</g>
<!-- Node1&#45;&gt;Node17 -->
<g id="edge37_Node000001_Node000017" class="edge">
<title>Node1&#45;&gt;Node17</title>
<g id="a_edge37_Node000001_Node000017"><a xlink:title=" ">
<path fill="none" stroke="#63b8ff" d="M732.68,-386.64C724.29,-369.53 711.22,-346.52 695,-330 677.1,-311.77 651.31,-297.19 633.89,-288.58"/>
<polygon fill="#63b8ff" stroke="#63b8ff" points="729.63,-388.38 737.06,-395.93 735.96,-385.4 729.63,-388.38"/>
</a>
</g>
</g>
<!-- Node19 -->
<g id="Node000019" class="node">
<title>Node19</title>
<g id="a_Node000019"><a xlink:href="Camera_8hpp.html" target="_top" xlink:title=" ">
<polygon fill="white" stroke="#666666" points="919.5,-228 778.5,-228 778.5,-198 919.5,-198 919.5,-228"/>
<text text-anchor="start" x="786.5" y="-216" font-family="Helvetica,sans-Serif" font-size="10.00">src/SceneSystem/Camera</text>
<text text-anchor="middle" x="849" y="-205" font-family="Helvetica,sans-Serif" font-size="10.00">/Camera.hpp</text>
</a>
</g>
</g>
<!-- Node1&#45;&gt;Node19 -->
<g id="edge40_Node000001_Node000019" class="edge">
<title>Node1&#45;&gt;Node19</title>
<g id="a_edge40_Node000001_Node000019"><a xlink:title=" ">
<path fill="none" stroke="#63b8ff" d="M787.36,-391.51C825.3,-373.02 877.4,-340.6 901,-294 907.02,-282.1 906.22,-276.27 901,-264 894.77,-249.37 881.92,-236.95 870.56,-228.14"/>
<polygon fill="#63b8ff" stroke="#63b8ff" points="785.59,-388.48 778.05,-395.91 788.58,-394.81 785.59,-388.48"/>
</a>
</g>
</g>
<!-- Node21 -->
<g id="Node000021" class="node">
<title>Node21</title>
<g id="a_Node000021"><a xlink:href="Rectangle3D_8hpp.html" target="_top" xlink:title=" ">
<polygon fill="white" stroke="#666666" points="892,-294 744,-294 744,-264 892,-264 892,-294"/>
<text text-anchor="start" x="752" y="-282" font-family="Helvetica,sans-Serif" font-size="10.00">src/Geometry/Rectangle3D</text>
<text text-anchor="middle" x="818" y="-271" font-family="Helvetica,sans-Serif" font-size="10.00">/Rectangle3D.hpp</text>
</a>
</g>
</g>
<!-- Node1&#45;&gt;Node21 -->
<g id="edge38_Node000001_Node000021" class="edge">
<title>Node1&#45;&gt;Node21</title>
<g id="a_edge38_Node000001_Node000021"><a xlink:title=" ">
<path fill="none" stroke="#63b8ff" d="M756.21,-387.1C771.72,-360.23 796.94,-316.5 809.84,-294.14"/>
<polygon fill="#63b8ff" stroke="#63b8ff" points="753.13,-385.43 751.17,-395.84 759.2,-388.93 753.13,-385.43"/>
</a>
</g>
</g>
<!-- Node23 -->
<g id="Node000023" class="node">
<title>Node23</title>
<g id="a_Node000023"><a xlink:href="Vector3D_8cpp.html" target="_top" xlink:title=" ">
<polygon fill="white" stroke="#666666" points="1078,-360 948,-360 948,-330 1078,-330 1078,-360"/>
<text text-anchor="start" x="956" y="-348" font-family="Helvetica,sans-Serif" font-size="10.00">src/Geometry/Vector3D</text>
<text text-anchor="middle" x="1013" y="-337" font-family="Helvetica,sans-Serif" font-size="10.00">/Vector3D.cpp</text>
</a>
</g>
</g>
<!-- Node1&#45;&gt;Node23 -->
<g id="edge39_Node000001_Node000023" class="edge">
<title>Node1&#45;&gt;Node23</title>
<g id="a_edge39_Node000001_Node000023"><a xlink:title=" ">
<path fill="none" stroke="#63b8ff" d="M811.98,-393.65C855.85,-383.25 912.07,-369.93 953.89,-360.01"/>
<polygon fill="#63b8ff" stroke="#63b8ff" points="811.18,-390.24 802.25,-395.95 812.79,-397.05 811.18,-390.24"/>
</a>
</g>
</g>
<!-- Node3 -->
<g id="Node000003" class="node">
<title>Node3</title>
<g id="a_Node000003"><a xlink:href="AMaterial_8hpp.html" target="_top" xlink:title=" ">
<polygon fill="white" stroke="#666666" points="559,-228 421,-228 421,-198 559,-198 559,-228"/>
<text text-anchor="start" x="429" y="-216" font-family="Helvetica,sans-Serif" font-size="10.00">src/Objects/Abstract</text>
<text text-anchor="middle" x="490" y="-205" font-family="Helvetica,sans-Serif" font-size="10.00">/AMaterial/AMaterial.hpp</text>
</a>
</g>
</g>
<!-- Node2&#45;&gt;Node3 -->
<g id="edge2_Node000002_Node000003" class="edge">
<title>Node2&#45;&gt;Node3</title>
<g id="a_edge2_Node000002_Node000003"><a xlink:title=" ">
<path fill="none" stroke="#63b8ff" d="M362.97,-260.46C390.89,-250.25 425.6,-237.55 451.69,-228.01"/>
<polygon fill="#63b8ff" stroke="#63b8ff" points="361.59,-257.23 353.4,-263.95 364,-263.81 361.59,-257.23"/>
</a>
</g>
</g>
<!-- Node4 -->
<g id="Node000004" class="node">
<title>Node4</title>
<g id="a_Node000004"><a xlink:href="ILight_8hpp.html" target="_top" xlink:title=" ">
<polygon fill="white" stroke="#666666" points="267.5,-228 150.5,-228 150.5,-198 267.5,-198 267.5,-228"/>
<text text-anchor="start" x="158.5" y="-216" font-family="Helvetica,sans-Serif" font-size="10.00">src/Objects/Interface</text>
<text text-anchor="middle" x="209" y="-205" font-family="Helvetica,sans-Serif" font-size="10.00">/ILight.hpp</text>
</a>
</g>
</g>
<!-- Node2&#45;&gt;Node4 -->
<g id="edge3_Node000002_Node000004" class="edge">
<title>Node2&#45;&gt;Node4</title>
<g id="a_edge3_Node000002_Node000004"><a xlink:title=" ">
<path fill="none" stroke="#63b8ff" d="M283.03,-258.69C266.66,-248.82 247.11,-237.01 232.21,-228.01"/>
<polygon fill="#63b8ff" stroke="#63b8ff" points="281.37,-261.78 291.74,-263.95 284.99,-255.79 281.37,-261.78"/>
</a>
</g>
</g>
<!-- Node5 -->
<g id="Node000005" class="node">
<title>Node5</title>
<g id="a_Node000005"><a xlink:href="IMaterial_8hpp.html" target="_top" xlink:title=" ">
<polygon fill="white" stroke="#666666" points="175.5,-162 58.5,-162 58.5,-132 175.5,-132 175.5,-162"/>
<text text-anchor="start" x="66.5" y="-150" font-family="Helvetica,sans-Serif" font-size="10.00">src/Objects/Interface</text>
<text text-anchor="middle" x="117" y="-139" font-family="Helvetica,sans-Serif" font-size="10.00">/IMaterial.hpp</text>
</a>
</g>
</g>
<!-- Node2&#45;&gt;Node5 -->
<g id="edge17_Node000002_Node000005" class="edge">
<title>Node2&#45;&gt;Node5</title>
<g id="a_edge17_Node000002_Node000005"><a xlink:title=" ">
<path fill="none" stroke="#63b8ff" d="M237.52,-273.6C201,-267.86 159.58,-255.27 132,-228 114.16,-210.37 109.47,-180.03 111.08,-162.21"/>
<polygon fill="#63b8ff" stroke="#63b8ff" points="237.28,-277.1 247.67,-275.04 238.27,-270.17 237.28,-277.1"/>
</a>
</g>
</g>
<!-- Node14 -->
<g id="Node000014" class="node">
<title>Node14</title>
<g id="a_Node000014"><a xlink:href="IPrimitive_8hpp.html" target="_top" xlink:title=" ">
<polygon fill="white" stroke="#666666" points="402.5,-228 285.5,-228 285.5,-198 402.5,-198 402.5,-228"/>
<text text-anchor="start" x="293.5" y="-216" font-family="Helvetica,sans-Serif" font-size="10.00">src/Objects/Interface</text>
<text text-anchor="middle" x="344" y="-205" font-family="Helvetica,sans-Serif" font-size="10.00">/IPrimitive.hpp</text>
</a>
</g>
</g>
<!-- Node2&#45;&gt;Node14 -->
<g id="edge18_Node000002_Node000014" class="edge">
<title>Node2&#45;&gt;Node14</title>
<g id="a_edge18_Node000002_Node000014"><a xlink:title=" ">
<path fill="none" stroke="#63b8ff" d="M325.57,-254.68C329.59,-245.79 334.06,-235.95 337.58,-228.16"/>
<polygon fill="#63b8ff" stroke="#63b8ff" points="322.38,-253.24 321.44,-263.8 328.75,-256.13 322.38,-253.24"/>
</a>
</g>
</g>
<!-- Node4&#45;&gt;Node5 -->
<g id="edge4_Node000004_Node000005" class="edge">
<title>Node4&#45;&gt;Node5</title>
<g id="a_edge4_Node000004_Node000005"><a xlink:title=" ">
<path fill="none" stroke="#63b8ff" d="M180.29,-192.03C166.37,-182.34 149.97,-170.94 137.36,-162.16"/>
<polygon fill="#63b8ff" stroke="#63b8ff" points="178.37,-194.96 188.58,-197.8 182.37,-189.21 178.37,-194.96"/>
</a>
</g>
</g>
<!-- Node10 -->
<g id="Node000010" class="node">
<title>Node10</title>
<g id="a_Node000010"><a xlink:href="Renderer_8hpp.html" target="_top" xlink:title=" ">
<polygon fill="white" stroke="#666666" points="452,-90.5 306,-90.5 306,-71.5 452,-71.5 452,-90.5"/>
<text text-anchor="middle" x="379" y="-78.5" font-family="Helvetica,sans-Serif" font-size="10.00">src/Renderer/Renderer.hpp</text>
</a>
</g>
</g>
<!-- Node4&#45;&gt;Node10 -->
<g id="edge12_Node000004_Node000010" class="edge">
<title>Node4&#45;&gt;Node10</title>
<g id="a_edge12_Node000004_Node000010"><a xlink:title=" ">
<path fill="none" stroke="#63b8ff" d="M232.22,-191.19C251.09,-174.58 278.65,-151.03 304,-132 324.65,-116.5 349.84,-100.21 365.13,-90.59"/>
<polygon fill="#63b8ff" stroke="#63b8ff" points="229.86,-188.6 224.69,-197.85 234.5,-193.84 229.86,-188.6"/>
</a>
</g>
</g>
<!-- Node12 -->
<g id="Node000012" class="node">
<title>Node12</title>
<g id="a_Node000012"><a xlink:href="Scene_8hpp.html" target="_top" xlink:title=" ">
<polygon fill="white" stroke="#666666" points="445,-162 313,-162 313,-132 445,-132 445,-162"/>
<text text-anchor="start" x="321" y="-150" font-family="Helvetica,sans-Serif" font-size="10.00">src/SceneSystem/Scene</text>
<text text-anchor="middle" x="379" y="-139" font-family="Helvetica,sans-Serif" font-size="10.00">/Scene.hpp</text>
</a>
</g>
</g>
<!-- Node4&#45;&gt;Node12 -->
<g id="edge13_Node000004_Node000012" class="edge">
<title>Node4&#45;&gt;Node12</title>
<g id="a_edge13_Node000004_Node000012"><a xlink:title=" ">
<path fill="none" stroke="#63b8ff" d="M250.19,-194.19C276.23,-184.02 309.72,-171.47 336.08,-162.01"/>
<polygon fill="#63b8ff" stroke="#63b8ff" points="248.63,-191.04 240.61,-197.95 251.2,-197.55 248.63,-191.04"/>
</a>
</g>
</g>
<!-- Node5&#45;&gt;Node2 -->
<g id="edge5_Node000005_Node000002" class="edge">
<title>Node5&#45;&gt;Node2</title>
<g id="a_edge5_Node000005_Node000002"><a xlink:title=" ">
<path fill="none" stroke="#63b8ff" d="M125.69,-172.38C129.47,-190.08 135.23,-213.4 150,-228 176.04,-253.74 214.42,-266.41 247.66,-272.57"/>
<polygon fill="#63b8ff" stroke="#63b8ff" points="129.03,-171.27 123.53,-162.21 122.18,-172.72 129.03,-171.27"/>
</a>
</g>
</g>
<!-- Node6 -->
<g id="Node000006" class="node">
<title>Node6</title>
<g id="a_Node000006"><a xlink:href="APrimitive_8hpp.html" target="_top" xlink:title=" ">
<polygon fill="white" stroke="#666666" points="146,-96 0,-96 0,-66 146,-66 146,-96"/>
<text text-anchor="start" x="8" y="-84" font-family="Helvetica,sans-Serif" font-size="10.00">src/Objects/Abstract</text>
<text text-anchor="middle" x="73" y="-73" font-family="Helvetica,sans-Serif" font-size="10.00">/APrimitive/APrimitive.hpp</text>
</a>
</g>
</g>
<!-- Node5&#45;&gt;Node6 -->
<g id="edge6_Node000005_Node000006" class="edge">
<title>Node5&#45;&gt;Node6</title>
<g id="a_edge6_Node000005_Node000006"><a xlink:title=" ">
<path fill="none" stroke="#63b8ff" d="M101.55,-123.53C95.29,-114.43 88.26,-104.19 82.74,-96.16"/>
<polygon fill="#63b8ff" stroke="#63b8ff" points="98.69,-125.54 107.23,-131.8 104.45,-121.57 98.69,-125.54"/>
</a>
</g>
</g>
<!-- Node8 -->
<g id="Node000008" class="node">
<title>Node8</title>
<g id="a_Node000008"><a xlink:href="Plane_8hpp.html" target="_top" xlink:title=" ">
<polygon fill="white" stroke="#666666" points="287.5,-96 164.5,-96 164.5,-66 287.5,-66 287.5,-96"/>
<text text-anchor="start" x="172.5" y="-84" font-family="Helvetica,sans-Serif" font-size="10.00">src/Objects/Primitives</text>
<text text-anchor="middle" x="226" y="-73" font-family="Helvetica,sans-Serif" font-size="10.00">/Plane/Plane.hpp</text>
</a>
</g>
</g>
<!-- Node5&#45;&gt;Node8 -->
<g id="edge8_Node000005_Node000008" class="edge">
<title>Node5&#45;&gt;Node8</title>
<g id="a_edge8_Node000005_Node000008"><a xlink:title=" ">
<path fill="none" stroke="#63b8ff" d="M149.88,-126.69C166.71,-116.82 186.81,-105.01 202.14,-96.01"/>
<polygon fill="#63b8ff" stroke="#63b8ff" points="147.77,-123.87 140.92,-131.95 151.32,-129.91 147.77,-123.87"/>
</a>
</g>
</g>
<!-- Node5&#45;&gt;Node10 -->
<g id="edge10_Node000005_Node000010" class="edge">
<title>Node5&#45;&gt;Node10</title>
<g id="a_edge10_Node000005_Node000010"><a xlink:title=" ">
<path fill="none" stroke="#63b8ff" d="M184.47,-129.52C235.51,-117.05 303.53,-100.44 344.13,-90.52"/>
<polygon fill="#63b8ff" stroke="#63b8ff" points="183.38,-126.18 174.5,-131.95 185.04,-132.98 183.38,-126.18"/>
</a>
</g>
</g>
<!-- Node7 -->
<g id="Node000007" class="node">
<title>Node7</title>
<g id="a_Node000007"><a xlink:href="APrimitive_8cpp.html" target="_top" xlink:title=" ">
<polygon fill="white" stroke="#666666" points="145.5,-30 0.5,-30 0.5,0 145.5,0 145.5,-30"/>
<text text-anchor="start" x="8.5" y="-18" font-family="Helvetica,sans-Serif" font-size="10.00">src/Objects/Abstract</text>
<text text-anchor="middle" x="73" y="-7" font-family="Helvetica,sans-Serif" font-size="10.00">/APrimitive/APrimitive.cpp</text>
</a>
</g>
</g>
<!-- Node6&#45;&gt;Node7 -->
<g id="edge7_Node000006_Node000007" class="edge">
<title>Node6&#45;&gt;Node7</title>
<g id="a_edge7_Node000006_Node000007"><a xlink:title=" ">
<path fill="none" stroke="#63b8ff" d="M73,-55.54C73,-46.96 73,-37.61 73,-30.16"/>
<polygon fill="#63b8ff" stroke="#63b8ff" points="69.5,-55.8 73,-65.8 76.5,-55.8 69.5,-55.8"/>
</a>
</g>
</g>
<!-- Node9 -->
<g id="Node000009" class="node">
<title>Node9</title>
<g id="a_Node000009"><a xlink:href="Plane_8cpp.html" target="_top" xlink:title=" ">
<polygon fill="white" stroke="#666666" points="287.5,-30 164.5,-30 164.5,0 287.5,0 287.5,-30"/>
<text text-anchor="start" x="172.5" y="-18" font-family="Helvetica,sans-Serif" font-size="10.00">src/Objects/Primitives</text>
<text text-anchor="middle" x="226" y="-7" font-family="Helvetica,sans-Serif" font-size="10.00">/Plane/Plane.cpp</text>
</a>
</g>
</g>
<!-- Node8&#45;&gt;Node9 -->
<g id="edge9_Node000008_Node000009" class="edge">
<title>Node8&#45;&gt;Node9</title>
<g id="a_edge9_Node000008_Node000009"><a xlink:title=" ">
<path fill="none" stroke="#63b8ff" d="M226,-55.54C226,-46.96 226,-37.61 226,-30.16"/>
<polygon fill="#63b8ff" stroke="#63b8ff" points="222.5,-55.8 226,-65.8 229.5,-55.8 222.5,-55.8"/>
</a>
</g>
</g>
<!-- Node11 -->
<g id="Node000011" class="node">
<title>Node11</title>
<g id="a_Node000011"><a xlink:href="Renderer_8cpp.html" target="_top" xlink:title=" ">
<polygon fill="white" stroke="#666666" points="451.5,-24.5 306.5,-24.5 306.5,-5.5 451.5,-5.5 451.5,-24.5"/>
<text text-anchor="middle" x="379" y="-12.5" font-family="Helvetica,sans-Serif" font-size="10.00">src/Renderer/Renderer.cpp</text>
</a>
</g>
</g>
<!-- Node10&#45;&gt;Node11 -->
<g id="edge11_Node000010_Node000011" class="edge">
<title>Node10&#45;&gt;Node11</title>
<g id="a_edge11_Node000010_Node000011"><a xlink:title=" ">
<path fill="none" stroke="#63b8ff" d="M379,-61.08C379,-49.13 379,-34.22 379,-24.91"/>
<polygon fill="#63b8ff" stroke="#63b8ff" points="375.5,-61.37 379,-71.37 382.5,-61.37 375.5,-61.37"/>
</a>
</g>
</g>
<!-- Node12&#45;&gt;Node4 -->
<g id="edge14_Node000012_Node000004" class="edge">
<title>Node12&#45;&gt;Node4</title>
<g id="a_edge14_Node000012_Node000004"><a xlink:title=" ">
<path fill="none" stroke="#63b8ff" d="M337.9,-165.78C311.88,-175.93 278.38,-188.49 252.01,-197.95"/>
<polygon fill="#63b8ff" stroke="#63b8ff" points="339.45,-168.93 347.47,-162.01 336.89,-162.41 339.45,-168.93"/>
</a>
</g>
</g>
<!-- Node12&#45;&gt;Node10 -->
<g id="edge15_Node000012_Node000010" class="edge">
<title>Node12&#45;&gt;Node10</title>
<g id="a_edge15_Node000012_Node000010"><a xlink:title=" ">
<path fill="none" stroke="#63b8ff" d="M379,-121.6C379,-110.8 379,-98.78 379,-90.84"/>
<polygon fill="#63b8ff" stroke="#63b8ff" points="375.5,-121.8 379,-131.8 382.5,-121.8 375.5,-121.8"/>
</a>
</g>
</g>
<!-- Node13 -->
<g id="Node000013" class="node">
<title>Node13</title>
<g id="a_Node000013"><a xlink:href="Scene_8cpp.html" target="_top" xlink:title=" ">
<polygon fill="white" stroke="#666666" points="602,-96 470,-96 470,-66 602,-66 602,-96"/>
<text text-anchor="start" x="478" y="-84" font-family="Helvetica,sans-Serif" font-size="10.00">src/SceneSystem/Scene</text>
<text text-anchor="middle" x="536" y="-73" font-family="Helvetica,sans-Serif" font-size="10.00">/Scene.cpp</text>
</a>
</g>
</g>
<!-- Node12&#45;&gt;Node13 -->
<g id="edge16_Node000012_Node000013" class="edge">
<title>Node12&#45;&gt;Node13</title>
<g id="a_edge16_Node000012_Node000013"><a xlink:title=" ">
<path fill="none" stroke="#63b8ff" d="M423.02,-128.05C447.9,-117.91 478.53,-105.43 501.63,-96.01"/>
<polygon fill="#63b8ff" stroke="#63b8ff" points="421.39,-124.94 413.45,-131.95 424.04,-131.42 421.39,-124.94"/>
</a>
</g>
</g>
<!-- Node14&#45;&gt;Node6 -->
<g id="edge19_Node000014_Node000006" class="edge">
<title>Node14&#45;&gt;Node6</title>
<g id="a_edge19_Node000014_Node000006"><a xlink:title=" ">
<path fill="none" stroke="#63b8ff" d="M307.64,-193.29C275.34,-176.8 226.77,-152.31 184,-132 157.65,-119.49 127.46,-105.93 105.22,-96.1"/>
<polygon fill="#63b8ff" stroke="#63b8ff" points="306.21,-196.49 316.7,-197.93 309.39,-190.26 306.21,-196.49"/>
</a>
</g>
</g>
<!-- Node14&#45;&gt;Node8 -->
<g id="edge20_Node000014_Node000008" class="edge">
<title>Node14&#45;&gt;Node8</title>
<g id="a_edge20_Node000014_Node000008"><a xlink:title=" ">
<path fill="none" stroke="#63b8ff" d="M324.16,-190.15C299.86,-163.38 259.4,-118.79 238.84,-96.14"/>
<polygon fill="#63b8ff" stroke="#63b8ff" points="321.83,-192.79 331.15,-197.84 327.02,-188.08 321.83,-192.79"/>
</a>
</g>
</g>
<!-- Node14&#45;&gt;Node12 -->
<g id="edge21_Node000014_Node000012" class="edge">
<title>Node14&#45;&gt;Node12</title>
<g id="a_edge21_Node000014_Node000012"><a xlink:title=" ">
<path fill="none" stroke="#63b8ff" d="M356.6,-188.96C361.5,-180 366.95,-170.03 371.25,-162.16"/>
<polygon fill="#63b8ff" stroke="#63b8ff" points="353.5,-187.34 351.77,-197.8 359.64,-190.7 353.5,-187.34"/>
</a>
</g>
</g>
<!-- Node15&#45;&gt;Node2 -->
<g id="edge23_Node000015_Node000002" class="edge">
<title>Node15&#45;&gt;Node2</title>
<g id="a_edge23_Node000015_Node000002"><a xlink:title=" ">
<path fill="none" stroke="#63b8ff" d="M551.83,-329.05C500.57,-318.44 432.24,-304.28 382.15,-293.91"/>
<polygon fill="#63b8ff" stroke="#63b8ff" points="551.34,-332.52 561.84,-331.13 552.76,-325.67 551.34,-332.52"/>
</a>
</g>
</g>
<!-- Node16 -->
<g id="Node000016" class="node">
<title>Node16</title>
<g id="a_Node000016"><a xlink:href="Point3D_8cpp.html" target="_top" xlink:title=" ">
<polygon fill="white" stroke="#666666" points="524,-294 400,-294 400,-264 524,-264 524,-294"/>
<text text-anchor="start" x="408" y="-282" font-family="Helvetica,sans-Serif" font-size="10.00">src/Geometry/Point3D</text>
<text text-anchor="middle" x="462" y="-271" font-family="Helvetica,sans-Serif" font-size="10.00">/Point3D.cpp</text>
</a>
</g>
</g>
<!-- Node15&#45;&gt;Node16 -->
<g id="edge24_Node000015_Node000016" class="edge">
<title>Node15&#45;&gt;Node16</title>
<g id="a_edge24_Node000015_Node000016"><a xlink:title=" ">
<path fill="none" stroke="#63b8ff" d="M578.91,-326.19C553.19,-316.02 521.4,-303.47 497.47,-294.01"/>
<polygon fill="#63b8ff" stroke="#63b8ff" points="577.86,-329.54 588.45,-329.95 580.43,-323.03 577.86,-329.54"/>
</a>
</g>
</g>
<!-- Node15&#45;&gt;Node17 -->
<g id="edge25_Node000015_Node000017" class="edge">
<title>Node15&#45;&gt;Node17</title>
<g id="a_edge25_Node000015_Node000017"><a xlink:title=" ">
<path fill="none" stroke="#63b8ff" d="M620.57,-319.6C619.05,-308.8 617.36,-296.78 616.24,-288.84"/>
<polygon fill="#63b8ff" stroke="#63b8ff" points="617.14,-320.38 622,-329.8 624.08,-319.41 617.14,-320.38"/>
</a>
</g>
</g>
<!-- Node15&#45;&gt;Node19 -->
<g id="edge36_Node000015_Node000019" class="edge">
<title>Node15&#45;&gt;Node19</title>
<g id="a_edge36_Node000015_Node000019"><a xlink:title=" ">
<path fill="none" stroke="#63b8ff" d="M653.73,-324.31C667.1,-315.28 682.99,-304.31 697,-294 714.33,-281.25 716.55,-275.08 735,-264 758.99,-249.59 787.88,-236.97 810.58,-228.01"/>
<polygon fill="#63b8ff" stroke="#63b8ff" points="651.7,-321.45 645.35,-329.93 655.6,-327.26 651.7,-321.45"/>
</a>
</g>
</g>
<!-- Node15&#45;&gt;Node21 -->
<g id="edge32_Node000015_Node000021" class="edge">
<title>Node15&#45;&gt;Node21</title>
<g id="a_edge32_Node000015_Node000021"><a xlink:title=" ">
<path fill="none" stroke="#63b8ff" d="M676.37,-326.72C707.46,-316.47 746.36,-303.63 775.53,-294.01"/>
<polygon fill="#63b8ff" stroke="#63b8ff" points="674.97,-323.5 666.57,-329.95 677.17,-330.15 674.97,-323.5"/>
</a>
</g>
</g>
<!-- Node17&#45;&gt;Node10 -->
<g id="edge28_Node000017_Node000010" class="edge">
<title>Node17&#45;&gt;Node10</title>
<g id="a_edge28_Node000017_Node000010"><a xlink:title=" ">
<path fill="none" stroke="#63b8ff" d="M607.47,-259.85C599.58,-242.44 585.84,-216.19 568,-198 516.64,-145.64 437.06,-106.97 399.7,-90.61"/>
<polygon fill="#63b8ff" stroke="#63b8ff" points="604.42,-261.62 611.62,-269.39 610.84,-258.83 604.42,-261.62"/>
</a>
</g>
</g>
<!-- Node17&#45;&gt;Node14 -->
<g id="edge27_Node000017_Node000014" class="edge">
<title>Node17&#45;&gt;Node14</title>
<g id="a_edge27_Node000017_Node000014"><a xlink:title=" ">
<path fill="none" stroke="#63b8ff" d="M568.76,-267.08C522.88,-256.25 452.4,-239.6 402.61,-227.84"/>
<polygon fill="#63b8ff" stroke="#63b8ff" points="568.2,-270.54 578.73,-269.44 569.81,-263.73 568.2,-270.54"/>
</a>
</g>
</g>
<!-- Node18 -->
<g id="Node000018" class="node">
<title>Node18</title>
<g id="a_Node000018"><a xlink:href="Ray_8cpp.html" target="_top" xlink:title=" ">
<polygon fill="white" stroke="#666666" points="760.5,-222.5 615.5,-222.5 615.5,-203.5 760.5,-203.5 760.5,-222.5"/>
<text text-anchor="middle" x="688" y="-210.5" font-family="Helvetica,sans-Serif" font-size="10.00">src/Geometry/Ray/Ray.cpp</text>
</a>
</g>
</g>
<!-- Node17&#45;&gt;Node18 -->
<g id="edge26_Node000017_Node000018" class="edge">
<title>Node17&#45;&gt;Node18</title>
<g id="a_edge26_Node000017_Node000018"><a xlink:title=" ">
<path fill="none" stroke="#63b8ff" d="M632.48,-262.68C646.64,-250.26 666.12,-233.18 677.84,-222.91"/>
<polygon fill="#63b8ff" stroke="#63b8ff" points="630.06,-260.14 624.85,-269.37 634.67,-265.41 630.06,-260.14"/>
</a>
</g>
</g>
<!-- Node17&#45;&gt;Node19 -->
<g id="edge29_Node000017_Node000019" class="edge">
<title>Node17&#45;&gt;Node19</title>
<g id="a_edge29_Node000017_Node000019"><a xlink:title=" ">
<path fill="none" stroke="#63b8ff" d="M656.35,-266.69C695.68,-255.93 754.98,-239.72 797.39,-228.12"/>
<polygon fill="#63b8ff" stroke="#63b8ff" points="655.28,-263.35 646.56,-269.37 657.13,-270.11 655.28,-263.35"/>
</a>
</g>
</g>
<!-- Node19&#45;&gt;Node12 -->
<g id="edge31_Node000019_Node000012" class="edge">
<title>Node19&#45;&gt;Node12</title>
<g id="a_edge31_Node000019_Node000012"><a xlink:title=" ">
<path fill="none" stroke="#63b8ff" d="M768.25,-197.93C648.23,-179.91 520.57,-164.36 445.03,-155.53"/>
<polygon fill="#63b8ff" stroke="#63b8ff" points="767.95,-201.43 778.36,-199.46 768.99,-194.5 767.95,-201.43"/>
</a>
</g>
</g>
<!-- Node20 -->
<g id="Node000020" class="node">
<title>Node20</title>
<g id="a_Node000020"><a xlink:href="Camera_8cpp.html" target="_top" xlink:title=" ">
<polygon fill="white" stroke="#666666" points="919.5,-162 778.5,-162 778.5,-132 919.5,-132 919.5,-162"/>
<text text-anchor="start" x="786.5" y="-150" font-family="Helvetica,sans-Serif" font-size="10.00">src/SceneSystem/Camera</text>
<text text-anchor="middle" x="849" y="-139" font-family="Helvetica,sans-Serif" font-size="10.00">/Camera.cpp</text>
</a>
</g>
</g>
<!-- Node19&#45;&gt;Node20 -->
<g id="edge30_Node000019_Node000020" class="edge">
<title>Node19&#45;&gt;Node20</title>
<g id="a_edge30_Node000019_Node000020"><a xlink:title=" ">
<path fill="none" stroke="#63b8ff" d="M849,-187.54C849,-178.96 849,-169.61 849,-162.16"/>
<polygon fill="#63b8ff" stroke="#63b8ff" points="845.5,-187.8 849,-197.8 852.5,-187.8 845.5,-187.8"/>
</a>
</g>
</g>
<!-- Node21&#45;&gt;Node3 -->
<g id="edge34_Node000021_Node000003" class="edge">
<title>Node21&#45;&gt;Node3</title>
<g id="a_edge34_Node000021_Node000003"><a xlink:title=" ">
<path fill="none" stroke="#63b8ff" d="M736.03,-262.01C681.5,-251.37 610.66,-237.54 559,-227.46"/>
<polygon fill="#63b8ff" stroke="#63b8ff" points="735.53,-265.47 746.02,-263.95 736.87,-258.6 735.53,-265.47"/>
</a>
</g>
</g>
<!-- Node21&#45;&gt;Node19 -->
<g id="edge35_Node000021_Node000019" class="edge">
<title>Node21&#45;&gt;Node19</title>
<g id="a_edge35_Node000021_Node000019"><a xlink:title=" ">
<path fill="none" stroke="#63b8ff" d="M829.3,-254.68C833.6,-245.79 838.37,-235.95 842.14,-228.16"/>
<polygon fill="#63b8ff" stroke="#63b8ff" points="826.09,-253.27 824.88,-263.8 832.39,-256.32 826.09,-253.27"/>
</a>
</g>
</g>
<!-- Node22 -->
<g id="Node000022" class="node">
<title>Node22</title>
<g id="a_Node000022"><a xlink:href="Rectangle3D_8cpp.html" target="_top" xlink:title=" ">
<polygon fill="white" stroke="#666666" points="1086,-228 938,-228 938,-198 1086,-198 1086,-228"/>
<text text-anchor="start" x="946" y="-216" font-family="Helvetica,sans-Serif" font-size="10.00">src/Geometry/Rectangle3D</text>
<text text-anchor="middle" x="1012" y="-205" font-family="Helvetica,sans-Serif" font-size="10.00">/Rectangle3D.cpp</text>
</a>
</g>
</g>
<!-- Node21&#45;&gt;Node22 -->
<g id="edge33_Node000021_Node000022" class="edge">
<title>Node21&#45;&gt;Node22</title>
<g id="a_edge33_Node000021_Node000022"><a xlink:title=" ">
<path fill="none" stroke="#63b8ff" d="M870.37,-260.72C901.46,-250.47 940.36,-237.63 969.53,-228.01"/>
<polygon fill="#63b8ff" stroke="#63b8ff" points="868.97,-257.5 860.57,-263.95 871.17,-264.15 868.97,-257.5"/>
</a>
</g>
</g>
</g>
</svg>
